<svg width="600" height="600" viewBox="0 0 600 600" fill="none" xmlns="http://www.w3.org/2000/svg">
<g clip-path="url(#clip0_10846_18251)">
<path d="M552.607 356.932C551.888 351.77 549.106 347.027 545.296 343.516C542.909 341.315 540.118 339.596 537.077 338.452C543.305 336.362 548.656 331.182 550.645 325.041C553.538 316.109 547.894 306.269 540.257 301.676C538.305 300.499 536.169 299.657 533.939 299.186C541.421 294.774 544.998 285.167 543.126 276.275C541.829 270.108 538.075 264.514 533.193 260.584C527.658 256.126 520.643 254.003 513.6 253.604C506.296 253.19 499.061 254.752 491.933 256.25C496.049 248.445 506.837 223.815 503.36 196.976C502.1 187.25 498.566 177.203 490.035 171.561C484.453 167.869 477.787 166.975 471.445 169.227C464.119 171.828 458.582 177.576 455.603 184.668C452.379 192.345 452.131 200.797 451.531 208.98C451.274 212.482 450.226 225.769 449.516 228.85C447.966 235.588 443.96 241.674 438.532 245.963C435.679 248.219 432.481 250.074 429.333 251.878C419.521 257.503 409.302 262.431 399.099 267.3C387.392 272.887 345.577 291.933 336.613 296.364C321.381 303.896 306.079 312.388 293.719 324.207C281.99 335.416 273.793 350.277 274.005 366.82C274.207 382.72 282.638 398.049 294.634 408.258C303.293 415.628 313.974 420.164 325.177 421.926C331.259 422.882 384.11 421.966 393.953 421.71C405.005 421.422 416.06 421.125 427.113 420.813C437.873 420.511 518.666 422.349 532.919 409.245C536.089 406.33 539.009 403.111 540.157 398.922C541.474 394.12 541.005 388.865 538.018 384.774C537.045 383.458 535.875 382.299 534.551 381.336C540.381 379.71 545.679 375.889 549.087 370.961C551.921 366.867 553.298 361.891 552.607 356.932Z" fill="#2FB195"/>
<path d="M389.28 415.048L385.939 440.57L380.623 481.188L379.414 490.431L382.986 486.865H371.502C366.906 486.865 366.896 493.998 371.502 493.998H382.986C385.101 493.998 386.308 492.348 386.558 490.431L389.899 464.91L395.215 424.291L396.425 415.048C396.675 413.134 394.603 411.482 392.852 411.482C390.714 411.482 389.533 413.129 389.28 415.048ZM421.84 416.203L429.818 441.563L442.524 481.951L445.425 491.173C446.051 493.163 447.849 493.976 449.818 493.665L459.79 492.079C461.697 491.775 462.755 489.402 462.286 487.693C461.728 485.665 459.804 484.897 457.892 485.201L447.92 486.787L452.314 489.278L444.336 463.918L431.631 423.531L428.73 414.309C427.356 409.944 420.457 411.808 421.84 416.203Z" fill="#2FB195"/>
<path d="M391.407 306.799C383.055 300.33 371.04 302.948 364.962 311.078C359.056 318.979 360.075 330.58 368.244 336.612C369.967 337.863 371.928 338.748 374.007 339.215C382.054 341.096 391.981 337.572 396.008 330.654C400.456 323.011 398.403 312.217 391.407 306.799Z" fill="#FCF1D5"/>
<path d="M392.009 305.772C385.46 300.824 376.386 300.893 369.544 305.256C362.79 309.562 359.039 317.5 360.256 325.44C361.568 334.009 368.553 340.33 377.201 340.865C384.964 341.345 393.743 337.665 397.429 330.538C401.618 322.44 399.411 311.649 392.249 305.957C391.063 305.014 389.365 306.685 390.566 307.638C396.198 312.115 398.508 319.953 396.398 326.81C394.257 333.764 387.277 337.881 380.275 338.454C376.441 338.768 372.457 338.081 369.244 335.87C366.279 333.83 364.107 330.714 363.095 327.278C361.104 320.529 363.516 313.166 368.88 308.672C375.124 303.442 384.259 302.879 390.809 307.826C392.028 308.748 393.216 306.685 392.009 305.772Z" fill="#FCF1D5"/>
<path d="M379.809 316.822C374.891 313.159 367.67 313.791 363.914 318.857C363.135 319.926 362.584 321.143 362.295 322.433C361.123 327.426 363.317 333.583 367.625 336.079C372.383 338.837 379.101 337.565 382.473 333.224C386.501 328.046 384.869 320.593 379.809 316.822Z" fill="black"/>
<path d="M380.409 315.795C376.291 312.804 370.449 312.412 366.115 315.203C361.283 318.315 359.83 324.24 361.435 329.565C362.998 334.75 367.187 338.471 372.7 338.714C377.927 338.942 383.029 336.013 385.036 331.127C387.308 325.607 385.022 319.316 380.409 315.795C379.192 314.866 378.004 316.929 379.206 317.847C382.521 320.376 384.281 324.872 383.255 328.952C382.209 333.115 378.437 335.975 374.207 336.308C369.794 336.655 366.053 334.403 364.257 330.374C362.397 326.201 362.795 320.916 366.47 317.868C370.142 314.823 375.467 315.127 379.206 317.845C380.449 318.75 381.638 316.689 380.409 315.795Z" fill="black"/>
<path d="M450.395 314.88C448.411 307.068 441.835 300.796 433.814 299.529C424.405 298.043 414.934 303.478 412.581 312.916C410.859 320.64 413.393 329.784 419.701 334.831C426.036 339.898 435.52 339.852 442.29 335.656C449.325 331.291 452.407 322.813 450.395 314.88Z" fill="#FCF1D5"/>
<path d="M437.07 316.373C434.215 311.868 428.727 309.904 423.607 311.235C418.642 312.529 414.636 316.703 413.814 321.796C412.831 327.88 416.327 334.013 422.459 335.544C427.522 336.662 433.46 334.983 436.698 330.806C439.863 326.722 439.79 320.664 437.07 316.373Z" fill="black"/>
<path d="M384.926 342.284C384.002 341.036 382.685 340.211 381.206 339.76C378.225 338.849 374.795 339.363 372.007 340.649C370.297 341.438 368.568 342.786 368.044 344.671C367.737 345.782 367.915 347.042 368.622 347.964C369.416 349.001 370.633 349.276 371.864 349.429C374.064 349.662 376.377 349.498 378.563 349.219C380.823 348.932 384.112 348.539 385.469 346.424C386.324 345.09 385.805 343.468 384.926 342.284ZM445.015 342.815C444.7 340.998 443.133 339.638 441.549 338.854C438.815 337.501 435.455 337.102 432.488 337.824C431.061 338.171 429.649 338.856 428.627 339.931C427.575 341.039 426.646 342.791 427.194 344.331C428.056 346.756 431.511 347.146 433.681 347.356C436.274 347.605 439.02 347.608 441.599 347.168C442.69 346.963 443.743 346.573 444.424 345.651C445.024 344.835 445.184 343.799 445.015 342.815Z" fill="#E24122"/>
<path d="M406.374 353.518C405.948 353.518 405.522 353.513 405.096 353.501C395.26 353.235 385.105 349.78 384.588 342.662C384.566 342.351 384.605 342.038 384.703 341.742C384.801 341.445 384.957 341.171 385.162 340.935C385.367 340.699 385.616 340.505 385.895 340.365C386.175 340.225 386.479 340.141 386.791 340.119C387.103 340.096 387.417 340.135 387.713 340.233C388.01 340.331 388.285 340.487 388.522 340.691C388.758 340.896 388.952 341.144 389.093 341.423C389.233 341.702 389.317 342.006 389.339 342.318C389.585 345.689 396.56 348.513 405.224 348.749C413.829 348.989 423.329 346.405 423.995 341.167C424.1 340.564 424.434 340.024 424.927 339.66C425.421 339.296 426.036 339.136 426.645 339.213C427.253 339.29 427.809 339.598 428.195 340.074C428.582 340.55 428.77 341.156 428.72 341.766C427.68 349.954 416.956 353.518 406.374 353.518ZM475.655 263.416C488.47 257.565 503.086 253.616 517.22 256.155C528.966 258.266 542.033 266.055 541.947 279.454C541.902 286.529 538.258 293.112 533.605 298.24C532.578 299.372 534.257 301.057 535.289 299.921C539.768 294.983 543.271 288.949 544.131 282.259C545.005 275.464 542.626 268.908 537.958 263.941C528.504 253.882 513.133 251.89 500.092 253.587C491.169 254.75 482.609 257.634 474.45 261.359C473.062 261.999 474.272 264.048 475.655 263.416Z" fill="black"/>
<path d="M529.049 300.254C532.58 300.016 536.107 300.77 539.232 302.429C542.356 304.088 544.953 306.587 546.73 309.642C550.538 316.192 549.987 324.454 545.41 330.478C542.785 333.905 539.14 336.412 534.998 337.641C533.534 338.079 534.157 340.373 535.632 339.933C543.755 337.506 550.285 330.528 551.462 322.043C552.581 313.955 548.832 305.827 542.05 301.3C538.212 298.761 533.642 297.557 529.049 297.876C527.527 297.979 527.515 300.356 529.049 300.254Z" fill="black"/>
<path d="M531.938 339.626C539.337 339.836 546.039 343.899 549.03 350.769C552.398 358.503 550.335 367.989 544.467 373.954C541.559 376.909 537.813 378.654 533.931 379.96C532.486 380.445 533.107 382.741 534.565 382.251C538.392 380.965 542.098 379.291 545.146 376.591C548.456 373.657 550.881 369.63 552.095 365.393C554.56 356.782 551.988 347.037 544.724 341.536C541.038 338.742 536.539 337.377 531.94 337.247C530.404 337.206 530.404 339.584 531.938 339.626Z" fill="black"/>
<path d="M532.104 381.443C538.387 383.652 540.461 391.238 538.701 397.115C536.794 403.487 531.488 408.722 525.52 411.399C524.124 412.024 525.334 414.073 526.722 413.45C533.6 410.367 539.782 403.855 541.357 396.333C542.8 389.443 539.709 381.6 532.738 379.149C531.288 378.642 530.666 380.937 532.104 381.443ZM491.95 223.815C491.377 231.642 488.911 239.213 484.765 245.88C483.955 247.185 486.015 248.378 486.82 247.08C491.171 240.047 493.748 232.064 494.329 223.817C494.441 222.286 492.059 222.293 491.95 223.815ZM481.89 235.707C480.66 240.141 478.685 244.334 476.048 248.107C475.681 248.635 475.951 249.427 476.474 249.734C477.067 250.081 477.734 249.836 478.103 249.308C480.849 245.359 482.906 240.974 484.186 236.339C484.595 234.863 482.3 234.233 481.89 235.707ZM471.397 240.728L468.015 246.507C467.701 247.045 467.875 247.834 468.442 248.134C469.013 248.436 469.735 248.281 470.071 247.708L473.452 241.928C473.767 241.391 473.593 240.602 473.026 240.302C472.752 240.149 472.429 240.107 472.125 240.187C471.822 240.266 471.56 240.46 471.397 240.728ZM336.796 282.766L385.777 257.527C387.139 256.825 385.936 254.774 384.574 255.475L335.593 280.714C334.231 281.415 335.434 283.467 336.796 282.766Z" fill="black"/>
<path d="M377.027 260.444C375.655 255.454 374.179 250.314 370.752 246.293C367.608 242.604 363.117 240.507 358.237 241.158C353.286 241.819 348.068 244.487 344.172 247.563C340.211 250.694 338.137 255.149 338.12 260.182C338.101 266.342 340.954 271.958 343.724 277.295C344.017 277.859 344.538 277.968 345 277.821C345.117 277.799 345.231 277.782 345.353 277.721L372.609 263.763L376.477 261.782C376.944 261.549 377.16 260.931 377.027 260.444Z" fill="black"/>
<path d="M348.141 272.626L351.204 271.033C351.475 270.872 351.672 270.612 351.752 270.307C351.831 270.003 351.788 269.679 351.63 269.407C351.467 269.139 351.205 268.946 350.902 268.866C350.598 268.787 350.275 268.828 350.001 268.981L346.939 270.574C346.668 270.735 346.471 270.995 346.391 271.3C346.311 271.604 346.355 271.928 346.512 272.2C346.677 272.466 346.939 272.659 347.242 272.738C347.545 272.817 347.867 272.777 348.141 272.626ZM357.184 268.026L360.561 265.936C361.09 265.608 361.342 264.859 360.987 264.31C360.644 263.779 359.925 263.532 359.358 263.884L355.981 265.974C355.453 266.302 355.2 267.051 355.555 267.6C355.896 268.128 356.617 268.375 357.184 268.026ZM367.365 263.128L371.385 260.877C371.928 260.572 372.157 259.783 371.811 259.25C371.648 258.983 371.386 258.789 371.083 258.71C370.779 258.631 370.456 258.672 370.182 258.825L366.162 261.076C365.619 261.381 365.391 262.17 365.736 262.702C365.9 262.97 366.161 263.163 366.465 263.243C366.768 263.322 367.091 263.281 367.365 263.128ZM359.963 299.534C359.425 299.535 358.901 299.354 358.479 299.021C358.056 298.687 357.759 298.22 357.637 297.697C357.514 297.173 357.573 296.623 357.804 296.137C358.035 295.651 358.424 295.258 358.908 295.021C359.673 294.646 377.81 285.904 394.095 292.104C394.387 292.215 394.655 292.383 394.882 292.598C395.11 292.812 395.292 293.069 395.42 293.354C395.548 293.639 395.618 293.946 395.627 294.259C395.636 294.571 395.583 294.882 395.472 295.173C395.36 295.465 395.192 295.732 394.977 295.959C394.763 296.186 394.505 296.369 394.22 296.496C393.934 296.624 393.626 296.694 393.313 296.703C393.001 296.712 392.689 296.659 392.397 296.548C378.075 291.096 361.175 299.208 361.006 299.289C360.683 299.451 360.325 299.535 359.963 299.534ZM448.172 297.097C447.81 297.096 447.452 297.013 447.127 296.854C446.958 296.773 430.059 288.662 415.736 294.113C415.146 294.338 414.49 294.319 413.914 294.062C413.337 293.804 412.887 293.328 412.662 292.739C412.436 292.15 412.455 291.495 412.713 290.92C412.971 290.344 413.448 289.894 414.038 289.67C430.323 283.472 448.461 292.211 449.225 292.587C449.707 292.824 450.095 293.217 450.325 293.702C450.555 294.187 450.614 294.736 450.492 295.259C450.37 295.781 450.074 296.248 449.653 296.581C449.232 296.915 448.71 297.097 448.172 297.097Z" fill="#E24122"/>
</g>
<g clip-path="url(#clip1_10846_18251)">
<path d="M352.727 488.105L280.953 254.326C280.574 253.071 279.797 251.972 278.739 251.193C277.681 250.413 276.397 249.995 275.081 250H98.9601C98.7919 250.003 98.6261 250.041 98.4739 250.112C98.4247 250.134 98.383 250.164 98.3363 250.193C98.2799 250.227 98.216 250.249 98.1669 250.293L84.0875 262.197C83.2137 262.942 82.5663 263.915 82.2183 265.007C81.8703 266.099 81.8355 267.265 82.118 268.376L104.859 356.361C104.634 356.483 104.455 356.673 104.346 356.903L46.5254 487.426C45.6831 489.322 45.8599 491.49 46.9969 493.228C48.134 494.966 50.0569 496.002 52.1419 496.002H120.503C121.761 495.999 122.988 495.613 124.019 494.896C125.051 494.178 125.836 493.164 126.272 491.989L134.28 470.179L139.715 491.204C140.054 492.516 140.821 493.678 141.896 494.509C142.971 495.339 144.292 495.791 145.653 495.792L161.282 495.809C161.47 495.93 161.689 495.996 161.913 496H346.855C348.822 496 350.62 495.098 351.792 493.524C352.963 491.95 353.299 489.977 352.727 488.105Z" fill="#F6A50C"/>
<path d="M161.913 496.002C161.641 496.002 161.376 495.912 161.161 495.745C160.946 495.579 160.792 495.346 160.725 495.083L97.7691 251.528C97.729 251.372 97.72 251.21 97.7427 251.051C97.7654 250.892 97.8193 250.739 97.9014 250.601C97.9835 250.463 98.0922 250.342 98.2212 250.246C98.3502 250.149 98.497 250.079 98.6532 250.039C98.8095 249.999 98.9721 249.99 99.1318 250.013C99.2916 250.035 99.4453 250.089 99.5841 250.171C99.723 250.252 99.8444 250.361 99.9413 250.489C100.038 250.617 100.109 250.764 100.149 250.919L163.104 494.475C163.151 494.656 163.156 494.845 163.118 495.027C163.08 495.21 163.001 495.382 162.886 495.53C162.771 495.677 162.623 495.796 162.455 495.878C162.286 495.96 162.101 496.003 161.913 496.002ZM134.398 473.919C134.124 473.919 133.859 473.828 133.643 473.661C133.427 473.493 133.274 473.259 133.207 472.995L103.656 355.723C103.617 355.567 103.609 355.405 103.632 355.247C103.656 355.088 103.711 354.935 103.794 354.798C103.877 354.66 103.986 354.54 104.115 354.444C104.245 354.349 104.392 354.28 104.548 354.241C104.705 354.201 104.867 354.194 105.027 354.217C105.187 354.241 105.34 354.295 105.478 354.378C105.616 354.46 105.737 354.569 105.833 354.698C105.929 354.827 105.999 354.973 106.038 355.129L135.589 472.398C135.635 472.579 135.639 472.767 135.601 472.949C135.563 473.131 135.483 473.302 135.368 473.449C135.253 473.596 135.106 473.714 134.938 473.796C134.77 473.877 134.585 473.919 134.398 473.919Z" fill="black"/>
<path d="M329.159 475.828L176.155 476.766L122.573 267.305L264.794 265.105L329.159 475.828Z" fill="white"/>
<path d="M219.974 317.554C278.502 312.189 306.3 404.654 306.3 404.654L330.239 474.603L176.155 476.764L164.283 426.085C164.283 426.088 150.776 323.897 219.974 317.554Z" fill="#1E7EC1"/>
<path d="M256.699 372.246C255.009 362.42 250.756 353.623 244.724 347.474C238.575 341.207 231.318 338.423 224.26 339.611C217.211 340.813 211.293 345.853 207.589 353.804C203.96 361.601 202.891 371.305 204.581 381.128C207.842 400.071 220.576 414.03 233.857 414.03C234.917 414.03 235.975 413.941 237.02 413.764C244.068 412.561 249.987 407.521 253.69 399.57C257.32 391.773 258.391 382.069 256.699 372.246Z" fill="#FCF1D5"/>
<path d="M253.494 377.369C252.775 373.05 250.399 369.177 246.866 366.568C245.157 365.293 243.205 364.377 241.129 363.877C239.053 363.377 236.896 363.303 234.79 363.659C226.04 365.153 220.186 373.732 221.743 382.781C222.462 387.099 224.837 390.972 228.368 393.582C231.087 395.606 234.389 396.704 237.784 396.713C238.666 396.713 239.557 396.639 240.441 396.488C244.69 395.762 248.388 393.369 250.854 389.744C253.315 386.117 254.262 381.679 253.494 377.369Z" fill="black"/>
<path d="M257.718 351.001C258.781 360.299 243.99 372.647 226.88 372.852C209.849 373.055 196.042 369.098 196.042 357.028C196.042 344.959 209.849 329.149 226.88 329.149C243.911 329.149 256.348 339.009 257.718 351.001Z" fill="#1E7EC1"/>
<path d="M200.654 348.466C200.144 348.468 199.645 348.311 199.228 348.018C198.811 347.725 198.497 347.309 198.328 346.83C198.16 346.35 198.146 345.83 198.289 345.342C198.431 344.854 198.723 344.423 199.124 344.108C200.045 343.38 222.03 326.446 250.122 339.439C250.713 339.713 251.17 340.208 251.394 340.817C251.618 341.426 251.589 342.099 251.314 342.687C251.04 343.275 250.542 343.73 249.93 343.952C249.318 344.175 248.643 344.147 248.052 343.873C222.769 332.18 202.999 347.293 202.169 347.943C201.738 348.282 201.204 348.466 200.654 348.466ZM223.528 374.573C211.322 374.573 200.907 372.141 200.074 371.94C199.755 371.871 199.453 371.739 199.185 371.552C198.918 371.365 198.691 371.126 198.517 370.85C198.343 370.575 198.227 370.267 198.174 369.946C198.121 369.625 198.134 369.297 198.21 368.98C198.287 368.664 198.426 368.366 198.62 368.104C198.814 367.842 199.058 367.621 199.339 367.454C199.619 367.287 199.931 367.178 200.254 367.132C200.578 367.087 200.908 367.106 201.224 367.189C201.597 367.277 238.594 375.9 253.194 360.33C253.643 359.873 254.253 359.609 254.894 359.594C255.536 359.579 256.158 359.815 256.627 360.251C257.096 360.686 257.375 361.287 257.405 361.925C257.434 362.563 257.212 363.187 256.785 363.664C248.668 372.322 235.269 374.573 223.528 374.573Z" fill="black"/>
<path d="M263.077 366.698C258.214 366.698 254.005 364.258 253.737 364.099C253.177 363.769 252.771 363.231 252.61 362.603C252.448 361.975 252.544 361.309 252.875 360.751C253.207 360.193 253.748 359.789 254.379 359.628C255.01 359.467 255.679 359.563 256.24 359.893C256.358 359.961 263.364 363.953 267.763 360.152C268.254 359.727 268.896 359.513 269.546 359.559C270.195 359.604 270.801 359.904 271.228 360.394C271.655 360.883 271.87 361.522 271.824 362.168C271.778 362.815 271.477 363.417 270.985 363.843C268.499 365.991 265.692 366.698 263.077 366.698Z" fill="black"/>
<path d="M274.072 402.613C272.91 399.946 269.985 398.524 267.267 397.94C262.637 396.942 257.47 397.59 253.226 399.673C251.188 400.672 249.332 402.124 248.079 404.031C246.817 405.952 245.869 409.01 247.111 411.136C249.064 414.477 254.531 413.783 257.696 413.346C262.048 412.747 266.562 411.676 270.599 409.919C271.984 409.293 273.369 408.47 274.069 407.062C274.762 405.668 274.683 404.016 274.072 402.613ZM222.278 404.769C218.314 402.195 213.066 401.308 208.415 401.882C205.509 402.242 202.339 403.239 200.541 405.698C199.525 407.089 199.08 408.971 199.62 410.64C200.193 412.402 201.745 413.414 203.356 414.143C206.863 415.668 210.721 416.623 214.478 417.288C217.884 417.892 223.273 418.914 226.116 416.259C227.875 414.619 227.553 411.918 226.723 409.887C225.844 407.734 224.221 406.028 222.278 404.769Z" fill="#E24122"/>
<path d="M220.627 309.226C221.617 305.125 222.629 300.97 224.65 297.262C226.671 293.554 229.852 290.283 233.914 289.074C237.509 288.003 241.382 288.634 245.021 289.533C248.97 290.511 253.076 291.95 255.608 295.121C258.064 298.193 258.605 302.441 257.951 306.313C257.296 310.184 255.577 313.782 253.872 317.324" fill="#F9C8B7"/>
<path d="M221.812 309.551C223.727 301.632 226.809 290.638 236.652 289.79C241.014 289.413 246.053 290.633 250.012 292.464C253.936 294.277 256.493 297.477 256.908 301.825C257.414 307.112 255.039 312.069 252.812 316.71C252.134 318.123 254.251 319.365 254.931 317.945C257.183 313.257 259.528 308.327 259.43 303.011C259.344 298.31 257.306 294.057 253.298 291.471C249.295 288.888 243.88 287.605 239.167 287.328C234.071 287.03 229.476 289.037 226.178 292.899C222.308 297.428 220.81 303.253 219.442 308.904C219.073 310.429 221.441 311.081 221.812 309.551Z" fill="black"/>
<path d="M225.733 307.508L229.022 308.288C229.341 308.368 229.679 308.324 229.967 308.165C230.242 308.003 230.444 307.741 230.532 307.435C230.674 306.806 230.343 306.09 229.675 305.931L226.386 305.152C226.067 305.071 225.729 305.115 225.441 305.274C225.166 305.437 224.964 305.698 224.876 306.005C224.734 306.63 225.065 307.349 225.733 307.508ZM235.372 309.884L239.211 310.497C239.547 310.551 239.852 310.551 240.156 310.375C240.432 310.212 240.634 309.951 240.721 309.644C240.764 309.487 240.775 309.323 240.754 309.162C240.733 309 240.68 308.844 240.598 308.703C240.436 308.451 240.174 308.19 239.864 308.141L236.026 307.528C235.689 307.474 235.385 307.474 235.08 307.65C234.805 307.813 234.603 308.074 234.515 308.381C234.473 308.538 234.462 308.702 234.483 308.863C234.504 309.025 234.556 309.18 234.638 309.322C234.8 309.571 235.063 309.832 235.372 309.884ZM246.043 312.766L250.461 313.667C251.087 313.795 251.817 313.487 251.971 312.814C252.111 312.203 251.787 311.448 251.114 311.311L246.696 310.409C246.07 310.282 245.341 310.59 245.186 311.262C245.046 311.873 245.37 312.629 246.043 312.766ZM210.738 308.662L263.155 321.291C264.69 321.66 265.346 319.304 263.809 318.935L211.391 306.305C209.854 305.936 209.2 308.293 210.738 308.662Z" fill="black"/>
<path d="M213.071 319.658C208.496 321.029 203.233 319.04 200.713 314.978C197.81 310.302 199.755 304.152 196.401 299.596C191.324 292.703 179.841 293.104 176.295 301.231C174.382 305.614 175.05 310.935 178.397 314.44C179.234 315.317 180.806 314.413 180.45 313.252C179.369 309.74 178.139 306.012 175.089 303.69C172.549 301.757 169.084 301.168 166.321 303.008C163.841 304.66 162.466 307.608 162.291 310.522C162.058 314.43 163.932 318.145 165.641 321.535L167.569 320.054C165.118 316.972 162.333 313.726 158.217 313.042C154.84 312.482 151.451 313.963 150.147 317.221C148.91 320.313 149.686 323.975 150.859 326.967C152.033 329.956 153.88 333.688 157.353 334.451C160.032 335.037 163.603 333.334 163.649 330.3C163.696 327.243 159.079 326.751 156.952 327.406C153.87 328.357 151.945 330.929 151.736 334.104C151.481 337.985 153.725 341.73 156.319 344.448C161.911 350.314 170.919 353.09 178.515 349.617C179.949 348.962 178.704 346.853 177.274 347.508C172.434 349.722 166.813 348.759 162.345 346.124C160.066 344.78 158.001 342.981 156.474 340.816C154.831 338.489 153.364 335.15 154.6 332.319C155.368 330.557 157.503 329.337 159.423 329.543C160.071 329.611 161.23 329.939 161.135 330.633C160.99 331.679 159.251 332.158 158.404 332.126C155.793 332.031 154.288 328.824 153.421 326.778C152.502 324.613 151.78 322.132 152.036 319.761C152.372 316.64 154.936 314.875 158.021 315.481C161.466 316.158 163.785 319.201 165.838 321.782C166.746 322.924 168.357 321.472 167.765 320.301C165.575 315.963 162.517 309.334 167.186 305.408C169.342 303.597 172.198 304.296 174.138 306.071C176.354 308.097 177.233 311.13 178.085 313.902L180.138 312.714C177.39 309.835 176.98 305.281 178.741 301.776C180.607 298.063 184.669 296.467 188.657 297.386C193.26 298.45 195.647 301.911 196.258 306.406C196.902 311.155 197.162 315.713 201.035 319.086C204.48 322.088 209.306 323.339 213.729 322.017C215.232 321.562 214.589 319.204 213.071 319.658Z" fill="#1E7EC1"/>
<path d="M262.694 376.052C251.908 376.052 248.263 366.688 248.219 366.57C247.999 365.965 248.027 365.298 248.299 364.714C248.57 364.129 249.062 363.675 249.667 363.449C250.273 363.224 250.944 363.245 251.534 363.509C252.124 363.772 252.585 364.257 252.819 364.857C253.209 365.859 256.949 374.387 269.467 369.807C269.77 369.696 270.091 369.646 270.414 369.659C270.736 369.672 271.053 369.748 271.346 369.883C271.638 370.017 271.902 370.208 272.12 370.444C272.339 370.68 272.509 370.957 272.62 371.258C272.731 371.56 272.782 371.88 272.769 372.201C272.756 372.522 272.679 372.837 272.544 373.128C272.408 373.42 272.217 373.682 271.979 373.899C271.742 374.117 271.464 374.286 271.161 374.397C267.944 375.573 265.135 376.052 262.694 376.052Z" fill="black"/>
<path d="M253.789 370.687C253.74 370.687 253.69 370.687 253.641 370.682C253.319 370.663 253.004 370.581 252.714 370.441C252.423 370.301 252.164 370.106 251.949 369.866C251.735 369.626 251.57 369.346 251.464 369.043C251.359 368.74 251.314 368.419 251.333 368.098L251.635 362.977C251.673 362.33 251.968 361.724 252.455 361.294C252.942 360.863 253.58 360.642 254.231 360.68C254.881 360.718 255.49 361.011 255.923 361.496C256.356 361.98 256.577 362.616 256.539 363.263L256.237 368.384C256.201 369.006 255.927 369.591 255.472 370.019C255.017 370.447 254.415 370.686 253.789 370.687Z" fill="black"/>
<path d="M324.244 479.211H179.934C178.309 479.209 176.73 478.674 175.442 477.687C174.154 476.701 173.229 475.318 172.812 473.755L119.086 271.871C118.793 270.786 118.757 269.648 118.979 268.546C119.202 267.444 119.678 266.409 120.37 265.521C121.055 264.628 121.939 263.905 122.952 263.409C123.964 262.913 125.079 262.657 126.208 262.661H261.178C264.422 262.661 267.249 264.734 268.214 267.816L331.28 469.7C331.983 471.949 331.582 474.327 330.178 476.224C328.773 478.12 326.612 479.211 324.244 479.211ZM126.208 267.55C125.831 267.548 125.46 267.633 125.122 267.798C124.785 267.964 124.491 268.205 124.263 268.503C124.032 268.799 123.873 269.144 123.799 269.511C123.725 269.878 123.737 270.258 123.835 270.62L177.559 472.504C177.844 473.574 178.822 474.322 179.934 474.322H324.244C324.63 474.324 325.01 474.235 325.353 474.062C325.697 473.889 325.995 473.637 326.221 473.327C326.451 473.02 326.605 472.662 326.669 472.284C326.733 471.906 326.706 471.518 326.59 471.152L263.524 269.268C263.37 268.769 263.059 268.332 262.636 268.023C262.214 267.714 261.703 267.548 261.178 267.55H126.208Z" fill="#F6A50C"/>
</g>
<g clip-path="url(#clip2_10846_18251)">
<path d="M335.966 198.338C334.904 184.391 318.704 181.986 312.199 187.656C311.002 180.781 295.028 172.275 286.547 183.323C277.643 194.918 294.495 220.098 300.224 228C309.309 224.599 337.084 212.978 335.966 198.338Z" fill="#E24122"/>
</g>
<g clip-path="url(#clip3_10846_18251)">
<path d="M295.922 125.143C289.421 118.589 280.332 124.254 279.523 129.861C275.983 126.916 264.393 129.422 264.905 138.568C265.441 148.168 284.609 153.665 290.843 155.203C293.906 149.64 302.748 132.02 295.922 125.143Z" fill="#E24122"/>
</g>
<defs>
<clipPath id="clip0_10846_18251">
<rect width="279" height="326" fill="white" transform="translate(274 168)"/>
</clipPath>
<clipPath id="clip1_10846_18251">
<rect width="307" height="246" fill="white" transform="translate(46 250)"/>
</clipPath>
<clipPath id="clip2_10846_18251">
<rect width="52" height="50" fill="white" transform="translate(284 178)"/>
</clipPath>
<clipPath id="clip3_10846_18251">
<rect width="34" height="33" fill="white" transform="translate(261.358 136.976) rotate(-40.4556)"/>
</clipPath>
</defs>
</svg>
