<svg width="800" height="600" viewBox="0 0 800 600" fill="none" xmlns="http://www.w3.org/2000/svg">
<g clip-path="url(#clip0_10846_18157)">
<path d="M650.638 512.878L638.619 453.146H590.381L578.362 512.878" fill="#FCF1D5"/>
<path d="M651.6 512.612L639.582 452.879C639.496 452.452 639.035 452.144 638.619 452.144H590.383C589.97 452.144 589.506 452.452 589.421 452.879L577.402 512.612C577.148 513.871 579.073 514.41 579.327 513.145L591.345 453.413L590.383 454.148H638.619L637.657 453.413L649.676 513.145C649.929 514.408 651.854 513.873 651.6 512.612Z" fill="black"/>
<path d="M775.002 243.619V442.179C775.002 450.799 768.033 457.795 759.447 457.795H469.553C460.967 457.795 453.999 450.799 453.999 442.179V243.619C453.999 234.999 460.967 228.002 469.553 228.002H759.447C768.033 228.002 775.002 234.999 775.002 243.619Z" fill="#FCF1D5"/>
<path d="M759.447 458.797H469.555C460.428 458.797 453.002 451.342 453.002 442.179V243.619C453 234.455 460.426 227 469.555 227H759.449C768.576 227 776.002 234.455 776.002 243.619V442.179C776 451.342 768.574 458.797 759.447 458.797ZM469.555 229.005C461.528 229.005 454.997 235.562 454.997 243.619V442.179C454.997 450.237 461.528 456.792 469.553 456.792H759.447C767.474 456.792 774.003 450.235 774.003 442.179V243.619C774.003 235.56 767.472 229.005 759.447 229.005H469.555Z" fill="black"/>
<path d="M664.783 534.998H564.217C563.292 534.998 562.404 534.629 561.75 533.972C561.096 533.315 560.729 532.424 560.729 531.496V516.483C560.729 514.548 562.29 512.981 564.217 512.981H664.781C666.708 512.981 668.269 514.548 668.269 516.483V531.496C668.27 531.955 668.18 532.411 668.005 532.836C667.829 533.261 667.573 533.647 667.249 533.972C666.925 534.297 666.541 534.555 666.118 534.731C665.695 534.907 665.241 534.998 664.783 534.998Z" fill="#FCF1D5"/>
<path d="M664.783 536H564.217C563.027 535.998 561.886 535.523 561.045 534.678C560.204 533.833 559.731 532.688 559.73 531.494V516.481C559.732 515.287 560.205 514.142 561.046 513.297C561.887 512.453 563.027 511.978 564.217 511.976H664.783C665.972 511.978 667.113 512.453 667.954 513.297C668.795 514.142 669.268 515.287 669.27 516.481V531.494C669.269 532.688 668.796 533.833 667.954 534.678C667.113 535.523 665.973 535.998 664.783 536ZM564.217 513.981C562.843 513.981 561.727 515.104 561.727 516.481V531.494C561.727 532.873 562.845 533.995 564.217 533.995H664.783C666.157 533.995 667.273 532.873 667.273 531.494V516.481C667.273 515.102 666.155 513.981 664.783 513.981H564.217Z" fill="black"/>
<path d="M758.646 255.292V428.864C758.646 436.399 752.388 442.515 744.676 442.515H484.324C476.612 442.515 470.354 436.399 470.354 428.864V255.292C470.354 247.756 476.612 241.64 484.324 241.64H744.674C752.386 241.64 758.646 247.756 758.646 255.292Z" fill="white"/>
<path d="M750.363 324.32H480.807V274.701H750.363V324.32Z" fill="#F9C8B7"/>
<path d="M750.364 323.317H480.807L481.806 324.32V274.701L480.807 275.703H750.364L749.365 274.701V324.32C749.365 325.608 751.362 325.613 751.362 324.32V274.701C751.362 274.159 750.905 273.698 750.364 273.698H480.807C480.268 273.698 479.809 274.157 479.809 274.701V324.32C479.809 324.861 480.266 325.322 480.807 325.322H750.364C751.647 325.322 751.651 323.317 750.364 323.317Z" fill="#F9C8B7"/>
<path d="M563.42 406.857H493.729C493.212 406.857 492.7 406.755 492.222 406.557C491.745 406.358 491.311 406.067 490.945 405.7C490.58 405.333 490.29 404.897 490.092 404.418C489.894 403.938 489.793 403.425 489.793 402.906V358.956C489.793 358.437 489.894 357.923 490.092 357.443C490.29 356.964 490.58 356.528 490.945 356.161C491.311 355.794 491.745 355.503 492.222 355.305C492.7 355.106 493.212 355.004 493.729 355.005H563.42C563.937 355.004 564.449 355.106 564.927 355.305C565.404 355.503 565.838 355.794 566.204 356.161C566.569 356.528 566.859 356.964 567.057 357.443C567.255 357.923 567.356 358.437 567.356 358.956V402.906C567.356 403.425 567.255 403.938 567.057 404.418C566.859 404.897 566.569 405.333 566.204 405.7C565.838 406.067 565.404 406.358 564.927 406.557C564.449 406.755 563.937 406.857 563.42 406.857Z" fill="#F6A50C"/>
<path d="M563.42 407.859H493.728C492.42 407.857 491.166 407.335 490.241 406.406C489.316 405.478 488.796 404.219 488.794 402.906V358.956C488.796 357.643 489.316 356.383 490.241 355.455C491.166 354.526 492.42 354.004 493.728 354.002H563.42C564.728 354.004 565.982 354.526 566.907 355.455C567.832 356.383 568.353 357.643 568.354 358.956V402.906C568.353 404.219 567.833 405.478 566.908 406.407C565.983 407.336 564.729 407.858 563.42 407.859ZM493.728 356.009C492.109 356.009 490.791 357.332 490.791 358.958V402.908C490.791 404.533 492.109 405.856 493.728 405.856H563.42C565.04 405.856 566.358 404.533 566.358 402.908V358.956C566.358 357.33 565.04 356.007 563.42 356.007H493.728V356.009ZM743.678 406.857H673.986C673.469 406.857 672.957 406.755 672.48 406.557C672.002 406.358 671.568 406.067 671.203 405.7C670.837 405.333 670.547 404.897 670.35 404.418C670.152 403.938 670.05 403.425 670.051 402.906V358.956C670.05 358.437 670.152 357.923 670.35 357.443C670.547 356.964 670.837 356.528 671.203 356.161C671.568 355.794 672.002 355.503 672.48 355.305C672.957 355.106 673.469 355.004 673.986 355.005H743.678C744.195 355.004 744.707 355.106 745.185 355.305C745.662 355.503 746.096 355.794 746.462 356.161C746.827 356.528 747.117 356.964 747.315 357.443C747.512 357.923 747.614 358.437 747.614 358.956V402.906C747.614 403.425 747.512 403.938 747.315 404.418C747.117 404.897 746.827 405.333 746.462 405.7C746.096 406.067 745.662 406.358 745.185 406.557C744.707 406.755 744.195 406.857 743.678 406.857Z" fill="#F6A50C"/>
<path d="M743.68 407.859H673.988C672.68 407.857 671.426 407.335 670.501 406.406C669.576 405.478 669.056 404.219 669.054 402.906V358.956C669.056 357.643 669.576 356.383 670.501 355.455C671.426 354.526 672.68 354.004 673.988 354.002H743.68C744.988 354.004 746.242 354.526 747.167 355.455C748.092 356.383 748.613 357.643 748.614 358.956V402.906C748.613 404.219 748.092 405.478 747.167 406.406C746.242 407.335 744.988 407.857 743.68 407.859ZM673.986 356.009C672.367 356.009 671.049 357.332 671.049 358.958V402.908C671.049 404.533 672.367 405.856 673.986 405.856H743.678C745.297 405.856 746.615 404.533 746.615 402.908V358.956C746.615 357.33 745.297 356.007 743.678 356.007H673.986V356.009Z" fill="#F6A50C"/>
<path d="M497.117 415.874H527.999C529.283 415.874 529.287 413.869 527.999 413.869H497.117C495.833 413.869 495.831 415.874 497.117 415.874ZM496.839 426.131H518.015C519.299 426.131 519.303 424.127 518.015 424.127H496.839C495.553 424.127 495.551 426.131 496.839 426.131ZM524.423 426.131H534.732C536.016 426.131 536.02 424.127 534.732 424.127H524.423C523.137 424.127 523.135 426.131 524.423 426.131ZM677.385 415.874H739.796C741.08 415.874 741.084 413.869 739.796 413.869H677.385C676.101 413.869 676.099 415.874 677.385 415.874ZM677.664 426.131H698.283C699.567 426.131 699.571 424.127 698.283 424.127H677.664C676.378 424.127 676.376 426.131 677.664 426.131ZM607.948 415.874H643.611C644.895 415.874 644.899 413.869 643.611 413.869H607.948C606.664 413.869 606.662 415.874 607.948 415.874ZM592.685 426.131H643.95C645.234 426.131 645.238 424.127 643.95 424.127H592.685C591.399 424.127 591.397 426.131 592.685 426.131ZM593.242 433.683H609.402C610.686 433.683 610.69 431.678 609.402 431.678H593.242C591.956 431.678 591.954 433.683 593.242 433.683Z" fill="black"/>
</g>
<g clip-path="url(#clip1_10846_18157)">
<path d="M162.45 534H778.035C779.32 534 779.324 533 778.035 533H162.45C161.163 533 161.161 534 162.45 534ZM154.644 533H146C144.715 533 144.711 534 146 534H154.644C155.929 534 155.931 533 154.644 533Z" fill="black"/>
</g>
<g clip-path="url(#clip2_10846_18157)">
<path d="M477.391 227.143C482.418 215.601 494.824 207.699 507.403 208.025C519.984 208.352 531.961 216.888 536.383 228.676L477.391 227.143Z" fill="#E34123"/>
<path d="M478.26 227.651C482.151 218.871 490.161 212.286 499.449 209.932C508.786 207.566 518.738 210.116 526.131 216.213C530.236 219.6 533.509 223.96 535.415 228.943L536.385 227.669L516.412 227.149L484.711 226.326L477.391 226.136C476.095 226.102 476.097 228.116 477.391 228.15L497.364 228.669L529.065 229.493L536.385 229.682C536.991 229.698 537.589 229.018 537.355 228.408C533.72 218.901 525.625 211.481 515.933 208.446C506.167 205.39 495.432 207.488 487.228 213.517C482.611 216.908 478.852 221.382 476.523 226.636C476.002 227.808 477.735 228.835 478.26 227.651ZM402.4 121.678L489.201 106.962L576.249 92.2038L625.106 83.9216C626.179 83.7404 626.778 82.4174 626.511 81.4448C626.199 80.3091 625.11 79.856 624.035 80.0393L537.234 94.7551L450.186 109.513L401.329 117.795C400.256 117.977 399.657 119.3 399.924 120.272C400.236 121.408 401.325 121.861 402.4 121.678Z" fill="#E34123"/>
<path d="M511.612 94.8457C512.264 95.5202 512.179 96.5955 512.179 97.997V216.757H501.625V99.312C501.625 98.0273 501.231 96.3458 501.911 95.1618C502.704 93.7825 504.109 94.2516 505.523 94.2516C507.013 94.2516 508.526 93.8932 510.014 94.1449C510.791 94.2758 511.292 94.5134 511.612 94.8457Z" fill="#E34123"/>
<path d="M510.901 95.5565C511.316 96.068 511.175 96.9781 511.175 97.5863L511.173 100.248V216.759L512.179 215.752H501.625L502.631 216.759V113.053C502.631 108.42 502.758 103.764 502.627 99.1327C502.601 98.2246 502.406 97.2661 502.571 96.364C502.814 95.0249 503.742 95.1719 504.821 95.2323C505.813 95.2867 506.783 95.1819 507.771 95.1135C508.709 95.045 510.134 94.8678 510.901 95.5565C511.861 96.4203 513.29 95.0007 512.324 94.1328C511.088 93.0213 509.345 92.985 507.771 93.0978C506.846 93.1643 505.928 93.273 504.996 93.2267C504.201 93.1884 503.392 93.0938 502.619 93.3415C501.136 93.8207 500.568 95.3732 500.512 96.8029C500.431 98.8085 500.618 100.867 500.618 102.878V216.757C500.618 217.3 501.079 217.763 501.625 217.763H512.179C512.722 217.763 513.185 217.302 513.185 216.757V98.4964C513.187 96.952 513.35 95.3974 512.324 94.1328C511.507 93.128 510.09 94.5597 510.901 95.5565Z" fill="#E34123"/>
<path d="M504.769 103.16C502.46 100.136 507.554 96.3559 509.696 99.7147C511.652 102.781 506.9 105.953 504.769 103.16Z" fill="black"/>
<path d="M505.636 102.653C505.545 102.532 505.462 102.407 505.386 102.276C505.352 102.214 505.322 102.149 505.29 102.085C505.217 101.944 505.328 102.171 505.33 102.181C505.32 102.135 505.292 102.083 505.278 102.038C505.235 101.912 505.211 101.785 505.183 101.656C505.151 101.505 505.203 101.773 505.199 101.781C505.205 101.765 505.191 101.708 505.191 101.686C505.189 101.608 505.185 101.529 505.187 101.45L505.199 101.263C505.205 101.102 505.145 101.539 505.197 101.301C505.223 101.173 505.258 101.045 505.3 100.921C505.312 100.885 505.4 100.657 505.326 100.846C505.251 101.032 505.352 100.8 505.376 100.756C505.439 100.637 505.507 100.524 505.584 100.413C505.602 100.387 505.622 100.363 505.638 100.337C505.702 100.238 505.489 100.516 505.567 100.428C505.61 100.381 505.648 100.329 505.69 100.283C505.781 100.182 505.875 100.087 505.976 99.9966C506.022 99.9563 506.081 99.9181 506.121 99.8738C505.938 100.079 506.014 99.9543 506.109 99.8878C506.226 99.8053 506.348 99.7308 506.473 99.6623L506.642 99.5777C506.86 99.469 506.467 99.6361 506.618 99.5858C506.753 99.5415 506.884 99.4912 507.021 99.4589L507.204 99.4207C507.23 99.4146 507.272 99.4167 507.296 99.4046C507.292 99.4066 507.017 99.4307 507.167 99.4227C507.306 99.4166 507.443 99.4046 507.582 99.4126C507.638 99.4146 507.711 99.4368 507.765 99.4287C507.759 99.4287 507.49 99.3784 507.634 99.4126L507.725 99.4307C507.856 99.4589 507.979 99.5052 508.105 99.5475C508.218 99.5838 507.892 99.4428 507.997 99.5032C508.025 99.5193 508.055 99.5314 508.083 99.5455C508.142 99.5757 508.198 99.6079 508.254 99.6422L508.421 99.7549C508.522 99.8214 508.25 99.6079 508.339 99.6925L508.437 99.7791C508.554 99.8858 508.653 100.003 508.757 100.119C508.842 100.214 508.639 99.9462 508.707 100.055C508.727 100.089 508.753 100.119 508.776 100.154C508.828 100.23 508.876 100.309 508.921 100.389C508.959 100.458 508.993 100.53 509.029 100.601C509.104 100.748 508.999 100.536 508.997 100.518C509.001 100.548 509.025 100.593 509.037 100.623C509.092 100.776 509.106 100.941 509.156 101.094C509.154 101.086 509.13 100.822 509.14 100.981L509.148 101.084C509.152 101.152 509.152 101.219 509.15 101.287C509.148 101.354 509.136 101.422 509.136 101.487C509.134 101.162 509.148 101.398 509.122 101.513C509.092 101.642 509.047 101.765 509.007 101.889C508.957 102.042 509.12 101.652 509.009 101.875C508.948 102.002 508.876 102.123 508.796 102.238L508.739 102.318C508.673 102.419 508.884 102.141 508.806 102.234C508.707 102.349 508.611 102.461 508.502 102.566L508.353 102.701L508.274 102.765C508.182 102.844 508.46 102.632 508.359 102.701C508.24 102.781 508.123 102.864 507.999 102.935C507.926 102.977 507.852 103.015 507.775 103.051C507.548 103.16 507.954 102.989 507.761 103.059C507.613 103.115 507.461 103.161 507.306 103.198C507.226 103.216 507.141 103.224 507.061 103.245C507.065 103.243 507.339 103.216 507.18 103.226L507.057 103.237C506.9 103.245 506.743 103.218 506.588 103.224C506.592 103.224 506.864 103.271 506.709 103.241L506.588 103.216C506.515 103.2 506.442 103.182 506.37 103.16C506.264 103.128 506.065 102.995 506.328 103.154C506.256 103.11 506.173 103.079 506.099 103.037C506.031 102.997 505.965 102.955 505.9 102.91C505.865 102.888 505.763 102.814 505.893 102.908C506.034 103.009 505.9 102.91 505.869 102.882C505.726 102.753 505.595 102.612 505.477 102.459C505.153 102.042 504.39 102.093 504.054 102.459C503.647 102.902 503.708 103.438 504.054 103.883C505.07 105.188 506.88 105.574 508.387 104.964C509.905 104.352 511.114 102.983 511.161 101.289C511.207 99.614 509.945 97.8963 508.305 97.5057C506.85 97.1593 505.272 97.7534 504.279 98.8488C503.669 99.5026 503.287 100.336 503.189 101.225C503.113 102.102 503.365 102.975 503.895 103.678C504.209 104.098 504.778 104.356 505.272 104.038C505.69 103.762 505.974 103.104 505.636 102.653ZM390.352 117.747L356.051 178.523L321.752 239.299L302.503 273.405C301.865 274.535 303.604 275.551 304.24 274.422L338.541 213.645L372.842 152.867L392.091 118.762C392.729 117.634 390.99 116.617 390.352 117.747ZM403.621 108.78L489.676 94.7288L575.48 80.7178L623.838 72.8202C625.114 72.6128 624.573 70.6717 623.303 70.8791L537.248 84.9304L451.444 98.9414L403.086 106.839C401.812 107.046 402.354 108.988 403.621 108.78ZM626.472 89.7853V251.792C626.472 253.087 628.485 253.091 628.485 251.792V89.7853C628.485 88.4905 626.472 88.4885 626.472 89.7853Z" fill="black"/>
<path d="M621.842 261.502C621.64 263.274 623.043 264.982 624.752 265.348C626.497 265.721 628.26 264.716 629.083 263.18C630.107 261.269 629.341 259.337 628.874 257.394C628.34 255.175 628.348 252.876 628.344 250.608C628.342 249.313 626.33 249.309 626.332 250.608C626.336 252.362 626.344 254.118 626.567 255.86C626.672 256.683 626.815 257.501 627.03 258.304C627.235 259.078 627.525 259.853 627.598 260.654C627.702 261.81 627.107 263.109 625.877 263.379C624.736 263.631 623.727 262.622 623.856 261.504C623.919 260.958 623.349 260.503 622.85 260.497C622.254 260.489 621.904 260.964 621.842 261.502Z" fill="black"/>
<path d="M624.887 252.278L628.618 254.362C629.077 254.619 629.737 254.489 629.995 254.001C630.246 253.526 630.126 252.898 629.635 252.624L625.903 250.54C625.444 250.282 624.784 250.413 624.526 250.9C624.275 251.375 624.396 252.004 624.887 252.278ZM625.1 247.173L628.844 249.233C629.304 249.487 629.963 249.362 630.22 248.872C630.47 248.401 630.351 247.767 629.86 247.495L626.116 245.435C625.656 245.181 624.997 245.306 624.74 245.796C624.49 246.267 624.607 246.901 625.1 247.173ZM625.277 241.382L629.019 243.635C629.47 243.907 630.144 243.75 630.395 243.275C630.525 243.043 630.56 242.77 630.492 242.513C630.425 242.256 630.261 242.036 630.035 241.897L626.294 239.644C625.843 239.372 625.169 239.529 624.917 240.004C624.787 240.236 624.753 240.509 624.82 240.766C624.887 241.022 625.051 241.243 625.277 241.382Z" fill="black"/>
<path d="M297.646 323.251C298.33 324.032 299.369 325.15 300.544 324.836C301.533 324.572 301.842 323.533 301.951 322.635C302.245 320.214 301.653 317.715 301.526 315.297C301.231 309.663 300.949 304.031 300.611 298.398C300.449 295.577 300.26 292.757 300.043 289.939C299.884 287.946 299.926 285.67 298.966 283.85C297.505 281.079 294.303 281.687 291.799 282.376C286.758 283.761 281.742 285.257 276.717 286.699C274.116 287.446 271.522 288.288 268.894 288.936C267.602 289.254 265.871 289.335 265.041 290.549C264.128 291.888 265.14 293.38 266.154 294.287C267.672 295.64 269.334 296.812 270.852 298.179C275.461 302.329 280.12 306.429 284.618 310.702C286.893 312.863 289.157 315.035 291.467 317.158C293.621 319.139 295.766 321.002 297.646 323.251C298.477 324.246 299.896 322.816 299.069 321.827C296.185 318.38 292.635 315.539 289.368 312.452C285.878 309.153 282.398 305.851 278.83 302.637C275.63 299.754 272.524 296.606 269.069 294.031C268.445 293.566 267.789 293.111 267.243 292.551C266.802 292.098 266.474 291.761 267.108 291.435C267.64 291.161 268.354 291.111 268.934 290.988C269.978 290.765 271.003 290.432 272.029 290.138C276.62 288.823 281.209 287.505 285.8 286.188C287.883 285.592 289.96 284.981 292.047 284.395C293.188 284.075 294.466 283.642 295.668 283.775C296.857 283.908 297.32 284.836 297.584 285.912C298.111 288.068 298.077 290.463 298.232 292.672C298.574 297.561 298.882 302.456 299.15 307.349C299.363 311.238 299.449 315.122 299.844 318.996C299.959 320.12 300.126 321.336 299.959 322.462C299.945 322.55 299.812 322.885 299.844 322.965C299.832 322.933 299.812 323.078 299.792 323.062C299.743 323.019 300.182 322.885 300.18 322.87C300.176 322.832 299.236 322.015 299.071 321.827C298.214 320.851 296.795 322.278 297.646 323.251Z" fill="#E34123"/>
<path d="M297.25 276.178C298.518 274.269 301.585 273.824 303.296 275.471C303.771 275.928 304.139 276.502 304.34 277.132C304.503 277.619 304.568 278.133 304.531 278.644C304.527 278.717 304.479 279.138 304.511 278.918C304.449 279.352 304.335 279.777 304.171 280.183C304.266 279.951 304.145 280.225 304.115 280.286C304.071 280.372 304.022 280.459 303.974 280.541C303.926 280.624 303.871 280.702 303.819 280.783C303.676 280.998 303.881 280.735 303.742 280.886C303.618 281.021 303.499 281.157 303.364 281.282C303.298 281.343 303.227 281.399 303.159 281.458C303.058 281.546 303.316 281.349 303.203 281.423C303.157 281.453 303.113 281.488 303.066 281.52C302.917 281.619 302.764 281.709 302.605 281.79L302.364 281.905C302.585 281.802 302.354 281.905 302.261 281.937C302.018 282.021 301.768 282.087 301.514 282.134C301.47 282.142 301.424 282.148 301.382 282.158C301.154 282.209 301.613 282.142 301.38 282.16C301.016 282.194 300.651 282.201 300.287 282.182L300.013 282.158C299.876 282.148 300.192 282.192 299.941 282.146C299.567 282.087 299.201 281.991 298.846 281.86C298.814 281.848 298.532 281.739 298.681 281.8C298.812 281.852 298.54 281.735 298.492 281.711C298.33 281.633 298.172 281.547 298.019 281.453L297.793 281.311C297.751 281.282 297.513 281.107 297.626 281.196C297.753 281.292 297.523 281.109 297.499 281.087C297.433 281.03 297.369 280.971 297.306 280.91C297.173 280.781 297.054 280.642 296.934 280.503C297.089 280.682 296.938 280.507 296.881 280.42C296.828 280.34 296.777 280.258 296.728 280.175C296.674 280.082 296.632 279.982 296.58 279.889C296.507 279.76 296.636 280.068 296.555 279.83C296.489 279.629 296.435 279.432 296.388 279.224C296.378 279.18 296.374 279.136 296.366 279.091C296.342 278.969 296.374 279.311 296.372 279.122C296.372 279.005 296.356 278.888 296.356 278.771C296.356 278.675 296.358 278.58 296.366 278.483L296.378 278.336C296.39 278.091 296.33 278.55 296.382 278.306C296.433 278.071 296.479 277.839 296.551 277.609C296.594 277.474 296.644 277.34 296.696 277.207C296.622 277.394 296.751 277.09 296.777 277.036C296.914 276.739 297.072 276.452 297.25 276.178C297.946 275.08 296.205 274.069 295.513 275.161C294.343 276.997 293.848 279.347 295.052 281.298C296.086 282.976 297.964 283.912 299.874 284.152C301.738 284.385 303.793 283.848 305.075 282.414C307.045 280.215 306.971 276.764 305.141 274.508C302.656 271.448 297.634 271.969 295.515 275.161C294.794 276.244 296.535 277.253 297.25 276.178ZM261.161 292.029C274.648 303.733 287.776 315.851 301.003 327.846C302.563 329.262 305.175 329.503 306.695 327.846C308.11 326.304 308.361 323.662 306.695 322.152C293.468 310.156 280.342 298.038 266.853 286.335C265.263 284.955 262.703 284.653 261.161 286.335C259.772 287.847 259.462 290.555 261.161 292.029Z" fill="#E34123"/>
<path d="M645.955 74.8883C647.481 80.2949 646.72 86.1446 643.864 90.9814C643.204 92.099 644.943 93.1139 645.601 91.9983C647.149 89.3625 648.149 86.4416 648.544 83.4102C648.938 80.3788 648.717 77.2989 647.895 74.3547C647.545 73.1082 645.603 73.6378 645.955 74.8883ZM653.752 80.7802C654.33 83.4044 653.862 86.1507 652.446 88.4342C651.764 89.5397 653.505 90.5525 654.183 89.4511C655.865 86.6968 656.407 83.3943 655.692 80.2466C655.572 79.717 654.962 79.4049 654.454 79.5438C653.911 79.6929 653.633 80.2486 653.752 80.7802ZM399.723 146.055C410.978 146.13 421.834 139.891 427.441 130.127C428.087 129.001 426.348 127.986 425.704 129.11C420.443 138.272 410.286 144.11 399.723 144.039C398.427 144.033 398.425 146.047 399.723 146.055ZM415.754 152.404C420.57 150.929 424.663 147.71 427.234 143.377C427.894 142.257 426.155 141.244 425.497 142.36C423.198 146.247 419.533 149.136 415.219 150.463C413.983 150.837 414.508 152.783 415.754 152.404Z" fill="black"/>
<path d="M613.03 71.5174C608.749 75.7904 607.983 83.0134 610.941 88.2912C618.623 101.998 637.387 97.1755 638.858 82.3106C640.293 67.8224 622.307 62.2586 613.03 71.5174Z" fill="#E34123"/>
<path d="M612.32 70.8066C606.525 76.765 607.131 86.1829 612.481 92.1796C616.61 96.809 623.194 98.5971 629.067 96.5331C635.169 94.3886 639.178 88.8309 639.848 82.4677C640.519 76.1207 637.26 70.1602 631.407 67.5264C625.025 64.6529 617.339 65.8873 612.32 70.8066C611.392 71.7148 612.817 73.1384 613.742 72.2303C617.607 68.4426 623.296 67.1055 628.483 68.5835C633.565 70.0314 637.496 74.2117 637.894 79.5942C638.311 85.2365 635.584 90.8808 630.594 93.6576C626.036 96.1948 620.336 95.8988 616.121 92.8018C609.677 88.0657 607.946 78.1947 613.744 72.2323C614.646 71.3 613.223 69.8763 612.32 70.8066ZM391.672 109.763C387.392 114.036 386.625 121.259 389.583 126.537C397.266 140.244 416.029 135.421 417.501 120.556C418.936 106.066 400.949 100.502 391.672 109.763Z" fill="#E34123"/>
<path d="M390.96 109.05C385.166 115.008 385.772 124.426 391.121 130.423C395.251 135.052 401.835 136.841 407.707 134.777C413.81 132.632 417.819 127.074 418.489 120.711C419.159 114.364 415.901 108.404 410.048 105.77C403.668 102.896 395.98 104.131 390.96 109.05C390.033 109.958 391.457 111.382 392.383 110.474C396.248 106.686 401.937 105.349 407.124 106.827C412.206 108.275 416.136 112.455 416.535 117.838C416.952 123.48 414.224 129.124 409.235 131.901C404.676 134.438 398.977 134.142 394.762 131.045C388.318 126.309 386.587 116.438 392.385 110.476C393.287 109.545 391.866 108.12 390.96 109.05Z" fill="#E34123"/>
<path d="M619.966 84.0162C622.26 88.2892 629.131 86.0117 629.274 81.477C629.425 76.6905 623.204 75.5991 620.497 78.833C619.915 79.5522 619.555 80.4252 619.461 81.3455C619.367 82.2659 619.542 83.1939 619.966 84.0162Z" fill="black"/>
<path d="M619.098 84.5236C621.55 88.9698 628.244 87.5904 629.938 83.2309C630.794 81.0279 630.057 78.4565 628.163 77.0671C626.382 75.7602 623.9 75.6937 621.92 76.5516C618.863 77.8765 617.569 81.5615 619.098 84.5236C619.692 85.6755 621.431 84.6586 620.835 83.5067C620.596 83.0256 620.461 82.4992 620.44 81.9622C620.42 81.4251 620.513 80.8898 620.714 80.3916C620.908 79.9164 621.21 79.5016 621.578 79.1492C621.648 79.0827 621.721 79.0183 621.795 78.9539C621.948 78.8189 621.809 78.9317 621.934 78.8451C622.195 78.6632 622.471 78.5036 622.759 78.3679C622.906 78.2994 622.701 78.38 622.914 78.3055C623.211 78.1999 623.515 78.1164 623.824 78.0558C623.874 78.0457 624.172 78.0074 623.975 78.0296C624.192 78.0054 624.41 77.9933 624.629 77.9933C625.327 77.9954 626.048 78.1585 626.621 78.4726C626.791 78.5652 626.954 78.6679 627.109 78.7807C626.962 78.674 627.171 78.8351 627.215 78.8733C627.369 79.0116 627.513 79.1603 627.646 79.3183C627.718 79.4069 627.636 79.3042 627.626 79.2901C627.652 79.3264 627.68 79.3626 627.704 79.4009C627.817 79.5722 627.918 79.7504 628.008 79.9345C628.032 79.9929 628.052 80.0533 628.073 80.1137C628.133 80.3005 628.182 80.4908 628.219 80.6836C628.26 80.8809 628.236 80.7661 628.23 80.7198C628.24 80.7883 628.244 80.8588 628.25 80.9293C628.268 81.1628 628.268 81.3964 628.254 81.63C628.25 81.6783 628.224 81.9139 628.234 81.8455C628.252 81.7287 628.215 81.93 628.209 81.9542L628.167 82.1455C627.807 83.5873 626.541 84.6787 625.108 85.0915C624.865 85.1618 624.617 85.2163 624.367 85.2546C624.55 85.2284 624.273 85.2606 624.214 85.2647C623.981 85.2801 623.747 85.2814 623.514 85.2687C623.452 85.2647 623.122 85.2224 623.321 85.2546C622.988 85.2025 622.661 85.1126 622.349 84.9868C622.522 85.0593 622.22 84.9183 622.172 84.8901C622.022 84.8065 621.877 84.7151 621.737 84.6163C621.606 84.5236 621.839 84.7029 621.715 84.6002C621.343 84.3063 621.04 83.9336 620.829 83.5088C620.209 82.373 618.47 83.3879 619.098 84.5236ZM399.001 123.496C401.875 126.44 406.123 124.91 407.289 121.261C407.834 119.557 407.504 117.542 406.264 116.251C403.847 113.732 399.009 115.389 397.906 118.456C397.609 119.316 397.555 120.24 397.748 121.129C397.941 122.018 398.374 122.837 399.001 123.496Z" fill="black"/>
<path d="M398.288 124.209C400.035 125.959 402.523 126.541 404.807 125.534C407.065 124.539 408.533 122.097 408.549 119.658C408.567 117.085 406.931 114.594 404.31 114.122C402.114 113.728 399.721 114.549 398.19 116.166C396.06 118.414 396.183 121.984 398.288 124.209C399.18 125.151 400.603 123.726 399.711 122.785C398.407 121.406 398.31 119.237 399.383 117.842C400.241 116.726 401.877 115.989 403.342 116.029C404.006 116.047 404.741 116.271 405.226 116.658C405.948 117.234 406.379 118.114 406.504 119.02C406.629 119.928 406.443 120.892 406.041 121.674C405.686 122.389 405.146 122.997 404.477 123.434C403.765 123.907 402.909 124.114 402.06 124.02C401.671 123.961 401.292 123.847 400.935 123.683C400.482 123.452 400.07 123.148 399.715 122.783C398.795 121.867 397.373 123.291 398.288 124.209Z" fill="black"/>
</g>
<g clip-path="url(#clip3_10846_18157)">
<path d="M642.771 278.132L634.659 268.978L630.743 264.559L628.785 262.35C628.311 261.814 627.958 261.292 627.281 261.087C626.756 260.928 626.451 260.969 626.028 261.37C625.265 262.095 624.542 262.877 623.803 263.628L619.501 267.995L611.044 276.578L601.251 286.516C600.483 287.295 601.651 288.529 602.418 287.75L627.344 262.453L626.541 262.678C627.108 262.851 627.2 263.111 627.619 263.584L629.577 265.793L633.633 270.37L641.605 279.367C642.332 280.189 643.497 278.953 642.771 278.132Z" fill="black"/>
</g>
<g clip-path="url(#clip4_10846_18157)">
<path d="M707.775 388.34L543.543 422.968C543.03 423.076 542.501 423.083 541.986 422.989C541.471 422.895 540.98 422.701 540.54 422.419C540.101 422.137 539.722 421.772 539.425 421.346C539.128 420.919 538.919 420.438 538.81 419.931L516.053 314.343C515.943 313.837 515.936 313.314 516.031 312.804C516.126 312.295 516.322 311.808 516.607 311.374C516.892 310.939 517.261 310.564 517.693 310.27C518.124 309.977 518.61 309.77 519.122 309.662L683.354 275.034C684.389 274.817 685.468 275.014 686.356 275.583C687.243 276.152 687.866 277.046 688.088 278.069L710.844 383.661C710.954 384.167 710.961 384.69 710.866 385.2C710.771 385.709 710.575 386.195 710.29 386.629C710.005 387.064 709.636 387.439 709.204 387.732C708.773 388.026 708.287 388.232 707.775 388.34Z" fill="white"/>
<path d="M706.16 382.552L694.403 385.03L664.893 391.252L626.27 399.396L587.168 407.64L556.301 414.149C551.576 415.146 546.786 415.992 542.096 417.145C541.347 417.329 543.684 417.101 542.531 417.049C542.632 417.053 544.079 417.395 543.176 417.101L544.024 417.473C543.831 417.38 543.646 417.271 543.47 417.149C543.547 417.159 544.668 418.11 543.982 417.445L544.546 418.14C544.322 417.72 544.33 417.76 544.566 418.262C544.991 419.011 544.694 418.57 544.649 418.28C544.558 417.702 544.401 417.125 544.277 416.551L542.249 407.138L534.861 372.857L526.672 334.863L522.03 313.325C521.994 313.151 521.967 312.968 521.917 312.798C521.779 312.34 521.984 314.48 522.038 313.347C521.959 314.954 521.834 314.419 521.986 313.985L521.609 314.824C521.704 314.632 521.814 314.45 521.937 314.275C521.791 314.862 521.121 315.278 521.637 314.782C520.822 315.366 520.684 315.5 521.225 315.182C520.33 315.518 520.112 315.624 520.565 315.498C520.869 315.478 521.208 315.356 521.506 315.292L527.522 314.023L553.278 308.593L590.279 300.791L630.084 292.399L663.954 285.258L683.251 281.189C683.763 281.081 684.283 280.991 684.791 280.865C685.184 280.767 685.479 280.879 684.032 280.957C685.212 280.893 682.814 280.649 683.563 280.867C684.32 281.087 682.162 280.098 683.156 280.687C683.971 281.169 682.749 280.378 682.693 280.33C683.581 281.077 681.94 279.137 682.51 280.156C682.411 279.978 682.106 278.773 682.237 279.684L682.249 279.74C682.557 281.657 683.073 283.565 683.484 285.462L690.064 315.997L698.456 354.931L704.324 382.161L704.879 384.733C704.913 384.893 704.938 385.064 704.984 385.22L704.992 385.256V385.26L704.861 384.333C704.844 384.984 704.889 384.775 704.992 383.713C704.822 384.415 704.796 383.599 705.288 383.186L705.134 383.466C704.788 383.981 704.909 383.829 705.494 383.008C705.241 383.306 704.592 383.607 705.959 382.67C704.982 383.336 707.34 382.25 706.16 382.552C703.084 383.336 700.921 386.887 701.92 389.937C702.946 393.073 706.093 394.973 709.387 394.13C713.702 393.029 716.955 389.111 716.998 384.659C717.006 383.717 716.836 382.768 716.65 381.841C716.5 381.107 716.334 380.376 716.176 379.646L713.928 369.218L706.206 333.385L698.037 295.484C696.679 289.181 695.512 282.798 693.954 276.54C693.629 275.248 693.048 274.033 692.246 272.964C691.445 271.895 690.437 270.993 689.281 270.311C686.938 268.938 684.326 268.752 681.707 269.248C681.317 269.322 680.928 269.412 680.54 269.494L673.85 270.905L646.534 276.666L608.264 284.736L568.198 293.184L535.191 300.143L518.204 303.726C517.155 303.948 516.267 304.212 515.249 304.742C510.896 307.01 509.318 311.663 510.259 316.235C510.726 318.505 511.234 320.764 511.724 323.03L518.655 355.184L527.101 394.372L532.569 419.741C532.692 420.316 532.799 420.898 532.941 421.47C533.576 423.966 535.15 426.128 537.34 427.517C539.712 429.038 542.474 429.268 545.186 428.754C546.44 428.516 547.687 428.227 548.935 427.963L572.032 423.094L608.377 415.43L648.81 406.906L684.463 399.388L706.378 394.767L709.387 394.132C712.498 393.476 714.596 389.707 713.627 386.747C712.566 383.5 709.493 381.849 706.16 382.552Z" fill="white"/>
<path d="M707.775 388.34L543.543 422.968C543.03 423.076 542.501 423.083 541.986 422.989C541.471 422.895 540.98 422.701 540.54 422.419C540.101 422.137 539.722 421.772 539.425 421.346C539.128 420.919 538.919 420.438 538.81 419.931L516.053 314.343C515.943 313.837 515.936 313.314 516.031 312.804C516.126 312.295 516.322 311.808 516.607 311.374C516.892 310.939 517.261 310.564 517.693 310.27C518.124 309.977 518.61 309.77 519.122 309.662L683.354 275.034C683.867 274.926 684.396 274.919 684.911 275.013C685.426 275.107 685.917 275.301 686.357 275.583C686.796 275.865 687.176 276.23 687.472 276.656C687.769 277.083 687.978 277.564 688.088 278.071L710.844 383.661C710.954 384.167 710.961 384.69 710.866 385.2C710.771 385.709 710.575 386.195 710.29 386.629C710.005 387.064 709.636 387.439 709.204 387.732C708.773 388.026 708.287 388.232 707.775 388.34Z" fill="#E34123"/>
<path d="M542.701 424.056C541.738 424.056 540.796 423.779 539.989 423.26C539.437 422.908 538.961 422.451 538.588 421.916C538.216 421.381 537.955 420.777 537.82 420.141L515.063 314.552C514.924 313.916 514.914 313.26 515.033 312.621C515.153 311.982 515.4 311.373 515.759 310.829C516.115 310.283 516.577 309.812 517.119 309.444C517.66 309.076 518.269 308.817 518.912 308.683L683.144 274.056C683.786 273.917 684.45 273.907 685.096 274.025C685.742 274.144 686.358 274.388 686.908 274.744C688.027 275.463 688.798 276.57 689.077 277.863L711.834 383.452C712.108 384.735 711.858 386.073 711.137 387.174C710.416 388.274 709.283 389.047 707.987 389.323L543.753 423.948C543.407 424.021 543.055 424.057 542.701 424.056ZM684.188 275.947C683.979 275.948 683.77 275.97 683.565 276.013L519.333 310.641C518.95 310.72 518.587 310.874 518.264 311.094C517.942 311.313 517.667 311.594 517.455 311.92C517.241 312.243 517.095 312.606 517.024 312.986C516.953 313.366 516.959 313.756 517.042 314.133L539.799 419.723C539.965 420.494 540.424 421.152 541.09 421.581C541.756 422.009 542.547 422.157 543.33 421.989L707.562 387.361C707.945 387.282 708.308 387.128 708.631 386.909C708.953 386.69 709.228 386.41 709.44 386.084C709.654 385.76 709.8 385.398 709.871 385.017C709.942 384.637 709.936 384.247 709.853 383.869L687.096 278.279C686.954 277.62 686.587 277.029 686.058 276.605C685.529 276.181 684.869 275.949 684.188 275.947Z" fill="#E34123"/>
<path d="M656.213 369.82C655.322 372.943 653.42 374.424 650.951 374.804C642.715 376.005 628.065 365.077 622.581 361.874C619.242 366.918 611.087 383.671 603.054 386.333C600.666 387.113 598.298 386.653 596.072 384.251C593.988 381.989 589.779 379.688 589.334 376.986C588.95 374.704 591.398 371.021 592.39 369.1C595.142 363.736 598.663 358.832 601.759 353.668C602.386 352.628 603.013 351.607 603.661 350.586C600.706 348.745 597.772 346.863 594.858 344.942C591.499 342.74 585.853 340.819 583.041 338.397C579.742 335.575 582.09 333.213 584.073 329.891C585.853 326.909 587.634 321.545 591.277 320.624C593.968 319.964 598.056 322.265 600.342 323.406C605.725 326.128 610.379 330.011 615.6 333.033C618.797 328.07 621.144 322.626 624.645 317.842C626.163 315.8 628.753 311.918 631.464 311.317C635.127 310.497 639.174 314.48 642.129 316.341C645.407 318.422 648.584 319.463 646.945 323.466C645.528 326.889 641.38 331.132 639.397 334.594C637.738 337.517 636.017 340.439 634.277 343.321C635.249 343.901 636.2 344.482 637.151 345.082C642.27 348.304 647.653 351.107 652.57 354.669C654.331 355.93 658.196 358.112 658.904 360.313C659.732 362.915 657.04 366.858 656.213 369.82Z" fill="white"/>
<path d="M655.235 369.554C652.92 377.142 643.573 372.897 638.777 370.473C633.3 367.703 628.362 364.11 623.091 361.012C622.605 360.726 622.002 360.92 621.707 361.37C617.046 368.463 613.578 376.525 607.258 382.426C605.887 383.707 604.29 384.96 602.442 385.47C599.239 386.355 597.495 384.023 595.328 382.177C593.723 380.812 590.592 379.021 590.313 376.725C590.044 374.518 591.946 372.02 592.952 370.183C596.521 363.656 600.558 357.383 604.533 351.091C604.83 350.62 604.622 350.004 604.171 349.722C599.707 346.935 595.427 343.861 590.673 341.572C588.694 340.617 586.669 339.702 584.833 338.489C583.975 337.921 582.982 337.222 582.579 336.248C582.189 335.301 582.579 334.352 583.036 333.502C583.988 331.738 585.147 330.111 586.058 328.32C586.942 326.578 587.792 324.721 589.103 323.246C590.499 321.675 592.064 321.239 594.103 321.781C596.123 322.317 597.982 323.328 599.83 324.271C605.207 327.017 609.891 330.86 615.088 333.898C615.32 334.027 615.595 334.061 615.853 333.994C616.111 333.928 616.333 333.765 616.472 333.54C619.319 329.076 621.527 324.243 624.473 319.839C625.612 318.136 626.832 316.417 628.198 314.884C629.544 313.375 631.134 311.88 633.326 312.294C635.467 312.698 637.353 314.165 639.067 315.41C640.686 316.587 642.355 317.616 644.051 318.679C645.805 319.777 646.853 320.922 646.026 323.036C645.243 325.035 643.796 326.813 642.505 328.512C641.022 330.463 639.502 332.381 638.282 334.508C636.685 337.295 635.057 340.065 633.399 342.816C633.268 343.047 633.233 343.318 633.3 343.573C633.368 343.829 633.533 344.048 633.761 344.185C640.107 347.986 646.485 351.745 652.594 355.908C654.411 357.147 657.912 358.822 658.04 361.312C658.111 362.703 657.418 364.168 656.884 365.419C656.308 366.786 655.66 368.129 655.235 369.554C654.867 370.793 656.819 371.321 657.186 370.087C658.05 367.178 660.227 364.298 660.063 361.162C659.914 358.324 657.06 356.499 654.919 355.051C648.357 350.614 641.584 346.531 634.785 342.458L635.147 343.827C636.806 341.075 638.433 338.305 640.03 335.519C641.283 333.331 642.853 331.37 644.375 329.363C646.633 326.384 650.548 321.533 646.785 318.188C645.186 316.767 643.144 315.885 641.408 314.644C639.47 313.261 637.59 311.732 635.356 310.831C633.32 310.012 631.163 309.97 629.291 311.203C627.431 312.428 626.047 314.251 624.74 316.013C620.873 321.225 618.198 327.083 614.721 332.531L616.105 332.173C610.909 329.134 606.224 325.292 600.848 322.545C597.284 320.726 592.495 317.886 588.763 320.806C587.096 322.111 586.005 324.027 585.044 325.866C584.004 327.853 582.899 329.806 581.731 331.722C580.675 333.466 579.823 335.483 580.9 337.428C582 339.418 584.362 340.649 586.317 341.666C588.789 342.951 591.394 344.009 593.78 345.454C596.948 347.374 600.002 349.491 603.145 351.453L602.782 350.084C598.834 356.334 594.797 362.559 591.268 369.052C590.074 371.249 588.445 373.613 588.288 376.179C588.128 378.781 590.378 380.684 592.207 382.203C593.284 383.098 594.366 383.965 595.352 384.96C596.487 386.106 597.786 387.109 599.395 387.493C601.69 388.042 604.005 387.271 605.925 386.03C610.002 383.396 612.991 379.187 615.632 375.226C618.416 371.049 620.697 366.572 623.451 362.381L622.067 362.739C626.511 365.351 630.703 368.351 635.22 370.855C639.664 373.319 645.2 376.329 650.488 375.859C653.948 375.551 656.206 373.293 657.184 370.087C657.564 368.852 655.611 368.323 655.235 369.554Z" fill="white"/>
</g>
<g clip-path="url(#clip5_10846_18157)">
<path d="M197.988 362.431L253.66 323.741L269.331 312.85C271.079 311.634 272.452 310.149 273.032 308.038C273.563 306.112 273.324 303.546 272.22 301.836C270.009 298.406 264.899 296.376 261.2 298.948L205.529 337.638L189.858 348.53C188.11 349.745 186.737 351.23 186.157 353.341C185.625 355.267 185.865 357.833 186.968 359.544C189.181 362.973 194.289 365.003 197.988 362.431Z" fill="black"/>
<path d="M244.941 343.346C253.287 353.593 260.169 365.007 265.469 377.108C273.515 395.519 277.906 415.316 278.399 435.4C278.851 454.137 275.399 474.815 260.093 487.791C252.397 494.315 242.714 497.362 232.691 497.368C215.949 497.376 197.869 488.97 198.145 469.921C198.334 456.971 209.185 447.021 219.176 438.775C195.801 444.003 172.183 449.257 148.23 449.116C124.278 448.976 99.6101 442.956 81.0455 427.827C56.817 408.079 46.1514 373.206 55.1921 343.295C56.4059 339.294 57.9551 335.403 59.8231 331.662C97.6308 255.747 202.7 291.48 244.941 343.346Z" fill="black"/>
<path d="M244.231 344.056C257.111 359.922 266.46 378.529 271.888 398.208C274.658 408.232 276.403 418.51 277.099 428.886C277.681 437.628 277.615 446.488 276.123 455.142C274.721 463.272 272.045 471.251 267.406 478.128C262.388 485.563 255.166 491.359 246.611 494.181C238.82 496.75 230.243 497.022 222.251 495.229C215.572 493.73 208.998 490.679 204.48 485.404C199.563 479.665 197.997 471.499 199.966 464.252C202.241 455.878 208.66 449.269 214.976 443.667C216.587 442.238 218.232 440.854 219.891 439.483C220.719 438.799 219.811 437.599 218.913 437.801C197.725 442.538 176.363 447.315 154.581 448.02C135.938 448.623 116.828 446.066 99.7675 438.213C91.6209 434.464 83.9776 429.532 77.48 423.329C71.5462 417.666 66.595 411.036 62.727 403.811C55.0173 389.418 51.6648 372.679 53.5051 356.439C55.277 340.798 62.3706 325.785 72.7462 313.991C80.7386 304.891 90.9119 297.97 102.313 293.875C113.618 289.826 125.73 288.532 137.682 289.167C150.361 289.842 162.885 292.657 174.847 296.851C187.122 301.153 198.87 306.961 209.818 313.979C220.32 320.71 230.134 328.599 238.671 337.705C240.596 339.758 242.451 341.876 244.231 344.056C245.05 345.06 246.468 343.63 245.654 342.633C237.763 332.966 228.382 324.566 218.262 317.287C207.501 309.561 195.879 303.108 183.63 298.058C171.527 293.06 158.808 289.475 145.796 287.874C133.482 286.358 120.829 286.702 108.772 289.793C96.9768 292.818 85.985 298.572 76.9827 306.792C65.9043 316.911 57.508 330.684 53.6139 345.157C49.2889 361.236 50.4527 378.607 56.2053 394.182C62.0626 410.045 72.6033 423.828 86.6958 433.239C102.264 443.635 120.96 448.559 139.49 449.803C161.065 451.252 182.627 447.653 203.667 443.206C208.933 442.083 214.193 440.928 219.446 439.743L218.468 438.06C211.588 443.747 204.47 449.915 200.302 457.963C196.531 465.248 196.009 473.978 199.547 481.466C206.139 495.424 224.414 499.739 238.49 498.02C247.899 496.871 256.626 492.84 263.371 486.149C269.516 480.053 273.674 472.271 276.129 464.022C278.599 455.717 279.459 446.973 279.447 438.334C279.433 427.727 278.239 417.097 276.036 406.723C271.6 385.832 262.858 365.782 250.219 348.54C248.746 346.534 247.224 344.565 245.654 342.633C244.837 341.627 243.421 343.06 244.231 344.056Z" fill="black"/>
<path d="M193.186 529.108L200.882 532.646C202.259 533.28 204.266 533.149 205.013 531.563C212.202 516.334 218.044 500.505 222.47 484.257C223.491 480.502 217.664 478.9 216.645 482.651C212.379 498.401 206.741 513.747 199.796 528.514L203.928 527.432L196.232 523.894C194.752 523.214 192.981 523.473 192.101 524.976C191.342 526.279 191.698 528.422 193.186 529.108ZM237.05 409.216L278.353 344.177L290.058 325.745C292.319 322.183 290.918 316.711 287.168 314.731C283.19 312.63 278.563 313.817 276.148 317.619L234.845 382.658L223.141 401.09C220.88 404.652 222.281 410.124 226.03 412.104C230.009 414.205 234.636 413.018 237.05 409.216ZM246.401 484.022C242.525 490.89 238.816 498.151 240.03 506.267C240.532 509.612 242.011 512.888 244.379 515.329C247.16 518.197 251.066 519.561 254.999 519.732C259.841 519.941 264.45 518.168 268.775 516.194L264.231 513.588L265.116 521.459C265.3 523.079 266.375 524.477 268.137 524.477C269.629 524.477 271.34 523.089 271.157 521.459L270.271 513.588C270.003 511.206 267.939 509.972 265.727 510.982C262.098 512.638 258.015 514.186 253.952 513.618C250.511 513.137 248.052 511.125 246.804 508.249C245.493 505.227 245.539 501.83 246.337 498.682C247.392 494.523 249.526 490.781 251.618 487.073C253.529 483.68 248.312 480.633 246.401 484.022Z" fill="black"/>
<path d="M168.827 317.464C169.984 323.159 168.369 329.327 165.917 334.469C161.491 343.75 151.196 350.393 140.702 347.781C136.506 346.737 132.39 344.666 129.39 341.504C115.144 326.486 127.604 297.374 148.863 299.461C158.415 300.401 166.916 308.064 168.827 317.464Z" fill="#FCF1D5"/>
<path d="M167.856 317.732C169.005 323.755 167.191 330.341 164.197 335.59C161.65 340.053 157.671 343.77 152.918 345.783C143.245 349.874 131.466 345.239 126.708 335.992C119.842 322.648 128.252 303.218 143.442 300.624C154.561 298.724 165.552 306.895 167.856 317.732C168.126 318.997 170.067 318.462 169.797 317.196C167.53 306.535 157.478 298.257 146.529 298.35C137.919 298.422 130.439 303.707 126.239 311.02C122.131 318.174 120.915 327.293 124.07 335.036C128.182 345.131 139.781 351.42 150.489 348.713C156.546 347.183 161.795 343.058 165.17 337.862C169.007 331.951 171.132 324.187 169.799 317.196C169.555 315.927 167.614 316.464 167.856 317.732ZM181.735 335.803C181.213 337.097 180.686 338.51 181.062 339.852C181.578 341.687 183.537 342.653 185.295 343.398C188.039 344.561 191.1 345.74 193.917 344.768C196.097 344.018 197.692 342.068 198.574 339.937C200.789 334.58 198.489 327.665 193.349 324.984C191.367 323.952 189.284 323.723 187.3 324.833C185.665 325.749 185.269 327.456 184.568 329.045C183.587 331.283 182.643 333.535 181.735 335.803Z" fill="#FCF1D5"/>
<path d="M180.765 335.536C179.901 337.703 179.43 340.031 181.107 341.939C182.51 343.537 184.774 344.318 186.707 345.05C189.052 345.938 191.726 346.586 194.185 345.738C196.251 345.026 197.876 343.424 198.921 341.535C200.862 338.025 200.837 333.714 199.255 330.08C197.682 326.474 194.02 322.918 189.82 323.101C187.121 323.217 185.267 324.779 184.254 327.182C183.08 329.963 181.892 332.736 180.765 335.536C180.282 336.737 182.227 337.258 182.706 336.071C183.562 333.946 184.447 331.832 185.36 329.73C186.002 328.251 186.427 326.411 187.973 325.616C191.364 323.872 195.129 326.848 196.794 329.673C198.349 332.31 198.85 335.584 197.998 338.538C197.523 340.186 196.613 341.794 195.262 342.883C193.653 344.179 191.626 344.326 189.671 343.875C187.677 343.416 185.551 342.611 183.797 341.549C183.034 341.086 182.289 340.476 182.033 339.587C181.697 338.419 182.281 337.139 182.706 336.073C183.185 334.867 181.238 334.344 180.765 335.536Z" fill="#FCF1D5"/>
<path d="M162.856 329.623C162.854 326.031 166.277 323.558 169.793 325.228C170.749 325.683 171.635 326.558 171.613 327.617C171.593 328.575 170.854 329.349 170.129 329.979C168.547 331.355 166.809 332.54 164.95 333.511C164.423 333.198 163.969 332.774 163.621 332.268C163.273 331.763 163.039 331.188 162.935 330.583C162.883 330.266 162.857 329.945 162.856 329.623Z" fill="#E24122"/>
<path d="M163.863 329.623C163.873 328.583 164.222 327.578 164.9 326.856C165.222 326.504 165.612 326.221 166.045 326.023C166.479 325.825 166.948 325.716 167.425 325.703C168.404 325.681 169.771 326.039 170.389 326.957C170.673 327.377 170.669 327.772 170.379 328.242C170.027 328.812 169.449 329.251 168.939 329.673C167.548 330.816 166.041 331.811 164.443 332.642H165.46C164.371 331.98 163.881 330.867 163.863 329.623C163.845 328.329 161.832 328.325 161.85 329.623C161.866 330.786 162.142 331.927 162.828 332.881C163.165 333.348 163.549 333.74 164.008 334.085C164.214 334.237 164.433 334.411 164.683 334.479C165.128 334.602 165.502 334.358 165.875 334.155C166.933 333.579 167.95 332.932 168.921 332.219C169.829 331.553 170.79 330.853 171.543 330.009C172.34 329.118 172.872 327.939 172.495 326.737C172.175 325.717 171.353 324.898 170.415 324.415C168.663 323.513 166.563 323.429 164.818 324.389C162.923 325.431 161.872 327.502 161.85 329.623C161.836 330.919 163.849 330.919 163.863 329.623Z" fill="#E24122"/>
<path d="M186.147 315.454C194.632 324.169 179.067 339.494 170.473 329.466C165.301 323.429 170.415 313.93 177.642 312.753C180.694 312.256 183.99 313.24 186.147 315.454Z" fill="#E24122"/>
<path d="M185.434 316.166C190.401 321.362 185.796 329.363 179.848 331.297C176.532 332.376 173.216 331.305 171.043 328.585C168.408 325.284 169.177 320.658 171.672 317.518C173.095 315.725 175.064 314.355 177.311 313.84C178.752 313.52 180.25 313.565 181.668 313.971C183.087 314.378 184.381 315.132 185.434 316.166C186.352 317.082 187.778 315.659 186.857 314.743C182.675 310.575 176.049 310.791 171.722 314.562C168.1 317.72 166.195 323.107 168.168 327.665C169.922 331.718 174.247 334.274 178.628 333.642C182.504 333.084 185.965 330.402 187.931 327.079C190.305 323.065 190.158 318.192 186.859 314.743C185.961 313.805 184.538 315.228 185.434 316.166Z" fill="#E24122"/>
<path d="M181.492 332.173C190.921 341.857 173.625 358.886 164.077 347.743C158.328 341.035 164.012 330.478 172.042 329.17C175.433 328.619 179.096 329.712 181.492 332.173Z" fill="#E24122"/>
<path d="M180.781 332.885C186.362 338.723 181.216 347.711 174.525 349.886C170.802 351.098 167.075 349.892 164.632 346.843C161.659 343.132 162.516 337.92 165.331 334.388C166.928 332.384 169.133 330.849 171.648 330.271C173.267 329.911 174.951 329.961 176.547 330.418C178.142 330.874 179.597 331.723 180.781 332.885C181.699 333.801 183.125 332.378 182.204 331.462C177.604 326.876 170.307 327.11 165.545 331.261C161.56 334.735 159.442 340.665 161.612 345.686C163.537 350.142 168.289 352.967 173.107 352.277C177.386 351.663 181.208 348.705 183.376 345.036C185.988 340.619 185.833 335.262 182.202 331.464C181.306 330.523 179.885 331.947 180.781 332.885Z" fill="#E24122"/>
<path d="M169.676 329.019C166.31 323.447 168.736 316.369 173.997 312.946C175.079 312.242 174.072 310.499 172.981 311.209C166.817 315.22 163.986 323.499 167.937 330.036C168.607 331.142 170.349 330.132 169.676 329.019Z" fill="black"/>
<path d="M181.242 345.36C185.698 346.95 190.522 349.486 195.359 347.918C198.49 346.904 200.588 344.36 201.772 341.384C204.007 335.769 203.022 327.87 197.626 324.411C192.975 321.428 187.458 320.08 181.989 319.776C179.4 319.633 179.408 323.658 181.989 323.801C185.99 324.022 190.019 324.896 193.599 326.741C196.118 328.039 197.577 329.217 198.353 331.925C199.492 335.91 198.727 342.036 194.678 343.893C190.937 345.608 185.958 342.782 182.313 341.482C179.867 340.607 178.814 344.495 181.242 345.36Z" fill="#E24122"/>
<path d="M162.546 338.252C164.683 331.7 172.573 327.601 178.978 330.792C182.262 332.428 184.445 335.735 184.457 339.434C184.469 343.43 182.341 347.721 179.419 350.381C178.459 351.255 179.887 352.675 180.843 351.804C186.018 347.095 188.649 338.27 184.018 332.354C179.987 327.204 172.547 326.421 167.079 329.665C164.015 331.476 161.714 334.337 160.605 337.717C160.202 338.951 162.145 339.48 162.546 338.252ZM139.198 310.479L146.245 340.599C146.617 342.187 148.431 343.126 149.96 342.708C151.587 342.261 152.442 340.587 152.07 338.995L145.023 308.875C144.65 307.287 142.836 306.347 141.308 306.766C139.679 307.213 138.823 308.887 139.198 310.479Z" fill="black"/>
<path d="M134.293 334.378L158.471 316.758C159.788 315.798 160.436 314.135 159.554 312.628C158.795 311.33 156.748 310.579 155.423 311.545L131.244 329.166C129.928 330.126 129.279 331.788 130.161 333.296C130.92 334.594 132.968 335.344 134.293 334.378ZM183.708 333.012C187.049 331.364 189.431 328.269 190.504 324.733C191.74 320.662 191.005 316.355 189.252 312.554C188.71 311.378 186.974 312.401 187.514 313.57C189.044 316.886 189.636 320.66 188.563 324.2C187.635 327.264 185.579 329.85 182.694 331.275C181.532 331.849 182.551 333.585 183.708 333.012Z" fill="black"/>
<path d="M117.115 325.616C121.529 323.622 124.976 319.543 126.196 314.854C127.525 309.752 126.2 304.432 123.005 300.318C122.338 299.459 120.859 299.618 120.158 300.318C119.31 301.165 119.489 302.302 120.158 303.164C122.514 306.198 123.279 310.427 122.226 314.101C121.185 317.734 118.493 320.599 115.082 322.141C114.091 322.59 113.852 324.026 114.359 324.894C114.957 325.912 116.121 326.065 117.115 325.616Z" fill="#E24122"/>
<path d="M242.064 428.531C229.135 432.731 217.708 440.92 209.465 451.714C207.092 454.828 205.004 458.15 203.229 461.64C202.643 462.791 204.379 463.811 204.967 462.656C210.965 450.883 220.58 441.129 232.226 434.887C235.545 433.111 239.016 431.634 242.597 430.473C243.828 430.075 243.302 428.131 242.064 428.531ZM217.694 453.63C211.342 460.263 207.171 468.68 205.744 477.751C205.549 479.019 207.488 479.564 207.685 478.286C209.028 469.555 213.018 461.446 219.118 455.053C220.014 454.117 218.592 452.692 217.694 453.63ZM217.549 467.812C216.032 469.761 214.924 471.997 214.292 474.384C213.66 476.772 213.517 479.263 213.873 481.707C213.949 482.247 214.634 482.541 215.111 482.41C215.689 482.251 215.892 481.712 215.814 481.172C215.528 479.072 215.66 476.937 216.202 474.889C216.745 472.84 217.686 470.919 218.973 469.235C219.309 468.802 219.388 468.234 218.973 467.812C218.631 467.462 217.884 467.383 217.549 467.812ZM107.882 373.206C101.887 374.534 96.7651 378.583 93.6885 383.848C90.33 389.595 89.742 396.548 91.4495 402.925C95.0395 416.336 107.976 425.066 121.334 426.571C128.264 427.352 135.582 425.992 141.175 421.655C145.709 418.141 149.676 412.191 149.209 406.214C149.022 403.807 148.051 401.034 145.796 399.818C143.303 398.474 140.386 399.716 138.982 402.018C135.729 407.357 140.825 413.972 145.546 416.272C150.413 418.642 156.401 418.423 160.648 414.883C164.773 411.444 166.608 405.499 165.379 400.307C165.071 399.03 164.574 397.807 163.904 396.677C163.249 395.56 161.507 396.572 162.166 397.693C164.57 401.792 164.105 407.047 161.501 410.945C158.856 414.909 154.098 416.576 149.499 415.547C144.88 414.515 139.79 410.466 140.072 405.258C140.205 402.809 142.802 399.929 145.26 401.867C146.972 403.217 147.379 405.902 147.173 407.932C146.628 413.332 143.005 418.177 138.543 421.069C133.413 424.394 127.097 425.255 121.11 424.535C109.599 423.146 98.2088 415.913 94.1274 404.739C91.8985 398.633 91.8502 391.666 94.8905 385.824C97.6491 380.523 102.534 376.448 108.411 375.146C109.682 374.866 109.146 372.926 107.882 373.206Z" fill="#FCF1D5"/>
<path d="M122.999 390.322C118.229 389.637 113.312 393.499 113.675 398.516C113.842 400.816 114.971 403.036 116.781 404.479C117.695 405.208 118.763 405.718 119.905 405.968C121.047 406.217 122.231 406.201 123.366 405.92C124.651 405.614 125.844 405.006 126.846 404.145C127.848 403.285 128.629 402.197 129.124 400.973C129.33 400.466 128.901 399.873 128.422 399.736C127.85 399.571 127.385 399.937 127.183 400.438C125.883 403.664 121.558 405.161 118.598 403.316C115.553 401.418 114.665 397.033 117.15 394.33C118.471 392.895 120.492 391.978 122.466 392.26C123.007 392.338 123.541 392.127 123.704 391.557C123.839 391.088 123.537 390.398 122.999 390.322Z" fill="#FCF1D5"/>
<path d="M276.94 441.431C279.223 437.671 282.038 434.261 285.296 431.304C286.942 429.812 288.697 428.444 290.547 427.213C292.19 426.122 294.143 424.649 296.126 424.319C297.371 424.112 298.291 424.752 298.319 426.066C298.343 427.245 297.61 428.316 297.002 429.27C295.722 431.27 294.357 433.214 292.911 435.098C289.978 438.916 286.741 442.49 283.232 445.786L284.655 447.209C287.245 444.525 290.158 442.173 293.328 440.207C294.89 439.243 296.51 438.376 298.178 437.609C299.209 437.136 302.247 435.48 302.914 437.229C303.556 438.911 301.208 440.711 300.226 441.731L295.693 446.44L286.629 455.858C285.729 456.794 287.112 458.174 288.052 457.281C291.006 454.473 294.638 452.213 298.583 451.103C299.481 450.849 300.717 450.565 301.577 451.099C302.479 451.656 302.618 452.825 302.41 453.773C301.986 455.709 300.343 457.526 299.132 459.034C294.176 465.189 287.803 470.054 280.558 473.213C276.289 475.071 270.396 477.015 266.59 473.195C265.674 472.275 264.25 473.698 265.167 474.618C268.914 478.379 274.469 477.683 279.022 475.988C283.553 474.297 287.813 471.955 291.668 469.035C295.468 466.167 298.847 462.78 301.708 458.975C303.043 457.198 304.613 455.164 304.513 452.817C304.426 450.785 303.089 449.12 301.033 448.853C298.524 448.525 295.78 449.845 293.591 450.934C291.039 452.219 288.693 453.878 286.631 455.856L288.054 457.279L299.211 445.689C300.836 444.001 302.763 442.373 304.096 440.435C305.048 439.048 305.443 437.074 304.313 435.661C303.164 434.22 301.206 434.315 299.61 434.844C297.586 435.516 295.621 436.559 293.771 437.605C289.886 439.816 286.337 442.57 283.232 445.784C282.328 446.716 283.713 448.096 284.655 447.207C289.48 442.669 293.792 437.616 297.514 432.138C298.595 430.548 299.952 428.831 300.258 426.883C300.516 425.239 299.948 423.444 298.396 422.647C296.829 421.842 295.005 422.402 293.519 423.118C290.013 424.81 286.747 427.272 283.874 429.878C280.494 432.955 277.574 436.502 275.204 440.411C274.525 441.524 276.267 442.536 276.94 441.431ZM276.932 320.114C276.046 317.927 276.187 315.586 277.153 313.445C278.001 311.568 279.102 309.684 280.683 308.332C281.669 307.488 280.24 306.07 279.259 306.909C277.465 308.442 276.178 310.64 275.258 312.787C274.185 315.287 273.956 318.096 274.988 320.65C275.192 321.153 275.659 321.509 276.227 321.352C276.706 321.221 277.135 320.621 276.932 320.114Z" fill="black"/>
<path d="M279.469 319.191C284.012 314.406 286.772 308.206 287.285 301.63C287.386 300.338 285.372 300.346 285.272 301.63C284.778 307.677 282.228 313.372 278.045 317.768C277.153 318.706 278.575 320.13 279.469 319.191ZM284.593 319.259C288.273 315.049 290.452 309.738 290.789 304.158C290.867 302.864 288.854 302.868 288.775 304.158C288.462 309.209 286.492 314.017 283.17 317.836C282.32 318.808 283.737 320.237 284.593 319.259ZM287.77 321.215C291.422 317.446 293.707 312.563 294.26 307.346C294.318 306.804 293.755 306.339 293.253 306.339C292.659 306.339 292.305 306.802 292.246 307.346C291.739 312.01 289.613 316.436 286.347 319.792C285.441 320.722 286.864 322.147 287.77 321.215ZM288.519 327.679C292.465 322.92 295.376 317.392 297.069 311.447C297.423 310.199 295.48 309.666 295.128 310.912C293.542 316.526 290.807 321.751 287.096 326.254C286.276 327.248 287.694 328.679 288.519 327.679ZM270.342 312.133L277.502 305.629C277.904 305.263 277.874 304.576 277.502 304.206C277.31 304.022 277.055 303.919 276.79 303.919C276.524 303.919 276.269 304.022 276.078 304.206L268.918 310.71C268.515 311.077 268.545 311.763 268.918 312.133C269.109 312.317 269.364 312.42 269.63 312.42C269.895 312.42 270.15 312.317 270.342 312.133ZM270.027 306.289C273.468 302.64 277.629 299.745 282.247 297.789C282.749 297.575 282.857 296.839 282.608 296.412C282.306 295.895 281.732 295.839 281.231 296.052C276.458 298.087 272.158 301.089 268.602 304.866C267.716 305.808 269.137 307.235 270.027 306.289ZM266.784 304.446C270.296 300.491 274.636 297.359 279.497 295.271C279.994 295.056 280.111 294.321 279.857 293.895C279.553 293.379 278.983 293.317 278.48 293.534C273.465 295.7 268.986 298.939 265.36 303.023C264.502 303.989 265.922 305.418 266.784 304.446ZM262.853 302.681C266.621 298.581 271.289 295.411 276.491 293.422C277.691 292.967 277.169 291.021 275.955 291.482C270.42 293.571 265.446 296.918 261.428 301.258C260.554 302.21 261.973 303.637 262.853 302.681Z" fill="black"/>
<path d="M255.2 306.923C259.7 299.791 266.146 294.093 273.779 290.502C274.95 289.95 273.93 288.213 272.762 288.765C264.827 292.526 258.131 298.473 253.46 305.907C252.77 307.005 254.511 308.018 255.2 306.923Z" fill="black"/>
</g>
<g clip-path="url(#clip6_10846_18157)">
<path d="M75.1559 308.653C73.9391 308.386 72.3356 308.826 70.9495 309.825C68.5222 311.575 67.1382 314.666 64.4663 316.096C57.933 319.592 49.9048 316.754 42.5603 317.688C34.2248 318.749 26.9744 325.022 23.8781 332.87C20.7798 340.719 21.6035 349.84 25.2559 357.445C27.081 361.245 28.6616 365.238 31.2143 368.629C35.5963 374.45 45.7507 380.048 53.2164 378.175C56.9274 377.244 57.1009 372.349 58.1609 369.087C60.9624 360.459 76.22 316.873 76.9936 312.229C77.3511 310.071 76.4793 308.943 75.1559 308.653Z" fill="#F6A50C"/>
<path d="M75.4317 307.639C70.9765 306.914 68.6015 310.844 65.9234 313.613C62.6599 316.989 57.5105 316.985 53.1536 316.768C48.713 316.548 44.2244 316.025 39.8528 317.134C36.0499 318.1 32.548 320.106 29.6462 322.741C23.2634 328.537 20.3448 337.158 21.0201 345.689C21.388 350.321 22.7721 354.609 24.7373 358.789C26.6523 362.856 28.4001 367.118 31.4149 370.52C36.238 375.962 44.4502 380.393 51.8699 379.477C53.4923 379.277 55.0247 378.83 56.1412 377.561C57.199 376.36 57.7447 374.797 58.1566 373.274C58.7148 371.209 59.2249 369.162 59.9044 367.135C63.3853 356.751 66.9896 346.412 70.4978 336.036C72.2665 330.807 74.0268 325.575 75.7119 320.319C76.2915 318.534 76.8463 316.741 77.376 314.941C77.7795 313.546 78.2792 312.046 78.0576 310.58C77.8339 309.09 76.8722 308.025 75.4317 307.639C74.1313 307.29 73.5752 309.315 74.8756 309.664C77.4429 310.353 74.723 316.516 74.2275 318.083C72.7464 322.737 71.2215 327.376 69.6531 332.001C66.2161 342.225 62.6954 352.42 59.2228 362.631C58.6667 364.27 58.1106 365.906 57.5649 367.549C56.8353 369.742 56.484 372.064 55.6728 374.223C55.1335 375.662 54.3118 376.809 52.771 377.198C51.0818 377.624 49.2273 377.563 47.5193 377.275C43.8021 376.649 40.2772 374.988 37.1997 372.834C33.9801 370.58 31.5675 367.723 29.6942 364.268C27.6308 360.459 25.5777 356.342 24.3401 352.182C21.9295 344.088 22.7135 334.977 27.7186 328.018C29.9717 324.883 32.9512 322.348 36.399 320.632C40.0765 318.817 44.0007 318.415 48.0482 318.577C52.2044 318.745 56.4025 319.317 60.5336 318.543C62.4173 318.191 64.3763 317.533 65.9359 316.388C67.3952 315.317 68.4614 313.855 69.6448 312.504C70.9263 311.042 72.7515 309.315 74.8735 309.66C76.1927 309.88 76.7593 307.855 75.4317 307.639Z" fill="#F6A50C"/>
<path d="M27.8651 343.775C28.9794 334.839 34.6493 327.15 43.4614 324.715C45.6589 324.107 47.9366 323.843 50.2143 323.932C52.6457 324.028 54.9225 324.759 57.3037 325.159C59.4049 325.512 61.6983 325.726 63.7451 324.978C65.4866 324.341 66.833 323.05 68.2066 321.848C69.2226 320.957 67.7383 319.478 66.7285 320.363C65.5535 321.392 64.3848 322.577 62.8649 323.064C60.9687 323.671 58.7965 323.337 56.8919 322.953C53.2228 322.209 49.838 321.529 46.0727 322.045C39.1191 323.003 32.9329 326.932 29.3265 333.007C27.3717 336.301 26.2469 339.986 25.7744 343.777C25.6093 345.113 27.6999 345.101 27.8651 343.775Z" fill="black"/>
<path d="M56.7035 376.118C55.102 380.433 49.382 378.742 46.0766 377.824C41.9392 376.675 38.0046 374.692 34.6741 371.963C29.9283 368.074 26.4683 362.713 24.3797 356.959C20.3426 345.828 21.0472 331.604 31.1514 323.921C34.3961 321.453 38.4352 319.293 42.4723 318.611C47.2244 317.806 52.0538 318.789 56.8038 317.756C60.751 316.897 64.3093 315.804 67.2781 312.939C68.8314 311.439 70.343 310.183 72.4378 309.517C74.0037 309.019 76.9913 308.5 77.7711 310.504C78.1474 311.47 77.7084 312.605 77.4596 313.563C77.2254 314.464 76.9746 315.361 76.7174 316.258C76.0583 318.536 75.369 320.806 74.6497 323.066C72.828 328.796 70.9477 334.507 69.0091 340.198C65.2564 351.296 61.3677 362.346 57.6045 373.44L56.7035 376.118C56.2749 377.404 58.2945 377.954 58.7189 376.677C62.5427 365.205 66.5986 353.81 70.483 342.357C72.6112 336.134 74.6727 329.888 76.6672 323.621C77.422 321.226 78.1642 318.827 78.8499 316.411C79.4185 314.409 80.4848 311.861 79.7531 309.811C78.323 305.809 72.9145 306.859 70.0168 308.235C67.9722 309.208 66.5756 310.836 64.8989 312.296C63.1741 313.796 61.0311 314.55 58.8527 315.117C56.4756 315.737 54.1069 316.199 51.6462 316.256C49.0767 316.317 46.5052 316.117 43.94 316.331C39.3154 316.722 34.9815 318.783 31.1618 321.348C19.8597 328.94 17.9405 343.773 21.8479 356.006C23.8006 362.117 27.1456 367.948 31.8831 372.307C36.8625 376.859 43.0947 379.793 49.7625 380.725C51.6462 380.99 53.5947 381.282 55.3801 380.46C57.0066 379.712 58.1021 378.336 58.7189 376.677C59.1893 375.408 57.1697 374.86 56.7035 376.118Z" fill="black"/>
<path d="M39.6315 359.8L43.1229 365.862C43.3968 366.337 44.0804 366.545 44.5529 366.238C44.7884 366.094 44.959 365.864 45.0288 365.596C45.0986 365.328 45.0622 365.043 44.9271 364.801L41.4357 358.739C41.1618 358.264 40.4782 358.056 40.0057 358.363C39.7702 358.507 39.5996 358.737 39.5298 359.005C39.46 359.273 39.4964 359.558 39.6315 359.8ZM42.1549 344.945L51.6904 362.919C52.3239 364.112 54.1282 363.054 53.4947 361.858L43.9592 343.884C43.3278 342.691 41.5214 343.752 42.1549 344.945ZM51.7782 340.988L57.03 351.539C57.6321 352.75 59.4364 351.687 58.8342 350.479L53.5825 339.927C52.9804 338.717 51.1761 339.78 51.7782 340.988Z" fill="black"/>
</g>
<g clip-path="url(#clip7_10846_18157)">
<path d="M679.098 261.473L681.182 245.05C681.253 244.483 680.65 244.006 680.136 244C679.51 243.994 679.161 244.489 679.09 245.05L677.006 261.473C676.935 262.04 677.538 262.517 678.052 262.523C678.676 262.529 679.027 262.034 679.098 261.473ZM693.133 265.694C697.139 259.165 701.375 252.784 705.699 246.465C706.463 245.348 704.651 244.296 703.894 245.405C699.57 251.725 695.334 258.107 691.328 264.633C690.619 265.788 692.426 266.845 693.133 265.694ZM702.214 275.889L718.46 268.149C719.676 267.569 718.615 265.759 717.404 266.336L701.158 274.077C699.942 274.654 701.003 276.464 702.214 275.889Z" fill="black"/>
</g>
<g clip-path="url(#clip8_10846_18157)">
<path d="M521.384 287.225C506.958 294.413 497.311 309.322 496.842 325.003C496.801 326.333 498.936 326.331 498.977 325.003C499.425 310.018 508.7 295.865 522.462 289.008C523.683 288.399 522.605 286.616 521.384 287.225ZM500.2 287.153C495.439 289.9 492.344 294.874 492.002 300.217C491.917 301.545 494.052 301.539 494.137 300.217C494.432 295.609 497.186 291.296 501.276 288.938C502.456 288.256 501.382 286.47 500.2 287.153Z" fill="black"/>
</g>
<g clip-path="url(#clip9_10846_18157)">
<path d="M325.077 420.089C332.569 436.155 331.789 455.584 323.037 470.99C322.242 472.387 324.355 473.735 325.151 472.333C334.362 456.12 335.172 435.823 327.288 418.916C326.607 417.451 324.397 418.63 325.077 420.089ZM342.688 436.116C344.078 444.323 343.094 452.753 339.85 460.417C339.226 461.9 341.627 462.622 342.246 461.15C345.641 453.077 346.608 444.167 345.127 435.542C344.853 433.953 342.416 434.531 342.688 436.116Z" fill="black"/>
</g>
<defs>
<clipPath id="clip0_10846_18157">
<rect width="323" height="309" fill="white" transform="translate(453 227)"/>
</clipPath>
<clipPath id="clip1_10846_18157">
<rect width="633" height="1" fill="white" transform="translate(146 533)"/>
</clipPath>
<clipPath id="clip2_10846_18157">
<rect width="396" height="263" fill="white" transform="translate(260 66)"/>
</clipPath>
<clipPath id="clip3_10846_18157">
<rect width="42" height="27" fill="white" transform="translate(601 261)"/>
</clipPath>
<clipPath id="clip4_10846_18157">
<rect width="207" height="160" fill="white" transform="translate(510 269)"/>
</clipPath>
<clipPath id="clip5_10846_18157">
<rect width="254" height="246" fill="white" transform="translate(51 287)"/>
</clipPath>
<clipPath id="clip6_10846_18157">
<rect width="60" height="74" fill="white" transform="translate(20 307)"/>
</clipPath>
<clipPath id="clip7_10846_18157">
<rect width="42" height="32" fill="white" transform="translate(677 244)"/>
</clipPath>
<clipPath id="clip8_10846_18157">
<rect width="31" height="39" fill="white" transform="translate(492 287)"/>
</clipPath>
<clipPath id="clip9_10846_18157">
<rect width="53" height="29" fill="white" transform="translate(353.121 426.404) rotate(107.017)"/>
</clipPath>
</defs>
</svg>
