<svg width="402" height="178" viewBox="0 0 402 178" fill="none" xmlns="http://www.w3.org/2000/svg">
  <path d="M93.7434 129.308H1L71.7965 15.1021V167.142" stroke="#121212" stroke-width="2" stroke-linecap="square" stroke-linejoin="bevel" />
  <ellipse cx="71.4426" cy="14.7483" rx="3.89381" ry="3.88938" fill="#121212" />
  <ellipse cx="93.3894" cy="129.308" rx="3.89381" ry="3.88938" fill="#121212" />
  <path d="M140.357 27.1235L264.717 151.342" stroke="#E3E2E4" />
  <rect x="140.392" y="27.1582" width="124.291" height="124.149" stroke="#E3E2E4" />
  <path d="M264.339 89.4652C264.895 85.8242 265.183 82.0954 265.183 78.2995C265.183 37.7024 232.235 4.79199 191.592 4.79199C150.948 4.79199 118 37.7024 118 78.2995C118 118.897 150.948 151.807 191.592 151.807C195.23 151.807 198.807 151.543 202.304 151.034" stroke="#E3E2E4" />
  <path d="M202.304 150.964C205.949 151.519 209.682 151.807 213.483 151.807C254.126 151.807 287.074 118.897 287.074 78.2995C287.074 37.7024 254.126 4.79199 213.483 4.79199C172.839 4.79199 139.892 37.7024 139.892 78.2995C139.892 82.0955 140.18 85.8242 140.735 89.4652" stroke="#E3E2E4" />
  <path d="M140.2 89.4652C139.69 92.9584 139.426 96.5312 139.426 100.166C139.426 140.763 172.374 173.673 213.017 173.673C253.66 173.673 286.608 140.763 286.608 100.166C286.608 59.5686 253.66 26.6582 213.017 26.6582C209.378 26.6582 205.801 26.922 202.304 27.4314" stroke="#E3E2E4" />
  <path d="M202.304 27.4314C198.807 26.922 195.23 26.6582 191.592 26.6582C150.948 26.6582 118 59.5686 118 100.166C118 140.763 150.948 173.673 191.592 173.673C232.235 173.673 265.183 140.763 265.183 100.166C265.183 96.5312 264.919 92.9584 264.409 89.4652" stroke="#E3E2E4" />
  <path d="M264.717 27.1235L140.357 151.342" stroke="#E3E2E4" />
  <path d="M139.892 89.4653H264.717" stroke="#E3E2E4" />
  <path d="M202.304 26.6582V151.807" stroke="#E3E2E4" />
  <ellipse cx="264.717" cy="89.4651" rx="3.72614" ry="3.7219" fill="#121212" />
  <ellipse cx="264.717" cy="27.1233" rx="3.72614" ry="3.7219" fill="#121212" />
  <ellipse cx="264.717" cy="151.807" rx="3.72614" ry="3.7219" fill="#121212" />
  <ellipse cx="140.357" cy="151.807" rx="3.72613" ry="3.7219" fill="#121212" />
  <ellipse cx="202.304" cy="89.4651" rx="3.72613" ry="3.7219" fill="#121212" />
  <ellipse cx="202.304" cy="27.1233" rx="3.72613" ry="3.7219" fill="#121212" />
  <ellipse cx="140.357" cy="89.4651" rx="3.72613" ry="3.7219" fill="#121212" />
  <ellipse cx="140.357" cy="27.1233" rx="3.72613" ry="3.7219" fill="#121212" />
  <ellipse cx="202.304" cy="151.807" rx="3.72613" ry="3.7219" fill="#121212" />
  <path d="M401 127.187H308.257L379.053 12.9805V165.02" stroke="#121212" stroke-width="2" stroke-linecap="square" stroke-linejoin="bevel" />
  <ellipse cx="379.407" cy="127.187" rx="3.89381" ry="3.88938" fill="#121212" />
</svg>
