<svg width="100" height="22" viewBox="0 0 100 22" fill="none" xmlns="http://www.w3.org/2000/svg">
<path fill-rule="evenodd" clip-rule="evenodd" d="M77.4929 0.10376V13.3534L69.3559 0.10376H65.563V21.9999H69.7957V8.75276L77.9197 21.9999H81.7255V0.10376H77.4929Z" fill="#153C7A"/>
<path fill-rule="evenodd" clip-rule="evenodd" d="M7.71004 0L0 22H4.5159L9.42021 6.78417L14.3267 22H18.8273L11.1161 0H7.71004Z" fill="#153C7A"/>
<path fill-rule="evenodd" clip-rule="evenodd" d="M39.6845 0.148682V9.30504H26.3638V3.94645H34.5655L36.4257 0.148682H22.127V21.9552H26.3638V13.1041H39.6845V21.9552H43.9214V13.1041H50.0647H50.6301L52.489 9.30504H51.9237H43.9214V3.94645H52.123L53.9832 0.148682H39.6845Z" fill="#153C7A"/>
<path fill-rule="evenodd" clip-rule="evenodd" d="M85.7012 0.148682V21.9552H98.1397L99.9999 18.1559H89.938V12.8571H98.507V9.06163H89.938V3.94645H98.1397L99.9999 0.148682H85.7012Z" fill="#153C7A"/>
<path fill-rule="evenodd" clip-rule="evenodd" d="M57.2695 22.0001H61.5022V7.49414H57.2695V22.0001Z" fill="#153C7A"/>
<path fill-rule="evenodd" clip-rule="evenodd" d="M57.2695 4.6581H61.5022V0.103882H57.2695V4.6581Z" fill="#3E6FDB"/>
</svg>
