<svg width="361" height="360" viewBox="0 0 361 360" fill="none" xmlns="http://www.w3.org/2000/svg">
<path d="M173.599 78.203C169.168 85.2189 165.45 92.7304 161.603 100.072C151.337 119.663 141.311 139.364 130.767 158.811C122.942 173.244 114.17 187.226 107.419 202.215C100.275 218.078 95.2816 234.564 89.9862 251.08C88.5364 255.602 86.3938 259.077 83.9764 263.124C80.2412 269.377 76.9134 275.828 73.5784 282.298C70.1708 288.909 66.4939 295.634 64.1345 302.712" stroke="#C8C8C8" stroke-width="20" stroke-linecap="round"/>
<path d="M64.1345 303.141C83.1492 302.349 102.15 301.086 121.18 300.661C133.911 300.377 146.657 300.851 159.385 300.47C166.987 300.243 174.511 299.39 182.089 298.944C190.62 298.442 199.208 299.041 207.75 298.825C217.834 298.57 227.956 297.793 238.037 297.322C245.824 296.959 253.713 296.69 261.48 296.035C270.416 295.281 279.381 293.613 288.238 292.243C290.772 291.851 293.381 290.693 295.941 290.693" stroke="#C8C8C8" stroke-width="20" stroke-linecap="round"/>
<path d="M172.311 74.3395C172.822 75.8722 173.698 77.2035 174.577 78.5607C178.958 85.3315 183.852 91.7765 188.671 98.2357C203.666 118.334 218.778 138.345 233.792 158.429C249.194 179.031 264.337 199.824 279.724 220.435C283.264 225.176 286.76 230.008 290.552 234.553C295.773 240.812 302.093 246.858 305.815 254.204C307.801 258.127 308.565 262.468 309.583 266.701C310.409 270.137 310.904 273.856 310.966 277.385C311.012 280.008 309.493 281.312 308.915 283.729C307.711 288.765 307.2 291.507 302.38 293.698" stroke="#C8C8C8" stroke-width="20" stroke-linecap="round"/>
<path d="M140.974 137.872C153.635 141.459 165.392 148.224 177.224 153.85C186.482 158.252 195.863 162.353 205.174 166.633C213.9 170.644 222.119 175.522 230.501 180.179C235.69 183.061 241.102 185.802 246.575 188.097C251.724 190.256 257.557 192.899 262.029 196.253" stroke="#C8C8C8" stroke-width="20" stroke-linecap="round"/>
<path d="M136.252 145.599C136.155 163.499 133.473 181.137 130.004 198.685C125.803 219.936 120.907 240.892 117.913 262.385C116.012 276.026 115.218 289.806 115.218 303.571" stroke="#C8C8C8" stroke-width="20" stroke-linecap="round"/>
<path d="M115.647 304C133.055 298.232 150.461 291.796 166.54 282.87C180.165 275.306 192.711 265.673 203.982 254.944C212.689 246.655 221.304 238.962 231.145 232.073C239.003 226.572 246.927 221.145 254.731 215.57C256.769 214.115 259.015 213.404 261.218 212.303C263.537 211.143 265.566 209.415 267.609 207.843" stroke="#C8C8C8" stroke-width="20" stroke-linecap="round"/>
<path d="M132.818 197.541C146.69 187.278 161.034 176.558 177.2 170.091C181.979 168.179 186.247 165.46 190.77 163.199" stroke="#C8C8C8" stroke-width="20" stroke-linecap="round"/>
<path d="M191.628 163.199C191.943 175.475 193.4 187.619 193.345 199.925C193.302 209.866 192.837 219.79 192.916 229.736C192.973 236.951 194.791 244.056 195.921 251.152C196.305 253.563 197.209 256.041 197.209 258.497" stroke="#C8C8C8" stroke-width="20" stroke-linecap="round"/>
<path d="M197.209 258.497C184.157 251.184 171.329 243.5 158.312 236.127C152.189 232.659 145.502 230.144 139.496 226.54C136.222 224.576 133.186 221.978 129.813 220.292" stroke="#C8C8C8" stroke-width="20" stroke-linecap="round"/>
<path d="M154.282 191.102C154.282 203.264 155.228 215.38 155.14 227.542C155.135 228.206 155.006 237.727 155.092 237.654C159.621 233.84 163.433 229.097 168.018 225.276C171.19 222.633 174.882 220.425 178.392 218.265C180.649 216.876 183.21 216.013 185.475 214.64C187.587 213.36 192.117 211.1 192.916 208.702" stroke="#C8C8C8" stroke-width="20" stroke-linecap="round"/>
<path d="M192.916 208.272C186.836 204.356 180.419 200.961 173.694 198.304C170.195 196.921 166.472 195.96 163.201 194.106C160.539 192.598 157.189 191.212 154.282 190.243" stroke="#C8C8C8" stroke-width="20" stroke-linecap="round"/>
<path d="M159.714 58.8634C155.283 65.8794 151.566 73.3909 147.719 80.7325C137.453 100.323 127.426 120.025 116.883 139.471C109.057 153.904 100.286 167.887 93.5349 182.875C86.3903 198.738 81.3971 215.224 76.1017 231.741C74.652 236.263 72.5094 239.737 70.0919 243.784C66.3568 250.037 63.0289 256.489 59.694 262.958C56.2864 269.569 52.6095 276.294 50.25 283.373" stroke="black" stroke-width="20" stroke-linecap="round"/>
<path d="M50.25 283.802C69.2647 283.01 88.2655 281.746 107.295 281.322C120.027 281.038 132.772 281.512 145.501 281.131C153.102 280.904 160.627 280.05 168.204 279.605C176.736 279.103 185.324 279.702 193.865 279.485C203.95 279.23 214.072 278.453 224.153 277.983C231.94 277.62 239.828 277.35 247.596 276.695C256.531 275.942 265.497 274.274 274.354 272.903C276.888 272.511 279.497 271.353 282.057 271.353" stroke="black" stroke-width="20" stroke-linecap="round"/>
<path d="M158.427 55C158.937 56.5327 159.814 57.864 160.692 59.2212C165.073 65.992 169.968 72.4369 174.787 78.8961C189.781 98.9945 204.894 119.005 219.908 139.09C235.309 159.692 250.453 180.485 265.84 201.096C269.379 205.836 272.875 210.669 276.667 215.214C281.889 221.472 288.209 227.518 291.93 234.865C293.917 238.788 294.681 243.129 295.698 247.362C296.524 250.797 297.019 254.517 297.081 258.046C297.127 260.669 295.608 261.973 295.03 264.389C293.826 269.426 293.315 272.167 288.496 274.358" stroke="black" stroke-width="20" stroke-linecap="round"/>
<path d="M127.09 118.532C139.751 122.12 151.508 128.885 163.339 134.511C172.597 138.913 181.978 143.013 191.29 147.293C200.016 151.305 208.234 156.183 216.617 160.839C221.805 163.722 227.218 166.462 232.691 168.757C237.84 170.916 243.672 173.559 248.144 176.913" stroke="black" stroke-width="20" stroke-linecap="round"/>
<path d="M122.368 126.259C122.271 144.16 119.589 161.797 116.119 179.346C111.918 200.597 107.022 221.552 104.028 243.045C102.128 256.687 101.333 270.467 101.333 284.231" stroke="black" stroke-width="20" stroke-linecap="round"/>
<path d="M101.763 284.66C119.171 278.892 136.577 272.457 152.655 263.531C166.281 255.967 178.826 246.333 190.097 235.604C198.805 227.316 207.42 219.622 217.261 212.734C225.119 207.233 233.042 201.805 240.847 196.23C242.884 194.775 245.131 194.065 247.334 192.963C249.652 191.804 251.681 190.076 253.725 188.504" stroke="black" stroke-width="20" stroke-linecap="round"/>
<path d="M118.934 178.201C132.806 167.938 147.149 157.218 163.315 150.751C168.094 148.84 172.362 146.121 176.885 143.859" stroke="black" stroke-width="20" stroke-linecap="round"/>
<path d="M177.744 143.859C178.059 156.135 179.515 168.279 179.461 180.586C179.417 190.526 178.953 200.451 179.032 210.396C179.089 217.612 180.906 224.717 182.037 231.812C182.421 234.223 183.324 236.701 183.324 239.158" stroke="black" stroke-width="20" stroke-linecap="round"/>
<path d="M183.324 239.158C170.272 231.845 157.445 224.16 144.428 216.788C138.304 213.32 131.618 210.805 125.611 207.201C122.338 205.237 119.301 202.639 115.929 200.952" stroke="black" stroke-width="20" stroke-linecap="round"/>
<path d="M140.397 171.762C140.397 183.924 141.343 196.04 141.256 208.202C141.251 208.866 141.121 218.387 141.208 218.314C145.737 214.5 149.549 209.758 154.134 205.937C157.305 203.294 160.997 201.086 164.508 198.925C166.764 197.537 169.326 196.673 171.591 195.3C173.702 194.021 178.232 191.761 179.032 189.362" stroke="black" stroke-width="20" stroke-linecap="round"/>
<path d="M179.032 188.933C172.951 185.017 166.535 181.622 159.81 178.964C156.31 177.581 152.587 176.62 149.316 174.767C146.654 173.258 143.304 171.873 140.397 170.903" stroke="black" stroke-width="20" stroke-linecap="round"/>
</svg>
