<svg width="360" height="360" viewBox="0 0 360 360" fill="none" xmlns="http://www.w3.org/2000/svg">
<path d="M172 126.5C172.151 129.344 172.127 132.409 171.862 135.64C172.469 165.592 184.692 200.307 252.777 187.917C254.323 187.595 255.898 187.29 257.5 187C255.897 187.33 254.323 187.636 252.777 187.917C184.113 202.199 170.404 247.654 171.318 288.675C172.001 294.061 172.406 299.828 172.5 306C171.883 300.388 171.449 294.577 171.318 288.675C164.041 231.294 125.31 217.112 97.6982 216.314C96.5097 216.279 96.1668 214.141 97.2872 213.743C154.347 193.466 169.877 159.868 171.862 135.64C171.799 132.522 171.861 129.456 172 126.5Z" fill="#9ABCFF"/>
<path d="M260.033 59C260.09 60.0809 260.114 61.2873 260.059 62.5841C260.68 72.2728 266.166 83.2744 288.016 79.2887C288.503 79.1873 288.997 79.091 289.5 79C288.997 79.1038 288.503 79.2 288.016 79.2887C265.358 84.0102 259.663 99.916 259.722 113.605C259.898 115.287 260.004 117.083 260.033 119C259.843 117.264 259.73 115.455 259.722 113.605C257.523 92.5936 244.454 89.345 235.5 90C255.882 83.6478 259.693 71.1458 260.059 62.5841C259.98 61.3573 259.979 60.1516 260.033 59Z" fill="#9ABCFF"/>
<path d="M157 99C158.333 124.167 143 180.1 71 202.5C100.667 200.333 160.3 215.8 161.5 295C156.5 249.5 169 189.5 252 174.5C172.4 190.9 155.5 131 157 99Z" stroke="black" stroke-width="20" stroke-linejoin="round"/>
<path d="M256.033 52C256.468 60.2177 251.47 78.4816 228 85.7959C237.67 85.0884 257.109 90.1388 257.5 116C255.87 101.143 259.945 81.551 287 76.6531C261.053 82.0082 255.544 62.449 256.033 52Z" stroke="black" stroke-width="10" stroke-linejoin="round"/>
</svg>
