<svg width="360" height="360" viewBox="0 0 360 360" fill="none" xmlns="http://www.w3.org/2000/svg">
<path d="M119.5 106.5C115.9 105.3 99.6667 143 92 162C88.5 163.833 80.9 168.5 78.5 172.5C75.5 177.5 73 209.5 73 216.5C73 223.5 80.5 264.5 84.5 271.5C88.5 278.5 106 289.5 122.5 296C135.7 301.2 150 303.5 155.5 304H249C249.5 306.167 255.9 306.3 277.5 289.5C299.1 272.7 302.833 243.833 302 231.5C302.167 218.167 300 186.7 290 167.5C280 148.3 259.5 148.5 250.5 151C243.7 130.6 235.333 111.167 232 104C222.8 104.8 208.5 135.667 202.5 151C191.7 147 155.667 149.333 139 151C134 136.667 123.1 107.7 119.5 106.5Z" fill="#FFE179"/>
<path d="M187.5 168V183" stroke="black" stroke-width="20" stroke-linecap="round" stroke-linejoin="round"/>
<path d="M125 171L131.5 186.5" stroke="black" stroke-width="20" stroke-linecap="round" stroke-linejoin="round"/>
<path d="M100.5 81.5C96.9 80.3 80.6667 118 73 137C69.5 138.833 61.9 143.5 59.5 147.5C56.5 152.5 54 184.5 54 191.5C54 198.5 61.5 239.5 65.5 246.5C69.5 253.5 87 264.5 103.5 271C116.7 276.2 131 278.5 136.5 279H230C230.5 281.167 236.9 281.3 258.5 264.5C280.1 247.7 283.833 218.833 283 206.5C283.167 193.167 281 161.7 271 142.5C261 123.3 240.5 123.5 231.5 126C224.7 105.6 216.333 86.1667 213 79C203.8 79.8 189.5 110.667 183.5 126C172.7 122 136.667 124.333 120 126C115 111.667 104.1 82.7 100.5 81.5Z" stroke="black" stroke-width="20" stroke-linejoin="round"/>
<path d="M100.5 128.5C123.667 124.5 184.3 123.7 199.5 128.5" stroke="black" stroke-width="20" stroke-linecap="round" stroke-linejoin="round"/>
<path d="M139.006 217C138.839 224.333 142.006 239 156.006 239C170.006 239 173.839 226.333 174.006 220C175.839 227.333 182.106 242.1 192.506 242.5C205.506 243 215 228 214.5 220C214.333 216.833 213.7 210 212.5 208" stroke="black" stroke-width="20" stroke-linecap="round" stroke-linejoin="round"/>
<path d="M245 230C268 234.833 315.2 246.8 320 256" stroke="black" stroke-width="20" stroke-linecap="round" stroke-linejoin="round"/>
<path d="M258 180C275.667 182.5 314.5 188.8 328.5 194" stroke="black" stroke-width="20" stroke-linecap="round" stroke-linejoin="round"/>
<path d="M46 265C58.5 256 87.9 236.4 105.5 230" stroke="black" stroke-width="20" stroke-linecap="round" stroke-linejoin="round"/>
<path d="M32 210.5C47.1667 207.167 79.8 200.2 89 199" stroke="black" stroke-width="20" stroke-linecap="round" stroke-linejoin="round"/>
</svg>
