<svg width="361" height="360" viewBox="0 0 361 360" fill="none" xmlns="http://www.w3.org/2000/svg">
<path d="M126.556 287.096C56.913 246.675 91.4193 98 126.556 98C150.207 98 179.795 112.207 173.354 189.046C165.638 281.093 140.981 291.765 126.556 287.096Z" fill="#D9D9D9"/>
<path d="M256.556 305.096C186.913 264.675 221.419 116 256.556 116C280.207 116 309.795 130.207 303.354 207.046C295.638 299.093 270.981 309.765 256.556 305.096Z" fill="#D9D9D9"/>
<path d="M109.556 274.096C39.913 233.675 74.4193 85 109.556 85C133.207 85 162.795 99.2072 156.354 176.046C148.638 268.093 123.981 278.765 109.556 274.096Z" stroke="black" stroke-width="20" stroke-linecap="round" stroke-linejoin="round"/>
<path d="M237.556 287.096C167.913 246.675 202.419 98 237.556 98C261.207 98 290.795 112.207 284.354 189.046C276.638 281.093 251.981 291.765 237.556 287.096Z" stroke="black" stroke-width="20" stroke-linecap="round" stroke-linejoin="round"/>
<path d="M109.75 172.5C99.75 150.9 82.9167 163.5 75.75 172.5C68.95 192.9 87.5833 203 97.75 205.5C105.917 203.5 119.75 194.1 109.75 172.5Z" fill="white" stroke="black" stroke-width="20" stroke-linecap="round" stroke-linejoin="round"/>
<path d="M237.708 169.926C227.708 148.326 210.874 160.926 203.708 169.926C196.908 190.326 215.541 200.426 225.708 202.926C233.874 200.926 247.708 191.526 237.708 169.926Z" fill="white" stroke="black" stroke-width="20" stroke-linecap="round" stroke-linejoin="round"/>
</svg>
