<svg width="361" height="360" viewBox="0 0 361 360" fill="none" xmlns="http://www.w3.org/2000/svg">
<path d="M202.066 312.5C100.066 305.3 85.8992 228.833 91.5658 191.5C110.766 186.3 131.899 200.333 140.066 208C136.466 163.6 145.233 127.5 150.066 115C160.066 116.6 174.233 136.333 180.066 146C200.066 130.8 217.399 95.6667 223.566 80C229.166 85.2 239.899 124.5 244.566 143.5C252.166 146.7 272.399 144.833 281.566 143.5C270.066 169.5 273.566 182.5 279.066 190C283.466 196 297.566 197.833 304.066 198C299.066 226.167 284.366 285.9 265.566 299.5C246.766 313.1 215.399 313.833 202.066 312.5Z" fill="#FFC691"/>
<path d="M191.066 255C170.266 257 163.399 289.5 162.566 305.5C216.966 321.5 253.899 305.167 265.566 295C255.566 286.6 233.066 268.167 223.066 260C221.066 257.5 211.866 253 191.066 255Z" fill="#FCBD5F"/>
<path d="M185.066 296.5C83.0658 289.3 68.8992 212.833 74.5658 175.5C93.7658 170.3 114.899 184.333 123.066 192C119.466 147.6 128.233 111.5 133.066 99C143.066 100.6 157.233 120.333 163.066 130C183.066 114.8 200.399 79.6667 206.566 64C212.166 69.2 222.899 108.5 227.566 127.5C235.166 130.7 255.399 128.833 264.566 127.5C253.066 153.5 256.566 166.5 262.066 174C266.466 180 280.566 181.833 287.066 182C282.066 210.167 267.366 269.9 248.566 283.5C229.766 297.1 198.399 297.833 185.066 296.5Z" stroke="black" stroke-width="20" stroke-linejoin="round"/>
<path d="M174.066 239C153.266 241 146.399 273.5 145.566 289.5C199.966 305.5 236.899 289.167 248.566 279C238.566 270.6 216.066 252.167 206.066 244C204.066 241.5 194.866 237 174.066 239Z" stroke="black" stroke-width="20"/>
</svg>
