<svg width="361" height="360" viewBox="0 0 361 360" fill="none" xmlns="http://www.w3.org/2000/svg">
<circle cx="205" cy="204.5" r="126.5" fill="#9ABCFF"/>
<path d="M204.759 176.317C206.259 189.151 207.559 218.817 200.759 234.817C200.425 235.984 198.659 238.517 194.259 239.317C188.759 240.317 185.259 196.317 189.759 180.317C193.359 167.517 201.259 172.317 204.759 176.317Z" fill="white" stroke="white" stroke-width="15" stroke-linecap="round" stroke-linejoin="round"/>
<path d="M190.259 136.817C187.059 146.417 195.259 149.484 199.759 149.817L204.759 136.817C201.259 132.817 193.459 127.217 190.259 136.817Z" fill="white" stroke="white" stroke-width="15" stroke-linecap="round" stroke-linejoin="round"/>
<path d="M188.559 167.801C190.059 180.634 191.359 210.301 184.559 226.301C184.226 227.467 182.459 230.001 178.059 230.801C172.559 231.801 169.059 187.801 173.559 171.801C177.159 159.001 185.059 163.801 188.559 167.801Z" fill="black" stroke="black" stroke-width="15" stroke-linecap="round" stroke-linejoin="round"/>
<path d="M174.059 128.301C170.859 137.901 179.059 140.967 183.559 141.301L188.559 128.301C185.059 124.301 177.259 118.701 174.059 128.301Z" stroke="black" stroke-width="15" stroke-linecap="round" stroke-linejoin="round"/>
<circle cx="183" cy="180.5" r="132.5" stroke="black" stroke-width="20"/>
</svg>
