<svg width="361" height="360" viewBox="0 0 361 360" fill="none" xmlns="http://www.w3.org/2000/svg">
<path d="M95.617 308.52C64.3265 279.122 65.1058 232.459 69.4068 212.803C78.2653 209.181 100.111 200.384 116.627 194.168C133.143 187.952 146.379 211.438 150.932 223.959C169.606 189.839 209.851 121.888 221.442 123.04C233.033 124.193 268.479 193.772 284.754 228.417C292.213 218.692 311.386 208.3 320.041 204.319C327.771 207.9 336.263 227.682 339.542 237.126C341.593 258.772 321.415 298.597 311.07 315.803C232.582 324.02 134.731 314.371 95.617 308.52Z" fill="#FFE279"/>
<path d="M73.617 278.52C42.3265 249.122 43.1058 202.459 47.4068 182.803C56.2653 179.181 78.1114 170.384 94.6273 164.168C111.143 157.952 124.379 181.438 128.932 193.959C147.606 159.839 187.851 91.8877 199.442 93.0404C211.033 94.1931 246.479 163.772 262.754 198.417C270.213 188.692 289.386 178.3 298.041 174.319C305.771 177.9 314.263 197.682 317.542 207.126C319.593 228.772 299.415 268.597 289.07 285.803C210.582 294.02 112.731 284.371 73.617 278.52Z" stroke="black" stroke-width="20" stroke-linecap="round" stroke-linejoin="round"/>
</svg>
