<svg width="361" height="360" viewBox="0 0 361 360" fill="none" xmlns="http://www.w3.org/2000/svg">
<circle cx="204.75" cy="204.5" r="126.5" fill="#FFD99A"/>
<circle cx="182.75" cy="180.5" r="132.5" stroke="black" stroke-width="20"/>
<path d="M117.632 122.84C128.432 114.84 133.465 121.173 134.632 125.34C138.298 121.173 147.732 114.84 156.132 122.84C164.532 130.84 145.298 150.84 134.632 159.84C124.465 150.84 106.832 130.84 117.632 122.84Z" fill="#FFABAB"/>
<path d="M214.632 127.84C225.432 119.84 230.465 126.173 231.632 130.34C235.298 126.173 244.732 119.84 253.132 127.84C261.532 135.84 242.298 155.84 231.632 164.84C221.465 155.84 203.832 135.84 214.632 127.84Z" fill="#FFABAB"/>
<path d="M117.632 120.84C128.432 112.84 133.465 119.173 134.632 123.34C138.298 119.173 147.732 112.84 156.132 120.84C164.532 128.84 145.298 148.84 134.632 157.84C124.465 148.84 106.832 128.84 117.632 120.84Z" stroke="black" stroke-width="15" stroke-linejoin="round"/>
<path d="M212.013 127.68C222.813 119.68 227.847 126.013 229.013 130.18C232.68 126.013 242.113 119.68 250.513 127.68C258.913 135.68 239.68 155.68 229.013 164.68C218.847 155.68 201.213 135.68 212.013 127.68Z" stroke="black" stroke-width="15" stroke-linejoin="round"/>
<path d="M83.25 190.5C86.25 221.5 109.35 277.2 175.75 280C242.15 282.8 275.417 230 288.25 201.5" stroke="black" stroke-width="15" stroke-linecap="round" stroke-linejoin="round"/>
</svg>
