<svg width="360" height="360" viewBox="0 0 360 360" fill="none" xmlns="http://www.w3.org/2000/svg">
<path d="M119.885 83.3776C170.685 71.3776 198.385 107.711 205.885 127.378C216.685 110.978 231.718 104.878 237.885 103.878C297.885 85.0777 331.218 122.711 340.385 143.878C359.885 225.878 293.885 265.378 267.885 285.378C241.885 305.378 148.885 322.378 137.385 311.878C128.185 303.478 94.5515 250.878 79.3849 206.378C71.3849 183.211 69.0849 95.3776 119.885 83.3776Z" fill="#FFABAB"/>
<path d="M102 59.5C152.8 47.5 180.5 83.8333 188 103.5C198.8 87.0999 213.833 81 220 80C280 61.2 313.333 98.8333 322.5 120C342 202 276 241.5 250 261.5C224 281.5 131 298.5 119.5 288C110.3 279.6 76.6667 227 61.5 182.5C53.5 159.333 51.2 71.5 102 59.5Z" stroke="black" stroke-width="20" stroke-linejoin="round"/>
</svg>
