<svg width="361" height="360" viewBox="0 0 361 360" fill="none" xmlns="http://www.w3.org/2000/svg">
<path d="M66.4639 298.5C52.0639 255.3 109.464 103 193.464 95C266.464 113.5 345.964 269.5 328.964 298.5C311.964 327.5 164.864 363.7 66.4639 298.5Z" fill="#FFE179"/>
<path d="M48.4639 269.5C34.0639 226.3 91.4639 74 175.464 66C248.464 84.5 327.964 240.5 310.964 269.5C293.964 298.5 146.864 334.7 48.4639 269.5Z" stroke="black" stroke-width="20" stroke-linecap="round" stroke-linejoin="round"/>
<path d="M180.649 222.534C179.149 209.7 177.849 180.034 184.649 164.034C184.983 162.867 186.749 160.334 191.149 159.534C196.649 158.534 200.149 202.534 195.649 218.534C192.049 231.334 184.149 226.534 180.649 222.534Z" fill="white" stroke="white" stroke-width="15" stroke-linecap="round" stroke-linejoin="round"/>
<path d="M195.149 262.034C198.349 252.434 190.149 249.367 185.649 249.034L180.649 262.034C184.149 266.034 191.949 271.634 195.149 262.034Z" fill="white" stroke="white" stroke-width="15" stroke-linecap="round" stroke-linejoin="round"/>
<path d="M164.45 214.017C162.95 201.183 161.65 171.517 168.45 155.517C168.783 154.35 170.55 151.817 174.95 151.017C180.45 150.017 183.95 194.017 179.45 210.017C175.85 222.817 167.95 218.017 164.45 214.017Z" fill="black" stroke="black" stroke-width="15" stroke-linecap="round" stroke-linejoin="round"/>
<path d="M178.95 253.517C182.15 243.917 173.95 240.85 169.45 240.517L164.45 253.517C167.95 257.517 175.75 263.117 178.95 253.517Z" stroke="black" stroke-width="15" stroke-linecap="round" stroke-linejoin="round"/>
</svg>
