<svg width="360" height="360" viewBox="0 0 360 360" fill="none" xmlns="http://www.w3.org/2000/svg">
<path d="M117.077 329C119.477 309.8 161.077 226.333 181.577 187C189.077 187 203.677 188.8 202.077 196C200.077 205 114.077 353 117.077 329Z" fill="#D4D4D4"/>
<path d="M279.077 76.2464C269.477 51.8464 242.91 54.5797 228.577 58.7464C217.077 81.7464 194.777 129.446 197.577 136.246C200.377 143.046 228.41 150.746 242.077 153.746C258.077 136.246 272.91 96.2464 279.077 76.2464Z" fill="#FFAEAE"/>
<path d="M125 159C144.2 142.6 181 138.167 197 138L243.5 152.5C257.561 156.885 258.026 195.66 256.5 214.5C202.9 204.1 146.5 173.167 125 159Z" fill="#FF9595"/>
<path d="M264.077 57.2464C254.477 32.8464 227.91 35.5797 213.577 39.7464C202.077 62.7464 179.777 110.446 182.577 117.246C185.377 124.046 213.41 131.746 227.077 134.746C243.077 117.246 257.91 77.2464 264.077 57.2464Z" stroke="black" stroke-width="20" stroke-linecap="round" stroke-linejoin="round"/>
<path d="M110.077 139.746C129.277 123.346 166.077 118.913 182.077 118.746L228.577 133.246C242.638 137.631 243.102 176.407 241.577 195.246C187.977 184.846 131.577 153.913 110.077 139.746Z" stroke="black" stroke-width="20" stroke-linecap="round" stroke-linejoin="round"/>
<path d="M95.0767 312.746C97.4767 293.546 139.077 210.08 159.577 170.746C167.077 170.746 181.677 172.546 180.077 179.746C178.077 188.746 92.0767 336.746 95.0767 312.746Z" stroke="black" stroke-width="15" stroke-linecap="round" stroke-linejoin="round"/>
</svg>
