<svg width="361" height="360" viewBox="0 0 361 360" fill="none" xmlns="http://www.w3.org/2000/svg">
<path d="M193.219 180.188V256.688L224.219 253.188C222.619 251.588 221.886 218.855 221.719 202.688C231.319 198.288 247.052 194.521 253.719 193.188C283.319 148.388 284.052 116.188 280.719 105.688C275.386 87.1882 250.919 53.8882 195.719 68.6882C140.519 83.4882 137.053 129.521 142.219 150.688H183.719C176.119 135.888 189.552 119.521 197.219 113.188C208.219 106.521 230.819 100.588 233.219 130.188C235.619 159.788 207.552 175.855 193.219 180.188Z" fill="#FFE179"/>
<path d="M214.522 312.722C212.522 291.922 202.355 289.055 197.522 290.222C194.522 290.222 187.222 293.122 182.022 304.722C176.822 316.322 186.188 323.555 191.522 325.722C200.022 330.055 216.522 333.522 214.522 312.722Z" fill="#FFE179"/>
<path d="M162.219 161.188V237.688L193.219 234.188C191.619 232.588 190.886 199.855 190.719 183.688C200.319 179.288 216.052 175.521 222.719 174.188C252.319 129.388 253.052 97.1882 249.719 86.6882C244.386 68.1882 219.919 34.8882 164.719 49.6882C109.519 64.4882 106.053 110.521 111.219 131.688H152.719C145.119 116.888 158.552 100.521 166.219 94.1882C177.219 87.5215 199.819 81.5882 202.219 111.188C204.619 140.788 176.552 156.855 162.219 161.188Z" stroke="black" stroke-width="20" stroke-linejoin="round"/>
<path d="M197.741 297.41C195.741 276.61 185.574 273.743 180.741 274.91C177.741 274.91 170.441 277.81 165.241 289.41C160.041 301.01 169.408 308.243 174.741 310.41C183.241 314.743 199.741 318.21 197.741 297.41Z" stroke="black" stroke-width="20" stroke-linejoin="round"/>
</svg>
