<svg width="361" height="360" viewBox="0 0 361 360" fill="none" xmlns="http://www.w3.org/2000/svg">
<path d="M252.5 105.582C201.7 100.382 179.667 101.249 146.5 105.582C126.5 126.582 85.9 174.382 83.5 197.582C87.8333 225.082 106.5 284.682 126.5 297.082C157.833 301.749 225.4 310.182 245 306.582C266.667 285.916 311.7 239.882 318.5 221.082C313.7 168.282 272.5 122.082 252.5 105.582Z" fill="#FF4B4B"/>
<path d="M176.7 205.017C175.2 192.183 173.9 162.517 180.7 146.517C181.033 145.35 182.8 142.817 187.2 142.017C192.7 141.017 196.2 185.017 191.7 201.017C188.1 213.817 180.2 209.017 176.7 205.017Z" fill="white" stroke="white" stroke-width="15" stroke-linecap="round" stroke-linejoin="round"/>
<path d="M191.2 244.517C194.4 234.917 186.2 231.85 181.7 231.517L176.7 244.517C180.2 248.517 188 254.117 191.2 244.517Z" fill="white" stroke="white" stroke-width="15" stroke-linecap="round" stroke-linejoin="round"/>
<path d="M232.5 83.5824C181.7 78.3824 159.667 79.249 126.5 83.5824C106.5 104.582 65.9 152.382 63.5 175.582C67.8333 203.082 86.5 262.682 106.5 275.082C137.833 279.749 205.4 288.182 225 284.582C246.667 263.916 291.7 217.882 298.5 199.082C293.7 146.282 252.5 100.082 232.5 83.5824Z" stroke="black" stroke-width="20" stroke-linecap="round" stroke-linejoin="round"/>
<path d="M160.5 196.5C159 183.667 157.7 154 164.5 138C164.833 136.833 166.6 134.3 171 133.5C176.5 132.5 180 176.5 175.5 192.5C171.9 205.3 164 200.5 160.5 196.5Z" fill="black" stroke="black" stroke-width="15" stroke-linecap="round" stroke-linejoin="round"/>
<path d="M175 236C178.2 226.4 170 223.333 165.5 223L160.5 236C164 240 171.8 245.6 175 236Z" stroke="black" stroke-width="15" stroke-linecap="round" stroke-linejoin="round"/>
</svg>
