<?xml version="1.0" encoding="UTF-8" standalone="yes"?>
<svg width="72" height="80" viewBox="-40 -40 152 160" fill="none" xmlns="http://www.w3.org/2000/svg">
  <path
    d="M9.35003 77.22C8.89003 76.63 8.44002 76.02 7.97002 75.43C7.12002 74.51 6.18003 73.7 5.27003 72.85C4.74003 72.41 4.16003 72.04 3.60003 71.63C3.06003 71.25 2.57002 70.8 2.08002 70.36C1.98002 70.28 1.88002 70.2 1.78002 70.13C1.50002 69.96 1.21002 69.81 0.920019 69.66C0.0600192 69.23 -0.17998 68.04 0.28002 67.24C0.37002 67.08 0.490022 66.94 0.610022 66.83C0.570022 66.79 0.540016 66.76 0.510016 66.71V66.7C0.120016 66.21 0.0200198 65.5 0.28002 64.93C0.52002 64.39 0.920021 63.91 1.25002 63.43C1.48002 63.09 1.73002 62.76 1.97002 62.43C2.55002 61.65 3.13002 60.87 3.73002 60.1C4.88002 58.62 6.05002 57.14 7.22002 55.67C8.47002 54.1 9.71002 52.52 10.95 50.94C11.59 50.12 12.24 49.29 12.88 48.46C13.47 47.71 14.11 46.99 14.74 46.26C15.87 44.92 17.08 43.65 18.27 42.36C19.69 40.82 21.09 39.28 22.5 37.73C25.03 34.94 27.54 32.14 30.06 29.34C30.22 29.16 30.38 28.99 30.54 28.81C30.56 28.79 30.57 28.77 30.59 28.76C30.8 28.51 31.02 28.22 31.27 27.99C31.36 27.87 31.47 27.75 31.57 27.63C31.74 27.43 31.9 27.23 32.06 27.02C30.62 26.34 29.15 25.72 27.76 24.93C26.03 23.96 24.31 22.98 22.55 22.05C21.25 21.44 19.93 20.85 18.61 20.28C17.28 19.71 15.96 19.13 14.65 18.52C13.36 17.93 12.07 17.32 10.77 16.75C10.09 16.45 9.40003 16.14 8.71003 15.85C7.93003 15.51 7.08002 15.24 6.39002 14.74C5.49002 14.1 5.47002 12.57 6.39002 11.94C6.56002 11.82 6.73002 11.69 6.92002 11.61C7.21002 11.49 7.54002 11.44 7.86002 11.42C8.18002 11.4 8.52002 11.38 8.84002 11.36C9.25002 11.34 9.66002 11.31 10.06 11.29C10.7 11.22 11.33 11.16 11.97 11.09C12.74 11.01 13.51 10.84 14.27 10.72C15.54 10.52 16.8 10.25 18.06 10.01C17.98 10.03 17.9 10.04 17.83 10.06C25.4 8.49999 33.01 6.98 40.47 4.91C44.29 3.85 48.08 2.69999 51.91 1.63999C53.74 1.12999 55.59 0.709988 57.46 0.369988C58.4 0.199988 59.37 0.129995 60.32 0.0799947C60.71 0.0599947 61.1 0.0399916 61.48 0.0299916C62.08 0.00999162 62.68 -0.0500133 63.26 0.149987C64.21 0.489987 64.66 1.31 64.95 2.24C65.21 3.06 65.3 3.94999 65.39 4.80999C65.49 5.73999 65.59 6.67999 65.68 7.60999C65.88 9.72999 66.11 11.84 66.36 13.96C66.56 15.65 66.84 17.34 67.13 19.01C67.49 21.13 67.85 23.24 68.21 25.36C68.83 29 69.28 32.68 69.93 36.32C70.11 37.31 70.28 38.29 70.44 39.28C70.6 40.3 70.73 41.32 70.85 42.34C71.06 44.26 71.09 46.19 71.19 48.11C71.19 48.16 71.2 48.22 71.2 48.27C71.24 48.71 71.28 49.15 71.33 49.59C71.36 49.82 71.38 50.06 71.42 50.29C71.51 50.82 71.36 51.27 71.13 51.73C70.79 52.41 69.84 52.78 69.13 52.54C68.72 52.41 68.36 52.26 68.02 51.99C67.83 51.85 67.65 51.7 67.47 51.56C67.18 51.33 66.89 51.11 66.59 50.88C66.03 50.45 65.44 50.05 64.86 49.65C64.34 49.34 63.82 49.02 63.31 48.7C62.81 48.4 62.29 48.14 61.77 47.86C60.53 47.28 59.28 46.74 58.03 46.16C56.83 45.62 55.68 45.04 54.6 44.28C53.49 43.49 52.6 42.46 51.71 41.45C51.76 41.51 51.81 41.56 51.86 41.62C51.5 41.23 51.15 40.84 50.77 40.48C50.57 40.31 50.36 40.14 50.14 39.99C49.8 40.53 49.47 41.08 49.11 41.61C48.83 42.04 48.54 42.46 48.26 42.88C47.96 43.33 47.61 43.74 47.28 44.17C46.09 45.71 44.79 47.15 43.46 48.56C42.16 49.95 40.84 51.32 39.48 52.65C38.04 54.06 36.58 55.45 35.16 56.88C33.88 58.17 32.67 59.54 31.34 60.79C30.93 61.17 30.52 61.56 30.11 61.94C30.06 61.99 30.01 62.03 29.97 62.08C29.86 62.2 29.74 62.31 29.6 62.41C29.55 62.46 29.49 62.51 29.43 62.56C29.41 62.58 29.4 62.59 29.38 62.6C29.38 62.6 29.37 62.61 29.36 62.62C29.15 62.8 28.94 63.02 28.72 63.2C28.63 63.29 28.53 63.37 28.43 63.44C28.04 63.78 27.64 64.12 27.24 64.45C26.36 65.26 25.5 66.09 24.68 66.96C23.81 67.89 22.94 68.82 22.04 69.71C21.14 70.6 20.24 71.49 19.33 72.37C18.5 73.18 17.65 73.95 16.86 74.79C16.57 75.15 16.29 75.51 16.01 75.89C15.67 76.4 15.35 76.92 15.02 77.43C14.54 78.18 14.07 79.14 13.15 79.42C12.95 79.48 12.74 79.51 12.55 79.51C11.18 79.51 10.1 78.2 9.35003 77.22ZM60.4 3.6C60.39 3.6 60.39 3.6 60.4 3.6C59.2 3.69 58.04 3.84999 56.86 4.05999C53.15 4.85999 49.52 5.98999 45.87 7.03999C42.3 8.07999 38.73 9.08999 35.11 9.91999C31.03 10.85 26.94 11.74 22.84 12.61C21.11 12.98 19.38 13.33 17.64 13.66C16.44 13.89 15.24 14.13 14.03 14.33C15.49 15.01 16.96 15.69 18.44 16.33C20.3 17.13 22.15 17.94 23.99 18.8C24.78 19.17 25.56 19.6 26.33 20.04C27.24 20.56 28.15 21.09 29.07 21.6C29.27 21.71 29.46 21.82 29.66 21.93C30.5 22.35 31.34 22.76 32.2 23.16C33.14 23.59 34.1 24.01 34.99 24.54C35.75 24.99 36.37 25.81 36.24 26.74C36.14 27.47 35.66 28.05 35.25 28.64C34.84 29.22 34.38 29.77 33.92 30.31C33.88 30.36 33.85 30.4 33.81 30.44C33.69 30.59 33.56 30.73 33.43 30.88C33.38 30.94 33.33 31 33.27 31.05C32.01 32.49 30.71 33.9 29.43 35.33C25.64 39.56 21.81 43.76 17.96 47.93C17.3 48.72 16.63 49.5 15.96 50.29C15.35 51 14.8 51.76 14.22 52.5C13.11 53.92 12 55.34 10.88 56.75C8.47003 59.79 5.99002 62.8 3.78002 66C3.71002 66.11 3.63002 66.22 3.55002 66.33C3.48002 66.48 3.42003 66.59 3.32003 66.72C3.28003 66.77 3.23002 66.83 3.19002 66.87C3.51002 67.05 3.83003 67.25 4.13003 67.48C4.43003 67.71 4.70002 67.97 4.97002 68.22C5.53002 68.68 6.13002 69.1 6.73002 69.52C7.41002 70 8.01003 70.59 8.63003 71.15C9.29003 71.75 9.93002 72.35 10.53 73C11.15 73.68 11.66 74.44 12.22 75.16C12.42 74.85 12.61 74.54 12.82 74.23C13.38 73.38 14.02 72.61 14.71 71.85C15.33 71.17 16.03 70.57 16.7 69.95C17.39 69.31 18.06 68.63 18.73 67.97C20.01 66.71 21.22 65.4 22.47 64.11C22.81 63.77 23.13 63.4 23.48 63.07C23.89 62.69 24.31 62.3 24.72 61.92C25.08 61.58 25.48 61.26 25.86 60.94C25.91 60.9 25.96 60.86 26.01 60.82C26.11 60.71 26.21 60.62 26.33 60.54C26.38 60.49 26.44 60.44 26.5 60.38C26.54 60.35 26.58 60.32 26.61 60.29C26.64 60.26 26.66 60.24 26.69 60.22C26.85 60.08 27 59.93 27.17 59.79C27.26 59.69 27.37 59.6 27.48 59.52C28.64 58.44 29.77 57.34 30.86 56.2C32.06 54.94 33.27 53.7 34.52 52.5C35.75 51.32 36.99 50.14 38.18 48.92C39.44 47.63 40.68 46.32 41.91 45C42.5 44.33 43.09 43.66 43.67 42.99C43.94 42.68 44.17 42.34 44.42 42.01C44.7 41.66 44.97 41.3 45.25 40.95C45.79 40.14 46.33 39.33 46.84 38.49C47.49 37.44 48.18 35.99 49.63 36.06C50.62 36.1 51.51 36.66 52.28 37.22C53.33 37.98 54.16 38.97 55.01 39.93C55 39.92 54.99 39.91 54.98 39.89C55.34 40.28 55.71 40.65 56.1 41C56.37 41.22 56.64 41.43 56.93 41.63C57.4 41.93 57.88 42.21 58.38 42.46C59.38 42.92 60.39 43.37 61.4 43.8C62.44 44.25 63.43 44.76 64.42 45.3C65.38 45.82 66.31 46.38 67.21 47C67.33 47.08 67.45 47.16 67.57 47.25C67.57 47.17 67.56 47.09 67.56 47C67.5 45.78 67.45 44.57 67.37 43.35C67.28 42.51 67.21 41.67 67.08 40.83C66.93 39.86 66.78 38.9 66.6 37.93C66.26 36.05 65.94 34.18 65.66 32.29C65.08 28.39 64.45 24.5 63.78 20.61C63.31 17.86 62.9 15.11 62.58 12.34C62.42 10.96 62.28 9.56999 62.15 8.18999C62 6.66999 61.9 5.13999 61.62 3.63999C61.61 3.59999 61.6 3.56999 61.59 3.52999C61.2 3.54999 60.8 3.56999 60.4 3.58999C60.44 3.58999 60.48 3.57999 60.52 3.57999C60.49 3.58999 60.44 3.6 60.4 3.6Z"
    fill="rgba(191, 192, 191, 1)" />
</svg>