<?xml version="1.0" encoding="UTF-8" standalone="yes"?>
<svg width="86" height="75" viewBox="-40 -40 166 155" fill="none" xmlns="http://www.w3.org/2000/svg">
  <path
    d="M0.920042 71.93C0.979979 72.85 1.13 73.93 2.01001 74.44C2.36999 74.65 2.71997 74.71 3.08996 74.72C4.05993 74.72 4.85998 73.91 4.85998 72.95C4.85998 72.51 4.69006 72.1 4.42004 71.79C4.35901 70.7579 4.38537 69.721 4.41186 68.6859V68.6829C4.42431 68.1947 4.43677 67.7069 4.43994 67.22C4.45996 65.75 4.39001 64.28 4.30005 62.8C4.21008 61.27 4.14001 59.74 4.10998 58.21L4.10766 58.034L4.10473 57.779C4.09839 57.2098 4.09192 56.6367 4.06006 56.07C4.05115 55.8844 4.04126 55.6991 4.03137 55.514V55.5081C3.98596 54.6581 3.94067 53.8124 3.98999 52.96C4.10327 51.713 4.34192 50.4749 4.57873 49.2459L4.57947 49.2402L4.61999 49.03C4.76001 48.43 4.90991 47.84 5.07995 47.24L5.31994 46.55C5.41992 46.29 5.53003 46.03 5.65002 45.78C5.78003 45.53 5.91992 45.29 6.06994 45.05C6.10632 44.9924 6.14453 44.9367 6.18408 44.8819C6.25024 44.7902 6.31994 44.7013 6.39062 44.6112L6.39429 44.6066L6.46997 44.51C6.55322 44.4204 6.6405 44.3308 6.72925 44.2438C6.77917 44.1949 6.82959 44.1468 6.88 44.1C6.91772 44.067 6.95544 44.0361 6.99328 44.0065L7.0332 43.9756C7.06213 43.9535 7.09106 43.9317 7.11999 43.91C7.22937 43.8404 7.34875 43.7708 7.46814 43.7011L7.46997 43.7C7.75 43.57 8.02991 43.46 8.31994 43.35C8.79992 43.2 9.28003 43.08 9.77002 42.97C10.61 42.81 11.4401 42.71 12.29 42.63C12.97 42.6 13.6499 42.57 14.33 42.56C14.9208 42.5512 15.5194 42.5968 16.1122 42.642L16.35 42.66C17.0408 42.7169 17.7323 42.7782 18.4241 42.8395C20.2861 43.0046 22.1508 43.1698 24.01 43.25C26.3641 43.3515 28.7269 43.3508 31.0825 43.3501L31.67 43.35C33.04 43.34 34.42 43.35 35.8 43.35C36.4021 43.35 37.0042 43.3506 37.6062 43.3512C39.4142 43.3531 41.222 43.355 43.03 43.34C44.4672 43.3327 45.8989 43.2833 47.3333 43.2338L47.3461 43.2334C47.8835 43.2149 48.4214 43.1963 48.96 43.18C50.7899 43.12 52.6 43.16 54.42 43.26C55.3567 43.3358 56.2874 43.4321 57.217 43.5283L57.2222 43.5289C58.0079 43.6102 58.7928 43.6914 59.58 43.76C60.59 43.85 61.59 43.92 62.6 43.96C63.45 43.99 64.3101 43.95 65.17 43.92C65.3696 43.912 65.5701 43.9055 65.7709 43.8991C66.566 43.8735 67.3677 43.8478 68.15 43.72C69.28 43.54 70.3999 43.2 71.36 42.57C72.24 41.99 73.0599 41.31 73.7 40.47C74.46 39.47 75.03 38.38 75.38 37.18C75.5599 36.57 75.71 35.94 75.85 35.32C76.0393 34.5112 76.1842 33.6949 76.3292 32.8776L76.4 32.48C76.73 30.69 77.0499 28.89 77.36 27.09L77.4148 26.7884L77.4152 26.7856C77.5679 25.9451 77.7219 25.0976 77.8199 24.25C77.9399 23.21 78.0199 22.17 78.09 21.12V21.15C78.1729 19.9248 78.1917 18.6965 78.2104 17.4702V17.4578C78.2257 16.4663 78.241 15.4761 78.29 14.49C78.3 14.45 78.3 14.4 78.3 14.35L78.2979 14.369C78.3215 14.0723 78.344 13.7744 78.36 13.47C78.37 13.43 78.37 13.4 78.37 13.36V13.33C78.38 13.01 78.4 12.69 78.42 12.37C78.48 11.43 78.51 10.5 78.52 9.56001C78.527 8.93599 78.4906 8.30714 78.4543 7.68016C78.4382 7.40287 78.4222 7.12599 78.41 6.85002C78.3993 6.54615 78.3988 6.24357 78.4031 5.94182C79.2163 6.98469 79.9872 8.05784 80.74 9.14003C80.8279 9.27342 80.9163 9.40657 81.0046 9.53975C81.4993 10.2851 81.9943 11.031 82.41 11.82C82.4167 11.8267 82.4235 11.8378 82.4271 11.8474C82.429 11.8522 82.4301 11.8567 82.4301 11.86C82.7401 12.52 83.3899 12.94 84.0699 12.94C84.2999 12.94 84.53 12.9 84.75 12.8C85.62 12.43 86.09 11.36 85.6899 10.48C85.3199 9.67003 84.83 8.90001 84.33 8.15001C83.8099 7.38002 83.3101 6.61 82.76 5.86C82.1901 5.09001 81.61 4.31001 81.02 3.56001C80.6 3.02003 80.1699 2.48002 79.71 1.97001C79.36 1.58003 78.9801 1.15004 78.5601 0.790021C78.3601 0.56004 78.1101 0.390027 77.8101 0.290021C77.66 0.210034 77.5 0.150037 77.33 0.100018C77.0244 0.0159118 76.7072 0.0180176 76.4103 0.0951355C74.9664 -0.308337 73.355 0.568219 72.1 1.29002C71.25 1.77003 70.4099 2.27003 69.58 2.79002C68.7599 3.30003 67.97 3.83 67.17 4.36L65.9399 5.20002C65.8762 5.24391 65.8116 5.28721 65.7469 5.33058C65.3551 5.59352 64.9589 5.85939 64.71 6.28001C64.23 7.11 64.5199 8.21003 65.35 8.70002C66.0399 9.10002 66.8999 8.97001 67.46 8.45002C67.828 8.17738 68.21 7.91868 68.5901 7.66124C68.7151 7.57664 68.8397 7.4922 68.9637 7.40739C70.8429 6.14506 72.7521 4.89378 74.77 3.85002C74.8099 3.84001 74.85 3.81999 74.89 3.8C74.89 4.53001 74.87 5.25999 74.85 5.99C74.8414 6.65083 74.8771 7.30433 74.9127 7.9568L74.9204 8.09819L74.9301 8.28001C75.01 9.90001 74.9299 11.51 74.83 13.13V13.11C74.8247 13.2049 74.8186 13.2991 74.8123 13.3929C74.8071 13.4696 74.8018 13.546 74.7964 13.6224L74.7949 13.6451C74.7825 13.8226 74.77 14 74.76 14.18V14.17C74.6631 15.5613 74.6395 16.9563 74.616 18.3505V18.3582C74.6007 19.2662 74.5854 20.1739 74.55 21.08V21.07C74.535 21.27 74.5225 21.47 74.51 21.67C74.5005 21.8237 74.4908 21.9774 74.4801 22.131L74.47 22.27C74.3573 23.9754 74.0442 25.6679 73.7334 27.3474C73.6578 27.7557 73.5824 28.1632 73.51 28.57L73.323 29.625C73.047 31.1861 72.77 32.7514 72.46 34.31C72.2999 35.02 72.13 35.72 71.92 36.42C71.8101 36.72 71.6901 37.01 71.55 37.3C71.4401 37.51 71.3199 37.71 71.2 37.91C71.0699 38.1 70.92 38.28 70.78 38.46C70.61 38.65 70.4299 38.83 70.24 39.01C70.0599 39.16 69.8799 39.3 69.6899 39.44C69.4799 39.57 69.27 39.69 69.05 39.81C68.985 39.835 68.9199 39.8626 68.8549 39.8901L68.7787 39.9222C68.7391 39.9387 68.6996 39.9548 68.66 39.97C68.46 40.03 68.26 40.08 68.0601 40.13C67.5701 40.21 67.09 40.26 66.59 40.3C65.62 40.35 64.6599 40.39 63.6899 40.41C62.7499 40.43 61.7999 40.37 60.86 40.31C60.1357 40.2424 59.4124 40.1676 58.6891 40.0928L58.6869 40.0927C56.8441 39.9022 55.0022 39.7118 53.15 39.64C51.0657 39.558 48.988 39.6308 46.9062 39.7037L46.3461 39.7232C46.0775 39.7325 45.8088 39.7416 45.54 39.75C43.9716 39.798 42.3969 39.7948 40.8259 39.7916C40.4337 39.7908 40.0416 39.79 39.65 39.79H34.29C33.6899 39.79 33.0901 39.7912 32.4905 39.7925C29.2531 39.7991 26.0215 39.8056 22.79 39.62C21.26 39.5 19.74 39.37 18.22 39.24C16.6 39.1 14.98 38.99 13.35 39.01C12.5 39.02 11.6599 39.11 10.8199 39.2C9.73987 39.31 8.60998 39.53 7.57995 39.86C6.69995 40.14 5.82995 40.47 5.07995 41.02C4.33996 41.56 3.73999 42.22 3.21997 42.97C2.56994 43.91 2.16003 44.95 1.79004 46.02C1.81006 45.95 1.83996 45.87 1.85998 45.8C1.83545 45.8737 1.81091 45.945 1.78638 46.0162L1.75085 46.1195C1.73718 46.1592 1.72351 46.1992 1.70996 46.24C1.73999 46.16 1.76001 46.09 1.79004 46.02C1.29321 47.4509 1.04321 48.9509 0.794798 50.4415L0.790037 50.47C0.550047 51.89 0.40991 53.29 0.479979 54.74C0.539915 55.71 0.569945 56.69 0.589964 57.66C0.619993 59.46 0.700072 61.25 0.810057 63.04C0.880003 64.07 0.92993 65.09 0.93994 66.11C0.94995 67.0821 0.930052 68.0443 0.910033 69.0163V69.04C0.890013 70 0.859984 70.97 0.920042 71.93Z"
    fill="rgba(191, 192, 191, 1)" />
</svg>