<?xml version="1.0" encoding="UTF-8" standalone="yes"?>
<svg width="92" height="88" viewBox="-40 -40 172 168" fill="none" xmlns="http://www.w3.org/2000/svg">
  <path
    d="M68.0023 13.6862C67.9866 13.6653 67.9723 13.647 67.9534 13.6294C67.9672 13.646 67.9808 13.6617 67.9946 13.6781C67.9972 13.6809 67.9998 13.6835 68.0023 13.6862Z"
    fill="rgba(191, 192, 191, 1)" />
  <path fill-rule="evenodd" clip-rule="evenodd"
    d="M85 40.0499C85.4199 40.5799 85.8599 41.05 86.5698 41.15C86.6121 41.1552 86.6543 41.1605 86.6951 41.1643C86.7316 41.1677 86.767 41.1699 86.8001 41.1699C87.58 41.1699 88.2899 40.6399 88.51 39.87C88.618 39.4913 88.6068 39.0649 88.5961 38.66C88.5929 38.5409 88.5899 38.4236 88.5899 38.3099C88.5899 37.995 88.5923 37.6825 88.5947 37.37C88.5973 37.0575 88.5999 36.7449 88.5999 36.4299C88.6199 34.6499 88.6899 32.87 88.8001 31.09C88.8525 30.3794 88.9277 29.6733 89.0028 28.9675C89.0852 28.1933 89.1676 27.4194 89.22 26.64C89.2811 25.7941 89.3114 24.9451 89.3417 24.0948C89.3659 23.4171 89.39 22.7385 89.4299 22.06C89.46 21.81 89.48 21.57 89.5 21.33C89.5426 20.8766 89.608 20.4232 89.6735 19.9698C89.7307 19.5732 89.7878 19.1766 89.8298 18.78C89.9299 17.86 90.0099 16.93 90.0899 16C90.2399 14.17 90.4299 12.3399 90.6799 10.52C90.82 9.51999 90.95 8.51999 91.1099 7.51999C91.1365 7.35642 91.1704 7.19144 91.2044 7.0261C91.2597 6.75669 91.3151 6.48643 91.3399 6.21995C91.3999 5.53989 91.1499 4.88993 90.6099 4.46995C90.0599 4.0499 89.3999 4.04996 88.74 4.04996C88.2699 4.04996 87.7899 4.04996 87.3198 4.03C87.0499 4.00998 86.7899 3.96995 86.52 3.91996C86.0487 3.81479 85.5835 3.69449 85.119 3.57438C84.391 3.38602 83.6648 3.19816 82.9199 3.06998C81.8369 2.88083 80.7537 2.82468 79.6642 2.76822C79.4862 2.75901 79.3081 2.74979 79.1299 2.73997C77.9376 2.6785 76.7454 2.67472 75.5531 2.67093C74.4154 2.66733 73.2777 2.66367 72.1399 2.60996C71.1808 2.52903 70.225 2.41141 69.2686 2.29374C68.5698 2.20774 67.8707 2.12174 67.1699 2.04996C66.0403 1.93241 64.9065 1.87882 63.7711 1.82511C63.1677 1.79661 62.5638 1.7681 61.96 1.72996C61.5752 1.69913 61.1904 1.66837 60.8057 1.63627C60.4404 1.60575 60.0752 1.57401 59.71 1.53995C59.0599 1.47989 58.3999 1.41996 57.76 1.29996C57.7069 1.28879 57.6531 1.27683 57.5988 1.26475C57.4584 1.23356 57.3142 1.20157 57.17 1.17997C56.9069 1.11228 56.6466 1.04319 56.387 0.974279C55.9559 0.8599 55.5269 0.746069 55.09 0.63999C54.7299 0.549963 54.38 0.469946 54.02 0.38999L53.9711 0.378942C53.3652 0.241858 52.724 0.0967769 52.13 0.349951C51.0299 0.809912 50.7 2.21995 51.4301 3.15C51.71 3.48997 52.04 3.71995 52.42 3.91996C52.39 3.90995 52.3699 3.88993 52.34 3.87998C52.3899 3.90995 52.45 3.93992 52.5 3.96995C52.7999 4.17991 53.08 4.4199 53.35 4.65995C53.7106 4.98087 54.0621 5.31614 54.4143 5.65207C55.0388 6.24778 55.6658 6.84568 56.35 7.36997C56.8253 7.73368 57.3109 8.08378 57.7961 8.43357C58.4847 8.93009 59.1727 9.42612 59.8298 9.96C61.0599 11.1 62.2098 12.31 63.3198 13.56C63.3398 13.5899 63.37 13.61 63.3899 13.64V13.65C63.75 14.0899 64.1099 14.52 64.46 14.96L64.5985 15.133C64.9211 15.5365 65.2438 15.94 65.6199 16.29C65.742 16.4653 65.8959 16.6188 66.0724 16.7417C65.7496 16.8508 65.4672 17.0511 65.26 17.31C64.9091 17.6935 64.5834 18.0981 64.2583 18.5017C64.0833 18.7192 63.9085 18.9364 63.73 19.15C63.6512 19.2385 63.5725 19.3295 63.4938 19.4205L63.4883 19.427C63.4088 19.5188 63.3293 19.6106 63.25 19.7C62.47 20.59 61.6499 21.45 60.83 22.3L60.6295 22.5121L60.6281 22.5135C59.9933 23.1853 59.349 23.8672 58.6801 24.5C58.4301 24.61 58.2 24.76 57.97 24.96C57.4199 25.45 57.27 26.37 57.5601 27.03C57.77 27.51 58.0499 27.94 58.34 28.37C58.3872 28.4418 58.4341 28.5136 58.481 28.5854C58.5895 28.7514 58.6974 28.9168 58.8082 29.0797C58.8494 29.1402 58.8909 29.2002 58.933 29.2599C58.9876 29.3374 59.0431 29.4141 59.1 29.49C59.6499 30.2199 60.21 30.93 60.84 31.6C61.4399 32.24 62.0499 32.87 62.64 33.52C62.7181 33.6111 62.797 33.7023 62.876 33.7937C63.1001 34.053 63.3256 34.3138 63.54 34.58C63.5635 34.6084 63.5866 34.6372 63.6093 34.6661C63.6633 34.7351 63.7156 34.8053 63.7678 34.8755C63.8709 35.0139 63.9736 35.152 64.09 35.28C64.4699 35.71 64.98 36.06 65.5501 36.05C65.65 36.05 65.7399 36.04 65.84 36.02C66.09 35.97 66.2899 35.8999 66.47 35.79C66.8799 35.69 67.25 35.45 67.53 35.14C67.6765 34.9822 67.8202 34.8229 67.9638 34.6639C68.04 34.5793 68.1162 34.4948 68.1928 34.4107C68.3556 34.2317 68.52 34.0541 68.6899 33.88C69.4099 33.16 70.1299 32.45 70.83 31.71C71.1958 31.3183 71.5617 30.9267 71.9262 30.535C72.2689 30.1667 72.6106 29.7983 72.95 29.43L73.0667 29.3019L73.2312 29.1204C73.6036 28.7093 73.9756 28.2987 74.3657 27.9108C74.4627 28.2611 74.6659 28.5779 74.98 28.79C75.1099 28.8799 75.2399 28.9699 75.3599 29.07C75.5299 29.2199 75.6799 29.3799 75.8298 29.54C76.0521 29.8042 76.2636 30.0793 76.4749 30.3543C76.6155 30.5373 76.7561 30.7203 76.8999 30.9C77.2247 31.312 77.5685 31.7177 77.9111 32.1221C78.001 32.2281 78.0907 32.334 78.1799 32.4399C78.778 33.143 79.4233 33.7943 80.068 34.4448C80.4044 34.7843 80.7406 35.1236 81.0698 35.4699C81.0447 35.4397 81.0195 35.412 80.9944 35.3843C80.9696 35.357 80.9448 35.3297 80.9199 35.2999C80.9976 35.3835 81.0745 35.4663 81.1499 35.5499C81.1636 35.5651 81.178 35.581 81.1915 35.5962C81.2284 35.6374 81.2647 35.6787 81.3001 35.7199C81.2871 35.7045 81.2743 35.6891 81.2614 35.6738L81.4199 35.8499C81.6306 36.0957 81.8335 36.3472 82.0364 36.5986C82.2958 36.9201 82.5549 37.2412 82.8298 37.5499C83.2899 38.0599 83.7599 38.5799 84.23 39.0999C84.3117 39.2005 84.3933 39.3 84.4746 39.3992C84.6522 39.6157 84.8285 39.8305 85 40.0499ZM76.7299 25.7641C76.8706 25.8237 77.007 25.9002 77.1399 25.99C77.9199 26.5199 78.5299 27.2399 79.0999 27.98C79.7799 28.8599 80.4899 29.7099 81.21 30.55C81.5885 30.9654 81.9862 31.3617 82.3844 31.7585C82.8091 32.1815 83.2341 32.6051 83.6372 33.0531C83.6248 33.0392 83.6123 33.0249 83.5999 33.01C83.6554 33.0705 83.7084 33.131 83.7614 33.1916C83.8134 33.251 83.8654 33.3105 83.9199 33.37L83.8999 33.3499C84.1951 33.6811 84.4747 34.0226 84.7537 34.3633C84.8622 34.4959 84.9706 34.6283 85.0798 34.76L85.1099 33.7899C85.1599 32.4099 85.23 31.04 85.3599 29.67C85.4011 29.232 85.4465 28.7941 85.492 28.3562C85.5678 27.6241 85.6436 26.892 85.7 26.1599C85.7299 25.5857 85.752 25.0127 85.7741 24.4403C85.8186 23.2882 85.863 22.1391 85.97 20.99C86.0171 20.4517 86.0913 19.9089 86.1654 19.3677C86.2014 19.1045 86.2373 18.8417 86.27 18.58C86.38 17.77 86.45 16.9499 86.52 16.13C86.6599 14.38 86.83 12.63 87.0601 10.88L87.0637 10.8516C87.1725 10.011 87.2813 9.17051 87.3999 8.32999C87.4199 8.20499 87.4375 8.07999 87.455 7.95499C87.4724 7.82999 87.49 7.70499 87.51 7.57999C87.2699 7.56998 87.03 7.55991 86.79 7.53995C85.8776 7.46555 84.9835 7.22227 84.0923 6.97971C83.6648 6.86338 83.2379 6.74723 82.8101 6.65C82.4874 6.59086 82.162 6.53458 81.8368 6.48429C81.5571 6.44108 81.2775 6.40232 81 6.36997C79.7 6.28995 78.3899 6.20994 77.0798 6.18998C76.3699 6.17997 75.6499 6.17997 74.9399 6.17997H73.1899C71.8298 6.15995 70.48 5.98997 69.1299 5.81998C67.84 5.66996 66.5499 5.50992 65.25 5.40995C63.2 5.31992 61.1399 5.21995 59.0999 5.01999C59.3499 5.21995 59.61 5.4 59.8699 5.59C60.0403 5.71134 60.2124 5.83134 60.3849 5.95151C61.0222 6.39579 61.6632 6.84263 62.23 7.36997C63.6099 8.62992 64.8899 9.98997 66.1199 11.4C66.1199 11.3933 66.1155 11.3868 66.1126 11.383C66.4758 11.7991 66.8251 12.2354 67.1749 12.6725C67.4093 12.9653 67.6438 13.2583 67.8828 13.5455C67.8818 13.5437 67.8809 13.5419 67.8799 13.54C67.8999 13.5599 67.9201 13.5799 67.9299 13.6C67.9378 13.6103 67.9456 13.62 67.9534 13.6294C67.9463 13.6229 67.9386 13.6164 67.9299 13.61C67.9472 13.6272 67.9633 13.6444 67.9789 13.6612C67.9841 13.6669 67.9894 13.6726 67.9946 13.6781C68.0031 13.6883 68.0116 13.6987 68.02 13.71L68.0101 13.6967C68.0075 13.6931 68.0049 13.6896 68.0023 13.6862C68.0241 13.709 68.0458 13.7307 68.0698 13.75C68.5499 14.1299 68.8399 14.6399 68.8399 15.29C68.8399 16.0566 68.3297 16.7276 67.6301 16.9668C68.0917 17.2879 68.4 17.8216 68.4 18.42C68.4 18.9654 68.1619 19.3553 67.8259 19.7471C67.8566 19.7129 67.8872 19.6802 67.918 19.6443C67.7061 19.8958 67.4971 20.1502 67.2882 20.4046C66.969 20.7934 66.6498 21.182 66.32 21.56C65.2499 22.77 64.14 23.96 63.02 25.13C62.51 25.66 61.9999 26.18 61.49 26.7L61.79 27.15C61.9384 27.3441 62.0836 27.5381 62.2274 27.7303L62.3608 27.9086C62.4241 27.993 62.4871 28.0768 62.5501 28.1599C62.6521 28.2945 62.7628 28.427 62.8761 28.5572C63.007 28.7077 63.1414 28.8553 63.27 29C63.4122 29.1502 63.5548 29.3 63.6974 29.4497L63.7014 29.4541C64.2694 30.0509 64.8375 30.6477 65.38 31.27L65.83 31.78L66.13 31.45C66.48 31.09 66.8399 30.73 67.1899 30.38C67.9699 29.59 68.74 28.79 69.49 27.98C70.21 27.1999 70.9299 26.42 71.66 25.64C71.95 25.34 72.2399 25.04 72.57 24.78C72.9099 24.51 73.2799 24.39 73.6899 24.33C73.7199 24.31 73.74 24.3 73.77 24.28C74.45 23.63 75.57 23.66 76.23 24.32C76.6176 24.7134 76.7842 25.2497 76.7299 25.7641Z"
    fill="rgba(191, 192, 191, 1)" />
  <path
    d="M37.4424 60.2528C37.5963 60.4157 37.7501 60.5786 37.9044 60.7408C38.1118 60.9588 38.32 61.1756 38.53 61.39C39.04 61.92 39.58 62.3 40.36 62.3C40.9 62.3 41.54 62.0299 41.91 61.62C42.16 61.3399 42.37 61.05 42.5 60.69C42.54 60.56 42.5801 60.43 42.62 60.31C42.8226 60.0943 43.0262 59.8798 43.2305 59.6659C43.5324 59.3497 43.8355 59.0349 44.1384 58.7204C44.7333 58.1027 45.3275 57.4857 45.91 56.86C46.7252 55.9865 47.5299 55.1078 48.3355 54.2276C48.6366 53.8985 48.938 53.5692 49.24 53.24C51.3101 50.99 53.45 48.82 55.72 46.78L55.9652 46.5651L55.9663 46.5642C56.7052 45.917 57.444 45.2699 58.11 44.55C58.3541 44.2846 58.5933 44.0105 58.8326 43.7361C59.27 43.2348 59.7084 42.7323 60.1801 42.28C60.4901 42.02 60.8001 41.77 61.11 41.5C61.1694 41.4496 61.23 41.3998 61.2907 41.3499C61.495 41.1818 61.7003 41.0128 61.87 40.82C62.42 40.21 63 39.41 62.88 38.53C62.797 37.9027 62.365 37.3944 61.9609 36.919L61.86 36.8L61.8054 36.7371C61.4243 36.2989 61.0514 35.8699 60.66 35.45C60.2667 35.0124 59.8643 34.5809 59.4628 34.1505L59.2017 33.8705C58.9661 33.6173 58.7314 33.3642 58.5 33.11C58.1229 32.6772 57.7513 32.2389 57.3798 31.8006L57.3691 31.7881C56.8771 31.2077 56.385 30.6274 55.88 30.06C55.4 29.5299 54.77 29.16 54.03 29.26C53.4601 29.34 52.9401 29.69 52.65 30.19C52.52 30.42 52.4501 30.65 52.41 30.88C50.8401 32.06 49.3101 33.3 47.85 34.62C47.02 35.36 46.2101 36.11 45.42 36.89C45.317 36.993 45.2142 37.0963 45.1115 37.1998L44.933 37.3797L44.9319 37.381C44.3361 37.9818 43.7384 38.5844 43.11 39.15C41.8101 40.2 40.5501 41.28 39.3001 42.38C39.1657 42.4973 39.0319 42.617 38.8975 42.7372L38.8825 42.7508C38.4723 43.118 38.0579 43.489 37.61 43.81C37.3965 43.9428 37.1796 44.0701 36.9616 44.1957C36.8597 44.2544 36.7577 44.3128 36.6556 44.3711C36.137 44.6675 35.6182 44.9639 35.13 45.31C34.3895 45.8352 33.7676 46.4717 33.1431 47.1108C33.0422 47.2139 32.9414 47.3171 32.84 47.42C32.16 48.0999 32.16 49.23 32.84 49.92C33.52 50.5999 34.66 50.5999 35.34 49.92C35.4712 49.7887 35.6024 49.6559 35.7341 49.5226C36.0641 49.1886 36.397 48.8517 36.74 48.53C36.7877 48.4956 36.834 48.4612 36.8795 48.4267C36.9169 48.3985 36.9539 48.3703 36.9907 48.3421L37.0461 48.2998C37.116 48.2466 37.1863 48.1933 37.26 48.14C37.73 47.84 38.22 47.56 38.71 47.27C38.819 47.2046 38.9309 47.1421 39.043 47.0794C39.2909 46.9411 39.5397 46.8021 39.76 46.63C40.5239 46.0385 41.2473 45.3932 41.969 44.7492L42.2925 44.4608L42.4301 44.3387C43.0884 43.7573 43.7546 43.1858 44.4301 42.64C45.17 42.04 45.91 41.44 46.58 40.76C47.87 39.44 49.2001 38.17 50.5601 36.94C51.5701 36.07 52.5801 35.2199 53.63 34.4099C53.89 34.2099 54.15 34 54.42 33.8C54.9301 34.3999 55.4399 35 55.97 35.58C56.4242 36.0791 56.8859 36.5757 57.3488 37.0736L57.3616 37.0873C57.8219 37.5824 58.2835 38.0787 58.74 38.58L58.89 38.76C58.699 38.9256 58.5039 39.0871 58.3073 39.2497L58.2974 39.258C58.1885 39.348 58.0792 39.4384 57.97 39.53C57.5824 39.856 57.2412 40.2441 56.9056 40.6258L56.77 40.78C55.9501 41.69 55.12 42.56 54.23 43.39C52.8001 44.64 51.41 45.92 50.0601 47.26C48.8043 48.4972 47.6179 49.7861 46.4281 51.0788L46.4266 51.0804L46.4233 51.0839L46.16 51.37C44.8701 52.7799 43.5801 54.19 42.27 55.57L42.0671 55.7791L41.799 56.0548C41.3331 56.5338 40.866 57.0141 40.41 57.5C40.29 57.62 40.17 57.75 40.0601 57.87C39.842 57.6327 39.6239 57.3954 39.4032 57.1607C39.2798 57.0295 39.1555 56.8991 39.03 56.77C38.6233 56.3383 38.1853 55.9339 37.7478 55.5301C37.6372 55.428 37.5266 55.3259 37.4166 55.2234C37.2662 55.0834 37.1169 54.9426 36.97 54.8C35.49 53.38 34.01 51.95 32.63 50.43C32.02 49.7 30.9401 49.53 30.17 50.13C29.41 50.7199 29.26 51.8499 29.85 52.61C29.86 52.62 29.86 52.63 29.87 52.64C29.98 52.82 30.1201 52.98 30.28 53.11C30.9148 53.8271 31.6106 54.5102 32.3004 55.1874L32.3026 55.1896L32.5591 55.4416L32.74 55.62C33.0435 55.9234 33.3499 56.2208 33.6577 56.5154C33.934 56.7798 34.2113 57.0418 34.4888 57.3039C34.7195 57.5219 34.9502 57.7398 35.1802 57.9591C35.3405 58.1119 35.5005 58.2654 35.66 58.42C36.2634 59.005 36.8408 59.6161 37.4171 60.226L37.4424 60.2528Z"
    fill="rgba(191, 192, 191, 1)" />
  <path fill-rule="evenodd" clip-rule="evenodd"
    d="M19.57 77.57C19.2415 77.1886 18.9242 76.7959 18.6063 76.4024C18.3242 76.0531 18.0415 75.7032 17.75 75.36C17.4369 75.0311 17.1161 74.7084 16.7953 74.3858L16.7935 74.3841C16.2955 73.8833 15.798 73.3827 15.33 72.86C14.47 71.91 13.62 70.95 12.78 69.99C12.51 69.69 12.24 69.38 11.95 69.09C11.8586 68.9988 11.7695 68.9054 11.6814 68.8109C11.6121 68.7364 11.5433 68.6614 11.4749 68.586L11.3755 68.4762L11.3737 68.474L11.37 68.4699C11.0601 68.11 10.97 67.59 11.01 67.13C11.1 66.2 11.95 65.49 12.87 65.49C13.1 65.49 13.3301 65.54 13.53 65.62C13.62 65.39 13.76 65.17 13.9399 64.98C14.2766 64.3597 14.6605 63.763 15.0427 63.169L15.1899 62.94C15.73 62.08 16.3099 61.26 16.95 60.46C17.57 59.68 18.28 58.98 19.02 58.32C19.8955 57.5331 20.8484 56.8816 21.812 56.2228L21.86 56.19C22.4301 55.8 23.04 55.48 23.66 55.19L23.6608 55.1889C23.6906 55.1393 23.7202 55.0897 23.76 55.05C24.2101 54.46 25.02 54.19 25.73 54.4099C26.23 54.56 26.5701 54.89 26.92 55.25C27.2101 55.54 27.5001 55.81 27.8001 56.08C28.0881 56.3084 28.3855 56.5365 28.6834 56.7552C28.674 56.7484 28.6646 56.7421 28.6552 56.736L28.6237 56.7161C29.3936 57.235 30.1155 57.7749 30.78 58.42C31.51 59.11 32.2101 59.83 32.91 60.55C32.9896 60.6309 33.0695 60.7115 33.1493 60.7918L33.3367 60.9797L33.5873 61.2301L33.5909 61.2336C33.7665 61.4088 33.9419 61.584 34.1165 61.7602C34.3158 61.9614 34.514 62.164 34.71 62.37C35.27 62.96 35.82 63.58 35.7 64.45C35.64 64.89 35.4301 65.23 35.13 65.53C35.1049 65.5552 35.0797 65.5777 35.0546 65.6004L35.0531 65.6017C35.0288 65.6236 35.0044 65.6456 34.98 65.67L34.9932 65.6601C35.0236 65.6377 35.0481 65.6194 35.0721 65.59H35.08C34.53 66.23 33.9399 66.83 33.33 67.42C32.83 67.9 32.29 68.34 31.75 68.78C31.5 68.99 31.21 69.17 30.9399 69.36C30.4299 69.73 29.9199 70.1 29.4399 70.51C28.662 71.2294 27.9541 72.0189 27.2517 72.8022L27.2495 72.8044L26.9485 73.1396L26.99 73.09L26.884 73.2112L26.8955 73.2009C26.8811 73.217 26.8667 73.2326 26.8523 73.2475C25.8816 74.3581 24.9111 75.4683 23.9404 76.57L23.7863 76.749C23.4058 77.1908 23.018 77.6412 22.52 77.94C22.2101 78.21 21.89 78.41 21.46 78.4699C21.38 78.48 21.2999 78.49 21.22 78.49C20.5499 78.47 20.01 78.08 19.57 77.57Z"
    fill="rgba(191, 192, 191, 1)" />
  <path fill-rule="evenodd" clip-rule="evenodd"
    d="M8.25001 86.84C7.9972 86.5871 7.80054 86.2781 7.60584 85.972C7.55408 85.8907 7.50245 85.8097 7.44996 85.73C7.18006 85.3399 6.93006 84.93 6.67005 84.53C5.77015 83.14 4.87 81.7399 3.93995 80.36C3.76807 80.1294 3.5962 79.8971 3.42359 79.6637C3.18458 79.3404 2.94398 79.0152 2.69996 78.69C2.52003 78.44 2.31006 78.2099 2.10999 77.9699C2.03382 77.879 1.95398 77.7887 1.87366 77.6978C1.6272 77.4188 1.37598 77.1343 1.20997 76.81C0.920049 76.24 0.870001 75.5899 1.20997 75.02C1.42005 74.66 1.71998 74.4199 2.06995 74.29C2.10999 74.1399 2.17005 73.9999 2.25001 73.86C2.86707 72.8551 3.78711 72.1067 4.69507 71.3681L4.71851 71.3491C4.83277 71.2561 4.9469 71.1632 5.06006 71.07C5.31714 70.8597 5.58619 70.6615 5.85804 70.4612C5.93519 70.4044 6.01258 70.3474 6.08997 70.29C6.72999 69.8199 7.43006 69.3799 8.26002 69.49C9.21644 69.6174 9.62525 70.3505 10.0305 71.0772C10.0702 71.1484 10.1099 71.2195 10.15 71.29C10.5101 71.4599 10.8501 71.68 11.17 71.93C11.6901 72.3399 12.17 72.81 12.6 73.31C13.0221 73.8023 13.3823 74.3411 13.7419 74.8787L13.89 75.1C14.28 75.6699 14.7001 76.23 15.15 76.76C15.4401 77.07 15.7301 77.37 16.04 77.65C16.2073 77.7878 16.3745 77.9158 16.5416 78.0437L16.5453 78.0463L16.5501 78.05C17.0501 78.1899 17.49 78.6 17.6899 79.07C18 79.81 17.76 80.62 17.1899 81.15C16.8693 81.4461 16.5349 81.7218 16.1982 81.9996C16.1255 82.0595 16.0527 82.1196 15.98 82.18C15.0601 82.9599 14.14 83.7399 13.23 84.54C12.62 85.1 12.02 85.66 11.46 86.27C11.24 86.5299 11.02 86.7699 10.77 86.95C10.7462 86.9721 10.7218 86.9937 10.6967 87.0146C10.6609 87.0445 10.6238 87.073 10.585 87.1001L10.5565 87.1195C10.5305 87.1369 10.5037 87.1537 10.4761 87.1697C10.4121 87.2069 10.3439 87.2405 10.27 87.27C10.0501 87.37 9.82007 87.41 9.58997 87.41C9.08997 87.41 8.61011 87.2 8.25001 86.84Z"
    fill="rgba(191, 192, 191, 1)" />
</svg>