<?xml version="1.0" encoding="UTF-8" standalone="yes"?>
<svg width="78" height="87" viewBox="-40 -40 158 167" fill="none" xmlns="http://www.w3.org/2000/svg">
  <path
    d="M18.89 86.55C18.86 86.53 18.82 86.51 18.79 86.49C18.19 86.49 17.59 86.45 17 86.32C15.9 86.07 14.9 85.58 13.94 84.98C12.91 84.33 11.96 83.52 11.05 82.72C11.06 82.73 11.07 82.74 11.08 82.75C11.06 82.73 11.03 82.71 11.01 82.69C10.98 82.66 10.95 82.64 10.92 82.61L10.93 82.62C10.47 82.21 9.99998 81.8 9.53998 81.39C9.59998 81.44 9.65002 81.49 9.71002 81.54C8.55002 80.53 7.37 79.53 6.31 78.42C4.5 76.53 3.20001 74.24 2.20001 71.84C1.20001 69.43 0.589978 66.89 0.289978 64.3C0.209978 63.63 0.170005 62.97 0.130005 62.3C0.100005 61.8 0.039978 61.28 0.039978 60.78C0.049978 59.82 0.0399854 58.86 0.109985 57.9C0.189985 56.88 0.260024 55.86 0.400024 54.84C0.460024 54.36 0.520017 53.87 0.580017 53.38C0.650017 52.83 0.780005 52.27 0.880005 51.73C1.05 50.79 1.30999 49.87 1.54999 48.94C1.65999 48.51 1.83998 48.08 1.97998 47.66C2.11998 47.24 2.24997 46.81 2.40997 46.39C2.74997 45.52 3.04999 44.64 3.42999 43.78C4.04999 42.39 4.64997 41.02 5.40997 39.7C6.19997 38.32 7.16001 37.08 8.14001 35.83C8.67001 35.15 9.25002 34.5 9.83002 33.86C10.53 33.1 11.23 32.35 11.97 31.62C13.36 30.24 14.86 28.98 16.5 27.91C18.54 26.58 20.73 25.48 22.91 24.41C23.97 23.89 25.03 23.4 26.12 22.96C26.3 22.89 26.48 22.82 26.66 22.75C26.57 22.55 26.47 22.34 26.37 22.14C25.99 21.34 25.62 20.53 25.25 19.73C24.61 18.35 23.95 16.98 23.29 15.62C22.63 14.24 21.93 12.89 21.28 11.5C20.62 10.08 19.99 8.64999 19.3 7.22999C18.94 6.54999 18.56 5.87 18.23 5.18C17.87 4.4 17.44 3.55001 17.3 2.69001C17.16 1.87001 17.67 1.09001 18.35 0.690007C19.22 0.180007 20.33 0.420017 21.24 0.700017C21.98 0.930017 22.7 1.25003 23.42 1.53003C23.87 1.71003 24.33 1.87999 24.78 2.04999C25.41 2.25999 26.04 2.45998 26.67 2.65998C27.25 2.84998 27.84 2.98002 28.43 3.14002C29.63 3.45002 30.83 3.70002 32.04 3.95002C33.98 4.31002 35.92 4.66998 37.85 5.03998C39.78 5.39998 41.68 5.86001 43.59 6.32001C45.45 6.77001 47.28 7.30003 49.11 7.84003C50.06 8.13003 51 8.45999 51.93 8.79999C52.86 9.12999 53.74 9.51999 54.64 9.91999C56.26 10.63 57.84 11.41 59.45 12.13C60.99 12.82 62.57 13.41 64.16 13.99C65.01 14.25 65.85 14.53 66.71 14.75C67.68 15 68.66 15.22 69.64 15.43C70.98 15.68 72.33 15.9 73.67 16.14C74.58 16.31 75.59 16.39 76.39 16.88C76.96 17.23 77.35 17.83 77.44 18.5C77.55 19.3 77.27 20.06 76.9 20.76C76.16 22.14 75.2 23.41 74.3 24.69C73.55 25.77 72.81 26.86 72.07 27.95C71.56 28.75 71.04 29.55 70.53 30.35C69.96 31.24 69.42 32.16 68.87 33.07C67.9 34.66 66.91 36.22 65.88 37.77C64.88 39.26 63.9 40.76 62.94 42.28C61.86 44 60.78 45.71 59.6 47.37C59.23 47.89 58.87 48.39 58.51 48.92C58.53 48.9 58.54 48.87 58.56 48.85C58.53 48.89 58.51 48.93 58.48 48.97C58.48 48.98 58.47 48.99 58.46 49C58.46 49 58.46 49.01 58.45 49.01C57.97 49.76 57.52 50.52 57.11 51.3C56.35 52.85 55.74 54.47 55.06 56.05C54.6 57.13 54.1 58.2 53.4 59.14C52.9 59.83 52.13 60.34 51.36 60.69C50.82 60.94 50.25 61.18 49.67 61.3C47.91 61.66 46.44 60.44 45.52 59.06C44.52 57.55 43.9 55.82 43.35 54.11C42.84 52.53 42.35 50.95 41.82 49.38C41.15 47.67 40.38 46.01 39.68 44.32C39.38 43.57 39.09 42.82 38.8 42.07C38.69 41.8 38.58 41.53 38.48 41.26C38.32 41.26 38.17 41.26 38.01 41.26C37.41 41.26 36.81 41.26 36.21 41.28C35.92 41.31 35.63 41.35 35.35 41.4C34.8 41.52 34.28 41.69 33.75 41.87C32.94 42.16 32.14 42.46 31.32 42.74C31.39 42.71 31.46 42.69 31.53 42.66C30.75 42.93 29.97 43.19 29.19 43.46C28.22 43.84 27.28 44.25 26.34 44.7C25.46 45.16 24.6 45.65 23.76 46.17C23.14 46.6 22.53 47.05 21.94 47.54C21.52 47.93 21.12 48.33 20.73 48.75C20.47 49.07 20.23 49.39 19.98 49.72C19.76 50.08 19.55 50.43 19.34 50.8C19.16 51.2 19 51.6 18.84 52.01C18.5 53.12 18.25 54.25 18 55.39C17.75 56.5 17.47 57.6 17.22 58.71C16.85 60.6 16.6 62.48 16.45 64.4C16.37 65.94 16.33 67.47 16.38 69.01C16.55 70.99 16.89 72.92 17.27 74.87C17.44 75.67 17.62 76.46 17.87 77.23C18.48 78.93 19.19 80.62 19.99 82.24C20.18 82.61 20.37 82.98 20.59 83.33C20.68 83.44 20.76 83.56 20.85 83.66C21.51 84.21 21.71 85.17 21.27 85.93C20.95 86.48 20.34 86.81 19.72 86.81C19.46 86.79 19.16 86.71 18.89 86.55ZM15.56 81.8C15.74 81.92 15.92 82.03 16.11 82.14C15.89 81.63 15.67 81.12 15.46 80.61C15.2 79.99 14.95 79.37 14.72 78.75C14.4 77.9 14.18 77.04 13.99 76.16C13.59 74.29 13.24 72.4 13.02 70.5C12.81 68.7 12.83 66.87 12.93 65.07C13.04 63.17 13.2 61.27 13.54 59.4C13.87 57.58 14.34 55.79 14.74 53.99C14.94 53.06 15.15 52.14 15.43 51.23C15.73 50.27 16.13 49.37 16.61 48.49C17.03 47.71 17.61 46.95 18.2 46.3C18.86 45.57 19.57 44.92 20.32 44.3C21.02 43.72 21.8 43.23 22.57 42.75C23.32 42.29 24.11 41.86 24.9 41.47C25.73 41.07 26.56 40.68 27.42 40.35C28.29 40.02 29.17 39.73 30.04 39.44C30.03 39.44 30.03 39.44 30.02 39.45C30.2 39.38 30.38 39.32 30.57 39.26C30.5 39.29 30.43 39.31 30.35 39.34C31.39 38.98 32.42 38.59 33.46 38.24C34.8 37.79 36.18 37.71 37.58 37.71C38.03 37.71 38.47 37.71 38.92 37.71C38.99 37.71 39.07 37.71 39.15 37.71C39.4 37.71 39.65 37.7 39.89 37.75C40.43 37.85 40.85 38.09 41.21 38.5C41.46 38.79 41.56 39.14 41.64 39.5C41.64 39.48 41.63 39.46 41.63 39.44C41.64 39.49 41.66 39.55 41.67 39.61C42.03 40.62 42.46 41.6 42.85 42.59C43.33 43.82 43.87 45.03 44.4 46.23C45.49 48.69 46.15 51.32 47.03 53.86C47.01 53.79 46.98 53.71 46.96 53.64C47.26 54.52 47.6 55.38 48 56.22C48.16 56.53 48.34 56.83 48.52 57.13C48.62 57.27 48.73 57.41 48.84 57.54C48.9 57.61 48.96 57.67 49.02 57.73C49.05 57.75 49.07 57.77 49.11 57.8C49.14 57.79 49.16 57.78 49.19 57.78C49.45 57.68 49.7 57.58 49.95 57.46C50.08 57.39 50.2 57.32 50.33 57.25C50.38 57.21 50.43 57.18 50.47 57.14C50.52 57.1 50.56 57.05 50.61 57C50.59 57.03 50.56 57.05 50.54 57.08C50.6 57.01 50.66 56.93 50.72 56.85C50.88 56.58 51.04 56.31 51.19 56.04C51.87 54.6 52.43 53.12 53.08 51.66C53.7 50.26 54.34 48.88 55.16 47.58C55.8 46.56 56.52 45.6 57.22 44.62C57.22 44.63 57.21 44.64 57.2 44.65C57.66 43.97 58.13 43.3 58.56 42.61C59.1 41.76 59.62 40.9 60.17 40.05C61.3 38.31 62.44 36.57 63.59 34.85C64.58 33.37 65.49 31.84 66.42 30.32C67.44 28.64 68.48 26.98 69.58 25.35C70.68 23.73 71.8 22.12 72.92 20.51C73.1 20.24 73.27 19.97 73.44 19.7C71.9 19.42 70.36 19.2 68.83 18.87C67.81 18.65 66.8 18.42 65.78 18.16C64.91 17.94 64.05 17.66 63.19 17.39C62.68 17.24 62.19 17.03 61.69 16.85C61.31 16.71 60.94 16.57 60.57 16.42C59.64 16.04 58.71 15.66 57.78 15.25C55.96 14.44 54.16 13.56 52.33 12.76C51.24 12.28 50.11 11.9 48.98 11.49C47.09 10.92 45.2 10.33 43.27 9.87C42.27 9.63 41.28 9.39003 40.28 9.15003C39.32 8.92003 38.35 8.73998 37.39 8.53998C34.57 7.99998 31.76 7.49003 28.96 6.90003C27.75 6.65003 26.53 6.32001 25.35 5.94001C24.66 5.72001 23.96 5.52001 23.29 5.26001C22.86 5.09001 22.43 4.92 21.99 4.75C22.22 5.18 22.44 5.60999 22.65 6.04999C23.05 6.86999 23.43 7.69002 23.8 8.52002C24.57 10.23 25.41 11.91 26.23 13.59C27.03 15.22 27.81 16.85 28.57 18.5C28.98 19.39 29.4 20.27 29.81 21.16C30.01 21.6 30.21 22.04 30.4 22.49C30.65 23.1 30.83 23.71 30.68 24.37C30.57 24.82 30.23 25.31 29.81 25.53C29.48 25.69 29.19 25.75 28.86 25.78C28.82 25.78 28.78 25.79 28.74 25.8C28.55 25.85 28.36 25.91 28.17 25.97C26.83 26.47 25.55 27.05 24.26 27.68C24.33 27.64 24.4 27.61 24.47 27.57C23.26 28.18 22.06 28.8 20.86 29.43C19.82 29.98 18.83 30.61 17.84 31.25C17.35 31.63 16.86 32 16.37 32.37C15.67 32.98 14.98 33.6 14.33 34.25C13.6 34.97 12.91 35.72 12.22 36.48C11.16 37.71 10.12 38.94 9.20001 40.28C8.63001 41.15 8.12002 42.05 7.65002 42.97C7.69002 42.9 7.72001 42.84 7.76001 42.77C6.95001 44.4 6.31002 46.09 5.65002 47.79C5.42002 48.48 5.19002 49.17 4.96002 49.86C4.74002 50.51 4.6 51.2 4.44 51.87C4.24 52.96 4.05002 54.05 3.90002 55.16C3.76002 56.29 3.67003 57.41 3.59003 58.54C3.58003 59.29 3.57001 60.05 3.57001 60.8C3.57001 61.19 3.61001 61.58 3.64001 61.96C3.66001 62.29 3.68 62.62 3.69 62.95C3.8 64.12 3.95999 65.27 4.17999 66.42C4.37999 67.34 4.62999 68.24 4.92999 69.13C5.30999 70.17 5.72997 71.18 6.21997 72.18C6.55997 72.83 6.92001 73.47 7.32001 74.08C7.68001 74.6 8.06998 75.11 8.47998 75.59C9.17998 76.35 9.93 77.05 10.69 77.73C10.67 77.71 10.65 77.7 10.64 77.68C11.55 78.48 12.45 79.27 13.35 80.06C13.34 80.05 13.32 80.03 13.31 80.02C13.29 80 13.27 79.98 13.25 79.97C14.02 80.59 14.76 81.23 15.56 81.8Z"
    fill="rgba(191, 192, 191, 1)" />
</svg>