<?xml version="1.0" encoding="UTF-8" standalone="yes"?>
<svg width="69" height="70" viewBox="-40 -40 149 150" fill="none" xmlns="http://www.w3.org/2000/svg">
  <path fill-rule="evenodd" clip-rule="evenodd"
    d="M28.39 48.8C28.2238 47.7341 27.8949 46.7351 27.3287 45.8217C27.8555 45.6657 28.2837 45.2709 28.49 44.77C28.9 44.22 29.36 43.69 29.8 43.17L31.3395 41.3786C31.3264 41.393 31.3132 41.4068 31.3 41.42L31.3817 41.3295L31.3683 41.3465C31.3807 41.3323 31.3931 41.3178 31.4055 41.3031C33.3111 39.1935 35.2368 37.1228 37.23 35.11C38.1982 34.1371 39.1967 33.1925 40.1954 32.2477C41.3421 31.1628 42.4889 30.0778 43.59 28.95C44.426 28.0945 45.2235 27.2048 46.0217 26.3144L46.0268 26.3086C46.4491 25.8376 46.8716 25.3664 47.3 24.9C48.3081 23.8016 49.3275 22.7259 50.3497 21.6472L50.3525 21.6443L50.8923 21.0744C51.0482 20.9098 51.2041 20.745 51.36 20.58C52.403 19.4743 53.4274 18.3625 54.4576 17.2445L54.5352 17.1604C54.7929 16.8806 55.051 16.6005 55.31 16.32C56.0336 15.5257 56.7919 14.7661 57.5501 14.0065C58.0807 13.4749 58.6113 12.9434 59.13 12.4C60.0431 11.4469 60.9296 10.4672 61.8161 9.48742C62.2596 8.99715 62.7031 8.50689 63.15 8.01998C63.2459 7.91564 63.3417 7.81213 63.4376 7.70895C63.5125 7.62826 63.5875 7.54781 63.6624 7.46734C63.7216 7.4038 63.7808 7.34023 63.84 7.27657V7.48C63.93 8.90002 64.02 10.32 64.11 11.73V11.81C64.1366 12.2262 64.1588 12.6424 64.181 13.0587C64.2255 13.8924 64.27 14.7262 64.35 15.56C64.4 16.19 64.46 16.82 64.58 17.44C64.6392 17.769 64.7244 18.085 64.81 18.4023C64.8544 18.5672 64.899 18.7324 64.94 18.9C65.04 19.47 65.14 20.05 65.2 20.63C65.2 20.7389 65.1973 20.8477 65.1934 20.9566C65.1896 21.0577 65.1848 21.1589 65.18 21.26L65.1796 21.2649C65.1397 21.7432 65.1006 22.2116 65.29 22.67C65.5599 23.35 66.2399 23.75 66.97 23.75C67.2 23.75 67.43 23.7 67.65 23.61C68.36 23.31 68.77 22.58 68.72 21.85L68.7203 21.8449C68.7502 21.4166 68.78 20.9883 68.78 20.56C68.78 20.18 68.69 19.81 68.64 19.44C68.58 18.98 68.52 18.52 68.42 18.07C68.369 17.8297 68.2968 17.6 68.2305 17.3693C68.2057 17.2832 68.1817 17.197 68.16 17.11C67.9899 16.21 67.91 15.31 67.84 14.4C67.76 13.01 67.67 11.61 67.57 10.22C67.43 7.92999 67.27 5.64001 67.1 3.35C67.09 3.16 67.08 2.97997 67.06 2.79998C67.056 2.76083 67.0505 2.7221 67.0436 2.68383C67.0545 2.6332 67.0633 2.58196 67.07 2.52999C67.21 1.49999 66.51 0.619987 65.54 0.349998C65.03 0.209984 64.47 0.219994 63.95 0.249992C63.63 0.269981 63.3 0.279991 62.97 0.32C62.8112 0.336998 62.6516 0.352409 62.492 0.367821L62.4852 0.368462C62.0839 0.407127 61.6818 0.445885 61.29 0.510002C60.8 0.599998 60.31 0.679985 59.82 0.760002C58.1317 1.0429 56.4602 1.40905 54.79 1.77489L54.7883 1.77526L54.31 1.88L54.2135 1.8984C52.7767 2.17214 51.3569 2.44262 49.89 2.55999C49.6675 2.57757 49.4441 2.59341 49.2201 2.60931C48.6791 2.6477 48.1346 2.68633 47.59 2.74999C47.3001 2.77999 47.02 2.81997 46.73 2.86999C46.23 2.96996 45.83 3.14001 45.44 3.48C44.83 4.01998 44.8 4.95998 45.16 5.63C45.59 6.41998 46.5 6.63998 47.32 6.71999C47.9 6.77999 48.45 6.57998 48.83 6.2L49.58 6.14001C49.6944 6.13 49.8088 6.1202 49.9232 6.1104C50.6088 6.05163 51.2944 5.99285 51.98 5.89001C53.6436 5.63265 55.2904 5.28234 56.9357 4.9323L57.32 4.85C57.33 4.85 57.3375 4.8475 57.345 4.84499L57.37 4.83999L57.6719 4.77819C59.1247 4.48135 60.5787 4.18429 62.05 3.98998C61.6551 4.42983 61.2552 4.86221 60.8553 5.29458C60.582 5.59008 60.3087 5.88558 60.0371 6.18346C59.911 6.32171 59.7852 6.46047 59.66 6.6C58.71 7.66 57.76 8.70998 56.78 9.73C56.2315 10.3042 55.6702 10.8637 55.1093 11.4228L55.1082 11.4239C54.3607 12.169 53.614 12.9132 52.9 13.69C52.3206 14.3126 51.7449 14.9372 51.1698 15.5611C50.4147 16.3802 49.6606 17.1983 48.9 18.01C48.6842 18.2373 48.4684 18.4643 48.2526 18.6912C47.1489 19.8521 46.0475 21.0105 44.96 22.19C44.557 22.6327 44.1594 23.0798 43.7618 23.5268L43.7508 23.5392C42.9487 24.4413 42.1466 25.3434 41.3 26.21C40.1099 27.4351 38.8663 28.6066 37.6226 29.778C37.445 29.9453 37.2675 30.1126 37.09 30.28C35.69 31.6 34.35 32.98 33.01 34.36C31.66 35.75 30.35 37.18 29.06 38.62C28.5281 39.2163 28.0028 39.8321 27.4787 40.4464C27.3524 40.5945 27.2262 40.7424 27.1 40.89C27.0253 40.9775 26.9513 41.0657 26.8776 41.1544C26.7664 41.2883 26.656 41.4233 26.545 41.5588C26.444 41.6822 26.3426 41.8061 26.24 41.93C26.2138 41.9622 26.1874 41.9944 26.161 42.0266L26.0736 42.1329C25.8488 42.4057 25.6226 42.6804 25.428 42.9772C24.8492 42.215 24.2368 41.479 23.52 40.84C22.7 40.11 21.71 39.57 20.63 39.32C20.01 39.18 19.38 39.07 18.74 38.97C17.97 38.8 17.22 38.61 16.45 38.41C16.1201 38.33 15.8001 38.33 15.5 38.42C15.14 38.37 14.76 38.38 14.39 38.45C12.3101 38.85 10.47 39.99 8.84999 41.31C5.40998 44.11 2.53999 47.73 1.28999 52.03C0.940013 53.24 0.680064 54.49 0.650035 55.76C0.630076 56.88 0.720042 57.97 0.950022 59.06C1.39002 61.23 2.21003 63.39 3.57002 65.16C4.75001 66.7 6.3 68.21 8.18 68.87C9.15003 69.22 10.15 69.43 11.19 69.48C11.43 69.49 11.66 69.49 11.91 69.48C12.86 69.48 13.81 69.39 14.75 69.23C17.26 68.8 19.76 68.03 21.8 66.45C22.84 65.65 23.78 64.71 24.52 63.63C25.2301 62.6 25.82 61.51 26.3 60.36C26.71 59.37 27.0501 58.36 27.39 57.34C27.8601 55.92 28.2501 54.45 28.4 52.95C28.53 51.58 28.6 50.16 28.39 48.8ZM14.81 41.98C14.6 42.03 14.4 42.09 14.2 42.16C13.91 42.27 13.6301 42.4 13.34 42.54C12.97 42.74 12.6101 42.96 12.25 43.19C11.58 43.66 10.94 44.17 10.32 44.7C9.62007 45.32 8.95002 45.99 8.32002 46.68C7.77003 47.31 7.25007 47.96 6.77003 48.65C6.37007 49.25 6.01002 49.86 5.68 50.51C5.37001 51.16 5.08998 51.82 4.84999 52.5C4.66999 53.06 4.51002 53.62 4.38002 54.2C4.29005 54.66 4.23005 55.12 4.19001 55.58C4.17005 56.03 4.17005 56.49 4.19001 56.94C4.24006 57.4 4.30006 57.85 4.39002 58.3C4.52003 58.91 4.68 59.5 4.87001 60.09C5.05 60.58 5.25007 61.06 5.46003 61.53C5.67005 61.93 5.89002 62.31 6.13001 62.69C6.36006 63.02 6.61 63.34 6.87001 63.65C7.0102 63.7999 7.1504 63.9451 7.29292 64.0867C7.44514 64.2381 7.59992 64.3854 7.76002 64.53C7.98005 64.71 8.21003 64.89 8.44001 65.05C8.53047 65.1052 8.62342 65.1605 8.71766 65.2146C8.81092 65.268 8.90547 65.3202 9.00001 65.37C9.21003 65.47 9.41004 65.56 9.63002 65.64C9.86006 65.71 10.08 65.77 10.31 65.82C10.63 65.87 10.95 65.91 11.27 65.94C11.7301 65.96 12.1801 65.95 12.63 65.93C13.39 65.86 14.14 65.76 14.88 65.62C15.56 65.48 16.22 65.3 16.88 65.09C17.34 64.92 17.78 64.74 18.22 64.53C18.58 64.34 18.9201 64.14 19.26 63.92C19.6 63.68 19.93 63.42 20.25 63.15C20.51 62.91 20.75 62.66 20.99 62.41C21.27 62.08 21.53 61.74 21.77 61.39C22.0601 60.93 22.33 60.46 22.58 59.98C23.0001 59.11 23.33 58.21 23.67 57.31C24.04 56.2 24.4 55.1 24.66 53.96C24.79 53.27 24.88 52.58 24.94 51.87C24.9801 51.21 24.9801 50.56 24.94 49.91C24.91 49.55 24.87 49.21 24.8 48.86C24.78 48.77 24.76 48.69 24.73 48.6C24.66 48.4 24.58 48.22 24.49 48.03C24.13 47.39 23.7301 46.78 23.33 46.16C22.8958 45.5285 22.4519 44.9261 21.9694 44.3338C21.6925 44.0253 21.4124 43.7251 21.11 43.44C21.02 43.37 20.9201 43.29 20.82 43.22C20.69 43.14 20.56 43.06 20.42 42.99C20.38 42.97 20.3399 42.9524 20.2999 42.9349L20.2973 42.9337C20.2582 42.9166 20.2191 42.8996 20.18 42.88C19.95 42.81 19.72 42.75 19.49 42.69C19.2871 42.6533 19.0833 42.6175 18.879 42.5815C18.3585 42.49 17.8342 42.3977 17.31 42.29C16.94 42.21 16.57 42.11 16.2 42.01C16.02 42.07 15.83 42.11 15.63 42.11C15.37 42.11 15.13 42.05 14.91 41.95C14.8939 41.9607 14.875 41.9686 14.8563 41.9735C14.8476 41.9758 14.839 41.9775 14.8308 41.9786C14.8235 41.9795 14.8165 41.98 14.81 41.98Z"
    fill="rgba(191, 192, 191, 1)" />
</svg>