<?xml version="1.0" encoding="UTF-8" standalone="yes"?>
<svg width="71" height="92" viewBox="-40 -40 151 172" fill="none" xmlns="http://www.w3.org/2000/svg">
  <path fill-rule="evenodd" clip-rule="evenodd"
    d="M16.61 23.94C16.63 23.51 16.75 23.13 17.01 22.79C17.4131 22.2689 18.0578 21.9412 18.6401 21.6452L18.67 21.63C19.74 21.08 20.85 20.61 21.97 20.18C22.3205 20.0465 22.6721 19.9141 23.0237 19.7817C23.7254 19.5174 24.4271 19.2531 25.12 18.98C25.2127 18.9436 25.3058 18.9075 25.399 18.8716C25.5057 18.8306 25.6126 18.7898 25.7198 18.7492C25.8439 18.7022 25.9682 18.6554 26.0927 18.6085L26.1044 18.6041L26.1098 18.6019L26.1175 18.599L26.1234 18.5968C26.8723 18.3148 27.6254 18.0313 28.35 17.7C29.51 17.17 30.66 16.65 31.81 16.12L32.6903 15.6639L32.7394 15.6384C33.9721 15.0005 35.2075 14.3612 36.43 13.69C38.31 12.6601 40.19 11.64 42.07 10.62C45.45 8.77998 48.88 7.03005 52.36 5.39003C55.8 3.77004 59.3 2.3 62.9 1.05C63.1231 0.969926 63.3494 0.893144 63.5772 0.815873C63.7476 0.758073 63.9188 0.699967 64.09 0.640031C64.36 0.550004 64.64 0.460038 64.91 0.380021C65.42 0.229997 66.08 0.300004 66.55 0.570023C67.45 1.10005 67.76 2.04006 67.85 3.03005C67.9077 3.7383 67.8704 4.44655 67.833 5.1548C67.825 5.30653 67.817 5.45827 67.81 5.61L67.8099 5.61202C67.7 7.57137 67.59 9.53066 67.58 11.49C67.58 12.78 67.59 14.08 67.6 15.37C67.61 15.99 67.62 16.6 67.63 17.23C67.63 17.49 67.64 17.75 67.65 18C67.6539 18.0785 67.656 18.1563 67.6563 18.2335C67.8121 18.5399 67.8772 18.8892 67.81 19.24C67.7048 19.8098 67.6534 20.3872 67.6019 20.9657L67.58 21.21C67.48 22.74 67.39 24.27 67.37 25.81C67.34 27.6 67.32 29.38 67.3 31.17C67.28 32.8699 67.24 34.56 67.21 36.26C67.18 37.84 67.23 39.41 67.32 40.99C67.4685 42.9805 67.6986 44.959 67.9289 46.9387L67.9291 46.9401C68.1175 48.5602 68.3061 50.181 68.45 51.81C68.6201 53.71 68.8401 55.6 69.16 57.47L69.1831 57.6009L69.247 57.9605L69.2473 57.9619C69.3798 58.7055 69.5117 59.4461 69.61 60.2C69.6645 60.6359 69.7012 61.0747 69.7378 61.5133L69.738 61.5155C69.7686 61.8811 69.7992 62.2465 69.84 62.61C69.89 63.02 69.9301 63.45 70 63.86C70.23 64.78 69.6801 65.75 68.76 66C68.6768 66.0222 68.5934 66.0383 68.5085 66.0482C68.4404 66.056 68.3712 66.06 68.3 66.06C68.1048 66.0575 67.9126 66.0239 67.7307 65.9629C67.3511 66.6669 66.4868 67.1185 65.69 66.85C64.952 66.6091 64.2261 66.3443 63.4981 66.0786C63.289 66.0022 63.0798 65.9259 62.87 65.85C62.476 65.7255 62.0785 65.6131 61.6806 65.5005L61.6758 65.4992C60.9244 65.2868 60.1711 65.0738 59.44 64.78C58.3868 64.3643 57.3847 63.7863 56.4024 63.2197L56.16 63.08C55.5598 62.7323 54.9438 62.4127 54.328 62.0933C53.846 61.8433 53.3642 61.5935 52.89 61.33C52.33 61.02 51.7774 60.6949 51.2248 60.3698C50.6724 60.0449 50.12 59.7199 49.56 59.41C49.35 59.31 49.13 59.21 48.92 59.12C48.8611 59.1004 48.7999 59.0831 48.7385 59.0659L48.7351 59.065C48.6726 59.0475 48.61 59.03 48.55 59.01C48.5379 59.0161 48.5257 59.0231 48.5136 59.0304L48.49 59.0451C48.47 59.0576 48.45 59.07 48.43 59.08C48.1504 59.7576 47.8881 60.4439 47.626 61.1295C47.4008 61.7188 47.1758 62.3076 46.94 62.89C46.41 64.18 45.88 65.47 45.24 66.71C44.8992 67.3591 44.5351 67.9965 44.1713 68.6333L44.1704 68.6347C43.8619 69.1747 43.5536 69.7142 43.26 70.26C42.61 71.47 41.97 72.6801 41.34 73.9C40.6936 75.2882 40.0984 76.7019 39.5032 78.1157L39.4982 78.1278L39.4867 78.155C39.3414 78.5001 39.1961 78.8453 39.05 79.19C38.67 80.07 38.24 80.9301 37.8 81.78C37.4 82.57 36.99 83.35 36.53 84.11C35.47 85.89 34.42 87.6701 33.37 89.46C32.87 90.3001 32.26 91.11 31.38 91.58C30.97 91.8001 30.49 91.92 30.03 91.92C29.55 91.94 29.09 91.79 28.64 91.63C27.75 91.31 26.91 90.86 26.14 90.31C26.0042 90.215 25.8689 90.1195 25.7339 90.0236C25.5981 89.9272 25.4626 89.8304 25.3273 89.7334C25.0784 89.5549 24.8302 89.3756 24.5818 89.1961L24.5731 89.1898L24.555 89.1768L24.5432 89.1682C24.3226 89.0089 24.1017 88.8494 23.8801 88.6903C23.7404 88.59 23.6005 88.4899 23.46 88.39C22.36 87.6701 21.24 86.98 20.1 86.29C18.96 85.61 17.87 84.89 16.86 84.02C16.195 83.4323 15.5778 82.7908 14.9623 82.151C14.7818 81.9634 14.6014 81.776 14.42 81.59C12.63 79.72 10.8 77.91 8.89002 76.18C8.43003 75.8 7.98003 75.43 7.52002 75.06C7.2459 74.8346 6.95322 74.624 6.66234 74.4148L6.65817 74.4119C6.57208 74.3499 6.48575 74.2877 6.40051 74.2257C6.34516 74.1854 6.2901 74.145 6.23548 74.1043L6.16089 74.0485L6.11002 74.01C5.88501 73.845 5.66001 73.6825 5.43501 73.52L5.43213 73.518C5.2081 73.3562 4.98406 73.1944 4.76001 73.03C3.80002 72.33 2.71002 71.49 2.32002 70.32C2.273 70.1776 2.23859 70.0332 2.21662 69.8883C1.6644 69.8023 1.22907 69.4678 0.860018 69.03C0.520022 68.64 0.350023 68.1 0.330019 67.6C0.30002 66.95 0.69002 66.37 1.23001 66.06C1.25992 65.7859 1.28485 65.5117 1.30979 65.2376L1.31001 65.235C1.33502 64.96 1.36002 64.685 1.39002 64.41C1.47916 63.6079 1.57622 62.8057 1.67415 61.9965L1.71002 61.7C1.78391 61.12 1.86598 60.5386 1.94818 59.9563C2.08849 58.9625 2.22913 57.9663 2.33002 56.97C2.34715 56.4386 2.35123 55.9072 2.3553 55.3759C2.35837 54.9772 2.36144 54.5786 2.37001 54.18L2.37233 54.0664C2.38082 53.6386 2.38983 53.1832 2.50002 52.77C2.60002 52.41 2.78002 52.09 3.05002 51.82C3.31003 51.55 3.65003 51.41 3.99002 51.27C4.86002 50.91 5.70001 50.5401 6.54001 50.13C7.42002 49.7 8.33002 49.37 9.26001 49.07C9.42555 49.0119 9.59065 48.953 9.75543 48.8938C9.87013 48.8525 9.98468 48.8111 10.0991 48.7695C10.3062 48.6942 10.513 48.6185 10.7197 48.5428L10.7293 48.5393C11.3266 48.3206 11.9232 48.1021 12.5256 47.8952C12.5235 47.8968 12.5216 47.8985 12.52 47.9C13.5 47.5601 14.45 47.16 15.39 46.72C15.9635 46.4553 16.5528 46.2304 17.143 46.0051C17.4894 45.8729 17.8361 45.7406 18.18 45.6C18.5919 45.4317 18.9999 45.2534 19.4083 45.075L19.4154 45.0721L19.4199 45.0701C19.9298 44.8475 20.4403 44.6246 20.96 44.42C21.0768 44.374 21.1937 44.3284 21.3108 44.2827L21.3121 44.2821L21.3134 44.2816L21.3157 44.2805L21.322 44.2781C21.4783 44.2169 21.6349 44.1557 21.7914 44.0936C21.5215 43.8688 21.2539 43.6413 20.99 43.41C20.48 42.96 19.98 42.51 19.49 42.04C19.4283 41.9808 19.3661 41.9216 19.3036 41.8623L19.3014 41.8601L19.3006 41.8593L19.1786 41.7432L19.1344 41.7009C19.0899 41.6583 19.0454 41.6154 19.0013 41.5724C18.9126 41.4859 18.825 41.3986 18.74 41.31C18.2 40.78 17.64 40.22 17.35 39.52C17.1332 39.009 17.1802 38.4321 17.4445 37.961C17.4511 37.8058 17.4642 37.6492 17.4776 37.4884L17.48 37.46C17.5086 36.8457 17.5117 36.2312 17.5147 35.6168C17.5159 35.3712 17.5172 35.1256 17.52 34.88C17.53 33.9 17.54 32.91 17.54 31.93L17.5401 31.9249C17.55 30.7766 17.56 29.6283 17.56 28.48C17.56 28.0602 17.5696 27.6404 17.5793 27.2113L17.58 27.18C17.584 27.0257 17.5856 26.8701 17.5872 26.7139C17.5913 26.3223 17.5953 25.9271 17.6376 25.5386C17.0301 25.2512 16.5738 24.6349 16.61 23.94ZM24.8342 46.6176C24.4978 46.8007 24.1493 46.9611 23.7955 47.1099C24.059 47.4189 24.22 47.8176 24.22 48.25C24.22 48.6746 24.2382 49.1038 24.2562 49.5283C24.2648 49.7336 24.2735 49.9379 24.28 50.14C24.2934 50.4334 24.2889 50.7267 24.2845 51.02C24.2822 51.1667 24.28 51.3134 24.28 51.46C24.28 51.5703 24.2806 51.6805 24.2813 51.7905V51.7916L24.2822 51.9661L24.2824 52.0445L24.2825 52.134C24.2824 52.3477 24.2798 52.56 24.27 52.77C24.1858 54.4818 24.0929 56.1847 23.9749 57.8953L24.23 57.77C24.7734 57.5034 25.3221 57.25 25.872 56.9989C25.8077 56.8168 25.7774 56.622 25.79 56.42C25.87 55.04 25.95 53.67 26.04 52.3C26.0563 52.0229 26.0734 51.7462 26.0906 51.4698C26.1575 50.3895 26.2241 49.3129 26.24 48.23C26.2407 48.1642 26.245 48.0991 26.2528 48.0349C25.8946 47.6699 25.535 47.3049 25.17 46.94C25.0603 46.8303 24.948 46.723 24.8342 46.6176ZM29.6507 51.163C29.6402 51.3339 29.6295 51.5046 29.6189 51.6752L29.59 52.14C29.545 52.8545 29.5026 53.569 29.4601 54.2835L29.4044 55.2174C29.9877 54.8943 30.5688 54.5655 31.15 54.23C31.2576 54.169 31.3665 54.108 31.4763 54.0466C31.6016 53.9764 31.728 53.9056 31.8548 53.8336C31.9265 53.7929 31.9983 53.7517 32.07 53.71C31.85 53.5501 31.64 53.37 31.43 53.17C31.2854 53.0318 31.1567 52.8697 31.0288 52.7088C30.9532 52.6138 30.878 52.5191 30.8 52.43L30.7689 52.3943L30.7375 52.3586L30.6993 52.3154L30.6979 52.3137C30.5991 52.2019 30.4991 52.0887 30.41 51.97C30.1627 51.6951 29.9107 51.4251 29.6507 51.163ZM20.0901 48.6468C20.2871 48.5626 20.4839 48.4772 20.6808 48.3917C20.6844 48.7313 20.7001 49.0676 20.7157 49.4029L20.7158 49.404C20.7246 49.5927 20.7334 49.7816 20.74 49.97C20.7525 50.5003 20.7455 51.0307 20.7385 51.5635C20.7343 51.8846 20.73 52.2066 20.73 52.53C20.7222 53.6535 20.6464 54.777 20.5706 55.9005L20.5399 56.358L20.5232 56.6138L20.51 56.82V56.78C20.4982 56.9576 20.4859 57.1351 20.4737 57.3128C20.424 58.0354 20.3741 58.7597 20.35 59.49C20.349 59.5156 20.3485 59.5412 20.3488 59.5667L20.2431 59.6105C20.0645 59.6846 19.8858 59.7582 19.7073 59.8317L19.7047 59.8328L19.7019 59.8339C19.0183 60.1153 18.3364 60.3961 17.6661 60.7041C17.6667 60.4737 17.6758 60.2468 17.69 60.02V60.01C17.69 59.9812 17.6923 59.95 17.6947 59.9176L17.6973 59.8814L17.7365 59.4051C17.8621 57.8833 17.9877 56.3606 18.05 54.83C18.0812 54.1602 18.0699 53.4845 18.0586 52.812C18.0554 52.621 18.0522 52.4303 18.05 52.24C18.03 51.4 17.96 50.56 17.86 49.73L17.8556 49.6957L17.8529 49.6769C17.8496 49.6541 17.8459 49.6314 17.8418 49.6089C17.8385 49.5908 17.835 49.5729 17.8313 49.5551L17.8249 49.526C17.9033 49.4936 17.9816 49.4616 18.06 49.43C18.3002 49.3339 18.5426 49.2471 18.7841 49.1607C19.0453 49.0671 19.3054 48.974 19.56 48.87C19.737 48.7968 19.9136 48.7222 20.0901 48.6468ZM14.3319 62.3491L14.3303 62.3452C14.3165 62.3532 14.303 62.3613 14.29 62.37L14.3319 62.3491ZM14.3279 62.3394C14.2784 62.2158 14.2418 62.0855 14.22 61.95C14.0516 60.9312 14.1455 59.8981 14.2391 58.8689C14.2567 58.6757 14.2742 58.4827 14.29 58.29C14.315 57.9496 14.3426 57.6067 14.3701 57.2638L14.3906 57.0083C14.4038 56.8423 14.4169 56.6764 14.4296 56.511L14.4388 56.3903L14.45 56.24C14.4591 56.0817 14.4691 55.9238 14.4792 55.7663C14.5136 55.2274 14.5477 54.6917 14.54 54.15C14.5343 53.8826 14.5303 53.6151 14.5262 53.3479L14.5262 53.3461C14.5159 52.6747 14.5058 52.0048 14.47 51.34C14.4659 51.3008 14.4622 51.2616 14.4587 51.2223C14.4538 51.1665 14.4494 51.1106 14.445 51.0548L14.4373 50.9586C14.0253 51.1108 13.6099 51.2562 13.19 51.4C13.1965 51.4 13.2019 51.399 13.2066 51.3976C13.2104 51.3964 13.2137 51.395 13.2168 51.3938C13.2217 51.3917 13.2259 51.39 13.23 51.39C12.9753 51.4799 12.7205 51.5726 12.4658 51.6666C12.5386 53.5188 12.3846 55.382 12.2319 57.2281C12.2145 57.439 12.1971 57.6496 12.18 57.86C12.1275 58.5729 12.0581 59.2858 11.9886 59.9987C11.9656 60.2358 11.9425 60.4729 11.92 60.71C11.9021 60.8987 11.8821 61.0853 11.8619 61.2717L11.8307 61.5604C11.8165 61.693 11.8028 61.826 11.79 61.96C11.781 62.0473 11.7726 62.1351 11.7643 62.2234C11.7196 62.694 11.6739 63.1751 11.519 63.6205C12.4654 63.219 13.4 62.7919 14.3279 62.3394ZM7.42481 53.6364C7.92822 53.3957 8.42745 53.1569 8.93529 52.9372C8.92084 53.6801 8.88107 54.4208 8.84113 55.1647L8.82002 55.56C8.78499 55.9804 8.75118 56.4021 8.71732 56.8245C8.65451 57.6079 8.59148 58.3939 8.52002 59.18C8.49626 59.4342 8.4742 59.6896 8.45209 59.9455C8.38112 60.7668 8.30962 61.5942 8.18001 62.41V62.44C8.10001 62.7 8.06003 62.98 8.11002 63.25C8.23158 63.8821 8.62238 64.4157 9.19727 64.6539C8.71427 64.8903 8.2361 65.1352 7.76001 65.38C6.85001 65.83 5.92003 66.26 4.99002 66.67L4.8897 66.7139L4.78043 66.7622L4.69975 66.7982C4.70621 66.7213 4.7128 66.6452 4.72002 66.57L4.8102 65.6682C4.85015 65.2588 4.89009 64.8494 4.94002 64.44C5.06821 63.2741 5.22621 62.1156 5.38445 60.9555L5.38463 60.9542C5.48555 60.2142 5.58657 59.4736 5.68001 58.73C5.8 57.8 5.88002 56.87 5.88002 55.92L5.88016 55.5802L5.88069 55.348C5.88167 55.0687 5.88408 54.7894 5.89002 54.51V54.32C6.35002 54.13 6.80002 53.93 7.25002 53.72L7.42481 53.6364ZM66.2 61.87C66.2427 62.3559 66.2926 62.849 66.3497 63.3433L65.92 63.2C65.966 63.2115 66.0086 63.2263 66.0498 63.2406C66.0804 63.2512 66.1102 63.2615 66.14 63.27C65.8239 63.1609 65.5106 63.0404 65.197 62.9198C64.6772 62.7199 64.1564 62.5197 63.62 62.37C63.3996 62.307 63.18 62.2457 62.9612 62.1846C62.4157 62.0322 61.8753 61.8813 61.34 61.71C60.778 61.5048 60.24 61.2437 59.7045 60.9838L59.7012 60.9827L59.51 60.89C59.0427 60.6426 58.5895 60.381 58.1342 60.1182C57.9271 59.9987 57.7195 59.8789 57.51 59.76C56.9305 59.4354 56.345 59.1289 55.7581 58.8216L55.757 58.8211L55.7545 58.8198L55.7457 58.8152L55.7311 58.8079L55.24 58.55C54.44 58.13 53.66 57.68 52.89 57.22C52.7837 57.156 52.6765 57.0909 52.5687 57.0253C51.632 56.4561 50.6382 55.8521 49.58 55.61C49.15 55.51 48.74 55.44 48.3 55.47C47.78 55.51 47.31 55.65 46.86 55.9C46.18 56.28 45.58 56.7301 45.27 57.46C45.0368 58.0148 44.8234 58.5775 44.6098 59.1407L44.4804 59.4815L44.4221 59.6343C44.3588 59.7998 44.2949 59.965 44.23 60.13C43.63 61.69 42.97 63.22 42.27 64.74C41.9549 65.3431 41.6191 65.9314 41.2835 66.5194C41.0014 67.0137 40.7195 67.5077 40.45 68.01C40.2559 68.374 40.0609 68.737 39.8661 69.0997C39.4185 69.9328 38.972 70.7639 38.54 71.6C37.7626 73.1131 37.096 74.6762 36.4291 76.2402L36.4278 76.2432L36.4273 76.2443L36.4268 76.2454L36.4248 76.2501C35.9779 77.298 35.5309 78.3462 35.05 79.38C35.0741 79.3439 35.0946 79.3041 35.1158 79.2628C35.1298 79.2357 35.1441 79.2078 35.16 79.18C34.4 80.66 33.6 82.11 32.75 83.54C32.555 83.87 32.355 84.1975 32.155 84.525L32.1536 84.5274C32.0602 84.6804 31.9667 84.8333 31.8738 84.9866C31.8071 85.0966 31.7407 85.2067 31.6747 85.3172C31.6363 85.3814 31.5981 85.4456 31.56 85.51C31.4912 85.6271 31.423 85.7448 31.3554 85.8627C31.3068 85.9475 31.2584 86.0324 31.2101 86.1174L31.0688 86.3669C30.7444 86.9401 30.42 87.5134 30.06 88.06L29.88 88.3C29.7692 88.2584 29.6583 88.2147 29.5484 88.1688C29.4204 88.1155 29.2938 88.0592 29.17 88C28.83 87.81 28.51 87.62 28.19 87.41C27.9662 87.2507 27.7432 87.0903 27.5203 86.9295L27.1498 86.6618C26.3217 86.0631 25.4933 85.4642 24.64 84.9C23.9461 84.4458 23.2322 84.0189 22.5183 83.5921L22.5117 83.588C21.7978 83.1611 21.084 82.7343 20.39 82.28C19.95 81.97 19.53 81.64 19.13 81.29C18.2657 80.4876 17.4485 79.6283 16.6332 78.7708L16.6322 78.7697L16.6292 78.7668L16.6285 78.7661L16.6274 78.765L16.6267 78.7642L16.6256 78.7631L16.6235 78.7609C16.2535 78.3719 15.8835 77.9829 15.51 77.6C14.61 76.67 13.69 75.74 12.74 74.87C12.5385 74.6909 12.3412 74.5075 12.1439 74.3242L12.1408 74.3214C11.8104 74.0145 11.48 73.7075 11.13 73.42C10.9622 73.2824 10.7955 73.1413 10.6283 73L10.6249 72.997C10.2953 72.7183 9.96424 72.4382 9.62001 72.18C9.29119 71.9389 8.95941 71.7006 8.62747 71.4623C7.89946 70.9397 7.1706 70.4163 6.47002 69.86C6.99002 69.63 7.51003 69.4 8.02002 69.16C8.87003 68.76 9.70001 68.33 10.53 67.9C11.1684 67.5936 11.8149 67.3198 12.4644 67.0449L12.4659 67.0441L12.4752 67.0401C12.6315 66.974 12.7879 66.9077 12.9444 66.841C13.1528 66.752 13.3614 66.6621 13.57 66.57C14.6523 66.0994 15.6991 65.5758 16.7522 65.0489L16.95 64.95C16.89 64.99 16.82 65.02 16.75 65.06C18.22 64.33 19.7 63.63 21.22 63.01C22.06 62.67 22.89 62.32 23.72 61.94C24.0738 61.7788 24.4194 61.604 24.7639 61.4297C25.0817 61.269 25.3986 61.1088 25.72 60.96C25.8983 60.8769 26.0768 60.7943 26.2555 60.7121C26.4341 60.6299 26.6128 60.548 26.7915 60.4661C28.0676 59.8812 29.3413 59.2975 30.56 58.61C30.7483 58.505 30.9364 58.3996 31.1244 58.294C31.4253 58.1251 31.726 57.9556 32.0266 57.7862C33.0048 57.2349 33.983 56.6835 34.97 56.15L35.0421 56.1156L35.1246 56.0759C35.2798 56.0011 35.4321 55.9277 35.59 55.86C35.78 55.79 35.98 55.72 36.17 55.63C36.86 55.31 37.47 54.61 37.42 53.8C37.37 53.01 36.98 52.39 36.29 51.99C36.0859 51.882 35.8818 51.7847 35.6778 51.6875L35.5508 51.6269C35.5067 51.6058 35.4627 51.5846 35.4186 51.5632L35.3394 51.5244L35.27 51.49C35.27 51.5 35.28 51.5 35.28 51.5C35.2766 51.5 35.2744 51.4989 35.2725 51.4973C35.2689 51.4943 35.2666 51.49 35.26 51.49C35.2451 51.4801 35.2251 51.4701 35.204 51.4602L35.1816 51.4497L35.1783 51.4483L35.1768 51.4475C35.1642 51.4417 35.1517 51.4359 35.14 51.43C35.1325 51.425 35.125 51.4207 35.1175 51.4166L35.1026 51.4089L35.095 51.405C35.0869 51.401 35.0788 51.397 35.0707 51.3925L35.0628 51.388C35.0585 51.3855 35.0543 51.3828 35.05 51.38C34.81 51.25 34.56 51.1101 34.33 50.96C34.23 50.89 34.13 50.82 34.04 50.74L33.95 50.65L33.7956 50.4616C33.295 49.8503 32.782 49.2238 32.22 48.68C31.7265 48.2139 31.2095 47.776 30.6916 47.3373L30.6865 47.3331C30.4505 47.1331 30.2143 46.933 29.98 46.73C29.6299 46.387 29.2875 46.035 28.945 45.6828L28.9436 45.6813C28.3378 45.0583 27.7313 44.4347 27.08 43.86C26.2438 43.1217 25.3791 42.4231 24.516 41.7258C24.3778 41.6141 24.2395 41.5024 24.1015 41.3906C23.9607 41.2766 23.8201 41.1624 23.6797 41.0479C23.6794 41.0465 23.6788 41.0445 23.6773 41.0429C23.6759 41.0413 23.6736 41.04 23.67 41.04L23.6797 41.0479L23.68 41.05C22.9343 40.3975 22.1937 39.745 21.4914 39.0519C21.7656 38.8954 22.0388 38.7355 22.3114 38.5761L22.3508 38.553L22.6 38.4073C22.7134 38.3412 22.8267 38.2753 22.94 38.21C23.6889 37.7707 24.4477 37.3314 25.2065 36.892L25.21 36.89C26.2075 36.3023 27.2289 35.7445 28.2465 35.1889L28.2477 35.1883L28.2494 35.1874C28.5468 35.025 28.844 34.8627 29.14 34.7L32.68 33.02C33.0466 32.8468 33.431 32.7089 33.8153 32.5712L33.8165 32.5708C34.0084 32.502 34.2003 32.4332 34.39 32.36C34.5952 32.2786 34.8016 32.1986 35.0088 32.1189L35.2491 32.0266L35.4051 31.9669L35.7103 31.85C35.8568 31.7937 36.0034 31.7372 36.15 31.68C37.31 31.29 38.46 30.91 39.62 30.53C39.7287 30.4943 39.8375 30.4588 39.9464 30.4234C40.1008 30.3731 40.2553 30.323 40.4099 30.2728L40.4134 30.2717C41.4312 29.9415 42.4501 29.611 43.45 29.23C43.6265 29.1647 43.8034 29.0999 43.9804 29.035C44.7262 28.7616 45.4746 28.4871 46.21 28.18C46.4517 28.0791 46.6941 27.9782 46.937 27.8771L47.0212 27.842C47.3687 27.6973 47.7173 27.5523 48.0663 27.4063C48.364 27.2817 48.662 27.1564 48.96 27.03C50.79 26.2601 52.63 25.51 54.49 24.82C54.8669 24.6776 55.248 24.5457 55.6294 24.4136L55.6319 24.4127C56.0796 24.2577 56.5277 24.1026 56.97 23.93C57.85 23.58 58.72 23.21 59.59 22.82C60.46 22.44 61.32 22.0501 62.18 21.65C62.8106 21.3601 63.4464 21.0597 64.0608 20.726C64.0332 21.0943 64.0116 21.4628 63.99 21.8304C63.9771 22.0507 63.9642 22.2706 63.95 22.49C63.8301 24.29 63.8001 26.1 63.78 27.9C63.76 29.97 63.73 32.05 63.69 34.13C63.6501 35.98 63.64 37.83 63.69 39.68C63.7401 41.57 63.9401 43.46 64.14 45.34C64.24 46.2697 64.3525 47.1944 64.4649 48.119C64.5775 49.0444 64.69 49.9697 64.79 50.9C64.8596 51.5294 64.9195 52.1599 64.9793 52.7904C65.0916 53.9733 65.2039 55.1559 65.38 56.33C65.4682 56.9129 65.5664 57.4927 65.6644 58.072C65.8776 59.3317 66.0905 60.5891 66.2 61.87ZM64.08 16.69C64.082 16.8093 64.0857 16.9293 64.0901 17.0499C63.7101 16.9949 63.3137 17.0604 62.97 17.27C62.55 17.53 62.11 17.75 61.67 17.97C60.9591 18.3144 60.2403 18.6492 59.5181 18.9776C59.5135 18.5033 59.5326 18.0366 59.56 17.57C59.58 17.22 59.5989 16.8699 59.6178 16.5199C59.6556 15.82 59.6933 15.12 59.74 14.42C59.7833 13.67 59.8333 12.92 59.8833 12.17C59.9833 10.67 60.0833 9.17 60.13 7.67C60.14 7.62001 60.14 7.56001 60.14 7.51003V7.40004C60.14 6.88338 59.9102 6.41493 59.5503 6.08992C60.8716 5.55122 62.204 5.04176 63.55 4.57002C63.51 4.58003 63.48 4.58998 63.44 4.59999C63.5537 4.56209 63.6659 4.52278 63.7777 4.48311L63.8838 4.44539C64.0317 4.39278 64.1796 4.3401 64.33 4.28999C64.3149 4.80196 64.2829 5.30824 64.2509 5.81313L64.2507 5.81606L64.2503 5.82228L64.25 5.82832L64.2332 6.09389L64.22 6.31001C64.2155 6.42238 64.2105 6.53475 64.2052 6.64711C64.1988 6.78511 64.1919 6.92311 64.1849 7.06111C64.1725 7.31075 64.16 7.56038 64.15 7.81001C64.1426 7.99104 64.1351 8.17183 64.1275 8.35249C64.0837 9.39937 64.04 10.4411 64.04 11.49C64.04 12.67 64.04 13.8501 64.06 15.03C64.06 15.58 64.07 16.14 64.08 16.69ZM56.6025 7.34486C56.6014 7.36318 56.6006 7.38161 56.6 7.40004C56.558 9.03786 56.4475 10.6756 56.3369 12.3134C56.2895 13.0156 56.242 13.7178 56.2 14.42C56.13 15.53 56.07 16.63 56.01 17.74C55.969 18.4585 55.9888 19.1771 56.0086 19.8956C56.0142 20.1011 56.0199 20.3066 56.0241 20.5121C55.1232 20.8743 54.2042 21.1956 53.286 21.5165C53.0764 21.5897 52.8669 21.663 52.6576 21.7367L52.56 20.64C52.4238 18.0372 52.4479 15.4345 52.4721 12.8274C52.4798 11.9888 52.4876 11.1497 52.49 10.31C52.59 10 52.6 9.66005 52.49 9.33003C52.4804 9.30605 52.4714 9.28236 52.4625 9.25887C53.8336 8.6014 55.2127 7.96004 56.6025 7.34486ZM48.1317 23.5326C48.4946 23.3778 48.858 23.2227 49.2222 23.0694C49.1254 22.0182 49.0331 20.973 48.98 19.92C48.9241 18.9689 48.9193 18.0114 48.9144 17.0577V17.0566C48.9132 16.8175 48.9121 16.5786 48.91 16.34C48.91 15.1201 48.91 13.9 48.92 12.68C48.92 12.42 48.9251 12.1625 48.9301 11.905C48.9351 11.6475 48.94 11.39 48.94 11.13C48.9406 11.0846 48.9408 11.0388 48.9406 10.9926C48.7564 11.0891 48.572 11.1853 48.3876 11.2814C48.1797 11.3898 47.9718 11.498 47.7639 11.6062L47.7299 11.6237L47.6941 11.6424L47.682 11.649C47.3811 11.8055 47.0802 11.962 46.7795 12.1189C46.7799 12.1326 46.78 12.1463 46.78 12.16V12.17C46.78 13.8394 46.7001 15.4989 46.6201 17.1583L46.62 17.16C46.6092 17.3682 46.5978 17.5767 46.586 17.7854C46.575 17.9816 46.5637 18.178 46.5524 18.3745L46.5511 18.3978C46.464 19.9113 46.3765 21.4318 46.4 22.94C46.41 23.9 45.58 24.71 44.63 24.71C43.66 24.72 42.87 23.92 42.86 22.95C42.8365 21.4359 42.9237 19.9218 43.0107 18.4124L43.0115 18.3996C43.0246 18.1716 43.0377 17.9437 43.0504 17.7159C43.0606 17.5338 43.0705 17.3519 43.08 17.17C43.1364 16.1229 43.185 15.0757 43.2134 14.0286C42.3026 14.5235 41.3903 15.0203 40.4786 15.518C40.4771 15.5585 40.4742 15.5992 40.47 15.64C40.413 16.1647 40.317 16.6861 40.2208 17.2079C40.1484 17.6012 40.0759 17.9946 40.02 18.39C39.87 19.5 39.73 20.6001 39.62 21.71C39.58 22.2401 39.55 22.76 39.54 23.29C39.53 23.81 39.56 24.33 39.6 24.84C39.6059 24.9382 39.6114 25.0365 39.6169 25.1346L39.6171 25.1372C39.6395 25.5378 39.6619 25.9371 39.71 26.33C39.7599 26.4683 39.7898 26.6103 39.8015 26.7526L40.0261 26.6773C40.1407 26.6388 40.2551 26.6002 40.3693 26.5615L40.55 26.5C40.7595 26.4342 40.969 26.3648 41.1763 26.296L41.3506 26.2383C41.4309 26.2118 41.5107 26.1856 41.59 26.16C41.8168 26.0731 42.0436 25.9869 42.2702 25.9009L42.7754 25.7095L42.7817 25.7072C43.3232 25.5022 43.8633 25.2978 44.4 25.09C44.9541 24.8775 45.504 24.6441 46.0524 24.4114L46.308 24.303L46.493 24.2248L46.5858 24.1858C46.7106 24.1334 46.8353 24.0814 46.96 24.03C47.346 23.8678 47.7319 23.7031 48.1183 23.5383L48.1231 23.5363L48.1242 23.5357L48.1317 23.5326ZM48.9406 10.9849V10.9872C48.9104 11.0023 48.8802 11.0171 48.85 11.03L48.9406 10.9849ZM36.39 27.6C36.4023 27.6275 36.4153 27.6546 36.4288 27.6813C36.454 27.7309 36.4812 27.7789 36.5102 27.8253C35.9549 28.0011 35.4018 28.1828 34.86 28.39L34.6219 28.4808C34.6532 27.5094 34.7028 26.5416 34.7524 25.573C34.783 24.976 34.8136 24.3787 34.84 23.78C34.8554 23.3864 34.8733 22.9953 34.8912 22.6055L34.8913 22.6021L34.8917 22.5949L34.892 22.588C34.9033 22.3404 34.9147 22.0933 34.9253 21.8464C34.9304 21.7276 34.9353 21.6088 34.94 21.49L35 20.01C35.0026 19.9364 35.006 19.8631 35.0093 19.7901C35.029 19.3548 35.0483 18.9301 34.9175 18.5065C35.4596 18.228 35.9993 17.945 36.5373 17.659C36.5242 17.7424 36.5117 17.8261 36.5 17.91C36.34 19.04 36.2 20.16 36.09 21.3C35.99 22.3 35.95 23.31 36.01 24.31L36.0148 24.3928C36.0432 24.8862 36.0721 25.3876 36.11 25.88C36.1199 25.9926 36.1274 26.1066 36.135 26.2215C36.1658 26.6882 36.1974 27.1666 36.39 27.6ZM31.444 20.1999C30.4439 20.6572 29.4335 21.09 28.41 21.49C28.1917 21.576 27.9739 21.662 27.7563 21.7479L27.6792 21.7783C27.6644 24.6182 27.4619 27.4491 27.25 30.28L27.2348 30.5054C27.2067 30.9219 27.1785 31.3384 27.1623 31.7548C27.7231 31.4493 28.2995 31.1799 28.8754 30.9108L28.8782 30.9097L28.8941 30.9022L28.9071 30.8962C29.0749 30.8178 29.2427 30.7394 29.41 30.66C29.4508 30.6409 29.4915 30.6218 29.5321 30.6026L29.6426 30.5502L29.739 30.5042C29.839 30.4563 29.9388 30.4082 30.0385 30.3601L30.0613 30.3491L30.0636 30.348L30.0696 30.3452L30.0707 30.3447C30.5428 30.1171 31.0138 29.89 31.498 29.6896C31.2235 29.3792 31.0565 28.9768 31.07 28.54C31.11 27.2916 31.1757 26.0433 31.2413 24.7949C31.2577 24.4833 31.274 24.1716 31.29 23.86C31.3202 23.235 31.3448 22.6082 31.3694 21.9802L31.3695 21.9784C31.3927 21.3866 31.416 20.7929 31.444 20.1999ZM23.7674 33.6243C23.1015 33.9954 22.4476 34.3783 21.7937 34.7613L21.5583 34.8991C21.3924 34.9963 21.2263 35.0933 21.06 35.19C21.07 34.25 21.08 33.3 21.08 32.36C21.0826 31.8021 21.0818 31.2436 21.081 30.685C21.0787 29.1204 21.0763 27.5548 21.15 26C21.22 25.81 21.26 25.6101 21.26 25.4C21.26 25.047 21.1647 24.7228 20.993 24.444C22.0219 23.9768 23.0701 23.5643 24.1214 23.1599C24.1 24.166 24.0611 25.171 24.01 26.18L23.77 29.51C23.7579 29.6836 23.7452 29.8576 23.7324 30.0319L23.732 30.0376C23.6602 31.0165 23.5876 32.0054 23.63 32.98C23.6394 33.2059 23.6871 33.4236 23.7674 33.6243Z"
    fill="rgba(191, 192, 191, 1)" />
  <path
    d="M12.5256 47.8952C12.5318 47.8906 12.5399 47.8863 12.5488 47.8835C12.5555 47.8814 12.5628 47.88 12.57 47.88L12.5256 47.8952Z"
    fill="rgba(191, 192, 191, 1)" />
</svg>