<?xml version="1.0" encoding="UTF-8" standalone="yes"?>
<svg width="78" height="75" viewBox="-40 -40 158 155" fill="none" xmlns="http://www.w3.org/2000/svg">
  <path
    d="M11.43 73.97C10.05 73.84 8.66 73.58 7.34 73.14C6.28 72.78 5.30001 72.29 4.38001 71.66C3.39001 70.98 2.61001 70.05 1.95001 69.05C1.31001 68.07 0.899995 66.91 0.649995 65.77C0.349995 64.46 0.309995 63.1 0.399995 61.76C0.529995 59.95 0.900005 58.18 1.41001 56.44C1.90001 54.77 2.51999 53.09 3.29999 51.53C3.28999 51.54 3.29 51.55 3.28 51.56C3.28 51.54 3.28999 51.53 3.29999 51.52C3.32999 51.45 3.36 51.39 3.4 51.33C3.41 51.32 3.41001 51.31 3.42001 51.3C3.45001 51.23 3.48001 51.17 3.51001 51.1C3.49001 51.14 3.47001 51.17 3.45001 51.21C3.56001 50.99 3.66001 50.76 3.79001 50.54C3.86001 50.4 3.93 50.26 4 50.12C4.12 49.87 4.24002 49.59 4.39002 49.35C4.42002 49.29 4.45001 49.23 4.48001 49.16C4.48001 49.17 4.47 49.18 4.47 49.19C4.49 49.14 4.52001 49.1 4.54001 49.06C4.56001 49.01 4.58999 48.97 4.60999 48.92C5.05999 48.05 5.58001 47.21 6.07001 46.37C6.54001 45.55 7.09001 44.78 7.60001 43.99C8.58001 42.48 9.64001 41.02 10.7 39.56C11.83 38 12.99 36.45 14.18 34.94C16.58 31.9 18.98 28.87 21.44 25.87C22.72 24.32 24.01 22.78 25.32 21.24C25.33 21.23 25.34 21.22 25.35 21.21C25.35 21.21 25.35 21.2 25.36 21.2C25.44 21.11 25.53 21.01 25.61 20.91C25.6 20.92 25.59 20.93 25.59 20.93C25.67 20.84 25.75 20.75 25.82 20.67C25.84 20.64 25.87 20.61 25.89 20.58C26.52 19.87 27.14 19.15 27.78 18.44C27.73 18.49 27.68 18.55 27.63 18.61C27.68 18.55 27.74 18.48 27.8 18.42C27.79 18.43 27.78 18.44 27.77 18.46C27.81 18.41 27.85 18.37 27.89 18.33C27.9 18.32 27.91 18.31 27.92 18.29C30.44 15.44 33.15 12.76 35.84 10.06C37.24 8.65 38.67 7.27002 40.09 5.89002C41.43 4.58002 42.76 3.28 44.13 2C44.66 1.5 45.2 1.03998 45.89 0.789981C46.49 0.569981 47.14 0.620023 47.66 1.02002C48.15 1.40002 48.43 2.03998 48.34 2.65998C48.29 2.97998 48.23 3.24998 48.07 3.53998C47.96 3.74998 47.83 3.95003 47.71 4.15003C47.54 4.43003 47.38 4.72 47.22 5C47.18 5.09 47.14 5.18998 47.1 5.28998C46.81 6.04998 46.06 6.56001 45.21 6.44001C45.04 6.42001 44.88 6.36999 44.73 6.29999C44.12 6.88999 43.52 7.49002 42.92 8.08002C41.41 9.56002 39.9 11.04 38.4 12.53C37.06 13.84 35.76 15.19 34.45 16.53C33.13 17.89 31.84 19.28 30.56 20.67C30.45 20.78 30.35 20.9 30.25 21.02C30.27 21 30.29 20.97 30.3 20.95C29.74 21.59 29.18 22.22 28.62 22.86C28.58 22.91 28.54 22.96 28.49 23L28.48 23.01C28.48 23.01 28.47 23.01 28.47 23.02C28.4 23.09 28.34 23.17 28.27 23.24C28.28 23.23 28.29 23.22 28.31 23.2C28.28 23.23 28.25 23.27 28.22 23.3C28.2 23.32 28.18 23.35 28.16 23.37C28.17 23.35 28.18 23.34 28.2 23.33C28.19 23.35 28.18 23.36 28.16 23.37C28.12 23.41 28.09 23.45 28.06 23.48C28.04 23.5 28.02 23.52 28.01 23.54C28.03 23.52 28.04 23.5 28.06 23.49L28.05 23.5C26.8 24.93 25.59 26.41 24.39 27.88C23.25 29.26 22.12 30.65 21.01 32.05C18.51 35.19 16.01 38.32 13.65 41.56C12.79 42.75 11.94 43.95 11.1 45.15C10.53 46.03 9.96001 46.91 9.38001 47.79C9.08001 48.25 8.83 48.74 8.56 49.22C8.34 49.61 8.09001 49.99 7.88001 50.39C7.88001 50.4 7.87 50.41 7.87 50.41C7.84 50.48 7.80999 50.54 7.76999 50.6C7.75999 50.61 7.75 50.63 7.75 50.64C7.71 50.71 7.68002 50.78 7.64002 50.86C7.68002 50.79 7.70999 50.72 7.73999 50.66C7.62999 50.89 7.52002 51.13 7.39002 51.36C7.32002 51.51 7.24002 51.65 7.17001 51.8C7.05001 52.05 6.93 52.33 6.78 52.58C6.74 52.66 6.70001 52.73 6.66001 52.81V52.82C6.63 52.88 6.60001 52.94 6.57001 53C6.10001 54.03 5.68001 55.06 5.29001 56.12C4.91001 57.23 4.57999 58.36 4.32999 59.5C4.14999 60.4 4.02999 61.3 3.95999 62.21C3.96999 62.13 3.97001 62.05 3.98001 61.97C3.95001 62.51 3.94 63.06 3.97 63.6C4.01 64.04 4.06002 64.46 4.14002 64.89C4.22002 65.23 4.31001 65.57 4.42001 65.9C4.53001 66.19 4.65 66.47 4.78 66.74C4.89 66.95 5.01002 67.15 5.14002 67.35C5.28002 67.55 5.43 67.74 5.59 67.93C5.75 68.1 5.91001 68.25 6.07001 68.41C6.27001 68.57 6.46999 68.73 6.67999 68.87C6.88999 69.01 7.10999 69.13 7.32999 69.25C7.68999 69.42 8.04002 69.57 8.42002 69.71C8.95002 69.88 9.49 70.02 10.03 70.14C10.95 70.31 11.87 70.43 12.81 70.5C13.6 70.54 14.38 70.55 15.17 70.52C15.95 70.46 16.72 70.36 17.49 70.21C18.49 70 19.46 69.71 20.42 69.38C20.35 69.4 20.27 69.43 20.2 69.45C21.29 69.06 22.35 68.6 23.39 68.1C24.79 67.39 26.15 66.6 27.47 65.75C28.35 65.13 29.22 64.51 30.1 63.89C30.58 63.56 31.01 63.14 31.46 62.78C31.89 62.42 32.33 62.07 32.76 61.71C33.65 60.9 34.56 60.11 35.42 59.27C35.9 58.8 36.38 58.33 36.85 57.86C37.29 57.43 37.75 57.01 38.17 56.56C39.06 55.61 39.98 54.7 40.85 53.73C41.72 52.76 42.58 51.79 43.44 50.83C44.63 49.41 45.83 48 46.99 46.56C48.3 44.92 49.6 43.27 50.89 41.61C53.29 38.54 55.56 35.37 57.85 32.22C59.85 29.48 61.81 26.71 63.8 23.95C65.8 21.18 67.78 18.4 69.7 15.57C69.66 15.63 69.61 15.69 69.57 15.76C70.37 14.56 71.14 13.37 71.88 12.15C71.8 11.94 71.71 11.73 71.61 11.53C71.56 11.43 71.5 11.33 71.44 11.24C71.39 11.17 71.34 11.11 71.29 11.04C71.26 11.02 71.24 10.99 71.21 10.97C71.19 10.95 71.17 10.94 71.15 10.93C71.13 10.92 71.12 10.91 71.1 10.9C71.1 10.9 71.09 10.9 71.08 10.89C71.08 10.89 71.08 10.89 71.07 10.89C71.06 10.89 71.05 10.89 71.04 10.89C71 10.89 70.96 10.89 70.92 10.89C70.87 10.89 70.82 10.9 70.78 10.91C70.43 10.99 70.09 11.09 69.74 11.21C68.01 11.87 66.36 12.75 64.69 13.57C63.13 14.34 61.57 15.12 59.96 15.78C58.26 16.48 56.56 17.16 54.85 17.82C54.13 18.1 53.39 18.35 52.67 18.62C52.22 18.78 51.76 18.94 51.31 19.1C50.6 19.35 49.9 19.67 49.13 19.64C48.34 19.61 47.64 19.12 47.42 18.34C47.22 17.59 47.54 16.72 48.23 16.34C49.09 15.87 50.01 15.51 50.91 15.12C51.88 14.69 52.86 14.27 53.83 13.84C55.61 13.06 57.39 12.28 59.17 11.49C60.92 10.72 62.65 9.93002 64.39 9.14002C65.25 8.75002 66.13 8.38 67 8C68.78 7.23 70.61 6.53997 72.54 6.21997C73.57 6.04997 74.68 6.06 75.65 6.5C76.54 6.91 77.22 7.81001 77.22 8.82001C77.22 9.68001 76.84 10.45 76.48 11.21C76.25 11.69 75.99 12.17 75.73 12.64C75.96 13.62 76.14 14.63 76.25 15.64C76.35 16.62 76.48 17.61 76.53 18.6C76.64 20.51 76.73 22.42 76.73 24.33C76.73 28.26 76.71 32.19 76.57 36.12C76.52 37.31 76.47 38.51 76.39 39.7C76.3 41.06 76.16 42.43 76.16 43.79C76.16 44.75 75.36 45.56 74.39 45.56C73.43 45.56 72.62 44.76 72.62 43.79C72.62 42.81 72.72 41.82 72.78 40.84C72.84 39.86 72.9 38.88 72.95 37.9C73.05 36.02 73.09 34.15 73.13 32.27C73.17 30.42 73.19 28.56 73.19 26.71C73.19 25.76 73.21 24.82 73.19 23.87C73.17 22.92 73.18 21.96 73.13 21C73.08 20.16 73.04 19.32 72.99 18.48C72.95 18.06 72.9 17.64 72.86 17.23C72.8 17.32 72.74 17.41 72.68 17.5C70.51 20.75 68.21 23.91 65.93 27.09C61.4 33.38 56.9 39.69 52.13 45.8C49.78 48.82 47.36 51.77 44.81 54.62C43.46 56.13 42.08 57.6 40.69 59.07C39.97 59.84 39.18 60.55 38.43 61.28C37.81 61.89 37.18 62.46 36.54 63.05C35.87 63.66 35.21 64.28 34.51 64.86C34 65.28 33.49 65.7 32.97 66.12C32.71 66.33 32.46 66.56 32.18 66.76C31.3 67.38 30.43 67.99 29.56 68.62C28.63 69.28 27.64 69.85 26.65 70.4C25.41 71.09 24.13 71.71 22.82 72.26C20.42 73.26 17.87 73.93 15.27 74.07C14.92 74.09 14.56 74.1 14.21 74.1C13.23 74.11 12.33 74.05 11.43 73.97Z"
    fill="rgba(191, 192, 191, 1)" />
</svg>