<?xml version="1.0" encoding="UTF-8" standalone="yes"?>
<svg width="45" height="119" viewBox="-40 -40 125 199" fill="none" xmlns="http://www.w3.org/2000/svg">
  <path fill-rule="evenodd" clip-rule="evenodd"
    d="M41.9623 0.226546C41.9154 0.320411 41.329 1.82224 40.6723 3.55873C40.039 5.29523 38.1628 9.73034 36.5444 13.4145C31.6425 24.4436 29.8835 28.8084 24.0669 44.2726C19.8921 55.3486 13.4187 75.7642 8.72794 92.6129L7.2269 97.9867L7.08616 94.8422C6.82816 89.3511 5.89001 87.333 3.52116 87.333C2.51263 87.333 1.71519 88.1544 1.45719 89.4919C1.33992 90.0551 1.08195 93.0823 0.894318 96.2502C0.706686 99.4181 0.448692 103.572 0.307967 105.519C0.190697 107.444 0.0499847 110.682 0.0265307 112.677C-0.0438314 115.985 0.00303082 116.384 0.448657 117.135C1.43373 118.825 3.28661 119.435 5.09257 118.684C6.03073 118.285 6.94542 117.206 9.713 113.263C13.9816 107.185 18.907 101.272 23.1991 97.0481C28.0775 92.2609 28.3355 91.7212 25.0754 93.1996C21.0647 94.983 16.6085 97.9867 12.7386 101.483C11.519 102.586 10.487 103.454 10.4401 103.407C10.3463 103.314 13.8409 91.0172 17.101 80.0585C19.7513 71.1883 22.7065 61.6141 24.747 55.419C27.5615 46.8069 34.6681 27.3065 38.2331 18.4598C41.7043 9.82421 43.4399 4.96671 43.9325 2.54969C44.167 1.37638 44.1435 1.11826 43.8386 0.602C43.4633 0.038811 42.2437 -0.219311 41.9623 0.226546Z"
    fill="rgba(191, 192, 191, 1)" />
</svg>