<?xml version="1.0" encoding="UTF-8" standalone="yes"?>
<svg width="73" height="67" viewBox="-40 -40 153 147" fill="none" xmlns="http://www.w3.org/2000/svg">
  <path fill-rule="evenodd" clip-rule="evenodd"
    d="M0.980011 60.61C0.380036 61.26 0.279999 62.23 0.829987 62.94C1.16 63.37 1.71002 63.64 2.29001 63.63C2.52002 63.63 2.75 63.59 2.95999 63.49C3.96381 63.0054 4.81784 62.2212 5.6452 61.4616C5.77396 61.3434 5.90207 61.2258 6.03 61.11C6.41 60.76 6.78003 60.41 7.16 60.05C7.87003 59.39 8.57001 58.73 9.26999 58.07C12.29 55.19 15.35 52.36 18.46 49.57C21.2485 47.066 23.956 44.4811 26.6679 41.892L27.11 41.47L27.1136 41.4665C29.9224 38.7777 32.7312 36.0889 35.58 33.43C37.9729 31.1961 40.4203 29.0245 42.8672 26.8534C43.1452 26.6067 43.4233 26.36 43.7012 26.1132C44.1124 25.7604 44.5301 25.4109 44.9485 25.0607C45.0268 24.9952 45.105 24.9297 45.1833 24.8642C45.3887 25.1601 45.5943 25.4554 45.8 25.75C45.38 26.19 44.96 26.62 44.53 27.05C41.8221 29.8179 39.0941 32.5658 36.3662 35.3137L36.36 35.32C34.8571 36.8286 33.3281 38.3111 31.799 39.7936C30.6523 40.9054 29.5057 42.0172 28.37 43.14C26.84 44.65 25.32 46.16 23.8 47.68C23.2 48.28 22.6075 48.885 22.015 49.49C21.4225 50.095 20.83 50.7 20.23 51.3C18.71 52.83 17.18 54.35 15.64 55.87C15.138 56.3636 14.6391 56.8627 14.1399 57.3622C12.869 58.6339 11.5954 59.9082 10.26 61.1C9.63 61.64 9 62.17 8.32001 62.64C8.03 62.82 7.75 62.99 7.45001 63.15C6.75 63.06 6.03 63.38 5.66 64.01C5.51999 64.24 5.44998 64.48 5.41 64.74C5.29001 65.46 5.68997 66.13 6.26999 66.51C6.59 66.72 6.93997 66.8 7.26999 66.76C7.79999 66.76 8.34998 66.57 8.84 66.36C9.82999 65.94 10.75 65.25 11.57 64.57C12.93 63.44 14.2 62.22 15.46 60.97C16.4959 59.9341 17.543 58.9039 18.5887 57.8751C18.9361 57.5333 19.2834 57.1916 19.63 56.85C21.0845 55.4259 22.5131 53.9759 23.9428 52.5247C24.8624 51.5914 25.7823 50.6576 26.71 49.73C29.56 46.89 32.43 44.07 35.32 41.27C37.7682 38.8957 40.1652 36.4702 42.5583 34.0486L43.15 33.45C44.72 31.86 46.28 30.27 47.84 28.68L50.36 32.31C50.5661 32.6416 50.7727 32.9727 50.9792 33.3036C51.6447 34.3697 52.309 35.434 52.95 36.51C53.0564 36.6897 53.1625 36.8695 53.2686 37.0493C54.06 38.3905 54.8506 39.7302 55.75 41C56.23 41.68 56.71 42.34 57.32 42.91C57.98 43.51 58.92 43.72 59.77 43.44C60.4705 43.211 60.8987 42.7007 61.2198 42.1017C61.2266 42.0978 61.2333 42.0939 61.24 42.09C62.2684 41.4886 62.4309 40.1657 62.5682 39.048C62.5885 38.8832 62.6082 38.7229 62.63 38.57C62.6808 38.2281 62.7295 37.8883 62.778 37.5496C62.8346 37.1554 62.8908 36.7627 62.95 36.37C63.0633 35.5773 63.2216 34.7896 63.3789 34.007C63.4438 33.6838 63.5086 33.3615 63.57 33.04C63.7602 32.2365 63.9503 31.4329 64.1405 30.6317C64.2603 30.1267 64.3802 29.6226 64.5 29.12C64.6773 28.3563 64.8918 27.6018 65.1054 26.8504C65.2051 26.4998 65.3046 26.1499 65.4 25.8C65.9214 23.9128 66.5046 22.0393 67.087 20.1682C67.2082 19.7787 67.3294 19.3894 67.45 19C67.8096 18.0168 68.1637 17.0335 68.5164 16.0542C68.6444 15.6989 68.7722 15.3441 68.9 14.99C69.2004 14.1474 69.5384 13.3209 69.8746 12.4988C69.9973 12.1988 70.1197 11.8994 70.24 11.6C70.5237 10.894 70.8152 10.1921 71.1072 9.48904C71.2785 9.07672 71.45 8.66403 71.62 8.25L71.6473 8.18118C71.8881 7.57476 72.1259 6.97595 72.28 6.33999C72.43 5.72998 72.46 5.01001 72.12 4.45001C71.8 3.92001 71.36 3.44998 70.75 3.28C70.13 3.10998 69.5 3.22 68.89 3.38C67.95 3.63 67.4 4.63998 67.65 5.55999C67.77 6.01999 68.08 6.38998 68.46 6.60998C68.2643 7.10226 68.0568 7.59057 67.8498 8.07742C67.7288 8.36193 67.608 8.64596 67.49 8.92999C67.4142 9.11416 67.3391 9.2991 67.2643 9.48434C67.2415 9.31301 67.2135 9.1416 67.18 8.97C67.04 8.32 66.84 7.68002 66.61 7.05999C66.594 7.01587 66.576 6.97293 66.5562 6.93118C66.6718 6.64325 66.7529 6.3497 66.81 6.01999C66.9 5.49997 66.76 4.80999 66.47 4.36999C66.18 3.91998 65.87 3.55996 65.46 3.20999C65.09 2.88998 64.58 2.67001 64.13 2.48001C63.61 2.26001 63.08 2.07998 62.54 1.94C60.99 1.53 59.42 1.31997 57.84 1.10998C57.1299 1.01281 56.4142 0.965908 55.7013 0.919186C55.4605 0.903408 55.2199 0.887661 54.98 0.869992C54.2789 0.814999 53.5683 0.811978 52.8613 0.808987C52.5397 0.807614 52.2189 0.80624 51.9 0.799984C51.1507 0.792172 50.3953 0.827023 49.6432 0.861721C49.4318 0.871487 49.2207 0.881222 49.01 0.890011C48.05 0.92001 47.1 0.950009 46.14 0.980007C45.5595 0.993344 44.9834 0.979977 44.4088 0.966641C44.1223 0.959988 43.8361 0.953335 43.55 0.950009C43.28 0.92001 43.01 0.89999 42.74 0.880001C41.8834 0.809353 41.0287 0.709469 40.1743 0.609585C39.0936 0.483273 38.0134 0.357022 36.93 0.290005C36.36 0.260006 35.79 0.209988 35.22 0.200009C34.26 0.179989 33.25 0.199978 32.44 0.769985C32.04 1.05996 31.64 1.47998 31.53 1.97C31.42 2.47 31.38 2.92001 31.49 3.42001C31.61 3.94 31.82 4.42999 32.12 4.88C32.1665 4.93982 32.2086 5.00406 32.2493 5.06683C32.2698 5.09851 32.2899 5.12982 32.31 5.16C32.34 5.19998 32.37 5.25 32.4 5.29001C32.64 5.64999 32.88 6.01001 33.15 6.35C33.3015 6.54391 33.4522 6.73819 33.6025 6.9328C33.7523 7.24466 33.9154 7.5502 34.09 7.85C34.57 8.70001 35.05 9.55001 35.57 10.37C35.7691 10.6763 35.9667 10.984 36.1645 11.2921C36.4834 11.7888 36.8029 12.2863 37.13 12.78C37.9879 14.0668 38.8406 15.3587 39.6919 16.6484C40.0314 17.1628 40.3707 17.6768 40.71 18.19C40.9958 18.6247 41.279 19.0603 41.5618 19.4954C42.0859 20.3015 42.6089 21.1061 43.1461 21.9009C42.8991 22.1091 42.6529 22.3179 42.4072 22.5262C42.1612 22.7348 41.9156 22.943 41.67 23.15C40.6534 24.0103 39.6569 24.9008 38.6627 25.7894C38.2585 26.1506 37.8547 26.5116 37.45 26.87C36.09 28.08 34.75 29.3 33.43 30.54C32.8461 31.0905 32.2588 31.6358 31.6716 32.1809C30.8508 32.9429 30.0303 33.7047 29.22 34.48C27.8 35.85 26.38 37.22 24.95 38.59C24.5988 38.9287 24.2481 39.2687 23.8973 39.6088C22.85 40.6243 21.8012 41.6412 20.73 42.63C20.3082 43.0217 19.8872 43.4152 19.4661 43.8089C18.4897 44.7218 17.5121 45.6357 16.52 46.53C16.2877 46.7383 16.0551 46.9466 15.8224 47.1549C14.6029 48.2471 13.3809 49.3415 12.18 50.45C10.62 51.9 9.06003 53.35 7.51001 54.82C7.29132 55.0287 7.07285 55.2377 6.8544 55.4466C5.53449 56.7089 4.21564 57.9702 2.85999 59.18C2.47 59.52 2.06003 59.86 1.63001 60.18C1.61002 60.18 1.60001 60.19 1.59 60.2C1.36002 60.29 1.14002 60.43 0.980011 60.61ZM37.2992 5.96997C37.7261 5.96978 38.153 5.96853 38.58 5.95999L41.39 5.89999C42.24 5.89001 43.1 5.88 43.93 5.88C45.1 5.88 46.28 5.90002 47.46 5.94C48.59 6.03003 49.72 6.13 50.84 6.25C51.6436 6.32892 52.442 6.45932 53.2389 6.58947C53.5528 6.64074 53.8664 6.69195 54.18 6.73999C55.18 6.89999 56.19 7.06002 57.19 7.20001C57.4878 7.24322 57.7862 7.28537 58.0847 7.32754C59.0229 7.46014 59.9626 7.59295 60.8931 7.75882C59.2526 9.1029 57.5793 10.4065 55.9 11.71C55.1012 12.334 54.3 12.9581 53.4987 13.5821C52.695 14.2081 51.8912 14.834 51.09 15.46C49.55 16.66 48.03 17.89 46.52 19.12C46.4201 18.9901 46.3302 18.8603 46.2403 18.7304C45.2274 17.2867 44.2353 15.8279 43.2432 14.3692C42.0707 12.6452 40.8979 10.9209 39.69 9.22C39.16 8.45999 38.63 7.70999 38.07 6.97C37.816 6.63443 37.558 6.30178 37.2992 5.96997ZM48.9861 22.5157C48.8604 22.344 48.735 22.1721 48.61 22C49.833 20.9946 51.0663 20.003 52.306 19.0191C52.1639 19.1694 52.022 19.3197 51.88 19.47C51.3675 20.0125 50.855 20.555 50.34 21.1C49.8957 21.5779 49.4424 22.0468 48.9861 22.5157ZM59.1602 36.5362C58.9432 36.1636 58.7251 35.7968 58.5 35.43C58.343 35.1764 58.1897 34.9192 58.0362 34.6617C57.6812 34.066 57.325 33.4685 56.92 32.91C56.7284 32.6447 56.5368 32.3785 56.3449 32.112C55.8859 31.4743 55.4254 30.8347 54.96 30.2C54.7776 29.9429 54.5676 29.6927 54.3587 29.4437C54.3157 29.3924 54.2727 29.3412 54.23 29.29C53.8213 28.7716 53.4026 28.2532 52.9839 27.7348L52.98 27.73C52.3514 26.9515 51.7332 26.1644 51.1239 25.3707L51.84 24.64C54.45 21.97 57 19.23 59.45 16.41C60.77 14.89 62.08 13.37 63.3 11.77C63.48 11.54 63.66 11.31 63.83 11.07C63.82 11.19 63.82 11.3 63.81 11.42C63.6844 12.8267 63.4116 14.2123 63.1383 15.6004C63.0852 15.8701 63.0321 16.1399 62.98 16.41C62.32 19.62 61.7 22.83 61.09 26.04C60.8962 27.0716 60.7219 28.1031 60.5477 29.1347C60.4432 29.7531 60.3387 30.3715 60.23 30.99C59.9803 32.408 59.7107 33.8161 59.4411 35.2241L59.44 35.23C59.3442 35.668 59.2531 36.1012 59.1602 36.5362Z"
    fill="rgba(191, 192, 191, 1)" />
</svg>