<?xml version="1.0" encoding="UTF-8" standalone="yes"?>
<svg width="79" height="76" viewBox="-40 -40 159 156" fill="none" xmlns="http://www.w3.org/2000/svg">
  <path fill-rule="evenodd" clip-rule="evenodd"
    d="M59.16 46.56C58.23 46.44 57.47 45.52 57.64 44.57V44.52C57.69 43.16 57.66 41.79 57.59 40.43C57.56 40.1 57.52 39.78 57.47 39.46C57.3445 38.9115 57.1888 38.3716 57.0329 37.8313C56.8534 37.2094 56.6738 36.5869 56.54 35.95C56.3784 35.1937 56.2335 34.4373 56.0891 33.6837C56.0102 33.2715 55.9313 32.8602 55.85 32.45C55.703 31.7822 55.5034 31.1295 55.3042 30.4779L55.3027 30.4733C55.1772 30.0629 55.0519 29.653 54.94 29.24C54.7713 28.615 54.6807 27.9705 54.5901 27.3259C54.5357 26.9392 54.4813 26.5525 54.41 26.17C54.29 25.63 54.16 25.1 53.99 24.56C53.94 24.41 53.9 24.26 53.86 24.11C53.63 24.11 53.4 24.1201 53.16 24.13C52.84 24.14 52.51 24.15 52.19 24.15C51.613 24.1417 51.043 24.0984 50.4742 24.0552L50.4716 24.055C50.3611 24.0466 50.2505 24.0381 50.14 24.03C49.0863 23.963 48.0326 23.9479 46.9766 23.9329H46.9747C46.2976 23.9232 45.6196 23.9135 44.94 23.89C44.4797 23.875 44.0195 23.8475 43.5592 23.8199C43.0995 23.7925 42.6397 23.765 42.18 23.75C41.29 23.72 40.41 23.72 39.52 23.77C39.1424 23.7996 38.7644 23.833 38.3861 23.8665C36.721 24.0136 35.0505 24.1611 33.38 23.99C32.42 23.89 31.74 22.9301 31.87 22C31.87 21.9669 31.8768 21.9407 31.8849 21.91L31.89 21.89C31.71 21.95 31.52 22 31.32 22.04C30.71 22.15 30.05 21.85 29.68 21.36C29.24 20.79 29.2 20.0101 29.55 19.39C29.85 18.86 30.34 18.45 30.88 18.18C31.04 18.1 31.2 18.05 31.38 18.04C33.15 16.7 34.89 15.34 36.63 13.97C38.42 12.56 40.19 11.15 41.92 9.67999C42.5744 9.07269 43.2151 8.44898 43.8565 7.82459L43.8593 7.82184C44.4421 7.25446 45.0254 6.68659 45.62 6.13001C46.21 5.58002 46.83 5.06 47.46 4.56C47.6365 4.4231 47.8148 4.28809 47.9933 4.15296C48.4014 3.84381 48.8104 3.534 49.2 3.20001C49.3408 3.07367 49.4776 2.94605 49.6139 2.81903L49.6152 2.81775C49.856 2.5932 50.0949 2.37048 50.35 2.15997C50.89 1.70001 51.53 1.43006 52.21 1.25C53.0527 1.021 53.9373 0.984987 54.8023 0.94983L55.04 0.940004C55.8048 0.902528 56.5696 0.898805 57.3345 0.895082C57.5897 0.8938 57.8448 0.892518 58.1 0.890016L58.1173 0.88965C59.9516 0.869813 61.7958 0.849916 63.63 0.799989C65.56 0.750001 67.49 0.710023 69.42 0.750001C70.39 0.770021 71.37 0.780031 72.34 0.739992C72.78 0.700014 73.22 0.630006 73.66 0.559999C73.7532 0.546693 73.8463 0.534486 73.9395 0.522279C74.1263 0.497865 74.3132 0.47339 74.5 0.440004C74.4599 0.450075 74.4222 0.457582 74.3846 0.465089C74.3473 0.472536 74.3099 0.480043 74.27 0.489992C74.89 0.360048 75.42 0.410036 75.97 0.780031C76.6327 1.23505 76.7965 2.10089 76.9355 2.83582L76.94 2.85999C77.08 3.57001 77.14 4.31006 77.19 5.03003C77.31 6.76007 77.4 8.48999 77.49 10.22C77.4851 10.1808 77.4826 10.1415 77.4802 10.1023C77.4787 10.0792 77.4773 10.056 77.4754 10.0329C77.474 10.0153 77.4722 9.99762 77.47 9.97998C77.5255 10.7844 77.5963 11.5857 77.6672 12.3874L77.6675 12.3909C77.7243 13.0331 77.7811 13.6756 77.83 14.32C77.84 14.39 77.85 14.47 77.85 14.55C77.85 14.6221 77.8582 14.6862 77.8671 14.7568L77.87 14.78C77.8765 14.8641 77.884 14.9492 77.8915 15.0347C77.9073 15.2136 77.9232 15.3941 77.93 15.57C77.965 15.8568 77.9657 16.1631 77.9664 16.4582C77.9667 16.585 77.967 16.7098 77.97 16.83C77.99 17.58 77.97 18.33 77.96 19.07C77.9562 19.3806 77.951 19.692 77.9458 20.0037C77.9236 21.3254 77.9013 22.6552 77.9875 23.9722L77.99 23.99C77.99 24.03 78 24.07 78 24.11V24.21C78.016 24.3965 78.032 24.5829 78.048 24.7678C78.062 24.9301 78.076 25.0911 78.09 25.25C78.14 25.69 78.18 26.13 78.2 26.57C78.2 26.5828 78.201 26.5955 78.2024 26.6083C78.2032 26.6155 78.2041 26.6228 78.205 26.6301C78.2076 26.6501 78.21 26.67 78.21 26.69C78.68 27.07 78.96 27.6901 78.89 28.33C78.81 29.03 78.26 29.66 77.59 29.89C77.5079 29.9516 77.4305 30.0178 77.3514 30.0855C77.3287 30.1049 77.3059 30.1245 77.2828 30.1441C77.2686 30.1561 77.2544 30.168 77.24 30.18C77.0269 30.3702 76.8143 30.5615 76.6016 30.7528L76.5931 30.7605L76.5896 30.7636C75.8782 31.4036 75.1659 32.0445 74.43 32.65C73.9499 33.0452 73.4597 33.4302 72.9696 33.8153C72.4798 34.2002 71.9899 34.5851 71.51 34.98C70.6705 35.6676 69.8566 36.3808 69.0427 37.0939C68.8386 37.2728 68.6345 37.4516 68.43 37.63C67.8503 38.1364 67.2617 38.634 66.6731 39.1315L66.648 39.1528C66.3616 39.3948 66.0753 39.6368 65.79 39.88C65.33 40.3 64.88 40.7401 64.46 41.2C64.0592 41.6616 63.6916 42.1415 63.3236 42.6219C63.0856 42.9327 62.8474 43.2437 62.6 43.55C62.419 43.7712 62.2312 43.9891 62.0431 44.2074C61.6701 44.6403 61.2958 45.0746 60.97 45.54C60.96 45.56 60.95 45.58 60.93 45.6C60.93 45.596 60.9316 45.592 60.9342 45.5874C60.9356 45.5849 60.9373 45.5822 60.9391 45.5792C60.9424 45.5739 60.9462 45.5677 60.95 45.56C60.9473 45.5627 60.9453 45.5656 60.9436 45.5683C60.9423 45.5706 60.9411 45.5728 60.94 45.5751C60.9375 45.5801 60.935 45.5851 60.93 45.59C60.62 46.16 60.04 46.55 59.38 46.55C59.33 46.57 59.24 46.57 59.16 46.56ZM77.982 23.9198L77.9835 23.9424C77.9761 23.8852 77.97 23.8246 77.97 23.77C77.975 23.8099 77.9775 23.8499 77.98 23.8898L77.982 23.9198ZM55.79 20.82C56.54 21.14 56.96 21.7501 57.12 22.52C57.17 22.79 57.24 23.0501 57.32 23.31C57.49 23.86 57.65 24.42 57.78 24.98C57.9321 25.6346 58.0317 26.298 58.1309 26.9585C58.1817 27.2969 58.2325 27.6346 58.29 27.97C58.4269 28.545 58.5998 29.1079 58.7725 29.6704C58.9152 30.1348 59.058 30.5998 59.18 31.07C59.3781 31.8692 59.526 32.6834 59.6736 33.4949C59.7346 33.8306 59.7957 34.1665 59.86 34.5C60 35.1801 60.16 35.86 60.36 36.54C60.67 37.6 60.98 38.66 61.1 39.76C61.39 39.4 61.69 39.04 62 38.7C62.61 38.02 63.28 37.4 63.98 36.81C65.4 35.61 66.8 34.4 68.19 33.18C69.006 32.4661 69.8543 31.7954 70.7026 31.1246C71.2683 30.6774 71.834 30.2301 72.39 29.77C72.5551 29.6325 72.718 29.495 72.8798 29.3584C73.071 29.1971 73.2605 29.0371 73.45 28.88C73.6954 28.6575 73.9408 28.4317 74.1861 28.2064C74.3708 28.0368 74.5554 27.8675 74.74 27.7L74.78 27.66C74.7221 27.2545 74.7015 26.8303 74.6821 26.4324L74.68 26.39C74.6651 26.2153 74.6451 26.0407 74.6252 25.8659C74.6051 25.6909 74.5851 25.5151 74.57 25.34C74.5632 25.248 74.5553 25.1572 74.5473 25.0667C74.532 24.8919 74.5166 24.7177 74.51 24.54V24.47C74.51 24.46 74.5075 24.4476 74.505 24.4351C74.5025 24.4225 74.5 24.41 74.5 24.4C74.4669 24.1747 74.4601 23.9318 74.4535 23.6946C74.4501 23.5739 74.4468 23.4547 74.44 23.34C74.4268 23.0812 74.4223 22.8135 74.4178 22.5488C74.4156 22.4146 74.4134 22.2812 74.41 22.15C74.41 21.4301 74.42 20.71 74.43 19.99V19.9882C74.45 18.5788 74.47 17.1694 74.42 15.76C74.38 15.4 74.34 15.0201 74.35 14.65C74.3398 14.5888 74.3348 14.525 74.3297 14.46C74.3248 14.3975 74.3198 14.3337 74.31 14.27C74.08 11.8101 73.93 9.36005 73.81 6.89002V6.90997C73.81 6.88001 73.81 6.85004 73.8 6.82001V6.72998C73.7916 6.60993 73.7835 6.48969 73.7753 6.36926L73.7736 6.34381C73.7237 5.61017 73.6736 4.87152 73.58 4.14002C72.72 4.25006 71.85 4.28998 70.99 4.28998C70.6691 4.28827 70.3481 4.28528 70.0272 4.28174C69.7845 4.27912 69.5419 4.27619 69.2992 4.27326C68.0328 4.25781 66.7664 4.24237 65.5 4.27002C65.1843 4.2771 64.8686 4.28479 64.5529 4.29267C64.3583 4.29755 64.1637 4.30255 63.9691 4.30756C62.6894 4.34021 61.4097 4.37287 60.13 4.38001C59.7781 4.38361 59.4266 4.3866 59.0753 4.38959C57.4898 4.40296 55.9099 4.41632 54.33 4.48999C53.96 4.52002 53.6 4.56 53.23 4.62C53.1999 4.62824 53.1706 4.63568 53.1418 4.64301C53.1085 4.65149 53.076 4.65973 53.044 4.66876C53.0174 4.67627 52.9911 4.68427 52.9649 4.6933C52.95 4.69849 52.935 4.70404 52.92 4.71002L52.77 4.77002L52.71 4.79999C52.62 4.87 52.54 4.94006 52.45 5.01001L52.3169 5.13361C51.8126 5.60193 51.3113 6.06738 50.76 6.48999C49.92 7.13001 49.1 7.78003 48.3 8.46002C47.7183 9.00537 47.1469 9.5611 46.5755 10.1168C45.8896 10.7838 45.2038 11.4508 44.5 12.1C43.4777 13.0558 42.3726 13.9287 41.2706 14.7991C41.0467 14.976 40.8229 15.1527 40.6 15.33C39.3 16.36 38 17.3901 36.69 18.4C36.5922 18.4763 36.4944 18.5527 36.3965 18.6293L36.1534 18.8197C35.6517 19.2127 35.1486 19.6068 34.64 19.99C34.5371 20.0684 34.4342 20.1444 34.3313 20.2204L34.3239 20.2259C34.2193 20.3031 34.1146 20.3803 34.01 20.46C34.0397 20.46 34.0717 20.4625 34.1039 20.4661C34.1367 20.4699 34.1697 20.475 34.2 20.48C34.94 20.52 35.68 20.5001 36.43 20.46C36.9164 20.4241 37.4012 20.3819 37.8862 20.3397C38.618 20.2759 39.3504 20.2121 40.09 20.17C41.35 20.11 42.63 20.1901 43.88 20.27C45.13 20.34 46.37 20.36 47.62 20.38C48.91 20.4 50.19 20.47 51.47 20.57C51.98 20.59 52.47 20.59 52.98 20.58C53.1329 20.5761 53.2873 20.5692 53.4432 20.5621C53.6851 20.5511 53.9307 20.54 54.18 20.54C54.73 20.56 55.29 20.61 55.79 20.82Z"
    fill="rgba(191, 192, 191, 1)" />
  <path fill-rule="evenodd" clip-rule="evenodd"
    d="M1.1907 48.7037C0.677673 49.2542 0.140015 49.8312 0.140015 50.64C0.140015 51.6 0.950012 52.41 1.92001 52.41C2.60001 52.41 3.20003 52.01 3.49002 51.44C4.35344 50.5028 5.29854 49.6364 6.24094 48.7724C6.57556 48.4656 6.90985 48.1592 7.24002 47.85C7.32274 47.7725 7.40565 47.6949 7.48875 47.6174C7.55951 47.5514 7.63037 47.4854 7.70132 47.4193C7.9501 47.1879 8.20006 46.9564 8.45001 46.725C8.68748 46.5051 8.92496 46.2852 9.16142 46.0652C9.32823 45.9102 9.49455 45.7551 9.66002 45.6C10.2827 45.0227 10.9054 44.4445 11.5284 43.8658C13.6469 41.8984 15.7695 39.9272 17.91 37.98C18.2747 37.6484 18.6406 37.3182 19.0067 36.988L19.0282 36.9686L19.0388 36.959L19.0551 36.9444C20.1085 35.9941 21.1628 35.0432 22.19 34.06L22.2192 34.0322C22.9192 33.3616 23.6093 32.7006 24.28 32.02C24.55 31.74 24.82 31.46 25.07 31.17C25.4488 31.2688 25.8215 31.3827 26.1948 31.4968L26.2008 31.4986C26.5056 31.5917 26.8108 31.6849 27.12 31.77L29.16 32.34C29.6366 32.4734 30.1223 32.5705 30.5998 32.6659L30.67 32.68C30.7416 32.6948 30.8134 32.7101 30.8854 32.726C31.0279 32.7573 31.1712 32.7904 31.3151 32.8236L31.3179 32.8243L31.3204 32.8249C31.7422 32.9223 32.1683 33.0207 32.59 33.08C32.8873 33.1187 33.1851 33.1591 33.4834 33.1995C34.4191 33.3265 35.36 33.4542 36.3 33.53C37.53 33.63 38.77 33.72 40 33.8C40.957 33.8781 41.9044 33.9562 42.8516 34.1088C42.798 34.0982 42.7465 34.0841 42.69 34.07L42.8988 34.1165L42.9061 34.1181C43.284 34.2028 43.662 34.2908 44.04 34.4C44.34 34.49 44.65 34.6 44.95 34.68C45.185 34.7397 45.4228 34.7826 45.6613 34.8047C45.667 34.8265 45.6732 34.8483 45.68 34.87C45.7933 35.6629 46.0053 36.4407 46.2167 37.2166L46.2212 37.2329L46.2256 37.249L46.226 37.2505C46.2541 37.3537 46.2822 37.4568 46.31 37.56C46.341 37.6731 46.3717 37.7862 46.4022 37.8992L46.462 38.1213L46.4639 38.1282C46.5797 38.5581 46.6951 38.9865 46.82 39.41C46.8851 39.643 46.9498 39.8757 47.0144 40.1082L47.0153 40.1115C47.3081 41.1643 47.599 42.2105 47.91 43.25C48.31 44.63 48.71 46.01 49.16 47.38C49.1846 47.4517 49.2089 47.5232 49.2329 47.5946C49.2542 47.6579 49.2752 47.7211 49.2962 47.7842C49.3286 47.8817 49.3606 47.9791 49.3926 48.0762C49.5353 48.5093 49.677 48.9397 49.84 49.37C49.9212 49.5797 50.0029 49.7889 50.0845 49.998C50.3649 50.7159 50.6444 51.4319 50.9 52.16C50.87 52.09 50.85 52.02 50.82 51.95C50.9125 52.2335 50.9935 52.517 51.0678 52.8029C50.7493 52.958 50.4572 53.188 50.22 53.44C49.8231 53.859 49.4586 54.305 49.0947 54.7502C48.9636 54.9107 48.8325 55.071 48.7 55.23C48.26 55.7599 47.82 56.29 47.38 56.83C46.9175 57.3925 46.4355 57.9355 45.9535 58.4784C45.6911 58.7739 45.4287 59.0695 45.1695 59.3682C44.8517 59.7206 44.5333 60.0718 44.2145 60.4224C43.881 60.7892 43.5471 61.1554 43.2134 61.5214L43.2028 61.5331L43.2001 61.536L43.1993 61.5369C42.2338 62.5957 41.2701 63.6526 40.32 64.72C39.89 65.2 39.4625 65.6799 39.035 66.16C38.6075 66.64 38.18 67.12 37.75 67.6C37.555 67.8149 37.36 68.035 37.165 68.255C36.97 68.475 36.775 68.6949 36.58 68.91C36.4904 69.0096 36.4008 69.1066 36.3112 69.2037L36.2602 69.259L36.1708 69.3563C36.1272 69.4037 36.0836 69.4516 36.04 69.5C35.85 69.7 35.71 69.93 35.57 70.16C35.5 70.25 35.43 70.34 35.36 70.42C35.06 70.74 34.74 71.05 34.42 71.35C34.33 71.43 34.23 71.51 34.13 71.58C34.11 71.59 34.09 71.6025 34.0701 71.615C34.05 71.6275 34.03 71.64 34.01 71.65L34.0084 71.6506C33.9789 71.6604 33.9497 71.6702 33.93 71.68C33.9178 71.68 33.9057 71.6816 33.8935 71.6843C33.8757 71.6882 33.8578 71.6941 33.84 71.7C33.66 71.31 33.48 70.92 33.27 70.54C32.9881 70.0153 32.6816 69.5089 32.3746 69.0018L32.3717 68.997C32.2877 68.8582 32.2036 68.7194 32.12 68.58C31.39 67.38 30.71 66.17 30.05 64.92C29.53 63.85 29.06 62.77 28.62 61.67C28.39 61.09 28.16 60.5099 27.85 59.97C27.59 59.5099 27.3 59.08 26.92 58.72C26.758 58.5649 26.5761 58.4249 26.3954 58.2858L26.3141 58.2231C26.2657 58.1856 26.2175 58.1479 26.17 58.11L26.1661 58.1026L26.1621 58.0956C26.1553 58.0839 26.15 58.0746 26.15 58.06L26.09 57.85C26.0817 57.8068 26.0736 57.7635 26.0656 57.7204C26.0562 57.6695 26.0469 57.6186 26.0377 57.5678L26.0343 57.5493C25.967 57.1803 25.9001 56.814 25.79 56.46C25.61 55.91 25.31 55.35 24.9 54.95C24.61 54.66 24.3 54.44 23.94 54.27C23.74 54.18 23.53 54.12 23.33 54.07C23.1076 53.9735 22.8869 53.8664 22.6658 53.7591C22.36 53.6107 22.0534 53.4619 21.74 53.34C21.02 53.05 20.28 52.81 19.52 52.64C18.41 52.39 17.29 52.24 16.16 52.11C15.1027 51.9851 14.0384 51.9642 12.9788 51.9434C12.7659 51.9391 12.5524 51.935 12.34 51.93C11.6573 51.87 10.9747 51.7762 10.292 51.6825L10.0722 51.6523C9.91812 51.6312 9.76407 51.6104 9.61002 51.59C9.49811 51.5764 9.3862 51.563 9.27429 51.5497C9.12938 51.5327 8.98447 51.5159 8.83955 51.4991C8.19638 51.4246 7.55319 51.35 6.91002 51.25C5.96002 51.1 5.05002 51.82 4.92001 52.76C4.79001 53.73 5.48001 54.61 6.43001 54.76C7.34334 54.9 8.26556 55.0134 9.18779 55.1267C9.64891 55.1833 10.11 55.24 10.57 55.3C11.25 55.39 11.92 55.46 12.61 55.48C12.8353 55.4866 13.0594 55.4921 13.2832 55.4976H13.2868C13.7374 55.5088 14.1865 55.52 14.64 55.54C15.81 55.62 16.98 55.75 18.14 55.96C18.73 56.08 19.3 56.23 19.87 56.41C20.46 56.6299 21.01 56.88 21.57 57.15C21.84 57.28 22.11 57.37 22.39 57.46C22.4 57.5 22.42 57.54 22.44 57.58C22.46 57.63 22.47 57.68 22.48 57.73C22.4963 57.8229 22.512 57.9169 22.5278 58.0115C22.6378 58.6705 22.7527 59.3591 23.12 59.91C23.38 60.3 23.66 60.63 24.02 60.92C24.17 61.04 24.33 61.16 24.49 61.28L24.53 61.32L24.5329 61.3237L24.5343 61.3255C24.5679 61.3687 24.6014 61.4119 24.6338 61.4563C24.6925 61.5542 24.7513 61.6523 24.81 61.76C25.0301 62.2291 25.2233 62.7048 25.4169 63.1815C25.5576 63.528 25.6985 63.8748 25.85 64.22C26.3 65.2599 26.79 66.29 27.32 67.3C27.8474 68.3204 28.4406 69.3047 29.0335 70.2886C29.4747 71.0209 29.9162 71.7534 30.33 72.5C30.4178 72.6901 30.5055 72.8778 30.5932 73.0655L30.5996 73.079L30.7126 73.321C30.7651 73.4335 30.8176 73.5463 30.87 73.66C31.18 74.35 31.53 75.06 32.21 75.44C32.49 75.6 32.8 75.67 33.11 75.69C33.47 75.69 33.82 75.59 34.15 75.41C34.28 75.34 34.4 75.25 34.52 75.16C35.25 75 35.94 74.7 36.52 74.2C36.95 73.84 37.36 73.46 37.75 73.05C37.97 72.82 38.18 72.57 38.38 72.32C38.4244 72.2609 38.466 72.2004 38.5064 72.139C38.5452 72.0801 38.5828 72.0204 38.6207 71.9604L38.6604 71.8976C38.6768 71.8718 38.6933 71.8459 38.71 71.82C39.8915 70.5283 41.0564 69.2228 42.2207 67.918C43.2737 66.7379 44.3262 65.5583 45.39 64.39C45.6546 64.098 45.9199 63.8065 46.1851 63.5151C46.9824 62.639 47.7796 61.7629 48.56 60.87C48.776 60.618 48.9951 60.3693 49.2143 60.1205C49.5432 59.7473 49.872 59.374 50.19 58.99C50.4551 58.6691 50.7178 58.3445 50.981 58.0192L50.9828 58.017C51.149 57.8116 51.3155 57.6059 51.4829 57.4007C51.6915 57.8238 52.0641 58.1577 52.57 58.3C52.71 58.34 52.86 58.36 53.02 58.35C53.79 58.35 54.58 57.84 54.75 57.05C54.97 56.04 54.96 54.99 54.86 53.97C54.77 52.8799 54.52 51.8101 54.16 50.78C53.9068 50.0626 53.6338 49.355 53.3619 48.6505L53.3609 48.6479L53.3513 48.623C53.2711 48.4151 53.191 48.2075 53.1116 48.0001C53.081 47.92 53.0504 47.84 53.02 47.76C52.9482 47.5468 52.8751 47.3336 52.8021 47.1202C52.5701 46.443 52.3377 45.7644 52.14 45.08L52.0284 44.7068L52.0273 44.7036C51.7452 43.761 51.4648 42.8244 51.2 41.88C51.0302 41.2907 50.8629 40.6989 50.6956 40.1071C50.5279 39.5139 50.3602 38.9207 50.19 38.33C49.85 37.14 49.51 35.94 49.24 34.74C49.2 34.49 49.16 34.23 49.13 33.97C49.067 33.3613 48.6517 32.8555 48.1169 32.6065C48.1117 32.5843 48.1061 32.5621 48.1 32.54C47.852 31.6469 46.954 31.128 46.0706 31.2764L46.05 31.28C46.03 31.29 46.02 31.29 46.01 31.29C45.995 31.29 45.9825 31.2875 45.97 31.285C45.9621 31.2834 45.9541 31.2819 45.9456 31.2809C45.9406 31.2803 45.9355 31.28 45.93 31.28C45.8172 31.2518 45.7056 31.2186 45.5943 31.1835C45.5274 31.1624 45.4606 31.1406 45.3937 31.1187L45.3909 31.1178C45.2548 31.0734 45.1183 31.0289 44.98 30.99C44.3 30.79 43.62 30.64 42.92 30.53C41.747 30.3427 40.5408 30.2747 39.3446 30.2073C39.0724 30.192 38.8007 30.1766 38.53 30.16H38.52C38.4956 30.16 38.4735 30.1576 38.4515 30.1552L38.45 30.155C38.4275 30.1525 38.405 30.15 38.38 30.15C38.32 30.1448 38.2601 30.1398 38.2001 30.1351L38.0688 30.1248C37.9446 30.1154 37.8205 30.1064 37.6964 30.0977L37.5751 30.0892C37.0345 30.0513 36.4946 30.0135 35.96 29.94C34.99 29.81 34.02 29.68 33.05 29.56C32.21 29.39 31.38 29.22 30.54 29.04C29.9818 28.9283 29.4334 28.763 28.8879 28.5986L28.8863 28.5982L28.8787 28.596C28.6455 28.5258 28.4128 28.4557 28.18 28.39C27.8932 28.3085 27.6075 28.2175 27.321 28.1262C26.7287 27.9375 26.1334 27.7479 25.52 27.64C24.69 27.49 23.72 27.45 23.02 27.99C22.72 28.23 22.53 28.51 22.41 28.83C22.4 28.85 22.38 28.87 22.36 28.89C21.1409 30.2049 19.8156 31.4288 18.503 32.6411L18.2359 32.8878C18.1304 32.9852 18.0251 33.0826 17.92 33.18C16.8111 34.201 15.6978 35.2191 14.584 36.2375C12.785 37.8825 10.9849 39.5286 9.20001 41.19C8.53001 41.815 7.85751 42.4375 7.18501 43.06C6.51251 43.6825 5.84001 44.305 5.17001 44.93C4.78461 45.2853 4.40172 45.6458 4.01883 46.0062C3.63672 46.3658 3.25461 46.7254 2.87001 47.08C2.77861 47.1647 2.68694 47.2492 2.59526 47.3337C2.13527 47.7575 1.67526 48.1814 1.25002 48.64L1.1907 48.7037ZM24.72 61.5834C24.7202 61.5901 24.7213 61.5912 24.73 61.6C24.73 61.5959 24.7284 61.5919 24.7265 61.5886C24.7236 61.5836 24.72 61.58 24.72 61.58L24.72 61.5834ZM24.74 61.6268V61.63L24.7479 61.6378C24.7461 61.6356 24.7442 61.6332 24.7425 61.6307L24.74 61.6268Z"
    fill="rgba(191, 192, 191, 1)" />
</svg>