<?xml version="1.0" encoding="UTF-8" standalone="yes"?>
<svg width="75" height="70" viewBox="-40 -40 155 150" fill="none" xmlns="http://www.w3.org/2000/svg">
  <path
    d="M26.04 69.27C23.31 68.87 20.6 68.23 17.98 67.37C15.52 66.56 13.07 65.51 10.89 64.1C8.77002 62.73 6.89999 61.01 5.41999 58.98C2.28999 54.68 0.949984 49.36 0.979984 44.09C0.999984 41.32 1.40997 38.55 1.96997 35.84C2.52997 33.12 3.31997 30.45 4.21997 27.83C4.98997 25.58 5.91998 23.39 6.78998 21.19C7.85998 18.48 9.18001 15.83 10.63 13.31C11.48 11.82 12.49 10.4 13.63 9.12001C14.81 7.80001 16.15 6.66 17.62 5.67C20.61 3.66 24.01 2.30003 27.52 1.51003C29.25 1.12003 31.04 0.850032 32.82 0.890032C33.94 0.910032 35.36 1.23001 35.95 2.31001C36.41 3.15001 36.16 4.23 35.32 4.73C34.64 5.12 33.75 5.01 33.2 4.48C33.06 4.46 32.91 4.44001 32.77 4.43001C32.41 4.43001 32.04 4.43003 31.68 4.45003C30.69 4.54003 29.71 4.68001 28.74 4.87001C27.55 5.13001 26.39 5.44003 25.24 5.83003C24.14 6.22003 23.06 6.68003 22.01 7.20003C21.17 7.63003 20.37 8.09 19.58 8.61C18.92 9.07 18.28 9.55002 17.66 10.07C17.13 10.55 16.63 11.06 16.15 11.59C15.61 12.22 15.1 12.88 14.63 13.56C13.68 14.99 12.86 16.52 12.09 18.05C11.1 20.05 10.23 22.1 9.40998 24.18C8.81998 25.67 8.18998 27.16 7.65998 28.68C7.68998 28.61 7.70999 28.54 7.73999 28.46C6.76999 31.26 5.95003 34.08 5.34003 36.98C4.98003 38.81 4.73002 40.66 4.58002 42.53C4.58002 42.48 4.58003 42.43 4.59003 42.38C4.59003 42.44 4.58002 42.5 4.58002 42.56C4.58002 42.58 4.58002 42.6 4.58002 42.62C4.58002 42.61 4.58002 42.6 4.58002 42.58C4.52002 43.76 4.51002 44.93 4.58002 46.11C4.57002 46.03 4.57 45.95 4.56 45.87C4.64 47.04 4.79001 48.21 5.01001 49.36C5.21001 50.27 5.46001 51.16 5.76001 52.05C6.05001 52.84 6.36999 53.61 6.73999 54.36C7.10999 55.07 7.51001 55.75 7.94001 56.42C8.37001 57.04 8.82001 57.63 9.32001 58.21C9.78001 58.71 10.27 59.18 10.78 59.63C10.73 59.58 10.67 59.53 10.61 59.48C11.23 60.01 11.87 60.5 12.54 60.97C13.27 61.45 14.03 61.88 14.81 62.28C16.04 62.88 17.31 63.4 18.6 63.86C20.44 64.48 22.32 64.97 24.22 65.37C26.27 65.77 28.34 66.04 30.43 66.19C32.25 66.3 34.07 66.3 35.9 66.19H35.89C35.9 66.19 35.91 66.19 35.93 66.19C35.96 66.19 36 66.19 36.03 66.18C37.94 66.03 39.84 65.77 41.73 65.39C43.75 64.97 45.74 64.42 47.69 63.75C47.62 63.78 47.54 63.8 47.47 63.83C49.58 63.1 51.63 62.22 53.63 61.24C55.64 60.22 57.58 59.09 59.45 57.84C59.47 57.83 59.49 57.82 59.5 57.8C59.5 57.8 59.51 57.8 59.51 57.79C60.69 56.98 61.83 56.13 62.92 55.2C63.97 54.27 64.96 53.29 65.89 52.24C65.84 52.29 65.79 52.35 65.74 52.41C66.45 51.59 67.1 50.73 67.71 49.84C67.67 49.9 67.62 49.96 67.58 50.03C68.11 49.23 68.6 48.41 69.03 47.55C69.41 46.75 69.74 45.94 70.04 45.1C70.36 44.14 70.62 43.17 70.84 42.18C71.1 40.84 71.27 39.49 71.36 38.14C71.44 36.68 71.45 35.23 71.36 33.78C71.36 33.78 71.36 33.77 71.36 33.76C71.36 33.76 71.36 33.76 71.36 33.77C71.36 33.77 71.36 33.77 71.36 33.76C71.36 33.75 71.36 33.75 71.36 33.74C71.36 33.68 71.35 33.62 71.35 33.56C71.35 33.61 71.35 33.66 71.36 33.71C71.25 32.37 71.08 31.04 70.82 29.71C70.59 28.61 70.29 27.53 69.94 26.46C69.6 25.5 69.23 24.57 68.78 23.66C68.32 22.76 67.81 21.89 67.25 21.06C66.73 20.33 66.19 19.62 65.6 18.95C64.84 18.12 64.03 17.35 63.19 16.6C62.13 15.7 61.01 14.87 59.87 14.08C59.86 14.08 59.86 14.08 59.85 14.07C59.83 14.06 59.82 14.05 59.81 14.04C59.8 14.04 59.79 14.03 59.79 14.03C59.78 14.02 59.77 14.02 59.76 14.01C57.86 12.75 55.9 11.58 53.88 10.55C52.29 9.76 50.68 9.03001 49.02 8.43001C47.32 7.85001 45.56 7.42 43.8 7.04C41.91 6.66 40 6.35003 38.1 6.01003C37.15 5.83003 36.45 5.00003 36.58 4.01003C36.7 3.08003 37.63 2.32001 38.58 2.49001C41.24 2.98001 43.92 3.40005 46.55 4.03005C49.21 4.67005 51.76 5.60004 54.23 6.77004C56.72 7.95004 59.09 9.32003 61.39 10.83C63.62 12.3 65.71 13.95 67.58 15.87C69.36 17.68 70.83 19.81 71.96 22.08C73.16 24.5 73.94 27.09 74.44 29.74C74.94 32.44 75.07 35.2 74.93 37.94C74.79 40.64 74.35 43.3 73.52 45.87C72.72 48.37 71.49 50.66 69.96 52.8C68.42 54.94 66.53 56.82 64.51 58.5C62.43 60.23 60.12 61.71 57.78 63.04C55.42 64.39 52.94 65.55 50.4 66.53C45.31 68.5 39.89 69.61 34.44 69.79C33.99 69.81 33.53 69.81 33.08 69.81C30.73 69.81 28.36 69.61 26.04 69.27Z"
    fill="rgba(191, 192, 191, 1)" />
  <path d="M36.05 66.17C36.03 66.17 36.02 66.17 36 66.17C36.01 66.17 36.03 66.17 36.05 66.17Z"
    fill="rgba(191, 192, 191, 1)" />
  <path d="M4.58002 42.57L4.58002 42.58C4.58002 42.58 4.58002 42.58 4.58002 42.57Z" fill="rgba(191, 192, 191, 1)" />
  <path
    d="M20.31 50.08C19.85 49.29 20.1 48.37 20.76 47.79C20.79 47.77 20.82 47.74 20.85 47.71C20.82 47.74 20.79 47.76 20.76 47.79C22.12 46.43 23.41 45.02 24.72 43.63C26.03 42.24 27.36 40.86 28.69 39.49C29.75 38.4 30.81 37.31 31.87 36.23C30.86 35.19 29.9 34.11 28.94 33.03C28.99 33.09 29.04 33.14 29.09 33.2C28.29 32.29 27.45 31.41 26.55 30.6C26.28 30.38 26.01 30.16 25.73 29.96C25.44 29.77 25.15 29.6 24.84 29.44C24.73 29.39 24.63 29.35 24.52 29.3C24.28 29.22 24.04 29.15 23.79 29.09C22.31 28.74 22.04 26.57 23.36 25.85C23.73 25.65 24.1 25.57 24.51 25.51C25.97 25.19 27.42 24.82 28.86 24.42C30.32 24.01 31.77 23.59 33.25 23.27C34.82 22.93 36.39 22.63 37.98 22.4C39.21 22.23 40.44 22.05 41.69 21.93C42.62 21.84 43.56 21.83 44.49 21.9C45.29 21.96 46.13 22.11 46.69 22.72C47.2 23.27 47.31 23.96 47.07 24.66C46.91 25.11 46.6 25.5 46.29 25.87C46.32 25.99 46.34 26.12 46.37 26.23C46.53 27.09 46.54 28 46.63 28.88C46.78 30.38 46.93 31.87 47.11 33.36C47.44 36.18 47.92 38.98 48.41 41.77C48.44 41.91 48.47 42.06 48.5 42.2C48.55 42.45 48.64 42.68 48.64 42.94C48.64 43.14 48.6 43.32 48.55 43.5C48.35 44.27 47.62 44.79 46.84 44.8C46.33 44.8 45.84 44.66 45.36 44.5C44.95 44.37 44.55 44.23 44.15 44.1C42.41 43.5 40.73 42.79 39.12 41.89C37.45 40.96 35.89 39.85 34.44 38.62C33.35 39.74 32.26 40.85 31.17 41.98C29.79 43.39 28.43 44.81 27.08 46.24C26.45 46.91 25.81 47.59 25.18 48.26C24.64 48.83 24.11 49.42 23.54 49.97C23.46 50.12 23.36 50.26 23.24 50.38C22.9 50.72 22.47 50.86 22.01 50.9C22.08 50.9 22.15 50.89 22.22 50.88C22.28 50.87 22.35 50.85 22.41 50.84C22.37 50.85 22.33 50.86 22.29 50.87C22.14 50.91 21.99 50.92 21.83 50.92C21.23 50.95 20.64 50.64 20.31 50.08ZM39.3 33.79C38.51 34.56 37.73 35.34 36.95 36.11C37.65 36.69 38.37 37.23 39.12 37.75C39.97 38.3 40.84 38.82 41.74 39.29C42.67 39.75 43.63 40.16 44.61 40.52C44.54 40.09 44.48 39.66 44.41 39.23C44.18 37.84 43.98 36.44 43.77 35.04C43.59 33.87 43.47 32.68 43.35 31.5C43.29 30.93 43.24 30.36 43.18 29.79C41.96 31.2 40.62 32.49 39.3 33.79ZM34.36 33.7C35.2 32.85 36.05 32.01 36.91 31.17C38.09 30.02 39.24 28.86 40.36 27.65C40.88 27.04 41.38 26.42 41.88 25.8C41.87 25.72 41.86 25.63 41.86 25.55C41.86 25.52 41.86 25.49 41.86 25.46C39.8 25.65 37.75 26.01 35.7 26.35C34.9 26.51 34.08 26.66 33.3 26.87C32.41 27.11 31.53 27.33 30.64 27.58C30.1 27.73 29.56 27.88 29.02 28.03C30.2 29.06 31.24 30.27 32.25 31.41C32.27 31.43 32.28 31.45 32.3 31.46C32.32 31.48 32.34 31.51 32.36 31.53L32.35 31.52C33 32.27 33.67 33 34.36 33.7Z"
    fill="rgba(191, 192, 191, 1)" />
  <path d="M32.35 31.55C32.35 31.55 32.35 31.56 32.36 31.56L32.35 31.55Z" fill="rgba(191, 192, 191, 1)" />
</svg>