<?xml version="1.0" encoding="UTF-8" standalone="yes"?>
<svg width="67" height="75" viewBox="-40 -40 147 155" fill="none" xmlns="http://www.w3.org/2000/svg">
  <path fill-rule="evenodd" clip-rule="evenodd"
    d="M0.900024 73.64C1.22003 74.19 1.81 74.5 2.42999 74.52C2.44 74.52 2.46002 74.52 2.46002 74.5C3.42535 74.5 4.0805 73.8193 4.71338 73.1618C4.76233 73.1109 4.81116 73.0602 4.85998 73.01C5.31 72.55 5.75 72.07 6.17999 71.59C6.28693 71.4717 6.39386 71.3537 6.50073 71.2357C7.05334 70.6259 7.6037 70.0185 8.14001 69.39C8.79504 68.635 9.45001 67.8825 10.105 67.13C10.7228 66.4203 11.3405 65.7106 11.9583 64.9988C12.0067 64.9466 12.0551 64.8943 12.1027 64.8421C12.1703 64.7681 12.2365 64.694 12.3 64.62C14.86 61.75 17.42 58.88 20.07 56.09C22.76 53.25 25.45 50.42 28.16 47.61C29.65 46.06 31.13 44.52 32.61 42.97C33.0559 42.5091 33.5032 42.051 33.9504 41.5931C34.6965 40.829 35.4421 40.0654 36.18 39.29C36.33 39.135 36.4775 38.9775 36.625 38.82C36.7725 38.6625 36.92 38.505 37.07 38.35C37.1168 38.3905 37.1635 38.431 37.2106 38.4715C37.3145 38.561 37.4199 38.6505 37.53 38.74C39 39.93 40.45 41.14 41.9 42.35C42.6789 43.051 43.4532 43.758 44.2277 44.4652C45.4297 45.5629 46.6324 46.661 47.8531 47.7374C47.8461 47.7323 47.8395 47.7275 47.8331 47.7227C47.8121 47.7043 47.791 47.6858 47.77 47.67C47.79 47.6901 47.8101 47.7056 47.8331 47.7227C47.8521 47.7393 47.871 47.7558 47.89 47.77C47.8777 47.7592 47.8654 47.7483 47.8531 47.7374C47.8585 47.7415 47.8641 47.7456 47.87 47.75C48.05 47.92 48.24 48.1 48.44 48.26C48.5 48.315 48.565 48.37 48.63 48.425C48.695 48.48 48.76 48.535 48.82 48.59C48.86 48.63 48.9 48.66 48.94 48.7C48.9762 48.7453 49.0125 48.7742 49.0562 48.809L49.07 48.82C49.1992 48.9493 49.348 49.0719 49.4953 49.1934C49.5304 49.2223 49.5654 49.2512 49.6 49.28C50.5699 50.19 51.52 51.09 52.45 52.03C53.1996 52.7885 53.9253 53.5868 54.6484 54.3824L54.91 54.67C55.613 55.4537 56.3094 56.2441 57.0049 57.0335C57.5164 57.6139 58.0273 58.1937 58.54 58.77C58.7482 59.0013 58.9542 59.2359 59.1605 59.4709C59.5786 59.947 59.998 60.4247 60.44 60.88L60.5403 60.9823C61.1086 61.5622 61.6973 62.1628 62.5 62.38C62.98 62.51 63.4399 62.45 63.92 62.35C64.35 62.26 64.72 61.93 65.04 61.64C65.43 61.28 65.72 60.75 65.89 60.26C66.06 59.77 66.21 59.29 66.3 58.78C66.52 57.57 66.6 56.34 66.57 55.11C66.54 54.07 66.47 53.03 66.37 51.99L66.3683 51.9732C66.1889 50.0388 66.0095 48.1044 65.85 46.16C65.7766 44.7593 65.7211 43.3586 65.6655 41.9579C65.6378 41.2586 65.61 40.5593 65.58 39.86C65.5293 38.4546 65.4366 37.0545 65.3438 35.652C65.3084 35.1185 65.2731 34.5846 65.24 34.05C65.1483 32.4662 65.1261 30.8824 65.1039 29.2986C65.0995 28.9824 65.095 28.6662 65.09 28.35C65.0746 26.9739 65.0001 25.5978 64.9256 24.2217C64.9032 23.8078 64.8808 23.3939 64.86 22.98C64.8477 22.7375 64.8343 22.4943 64.8208 22.2508C64.7793 21.5 64.7375 20.745 64.73 19.99C64.72 19.07 64.74 18.15 64.79 17.23C64.8229 16.8516 64.8612 16.472 64.8996 16.0917C64.9779 15.3165 65.0565 14.5383 65.09 13.76C65.1432 12.7676 65.0707 11.7909 64.9979 10.8089C64.9885 10.6827 64.9791 10.5564 64.97 10.43C64.95 9.75001 64.95 9.08001 65 8.40001C65.0202 8.18998 65.0433 7.97923 65.0665 7.76809C65.1923 6.62208 65.3193 5.46465 64.99 4.35001C64.985 4.335 64.98 4.3175 64.975 4.3C64.97 4.2825 64.965 4.26501 64.96 4.25001C65.24 3.43001 65.31 2.53002 64.76 1.79001C64.21 1.04001 63.32 0.610018 62.39 0.620013C60.8317 0.644366 59.3326 1.12326 57.8501 1.59687C57.506 1.70678 57.1628 1.81641 56.82 1.92001C55.83 2.21001 54.85 2.49001 53.85 2.74001C52.4006 3.11183 50.9398 3.43183 49.4761 3.75244C49.0109 3.85434 48.5455 3.9563 48.08 4.06001C46.1615 4.49272 44.2566 4.96347 42.3525 5.43402C40.6042 5.86606 38.8567 6.29793 37.1 6.70001C33.34 7.56001 29.58 8.42001 25.85 9.38001C25.2706 9.52755 24.6879 9.67084 24.104 9.81442C20.8887 10.605 17.6382 11.4043 14.71 12.97C13.97 13.37 13.28 13.96 13.05 14.8C12.8 15.69 13.16 16.66 13.75 17.34C14.58 18.29 15.54 19.12 16.51 19.92C17.0659 20.3814 17.6232 20.8399 18.1804 21.2983C19.0965 22.0519 20.0121 22.8052 20.92 23.57C22.19 24.69 23.44 25.83 24.68 26.98C25.4848 27.7252 26.2968 28.4669 27.1096 29.2093C27.66 29.7121 28.2108 30.2152 28.76 30.72C29.5526 31.4516 30.336 32.1894 31.1187 32.9265C31.7481 33.5193 32.3771 34.1116 33.01 34.7C33.2457 34.9207 33.4839 35.1414 33.7222 35.362C33.9589 35.5814 34.1957 35.8007 34.43 36.02C33.3295 37.1784 32.2151 38.323 31.1 39.4683C30.0974 40.4981 29.0942 41.5284 28.1 42.57C27.2064 43.5036 26.3118 44.4361 25.4171 45.3685C23.6284 47.2327 21.8398 49.0969 20.06 50.97C17.4 53.77 14.78 56.59 12.19 59.45C9.71027 62.1954 7.27899 64.9989 4.85797 67.8033C4.83014 67.8333 4.80231 67.8656 4.77447 67.8987C4.59741 68.0957 4.41894 68.2926 4.24048 68.4895C4.02283 68.7297 3.80518 68.9698 3.59003 69.21C3.38 69.45 3.14996 69.69 2.92999 69.92C2.47998 69.98 2.05005 70.2 1.78003 70.59C1.6756 70.7412 1.56732 70.8899 1.45886 71.0387C1.26605 71.3033 1.07281 71.5685 0.900024 71.85C0.570007 72.39 0.580016 73.1 0.900024 73.64ZM4.80286 67.8672C4.82117 67.8459 4.83966 67.8246 4.85797 67.8033C4.86865 67.7918 4.87933 67.7807 4.89001 67.77C4.86102 67.8024 4.83197 67.8348 4.80286 67.8672ZM4.80286 67.8672C4.78186 67.8915 4.76092 67.9157 4.73999 67.94C4.75146 67.9262 4.763 67.9124 4.77447 67.8987C4.78393 67.8882 4.7934 67.8777 4.80286 67.8672ZM59.3234 54.3175C58.8548 53.785 58.385 53.2512 57.91 52.72C56.0394 50.6351 54.1309 48.5882 52.0179 46.718C51.9599 46.66 51.8967 46.6022 51.832 46.5482C51.6545 46.3852 51.4761 46.2119 51.29 46.07C51.23 46.015 51.1675 45.9625 51.105 45.91C51.0425 45.8575 50.98 45.805 50.92 45.75C50.89 45.71 50.84 45.68 50.8 45.64C50.7599 45.59 50.71 45.56 50.67 45.52C50.53 45.38 50.36 45.24 50.2 45.11L50.0432 44.9688C48.9963 44.0267 47.9581 43.0925 46.92 42.14C46.7722 42.0032 46.6243 41.8659 46.4764 41.7285C45.6833 40.9919 44.8859 40.2511 44.06 39.56C43.4635 39.0616 42.8654 38.5648 42.267 38.0676C41.3406 37.298 40.4135 36.5277 39.49 35.75C41.09 34 42.67 32.22 44.22 30.43C45.0744 29.4464 45.9133 28.4524 46.7516 27.4592C47.0809 27.0692 47.41 26.6792 47.74 26.29C47.9348 26.0569 48.1298 25.824 48.3248 25.5912C49.4011 24.3057 50.4771 23.0208 51.51 21.7C52.4918 20.4526 53.4348 19.1858 54.3806 17.9152C54.61 17.607 54.8396 17.2985 55.07 16.99C56.21 15.45 57.44 13.99 58.68 12.54C58.9155 12.2683 59.1516 11.9966 59.3879 11.7247C60.0648 10.9459 60.7429 10.1657 61.41 9.38001C61.3901 10.2118 61.4587 11.0338 61.528 11.8655L61.53 11.89C61.57 12.55 61.5699 13.19 61.55 13.84C61.5103 14.347 61.465 14.854 61.4197 15.3613C61.3283 16.3851 61.2368 17.4103 61.19 18.44C61.132 19.6925 61.2046 20.9587 61.2767 22.2159C61.2915 22.4744 61.3063 22.7325 61.32 22.99C61.3338 23.2499 61.3478 23.5094 61.3619 23.7688C61.4295 25.0166 61.4969 26.2599 61.53 27.51C61.5482 28.169 61.556 28.828 61.5639 29.4871C61.5733 30.278 61.5827 31.069 61.61 31.86C61.68 33.83 61.8 35.79 61.93 37.75C62.034 39.2378 62.0868 40.7256 62.1396 42.2134C62.1528 42.5856 62.166 42.9578 62.18 43.33C62.2675 45.6729 62.472 48.0041 62.6767 50.3358C62.7996 51.7361 62.9225 53.1367 63.02 54.54C63.05 55.31 63.04 56.06 63 56.83C62.96 57.31 62.9 57.78 62.82 58.24V58.25C62.3032 57.7052 61.8058 57.1361 61.311 56.5698C61.0973 56.3253 60.8841 56.0813 60.67 55.84C60.2199 55.3361 59.7722 54.8274 59.3234 54.3175ZM51.9236 46.6347C51.8999 46.6131 51.8759 46.5916 51.85 46.57C51.8745 46.5915 51.8992 46.6131 51.9236 46.6347ZM54.524 6.25203C55.2855 6.05957 56.051 5.86609 56.81 5.64001C57.2767 5.50068 57.7422 5.35529 58.2083 5.20974C59.0802 4.93744 59.9537 4.66461 60.84 4.43001C59.93 5.71002 58.9 6.91001 57.88 8.09001L57.5002 8.52629C56.5573 9.60929 55.6169 10.6891 54.7 11.8C53.4 13.37 52.16 14.99 50.94 16.63L50.6882 16.9667C49.7031 18.2842 48.7205 19.5983 47.67 20.87C45.1899 23.86 42.68 26.83 40.13 29.77C39.7618 30.1783 39.3937 30.5877 39.0256 30.9971C38.2938 31.8111 37.5619 32.625 36.83 33.43C36.09 32.76 35.36 32.07 34.63 31.38C32.5816 29.4398 30.502 27.5361 28.4213 25.6312C27.6171 24.895 26.8128 24.1587 26.01 23.42C24.54 22.06 23.04 20.76 21.52 19.47C20.9384 18.9753 20.3493 18.4918 19.76 18.0082C18.9915 17.3775 18.2227 16.7466 17.47 16.09C17.35 15.98 17.23 15.87 17.11 15.75C17.9 15.39 18.71 15.08 19.53 14.78C21.8304 14.0577 24.1738 13.471 26.5169 12.8844C27.1583 12.7239 27.7996 12.5633 28.44 12.4C30.9458 11.7626 33.4669 11.1863 35.9833 10.611C36.349 10.5273 36.7146 10.4438 37.08 10.36C38.91 9.94001 40.74 9.51001 42.56 9.06001C43.0049 8.94937 43.4498 8.83762 43.895 8.72581C45.3409 8.36264 46.7896 7.99878 48.25 7.67001C48.7297 7.56508 49.2094 7.45766 49.689 7.35023C50.1693 7.24266 50.6497 7.13508 51.13 7.03001C51.4052 6.96918 51.6812 6.91004 51.9573 6.85086C52.6345 6.70575 53.3123 6.5605 53.98 6.39001C54.161 6.34379 54.3424 6.29794 54.524 6.25203ZM47.73 47.64C47.7391 47.6492 47.7484 47.6563 47.7566 47.6632C47.7485 47.6536 47.7407 47.6454 47.73 47.64ZM47.7566 47.6632C47.7582 47.6651 47.7599 47.6672 47.7616 47.6692C47.7671 47.6758 47.7729 47.6829 47.78 47.69C47.7746 47.6792 47.7663 47.6713 47.7566 47.6632Z"
    fill="rgba(191, 192, 191, 1)" />
</svg>