<?xml version="1.0" encoding="UTF-8" standalone="yes"?>
<svg width="69" height="74" viewBox="-40 -40 149 154" fill="none" xmlns="http://www.w3.org/2000/svg">
  <path
    d="M64.36 58.35C64.2 54.43 64.32 50.53 64.47 46.61C64.51 45.52 64.61 44.42 64.69 43.32C64.74 42.56 64.79 41.79 64.83 41.03C64.89 40.01 65.01 38.99 65.02 37.98C65.04 36.84 65.06 35.71 65.07 34.57C65.1 32.86 65.06 31.13 64.98 29.42C64.89 27.3 64.8 25.19 64.72 23.08C64.66 21.35 64.65 19.63 64.61 17.9C64.58 16.79 64.56 15.69 64.53 14.58C64.51 13.56 64.41 12.54 64.34 11.53C64.14 9.73002 63.96 7.94002 63.63 6.16002C63.56 5.84002 63.48 5.53002 63.38 5.22002C62.93 5.09002 62.47 4.99002 62 4.88002C61.31 4.75002 60.62 4.63003 59.92 4.54003C59.17 4.45003 58.42 4.40001 57.67 4.34001C53.69 4.27001 49.72 4.42001 45.74 4.49001C44.05 4.52001 42.36 4.52002 40.67 4.56002C39.56 4.59002 38.46 4.61003 37.35 4.64003C36.26 4.66003 35.16 4.76003 34.06 4.82002C34.01 4.82002 33.97 4.82 33.92 4.83C32.41 4.97 30.91 5.12003 29.4 5.26003C28.65 5.33003 27.91 5.40002 27.16 5.44002C26.44 5.48002 25.73 5.55001 25.01 5.55001C24.08 5.56001 23.15 5.57002 22.22 5.57002C21.47 5.58003 20.71 5.48001 19.96 5.43001C18.4 5.33001 16.87 5.09002 15.32 4.94002C15.29 4.94002 15.27 4.94002 15.24 4.94002C14.97 4.99002 14.7 4.99003 14.44 4.92003C14 4.80003 13.61 4.5 13.38 4.11C13.13 3.68 13.1 3.22001 13.2 2.74001C13.34 2.07001 14.03 1.50002 14.7 1.44002C15.43 1.37002 16.15 1.48002 16.87 1.57002C17.74 1.68002 18.6 1.77001 19.47 1.87001C20.23 1.92001 20.98 1.97001 21.74 2.02001C22.37 2.06001 23 2.03002 23.63 2.03002C23.81 2.03002 23.99 2.03002 24.16 2.03002C24.64 2.03002 25.11 2.03002 25.59 2.00002C26.38 1.95002 27.16 1.91002 27.95 1.85002C28.78 1.76002 29.62 1.68002 30.45 1.60002C31.54 1.50002 32.62 1.36001 33.71 1.30001C34.8 1.24001 35.9 1.18001 37 1.12001C37.91 1.07001 38.83 1.07001 39.74 1.05001C43.65 0.960005 47.55 0.940014 51.45 0.840014C55.25 0.750014 59.12 0.61003 62.85 1.45003C63.23 1.53003 63.6 1.61001 63.96 1.71001C64.35 1.81001 64.72 1.93001 65.08 2.09001C65.54 2.30001 65.9 2.65001 66.2 3.05001C66.85 3.94001 67.02 5.14002 67.22 6.19002C67.32 6.74002 67.39 7.31 67.47 7.86C67.77 9.87 67.88 11.89 68.01 13.91C68.12 15.64 68.12 17.38 68.15 19.12C68.19 21.25 68.25 23.37 68.33 25.5C68.39 27.22 68.49 28.95 68.53 30.67C68.55 31.67 68.62 32.67 68.6 33.67C68.58 34.85 68.56 36.02 68.55 37.2C68.52 38.91 68.37 40.63 68.27 42.34C68.17 43.96 68.03 45.57 67.96 47.19C67.82 50.91 67.73 54.62 67.88 58.34C67.92 59.3 67.04 60.11 66.11 60.11C65.14 60.12 64.4 59.31 64.36 58.35Z"
    fill="rgba(191, 192, 191, 1)" />
  <path
    d="M45.67 71.67C45.55 71.01 45.6 70.34 45.6 69.68C45.61 69.23 45.62 68.78 45.63 68.33C45.66 67.27 45.72 66.21 45.77 65.15C45.88 63.15 46.18 61.15 46.45 59.16C46.68 57.45 46.99 55.76 47.25 54.05C47.43 52.88 47.61 51.71 47.78 50.53C47.92 49.64 47.99 48.73 48.08 47.83C48.16 47.12 48.24 46.42 48.31 45.72C48.41 44.22 48.51 42.72 48.61 41.23C48.71 39.73 48.74 38.21 48.8 36.71C48.86 35.26 48.94 33.82 49.02 32.37C49.16 29.9 49.39 27.41 49.26 24.94C49.23 24.59 49.18 24.25 49.12 23.9C49.1 23.82 49.08 23.74 49.06 23.66C49.06 23.66 49.06 23.66 49.06 23.65C49.03 23.64 49.01 23.63 48.97 23.63C48.18 23.49 47.39 23.35 46.6 23.22C45.74 23.08 44.87 23.01 44 22.93C42.07 22.87 40.14 22.84 38.21 22.76C36.32 22.68 34.44 22.52 32.56 22.29C28.61 21.8 24.67 21.22 20.7 20.86C20.17 20.82 19.64 20.77 19.11 20.72C17.91 20.65 16.71 20.57 15.52 20.51C14.18 20.45 12.84 20.4 11.51 20.3C10.66 20.23 9.80003 20.16 8.95003 20.09C8.38003 20.04 7.81003 19.95 7.24003 19.87C6.59003 19.78 5.94003 19.7 5.29003 19.56C4.43003 19.38 3.58003 19.21 2.72003 19.01C2.62003 18.99 2.53003 18.97 2.43003 18.96C2.41003 18.96 2.38003 18.96 2.36003 18.96C1.40003 18.96 0.590027 18.15 0.590027 17.19C0.590027 16.57 0.930032 15.97 1.47003 15.66C2.14003 15.28 2.89003 15.42 3.59003 15.58C4.45003 15.78 5.31003 15.96 6.17003 16.13C6.69003 16.21 7.21003 16.28 7.72003 16.36C8.14003 16.42 8.57003 16.51 8.99003 16.54C10.04 16.63 11.09 16.71 12.13 16.79C14.07 16.89 16.01 16.99 17.94 17.1C18.8 17.15 19.66 17.21 20.52 17.28C21.49 17.37 22.47 17.43 23.44 17.55C25.56 17.81 27.68 18.07 29.79 18.35C31.54 18.59 33.29 18.83 35.06 18.98C35.79 19.04 36.51 19.1 37.24 19.16C39.11 19.23 40.97 19.28 42.84 19.33C43.82 19.36 44.8 19.38 45.77 19.51C46.69 19.63 47.59 19.78 48.5 19.94C48.92 20.01 49.35 20.07 49.77 20.16C50.66 20.36 51.53 20.83 52 21.64C52.55 22.59 52.72 23.66 52.78 24.74C52.86 26.06 52.83 27.38 52.76 28.71C52.65 30.69 52.53 32.66 52.44 34.64C52.34 36.69 52.25 38.75 52.16 40.8C52.12 41.58 52.07 42.35 52.02 43.12C51.95 44.13 51.93 45.16 51.82 46.17C51.62 47.99 51.45 49.82 51.18 51.63C50.86 53.75 50.54 55.88 50.2 57.99C50 59.22 49.84 60.44 49.67 61.67C49.51 62.85 49.4 64.03 49.29 65.21C49.19 67.1 49.09 69 49.11 70.89C49.13 70.98 49.14 71.06 49.16 71.14C49.34 72.09 48.56 73.01 47.64 73.13C47.55 73.14 47.47 73.15 47.39 73.15C46.54 73.2 45.83 72.53 45.67 71.67Z"
    fill="rgba(191, 192, 191, 1)" />
</svg>