<?xml version="1.0" encoding="UTF-8" standalone="yes"?>
<svg width="80" height="80" viewBox="-40 -40 160 160" fill="none" xmlns="http://www.w3.org/2000/svg">
  <path
    d="M16.44 79.59C15.89 79.41 15.36 79.16 14.85 78.88C14.28 78.57 13.73 78.21 13.21 77.81C12.26 77.06 11.34 76.3 10.48 75.46C9.61996 74.63 8.76999 73.79 7.87999 73C7.92999 73.05 7.98997 73.1 8.04997 73.15C6.68997 71.99 5.23001 70.93 3.96001 69.68C3.26001 69 2.61996 68.27 1.97996 67.52C1.68996 67.18 1.39997 66.85 1.10997 66.52C0.429969 65.73 -0.0100161 64.6 -1.61442e-05 63.55C0.00998386 63.01 0.0599936 62.48 0.259994 61.98C0.439994 61.5 0.689955 61.09 0.969955 60.67C1.47995 59.92 2.15997 59.28 2.79997 58.64C3.45997 57.98 4.12999 57.34 4.81999 56.71C6.16999 55.48 7.45996 54.15 8.90996 53.03C9.83996 52.31 10.8 51.61 11.75 50.92C12.77 50.19 13.8 49.49 14.81 48.75C15.74 48.07 16.63 47.33 17.54 46.63C18.49 45.9 19.42 45.14 20.32 44.35C20.26 44.4 20.21 44.45 20.15 44.5C21.14 43.62 22.11 42.73 23.14 41.88C24.23 40.98 25.36 40.17 26.56 39.42C27.69 38.72 28.86 38.08 29.99 37.37C31.04 36.72 32.08 36.07 33.11 35.38C33.12 35.37 33.13 35.36 33.14 35.36C33.19 35.32 33.24 35.29 33.28 35.26C33.26 35.28 33.23 35.29 33.21 35.31C34.24 34.61 35.28 33.94 36.31 33.25C36.29 33.26 36.27 33.27 36.26 33.29C37 32.79 37.75 32.31 38.53 31.87C39.28 31.45 40.01 30.98 40.73 30.51C41.53 29.95 42.34 29.39 43.12 28.8C43.9 28.2 44.67 27.59 45.45 27C46.22 26.43 47.01 25.84 47.86 25.38C48.63 24.97 49.48 24.72 50.27 24.34C50.92 24.01 51.57 23.67 52.21 23.33C52.53 23.16 52.87 22.99 53.17 22.79C52.37 22.05 51.71 21.15 51.01 20.31C50.51 19.76 50.01 19.23 49.48 18.71C48.55 17.9 47.6 17.13 46.64 16.35C46.17 15.97 45.73 15.59 45.34 15.12C44.87 14.55 44.7 13.8 44.7 13.07C44.7 11.46 46.13 10.35 47.4 9.64C48.45 9.05 49.58 8.64 50.71 8.22C51.31 8 51.92 7.80001 52.53 7.60001C53.82 7.19001 55.1 6.78 56.37 6.34C58.3 5.62 60.21 4.88001 62.16 4.24001C64.11 3.60001 66.07 3.06001 68.02 2.44001C69.7 1.85001 71.36 1.09 73.11 0.750003C74.1 0.560003 75.23 0.469997 76.18 0.899997C77.19 1.35 77.93 2.05 78.51 2.98C79.03 3.8 79.3 4.84 79.45 5.79C79.53 6.33 79.61 6.85 79.66 7.39C79.82 8.92 79.87 10.46 79.65 11.98C79.45 13.34 79.04 14.68 78.66 16C78.18 17.71 77.71 19.42 77.34 21.16C77.06 22.61 76.78 24.05 76.47 25.49C76.32 26.2 76.18 26.92 76 27.63C75.79 28.44 75.52 29.22 75.22 30.01C74.97 30.66 74.68 31.3 74.38 31.92C74.15 32.39 73.89 32.85 73.58 33.27C73.36 33.58 73.11 33.86 72.81 34.09C72.48 34.35 72.12 34.48 71.72 34.61C70.93 34.85 69.98 34.64 69.24 34.34C68.59 34.07 67.97 33.76 67.37 33.41C66.8 33.09 66.26 32.72 65.78 32.29C65.49 32.03 65.21 31.77 64.92 31.5C64.73 31.34 64.53 31.18 64.33 31.03C64.31 31.01 64.28 31 64.26 30.99C64.06 30.93 63.85 30.88 63.65 30.83C63.31 30.78 62.98 30.74 62.65 30.7C62.28 30.68 61.92 30.66 61.55 30.67C61.46 30.68 61.37 30.69 61.27 30.71C61.2 30.73 61.13 30.75 61.06 30.76C60.98 30.79 60.9 30.82 60.83 30.86C60.76 30.9 60.68 30.94 60.61 30.99C60.44 31.11 60.29 31.23 60.13 31.36C59.5 31.95 58.92 32.59 58.32 33.21C57.82 33.73 57.3 34.23 56.79 34.74C55.86 35.65 54.89 36.51 54 37.46C53.29 38.29 52.59 39.14 51.84 39.93C51.11 40.7 50.31 41.4 49.51 42.1C48.85 42.69 48.2 43.3 47.58 43.93C47.03 44.58 46.52 45.25 46.03 45.94C45.52 46.66 45.04 47.4 44.54 48.13C43.54 49.58 42.48 50.97 41.35 52.33C40.2 53.71 39.09 55.15 38.01 56.59C36.96 57.99 35.77 59.26 34.61 60.57C34.66 60.52 34.71 60.46 34.76 60.4C33.63 61.75 32.6 63.18 31.5 64.55C30.46 65.84 29.51 67.18 28.56 68.53C28.06 69.25 27.54 69.95 26.99 70.63C26.47 71.26 25.94 71.88 25.42 72.5C24.28 73.86 23.25 75.28 22.26 76.75C22.3 76.69 22.35 76.63 22.39 76.56C22.06 77.05 21.75 77.55 21.41 78.04C21.29 78.21 21.18 78.38 21.05 78.54C20.84 78.83 20.56 79.06 20.29 79.29C19.83 79.68 19.2 79.84 18.62 79.91C18.49 79.93 18.36 79.93 18.23 79.93C17.62 79.95 17.01 79.79 16.44 79.59ZM6.93999 67.63C8.06999 68.6 9.25999 69.51 10.38 70.5C11.55 71.54 12.63 72.67 13.79 73.72C14.47 74.29 15.16 74.85 15.88 75.38C16.19 75.58 16.51 75.76 16.83 75.94C17.05 76.04 17.26 76.13 17.49 76.22C17.69 76.28 17.88 76.34 18.08 76.39C18.13 76.39 18.18 76.4 18.23 76.41C18.35 76.26 18.46 76.1 18.57 75.94C19.57 74.42 20.57 72.91 21.68 71.48C22.76 70.09 24 68.83 25.04 67.4C26.11 65.92 27.11 64.38 28.25 62.95C28.82 62.24 29.4 61.52 29.95 60.78C30.52 60.04 31.07 59.29 31.67 58.57C32.37 57.73 33.13 56.93 33.86 56.11C33.81 56.16 33.76 56.22 33.71 56.28C34.87 54.92 35.91 53.48 37.01 52.07C38.13 50.64 39.31 49.26 40.41 47.8C41.5 46.35 42.47 44.83 43.51 43.35C44.07 42.55 44.68 41.8 45.36 41.1C46.04 40.39 46.79 39.75 47.53 39.1C47.62 39.03 47.7 38.95 47.79 38.87C48.47 38.25 49.12 37.61 49.75 36.94C50.25 36.35 50.75 35.76 51.25 35.17C51.86 34.47 52.53 33.83 53.21 33.19C54.42 32.05 55.6 30.89 56.74 29.69C57.47 28.93 58.22 28.21 59.16 27.71C59.95 27.29 60.81 27.14 61.69 27.1C62.19 27.08 62.73 27.13 63.23 27.18C63.71 27.23 64.18 27.3 64.64 27.41C64.97 27.49 65.31 27.58 65.63 27.71C65.92 27.83 66.18 28.01 66.45 28.19C67.09 28.63 67.63 29.2 68.21 29.72C68.31 29.8 68.41 29.88 68.51 29.95C68.95 30.24 69.41 30.5 69.88 30.74C70.11 30.85 70.34 30.95 70.58 31.05C70.63 31.07 70.69 31.09 70.75 31.1C70.9 30.86 71.04 30.61 71.18 30.37C71.59 29.51 71.94 28.64 72.27 27.75C72.7 26.35 72.97 24.91 73.27 23.47C73.63 21.67 73.97 19.86 74.4 18.08C74.89 16.05 75.6 14.06 76.04 12.02C76.12 11.57 76.18 11.14 76.22 10.69C76.25 10.12 76.24 9.56 76.22 8.98C76.15 7.99 76.07 7.01 75.88 6.03C75.81 5.74 75.73 5.46 75.64 5.17C75.61 5.09 75.58 5.02001 75.54 4.94001C75.49 4.85001 75.45 4.76 75.39 4.67C75.34 4.6 75.29 4.53 75.25 4.47C75.2 4.42 75.16 4.37 75.11 4.33C75.07 4.31 75.04 4.28 75.01 4.26C74.97 4.24 74.94 4.22 74.91 4.2C74.89 4.19 74.87 4.18 74.86 4.18C74.83 4.17 74.8 4.16 74.77 4.15C74.72 4.14 74.67 4.13001 74.62 4.13001C74.54 4.13001 74.47 4.13001 74.39 4.13001C74.18 4.15001 73.97 4.18 73.76 4.22C73.22 4.35 72.71 4.51 72.19 4.68C71.35 4.99 70.51 5.32 69.66 5.61C68.73 5.93 67.8 6.22001 66.86 6.49001C65.07 7.01001 63.29 7.58001 61.52 8.19001C60.01 8.75001 58.5 9.33 56.98 9.86C55.39 10.41 53.77 10.91 52.16 11.45C51.21 11.81 50.27 12.16 49.36 12.61C49.1 12.75 48.85 12.9 48.6 13.06C48.54 13.11 48.48 13.15 48.42 13.2C49.55 14.13 50.69 15.04 51.79 16C53.04 17.08 54.06 18.41 55.13 19.66C55.38 19.95 55.65 20.22 55.93 20.48C55.98 20.53 56.04 20.57 56.11 20.62C56.16 20.66 56.21 20.69 56.26 20.71C56.31 20.73 56.37 20.76 56.42 20.78C56.51 20.81 56.6 20.83 56.68 20.85C56.79 20.87 56.9 20.89 57.01 20.89C57.97 20.97 58.65 21.97 58.53 22.89C58.4 23.83 57.59 24.41 56.69 24.41C56.39 24.68 56.1 24.96 55.79 25.22C55.37 25.59 54.91 25.88 54.42 26.15C53.8 26.49 53.17 26.8 52.54 27.13C52.02 27.4 51.5 27.67 50.97 27.9C50.54 28.09 50.09 28.23 49.65 28.42C49.33 28.6 49.02 28.81 48.71 29.01C47.13 30.1 45.66 31.33 44.09 32.46C43.21 33.08 42.32 33.69 41.4 34.27C40.55 34.8 39.66 35.26 38.82 35.82C38.88 35.78 38.94 35.73 39.01 35.69C38.03 36.35 37.05 37 36.06 37.65C36.12 37.61 36.18 37.56 36.25 37.52C34.83 38.49 33.39 39.41 31.94 40.33C30.49 41.25 28.98 42.06 27.55 42.99C26.42 43.76 25.37 44.63 24.34 45.51C23.29 46.45 22.25 47.41 21.15 48.3C19.99 49.24 18.8 50.14 17.62 51.05C16.43 51.98 15.17 52.8 13.95 53.69C12.75 54.56 11.55 55.42 10.42 56.37C10.47 56.32 10.53 56.27 10.59 56.22C9.61001 57.1 8.65999 58.01 7.68999 58.89C6.53999 59.93 5.39001 61 4.34001 62.14C4.14001 62.37 3.95 62.62 3.77 62.87C3.74 62.92 3.70998 62.98 3.67998 63.04C3.65998 63.08 3.64999 63.11 3.62999 63.15C3.61999 63.19 3.60996 63.22 3.59996 63.25C3.59996 63.28 3.59001 63.3 3.59001 63.33C3.59001 63.38 3.59001 63.44 3.59001 63.49C3.59001 63.54 3.59997 63.6 3.60997 63.66C3.62997 63.74 3.64998 63.82 3.67998 63.91C3.69998 63.96 3.71997 64 3.73997 64.05C3.73997 64.06 3.74998 64.06 3.74998 64.07C3.73998 64.05 3.73001 64.02 3.71001 64C3.74001 64.04 3.75996 64.09 3.78996 64.13C4.19996 64.67 4.66997 65.17 5.10997 65.67C5.09997 65.66 5.08999 65.65 5.06999 65.63C5.10999 65.67 5.13998 65.71 5.17998 65.75C5.18998 65.77 5.20995 65.78 5.21995 65.8C5.20995 65.79 5.2 65.78 5.2 65.77C5.73 66.44 6.30999 67.06 6.93999 67.63Z"
    fill="rgba(191, 192, 191, 1)" />
  <path d="M5.07001 65.7C5.08001 65.71 5.09003 65.72 5.09003 65.72C5.08003 65.71 5.07001 65.71 5.07001 65.7Z"
    fill="rgba(191, 192, 191, 1)" />
  <path d="M49.53 42.07C49.52 42.08 49.51 42.09 49.5 42.09C49.51 42.08 49.52 42.07 49.53 42.07Z"
    fill="rgba(191, 192, 191, 1)" />
  <path d="M33.11 35.38C33.12 35.38 33.12 35.37 33.13 35.37C33.12 35.37 33.11 35.38 33.11 35.38Z"
    fill="rgba(191, 192, 191, 1)" />
</svg>