<?xml version="1.0" encoding="UTF-8" standalone="yes"?>
<svg width="79" height="81" viewBox="-40 -40 159 161" fill="none" xmlns="http://www.w3.org/2000/svg">
  <path fill-rule="evenodd" clip-rule="evenodd"
    d="M8.11767 79.9276C8.10852 79.9184 8.09997 79.9092 8.09997 79.9C8.44995 80.29 8.92993 80.52 9.44995 80.55C9.66992 80.55 9.90002 80.5 10.13 80.41C10.98 80.05 11.4899 78.96 11.0699 78.09C10.71 77.35 10.08 76.95 9.41003 76.55C9.25 76.44 9.08996 76.31 8.93005 76.19C8.88476 76.1447 8.83947 76.0969 8.79418 76.0491C8.74938 76.0019 8.70471 75.9547 8.66003 75.91C8.34997 75.56 8.07006 75.18 7.80004 74.8C7.37231 74.1348 6.98095 73.4514 6.61694 72.7587C6.60449 72.7304 6.59143 72.7043 6.57519 72.6758C6.56738 72.6603 6.5592 72.6452 6.55004 72.63C6.55004 72.6259 6.54956 72.6222 6.54882 72.6187L6.55004 72.62L6.54834 72.6165C6.54626 72.6087 6.54235 72.6021 6.53784 72.5943C6.5354 72.59 6.53271 72.5854 6.53002 72.58C6.01843 71.5625 5.57495 70.516 5.18994 69.44C4.92993 68.63 4.68994 67.81 4.51 66.97C4.36999 66.22 4.25988 65.45 4.19995 64.68C4.15991 63.95 4.15991 63.23 4.19995 62.5C4.24987 61.92 4.32995 61.34 4.43994 60.77C4.56994 60.22 4.70996 59.68 4.89001 59.14C5.06994 58.68 5.24987 58.24 5.45996 57.8C5.55212 57.6404 5.64428 57.4807 5.73864 57.3234C5.79797 57.2245 5.85827 57.1265 5.92004 57.03C6.10998 56.77 6.29992 56.52 6.5 56.28L7.04003 55.74C7.28002 55.53 7.54003 55.34 7.80004 55.15C8.01 55.01 8.21997 54.89 8.43994 54.77C8.73986 54.63 9.0299 54.51 9.32995 54.4C9.61987 54.31 9.91992 54.23 10.22 54.16C10.5699 54.1 10.93 54.06 11.29 54.02C11.48 54.01 11.6699 54 11.86 54C11.87 54.44 11.88 54.88 11.91 55.33C12.0699 58.03 12.35 60.79 13.13 63.39C13.51 64.66 14 65.96 14.74 67.07C15.3999 68.05 16.15 68.94 17.02 69.74C18.01 70.65 19.1 71.49 20.26 72.18C21.29 72.79 22.37 73.24 23.5601 73.41C24.67 73.56 25.7999 73.29 26.74 72.71C27.5499 72.2 28.23 71.25 28.43 70.3C28.97 67.83 28.4501 65.24 27.55 62.92C27.0701 61.7 26.5 60.51 25.86 59.36C25.2799 58.3 24.63 57.25 23.9 56.29C23.11 55.26 22.1999 54.27 21.15 53.5C20.1999 52.81 19.1799 52.22 18.1 51.77C17.2599 51.41 16.38 51.11 15.48 50.89C15.58 49.83 15.73 48.79 15.93 47.75C16.17 46.66 16.4501 45.59 16.8 44.54C17.11 43.68 17.46 42.84 17.86 42.02C18.1699 41.43 18.5 40.86 18.86 40.31C19.08 40 19.3 39.71 19.54 39.42C19.79 39.15 20.04 38.89 20.3101 38.64C20.55 38.44 20.8 38.25 21.05 38.07C21.25 37.94 21.46 37.82 21.67 37.71C21.99 37.56 22.3099 37.42 22.65 37.3C22.96 37.2 23.2799 37.11 23.6 37.04C24.3899 36.89 25.1999 36.78 26.01 36.72H26.0601C26.0797 36.7151 26.0994 36.7126 26.1202 36.7113C26.1417 36.71 26.1645 36.71 26.1899 36.71C26.1811 36.7122 26.1722 36.7139 26.1634 36.7153C26.1323 36.7168 26.1011 36.7184 26.0699 36.72C26.1011 36.72 26.1322 36.72 26.1634 36.7153C27.2916 36.6595 28.4109 36.6513 29.53 36.7C29.0601 39.32 28.9399 41.98 29.1 44.65C29.2599 47.29 29.76 49.98 30.87 52.39C31.87 54.56 33.26 56.53 35.12 58.05C36.98 59.58 39.2399 60.61 41.6899 60.47C42.9299 60.39 44.16 60.05 45.27 59.48C46.23 58.99 47.14 58.35 47.8 57.49C48.54 56.53 49.05 55.37 49.17 54.16C49.3 52.94 49.2599 51.71 49.09 50.49C48.7499 48.02 48.0699 45.5 46.83 43.31C45.58 41.09 43.8201 39.16 41.8101 37.59C39.8301 36.05 37.6299 34.82 35.21 34.11C34.7799 33.98 34.35 33.87 33.91 33.77C34.02 33.4 34.14 33.02 34.27 32.65C34.24 32.73 34.22 32.8 34.1899 32.87C34.5199 31.92 34.8999 31 35.34 30.09C35.73 29.33 36.16 28.6 36.63 27.89C36.98 27.39 37.36 26.91 37.75 26.45V26.46C38.0699 26.1 38.4 25.76 38.76 25.43C39.1 25.14 39.4501 24.87 39.8101 24.61C40.17 24.38 40.53 24.16 40.91 23.96C41.49 23.68 42.09 23.43 42.6999 23.21C43.3599 23 44.0299 22.82 44.71 22.67C45.49 22.52 46.2799 22.41 47.08 22.35C47.98 22.31 48.87 22.31 49.77 22.36C50.37 22.41 50.97 22.48 51.5699 22.56C51.2899 23.15 51.04 23.75 50.8101 24.36C50.651 24.8016 50.5076 25.2511 50.3661 25.6945L50.3101 25.87C50 26.79 49.75 27.73 49.61 28.69C49.4299 29.85 49.4099 31.01 49.49 32.17C49.58 33.5 49.7699 34.83 50.1 36.12C50.2358 36.6723 50.408 37.2102 50.5795 37.7459C50.6097 37.8407 50.64 37.9353 50.67 38.03C51.3201 40.06 52.2799 42.04 53.85 43.52C54.6799 44.31 55.6799 44.93 56.71 45.43C57.71 45.91 58.7599 46.29 59.85 46.49C62.0499 46.89 64.4299 46.57 66.21 45.12C68.11 43.58 69.35 41.34 69.59 38.9C69.8299 36.43 69.4299 33.93 68.61 31.61C67.7799 29.26 66.49 27.14 64.85 25.26C63.21 23.39 61.21 21.82 58.92 20.82C58.3201 20.56 57.71 20.32 57.09 20.12C57.1799 19.98 57.28 19.83 57.38 19.69C57.34 19.76 57.2999 19.82 57.26 19.88C57.72 19.27 58.18 18.66 58.68 18.08C59.16 17.55 59.6699 17.05 60.1999 16.56C61.5599 15.38 62.9299 14.23 64.38 13.18C65.61 12.39 66.8899 11.69 68.1999 11.03H68.1899C68.2799 10.99 68.3599 10.94 68.4499 10.9C68.6199 11.16 68.7799 11.43 68.9399 11.7C69.3356 12.3809 69.689 13.0704 70.0469 13.7682L70.14 13.95C70.121 13.9215 70.1042 13.8907 70.0876 13.8588C70.0692 13.8235 70.051 13.7867 70.03 13.75L70.0824 13.8556C70.886 15.4728 71.7146 17.1409 72.85 18.56C73.4399 19.29 74.0799 20.01 74.85 20.58C75.1899 20.84 75.61 21.07 76.04 21.1C76.8201 21.16 77.52 20.86 77.92 20.17C78.3085 19.504 78.2949 18.6583 78.2827 17.9021C78.2817 17.8408 78.2808 17.78 78.28 17.72C78.27 17.29 78.25 16.85 78.23 16.41C78.2218 16.2151 78.214 16.0197 78.2062 15.8241C78.176 15.0664 78.1455 14.3051 78.09 13.55L78.0896 13.5434C78.0297 12.6456 77.9697 11.7478 77.86 10.85C77.8353 10.6426 77.8094 10.4352 77.7834 10.2276C77.7043 9.59458 77.6251 8.96013 77.5799 8.32C77.5729 8.21416 77.5708 8.10831 77.5702 8.00246C77.5699 7.95831 77.5699 7.91416 77.5699 7.87C77.59 7.69 77.61 7.51 77.64 7.33C77.6899 6.93001 77.6 6.54 77.41 6.21C77.66 6.08 77.9099 5.94 78.12 5.77C78.6699 5.31 78.9199 4.61 78.74 3.9C78.4199 2.65 77.01 2.29 75.9 2.11C75.25 2.01 74.6 1.93 73.9499 1.86C72.85 1.73 71.74 1.60001 70.64 1.48C69.46 1.36001 68.2899 1.2 67.12 0.989999C66.62 0.910005 66.11 0.830003 65.61 0.769998L65.5272 0.759462C64.9248 0.68255 64.3229 0.605691 63.73 0.730005C62.87 0.910005 62.33 1.85001 62.4399 2.68C62.5099 3.15 62.7101 3.59001 63.0601 3.93C63.24 4.11 63.4299 4.29 63.61 4.47C63.8617 4.71333 64.0994 4.97777 64.3347 5.2397L64.47 5.39C65.1299 6.24001 65.77 7.09001 66.4 7.96C66.39 7.96 66.37 7.97001 66.36 7.98C65.49 8.43001 64.63 8.88001 63.79 9.36C62.9401 9.85001 62.1499 10.4 61.36 10.97C60.7587 11.4052 60.1824 11.8905 59.6112 12.3713C59.4606 12.4982 59.3103 12.6248 59.16 12.75C58.04 13.68 56.96 14.65 55.99 15.74C55.24 16.58 54.5599 17.49 53.9399 18.43C53.7599 18.7 53.58 18.98 53.4 19.25C52.76 19.14 52.13 19.05 51.49 18.98C48.8199 18.68 46.13 18.7 43.51 19.31C41.0699 19.88 38.6399 20.85 36.72 22.5C34.7999 24.14 33.3101 26.2 32.18 28.45C31.42 29.97 30.8099 31.58 30.33 33.22C29.2899 33.14 28.2499 33.11 27.1999 33.15C24.73 33.22 22.1899 33.46 19.96 34.62C17.7899 35.75 16.1899 37.66 15.03 39.78C13.78 42.08 12.9501 44.57 12.43 47.13C12.2001 48.23 12.0499 49.34 11.9499 50.45C11.58 50.45 11.21 50.46 10.84 50.5C8.41992 50.72 6.03991 51.65 4.31994 53.4C0.699946 57.07 0.0599318 62.7 0.999995 67.57C1.47998 70.03 2.40991 72.43 3.58996 74.64C4.18994 75.76 4.83996 76.9 5.67004 77.87L5.72387 77.9328C6.06604 78.3326 6.41186 78.7364 6.82995 79.05C7.11621 79.2702 7.41333 79.4581 7.70935 79.6453C7.81665 79.7132 7.9237 79.7809 8.03002 79.85C8.04003 79.86 8.05004 79.86 8.05004 79.86L8.11767 79.9276ZM6.5957 72.7184C6.60278 72.7318 6.60986 72.7452 6.61694 72.7587C6.62133 72.7688 6.62561 72.7791 6.63 72.79C6.6173 72.7646 6.60632 72.741 6.5957 72.7184ZM6.5957 72.7184C6.58374 72.6956 6.57189 72.6728 6.56005 72.65C6.5653 72.6588 6.57043 72.6674 6.57519 72.6758C6.58227 72.6897 6.58886 72.7038 6.5957 72.7184ZM16.08 60.66C15.7799 59.04 15.58 57.41 15.46 55.77C15.4399 55.36 15.42 54.96 15.39 54.58C15.51 54.62 15.64 54.66 15.77 54.7C16.3199 54.9 16.85 55.13 17.37 55.38C17.7799 55.59 18.17 55.81 18.5601 56.05C18.9 56.28 19.22 56.53 19.54 56.8C19.89 57.12 20.23 57.46 20.55 57.82C20.8822 58.215 21.1901 58.6342 21.4883 59.063C22.1771 60.1092 22.8076 61.1753 23.37 62.29C23.3578 62.2615 23.3439 62.233 23.3297 62.2045C23.3091 62.163 23.2878 62.1215 23.27 62.08C23.6999 62.96 24.09 63.86 24.43 64.78C24.6 65.31 24.75 65.84 24.87 66.39C24.96 66.85 25.0299 67.32 25.0699 67.8C25.09 68.12 25.1 68.44 25.08 68.76C25.0713 68.8383 25.0626 68.9147 25.0531 68.9909C25.0406 69.0898 25.027 69.1883 25.01 69.29C25.0192 69.2535 25.0261 69.217 25.0331 69.1815C25.0413 69.1391 25.0492 69.0981 25.0601 69.06C25.04 69.19 25.0099 69.32 24.97 69.45C24.9399 69.5 24.92 69.54 24.9 69.59C24.89 69.61 24.87 69.63 24.86 69.66C24.85 69.67 24.84 69.68 24.83 69.7C24.8099 69.71 24.8 69.72 24.79 69.73C24.76 69.74 24.74 69.76 24.71 69.78C24.6699 69.79 24.6199 69.81 24.58 69.83C24.5399 69.85 24.4899 69.86 24.4399 69.87L24.4138 69.8744C24.365 69.8827 24.3225 69.89 24.28 69.89H24.02C23.9299 69.87 23.85 69.86 23.77 69.85C23.5599 69.8 23.36 69.74 23.15 69.67C23 69.61 22.85 69.55 22.6999 69.48C22.2399 69.24 21.7999 68.97 21.36 68.68C20.6899 68.22 20.0599 67.71 19.4499 67.18C19.1299 66.87 18.8199 66.56 18.52 66.23C18.29 65.95 18.0599 65.67 17.85 65.37C17.6599 65.08 17.4799 64.78 17.3199 64.47C17.09 64 16.8899 63.53 16.71 63.04C16.46 62.26 16.2499 61.46 16.08 60.66ZM32.63 44.52C32.5499 43.2 32.5499 41.88 32.62 40.56C32.6999 39.43 32.84 38.31 33.03 37.19C33.59 37.32 34.1399 37.47 34.6899 37.65C35.3999 37.91 36.08 38.19 36.76 38.52C37.33 38.81 37.87 39.14 38.41 39.49C39.0601 39.93 39.6799 40.4 40.27 40.91C40.9399 41.51 41.59 42.14 42.1899 42.82C42.5499 43.24 42.8799 43.68 43.1899 44.13C43.47 44.56 43.73 45.01 43.97 45.47C44.25 46.05 44.49 46.64 44.71 47.24C44.96 48.01 45.1599 48.78 45.34 49.57C45.5099 50.41 45.6199 51.26 45.6899 52.11C45.71 52.55 45.7001 52.99 45.68 53.43C45.67 53.6 45.65 53.76 45.62 53.92C45.5699 54.14 45.5099 54.36 45.4399 54.58C45.4095 54.6634 45.3735 54.741 45.3362 54.8215C45.3242 54.8473 45.3121 54.8734 45.3 54.9C45.26 54.97 45.22 55.04 45.18 55.1C45.0601 55.27 44.93 55.43 44.79 55.58C44.8152 55.5498 44.8403 55.5221 44.8655 55.4944C44.8903 55.4671 44.915 55.4398 44.9399 55.41C44.84 55.52 44.73 55.63 44.62 55.73C44.52 55.81 44.42 55.9 44.3101 55.97L44.2014 56.0364C44.0098 56.1539 43.822 56.269 43.62 56.37C43.38 56.47 43.14 56.58 42.89 56.67L42.8091 56.6937C42.5979 56.7556 42.3929 56.8156 42.18 56.86C41.9601 56.9 41.74 56.93 41.52 56.95H40.9399C40.8351 56.9405 40.7324 56.9286 40.6299 56.9146C40.5175 56.8991 40.4051 56.8809 40.29 56.86L40.2882 56.8595C40.0588 56.7997 39.8293 56.7398 39.61 56.67C39.39 56.59 39.1899 56.5 38.98 56.4C38.6699 56.23 38.3699 56.06 38.0699 55.87C37.7499 55.65 37.46 55.41 37.16 55.16C36.77 54.81 36.4 54.44 36.05 54.05C35.73 53.68 35.4401 53.29 35.16 52.9C34.87 52.45 34.59 51.97 34.34 51.49C34.0599 50.9 33.8099 50.3 33.59 49.69C33.36 49 33.1799 48.3 33.02 47.6C32.83 46.58 32.6999 45.56 32.63 44.52ZM54.1 25.61C54.34 24.97 54.6 24.35 54.9 23.73C54.98 23.57 55.0701 23.41 55.18 23.26C55.63 23.38 56.08 23.52 56.53 23.67C57.04 23.86 57.54 24.08 58.04 24.32C58.51 24.57 58.96 24.82 59.4 25.11C59.85 25.43 60.2899 25.77 60.72 26.13C61.21 26.57 61.6699 27.03 62.12 27.52C62.59 28.07 63.0399 28.64 63.47 29.24C63.85 29.81 64.1899 30.4 64.51 31.01C64.7999 31.63 65.0701 32.26 65.3 32.9C65.5 33.52 65.67 34.14 65.8101 34.77C65.9401 35.4 66.0299 36.04 66.0799 36.68C66.11 37.18 66.11 37.66 66.09 38.16C66.0599 38.45 66.0199 38.73 65.97 39.02C65.8999 39.34 65.8099 39.65 65.71 39.96C65.6199 40.18 65.52 40.4 65.42 40.61C65.3101 40.81 65.1899 41 65.0699 41.19C64.9499 41.36 64.8199 41.52 64.6899 41.68C64.5299 41.86 64.3699 42.02 64.1899 42.18C64.08 42.27 63.98 42.35 63.87 42.43C63.71 42.53 63.5399 42.63 63.37 42.72C63.277 42.7665 63.1781 42.807 63.0824 42.8461C63.0546 42.8575 63.027 42.8687 63 42.88C62.8199 42.94 62.6399 42.99 62.46 43.03C62.2699 43.06 62.08 43.09 61.89 43.11C61.7495 43.1167 61.6136 43.1144 61.4792 43.1122C61.4126 43.1111 61.3463 43.11 61.28 43.11C60.98 43.08 60.6899 43.04 60.39 42.99C60.04 42.91 59.6899 42.81 59.35 42.7C58.97 42.56 58.59 42.41 58.22 42.23C57.83 42.03 57.46 41.81 57.09 41.58C56.8099 41.39 56.55 41.18 56.3 40.97C56.16 40.83 56.02 40.69 55.88 40.54C55.7936 40.4374 55.7101 40.3318 55.6279 40.225C55.558 40.134 55.489 40.042 55.42 39.95C55.24 39.68 55.08 39.4 54.92 39.11C54.62 38.51 54.36 37.89 54.13 37.26C53.84 36.36 53.5699 35.48 53.36 34.56C53.1899 33.66 53.0699 32.75 53 31.83C52.97 31.27 52.96 30.71 52.98 30.16C53.0199 29.67 53.09 29.19 53.18 28.7C53.42 27.65 53.7599 26.63 54.1 25.61ZM74.53 13.82C74.55 14.15 74.5599 14.47 74.5799 14.8C74.3199 14.36 74.0601 13.91 73.8101 13.45C73.8262 13.4875 73.8451 13.5251 73.8638 13.5626C73.88 13.5951 73.8961 13.6276 73.91 13.66C73.7739 13.3853 73.6399 13.1087 73.5056 12.8316C73.1167 12.0292 72.7259 11.223 72.28 10.45C72.05 10.05 71.8099 9.65 71.5699 9.26L72.11 8.99C72.0738 9.01406 72.0342 9.03449 71.993 9.05567C71.9657 9.0697 71.9379 9.08405 71.91 9.1C72.3176 8.89116 72.7156 8.69222 73.1134 8.49332C73.1162 8.49606 73.1186 8.4975 73.1186 8.4975C73.1186 8.4975 73.12 8.49506 73.12 8.49L73.1232 8.48834C73.1321 8.48699 73.1407 8.47997 73.1577 8.47118L73.16 8.47L73.99 8.04C74.01 8.66001 74.0599 9.27 74.14 9.88C74.2999 11.2 74.4399 12.5 74.53 13.82ZM70.2714 5.97441L69.59 6.32C69.23 5.8 68.86 5.28 68.48 4.78C68.8199 4.83 69.1699 4.87 69.51 4.91001C69.9714 4.95674 70.4296 5.00688 70.8882 5.05845C71.2147 5.09516 71.5415 5.13258 71.87 5.17C71.8143 5.20131 71.7587 5.23141 71.703 5.26072C71.5986 5.31567 71.4943 5.36784 71.39 5.42C71.4499 5.38 71.5199 5.35 71.59 5.31C71.1538 5.52806 70.7132 5.7505 70.2714 5.97441Z"
    fill="rgba(191, 192, 191, 1)" />
</svg>