<?xml version="1.0" encoding="UTF-8" standalone="yes"?>
<svg width="72" height="72" viewBox="-40 -40 152 152" fill="none" xmlns="http://www.w3.org/2000/svg">
  <path fill-rule="evenodd" clip-rule="evenodd"
    d="M1.96002 71.08H1.98004C2.13004 71.12 2.28003 71.13 2.45005 71.11C3.08002 71.11 3.64002 70.81 4.00003 70.25C4.13001 70.05 4.19004 69.82 4.23004 69.59C4.27002 69.38 4.26001 69.18 4.22003 68.98C4.22003 68.94 4.23001 68.89 4.24002 68.85C4.43003 68.07 4.66004 67.3 4.91004 66.54C6.13474 63.0622 7.77896 59.7505 9.41785 56.4496C9.53199 56.2197 9.64609 55.9898 9.76004 55.76C9.76004 55.7538 9.76386 55.7476 9.76914 55.7391C9.7724 55.7338 9.77622 55.7276 9.78003 55.72L9.81003 55.66C10.8879 53.5252 11.9511 51.3854 13.0134 49.2477C13.4688 48.3312 13.924 47.4152 14.38 46.5C14.5031 46.2659 14.6259 46.0305 14.7488 45.7947C15.2351 44.862 15.7253 43.9219 16.26 43.02C16.5734 43.4117 16.8676 43.8129 17.1519 44.2332C17.158 44.2443 17.164 44.2539 17.17 44.26C17.164 44.251 17.158 44.2421 17.1519 44.2332C17.148 44.2259 17.144 44.2179 17.14 44.21C18.25 45.88 19.36 47.55 20.5 49.19C20.8699 49.7267 21.266 50.2475 21.6618 50.7679C21.8117 50.965 21.9616 51.1621 22.11 51.36C22.36 51.695 22.6125 52.03 22.865 52.365C23.1175 52.7 23.37 53.035 23.62 53.37C23.9797 53.8483 24.3297 54.3321 24.6794 54.8153C25.2726 55.6353 25.8645 56.4535 26.5 57.24C26.5977 57.36 26.6951 57.4805 26.7925 57.601C27.6124 58.6153 28.4353 59.6335 29.49 60.42C30.26 60.99 31.22 61.29 32.17 61.27C33.14 61.25 34.09 60.84 34.89 60.31C35.97 59.6 36.87 58.66 37.69 57.68C38.33 56.91 38.94 56.11 39.49 55.27C39.84 54.73 40.19 54.2 40.53 53.66C40.5869 53.5731 40.6456 53.4863 40.7045 53.3992C40.8422 53.1954 40.9809 52.9901 41.1 52.78C42.12 50.94 43.12 49.1 44.09 47.23C44.6928 46.0832 45.3226 44.9419 45.9516 43.802C46.1783 43.3912 46.4049 42.9806 46.63 42.57C47.56 40.89 48.49 39.22 49.47 37.57C50.54 35.76 51.61 33.97 52.69 32.17C53.59 30.68 54.54 29.23 55.49 27.78C57.3098 24.9983 59.1522 22.2316 60.9976 19.4603C61.2817 19.0337 61.5659 18.6069 61.85 18.18C62.1294 18.3006 62.4047 18.4333 62.6786 18.5654C62.836 18.6413 62.993 18.717 63.15 18.79C63.3378 18.8897 63.5259 18.9892 63.714 19.0888C65.1493 19.8486 66.592 20.6124 67.98 21.47C68.0478 21.5115 68.1153 21.5538 68.1828 21.5962C68.7333 21.9416 69.2852 22.288 69.98 22.19C70.92 22.07 71.53 21.26 71.63 20.37C71.6667 20.0182 71.6174 19.6556 71.5687 19.2981C71.551 19.1678 71.5334 19.0382 71.52 18.91C71.49 18.64 71.46 18.36 71.43 18.09C71.3923 17.7808 71.3717 17.466 71.351 17.1498C71.3442 17.0466 71.3374 16.9433 71.33 16.84C71.2 14.18 71.1 11.54 71.25 8.88999C71.2604 8.76712 71.2714 8.64391 71.2824 8.52048C71.3567 7.68957 71.4319 6.84841 71.31 6.02999C71.23 5.49998 71.06 4.96998 70.8 4.48999C70.8184 4.45595 70.8367 4.42259 70.8549 4.38956C70.906 4.29645 70.9557 4.20595 71 4.10999C71.38 3.30999 71.2 2.37999 70.68 1.69999C70.05 0.879987 68.85 0.619992 67.87 0.659993C66.63 0.709989 65.42 0.959981 64.24 1.33999C62.67 1.83999 61.19 2.49999 59.7 3.17999C59.3743 3.33001 59.054 3.48555 58.7338 3.64108C58.3069 3.8484 57.88 4.05572 57.44 4.24999C56.46 4.68998 55.49 5.09999 54.49 5.48999C53.8582 5.73655 53.2205 5.96529 52.5814 6.19452C52.391 6.26281 52.2005 6.33114 52.01 6.39999C51.8568 6.4566 51.7037 6.5121 51.5505 6.5676C51.2437 6.67877 50.9369 6.78994 50.63 6.90999C50.38 7.00999 50.12 7.10998 49.87 7.20999C49.827 7.22697 49.7832 7.24408 49.7388 7.26142C49.3915 7.39712 49.0104 7.54603 48.7 7.74999C48.23 8.06999 47.86 8.38999 47.58 8.88999C47.35 9.29998 47.28 9.81999 47.34 10.28C47.48 11.3 48.17 12.17 48.96 12.79C50.5 14.03 52.34 14.78 54.18 15.46C55.4674 15.9473 56.7717 16.3755 58.0851 16.8067L58.43 16.92C57 19.05 55.57 21.18 54.17 23.32C53.01 25.09 51.86 26.86 50.71 28.64C49.7601 30.1098 48.8702 31.6197 47.9803 33.1295C46.8903 34.9695 45.82 36.81 44.75 38.65C44.0932 39.787 43.4663 40.9491 42.8412 42.1079C42.5812 42.5898 42.3214 43.0712 42.06 43.55C41.625 44.3351 41.2099 45.1327 40.7949 45.9302C40.3799 46.7277 39.965 47.5251 39.53 48.31C39.21 48.9 38.88 49.49 38.55 50.08C38.49 50.1867 38.4321 50.2957 38.3743 50.4047C38.2588 50.6224 38.1433 50.8401 38.01 51.04C37.8334 51.3132 37.6579 51.5865 37.4824 51.8597C37.1313 52.4065 36.7801 52.9532 36.42 53.5C35.87 54.26 35.32 55 34.71 55.71C34.4 56.07 34.07 56.41 33.73 56.73C33.48 56.95 33.21 57.16 32.94 57.36C32.8301 57.4399 32.7202 57.4999 32.6103 57.5598C32.5938 57.5669 32.5776 57.5741 32.562 57.5811C32.5112 57.6036 32.4635 57.6247 32.41 57.64C32.3816 57.6506 32.3519 57.6601 32.3218 57.6687C32.2673 57.6842 32.2116 57.6971 32.16 57.71C32.11 57.72 32.07 57.72 32.02 57.73H31.97C31.9525 57.7241 31.935 57.7183 31.9155 57.7125C31.9016 57.7083 31.8867 57.7041 31.87 57.7C31.81 57.68 31.75 57.66 31.7 57.63L31.55 57.54C31.47 57.47 31.39 57.41 31.31 57.35C31.02 57.07 30.74 56.79 30.47 56.49C29.3477 55.2011 28.3406 53.823 27.3351 52.447C26.9519 51.9227 26.569 51.3987 26.18 50.88C25.7842 50.3539 25.3884 49.8253 24.9926 49.2967C24.5984 48.7703 24.2042 48.2439 23.81 47.72C23.2858 47.0159 22.7861 46.2933 22.287 45.5716C22.1481 45.3709 22.0093 45.1702 21.87 44.97C21.46 44.36 21.06 43.75 20.66 43.14C20.5741 43.0096 20.4881 42.8777 20.4015 42.7449C19.5713 41.4717 18.6902 40.1206 17.35 39.36C16.68 38.98 15.87 38.95 15.16 39.2C14.4 39.47 13.88 40.11 13.47 40.79C13.1336 41.3479 12.8242 41.9125 12.514 42.4783C12.4462 42.6022 12.3783 42.7261 12.31 42.85C11.1833 44.9102 10.1473 47.0288 9.11331 49.1431C8.86252 49.6559 8.61185 50.1685 8.36002 50.68C8.11225 51.1715 7.8613 51.663 7.61035 52.1545C7.23331 52.893 6.85626 53.6315 6.49002 54.37C6.3277 54.6946 6.16416 55.0186 6.00061 55.3425C5.50916 56.3161 5.0177 57.2896 4.56003 58.28C4.4502 58.5165 4.34009 58.7522 4.23017 58.9875C3.68955 60.1446 3.15369 61.2916 2.68003 62.48C2.59918 62.6794 2.51691 62.8788 2.43454 63.0784C2.21121 63.6195 1.98728 64.1621 1.79004 64.71L1.71512 64.9256C1.39936 65.8338 1.08313 66.7433 0.870028 67.67C0.700015 68.39 0.540011 69.11 0.720034 69.84C0.870028 70.42 1.37003 70.95 1.96002 71.08ZM67.26 17C66.11 16.37 64.97 15.75 63.78 15.2C65.08 13.23 66.37 11.26 67.64 9.26999C67.61 9.67998 67.59 10.09 67.59 10.5C67.58 11.52 67.57 12.54 67.61 13.56C67.65 14.65 67.7 15.74 67.75 16.83C67.7549 16.9031 67.7598 16.9787 67.7646 17.0543C67.7698 17.1337 67.7749 17.2131 67.78 17.29C67.61 17.2 67.43 17.1 67.26 17ZM64.54 4.95999C65.24 4.71998 65.94 4.51999 66.65 4.35999C66.66 4.35999 66.66 4.35998 66.67 4.34999C66.5634 4.50657 66.4557 4.66316 66.348 4.81975C66.1324 5.13315 65.9167 5.44658 65.71 5.75999C65.17 6.57999 64.64 7.39999 64.11 8.22999C62.9002 10.1096 61.6705 11.9793 60.4408 13.8489L60.44 13.85C59.575 13.5508 58.7058 13.2685 57.8378 12.9867C57.3712 12.8352 56.905 12.6838 56.44 12.53C55.26 12.1 54.08 11.67 52.94 11.14C52.52 10.92 52.11 10.7 51.71 10.45L51.53 10.33C52.2148 10.0561 52.9162 9.80718 53.6115 9.56046L53.81 9.48999C53.9783 9.43077 54.1473 9.37179 54.3167 9.31269C55.2345 8.99248 56.1636 8.66831 57.05 8.27999C58.24 7.75998 59.41 7.21998 60.57 6.66999C61.87 6.04998 63.18 5.44999 64.54 4.95999Z"
    fill="rgba(191, 192, 191, 1)" />
</svg>