<?xml version="1.0" encoding="UTF-8" standalone="yes"?>
<svg width="69" height="77" viewBox="-40 -40 149 157" fill="none" xmlns="http://www.w3.org/2000/svg">
  <path
    d="M1.62 76.79C1.01 76.74 0.459984 76.27 0.229984 75.7199C-0.0200162 75.13 0.089996 74.51 0.429996 74.01C0.349996 73.51 0.450025 72.99 0.710025 72.56C0.970025 72.14 1.34998 71.85 1.72998 71.55C2.36998 71.03 3.01002 70.5099 3.64002 69.9699C3.67002 69.9299 3.69998 69.88 3.72998 69.84C4.12998 69.25 4.53 68.66 4.93 68.06C4.89 68.12 4.83999 68.18 4.79999 68.25C5.80999 66.75 6.78002 65.2299 7.77002 63.7199C8.91002 61.9899 10.07 60.27 11.24 58.56C13.36 55.47 15.54 52.42 17.65 49.32C19.03 47.3 20.4 45.28 21.78 43.25V43.26C21.78 43.25 21.78 43.25 21.79 43.24C21.8 43.23 21.8 43.23 21.8 43.23C21.83 43.19 21.85 43.16 21.88 43.12C21.89 43.1 21.91 43.08 21.92 43.06C21.91 43.07 21.9 43.09 21.9 43.0999C23.98 39.9899 26.06 36.89 28.09 33.75C29.16 32.09 30.25 30.44 31.34 28.79C32.25 27.42 33.18 26.05 33.96 24.6C32.72 23.99 31.58 23.14 30.51 22.3C29.19 21.26 28.01 20.07 26.79 18.92C26.85 18.97 26.9 19.02 26.96 19.07C26.21 18.42 25.44 17.81 24.63 17.25C23.05 16.2 21.38 15.26 19.75 14.3C18.2 13.39 16.57 12.64 15.06 11.68C14.69 11.45 14.33 11.2 13.99 10.94C13.7 10.72 13.41 10.46 13.24 10.14C12.89 9.48999 12.91 8.69996 13.37 8.10996C13.82 7.52996 14.47 7.39998 15.16 7.37998C17.07 7.32998 18.99 7.29996 20.9 7.22996C21.58 7.20996 22.27 7.14996 22.95 7.10996C28.29 6.60996 33.59 5.82995 38.86 4.90995C42.37 4.17995 45.86 3.36997 49.38 2.67997C51.02 2.35997 52.68 2.14998 54.33 1.87998C55.87 1.62998 57.42 1.37 58.96 1.09C58.96 1.09 58.97 1.09 58.98 1.09C59.39 0.950002 59.82 0.94997 60.26 1.11997C61.03 1.40997 61.31 2.15995 61.37 2.90995C61.44 3.83995 61.43 4.78 61.43 5.71C61.43 8.15 61.12 10.57 61.24 13.01C61.29 13.65 61.38 14.27 61.5 14.9C61.71 15.9 61.99 16.9 62.25 17.9C62.46 18.71 62.66 19.53 62.86 20.35C63.07 21.21 63.23 22.08 63.41 22.94C63.61 23.87 63.79 24.81 63.97 25.74C64.64 29.09 65.25 32.44 65.86 35.8C66.14 37.05 66.41 38.31 66.77 39.54C67.13 40.82 67.54 42.09 67.97 43.34C67.94 43.27 67.92 43.2 67.89 43.12C67.94 43.27 68 43.42 68.05 43.57C68.03 43.5 68 43.43 67.98 43.3499C68.15 43.84 68.41 44.35 68.3 44.88C68.16 45.58 67.72 46.15 67.01 46.34C66.24 46.55 65.41 46.21 65.01 45.53C64.75 45.09 64.51 44.64 64.25 44.19C63.97 44.12 63.71 44.01 63.43 43.88C62.71 43.54 62.01 43.14 61.31 42.77C60.13 42.14 58.99 41.45 57.86 40.73C56.76 40.02 55.65 39.33 54.54 38.64C53.27 37.85 52.15 36.9 51.13 35.8C50.67 35.3 50.23 34.78 49.78 34.28C49.48 33.94 49.18 33.61 48.88 33.28C48.47 33.66 48.07 34.03 47.66 34.4C46.24 35.69 44.82 36.99 43.32 38.2C41.71 39.5 40.1 40.79 38.52 42.12C37 43.38 35.5 44.66 33.99 45.93C33.22 46.57 32.48 47.23 31.73 47.89C31.79 47.84 31.84 47.79 31.9 47.74C28.99 50.41 26.08 53.07 23.27 55.84C21.98 57.11 20.73 58.4 19.41 59.64C18.01 60.95 16.65 62.31 15.32 63.7C13.35 65.77 11.22 67.67 9.19001 69.68C8.26 70.6 7.31 71.49 6.31 72.34C5.79 73.07 5.25002 73.79 4.70002 74.49C4.38002 74.9 4.05001 75.31 3.69001 75.69C3.46001 75.94 3.23999 76.19 2.98999 76.4C2.63999 76.69 2.24 76.8 1.81 76.8C1.76 76.8 1.69 76.8 1.62 76.79ZM54.71 5.42997C53.64 5.60997 52.56 5.75998 51.49 5.93998C50.3 6.13998 49.12 6.35995 47.93 6.59995C46.12 6.99995 44.32 7.41996 42.5 7.79996C41.46 8.00996 40.43 8.25998 39.38 8.43998C38.41 8.60998 37.44 8.77998 36.47 8.93998C34.61 9.25998 32.73 9.49998 30.86 9.75998C29.03 10.02 27.2 10.29 25.36 10.46C23.81 10.6 22.27 10.72 20.72 10.79C21.71 11.34 22.68 11.93 23.65 12.51C24.27 12.88 24.89 13.25 25.51 13.63C26.79 14.43 28.01 15.29 29.14 16.29C29.67 16.75 30.18 17.25 30.69 17.74C31.2 18.22 31.71 18.6899 32.24 19.1599C33 19.7599 33.78 20.33 34.58 20.89C34.92 21.1 35.25 21.31 35.6 21.5C35.75 21.57 35.91 21.63 36.06 21.69C36.52 21.84 36.95 22.02 37.25 22.42C37.27 22.46 37.3 22.49 37.32 22.52C37.37 22.56 37.41 22.6 37.45 22.64C37.98 23.16 38.1 23.93 37.88 24.62C37.75 25.05 37.53 25.44 37.33 25.84C37.1 26.28 36.86 26.72 36.61 27.15C35.72 28.7 34.68 30.18 33.69 31.67C31.46 35.04 29.28 38.44 27.03 41.8C24.87 45.05 22.67 48.26 20.47 51.48C18.93 53.73 17.35 55.96 15.79 58.2C16.08 57.91 16.38 57.63 16.67 57.36C18.05 56.07 19.37 54.74 20.71 53.4C23.5 50.62 26.42 47.98 29.32 45.32C30.75 44.01 32.27 42.77 33.76 41.52C35.14 40.36 36.5 39.18 37.9 38.05C39.56 36.71 41.23 35.37 42.86 33.98C43.65 33.28 44.44 32.56 45.23 31.84C45.89 31.25 46.55 30.65 47.18 30.02C47.43 29.51 47.83 29.08 48.39 28.93C49.03 28.77 49.73 28.94 50.19 29.43C50.37 29.63 50.54 29.84 50.71 30.05C51.49 30.94 52.3 31.8 53.07 32.69C53.02 32.63 52.97 32.58 52.92 32.52C53.53 33.21 54.13 33.88 54.8 34.49C55.18 34.81 55.57 35.1 55.98 35.38C56.71 35.86 57.46 36.31 58.2 36.76C58.93 37.22 59.65 37.7 60.38 38.17C61.27 38.74 62.2 39.27 63.14 39.77C62.68 37.93 62.3 36.0799 61.95 34.2199C61.63 32.4699 61.33 30.73 60.99 28.99C60.66 27.28 60.3 25.56 59.96 23.84C59.68 22.53 59.4 21.22 59.07 19.92C58.65 18.23 58.16 16.56 57.86 14.85C57.43 12.46 57.7 10.01 57.79 7.59995C57.82 6.68995 57.85 5.78998 57.85 4.87998C56.82 5.06998 55.77 5.25997 54.71 5.42997Z"
    fill="rgba(191, 192, 191, 1)" />
  <path d="M21.83 43.21C21.82 43.22 21.81 43.23 21.8 43.25C21.81 43.23 21.82 43.21 21.83 43.21Z"
    fill="rgba(191, 192, 191, 1)" />
</svg>