<?xml version="1.0" encoding="UTF-8" standalone="yes"?>
<svg width="74" height="81" viewBox="-40 -40 154 161" fill="none" xmlns="http://www.w3.org/2000/svg">
  <path fill-rule="evenodd" clip-rule="evenodd"
    d="M35.7299 80.16C36.3886 79.8873 36.8239 79.202 36.8184 78.5033C37.1834 77.925 37.4926 77.3179 37.8037 76.7071L37.8048 76.7049L37.9399 76.44C38.6652 75.0418 39.3448 73.6281 40.0252 72.2127L40.3199 71.6C40.5256 71.1723 40.7318 70.7456 40.9378 70.3194L40.9386 70.3181C41.6137 68.9214 42.2866 67.5295 42.93 66.12C43.795 64.2248 44.6872 62.3418 45.58 60.4574L45.5936 60.4287C46.3167 58.9024 47.0404 57.3752 47.75 55.84C48.1069 55.0681 48.4629 54.2954 48.8184 53.5222C49.1944 52.7048 49.5698 51.8869 49.9453 51.0688C50.9266 48.931 51.9084 46.7922 52.9 44.66C54.0794 42.123 55.3084 39.6135 56.5379 37.1029L56.5409 37.0971C56.9679 36.2252 57.3949 35.3533 57.8199 34.48C58.231 33.6632 58.6361 32.8433 59.0418 32.0221L59.055 31.9952C59.3751 31.3472 59.6956 30.6986 60.02 30.05C60.02 30.0576 60.0141 30.0713 60.0069 30.0861C60.2653 29.5656 60.5316 29.0499 60.8012 28.5358C60.9928 28.1707 61.186 27.8065 61.3794 27.4419C61.5319 27.1544 61.6847 26.8667 61.8366 26.5781C61.9012 26.4556 61.9657 26.3329 62.03 26.21C63.6506 23.1238 65.3846 20.0847 67.1125 17.0562L67.1198 17.0432L67.27 16.78C67.4362 16.4859 67.6028 16.1919 67.7693 15.898C68.6441 14.3538 69.5183 12.811 70.3499 11.24C71.1299 9.77004 71.8999 8.29 72.49 6.71999C73.1799 4.87001 74.03 2.14003 72.13 0.680011C71.26 0.0100278 70.02 0.130023 69.06 0.510028C68.33 0.800067 67.62 1.13002 66.92 1.51003C66.7501 1.60366 66.5765 1.69368 66.4027 1.78383C66.0753 1.95369 65.7469 2.12404 65.4399 2.32003C65.0599 2.56008 64.67 2.80001 64.28 3.04C62.66 4.05001 61.0599 5.09004 59.5 6.19002C56.9611 7.96553 54.4417 9.77974 51.9262 11.5913C51.3106 12.0346 50.6953 12.4777 50.0799 12.92C49.4477 13.3734 48.816 13.8271 48.1843 14.2808L48.0462 14.3799C45.6164 16.1251 43.1873 17.8698 40.74 19.59C37.39 21.9301 34.04 24.24 30.67 26.54C29.5671 27.2551 28.4676 27.976 27.368 28.697L27.3354 28.7184C24.6173 30.5007 21.8989 32.2832 19.13 33.98C15.5937 36.1477 12.0274 38.2555 8.46127 40.3632L8.4598 40.3642L8.44992 40.37C7.76986 40.7736 7.08798 41.1715 6.40585 41.5694L6.38754 41.58C5.52096 42.0858 4.6539 42.5917 3.79 43.11C3.68124 43.1761 3.57284 43.2414 3.46481 43.3064L3.43576 43.3239C2.99789 43.5874 2.56771 43.8463 2.14999 44.13C1.37997 44.65 0.579922 45.2901 0.449917 46.27C0.319912 47.2401 1.11996 48.36 2.13998 48.43C2.30453 48.4437 2.4653 48.4422 2.62155 48.4221C2.67282 48.4155 2.7236 48.407 2.77389 48.3963C3.05771 48.5929 3.39816 48.7075 3.75998 48.7C4.43002 48.69 5.08993 48.71 5.74997 48.73C6.42001 48.79 7.07992 48.84 7.74997 48.9C8.29001 48.94 8.81991 49.03 9.35995 49.11C10.6999 49.3 12.04 49.51 13.38 49.73L13.5504 49.7575C14.4814 49.9082 15.3968 50.0563 16.3299 50.16C18.0799 50.3599 19.87 50.51 21.63 50.45C22.36 50.42 23.0899 50.4 23.8199 50.37C24.0521 50.362 24.2839 50.3526 24.5153 50.3433C25.4301 50.3066 26.3401 50.2701 27.25 50.31C27.3342 50.317 27.4184 50.3289 27.5027 50.3424C27.5384 50.348 27.5742 50.354 27.61 50.36C27.64 50.37 27.6699 50.38 27.7099 50.39C27.6799 50.54 27.66 50.69 27.66 50.85C27.66 51.387 27.8784 51.9047 28.0886 52.4032L28.1318 52.5058C28.169 52.5944 28.2055 52.6826 28.24 52.77C28.4499 53.31 28.66 53.84 28.86 54.38C29.3299 55.75 29.7199 57.14 30.02 58.55C30.4 60.5 30.62 62.47 30.77 64.46C30.765 64.4202 30.7625 64.3804 30.7601 64.3407L30.7586 64.319C30.7566 64.286 30.7541 64.253 30.75 64.22C30.8299 65.66 30.9 67.1 30.9699 68.54C31.0099 69.2777 31.0896 70.0054 31.1693 70.7332L31.17 70.74C31.2137 71.2128 31.2996 71.6857 31.3855 72.1585C31.4177 72.3356 31.4499 72.5128 31.4799 72.69C31.6059 73.429 31.8337 74.1384 32.0616 74.8483L32.062 74.8494C32.2319 75.3785 32.4019 75.9079 32.53 76.45C32.75 77.39 33 78.33 33.41 79.21C33.7201 79.87 34.37 80.29 35.05 80.3C35.28 80.3 35.51 80.25 35.7299 80.16ZM39.7299 64.59C38.3204 67.6272 36.8532 70.6395 35.3731 73.642C35.2927 73.372 35.2151 73.1013 35.141 72.829C35.0742 72.584 35.0103 72.3378 34.9499 72.09C34.9273 71.9724 34.9035 71.8547 34.8797 71.737C34.8086 71.3847 34.7374 71.0323 34.6999 70.68C34.6399 70.11 34.58 69.53 34.52 68.95C34.4871 68.3486 34.4597 67.746 34.4322 67.143L34.4319 67.1371C34.384 66.0875 34.3361 65.0367 34.26 63.99C34.0799 61.55 33.7899 59.12 33.2199 56.73C32.9399 55.59 32.5999 54.46 32.2199 53.35C32.0562 52.8653 31.8668 52.3936 31.677 51.9206C31.5769 51.6714 31.4767 51.4219 31.38 51.17C31.62 50.65 31.62 50.07 31.4499 49.52C31.3442 49.1719 31.1685 48.8316 30.9453 48.5221C31.0251 48.4628 31.1012 48.3989 31.17 48.33C32.16 47.53 33.0599 46.65 33.9699 45.76C34.86 44.89 35.77 44.03 36.6899 43.19C38.36 41.72 40.0101 40.23 41.55 38.63C43.127 36.9934 44.6058 35.2781 46.0933 33.5523L46.13 33.51C46.2939 33.3268 46.4579 33.1446 46.6214 32.9628C46.9668 32.579 47.3106 32.1968 47.65 31.81C47.62 31.83 47.5999 31.86 47.5799 31.88C48.0937 31.2881 48.5763 30.6681 49.0589 30.0479C49.4406 29.5575 49.8225 29.067 50.2199 28.59C50.8499 27.9 51.4699 27.22 52.0799 26.51C52.3709 26.1739 52.6594 25.8353 52.9478 25.4967C53.2345 25.1603 53.521 24.8239 53.81 24.49C54.54 23.7 55.27 22.9101 55.9499 22.07C56.5955 21.2654 57.2412 20.4695 57.9195 19.6987C57.9163 19.7025 57.9132 19.7063 57.91 19.71C58.0108 19.598 58.1148 19.4828 58.2185 19.3663C58.2998 19.2748 58.3808 19.1825 58.4599 19.09C59.4384 18.0241 60.4629 17.0191 61.4929 16.0087L61.9399 15.57C62.1974 15.3172 62.4568 15.0658 62.7163 14.8143C63.6063 13.9522 64.4972 13.0891 65.31 12.16C65.4569 12.0051 65.6102 11.8501 65.7702 11.7006C65.8039 11.6725 65.8374 11.6437 65.8702 11.6149C65.915 11.5758 65.9586 11.5369 66 11.5L66.02 11.48C66.03 11.46 66.05 11.45 66.06 11.44L66.04 11.46C66.16 11.353 66.28 11.247 66.4 11.1414C66.2483 11.4188 66.0951 11.6951 65.9399 11.97C63.8799 15.58 61.8299 19.2 59.8299 22.85C58.255 25.7105 56.796 28.6289 55.3358 31.5497C55.0808 32.0598 54.8256 32.57 54.5699 33.08C54.5699 33.08 54.5799 33.07 54.5799 33.06C51.8958 38.3897 49.4 43.8076 46.903 49.228C46.4044 50.3105 45.9056 51.393 45.4054 52.475C45.144 53.0402 44.8823 53.6052 44.62 54.17C43.8097 55.9107 42.9919 57.6463 42.1742 59.3819C41.3569 61.1163 40.5396 62.8507 39.7299 64.59Z"
    fill="rgba(191, 192, 191, 1)" />
</svg>