<?xml version="1.0" encoding="UTF-8" standalone="yes"?>
<svg width="87" height="69" viewBox="-40 -40 167 149" fill="none" xmlns="http://www.w3.org/2000/svg">
  <path fill-rule="evenodd" clip-rule="evenodd"
    d="M28.6075 64.6783C28.6175 65.3255 28.6275 65.9728 28.64 66.62C28.66 67.59 29.48 68.47 30.46 68.47C31.44 68.47 32.21 67.6601 32.23 66.7001C32.235 66.5371 32.2393 66.3749 32.2436 66.2129C32.2568 65.7186 32.2699 65.2271 32.3 64.73C32.5111 62.4419 32.8363 60.1679 33.1611 57.8962C33.221 57.4775 33.2809 57.0588 33.34 56.6401C33.55 55.1901 33.72 53.7401 33.88 52.29L33.8802 52.2886C34.0201 50.9991 34.1601 49.7096 34.4 48.43C34.58 47.75 34.77 47.0801 35 46.41C34.97 46.4901 34.95 46.56 34.92 46.63C35.41 45.2001 35.92 43.78 36.5 42.38C37.08 40.98 37.71 39.6101 38.37 38.25C38.33 38.31 38.3 38.38 38.26 38.4501C38.68 37.63 39.1 36.81 39.6 36.03C39.81 35.72 40.03 35.43 40.26 35.15C40.39 35 40.53 34.8701 40.67 34.73C40.7697 34.638 40.8812 34.5519 40.9909 34.4671C41.0242 34.4413 41.0574 34.4157 41.09 34.3901C41.23 34.3001 41.37 34.2201 41.52 34.1401C41.7 34.0501 41.88 33.98 42.07 33.91C42.35 33.8301 42.62 33.75 42.9 33.69C43.39 33.6101 43.88 33.54 44.37 33.5C44.85 33.48 45.32 33.48 45.8 33.5C46.19 33.54 46.57 33.58 46.96 33.65C47.28 33.72 47.6 33.81 47.92 33.91L48.55 34.18C48.7396 34.2799 48.9193 34.3896 49.099 34.4994L49.1 34.5C49.31 34.65 49.52 34.8101 49.72 34.98C49.99 35.2401 50.26 35.51 50.52 35.8C50.9131 36.2606 51.2905 36.7337 51.6681 37.2071C51.9628 37.5766 52.2575 37.9462 52.56 38.31C52.7521 38.5406 52.9468 38.7685 53.1413 38.9961C53.7062 39.6571 54.2691 40.3159 54.76 41.03C54.91 41.26 55.05 41.5 55.19 41.74C55.38 42.15 55.55 42.5601 55.7 42.98C56.0537 44.1295 56.3012 45.3176 56.5468 46.4968L56.56 46.56C56.636 46.9561 56.7152 47.3522 56.7945 47.7482C56.9132 48.3422 57.032 48.9361 57.14 49.53C57.34 50.6401 57.52 51.74 57.67 52.86C57.7739 53.5868 57.8447 54.3301 57.9151 55.0696C57.9397 55.3272 57.9642 55.5843 57.99 55.84C58.0246 56.179 58.0604 56.518 58.0961 56.8565C58.1637 57.4968 58.2311 58.1355 58.29 58.77C58.37 60 58.42 61.2201 58.38 62.4501C58.3667 62.8836 58.3445 63.3172 58.3222 63.7507C58.3111 63.9672 58.3 64.1836 58.29 64.4C58.28 64.52 58.26 64.63 58.25 64.74L58.2444 64.7888C58.1652 65.4797 58.0695 66.3144 58.47 66.9201C58.96 67.6701 59.85 68.06 60.72 67.69C61.41 67.4001 61.83 66.7101 61.81 65.97C61.8 65.4901 61.82 65.01 61.84 64.53C61.8684 64.2929 61.8981 64.0564 61.9277 63.8203C62.013 63.1403 62.0981 62.4629 62.15 61.78C62.28 60.2701 62.35 58.7701 62.4 57.25C62.4386 56.1571 62.4441 55.0624 62.4496 53.9674C62.4569 52.5075 62.4643 51.0471 62.55 49.59C62.69 47.88 62.83 46.1601 62.98 44.4501C63.12 42.8601 63.39 41.28 63.69 39.72C64.26 37.26 64.85 34.81 65.55 32.38C66.21 30.1 66.94 27.8401 67.71 25.6C68.6 23.3001 69.6 21.06 70.69 18.85C71.01 18.25 71.36 17.6501 71.74 17.07C72.4947 16.0025 73.3594 15.0196 74.2252 14.0357C74.3001 13.9505 74.3751 13.8653 74.45 13.78C74.91 13.2701 75.37 12.76 75.84 12.26C76.2526 11.8377 76.6748 11.4442 77.1067 11.0418L77.13 11.02C77.6865 10.5728 78.2564 10.1418 78.8273 9.71015C79.3541 9.31178 79.8817 8.91282 80.4 8.50004C80.714 8.25337 81.0238 8.00156 81.3335 7.74989C81.6205 7.51667 81.9073 7.28355 82.1972 7.05473C82.0171 8.61628 81.7384 10.1582 81.44 11.7C81.3549 12.1008 81.2685 12.5004 81.1822 12.8996C81.0252 13.6258 80.8684 14.3508 80.72 15.08C80.58 15.79 80.47 16.51 80.51 17.24C80.5381 17.7455 80.575 18.2335 80.6123 18.7285L80.62 18.83C80.61 18.75 80.61 18.67 80.6 18.59C80.6032 18.6452 80.6075 18.7004 80.6119 18.7559C80.6209 18.8714 80.63 18.9884 80.63 19.11C80.52 20.05 81.21 20.94 82.15 21.07L82.1672 21.0719C82.2491 21.0812 82.3158 21.0887 82.4 21.07C83.26 21.07 84.03 20.41 84.15 19.54C84.2267 19.0181 84.1739 18.4667 84.1226 17.9311C84.107 17.7689 84.0916 17.6081 84.08 17.45L84.0787 17.4206C84.0692 17.2012 84.06 16.9902 84.06 16.77C84.1047 16.2247 84.2133 15.6955 84.3216 15.1679C84.3344 15.1053 84.3473 15.0426 84.36 14.98C84.3589 14.9841 84.3579 14.9884 84.357 14.9924C84.4126 14.7353 84.4688 14.4782 84.525 14.221C84.8289 12.8297 85.1336 11.4346 85.36 10.02C85.51 9.06998 85.65 8.12 85.76 7.16001C85.8025 6.79292 85.8376 6.42436 85.8727 6.05543C85.9283 5.46961 85.9841 4.88291 86.07 4.3C86.17 4.07999 86.23 3.83003 86.23 3.57002C86.23 2.60001 85.42 1.8 84.46 1.8C84.2296 1.8 84.0017 1.84324 83.7891 1.92735C83.5058 1.81178 83.2049 1.73383 82.9 1.68003C82.2423 1.56358 81.5799 1.49873 80.9192 1.43409C80.6155 1.40437 80.3123 1.37467 80.01 1.34003C79.702 1.30271 79.3919 1.26322 79.0806 1.22355C78.7247 1.17823 78.3674 1.1327 78.01 1.09003C76.52 0.920052 75.02 0.760018 73.52 0.830025C72.72 0.860024 71.92 0.980049 71.16 1.26005C70.9664 1.33381 70.7749 1.41184 70.5825 1.49018C70.3577 1.58176 70.1318 1.67381 69.9 1.76005C69.8101 1.79002 69.7102 1.81998 69.6203 1.83997C69.6335 1.83653 69.6467 1.8332 69.66 1.83003C69.64 1.83003 69.6303 1.82999 69.6203 1.83997C68.7616 2.06495 68.162 2.87421 68.29 3.79005C68.41 4.72004 69.33 5.46003 70.28 5.30003C70.8554 5.20029 71.4013 4.977 71.9404 4.75651C72.104 4.68958 72.267 4.6229 72.43 4.56004C72.56 4.52003 72.69 4.48005 72.82 4.45005C73.04 4.41004 73.27 4.38004 73.49 4.36002C74.17 4.33003 74.85 4.35004 75.53 4.38004C76.62 4.47004 77.69 4.60004 78.77 4.74003L79.31 4.80003C79.24 4.86002 79.16 4.92005 79.09 4.98005C78.9852 5.06513 78.8799 5.15098 78.7743 5.23716C78.3459 5.58653 77.9112 5.94114 77.47 6.27003C77.2657 6.4242 77.0587 6.57581 76.8515 6.72764C76.4808 6.99921 76.1092 7.2714 75.75 7.56004C75.08 8.09003 74.45 8.64005 73.83 9.22004C73.3726 9.63343 72.9539 10.1087 72.5467 10.5711C72.4909 10.6344 72.4354 10.6974 72.38 10.76C71.37 11.88 70.37 13.01 69.43 14.19C68.4 15.48 67.66 16.9501 66.93 18.4201C66.52 19.2501 66.14 20.1 65.76 20.9501C64.99 22.7101 64.28 24.4901 63.71 26.32C63.5434 26.8531 63.3745 27.3854 63.2057 27.9176C62.7664 29.3022 62.3273 30.6859 61.93 32.08C61.42 33.86 60.97 35.6701 60.56 37.47C60.32 38.51 60.11 39.5501 59.9 40.6C59.73 41.5 59.63 42.41 59.53 43.32C59.52 43.3601 59.51 43.41 59.51 43.46C59.495 43.4051 59.4825 43.3502 59.4701 43.2952C59.4576 43.2402 59.445 43.1851 59.43 43.13C59.19 42.1101 58.83 41.1101 58.37 40.1701C57.9 39.23 57.29 38.38 56.61 37.58C56 36.86 55.38 36.1501 54.79 35.41C54.689 35.2833 54.5883 35.1562 54.4876 35.0291C53.4919 33.7725 52.4959 32.5154 51.17 31.58C49.11 30.13 46.46 29.7401 43.99 29.94C41.75 30.12 39.45 30.74 37.88 32.46C36.71 33.74 35.85 35.26 35.09 36.82C35.0051 36.9989 34.9196 37.1778 34.8341 37.3568C34.5371 37.9783 34.2395 38.6011 33.96 39.23C33.2 40.9601 32.51 42.71 31.89 44.49C31.55 45.4501 31.23 46.41 30.98 47.4C30.76 48.29 30.64 49.21 30.53 50.12C30.25 49.3 29.91 48.51 29.52 47.74C29.2 47.13 28.86 46.54 28.52 45.9501C28.06 45.1501 27.59 44.3601 27.11 43.57C26.09 41.88 25 40.2001 23.45 38.9501C22.52 38.2001 21.48 37.56 20.34 37.19C19.2 36.82 17.98 36.7001 16.79 36.84C15.49 37 14.2 37.32 12.97 37.77C11.81 38.2 10.67 38.72 9.63004 39.4C8.59003 40.08 7.63 40.86 6.81003 41.8C6.03 42.69 5.36002 43.6901 4.81003 44.73C4.28 45.7101 3.76999 46.7201 3.36002 47.76C3.14999 48.29 2.94003 48.83 2.73004 49.36C2.57382 49.7459 2.44293 50.1488 2.31412 50.5452L2.28003 50.65C2.24005 50.7671 2.19846 50.8842 2.15686 51.0012C2.05273 51.2942 1.94861 51.5871 1.87003 51.88L1.80368 52.1248C1.56613 53.0003 1.33215 53.8626 1.14005 54.75C1.10431 54.919 1.0654 55.088 1.0264 55.2573C0.945374 55.609 0.864014 55.9623 0.810028 56.32C0.730011 56.8601 0.650024 57.3901 0.560028 57.93C0.420013 58.82 0.350006 59.73 0.330017 60.63C0.320007 61.1801 0.309998 61.73 0.340027 62.28L0.340393 62.2878C0.37027 62.8653 0.400665 63.4526 0.550018 64.01C0.720001 64.9001 1.62 65.52 2.52002 65.4C3.5 65.26 4.15002 64.3601 4.04004 63.4C4.0311 63.3107 4.01422 63.2374 3.98935 63.1587C3.98956 63.1592 3.98981 63.1596 3.99002 63.16C3.99002 63.1549 3.98743 63.1498 3.98489 63.1448C3.98331 63.1399 3.98169 63.135 3.98004 63.13C3.98004 63.135 3.98245 63.1398 3.98489 63.1448C3.98642 63.1494 3.98788 63.1541 3.98935 63.1587C3.96979 63.1194 3.9599 63.0896 3.95004 63.05C3.93002 62.89 3.92001 62.74 3.90002 62.59C3.87 61.8301 3.87003 61.07 3.88004 60.31L3.88205 60.2751C3.91138 59.7559 3.94177 59.2186 4.02002 58.71C4.10999 58.0803 4.2099 57.4507 4.30984 56.821C4.35864 56.6035 4.40665 56.3851 4.45447 56.1676C4.62219 55.4051 4.78992 54.6426 5.00003 53.88C5.27002 52.8901 5.59003 51.91 5.91003 50.93L5.97791 50.7569C6.44461 49.5656 6.90726 48.3846 7.47003 47.24C7.81412 46.571 8.17645 45.9111 8.59201 45.269C8.61215 45.2408 8.63211 45.2114 8.65002 45.18C8.63058 45.2096 8.61124 45.2393 8.59201 45.269C8.5672 45.3038 8.54208 45.3369 8.52002 45.37C8.83002 44.91 9.15002 44.47 9.51004 44.05C9.75003 43.79 10 43.54 10.27 43.29C10.59 43.0201 10.92 42.76 11.26 42.52C11.73 42.22 12.2 41.94 12.7 41.69C13.27 41.41 13.86 41.1701 14.46 40.96C15.01 40.78 15.58 40.62 16.15 40.49C16.58 40.41 17 40.34 17.43 40.3C17.5886 40.3 17.7432 40.3001 17.8989 40.3026C17.9886 40.3041 18.0787 40.3064 18.17 40.31C18.33 40.32 18.49 40.34 18.65 40.37C18.86 40.4201 19.06 40.47 19.26 40.53C19.49 40.62 19.71 40.7101 19.94 40.82C20.15 40.94 20.37 41.07 20.58 41.2001C20.88 41.4101 21.16 41.63 21.44 41.87C21.4977 41.9277 21.5553 41.9847 21.6128 42.0416C21.7847 42.2116 21.9552 42.3802 22.12 42.56C22.45 42.9501 22.77 43.35 23.06 43.77C23.6366 44.6397 24.1596 45.5271 24.6881 46.424L24.78 46.58C24.8741 46.7398 24.9685 46.8992 25.0628 47.0586C25.5001 47.7972 25.937 48.5351 26.34 49.3C26.65 49.94 26.92 50.5801 27.16 51.25C27.41 51.9901 27.6 52.7501 27.77 53.51C27.92 54.3701 28.07 55.22 28.18 56.09C28.29 57.01 28.37 57.9301 28.45 58.85C28.5475 60.7928 28.5775 62.7355 28.6075 64.6783ZM84.338 15.0801C84.3287 15.1234 84.3193 15.1667 84.31 15.21C84.32 15.1699 84.3275 15.1324 84.3351 15.0948C84.336 15.0899 84.337 15.085 84.338 15.0801Z"
    fill="rgba(191, 192, 191, 1)" />
</svg>