<?xml version="1.0" encoding="UTF-8" standalone="yes"?>
<svg width="85" height="63" viewBox="-40 -40 165 143" fill="none" xmlns="http://www.w3.org/2000/svg">
  <path fill-rule="evenodd" clip-rule="evenodd"
    d="M79.13 17.55C79.8701 18.83 80.89 19.9 82.01 20.85C82.3101 21.11 82.68 21.23 83.06 21.22C83.61 21.22 84.16 20.97 84.5 20.53C85.11 19.74 84.91 18.67 84.18 18.05C84.13 18.01 84.09 17.97 84.04 17.93C83.69 17.6 83.34 17.27 83.01 16.92C82.83 16.7 82.65 16.47 82.48 16.23C81.9065 15.3437 81.384 14.4234 80.8626 13.5052C80.5839 13.0144 80.3056 12.5242 80.02 12.04C79.3186 10.8515 78.5317 9.70093 77.7519 8.56059L77.69 8.47002C77.6011 8.33955 77.5123 8.20882 77.4233 8.07794C76.4011 6.57382 75.366 5.05075 74.17 3.68001C73.53 2.96002 72.88 2.26002 72.16 1.62001L72.1267 1.59089C71.5758 1.10876 70.9764 0.584086 70.3 0.290011C69.64 0.0100118 68.93 -0.06999 68.29 0.310007C68.01 0.470011 67.76 0.720019 67.62 1.01001C67.5219 1.19959 67.4556 1.3996 67.4214 1.60163C67.1722 1.73492 66.9312 1.88244 66.7 2.05C65.3656 2.98002 64.1555 4.09316 62.9533 5.19902C62.6689 5.4606 62.385 5.72176 62.1 5.98L62.11 5.97C60.79 7.10999 59.46 8.22 58.07 9.26C56.65 10.33 55.2 11.36 53.74 12.37C53.09 12.8 52.43 13.22 51.76 13.63L50.65 14.29C50.05 14.64 49.67 15.22 49.67 15.93C49.67 16.9 50.48 17.69 51.44 17.7C51.9 17.71 52.26 17.56 52.65 17.34C52.83 17.24 52.99 17.11 53.11 16.95C54.21 16.29 55.29 15.61 56.34 14.88C57.66 13.96 58.95 13.03 60.24 12.07C61.48 11.15 62.67 10.17 63.84 9.16C64.7578 8.3663 65.6618 7.55208 66.5635 6.73997C66.7524 6.56982 66.9412 6.39976 67.13 6.23C67.65 5.77999 68.18 5.34 68.74 4.94C68.7766 4.91068 68.8187 4.88672 68.8582 4.86421C68.8726 4.85601 68.8867 4.848 68.9 4.83999C68.9106 4.85593 68.9185 4.86904 68.9249 4.88084C68.9307 4.89124 68.9353 4.90062 68.94 4.91C69 5.04 69.06 5.16999 69.11 5.3C69.27 5.8 69.39 6.29 69.5 6.8L69.5348 6.99099C69.8836 8.90858 70.2358 10.8446 70.41 12.79C70.4954 14.0893 70.4494 15.374 70.403 16.669C70.3951 16.889 70.3873 17.1093 70.38 17.33C70.3604 17.5919 70.3417 17.8534 70.323 18.1145C70.2561 19.0499 70.1895 19.9819 70.08 20.92C69.93 22.15 69.74 23.37 69.54 24.6C69.5077 24.7565 69.4757 24.913 69.4437 25.0694C69.2773 25.8827 69.1113 26.6949 68.91 27.5L68.9074 27.51C68.5883 28.7466 68.2691 29.9833 67.93 31.21C67.6706 32.1585 67.3915 33.1069 67.114 34.0501C67.0491 34.2704 66.9844 34.4904 66.92 34.71C66.7308 35.372 66.5052 36.0203 66.2801 36.6672C66.1719 36.978 66.0638 37.2885 65.96 37.6C65.9715 37.5541 65.9863 37.5114 66.0005 37.4702C66.0112 37.4396 66.0215 37.4098 66.03 37.38L65.9703 37.5372C65.3607 39.1441 64.755 40.7405 63.99 42.29C63.38 43.47 62.69 44.6 61.96 45.7C61.33 46.62 60.65 47.5 59.93 48.34C59.3 49.04 58.63 49.7 57.92 50.33C57.08 51.06 56.21 51.73 55.3 52.37C54.62 52.82 53.93 53.23 53.21 53.61C52.52 53.95 51.81 54.24 51.08 54.5C50.32 54.74 49.56 54.95 48.79 55.12C47.83 55.31 46.87 55.44 45.9 55.51C44.89 55.56 43.87 55.55 42.85 55.49C42.62 55.47 42.4 55.45 42.17 55.43C43.92 54 45.56 52.4 46.9 50.58C48.4 48.55 49.81 46.17 50.06 43.6C50.3 41.15 49.75 38.74 48.68 36.54C47.67 34.47 46.19 32.51 44.35 31.1C42.3199 29.54 39.94 28.61 37.39 28.4C34.88 28.19 32.39 28.81 30.28 30.19C28.21 31.54 26.8 33.68 26.21 36.06C25.57 38.63 25.44 41.36 25.68 43.99C25.91 46.5 26.43 49.08 27.64 51.31C28.83 53.5 30.72 55.3 32.91 56.48C33.05 56.55 33.18 56.62 33.32 56.69C32.96 56.84 32.59 56.98 32.23 57.11C31.09 57.5 29.93 57.82 28.75 58.07C27.7834 58.2537 26.8169 58.3906 25.8323 58.4808C25.7988 58.4818 25.7654 58.4842 25.7319 58.4897C25.7247 58.4899 25.7174 58.49 25.71 58.49C24.54 58.56 23.37 58.56 22.2 58.49H22.19C22.1528 58.49 22.1118 58.4861 22.0692 58.4832C20.6472 58.3625 19.2536 58.165 17.86 57.9L17.449 57.8052C15.9879 57.4687 14.5372 57.1346 13.12 56.65C12.51 56.43 11.9 56.18 11.31 55.91C10.83 55.66 10.37 55.4 9.91998 55.11C9.44 54.77 8.98004 54.41 8.53003 54.03C8.05005 53.58 7.59003 53.11 7.14001 52.62C6.35999 51.73 5.62 50.8 4.94 49.82C4.70001 49.46 4.48004 49.09 4.28003 48.71C4.18005 48.51 4.09003 48.31 4.01001 48.1C3.97668 47.9999 3.95221 47.8998 3.92773 47.7997C3.91553 47.7498 3.90332 47.6999 3.89001 47.65C3.88 47.6 3.88 47.54 3.87 47.49C3.86456 47.4193 3.86206 47.3487 3.86096 47.2764C3.85999 47.2157 3.85999 47.1539 3.85999 47.09C3.85999 46.12 3.06 45.32 2.09003 45.32C1.12006 45.32 0.320007 46.13 0.320007 47.09V47.2C0.340027 48.03 0.469971 48.85 0.799988 49.62C1.19 50.54 1.70001 51.41 2.28003 52.21C2.86005 53.01 3.48999 53.78 4.12 54.55C5.28998 56 6.72998 57.31 8.32001 58.29C10.09 59.38 12.03 60.09 14.02 60.63C16.62 61.34 19.3 61.84 21.99 62.02C22.63 62.06 23.26 62.08 23.88 62.07C27.55 62.07 31.22 61.37 34.62 59.97C35.76 59.5 36.88 58.95 37.96 58.34C38.69 58.51 39.42 58.64 40.16 58.75C45.33 59.5 50.8 59 55.43 56.44C56.65 55.77 57.81 54.99 58.9 54.12C59.87 53.34 60.83 52.52 61.7 51.63C63.44 49.82 64.93 47.77 66.19 45.6C67.67 43.06 68.75 40.33 69.69 37.56C70.32 35.72 70.87 33.86 71.38 31.98C71.65 31.01 71.91 30.03 72.16 29.05C72.4 28.1 72.61 27.15 72.81 26.19C73.22 24.27 73.47 22.33 73.69 20.38C73.765 19.6898 73.8063 18.9997 73.8475 18.3095C73.8613 18.0796 73.875 17.8498 73.89 17.62C73.98 16.44 74.01 15.24 73.99 14.06C73.961 12.1699 73.6909 10.2956 73.3693 8.43321C73.9069 9.18448 74.4266 9.94837 74.9456 10.7109L75.06 10.88L75.2397 11.1525C76.1107 12.4719 76.9841 13.7953 77.77 15.18C78.22 15.98 78.67 16.76 79.13 17.55ZM25.7343 58.4896C25.767 58.4867 25.7997 58.4838 25.8323 58.4808C25.8582 58.48 25.8841 58.48 25.91 58.48C25.875 58.48 25.8425 58.4825 25.81 58.485C25.7851 58.4869 25.7603 58.4888 25.7343 58.4896ZM25.7343 58.4896L25.73 58.49L25.7319 58.4897L25.7343 58.4896ZM34.79 32.06C35.13 32 35.47 31.96 35.82 31.92C36.02 31.91 36.22 31.91 36.43 31.9C36.63 31.9 36.82 31.9 37.02 31.91C37.46 31.95 37.9 32.01 38.34 32.09C38.78 32.19 39.22 32.32 39.65 32.46C39.97 32.59 40.29 32.73 40.61 32.88C40.96 33.07 41.3 33.27 41.64 33.49C41.96 33.71 42.26 33.94 42.56 34.19C42.91 34.5 43.23 34.82 43.55 35.16C43.96 35.64 44.34 36.14 44.7 36.66C44.98 37.1 45.24 37.55 45.48 38.01C45.71 38.48 45.91 38.96 46.08 39.44C46.21 39.85 46.32 40.27 46.42 40.69C46.49 41.07 46.54 41.47 46.58 41.86C46.6 42.2 46.6 42.53 46.59 42.86C46.56 43.14 46.53 43.41 46.48 43.69C46.4 44.01 46.3199 44.33 46.22 44.65C46.06 45.09 45.87 45.51 45.67 45.93C45.35 46.55 45 47.14 44.61 47.72C44.13 48.4 43.62 49.06 43.08 49.69C42.3635 50.4936 41.6094 51.2411 40.8088 51.9594C39.8873 52.7604 38.9368 53.5227 37.93 54.21C37.77 54.32 37.6 54.43 37.43 54.54C37.21 54.47 36.98 54.4 36.76 54.33C36.2 54.13 35.65 53.9 35.1 53.63C34.64 53.39 34.18 53.12 33.74 52.83C33.36 52.56 32.99 52.27 32.63 51.97C32.35 51.7 32.08 51.43 31.82 51.15C31.59 50.87 31.37 50.58 31.16 50.28C31.02 50.05 30.89 49.83 30.76 49.6C30.51 49.08 30.29 48.56 30.09 48.02C29.8701 47.34 29.69 46.66 29.54 45.96C29.37 45.07 29.26 44.18 29.19 43.28C29.14 42.21 29.13 41.14 29.19 40.07C29.25 39.3 29.33 38.54 29.47 37.77C29.59 37.23 29.73 36.7 29.9 36.18C29.9567 36.0383 30.0134 35.8998 30.0718 35.7627C30.1166 35.6579 30.1624 35.554 30.21 35.45C30.36 35.18 30.51 34.91 30.68 34.65C30.82 34.47 30.96 34.3 31.1 34.13C31.27 33.95 31.43 33.79 31.61 33.63C31.79 33.47 31.98 33.32 32.18 33.18C32.47 33 32.76 32.83 33.06 32.67C33.36 32.53 33.66 32.4 33.97 32.29C34.24 32.2 34.5099 32.13 34.79 32.06Z"
    fill="rgba(191, 192, 191, 1)" />
</svg>