<?xml version="1.0" encoding="UTF-8" standalone="yes"?>
<svg width="73" height="73" viewBox="-40 -40 153 153" fill="none" xmlns="http://www.w3.org/2000/svg">
  <path
    d="M3.01001 71.66C2.86001 71.42 2.71998 71.18 2.59998 70.93C1.58998 71.07 0.560059 70.29 0.560059 69.18C0.560059 68.58 0.72998 68.06 0.97998 67.52C1.26998 66.89 1.64003 66.3 2.03003 65.73C2.90003 64.49 3.92005 63.37 5.05005 62.35C5.58005 61.88 6.13997 61.45 6.71997 61.05C7.25997 60.68 7.84999 60.29 8.48999 60.11C8.63999 60.06 8.79996 60.03 8.95996 60C9.56996 59.39 10.22 58.81 10.89 58.28C12.16 57.27 13.5599 56.42 15.0699 55.82C15.6699 55.59 16.33 55.38 16.98 55.46C17.6 54.38 18.08 53.22 18.76 52.18C19.52 51.02 20.35 49.91 21.14 48.78C21.43 48.36 21.7 47.94 21.99 47.53C22.04 47.46 22.09 47.38 22.13 47.3C21.8 47.15 21.52 46.9 21.34 46.59C20.95 45.92 21.04 44.98 21.62 44.44C21.87 44.21 22.13 44.03 22.46 43.93C22.6 43.89 22.75 43.85 22.9 43.81C22.92 43.8 22.94 43.79 22.96 43.78C23.51 43.49 24.0301 43.17 24.5601 42.83C26.6601 41.38 28.57 39.66 30.52 38.03C31.2 37.46 32.15 37.6 32.76 38.11C32.79 38.08 32.81 38.05 32.84 38.02C32.57 37.62 32.46 37.11 32.63 36.61C32.79 36.14 32.97 35.72 33.25 35.31C33.53 34.91 33.84 34.54 34.14 34.16C34.51 33.7 34.88 33.24 35.25 32.78C35.87 32.01 36.51 31.24 37.14 30.48C37.68 29.83 38.21 29.18 38.74 28.52C39.1 28.08 39.47 27.64 39.83 27.19C39.84 26.99 39.88 26.8 39.96 26.6C40.28 25.82 40.81 25.12 41.28 24.42C41.33 24.34 41.3899 24.26 41.4399 24.18C41.4299 24.19 41.43 24.2 41.42 24.21C41.65 23.87 41.87 23.52 42.12 23.19C42.29 22.96 42.5 22.77 42.74 22.61C43.16 22.34 43.66 22.32 44.15 22.31C45.04 22.29 45.91 22.62 46.74 22.89C46.83 22.92 46.92 22.9399 47.01 22.9699C47.03 22.7599 47.05 22.55 47.09 22.35C47.25 21.58 47.56 20.89 48.01 20.24C48.49 19.55 49.07 18.97 49.72 18.44C50.29 17.98 50.93 17.67 51.61 17.44C52.12 17.26 52.62 17.07 53.11 16.84C53.61 16.58 54.0901 16.3 54.5601 16C54.9601 15.72 55.35 15.43 55.73 15.13C55.78 14.86 55.8899 14.6 56.0699 14.38C56.4799 13.86 57.0201 13.43 57.5601 13.04C57.6301 12.99 57.71 12.93 57.79 12.88C58.2 12.47 58.61 12.06 59.01 11.63C59 11.38 59.05 11.13 59.14 10.88C59.41 10.19 59.9 9.66995 60.41 9.15995C60.74 8.82995 61.07 8.49995 61.4 8.15995C61.92 7.63995 62.48 7.14996 63.04 6.66996C63.16 6.55996 63.28 6.45996 63.4 6.35996C62.6 6.25996 61.83 5.98995 61.2 5.46995C60.8899 5.58995 60.58 5.70999 60.27 5.81999C59.87 5.93999 59.4801 6.02 59.0601 5.96C58.6101 5.9 58.24 5.65998 57.9 5.37998C57.88 5.35998 57.86 5.34 57.84 5.33L57.83 5.31999C57.83 5.31999 57.83 5.31998 57.83 5.30998C57.81 5.30998 57.79 5.30997 57.77 5.29997C57.63 5.29997 57.48 5.29999 57.33 5.31999C57.41 5.31999 57.4899 5.30997 57.5699 5.29997C57.4699 5.30997 57.36 5.33 57.26 5.34C56.94 5.42 56.6201 5.51996 56.3101 5.60996C56.3001 5.60996 56.29 5.61997 56.29 5.61997C56.27 5.62997 56.25 5.62999 56.24 5.63999C55.57 5.87999 54.9 6.13999 54.23 6.38999C53.59 6.63999 53.02 6.68997 52.39 6.36997C51.98 6.15997 51.7299 5.83995 51.5699 5.46995C51.4899 5.46995 51.42 5.46995 51.34 5.46995C50.93 5.50995 50.54 5.58 50.13 5.65C49.51 5.78 48.88 5.91001 48.25 6.03001C47.2 6.48001 46.1699 6.94996 45.0699 7.28996C44.0499 7.59996 42.89 7.62999 41.9 7.19999C41.2 6.89999 40.58 6.47996 39.92 6.10996C39.73 6.01996 39.54 5.93996 39.33 5.85996C39.26 5.83996 39.19 5.81997 39.12 5.79997C37.97 6.06997 36.8299 6.38998 35.6899 6.68998C34.3499 7.02998 32.98 7.21999 31.6 7.19999C30.81 7.18999 30.04 7.04999 29.27 6.88999C28.56 6.73999 27.8601 6.46 27.1801 6.21C26.8901 6.12 26.6099 6.03996 26.3199 5.97996C26.1199 5.93996 25.91 5.92 25.7 5.9C25.23 5.88 24.76 5.87995 24.29 5.90995C23.67 5.95995 23.0501 6.00996 22.4301 6.10996C22.3601 6.14996 22.29 6.18995 22.21 6.21995C21.75 6.39995 21.29 6.38995 20.83 6.21995C20.34 6.03995 19.9501 5.55998 19.8101 5.05998C19.6601 4.50998 19.79 3.95999 20.11 3.50999C20.46 3.01999 21.09 2.73 21.61 2.46C22.25 2.13 22.94 1.77997 23.67 1.67997C24.06 1.62997 24.42 1.61996 24.8 1.66996C25.03 1.69996 25.25 1.77997 25.46 1.86997C26.13 1.96997 26.81 1.99 27.48 2.08C28.45 2.2 29.37 2.48999 30.3 2.69999C30.43 2.71999 30.5699 2.73998 30.6899 2.74998C30.8599 2.75998 31.03 2.75998 31.2 2.74998C32.86 2.60998 34.48 2.16001 36.14 2.03001C37.15 1.95001 38.17 1.97995 39.16 2.15995C39.34 2.11995 39.53 2.08998 39.71 2.05998C40.23 1.96998 40.77 1.94999 41.29 2.00999C41.9 2.06999 42.47 2.24999 43.04 2.44999C43.34 2.54999 43.65 2.63995 43.96 2.71995C44.23 2.76995 44.51 2.81 44.78 2.84C45.08 2.85 45.3899 2.85 45.7 2.83C46.2099 2.79 46.71 2.70997 47.21 2.61997C47.98 2.29997 48.7599 2 49.5699 1.77C50.0999 1.62 50.68 1.48998 51.23 1.49998C51.89 1.50998 52.48 1.61 53.09 1.83C53.3 1.91 53.48 2.02996 53.66 2.16996C53.7 2.16996 53.75 2.17997 53.79 2.17997C53.99 2.17997 54.19 2.17997 54.39 2.17997C54.7 2.13997 55.0099 2.09997 55.3199 2.04997C55.7999 1.93997 56.27 1.79995 56.74 1.65995C56.67 1.68995 56.59 1.70997 56.52 1.73997C57.04 1.55997 57.5599 1.37999 58.0699 1.19999C57.9999 1.22999 57.93 1.25001 57.85 1.28001C58.41 1.08001 58.97 0.87998 59.53 0.68998C60.21 0.45998 60.92 0.139951 61.64 0.159951C62.22 0.169951 62.79 0.44998 63.11 0.93998C64.31 0.59998 65.6 0.449961 66.66 0.919961C67.68 0.539961 68.8 0.209983 69.8 0.629983C70.22 0.809983 70.56 1.13996 70.78 1.53996C71.46 1.66996 72.06 2.15 72.26 2.84C72.51 3.72001 72.22 4.58995 71.9 5.40995C71.65 6.04995 71.31 6.65999 70.97 7.25999C70.75 7.65999 70.51 8.05999 70.25 8.44999C70.34 9.17999 70 9.91 69.65 10.59C69.68 10.59 69.72 10.6 69.75 10.6C69.73 10.6 69.7199 10.6 69.7 10.6C70.41 10.67 71.05 11.02 71.34 11.71C71.74 12.67 71.31 13.66 70.91 14.54C70.52 15.39 70.1 16.22 69.74 17.09C69.67 17.3 69.6101 17.52 69.5601 17.73C69.5501 17.79 69.54 17.85 69.53 17.91C69.66 18.28 69.7599 18.64 69.8199 19.04C69.9099 19.64 69.77 20.26 69.63 20.84C69.43 21.67 69.0399 22.45 68.7 23.23C68.93 23.49 69.08 23.81 69.13 24.18C69.19 24.63 69.0801 25.04 68.9301 25.45C69.2001 25.59 69.4501 25.74 69.6801 25.95C70.0001 26.25 70.33 26.63 70.49 27.05C70.68 27.54 70.78 28.01 70.83 28.53C70.89 29.24 70.7901 29.96 70.6801 30.67C70.4801 31.88 70.14 33.09 69.86 34.29C69.79 34.69 69.71 35.08 69.66 35.49C69.65 35.67 69.65 35.85 69.65 36.03C69.66 36.1 69.6701 36.18 69.6801 36.25C69.7201 36.41 69.7601 36.5599 69.8101 36.7199C70.0701 37.4199 70.3 38.12 70.41 38.88C70.52 39.67 70.46 40.49 70.37 41.28C70.3 41.93 70.2 42.58 70.13 43.23C70.24 43.4 70.33 43.59 70.39 43.81C70.64 44.7 70.1 45.56 69.61 46.26C69.59 46.29 69.57 46.31 69.55 46.34C69.8501 46.64 70.02 47.03 70.15 47.44C70.33 48.03 70.1801 48.68 70.0601 49.26C69.9201 49.94 69.63 50.61 69.39 51.26C69.3 51.52 69.2 51.78 69.1 52.05C69.43 52.76 69.21 53.5 68.89 54.18C68.96 54.71 68.8 55.25 68.39 55.62C68.05 55.93 67.73 56.12 67.27 56.2C66.86 56.28 66.46 56.17 66.12 55.96C65.88 55.84 65.66 55.67 65.48 55.44C65.1 54.96 65.0301 54.35 65.1801 53.76C65.2301 53.54 65.34 53.34 65.45 53.14C65.35 52.85 65.31 52.53 65.36 52.19C65.43 51.65 65.68 51.12 65.86 50.61C66 50.2 66.15 49.79 66.3 49.38C66.32 49.31 66.34 49.25 66.37 49.18C66.09 49.1 65.8199 48.96 65.5699 48.77C65.0199 48.34 64.74 47.57 64.95 46.9C65.1499 46.26 65.6 45.74 65.99 45.2C66.21 44.9 66.43 44.6 66.65 44.29C66.55 43.88 66.56 43.44 66.6 43.02C66.67 42.15 66.81 41.29 66.91 40.43C66.93 40.1 66.94 39.77 66.92 39.44C66.91 39.33 66.9 39.23 66.88 39.13C66.83 38.91 66.77 38.6899 66.7 38.4699C66.45 37.7799 66.22 37.1 66.14 36.36C66.04 35.46 66.21 34.57 66.37 33.68C66.58 32.57 66.89 31.47 67.13 30.36C67.2 29.97 67.25 29.59 67.3 29.2C67.3 29.28 67.29 29.36 67.28 29.44C67.3 29.24 67.3101 29.05 67.3 28.85C67.29 28.76 67.28 28.67 67.27 28.58C66.85 28.38 66.43 28.18 66.09 27.87C65.7 27.51 65.4 27.07 65.26 26.55C65.1 25.95 65.2 25.38 65.38 24.82C65.22 24.5 65.1101 24.16 65.0601 23.81C64.8901 22.58 65.6499 21.42 66.0699 20.31C66.1399 20.1 66.2 19.9 66.25 19.69C66.26 19.63 66.27 19.57 66.28 19.51C66.28 19.48 66.28 19.45 66.28 19.42C66.28 19.4 66.28 19.38 66.27 19.37C66.27 19.35 66.26 19.33 66.25 19.31C66.14 19.03 66 18.74 65.98 18.44C65.95 18.03 65.96 17.65 66.03 17.24C66.15 16.57 66.37 15.94 66.63 15.3C66.86 14.73 67.13 14.18 67.4 13.62C67.2 13.53 67.01 13.43 66.84 13.31C66.2 12.87 65.79 12.2 65.74 11.42C65.68 10.57 66.0501 9.83 66.4301 9.09C66.3901 8.99 66.37 8.89001 66.36 8.78001C66.31 8.78001 66.27 8.77 66.22 8.77C66.15 8.76 66.09 8.74996 66.02 8.72996C65.65 9.03996 65.28 9.36998 64.91 9.68998C64.3 10.26 63.69 10.85 63.1 11.44C63.13 11.8 63.05 12.17 62.87 12.51C62.68 12.88 62.3499 13.18 62.0699 13.49C62.0499 13.85 61.93 14.21 61.7 14.5C61.57 14.68 61.42 14.82 61.25 14.96C60.56 15.6 59.86 16.22 59.15 16.84C58.2 17.68 57.2 18.45 56.13 19.16C55.02 19.8899 53.8101 20.41 52.5601 20.84C52.4601 20.88 52.36 20.92 52.27 20.96C52.2 21 52.12 21.05 52.04 21.1C51.87 21.22 51.7101 21.35 51.5601 21.48C51.3901 21.64 51.2299 21.81 51.0699 21.98C50.9899 22.08 50.92 22.18 50.84 22.28C50.78 22.38 50.72 22.48 50.66 22.58C50.63 22.64 50.5999 22.7 50.5699 22.77C50.5399 22.86 50.52 22.96 50.49 23.06C50.49 23.09 50.48 23.1299 50.48 23.16C50.47 23.61 50.5099 24.09 50.4399 24.54C50.3699 24.97 50.26 25.35 50.03 25.74C49.8 26.13 49.38 26.46 48.96 26.63C48.48 26.83 47.96 26.81 47.46 26.73C46.43 26.57 45.48 26.16 44.48 25.9C44.45 25.94 44.43 25.98 44.4 26.02C44.41 26 44.4199 25.9799 44.4399 25.9699C44.3899 26.0599 44.33 26.14 44.27 26.23C44.21 26.32 44.15 26.41 44.08 26.5C44.12 26.44 44.17 26.38 44.21 26.31C44.08 26.51 43.9401 26.7 43.8101 26.9C43.8301 27.1 43.81 27.31 43.75 27.51C43.59 28.04 43.24 28.47 42.91 28.9C42.62 29.26 42.34 29.6199 42.05 29.9699C41.46 30.6999 40.86 31.43 40.26 32.16C39.67 32.8699 39.09 33.57 38.51 34.29C38.17 34.7 37.84 35.12 37.51 35.54C37.74 35.81 37.91 36.15 37.96 36.51C38.06 37.23 37.69 37.81 37.23 38.33C37.28 38.28 37.33 38.22 37.38 38.16C37.18 38.41 36.97 38.64 36.76 38.88C36.81 38.82 36.86 38.77 36.91 38.71C36.3 39.41 35.6899 40.09 35.0699 40.76C34.4199 41.47 33.7 42.11 32.98 42.74C32.57 43.09 32.1401 43.4 31.6801 43.69C31.2701 43.94 30.79 44.06 30.34 44.21C29.85 44.38 29.29 44.25 28.86 43.96C28.45 44.3 28.03 44.63 27.6 44.95C27.37 45.12 27.13 45.29 26.89 45.46C26.87 45.79 26.78 46.12 26.62 46.43C25.83 47.99 24.89 49.45 23.91 50.89C23.95 50.83 24 50.77 24.04 50.7C23.35 51.72 22.61 52.6999 21.91 53.7199C21.4 54.5099 20.96 55.33 20.53 56.17C20.39 56.43 20.26 56.7 20.12 56.96C19.85 57.49 19.53 58.08 19.1 58.5C18.71 58.89 18.2399 59.12 17.6899 59.2C17.2799 59.25 16.93 59.16 16.6 58.98C16.58 58.98 16.56 58.99 16.55 59C16.14 59.16 15.74 59.33 15.34 59.52C14.9 59.76 14.4701 60.01 14.0601 60.28C14.1201 60.24 14.18 60.19 14.25 60.15C13.84 60.43 13.44 60.72 13.04 61.03C13.25 61.65 13.13 62.41 12.63 62.86C12.52 62.95 12.42 63.04 12.3 63.12C11.5 63.92 10.6699 64.7 9.81995 65.45C9.82995 65.44 9.83997 65.43 9.83997 65.43C9.81997 65.45 9.80003 65.47 9.78003 65.48C9.74003 65.51 9.71004 65.54 9.67004 65.57C9.68004 65.56 9.68995 65.55 9.69995 65.54C9.33995 65.85 8.99 66.1699 8.62 66.4699C8.19 66.8099 7.58995 66.92 7.06995 66.77C6.67995 66.66 6.37002 66.44 6.15002 66.14C6.07002 66.23 5.99002 66.32 5.90002 66.41C5.62002 66.74 5.34997 67.07 5.08997 67.42C5.09997 67.44 5.10999 67.46 5.10999 67.48C5.15999 67.65 5.21001 67.82 5.26001 67.99C5.36001 68.33 5.46996 68.66 5.57996 68.99C5.64996 69.17 5.72004 69.33 5.79004 69.51C5.84004 69.6 5.89996 69.7 5.95996 69.79C6.15996 70.1 6.28003 70.42 6.28003 70.81C6.28003 71.77 5.47001 72.58 4.51001 72.58C3.90001 72.62 3.31001 72.2199 3.01001 71.66Z"
    fill="rgba(191, 192, 191, 1)" />
  <path d="M51.65 17.45C51.64 17.45 51.63 17.46 51.63 17.46C51.64 17.46 51.64 17.45 51.65 17.45Z"
    fill="rgba(191, 192, 191, 1)" />
  <path d="M51.61 17.46C51.61 17.46 51.6 17.47 51.59 17.47C51.6 17.46 51.61 17.46 51.61 17.46Z"
    fill="rgba(191, 192, 191, 1)" />
</svg>