<?xml version="1.0" encoding="UTF-8" standalone="yes"?>
<svg width="79" height="64" viewBox="-40 -40 159 144" fill="none" xmlns="http://www.w3.org/2000/svg">
  <path
    d="M24.39 63.5201C23.47 63.4701 22.58 63.3001 21.67 63.1501C21.02 63.0401 20.38 62.91 19.76 62.7C18.9 62.42 18.1 61.9901 17.31 61.5501C16.47 61.0801 15.65 60.59 14.83 60.08C14.02 59.58 13.26 58.98 12.52 58.37C11.79 57.77 11.04 57.1801 10.36 56.5301C8.96997 55.2001 7.76996 53.71 6.53996 52.24C5.92996 51.51 5.30998 50.76 4.80998 49.94C4.28998 49.08 3.81001 48.19 3.40001 47.2701C2.60001 45.48 1.85 43.6301 1.52 41.6801C1.2 39.8401 0.979971 37.98 0.799971 36.12C0.619971 34.27 0.759978 32.3901 0.869978 30.5301C0.929978 29.5301 1.03998 28.5501 1.17998 27.5601C1.30998 26.6301 1.55 25.7101 1.77 24.7901C2.22 22.9001 2.79995 21.05 3.46995 19.23C3.77995 18.39 4.16998 17.57 4.55998 16.77C5.01998 15.82 5.60997 14.95 6.23997 14.11C6.77997 13.37 7.44998 12.69 8.11998 12.07C8.82998 11.42 9.53996 10.7801 10.29 10.1801C11.72 9.04008 13.17 7.85 14.78 6.97C16.42 6.08 18.12 5.34001 19.83 4.61001C21.53 3.88001 23.26 3.19004 25 2.57004C26.84 1.92004 28.8 1.58001 30.71 1.23001C32.55 0.90001 34.42 0.710017 36.28 0.550017C38.12 0.390017 39.98 0.440019 41.82 0.490019C42.77 0.520019 43.7 0.610029 44.64 0.750029C45.56 0.890029 46.47 1.20002 47.35 1.49002C48.28 1.80002 49.2 2.11 50.1 2.47C50.89 2.77 51.63 3.17006 52.39 3.53006C54.15 4.37006 55.95 5.10003 57.54 6.25003C58.47 6.92003 59.29 7.74005 60.13 8.52005C60.75 9.06005 61.4 9.59003 62.03 10.13C62.98 10.94 63.94 11.74 64.67 12.75C65.46 13.85 65.89 15.1501 66.33 16.4201C66.62 17.2601 66.85 18.12 67.06 18.97C67.29 19.92 67.49 20.88 67.67 21.85C67.76 22.35 67.84 22.86 67.88 23.37C69.36 23.08 70.85 22.8501 72.37 22.8101C73.21 22.7901 74.05 22.8 74.89 22.83C75.5 22.85 76.14 22.84 76.72 23C77.57 23.23 78.21 23.96 78.21 24.86C78.21 25.34 78.04 25.8 77.89 26.24C77.73 26.7 77.54 27.17 77.35 27.62C76.98 28.5 76.53 29.35 76.08 30.2C75.2 31.88 74.31 33.55 73.44 35.22C72.65 36.73 71.76 38.1901 70.89 39.6501C70.05 41.0601 69.26 42.49 68.51 43.96C68.01 45.01 67.54 46.1201 66.81 47.0301C66.29 47.6801 65.52 48.12 64.68 48.12C63.94 48.12 63.38 47.72 62.85 47.26L62.86 47.2701C62.45 46.91 62.02 46.56 61.58 46.23C61.64 46.27 61.71 46.32 61.77 46.35C60.94 45.8 60.1 45.2701 59.31 44.6701C58.49 44.0401 57.68 43.39 56.85 42.7701C55.14 41.5 53.44 40.2401 51.68 39.0401C51.74 39.0801 51.8 39.1301 51.87 39.1701C50.09 38.0101 48.32 36.84 46.57 35.64C46.6 35.66 46.63 35.68 46.66 35.7C46.62 35.67 46.58 35.65 46.54 35.62C46.54 35.62 46.53 35.62 46.53 35.61H46.52C45.85 35.17 45.18 34.7201 44.49 34.3001C43.64 33.7701 42.79 33.22 41.91 32.76C41.29 32.73 40.69 32.6201 40.29 32.0601C39.72 31.2601 39.83 30.2 40.61 29.58C40.84 29.4 41.1 29.31 41.36 29.21C41.67 29.08 41.99 28.96 42.31 28.83C43.12 28.51 43.95 28.21 44.81 28.01C45.77 27.79 46.73 27.61 47.71 27.48C49.1 27.3 50.51 27.4501 51.91 27.5501C51.86 27.5501 51.82 27.5401 51.77 27.5401C51.82 27.5401 51.86 27.5401 51.91 27.5501C51.43 26.6501 50.93 25.75 50.44 24.85C49.89 23.82 49.34 22.8001 48.74 21.8001C48.78 21.8601 48.83 21.92 48.87 21.99C48.64 21.65 48.41 21.31 48.17 20.97C47.96 20.66 47.7 20.37 47.46 20.08C46.83 19.38 46.19 18.71 45.49 18.08C45.15 17.8 44.81 17.5301 44.45 17.2801C44.2 17.1201 43.95 16.97 43.68 16.82C43.41 16.69 43.14 16.57 42.86 16.46C42.41 16.31 41.96 16.19 41.49 16.09C40.79 15.97 40.09 15.87 39.38 15.82C38.74 15.79 38.11 15.78 37.48 15.82C36.81 15.87 36.14 15.96 35.48 16.09C34.37 16.33 33.29 16.67 32.21 17.02C30.99 17.46 29.77 17.9 28.6 18.47C28.05 18.75 27.53 19.0601 27.01 19.4001C26.45 19.8001 25.91 20.2201 25.39 20.6701C24.6 21.3801 23.84 22.15 23.13 22.95C22.56 23.61 22.02 24.3 21.52 25.02C21.12 25.63 20.76 26.2501 20.43 26.9001C20.07 27.6401 19.75 28.4001 19.47 29.1701C19.27 29.7701 19.11 30.37 18.97 30.99C18.86 31.57 18.77 32.15 18.72 32.74C18.69 33.36 18.68 33.99 18.72 34.62C18.78 35.34 18.88 36.0601 19.01 36.7701C19.14 37.3601 19.3 37.9501 19.49 38.5201C19.69 39.07 19.92 39.61 20.17 40.14C20.38 40.55 20.61 40.94 20.86 41.33C21.11 41.69 21.37 42.03 21.65 42.36C22.19 42.95 22.78 43.4901 23.37 44.0301C24.23 44.7601 25.09 45.49 26.02 46.14C26.23 46.27 26.45 46.4001 26.68 46.5201C26.77 46.5601 26.85 46.59 26.94 46.63C27.01 46.65 27.07 46.6701 27.14 46.6801C27.19 46.6901 27.23 46.7 27.28 46.7C27.39 46.7 27.49 46.7 27.6 46.7C27.74 46.69 27.88 46.6701 28.02 46.6601C28.45 45.8801 29.42 45.52 30.26 45.87C31.14 46.24 31.59 47.31 31.2 48.19C31.18 48.23 31.16 48.2701 31.15 48.3101C31.13 48.3801 31.11 48.45 31.09 48.51C31.08 48.57 31.07 48.63 31.07 48.69C31.06 49.16 31.1 49.64 31.1 50.12C31.1 50.99 31.09 51.86 31.05 52.73C30.96 54.6 30.95 56.46 30.95 58.34C30.95 59.31 30.98 60.29 30.63 61.21C30.18 62.39 28.86 62.95 27.73 63.22C27.03 63.39 26.34 63.45 25.63 63.48C25.33 63.49 25.03 63.5201 24.72 63.5201C24.63 63.5401 24.51 63.53 24.39 63.5201ZM12.94 54.09C14.12 55.12 15.33 56.12 16.62 57.0201C17.73 57.7001 18.84 58.39 20 58.98C20.27 59.11 20.55 59.23 20.83 59.33C21.14 59.42 21.45 59.5 21.77 59.58C22.59 59.72 23.4 59.87 24.22 59.97C24.81 60 25.4 59.97 25.99 59.94C26.23 59.92 26.46 59.89 26.69 59.85C26.94 59.79 27.17 59.7301 27.41 59.6501C27.47 58.4101 27.43 57.1701 27.43 55.9201C27.43 54.5801 27.52 53.2501 27.56 51.9201C27.58 51.3601 27.59 50.8 27.58 50.24C27.56 50.24 27.54 50.24 27.53 50.24C27.03 50.26 26.54 50.1701 26.06 50.0501C25.51 49.9101 25 49.63 24.51 49.35C24.05 49.09 23.62 48.77 23.21 48.45C22.43 47.84 21.64 47.2201 20.91 46.5501C20.51 46.1801 20.1 45.8201 19.72 45.4301C18.88 44.5901 18.15 43.65 17.54 42.64C16.31 40.62 15.63 38.27 15.33 35.94C14.99 33.3 15.3 30.65 16.13 28.12C16.93 25.67 18.23 23.4 19.85 21.39C20.81 20.2 21.9 19.08 23.04 18.07C24.68 16.61 26.52 15.46 28.55 14.64C31.01 13.64 33.57 12.7601 36.21 12.4001C38.6 12.0801 41.12 12.2801 43.44 12.9301C45.45 13.5001 47.18 14.7301 48.65 16.1801C49.37 16.8901 50.05 17.6301 50.68 18.4201C51.3 19.2101 51.84 20.0601 52.35 20.9201C52.79 21.6701 53.18 22.45 53.59 23.21C54.04 24.05 54.51 24.87 54.95 25.71C55.54 26.82 56.1 28.03 55.99 29.32C55.95 29.84 55.61 30.33 55.2 30.64C54.63 31.09 53.86 31.1501 53.16 31.1701C52.38 31.1901 51.59 31.1001 50.81 31.0301C50.03 30.9901 49.26 30.95 48.48 30.98C47.81 31.04 47.15 31.15 46.5 31.27C46.46 31.28 46.42 31.2901 46.38 31.3001C47.63 32.0901 48.86 32.92 50.08 33.75C50.02 33.71 49.96 33.66 49.89 33.62C51.99 35.03 54.15 36.37 56.19 37.86C57.21 38.61 58.23 39.35 59.23 40.12C60.26 40.91 61.27 41.72 62.32 42.48C62.82 42.8 63.34 43.11 63.8 43.47C64.05 43.66 64.29 43.8501 64.53 44.0501C64.58 43.9401 64.64 43.83 64.7 43.72C65.4 42.31 66.1 40.9001 66.86 39.5201C67.57 38.23 68.36 36.99 69.1 35.72C69.86 34.42 70.56 33.09 71.26 31.76C71.95 30.44 72.66 29.1201 73.35 27.8001C73.59 27.3201 73.82 26.83 74.04 26.34C73.31 26.33 72.58 26.34 71.85 26.36C70.48 26.48 69.14 26.72 67.79 26.99C67.69 27.01 67.6 27.0301 67.5 27.0501C67.24 27.1001 66.98 27.16 66.72 27.23C66.38 27.43 65.99 27.52 65.57 27.44C64.71 27.28 64.03 26.5901 64.03 25.6801C64.03 25.2901 64.16 24.92 64.39 24.62C64.39 24.46 64.39 24.29 64.39 24.13C64.32 23.32 64.21 22.52 64.06 21.71C63.7 20.03 63.27 18.38 62.72 16.75C62.55 16.31 62.38 15.87 62.18 15.45C62.07 15.25 61.96 15.06 61.84 14.87C61.73 14.71 61.61 14.5701 61.49 14.4201C61.2 14.1101 60.89 13.8301 60.58 13.5401C59.87 12.9201 59.14 12.31 58.42 11.7C57.64 11.05 56.9 10.3401 56.15 9.65005C55.81 9.37005 55.46 9.09999 55.1 8.82999C54.6 8.50999 54.08 8.21998 53.55 7.94998C52.57 7.47998 51.56 7.04009 50.58 6.56009C49.56 6.07009 48.54 5.63003 47.49 5.25003C46.37 4.87003 45.26 4.51003 44.11 4.25003C43.62 4.18003 43.13 4.11998 42.64 4.06998C40.69 3.95998 38.73 3.95008 36.77 4.05008C34.38 4.26008 31.99 4.57005 29.63 5.02005C28.49 5.26005 27.37 5.53002 26.25 5.87002C24.75 6.41002 23.25 6.99002 21.78 7.62002C20.23 8.28002 18.68 8.93997 17.17 9.68997C16.67 9.95997 16.19 10.2401 15.71 10.5301C14.16 11.6001 12.67 12.77 11.24 14C10.65 14.54 10.08 15.0901 9.53996 15.6701C9.21996 16.0601 8.89996 16.46 8.59996 16.88C8.30996 17.34 8.03 17.8101 7.77 18.2801C7.29 19.2701 6.87997 20.28 6.48997 21.32C5.82997 23.27 5.29996 25.25 4.84996 27.27C4.63996 28.4 4.50997 29.5301 4.41997 30.6801C4.41997 30.6501 4.41997 30.63 4.41997 30.61C4.41997 30.65 4.41997 30.69 4.41997 30.73C4.30997 32.37 4.25 34.0101 4.33 35.6501C4.51 37.5101 4.73997 39.36 5.04997 41.2C5.24997 42.05 5.48 42.87 5.77 43.69C5.75 43.62 5.72 43.54 5.7 43.47C6.13 44.58 6.58997 45.67 7.10997 46.74C7.37997 47.23 7.64998 47.72 7.92998 48.2C9.07998 49.82 10.4 51.33 11.7 52.82C11.65 52.76 11.6 52.7101 11.55 52.6501C12 53.1601 12.46 53.63 12.94 54.09Z"
    fill="rgba(191, 192, 191, 1)" />
  <path d="M46.54 35.65C46.55 35.65 46.55 35.66 46.55 35.66C46.55 35.65 46.55 35.65 46.54 35.65Z"
    fill="rgba(191, 192, 191, 1)" />
</svg>