<?xml version="1.0" encoding="UTF-8" standalone="yes"?>
<svg width="159" height="69" viewBox="-40 -40 239 149" fill="none" xmlns="http://www.w3.org/2000/svg">
  <path fill-rule="evenodd" clip-rule="evenodd"
    d="M0.738968 0.446403C0.188455 1.97709 5.76072 12.9604 12.8637 24.2391C19.8726 35.4239 27.271 44.7691 35.8375 53.3759C42.4571 59.9551 45.5185 62.5734 51.0236 66.2792C54.3804 68.5216 54.4475 68.5619 56.2065 68.4276C57.7103 68.2933 58.1266 68.1053 59.0128 67.1251C61.1343 64.8157 61.913 61.1904 62.2756 52.1943C62.5307 46.0312 63.2826 36.4175 63.7794 33.8395C64.3031 30.805 65.2833 28.039 66.3843 26.2801L67.3913 24.6822L69.0831 26.4814C69.9962 27.4616 72.8696 30.6841 75.4744 33.6246C81.2481 40.2039 89.5193 48.5152 92.5806 50.8381C96.8236 53.9935 99.5225 54.8797 100.865 53.537C101.805 52.5971 102.208 50.0191 102.53 42.5805C102.96 33.3293 103.47 30.617 105.363 28.6567L106.209 27.7436L108.68 30.1202C112.131 33.383 116.172 36.7397 119.703 39.2103L122.698 41.3318L120.737 41.5601C117.864 41.8555 116.535 42.7013 116.535 44.2051C116.535 44.8631 119.502 49.1866 121.556 51.5364C124.551 54.9603 129.546 59.2569 131.855 60.4385L133.977 61.4858L146.034 61.6872C152.654 61.7812 158.293 61.8215 158.521 61.7141C158.723 61.647 158.911 61.2844 158.911 60.9622C158.911 59.5658 154.775 52.5568 152.13 49.4552C149.23 46.0716 148.518 45.0511 145.551 40.459C144.02 38.1093 141.737 34.9808 140.502 33.5173C137.602 30.1605 132.647 25.7967 130.365 24.5882C128.767 23.7423 128.565 23.7021 128.082 24.1989C127.626 24.6823 127.652 24.8836 128.445 26.4814C128.928 27.4213 130.069 29.3817 130.982 30.8184C133.037 34.108 134.473 36.5249 134.473 36.7129C134.473 37.0754 131.546 36.8471 129.747 36.3906C128.673 36.0952 126.323 35.0479 124.537 34.0409C122.751 33.0338 120.012 31.5032 118.414 30.617C113.943 28.1732 111.996 26.6023 104.665 19.5934C99.2539 14.4106 94.3665 11.1209 92.0838 11.1209C88.1765 11.1209 86.7667 15.0013 85.9208 28.0659C85.5582 33.5441 85.1017 36.7397 84.6183 37.0351C84.4841 37.1291 81.5167 33.9334 78.0659 29.9322C64.5985 14.4239 57.7641 8.83828 53.7762 10.1407C51.9232 10.7583 51.131 12.6516 49.936 19.5934C49.2244 23.6618 48.7947 29.1132 48.4322 38.8881C47.8145 55.1214 46.1496 58.5721 40.9667 54.4634C37.8382 51.9929 29.4999 42.3388 24.8944 35.8536C21.3765 30.899 14.8509 20.4393 14.8509 19.7142C14.8509 19.6202 15.3343 19.8485 15.9653 20.1976C18.7313 21.9296 18.342 20.8153 13.6827 13.8063C9.50689 7.57619 6.48579 3.87027 3.61238 1.58767C1.62516 -0.0370044 1.03436 -0.265258 0.738968 0.419522V0.446403Z"
    fill="rgba(191, 192, 191, 1)" />
</svg>