<?xml version="1.0" encoding="UTF-8" standalone="yes"?>
<svg width="63" height="66" viewBox="-40 -40 143 146" fill="none" xmlns="http://www.w3.org/2000/svg">
  <path
    d="M1.01001 64.38C0.89001 64.04 0.780029 63.7 0.780029 63.34C0.780029 62.97 0.899985 62.51 1.10999 62.2C1.39999 61.77 1.64997 61.33 1.90997 60.88C2.29997 60.21 2.69 59.54 3.12 58.9C3.12 58.9 3.12 58.9 3.12 58.91C3.7 58.05 4.28 57.19 4.87 56.32C4.83 56.38 4.77999 56.44 4.73999 56.51C5.25999 55.74 5.80998 55.01 6.34998 54.26C6.84998 53.58 7.33003 52.88 7.84003 52.21C9.01003 50.65 10.16 49.07 11.36 47.53C13.93 44.23 16.5 40.92 19.09 37.62C21.23 34.89 23.39 32.17 25.52 29.42C26.82 27.74 28.16 26.08 29.42 24.37C30.11 23.43 30.81 22.49 31.5 21.56C31.73 21.25 31.96 20.94 32.19 20.63C32.49 20.22 32.77 19.8 33.06 19.39C33.4 18.91 33.74 18.39 34.21 18.03C34.37 17.91 34.54 17.83 34.72 17.75C35.28 17.51 36.02 17.57 36.49 17.98C36.85 18.29 37.15 18.69 37.19 19.19C37.26 19.94 36.9 20.65 36.28 20.99C35.5 22.02 34.78 23.09 34.01 24.13C33.4 24.95 32.82 25.78 32.2 26.58C30.83 28.35 29.46 30.13 28.09 31.9C25.95 34.67 23.77 37.41 21.61 40.16C19.12 43.33 16.64 46.52 14.16 49.7C12.99 51.21 11.87 52.75 10.72 54.28C10.29 54.85 9.88002 55.44 9.46002 56.01C8.92002 56.77 8.35001 57.51 7.82001 58.28C8.12001 58.03 8.41002 57.77 8.71002 57.52C11.62 54.93 14.5 52.33 17.38 49.7C18.49 48.69 19.6 47.68 20.72 46.68C22.24 45.32 23.74 43.94 25.27 42.6C25.22 42.65 25.16 42.7 25.1 42.75C25.18 42.68 25.26 42.61 25.34 42.54H25.33C25.51 42.38 25.69 42.22 25.88 42.06C25.84 42.1 25.79 42.14 25.76 42.18C26.59 41.44 27.42 40.72 28.25 39.98L28.24 39.99C29.15 39.19 30.06 38.39 30.97 37.59C30.91 37.64 30.86 37.69 30.8 37.74C30.99 37.57 31.18 37.41 31.37 37.24C31.41 37.2 31.45 37.16 31.49 37.13C31.52 37.1 31.55 37.08 31.58 37.06C31.59 37.05 31.6 37.04 31.62 37.03L31.61 37.04C34.73 34.29 37.87 31.58 40.99 28.83C40.97 28.85 40.95 28.86 40.93 28.88C41.04 28.79 41.14 28.7 41.25 28.6C41.24 28.61 41.23 28.62 41.22 28.63C41.54 28.35 41.86 28.07 42.17 27.79C42.36 27.63 42.55 27.45 42.74 27.29C42.85 27.19 42.95 27.09 43.07 26.99L43.06 27C45.16 25.1 47.26 23.18 49.15 21.06C49.1 21.11 49.05 21.17 49 21.23C49.08 21.14 49.16 21.05 49.23 20.96C49.85 20.22 50.93 20.03 51.71 20.64C52.45 21.21 52.65 22.38 52.03 23.12C51.05 24.3 49.96 25.42 48.84 26.47C47.71 27.54 46.57 28.61 45.4 29.64C45.41 29.63 45.42 29.62 45.43 29.61C45.41 29.63 45.38 29.65 45.36 29.68C45.35 29.69 45.34 29.69 45.34 29.7C45.26 29.77 45.18 29.84 45.1 29.91C45.12 29.89 45.13 29.88 45.15 29.87C44.83 30.15 44.51 30.43 44.2 30.71C44.01 30.88 43.82 31.06 43.63 31.21C43.56 31.28 43.48 31.35 43.4 31.41C43.42 31.39 43.44 31.37 43.46 31.35C40.28 34.15 37.08 36.93 33.89 39.72C33.87 39.73 33.85 39.75 33.84 39.77L33.83 39.78C33.82 39.79 33.81 39.8 33.8 39.8L33.79 39.81C33.78 39.82 33.78 39.83 33.77 39.83L33.76 39.84C33.76 39.84 33.75 39.84 33.75 39.85C33.75 39.85 33.75 39.85 33.75 39.84C33.72 39.87 33.68 39.9 33.65 39.93C33.67 39.91 33.7 39.89 33.72 39.87C33.72 39.87 33.73 39.87 33.73 39.86C33.59 39.98 33.44 40.11 33.3 40.23C33.3 40.23 33.3 40.23 33.3 40.22C33.27 40.24 33.25 40.27 33.22 40.29C33.21 40.3 33.21 40.3 33.2 40.31C33.2 40.31 33.2 40.31 33.2 40.3C32.41 41 31.62 41.69 30.83 42.39C30.84 42.39 30.84 42.38 30.85 42.37C30.02 43.1 29.18 43.83 28.35 44.57C28.35 44.57 28.35 44.57 28.35 44.56C28.33 44.58 28.32 44.59 28.3 44.6C28.29 44.61 28.27 44.62 28.26 44.63C28.08 44.79 27.9 44.95 27.72 45.1C27.72 45.11 27.71 45.11 27.7 45.12C27.66 45.16 27.62 45.19 27.58 45.23L27.59 45.22C27.59 45.22 27.58 45.23 27.57 45.23C27.57 45.24 27.56 45.24 27.55 45.25L27.54 45.26C27.5 45.3 27.46 45.33 27.42 45.37C27.44 45.35 27.47 45.33 27.49 45.31C24.71 47.85 21.9 50.33 19.11 52.86C17.73 54.11 16.36 55.38 14.97 56.62C12.88 58.48 10.81 60.38 8.65002 62.16C7.77002 62.88 6.85001 63.59 5.88 64.21C5.45001 64.49 5.02001 64.73 4.57001 64.95C4.10001 65.18 3.57001 65.27 3.07001 65.41C2.93001 65.45 2.77 65.47 2.62 65.47C1.97 65.46 1.26001 65.06 1.01001 64.38Z"
    fill="rgba(191, 192, 191, 1)" />
  <path d="M25.32 42.53C25.32 42.54 25.31 42.54 25.3 42.55C25.31 42.55 25.32 42.54 25.32 42.53Z"
    fill="rgba(191, 192, 191, 1)" />
  <path d="M31.37 37.22C31.36 37.22 31.36 37.22 31.37 37.22V37.22Z" fill="rgba(191, 192, 191, 1)" />
  <path d="M33.73 39.85C33.73 39.86 33.73 39.86 33.73 39.85V39.85Z" fill="rgba(191, 192, 191, 1)" />
  <path d="M33.74 39.85C33.74 39.84 33.75 39.84 33.74 39.85V39.85Z" fill="rgba(191, 192, 191, 1)" />
  <path d="M31.48 37.11C31.48 37.12 31.48 37.12 31.48 37.11V37.11Z" fill="rgba(191, 192, 191, 1)" />
  <path d="M28.37 44.57C28.37 44.57 28.36 44.58 28.35 44.58C28.36 44.58 28.36 44.58 28.37 44.57Z"
    fill="rgba(191, 192, 191, 1)" />
  <path
    d="M33.22 40.28C33.23 40.28 33.23 40.28 33.22 40.28C33.22 40.28 33.21 40.29 33.2 40.29C33.21 40.29 33.22 40.29 33.22 40.28Z"
    fill="rgba(191, 192, 191, 1)" />
  <path d="M33.3 40.22C33.28 40.24 33.26 40.26 33.23 40.28C33.25 40.26 33.27 40.24 33.3 40.22Z"
    fill="rgba(191, 192, 191, 1)" />
  <path d="M33.72 39.86C33.72 39.87 33.71 39.87 33.71 39.87C33.71 39.87 33.71 39.87 33.72 39.86Z"
    fill="rgba(191, 192, 191, 1)" />
  <path d="M33.73 39.85C33.74 39.85 33.74 39.84 33.75 39.83C33.75 39.84 33.74 39.85 33.73 39.85Z"
    fill="rgba(191, 192, 191, 1)" />
  <path
    d="M33.79 39.8C33.79 39.8 33.8 39.8 33.8 39.79C33.79 39.8 33.78 39.81 33.78 39.81C33.78 39.81 33.78 39.81 33.79 39.8Z"
    fill="rgba(191, 192, 191, 1)" />
  <path d="M33.86 39.74C33.85 39.75 33.84 39.76 33.83 39.76C33.84 39.75 33.85 39.74 33.86 39.74Z"
    fill="rgba(191, 192, 191, 1)" />
  <path d="M33.88 39.72C33.88 39.72 33.88 39.73 33.87 39.73C33.87 39.73 33.87 39.73 33.88 39.72Z"
    fill="rgba(191, 192, 191, 1)" />
  <path d="M33.89 39.71C33.89 39.71 33.9 39.7 33.91 39.7C33.9 39.71 33.89 39.72 33.89 39.72V39.71Z"
    fill="rgba(191, 192, 191, 1)" />
  <path d="M33.94 39.67C33.93 39.68 33.92 39.69 33.9 39.7C33.91 39.69 33.92 39.68 33.94 39.67Z"
    fill="rgba(191, 192, 191, 1)" />
  <path d="M31.48 37.11C31.48 37.11 31.47 37.11 31.47 37.12C31.48 37.12 31.48 37.11 31.48 37.11Z"
    fill="rgba(191, 192, 191, 1)" />
  <path d="M41.26 28.57C41.26 28.57 41.25 28.58 41.24 28.59C41.25 28.58 41.25 28.57 41.26 28.57Z"
    fill="rgba(191, 192, 191, 1)" />
  <path
    d="M52.3 48.28C51.35 48.02 50.84 47.04 51.06 46.1C51.5 44.3 51.95 42.5 52.38 40.69C52.8 38.92 53.18 37.16 53.58 35.39C53.9 33.75 54.24 32.13 54.55 30.49C54.91 28.61 55.25 26.74 55.63 24.87C56.02 23 56.37 21.13 56.79 19.27C57.41 16.55 58.08 13.84 58.65 11.11C58.89 9.86 59.08 8.60001 59.19 7.33001C59.21 6.98001 59.21 6.63 59.2 6.28C59.16 5.96 59.12 5.65001 59.07 5.33001C59.02 5.12001 58.97 4.92001 58.91 4.71001C58.89 4.65001 58.86 4.58001 58.83 4.52001C58.81 4.48001 58.79 4.45001 58.77 4.41001C58.76 4.39001 58.75 4.37 58.74 4.36C58.74 4.36 58.74 4.36 58.73 4.36C58.71 4.34 58.7 4.33001 58.69 4.32001C58.65 4.29001 58.6 4.26 58.56 4.22C58.49 4.18 58.42 4.14001 58.35 4.10001C58.29 4.07001 58.23 4.05001 58.17 4.02001C58.13 4.01001 58.09 4 58.05 3.98C58.02 3.98 57.99 3.97001 57.96 3.96001C57.99 3.96001 58.01 3.96001 58.04 3.96001H58.03C57.94 3.96001 57.86 3.96001 57.77 3.96001C57.31 4.01001 56.85 4.08001 56.4 4.16001C55.49 4.36001 54.61 4.63 53.74 4.93C51.72 5.67 49.78 6.57 47.86 7.53C47.88 7.52 47.89 7.52 47.9 7.51C44.21 9.37 40.6 11.4 36.97 13.38C33.58 15.23 30.17 17.04 26.76 18.86C25.64 19.46 24.47 19.99 23.33 20.56C22.42 21.01 21.5 21.44 20.57 21.85C19.53 22.31 18.49 22.77 17.42 23.16C16.3 23.57 15.19 24.03 14.01 24.25C13.06 24.43 12.14 23.65 12.02 22.73C11.88 21.73 12.59 20.92 13.53 20.74C13.54 20.74 13.55 20.74 13.56 20.73C13.48 20.75 13.41 20.76 13.33 20.78C13.81 20.67 14.28 20.51 14.76 20.37C15.53 20.09 16.33 19.83 17.08 19.5C18.16 19.03 19.23 18.56 20.31 18.09C21.02 17.78 21.71 17.42 22.41 17.07C23.29 16.63 24.17 16.2 25.05 15.76C28.44 13.95 31.83 12.15 35.19 10.31C36.91 9.37 38.63 8.42001 40.36 7.49001C42.3 6.45001 44.22 5.40001 46.19 4.41001C48.52 3.23001 50.89 2.14001 53.37 1.32001C54.59 0.920011 55.82 0.63001 57.1 0.46001C57.65 0.39001 58.2 0.390003 58.74 0.500003C59.3 0.600003 59.81 0.840004 60.3 1.11C62.21 2.16 62.67 4.45 62.77 6.45C62.84 7.74 62.58 9.06 62.4 10.34C62.19 11.76 61.84 13.16 61.52 14.55C61.05 16.6 60.59 18.65 60.12 20.7C59.72 22.46 59.39 24.24 59.03 26.01C58.7 27.74 58.37 29.47 58.04 31.2C57.72 32.9 57.4 34.6 57.02 36.29C56.63 38.07 56.24 39.86 55.82 41.63C55.39 43.43 54.94 45.24 54.5 47.04C54.31 47.83 53.55 48.34 52.77 48.34C52.6 48.34 52.45 48.32 52.3 48.28Z"
    fill="rgba(191, 192, 191, 1)" />
</svg>