<?xml version="1.0" encoding="UTF-8" standalone="yes"?>
<svg width="126" height="100" viewBox="-40 -40 206 180" fill="none" xmlns="http://www.w3.org/2000/svg">
  <path fill-rule="evenodd" clip-rule="evenodd"
    d="M0.538818 0.300476C0.10915 0.689861 0.31056 4.01979 0.793937 5.18795C1.08933 5.84587 1.80098 7.014 2.41863 7.76592C3.81505 9.45773 4.04331 10.4379 6.00368 22.2671C9.19934 41.4947 11.1865 49.3898 14.6373 56.627C16.9468 61.4205 22.8547 67.2881 27.0172 68.9127C28.2256 69.3693 29.5952 69.5976 31.1259 69.6244C33.1802 69.6244 33.7307 69.4901 35.9194 68.4159C41.0754 65.8782 46.3119 59.1647 52.4482 47.2281C54.2071 43.8042 54.7308 43.1596 54.7308 44.3278C54.7308 45.7242 56.1943 50.6251 57.3759 53.1226C59.5914 57.916 62.3977 61.2728 67.0569 64.6967C69.3664 66.3885 70.7762 66.7778 72.4949 66.2273C74.2539 65.6365 75.422 64.4684 77.9061 60.8834C79.1145 59.0573 80.3229 57.3655 80.5512 57.0701C81.4374 55.996 83.5186 54.8278 84.5927 54.8278C86.1234 54.8278 88.7015 57.4326 92.7699 63.2062C94.5288 65.7171 97.2411 69.4365 98.839 71.4908C103.592 77.721 108.587 84.9179 107.969 84.6627C105.297 83.5886 102.129 82.7024 98.2616 82.0176C95.7507 81.561 92.2328 80.9032 90.4738 80.5541C88.4866 80.1647 87.1171 80.0304 86.9559 80.1915C86.1369 81.0106 89.4265 85.3072 93.2801 88.5029C96.1804 90.8795 97.456 91.336 106.909 93.4575C113.461 94.921 115.421 95.6461 119.288 97.9824C120.953 98.9894 122.618 99.8084 122.968 99.8084C123.518 99.8084 123.585 99.6473 123.424 98.4121C123.29 97.6601 123.035 96.2906 122.833 95.4178C122.31 93.2964 122.35 80.1915 122.86 77.3315C123.29 75.0489 123.867 73.6794 124.914 72.5113L125.599 71.7594L124.821 70.2554C123.612 67.946 118.295 62.6021 116.187 61.4876L114.361 60.5477L113.703 61.2996C112.105 63.26 111.675 69.0202 112.468 77.627C112.669 79.7485 112.763 82.031 112.696 82.7427L112.602 84.0182L110.024 80.2721C94.7302 58.1443 84.8882 47.2817 76.7513 43.5759C73.0723 41.8841 70.6823 42.9851 67.0032 48.1411C65.7679 49.8732 64.6937 51.2427 64.6266 51.1353C64.5595 51.0682 64.1432 49.4033 63.7136 47.4832C62.7334 43.1463 61.5249 39.6552 60.1956 37.2786C58.3024 33.9218 53.0524 28.9941 50.9443 28.5779C49.6016 28.3228 49.1854 28.9404 45.7346 35.748C38.9942 49.2153 35.6643 54.8546 32.6297 58.1711C29.5952 61.4607 25.8221 63.0317 22.5191 62.3066C21.0152 62.0113 20.8541 61.8501 20.2767 60.4537C18.2895 55.8214 16.7857 49.1482 15.4832 39.1987C12.2876 15.0837 11.5088 11.0421 9.45444 7.77936C6.52733 3.1873 1.73383 -0.854239 0.552238 0.313916L0.538818 0.300476Z"
    fill="rgba(191, 192, 191, 1)" />
</svg>