<?xml version="1.0" encoding="UTF-8" standalone="yes"?>
<svg width="73" height="83" viewBox="-40 -40 153 163" fill="none" xmlns="http://www.w3.org/2000/svg">
  <path
    d="M37.5401 81.86C36.7201 81.39 35.92 80.91 35.11 80.41C33.42 79.37 31.68 78.42 29.94 77.46C26.55 75.59 23.14 73.78 19.74 71.94C18.54 71.3 17.3401 70.68 16.1401 70.05C14.3801 69.19 12.63 68.34 10.85 67.53C9.11005 66.74 7.37004 65.96 5.65004 65.11C4.13004 64.36 2.49003 63.62 1.36003 62.32C0.740027 61.61 0.580054 60.6 0.950054 59.74C1.27005 58.99 1.95005 58.51 2.57005 58.03C4.10005 56.82 5.72004 55.71 7.31004 54.59C10.29 52.5 13.2601 50.39 16.1701 48.2C19.4801 45.72 22.79 43.22 26.08 40.71C28.98 38.5 31.9001 36.32 34.7601 34.07C36.2701 32.89 37.78 31.71 39.24 30.46C39.84 29.95 40.43 29.43 41.03 28.92C40.5 28.52 39.98 28.1 39.44 27.71C38.74 27.25 38.0301 26.8 37.2901 26.38C36.48 25.91 35.65 25.45 34.86 24.94C33.95 24.34 33.05 23.73 32.16 23.1C31.44 22.58 30.7301 22.05 30.0101 21.52C29.6301 21.24 29.25 20.96 28.88 20.67C28.26 20.2 27.5701 19.74 27.1401 19.08C26.9001 18.7 26.7301 18.3 26.7301 17.84C26.7201 17.36 26.85 16.99 27.1 16.58C27.46 15.97 28.17 15.62 28.77 15.3C30.44 14.42 32.11 13.54 33.8 12.71C35.51 11.87 37.2101 11.03 38.9501 10.24C40.9101 9.35 42.88 8.47001 44.86 7.62001C48.23 6.15001 51.68 4.87 55.06 3.43C56.88 2.66 58.67 1.84001 60.46 1.01001C61.45 0.550006 62.62 0.0100017 63.74 0.170002C64.2 0.230002 64.62 0.350006 65.01 0.620006C65.46 0.930006 65.89 1.38001 66.08 1.91001C66.54 3.24001 66.62 4.67 66.7001 6.07C66.91 9.93 67.02 13.8 67.21 17.66C67.26 18.68 67.31 19.7 67.36 20.72C67.45 21.76 67.53 22.81 67.62 23.86C67.67 24.4 67.77 24.93 67.85 25.46C67.93 25.99 68 26.52 68.08 27.05C68.28 28.03 68.46 29.03 68.69 30C68.99 31.24 69.29 32.49 69.59 33.73C70.13 35.94 70.68 38.14 71.36 40.32C71.51 40.71 71.66 41.11 71.83 41.5C71.95 41.78 72.08 42.05 72.21 42.33C72.44 42.85 72.48 43.35 72.34 43.89C72.16 44.58 71.55 45.05 70.87 45.17C70.35 45.26 69.88 45.13 69.38 44.96C69 44.83 68.62 44.69 68.24 44.56C67.65 44.35 67.06 44.12 66.47 43.89C65.93 43.68 65.37 43.46 64.85 43.2C64.22 42.89 63.5601 42.61 62.9501 42.25C62.3101 41.87 61.64 41.52 61.02 41.09C60.41 40.68 59.81 40.26 59.21 39.84C58.66 39.46 58.12 39.05 57.58 38.65C57.16 38.34 56.72 38.05 56.28 37.76C56.26 37.99 56.2401 38.21 56.2001 38.44C56.0501 39.52 55.75 40.57 55.46 41.62C55.35 42.01 55.2001 42.39 55.07 42.76C54.91 43.22 54.76 43.71 54.57 44.16C54.16 45.13 53.75 46.09 53.34 47.06C52.93 48.03 52.45 48.97 52 49.92C51.67 50.63 51.33 51.34 51 52.05C50.09 53.98 49.2001 55.92 48.32 57.87C47.6 59.46 46.94 61.08 46.27 62.7C45.67 64.13 45.16 65.61 44.63 67.07C44.13 68.62 43.6 70.16 43.16 71.73C42.93 72.58 42.6501 73.42 42.4501 74.28C42.2501 75.17 42.05 76.06 41.85 76.95C41.7 77.73 41.5501 78.51 41.3901 79.29C41.2101 80.17 40.96 81.08 40.25 81.68C39.84 82.03 39.33 82.2 38.82 82.2C38.3801 82.21 37.9401 82.09 37.5401 81.86ZM62.94 3.83001C61.9 4.22001 60.92 4.74001 59.91 5.19001C58.97 5.62001 58.03 6.04001 57.07 6.44001C55.32 7.18001 53.56 7.89 51.8 8.6C48.07 10.1 44.38 11.7 40.71 13.36C38.9 14.18 37.12 15.06 35.33 15.93C34.38 16.41 33.42 16.89 32.47 17.39C32.06 17.6 31.65 17.8 31.24 18.02C31.7 18.37 32.1801 18.71 32.6401 19.06C33.5501 19.73 34.45 20.39 35.37 21.04C35.99 21.45 36.6201 21.87 37.2601 22.25C38.0201 22.71 38.8 23.14 39.56 23.61C40.35 24.09 41.13 24.57 41.87 25.11C42.48 25.56 43.07 26.05 43.68 26.49C43.97 26.67 44.2701 26.85 44.57 27.01C44.6101 27.03 44.6401 27.05 44.6701 27.06C44.8501 27.1 45.0301 27.16 45.2001 27.26C45.8401 27.64 46.21 28.4 46.09 29.14C45.96 29.93 45.34 30.55 44.57 30.65C43.49 31.48 42.47 32.4 41.43 33.28C40.68 33.91 39.92 34.53 39.16 35.14C37.81 36.25 36.42 37.31 35.03 38.37C31.78 40.85 28.52 43.33 25.27 45.8C22.27 48.08 19.2701 50.35 16.2301 52.57C13.1101 54.86 9.93004 57.06 6.78004 59.32C6.15004 59.77 5.52005 60.23 4.91005 60.7C5.33005 60.97 5.76005 61.21 6.20005 61.45C7.80005 62.24 9.41004 63 11.03 63.74C12.06 64.21 13.08 64.68 14.12 65.15C15.05 65.58 15.9601 66.05 16.8901 66.5C20.3301 68.18 23.68 70.05 27.0401 71.87C29.1101 72.99 31.19 74.12 33.25 75.26C34.87 76.15 36.4501 77.12 38.0401 78.06C38.3701 76.36 38.69 74.64 39.15 72.97C39.43 71.96 39.67 70.93 39.99 69.94C40.33 68.87 40.68 67.8 41.02 66.74C41.27 65.96 41.56 65.19 41.84 64.42C42.17 63.53 42.47 62.62 42.84 61.74C43.59 59.95 44.32 58.15 45.12 56.38C46.26 53.85 47.45 51.34 48.62 48.82C49.24 47.49 49.88 46.17 50.46 44.82C50.75 44.14 51.08 43.48 51.32 42.79C51.55 42.14 51.78 41.48 52.02 40.83C52.16 40.33 52.29 39.83 52.43 39.33C52.53 38.96 52.59 38.59 52.66 38.22C52.66 38.24 52.65 38.26 52.65 38.28C52.71 37.93 52.7601 37.58 52.7901 37.23C52.7901 37.12 52.7901 37.02 52.7901 36.91C52.7701 36.72 52.74 36.53 52.71 36.35C52.69 36.27 52.67 36.19 52.65 36.12C52.52 35.75 52.38 35.41 52.44 34.99C52.55 34.18 53.23 33.43 54.08 33.35C54.51 33.31 54.92 33.3 55.35 33.41C55.88 33.56 56.38 33.77 56.86 34.03C57.54 34.39 58.18 34.81 58.82 35.24C59.6101 35.78 60.38 36.33 61.16 36.9C61.78 37.36 62.43 37.78 63.06 38.22C63.64 38.56 64.22 38.9 64.79 39.25C65.23 39.46 65.66 39.68 66.1 39.89C66.58 40.13 67.08 40.32 67.57 40.53C67.62 40.55 67.68 40.57 67.73 40.6C67.48 39.79 67.26 38.98 67.03 38.15C66.55 36.37 66.14 34.56 65.71 32.77C65.49 31.83 65.26 30.89 65.06 29.95C64.86 28.99 64.64 28.03 64.5 27.06C64.37 26.11 64.18 25.15 64.1 24.19C64.01 23.08 63.89 21.98 63.83 20.87C63.71 18.38 63.6001 15.89 63.4801 13.4C63.3601 10.87 63.28 8.35 63.15 5.82C63.1 5.13 63.05 4.48001 62.94 3.83001Z"
    fill="rgba(191, 192, 191, 1)" />
</svg>