<?xml version="1.0" encoding="UTF-8" standalone="yes"?>
<svg width="90" height="83" viewBox="-40 -40 170 163" fill="none" xmlns="http://www.w3.org/2000/svg">
  <path fill-rule="evenodd" clip-rule="evenodd"
    d="M57.5301 53.47C57.0901 54.22 57.28 55.22 57.98 55.76C58.29 56 58.69 56.12 59.08 56.12C59.54 56.12 59.9901 55.95 60.3101 55.6C60.3801 55.51 60.4601 55.44 60.5401 55.37C60.8101 55.145 61.0875 54.9275 61.365 54.71C61.6425 54.4925 61.92 54.275 62.19 54.05C62.7607 53.583 63.3091 53.0936 63.8609 52.6012C63.9471 52.5242 64.0335 52.4471 64.12 52.37L64.11 52.38C64.2501 52.2599 64.3908 52.1405 64.5315 52.0211C64.9533 51.663 65.3751 51.3049 65.7801 50.93L65.7901 50.9207C66.3068 50.4438 66.8234 49.9669 67.35 49.49C67.768 49.16 68.192 48.8422 68.6154 48.5248C68.9619 48.265 69.308 48.0055 69.6501 47.74C70.0001 47.47 70.3426 47.1925 70.6851 46.915C71.0276 46.6375 71.37 46.36 71.72 46.09C72.0464 45.843 72.3767 45.6057 72.7066 45.3687C73.1246 45.0684 73.542 44.7686 73.95 44.45C74.3176 44.1657 74.6804 43.8729 75.0438 43.5796C75.7283 43.0272 76.415 42.473 77.14 41.97C77.7804 41.5593 78.4498 41.2117 79.1213 40.8629C79.4146 40.7106 79.7082 40.5581 80 40.4C80.65 40.05 81.2801 39.7 81.9201 39.33C83.1101 38.64 84.26 37.88 85.39 37.1C85.8746 36.7652 86.3359 36.3916 86.7944 36.0202C86.8563 35.9701 86.9182 35.92 86.98 35.87C87.0835 35.7862 87.1885 35.7024 87.2941 35.6181C87.7806 35.2298 88.2792 34.8319 88.69 34.38C89.1 33.95 89.4001 33.29 89.2801 32.68C89.1801 32.14 88.96 31.74 88.58 31.34C88.25 30.99 87.92 30.64 87.6 30.29C86.96 29.55 86.3501 28.79 85.7801 27.99C85.614 27.7588 85.4498 27.5266 85.2854 27.2944C84.8954 26.7433 84.5051 26.1917 84.09 25.65C82.9318 24.1423 81.8035 22.6047 80.6752 21.0671L80.6701 21.06C80.1901 20.32 79.76 19.56 79.36 18.77C79.3841 18.8061 79.4046 18.8459 79.4258 18.8871C79.4398 18.9143 79.4541 18.9422 79.47 18.97C78.63 17.28 77.77 15.6 76.7 14.04C76.17 13.28 75.6301 12.54 75.0301 11.83C74.7001 11.45 74.38 11.06 74.07 10.67C73.8644 10.4112 73.682 10.1407 73.5008 9.87189C73.4773 9.83701 73.4538 9.80215 73.4302 9.76734C73.4405 9.78165 73.4505 9.79583 73.46 9.81001C73.1775 9.33272 72.914 8.84595 72.6511 8.36009C72.3741 7.84834 72.0976 7.33759 71.8001 6.84001C71.1701 5.78001 70.4501 4.8 69.64 3.86C69.5254 3.72703 69.4106 3.5943 69.2957 3.46159C68.6591 2.72596 68.0231 1.99093 67.4301 1.22001C67.0901 0.790013 66.7201 0.330017 66.1801 0.130017C65.7101 -0.0399833 65.2301 -0.0599736 64.7701 0.140026C64.5801 0.220026 64.41 0.330003 64.26 0.460003C63.87 0.600003 63.52 0.840014 63.26 1.19001C62.83 1.76001 62.7201 2.44003 62.6501 3.14003C62.5501 4.01003 62.47 4.88002 62.39 5.76002C62.31 6.68002 62.22 7.6 62.09 8.52C61.98 9.35 61.8701 10.18 61.8101 11.02C61.7401 12 61.63 12.96 61.49 13.93C61.4192 14.4039 61.3336 14.8777 61.2477 15.3532C61.1758 15.7507 61.1038 16.1493 61.0401 16.55C61.0138 16.7216 60.9872 16.8935 60.9606 17.0657C60.8352 17.8767 60.709 18.6934 60.61 19.51C60.5682 19.8122 60.5285 20.1143 60.494 20.4174C59.9193 20.327 59.3475 20.2264 58.77 20.12C58.3327 20.0266 57.8958 19.9304 57.4589 19.8342C55.6974 19.4464 53.9348 19.0583 52.14 18.85L51.5505 18.7821C49.7571 18.5757 47.9645 18.3694 46.1801 18.09C45.7862 18.0286 45.3923 17.9645 44.9982 17.9003C43.5313 17.6616 42.0618 17.4225 40.58 17.32C38.67 17.19 36.76 17.03 34.85 16.8C33.87 16.68 32.89 16.62 31.9 16.61C31.0264 16.601 30.1609 16.665 29.2962 16.7289L29.01 16.75C27.1 16.9 25.27 17.51 23.49 18.2C23.2797 18.2812 23.0673 18.361 22.8542 18.4411C21.9124 18.795 20.9562 19.1544 20.1 19.66C18.89 20.38 17.78 21.28 16.78 22.26C15.59 23.43 14.5 24.67 13.61 26.09C13.03 26.99 12.49 27.91 11.96 28.84C11.05 30.44 10.2 32.07 9.38002 33.71C8.61188 35.2559 8.08344 36.9308 7.56455 38.5755L7.50001 38.78C7.37603 39.1745 7.25002 39.5695 7.12382 39.9651C6.69018 41.3243 6.25403 42.6914 5.89003 44.07C4.94003 47.66 4.32006 51.32 3.80006 55C3.53006 56.97 3.27999 58.93 3.09999 60.91C2.92999 62.73 2.74996 64.56 2.44996 66.37C2.32494 67.1201 2.19342 67.8686 2.06196 68.6168C1.86745 69.7238 1.67306 70.8301 1.50001 71.94C1.46024 72.1951 1.41877 72.4513 1.37716 72.7084C1.11538 74.326 0.847806 75.9793 0.959971 77.61C0.949991 77.5301 0.939952 77.4498 0.939952 77.37V77.4C0.939952 78.37 1.71006 79.17 2.68006 79.17C2.74177 79.17 2.80279 79.1667 2.86296 79.1603C2.86853 79.1703 2.8742 79.1802 2.87999 79.19C3.40202 80.0632 4.38345 80.1527 5.30278 80.2365L5.44993 80.25C6.00993 80.3 6.57 80.34 7.14 80.38C8.20972 80.45 9.28023 80.52 10.35 80.54C11.58 80.57 12.8 80.57 14.03 80.55C14.5693 80.5431 15.1063 80.5221 15.6425 80.5011C16.6672 80.461 17.6893 80.4209 18.72 80.48C19.4603 80.5412 20.1914 80.649 20.9218 80.7566C21.5034 80.8423 22.0849 80.9279 22.67 80.99C23.1891 81.0466 23.7101 81.0924 24.2312 81.1381C25.3667 81.2378 26.5027 81.3375 27.62 81.55C28.34 81.71 29.05 81.92 29.76 82.14C29.8983 82.1848 30.0349 82.2278 30.1705 82.2706C30.3684 82.333 30.5642 82.3947 30.76 82.46L30.7679 82.4625C30.9551 82.5216 31.1429 82.5809 31.3399 82.64C31.4899 82.68 31.64 82.7 31.79 82.66C31.92 82.66 32.05 82.65 32.18 82.64C33.07 82.56 33.6799 81.73 33.7099 80.89C33.7279 80.4317 33.5682 80.0299 33.405 79.6193C33.3866 79.573 33.3682 79.5266 33.35 79.48C33.27 79.28 33.19 79.08 33.12 78.87C32.3402 76.5665 31.7211 74.2068 31.1043 71.8557C31.0329 71.5837 30.9615 71.3117 30.89 71.04C30.55 69.75 30.26 68.45 29.98 67.14C29.7646 66.1324 29.5078 65.1365 29.2506 64.1389L29.2502 64.1376C29.1732 63.8387 29.0961 63.5396 29.02 63.24C28.89 62.58 28.7799 61.93 28.6899 61.26C28.6202 60.6819 28.5803 60.1038 28.5404 59.5258L28.54 59.52C28.45 57.44 28.37 55.36 28.29 53.27C28.21 51.36 28.1499 49.44 28.1999 47.52C28.2074 47.4404 28.2142 47.3608 28.2211 47.2812C28.2418 47.0408 28.2625 46.8004 28.3 46.56C28.33 46.38 28.36 46.1975 28.39 46.015C28.42 45.8325 28.45 45.65 28.48 45.47L28.4986 45.3937C28.8024 44.1487 29.1084 42.895 29.52 41.67C29.55 41.6 29.58 41.52 29.6 41.44C29.6287 41.371 29.6541 41.2988 29.6801 41.2251C29.6992 41.1706 29.7187 41.1153 29.74 41.06V41.04C29.75 41.0201 29.76 41 29.76 40.98C29.765 40.97 29.7675 40.96 29.77 40.95C29.7725 40.94 29.775 40.93 29.78 40.92V40.93C29.9 40.62 30.03 40.3 30.17 40L30.172 39.9965C30.3414 39.6977 30.5107 39.3988 30.6999 39.11C30.9499 38.76 31.21 38.42 31.49 38.09C31.67 37.9 31.85 37.72 32.04 37.54C32.17 37.43 32.2999 37.33 32.4399 37.23C32.4849 37.205 32.5299 37.1775 32.5749 37.15C32.6199 37.1225 32.6649 37.095 32.7099 37.07C33.3799 36.75 34.07 36.51 34.77 36.27C35.64 35.99 36.52 35.74 37.41 35.54C38.95 35.27 40.49 35.07 42.05 34.94C43.14 34.89 44.2399 34.84 45.3299 34.84C45.5424 34.84 45.7552 34.8393 45.9681 34.8387C46.9277 34.8357 47.8907 34.8327 48.8399 34.89C49.1999 34.92 49.55 34.97 49.91 35.03C50.1835 35.0934 50.457 35.1579 50.7306 35.2224C51.277 35.3512 51.8235 35.48 52.37 35.6C52.4935 35.627 52.6175 35.6538 52.7417 35.6806C53.4921 35.8427 54.2521 36.0069 54.99 36.23C55.2855 36.3217 55.5799 36.4262 55.8747 36.5307C56.4477 36.7339 57.0223 36.9377 57.61 37.05C58.1743 37.1582 58.7388 37.1649 59.3078 37.1715C59.4747 37.1735 59.6422 37.1755 59.81 37.18C59.8588 37.1859 59.9075 37.192 59.9562 37.1982C59.99 37.2026 60.0239 37.2069 60.0577 37.2113C60.2223 37.2325 60.387 37.2537 60.5515 37.2699C60.551 37.2808 60.5505 37.2917 60.5501 37.3027C60.5441 37.4383 60.5382 37.5742 60.5301 37.71C60.5101 37.93 60.4701 38.16 60.4301 38.38C60.3839 38.593 60.3364 38.8053 60.2889 39.0174C60.1514 39.6321 60.0141 40.2455 59.9101 40.87C59.7401 41.88 59.67 42.9 59.6 43.92C59.4812 45.3968 59.2112 46.8591 58.9427 48.3132C58.8948 48.5724 58.847 48.8313 58.8001 49.09C58.5401 50.33 58.24 51.55 57.84 52.75C57.75 52.98 57.6501 53.21 57.5501 53.43C57.5501 53.45 57.5401 53.46 57.5301 53.47ZM62.5965 34.7048C62.3351 34.2055 61.8583 33.8222 61.28 33.78C61.0629 33.7645 60.8444 33.7355 60.6249 33.7063C60.2782 33.6603 59.9289 33.6139 59.5799 33.62C59.2999 33.63 59.01 33.63 58.72 33.63C58.5701 33.61 58.4198 33.59 58.26 33.57C57.7674 33.4404 57.2829 33.2758 56.7981 33.1111C56.3479 32.9582 55.8973 32.8052 55.4399 32.68C54.8153 32.5061 54.1824 32.3696 53.5493 32.233C53.1992 32.1575 52.8489 32.0819 52.5 32C52.3833 31.9728 52.2667 31.9454 52.1501 31.918C50.9378 31.6328 49.728 31.3482 48.4599 31.33C47.5599 31.32 46.66 31.31 45.75 31.31C43.76 31.31 41.77 31.39 39.79 31.61C37.94 31.81 36.0899 32.13 34.3199 32.71C34.1579 32.7632 33.9944 32.8159 33.8302 32.8689C32.5749 33.2735 31.2734 33.693 30.23 34.48C28.54 35.74 27.24 37.64 26.51 39.62C26.4601 39.7498 26.4099 39.8802 26.37 40.01C26.31 40.16 26.2599 40.31 26.2099 40.46V40.44C25.9899 41.11 25.7699 41.8 25.5899 42.49C25.5485 42.648 25.5058 42.8067 25.463 42.9661C25.2891 43.6138 25.1123 44.2719 25 44.93C24.9853 45.017 24.9704 45.1042 24.9555 45.1917L24.9551 45.1937C24.8277 45.9396 24.6979 46.6998 24.68 47.46C24.66 48.21 24.65 48.97 24.67 49.72C24.7234 52.5583 24.8401 55.3887 24.9567 58.2182L25 59.27C25.04 60.21 25.12 61.15 25.24 62.08C25.36 63.09 25.5899 64.07 25.8399 65.06C25.9143 65.3611 25.9925 65.6634 26.0708 65.9665C26.2137 66.5192 26.3573 67.0746 26.48 67.63C26.56 67.9861 26.6368 68.3422 26.7136 68.6984C26.8288 69.2321 26.944 69.7662 27.0699 70.3C27.4184 71.7556 27.8088 73.1933 28.1994 74.6315L28.1997 74.6328C28.3135 75.0517 28.4273 75.4706 28.54 75.89C28.75 76.69 28.9699 77.48 29.2099 78.27C28.7899 78.16 28.3799 78.06 27.9499 77.98C27.1099 77.83 26.27 77.75 25.42 77.68L25.3854 77.6773C24.5067 77.6082 23.6184 77.5383 22.74 77.41C22.4576 77.3688 22.1734 77.3242 21.8883 77.2794C21.2042 77.1719 20.5146 77.0635 19.8299 77C18.5799 76.89 17.34 76.86 16.0899 76.91L14.5899 76.97C13.7799 77.01 12.95 77.04 12.14 77.02C10.34 77 8.56 76.93 6.77 76.81C6.31 76.78 5.86001 76.74 5.40001 76.69C5.15001 76.55 4.85002 76.46 4.54002 76.46C4.50887 76.46 4.47782 76.4608 4.44691 76.4624C4.6102 74.4419 4.96508 72.4311 5.31996 70.43L5.40305 69.9665C5.71604 68.2224 6.02789 66.4846 6.22999 64.73C6.35358 63.6768 6.45695 62.6179 6.56028 61.5594C6.64925 60.6479 6.73819 59.7368 6.83998 58.83C7.04998 57.03 7.30998 55.23 7.58998 53.44C7.85998 51.63 8.18005 49.82 8.54005 48.02C8.94005 46.34 9.36001 44.67 9.87001 43.02C10.4 41.32 10.94 39.61 11.49 37.91C11.81 37.02 12.15 36.16 12.53 35.29C12.645 35.06 12.76 34.8325 12.875 34.605C12.9837 34.39 13.0923 34.175 13.201 33.958C13.2022 33.9555 13.2035 33.9532 13.2048 33.951C13.2069 33.9473 13.209 33.9439 13.2109 33.9409C13.2159 33.9327 13.2197 33.9267 13.22 33.9208C14.3147 31.7744 15.5279 29.6776 16.8101 27.64C17.2212 27.0514 17.6584 26.4802 18.13 25.9347C18.5083 25.5188 18.9067 25.1297 19.3079 24.738L19.49 24.56C20.0899 24.0401 20.6901 23.5199 21.34 23.06C21.64 22.86 21.94 22.68 22.26 22.52C23.2729 22.0439 24.3381 21.6502 25.391 21.2611C25.5544 21.2007 25.7175 21.1404 25.88 21.08C26.46 20.88 27.05 20.7 27.64 20.54C27.7288 20.5246 27.8177 20.5087 27.9066 20.4929C28.278 20.4267 28.6508 20.3603 29.03 20.32C29.3272 20.2862 29.6288 20.2616 29.932 20.2368C30.0777 20.2249 30.224 20.213 30.37 20.2C31.16 20.17 31.94 20.16 32.73 20.16C33.5635 20.2317 34.395 20.3215 35.2272 20.4113C36.252 20.522 37.2781 20.6327 38.3101 20.71C40.1201 20.84 41.91 20.99 43.7 21.28C45.68 21.6 47.65 21.9 49.64 22.13C51.4 22.32 53.15 22.56 54.9 22.89C55.1513 22.9461 55.4024 23.0028 55.6534 23.0595C57.2806 23.4267 58.9053 23.7934 60.5601 24.01C60.953 24.0591 61.3375 23.9742 61.6636 23.791C61.8184 23.8359 61.9817 23.86 62.1501 23.86C63.1201 23.86 63.9201 23.05 63.9201 22.09C63.9201 22.04 63.9226 21.9875 63.9251 21.935C63.9276 21.8825 63.9301 21.83 63.9301 21.78C64.0601 20.15 64.29 18.52 64.57 16.91C64.587 16.8135 64.6041 16.7169 64.6212 16.6204C64.9046 15.0179 65.1869 13.4218 65.3001 11.79C65.3669 10.9105 65.477 10.0341 65.5874 9.15558C65.6754 8.45591 65.7635 7.75492 65.83 7.05C65.8599 6.7213 65.8898 6.39509 65.9197 6.06888C65.9498 5.74009 65.9799 5.4113 66.01 5.08C66.17 5.27 66.33 5.45002 66.49 5.63002C66.5644 5.7171 66.6392 5.80419 66.7141 5.89147C66.9921 6.21509 67.2723 6.54135 67.5401 6.88002C67.8301 7.25002 68.1 7.63 68.37 8.02C68.79 8.72 69.19 9.43002 69.58 10.16C70.01 10.95 70.47 11.7 70.97 12.43C71.299 12.9086 71.6729 13.3481 72.0454 13.7861C72.171 13.9337 72.2965 14.0812 72.4201 14.23C72.9301 14.86 73.4 15.5 73.86 16.16C74.57 17.27 75.22 18.41 75.83 19.59C75.8059 19.5539 75.7854 19.5141 75.7642 19.4729C75.7502 19.4457 75.7359 19.4179 75.72 19.39C75.8237 19.6004 75.9248 19.8125 76.0258 20.0246C76.2658 20.5282 76.5056 21.0315 76.7801 21.51C77.2001 22.25 77.6601 22.96 78.1601 23.65C78.4075 23.9858 78.654 24.3241 78.9009 24.6631C79.4924 25.4749 80.0862 26.2899 80.7 27.08C81.2819 27.8327 81.8358 28.6054 82.3896 29.3778C82.7113 29.8266 83.033 30.2754 83.36 30.72C83.91 31.46 84.51 32.16 85.13 32.84C84.84 33.09 84.54 33.33 84.24 33.56C83.62 34.03 82.99 34.48 82.35 34.92C80.92 35.83 79.48 36.73 77.96 37.5C77.8141 37.5739 77.6675 37.6471 77.5207 37.7203C76.9327 38.0135 76.3422 38.3079 75.7901 38.66C74.9901 39.17 74.23 39.72 73.49 40.32C73.3363 40.443 73.183 40.5665 73.0298 40.6899C72.4855 41.1285 71.9419 41.5664 71.38 41.98C71.2099 42.1029 71.0386 42.2252 70.867 42.3478C70.3125 42.7439 69.7546 43.1424 69.22 43.57C68.57 44.1 67.91 44.63 67.25 45.15C66.9384 45.3929 66.6226 45.6274 66.3064 45.8621C65.9326 46.1396 65.5583 46.4175 65.19 46.71C64.7361 47.0774 64.3083 47.4863 63.8839 47.8919C63.7192 48.0493 63.555 48.2062 63.39 48.36L63.3871 48.3626C63.0581 48.6517 62.729 48.9409 62.39 49.23C62.41 49.12 62.43 49.02 62.45 48.91C62.5035 48.599 62.5581 48.2879 62.6128 47.9769C62.7215 47.3579 62.8302 46.739 62.9301 46.12C63.0701 45.24 63.13 44.37 63.19 43.49C63.26 42.5 63.39 41.52 63.58 40.54C63.6288 40.3097 63.6826 40.0794 63.7365 39.8482C63.8371 39.4169 63.9384 38.9827 64.01 38.54C64.06 38.1485 64.0753 37.7571 64.0905 37.3656C64.0936 37.2871 64.0967 37.2085 64.1 37.13C64.1088 37.0071 64.1253 36.8842 64.1428 36.7545C64.1452 36.7364 64.1476 36.7183 64.1501 36.7C64.3101 35.75 63.58 34.83 62.64 34.71C62.6255 34.7081 62.611 34.7063 62.5965 34.7048ZM18.1728 25.8854C18.1918 25.8643 18.2109 25.8429 18.23 25.82L18.1728 25.8854Z"
    fill="rgba(191, 192, 191, 1)" />
</svg>