<?xml version="1.0" encoding="UTF-8" standalone="yes"?>
<svg width="82" height="77" viewBox="-40 -40 162 157" fill="none" xmlns="http://www.w3.org/2000/svg">
  <path
    d="M0.610005 71.91C0.510005 71.16 0.950044 70.34 1.65004 70.03C3.36004 68.82 4.93003 67.42 6.51003 66.04C7.87003 64.81 9.23008 63.57 10.5601 62.3C12.0401 60.89 13.51 59.47 14.97 58.04C17.7 55.37 20.43 52.68 23.2 50.04C25.97 47.41 28.73 44.79 31.52 42.19C34.49 39.42 37.49 36.68 40.5 33.96C41.37 33.17 42.24 32.38 43.1 31.58C42.51 31.72 41.91 31.85 41.32 31.98C40.59 32.15 39.87 32.37 39.14 32.56C38 32.86 36.86 33.19 35.73 33.56C34.44 34.01 33.16 34.47 31.87 34.94C30.91 35.29 29.96 35.65 29.01 36.01C27.94 36.42 26.87 36.86 25.78 37.22C24.95 37.49 24.0101 36.98 23.6801 36.2C23.3101 35.32 23.73 34.25 24.63 33.88C27.7 32.61 30.84 31.5 33.99 30.42C33.92 30.45 33.85 30.47 33.77 30.5C34.06 30.4 34.35 30.3 34.65 30.21C35.19 30.02 35.73 29.83 36.27 29.64C38.29 28.94 40.32 28.28 42.39 27.73C43.54 27.43 44.7301 27.27 45.9301 27.24C46.4901 27.23 47.05 27.31 47.58 27.48C48.16 27.48 48.8301 27.76 49.1801 28.23C49.2101 28.27 49.24 28.31 49.27 28.35C50.09 28.97 50.75 29.75 51.2 30.69C51.75 31.84 52.11 33.07 52.34 34.32C52.84 36.98 52.79 39.77 52.4 42.44C52.17 44.07 51.82 45.69 51.37 47.28C51.2 47.89 51.04 48.51 50.84 49.12C50.89 49.5 50.83 49.9 50.63 50.26C50.49 50.5 50.34 50.72 50.15 50.92C49.65 51.43 48.86 51.58 48.21 51.3C47.54 51.02 47.16 50.38 47.13 49.67C47.11 49.15 47.27 48.67 47.44 48.19C47.9 46.77 48.26 45.3 48.57 43.84C48.82 42.55 49.03 41.27 49.12 39.96C49.11 40.04 49.11 40.12 49.1 40.2C49.16 39.2 49.17 38.21 49.12 37.22C49.05 36.34 48.9501 35.46 48.8001 34.6C48.7001 34.16 48.59 33.73 48.44 33.3C48.31 32.92 48.16 32.55 47.99 32.18C47.95 32.11 47.91 32.03 47.87 31.96C45.46 34.32 42.9201 36.55 40.4301 38.82C37.5701 41.41 34.75 44.03 31.94 46.68C29.14 49.33 26.3001 51.95 23.5401 54.65C20.7201 57.41 17.92 60.19 15.07 62.92C14.03 63.92 12.97 64.91 11.94 65.92C10.99 66.85 9.97 67.72 8.98 68.62C8.06 69.46 7.11004 70.28 6.15004 71.06C5.61004 71.5 5.07003 71.94 4.51003 72.36C4.27003 72.54 4.04001 72.72 3.80001 72.88C3.45001 73.12 3.07002 73.4 2.63002 73.43C2.58002 73.43 2.51999 73.44 2.46999 73.44C1.54999 73.43 0.740005 72.8499 0.610005 71.91Z"
    fill="rgba(191, 192, 191, 1)" />
  <path
    d="M37.21 76.33C36.01 75.91 34.9601 75.19 33.9201 74.48C33.3 74.06 32.69 73.63 32.08 73.2C30.49 72.09 28.92 70.94 27.61 69.5C26.77 68.58 25.9101 67.64 25.1701 66.64C24.6001 65.86 24.72 64.76 25.49 64.16C26.24 63.58 27.4 63.71 27.97 64.48C28.48 65.18 29.07 65.82 29.64 66.48C30.19 67.09 30.74 67.68 31.35 68.22C32.99 69.62 34.82 70.81 36.6 72.03C37.01 72.3 37.42 72.55 37.86 72.77C38.03 72.85 38.2 72.92 38.37 72.98C38.49 73.02 38.61 73.05 38.74 73.08C38.81 73.09 38.89 73.1 38.96 73.11C39.03 73.11 39.1101 73.11 39.1801 73.11C39.3501 73.09 39.5201 73.06 39.6801 73.02C39.6001 73.04 39.52 73.05 39.45 73.07C39.56 73.04 39.68 73.01 39.79 72.98C40.27 72.8 40.7201 72.59 41.1801 72.37H41.1701C41.18 72.37 41.19 72.36 41.2 72.36C41.2 72.36 41.21 72.36 41.22 72.35C41.24 72.34 41.25 72.33 41.26 72.33C41.27 72.33 41.2901 72.32 41.3001 72.31C41.3201 72.3 41.34 72.29 41.35 72.29C41.35 72.29 41.35 72.29 41.36 72.29L41.37 72.28C42.62 71.64 43.88 71.02 45.14 70.41C45.6 70.16 46.09 69.94 46.52 69.66C47.03 69.34 47.5401 69.02 48.0601 68.69C48.7601 68.19 49.47 67.7 50.16 67.19C51.02 66.53 51.89 65.89 52.77 65.26C53.64 64.64 54.52 64.02 55.39 63.4C56.14 62.87 56.8401 62.26 57.5501 61.67C58.2901 60.99 59.02 60.31 59.76 59.64C60.33 59.12 60.89 58.6 61.46 58.09C61.85 57.73 62.2601 57.41 62.6801 57.09C63.7201 56.28 64.75 55.47 65.79 54.67C66.66 54 67.47 53.27 68.29 52.55C70.06 50.88 71.9 49.26 73.54 47.46C74.09 46.83 74.59 46.16 75.07 45.48C75.68 44.58 76.23 43.65 76.72 42.68C76.92 42.28 77.09 41.88 77.24 41.47C77.32 41.2 77.4 40.94 77.46 40.67C77.51 40.38 77.55 40.1 77.58 39.8C77.6 39.41 77.6 39.02 77.58 38.63C77.54 38.18 77.48 37.73 77.4 37.28C77.32 36.93 77.23 36.59 77.13 36.25C76.98 35.84 76.81 35.44 76.62 35.04C76.03 33.95 75.35 32.92 74.6899 31.87C74.1499 31.02 73.6101 30.18 73.0601 29.34C71.9401 27.77 70.8 26.21 69.63 24.68C68.54 23.25 67.35 21.91 66.24 20.5C65.01 18.95 63.82 17.36 62.6 15.8C61.36 14.21 60.06 12.68 58.77 11.14C58.16 10.42 57.5501 9.70001 56.9301 8.99001C56.9501 9.02001 56.98 9.04002 57 9.06002C56.97 9.02002 56.94 8.99004 56.91 8.96004C56.9 8.95004 56.89 8.94001 56.88 8.93001C56.89 8.94001 56.89 8.94003 56.9 8.95003C56.42 8.42003 55.95 7.87999 55.47 7.34999C54.64 6.41999 53.83 5.45001 52.91 4.62001C52.73 4.47001 52.55 4.33002 52.37 4.19002C52.28 4.13002 52.17 4.08004 52.07 4.02004C52.07 4.02004 52.0601 4.02003 52.0501 4.01003C52.0301 4.00003 52.02 3.99001 52 3.99001C52.01 3.99001 52.02 4.00003 52.04 4.01003C52 4.00003 51.9699 3.98999 51.9399 3.96999C51.9799 3.98999 52.0101 4.00003 52.0501 4.01003C52.1001 4.04003 52.1399 4.06004 52.1899 4.08004C52.0999 4.04004 52.0101 4.00004 51.9201 3.96004C51.8701 3.94004 51.81 3.91999 51.75 3.90999C51.7 3.89999 51.64 3.89003 51.59 3.89003C51.53 3.89003 51.47 3.89003 51.4 3.89003C51.28 3.90003 51.16 3.91001 51.04 3.93001C50.8 3.99001 50.56 4.05002 50.33 4.13002C49.83 4.32002 49.34 4.54004 48.85 4.77004C47.68 5.39004 46.58 6.10003 45.47 6.82003C42.27 9.05003 39.1099 11.34 35.9399 13.62C34.38 14.74 32.8 15.83 31.22 16.93C29.72 17.98 28.22 19.04 26.71 20.07C24.21 21.78 21.69 23.46 19.29 25.31C18 26.3 16.7101 27.29 15.4301 28.29C14.2301 29.22 13.02 30.15 11.86 31.15C10.95 31.95 10.08 32.8 9.27003 33.71C8.72003 34.35 8.20003 35.01 7.71003 35.7C7.48003 36.06 7.26002 36.42 7.07002 36.79C6.99002 36.96 6.90998 37.14 6.84998 37.31C6.80998 37.42 6.79003 37.53 6.77003 37.65C6.76003 37.69 6.75001 37.72 6.75001 37.76C6.76001 37.73 6.77003 37.7 6.77003 37.67C6.77003 37.69 6.77003 37.71 6.77003 37.72C6.77003 37.7 6.77003 37.68 6.77003 37.67C6.78003 37.62 6.78999 37.58 6.78999 37.54C6.77999 37.63 6.77002 37.72 6.76002 37.8C6.76002 37.86 6.76002 37.92 6.76002 37.98C6.77002 38.01 6.77004 38.04 6.78004 38.07C6.79004 38.11 6.80001 38.15 6.81001 38.19C6.84001 38.27 6.87998 38.35 6.90998 38.44C7.00998 38.62 7.10998 38.79 7.21998 38.96C7.77998 39.76 8.42001 40.51 9.06001 41.25C9.58001 41.83 10.11 42.41 10.62 43C11.2 43.69 11.76 44.4 12.35 45.08C12.49 45.23 12.63 45.37 12.77 45.5C12.81 45.53 12.85 45.56 12.88 45.59C13.65 46.17 13.79 47.32 13.2 48.07C12.61 48.84 11.49 48.97 10.72 48.39C10.01 47.85 9.45003 47.15 8.90003 46.47C8.56003 46.06 8.22001 45.65 7.88001 45.24C7.29001 44.58 6.7 43.92 6.12 43.25C5.17 42.14 4.15002 41 3.57002 39.64C3.14002 38.62 3.17002 37.58 3.39002 36.52C3.49002 36.01 3.73998 35.52 3.96998 35.06C4.28998 34.45 4.67002 33.86 5.07002 33.3C5.81002 32.25 6.66 31.28 7.55 30.35C8.28 29.59 9.06001 28.85 9.88001 28.19C13.02 25.65 16.2 23.18 19.45 20.79C20.93 19.7 22.47 18.68 23.99 17.65C25.53 16.6 27.05 15.53 28.58 14.47C31.92 12.14 35.23 9.77002 38.54 7.38002C40.11 6.25002 41.69 5.13005 43.28 4.03005C43.6 3.81005 43.92 3.60003 44.25 3.39003C44.66 3.12003 45.07 2.83004 45.5 2.59004C45.95 2.33004 46.4 2.07002 46.86 1.81002C47.39 1.51002 47.97 1.25003 48.53 1.01003C49.13 0.760028 49.7801 0.530011 50.4201 0.430011C50.9401 0.350011 51.49 0.289994 52.01 0.349994C52.56 0.419994 53.06 0.569996 53.57 0.789996C54.66 1.25 55.56 2.16003 56.35 3.01003C57.03 3.75003 57.71 4.51003 58.38 5.26003C59.76 6.80003 61.1001 8.37003 62.4301 9.95003C63.6801 11.43 64.9 12.94 66.1 14.47C67.19 15.86 68.22 17.3 69.35 18.66C71.86 21.68 74.33 24.76 76.47 28.05C77.04 28.92 77.59 29.8 78.15 30.67C78.96 31.94 79.76 33.21 80.32 34.62C80.79 35.8 81.03 37.07 81.12 38.33C81.21 39.6 81.09 40.86 80.75 42.09C80.43 43.26 79.84 44.36 79.26 45.42C78.62 46.58 77.8701 47.67 77.0601 48.72C76.0101 50.09 74.75 51.27 73.51 52.46C72.8 53.14 72.08 53.81 71.36 54.48C70.62 55.18 69.85 55.84 69.07 56.5C68.33 57.14 67.55 57.73 66.78 58.33C65.86 59.04 64.95 59.76 64.04 60.48C62.65 61.73 61.28 63 59.91 64.27C59.53 64.62 59.12 64.93 58.72 65.26C58.39 65.53 58.07 65.81 57.73 66.06C56.93 66.62 56.13 67.17 55.34 67.74C53.66 68.95 52.01 70.2 50.32 71.4C48.74 72.52 47.0301 73.4 45.3001 74.24C44.9101 74.43 44.53 74.62 44.15 74.81L44.16 74.8C44.14 74.81 44.13 74.81 44.12 74.82C44.08 74.84 44.04 74.86 44 74.88C44.04 74.86 44.07 74.84 44.11 74.83C43.29 75.25 42.47 75.69 41.63 76.06C40.95 76.35 40.25 76.54 39.52 76.63C39.37 76.65 39.2101 76.66 39.0601 76.66C38.4201 76.67 37.79 76.54 37.21 76.33Z"
    fill="rgba(191, 192, 191, 1)" />
  <path d="M41.37 72.28C41.36 72.28 41.36 72.28 41.37 72.28V72.28Z" fill="rgba(191, 192, 191, 1)" />
  <path d="M41.2 72.36C41.19 72.37 41.1801 72.37 41.1801 72.37C41.1901 72.37 41.19 72.37 41.2 72.36Z"
    fill="rgba(191, 192, 191, 1)" />
  <path d="M11.87 31.14L11.86 31.15C11.86 31.15 11.86 31.15 11.87 31.14Z" fill="rgba(191, 192, 191, 1)" />
  <path d="M56.83 8.89001C56.84 8.90001 56.85 8.90999 56.86 8.92999C56.85 8.91999 56.84 8.90001 56.83 8.89001Z"
    fill="rgba(191, 192, 191, 1)" />
</svg>