<?xml version="1.0" encoding="UTF-8" standalone="yes"?>
<svg width="166" height="199" viewBox="-40 -40 246 279" fill="none" xmlns="http://www.w3.org/2000/svg">
  <path fill-rule="evenodd" clip-rule="evenodd"
    d="M142.815 3.56571C139.687 5.19039 134.249 7.90261 130.758 9.56757C124.689 12.441 124.407 12.6021 124.46 13.448C124.554 14.5222 126.031 16.7108 128.569 19.5707L130.462 21.6519L128.542 24.3911C125.548 28.5938 116.807 41.9536 114.041 46.492C106.616 58.8717 100.614 71.1038 96.7065 81.926C95.8606 84.2086 95.1356 86.1287 95.0819 86.1958C95.055 86.263 94.0748 85.9004 92.9335 85.4439C78.2711 79.4823 61.1918 83.5239 44.3944 96.9509C27.9998 110.056 12.2901 133.003 6.44926 152.432C4.03237 160.421 1.56181 173.982 1.065 181.77C0.635334 188.121 0.863572 189.88 2.30028 192.162C4.03238 194.834 9.69864 199.587 10.3566 198.943C10.4908 198.849 10.5177 196.727 10.5177 194.243C10.3834 183.743 13.1897 166.704 16.8687 155.332C20.2255 144.966 28.2415 130.72 36.6603 120.233C40.5005 115.44 47.2544 108.565 51.2288 105.37C60.225 98.1997 69.7717 93.5673 79.1036 91.9427C82.4872 91.3519 90.9732 91.1236 92.759 91.5801C93.6049 91.8084 93.672 91.9427 93.4706 92.8826C92.5307 97.4746 92.3025 106.216 92.947 111.56C93.766 118.112 96.1023 126.813 98.1567 130.948C101.218 137.017 107.247 143.825 112.819 147.477C118.432 151.196 122.728 151.747 125.078 149.142C126.649 147.383 126.971 143.704 126.058 138.682C125.763 137.178 125.145 133.754 124.689 131.082C122.178 116.769 117.317 106.055 109.758 98.1594C108.59 96.8838 107.609 95.7157 107.609 95.4874C107.609 95.286 108.294 93.1779 109.113 90.7611C115.209 73.2925 126.421 52.1045 136.719 38.5432C139.982 34.3002 146.562 27.3047 146.951 27.721C147.085 27.8553 147.313 30.7555 147.407 34.2063C147.663 40.7587 147.958 42.5177 149.529 45.5522C150.966 48.4524 158.431 55.6224 161.13 56.7637C162.795 57.4485 163.023 57.0188 162.701 53.6621C161.922 45.6461 162.567 34.5017 164.688 20.1213L165.306 15.7172L164.527 14.0926C162.795 10.5747 157.196 4.47872 153.383 1.94101C152.107 1.0951 151.194 0.732638 150.053 0.665503C148.656 0.571513 147.998 0.826591 142.815 3.56571ZM109.274 103.691C111.879 109.129 113.544 116.205 114.618 126.705C115.37 133.647 114.712 136.158 111.973 137.299C109.691 138.239 109.328 138.051 108.455 135.057C107.475 131.928 106.213 126.316 105.582 122.61C104.924 118.568 105.031 106.739 105.783 102.886C106.079 101.194 106.441 99.6901 106.535 99.5021C106.831 99.0456 107.542 100.12 109.274 103.705V103.691Z"
    fill="rgba(191, 192, 191, 1)" />
</svg>