<?xml version="1.0" encoding="UTF-8" standalone="yes"?>
<svg width="71" height="65" viewBox="-40 -40 151 145" fill="none" xmlns="http://www.w3.org/2000/svg">
  <path
    d="M5.14004 63.48C5.06004 62.95 5.05999 62.48 5.21999 61.97C5.36999 61.47 5.66997 61.04 5.94997 60.6C6.23997 60.15 6.49003 59.68 6.76003 59.22C7.18003 58.49 7.59008 57.77 8.06008 57.06C9.13008 55.44 10.1601 53.79 11.3101 52.23C12.1201 51.13 12.93 50.03 13.74 48.93C14.12 48.42 14.47 47.91 14.86 47.41C16.31 45.55 17.77 43.69 19.23 41.83C20.31 40.45 21.4401 39.12 22.5501 37.76C23.6001 36.49 24.64 35.21 25.71 33.94C28.53 30.6 31.33 27.24 34.12 23.87C34.81 23.03 35.48 22.19 36.15 21.33C36.44 20.96 36.72 20.58 37.01 20.21C35.51 21.58 34.08 23.01 32.62 24.41C31.35 25.62 30.17 26.91 28.97 28.18C27.82 29.39 26.6501 30.59 25.5401 31.84C23.9601 33.61 22.3801 35.38 20.8001 37.15C20.8201 37.13 20.83 37.12 20.84 37.1C19.43 38.8 17.9801 40.46 16.5501 42.14C15.4101 43.48 14.31 44.84 13.19 46.2C10.71 49.24 8.28002 52.31 5.87002 55.4C5.19002 56.27 4.55008 57.17 3.81008 58C3.29008 58.59 2.32006 58.66 1.67006 58.28C0.920064 57.83 0.590074 56.87 0.930074 56.06C0.950074 56.02 0.970001 55.98 0.980001 55.94C0.960001 56.01 0.930054 56.07 0.910054 56.14C0.900054 56.17 0.900035 56.21 0.890035 56.24C0.990035 55.82 1.23008 55.45 1.56008 55.19C2.01008 54.63 2.44003 54.04 2.88003 53.47C3.52003 52.66 4.15006 51.84 4.79006 51.03C5.99006 49.51 7.17005 47.96 8.41005 46.47C9.82006 44.77 11.2 43.06 12.6 41.35C13.78 39.91 15.01 38.51 16.21 37.09C17.28 35.83 18.35 34.58 19.45 33.35C20.39 32.3 21.33 31.24 22.27 30.19C22.77 29.64 23.25 29.07 23.75 28.53C25.29 26.9 26.84 25.28 28.38 23.66C29.57 22.41 30.8101 21.24 32.0601 20.05C33.1001 19.05 34.13 18.04 35.2 17.09C35.84 16.52 36.49 15.96 37.15 15.41C37.79 14.87 38.46 14.38 39.1 13.83C39.64 13.37 40.19 12.98 40.82 12.67C41.51 12.35 42.2101 12.44 42.9301 12.53C43.9401 12.65 44.72 13.76 44.4 14.75C44.21 15.33 44.04 15.91 43.83 16.48C43.63 17.02 43.3 17.54 43 18.03C42.99 18.05 42.98 18.07 42.97 18.08C43.41 17.61 43.8501 17.15 44.3101 16.69C46.1201 14.85 47.93 13.02 49.76 11.2C48.79 11.32 47.81 11.45 46.84 11.57C44.78 11.84 42.7201 12.12 40.6601 12.42C38.7401 12.69 36.8201 13.03 34.9101 13.35C33.0701 13.65 31.2401 14.06 29.4101 14.43C27.3901 14.9 25.36 15.35 23.35 15.84C22.3 16.09 21.25 16.35 20.21 16.61C19.5 16.78 18.8 16.95 18.09 17.11C17.17 17.33 16.2501 17.61 15.3001 17.58C14.4201 17.56 13.6601 16.94 13.5401 16.05C13.4201 15.15 13.99 14.37 14.83 14.1C22.31 11.69 29.99 9.92999 37.65 8.17999C38.38 8.01999 39.1 7.84999 39.83 7.67999C39.63 7.69999 39.42 7.71999 39.22 7.72999C38.55 7.78999 37.88 7.82999 37.22 7.91999C36.27 8.04999 35.33 8.19 34.39 8.32C33.77 8.41 33.13 8.47999 32.51 8.58999C30.88 8.87999 29.23 9.14 27.61 9.47C27.49 9.5 27.36 9.51999 27.24 9.53999C26.03 9.80999 24.82 10.07 23.61 10.33C21.11 10.87 18.6 11.34 16.08 11.78C14.36 12.11 12.63 12.44 10.9 12.64C9.94004 12.75 9.04005 12.1 8.91005 11.12C8.78005 10.14 9.47006 9.28 10.4201 9.13C12.3401 8.82 14.2601 8.49999 16.1701 8.16999C16.7101 8.05999 17.24 7.96 17.7801 7.85C20.66 7.26 23.5301 6.65 26.4201 6.1C29.0401 5.53 31.6601 4.95999 34.2901 4.38999C36.2301 3.95999 38.19 3.59999 40.14 3.20999C42.01 2.83999 43.89 2.54 45.76 2.23C47.88 1.87 50.0201 1.63 52.1601 1.36C53.1301 1.24 54.1 1.19999 55.07 1.12999C55.55 1.08999 56.04 1.05999 56.52 1.01999C57.26 0.969992 58 0.929992 58.74 0.949992C59.4 0.969992 60.01 1.11999 60.65 1.26999C61.53 1.46999 62.01 2.37 61.94 3.22C61.9 3.67 61.84 4.10999 61.6 4.50999C61.38 4.88999 61.0301 5.21 60.6601 5.44C60.4601 5.56 60.25 5.67 60.03 5.77C59.91 5.94 59.77 6.11 59.62 6.27C59.42 6.5 59.23 6.72 59.02 6.94C59.05 6.96 59.08 6.97 59.11 6.99C59.72 7.34 60.06 8.05999 59.97 8.75999C59.86 9.52999 59.23 10.18 58.45 10.27C58.43 10.27 58.4201 10.27 58.4101 10.28C58.6301 11.08 58.86 11.89 59.08 12.69C59.6 14.54 60.12 16.4 60.65 18.24C61.69 21.81 62.73 25.38 63.74 28.96C63.78 29.06 63.81 29.16 63.85 29.25C64.42 30.82 65.04 32.38 65.64 33.94C66.18 35.34 66.85 36.69 67.48 38.06C67.78 38.64 68.09 39.21 68.39 39.79C68.91 40.79 69.48 41.76 69.97 42.76C69.97 42.75 69.96 42.75 69.96 42.74C69.96 42.75 69.97 42.76 69.98 42.76C70 42.79 70.0101 42.82 70.0301 42.85C70.3201 43.41 70.6001 43.95 70.6701 44.6C70.7301 45.24 70.48 45.75 70.12 46.27C69.6 47.04 68.34 47.19 67.64 46.59C67.26 46.27 66.92 45.95 66.59 45.57C66.24 45.16 65.9601 44.67 65.6601 44.21C64.9301 43.07 64.33 41.85 63.78 40.61C62.8 38.42 62.08 36.11 61.44 33.81C61.1 32.6 60.7601 31.38 60.4201 30.17C60.0101 29.03 59.62 27.88 59.21 26.74C58.61 25.09 58.0201 23.43 57.4301 21.78C56.6901 19.7 55.95 17.62 55.2 15.54C54.83 14.54 54.47 13.53 54.08 12.53C54.2 14.22 54.32 15.91 54.49 17.59C54.6 18.65 54.71 19.7 54.83 20.75C54.97 21.57 55.12 22.4 55.24 23.23C55.8 26.81 56.31 30.4 56.87 33.98C56.87 33.97 56.87 33.96 56.86 33.95C57.09 35.08 57.3101 36.21 57.5401 37.34C57.6301 37.75 57.76 38.16 57.87 38.57C58 39.07 58.11 39.57 58.26 40.07C58.76 41.67 59.34 43.27 59.6 44.93C59.76 45.96 58.89 46.96 57.85 46.94C57.31 46.93 56.83 46.81 56.44 46.42C56.07 46.05 55.9 45.61 55.74 45.13C55.42 44.24 55.12 43.35 54.84 42.44C54.55 41.53 54.37 40.58 54.13 39.66C54.05 39.35 54 39.02 53.94 38.7C53.8 38 53.67 37.29 53.53 36.59C53.39 35.84 53.25 35.09 53.13 34.33C52.49 30.23 51.91 26.12 51.4 22C51.36 21.7 51.3301 21.39 51.2901 21.09C51.1501 20.28 51 19.48 50.84 18.67C50.64 17.78 50.43 16.88 50.19 15.99C50.17 15.93 50.15 15.87 50.14 15.81C47.64 18.31 45.2201 20.89 42.8101 23.47C41.1801 25.21 39.64 27.04 38.03 28.79C37 29.99 35.9601 31.17 34.9301 32.36C33.8101 33.66 32.7001 34.97 31.5501 36.25C31.6001 36.2 31.65 36.14 31.7 36.08C29.38 38.87 27.01 41.62 24.7 44.42C23.11 46.36 21.5001 48.3 19.9101 50.24C18.7601 51.64 17.64 53.07 16.51 54.48C15.56 55.67 14.6201 56.87 13.6801 58.07C13.0501 58.87 12.4201 59.68 11.7901 60.48C11.3401 61.06 10.8901 61.65 10.4301 62.23C10.0701 62.68 9.70007 63.11 9.30007 63.52C8.91007 63.93 8.43002 64.27 8.00002 64.63C7.68002 64.89 7.31998 65.01 6.95998 65.01C6.08998 65.01 5.27004 64.39 5.14004 63.48Z"
    fill="rgba(191, 192, 191, 1)" />
</svg>