<?xml version="1.0" encoding="UTF-8" standalone="yes"?>
<svg width="74" height="81" viewBox="-40 -40 154 161" fill="none" xmlns="http://www.w3.org/2000/svg">
  <path fill-rule="evenodd" clip-rule="evenodd"
    d="M32.1265 78.2532C32.1818 78.7699 32.0066 79.3087 31.63 79.72C31.15 80.25 30.5 80.68 29.77 80.68C29.71 80.68 29.62 80.67 29.54 80.66C28.77 80.56 28.14 80.01 27.88 79.3C27.7195 78.8565 27.6758 78.372 27.6328 77.8958C27.6196 77.7493 27.6064 77.6035 27.59 77.46C27.5499 77.09 27.52 76.72 27.49 76.35C27.3199 74.39 27.15 72.44 26.78 70.51C26.55 69.44 26.27 68.39 25.92 67.35C25.5701 66.37 25.1699 65.42 24.72 64.48C24.21 63.5 23.64 62.55 23.02 61.64C22.2976 60.59 21.5009 59.5958 20.6658 58.6394C19.6016 57.4523 18.4695 56.3419 17.27 55.28C15.79 53.9901 14.24 52.8 12.61 51.69C11.5319 50.968 10.4243 50.2947 9.26807 49.6996C9.25208 49.6929 9.23596 49.6864 9.21997 49.68C9.20996 49.68 9.19995 49.67 9.18994 49.67C8.23999 49.21 7.27002 48.79 6.28003 48.42C5.46008 48.15 4.62 47.94 3.78003 47.76C3.63916 47.7349 3.49915 47.7109 3.35962 47.6869C3.05347 47.6342 2.74902 47.5819 2.43994 47.52C2.05994 47.44 1.64001 47.28 1.38 46.98C1.04004 46.59 0.829956 46.1701 0.829956 45.65C0.829956 45.2849 0.945679 44.9414 1.14246 44.656C1.0564 44.2916 1.07971 43.9036 1.23999 43.57C1.42004 43.1801 1.67004 42.83 2.03003 42.57C2.28955 42.3898 2.55945 42.2304 2.83228 42.0692C2.93787 42.0068 3.04395 41.9442 3.15002 41.88C3.37964 41.7434 3.60913 41.6067 3.83704 41.47C4.02612 41.3567 4.21411 41.2434 4.40002 41.13C5.16003 40.6701 5.92993 40.23 6.68994 39.77C7.63818 39.1812 8.58887 38.5948 9.53955 38.0084C10.4939 37.4197 11.4482 36.8311 12.4 36.24C13.4851 35.5698 14.5579 34.8671 15.6289 34.1655C16.2358 33.7679 16.8423 33.3707 17.45 32.98C18.73 32.16 20 31.33 21.27 30.5C22.4243 29.7413 23.5785 28.9837 24.733 28.2268C27.1395 26.6492 29.5475 25.0746 31.96 23.5C35.0129 21.5032 38.0895 19.5536 41.1686 17.6024L42.34 16.86C43.3501 16.2166 44.3767 15.6022 45.4039 14.9876C45.9734 14.6468 46.543 14.306 47.11 13.96C48.71 12.9901 50.3199 12.0501 51.95 11.12C55.33 9.18 58.73 7.28998 62.13 5.40998C63.65 4.57001 65.1799 3.75007 66.73 2.96003C67.1084 2.76838 67.4868 2.57917 67.8663 2.39234C68.2592 2.19898 68.6533 2.00818 69.05 1.82001C69.1709 1.76307 69.295 1.70167 69.4219 1.63898C70.2079 1.25025 71.0974 0.810309 71.95 1.06C72.73 1.29005 73.22 1.97004 73.25 2.77003C73.27 3.21003 73.13 3.61005 72.9399 4.00001C72.6699 4.54005 72.38 5.07007 72.08 5.59003C71.9648 5.78522 71.8447 5.98041 71.7246 6.17554C71.6047 6.37037 71.4849 6.56519 71.37 6.76002C70.92 7.49006 70.49 8.22004 70.03 8.94001C69.01 10.5501 67.98 12.17 66.95 13.77C64.63 17.3701 62.3101 20.97 59.99 24.56C57.6095 28.2452 55.1399 31.8709 52.65 35.4864C52.6531 35.484 52.6564 35.4818 52.66 35.48C52.024 36.4179 51.3715 37.3435 50.7184 38.2699C50.3549 38.7856 49.9912 39.3015 49.63 39.82C49.0215 40.6922 48.4176 41.5598 47.8182 42.4321C47.5311 42.85 47.245 43.2689 46.96 43.69C46.9846 43.653 47.0132 43.6159 47.0409 43.5764C46.4268 44.531 45.8036 45.4857 45.1899 46.45C44.8304 47.0129 44.5078 47.5988 44.1846 48.1859C44.0312 48.4644 43.8777 48.7432 43.72 49.02L42.85 50.76C42.6251 51.2099 42.434 51.6766 42.2428 52.1433C42.179 52.2991 42.1151 52.4548 42.05 52.61C41.5601 53.75 41.1499 54.9301 40.6899 56.08C40.2 57.3001 39.6801 58.51 39.14 59.7C38.5901 60.9 38.0499 62.1 37.59 63.34C37.4513 63.7561 37.3146 64.1722 37.178 64.5879C36.8812 65.4912 36.585 66.3929 36.27 67.29C36.0516 67.9186 35.8134 68.5387 35.5748 69.1594C35.3656 69.7038 35.1562 70.2486 34.96 70.8C34.7732 71.3555 34.6025 71.9179 34.4314 72.4816C34.2452 73.0951 34.0585 73.7103 33.85 74.32C33.47 75.4401 33.0499 76.5501 32.5699 77.64C32.4651 77.8787 32.3119 78.0859 32.1265 78.2532ZM30.6519 72.5051C30.7544 72.1808 30.8545 71.8556 30.9543 71.5306C31.2178 70.6739 31.481 69.8181 31.79 68.98C31.9419 68.5711 32.0956 68.164 32.2491 67.7574C32.5912 66.8516 32.9325 65.948 33.25 65.03C33.54 64.1901 33.7999 63.34 34.08 62.5C34.39 61.57 34.76 60.6701 35.16 59.77C35.314 59.4243 35.4686 59.0789 35.6233 58.7335C36.2427 57.3509 36.8619 55.9683 37.4301 54.56C37.6001 54.1348 37.7653 53.7072 37.9303 53.2794C38.0952 52.8521 38.2601 52.4248 38.4301 52L38.5133 51.7878C38.8159 51.0157 39.1237 50.231 39.49 49.48C39.6119 49.2362 39.7313 48.9899 39.8508 48.7432C40.1431 48.1401 40.4364 47.5349 40.77 46.96C40.8953 46.7395 41.019 46.5167 41.1432 46.2933C41.4749 45.6964 41.809 45.095 42.1801 44.52C42.8301 43.52 43.4501 42.4901 44.13 41.5C44.85 40.45 45.5801 39.41 46.3 38.36C47.4401 36.71 48.59 35.05 49.75 33.41C50.6373 32.1091 51.5304 30.8083 52.4204 29.5117L53.21 28.36C54.9727 25.7434 56.6863 23.0899 58.3989 20.4381C58.8723 19.705 59.3457 18.9721 59.8199 18.24C61.85 15.11 63.86 11.97 65.87 8.82001C65.9728 8.65912 66.076 8.49824 66.1794 8.33735C66.5389 7.77827 66.9006 7.21912 67.25 6.65998C64.5415 8.08155 61.8606 9.58607 59.1896 11.0851L58.86 11.27C55.46 13.17 52.0701 15.09 48.74 17.11C48.3052 17.3731 47.8695 17.6347 47.434 17.8962C46.2971 18.579 45.1608 19.2614 44.04 19.97C41.9301 21.31 39.8199 22.64 37.71 23.98C35.2885 25.5133 32.8951 27.0888 30.5004 28.6651C30.037 28.9702 29.5736 29.2752 29.11 29.58C25.77 31.78 22.4399 33.97 19.08 36.13C18.5798 36.4544 18.0815 36.7805 17.5834 37.1066C16.4381 37.8562 15.2938 38.6053 14.13 39.33C12.23 40.51 10.3201 41.68 8.42004 42.86C7.49109 43.4378 6.5498 43.9911 5.60596 44.5391C5.87073 44.6027 6.13538 44.6694 6.40002 44.74C7.59998 45.06 8.76001 45.55 9.88 46.06C12.1901 47.12 14.33 48.51 16.38 50.01C20.5 53.02 24.2 56.75 26.88 61.11C28.2 63.26 29.16 65.63 29.8101 68.06C30.2078 69.5305 30.4514 71.0096 30.6519 72.5051ZM9.30762 49.717C9.32996 49.7288 9.35107 49.7405 9.37 49.75C9.34912 49.7375 9.32849 49.7268 9.30762 49.717Z"
    fill="rgba(191, 192, 191, 1)" />
  <path
    d="M47.0409 43.5764C47.0535 43.5584 47.0659 43.5398 47.0778 43.5206L47.09 43.5C47.0736 43.5255 47.0573 43.5509 47.0409 43.5764Z"
    fill="rgba(191, 192, 191, 1)" />
</svg>