<?xml version="1.0" encoding="UTF-8" standalone="yes"?>
<svg width="87" height="67" viewBox="-40 -40 167 147" fill="none" xmlns="http://www.w3.org/2000/svg">
  <path fill-rule="evenodd" clip-rule="evenodd"
    d="M60.4583 17.1116C60.3118 17.6288 60.16 18.1646 60.16 18.71C60.16 19.67 60.97 20.48 61.94 20.5C62.9 20.5 63.69 19.7 63.71 18.75L63.7125 18.7247C63.7141 18.7095 63.7159 18.6944 63.7178 18.6792L63.7194 18.6674C63.7209 18.6566 63.7225 18.6458 63.7241 18.635C63.7262 18.6269 63.7282 18.6188 63.7301 18.6105C63.8685 18.0747 64.044 17.5482 64.2195 17.0217L64.22 17.02L64.2205 17.0186C64.6203 15.8791 65.0202 14.7395 65.39 13.58L65.4352 13.4453L65.504 13.2424C65.6505 12.8112 65.7991 12.3737 65.91 11.93C66.08 11.21 66.25 10.5 66.42 9.79C66.6654 8.75926 66.8337 7.69965 67.0006 6.64894L67.01 6.59C67.2291 5.25548 67.4383 3.9309 67.6474 2.60634L67.65 2.59C67.79 1.64 67.08 0.720003 66.13 0.600008C65.16 0.470003 64.29 1.16001 64.14 2.11C63.79 4.29001 63.43 6.46001 63.05 8.63001C62.95 9.06001 62.85 9.48 62.75 9.9C62.7389 9.94937 62.728 9.9989 62.717 10.0485L62.6939 10.1541L62.6927 10.1596C62.6237 10.4758 62.5542 10.794 62.46 11.1C62.3122 11.5775 62.1612 12.0519 62.0106 12.5248L61.8335 13.0817C61.7787 13.2545 61.7241 13.4273 61.67 13.6C61.44 14.24 61.21 14.89 60.99 15.53C60.9564 15.6253 60.9224 15.7206 60.8884 15.816C60.7404 16.231 60.592 16.6472 60.47 17.07L60.4583 17.1116ZM63.7245 18.6322C63.7356 18.5615 63.7507 18.4908 63.77 18.42C63.761 18.4561 63.754 18.4922 63.7473 18.5273L63.747 18.5285L63.7468 18.5296L63.7386 18.5713C63.7359 18.5846 63.7331 18.5977 63.7301 18.6105L63.7245 18.6322ZM63.7245 18.6322L63.72 18.65L63.7241 18.635L63.7245 18.6322ZM45.91 39.57C45.05 39.41 44.38 38.72 44.38 37.82C44.38 37.25 44.67 36.73 45.11 36.4C45.79 35.69 46.44 34.97 47.09 34.23L47.5354 33.6966L47.5362 33.6955C48.4409 32.6128 49.35 31.5248 50.2 30.4C51.31 28.92 52.41 27.44 53.5 25.94C54.07 25.16 55.23 25.05 55.98 25.62C56.76 26.22 56.87 27.32 56.3 28.1C54.86 30.08 53.41 32.05 51.89 33.98C51.17 34.89 50.44 35.8 49.67 36.66C49.6023 36.7372 49.5343 36.8143 49.4662 36.8915L49.2862 37.095L49.0205 37.3945C48.8028 37.6397 48.5852 37.8848 48.37 38.13L48.2795 38.2322C47.735 38.848 47.0611 39.61 46.19 39.61L46.1889 39.6099C46.1425 39.6047 46.096 39.5996 46.0482 39.593C46.0037 39.5869 45.958 39.5796 45.91 39.57ZM24.32 53.96C23.54 54.4 23.16 55.35 23.53 56.2C23.8 56.86 24.48 57.29 25.17 57.28C25.39 57.28 25.63 57.24 25.84 57.14C26.1202 57.0121 26.3931 56.8618 26.6653 56.7119L26.6699 56.7095C26.843 56.6142 27.0157 56.519 27.19 56.43C27.3186 56.3657 27.4467 56.3008 27.5743 56.2356C27.6634 56.1901 27.7523 56.1445 27.841 56.0988C27.9464 56.0445 28.0516 55.9901 28.1567 55.9358L28.4402 55.7893L28.5946 55.7099C28.6597 55.6765 28.7249 55.6432 28.79 55.61C29.1681 55.4119 29.5523 55.22 29.937 55.0277C30.4071 54.7928 30.8781 54.5574 31.34 54.31C33.4 53.22 35.45 52.11 37.48 50.97C38.32 50.5 38.6 49.37 38.12 48.55C37.63 47.7 36.54 47.44 35.7 47.91C33.7 49.03 31.69 50.13 29.67 51.2C28.8053 51.6549 27.9305 52.0997 27.0558 52.5446C26.1805 52.9897 25.3053 53.4349 24.44 53.89L24.43 53.8951L24.4194 53.9007C24.4074 53.9072 24.3961 53.9137 24.3848 53.9201C24.3674 53.9301 24.3499 53.94 24.33 53.95C24.3282 53.9518 24.3264 53.9533 24.3247 53.9544C24.3227 53.9559 24.3207 53.9569 24.3189 53.9577C24.3137 53.96 24.31 53.96 24.31 53.96H24.32ZM3.36001 65.8C2.36001 65.68 1.07 65.39 0.520003 64.45C0.29 64.06 0.16001 63.57 0.23001 63.13C0.270011 62.82 0.400008 62.55 0.570006 62.29V62.28C0.570006 62.28 0.570006 62.27 0.580008 62.26C0.580008 62.25 0.590003 62.24 0.600005 62.23C0.600005 62.23 0.601188 62.2288 0.602744 62.2269C0.603911 62.2254 0.605285 62.2235 0.606521 62.2213C0.608428 62.2179 0.610007 62.214 0.610007 62.21L0.622924 62.1923C0.629233 62.1769 0.638167 62.164 0.648223 62.1504C0.655143 62.1409 0.662581 62.1312 0.67002 62.12C0.667777 62.1267 0.665015 62.133 0.661864 62.139L0.657378 62.1469C1.20699 61.4435 2.17399 61.1737 2.99 61.64C3.24 61.79 3.45 62 3.6 62.25C4.15 62.34 4.71001 62.39 5.26001 62.43H5.39001C6.73 62.5 8.07001 62.48 9.42 62.4C11.74 62.23 14.06 61.86 16.34 61.44C17.29 61.26 18.21 62.03 18.34 62.95C18.47 63.94 17.77 64.77 16.82 64.95C14.77 65.32 12.71 65.6 10.64 65.84C9.57001 65.97 8.48 66.03 7.39001 66.03C6.04001 66.05 4.69001 65.96 3.36001 65.8ZM48.74 12.23C48.15 11.46 48.3 10.34 49.06 9.75C50.0061 9.00138 50.9386 8.23245 51.8687 7.4655L51.8706 7.46399C52.0704 7.29917 52.2702 7.13443 52.47 6.97C53.11 6.41001 53.75 5.85001 54.37 5.28C54.75 4.94 55.13 4.59001 55.51 4.24001C55.89 3.88001 56.29 3.54001 56.7 3.22C56.92 3.05001 57.13 2.92 57.37 2.78C57.62 2.64 57.88 2.58 58.16 2.53C58.75 2.42 59.45 2.72 59.8 3.2C60.05 3.54 60.18 3.90001 60.18 4.32001C60.18 5.14002 59.6 5.84 58.83 6.03C58.64 6.18001 58.45 6.33 58.27 6.49001C57.8093 6.90222 57.3502 7.31606 56.8908 7.73021L56.8883 7.73255C56.2117 8.34242 55.5344 8.95297 54.85 9.56C53.7445 10.5343 52.5863 11.4473 51.4331 12.3563L51.2 12.54C50.89 12.79 50.51 12.9 50.13 12.9C49.62 12.91 49.09 12.67 48.74 12.23ZM31.2 25.5C30.44 26.09 30.29 27.21 30.88 27.98C31.23 28.42 31.76 28.66 32.3 28.65C32.68 28.65 33.06 28.54 33.37 28.29C35.3102 26.7699 37.1163 25.0806 38.9174 23.3959C39.474 22.8752 40.0305 22.3547 40.59 21.84L40.7621 21.6933C41.515 21.0513 42.2716 20.4061 43.08 19.83C43.12 19.8 43.15 19.78 43.19 19.76C43.34 19.7 43.49 19.62 43.62 19.52C44.41 18.91 44.48 17.84 43.94 17.04C43.43 16.3 42.45 16.23 41.69 16.55C41.212 16.7582 40.7638 17.1149 40.3361 17.4552C40.209 17.5564 40.0837 17.6561 39.96 17.75C39.25 18.29 38.57 18.89 37.91 19.5C37.2354 20.1157 36.567 20.7356 35.8991 21.3548L35.8972 21.3567C35.0905 22.1046 34.2847 22.8518 33.47 23.59L33.2359 23.7931L33.235 23.7938C32.5648 24.3755 31.8984 24.9538 31.2 25.5ZM74.91 18.91C74.16 17.11 73.41 15.3 72.69 13.48C72.5199 13.0447 72.3473 12.6118 72.1746 12.179C72.0023 11.7468 71.8299 11.3147 71.66 10.88C71.5037 10.4872 71.3528 10.0908 71.202 9.6946C70.9957 9.1528 70.7895 8.61141 70.57 8.08C70.26 7.77001 70.06 7.34 70.05 6.87C70.0448 6.84902 70.0423 6.82529 70.0397 6.80025C70.0383 6.78685 70.0368 6.77309 70.0349 6.75917C70.0335 6.7495 70.032 6.73975 70.03 6.73C69.95 5.93999 70.35 5.18 71.1 4.86C71.9 4.52001 72.89 4.84 73.31 5.60001C73.6187 6.13623 73.8351 6.71205 74.0501 7.28456C74.0998 7.41664 74.1494 7.54878 74.2 7.68C74.43 8.26999 74.66 8.85001 74.9 9.44C75.23 10.28 75.56 11.12 75.9 11.95C76.64 13.82 77.4 15.68 78.18 17.53C78.55 18.42 78.13 19.47 77.24 19.85C77.02 19.94 76.79 19.99 76.57 19.99C75.86 19.99 75.19 19.59 74.91 18.91ZM82.81 39.86C83.07 40.25 83.41 40.55 83.87 40.67C84.02 40.72 84.18 40.74 84.33 40.74C84.64 40.74 84.95 40.66 85.22 40.5C86.02 40.04 86.4 38.88 85.86 38.08C85 36.8 84.26 35.46 83.53 34.1C82.95 32.93 82.39 31.76 81.84 30.58C81.758 30.4056 81.6751 30.2308 81.592 30.0557C81.203 29.2355 80.8102 28.4076 80.49 27.5663C80.4899 27.5575 80.4888 27.5488 80.48 27.54C80.4833 27.5488 80.4867 27.5575 80.49 27.5663C80.49 27.5676 80.49 27.5688 80.49 27.57C80.19 26.84 79.43 26.36 78.61 26.47C77.66 26.6 76.95 27.51 77.09 28.46C77.1498 28.8336 77.3268 29.2072 77.4959 29.5641C77.5531 29.6848 77.6095 29.8037 77.66 29.92C77.87 30.41 78.09 30.89 78.31 31.37C78.71 32.26 79.13 33.14 79.56 34.02C80.55 36.02 81.57 38 82.81 39.86Z"
    fill="rgba(191, 192, 191, 1)" />
</svg>