<?xml version="1.0" encoding="UTF-8" standalone="yes"?>
<svg width="73" height="64" viewBox="-40 -40 153 144" fill="none" xmlns="http://www.w3.org/2000/svg">
  <path
    d="M34.5663 13.0679C34.5914 13.0882 34.6161 13.1087 34.64 13.13L34.6376 13.128L34.6321 13.1234C34.61 13.1049 34.5878 13.0864 34.5663 13.0679Z"
    fill="rgba(191, 192, 191, 1)" />
  <path fill-rule="evenodd" clip-rule="evenodd"
    d="M6.75 62.12C6.62402 61.1511 7.27722 60.37 8.18201 60.1404L8.14874 60.1469C8.1131 60.1537 8.07654 60.1608 8.03998 60.17H8.04999C8.01489 60.18 7.9798 60.1926 7.9447 60.2051L7.90625 60.2187C7.88605 60.2256 7.86591 60.2323 7.8457 60.2383C7.8479 60.237 7.84998 60.2345 7.84998 60.23L7.84003 60.24C7.80554 60.2629 7.77106 60.2826 7.73468 60.3009C7.70776 60.3145 7.67981 60.3273 7.65002 60.34C7.90002 60.2 8.13 60.05 8.37 59.89C8.87 59.53 9.36005 59.1499 9.84003 58.75C10.5 58.1399 11.13 57.5 11.75 56.84C11.9895 56.566 12.2278 56.2915 12.4655 56.017C12.699 55.747 12.932 55.4769 13.1649 55.2069L13.1689 55.2021C13.865 54.3952 14.5604 53.589 15.27 52.79L15.2843 52.7742C15.7195 52.2894 16.1547 51.8047 16.58 51.32C16.6385 51.255 16.697 51.1879 16.7558 51.1204C16.8781 50.9801 17.0018 50.8382 17.13 50.71C17.436 50.409 17.7444 50.1081 18.0529 49.8072C18.3594 49.5081 18.666 49.209 18.97 48.91C20.59 47.3199 22.22 45.72 23.84 44.12C24.5338 43.44 25.2469 42.7842 25.9592 42.129C26.2735 41.8399 26.5877 41.5509 26.9 41.26C27.4354 40.7594 27.9711 40.2593 28.507 39.7596L29.1115 39.196L28.8737 39.0339L28.88 39.04C27.97 38.4299 27.06 37.8299 26.13 37.26C25.83 37.0799 25.53 36.8999 25.22 36.72C24.17 37.6899 23.12 38.6499 22.06 39.61C21.9852 39.6797 21.9105 39.7471 21.8357 39.8144C21.7604 39.8821 21.6852 39.9498 21.61 40.02C21.6083 40.02 21.6069 40.0202 21.6058 40.0207C21.6047 40.0211 21.6038 40.0217 21.603 40.0223C21.6019 40.0231 21.601 40.024 21.6 40.025C21.5975 40.0275 21.595 40.03 21.59 40.03H21.6C21.5938 40.0362 21.5872 40.0427 21.5787 40.0489C21.5735 40.0525 21.5674 40.0563 21.56 40.06L21.54 40.08C21.54 40.08 21.54 40.0838 21.5377 40.0868C21.5362 40.0885 21.5338 40.09 21.53 40.09C21.1149 40.4563 20.6974 40.8226 20.2798 41.1888L20.2202 41.2412C19.8026 41.6075 19.3851 41.9737 18.97 42.34C18.9794 42.3337 18.9878 42.3274 18.9958 42.3212C19.0134 42.3075 19.0294 42.2937 19.05 42.28C16.4812 44.5374 13.7799 46.6339 11.0841 48.7261L10.86 48.9C10.1881 49.4236 9.51831 49.9451 8.84875 50.4664L8.53125 50.7136C7.86169 51.2349 7.19189 51.7564 6.52002 52.28C6.28949 52.4574 6.05975 52.6348 5.83044 52.8118L5.80865 52.8287C5.26947 53.245 4.73218 53.6599 4.19 54.07C4.1347 54.1121 4.07867 54.1552 4.02216 54.1988L4.013 54.2058C3.38681 54.6882 2.68341 55.23 1.88 55.23C0.920013 55.23 0.109985 54.43 0.109985 53.46C0.109985 52.71 0.589996 52.06 1.26001 51.81C1.26651 51.8067 1.27301 51.8035 1.27914 51.7999C1.29193 51.7925 1.30322 51.7835 1.31 51.77C2.40982 50.9784 3.47495 50.1522 4.54004 49.3259L4.59149 49.286C4.7876 49.1339 4.98364 48.9819 5.17999 48.83C6.51001 47.8 7.82996 46.7699 9.15997 45.73L9.16528 45.7258L9.16711 45.7243C11.7147 43.7461 14.2623 41.768 16.69 39.64C16.6937 39.6363 16.6973 39.634 16.7005 39.6321C16.706 39.6286 16.71 39.6263 16.71 39.62C16.7776 39.5533 16.8538 39.4866 16.93 39.42L16.91 39.44L19.22 37.4L19.23 37.39C19.2359 37.39 19.2418 37.3865 19.2457 37.3816C19.2484 37.3782 19.25 37.3741 19.25 37.37L19.2526 37.3674C19.2579 37.3621 19.2632 37.3568 19.2687 37.3515C19.2832 37.3377 19.2992 37.3238 19.32 37.31L19.4487 37.1946C20.2748 36.454 21.0924 35.7209 21.91 34.97C21.6584 34.8462 21.4069 34.7208 21.1561 34.5944C20.7986 34.4143 20.4426 34.2322 20.09 34.05C17.79 32.8699 15.73 31.3199 14.17 29.24C12.69 27.2699 11.84 24.92 11.73 22.46C11.62 20.04 12 17.5 13.38 15.46C14.03 14.51 14.84 13.72 15.74 13C16.71 12.22 17.82 11.55 18.94 11.03C19.42 10.81 19.91 10.5799 20.39 10.36C21.38 9.89995 22.42 9.54991 23.46 9.22996C24.68 8.84996 25.95 8.61998 27.22 8.49998C28.54 8.36998 29.85 8.40996 31.17 8.50999C33.44 8.67998 35.97 9.17998 37.52 10.99C39.11 12.85 39.22 15.44 38.98 17.76C38.73 20.29 37.71 22.6499 36.39 24.79C34.86 27.2699 32.8 29.34 30.75 31.38C29.81 32.32 28.87 33.2599 27.92 34.18C29.2365 34.981 30.5092 35.8449 31.7776 36.7119C33.3842 35.2145 34.9896 33.716 36.59 32.21C37.4709 31.3825 38.3696 30.5728 39.2683 29.763C39.7162 29.3594 40.1642 28.9558 40.61 28.55C42.32 27 44.03 25.44 45.74 23.88C45.7842 23.8394 45.8298 23.7989 45.8757 23.7583L45.9257 23.7144C45.9879 23.6596 46.0502 23.6048 46.11 23.55C46.0993 23.5589 46.0889 23.5678 46.0787 23.5767C48.193 21.6977 50.3164 19.819 52.44 17.94C52.4249 17.95 52.4099 17.9626 52.3948 17.9751C52.3798 17.9876 52.3649 18 52.35 18.01L52.59 17.8C52.6252 17.7707 52.6595 17.7405 52.6934 17.71C52.7173 17.6885 52.741 17.6669 52.7646 17.6453L52.7713 17.6389L52.7753 17.6356L52.7828 17.6288C52.8342 17.5819 52.8858 17.5352 52.9394 17.4905L56.95 13.95C57.06 13.85 57.17 13.75 57.29 13.65C58.17 12.88 59.05 12.1 59.93 11.31C59.8959 11.271 59.8596 11.2298 59.8231 11.1873C59.8085 11.1704 59.7939 11.1532 59.7795 11.136C59.7558 11.1075 59.7324 11.0787 59.71 11.05C59.5272 10.8258 59.3417 10.6034 59.1562 10.3809L59.1549 10.3794C58.7119 9.84813 58.2686 9.31651 57.86 8.75999C57.6334 8.45103 57.4069 8.14677 57.1804 7.8408C57.0769 7.7011 56.9734 7.56102 56.87 7.41997C56.56 6.99992 56.27 6.55998 55.99 6.12999C55.69 5.65996 55.38 5.09996 55.3 4.53996C55.18 3.69994 55.62 2.85997 56.41 2.53001C56.7169 2.4008 57.0498 2.33672 57.3719 2.27476C57.4487 2.25999 57.5249 2.24535 57.6 2.22996C58.92 1.93993 60.24 1.67998 61.57 1.42998C61.6 1.38994 61.63 1.34996 61.67 1.30998C62.22 0.629989 63.2 0.409957 63.97 0.85997C64.0181 0.89006 64.0626 0.92015 64.1057 0.952377C64.1342 0.973739 64.1621 0.996078 64.19 1.02C65.78 0.830001 67.4 0.759994 68.99 0.780013C69.87 0.790023 70.83 0.859969 71.62 1.25999C72.03 1.46995 72.41 1.75993 72.64 2.16997C72.9 2.61992 72.96 3.22996 72.82 3.72996C72.7 4.15996 72.47 4.52995 72.2 4.86998C72.25 5.06993 72.28 5.27995 72.29 5.48997C72.33 6.01994 72.36 6.54997 72.38 7.08C72.42 8.15001 72.44 9.21995 72.46 10.29C72.4675 10.787 72.4731 11.284 72.4788 11.781C72.4956 13.274 72.5125 14.767 72.58 16.26C72.63 16.7099 72.69 17.16 72.77 17.61C72.7806 17.6717 72.7922 17.7334 72.8038 17.7952L72.8046 17.7996C72.8472 18.0268 72.89 18.2553 72.89 18.49C72.89 19.0199 72.75 19.47 72.42 19.88C72.05 20.36 71.38 20.67 70.78 20.55C70.36 20.47 69.97 20.36 69.64 20.08C69.5615 20.0113 69.483 19.9451 69.4046 19.8788L69.3998 19.8748C69.3199 19.8074 69.2399 19.7399 69.16 19.67C68.9515 19.4944 68.7432 19.319 68.5364 19.1434C68.3662 18.9989 68.1971 18.8545 68.03 18.71C67.5226 18.278 67.0104 17.8506 66.4999 17.4248L66.4979 17.4231C66.2647 17.2286 66.0319 17.0343 65.8 16.84C65.6352 16.7023 65.4692 16.5652 65.3031 16.4279C64.7936 16.0071 64.2826 15.5849 63.8 15.14C63.6121 14.9682 63.4211 14.7995 63.23 14.6308C62.9431 14.3775 62.6562 14.1241 62.38 13.86C61.4957 14.6502 60.6114 15.4316 59.7271 16.2124L59.6461 16.2839L59.6452 16.2848C59.6276 16.3008 59.6096 16.3172 59.5912 16.3332L59.6345 16.2942C59.496 16.4161 59.3563 16.538 59.21 16.66L57.7306 17.9643C56.8444 18.7455 55.9591 19.5259 55.07 20.31C55.0775 20.3025 55.085 20.2954 55.0924 20.2885C55.0142 20.3591 54.9346 20.4294 54.85 20.5C54.8411 20.5088 54.8337 20.5162 54.827 20.522C54.8188 20.529 54.8109 20.5345 54.8 20.54L54.8184 20.5215C52.6747 22.4302 50.5309 24.3389 48.3685 26.2383C43.7825 30.3601 39.2545 34.5456 34.7402 38.7507C37.256 40.4957 39.7526 42.2637 42.18 44.12C43.8 45.35 45.27 46.7599 46.63 48.29C46.65 48.3099 46.66 48.32 46.67 48.34C46.7216 48.3974 46.7741 48.454 46.8267 48.5107C46.9575 48.6515 47.0888 48.7931 47.21 48.95C47.25 48.99 47.28 49.03 47.31 49.07L47.32 49.08C47.3255 49.0882 47.3317 49.0965 47.3383 49.1047C47.3437 49.1114 47.3493 49.1181 47.3549 49.1249C47.3674 49.1399 47.38 49.155 47.39 49.17C47.3919 49.1719 47.3938 49.1741 47.3958 49.1766C47.4042 49.1871 47.4138 49.2019 47.43 49.21C47.43 49.21 47.42 49.1999 47.42 49.19C47.4537 49.2289 47.4874 49.2671 47.5211 49.3049L47.6025 49.3961L47.66 49.46C47.8122 49.6291 47.9676 49.7983 48.1244 49.9656C48.2457 50.0951 48.3679 50.2234 48.49 50.35C49.3262 49.7625 50.1959 49.2276 51.0659 48.6924C51.4548 48.4532 51.8438 48.214 52.23 47.97C52.3 47.9199 52.36 47.87 52.42 47.83C52.4459 47.8041 52.4699 47.7782 52.4937 47.7524C52.525 47.7182 52.5559 47.6841 52.59 47.65C52.8209 47.3549 53.0354 47.0475 53.2493 46.7409C53.3688 46.5696 53.4881 46.3985 53.61 46.23C53.93 45.7999 54.27 45.38 54.77 45.15C55.62 44.76 56.77 45.21 57.09 46.09C57.3187 46.6998 57.3466 47.3669 57.374 48.0246C57.379 48.1435 57.3839 48.2621 57.39 48.38C57.41 48.6199 57.4325 48.8598 57.455 49.0998C57.4775 49.3398 57.5 49.5799 57.52 49.82C57.5567 50.172 57.6202 50.5241 57.6831 50.8722L57.7123 51.0343C57.7252 51.1064 57.7378 51.1783 57.75 51.25C58.0494 52.4877 58.3988 53.7154 58.7482 54.9432L58.7485 54.9445L58.75 54.95C58.92 55.54 59.05 56.1399 59.18 56.74C59.25 57.0599 59.32 57.38 59.39 57.69C59.46 58.0099 59.5699 58.36 59.6 58.69C59.64 59.17 59.5099 59.6699 59.22 60.04C59.0699 60.54 58.7 60.9399 58.21 61.16C57.8317 61.3359 57.4224 61.3415 57.0162 61.3472C56.9607 61.3479 56.9053 61.3487 56.85 61.35H56.53C56.3701 61.3599 56.22 61.36 56.07 61.36C55.39 61.34 54.7 61.29 54.02 61.24C53.47 61.1999 52.93 61.1 52.39 61C51.3 60.8 50.21 60.61 49.11 60.51C48.57 60.47 48.04 60.48 47.5 60.51C46.5587 60.5806 45.6237 60.7434 44.6851 60.9069L44.6776 60.9082C44.422 60.9527 44.1662 60.9972 43.91 61.04C43.6375 61.0865 43.3651 61.1241 43.0926 61.1618C42.9874 61.1763 42.8821 61.1909 42.7769 61.206L42.68 61.22C42.6123 61.2281 42.5437 61.2371 42.4745 61.2465L42.3756 61.26C41.9628 61.3168 41.5301 61.376 41.13 61.32C40.24 61.1999 39.57 60.5 39.45 59.62C39.33 58.6899 39.9 57.8299 40.45 57.14C41.2628 56.1282 42.2887 55.2883 43.2997 54.4607C43.5078 54.2905 43.7152 54.1207 43.92 53.95C44.0623 53.8326 44.2047 53.7147 44.3472 53.5966L44.366 53.5809C44.7879 53.231 45.2112 52.88 45.64 52.54C45.43 52.3099 45.22 52.0799 45.02 51.85L45.0222 51.8515C44.8444 51.6641 44.6577 51.4669 44.5 51.26C44.4937 51.2536 44.4873 51.2463 44.4807 51.2386C44.4663 51.222 44.4504 51.2036 44.43 51.19C44.412 51.172 44.3976 51.1539 44.3824 51.1359L44.39 51.14C44.375 51.12 44.36 51.1025 44.345 51.0851C44.33 51.0676 44.315 51.05 44.3 51.03H44.31L43.9767 50.6455C43.2133 49.7948 42.3959 48.9978 41.56 48.21C40.62 47.43 39.68 46.66 38.69 45.94C37.61 45.1499 36.52 44.37 35.43 43.59C34.3163 42.8003 33.1976 42.0158 32.0751 41.2364C31.5634 41.7141 31.0516 42.192 30.54 42.67C29.8879 43.2769 29.2383 43.8839 28.5887 44.4909C27.9433 45.0939 27.2979 45.6969 26.65 46.3C25.9659 46.9423 25.2957 47.6056 24.6278 48.2665L24.23 48.66C23.4873 49.3927 22.7421 50.1254 21.9969 50.8581C21.5203 51.3268 21.0437 51.7954 20.5678 52.264C20.295 52.5326 20.0223 52.8013 19.75 53.07C19.4351 53.3769 19.1396 53.7164 18.848 54.0517L18.8462 54.0537C18.7773 54.1329 18.7087 54.2118 18.64 54.29C18.07 54.9299 17.5 55.58 16.93 56.21C16.7937 56.3687 16.6578 56.5278 16.522 56.6872C16.4091 56.8197 16.2963 56.9525 16.1834 57.0853L16.1823 57.0867C15.2167 58.2226 14.2495 59.3605 13.2 60.41C12.52 61.09 11.81 61.7099 11.05 62.29C10.7318 62.5375 10.39 62.7616 10.0525 62.983L9.91998 63.07C9.52997 63.32 9.17004 63.54 8.71002 63.63C8.61005 63.6499 8.51996 63.66 8.41998 63.66C7.62 63.66 6.87 62.94 6.75 62.12ZM49.8573 57.0161C49.7825 56.8782 49.7254 56.7312 49.69 56.58C49.6492 56.6242 49.6073 56.6683 49.565 56.7129C49.486 56.7961 49.4057 56.8807 49.3292 56.9692C49.5057 56.9822 49.6817 56.998 49.8573 57.0161ZM24.64 32.41C24.6952 32.3548 24.7504 32.3021 24.8055 32.2494C24.8604 32.1971 24.9152 32.1448 24.97 32.09C26.06 31.03 27.14 29.97 28.22 28.89L28.2227 28.8873C29.2218 27.8981 30.2209 26.909 31.15 25.86C31.81 25.09 32.44 24.3099 33.02 23.47C33.45 22.8099 33.84 22.14 34.2 21.45C34.45 20.92 34.68 20.39 34.89 19.84C35.05 19.35 35.18 18.86 35.3 18.36C35.39 17.85 35.46 17.3299 35.5 16.81C35.52 16.31 35.52 15.82 35.49 15.32C35.4777 15.214 35.4638 15.1079 35.449 15.0019C35.4274 14.8479 35.4037 14.6939 35.38 14.54C35.3909 14.578 35.3988 14.6191 35.407 14.6615C35.4138 14.697 35.4208 14.7335 35.43 14.77C35.3943 14.5824 35.3506 14.3869 35.299 14.2048C35.2474 14.0605 35.1865 13.9203 35.12 13.78C35.07 13.68 35.01 13.5799 34.95 13.48C34.91 13.42 34.86 13.36 34.81 13.3C34.7 13.1899 34.6 13.0799 34.47 12.98C34.4993 13.0093 34.5321 13.0386 34.5663 13.0679C34.5311 13.0396 34.4948 13.0118 34.458 12.9837L34.4028 12.9415C34.3852 12.9279 34.3676 12.9141 34.35 12.9C34.27 12.85 34.1801 12.8 34.09 12.76L33.9958 12.7194C33.8196 12.6434 33.6484 12.5694 33.47 12.51C33.2972 12.4568 33.1245 12.4125 32.9518 12.3682L32.9483 12.3673C32.8622 12.3452 32.7761 12.3231 32.69 12.3C32 12.1799 31.31 12.09 30.6 12.03C29.71 11.97 28.82 11.9599 27.93 12.01C27.24 12.06 26.56 12.16 25.88 12.29C25.06 12.47 24.2599 12.7 23.47 12.96H23.46C22.39 13.35 21.37 13.8199 20.35 14.29C19.75 14.6 19.16 14.9399 18.6 15.31C18.22 15.5799 17.85 15.86 17.49 16.15C17.23 16.38 16.99 16.62 16.76 16.87C16.58 17.0799 16.42 17.3 16.26 17.52L16.2582 17.5231C16.1588 17.6921 16.0594 17.861 15.97 18.04C15.87 18.2699 15.77 18.4899 15.68 18.72C15.59 19.0099 15.51 19.2999 15.44 19.6C15.37 19.9999 15.3101 20.3999 15.28 20.8C15.2401 21.35 15.24 21.8899 15.26 22.43C15.29 22.84 15.34 23.2499 15.41 23.66C15.49 24.03 15.59 24.3899 15.7 24.74C15.83 25.09 15.98 25.44 16.15 25.78C16.34 26.12 16.53 26.45 16.75 26.78C17.02 27.16 17.29 27.5199 17.59 27.88C17.89 28.2099 18.21 28.5199 18.54 28.82C18.91 29.1399 19.29 29.4399 19.69 29.72C20.74 30.4199 21.85 31 22.97 31.57L22.9935 31.5817C22.9894 31.5806 22.985 31.58 22.98 31.58C23.2072 31.6915 23.436 31.8047 23.6652 31.9189C23.9909 32.0813 24.3172 32.2456 24.64 32.41Z"
    fill="rgba(191, 192, 191, 1)" />
  <path
    d="M44.3824 51.1359C44.3673 51.1271 44.3586 51.1172 44.35 51.1C44.3572 51.1072 44.3638 51.1144 44.3701 51.1216L44.3824 51.1359Z"
    fill="rgba(191, 192, 191, 1)" />
</svg>