<?xml version="1.0" encoding="UTF-8" standalone="yes"?>
<svg width="94" height="92" viewBox="-40 -40 174 172" fill="none" xmlns="http://www.w3.org/2000/svg">
  <path
    d="M13.79 91.37C14.9599 91.65 16.1599 91.86 17.36 91.95C18.01 92 18.6599 92.03 19.3299 91.95C19.9599 91.95 20.5899 91.92 21.2099 91.86C22.0934 91.7814 22.9857 91.6452 23.86 91.47C23.88 91.47 23.9 91.47 23.91 91.46C24.1078 91.4221 24.3054 91.3834 24.503 91.3441C24.7368 91.2977 24.9706 91.2505 25.2046 91.2028C25.4364 91.1554 25.6682 91.1077 25.9 91.06C25.9476 91.0498 25.9962 91.0408 26.045 91.0318L26.049 91.0311L26.0506 91.0307C26.1443 91.0134 26.2392 90.9958 26.3299 90.97L26.6463 90.8943C27.4988 90.6908 28.3434 90.4891 29.18 90.24C29.3752 90.1825 29.5721 90.1236 29.7697 90.0644L29.8119 90.0518C29.9312 90.016 30.0509 89.9801 30.1707 89.9444C30.3568 89.8889 30.5433 89.8338 30.73 89.78C31.0942 89.6685 31.4474 89.5294 31.7977 89.3914L31.962 89.3268C32.028 89.3009 32.0941 89.2753 32.16 89.25C33.0564 88.9139 33.9265 88.5341 34.8032 88.1515L34.99 88.07C37.02 87.17 39.03 86.1 40.79 84.73C42.26 83.5799 43.5799 82.2999 44.88 80.97C45.62 80.21 46.3399 79.3899 46.98 78.55C48.5299 76.52 49.7499 74.2599 50.4399 71.79C50.7899 70.55 51.0499 69.29 51.13 68C51.1599 67.48 51.1999 66.9499 51.23 66.43C51.2899 65.46 51.2199 64.48 51.15 63.52C51.0799 62.66 50.98 61.8 50.8499 60.95C50.6999 59.97 50.5199 59 50.3299 58.02C50.1299 57.01 49.8399 56.02 49.55 55.03C49.03 53.26 48.4599 51.49 47.8499 49.75C47.7008 49.3231 47.5484 48.8967 47.3944 48.4706C47.2883 48.1771 47.1814 47.8837 47.0741 47.5904L46.8449 46.965C46.685 46.5288 46.5251 46.0926 46.3669 45.6562C46.1886 45.1646 46.0122 44.6727 45.8399 44.18C45.8698 44.25 45.89 44.33 45.92 44.4C45.41 42.82 44.9499 41.24 44.53 39.64C44.13 38.12 43.7899 36.59 43.4499 35.05C43.2999 34.24 43.14 33.44 43.01 32.63C42.9109 32.0185 42.8458 31.3933 42.781 30.7715C42.7674 30.6408 42.7539 30.5102 42.74 30.38C42.6599 28.93 42.5899 27.49 42.67 26.04C42.73 25.3799 42.8199 24.73 42.9399 24.07C43.1499 23.07 43.4399 22.09 43.78 21.11C44.14 20.11 44.55 19.14 45.02 18.19C45.4 17.47 45.8099 16.77 46.26 16.09C47.12 14.85 48.0699 13.64 49.0699 12.5C49.6899 11.81 50.3399 11.17 51.03 10.55C51.6325 10.0402 52.2607 9.55602 52.9149 9.10571C52.9032 9.11407 52.8916 9.12225 52.88 9.13C54.01 8.38 55.1699 7.70001 56.37 7.09002C56.3099 7.13 56.24 7.15997 56.17 7.20001C57.1999 6.67999 58.2499 6.21996 59.3399 5.82L59.7761 5.65753C60.0187 5.56725 60.2612 5.47747 60.5039 5.38879C60.7059 5.31493 60.9079 5.24188 61.11 5.16998C62.4199 4.73998 63.7398 4.38 65.0799 4.09002C66.3199 3.85003 67.5599 3.69994 68.8199 3.60998H68.86C68.8762 3.60998 68.8924 3.60705 68.9103 3.60436C68.9254 3.60204 68.9416 3.59997 68.9599 3.59997C68.9563 3.6018 68.9525 3.60327 68.9488 3.60455L68.9422 3.6065L68.9342 3.60815C70.3824 3.52984 71.8113 3.52068 73.26 3.60998C74.52 3.70995 75.76 3.88 77 4.11999C77.98 4.32995 78.9499 4.58996 79.91 4.90997C80.54 5.13995 81.15 5.39996 81.76 5.69C82.2999 5.96996 82.8199 6.27996 83.3199 6.60998C83.7899 6.94994 84.24 7.29998 84.68 7.67999C85.16 8.13 85.6199 8.60003 86.0699 9.09002C86.6199 9.73003 87.13 10.41 87.61 11.11C87.6162 11.11 87.6185 11.1138 87.6218 11.1191C87.6239 11.1223 87.6262 11.1262 87.63 11.13C87.64 11.15 87.65 11.17 87.67 11.19L87.66 11.18C88.12 11.88 88.53 12.6 88.91 13.35C89.0508 13.6472 89.1861 13.9445 89.3132 14.2445C89.4298 14.5199 89.5394 14.7977 89.64 15.08C89.8 15.58 89.94 16.08 90.06 16.6C90.18 17.22 90.2699 17.84 90.3199 18.48C90.3399 18.97 90.3399 19.46 90.3199 19.96C90.3031 20.1451 90.2827 20.3284 90.2588 20.5107C90.2381 20.6681 90.2148 20.8248 90.1889 20.9812C90.1736 21.0742 90.1572 21.1671 90.14 21.26C90.03 21.72 89.9 22.16 89.76 22.61C89.5 23.33 89.2099 24.03 88.87 24.72C88.48 25.49 88.0499 26.23 87.5799 26.95C87.1599 27.57 86.6999 28.15 86.2199 28.72C85.5599 29.46 84.8399 30.15 84.1 30.81C83.37 31.45 82.6199 32.05 81.8299 32.6C81.2499 32.97 80.65 33.33 80.04 33.65C79.6477 33.843 79.2511 34.0153 78.8504 34.1749C78.7622 34.21 78.6738 34.2445 78.5851 34.2785C78.52 34.3035 78.4548 34.3281 78.3895 34.3525C78.3198 34.3786 78.25 34.4044 78.18 34.43C77.53 34.6399 76.8899 34.81 76.23 34.95C75.1699 35.15 74.12 35.2499 73.05 35.35C72.31 35.3899 71.5799 35.3899 70.85 35.35C69.8172 35.2713 68.8137 35.0959 67.8012 34.9189L67.75 34.91C66.62 34.65 65.5 34.38 64.39 34.02C64.04 33.9 63.7099 33.77 63.38 33.61H63.37C63.7799 33.03 64.1899 32.47 64.62 31.91C65.02 31.4 65.4499 30.92 65.86 30.44C66.9399 29.25 68.03 28.0699 69.16 26.92C69.7099 26.35 70.2599 25.79 70.8199 25.24L71.79 24.27C72.15 23.9 72.4599 23.55 72.62 23.06C72.85 22.39 72.5399 21.61 72 21.19C71.4399 20.76 70.62 20.68 70.02 21.06C69.63 21.31 69.2999 21.66 68.98 21.99C68.6799 22.3 68.3699 22.61 68.0699 22.93C67.8611 23.1467 67.6527 23.3633 67.4444 23.5798L67.4324 23.5923C66.3091 24.7603 65.1908 25.9228 64.03 27.05C63.38 27.69 62.6699 28.28 61.99 28.89L61.9242 28.9486C61.2157 29.5792 60.5028 30.2136 59.9499 30.98C59.3799 31.78 59.0999 32.73 59.25 33.71C59.2188 33.7687 59.1902 33.8297 59.1639 33.8918C59.1325 33.9661 59.1046 34.0419 59.0801 34.1172C59.0655 34.1618 59.0522 34.2062 59.04 34.25C58.91 34.72 58.8999 35.16 58.9399 35.64C58.9798 36.08 59.1999 36.58 59.4399 36.95C59.7099 37.38 60.01 37.78 60.37 38.15C62.79 40.6785 66.1317 41.8126 69.3786 42.9144C69.7273 43.0328 70.0748 43.1507 70.42 43.27C70.3694 43.2574 70.3227 43.2447 70.2777 43.2296L70.2765 43.2292C71.0595 43.5281 71.8419 43.837 72.5991 44.1965C72.6062 44.2014 72.6135 44.206 72.6209 44.2104C72.6284 44.2148 72.636 44.2189 72.6437 44.223C72.6589 44.2309 72.6744 44.2382 72.6893 44.2452C72.6999 44.2502 72.7102 44.2551 72.7199 44.26C72.7251 44.2651 72.7307 44.2695 72.7367 44.2734L72.7378 44.274L72.7701 44.2909C73.3153 44.5744 73.8324 44.8681 74.3399 45.2C75.36 45.9 76.3401 46.65 77.31 47.42C78.06 48.02 79.1999 47.85 79.79 47.1C80.38 46.3299 80.2199 45.22 79.4699 44.62C78.9537 44.2129 78.4277 43.8158 77.9017 43.4188L77.89 43.41C77.11 42.8299 76.3199 42.23 75.4699 41.75C74.12 40.97 72.6999 40.36 71.23 39.85C70.51 39.61 69.7999 39.36 69.0799 39.11C69.1599 39.13 69.23 39.16 69.3 39.18C68.69 38.96 68.0699 38.73 67.4599 38.49C68.1599 38.62 68.86 38.72 69.56 38.81C71.24 39.02 72.9099 38.9399 74.5899 38.79C76.7799 38.59 79 38.09 81 37.14C83.3099 36.04 85.36 34.52 87.2199 32.76C89.0799 31 90.6699 29.0099 91.8299 26.72C92.9699 24.49 93.8299 22.1 93.86 19.56C93.88 17.14 93.38 14.67 92.36 12.46C91.3099 10.17 89.91 8.01 88.16 6.19C86.43 4.36999 84.3399 2.89001 82 1.96002C79.5599 0.989984 76.9499 0.419976 74.3399 0.189996C69.3699 -0.250006 64.2899 0.259942 59.5799 1.98998C58.1599 2.50994 56.75 3.00994 55.38 3.66998C52.9599 4.82995 50.5999 6.21996 48.5799 8.01C47.1599 9.26 45.9399 10.67 44.78 12.15C43.5699 13.68 42.4699 15.29 41.62 17.05C40.51 19.36 39.62 21.86 39.26 24.4C39.12 25.39 39.05 26.38 39.06 27.38C39.06 27.4987 39.0594 27.6173 39.0588 27.736L39.0578 27.9167L39.0576 28.0365C39.0575 28.1025 39.0576 28.1685 39.0578 28.2344C39.0588 28.4196 39.062 28.6048 39.0699 28.79C39.1299 29.85 39.19 30.89 39.3 31.94C39.39 32.82 39.5299 33.7 39.6999 34.57C40.0899 36.56 40.55 38.54 41.04 40.51C41.48 42.28 41.99 44.05 42.5899 45.77C42.8952 46.6351 43.2113 47.4938 43.5272 48.3521C43.894 49.3489 44.2607 50.3451 44.61 51.35C44.5949 51.3149 44.5825 51.2775 44.57 51.24C44.5576 51.2025 44.545 51.165 44.53 51.13C45.37 53.65 46.1799 56.18 46.8199 58.75C47.0199 59.74 47.2199 60.74 47.3399 61.75C47.3633 61.9338 47.39 62.1177 47.4167 62.3015C47.4701 62.6677 47.5234 63.0339 47.55 63.4C47.5801 63.86 47.61 64.3299 47.65 64.79C47.65 64.8731 47.6507 64.9568 47.652 65.0408C47.6532 65.1329 47.6549 65.2254 47.6566 65.3181V65.3229C47.6633 65.6829 47.67 66.046 47.65 66.4L47.56 67.81C47.49 68.43 47.41 69.04 47.29 69.65C47.14 70.32 46.9599 70.98 46.75 71.63C46.48 72.37 46.1799 73.08 45.8399 73.78C45.5299 74.35 45.1999 74.9 44.8399 75.44C44.1499 76.44 43.3698 77.3299 42.5799 78.24C41.6899 79.16 40.7999 80.0699 39.8399 80.93C39.1198 81.55 38.3799 82.1399 37.5899 82.68C36.7599 83.22 35.91 83.71 35.03 84.16C35.0999 84.1299 35.1699 84.09 35.24 84.06C34.13 84.61 32.99 85.11 31.8499 85.61C31.7398 85.6594 31.6285 85.7071 31.5162 85.7533C31.2932 85.8451 31.0664 85.9314 30.8385 86.015C30.7728 86.0391 30.707 86.063 30.6412 86.0867L30.4144 86.1678C30.1782 86.2518 29.9425 86.3348 29.7099 86.42C28.9599 86.65 28.2099 86.92 27.4599 87.1C26.7289 87.2754 26.0073 87.451 25.286 87.6265L25.2831 87.6272L25.23 87.64H25.24C25.2298 87.6426 25.219 87.6451 25.2076 87.6476L25.1808 87.6535L25.1643 87.657L25.0999 87.67C24.7849 87.73 24.4699 87.795 24.155 87.86L23.8375 87.9253C23.6283 87.9681 23.419 88.0101 23.2099 88.05C22.2899 88.23 21.36 88.37 20.43 88.44C19.63 88.48 18.8499 88.48 18.05 88.44C17.13 88.36 16.2199 88.25 15.31 88.07C14.39 87.87 13.49 87.61 12.5999 87.31C11.5899 86.94 10.5899 86.5099 9.61997 86.04C9.62998 86.04 9.63999 86.05 9.65 86.05C8.9 85.67 8.1799 85.2599 7.47995 84.8C7.35398 84.7054 7.22995 84.6109 7.10715 84.5155C6.95701 84.3989 6.80857 84.2809 6.66001 84.16C6.44992 83.96 6.23996 83.7499 6.04001 83.54C5.83994 83.3 5.65989 83.05 5.47995 82.8C5.27988 82.49 5.09995 82.18 4.93003 81.86C4.81211 81.6189 4.70285 81.3751 4.59922 81.1283C4.50925 80.9144 4.42356 80.6982 4.33994 80.48C4.15989 79.9299 3.99997 79.37 3.87998 78.8C3.75998 78.1899 3.67991 77.57 3.61997 76.95C3.5499 75.64 3.62986 74.33 3.70993 73.02L3.85996 71.73C3.87876 71.5867 3.89341 71.4419 3.90805 71.2969C3.9321 71.0573 3.95627 70.8167 3.99997 70.58L4.21055 69.4265C4.28037 69.0452 4.35019 68.6638 4.42002 68.28C4.47397 68.0627 4.52732 67.8453 4.58066 67.6281L4.58872 67.5961C4.91819 66.2546 5.24692 64.9163 5.69992 63.6C6.00986 62.74 6.36997 61.89 6.75998 61.06C7.15 60.32 7.56992 59.6 8.03 58.9C8.50998 58.2 9.03989 57.52 9.59995 56.88C10.3299 56.07 11.11 55.31 11.92 54.58C13.31 53.43 14.7099 52.3 16.1999 51.27C17.0099 50.73 17.8499 50.23 18.7199 49.78C19.3299 49.49 19.93 49.23 20.56 49C20.7568 48.9358 20.9518 48.8772 21.1463 48.8224C21.4067 48.7491 21.6667 48.6829 21.93 48.62C22.25 48.56 22.5699 48.52 22.9 48.49C23.1999 48.48 23.49 48.48 23.79 48.49C24.0451 48.5101 24.3047 48.5392 24.5627 48.5774C23.5854 49.9635 22.5696 51.3191 21.5512 52.6778C21.127 53.2438 20.7024 53.8104 20.28 54.38C18.89 56.26 17.68 58.3299 17.4 60.69C17.3858 60.8138 17.3697 60.9411 17.3534 61.071C17.2082 62.2222 17.0374 63.5774 17.9 64.44C18.24 64.78 18.69 64.9499 19.18 64.97C19.63 64.97 20.0901 64.8 20.43 64.46C20.94 63.95 21.0699 63.1999 20.8199 62.56C20.8199 62.4499 20.8299 62.35 20.8299 62.24C20.88 61.6999 20.94 61.16 21.03 60.62C21.0901 60.35 21.17 60.0799 21.25 59.81C21.37 59.48 21.51 59.17 21.66 58.86C21.91 58.3899 22.1899 57.9299 22.48 57.48C23.2155 56.3926 24.0086 55.3309 24.7979 54.2743C24.9958 54.0093 25.1935 53.7446 25.39 53.48C26.01 52.66 26.62 51.8299 27.2199 51C27.8199 50.16 28.4 49.3099 28.92 48.42C29.32 47.72 29.6599 46.99 29.8199 46.19C29.98 45.35 30 44.37 29.53 43.61C29.0801 42.8799 28.49 42.2599 27.7199 41.86C26.62 41.28 25.49 40.82 24.3399 40.38C23.0399 39.87 21.7099 39.3799 20.38 38.92C20.3499 38.91 20.3301 38.9 20.31 38.89C20.3 38.88 20.29 38.88 20.28 38.88C20.1512 38.8357 20.0224 38.7915 19.8944 38.7472C19.7614 38.7013 19.6292 38.6554 19.4984 38.6094C19.5157 38.6159 19.5328 38.6226 19.55 38.63C19.4381 38.591 19.3269 38.552 19.2162 38.5131C18.9015 38.4026 18.5908 38.2935 18.28 38.19C18.2076 38.159 18.1324 38.1306 18.0575 38.1049C17.9875 38.0809 17.9176 38.0593 17.8499 38.04C17.8248 38.0299 17.8022 38.0224 17.7796 38.0148C17.7573 38.0074 17.7348 37.9999 17.7099 37.99H17.73C17.37 37.86 17.01 37.73 16.65 37.61C16.64 37.54 16.62 37.46 16.5999 37.39C16.3299 36.43 15.36 35.96 14.42 36.16C14.203 36.201 13.9825 36.2627 13.7667 36.3349C13.6146 36.3859 13.4647 36.4421 13.3199 36.5C13.12 36.5799 12.92 36.67 12.74 36.81C12.4 37.0799 12.2199 37.42 12.0899 37.81C11.88 38.42 12.13 39.08 12.54 39.53C13.0699 40.1128 13.8572 40.3837 14.5987 40.6388C14.6969 40.6726 14.7942 40.7061 14.89 40.74C15.3969 40.9178 15.8957 41.0957 16.394 41.2736C16.3824 41.2693 16.3711 41.2648 16.36 41.26C16.395 41.27 16.4276 41.2825 16.4602 41.295C16.4723 41.2997 16.4845 41.3044 16.4967 41.3089C16.4861 41.3053 16.4753 41.3018 16.4647 41.2982C16.4541 41.2947 16.4435 41.2911 16.433 41.2875C16.482 41.305 16.5309 41.3225 16.5799 41.34C16.5654 41.3338 16.5505 41.3279 16.5353 41.3224C16.5434 41.3251 16.5516 41.3276 16.56 41.33C16.6101 41.35 16.6499 41.36 16.6999 41.38C16.7247 41.3899 16.7519 41.3998 16.7793 41.4098C16.807 41.4199 16.8347 41.4299 16.86 41.44C16.79 41.42 16.7099 41.3899 16.64 41.37L18.53 42.03C18.45 42 18.38 41.98 18.31 41.95C18.55 42.03 18.78 42.11 19.01 42.19C19.92 42.51 20.8299 42.8199 21.74 43.17C22.9399 43.6299 24.1499 44.0599 25.3199 44.6C25.62 44.7399 25.9 44.8899 26.18 45.06C26.2 45.07 26.2199 45.09 26.24 45.11L26.31 45.18C26.3199 45.1996 26.3302 45.2203 26.3499 45.24V45.25L26.3496 45.2527C26.3459 45.2798 26.3424 45.3068 26.3386 45.3338C25.9878 45.2295 25.6261 45.1569 25.28 45.1C24.27 44.93 23.2199 44.87 22.1999 44.99C18.4399 45.4499 15.1999 47.55 12.24 49.77C9.98996 51.46 7.81992 53.35 6.07993 55.57C4.59995 57.46 3.40989 59.56 2.57993 61.81C2.03989 63.29 1.60996 64.79 1.24997 66.31C1.00998 67.3299 0.81992 68.34 0.629978 69.37C0.485569 70.1562 0.392674 70.9489 0.299534 71.7429C0.276585 71.9385 0.253636 72.1343 0.229954 72.33C0.179905 72.75 0.160008 73.1799 0.139988 73.6C0.109959 74.09 0.0700419 74.59 0.0600322 75.08C0.0199931 77.71 0.339939 80.3799 1.44992 82.79C1.96994 83.9399 2.60996 85.05 3.46994 85.99C4.25986 86.85 5.16001 87.5599 6.15 88.17C7.43259 88.957 8.77182 89.5553 10.1404 90.1665L10.26 90.22C10.3307 90.2507 10.402 90.2806 10.4736 90.31C10.5915 90.3582 10.7107 90.4047 10.8305 90.4498C11.1839 90.5828 11.544 90.7035 11.9 90.82C12.52 91.03 13.15 91.22 13.79 91.37Z"
    fill="rgba(191, 192, 191, 1)" />
  <path
    d="M87.635 11.23C87.6325 11.2275 87.63 11.225 87.63 11.22C87.64 11.22 87.64 11.23 87.64 11.24L87.6399 11.2377L87.639 11.2351C87.638 11.233 87.6365 11.2315 87.635 11.23Z"
    fill="rgba(191, 192, 191, 1)" />
</svg>