<?xml version="1.0" encoding="UTF-8" standalone="yes"?>
<svg width="74" height="80" viewBox="-40 -40 154 160" fill="none" xmlns="http://www.w3.org/2000/svg">
  <path
    d="M52.63 38.63C51.91 38.38 51.24 38.03 50.58 37.65C49.4 36.97 48.32 36.14 47.22 35.33C47.02 35.24 46.82 35.15 46.62 35.06C46.04 34.8 45.48 34.5 44.9 34.22C44.52 34.03 44.15 33.83 43.78 33.62C43.26 33.34 42.78 33.05 42.5 32.52C42.2 31.96 42.17 31.29 42.5 30.73C42.8 30.21 43.41 29.82 44.03 29.85C44.4 29.87 44.72 29.92 45.07 30.05C45.28 30.12 45.5 30.21 45.71 30.29C46.66 30.66 47.53 31.19 48.35 31.77C48.58 31.93 48.81 32.09 49.03 32.26C50.15 32.78 51.29 33.27 52.44 33.71C52.01 32.95 51.6 32.19 51.21 31.4C50.8 30.56 50.37 29.73 50 28.86C49.62 27.98 49.22 27.1 48.89 26.2C48.13 24.13 47.4 22.05 46.69 19.96C46.41 19.14 46.17 18.32 45.91 17.5C45.66 16.71 45.41 15.93 45.2 15.13C44.85 13.79 44.48 12.46 44.18 11.11C44 10.27 43.81 9.43998 43.63 8.59998C43.33 7.22998 43.08 5.85002 42.65 4.52002C42.38 4.84002 42.12 5.18003 41.86 5.53003C41.9 5.47003 41.95 5.41003 41.98 5.34003C40.89 6.97003 39.94 8.66 39 10.37C38.05 12.11 37.1 13.85 36.13 15.57C34.34 18.75 32.31 21.78 30.43 24.91C28.89 27.47 27.38 30.04 25.99 32.68C25.93 32.87 25.81 33.05 25.7 33.21C25.18 33.92 24.15 34.09 23.4 33.66C22.67 33.23 22.33 32.29 22.64 31.5C22.68 31.39 22.72 31.29 22.78 31.19C23.19 30.31 23.7 29.47 24.16 28.62C24.64 27.74 25.15 26.88 25.65 26.01C26.53 24.47 27.47 22.96 28.4 21.45C29.38 19.87 30.39 18.31 31.34 16.71C32.41 14.92 33.45 13.12 34.46 11.3C35.4 9.61999 36.28 7.92 37.23 6.25C37.69 5.44 38.18 4.66 38.69 3.88C39.16 3.18 39.67 2.51 40.23 1.88C40.91 1.11 41.79 0.400024 42.86 0.400024C45.24 0.400024 45.93 3.12997 46.42 4.96997C46.66 5.85997 46.81 6.75997 47.01 7.65997C47.15 8.27997 47.28 8.90002 47.42 9.52002C47.6 10.34 47.79 11.16 48 11.97C48.25 12.93 48.47 13.92 48.77 14.88C49.15 16.11 49.54 17.35 49.92 18.58C50.26 19.69 50.66 20.77 51.03 21.86C51.53 23.24 52.01 24.61 52.58 25.96C52.88 26.66 53.14 27.38 53.48 28.06C53.83 28.77 54.18 29.49 54.53 30.2C54.9 30.89 55.28 31.58 55.65 32.26C55.76 31.97 55.86 31.69 55.96 31.4C56.24 30.57 56.52 29.74 56.82 28.92C57.23 27.8 57.6 26.58 58.25 25.57C58.77 24.76 59.81 24.43 60.67 24.93C61.47 25.4 61.83 26.54 61.3 27.35C61.18 27.52 61.08 27.7 61 27.89C61.04 27.82 61.07 27.75 61.1 27.69C60.68 28.62 60.35 29.59 59.99 30.55C59.78 31.17 59.56 31.8 59.35 32.42C58.92 33.69 58.49 35.03 57.7 36.13C57.6 36.27 57.5 36.4 57.38 36.53C57.36 36.87 57.26 37.21 57.07 37.54C56.81 38 56.46 38.31 56.01 38.59C55.53 38.88 54.94 38.94 54.39 38.97C54.34 38.97 54.3 38.97 54.25 38.97C53.75 38.99 53.16 38.81 52.63 38.63Z"
    fill="rgba(191, 192, 191, 1)" />
  <path
    d="M50.55 78.87C50.21 78.67 49.85 78.49 49.5 78.31C49.16 78.15 48.82 78 48.46 77.87C46.79 77.31 45.08 76.93 43.47 76.2C42.2 75.63 41.02 74.92 39.97 74.01C39.04 73.21 38.16 72.26 37.86 71.03C37.33 68.8 39.79 67.38 41.44 66.53C41.83 66.33 42.22 66.13 42.62 65.93C43.57 65.19 44.54 64.46 45.55 63.79C46.67 63.05 47.89 62.5 49.1 61.94C49.47 61.77 49.85 61.61 50.22 61.44C50.78 61.19 51.34 60.88 51.93 60.71C52.69 60.49 53.54 60.85 53.93 61.52C54.36 62.26 54.2 63.31 53.48 63.82C51.21 65.44 48.76 66.78 46.27 68.05C47.8 67.97 49.3 68.17 50.8 68.44C51.67 68.6 52.54 68.76 53.41 68.92C54.28 69.08 55.16 69.18 56.04 69.3C56.89 69.42 57.74 69.51 58.59 69.61C59.41 69.71 60.22 69.9 61.04 70.06C63.15 70.47 65.19 71.16 67.29 71.62C67.74 71.7 68.19 71.76 68.65 71.8C68.97 71.82 69.28 71.82 69.6 71.81H69.61C68.98 70.26 68.34 68.72 67.68 67.18C66.85 65.27 65.96 63.39 65.03 61.52C63.59 58.81 62.11 56.11 60.83 53.32C60.15 51.84 59.48 50.37 58.82 48.89C58.52 48.2 58.21 47.51 57.92 46.82C57.68 46.27 57.43 45.71 57.21 45.14C57 44.85 56.87 44.49 56.87 44.1C56.87 44.06 56.87 44.01 56.87 43.97C56.87 42.56 58.59 41.65 59.72 42.57C60.08 42.86 60.27 43.22 60.42 43.63C61.97 47.35 63.66 51.01 65.42 54.63C66.3 56.34 67.21 58.04 68.11 59.75C69.05 61.51 69.86 63.35 70.68 65.16C71.43 66.83 72.11 68.53 72.8 70.23C72.96 70.64 73.14 71.04 73.31 71.44C73.47 71.82 73.62 72.21 73.62 72.63C73.62 73.15 73.37 73.7 73.01 74.08C72.29 74.84 71.27 75.13 70.27 75.28C69.7 75.37 69.1 75.35 68.53 75.32C67.85 75.28 67.19 75.19 66.53 75.05C64.74 74.67 62.96 74.15 61.19 73.67C60.71 73.58 60.23 73.49 59.75 73.39C59.3 73.3 58.85 73.19 58.39 73.13C57.32 73 56.26 72.88 55.19 72.73C54.01 72.57 52.85 72.39 51.68 72.17C50.4 71.93 49.13 71.68 47.83 71.56C47.29 71.53 46.75 71.54 46.2 71.56C45.1 71.65 44 71.74 42.9 71.79C43.01 71.86 43.11 71.94 43.22 72.02C43.61 72.27 44.01 72.5 44.42 72.71C44.92 72.95 45.42 73.17 45.94 73.36C46.86 73.67 47.79 73.94 48.72 74.21C50 74.57 51.19 75.13 52.34 75.78C53.18 76.26 53.46 77.38 52.97 78.2C52.64 78.76 52.04 79.07 51.43 79.07C51.13 79.11 50.83 79.03 50.55 78.87Z"
    fill="rgba(191, 192, 191, 1)" />
  <path
    d="M28.1 70.83C26.98 70.63 25.88 70.34 24.78 70.06C23.44 69.72 22.1 69.41 20.76 69.1C19.58 68.88 18.39 68.72 17.19 68.62C17.24 68.62 17.29 68.63 17.34 68.63C17.28 68.63 17.22 68.62 17.16 68.62C17.15 68.62 17.14 68.62 17.14 68.62C17.13 68.62 17.12 68.62 17.12 68.62C17.12 68.62 17.11 68.62 17.1 68.62C17.1 68.62 17.1 68.62 17.11 68.62C15.79 68.55 14.48 68.55 13.16 68.55C12.33 68.55 11.49 68.61 10.66 68.66C10.02 68.73 9.37004 68.79 8.72004 68.86C8.13003 68.92 7.54003 69.06 6.95003 69.16C6.58003 69.24 6.20003 69.32 5.84003 69.4C5.13003 69.55 4.39004 69.79 3.66004 69.79C3.18004 69.79 2.67003 69.73 2.25003 69.49C1.82003 69.24 1.54003 68.92 1.27003 68.51C1.03003 68.14 0.930031 67.65 0.880031 67.22C0.800031 66.58 0.94003 65.92 1.09003 65.3C1.49003 63.63 2.32003 62.07 3.11003 60.55C3.53003 59.75 3.92003 58.93 4.38003 58.14C5.44003 56.33 6.51004 54.52 7.62004 52.74C8.66004 51.09 9.71003 49.45 10.77 47.82C11.32 46.98 11.93 46.17 12.5 45.35C13.08 44.53 13.7 43.73 14.28 42.9C14.49 42.58 14.69 42.27 14.87 41.94C14.7 41.96 14.53 41.97 14.36 41.99C13.54 42.31 12.74 42.66 11.93 43C11.02 43.39 10.08 43.73 9.12004 44C8.58004 44.15 8.01003 44.25 7.45003 44.32C6.98003 44.37 6.50004 44.37 6.05004 44.22C5.46004 44.02 4.98003 43.6 4.82003 42.99C4.62003 42.28 4.90004 41.59 5.44004 41.11C5.82004 40.79 6.32003 40.64 6.78003 40.46C7.08003 40.34 7.39004 40.22 7.69004 40.11C8.46004 39.82 9.23004 39.56 10.01 39.32C11.15 38.97 12.32 38.69 13.51 38.52C14.45 38.16 15.41 37.86 16.41 37.76C17.57 37.65 18.68 37.89 19.67 38.51C21.66 39.75 22.62 42.14 23.12 44.33C23.32 45.22 23.46 46.14 23.58 47.05C23.66 47.09 23.73 47.14 23.81 47.2C24.56 47.78 24.74 48.93 24.13 49.68C24.01 49.82 23.89 49.96 23.76 50.1C23.59 50.28 23.35 50.41 23.14 50.55C22.46 50.99 21.55 50.8 20.99 50.27C20.57 49.87 20.3 49.38 20.23 48.79C20.18 48.43 20.13 48.08 20.08 47.72C19.96 46.88 19.85 46.04 19.69 45.2C19.58 44.72 19.44 44.24 19.29 43.77C19.19 43.5 19.09 43.25 18.97 42.99C18.85 42.76 18.72 42.53 18.58 42.31C18.57 42.3 18.56 42.29 18.56 42.27C18.39 42.79 18.18 43.29 17.91 43.76C17.49 44.52 16.98 45.22 16.47 45.92C15.58 47.16 14.68 48.39 13.8 49.63C12.33 51.92 10.87 54.2 9.43003 56.51C8.71003 57.67 8.05003 58.87 7.36003 60.05C7.11003 60.49 6.89004 60.94 6.65004 61.39C6.33004 62.01 6.00003 62.64 5.67003 63.26C5.33003 63.99 5.00004 64.72 4.72004 65.47C4.66004 65.66 4.60004 65.85 4.55004 66.04C5.87004 65.75 7.20003 65.44 8.54003 65.3C10.2 65.13 11.86 64.99 13.52 65C14.79 65 16.06 65.01 17.33 65.09C19.06 65.2 20.77 65.47 22.45 65.86C23.22 66.04 23.99 66.21 24.75 66.4C25.93 66.7 27.11 67.01 28.3 67.27C28.91 67.38 29.52 67.47 30.13 67.52C30.56 67.54 30.99 67.54 31.41 67.54C32.37 67.54 33.18 68.35 33.18 69.31C33.18 70.27 32.38 71.08 31.41 71.08C30.31 71.08 29.21 71.02 28.1 70.83Z"
    fill="rgba(191, 192, 191, 1)" />
</svg>