<?xml version="1.0" encoding="UTF-8" standalone="yes"?>
<svg width="87" height="76" viewBox="-40 -40 167 156" fill="none" xmlns="http://www.w3.org/2000/svg">
  <path
    d="M13.58 75.49C12.68 75.48 11.78 75.48 10.88 75.47C10.67 75.47 10.46 75.47 10.26 75.47C8.88001 75.47 7.50001 75.47 6.17001 75.07C3.90001 74.38 2.30001 72.49 1.43001 70.36C0.970005 69.25 0.730006 68.07 0.540006 66.9C0.320006 65.56 0.230014 64.2 0.220014 62.85C0.210014 60.24 0.700007 57.55 1.76001 55.16C2.23001 54.09 2.88001 53.14 3.67001 52.28C4.48001 51.4 5.53001 50.73 6.53001 50.12C7.71001 49.4 8.92001 48.72 10.17 48.14C11.26 47.63 12.42 47.28 13.6 47.1C14.89 46.91 16.21 47.11 17.45 47.45C18.51 47.74 19.52 48.21 20.45 48.8C21.12 49.23 21.73 49.73 22.34 50.25C23.13 50.92 23.93 51.57 24.73 52.21C26.25 53.43 27.47 55.01 28.42 56.71C28.89 57.56 29.37 58.42 29.76 59.32C30.53 61.07 31.14 62.87 31.74 64.68C31.99 65.37 32.27 66.04 32.58 66.71C32.87 67.28 33.19 67.83 33.53 68.36C33.79 68.73 34.06 69.09 34.35 69.43C34.52 69.61 34.69 69.79 34.88 69.96C35.03 70.08 35.18 70.2 35.34 70.32C35.52 70.43 35.7 70.54 35.89 70.64C36.1 70.74 36.32 70.83 36.55 70.91C36.86 71 37.17 71.09 37.48 71.15C37.8 71.21 38.12 71.25 38.45 71.28C38.76 71.29 39.07 71.29 39.38 71.27C39.72 71.23 40.05 71.18 40.38 71.13C40.65 71.06 40.92 70.99 41.2 70.9C41.52 70.78 41.84 70.65 42.16 70.5C42.41 70.37 42.65 70.23 42.89 70.08C43.08 69.94 43.27 69.8 43.45 69.65C43.7 69.42 43.94 69.19 44.17 68.94C44.37 68.71 44.55 68.47 44.72 68.22C45.02 67.76 45.29 67.28 45.54 66.79C45.81 66.22 46.03 65.65 46.25 65.06C46.5 64.3 46.7 63.54 46.87 62.76C47.03 61.93 47.14 61.09 47.21 60.25C47.25 59.51 47.24 58.77 47.2 58.02C47.13 57.24 47.02 56.47 46.88 55.7C46.67 54.71 46.39 53.74 46.06 52.79C45.63 51.6 45.15 50.43 44.59 49.3C44.3 48.74 44 48.19 43.66 47.66C43.34 47.18 43 46.73 42.63 46.29C42.15 45.75 41.64 45.24 41.1 44.77C41.15 44.82 41.21 44.87 41.27 44.92C39.41 43.32 37.38 41.92 35.39 40.5C34.23 39.73 33.07 38.99 31.83 38.35C30.8 37.86 29.75 37.46 28.68 37.06C28.11 36.89 27.54 36.72 26.97 36.54C26.4 36.36 25.79 36.25 25.21 36.11C24.36 35.95 23.51 35.79 22.66 35.68C21.75 35.56 20.84 35.47 19.93 35.4C18.99 35.35 18.05 35.3 17.11 35.25C15.01 35.14 12.93 34.81 11.01 33.93C8.74001 32.89 7.23002 30.91 6.35002 28.62C5.92002 27.51 5.68002 26.32 5.57002 25.14C5.45002 23.84 5.61001 22.57 5.95001 21.32C6.25001 20.18 6.73002 19.08 7.27002 18.03C7.87002 16.88 8.57002 15.79 9.41002 14.79C10.91 12.98 12.9 11.52 15.03 10.54C15.5 10.33 15.97 10.11 16.44 9.89002C16.91 9.68002 17.4 9.51002 17.88 9.32002C18.78 8.96002 19.71 8.69001 20.63 8.44001C22.54 7.92001 24.5 7.64001 26.45 7.31001C27.41 7.15001 28.38 6.98001 29.34 6.85001C30.54 6.69001 31.75 6.61002 32.97 6.64002C34.31 6.67002 35.63 6.9 36.93 7.21C38.22 7.51 39.49 7.94 40.75 8.34C41.95 8.71 43.14 9.13 44.31 9.59C46.69 10.52 48.93 11.81 50.92 13.41C52.46 14.65 53.79 16.12 54.99 17.68C56.17 19.2 57.24 20.76 58.12 22.47C58.85 23.9 59.39 25.4 59.95 26.9C60.62 28.71 61.18 30.56 61.73 32.41C62.24 34.13 62.66 35.88 63.04 37.64C63.47 39.66 63.89 41.69 64.28 43.72C64.74 46.1 65.05 48.52 65.39 50.92C65.73 53.29 66.05 55.66 66.44 58.02C66.58 58.66 66.71 59.29 66.85 59.93C66.93 60.31 67.06 60.68 67.17 61.06C67.29 61.5 67.42 61.93 67.56 62.36C67.86 63.2 68.19 64.02 68.58 64.82C68.78 65.2 68.99 65.57 69.22 65.94C69.39 66.19 69.58 66.43 69.77 66.66C69.9 66.8 70.04 66.95 70.18 67.08C70.27 67.16 70.36 67.23 70.46 67.3C70.63 67.41 70.8 67.51 70.98 67.62C71.18 67.71 71.37 67.8 71.58 67.87C71.8 67.94 72.02 67.99 72.24 68.05C72.47 68.09 72.71 68.12 72.95 68.14C73.2 68.15 73.45 68.15 73.7 68.14C74.04 68.11 74.37 68.06 74.71 68C75.03 67.93 75.34 67.84 75.66 67.73C75.88 67.64 76.09 67.55 76.31 67.45C76.6 67.31 76.87 67.15 77.14 66.98C77.4 66.79 77.66 66.6 77.91 66.39C78.2 66.13 78.47 65.85 78.73 65.57C79.02 65.21 79.3 64.85 79.57 64.47C79.91 63.94 80.22 63.4 80.5 62.83C80.84 62.13 81.13 61.43 81.39 60.7C81.64 59.96 81.85 59.21 82.02 58.45C82.19 57.54 82.31 56.63 82.38 55.7C82.58 51.99 82.57 48.28 82.38 44.57C82.27 43.36 82.14 42.17 81.99 40.97C81.83 39.76 81.57 38.57 81.33 37.38C81.35 37.46 81.36 37.53 81.38 37.61C80.61 34.43 79.67 31.29 78.81 28.13C78.4 26.64 77.99 25.15 77.53 23.68C77.05 22.13 76.53 20.59 75.99 19.04C76.01 19.11 76.04 19.19 76.06 19.26C75.68 18.22 75.31 17.18 74.92 16.14C74.58 16.38 74.23 16.62 73.88 16.85C73.02 17.42 72.16 17.97 71.29 18.51C70.47 19.03 69.58 19.68 68.6 19.81C67.69 19.93 66.64 19.43 66.31 18.53C66.15 18.09 66.05 17.66 66.05 17.19C66.05 16.9 66.06 16.62 66.07 16.33C66.08 15.86 66.11 15.38 66.16 14.91C66.25 13.99 66.32 13.06 66.48 12.15C66.66 11.11 66.85 10.08 67.06 9.05C67.37 7.5 67.72 5.95001 68.08 4.41001C68.29 3.52001 68.52 2.61001 68.83 1.75001C69.08 1.06001 69.65 0.510002 70.39 0.400002C70.61 0.370002 70.84 0.370002 71.05 0.400002C71.75 0.470002 72.24 0.979996 72.58 1.55C72.69 1.73 72.8 1.91 72.91 2.09C73.1 2.14 73.29 2.20002 73.48 2.26002C75.07 2.72002 76.55 3.43999 77.93 4.35999C78.8 4.94999 79.65 5.55 80.49 6.18C80.87 6.46 81.22 6.77999 81.58 7.08C82.06 7.48 82.6 7.95001 82.96 8.47001C83.28 8.93001 83.42 9.47 83.26 10.02C83.1 10.59 82.62 11.12 82.02 11.25C81.91 11.27 81.8 11.29 81.7 11.3C81.69 11.3 81.68 11.31 81.68 11.31C81.35 11.49 81.02 11.7 80.7 11.91C79.74 12.57 78.81 13.28 77.88 13.98C78.38 15.27 78.85 16.57 79.32 17.87C79.98 19.71 80.57 21.58 81.16 23.44C81.73 25.29 82.21 27.17 82.72 29.04C83.23 30.92 83.78 32.77 84.29 34.65C84.8 36.54 85.15 38.46 85.47 40.39C85.8 42.34 85.9 44.33 86.01 46.3C86.11 48.22 86.08 50.14 86.06 52.07C86.03 54.88 85.89 57.74 85.16 60.46C84.51 62.91 83.39 65.28 81.86 67.3C80.42 69.19 78.44 70.58 76.17 71.26C75.04 71.6 73.81 71.74 72.63 71.65C71.35 71.55 70.17 71.19 69.04 70.58C66.87 69.41 65.63 67.08 64.72 64.9C64.17 63.59 63.81 62.23 63.43 60.87C63.3 60.4 63.22 59.9 63.12 59.42C63.03 59.01 62.94 58.6 62.88 58.19C62.42 55.46 62.06 52.72 61.67 49.98C61.3 47.41 60.88 44.84 60.39 42.28C59.92 40.01 59.47 37.74 58.89 35.49C58.25 33.05 57.48 30.66 56.67 28.27C56.16 26.88 55.65 25.51 55.01 24.18C54.58 23.34 54.1 22.53 53.58 21.74C52.8 20.62 51.96 19.53 51.07 18.49C50.47 17.82 49.83 17.17 49.16 16.57C48.58 16.08 47.98 15.62 47.36 15.18C46.56 14.64 45.72 14.16 44.86 13.72C44.89 13.73 44.91 13.75 44.94 13.76C44.91 13.74 44.88 13.73 44.85 13.72C44.81 13.7 44.77 13.68 44.73 13.66C44.73 13.66 44.74 13.66 44.74 13.67C43.75 13.19 42.74 12.78 41.71 12.4C39.63 11.69 37.54 10.96 35.39 10.49C34.72 10.36 34.05 10.26 33.36 10.2C32.59 10.16 31.83 10.17 31.06 10.22C29.75 10.34 28.45 10.55 27.16 10.77C26.02 10.96 24.87 11.16 23.73 11.36C22.99 11.51 22.25 11.66 21.53 11.86C20.77 12.06 20.03 12.31 19.28 12.56C19.29 12.56 19.29 12.56 19.3 12.56C18.8 12.76 18.3 12.95 17.79 13.15C17.32 13.33 16.87 13.57 16.41 13.78C15.73 14.13 15.07 14.5 14.43 14.92C14.05 15.19 13.68 15.48 13.32 15.78C12.94 16.12 12.59 16.47 12.25 16.84C11.92 17.22 11.61 17.62 11.32 18.03C10.96 18.57 10.64 19.12 10.33 19.68C10.01 20.32 9.74002 20.97 9.49002 21.63C9.36002 22.02 9.25001 22.42 9.15001 22.83C9.09001 23.13 9.05002 23.44 9.02002 23.74C9.01002 24.07 9.01002 24.39 9.02002 24.72C9.06002 25.15 9.12001 25.57 9.20001 26C9.30001 26.43 9.41002 26.84 9.55002 27.26C9.69002 27.61 9.83002 27.95 9.99002 28.28C10.12 28.51 10.25 28.74 10.39 28.96C10.53 29.16 10.68 29.36 10.84 29.55C10.99 29.71 11.14 29.85 11.3 30C11.47 30.13 11.64 30.26 11.81 30.38C11.93 30.45 12.04 30.52 12.17 30.59C12.51 30.76 12.87 30.91 13.23 31.05C13.67 31.19 14.11 31.31 14.55 31.41C15.28 31.55 16.02 31.64 16.76 31.7C18.57 31.79 20.41 31.82 22.21 32.06C23.27 32.2 24.31 32.36 25.36 32.56C26.24 32.72 27.13 32.91 27.98 33.17C28.52 33.33 29.06 33.5 29.6 33.66C30.09 33.81 30.56 34.01 31.05 34.19C32.69 34.81 34.29 35.58 35.76 36.55C36.66 37.14 37.56 37.74 38.44 38.37C39.23 38.94 40.02 39.51 40.81 40.09C41.93 40.91 43.02 41.77 44.04 42.71C44.97 43.57 45.78 44.54 46.49 45.59C47.2 46.64 47.78 47.78 48.29 48.93C49.36 51.29 50.15 53.78 50.54 56.34C50.92 58.86 50.74 61.41 50.22 63.89C49.71 66.33 48.73 68.73 47.26 70.75C45.81 72.73 43.62 74.01 41.26 74.58C40.13 74.85 38.97 74.9 37.81 74.81C36.58 74.72 35.29 74.36 34.2 73.79C32.03 72.65 30.56 70.6 29.47 68.46C28.61 66.76 28.06 64.92 27.45 63.12C27.22 62.52 27 61.92 26.74 61.33C26.46 60.7 26.17 60.09 25.86 59.47C25.48 58.79 25.1 58.1 24.68 57.44C24.38 57 24.06 56.58 23.72 56.17C23.45 55.87 23.16 55.58 22.86 55.3C22.21 54.74 21.52 54.23 20.87 53.68C20.17 53.09 19.49 52.48 18.75 51.95C18.45 51.75 18.15 51.57 17.84 51.41C17.54 51.27 17.24 51.15 16.94 51.04C16.6 50.93 16.26 50.83 15.92 50.75C15.61 50.69 15.3 50.65 14.99 50.62C14.75 50.61 14.51 50.61 14.28 50.62C14.05 50.64 13.82 50.68 13.58 50.72C13.23 50.8 12.88 50.9 12.54 51.01C12.02 51.21 11.5 51.43 11 51.68C11.07 51.64 11.14 51.61 11.2 51.57C9.96001 52.2 8.74002 52.89 7.57002 53.66C7.20002 53.92 6.83001 54.19 6.48001 54.48C6.31001 54.64 6.15001 54.8 6.00001 54.97C5.86001 55.14 5.72001 55.32 5.59001 55.5C5.42001 55.77 5.26001 56.04 5.12001 56.32C4.96001 56.66 4.81001 57.02 4.67001 57.37C4.44001 58.05 4.26002 58.73 4.10002 59.43C3.95002 60.21 3.85001 61 3.78001 61.79C3.74001 62.62 3.74001 63.45 3.79001 64.29C3.86001 65.27 3.99001 66.24 4.17001 67.21C4.28001 67.73 4.42001 68.23 4.59001 68.73C4.69001 68.99 4.79001 69.25 4.90001 69.5C5.02001 69.72 5.14002 69.93 5.27002 70.14C5.39002 70.31 5.51001 70.47 5.64001 70.63C5.77001 70.77 5.91001 70.92 6.06001 71.05C6.15001 71.12 6.23002 71.19 6.32002 71.25C6.49002 71.36 6.67002 71.46 6.85002 71.56C6.93002 71.6 7.02002 71.63 7.10002 71.67C7.25002 71.72 7.40001 71.77 7.56001 71.81C7.82001 71.86 8.09001 71.89 8.36001 71.92C9.42001 71.97 10.49 71.97 11.56 71.96C12.06 71.96 12.57 71.96 13.08 71.96C14.47 71.97 15.88 72.03 17.28 71.96C17.58 71.93 17.88 71.89 18.18 71.84C18.29 71.82 18.38 71.79 18.48 71.75C18.62 71.7 18.75 71.64 18.88 71.56C18.81 71.6 18.74 71.63 18.68 71.66C18.77 71.61 18.86 71.55 18.95 71.5C19.79 71.03 20.88 71.3 21.37 72.14C21.85 72.96 21.57 74.09 20.73 74.56C20.17 74.88 19.61 75.13 18.97 75.28C18.11 75.48 17.22 75.5 16.35 75.51C16.15 75.51 15.94 75.51 15.74 75.51C15.03 75.52 14.3 75.5 13.58 75.49ZM70.56 9.46C70.36 10.48 70.17 11.49 69.99 12.51C69.83 13.42 69.74 14.33 69.66 15.25C69.66 15.28 69.66 15.31 69.66 15.34C70.65 14.73 71.61 14.07 72.58 13.43C72.9 13.2 73.22 12.97 73.54 12.73C73.11 11.76 72.65 10.8 72.28 9.8C71.89 8.75 71.52 7.70002 71.16 6.64002C70.95 7.59002 70.76 8.53 70.56 9.46ZM76.1 9.78001C76.22 10.05 76.33 10.31 76.46 10.57C76.5 10.54 76.54 10.51 76.58 10.48C77.21 10.01 77.85 9.55001 78.5 9.10001C78 8.70002 77.48 8.31 76.96 7.93C77.02 7.97 77.08 8.02001 77.15 8.06001C76.4 7.56001 75.67 7.05999 74.89 6.60999C74.98 6.86999 75.06 7.13001 75.15 7.38001C75.14 7.34001 75.13 7.31 75.11 7.27C75.42 8.12 75.73 8.96001 76.1 9.78001Z"
    fill="rgba(191, 192, 191, 1)" />
  <path d="M44.82 13.67C44.83 13.68 44.85 13.69 44.86 13.69C44.84 13.69 44.83 13.68 44.82 13.67Z"
    fill="rgba(191, 192, 191, 1)" />
</svg>