<?xml version="1.0" encoding="UTF-8" standalone="yes"?>
<svg width="79" height="88" viewBox="-40 -40 159 168" fill="none" xmlns="http://www.w3.org/2000/svg">
  <path d="M20.2099 78C20.2099 78 20.2034 77.9935 20.1956 77.991L20.2099 78Z" fill="rgba(191, 192, 191, 1)" />
  <path d="M20.1196 77.9407C20.0997 77.9248 20.0785 77.9097 20.0566 77.8963L20.1196 77.9407Z"
    fill="rgba(191, 192, 191, 1)" />
  <path d="M31.7016 29.1989L31.7036 29.1973L31.7564 29.1618L31.76 29.16L31.7016 29.1989Z"
    fill="rgba(191, 192, 191, 1)" />
  <path fill-rule="evenodd" clip-rule="evenodd"
    d="M26.05 66.11C25.29 65.9 24.75 65.19 24.75 64.4C24.75 64.08 24.84 63.77 25 63.51C25.3625 62.853 25.7706 62.2244 26.177 61.5986C26.3086 61.3957 26.4402 61.1932 26.5699 60.99C27.0691 60.2112 27.5983 59.4524 28.1275 58.6935L28.13 58.69C28.2709 58.4899 28.4111 58.2881 28.5516 58.0859C28.9094 57.5709 29.2694 57.0526 29.65 56.55C30.3983 55.5523 31.1466 54.5645 31.8949 53.5768L31.9 53.57C33.8105 51.0346 35.7689 48.523 37.7252 46.014L38.43 45.11C43.36 38.76 48.2999 32.41 53.4599 26.24C54.0204 25.5577 54.594 24.8886 55.1701 24.2167C55.3032 24.0615 55.4368 23.9057 55.5699 23.75C55.0757 24.0595 54.579 24.369 54.0822 24.6786L54.08 24.68C53.5825 24.99 53.0849 25.3 52.5899 25.61C52.0102 25.9712 51.4308 26.3337 50.8511 26.6964C48.2217 28.3415 45.5874 29.9897 42.9 31.5301L42.3425 31.8494C40.8167 32.7233 39.2864 33.5997 37.78 34.5C36.15 35.48 34.5499 36.5 32.9399 37.54C32.9526 37.5315 32.9653 37.5226 32.9781 37.5135C32.6032 37.7684 32.2266 38.0217 31.85 38.275C31.4287 38.5583 31.0074 38.8417 30.5885 39.1274C30.5999 39.1194 30.6115 39.1111 30.6231 39.1027C29.2199 40.0536 27.8352 41.0318 26.4599 42.01C25.6699 42.56 24.5799 42.47 23.9799 41.69C23.4099 40.95 23.51 39.76 24.3 39.21C26.53 37.63 28.78 36.09 31.05 34.56C34.2691 32.3844 37.6528 30.4608 41.0297 28.5411L41.1899 28.45C43.8982 26.9082 46.54 25.2533 49.1804 23.5992L49.182 23.5983C49.7778 23.225 50.3735 22.8518 50.9699 22.48C51.3135 22.2661 51.6566 22.0521 51.9996 21.8383C53.2437 21.0626 54.4857 20.2883 55.74 19.52C56.175 19.255 56.61 18.9875 57.0451 18.7199C57.48 18.4525 57.915 18.185 58.3499 17.92C58.6622 17.7358 58.9739 17.545 59.2867 17.3536C60.3664 16.6929 61.4592 16.0242 62.63 15.5901C63.0187 15.4475 63.4284 15.4183 63.8101 15.5242C64.8075 14.9204 66.3728 15.5381 66.5 16.81L66.5022 16.8364C66.5115 16.949 66.5215 17.0695 66.5401 17.19C66.5601 17.46 66.53 17.72 66.45 17.96C66.4 18.78 66.27 19.58 66.12 20.39C65.96 21.25 65.78 22.11 65.52 22.95C65.3551 23.4848 65.1927 24.0196 65.0302 24.5544C64.8677 25.0896 64.7051 25.6248 64.54 26.16C64.1704 27.3703 63.743 28.5596 63.3149 29.7508C63.1523 30.2032 62.9896 30.6558 62.83 31.11C62.8481 31.0677 62.8626 31.0254 62.8779 30.9809C62.8879 30.9518 62.8982 30.9217 62.91 30.89C62.4835 32.1498 62.0124 33.4006 61.5414 34.6515C61.3057 35.2773 61.0701 35.9031 60.84 36.53C60.14 38.4 59.44 40.28 58.76 42.17C58.75 42.19 58.74 42.21 58.74 42.24C58.74 42.25 58.74 42.26 58.73 42.26C58.725 42.26 58.725 42.265 58.725 42.27C58.725 42.275 58.725 42.28 58.72 42.28L58.7197 42.281C58.7109 42.3073 58.7021 42.3337 58.6933 42.3669C58.6948 42.3652 58.6969 42.3631 58.7 42.36C58.6332 42.5604 58.5627 42.7607 58.493 42.9589C58.448 43.0871 58.4032 43.2143 58.36 43.34C58.36 43.34 58.36 43.35 58.35 43.35C58.33 43.415 58.3075 43.4775 58.285 43.54C58.2625 43.6025 58.24 43.665 58.22 43.73C58.195 43.8 58.1725 43.8675 58.15 43.935C58.1275 44.0025 58.105 44.07 58.08 44.14C58.0885 44.1102 58.0989 44.0803 58.1095 44.0497C58.1238 44.0085 58.1386 43.9659 58.15 43.92C58.11 44.03 58.07 44.14 58.0401 44.25L57.98 44.43L57.75 45.0914C57.75 45.091 57.75 45.0905 57.75 45.09C57.7496 45.0916 57.7492 45.0932 57.7488 45.0947L57.7457 45.1037C57.7462 45.1027 57.7467 45.1017 57.7471 45.1007C57.7424 45.1171 57.7362 45.1336 57.73 45.15C57.7225 45.17 57.715 45.19 57.71 45.21C57.71 45.23 57.7 45.24 57.69 45.25L57.69 45.26C57.66 45.34 57.63 45.42 57.6 45.51C57.6181 45.4677 57.6326 45.4254 57.6479 45.3809C57.6579 45.3518 57.6682 45.3217 57.6801 45.29C57.3601 46.22 57.04 47.15 56.72 48.07C56.5638 48.5352 56.4119 49.0014 56.2601 49.4673C55.9453 50.4337 55.6309 51.3987 55.28 52.35L55.2796 52.3512C55.0098 53.1008 54.7399 53.8504 54.4201 54.58C54.3911 54.6446 54.3622 54.7093 54.3333 54.774C54.0127 55.4917 53.6886 56.2171 53.23 56.85C52.9 57.3 52.36 57.53 51.82 57.53C51.58 57.55 51.34 57.51 51.12 57.42C51.1 57.41 51.08 57.4 51.07 57.4C50.18 57.04 49.76 55.95 50.13 55.08C50.23 54.85 50.3601 54.65 50.5401 54.49C50.59 54.4 50.64 54.31 50.69 54.21C51.19 53.13 51.62 52.04 52.03 50.92C52.1937 50.4361 52.3548 49.9498 52.5161 49.4632C52.8181 48.5519 53.1205 47.6396 53.44 46.74C53.4219 46.7822 53.4075 46.8244 53.3923 46.8687C53.3823 46.898 53.3719 46.9282 53.36 46.96L53.3633 46.9504C53.6822 46.0136 54.0011 45.0768 54.33 44.14C54.33 44.1385 54.3302 44.137 54.3306 44.1354C54.3328 44.1267 54.34 44.1169 54.34 44.1V44.09C54.3444 44.0769 54.3468 44.0657 54.349 44.0555C54.3519 44.0425 54.3544 44.0313 54.36 44.02C54.47 43.71 54.58 43.4 54.69 43.08V43.06C54.7111 42.9965 54.7341 42.9329 54.7574 42.8686C54.7748 42.8205 54.7924 42.7719 54.8094 42.7226C54.7989 42.7537 54.7886 42.786 54.78 42.82L54.781 42.8172C54.8287 42.6741 54.8764 42.5311 54.9291 42.388C54.9309 42.3829 54.9326 42.3779 54.9343 42.3728C54.9555 42.3104 54.9759 42.2502 55 42.19C55.0036 42.1773 55.0073 42.1643 55.011 42.151C55.0276 42.0913 55.0454 42.0273 55.07 41.97C55.15 41.75 55.2301 41.52 55.3001 41.3C55.3219 41.2271 55.3491 41.1542 55.3777 41.0775C55.3884 41.0489 55.3992 41.0198 55.41 40.99C55.4 41.025 55.3875 41.0625 55.375 41.1C55.3625 41.1375 55.35 41.175 55.34 41.21C55.8698 39.6607 56.4447 38.1307 57.0182 36.6046C57.1591 36.2295 57.2999 35.8548 57.44 35.48C57.9072 34.2317 58.3656 32.9834 58.824 31.7351C59.0523 31.1134 59.2806 30.4917 59.51 29.87C59.9239 28.6697 60.3447 27.4832 60.7666 26.2933C60.8544 26.0457 60.9422 25.798 61.03 25.55C61.0119 25.5923 60.9974 25.6346 60.9821 25.6792C60.9721 25.7083 60.9618 25.7384 60.95 25.77C61.1206 25.2581 61.2727 24.7415 61.4251 24.2234C61.496 23.9825 61.567 23.7412 61.64 23.5C61.8509 22.8072 62.0545 22.1179 62.2377 21.4236C61.7137 22.0477 61.1878 22.6698 60.66 23.29C60.1629 23.8771 59.6602 24.4587 59.1576 25.0404C58.4874 25.8159 57.8172 26.5914 57.16 27.38C56.8195 27.7892 56.4775 28.1975 56.1354 28.606C55.2319 29.6849 54.3275 30.7648 53.4499 31.86C53.0543 32.3537 52.6587 32.8465 52.2634 33.3389L52.2591 33.3444C51.3668 34.4559 50.476 35.5656 49.5899 36.68C44.6999 42.84 39.8599 49.06 35.0699 55.3C34.4411 56.1245 33.8171 56.9539 33.1946 57.7813L33.1934 57.783C32.9254 58.1392 32.6577 58.4951 32.39 58.85C31.7856 59.6533 31.2163 60.48 30.6463 61.3078C30.4715 61.5617 30.296 61.8166 30.12 62.07C29.912 62.3973 29.6983 62.7227 29.4843 63.0489C28.9985 63.7888 28.5102 64.5327 28.0799 65.31C27.7699 65.86 27.16 66.18 26.54 66.18C26.36 66.16 26.2 66.14 26.05 66.11ZM54.9335 42.3761C54.9454 42.3441 54.9575 42.3121 54.97 42.28C54.9564 42.3118 54.9449 42.3435 54.9335 42.3761Z"
    fill="rgba(191, 192, 191, 1)" />
  <path
    d="M54.8188 42.6952C54.8295 42.6638 54.84 42.6321 54.85 42.6C54.8415 42.6298 54.8312 42.6596 54.8206 42.6902C54.82 42.6919 54.8194 42.6936 54.8188 42.6952Z"
    fill="rgba(191, 192, 191, 1)" />
  <path
    d="M57.7471 45.1007C57.7485 45.0976 57.7497 45.0945 57.75 45.0914L57.7488 45.0947C57.7483 45.0967 57.7477 45.0987 57.7471 45.1007Z"
    fill="rgba(191, 192, 191, 1)" />
  <path fill-rule="evenodd" clip-rule="evenodd"
    d="M31.3399 86.9699C29.4299 86.5699 27.6 85.89 25.81 85.11C24.75 84.65 23.71 84.15 22.67 83.63C22.3237 83.4609 21.9904 83.2723 21.6596 83.0852C21.5796 83.0399 21.4998 82.9948 21.42 82.95C21.2783 82.8681 21.1355 82.7882 20.9924 82.7081C20.6813 82.5339 20.3682 82.3586 20.06 82.16L20.0699 82.17C20.0682 82.1683 20.0665 82.1669 20.0649 82.1656C20.0628 82.1641 20.0608 82.1629 20.059 82.1618C20.0538 82.1585 20.05 82.1562 20.05 82.15C20.05 82.15 20.04 82.15 20.04 82.14C20.04 82.14 20.03 82.14 20.03 82.13C20.005 82.115 19.9825 82.1 19.96 82.085C19.9375 82.07 19.915 82.055 19.89 82.04H19.9C19.8432 82.003 19.7853 81.966 19.7268 81.9286C19.5484 81.8147 19.3656 81.698 19.1999 81.57C19.1899 81.57 19.18 81.56 19.18 81.56C19.11 81.52 19.0399 81.47 18.9799 81.42L18.9599 81.4C18.7321 81.2633 18.5043 81.1017 18.2841 80.9455L18.2199 80.9C18.1849 80.875 18.1499 80.8525 18.1149 80.83C18.0799 80.8075 18.045 80.785 18.01 80.76C18.0174 80.7637 18.0248 80.7688 18.0328 80.7743C18.0462 80.7835 18.0611 80.7937 18.0799 80.8C17.5767 80.4578 17.096 80.084 16.6136 79.709C16.3772 79.5253 16.14 79.3408 15.9 79.16C15.2 78.6199 14.5199 78.06 13.8499 77.5C13.6569 77.3409 13.4636 77.182 13.2701 77.0229L13.2692 77.0222C11.6388 75.6817 10.0004 74.3347 8.48993 72.86C7.19993 71.61 6.08995 70.24 5.00995 68.82C3.82995 67.26 2.73992 65.64 1.84992 63.89C1.28992 62.79 0.84989 61.63 0.56989 60.43C0.25989 59.14 0.179953 57.81 0.259953 56.48C0.409953 53.87 1.2699 51.43 2.5799 49.18C3.6899 47.27 5.1299 45.48 6.7099 43.94C6.93647 43.7201 7.16081 43.4957 7.38553 43.271C7.83524 42.8213 8.28655 42.37 8.75995 41.95C9.02663 41.71 9.28998 41.4666 9.55333 41.2233C10.08 40.7367 10.6067 40.2499 11.16 39.79C11.58 39.445 11.9975 39.1 12.415 38.755C12.8325 38.41 13.25 38.0649 13.67 37.7199C14.1983 37.2832 14.7513 36.8664 15.3012 36.4519C15.532 36.278 15.7623 36.1044 15.9899 35.93C16.6699 35.41 17.36 34.89 18.05 34.38C18.348 34.1594 18.6456 33.9381 18.9433 33.7167C20.1843 32.7937 21.4275 31.8691 22.7099 30.99C25.0499 29.38 27.41 27.78 29.76 26.19C29.7418 26.2021 29.7236 26.2152 29.7051 26.2286C32.9419 24.0417 36.246 21.951 39.55 19.87C40.9458 18.9955 42.3558 18.1351 43.762 17.277L44.56 16.79C46.01 15.91 47.4699 15.04 48.9499 14.2C50.7999 13.16 52.65 12.12 54.53 11.11C56.28 10.17 58.0499 9.25995 59.8199 8.34995C63.1399 6.63995 66.4199 4.86 69.6999 3.08C69.9649 2.935 70.2299 2.79248 70.4949 2.64997C70.76 2.50746 71.025 2.36495 71.29 2.21995C72.5 1.54995 73.8299 0.899964 75.1899 0.609964C75.4199 0.559964 75.6499 0.549995 75.88 0.579995C76.17 0.539995 76.48 0.579991 76.77 0.699991C77.58 1.03999 78 1.95 77.8 2.77C77.85 3.27749 77.9256 3.78498 78.0011 4.29247C78.0312 4.49498 78.0614 4.69749 78.0899 4.9C78.2299 5.84 78.27 6.77996 78.3 7.72996C78.3358 8.54402 78.3075 9.37409 78.2797 10.1915L78.27 10.48C78.24 11.46 78.21 12.44 78.14 13.42C77.99 15.31 77.82 17.19 77.51 19.05C77.2 20.95 76.83 22.84 76.39 24.7199C75.93 26.65 75.45 28.56 74.91 30.46C74.37 32.39 73.75 34.3 73.13 36.2C72.5939 37.8536 72.0331 39.4989 71.4701 41.151L71.3 41.65C71.1356 42.1376 70.9743 42.6267 70.8128 43.116L70.8124 43.1175C70.3846 44.414 69.9562 45.7126 69.4699 46.99C68.0999 50.56 66.66 54.1 65.02 57.56L64.8755 57.8645C63.2534 61.2845 61.6211 64.7257 59.64 67.95L59.6394 67.9509C58.6196 69.6106 57.5998 71.2703 56.43 72.83C55 74.74 53.5499 76.64 51.9599 78.43C50.2299 80.38 48.2799 82.07 46.0899 83.49C43.8999 84.91 41.4599 85.9999 38.9499 86.7199C37.5899 87.1099 36.19 87.29 34.79 87.29C33.62 87.33 32.4699 87.2 31.3399 86.9699ZM20.8199 78.42C20.873 78.4503 20.9262 78.4865 20.975 78.5196C20.9905 78.5301 21.0055 78.5403 21.02 78.55C21.1947 78.6535 21.3611 78.7697 21.53 78.8875C21.6219 78.9517 21.7148 79.0165 21.81 79.08C21.82 79.08 21.8299 79.09 21.8399 79.1C21.8599 79.11 21.8774 79.1225 21.8949 79.135C21.9124 79.1475 21.9299 79.16 21.9499 79.17C22.2889 79.3644 22.6278 79.5563 22.9668 79.7482L22.973 79.7517C23.312 79.9437 23.651 80.1356 23.9899 80.33C25.8399 81.24 27.7 82.12 29.65 82.82C30.48 83.1 31.31 83.33 32.16 83.52C32.73 83.63 33.31 83.71 33.89 83.76C34.41 83.79 34.92 83.8 35.43 83.78C36.01 83.73 36.58 83.65 37.15 83.54C37.84 83.38 38.5199 83.1799 39.1899 82.9699C39.1723 82.9775 39.1547 82.9844 39.1369 82.991C40.1382 82.6335 41.1126 82.2137 42.06 81.74C43 81.26 43.91 80.73 44.79 80.14C45.5 79.64 46.1799 79.12 46.8399 78.57C47.7299 77.78 48.5799 76.94 49.3799 76.05C50.5599 74.7 51.68 73.29 52.76 71.86C52.8743 71.7083 52.9901 71.5567 53.1062 71.4047C53.4265 70.9854 53.7491 70.5629 54.05 70.13C54.2168 69.8854 54.3849 69.6408 54.5534 69.3958L54.5566 69.391C54.8417 68.9763 55.1278 68.5601 55.41 68.14C56.12 66.98 56.8299 65.82 57.4999 64.63C58.1395 63.4907 58.7491 62.3315 59.3587 61.1723L59.3599 61.17C59.3599 61.1741 59.3582 61.1782 59.3562 61.1831C59.3534 61.19 59.3499 61.1983 59.3499 61.21C59.3628 61.1885 59.3739 61.1651 59.3847 61.1423C59.399 61.112 59.4129 61.0828 59.43 61.06C59.43 61.05 59.4299 61.05 59.4399 61.04C60.8399 58.2 62.2399 55.34 63.4799 52.43L63.6931 51.9332C64.2532 50.6286 64.8141 49.3221 65.3199 48C65.4271 47.7178 65.5381 47.4356 65.6492 47.1529C65.8492 46.6445 66.05 46.134 66.2299 45.62C66.3799 45.205 66.5249 44.79 66.6699 44.375C66.8149 43.96 66.9599 43.545 67.1099 43.13C67.0919 43.1721 67.0774 43.2143 67.0623 43.2586C67.0523 43.2878 67.0419 43.3182 67.03 43.35C67.4782 41.9859 67.9414 40.6278 68.4045 39.27C69.1399 37.1138 69.8751 34.9582 70.55 32.78C71.67 29.14 72.6399 25.47 73.4499 21.75L73.5271 21.3473C73.7623 20.1214 73.9977 18.8947 74.16 17.66C74.37 16.14 74.52 14.62 74.64 13.09C74.74 11.01 74.8199 8.93996 74.7499 6.85996C74.6899 6.10996 74.5899 5.36998 74.4799 4.62998C74.4121 4.6613 74.3449 4.69194 74.278 4.72243C74.0887 4.80876 73.9021 4.8939 73.7099 4.98997C73.7149 4.98497 73.7199 4.98246 73.7249 4.97996C73.7299 4.97745 73.7349 4.97495 73.7399 4.96995C72.2762 5.71342 70.8365 6.5169 69.3976 7.31996C68.9785 7.55384 68.5595 7.78768 68.14 8.02C66.6024 8.87214 65.0391 9.68135 63.4818 10.4874L63.1099 10.68C62.4048 11.0463 61.6984 11.4108 60.9917 11.7754C58.3611 13.1328 55.7276 14.4917 53.15 15.95C46.23 19.86 39.5099 24.07 32.8699 28.43C32.4987 28.6712 32.1276 28.9125 31.7564 29.1618C31.7374 29.1717 31.7205 29.1839 31.7036 29.1973L31.67 29.2199L31.7016 29.1989L31.6849 29.2124C31.6738 29.2213 31.6624 29.2307 31.65 29.24C31.64 29.245 31.6275 29.2525 31.615 29.26C31.6025 29.2675 31.5899 29.275 31.5799 29.28C30.737 29.854 29.8889 30.4175 29.0393 30.9819C28.7423 31.1792 28.4446 31.3769 28.1474 31.575C28.1493 31.5741 28.1513 31.5732 28.1533 31.5724C28.1555 31.5716 28.1577 31.5707 28.16 31.57C25.7 33.23 23.28 34.95 20.91 36.71C19.55 37.72 18.2099 38.73 16.8599 39.76C15.7676 40.5953 14.7089 41.4812 13.6453 42.3712L13.3599 42.61C11.5199 44.26 9.68998 45.91 8.03998 47.75C7.39998 48.49 6.79993 49.26 6.23993 50.07C5.82993 50.7 5.43992 51.35 5.09992 52.02C4.85992 52.52 4.64989 53.02 4.44989 53.54C4.2899 54.01 4.15999 54.4899 4.04999 54.9699C3.94999 55.4999 3.86989 56.04 3.81989 56.58C3.78989 57.09 3.79 57.6 3.81 58.11C3.85 58.54 3.90992 58.95 3.97992 59.38C4.07992 59.81 4.18989 60.23 4.31989 60.65C4.51989 61.21 4.75996 61.76 5.01996 62.29C5.53996 63.31 6.14998 64.29 6.78998 65.25C7.62998 66.47 8.53994 67.66 9.49994 68.78C10.3199 69.72 11.2099 70.59 12.1199 71.44C13.4299 72.57 14.7499 73.69 16.0899 74.78C16.2456 74.9074 16.4013 75.0359 16.5574 75.1647C17.063 75.582 17.5727 76.0027 18.0999 76.4C18.326 76.5721 18.5499 76.7488 18.7742 76.9258C19.1943 77.2574 19.6159 77.5902 20.0566 77.8963C20.0383 77.8851 20.0198 77.8745 20.0017 77.8642L19.9995 77.8629C20.0411 77.888 20.0808 77.9147 20.1196 77.9407C20.1452 77.9579 20.1705 77.9749 20.1956 77.991C20.1938 77.9904 20.1918 77.99 20.1899 77.99C20.2388 78.0226 20.292 78.0566 20.348 78.0923C20.4979 78.1882 20.667 78.2962 20.8199 78.42ZM39.0609 83.0178L39.0837 83.0099L38.9699 83.05C39.0016 83.0381 39.0317 83.0278 39.0609 83.0178Z"
    fill="rgba(191, 192, 191, 1)" />
</svg>