<?xml version="1.0" encoding="UTF-8" standalone="yes"?>
<svg width="76" height="82" viewBox="-40 -40 156 162" fill="none" xmlns="http://www.w3.org/2000/svg">
  <path fill-rule="evenodd" clip-rule="evenodd"
    d="M43.81 3.14999C42.99 3.45999 42.57 4.42999 42.79 5.25C42.8104 5.3237 42.8354 5.39534 42.8648 5.46463C42.8289 5.64839 42.8185 5.83549 42.8401 6.03999C42.8701 6.35998 42.9401 6.66999 43.02 6.97C43.0748 7.18898 43.132 7.40794 43.1891 7.62692L43.1895 7.62797L43.1936 7.64372C43.2499 7.85914 43.3062 8.07456 43.36 8.28999C43.4092 8.48388 43.4576 8.67778 43.5058 8.87138C43.6143 9.30683 43.7224 9.74081 43.8401 10.17C43.8666 10.2732 43.8927 10.3766 43.9186 10.4801C43.9391 10.5617 43.9595 10.6435 43.9798 10.7252C44.1186 11.2824 44.2574 11.8397 44.4301 12.38C44.67 13.09 44.9 13.81 45.13 14.53C45.2828 14.9954 45.4695 15.4512 45.6563 15.9074L45.6572 15.9096C45.71 16.0385 45.7628 16.1674 45.8149 16.2966C45.8435 16.3676 45.8719 16.4387 45.9 16.51C46.1301 17.08 46.41 17.65 46.7001 18.2L46.8787 18.5406L46.882 18.5468C47.1288 19.018 47.373 19.484 47.63 19.95C47.67 20.0264 47.7097 20.1038 47.7495 20.1815C47.9389 20.5509 48.1321 20.9278 48.38 21.25C48.7501 21.72 49.25 22 49.85 22.05C50.81 22.12 51.7101 21.53 51.8401 20.53C51.9301 19.85 51.58 19.12 51 18.76C50.8745 18.5433 50.7588 18.32 50.6436 18.0977C50.5568 17.9302 50.4702 17.7633 50.38 17.6C50.2441 17.3486 50.1129 17.0972 49.9799 16.8426C49.9172 16.7226 49.8541 16.6018 49.79 16.48C49.58 16.06 49.3701 15.64 49.1901 15.21C49.1288 15.0541 49.0668 14.8991 49.0045 14.7443C48.955 14.6215 48.9053 14.4989 48.8555 14.3763C48.7429 14.0984 48.6302 13.8204 48.52 13.54C48.42 13.225 48.3175 12.91 48.215 12.595C48.1125 12.28 48.01 11.965 47.91 11.65C47.7836 11.2773 47.6837 10.8958 47.5839 10.5143L47.5833 10.5119C47.5333 10.3209 47.4833 10.1299 47.4301 9.94L47.04 8.44C47.3861 8.57699 47.727 8.70358 48.0702 8.83102L48.0814 8.83519C48.2104 8.88311 48.3398 8.93118 48.47 8.97999C48.9134 9.14144 49.3579 9.29823 49.8019 9.45483L49.8046 9.45584C51.3121 9.98761 52.8138 10.5174 54.25 11.22C54.1801 11.18 54.12 11.15 54.05 11.11C54.98 11.58 55.8801 12.11 56.76 12.68C58.2 13.66 59.5201 14.78 60.8401 15.9C60.9265 15.9786 61.0133 16.0568 61.1004 16.1348C61.1745 16.2012 61.2487 16.2673 61.3229 16.3335C61.7272 16.6938 62.1313 17.0541 62.51 17.44C62.7 17.6299 62.8943 17.8165 63.0887 18.0031C63.4777 18.3765 63.8666 18.7499 64.22 19.15L64.2158 19.145C64.6972 19.6901 65.1786 20.2359 65.66 20.79C66.17 21.42 66.66 22.07 67.13 22.75C67.8101 23.76 68.42 24.8 68.97 25.89C69.42 26.81 69.82 27.75 70.17 28.71C70.52 29.71 70.79 30.72 71.02 31.76C71.2401 32.9 71.39 34.05 71.48 35.21C71.56 36.49 71.54 37.77 71.4601 39.05C71.36 40.43 71.18 41.81 70.91 43.18C70.66 44.36 70.34 45.52 69.98 46.68L69.9769 46.6887C69.8079 47.1658 69.639 47.6429 69.4601 48.12C69.4 48.2826 69.3436 48.449 69.287 48.6161C69.1835 48.9215 69.0793 49.2291 68.9501 49.52C68.8506 49.745 68.7512 49.9705 68.6516 50.1963C68.3307 50.9238 68.0081 51.6552 67.6801 52.38C67.46 52.8 67.23 53.23 67.01 53.66C66.923 53.8235 66.8397 53.9894 66.7562 54.1556C66.5997 54.4673 66.4426 54.78 66.26 55.08C65.9805 55.5373 65.701 55.9972 65.4216 56.4583C65.1718 56.8706 64.9219 57.284 64.6721 57.6974L64.61 57.8C64.355 58.17 64.1 58.5425 63.845 58.915C63.7263 59.0884 63.6075 59.2619 63.4888 59.4351C63.3525 59.6339 63.2163 59.8323 63.0801 60.03C62.7736 60.4743 62.4379 60.9069 62.1042 61.3367C62.0023 61.468 61.9006 61.599 61.8 61.73C60.82 63 59.79 64.23 58.75 65.46C57.03 67.36 55.29 69.25 53.37 70.96C52.38 71.81 51.35 72.61 50.28 73.35H50.29C49.29 74.01 48.27 74.62 47.2001 75.16C46.2001 75.65 45.1801 76.08 44.13 76.46L44.0701 76.48C44.0665 76.48 44.0629 76.4813 44.0594 76.4829L44.055 76.485C44.05 76.4875 44.045 76.49 44.04 76.49C42.81 76.89 41.57 77.22 40.3101 77.48C39.16 77.7 38.02 77.87 36.86 77.99C36.14 78.07 35.42 78.15 34.7101 78.22C34.4451 78.23 34.1776 78.2375 33.91 78.245C33.6425 78.2525 33.375 78.26 33.11 78.27C32.9228 78.2765 32.7335 78.2864 32.5433 78.2962L32.5415 78.2963C32.1534 78.3164 31.7622 78.3367 31.38 78.33L28.02 78.24C27.6013 78.2101 27.1851 78.1802 26.7689 78.1503C26.3501 78.1202 25.9313 78.0901 25.51 78.06C23.91 77.95 22.32 77.72 20.74 77.41C19.73 77.19 18.7401 76.92 17.76 76.59C17.11 76.34 16.47 76.07 15.8401 75.77C14.9901 75.33 14.1801 74.84 13.38 74.32C12.33 73.58 11.28 72.83 10.3 71.99C9.73004 71.49 9.20001 70.96 8.69006 70.4C7.89001 69.47 7.19 68.49 6.48999 67.49C6.03003 66.79 5.57001 66.1 5.12 65.39C4.91003 65.05 4.69 64.71 4.47998 64.37C4.43127 64.291 4.38312 64.211 4.33478 64.1306C4.09546 63.7325 3.85101 63.326 3.51001 63.01C2.88007 62.41 1.88004 62.3 1.18002 62.86C0.730011 63.22 0.470032 63.75 0.470032 64.33C0.470032 64.89 0.740021 65.4 1.16003 65.72C1.27792 65.9081 1.39548 66.0962 1.51294 66.2842L1.51349 66.2851C2.28265 67.5159 3.04871 68.7418 3.89001 69.93C4.96002 71.45 6.06006 72.93 7.44006 74.18C8.21002 74.89 9.02002 75.57 9.87 76.18C11.27 77.17 12.66 78.14 14.1901 78.91C16.53 80.1 19.09 80.78 21.67 81.19C24.18 81.59 26.73 81.77 29.26 81.83C29.95 81.85 30.64 81.88 31.29 81.94C31.402 81.94 31.5167 81.94 31.6326 81.9387C31.7443 81.9374 31.8571 81.9349 31.97 81.93C32.6529 81.9007 33.3454 81.8809 34.0288 81.8614L34.0801 81.86C34.1492 81.8579 34.2187 81.8563 34.2885 81.8547C34.5616 81.8483 34.8394 81.8419 35.11 81.81C36.23 81.69 37.34 81.57 38.4601 81.45C39.5701 81.33 40.67 81.11 41.75 80.86C42.98 80.57 44.2001 80.25 45.39 79.82C49.85 78.23 53.91 75.56 57.25 72.21L57.4117 72.0483C58.8083 70.652 60.2091 69.2516 61.48 67.74C61.8188 67.3364 62.1575 66.9354 62.4963 66.5344L62.5085 66.5199C62.8457 66.1208 63.1829 65.7216 63.52 65.32C63.956 64.7983 64.3664 64.251 64.7768 63.7038C64.9407 63.4853 65.1046 63.2668 65.27 63.05C66.3901 61.59 67.41 60.03 68.37 58.45C68.84 57.67 69.3 56.9 69.73 56.09C69.8384 55.8852 69.9486 55.681 70.0588 55.4766C70.4061 54.8329 70.754 54.188 71.05 53.52C71.1647 53.2619 71.2778 53.0038 71.3905 52.7464C71.5529 52.3755 71.7147 52.006 71.88 51.64C72.01 51.37 72.14 51.1 72.24 50.82C72.3618 50.4843 72.488 50.1497 72.6141 49.815L72.6183 49.8036C72.8741 49.1254 73.1298 48.4471 73.35 47.76C74.15 45.27 74.71 42.7 74.92 40.09C75.15 37.33 75.13 34.55 74.62 31.82C74.13 29.21 73.3101 26.72 72.13 24.34C71.55 23.16 70.89 22.04 70.17 20.95C69.59 20.08 68.97 19.21 68.28 18.43C68.2709 18.4163 68.2598 18.4047 68.2484 18.3933C68.2348 18.3797 68.2209 18.3663 68.2101 18.35C68.0825 18.2053 67.9553 18.0599 67.8279 17.9143L67.8154 17.8999C67.2781 17.2856 66.7384 16.6684 66.16 16.09C65.42 15.35 64.67 14.63 63.9 13.92C63.1301 13.22 62.35 12.55 61.5601 11.88C61.0041 11.4102 60.4237 10.9772 59.8475 10.5474L59.8407 10.5423C59.6833 10.4249 59.5262 10.3077 59.37 10.19C58.37 9.42999 57.2401 8.76998 56.12 8.19999C55.13 7.69999 54.1201 7.24 53.0801 6.86C52.8047 6.76164 52.5285 6.66249 52.252 6.56321C51.5444 6.30923 50.8347 6.05444 50.13 5.80999C50.0193 5.77124 49.9086 5.73228 49.7979 5.69311C50.0617 5.65466 50.3259 5.61686 50.59 5.58C51.7821 5.39799 52.9824 5.29879 54.1835 5.19953L54.54 5.16999C56.13 5.03999 57.72 4.89999 59.31 4.72C60.68 4.55999 62.07 4.38 63.43 4.1C64.37 3.89999 64.9 2.79998 64.66 1.91999C64.54 1.47999 64.24 1.08999 63.85 0.859996C63.43 0.609996 62.96 0.579982 62.49 0.679988C62.45 0.689983 62.4075 0.697475 62.3651 0.704967C62.3226 0.712474 62.28 0.719981 62.24 0.729991C62.32 0.709987 62.4 0.699977 62.47 0.679988C61.11 0.919978 59.73 1.09999 58.36 1.25999C57.4816 1.35624 56.6069 1.43078 55.7313 1.50538C55.1516 1.55479 54.5716 1.60423 53.99 1.66C53.6522 1.69284 53.3138 1.72402 52.9752 1.75524C51.8702 1.85711 50.7622 1.95925 49.66 2.11999C49.4099 2.15768 49.1574 2.19184 48.9042 2.2261C48.4184 2.29183 47.9299 2.35795 47.45 2.44999C47.0351 2.53498 46.6202 2.61747 46.2053 2.69996C45.7902 2.78247 45.3751 2.86497 44.96 2.94999C44.5601 2.95999 44.19 3.00997 43.81 3.14999Z"
    fill="rgba(191, 192, 191, 1)" />
</svg>