<?xml version="1.0" encoding="UTF-8" standalone="yes"?>
<svg width="70" height="74" viewBox="-40 -40 150 154" fill="none" xmlns="http://www.w3.org/2000/svg">
  <path
    d="M29.26 73.86C26.53 73.71 23.82 73.1801 21.24 72.2701C18.64 71.3501 16.19 70.0701 13.87 68.5901C11.59 67.1401 9.44003 65.51 7.51003 63.63C5.68003 61.84 4.16003 59.7 3.01003 57.41C1.80003 55.01 1.01004 52.44 0.520039 49.8C0.0100387 47.09 -0.00996858 44.3301 0.200031 41.5901C0.610031 36.1101 2.07004 30.64 4.52004 25.73C6.93004 20.89 10.4 16.62 14.4 13C17.18 10.49 20.22 8.27001 23.44 6.35001C26.78 4.35001 30.38 2.76002 34.15 1.77002C35.98 1.29002 37.88 0.990029 39.77 0.780029C41.22 0.620029 42.68 0.420044 44.14 0.420044C44.79 0.420044 45.37 0.790038 45.68 1.32004C45.94 1.27004 46.21 1.28002 46.47 1.36002C47.67 1.75002 48.88 2.12003 50.07 2.56003C51.36 3.02003 52.61 3.70003 53.77 4.44003C55.12 5.30003 56.38 6.32003 57.64 7.31003C58.97 8.35003 60.28 9.40003 61.5 10.56C63.4 12.36 64.96 14.4501 66.14 16.7801C67.37 19.2001 68.18 21.83 68.76 24.48C69.36 27.16 69.71 29.89 69.83 32.63C70.05 38.11 68.95 43.6 67.1 48.74C66.17 51.35 64.94 53.86 63.43 56.19C61.97 58.44 60.23 60.49 58.32 62.37C54.56 66.08 50.05 69.12 45.18 71.16C42.7 72.2 40.09 72.91 37.45 73.37C35.39 73.73 33.3 73.92 31.21 73.92C30.55 73.91 29.9 73.89 29.26 73.86ZM6.14003 55.76C6.55003 56.56 7.00002 57.3401 7.50002 58.0901C8.04002 58.8701 8.62002 59.61 9.25002 60.32C9.83002 60.95 10.45 61.55 11.09 62.12C12.25 63.13 13.47 64.06 14.74 64.92C16.15 65.87 17.61 66.76 19.13 67.5201C20.25 68.0701 21.4 68.56 22.57 68.98C23.64 69.34 24.73 69.63 25.83 69.86C26.86 70.06 27.88 70.2 28.92 70.29C30.37 70.39 31.82 70.39 33.27 70.3C33.19 70.31 33.1101 70.31 33.03 70.32C34.66 70.21 36.27 69.99 37.87 69.68C39.27 69.39 40.64 69.02 41.99 68.57C43.31 68.11 44.58 67.57 45.84 66.95C47.39 66.17 48.88 65.3001 50.32 64.3401C51.72 63.3901 53.05 62.36 54.32 61.24C54.27 61.29 54.21 61.34 54.15 61.39C55.34 60.33 56.47 59.2201 57.54 58.0301C57.56 58.0101 57.57 57.99 57.59 57.97C58.56 56.85 59.47 55.6801 60.3 54.4601C60.26 54.5201 60.21 54.5801 60.17 54.6501C60.9 53.5401 61.56 52.4001 62.17 51.2101C62.88 49.7501 63.5 48.25 64.04 46.72C64.63 44.97 65.12 43.19 65.5 41.38C65.84 39.71 66.07 38.03 66.2 36.33C66.3 34.73 66.3 33.1301 66.2 31.5301C66.06 29.6701 65.81 27.82 65.45 25.99C65.12 24.41 64.71 22.86 64.2 21.33C63.84 20.33 63.45 19.34 62.98 18.38C62.6 17.66 62.2 16.9601 61.76 16.2801C61.35 15.6901 60.92 15.12 60.45 14.58C59.77 13.83 59.06 13.1 58.31 12.42C57.34 11.57 56.33 10.77 55.31 9.97C54.29 9.17 53.27 8.37004 52.2 7.63004C51.58 7.22004 50.93 6.84002 50.26 6.49002C49.68 6.21002 49.09 5.95 48.49 5.72C47.5 5.38 46.5 5.07002 45.5 4.74002C45.04 4.59002 44.66 4.28006 44.44 3.90005C44.33 3.92005 44.23 3.93002 44.12 3.93002C43.86 3.93002 43.6 3.95005 43.35 3.96005C41.06 4.15005 38.78 4.38004 36.54 4.82004C35.16 5.11004 33.81 5.49003 32.48 5.94003C32.48 5.94003 32.49 5.94002 32.5 5.93002C30.98 6.47002 29.5 7.11004 28.04 7.82004C26.19 8.76004 24.4 9.82001 22.67 10.98C22.73 10.94 22.79 10.89 22.86 10.85C20.83 12.22 18.9 13.71 17.06 15.32C15.72 16.52 14.45 17.79 13.24 19.13C12.06 20.47 10.97 21.8701 9.96999 23.3401C9.96999 23.3301 9.98 23.33 9.98 23.32C9.96 23.34 9.95001 23.37 9.93001 23.39C9.92001 23.41 9.91004 23.42 9.90004 23.43L9.88002 23.45V23.4601C9.87002 23.4701 9.85999 23.49 9.84999 23.5C9.04999 24.71 8.31999 25.9701 7.65999 27.2701C7.65999 27.2701 7.66 27.26 7.67 27.26C7 28.62 6.42004 30.02 5.90004 31.45C5.29004 33.22 4.79999 35.0101 4.40999 36.8401C4.02999 38.7301 3.78003 40.64 3.64003 42.57C3.57003 43.82 3.57003 45.07 3.64003 46.33C3.73003 47.51 3.89 48.67 4.11 49.83C4.34 50.88 4.62004 51.92 4.96004 52.94C5.31004 53.92 5.70003 54.85 6.14003 55.76Z"
    fill="rgba(191, 192, 191, 1)" />
  <path d="M7.67999 27.29C7.66999 27.3 7.67999 27.3 7.67999 27.29C7.66999 27.3 7.66999 27.3 7.67999 27.29Z"
    fill="rgba(191, 192, 191, 1)" />
  <path
    d="M9.94 23.41C9.95 23.39 9.95998 23.37 9.97998 23.36C9.95998 23.39 9.93998 23.42 9.91998 23.45C9.91998 23.44 9.94 23.42 9.94 23.41Z"
    fill="rgba(191, 192, 191, 1)" />
  <path
    d="M18.49 53.87C17.83 53.36 17.55 52.3 18.04 51.57C18.07 51.53 18.1 51.48 18.13 51.44C18.18 51.36 18.24 51.28 18.3 51.21C18.63 50.79 19.01 50.41 19.37 50.03C19.77 49.6 20.18 49.17 20.58 48.74C21.3 47.97 22.02 47.2 22.74 46.44C23.92 45.18 25.1 43.9 26.29 42.65C29.14 39.69 31.99 36.72 34.88 33.8C37.27 31.39 39.71 29.02 42 26.52C41.72 26.5 41.44 26.48 41.16 26.47C40.35 26.42 39.55 26.42 38.74 26.42C38.03 26.42 37.31 26.49 36.6 26.54C35.57 26.66 34.54 26.77 33.51 26.89C32.55 27.12 31.59 27.34 30.63 27.58C28.97 27.99 27.31 28.4 25.63 28.71C24.86 28.85 24.06 28.35 23.76 27.65C23.44 26.9 23.69 26.06 24.31 25.56C24.87 25.11 25.61 24.96 26.29 24.79C26.74 24.67 27.19 24.54 27.65 24.44C28.6 24.23 29.54 24.01 30.5 23.83C31.24 23.69 31.98 23.54 32.73 23.43C34.76 22.95 36.8 22.52 38.88 22.29C40.12 22.15 41.41 22.08 42.65 22.2C43.79 22.31 44.89 22.49 45.81 23.19C46.42 23.22 47.04 23.27 47.63 23.49C48.07 23.66 48.49 23.88 48.83 24.22C49.24 24.63 49.51 25.16 49.7 25.7C50.08 26.79 50.12 27.91 50.08 29.06C50.03 30.32 49.91 31.58 49.69 32.82C49.5 33.92 49.31 35.02 49.12 36.11C48.8 38.02 48.39 39.91 48.22 41.84C48.21 42.11 48.2 42.39 48.22 42.66C48.22 42.7 48.23 42.74 48.24 42.78C48.26 42.87 48.29 42.96 48.31 43.06C48.58 43.99 47.99 44.99 47.08 45.24C46.14 45.5 45.17 44.93 44.9 44C44.47 42.51 44.75 40.96 44.96 39.45C45.09 38.5 45.27 37.56 45.44 36.62C45.86 34.3 46.34 31.95 46.51 29.59C46.54 29 46.56 28.41 46.55 27.82C46.53 27.63 46.51 27.45 46.48 27.26C46.45 27.12 46.41 26.99 46.37 26.85C46.36 26.83 46.35 26.81 46.34 26.79C46 27.37 45.51 27.89 45.08 28.37C43.74 29.87 42.34 31.31 40.92 32.74C38.15 35.54 35.36 38.32 32.62 41.14C30.07 43.77 27.56 46.44 25.05 49.11C23.76 50.49 22.45 51.86 21.17 53.24C21.14 53.28 21.11 53.31 21.08 53.35C21.01 53.47 20.92 53.58 20.81 53.68C20.45 54.01 20 54.19 19.54 54.19C19.17 54.23 18.81 54.11 18.49 53.87Z"
    fill="rgba(191, 192, 191, 1)" />
</svg>