<?xml version="1.0" encoding="UTF-8" standalone="yes"?>
<svg width="54" height="227" viewBox="-40 -40 134 307" fill="none" xmlns="http://www.w3.org/2000/svg">
  <path fill-rule="evenodd" clip-rule="evenodd"
    d="M26.1888 0.582072C25.9606 0.810332 25.7994 1.40108 25.7994 1.88446C25.7994 2.40811 25.316 4.52964 24.685 6.63769C24.0673 8.71889 21.2611 18.373 18.4548 28.0539C10.9893 53.7667 6.98799 67.234 2.28849 82.0978C0.073012 89.1067 0.073012 89.4021 1.96624 92.3695C3.99374 95.498 9.88826 100.251 11.7412 100.251C12.7482 100.251 15.4605 99.0427 17.4075 97.7134C19.6901 96.1827 19.6229 96.1828 19.0724 97.8746C18.8173 98.7205 17.3403 104.064 15.8096 109.677C14.2789 115.316 12.6543 121.117 12.1977 122.553C11.4458 124.903 11.419 125.36 11.7412 126.823C12.426 129.858 15.5545 133.631 20.4151 137.283C22.107 138.559 22.832 139.311 22.7246 139.66C22.3352 140.935 20.4823 152.496 18.9382 162.996C17.4746 173.16 15.7425 184.023 15.5142 184.278C15.4874 184.305 13.8493 182.774 11.9023 180.827C9.59286 178.544 7.49822 176.785 5.94068 175.872C3.63121 174.503 3.52379 174.476 3.06727 175.053C2.35563 176.06 2.86586 178.84 5.94068 189.555C6.85372 192.683 8.29043 197.96 9.16319 201.29C11.862 211.521 12.1574 212.273 14.6683 215.536C18.052 219.94 22.5903 223.914 26.3365 225.875C28.9414 227.217 31.224 224.304 36.2457 213.2C37.6422 210.165 41.0661 203.264 43.8724 197.879C46.6384 192.495 50.0623 185.849 51.4721 183.15L53.9427 178.195L53.0968 176.436C51.7004 173.563 46.2221 168.192 43.0533 166.594L41.9389 166.004L40.999 167.118C40.5156 167.736 38.1658 170.958 35.7892 174.315C33.4395 177.672 31.4925 180.384 31.4523 180.344C31.412 180.303 31.8819 177.081 32.4593 173.174C34.0303 163.17 36.1786 152.832 39.0386 141.66C41.2272 133.053 41.4823 131.684 41.5092 128.784C41.5763 126.045 41.4421 125.266 40.8244 123.923C39.6562 121.345 37.8973 119.291 34.084 116.001C31.7745 114.014 30.5258 112.711 30.5929 112.349C30.6601 112.054 32.325 106.911 34.3122 100.909C37.4676 91.3893 37.9241 89.6975 37.9644 87.7103C37.9913 85.5888 37.8973 85.2666 36.7291 83.3465C35.1044 80.6745 29.9216 75.2903 27.6658 73.961C24.5104 72.0409 24.5641 72.0409 19.5827 76.0422C14.0372 80.5134 14.3326 80.3388 14.7623 78.8484C15.6082 75.6528 20.6568 59.1912 24.8998 45.6702C27.5047 37.426 30.2438 28.6178 30.9957 26.1069C31.7477 23.5961 33.0232 19.5545 33.802 17.1377C35.7624 11.0686 36.0846 9.30964 35.373 7.94008C34.7151 6.66451 30.7138 2.43497 28.9145 1.13255C27.545 0.125516 26.793 -0.0355732 26.1754 0.582072H26.1888Z"
    fill="rgba(191, 192, 191, 1)" />
</svg>