<?xml version="1.0" encoding="UTF-8" standalone="yes"?>
<svg width="84" height="73" viewBox="-40 -40 164 153" fill="none" xmlns="http://www.w3.org/2000/svg">
  <path fill-rule="evenodd" clip-rule="evenodd"
    d="M54.04 50.18C53.7978 49.7682 53.6989 49.2392 53.6067 48.7454L53.605 48.7361C53.5836 48.6215 53.5625 48.5089 53.54 48.4C53.32 47.43 53.13 46.45 53 45.46C52.9728 45.2383 52.9467 45.0161 52.9206 44.7936L52.8807 44.4559L52.8563 44.252C52.8015 43.7988 52.7432 43.3461 52.6725 42.8968C52.2602 43.89 51.88 44.8991 51.4997 45.9083C51.3373 46.3393 51.1749 46.7703 51.01 47.2C50.8589 47.6028 50.7099 48.0036 50.5621 48.4041C50.387 48.8786 50.2135 49.3528 50.04 49.83C50.0125 49.9056 49.9859 49.9826 49.9597 50.0606C49.9371 50.1278 49.9148 50.1957 49.8923 50.2639L49.8908 50.2683C49.6357 51.0438 49.3651 51.8661 48.56 52.21C46.5399 53.069 45.5445 50.3193 44.9936 48.7972L44.9901 48.7878L44.9859 48.776L44.9519 48.6823C44.9342 48.6332 44.9168 48.5858 44.9 48.54C44.5963 47.6987 44.3379 46.8423 44.0789 45.9839L44.078 45.9806L43.96 45.59C43.79 45.13 43.61 44.68 43.42 44.23C43.3166 44.0356 43.2121 43.8431 43.1072 43.6516C43.0311 43.5128 42.9548 43.3746 42.8785 43.2365L42.8591 43.2012L42.8576 43.1986L42.722 42.9527L42.6416 42.8066C42.5325 42.6078 42.4241 42.4086 42.3172 42.208C42.261 42.1025 42.2052 41.9965 42.15 41.89C41.73 41.05 41.3299 40.21 40.93 39.37C40.8745 39.267 40.8183 39.1639 40.7614 39.0612C40.7064 38.9616 40.6507 38.8622 40.5944 38.7632C40.5457 38.6777 40.4965 38.5923 40.4469 38.5074C40.3886 38.4077 40.3296 38.3085 40.27 38.21C40.234 38.153 40.1971 38.0969 40.1595 38.0414C40.072 37.912 39.981 37.7859 39.89 37.66C39.83 37.65 39.77 37.64 39.7 37.64H39.4699C39.3599 37.65 39.26 37.66 39.15 37.68C38.8186 37.7537 38.5041 37.8527 38.1833 37.9538L38.0999 37.98C37.7499 38.12 37.3999 38.26 37.06 38.42C36.54 38.7 36.06 39.01 35.57 39.34C35.23 39.6 34.8799 39.86 34.55 40.14C34.29 40.38 34.04 40.63 33.8 40.89C33.6299 41.1 33.4699 41.3101 33.31 41.53C33.13 41.8 32.9699 42.08 32.81 42.37C32.7051 42.5915 32.6069 42.8164 32.5116 43.0428C32.4435 43.2047 32.3767 43.3674 32.31 43.53C31.8999 44.8 31.5699 46.08 31.29 47.39C31.2968 47.3627 31.3036 47.3354 31.31 47.3084C31.07 48.499 30.8304 49.6895 30.5999 50.88L30.5478 51.1543C30.3046 52.4318 30.0627 53.7028 29.96 55C29.94 55.41 29.94 55.81 29.96 56.22C30.05 57.18 30.1899 58.11 30.36 59.04C30.5999 60.13 30.84 61.22 31.09 62.3C31.33 63.31 31.6399 64.3 31.98 65.28C32.1399 65.71 32.32 66.1201 32.51 66.53C32.82 67.08 33.1499 67.62 33.5 68.15C33.7228 68.4471 33.966 68.7305 34.2071 69.0115L34.3029 69.1232L34.36 69.19C34.9099 69.81 35.1599 70.75 34.6599 71.49C34.4899 71.75 34.3 71.97 34.02 72.13C33.78 72.27 33.5199 72.33 33.25 72.38C33.1519 72.4002 33.0488 72.4104 32.9433 72.4147C32.7898 72.421 32.6312 72.4147 32.4759 72.4085H32.4742L32.4689 72.4083L32.463 72.4081C32.4155 72.4062 32.3684 72.4044 32.3218 72.4029C32.2669 72.4012 32.2129 72.4 32.1599 72.4C31.8537 72.4 31.5499 72.3975 31.2474 72.395C30.9475 72.3925 30.6487 72.39 30.3499 72.39C30.0853 72.39 29.8207 72.3898 29.556 72.3895H29.5529C27.4386 72.3876 25.3243 72.3856 23.21 72.51C22.346 72.574 21.4821 72.6124 20.6181 72.6508C20.4021 72.6604 20.186 72.67 19.9699 72.68C19.4699 72.72 18.98 72.76 18.48 72.81C18.4178 72.8167 18.3556 72.8235 18.2934 72.8306C18.2157 72.8394 18.138 72.8484 18.0603 72.8575L18.0581 72.8577C17.6387 72.9063 17.2193 72.955 16.8 72.97C16.54 72.98 16.27 72.98 16.01 72.98C15.2 72.95 14.3499 72.92 13.49 72.91C12.6974 72.9028 11.9048 72.8702 11.1122 72.8375C10.7947 72.8245 10.4773 72.8114 10.1599 72.8C10.0925 72.7974 10.0251 72.795 9.95761 72.7927L9.84165 72.7888C9.41776 72.7744 8.99387 72.7599 8.56998 72.72C8.45603 72.7109 8.34207 72.6986 8.228 72.6846C8.17289 72.6778 8.11771 72.6705 8.06253 72.663C7.96561 72.6498 7.86863 72.6359 7.77146 72.6218L7.76303 72.6205L7.76065 72.6204C7.52854 72.5868 7.29532 72.5531 7.05997 72.53C5.75602 72.4581 4.44394 72.4589 3.1384 72.4598L2.69999 72.46C1.73996 72.45 0.929966 71.66 0.929966 70.69C0.929966 70.53 0.949924 70.38 0.989963 70.24C0.731174 69.4385 0.91843 68.5396 1.09207 67.7059C1.12644 67.541 1.16025 67.3785 1.18998 67.22C1.37668 66.2424 1.53025 65.2619 1.68375 64.2817C1.80973 63.477 1.9357 62.6725 2.07999 61.87C2.42997 59.95 2.80991 58.01 3.47995 56.17C3.96408 54.8693 4.49527 53.5947 5.02817 52.3159L5.02872 52.3146C5.1514 52.0203 5.27414 51.7256 5.39646 51.4304C5.47788 51.2339 5.55912 51.0372 5.63999 50.84C6.34995 49.11 7.17997 47.45 8.11997 45.83C9.09995 44.16 10.0999 42.5 11.24 40.94C12.069 39.8143 12.9848 38.7349 13.8951 37.6622L13.8994 37.657C14.1845 37.3211 14.469 36.9858 14.75 36.65C15.9599 35.21 17.2099 33.81 18.56 32.5C19.94 31.15 21.46 29.97 23.02 28.84C24.55 27.73 26.1399 26.69 27.75 25.7C29.2699 24.75 30.86 23.93 32.53 23.27C33.39 22.93 34.3 22.73 35.21 22.56L35.2939 22.5446C35.3504 22.5342 35.4069 22.5243 35.4634 22.5146C35.4965 22.5089 35.5296 22.5034 35.5627 22.4979C35.5932 22.4929 35.6238 22.4879 35.6544 22.4831C35.8263 22.4558 35.9981 22.4315 36.17 22.41C35.9399 21.49 35.6599 20.57 35.36 19.67L34.9735 18.5226L34.9649 18.4969C34.8516 18.1608 34.7384 17.8252 34.6256 17.4895C34.5141 17.1577 34.4029 16.8257 34.2921 16.493C34.2011 16.2193 34.1103 15.9451 34.02 15.67C33.8217 15.0649 33.6364 14.4548 33.4508 13.8435L33.4466 13.8296L33.4444 13.8224L33.444 13.8212C33.3568 13.5338 33.2695 13.2462 33.1808 12.9588C33.0893 12.6622 32.9961 12.3658 32.9 12.07C32.69 11.52 32.4699 10.98 32.2199 10.45C31.9099 9.85004 31.5899 9.26001 31.23 8.67999C30.9699 8.25 30.6599 7.84003 30.43 7.40002C30.2199 7.01001 30.0999 6.60999 30.04 6.16998C29.8999 5.17999 30.61 4.15997 31.63 4.04999C32.0999 4 32.54 4.12 32.99 4.25C33.3407 4.34564 33.6914 4.435 34.037 4.52301L34.0408 4.52393L34.3 4.59003C35.0599 4.79004 35.8299 4.95001 36.5999 5.10999C37.8299 5.38 39.05 5.70001 40.21 6.17999C40.98 6.5 41.7599 6.80005 42.54 7.09003C42.8514 7.18732 43.1634 7.28278 43.476 7.37628L43.4099 7.04004C43.373 6.85156 43.3359 6.66309 43.2987 6.47461C43.2529 6.2431 43.2068 6.0116 43.1599 5.78003C42.9699 4.92004 42.77 4.07001 42.5 3.22998C42.18 2.88995 42.01 2.41998 41.99 1.95001C41.95 1.15002 42.57 0.400024 43.32 0.200012C43.77 0.0700072 44.2 0.130005 44.58 0.320007C44.77 0.340027 44.96 0.360046 45.15 0.400024L45.1564 0.401306C45.3348 0.43866 45.5131 0.476013 45.6907 0.514099C45.9392 0.567322 46.1863 0.621948 46.43 0.679993C47.11 0.849975 47.77 1.03998 48.44 1.23999C49.0023 1.41364 49.5578 1.60266 50.1128 1.79156C50.9001 2.05951 51.6864 2.32709 52.49 2.54999L52.7038 2.60736C53.3044 2.76843 53.9112 2.93121 54.51 3.10999C55.24 3.33997 55.97 3.59003 56.69 3.84003C57.0622 3.9682 57.4418 4.08514 57.8221 4.20227L57.836 4.20648C57.9552 4.24323 58.0744 4.28003 58.1935 4.31714L58.322 4.35742C58.3981 4.38141 58.4741 4.40552 58.55 4.42999C59.3499 4.69 60.14 4.97998 60.93 5.26001C60.8933 5.24426 60.8566 5.23126 60.8185 5.21814L60.7719 5.20221L60.7362 5.18958L60.71 5.17999C60.8561 5.22528 61.0023 5.26886 61.1487 5.3111C61.3387 5.36597 61.529 5.41858 61.7194 5.46991C61.9958 5.54449 62.2725 5.61633 62.549 5.68811C62.94 5.78961 63.3307 5.89099 63.7199 6C64.1155 6.10101 64.5041 6.23749 64.8914 6.37354L64.909 6.37976L65.11 6.45001C65.5199 6.58002 65.94 6.68005 66.36 6.78003C67.0999 6.90002 67.84 7.02002 68.57 7.21002C69.26 7.39001 69.95 7.56995 70.65 7.71997C70.878 7.76428 71.1064 7.80725 71.3347 7.84967C71.4904 7.8786 71.6462 7.90723 71.802 7.93585L71.8053 7.9364C72.8125 8.1217 73.8191 8.30688 74.81 8.56C75.5999 8.76001 76.38 8.98999 77.14 9.27002C77.5528 9.41748 77.9552 9.59967 78.3574 9.7818C78.6372 9.90851 78.9169 10.0352 79.2 10.15C79.67 10.3 80.15 10.42 80.64 10.53C80.6817 10.5394 80.7235 10.5485 80.7654 10.5576L80.8602 10.5777L80.9427 10.5951L80.9472 10.596C81.3396 10.6784 81.7354 10.7615 82.0999 10.92C82.61 11.15 83.0799 11.62 83.2199 12.18L83.2282 12.2131C83.3053 12.5208 83.3783 12.8118 83.33 13.14C83.28 13.53 83.15 13.92 82.95 14.26C82.5015 15.0265 81.8934 15.6866 81.2885 16.3433C81.1515 16.4919 81.0147 16.6404 80.88 16.79C80.26 17.54 79.67 18.29 79.11 19.09L78.9162 19.3867L78.9153 19.388C78.2809 20.3597 77.6457 21.3328 76.92 22.24C76.1681 23.1798 75.3441 24.0555 74.5199 24.9317L74.2299 25.24C73.86 25.69 73.5099 26.14 73.1599 26.6C73.0962 26.696 73.0331 26.7923 72.9702 26.8887C72.8393 27.0895 72.71 27.2908 72.5808 27.4918L72.58 27.4931L72.5786 27.4953C72.1571 28.1512 71.7372 28.8048 71.27 29.43C71.0576 29.7173 70.8423 30.0027 70.6269 30.2883L70.6197 30.2977C70.1476 30.9233 69.6747 31.5499 69.2299 32.2C68.3 33.61 67.36 35.0099 66.4099 36.41C66.4157 36.3999 66.4217 36.39 66.4278 36.3803C66.4468 36.3499 66.467 36.3213 66.4857 36.2935C66.5024 36.2686 66.5179 36.2443 66.53 36.22C65.8 37.33 65.0799 38.45 64.29 39.52C63.9933 39.9224 63.6867 40.3165 63.3803 40.7103L63.3796 40.7114C62.9323 41.2862 62.4851 41.861 62.07 42.46C61.96 42.62 61.86 42.79 61.76 42.96C61.48 43.58 61.19 44.17 60.8 44.74L59.93 45.97C59.8409 46.0959 59.7536 46.2228 59.6666 46.3495C59.4703 46.6352 59.2748 46.9198 59.06 47.19C58.7 47.66 58.31 48.1 57.92 48.54V48.53C57.7799 48.69 57.65 48.85 57.52 49.02C57.5 49.14 57.48 49.27 57.46 49.4C57.35 49.99 57.07 50.52 56.53 50.83C56.25 50.99 55.95 51.07 55.65 51.07C55 51.11 54.38 50.76 54.04 50.18ZM55.7165 40.4403C55.7229 40.4642 55.7292 40.488 55.7356 40.5119C55.9422 41.2824 56.1486 42.0525 56.25 42.85L56.49 44.74C56.916 44.1691 57.313 43.5837 57.7181 43.0023C57.7884 42.9014 57.859 42.8006 57.93 42.7C57.9666 42.64 58.0034 42.581 58.0401 42.522L58.0747 42.4666L58.1166 42.399L58.1562 42.3344C58.1908 42.2776 58.2254 42.2198 58.26 42.16C58.51 41.61 58.7599 41.07 59.0999 40.56C59.43 40.07 59.78 39.59 60.15 39.11C60.2198 39.0179 60.2898 38.926 60.3599 38.8342C60.4811 38.6755 60.6026 38.5172 60.7242 38.3589C60.8537 38.1901 60.9832 38.0215 61.1122 37.8524C60.3462 38.2509 59.5865 38.6763 58.81 39.06C58.1252 39.4024 57.4274 39.7014 56.7309 39.9999C56.3919 40.1452 56.0533 40.2903 55.7165 40.4403ZM63.4818 34.458C62.9845 34.0107 62.2495 33.8599 61.5999 34.13C61.5899 34.14 61.5799 34.14 61.56 34.15C61.5524 34.15 61.5448 34.1558 61.5329 34.1586C61.5291 34.1594 61.5248 34.16 61.52 34.16C61.4579 34.16 61.4037 34.1679 61.3433 34.1767L61.32 34.18H61.38C61.0299 34.2 60.6999 34.24 60.3499 34.32C60.0082 34.3969 59.6665 34.5905 59.3497 34.77C59.2957 34.8007 59.2424 34.8309 59.19 34.86C58.905 35.01 58.62 35.1625 58.3349 35.315C58.05 35.4675 57.765 35.62 57.48 35.77C56.8697 36.071 56.253 36.3522 55.6241 36.6189C56.0656 35.7712 56.5197 34.9278 56.9809 34.0877C57.014 34.0892 57.047 34.09 57.08 34.09C57.65 34.09 58.23 33.87 58.75 33.61C59.31 33.33 59.87 33.06 60.43 32.78C61.21 32.4 62.01 32.04 62.81 31.69C64.0091 31.172 65.1982 30.6439 66.3808 30.1022C66.0006 30.6497 65.6353 31.2099 65.2705 31.7695L65.2579 31.7889L65.2458 31.8074L65.2343 31.8252L65.0996 32.0316L64.9937 32.1935C64.894 32.3459 64.794 32.498 64.6934 32.6496C64.6681 32.6844 64.6424 32.7206 64.62 32.76L64.6934 32.6496C64.7058 32.6324 64.7182 32.6155 64.7301 32.5988C64.7369 32.5892 64.7436 32.5796 64.75 32.57C64.3233 33.1971 63.902 33.8269 63.4818 34.458ZM62 28.18C61.2176 28.5217 60.4431 28.8716 59.6697 29.2295L60.3713 27.9384C60.7011 27.3317 61.0318 26.7254 61.3658 26.1207C61.4359 26.1459 61.5073 26.167 61.5795 26.1843C61.7015 26.2135 61.8257 26.2317 61.95 26.24C62.0395 26.24 62.129 26.2344 62.217 26.2233C62.2962 26.2134 62.3742 26.1989 62.45 26.18C62.53 26.16 62.5999 26.14 62.67 26.11C63.1148 25.9401 63.54 25.6983 63.9615 25.4586C64.0201 25.4252 64.0787 25.3919 64.1372 25.3589C64.1782 25.3358 64.2191 25.3128 64.26 25.29L64.264 25.2878C64.5327 25.1385 64.8012 24.9893 65.06 24.84L67.0399 23.67L67.6134 23.3188C68.7918 22.5974 69.9684 21.8772 71.13 21.12C72.0658 20.5121 73.0273 19.9553 73.9888 19.3986L74.3028 19.2167C74.4386 19.1379 74.5744 19.0591 74.71 18.98C74.8333 18.9088 74.9566 18.8373 75.0797 18.7656L75.01 18.87C74.57 19.48 74.12 20.08 73.64 20.67C73.5042 20.8215 73.3673 20.972 73.2296 21.122C73.1443 21.2149 73.0588 21.3076 72.9731 21.4001C72.8805 21.5001 72.7877 21.6 72.6949 21.7C72.1331 22.3049 71.5702 22.9111 71.0399 23.55C70.397 24.3247 69.8495 25.1812 69.3069 26.0294L69.306 26.0309L69.3033 26.0351L69.3027 26.036L69.3003 26.0399C69.1869 26.2172 69.0738 26.3942 68.96 26.57C68.8717 26.6976 68.7825 26.8242 68.6926 26.9501C68.2731 26.1911 67.2739 25.7861 66.45 26.17C64.98 26.86 63.5 27.54 62 28.18ZM78.8228 13.7911L78.8499 13.76L78.7448 13.7337C78.7713 13.752 78.7973 13.7712 78.8228 13.7911ZM77.7308 13.4178C77.3724 13.2792 77.0204 13.1199 76.6693 12.9609C76.2775 12.7836 75.8869 12.6069 75.49 12.46C75.0751 12.328 74.6625 12.2094 74.248 12.0999C74.1061 12.3109 73.9182 12.4937 73.69 12.63C73.27 12.88 72.87 13.14 72.46 13.42C70.49 14.79 68.53 16.15 66.53 17.47C66.5097 17.4835 66.4895 17.4971 66.4695 17.5107L66.4248 17.5414C66.3842 17.6274 66.3424 17.7104 66.3 17.79C66.0884 18.1974 65.8523 18.5864 65.6157 18.9762L65.5357 19.108C65.497 19.1719 65.4584 19.2358 65.42 19.3C65.0983 19.8381 64.7652 20.3685 64.4325 20.8984L64.2311 21.2194C64.6188 20.9909 65.0049 20.7605 65.39 20.53C66.76 19.7 68.12 18.87 69.46 17.99C70.3531 17.4052 71.2712 16.8765 72.1945 16.3448C72.4395 16.2038 72.6847 16.0626 72.93 15.92C73.3091 15.6983 73.6873 15.475 74.0655 15.2518L74.0782 15.2443L74.0831 15.2413C74.9958 14.7024 75.9079 14.1638 76.83 13.65C77.1128 13.4918 77.4238 13.4163 77.7308 13.4178ZM65.4099 13.97L65.077 14.192C65.0403 14.1844 65.0036 14.1772 64.9671 14.1703C64.9366 14.1646 64.9062 14.1589 64.8757 14.1535L64.8464 14.1484L64.7913 14.1389C64.7497 14.132 64.7079 14.1254 64.666 14.1191C64.6209 14.1123 64.5757 14.106 64.53 14.1C64.4622 14.0912 64.3944 14.082 64.3266 14.0723C64.2594 14.0626 64.1922 14.0525 64.1253 14.0419C63.9515 14.0145 63.7791 13.9838 63.61 13.95C63.5505 13.9381 63.4911 13.9227 63.4296 13.9058C63.3876 13.8943 63.3446 13.8822 63.3 13.87C63.2849 13.865 63.2723 13.86 63.2598 13.855L63.2491 13.8508L63.2356 13.8455L63.2199 13.84C63.14 13.8071 63.0602 13.7739 62.9805 13.7406C63.0854 13.6469 63.1905 13.5536 63.2957 13.4604C63.3973 13.3704 63.4988 13.2803 63.5999 13.19C64.5299 12.44 65.47 11.69 66.44 10.98C66.6286 10.8422 66.7786 10.6699 66.8894 10.4772C66.9331 10.4847 66.9766 10.4922 67.02 10.5C67.46 10.5968 67.898 10.7091 68.3367 10.8215L68.3394 10.8223L68.5883 10.8859C68.687 10.9111 68.7857 10.936 68.8844 10.9607L69.019 10.9941C69.1935 11.0372 69.3682 11.079 69.5434 11.1186C69.1231 11.4112 68.7054 11.7082 68.2882 12.0048C67.8655 12.3054 67.4435 12.6055 67.02 12.9L66.8017 13.0454L66.2198 13.4318C65.9507 13.6104 65.6815 13.7889 65.4099 13.97ZM62.6811 9.40033L62.68 9.40002C62.3772 9.31818 62.0712 9.24304 61.7645 9.16779L61.6786 9.14667C61.5661 9.11902 61.4536 9.09125 61.3412 9.06311C61.052 9.26239 60.7635 9.46356 60.4749 9.66486L60.4699 9.66815C59.6483 10.2411 58.8251 10.8152 57.98 11.35C57.9439 11.3731 57.9076 11.3968 57.8707 11.4208C58.1563 11.5424 58.4395 11.6686 58.7199 11.8C58.9054 11.8871 59.0907 11.9744 59.2759 12.0616L59.2777 12.0626L59.483 12.1592C59.6789 11.9557 59.8905 11.7673 60.09 11.59C60.1645 11.524 60.2387 11.4574 60.3128 11.3905C60.3862 11.3242 60.4596 11.2575 60.533 11.1907L60.6971 11.0417L60.813 10.9371C61.0117 10.7584 61.2127 10.5811 61.42 10.41C61.838 10.072 62.2582 9.73395 62.6811 9.40033ZM54.39 9.40997C53.9592 9.3916 53.5367 9.52454 53.192 9.8241C53.0039 9.77258 52.8156 9.72241 52.6269 9.67334L52.4643 9.63135L52.355 9.60339L52.2264 9.57092L52.3401 9.46838C52.4364 9.3819 52.5331 9.29584 52.63 9.21002C52.8357 9.03296 53.0415 8.86047 53.2484 8.68927C53.3879 8.57385 53.5279 8.45898 53.6687 8.34375L53.93 8.13C54.3257 7.81342 54.56 7.35486 54.6048 6.87915C54.7469 6.92517 54.8886 6.97205 55.03 7.02002C55.6697 7.23938 56.3169 7.44751 56.9647 7.65588L57.0887 7.6958L56.2 8.29999C55.61 8.67999 55.0199 9.06006 54.4099 9.40002C54.4099 9.40002 54.4088 9.40118 54.4068 9.40271C54.4053 9.40393 54.4033 9.4054 54.401 9.40668C54.399 9.40778 54.3968 9.40875 54.3945 9.40936C54.393 9.40973 54.3915 9.40997 54.39 9.40997ZM51.123 5.85925C50.4804 5.66705 49.8437 5.45001 49.2091 5.23358L49.2072 5.23303C48.8878 5.12408 48.5689 5.01532 48.25 4.90997C47.6599 4.70996 47.06 4.52997 46.46 4.37C46.641 5.20435 46.8034 6.0387 46.9668 6.87787C47.011 7.10486 47.0552 7.33221 47.0999 7.56C47.1029 7.57794 47.1062 7.5957 47.1095 7.61322C47.1119 7.62537 47.1142 7.63745 47.1167 7.64941C47.122 7.67535 47.1277 7.70087 47.1333 7.72614C47.1463 7.78503 47.1595 7.84253 47.17 7.90002C47.17 7.92999 47.18 7.94995 47.19 7.97998C47.19 7.95996 47.18 7.92999 47.18 7.90002C47.2584 8.06396 47.3114 8.2381 47.3354 8.42242C47.4478 8.44971 47.5605 8.47675 47.6731 8.50348C47.7387 8.5191 47.8043 8.53461 47.87 8.54999L48.0018 8.58154L48.1524 8.61737C48.2931 8.45264 48.443 8.29706 48.59 8.15002C48.6934 8.04999 48.7957 7.94769 48.8983 7.84503C49.1034 7.63989 49.3101 7.43323 49.53 7.23999C49.8294 6.9693 50.1305 6.70361 50.4346 6.44165C50.5548 6.33807 50.6756 6.23505 50.7969 6.13251C50.9051 6.04108 51.0138 5.95001 51.123 5.85925ZM22.06 34.07C20.7799 35.25 19.5799 36.49 18.42 37.79C16.7799 39.7 15.14 41.61 13.65 43.63C12.27 45.68 11.0099 47.81 9.85996 50C9.35666 51.0889 8.90366 52.1861 8.44718 53.2918L8.44626 53.2942L8.31998 53.6C8.22922 53.8192 8.13816 54.0381 8.04715 54.2568L8.04569 54.2605C7.60581 55.318 7.16733 56.3721 6.76999 57.44C6.4 58.62 6.08994 59.81 5.81998 61.02C5.55997 62.4 5.33994 63.77 5.11997 65.15C5.00992 65.86 4.87998 66.58 4.74997 67.29C4.73423 67.3751 4.71793 67.4604 4.70139 67.546L4.66007 67.7584L4.65293 67.7949C4.57938 68.171 4.50516 68.5505 4.44999 68.93C4.75998 68.93 5.06998 68.93 5.37998 68.94C5.99997 68.95 6.60996 68.96 7.23996 69.01C7.59482 69.0369 7.94681 69.084 8.29905 69.1312C8.60184 69.1717 8.90488 69.2123 9.21 69.24C9.31034 69.2441 9.4108 69.2485 9.51133 69.2531L9.69944 69.2617C9.89322 69.2708 10.0873 69.2803 10.2813 69.2899L10.2856 69.29C11.1306 69.3315 11.9778 69.373 12.82 69.38C13.2903 69.3835 13.7605 69.3945 14.2304 69.4054L14.2399 69.4056H14.2417C15.1068 69.4257 15.9706 69.4459 16.83 69.42C17.1274 69.3906 17.4248 69.359 17.7225 69.3274C18.3358 69.2623 18.9506 69.1971 19.57 69.15C19.7423 69.1388 19.9151 69.129 20.0881 69.1201C20.4418 69.1019 20.7967 69.0876 21.1521 69.0734H21.1543L21.1622 69.073C21.5576 69.0572 21.9538 69.0413 22.3499 69.02C24.1299 68.9 25.8999 68.86 27.68 68.83H29.78C29.53 68.42 29.3 67.99 29.12 67.55C28.3899 65.84 27.8899 64.04 27.48 62.23C27.4453 62.0726 27.4101 61.9152 27.3747 61.7577L27.284 61.3574L27.2833 61.3539C27.1429 60.7352 27.0022 60.1149 26.88 59.49C26.69 58.52 26.5599 57.55 26.4699 56.56C26.2905 54.5052 26.7068 52.4262 27.1122 50.4026L27.1158 50.3846L27.1772 50.0777C27.2016 49.9549 27.2259 49.8323 27.25 49.71L27.2871 49.5192L27.3288 49.3059C27.3585 49.1547 27.3885 49.0035 27.4186 48.8522L27.4649 48.6199L27.5366 48.2625C27.5858 48.018 27.6353 47.7732 27.685 47.5279L27.81 46.91L27.8391 46.7642C27.9995 45.9608 28.1631 45.142 28.38 44.35C28.73 43.12 29.0999 41.91 29.67 40.76C30.1799 39.74 30.8499 38.82 31.64 37.99C32.19 37.42 32.82 36.94 33.45 36.46C34.52 35.64 35.7699 34.97 37.06 34.55C37.8 34.31 38.54 34.09 39.31 34.05C39.79 34.03 40.2699 34.0699 40.74 34.16C41.24 34.2599 41.6599 34.46 42.06 34.76C42.4262 35.028 42.6966 35.4236 42.9569 35.8043C42.988 35.8499 43.019 35.8951 43.05 35.94C43.3 36.32 43.54 36.7 43.76 37.09C44.0605 37.6243 44.3208 38.1853 44.5798 38.7433C44.7086 39.0209 44.8371 39.2977 44.9699 39.57C44.9299 39.5 44.8999 39.43 44.86 39.37C45.0959 39.8303 45.3476 40.2834 45.5994 40.7365C46.0094 41.4742 46.4192 42.2117 46.76 42.98C47.1499 43.8672 47.4353 44.7924 47.7182 45.7092L47.74 45.78C47.8399 45.52 47.94 45.26 48.03 44.99L48.0315 44.9863C48.6808 43.2579 49.3305 41.5284 50.0999 39.85C50.92 38.05 51.7799 36.28 52.68 34.53C53.5199 32.91 54.4099 31.33 55.3 29.75C55.8463 28.7725 56.3744 27.7878 56.9023 26.8035L56.9035 26.8011L56.9072 26.7944C57.6143 25.4758 58.3209 24.1581 59.07 22.86C59.73 21.72 60.41 20.59 61.09 19.47C61.2657 19.1873 61.4443 18.9061 61.6231 18.6247C61.7033 18.4984 61.7836 18.3719 61.8637 18.2454C62.0721 17.9158 62.279 17.5849 62.48 17.25C61.9399 17.09 61.43 16.88 60.89 16.65C60.3883 16.4343 59.8931 16.2098 59.4004 15.9817C59.222 15.899 59.0439 15.816 58.866 15.7327L58.4018 15.5149C58.1781 15.4098 57.9543 15.3047 57.73 15.2C56.5599 14.65 55.36 14.18 54.14 13.75C52.86 13.35 51.57 13 50.26 12.68C49.7269 12.5521 49.1902 12.4351 48.6537 12.3181L48.6493 12.317C47.9293 12.16 47.2097 12.0032 46.5 11.82C46.2354 11.7518 45.97 11.6845 45.7043 11.6171C44.6444 11.3481 43.5794 11.0778 42.54 10.75C41.7799 10.52 41.03 10.26 40.28 9.97998C39.9314 9.84869 39.5888 9.70917 39.2468 9.56982L39.2402 9.56708L39.2383 9.56635C38.828 9.39911 38.4184 9.23218 38 9.08002C37.07 8.77002 36.11 8.56 35.14 8.34998C35.1892 8.44843 35.2384 8.54932 35.2864 8.65021C35.3186 8.71783 35.3503 8.78546 35.381 8.85242L35.4022 8.89874L35.43 8.96002C35.79 9.77002 36.12 10.58 36.39 11.42C36.4521 11.6134 36.5132 11.8079 36.5738 12.0029C36.6446 12.231 36.7146 12.4597 36.7845 12.6885L36.9385 13.1907L37.0084 13.4166C37.0369 13.5082 37.0655 13.5997 37.0943 13.691L37.1328 13.8125L37.18 13.96C37.5877 15.2974 38.042 16.628 38.494 17.952L38.4956 17.9565L38.6407 18.3818C38.6939 18.538 38.747 18.694 38.8 18.85C39.0268 19.5307 39.2185 20.2185 39.4104 20.9075C39.4469 21.0383 39.4833 21.1691 39.52 21.3C39.5432 21.3802 39.5653 21.4608 39.5863 21.5416C39.609 21.6287 39.6306 21.716 39.6513 21.8035C39.6604 21.8421 39.6694 21.8807 39.6783 21.9193L39.6967 22.0009L39.706 22.0429C39.7263 22.1344 39.7459 22.226 39.7652 22.3177C39.7823 22.3987 39.7991 22.4799 39.816 22.561L39.8161 22.5621L39.8174 22.5685L39.8176 22.5698C39.8752 22.8468 39.933 23.1242 40 23.4C40.2099 23.7401 40.31 24.14 40.25 24.56C40.1248 25.5228 39.2859 26.1055 38.3669 26.0851C38.4112 26.0889 38.4556 26.0944 38.5 26.1C38.1999 26.09 37.8999 26.07 37.61 26C37.5513 25.987 37.4937 25.9708 37.4372 25.952C37.4021 25.9404 37.3673 25.9279 37.333 25.9144C37.2531 25.8832 37.1754 25.8477 37.0999 25.81C36.4999 25.87 35.92 25.97 35.33 26.08C34.8499 26.19 34.38 26.3199 33.9 26.47C33.21 26.74 32.55 27.04 31.88 27.36C30.05 28.31 28.3299 29.44 26.61 30.58C26.68 30.54 26.74 30.4901 26.8 30.46C25.1899 31.61 23.5999 32.79 22.06 34.07Z"
    fill="rgba(191, 192, 191, 1)" />
  <path
    d="M31.31 47.3084L31.3363 47.1779L31.34 47.16C31.3353 47.1929 31.3283 47.228 31.3203 47.2642C31.3171 47.2787 31.3136 47.2936 31.31 47.3084Z"
    fill="rgba(191, 192, 191, 1)" />
</svg>