<?xml version="1.0" encoding="UTF-8" standalone="yes"?>
<svg width="75" height="85" viewBox="-40 -40 155 165" fill="none" xmlns="http://www.w3.org/2000/svg">
  <path fill-rule="evenodd" clip-rule="evenodd"
    d="M5.03001 74.19C5.54526 74.5936 6.08264 74.8423 6.69913 74.9805C6.6142 75.1552 6.52973 75.3298 6.44526 75.5045C6.29777 75.8095 6.15001 76.115 6.00002 76.42C5.87502 76.67 5.75002 76.9225 5.62502 77.175C5.50002 77.4275 5.37502 77.68 5.25002 77.93C5.18815 78.0556 5.12523 78.1812 5.06217 78.3071C5.01518 78.4009 4.96812 78.4948 4.92136 78.5891C4.86369 78.5299 4.80654 78.4703 4.75001 78.41C4.7101 78.3601 4.67268 78.3102 4.63527 78.2603C4.59776 78.2103 4.56002 78.16 4.52001 78.11L4.4 77.9C4.37007 77.8401 4.34015 77.7703 4.31022 77.7005L4.31001 77.69C4.2924 77.1793 4.32906 76.653 4.36539 76.1318L4.38001 75.92C4.40001 75.57 4.44001 75.22 4.50001 74.88L4.51202 74.8183C4.57399 74.5001 4.63459 74.1889 4.67296 73.8707C4.783 73.9846 4.90146 74.0916 5.03001 74.19ZM10.4954 75.2702C10.6929 74.8729 10.9001 74.456 10.9675 74.0283C11.113 73.9529 11.2579 73.8766 11.4023 73.8004L11.46 73.77C11.7153 73.6354 11.9707 73.4964 12.222 73.3502L12.1592 73.5006C12.0827 73.6836 12.0063 73.8667 11.93 74.05C11.8715 74.1926 11.8108 74.3369 11.7495 74.4826C11.3809 75.3584 10.99 76.287 10.93 77.23C10.8955 77.8988 11.3128 78.4869 11.8735 78.7908C10.7361 79.5354 9.53807 80.1849 8.33621 80.8364L8.09 80.97C8.03 80.995 7.96751 81.0225 7.90501 81.05C7.84251 81.0775 7.78001 81.105 7.72001 81.13C7.69634 81.13 7.67268 81.1362 7.64902 81.1438C7.68326 81.0716 7.71369 80.9969 7.74002 80.92C7.74002 80.91 7.75001 80.89 7.76001 80.87C7.76001 80.8798 7.75761 80.8896 7.75398 80.8994L7.74002 80.93C7.74512 80.9198 7.75021 80.9096 7.75398 80.8994C8.12277 80.0926 8.52037 79.2981 8.91717 78.5053C9.12979 78.0804 9.34242 77.6556 9.55002 77.23L10.33 75.61C10.3819 75.4985 10.4382 75.3852 10.4954 75.2702ZM14.8765 76.2298C14.961 76.1563 15.0455 76.083 15.13 76.01C15.445 75.74 15.765 75.475 16.085 75.21L16.0858 75.2093C16.3989 74.9501 16.7119 74.6908 17.0202 74.4269C17.6735 73.8455 18.3091 73.2464 18.9394 72.6419C18.2451 72.1541 18.0359 71.2956 18.32 70.5C18.4415 70.1597 18.5852 69.8269 18.7286 69.4946C18.8212 69.2801 18.9137 69.0658 19 68.85C19.3 68.12 19.58 67.38 19.86 66.64L19.8905 66.5605C19.4951 66.8896 19.1009 67.2187 18.71 67.55C18.234 67.9773 17.761 68.4104 17.294 68.851C17.3359 69.5027 17.1614 70.2018 16.99 70.79C16.7181 71.7234 16.3477 72.6241 15.9755 73.5291L15.86 73.81C15.7291 74.1343 15.5962 74.4585 15.4631 74.7831C15.266 75.2642 15.0683 75.7465 14.8765 76.2298ZM23.3248 68.7048C23.1027 68.8689 22.8811 69.0327 22.663 69.2008L22.7001 69.1047C22.8401 68.7423 22.98 68.3799 23.12 68.02C23.37 67.38 23.6 66.73 23.83 66.08C23.9298 65.8092 24.0257 65.5372 24.1215 65.2657C24.2945 64.7751 24.4669 64.2864 24.66 63.81C24.86 63.56 25.01 63.26 25.06 62.92C25.08 62.79 25.1 62.65 25.09 62.51C25.0826 62.3908 25.066 62.2741 25.0406 62.1609C25.3295 61.9127 25.6192 61.6655 25.91 61.42C26.2634 61.123 26.6238 60.8393 26.9891 60.5641C26.9547 60.6632 26.92 60.7621 26.8853 60.861C26.8434 60.9807 26.8014 61.1004 26.76 61.22C26.6878 61.4178 26.6156 61.615 26.5436 61.8116L26.5431 61.813C26.346 62.3513 26.1503 62.8856 25.96 63.42C25.9265 63.5131 25.8927 63.6065 25.8588 63.7002C25.6194 64.3612 25.3752 65.0356 25.2 65.71C25.083 66.1682 25.1514 66.6358 25.361 67.025C25.3171 67.0624 25.2733 67.1 25.2297 67.1379L25.255 67.115L25.1859 67.1761L25.1739 67.1867C24.9339 67.3999 24.6939 67.6174 24.4539 67.8355C24.0872 68.1413 23.7051 68.4237 23.3248 68.7048ZM29.6226 63.6923C30.2064 63.2188 30.7837 62.738 31.35 62.25C31.646 61.9888 31.9387 61.7251 32.2294 61.4601C31.6904 60.9667 31.5208 60.1726 31.79 59.46C32.001 58.8845 32.2407 58.3171 32.4802 57.75C32.6153 57.4304 32.7502 57.1108 32.88 56.79C32.995 56.5124 33.1084 56.2348 33.2204 55.957L32.897 56.2141C32.21 56.7605 31.5205 57.3089 30.8179 57.8371C30.889 57.9639 30.9414 58.0994 30.97 58.24L30.9766 58.2675C31.0243 58.4675 31.07 58.6592 31.07 58.86C31.07 59.0551 31.0307 59.2581 30.9939 59.448L30.98 59.52C30.89 59.98 30.77 60.42 30.62 60.86C30.54 61.095 30.4575 61.3325 30.375 61.57C30.2925 61.8075 30.21 62.045 30.13 62.2801C29.9696 62.7555 29.7961 63.2244 29.6226 63.6923ZM37.4878 56.6864C37.0948 57.0254 36.7058 57.3696 36.3193 57.7166L36.38 57.57C36.62 56.97 36.86 56.36 37.09 55.75C37.1276 55.6505 37.166 55.5517 37.2043 55.4531C37.3085 55.185 37.4123 54.9178 37.5 54.64C37.5305 54.5458 37.5625 54.4509 37.5948 54.3551C37.6789 54.1055 37.765 53.8501 37.83 53.59C37.92 53.38 37.97 53.15 37.97 52.91V52.7C37.9809 52.5486 37.9677 52.4014 37.9342 52.2607C38.8747 51.5162 39.8083 50.7633 40.7266 49.9916C40.6484 50.3545 40.5697 50.7172 40.491 51.0797L40.4897 51.0857C40.224 52.3103 39.9586 53.5332 39.7119 54.7597C39.5586 54.8799 39.4077 55.0031 39.26 55.13C38.6633 55.6428 38.0752 56.1643 37.4878 56.6864ZM44.0115 51.5547C44.3377 51.2836 44.6621 51.0096 44.9872 50.735L45.23 50.53C45.5315 50.2738 45.8355 50.02 46.1458 49.7739C45.9197 49.4276 45.8098 49.003 45.86 48.57C45.9586 47.7245 46.1168 46.8889 46.2752 46.0528C46.3415 45.7023 46.408 45.3515 46.47 45C46.5147 44.7601 46.5578 44.5202 46.5992 44.2802C45.7968 45.1795 44.9782 46.0632 44.127 46.9141C44.323 47.1613 44.4548 47.4588 44.49 47.77C44.52 48.02 44.54 48.28 44.55 48.53C44.5668 48.8577 44.4989 49.1995 44.4353 49.5198L44.4176 49.6089C44.4116 49.6395 44.4057 49.6699 44.4 49.7L44.399 49.7049C44.3293 50.0433 44.2597 50.3816 44.19 50.71C44.1351 50.9798 44.0776 51.2471 44.0201 51.5144L44.0115 51.5547ZM50.41 47.1C50.1314 47.1759 49.8688 47.2947 49.6155 47.4344C49.6701 47.1305 49.7276 46.827 49.785 46.5235C49.8514 46.173 49.918 45.8215 49.98 45.47C50.1 44.83 50.2 44.19 50.3 43.54C50.3357 43.3376 50.3608 43.1316 50.3858 42.9264C50.4028 42.7869 50.4198 42.6476 50.44 42.51C50.52 42.3 50.57 42.08 50.57 41.84C50.57 41.7 50.55 41.55 50.53 41.41C50.4598 41.0078 50.2694 40.6472 49.9945 40.3772C50.4131 39.9229 50.8336 39.4785 51.28 39.06C51.49 38.88 51.71 38.71 51.94 38.54L52.39 38.27C52.4367 38.2433 52.4834 38.2255 52.5301 38.2077L52.5534 38.1988C52.569 38.1928 52.5845 38.1866 52.6 38.18C52.67 38.17 52.73 38.15 52.79 38.13L52.81 38.1248C52.8407 38.1168 52.8669 38.11 52.9 38.11H53.02C53.035 38.11 53.05 38.1125 53.065 38.115C53.08 38.1175 53.095 38.12 53.11 38.12L53.1859 38.139C53.1674 38.2052 53.154 38.2726 53.15 38.34C53.14 38.3899 53.14 38.4398 53.14 38.4797C52.9792 39.4674 52.7774 40.4496 52.5749 41.4346C52.513 41.736 52.451 42.0378 52.39 42.34C52.12 43.52 51.83 44.7 51.52 45.88C51.4903 45.9929 51.4598 46.1063 51.4292 46.2199C51.3641 46.4617 51.2986 46.7049 51.2395 46.9488C50.959 46.9728 50.6811 47.022 50.41 47.1ZM53.11 38.12C53.1 38.12 53.09 38.1175 53.08 38.115C53.07 38.1125 53.06 38.11 53.05 38.11H53.07L53.11 38.12ZM54.6103 48.6123C54.7328 48.8526 54.8402 49.1028 54.94 49.35C55.0177 49.5395 55.0935 49.731 55.1694 49.923C55.3377 50.3484 55.5071 50.7767 55.7 51.19C55.7621 51.309 55.8269 51.4281 55.8944 51.5458C55.9505 51.3111 56.0075 51.0768 56.0645 50.8422C56.1334 50.5588 56.2023 50.275 56.27 49.99L56.3088 49.7865C56.4557 49.0158 56.6014 48.2521 56.73 47.48C56.77 47.2549 56.8126 47.0274 56.8551 46.7998C56.8976 46.5724 56.94 46.3449 56.98 46.12C57.1111 45.4282 57.274 44.6886 57.5846 44.0403C57.0643 43.4092 56.5482 42.7704 56.0544 42.1132C55.9712 42.5307 55.8837 42.9468 55.79 43.36C55.5945 44.2371 55.3709 45.1079 55.1471 45.9795C54.9703 46.6678 54.7933 47.3573 54.63 48.05C54.6552 48.2328 54.6487 48.4236 54.6103 48.6123ZM59.1073 55.2521C58.9725 55.1458 58.8379 55.0396 58.7049 54.9304C59.0181 54.5317 59.146 54.0025 59.06 53.51C59.15 53.1128 59.2455 52.7184 59.3409 52.3248C59.5 51.6678 59.6587 51.0128 59.79 50.35C59.945 49.5877 60.0807 48.8217 60.2162 48.0565C60.2633 47.7907 60.3104 47.5249 60.3583 47.2595C60.6225 47.5025 60.9013 47.7285 61.2 47.93C61.417 48.0784 61.6429 48.2248 61.8762 48.3635C61.8239 48.6488 61.8003 48.9418 61.78 49.2299C61.785 49.1899 61.7875 49.1499 61.79 49.1099C61.7925 49.0699 61.795 49.03 61.8 48.99C61.7821 49.2705 61.7749 49.551 61.7677 49.8294C61.7629 50.0175 61.7581 50.2045 61.75 50.39C61.75 50.4 61.7475 50.41 61.745 50.42C61.7425 50.43 61.74 50.44 61.74 50.45C61.7172 50.5573 61.6928 50.6636 61.6685 50.7695C61.5864 51.1271 61.5054 51.4796 61.49 51.8499C61.485 52.0049 61.485 52.1599 61.485 52.3149C61.485 52.47 61.485 52.625 61.48 52.78L61.4744 52.828C61.4562 52.9836 61.4372 53.1459 61.41 53.3C61.3558 53.5296 61.2893 53.7557 61.223 53.9813C61.1305 54.296 61.0383 54.6096 60.98 54.93C60.9532 55.0717 60.9475 55.2127 60.9602 55.3505C60.9585 55.3537 60.9568 55.3568 60.955 55.36C60.9425 55.3825 60.93 55.405 60.92 55.43C60.9 55.445 60.8801 55.4575 60.8601 55.47C60.8401 55.4824 60.82 55.495 60.8 55.51C60.82 55.5 60.8375 55.4875 60.855 55.475C60.8725 55.4625 60.89 55.45 60.91 55.44L60.04 56.04C60.0314 56.0313 60.0228 56.0232 60.0141 56.0153C60.0061 56.0079 59.998 56.0007 59.99 55.9937L59.98 55.985C59.96 55.9675 59.94 55.95 59.92 55.93C59.6568 55.6855 59.3818 55.4686 59.1073 55.2521ZM25.2589 67.1114L25.34 67.04C25.3114 67.0638 25.2851 67.0876 25.2589 67.1114ZM3.61966 64.0592C3.87188 63.7625 4.17965 63.501 4.47462 63.2503L4.47561 63.2495C4.55861 63.179 4.64058 63.1093 4.72001 63.04C5.10001 62.71 5.47 62.38 5.84 62.05C5.81001 62.075 5.78251 62.1 5.75501 62.125C5.72751 62.15 5.70001 62.175 5.67001 62.2C6.28013 61.6518 6.88635 61.0996 7.49212 60.5479C8.25638 59.8518 9.02024 59.156 9.79 58.4699C11.27 57.1399 12.78 55.83 14.29 54.53C15.5301 53.4659 16.7772 52.4087 18.0247 51.3513L18.0266 51.3497C19.7559 49.8838 21.4867 48.4167 23.2 46.93C24.6252 45.6901 26.0707 44.4727 27.5162 43.2554C29.1132 41.9105 30.7106 40.5652 32.28 39.19C32.28 39.19 32.27 39.19 32.27 39.2C34 37.63 35.72 36.04 37.42 34.44C39.11 32.85 40.77 31.23 42.33 29.51C42.69 29.07 43.03 28.63 43.37 28.18C43.51 27.95 43.65 27.72 43.78 27.48C43.8435 27.3529 43.8971 27.2209 43.9513 27.0874L43.9816 27.0127C43.9942 26.9818 44.007 26.9509 44.02 26.92L44.031 26.882C44.0471 26.8274 44.0619 26.777 44.07 26.7199C44.075 26.695 44.0775 26.6725 44.08 26.65C44.0825 26.6275 44.085 26.605 44.09 26.58V26.52C44.09 26.51 44.0875 26.4975 44.085 26.485C44.0825 26.4725 44.08 26.46 44.08 26.45C44.07 26.41 44.06 26.37 44.04 26.33C44.03 26.31 44.0225 26.29 44.015 26.27C44.0075 26.25 44 26.23 43.99 26.21C43.9701 26.1801 43.9526 26.1502 43.9352 26.1203C43.9177 26.0904 43.9 26.0599 43.88 26.03C43.76 25.8701 43.64 25.7099 43.5 25.57C43.55 25.62 43.6 25.68 43.65 25.74C43.51 25.6 43.37 25.46 43.22 25.32C42.3117 24.5654 41.3665 23.8607 40.4218 23.1563C39.3384 22.3486 38.2556 21.5414 37.23 20.66C36.5237 20.0575 35.9036 19.3591 35.2869 18.6644C35.0132 18.3561 34.7397 18.0481 34.46 17.75C33.6422 16.8757 32.7536 16.0633 31.8692 15.2547L31.7 15.1C31.6068 15.02 31.5146 14.9401 31.4225 14.8602C31.238 14.7001 31.0534 14.5401 30.86 14.38C30.23 13.85 29.59 13.28 29.47 12.42C29.17 10.22 31.56 9.16996 33.29 8.66996C35.22 8.10996 37.17 7.59 39.12 7.09C40.3747 6.76406 41.6319 6.44795 42.8893 6.13175C45.2197 5.54578 47.5513 4.95948 49.87 4.30998C50.684 4.08241 51.4975 3.84958 52.3114 3.61662C55.2172 2.78495 58.1295 1.95144 61.09 1.34995C62.99 0.959954 64.89 0.619983 66.82 0.379983C68.55 0.169983 70.52 0.199995 71.96 1.33C72.81 2 73.37 2.86999 73.72 3.88999C74.15 5.11999 74.35 6.43997 74.43 7.73997C74.4371 7.87575 74.4445 8.01154 74.4519 8.14732C74.4959 8.96154 74.54 9.77579 74.54 10.59C74.5487 11.4427 74.5044 12.2879 74.4598 13.1387L74.4597 13.141L74.4596 13.1432L74.4595 13.1456L74.4593 13.1482L74.4592 13.1509L74.459 13.1539L74.4589 13.1569C74.4525 13.2778 74.4462 13.3988 74.44 13.52C74.3965 14.3212 74.3074 15.1224 74.2191 15.917L74.18 16.27C74.06 17.32 73.94 18.37 73.8 19.42C73.3606 22.7505 72.705 26.0425 72.0503 29.3298L72.0479 29.3419C71.9584 29.7913 71.8689 30.2407 71.78 30.69L71.6875 31.1501C71.3484 32.8352 71.0108 34.5134 70.69 36.2C70.4664 37.3629 70.3081 38.5381 70.1498 39.7124C70.0605 40.376 69.9711 41.0393 69.87 41.7C69.72 42.66 69.51 43.62 69.29 44.56C69.18 44.99 69.05 45.43 68.9 45.85C68.73 46.33 68.54 46.83 68.29 47.28C68.1475 47.5282 67.9945 47.7532 67.825 47.9627C67.93 48.4565 67.8203 48.9944 67.51 49.44C67.4236 49.5642 67.3226 49.6826 67.2212 49.8014C67.1349 49.9026 67.0482 50.0042 66.97 50.11C66.9101 50.2396 66.8603 50.3793 66.8104 50.519L66.81 50.52C66.7705 50.6384 66.7343 50.7601 66.6978 50.8829L66.6974 50.884C66.623 51.1339 66.5472 51.3889 66.44 51.63C66.25 52.17 66.04 52.69 65.8 53.21C65.31 54.26 64.84 55.31 64.39 56.37C64.14 56.94 63.85 57.55 63.38 57.97C63.1833 58.1509 62.9742 58.2948 62.7625 58.4404C62.7051 58.4799 62.6476 58.5195 62.59 58.56C62.4207 58.6743 62.2534 58.7958 62.0855 58.9178C61.4895 59.3508 60.8855 59.7896 60.16 59.93C59.48 60.06 58.72 59.82 58.23 59.33C58.11 59.21 58.0069 59.0731 57.9037 58.9362C57.8694 58.8906 57.835 58.845 57.8 58.8C57.63 58.62 57.45 58.44 57.27 58.28C57.132 58.1671 56.991 58.0571 56.8499 57.947C56.5411 57.7061 56.2314 57.4645 55.95 57.19C55.49 56.73 55.08 56.23 54.67 55.72C54.5191 55.5329 54.3655 55.3484 54.2122 55.1642C53.6853 54.5309 53.1605 53.9003 52.75 53.18C52.4134 52.5769 52.1604 51.9344 51.9082 51.2939C51.8009 51.0213 51.6934 50.7486 51.58 50.48C51.53 50.48 51.47 50.49 51.42 50.5C51.4185 50.5 51.4169 50.5002 51.4153 50.5006L51.4139 50.501C51.4117 50.5017 51.4094 50.5027 51.4069 50.5037C51.4 50.5066 51.3917 50.51 51.38 50.51C51.1057 50.6624 50.8429 50.838 50.5786 51.0148C50.496 51.07 50.4133 51.1252 50.33 51.18C50.1898 51.2719 50.0459 51.3639 49.9006 51.4567C49.7142 51.5758 49.5254 51.6964 49.34 51.82C48.474 52.4132 47.6748 53.0978 46.8736 53.7842C46.3241 54.2549 45.7736 54.7265 45.2 55.17C44.49 55.73 43.75 56.24 43 56.75C42.2888 57.2366 41.6214 57.7582 40.9732 58.3231C40.2851 58.942 39.5874 59.5608 38.88 60.17C38.0488 60.9053 37.2364 61.6656 36.4237 62.4261L36.4229 62.4268C35.4565 63.3313 34.4893 64.2364 33.49 65.1C32.59 65.88 31.66 66.63 30.72 67.37C30.5798 67.4794 30.4403 67.5895 30.301 67.6996L30.2998 67.7005C29.9429 67.9826 29.5865 68.2641 29.22 68.53C29.0649 68.6479 28.9078 68.7629 28.7506 68.878C28.4012 69.1339 28.0511 69.3903 27.72 69.68C27.7313 69.6687 27.743 69.6575 27.7552 69.6462C27.6564 69.732 27.5559 69.821 27.46 69.91C27.49 69.885 27.5175 69.86 27.545 69.835C27.5724 69.81 27.5999 69.7851 27.6299 69.7601C27.06 70.28 26.4899 70.8001 25.88 71.26C25.6405 71.4491 25.3957 71.6294 25.1507 71.8097C24.813 72.0584 24.4745 72.3077 24.15 72.58C23.3899 73.2801 22.6476 73.998 21.9052 74.7159C21.5342 75.0746 21.1632 75.4334 20.79 75.79C20.15 76.4 19.49 77.01 18.81 77.58C18.6317 77.7301 18.4525 77.8803 18.2729 78.0307C17.8782 78.3612 17.4817 78.6933 17.09 79.03C16.9698 79.1362 16.8503 79.2422 16.7311 79.3478C16.1658 79.8487 15.6081 80.3427 15.03 80.83C14.37 81.39 13.69 81.88 12.94 82.33C12.21 82.78 11.46 83.19 10.7 83.6L10.6972 83.6015C10.2881 83.831 9.87906 84.0605 9.46002 84.27C8.87002 84.56 8.23001 84.73 7.58001 84.73L7.5352 84.7242C7.23833 84.686 6.92463 84.6457 6.62 84.56C5.77058 84.3306 5.10154 83.6684 4.47192 83.0451L4.46915 83.0424C4.35853 82.9329 4.24897 82.8244 4.14001 82.72C3.97508 82.5625 3.8089 82.4064 3.64273 82.2502C3.14411 81.7816 2.64488 81.3123 2.18 80.81C1.6 80.18 1.14 79.42 0.900002 78.59C0.785334 78.1843 0.787371 77.7707 0.789446 77.3494C0.789724 77.2931 0.790002 77.2366 0.790002 77.18C0.800002 76.73 0.820015 76.29 0.850015 75.84C0.854494 75.7728 0.85875 75.7054 0.863016 75.6378C0.887322 75.2529 0.911949 74.8628 0.980004 74.48C1.01392 74.285 1.05502 74.0972 1.09721 73.9044L1.12 73.8C1.16 73.56 1.19001 73.31 1.20001 73.07V73.11C1.208 72.992 1.2156 72.874 1.2232 72.756C1.2536 72.284 1.284 71.812 1.34 71.34C1.37799 71.0457 1.43625 70.7558 1.49447 70.4662C1.55889 70.1458 1.62325 69.8256 1.66001 69.5L1.78001 67.58V67.57L3.61966 64.0592ZM2.05701 65.1892C2.33579 64.5417 2.93279 64.0937 3.61966 64.0592L1.78001 67.54L1.78012 67.5376C1.78034 67.5174 1.78098 67.4982 1.78287 67.4784C1.79147 67.2889 1.79824 67.0996 1.805 66.9101C1.8125 66.7002 1.82001 66.49 1.83001 66.28C1.85001 65.96 1.91001 65.66 2.00001 65.36V65.35L2.03001 65.26C2.0418 65.2364 2.05012 65.2128 2.05701 65.1892ZM2.05701 65.1892C2.05121 65.2027 2.04553 65.2163 2.04 65.23L2.07002 65.14C2.06591 65.1564 2.06181 65.1728 2.05701 65.1892ZM5.31153 67.2313C5.90264 67.0998 6.38479 66.6667 6.59 66.1C6.65975 66.0352 6.73199 65.9704 6.80423 65.9057L6.80501 65.905C6.87676 65.8407 6.9485 65.7763 7.01783 65.712C8.37293 64.5161 9.71073 63.3028 11.0485 62.0896C11.8843 61.3316 12.72 60.5737 13.56 59.82L13.54 59.84C16.07 57.64 18.62 55.47 21.18 53.31C22.6003 52.1111 24.0045 50.896 25.408 49.6814C26.9193 48.3736 28.4306 47.0658 29.96 45.78L30.5535 45.2825C31.8452 44.2 33.1339 43.12 34.4 42.01C35.6949 40.8792 36.9483 39.7068 38.2056 38.5308L38.57 38.19C40 36.85 41.42 35.51 42.81 34.13C43.48 33.47 44.12 32.78 44.75 32.08C45.47 31.27 46.21 30.4 46.72 29.44C47.24 28.45 47.68 27.39 47.6 26.24C47.52 25.15 47.01 24.2 46.3 23.38C45.6568 22.6311 44.8429 22.0141 44.0496 21.4129C43.9425 21.3317 43.8358 21.2508 43.73 21.17C43.2757 20.822 42.8162 20.4802 42.3565 20.1383L42.3556 20.1377C41.389 19.4187 40.4215 18.6992 39.5 17.92C38.9452 17.3652 38.4118 16.7867 37.8777 16.2077C37.3145 15.597 36.7502 14.9851 36.16 14.4C35.39 13.63 34.59 12.91 33.77 12.2C33.77 12.2 33.78 12.19 33.79 12.19C35.355 11.6604 36.9638 11.2495 38.5719 10.8388C38.9982 10.73 39.4247 10.621 39.85 10.51C41.0498 10.2 42.2519 9.89897 43.4539 9.5979C45.8585 8.99562 48.2631 8.39334 50.65 7.71995C51.2864 7.53913 51.9215 7.35589 52.5563 7.17275L52.5573 7.17247C53.7476 6.82906 54.9367 6.48598 56.13 6.15995C58 5.64995 59.88 5.17999 61.77 4.75999C63.86 4.33999 65.95 3.95001 68.07 3.78001C68.1467 3.78001 68.2234 3.7789 68.3 3.77779C68.4534 3.77556 68.6067 3.77334 68.76 3.78001C68.89 3.79001 69.03 3.81 69.16 3.83C69.25 3.85 69.34 3.87 69.43 3.9C69.5098 3.92991 69.5903 3.9601 69.67 3.99998C69.69 4.01498 69.7125 4.02748 69.735 4.03999C69.7575 4.05249 69.78 4.065 69.8 4.08C69.8236 4.10362 69.8472 4.12101 69.8757 4.14198L69.9 4.15995C69.915 4.16995 69.9275 4.18245 69.94 4.19496C69.9525 4.20746 69.965 4.21996 69.98 4.22996C69.9998 4.25464 70.0171 4.27688 70.0343 4.2991L70.035 4.29997C70.0524 4.32238 70.0701 4.34507 70.09 4.36997C70.1099 4.4048 70.1298 4.43716 70.1497 4.4695L70.1503 4.47046C70.1702 4.5028 70.1901 4.53516 70.21 4.56999C70.28 4.72999 70.34 4.88997 70.4 5.04997C70.49 5.31997 70.56 5.58996 70.62 5.85996C70.74 6.53996 70.84 7.21 70.9 7.9C70.96 8.84 71 9.76995 71.01 10.7199C71.0199 11.6118 70.9709 12.4938 70.9214 13.3854L70.92 13.41C70.7 15.78 70.44 18.15 70.08 20.51C69.5693 23.8164 68.9088 27.1004 68.2476 30.3878C68.1449 30.8984 68.0422 31.4091 67.94 31.92C67.8755 32.2406 67.8101 32.5609 67.7447 32.8811L67.7439 32.8849L67.7437 32.8861C67.4442 34.3517 67.145 35.816 66.94 37.3C66.8849 37.6796 66.8311 38.0592 66.7773 38.4387C66.5775 39.8487 66.3779 41.2574 66.11 42.66C65.95 43.3299 65.78 43.98 65.58 44.64C65.47 44.94 65.35 45.23 65.21 45.52C65.1701 45.5899 65.1202 45.6697 65.0703 45.7496C65.0703 45.7451 65.0705 45.7416 65.0714 45.738C65.0776 45.7309 65.0838 45.7224 65.09 45.71C65.0822 45.7178 65.0745 45.7255 65.0714 45.738C65.0676 45.7424 65.0638 45.7462 65.06 45.75H64.99C64.9001 45.74 64.8099 45.73 64.72 45.71C64.6631 45.7019 64.6128 45.6871 64.5583 45.6711L64.52 45.66C64.28 45.5799 64.05 45.48 63.82 45.37C63.7 45.31 63.58 45.24 63.47 45.17C63.26 45.02 63.06 44.86 62.86 44.7C62.63 44.48 62.4 44.25 62.18 44.02C61.7722 43.5396 61.3738 43.0529 60.976 42.567L60.9748 42.5655L60.974 42.5645L60.9723 42.5624C60.6592 42.18 60.3465 41.798 60.03 41.42C59.5 40.78 59.01 40.1299 58.53 39.4699C58.2802 39.0802 58.0299 38.6897 57.8 38.29L57.7119 38.136C57.3106 37.4341 56.8997 36.7156 56.35 36.11C55.56 35.23 54.54 34.67 53.36 34.55C52.26 34.43 51.11 34.7999 50.2 35.41C48.92 36.27 47.88 37.38 46.88 38.53C46.5473 38.9165 46.2171 39.3006 45.8868 39.6846L45.8851 39.6866L45.865 39.71C45.5275 40.1025 45.19 40.495 44.85 40.89L44.7079 41.0507L44.7071 41.0516C43.8338 42.0393 42.9481 43.0408 42 43.9699C41 44.9599 39.97 45.92 38.92 46.86C37.18 48.31 35.4 49.71 33.6 51.1C32.9268 51.624 32.2594 52.1524 31.5929 52.6802C30.5169 53.5322 29.443 54.3826 28.35 55.21C27.7726 55.6548 27.1647 56.0691 26.5596 56.4815C26.3895 56.5975 26.219 56.7137 26.05 56.83C25.3 57.34 24.59 57.8999 23.88 58.4699C23.0794 59.115 22.3054 59.7966 21.5311 60.4783L21.5303 60.479L21.5295 60.4797C20.9601 60.9811 20.3904 61.4828 19.81 61.9699C19.375 62.3385 18.9354 62.7025 18.4957 63.0666C17.4798 63.9078 16.4631 64.7497 15.5 65.65C14.8635 66.239 14.2473 66.8506 13.631 67.4622C12.9499 68.1382 12.2687 68.8143 11.56 69.46C11.34 69.64 11.12 69.81 10.89 69.98C10.28 70.36 9.64001 70.7 9.00001 71.02C8.71001 71.15 8.43001 71.27 8.14001 71.38C7.99001 71.43 7.83001 71.47 7.67001 71.51C7.62001 71.52 7.56 71.53 7.51 71.53H7.45001C7.43001 71.52 7.42 71.52 7.4 71.52C7.39 71.51 7.37001 71.5 7.35001 71.5H7.34C7.32 71.5 7.31001 71.49 7.30001 71.48C7.29001 71.47 7.28 71.46 7.26 71.45L7.21001 71.4C7.19024 71.3753 7.17291 71.353 7.15561 71.3307L7.15442 71.3292C7.13718 71.3071 7.11972 71.2846 7.10001 71.26C7.04012 71.1602 6.97991 71.0598 6.93 70.96C6.76 70.58 6.58001 70.2 6.38001 69.83C6.29873 69.6732 6.20733 69.5199 6.11561 69.3659C6.04937 69.2548 5.9829 69.1432 5.92001 69.03L5.74001 68.58C5.70001 68.45 5.66001 68.32 5.63001 68.19C5.55634 67.8769 5.44875 67.5977 5.30723 67.3134L5.31153 67.2313ZM37.4887 56.6856L37.53 56.65C37.5158 56.6619 37.5021 56.6737 37.4887 56.6856Z"
    fill="rgba(191, 192, 191, 1)" />
</svg>