<?xml version="1.0" encoding="UTF-8" standalone="yes"?>
<svg width="86" height="86" viewBox="-40 -40 166 166" fill="none" xmlns="http://www.w3.org/2000/svg">
  <path fill-rule="evenodd" clip-rule="evenodd"
    d="M54 85.22C53.13 85.11 52.26 84.9501 51.4 84.7901C51.1624 84.7459 50.9247 84.7019 50.6871 84.6581L50.3491 84.5958L50.3444 84.5951C48.7068 84.2935 47.0715 83.9922 45.45 83.63C44.5 83.4199 43.5549 83.195 42.61 82.97C42.1229 82.854 41.6359 82.7381 41.1481 82.6242C40.9345 82.5742 40.7206 82.5248 40.5066 82.4759C40.2614 82.4197 40.0159 82.3644 39.77 82.3101C39.7543 82.3069 39.7385 82.3037 39.7228 82.3003C39.7095 82.2974 39.6962 82.2942 39.6829 82.2907C39.662 82.2851 39.641 82.2785 39.62 82.27L39.6145 82.2689C39.2783 82.2006 38.9422 82.1322 38.6041 82.0619L38.3818 82.0154L38.2205 81.9815C38.094 81.9547 37.9672 81.9276 37.84 81.9C36 81.5301 34.16 81.14 32.34 80.64C32.0615 80.5622 31.7835 80.4833 31.5056 80.4042C31.2654 80.3357 31.0253 80.267 30.7853 80.1983L30.7619 80.1917L30.7597 80.1909C29.3623 79.7909 27.9668 79.3914 26.5501 79.0501C25.6701 78.88 24.7901 78.74 23.9 78.62C23.5486 78.5736 23.1957 78.5332 22.8424 78.4954C22.5952 78.4689 22.3479 78.4436 22.1008 78.4184L22.0858 78.4169C21.8701 78.3948 21.6546 78.3728 21.4395 78.3501L21.3377 78.3393L21.16 78.32C20.0339 78.1885 18.9157 77.979 17.7979 77.7696L17.7964 77.7692C17.1279 77.6438 16.4597 77.5186 15.7901 77.4101C15.5337 77.3678 15.2765 77.3283 15.0192 77.2887C14.4231 77.1973 13.8267 77.1057 13.24 76.98C12.24 76.7801 11.26 76.5401 10.28 76.26L9.83387 76.135C9.15992 75.9464 8.48158 75.7566 7.81001 75.5601C7.55763 75.4876 7.30824 75.4091 7.06032 75.3268C6.70674 75.2094 6.35603 75.0843 6.00361 74.9579L5.73292 74.8609C5.63887 74.8272 5.54463 74.7935 5.45002 74.76C5.29005 74.71 5.13002 74.6601 4.96998 74.62C4.91285 74.6109 4.85518 74.6028 4.79713 74.5954C4.74891 74.5893 4.70039 74.5835 4.65168 74.5781C4.58546 74.5708 4.51887 74.564 4.4521 74.5572L4.44496 74.5564C4.36354 74.548 4.28181 74.5396 4.20002 74.5301C4.16078 74.525 4.1219 74.5193 4.08326 74.5131C4.02308 74.5033 3.96351 74.4923 3.90431 74.4804C3.70125 74.4392 3.50288 74.3874 3.3 74.34C3.25001 74.33 3.20002 74.32 3.15004 74.32C3.08992 74.3172 3.0298 74.315 2.96974 74.3128C2.61006 74.2992 2.25142 74.2858 1.90004 74.14C1.76777 74.0844 1.64039 74.0093 1.51448 73.9351C1.45949 73.9026 1.40474 73.8704 1.34999 73.84C1.09999 73.7 0.850049 73.5499 0.650037 73.34C-0.0199462 72.64 -0.0399657 71.5301 0.650037 70.84C0.760083 70.73 0.890088 70.63 1.03004 70.5501C0.590039 70.2301 0.3 69.71 0.31001 69.14C0.390027 66.8201 1.19001 64.59 1.99 62.44C2.24989 61.747 2.53639 61.0629 2.82289 60.3788C2.90907 60.173 2.99525 59.9672 3.08076 59.7611C3.13759 59.6243 3.19404 59.4872 3.25001 59.35C3.54005 58.64 3.86 57.94 4.18001 57.24L4.19996 57.1968L4.25233 57.083L4.29927 56.9802C4.33143 56.9096 4.36342 56.8388 4.39528 56.7678C4.43147 56.6874 4.46754 56.6068 4.50349 56.5261L4.60536 56.2976C4.83375 55.7848 5.06233 55.2716 5.31001 54.77L5.38002 54.63L5.38014 54.6242L5.38081 54.6211L5.38319 54.6171C5.38466 54.6154 5.38685 54.6132 5.39003 54.61V54.62C6.04005 53.32 6.69001 52.01 7.34999 50.71C7.34999 50.71 7.35005 50.72 7.34004 50.72C7.34004 50.71 7.34999 50.7 7.34999 50.7L7.35627 50.6894L7.3622 50.6787L7.3683 50.6674L7.37532 50.6538L7.38936 50.6264L7.39467 50.6157C7.40565 50.5939 7.41688 50.572 7.43001 50.5501L7.485 50.44C8.63392 48.1535 9.98219 45.9468 11.4 43.82C12.88 41.6 14.5401 39.52 16.35 37.5601C19.59 34.0801 23.46 31.26 27.58 28.9201C28.63 28.3201 29.6901 27.72 30.74 27.12C31.3174 26.7953 31.9104 26.4966 32.5039 26.1977L32.5242 26.1874C32.7463 26.0755 32.9685 25.9635 33.19 25.85C33.94 25.46 34.69 25.08 35.47 24.73C35.7498 24.6043 36.0296 24.4727 36.3099 24.3407L36.3158 24.3378C36.9254 24.0508 37.5381 23.7624 38.16 23.5301C38.9501 23.23 39.75 22.9301 40.5401 22.64C41.0364 22.4503 41.5486 22.3031 42.0613 22.1559L42.2638 22.0976C42.3861 22.0623 42.5082 22.0266 42.63 21.99C43.7343 21.6608 44.8759 21.4345 46.0005 21.2116L46.11 21.19C45.97 20.8999 45.84 20.6101 45.71 20.3101C45.28 19.2901 44.87 18.27 44.38 17.2801C44.13 16.8001 43.8501 16.34 43.5501 15.89C43.1201 15.27 42.6599 14.68 42.19 14.09C41.3999 13.07 40.65 12.0401 40 10.92C39.3087 9.72518 38.7416 8.44271 38.1798 7.17251L38.1784 7.16994L38.1758 7.16445C38.0806 6.94912 37.9855 6.73415 37.89 6.52004C37.4 5.43008 36.9299 4.31002 36.59 3.16C36.35 2.33999 36.4299 1.33999 37.19 0.79C37.49 0.579978 37.82 0.410057 38.19 0.390037C38.3108 0.379356 38.428 0.377525 38.5431 0.382347C38.7518 0.391075 38.9539 0.421409 39.16 0.460044C39.2117 0.47219 39.2625 0.483421 39.3129 0.494285L39.4104 0.515098C39.4928 0.532615 39.5752 0.550071 39.66 0.57003C40.3001 0.690025 40.94 0.769981 41.59 0.849998C42.22 0.889976 42.86 0.930015 43.49 0.950035C44.37 0.980064 45.24 0.990013 46.11 1.06002L48.77 1.27004C49.1701 1.30007 49.57 1.39004 49.96 1.45003L51.5501 1.69002C52.3401 1.81002 53.13 1.95998 53.9201 2.1C54.66 2.23 55.4 2.33004 56.14 2.42001C56.89 2.51003 57.64 2.63003 58.41 2.68002L61.08 2.86001H61.01C61.0601 2.86001 61.1001 2.86001 61.15 2.87002H61.26L62.3334 2.93557C62.9652 2.97372 63.5967 3.01186 64.22 3.05001C64.9678 3.09389 65.7156 3.18105 66.4595 3.26772L66.465 3.26827C66.7339 3.29958 67.0023 3.33083 67.27 3.36001C68.6813 3.50936 70.0869 3.75344 71.487 3.9966L71.5038 3.99953C71.718 4.0367 71.932 4.07387 72.1459 4.11062C72.4008 4.15444 72.6555 4.19778 72.91 4.24001C74.7001 4.54 76.5 4.78005 78.3001 4.96004C78.5349 4.98507 78.7705 5.00814 79.0064 5.03127L79.0192 5.03255C79.7229 5.10152 80.4292 5.17074 81.13 5.29C81.2919 5.31643 81.4538 5.34499 81.6156 5.37508C81.698 5.3904 81.7804 5.40609 81.8628 5.42208C82.1085 5.46969 82.3543 5.51986 82.6 5.57003C83.21 5.69002 83.89 5.83999 84.4 6.23C84.98 6.68002 85.24 7.48 85.1 8.19002C84.976 8.79525 84.6607 9.342 84.3477 9.88454L84.3411 9.8959C84.3013 9.96487 84.2615 10.0338 84.2223 10.1027C84.1491 10.2314 84.0775 10.3603 84.01 10.49C83.73 11.09 83.46 11.7 83.24 12.32C82.6072 14.2007 82.1443 16.1358 81.6815 18.0703L81.6808 18.074C81.6173 18.3394 81.5538 18.6048 81.49 18.87C81.0684 20.6156 80.6467 22.3612 80.2191 24.1007L79.98 25.07C79.0906 28.6751 78.1234 32.2631 77.1588 35.8417L77.1489 35.878L76.9301 36.69C76.7454 37.3766 76.559 38.0626 76.3727 38.7487L76.3712 38.7538C75.4481 42.1524 74.5253 45.5501 73.8101 49.01C73.8001 49.0701 73.78 49.13 73.77 49.19C73.7643 49.2101 73.7594 49.2311 73.7548 49.2526L73.7518 49.2663L73.7511 49.2704L73.75 49.2759L73.7486 49.2829L73.7453 49.2993L73.7445 49.3037L73.7431 49.3114L73.7333 49.3611L73.7267 49.3921L73.72 49.4201C73.7168 49.4328 73.7146 49.4453 73.7128 49.458C73.709 49.4854 73.7068 49.5127 73.7 49.5401V49.5301C73.6964 49.5442 73.6929 49.5584 73.6898 49.5725L73.687 49.5863C73.6834 49.6055 73.6807 49.6247 73.6802 49.6438C73.6804 49.6355 73.682 49.6259 73.69 49.61L73.6653 49.7412L73.6492 49.826L73.6223 49.9651C73.6102 50.0274 73.5979 50.0895 73.5855 50.1518C73.5582 50.2871 73.53 50.4228 73.5 50.5601C73.4868 50.6306 73.4717 50.7031 73.4563 50.7768L73.4527 50.7936L73.4392 50.8589C73.4323 50.8928 73.4253 50.927 73.4186 50.9612L73.4058 51.0286L73.4 51.0601C73.38 52.0001 72.5501 52.8301 71.5601 52.8001C70.7001 52.77 70.15 52.24 69.63 51.62C69.1024 50.9966 68.6762 50.2625 68.2627 49.5506L68.2612 49.5484L68.21 49.46C67.3405 47.9718 66.499 46.4697 65.6563 44.9654L65.16 44.08C64.28 42.5 63.38 40.9401 62.41 39.4101C62.3209 39.2643 62.2269 39.1203 62.1314 38.9771C62.0646 38.8771 61.9971 38.7776 61.9298 38.6784C61.8556 38.5687 61.7819 38.4594 61.71 38.35C61.6344 38.3836 61.5571 38.4171 61.4795 38.4514C61.4119 38.4813 61.344 38.5119 61.2769 38.5435C61.2376 38.5619 61.1986 38.5807 61.16 38.6C61.1455 38.6076 61.131 38.6153 61.1166 38.6231L61.0855 38.6395L61.0193 38.6749C60.9771 38.6978 60.9348 38.7208 60.8928 38.7442C60.8329 38.7774 60.7732 38.8111 60.7139 38.8452C60.6521 38.8808 60.5907 38.9168 60.5296 38.9534C60.3494 39.0613 60.1725 39.1735 60 39.2901C59.64 39.5401 59.2999 39.81 58.96 40.09C58.64 40.39 58.3201 40.7101 58.02 41.0401C57.5801 41.5601 57.1801 42.1201 56.7901 42.6801C55.6036 44.5016 54.6181 46.4193 53.6293 48.3432L53.4201 48.75C53.4601 48.6801 53.49 48.6101 53.53 48.5501C53.3201 49.0301 53.1101 49.5 52.91 49.98C52.7201 50.4 52.51 50.8201 52.35 51.25C52.2167 51.6186 52.0819 51.9871 51.9468 52.3549L51.7258 52.9555L51.7182 52.976L51.6769 53.088C51.5574 53.413 51.438 53.7372 51.32 54.0601C50.89 55.4 50.51 56.75 50.21 58.12C50 59.19 49.8501 60.2801 49.77 61.37C49.7001 62.49 49.7101 63.6 49.78 64.72C49.89 66.15 50.09 67.56 50.37 68.96C50.61 70.09 50.89 71.2101 51.26 72.3101C51.5601 73.1701 51.91 74.0001 52.3001 74.8101C52.9 75.9701 53.5801 77.0701 54.3001 78.1601C55.1001 79.2801 55.9299 80.35 56.83 81.39C57 81.5801 57.1701 81.7699 57.37 81.94L57.35 81.9201C57.59 82.13 57.8001 82.35 57.9301 82.65C58.2201 83.3201 58.0601 84.12 57.5501 84.63C57.0001 85.1801 56.26 85.22 55.53 85.24C55.4263 85.24 55.3175 85.2425 55.2077 85.2449L55.1082 85.2471L55.0646 85.2479L55.0195 85.2487L54.9932 85.2492L54.9492 85.2497L54.9273 85.2498L54.87 85.25C54.5601 85.27 54.28 85.26 54 85.22ZM50.4547 81.0169L50.84 81.09C51.0653 81.13 51.2905 81.1725 51.5158 81.2151C51.7405 81.2576 51.9652 81.3001 52.19 81.34C52.1699 81.31 52.15 81.2901 52.13 81.26C51.53 80.4201 50.9601 79.57 50.39 78.71C49.7001 77.6599 49.13 76.51 48.61 75.37C48.0501 74.12 47.63 72.8001 47.28 71.48C46.5701 68.7901 46.1901 65.99 46.14 63.21C46.1 60.57 46.52 57.9601 47.19 55.4101C47.83 52.9701 48.74 50.6001 49.76 48.2901C50.5901 46.4 51.5599 44.5901 52.57 42.7901C53.64 40.89 54.87 39.0401 56.48 37.5601C57.41 36.7001 58.48 35.99 59.62 35.4201C60.4201 35.02 61.24 34.74 62.1 34.51C62.3001 34.4301 62.51 34.38 62.74 34.38C63.72 34.38 64.53 35.2101 64.51 36.1801C64.65 36.4101 64.81 36.64 64.96 36.87C65.1118 37.1073 65.2637 37.3446 65.4146 37.5829C65.5816 37.8468 65.7472 38.1121 65.91 38.38C66.6082 39.5069 67.2561 40.6535 67.9042 41.8002L67.906 41.8031L67.91 41.8101C68.3186 42.5261 68.7175 43.25 69.1171 43.9748C69.6268 44.8997 70.1375 45.8261 70.6701 46.74C71.047 45.0335 71.4706 43.3373 71.9159 41.6463C71.7631 41.5451 71.6251 41.419 71.51 41.27C70.453 39.8899 69.5726 38.4054 68.692 36.9204L68.6913 36.919C68.2643 36.1988 67.8373 35.4785 67.39 34.77C66.9401 34.4501 66.64 33.9201 66.64 33.33C66.64 33.13 66.6599 32.9301 66.71 32.73C66.84 32.2101 67.24 31.77 67.73 31.57C68.34 31.32 68.98 31.4301 69.5 31.8001C69.9487 32.1096 70.2538 32.6288 70.5403 33.1164L70.541 33.1175C70.6246 33.2597 70.7066 33.3992 70.7901 33.5301C70.9347 33.7696 71.0769 34.0115 71.219 34.2534C71.3618 34.4965 71.5047 34.7395 71.65 34.98C72.1113 35.7709 72.5903 36.5529 73.0872 37.326L73.24 36.77L73.288 36.5929C73.4375 36.0399 73.5878 35.487 73.7382 34.9334L73.8041 34.6913C74.0036 33.9578 74.2031 33.2238 74.4016 32.4894C74.3909 32.4765 74.3804 32.4633 74.37 32.45C74.21 32.25 74.0401 32.0399 73.87 31.84C73.5322 31.4772 73.1826 31.1222 72.8336 30.7677C72.6246 30.5554 72.4159 30.3434 72.21 30.13C71.71 29.63 71.23 29.11 70.77 28.58C70.25 27.96 69.75 27.2 69.75 26.36C69.75 25.4 70.5501 24.59 71.52 24.59C72.36 24.59 73.08 25.2 73.25 25.99C73.25 25.9923 73.2506 25.9947 73.2515 25.997L73.2534 26.0012L73.256 26.005L73.2575 26.0071L73.26 26.01C73.41 26.21 73.57 26.4101 73.73 26.6C74.1669 27.0834 74.6264 27.5458 75.0856 28.0081L75.2365 28.1601C75.319 28.2432 75.4014 28.3264 75.4837 28.4099C75.6832 27.6371 75.8792 26.8638 76.07 26.09C76.3382 25.0051 76.6062 23.9204 76.8731 22.8356C76.8411 22.8147 76.8096 22.7925 76.7788 22.7689C76.7623 22.7564 76.7461 22.7434 76.73 22.73C75.9 22.0301 75.09 21.3101 74.35 20.52C73.59 19.71 72.87 18.8101 72.4 17.8001C72.0701 17.0701 72.1801 16.1499 72.75 15.58C73.4301 14.8999 74.5701 14.8999 75.25 15.58C75.53 15.86 75.7001 16.22 75.75 16.59C75.7901 16.6599 75.83 16.72 75.87 16.7901C76.14 17.1701 76.4301 17.5401 76.73 17.89C77.078 18.2722 77.4402 18.631 77.813 18.9826C77.8856 18.6817 77.9579 18.3809 78.03 18.08C78.2739 17.0456 78.5319 16.0183 78.7921 14.9922C78.5447 14.7974 78.3001 14.5974 78.0552 14.3974C77.604 14.0288 77.152 13.6594 76.6801 13.32C76.2201 13.15 75.8401 12.7901 75.64 12.34C75.6438 12.3477 75.6476 12.3538 75.6509 12.359L75.6537 12.3635C75.6496 12.354 75.6448 12.3445 75.64 12.335C75.6326 12.3201 75.625 12.3051 75.62 12.2901C75.62 12.3101 75.63 12.32 75.63 12.33C75.6 12.26 75.5801 12.2001 75.5601 12.13C75.5601 12.12 75.5601 12.11 75.5501 12.11C75.3201 11.27 75.7001 10.33 76.5601 9.98C77.0901 9.76003 77.65 9.81008 78.15 10.08C78.49 10.26 78.7899 10.5 79.08 10.74C79.3157 10.9259 79.5503 11.1129 79.7849 11.2999C79.8003 11.3123 79.8158 11.3245 79.8312 11.3368C80.1327 10.4745 80.495 9.65157 80.9 8.85C79.6841 8.66079 78.4592 8.52975 77.2339 8.39864C75.8693 8.25265 74.5042 8.10659 73.15 7.88003C71.5801 7.61001 70.01 7.35 68.44 7.1C67.0299 6.87002 65.61 6.74007 64.19 6.59005L63.745 6.56252C63.4152 6.54238 63.0853 6.52248 62.7555 6.50259C62.1675 6.46719 61.5795 6.43179 60.9913 6.39437C60.6176 6.37063 60.2438 6.34603 59.87 6.32003C59.6514 6.30636 59.4312 6.29501 59.21 6.28359L59.1983 6.28286L58.8712 6.26565C58.7728 6.26034 58.6744 6.25478 58.5759 6.2488C58.1972 6.22585 57.8175 6.19668 57.44 6.15005L54.62 5.79C53.8622 5.69112 53.1073 5.55611 52.3539 5.42135C51.7354 5.31069 51.1177 5.20016 50.5 5.11001C50.28 5.07571 50.0601 5.03817 49.8401 5.00063C49.2901 4.90676 48.74 4.81289 48.19 4.77004C47.36 4.71004 46.5299 4.64004 45.69 4.57003C45.3488 4.55807 45.0067 4.5461 44.6643 4.53359C43.8626 4.50429 43.0588 4.47207 42.26 4.43002C42.0803 4.41878 41.9006 4.40615 41.721 4.39266L41.5829 4.38216L41.4832 4.37429L41.3195 4.36117L41.0444 4.33865L40.8273 4.32058L40.82 4.32003L40.8468 4.38155L40.882 4.46304L41.0344 4.81918C41.1006 4.9728 41.168 5.12643 41.24 5.28005C41.7 6.30007 42.16 7.32003 42.65 8.32003C43 9.00002 43.38 9.64004 43.7901 10.2801C44.292 11.0078 44.8428 11.7078 45.39 12.403L45.423 12.445L45.5881 12.6548L45.71 12.8101C46.52 13.8601 47.2101 14.97 47.7901 16.15C48.1358 16.8528 48.443 17.575 48.7499 18.2963C48.9844 18.8476 49.2188 19.3985 49.47 19.94C49.61 20.21 49.76 20.46 49.91 20.72L49.9498 20.7703L49.952 20.7732L49.9651 20.7901L49.9911 20.8234L50.002 20.8374L50.02 20.86L50.0248 20.864C50.213 21.0327 50.3911 21.1919 50.52 21.4201C50.76 21.8301 50.82 22.3401 50.7 22.8001C50.5 23.52 49.91 23.9401 49.22 24.14C48.5272 24.3412 47.8123 24.4759 47.0999 24.6099L47.0816 24.6132C46.8438 24.658 46.6062 24.7028 46.37 24.75C46.1198 24.8008 45.8704 24.8546 45.6218 24.9104L45.77 25.0401C45.91 25.145 46.0501 25.2526 46.19 25.3601L46.209 25.3748C46.3427 25.4773 46.4763 25.5799 46.61 25.6801C46.8604 25.8489 47.1141 26.0144 47.3713 26.1765C47.5558 26.2927 47.7421 26.4072 47.9301 26.52C48.76 27.01 49.0499 28.1 48.57 28.94C48.2499 29.4899 47.64 29.8101 47.02 29.8101C46.75 29.8401 46.4501 29.77 46.1701 29.6C45.1801 29.01 44.24 28.37 43.36 27.62L43.37 27.63C43.3099 27.5785 43.2517 27.527 43.1937 27.4755C43.1276 27.4168 43.0618 27.3582 42.994 27.2995C42.9961 27.3026 42.9981 27.3062 43 27.3101C42.7899 27.13 42.58 26.94 42.38 26.75C42.1421 26.5121 41.882 26.2742 41.6657 26.0076C41.2665 26.1554 40.8716 26.3043 40.47 26.46C40.4216 26.4785 40.3729 26.4968 40.3241 26.5149C40.2356 26.5476 40.1464 26.5799 40.057 26.6121C39.7979 26.7055 39.5376 26.7993 39.2901 26.9101L39.2725 26.9177L39.2439 26.9306C38.4155 27.3023 37.587 27.674 36.7586 28.0504C36.85 28.1792 36.9249 28.3203 36.98 28.47C37.0401 28.5301 37.1 28.5875 37.1599 28.645C37.1942 28.6779 37.2285 28.7107 37.2628 28.744C37.2886 28.7691 37.3143 28.7943 37.34 28.82C37.69 29.11 38.0501 29.39 38.4201 29.65C39.049 30.06 39.7053 30.4152 40.3716 30.7593C40.3344 30.7418 40.2971 30.726 40.26 30.71C40.39 30.7799 40.52 30.8401 40.65 30.9101C41.52 31.3401 41.99 32.2999 41.6 33.23C41.33 33.87 40.6399 34.32 39.94 34.32C39.71 34.31 39.49 34.26 39.27 34.1601C38.48 33.77 37.69 33.36 36.94 32.9C36.1399 32.4101 35.3999 31.83 34.7 31.2C34.2088 30.7595 33.7462 30.2691 33.5432 29.6493C33.3582 29.747 33.174 29.8457 32.9907 29.9458L32.9002 29.9956C32.8463 30.0252 32.7925 30.0548 32.7389 30.0846L32.6139 30.1544C32.5458 30.1928 32.4778 30.2313 32.41 30.27C32.1035 30.4445 31.7965 30.6183 31.4895 30.7921L31.4862 30.794L30.9063 31.1226C30.0332 31.6181 29.1614 32.1167 28.2986 32.6319C28.3866 32.6906 28.4735 32.7504 28.5603 32.8102C28.6349 32.8616 28.7095 32.9129 28.7847 32.9635C28.8229 32.9893 28.8613 33.0148 28.9 33.0401C28.9 33.0401 28.89 33.0401 28.89 33.0301C28.9365 33.0596 28.9812 33.0893 29.0249 33.1188C29.0592 33.1395 29.0911 33.1623 29.1221 33.1847C30.1022 33.8318 31.1581 34.3689 32.2075 34.9029L32.3001 34.95L32.6 35.1C33.47 35.52 33.9301 36.49 33.5401 37.4201C33.27 38.0601 32.58 38.51 31.88 38.51C31.7714 38.51 31.6603 38.4978 31.5504 38.4735C31.4378 38.4485 31.3263 38.4107 31.22 38.36C29.7659 37.653 28.3217 36.9162 26.9862 36.0111L26.9971 36.0187L27.0244 36.0382L27.0359 36.0467C26.9276 35.9734 26.819 35.8991 26.7094 35.8249C26.6344 35.7742 26.5591 35.7235 26.4832 35.6734L26.4348 35.6416L26.3837 35.6083L26.34 35.58C26.3617 35.5945 26.3836 35.6104 26.4059 35.6266L26.4093 35.6294C26.3904 35.6165 26.3715 35.6035 26.3527 35.591C26.3392 35.5819 26.3258 35.5729 26.3124 35.5642L26.2901 35.5501L26.28 35.5401C26.27 35.5301 26.25 35.52 26.24 35.52C26.2368 35.52 26.2337 35.5181 26.2302 35.515L26.2238 35.5088L26.2189 35.5041L26.2145 35.5C26.2102 35.4964 26.2055 35.4928 26.2 35.49C26.1959 35.486 26.1919 35.4835 26.1885 35.4821C26.1835 35.48 26.1801 35.48 26.1801 35.48H26.19C26.19 35.48 26.1863 35.48 26.1835 35.4778C26.1817 35.4763 26.1801 35.4739 26.1801 35.47C25.86 35.24 25.5501 34.99 25.3001 34.6701C25.2918 34.6597 25.2836 34.6493 25.2755 34.6388C25.2637 34.6234 25.2521 34.6078 25.2409 34.5922C23.983 35.4815 22.7601 36.4204 21.6 37.4301L21.5684 37.4583C21.5757 37.4688 21.5829 37.4794 21.59 37.49L21.7506 37.6104C21.8977 37.7202 22.0462 37.8301 22.2 37.94C22.66 38.24 23.14 38.52 23.64 38.7801C24.4801 39.1601 25.33 39.5099 26.21 39.82C27.12 40.1399 27.51 41.3001 27.15 42.14C26.9701 42.5601 26.63 42.9099 26.21 43.09C26.094 43.1375 25.978 43.171 25.8621 43.1922C25.7581 43.2111 25.6541 43.22 25.5501 43.22C25.3001 43.22 25.0599 43.1699 24.82 43.08C24.02 42.7999 23.23 42.48 22.46 42.13C21.77 41.82 21.12 41.4501 20.48 41.0401C19.9733 40.7118 19.4463 40.3682 19.0151 39.9402C18.672 40.3013 18.3339 40.6681 18 41.0401L17.9158 41.1372C17.931 41.1612 17.9458 41.1853 17.96 41.21V41.2C17.96 41.2199 17.97 41.23 17.98 41.24C18.27 41.62 18.5801 41.9699 18.9 42.33C19.4219 42.8793 19.9439 43.4203 20.5117 43.9298C20.5679 43.9765 20.6233 44.0232 20.6701 44.07L20.8339 44.2157C20.9011 44.2754 20.9688 44.3352 21.0369 44.3947C21.1007 44.4502 21.1651 44.5055 21.23 44.5601C21.61 44.88 21.98 45.2 22.35 45.52C23.08 46.15 23.28 47.21 22.6701 48C22.3301 48.44 21.77 48.69 21.22 48.7C20.84 48.69 20.4701 48.57 20.1801 48.3101C19.9767 48.1326 19.7714 47.9589 19.5667 47.7858L19.37 47.6192C19.1995 47.4744 19.0299 47.3292 18.8626 47.1819L18.8814 47.1989C18.0632 46.4844 17.2919 45.7415 16.53 44.97C16.2377 44.6613 15.9583 44.3395 15.6814 44.0205L15.6415 43.9744C15.478 44.1951 15.3164 44.4171 15.1568 44.6408C15.1016 44.718 15.0466 44.7956 14.992 44.8732C14.8804 45.0313 14.7698 45.1902 14.66 45.35C14.1443 46.1183 13.6463 46.8955 13.1632 47.6812C13.4353 47.8926 13.6455 48.1808 13.76 48.51C13.9 48.6901 14.0499 48.87 14.2 49.0501C14.7302 49.6295 15.2897 50.18 15.859 50.73C15.8947 50.76 15.9314 50.7901 15.97 50.82C16.0603 50.8924 16.1472 50.9719 16.2349 51.0523C16.2578 51.0734 16.2808 51.0945 16.304 51.1155C16.3318 51.1408 16.3598 51.1659 16.3881 51.1908C16.3831 51.1873 16.3771 51.1836 16.37 51.1801C16.3999 51.2001 16.4199 51.22 16.45 51.25C16.45 51.25 16.46 51.26 16.47 51.26L16.4852 51.2727C16.5036 51.288 16.521 51.3024 16.5379 51.3172C16.57 51.3452 16.6 51.374 16.63 51.4101C17.2 51.9101 17.83 52.38 18.45 52.83C19.2299 53.3999 19.35 54.5601 18.77 55.3101C18.4199 55.76 17.8999 55.99 17.38 55.99C16.99 55.98 16.6 55.86 16.28 55.63C16 55.4235 15.7243 55.2127 15.4508 54.9987C15.3268 54.9016 15.2033 54.8039 15.08 54.7056C14.8828 54.5484 14.6864 54.3898 14.49 54.23C14.4099 54.1699 14.34 54.11 14.27 54.0401C14.1572 53.9539 14.0488 53.8544 13.9419 53.7564C13.8877 53.7066 13.8339 53.6571 13.78 53.61L13.7713 53.6013C13.7637 53.5939 13.756 53.5866 13.7484 53.58L13.7415 53.5742L13.7382 53.5717C13.7339 53.5685 13.7296 53.5656 13.7254 53.563L13.72 53.5601L13.689 53.5341L13.6499 53.5011C13.6144 53.4707 13.5803 53.4405 13.5501 53.4101C13.5383 53.4007 13.5266 53.3906 13.515 53.3804C13.4981 53.3655 13.4813 53.35 13.4653 53.3346C13.4456 53.3157 13.4269 53.297 13.41 53.2801C13.4155 53.2833 13.4209 53.2869 13.4262 53.2907L13.4331 53.2957C13.3974 53.2637 13.362 53.2315 13.3268 53.1991C13.306 53.1801 13.2854 53.1609 13.2648 53.1416C13.22 53.0999 13.1755 53.0578 13.1314 53.0155L13.0842 52.9701C13.0556 52.9425 13.027 52.9147 12.9984 52.8869C12.8673 52.7588 12.7383 52.6293 12.6099 52.5003L12.46 52.35C12.3507 52.2407 12.2429 52.1301 12.136 52.0186C12.0274 51.9053 11.9196 51.791 11.8123 51.6764L11.61 51.46L11.6034 51.4527L11.5098 51.3472L11.4103 51.2343L11.3313 51.1437L11.2699 51.0724L11.2222 51.0163C11.0363 51.3528 10.8523 51.6908 10.6701 52.0301C10.66 52.0601 10.65 52.08 10.63 52.11C10.5946 52.182 10.5668 52.2466 10.53 52.32V52.3101C10.52 52.3301 10.51 52.35 10.5 52.36C10.4954 52.3646 10.4928 52.3693 10.4905 52.375C10.4885 52.3798 10.4867 52.3852 10.4838 52.3919C10.4838 52.3919 10.4873 52.39 10.49 52.39C10.2542 52.8579 10.0198 53.3257 9.78615 53.7931C9.96791 53.9881 10.1077 54.2226 10.19 54.48C10.21 54.5 10.22 54.5301 10.23 54.5501C10.57 55.02 10.9301 55.46 11.3101 55.89C12.6201 57.3101 13.9801 58.65 15.4201 59.9301C15.5665 60.0619 15.7184 60.183 15.8717 60.3051C15.9277 60.3496 15.9839 60.3944 16.0401 60.44C16.8101 61.0299 16.95 62.1601 16.36 62.9201C16.02 63.37 15.49 63.6 14.96 63.6C14.5599 63.61 14.1799 63.5 13.86 63.25C12.6799 62.36 11.6001 61.3001 10.5601 60.27C10.3756 60.0856 10.1951 59.9002 10.0165 59.7136L9.9507 59.6446L9.90382 59.5955L9.81886 59.5059L9.6952 59.375C9.57094 59.2431 9.44703 59.1107 9.32313 58.9778L9.162 58.8048L9.15394 58.796C9.05299 58.6876 8.95179 58.579 8.84999 58.47C8.55421 58.1527 8.2671 57.8268 7.99489 57.489C7.91786 57.6636 7.84028 57.8377 7.76002 58.01C7.44001 58.71 7.13002 59.4 6.81001 60.1C6.78578 60.1533 6.76179 60.2068 6.73811 60.2606C6.72236 60.2963 6.70674 60.3321 6.69124 60.3678L6.65913 60.4423C6.61256 60.5509 6.56672 60.6603 6.52144 60.7702L6.49879 60.8252L6.45533 60.9314C6.84321 61.0631 7.18452 61.3246 7.39003 61.7L7.39167 61.7025C7.41768 61.746 7.44368 61.7895 7.46998 61.8329C7.50313 61.8876 7.53663 61.9423 7.57106 61.997L7.59224 62.0307L7.60737 62.0545L7.62703 62.0849L7.64277 62.109L7.67 62.15C8.14003 62.7801 8.63002 63.39 9.13002 63.99C9.28566 64.1486 9.44044 64.3054 9.59559 64.4611C9.7986 64.6647 10.0023 64.8662 10.2096 65.0668L10.2876 65.1419C10.3187 65.1719 10.3499 65.2019 10.3812 65.2318C10.4993 65.3446 10.6187 65.4573 10.74 65.57L10.8435 65.6581C10.8994 65.7057 10.9556 65.7533 11.0119 65.8007C11.1102 65.8837 11.2089 65.9663 11.3079 66.0486C11.6743 66.3534 12.0451 66.6538 12.4201 66.95C13.1901 67.5399 13.33 68.6701 12.74 69.4301C12.4 69.88 11.86 70.11 11.33 70.11C10.96 70.11 10.5701 69.99 10.26 69.75C9.09999 68.85 7.97004 67.8899 6.96003 66.83C6.56532 66.4195 6.20179 65.9903 5.83497 65.5572C5.73707 65.4417 5.63899 65.3258 5.53999 65.21C5.39515 65.0399 5.26222 64.854 5.12867 64.6673L5.10524 64.6343C5.07985 64.5989 5.05446 64.5634 5.02888 64.5281C4.95479 64.7282 4.88179 64.9286 4.81001 65.13C4.51002 66.0501 4.24 66.9701 4.03999 67.9101C3.96998 68.3001 3.92006 68.68 3.88002 69.07V69.1701C3.86006 69.8101 3.52003 70.39 3.00001 70.7L3.0099 70.7068L3.0207 70.7151C3.02888 70.7215 3.03706 70.7283 3.04518 70.7351L3.06019 70.7475C3.07014 70.7556 3.08009 70.7633 3.09004 70.77C3.11006 70.7901 3.14003 70.8001 3.15999 70.8101C3.3 70.8101 3.45009 70.82 3.59004 70.83C3.91005 70.85 4.21003 70.9501 4.53004 71.02C4.86006 71.0701 5.20009 71.09 5.53004 71.14C6.33003 71.27 7.09999 71.61 7.84999 71.89C8.44899 72.0896 9.05897 72.2564 9.66761 72.4228L9.67384 72.4246L9.70863 72.4341L9.75367 72.4466L9.79542 72.4579C9.96718 72.5049 10.1388 72.5519 10.3101 72.6C11.2301 72.86 12.15 73.12 13.07 73.35C14.1464 73.5617 15.2263 73.7405 16.3078 73.9195L16.3305 73.9231C17.0299 74.039 17.73 74.1549 18.4301 74.2801C19.3801 74.4501 20.3201 74.62 21.27 74.76C21.9859 74.8701 22.7017 74.937 23.4224 75.0043L23.4385 75.0058L23.7771 75.0377L24.01 75.0601C25.89 75.2501 27.7301 75.63 29.5401 76.14L30.3358 76.3667C31.9688 76.8323 33.5983 77.297 35.25 77.71C35.7932 77.8421 36.3389 77.9646 36.8845 78.0823C37.4015 78.1939 37.9186 78.301 38.4336 78.4077L38.59 78.44C39.1945 78.5569 39.7991 78.6835 40.3943 78.8102L40.4122 78.8141L40.4151 78.815L40.4197 78.8164L40.4348 78.8197C41.6802 79.0885 42.9284 79.3871 44.1808 79.6868L44.1914 79.6894C44.6509 79.7993 45.111 79.9094 45.5718 80.0182C46.2266 80.1728 46.8826 80.3247 47.5401 80.47C48.0921 80.5753 48.6441 80.6782 49.1961 80.7812L49.9277 80.9177C50.1034 80.9507 50.2791 80.9837 50.4547 81.0169ZM27.0359 36.0467L27.1183 36.1022L27.16 36.13C27.1155 36.1045 27.075 36.0751 27.0359 36.0467ZM26.4199 35.6367C26.4547 35.662 26.4907 35.6875 26.53 35.71C26.4933 35.687 26.4567 35.6619 26.4199 35.6367Z"
    fill="rgba(191, 192, 191, 1)" />
</svg>