<?xml version="1.0" encoding="UTF-8" standalone="yes"?>
<svg width="75" height="70" viewBox="-40 -40 155 150" fill="none" xmlns="http://www.w3.org/2000/svg">
  <path fill-rule="evenodd" clip-rule="evenodd"
    d="M49.81 17.92C49.7 17.02 49.74 16.17 49.89 15.28C49.9468 14.9534 50.0238 14.6216 50.0995 14.2957C50.1304 14.1626 50.161 14.0305 50.19 13.9C50.3196 13.3242 50.4647 12.7535 50.6104 12.1806L50.6116 12.1757C50.668 11.9543 50.7244 11.7326 50.78 11.51C50.8246 11.342 50.8694 11.174 50.9144 11.006C50.9572 10.8456 51.0002 10.6852 51.0433 10.5248L51.0554 10.4798C51.3621 9.3367 51.6694 8.19138 51.9397 7.03619C49.6933 9.3837 47.3766 11.6669 45.06 13.95C44.6584 14.3471 44.2562 14.744 43.8536 15.1408C43.5767 15.4136 43.2996 15.6864 43.0225 15.9592L42.1114 16.8554C40.3834 18.555 38.6536 20.2564 36.94 21.97C32.8146 26.0954 28.7299 30.2563 24.6422 34.4203L24.6384 34.4242L24.5682 34.4957C23.7509 35.3282 22.9335 36.1609 22.1156 36.9934C21.3076 37.8159 20.4992 38.6382 19.69 39.46C17.5737 41.6165 15.4445 43.76 13.3127 45.9062L13.1954 46.0243C12.707 46.516 12.2185 47.0078 11.73 47.5C10.5268 48.7124 9.34259 49.9416 8.15802 51.1713L8.15729 51.172C6.76263 52.6197 5.36743 54.068 3.94 55.49C3.76001 55.8 3.47998 56.06 3.11999 56.19L3.05273 56.2126C2.9563 56.2452 2.86371 56.2766 2.76965 56.2994C2.71429 56.3129 2.6582 56.3235 2.59998 56.33C2.52997 56.34 2.46002 56.34 2.38 56.34C1.76001 56.34 1.17004 56.03 0.840027 55.47C0.430053 54.7701 0.559997 53.9 1.11999 53.33C1.81946 52.6056 2.52643 51.8886 3.2334 51.1717C3.94147 50.4536 4.64947 49.7356 5.34998 49.01C5.81604 48.5294 6.27942 48.0462 6.74304 47.5628L6.75128 47.5545C7.5683 46.7028 8.38605 45.8503 9.21997 45.01C10.2059 44.0128 11.1933 43.0184 12.1805 42.0242L12.1949 42.0096L12.2019 42.0026C13.8408 40.352 15.4793 38.7018 17.11 37.04C18.788 35.3358 20.4625 33.629 22.1369 31.9224C26.2003 27.7809 30.2626 23.6404 34.37 19.54C36.3942 17.5158 38.4354 15.5084 40.4765 13.501L41.6038 12.3922C41.9093 12.0915 42.2147 11.7908 42.52 11.49C42.821 11.1924 43.1221 10.895 43.4232 10.5976L43.4244 10.5964C45.3962 8.64884 47.3663 6.70297 49.2883 4.70117C47.4074 5.19861 45.546 5.76486 43.68 6.34003C42.14 6.81003 40.61 7.27002 39.06 7.70004C38.3752 7.89236 37.6794 8.05386 36.9829 8.21552C36.1945 8.3985 35.4052 8.5817 34.63 8.81003C34.34 9.00003 34.01 9.12003 33.64 9.12003C32.68 9.12003 31.87 8.32004 31.87 7.35004C31.87 6.79004 32.14 6.25003 32.58 5.91003C33.1123 5.49793 33.8215 5.33643 34.4861 5.18506C34.5956 5.16013 34.7039 5.13547 34.81 5.11002L35.2781 4.99683C35.5363 4.93442 35.7949 4.87189 36.0537 4.80905C36.2831 4.75336 36.5126 4.69739 36.7419 4.64102C37.0519 4.56485 37.3615 4.48798 37.67 4.41003C39.0927 4.06635 40.4962 3.62686 41.8958 3.18854C42.2474 3.07843 42.5987 2.96842 42.95 2.86002L43.4069 2.71945C45.1747 2.17551 46.9438 1.63113 48.73 1.18002C49.77 0.910004 50.8 0.660035 51.85 0.480042C52.89 0.300019 53.99 0.350037 54.85 1.01004C55.79 1.74002 55.96 2.96002 55.96 4.07004C55.96 5.09277 55.7431 6.1254 55.5344 7.1189L55.53 7.14005C55.42 7.68002 55.29 8.23004 55.15 8.76004C54.9301 9.60004 54.71 10.45 54.49 11.29C54.28 12.11 54.06 12.93 53.84 13.75C53.7523 14.0902 53.6735 14.4305 53.5971 14.7707C53.569 14.8958 53.5413 15.021 53.5135 15.1461C53.4792 15.3008 53.4449 15.4554 53.41 15.61C53.34 15.97 53.29 16.33 53.26 16.7V17.01C53.27 17.15 53.29 17.3 53.31 17.44C53.42 18.4 52.77 19.3 51.8 19.44C51.72 19.45 51.65 19.46 51.57 19.46C50.71 19.45 49.91 18.81 49.81 17.92ZM24.37 66.4C23.84 66.71 23.47 67.29 23.47 67.94C23.47 68.91 24.28 69.71 25.24 69.7C25.72 69.7 26.13 69.5 26.51 69.22C26.6122 69.1414 26.7191 69.0643 26.8263 68.987L26.8278 68.986C26.9507 68.8972 27.0742 68.8081 27.1917 68.7159C27.2319 68.6843 27.2714 68.6524 27.31 68.62C27.3866 68.5541 27.4638 68.4888 27.5413 68.4238C27.6561 68.3275 27.7715 68.232 27.8869 68.1365C28.2735 67.8166 28.6601 67.4966 29.02 67.15L30.95 65.28C31.3377 64.9057 31.7031 64.509 32.067 64.1139C32.2474 63.9179 32.4276 63.7223 32.61 63.53C34.3358 61.7194 35.9965 59.8554 37.6557 57.9928L37.6623 57.9855C38.1544 57.433 38.6464 56.8807 39.14 56.33C40.1348 55.2221 41.1268 54.1129 42.1187 53.0038C43.7588 51.1696 45.3986 49.3359 47.05 47.51C47.9225 46.5413 48.8234 45.5962 49.7234 44.652C49.9387 44.4261 50.1539 44.2003 50.3687 43.9743C50.5629 43.7698 50.7568 43.5651 50.95 43.36C52.19 42.05 53.44 40.74 54.7 39.45C57.45 36.63 60.18 33.79 62.91 30.95C63.2333 30.6116 63.5573 30.2738 63.8813 29.936C64.8499 28.9263 65.8184 27.9166 66.77 26.89C67.44 26.17 68.09 25.44 68.72 24.69C69.2255 24.087 69.6365 23.4133 70.044 22.7454L70.0447 22.7441L70.0477 22.7393L70.0506 22.7347C70.1004 22.653 70.1501 22.5714 70.2 22.49C70.3849 22.1867 70.4576 21.8424 70.4344 21.5047C70.5728 21.4688 70.7112 21.4339 70.85 21.4C70.87 21.4 70.89 21.39 70.91 21.39V21.42C70.91 21.73 70.91 22.04 70.89 22.35C70.83 22.87 70.7401 23.39 70.64 23.91C70.5219 24.4574 70.3997 25.0039 70.2777 25.55L70.2742 25.5657L70.2739 25.5675C70.0049 26.7713 69.7363 27.9733 69.51 29.18L69.4255 29.6381L69.4254 29.6393C69.1708 31.0147 68.9171 32.3862 68.89 33.79C68.8737 34.6566 68.9174 35.5231 68.9612 36.3896L68.9614 36.3923C68.9677 36.5174 68.9741 36.6425 68.9802 36.7677L68.99 36.97C69.05 37.93 69.76 38.74 70.73 38.74C71.65 38.74 72.55 37.93 72.5 36.97L72.4778 36.5276V36.5261C72.423 35.4461 72.3684 34.3719 72.43 33.29C72.5397 32.0556 72.7665 30.8545 72.9956 29.6411L73.06 29.3C73.22 28.6 73.3701 27.91 73.52 27.21C73.5771 26.9503 73.6358 26.6906 73.6945 26.4309C73.8416 25.7806 73.9885 25.1303 74.11 24.48L74.1393 24.3235C74.2703 23.6255 74.4014 22.9264 74.42 22.21C74.43 21.64 74.45 21.04 74.31 20.48C74.06 19.53 73.55 18.63 72.65 18.17C72.1801 17.93 71.6 17.79 71.06 17.82C70.49 17.85 69.96 17.95 69.41 18.09C68.6802 18.2699 67.9605 18.4998 67.2407 18.7297C66.7651 18.8849 66.2911 19.0379 65.8179 19.1906C65.3461 19.3429 64.8743 19.4952 64.4 19.65C62.5101 20.27 60.62 20.9 58.74 21.58C57.366 22.0818 55.9979 22.6014 54.6312 23.1205C54.2274 23.2739 53.8237 23.4272 53.42 23.58C53.35 23.61 53.28 23.63 53.21 23.66C53.09 23.69 52.97 23.73 52.85 23.78C52.82 23.79 52.79 23.8 52.77 23.81C52.7001 23.84 52.64 23.86 52.58 23.88L52.5858 23.8744L52.6 23.87C52.5971 23.87 52.5951 23.87 52.5934 23.8702C52.5906 23.8706 52.5888 23.8716 52.5858 23.8744C52.4612 23.9129 52.345 23.9514 52.21 23.99C52.2349 23.985 52.2574 23.98 52.2798 23.9751C52.3024 23.97 52.3249 23.965 52.35 23.96C51.44 24.18 50.79 24.98 50.92 25.94C51.05 26.85 51.97 27.63 52.92 27.45C53.1704 27.4018 53.4022 27.3351 53.6423 27.2499C53.6546 27.2495 53.6623 27.2477 53.67 27.24L53.91 27.15C53.9966 27.13 54.0743 27.1011 54.1521 27.0723C54.191 27.0578 54.23 27.0433 54.27 27.03C54.3201 27.02 54.37 27 54.42 26.98H54.44C54.4421 26.98 54.4442 26.9796 54.4462 26.9789C54.4486 26.9781 54.451 26.977 54.4535 26.9757C54.459 26.973 54.4645 26.97 54.47 26.97L54.56 26.94C54.55 26.95 54.55 26.95 54.54 26.95C55.3562 26.6643 56.1678 26.3509 56.9778 26.038L56.9875 26.0343C57.3652 25.8884 57.7426 25.7427 58.12 25.6C59.2 25.19 60.3 24.79 61.39 24.4C62.7601 23.9334 64.1299 23.4769 65.5 23.03C63.23 25.55 60.88 27.98 58.52 30.41C55.7 33.32 52.88 36.23 50.08 39.16C49.0449 40.2398 48.021 41.3251 46.9957 42.4119L46.9861 42.4218C46.7326 42.6906 46.4789 42.9594 46.225 43.2283L45.94 43.53C44.8524 44.6816 43.7904 45.8587 42.7284 47.0359L42.4997 47.2894C42.3099 47.4997 42.1201 47.71 41.93 47.92C40.3151 49.7013 38.7192 51.494 37.1237 53.2864L37.1066 53.3056C36.1191 54.4148 35.1317 55.5239 34.14 56.63L33.8245 56.9852C32.8093 58.1282 31.7901 59.2755 30.73 60.39C30.4535 60.6774 30.1823 60.9701 29.9111 61.2628C29.4369 61.7747 28.9626 62.2865 28.46 62.77C28.2588 62.9652 28.0576 63.1614 27.856 63.3579L27.7847 63.4275C27.5875 63.6198 27.3901 63.8123 27.192 64.0047C26.9424 64.2472 26.6919 64.4893 26.44 64.73L26.2533 64.8867C25.6369 65.4041 25.025 65.9177 24.38 66.39L24.37 66.4Z"
    fill="rgba(191, 192, 191, 1)" />
</svg>