<?xml version="1.0" encoding="UTF-8" standalone="yes"?>
<svg width="142" height="134" viewBox="-40 -40 222 214" fill="none" xmlns="http://www.w3.org/2000/svg">
  <path fill-rule="evenodd" clip-rule="evenodd"
    d="M11.7874 1.15545C5.94657 1.77309 1.67675 3.27693 0.763705 5.06273C-0.122487 6.79482 0.334041 11.9105 1.6499 14.22C2.33469 15.4553 3.73109 16.4623 4.77841 16.4623C5.14094 16.4623 5.5572 16.6637 5.71833 16.8517C5.91973 17.0799 6.92679 19.9802 8.00096 23.3101C11.68 34.6157 16.5138 46.7806 19.1455 51.3055C21.5624 55.4411 23.281 57.4283 25.2682 58.3816C26.8929 59.2006 27.4569 59.2946 30.2229 59.2678C38.0509 59.2409 46.6174 56.824 49.5848 53.8298C51.1827 52.232 53.1967 49.5332 54.338 47.4385L55.2779 45.7065L55.6673 47.1431C56.8758 51.9635 58.3393 56.7301 59.051 58.0996C60.0983 60.1808 61.6558 61.6847 63.0925 62.1143C66.1942 62.9602 72.1558 62.1815 78.2518 60.154C82.723 58.6501 84.6431 57.6163 86.5632 55.6291C87.3151 54.8503 87.9999 54.2595 88.067 54.3266C88.0939 54.3938 88.913 56.7435 89.8663 59.5095C93.0888 68.9621 95.8279 75.971 99.413 83.9601C101.4 88.3642 103.683 93.5471 104.462 95.5343C106.033 99.2804 110.759 113.271 110.759 114.077C110.759 114.305 110.558 114.601 110.37 114.695C110.141 114.762 109 115.541 107.899 116.387C105.388 118.28 104.086 120.106 104.381 121.274C104.838 123.033 112.625 131.438 114.908 132.62C116.345 133.372 117.58 133.305 120.413 132.365C125.274 130.74 130.806 127.504 133.223 124.872C134.525 123.476 134.592 123.275 134.525 121.516C134.498 120.28 135.237 116.078 136.767 108.733C141.359 87.0215 141.816 84.6181 141.628 84.3898C141.198 83.9602 138.795 84.2958 136.767 85.0746C133.8 86.189 131.719 87.2901 128.657 89.3444C127.194 90.3514 125.985 91.1436 125.918 91.0765C125.891 91.0094 125.233 89.4518 124.455 87.5586C123.703 85.6654 122.145 82.0804 120.964 79.5695C116.559 70.0497 113.793 62.9468 108.812 48.2844C105.388 38.241 104.287 35.569 102.81 34.0115C101.575 32.709 100.501 32.3868 97.2378 32.4136C92.216 32.4405 83.5824 35.0588 80.3598 37.5025C79.6079 38.053 78.4666 39.3017 77.849 40.2416C76.4794 42.3228 76.6808 42.6182 75.083 35.0588C73.7805 28.8286 72.505 25.0556 70.9743 22.6387C69.7658 20.7858 68.7856 20.195 66.3822 19.8996C62.7703 19.47 53.1833 21.3632 49.0746 23.3235C45.3284 25.1227 44.1871 26.8414 39.1922 38.2544C38.306 40.2819 37.5272 41.9334 37.4332 41.9334C36.7753 41.9334 28.6385 18.8523 25.2414 7.31846C24.5566 5.103 24.1001 4.18996 22.9991 3.02181C21.7906 1.65225 21.4013 1.45084 19.6692 1.19573C17.4805 0.833195 15.2382 0.833195 11.7874 1.19573V1.15545ZM14.258 4.02884C15.5604 5.42525 15.6007 5.46554 19.0112 16.516C22.368 27.4725 26.3827 38.3216 29.6321 45.4648C31.0285 48.459 33.9288 53.0242 35.2715 54.2595L36.1174 55.0383L36.9633 54.2595C38.1986 53.0913 40.8437 49.0498 42.173 46.2032C42.831 44.8337 44.6436 40.7653 46.2146 37.1803C47.7856 33.5952 49.5445 29.688 50.1219 28.4392C52.2031 24.2366 54.0292 22.8267 58.0708 22.4373C59.8969 22.2762 60.152 22.3433 61.065 23.0953C63.2134 24.9213 64.4487 28.1438 66.5702 37.8248C68.3291 45.8139 69.6987 50.9564 70.8132 53.6687C71.6322 55.723 72.8003 57.5491 73.2569 57.5491C73.8477 57.5491 76.5466 53.2793 80.7224 45.8139C83.099 41.6112 85.4219 37.7576 85.8784 37.2743C86.9526 36.1598 89.7857 35.0588 91.585 35.0588C92.7531 35.0588 93.1156 35.2602 94.3241 36.4955C95.989 38.2276 96.9289 40.5639 101.749 54.8503C105.791 66.7735 107.322 70.6539 111.954 80.9928C117.338 92.9563 119.352 98.4614 122.776 110.197C123.944 114.211 124.763 116.454 124.857 116.064C124.951 115.702 126.16 109.968 127.529 103.349C128.926 96.7024 130.228 90.9691 130.497 90.5663C131.155 89.5189 134.538 87.8943 134.538 88.6059C134.538 88.6731 133.88 91.8016 133.102 95.5477C132.283 99.2939 130.752 106.732 129.651 112.076C128.55 117.42 127.435 122.375 127.18 123.127C126.925 123.839 126.724 124.98 126.724 125.665C126.724 127.034 126.294 127.518 124.146 128.592C121.903 129.733 120.99 129.276 116.909 125.101C115.015 123.14 112.84 120.737 112.048 119.69C110.222 117.246 110.383 116.494 113.095 115.098C114.76 114.252 115.056 114.184 115.928 114.574C116.479 114.802 117.459 115.554 118.077 116.239C118.694 116.95 119.218 117.353 119.218 117.152C119.218 116.105 114.398 100.825 112.37 95.5074C111.685 93.7082 109.309 88.136 107.053 83.1277C102.125 72.0101 99.3995 65.0011 96.0025 54.7966C92.2831 43.491 89.9737 37.7845 89.3829 38.335C89.2889 38.429 87.5836 41.4366 85.5964 45.0217C78.5874 57.6028 77.2179 59.0664 71.7396 59.684C68.4097 60.0734 66.879 58.5696 64.9992 53.0645C63.9519 50.0702 63.3074 47.5191 60.3668 35.0051C59.2255 30.0236 57.3726 25.257 56.6207 25.257C56.2313 25.257 54.244 29.3254 51.666 35.5287C47.2351 46.0958 45.0464 50.0971 41.9179 53.4539C39.5682 55.9244 37.5138 56.8778 34.3585 56.8778C32.7338 56.8778 32.0758 56.7166 31.1359 56.0587C29.8603 55.2128 27.806 52.5005 25.8859 49.2109C23.4421 45.0082 17.212 28.9763 14.2177 19.1209L12.8213 14.4885H11.4786C10.0822 14.4885 9.23624 13.8709 8.44404 12.3402C7.7861 11.0646 7.30273 6.15032 7.7324 4.87475C8.16207 3.57232 8.4172 3.37092 10.015 3.04867C12.4588 2.59215 12.9824 2.68613 14.2177 3.98856L14.258 4.02884Z"
    fill="rgba(191, 192, 191, 1)" />
</svg>