<?xml version="1.0" encoding="UTF-8" standalone="yes"?>
<svg width="62" height="65" viewBox="-40 -40 142 145" fill="none" xmlns="http://www.w3.org/2000/svg">
  <path
    d="M55.1999 63.69C54.8399 62.9 54.94 61.99 54.9 61.15C54.87 60.65 54.8499 60.16 54.8199 59.67C54.7999 59.37 54.78 59.06 54.77 58.75C54.75 59.02 54.7199 59.29 54.6999 59.55C54.6499 60.07 54.59 60.6 54.52 61.12C54.43 61.74 54.2499 62.35 54.0799 62.96C53.8999 63.63 53.31 64.15 52.62 64.24C51.93 64.33 51.19 64 50.85 63.38C50.67 63.05 50.49 62.74 50.35 62.39C50.21 62.05 50.16 61.69 50.09 61.34C49.93 60.59 49.93 59.8 49.89 59.04C49.88 58.95 49.87 58.86 49.87 58.77C49.6 58.46 49.4299 58.05 49.4399 57.61C49.4599 56.35 49.47 55.09 49.48 53.82C49.3 51.55 49.1199 49.29 48.9399 47.03C48.7599 44.93 48.59 42.83 48.42 40.74C48.28 39.08 48.2 37.43 48.12 35.77C48.05 34.16 47.97 32.56 47.89 30.95C47.82 29.43 47.87 27.89 47.91 26.37C47.96 24.35 48.09 22.32 48.29 20.31C48.42 19.03 48.56 17.75 48.78 16.49C48.79 16.44 48.8 16.38 48.81 16.33C48.55 14.5 48.28 12.67 48 10.84C47 11.43 46.01 12.02 45.04 12.64C42.88 13.99 40.71 15.34 38.54 16.69C37.2 17.53 35.8899 18.41 34.5699 19.28C32.7499 20.48 30.92 21.69 29.11 22.89C27.41 24.06 25.74 25.27 24.06 26.45C22.76 27.36 21.44 28.25 20.17 29.2C18.16 30.7 16.15 32.2 14.13 33.7C12.77 34.71 11.45 35.75 10.11 36.79C9.13997 37.55 8.15992 38.3 7.18992 39.06C5.76992 40.18 4.37001 41.32 2.90001 42.36C2.11001 42.92 1.02003 42.83 0.420027 42.04C-0.189973 41.24 0.00997317 40.18 0.739973 39.56C1.69997 38.73 2.68003 37.91 3.67003 37.11C3.45003 37.18 3.21998 37.25 2.99998 37.3C2.29998 37.47 1.56999 37.25 1.12999 36.68C0.659988 36.07 0.619988 35.12 1.12999 34.52C1.51999 34.06 1.89996 33.63 2.34996 33.22C2.77996 32.83 3.23994 32.46 3.70994 32.1C4.11994 31.78 4.52992 31.46 4.93992 31.14C5.98992 30.32 7.03994 29.51 8.07994 28.69C9.61994 27.49 11.19 26.35 12.75 25.19C14.25 24.07 15.77 22.98 17.3 21.88C18.8 20.8 20.3199 19.76 21.8399 18.72C23.2499 17.76 24.67 16.79 26.11 15.85C28.11 14.56 30.1 13.26 32.1 11.97C33.73 10.92 35.4099 9.94 37.0699 8.92C38.4699 8.07 39.86 7.22 41.28 6.4C42.65 5.61 44.02 4.83 45.39 4.04C45.93 3.73 46.46 3.42 46.99 3.09C47.58 2.73 48.18 2.36 48.81 2.06C49.15 1.9 49.51 1.72 49.88 1.63C50.22 1.55 50.56 1.5 50.9 1.46C51.69 1.36 52.46 1.79 52.77 2.52C52.97 2.98 52.95 3.48001 52.75 3.91001C52.8 3.88001 52.84 3.86 52.89 3.83C52.94 3.74 52.99 3.64 53.06 3.55C53.62 2.76 54.4099 2.14 55.0699 1.44C55.1899 1.3 55.3 1.17 55.41 1.03C55.45 0.98 55.48 0.920004 55.52 0.870004C55.96 0.200004 56.72 -0.160001 57.52 0.0599991C57.84 0.149999 58.14 0.34 58.37 0.6C58.41 0.59 58.44 0.580001 58.48 0.570001C58.98 0.450001 59.42 0.420004 59.91 0.620004C61.21 1.17 61.36 3.07 60.12 3.78C59.69 4.03 59.2499 4.27 58.8199 4.52C58.8199 4.57 58.8299 4.63 58.8299 4.68C59.0399 7.58 59.54 10.45 59.98 13.33C60.27 15.29 60.5 17.26 60.76 19.22C61.31 23.5 61.46 27.83 61.28 32.13C61.22 33.71 61.13 35.3 60.98 36.88C60.85 38.2 60.72 39.51 60.59 40.83C60.25 44.26 59.84 47.68 59.56 51.11C59.22 55.16 58.92 59.21 58.61 63.26C58.55 64.04 57.84 64.67 57.09 64.78C57.0099 64.79 56.93 64.8 56.85 64.8C56.13 64.77 55.4899 64.34 55.1999 63.69ZM56.87 23.64C56.75 25.12 56.64 26.6 56.55 28.09C56.62 29.54 56.68 30.99 56.75 32.45C56.75 32.47 56.75 32.5 56.75 32.52C56.9 34.71 57.04 36.91 57.18 39.1C57.19 38.99 57.2 38.88 57.22 38.77C57.33 37.71 57.43 36.66 57.53 35.6C57.66 33.65 57.76 31.7 57.8 29.74C57.83 27.74 57.76 25.74 57.63 23.74C57.56 22.69 57.5 21.64 57.36 20.6C57.31 20.25 57.27 19.9 57.22 19.55C57.1 20.92 56.98 22.28 56.87 23.64ZM16.89 26.49C13.75 28.75 10.68 31.11 7.61998 33.49C7.40998 33.65 7.19998 33.81 6.99998 33.97C7.00998 34 7.02001 34.02 7.03001 34.06C7.05001 34.15 7.06994 34.24 7.07994 34.33C8.33994 33.33 9.59997 32.33 10.86 31.32C12.46 30.03 14.0899 28.78 15.6999 27.51C16.4499 26.92 17.1999 26.33 17.9499 25.74C17.5999 25.98 17.24 26.24 16.89 26.49ZM52.85 7.93C53.27 8.09 53.64 8.36 53.89 8.76C53.97 8.9 54.04 9.04 54.1 9.18C54.21 9.07 54.34 8.96 54.48 8.88C54.84 8.67 55.27 8.59001 55.68 8.66001C55.58 7.92001 55.49 7.18 55.42 6.44C54.56 6.94 53.7 7.44 52.85 7.93Z"
    fill="rgba(191, 192, 191, 1)" />
</svg>