<?xml version="1.0" encoding="UTF-8" standalone="yes"?>
<svg width="78" height="88" viewBox="-40 -40 158 168" fill="none" xmlns="http://www.w3.org/2000/svg">
  <path
    d="M9.24002 87.71C6.88002 87.64 4.50002 86.93 2.78002 85.26C2.01002 84.51 1.53002 83.51 1.21002 82.5C0.830018 81.33 0.910014 80.03 1.05001 78.83C1.37001 76.06 2.50003 73.43 3.85003 71.02C4.91003 69.13 6.27002 67.43 7.90002 66.01C8.78002 65.24 9.72003 64.54 10.66 63.83C12.07 62.76 13.42 61.6 14.75 60.43C15.14 60.08 15.54 59.74 15.93 59.39C16.34 59.01 16.75 58.63 17.16 58.25C17.57 57.87 17.95 57.44 18.34 57.04C19.1 56.17 19.87 55.3 20.56 54.37C21.32 53.34 22.06 52.3 22.78 51.25C23.8 49.6 24.78 47.94 25.73 46.24C26.62 44.63 27.47 42.98 28.44 41.41C29.53 39.64 30.69 37.94 31.87 36.23C32.94 34.68 34.03 33.1 35.32 31.71C37.02 29.89 38.71 28.07 40.68 26.54C41.65 25.79 42.7 25.13 43.71 24.43C45.09 23.47 46.72 22.07 48.51 22.62C48.79 22.71 49.04 22.85 49.24 23.05C49.86 22.59 50.79 22.51 51.4 23.05C51.58 23.2 51.75 23.35 51.94 23.48C52 23.52 52.06 23.55 52.12 23.59C52.52 23.77 52.94 23.93 53.35 24.09C54.46 24.52 55.44 25.18 56.12 26.16C56.73 27.03 56.93 28.04 56.98 29.07C57.04 30.31 56.77 31.61 56.42 32.79C55.65 35.45 53.94 37.73 52.15 39.79C50.85 41.29 49.34 42.57 47.78 43.78C46.29 44.94 44.73 46.02 43.23 47.17C42.83 47.48 42.45 47.81 42.06 48.14C41.46 48.67 40.86 49.2 40.29 49.76C39.7 50.32 39.16 50.91 38.61 51.5C38.24 51.95 37.86 52.4 37.5 52.85C37.11 53.32 36.77 53.83 36.41 54.31C36.02 54.9 35.63 55.48 35.28 56.09C34.87 56.79 34.49 57.5 34.11 58.22C33.66 59.15 33.2 60.08 32.81 61.04C32.41 62.03 32.03 63.02 31.67 64.02C30.48 67.7 29.41 71.43 28.03 75.05C27.65 76.03 27.12 76.98 26.55 77.87C25.84 78.98 25 79.98 24.09 80.92C22.91 82.13 21.56 83.09 20.18 84.04C19.77 84.33 19.32 84.57 18.89 84.82C18.12 85.28 17.32 85.69 16.51 86.07C14.35 87.08 12.03 87.7 9.64004 87.7C9.51004 87.71 9.37002 87.71 9.24002 87.71ZM5.24002 82.69C5.31002 82.76 5.37003 82.83 5.44003 82.89C5.58003 83.01 5.74004 83.13 5.89004 83.24C6.00004 83.31 6.12003 83.38 6.25003 83.45C6.47003 83.55 6.69004 83.65 6.92004 83.73C7.22004 83.82 7.53001 83.91 7.83001 83.98C8.24001 84.05 8.65002 84.11 9.06002 84.15C9.51002 84.17 9.97004 84.17 10.42 84.15C10.91 84.1 11.4 84.03 11.89 83.94C12.46 83.81 13.01 83.64 13.57 83.46C14.26 83.21 14.93 82.92 15.58 82.6C15.56 82.61 15.55 82.62 15.54 82.63C15.57 82.61 15.59 82.6 15.63 82.59C15.64 82.58 15.65 82.58 15.67 82.57C16.52 82.13 17.33 81.64 18.15 81.16C19.03 80.56 19.88 79.96 20.69 79.28C21.21 78.82 21.71 78.32 22.19 77.8C22.61 77.31 23 76.8 23.37 76.28C23.73 75.74 24.05 75.19 24.35 74.62C24.71 73.87 24.99 73.1 25.29 72.32C25.87 70.58 26.43 68.83 26.99 67.09C27.6 65.2 28.18 63.3 28.85 61.43C29.15 60.58 29.52 59.75 29.89 58.92C30.27 58.06 30.66 57.21 31.1 56.38C31.56 55.5 32.04 54.65 32.54 53.8C33.04 52.94 33.66 52.12 34.25 51.32C35.17 50.08 36.2 48.94 37.25 47.81C37.74 47.29 38.28 46.81 38.82 46.33C39.51 45.72 40.21 45.12 40.93 44.53C42.04 43.6 43.25 42.77 44.42 41.91C45.1 41.42 45.76 40.91 46.43 40.39C46.97 39.97 47.47 39.51 47.98 39.06C48.39 38.65 48.81 38.23 49.22 37.82C49.54 37.45 49.86 37.09 50.18 36.72C50.52 36.33 50.81 35.9 51.13 35.49C51.1 35.53 51.07 35.58 51.04 35.63C51.54 34.88 52.03 34.15 52.45 33.35C52.63 32.98 52.79 32.6 52.93 32.22C53.07 31.81 53.18 31.39 53.28 30.97C53.36 30.55 53.42 30.14 53.46 29.72C53.47 29.47 53.48 29.21 53.47 28.95C53.46 28.84 53.44 28.74 53.43 28.63C53.42 28.58 53.41 28.54 53.39 28.49C53.36 28.43 53.34 28.37 53.31 28.3C53.28 28.25 53.26 28.21 53.23 28.16C53.19 28.12 53.16 28.07 53.13 28.03C53.09 27.99 53.04 27.95 53 27.91C52.96 27.88 52.92 27.85 52.88 27.82C52.74 27.73 52.59 27.64 52.43 27.56C52.04 27.38 51.63 27.24 51.23 27.08C50.5 26.79 49.86 26.4 49.27 25.88C49.22 25.84 49.18 25.8 49.14 25.76C48.74 26.06 48.22 26.21 47.71 26.1C47.69 26.11 47.67 26.12 47.66 26.12C47.4 26.26 47.15 26.42 46.91 26.58C46.97 26.54 47.03 26.49 47.1 26.45C45.42 27.59 43.73 28.72 42.12 29.96C40.64 31.3 39.26 32.74 37.9 34.2C37.17 35.07 36.45 35.94 35.8 36.87C35.02 37.98 34.25 39.09 33.48 40.21C33.03 40.88 32.56 41.55 32.14 42.25C31.57 43.17 31.02 44.09 30.5 45.03C29.61 46.63 28.76 48.25 27.84 49.84C27.3 50.76 26.76 51.67 26.2 52.58C25.69 53.41 25.13 54.2 24.58 55.01C23.52 56.56 22.29 58 21.06 59.41C20.26 60.32 19.36 61.13 18.48 61.95C17.59 62.77 16.65 63.55 15.73 64.34C14.91 65.06 14.06 65.74 13.2 66.42C12.2 67.21 11.17 67.94 10.2 68.77C9.73004 69.2 9.28003 69.65 8.85003 70.12C8.42003 70.63 8.02004 71.15 7.64004 71.7C7.22004 72.35 6.85003 73.02 6.47003 73.69C6.28003 74.09 6.09002 74.49 5.90002 74.89C5.68002 75.35 5.52001 75.85 5.33001 76.32C5.35001 76.25 5.38002 76.18 5.40002 76.1C5.15002 76.83 4.93004 77.56 4.76004 78.31C4.65004 78.85 4.58002 79.38 4.53003 79.92C4.52003 80.21 4.51003 80.49 4.53003 80.79C4.55002 80.99 4.58001 81.19 4.61001 81.39C4.64001 81.5 4.66004 81.6 4.70004 81.71C4.75004 81.85 4.80001 81.98 4.86001 82.11C4.84001 82.06 4.81003 82.02 4.79003 81.97C4.81003 82.02 4.84001 82.07 4.86001 82.12C4.87001 82.14 4.88004 82.16 4.89004 82.17C4.88004 82.15 4.87002 82.14 4.87002 82.12C4.93002 82.23 5.00003 82.35 5.07003 82.46C5.03003 82.4 4.98003 82.34 4.94003 82.27C5.00003 82.4 5.12002 82.55 5.24002 82.69Z"
    fill="rgba(191, 192, 191, 1)" />
  <path d="M15.66 82.56C15.66 82.56 15.65 82.56 15.65 82.57C15.65 82.56 15.65 82.56 15.66 82.56Z"
    fill="rgba(191, 192, 191, 1)" />
  <path
    d="M62.43 69.76C61.34 69.76 60.3 69.16 59.47 68.52C57.68 67.11 56.76 64.85 56.42 62.66C56.23 61.43 56.25 60.17 56.24 58.94C56.23 57.07 56.24 55.21 56.26 53.34C56.27 52.41 56.3 51.48 56.34 50.55C56.38 49.63 56.42 48.69 56.56 47.78C56.65 47.24 56.71 46.69 56.83 46.16C56.95 45.64 57.07 45.12 57.19 44.6C57.41 43.66 57.7 42.72 57.97 41.79C58.23 40.87 58.51 39.97 58.82 39.06C59.13 38.13 59.52 37.24 59.92 36.35C60.49 35.09 61.1 33.85 61.64 32.57C62.3 31.02 62.95 29.46 63.51 27.88C63.48 27.95 63.46 28.02 63.43 28.09C63.59 27.6 63.75 27.1 63.86 26.6C63.91 26.34 63.94 26.08 63.97 25.82C63.97 25.62 63.97 25.43 63.97 25.23C63.95 24.99 63.92 24.75 63.88 24.52C63.81 24.2 63.72 23.88 63.61 23.56C63.51 23.3 63.4 23.05 63.28 22.8C63.18 22.61 63.07 22.42 62.95 22.24C62.84 22.1 62.74 21.95 62.62 21.81C62.53 21.71 62.43 21.62 62.33 21.52C62.19 21.4 62.04 21.29 61.9 21.18C61.65 21.02 61.39 20.86 61.12 20.72C60.5 20.42 59.85 20.17 59.2 19.94C58.75 19.8 58.3 19.67 57.84 19.56C57.57 19.51 57.31 19.48 57.04 19.45C56.72 19.43 56.4 19.43 56.08 19.45C54.16 19.6 52.29 20.11 50.39 20.34C48.79 20.52 47.2 20.68 45.61 20.94C44.78 21.14 43.95 21.36 43.14 21.64C42.25 21.94 41.35 22.26 40.45 22.55C39.49 22.85 38.52 23.14 37.55 23.41C36.6 23.68 35.64 23.85 34.67 24.03C30.94 24.74 27.11 24.89 23.32 25.05C21.4 25.13 19.48 25.24 17.56 25.33C16.42 25.38 15.27 25.33 14.13 25.22C12.85 25.11 11.57 24.8 10.4 24.27C9.9 24.05 9.43001 23.76 9.03001 23.39C8.70001 23.09 8.34 22.72 8.18 22.29C8 21.83 7.84002 21.32 7.92002 20.81C8.02002 20.19 8.23 19.66 8.58 19.13C9.99 16.98 12.31 15.68 14.48 14.42C16.14 13.46 17.91 12.76 19.73 12.17C22.53 11.26 25.35 10.45 28.19 9.69002C31.12 8.90002 34.08 8.24003 37.05 7.64003C36.97 7.66003 36.9 7.67002 36.82 7.69002C38.5 7.34002 40.16 6.95 41.81 6.49C43.34 6.07 44.85 5.55002 46.35 5.04002C47.38 4.66002 48.4 4.25001 49.42 3.84001C50.67 3.34001 52 2.77002 53.35 2.69002C53.71 2.67002 54.05 2.78003 54.33 2.98003C54.53 2.79003 54.78 2.65002 55.05 2.57002C55.98 2.28002 56.93 2.08001 57.88 1.90001C58.58 1.74001 59.27 1.51001 59.97 1.37001C60.85 1.18001 61.73 1.03003 62.63 0.980025C64.59 0.870025 66.5 1.21002 68.32 1.94002C69.05 2.23002 69.75 2.56003 70.41 2.98003C71.26 3.52003 71.96 4.26001 72.51 5.09001C73.57 6.69001 74.26 8.48001 74.81 10.31C74.94 10.73 75.02 11.19 75.1 11.63C75.17 12.02 75.24 12.41 75.3 12.8C75.44 13.62 75.58 14.44 75.73 15.26C75.81 15.66 75.89 16.06 75.98 16.46C75.99 16.49 76 16.53 76 16.56C76 16.58 76 16.59 76.01 16.61C76.01 16.6 76.01 16.59 76.01 16.58C76.38 18.42 76.7 20.26 76.98 22.12C77.13 23.1 77.28 24.08 77.42 25.07C77.56 26.07 77.63 27.09 77.69 28.1C77.75 29.01 77.73 29.94 77.73 30.85C77.73 31.72 77.73 32.59 77.71 33.46C77.66 35.44 77.54 37.4 77.32 39.37C77.02 42.09 76.66 44.82 76 47.48C75.66 48.86 75.32 50.23 74.96 51.6C74.77 52.34 74.56 53.07 74.34 53.8C74.14 54.47 73.9 55.12 73.67 55.78C73.69 55.71 73.72 55.64 73.74 55.56C73.1 57.42 72.21 59.2 71.32 60.95C70.44 62.68 69.43 64.31 68.24 65.84C67.37 66.97 66.35 68.06 65.18 68.88C64.35 69.46 63.45 69.79 62.43 69.8C62.44 69.76 62.43 69.76 62.43 69.76ZM58.08 16C59.11 16.14 60.15 16.47 61.12 16.86C62.31 17.33 63.45 17.85 64.45 18.66C65.81 19.76 66.65 21.32 67.16 22.97C67.43 23.83 67.54 24.74 67.54 25.63C67.55 26.59 67.32 27.57 67.04 28.49C66.72 29.56 66.3 30.61 65.88 31.65C65.31 33.05 64.72 34.43 64.1 35.81C63.81 36.45 63.5 37.08 63.21 37.72C62.9 38.41 62.61 39.1 62.33 39.81C61.54 42.16 60.87 44.55 60.31 46.96C60.23 47.45 60.15 47.94 60.08 48.44C60 48.91 59.99 49.4 59.95 49.88C59.86 51.83 59.83 53.79 59.82 55.74C59.81 57.56 59.8 59.38 59.86 61.2C59.9 61.73 59.96 62.26 60.06 62.79C60.12 63.06 60.19 63.31 60.27 63.57C60.35 63.78 60.44 63.99 60.53 64.2C60.64 64.41 60.75 64.61 60.88 64.81C61.03 65.02 61.18 65.22 61.34 65.41C61.45 65.52 61.56 65.63 61.67 65.74C61.77 65.82 61.88 65.9 61.99 65.98C62.06 66.02 62.13 66.05 62.19 66.1C62.26 66.13 62.33 66.16 62.4 66.19C62.44 66.2 62.48 66.21 62.52 66.22C62.53 66.22 62.54 66.22 62.56 66.23C62.58 66.23 62.59 66.23 62.61 66.23C62.62 66.23 62.63 66.23 62.65 66.22C62.68 66.21 62.71 66.2 62.74 66.2C62.81 66.17 62.87 66.15 62.94 66.11C63.01 66.07 63.08 66.03 63.15 65.99C63.38 65.82 63.61 65.65 63.83 65.45C64.14 65.16 64.44 64.86 64.73 64.55L64.72 64.56C65.09 64.14 65.45 63.71 65.79 63.27C66.13 62.83 66.45 62.37 66.76 61.91C67.45 60.76 68.08 59.6 68.69 58.41C69.31 57.1 69.89 55.78 70.44 54.43C70.6 53.98 70.76 53.53 70.91 53.07C71.11 52.48 71.27 51.86 71.43 51.25C71.63 50.47 71.83 49.7 72.03 48.92C72.37 47.57 72.69 46.22 73 44.87C73.5 42.07 73.85 39.26 74.09 36.42C74.26 33.28 74.32 30.12 74.13 26.98C73.8 24.09 73.34 21.21 72.82 18.35C72.74 17.96 72.66 17.58 72.58 17.19C72.58 17.21 72.59 17.23 72.59 17.26C72.58 17.22 72.57 17.19 72.57 17.15C72.56 17.11 72.55 17.07 72.55 17.03C72.55 17.05 72.56 17.06 72.56 17.08C72.23 15.45 71.95 13.82 71.67 12.18C71.52 11.52 71.35 10.87 71.15 10.22C70.91 9.60002 70.66 9.00001 70.39 8.40001C70.14 7.92001 69.89 7.45 69.6 6.99C69.46 6.8 69.32 6.61002 69.16 6.44002C69.1 6.37002 69.03 6.31001 68.96 6.25001C68.86 6.16001 68.75 6.08001 68.65 6.00001C68.42 5.86001 68.2 5.73002 67.97 5.60002C67.49 5.37002 67 5.17 66.5 4.99C66.12 4.87 65.74 4.76003 65.35 4.67003C64.92 4.59003 64.48 4.53 64.04 4.49C63.64 4.47 63.24 4.47 62.84 4.49C62.38 4.53 61.92 4.59001 61.46 4.65001C60.82 4.79001 60.18 4.96002 59.55 5.13002C58.89 5.30002 58.22 5.42002 57.55 5.54002C57.05 5.66002 56.55 5.80003 56.05 5.95003C55.55 6.10003 55.02 5.99001 54.6 5.71001C54.28 5.99001 53.86 6.17003 53.4 6.20003C53.39 6.20003 53.38 6.20003 53.38 6.20003C53.44 6.20003 53.5 6.19002 53.56 6.19002C53.47 6.20002 53.38 6.21003 53.28 6.23003C52.88 6.33003 52.49 6.46001 52.1 6.59001C50.85 7.06001 49.63 7.58 48.38 8.05C47.07 8.54 45.74 8.99003 44.4 9.39003C43.01 9.81003 41.63 10.21 40.22 10.55C38.89 10.86 37.54 11.13 36.2 11.4C33.52 11.97 30.87 12.61 28.23 13.33C25.62 14.03 23.03 14.81 20.46 15.64C19.92 15.83 19.39 16.02 18.86 16.23C18.33 16.44 17.82 16.68 17.31 16.92C16.08 17.58 14.89 18.28 13.72 19.04C13.37 19.3 13.02 19.56 12.68 19.84C12.43 20.06 12.2 20.29 11.98 20.54C11.88 20.66 11.79 20.78 11.69 20.9C11.75 20.94 11.81 20.97 11.87 21C12.02 21.07 12.17 21.14 12.32 21.19C12.71 21.32 13.11 21.43 13.52 21.52C14.07 21.62 14.63 21.68 15.19 21.73C17.39 21.85 19.58 21.65 21.77 21.56C23.53 21.48 25.29 21.41 27.04 21.31C27 21.31 26.95 21.31 26.91 21.32C26.96 21.32 27.02 21.31 27.07 21.31C27.09 21.31 27.11 21.31 27.12 21.31C28.4 21.22 29.67 21.13 30.95 20.97C32.36 20.8 33.76 20.58 35.16 20.32C36.1 20.09 37.03 19.86 37.96 19.6C38.87 19.34 39.77 19.03 40.66 18.73C41.53 18.44 42.39 18.14 43.27 17.87C44.21 17.58 45.16 17.41 46.13 17.24C46.97 17.1 47.84 17.05 48.68 16.95C49.59 16.84 50.5 16.75 51.4 16.59C52.44 16.4 53.49 16.2 54.53 16.04C55.21 15.94 55.89 15.88 56.57 15.88C57.05 15.9 57.56 15.93 58.08 16Z"
    fill="rgba(191, 192, 191, 1)" />
  <path d="M53.57 6.17999C53.55 6.17999 53.53 6.18 53.51 6.19C53.52 6.19 53.55 6.18999 53.57 6.17999Z"
    fill="rgba(191, 192, 191, 1)" />
</svg>