<?xml version="1.0" encoding="UTF-8" standalone="yes"?>
<svg width="76" height="73" viewBox="-40 -40 156 153" fill="none" xmlns="http://www.w3.org/2000/svg">
  <path
    d="M1.90996 72.4C1.41997 72.1801 1.03002 71.76 0.890002 71.24C0.71001 70.61 0.910022 69.9901 1.34001 69.52C1.74309 69.0808 2.15349 68.6453 2.5645 68.2089C2.83666 67.9201 3.10912 67.6308 3.37999 67.34C3.73107 66.955 4.07579 66.5635 4.42131 66.171C4.6859 65.8704 4.95104 65.5693 5.21996 65.27C5.20995 65.2901 5.18999 65.3001 5.17998 65.32C5.48387 64.9733 5.78777 64.6295 6.09105 64.2865C6.35814 63.9845 6.6248 63.6829 6.89055 63.3802C7.09764 63.1444 7.30419 62.9079 7.51 62.67C7.48998 62.7 7.46001 62.7301 7.43999 62.76C10.0849 59.7458 12.8594 56.8411 15.6243 53.9467L15.64 53.93C16.8475 52.6626 18.0949 51.4152 19.3325 50.1775L19.34 50.17C19.6285 49.8815 19.9166 49.5924 20.2046 49.3034C21.2146 48.29 22.2252 47.276 23.26 46.28C26.26 43.4 29.28 40.5501 32.31 37.71C34.3643 35.8004 36.4552 33.9221 38.545 32.045C39.3442 31.3271 40.1432 30.6093 40.94 29.89C45.4723 25.8071 50.0646 21.7902 54.7123 17.8393C54.1221 18.0332 53.5337 18.234 52.9458 18.4346L52.49 18.59C51.3245 18.983 50.159 19.3848 48.9936 19.7866C48.409 19.9881 47.8245 20.1897 47.24 20.39C46.8567 20.5206 46.4735 20.6514 46.0903 20.7821C42.8048 21.9033 39.5215 23.0238 36.19 24C35.2529 24.2739 34.3106 24.5323 33.3705 24.7901C33.0065 24.8899 32.6429 24.9896 32.28 25.09C31.74 25.2301 31.1901 25.37 30.65 25.5C30.5608 25.5223 30.4717 25.5448 30.3826 25.5672C29.4731 25.7965 28.5681 26.0245 27.63 26.07C26.93 26.11 26.26 25.61 26 24.99C25.69 24.26 25.92 23.38 26.55 22.9C27.12 22.4701 27.96 22.37 28.66 22.31C28.72 22.3 28.78 22.3 28.85 22.3C35.2708 20.8196 41.5213 18.6502 47.7543 16.487C48.7631 16.1369 49.7715 15.7869 50.78 15.44C51.0848 15.3364 51.3886 15.2309 51.6921 15.1256C52.3843 14.8853 53.0748 14.6455 53.77 14.43C54.1214 14.3166 54.4761 14.2065 54.8321 14.0959C55.1042 14.0114 55.3771 13.9267 55.65 13.84C55.8234 13.7843 56.0004 13.7401 56.179 13.6956C56.2889 13.6681 56.3995 13.6405 56.51 13.61C56.96 13.49 57.41 13.3501 57.87 13.2801C58.53 13.1801 59.19 13.12 59.82 13.35C59.8705 13.3684 59.9211 13.3881 59.9716 13.4092C61.2302 12.3491 62.483 11.2845 63.73 10.22C65.0799 9.01003 66.43 7.79006 67.71 6.50002C67.0372 6.56411 66.3685 6.6487 65.7038 6.73281L65.6919 6.73427C65.3235 6.7809 64.9561 6.82735 64.59 6.87002C64.4361 6.88888 64.282 6.90798 64.1277 6.92727C63.8242 6.96511 63.5199 7.00362 63.2152 7.0422L63.2139 7.04238C62.9195 7.07967 62.6246 7.11696 62.3295 7.15383C62.0964 7.18294 61.8632 7.21175 61.63 7.24001C60.1025 7.42678 58.5605 7.57021 57.0226 7.71328L57.016 7.71383C56.7438 7.73916 56.4718 7.76449 56.2 7.79C55.555 7.85 54.9125 7.90749 54.27 7.96499C53.6275 8.02248 52.985 8.08004 52.34 8.14004L49.88 8.53005C49.6221 8.56692 49.3589 8.58742 49.0982 8.60769L49.0936 8.60805C49.0019 8.61519 48.9106 8.62227 48.82 8.63003C48.6736 8.6451 48.5273 8.65969 48.381 8.67403C48.2083 8.69094 48.0357 8.70748 47.8635 8.72402L47.8451 8.72585C47.4917 8.75979 47.1395 8.79354 46.79 8.83004C45.5231 8.94906 44.2464 8.99947 42.9703 9.04983C42.4231 9.07143 41.8761 9.09304 41.33 9.12002C40.98 9.14004 40.6299 9.16006 40.29 9.17C39.42 9.21004 38.65 8.48006 38.54 7.64004C38.42 6.73006 39.09 5.72005 40.06 5.65004C42.9048 5.43178 45.7439 5.17946 48.5818 4.92727H48.5832L48.62 4.92397C49.5401 4.84224 50.4601 4.76052 51.38 4.68001C51.56 4.66005 51.73 4.65004 51.91 4.63003C52.4599 4.54006 53.01 4.45003 53.56 4.37002C54.09 4.25222 54.622 4.13827 55.1541 4.02431C56.3384 3.77065 57.5241 3.51668 58.69 3.21999C59.271 3.07473 59.8496 2.92702 60.4282 2.77926C61.0046 2.63204 61.581 2.48482 62.16 2.34005C62.418 2.27553 62.6767 2.20968 62.9359 2.1437L62.9388 2.14296C63.6832 1.95351 64.4316 1.76302 65.18 1.6C66.5199 1.30001 67.88 1.01003 69.26 0.990011C70.37 0.980062 71.3999 1.16005 72.35 1.76003C73.34 2.38003 74.05 3.3301 74.49 4.40004C74.6999 4.91005 74.83 5.46004 74.94 6.01003C75.05 6.59005 75.1399 7.17006 75.17 7.76003C75.25 9.12008 75.18 10.4901 75.06 11.84C74.9197 13.517 74.7104 15.1891 74.5013 16.8597C74.4123 17.57 74.3235 18.28 74.24 18.99L74.1794 19.5339V19.535C74.0208 20.9614 73.863 22.3807 73.65 23.8C73.5304 24.6677 73.4007 25.5352 73.2711 26.4029L73.27 26.41C73.1943 26.9469 73.0785 27.4837 72.9634 28.018L72.9623 28.0228C72.8954 28.3329 72.8287 28.6422 72.77 28.95C72.17 31.95 71.22 34.87 70.2 37.75C70.18 37.84 70.1499 37.9401 70.11 38.03C70.09 38.085 70.0676 38.1399 70.0451 38.1947C70.0225 38.2498 70 38.3049 69.98 38.36C69.9755 38.3733 69.9711 38.3847 69.9667 38.3958C69.9611 38.4097 69.9556 38.4234 69.95 38.44C69.66 39.26 68.66 39.6801 67.85 39.46C66.9599 39.21 66.31 38.2001 66.62 37.28C66.64 37.2101 66.67 37.14 66.69 37.06C66.7085 37.007 66.7271 36.9547 66.7457 36.9027L66.7947 36.7659C66.8194 36.6969 66.8442 36.6279 66.8689 36.5581L66.9 36.47C66.9 36.4748 66.8995 36.479 66.8986 36.4827L66.9892 36.2173C67.356 35.1363 67.7206 34.0615 68.06 32.97C68.4599 31.71 68.79 30.4301 69.12 29.15C69.1766 28.8713 69.235 28.5938 69.2933 28.3167L69.296 28.3039L69.2988 28.2909C69.4855 27.4033 69.6714 26.5202 69.8 25.62C69.8355 25.3783 69.8714 25.1369 69.9072 24.8957C70.073 23.7796 70.2384 22.6666 70.37 21.54C70.4251 21.068 70.479 20.5949 70.533 20.1213C70.5992 19.5406 70.6654 18.9593 70.734 18.379C70.7718 18.059 70.8103 17.7392 70.85 17.42C70.9239 16.7813 71.003 16.1416 71.0823 15.5014C71.2711 13.9766 71.4603 12.4483 71.58 10.92V10.72C71.62 9.79 71.6499 8.86007 71.61 7.93001L71.6078 7.90413L71.6076 7.90194C71.6032 7.8489 71.5987 7.79427 71.5932 7.73971C71.587 7.67898 71.5797 7.61831 71.57 7.56002C71.3937 7.76833 71.2045 7.96389 71.0128 8.16207L71.0121 8.1628C70.9648 8.21163 70.9174 8.26064 70.87 8.31002C70.26 8.96004 69.63 9.59005 68.98 10.2C66.6473 12.4073 64.1958 14.4818 61.7365 16.5462C61.7311 17.1955 61.6161 17.8544 61.47 18.5C61.07 20.3 60.5101 22.06 59.9 23.8C59.9085 23.7703 59.9188 23.7406 59.9294 23.71C59.9437 23.6687 59.9585 23.6261 59.97 23.58C59.78 24.125 59.5925 24.67 59.405 25.215C59.2175 25.76 59.03 26.305 58.84 26.85C58.15 28.88 57.54 30.93 56.96 32.99C56.9156 33.1477 56.871 33.3052 56.8265 33.4625C56.5997 34.2627 56.3739 35.0594 56.19 35.87L55.38 39.47C55.3154 39.8639 55.2455 40.2587 55.1755 40.6541C55.0075 41.6037 54.8389 42.5569 54.74 43.51C54.6982 43.9092 54.6543 44.3063 54.6102 44.7022C54.5593 45.1591 54.5082 45.6146 54.46 46.07C54.4028 46.5786 54.3711 47.0922 54.3393 47.6074C54.3268 47.8114 54.3142 48.0157 54.3 48.22C54.25 49.3 54.19 50.39 54.12 51.47C54.06 52.53 53.99 53.61 53.82 54.67C53.68 55.55 52.94 56.2 52.06 56.2C52 56.21 51.92 56.21 51.84 56.19C50.9 56.07 50.18 55.15 50.32 54.2C50.47 53.28 50.52 52.35 50.59 51.42C50.7001 49.48 50.81 47.55 50.95 45.62C51.0824 43.7474 51.3938 41.9016 51.7062 40.0488L51.76 39.73C51.9 38.93 52.06 38.14 52.24 37.34C52.39 36.6801 52.54 36.01 52.69 35.35C52.7231 35.2091 52.7529 35.0647 52.7827 34.9198C52.8249 34.715 52.8673 34.5091 52.92 34.31C53.0265 33.9267 53.1316 33.5429 53.2367 33.1591C53.6252 31.7409 54.0135 30.3231 54.47 28.93C54.84 27.77 55.2001 26.6001 55.59 25.45C55.5701 25.52 55.54 25.59 55.52 25.67C55.71 25.125 55.8975 24.58 56.085 24.0351C56.2725 23.4901 56.46 22.9451 56.65 22.4C56.62 22.4701 56.6 22.54 56.57 22.62C56.7306 22.1541 56.8848 21.6818 57.0377 21.2134L57.15 20.87C57.2186 20.6605 57.285 20.4505 57.3492 20.2398C53.8979 23.1726 50.486 26.1472 47.08 29.14C45.9509 30.157 44.8187 31.1708 43.6864 32.1846L43.6712 32.1981L43.6695 32.1996C41.9794 33.7129 40.2894 35.226 38.61 36.75C35.5199 39.5401 32.49 42.37 29.47 45.23C26.8299 47.73 24.22 50.27 21.65 52.85L21.1206 53.3829C19.8954 54.6157 18.6674 55.8514 17.47 57.11C15.99 58.67 14.52 60.2401 13.06 61.82C12.06 62.9101 11.06 64.02 10.06 65.11C9.33995 65.93 8.60997 66.75 7.89 67.57L5.84996 69.88C5.46318 70.3202 5.05864 70.7425 4.6541 71.1648C4.55693 71.2663 4.45983 71.3677 4.3629 71.4693C4.25823 71.5792 4.1538 71.6893 4.04998 71.8C3.70995 72.2801 3.13994 72.59 2.54998 72.59L2.49034 72.5777C2.40776 72.5607 2.31908 72.5424 2.22801 72.5178C2.12334 72.4895 2.01549 72.4528 1.90996 72.4Z"
    fill="rgba(191, 192, 191, 1)" />
</svg>