<?xml version="1.0" encoding="UTF-8" standalone="yes"?>
<svg width="79" height="82" viewBox="-40 -40 159 162" fill="none" xmlns="http://www.w3.org/2000/svg">
  <path
    d="M12.26 81.71C9.77001 81.67 7.22002 81.05 5.08002 79.74C4.10002 79.15 3.26002 78.38 2.52002 77.52C1.70002 76.57 1.14 75.42 0.750005 74.24C0.0400046 72.07 0.350014 69.71 1.01001 67.57C1.73001 65.25 2.93999 63.08 4.35999 61.12C5.76999 59.18 7.53003 57.44 9.59003 56.21C10.57 55.62 11.66 55.26 12.79 55.07C13.54 54.95 14.32 55.02 15.08 55.08C15.05 55.08 15.03 55.08 15 55.08C15.1 55.09 15.21 55.11 15.31 55.13C15.56 55.09 15.81 55.1 16.06 55.18C17.48 55.63 18.9 56.13 20.22 56.81C21.31 57.37 22.34 58.05 23.28 58.83C24.2 59.6 25.08 60.44 25.77 61.44C26.41 62.36 26.86 63.39 27.21 64.45C27.61 65.68 27.68 67.01 27.61 68.29C27.55 69.5 27.31 70.68 26.93 71.82C26.52 73.04 25.9 74.15 25.17 75.21C23.77 77.23 21.8 78.88 19.64 80.04C17.44 81.22 14.98 81.73 12.5 81.73C12.42 81.71 12.34 81.71 12.26 81.71ZM3.89002 71.17C3.88002 71.4 3.88002 71.63 3.89002 71.86C3.92002 72.16 3.96002 72.46 4.02002 72.76C4.08002 72.99 4.14003 73.22 4.21003 73.44C4.29003 73.65 4.37999 73.86 4.47999 74.07C4.59999 74.3 4.73 74.53 4.87 74.75C5.06 75.01 5.25003 75.26 5.46003 75.51C5.62003 75.69 5.79998 75.85 5.96998 76.02C6.20998 76.22 6.46003 76.41 6.71003 76.59C6.98003 76.76 7.25002 76.92 7.52002 77.07C7.83002 77.22 8.14998 77.36 8.46998 77.48C8.98997 77.66 9.50003 77.8 10.03 77.92C10.57 78.02 11.11 78.1 11.65 78.15C12.25 78.19 12.84 78.19 13.44 78.16C14.02 78.11 14.59 78.03 15.17 77.93C15.61 77.83 16.05 77.71 16.48 77.57C16.9 77.41 17.31 77.24 17.71 77.05C18.19 76.8 18.67 76.52 19.13 76.22C19.54 75.93 19.93 75.63 20.32 75.31C20.74 74.93 21.14 74.54 21.52 74.13C21.87 73.72 22.2 73.29 22.5 72.85C22.73 72.5 22.94 72.14 23.14 71.76C23.3 71.41 23.44 71.06 23.58 70.71C23.71 70.3 23.83 69.89 23.92 69.47C24 69.04 24.05 68.61 24.09 68.18C24.11 67.75 24.11 67.34 24.09 66.91C24.06 66.63 24.03 66.35 23.98 66.07C23.92 65.79 23.84 65.51 23.75 65.23C23.63 64.91 23.5 64.59 23.35 64.27C23.21 64.02 23.07 63.77 22.92 63.52C22.75 63.27 22.56 63.04 22.37 62.82C22.01 62.44 21.63 62.08 21.24 61.74C20.84 61.4 20.44 61.09 20.01 60.79C19.52 60.47 19.03 60.17 18.51 59.9C17.65 59.49 16.77 59.16 15.88 58.84C15.88 58.84 15.89 58.84 15.9 58.85C15.66 58.77 15.42 58.69 15.18 58.61C15.1 58.62 15.02 58.62 14.94 58.62C14.71 58.61 14.47 58.59 14.24 58.57C13.96 58.56 13.69 58.56 13.41 58.57C13.29 58.58 13.17 58.6 13.05 58.62C12.82 58.67 12.59 58.73 12.36 58.81C12.15 58.9 11.93 58.99 11.72 59.09C11.45 59.23 11.19 59.39 10.93 59.55C10.51 59.84 10.11 60.15 9.71998 60.48C9.21998 60.93 8.74999 61.4 8.29999 61.9C7.72999 62.56 7.19002 63.25 6.70002 63.97C6.22002 64.7 5.78001 65.45 5.38001 66.23C5.06001 66.89 4.77002 67.57 4.52002 68.27C4.33002 68.85 4.16999 69.44 4.04999 70.04C4.06999 69.96 4.08998 69.88 4.09998 69.81C3.99998 70.24 3.93002 70.7 3.89002 71.17Z"
    fill="rgba(191, 192, 191, 1)" />
  <path
    d="M27.87 58.45C25.71 57.63 24.07 55.62 23.7 53.34C23.29 50.84 23.95 48.23 24.87 45.91C25.71 43.79 27.26 41.79 29.6 41.31C30.07 41.21 30.59 41.16 31.1 41.18C31.46 40.61 32.14 40.25 32.84 40.36C34.52 40.61 36.18 41.09 37.69 41.86C39.77 42.92 41.54 44.71 42.28 46.94C42.63 47.99 42.53 49.2 42.26 50.25C41.96 51.44 41.27 52.54 40.56 53.53C39.11 55.55 37.13 57.25 34.85 58.24C33.64 58.76 32.35 59.04 31.07 59.04C29.98 59.03 28.9 58.84 27.87 58.45ZM30.06 44.84C29.99 44.86 29.93 44.89 29.86 44.92C29.81 44.95 29.75 44.98 29.7 45.02C29.59 45.09 29.49 45.17 29.4 45.25C29.31 45.34 29.22 45.43 29.13 45.52C29.05 45.62 28.98 45.71 28.91 45.81C28.71 46.13 28.53 46.45 28.36 46.78C28.2 47.13 28.06 47.48 27.92 47.84C27.69 48.52 27.49 49.22 27.34 49.92C27.25 50.42 27.18 50.93 27.13 51.44C27.12 51.66 27.11 51.89 27.12 52.11C27.14 52.34 27.17 52.56 27.2 52.79C27.24 52.96 27.29 53.13 27.34 53.31C27.37 53.4 27.41 53.48 27.45 53.56C27.52 53.71 27.61 53.85 27.7 53.99C27.79 54.11 27.88 54.23 27.97 54.35C28.04 54.43 28.12 54.5 28.2 54.58C28.29 54.65 28.37 54.71 28.46 54.78C28.59 54.86 28.72 54.94 28.85 55.01C29.05 55.1 29.25 55.19 29.46 55.27C29.64 55.32 29.82 55.38 30.01 55.42C30.23 55.45 30.46 55.48 30.68 55.5C30.92 55.51 31.15 55.51 31.39 55.5C31.62 55.48 31.84 55.45 32.07 55.41C32.38 55.34 32.68 55.26 32.98 55.16C33.3 55.04 33.61 54.91 33.92 54.77C34.25 54.6 34.56 54.41 34.87 54.21C35.25 53.94 35.61 53.66 35.97 53.36C36.3 53.06 36.61 52.74 36.92 52.41C37.33 51.94 37.71 51.46 38.06 50.95C38.22 50.69 38.38 50.43 38.52 50.16C38.64 49.91 38.74 49.66 38.84 49.4C38.88 49.29 38.91 49.18 38.93 49.06C38.95 48.96 38.96 48.86 38.97 48.76C38.98 48.63 38.98 48.5 38.97 48.37C38.96 48.25 38.94 48.13 38.92 48.01C38.9 47.94 38.89 47.88 38.87 47.81C38.83 47.7 38.78 47.6 38.73 47.49C38.66 47.35 38.58 47.22 38.5 47.09C38.36 46.9 38.23 46.71 38.08 46.53C37.92 46.36 37.76 46.2 37.6 46.05C37.34 45.84 37.08 45.63 36.81 45.43C36.48 45.22 36.15 45.03 35.8 44.84C35.51 44.7 35.21 44.58 34.91 44.47C34.29 44.27 33.66 44.12 33.03 43.97C32.66 44.53 31.99 44.9 31.31 44.76C31.24 44.74 31.17 44.74 31.11 44.73C30.95 44.72 30.79 44.72 30.63 44.73C30.54 44.74 30.44 44.75 30.34 44.76C30.42 44.74 30.49 44.73 30.57 44.71C30.37 44.75 30.22 44.78 30.06 44.84Z"
    fill="rgba(191, 192, 191, 1)" />
  <path
    d="M43.82 40.8C43.03 40.53 42.29 40.08 41.74 39.44C41.11 38.73 40.7 37.9 40.46 36.98C39.93 35.03 40.33 32.83 41.43 31.15C42.39 29.69 44.02 28.53 45.75 28.23C46.54 28.09 47.29 28.1 48.04 28.39C48.21 28.46 48.38 28.56 48.53 28.68C49.28 28.3 50.19 28.52 50.73 29.18C51.29 29.86 51.8 30.57 52.3 31.29C53.25 32.7 54.05 34.41 53.41 36.11C53.09 36.96 52.6 37.67 51.94 38.3C51.23 38.98 50.42 39.55 49.56 40.01C48.38 40.64 47.02 41.08 45.67 41.08C45.03 41.1 44.42 41.01 43.82 40.8ZM45.67 31.98C45.55 32.04 45.44 32.11 45.33 32.18C45.18 32.29 45.03 32.41 44.88 32.53C44.81 32.6 44.73 32.67 44.66 32.74C44.56 32.86 44.46 32.99 44.37 33.13C44.32 33.21 44.27 33.29 44.23 33.37C44.14 33.56 44.06 33.74 43.99 33.93C43.95 34.07 43.91 34.2 43.88 34.34C43.84 34.57 43.81 34.8 43.79 35.03C43.79 35.19 43.79 35.35 43.8 35.52C43.81 35.64 43.83 35.77 43.85 35.9C43.9 36.1 43.95 36.29 44.01 36.47C44.04 36.53 44.06 36.58 44.08 36.64C44.13 36.73 44.18 36.82 44.24 36.91C44.29 36.98 44.35 37.05 44.4 37.12C44.43 37.15 44.46 37.17 44.49 37.2C44.52 37.22 44.55 37.25 44.58 37.27C44.64 37.31 44.7 37.34 44.76 37.37C44.83 37.4 44.91 37.43 44.98 37.46C45.05 37.48 45.12 37.5 45.2 37.52C45.28 37.54 45.36 37.54 45.45 37.55C45.66 37.56 45.87 37.55 46.08 37.53C46 37.53 45.92 37.54 45.84 37.55C46.02 37.53 46.19 37.51 46.36 37.48C46.57 37.43 46.77 37.38 46.97 37.31C47.26 37.19 47.54 37.07 47.83 36.93C48.06 36.81 48.28 36.68 48.5 36.54C48.78 36.34 49.04 36.14 49.3 35.92C49.46 35.78 49.61 35.64 49.75 35.49C49.79 35.44 49.83 35.39 49.86 35.34C49.9 35.27 49.95 35.19 49.98 35.12C50.01 35.06 50.03 35 50.06 34.94C50.07 34.9 50.08 34.85 50.09 34.82C50.09 34.81 50.09 34.81 50.09 34.8V34.79C50.09 34.78 50.09 34.77 50.09 34.76C50.07 34.71 50.06 34.65 50.05 34.6C49.96 34.37 49.87 34.13 49.76 33.9C49.69 33.77 49.6 33.64 49.51 33.51C49.55 33.57 49.6 33.63 49.64 33.7C49.19 33.04 48.73 32.38 48.23 31.75C48.06 31.83 47.88 31.89 47.69 31.91C47.31 31.96 46.91 31.87 46.57 31.68C46.51 31.69 46.45 31.7 46.39 31.71C46.2 31.75 46.01 31.81 45.83 31.88C45.9 31.86 45.97 31.83 46.05 31.81C45.92 31.87 45.79 31.92 45.67 31.98Z"
    fill="rgba(191, 192, 191, 1)" />
  <path
    d="M56.34 27.02C54.97 26.88 53.58 25.94 53.04 24.66C52.44 23.24 52.81 21.69 53.64 20.45C54.39 19.34 55.71 18.25 57.14 18.45C57.24 18.47 57.34 18.49 57.44 18.52C58.05 18.13 58.86 18.16 59.48 18.6C60.54 19.35 61.56 20.51 61.81 21.81C61.94 22.5 61.91 23.18 61.69 23.85C61.44 24.59 60.96 25.23 60.4 25.75C59.9 26.22 59.3 26.55 58.66 26.79C58.12 26.99 57.58 27.06 57.02 27.06C56.79 27.05 56.57 27.04 56.34 27.02ZM56.69 23.49C56.76 23.5 56.83 23.51 56.9 23.53C56.98 23.53 57.05 23.53 57.13 23.53C57.17 23.53 57.2 23.52 57.24 23.51C57.33 23.49 57.41 23.47 57.49 23.44C57.55 23.42 57.61 23.39 57.67 23.37C57.72 23.34 57.77 23.31 57.82 23.28C57.8 23.3 57.78 23.31 57.76 23.32C57.76 23.32 57.76 23.32 57.77 23.32C57.85 23.27 57.93 23.21 58 23.14C58.04 23.1 58.09 23.06 58.12 23.02C58.16 22.97 58.19 22.92 58.23 22.88C58.25 22.84 58.27 22.81 58.29 22.78C58.3 22.76 58.31 22.74 58.32 22.72C58.32 22.71 58.33 22.7 58.33 22.69C58.33 22.68 58.33 22.67 58.33 22.66C58.33 22.64 58.33 22.61 58.33 22.59C58.33 22.56 58.32 22.54 58.32 22.51C58.32 22.51 58.32 22.51 58.32 22.5C58.32 22.49 58.31 22.48 58.3 22.47C58.25 22.38 58.19 22.29 58.14 22.2C58.09 22.13 58.04 22.07 57.98 22.01C57.98 22.01 57.99 22.01 57.99 22.02C57.98 22.01 57.97 22 57.97 21.99C57.96 21.97 57.94 21.96 57.93 21.94C57.85 22.01 57.76 22.08 57.67 22.15C57.32 22.41 56.9 22.53 56.49 22.51C56.46 22.56 56.44 22.6 56.42 22.64C56.37 22.74 56.33 22.83 56.3 22.93C56.29 22.97 56.28 23.02 56.26 23.05C56.26 23.06 56.26 23.08 56.26 23.09C56.26 23.1 56.26 23.11 56.26 23.13C56.26 23.16 56.27 23.2 56.27 23.23C56.27 23.24 56.28 23.25 56.28 23.26C56.3 23.28 56.32 23.3 56.33 23.31C56.37 23.34 56.41 23.37 56.45 23.4C56.46 23.4 56.47 23.4 56.47 23.41C56.45 23.4 56.44 23.39 56.42 23.37C56.45 23.39 56.48 23.41 56.52 23.42C56.55 23.43 56.57 23.44 56.61 23.46C56.66 23.48 56.71 23.49 56.76 23.5C56.73 23.5 56.7 23.49 56.67 23.48C56.68 23.49 56.68 23.49 56.69 23.49Z"
    fill="rgba(191, 192, 191, 1)" />
  <path d="M57.99 21.99C58 22 58 22 58.01 22.01C58 22 57.99 21.99 57.99 21.99Z" fill="rgba(191, 192, 191, 1)" />
  <path
    d="M72.76 24.39C71.43 23.77 70.31 22.79 69.17 21.88C68.49 21.33 67.84 20.75 67.18 20.19C66.49 19.6 65.76 19.05 65.06 18.48C64.7 18.19 64.3 17.95 63.93 17.69C63.55 17.43 63.18 17.16 62.8 16.9C61.98 16.38 61.14 15.87 60.32 15.35C58.28 14.08 56.16 12.74 54.73 10.77C54.12 9.92999 53.81 8.95999 53.78 7.92999C53.74 6.83999 54.37 5.82 55.12 5.09C55.87 4.35 56.89 3.89999 57.86 3.51999C58.58 3.23999 59.33 3.03 60.07 2.81C63.84 1.7 67.7 0.980004 71.64 0.910004C72.08 0.910004 72.5299 0.930011 72.9699 0.980011C73.91 1.10001 74.59 1.99999 74.49 2.92999C74.72 2.95999 74.95 3.03001 75.15 3.17001C75.57 3.45001 75.95 3.77 76.31 4.12C77.03 4.82 77.5099 5.65001 77.7199 6.64001C77.8899 7.46001 77.9 8.30001 77.94 9.14001C77.97 9.66002 78 10.18 78.03 10.7C78.02 10.62 78.02 10.54 78.01 10.46C78.15 12.28 78.3 14.1 78.46 15.92C78.56 17.13 78.57 18.35 78.5 19.55C78.47 20.14 78.42 20.72 78.36 21.3C78.3 21.82 78.2 22.37 78.01 22.85C77.63 23.8 76.96 24.55 75.95 24.83C75.65 24.91 75.34 24.95 75.03 24.95C74.25 24.95 73.46 24.71 72.76 24.39ZM64.62 13.85C65.13 14.17 65.61 14.54 66.1 14.88C66.53 15.18 66.98 15.47 67.39 15.8C68.39 16.6 69.39 17.41 70.36 18.24C71.36 19.1 72.38 19.95 73.45 20.71C73.72 20.88 73.99 21.04 74.27 21.19C74.37 21.24 74.47 21.28 74.57 21.31C74.63 21.33 74.69 21.35 74.75 21.36C74.75 21.34 74.76 21.33 74.76 21.32C74.85 20.79 74.9 20.26 74.94 19.72C75.01 18.57 74.99 17.42 74.93 16.27C74.83 15.06 74.73 13.85 74.64 12.65C74.52 11.15 74.4399 9.64999 74.35 8.14999C74.32 7.87999 74.29 7.61001 74.26 7.35001C74.24 7.29001 74.23 7.23001 74.21 7.17001C74.19 7.12001 74.17 7.08 74.15 7.03C74.13 6.99 74.11 6.96001 74.09 6.92001C74.06 6.88001 74.03 6.83999 74 6.79999C73.87 6.65999 73.73 6.52999 73.59 6.39999C73.51 6.32999 73.42 6.26001 73.33 6.20001C72.75 5.80001 72.43 5.14999 72.5 4.48999C72.5 4.48999 72.5 4.48999 72.49 4.48999C72.44 4.47999 72.38 4.47 72.33 4.47C71.73 4.45 71.13 4.46 70.53 4.47C69.72 4.53 68.91 4.60001 68.1 4.70001C67.22 4.81001 66.36 4.95999 65.49 5.10999C63.43 5.56999 61.37 6.06001 59.37 6.73001C58.99 6.87001 58.62 7.02 58.26 7.19C58.08 7.29 57.91 7.39 57.74 7.5C57.69 7.54 57.64 7.56999 57.59 7.60999C57.54 7.65999 57.49 7.71999 57.43 7.76999C57.42 7.78999 57.4 7.80001 57.39 7.82001C57.38 7.84001 57.3699 7.86 57.3499 7.88C57.3499 7.9 57.34 7.91001 57.33 7.92001C57.32 7.94001 57.32 7.96001 57.31 7.98001C57.31 7.99001 57.31 7.99 57.31 8C57.31 8.04 57.32 8.08999 57.33 8.12C57.34 8.16 57.35 8.19999 57.36 8.23999C57.39 8.30999 57.42 8.38001 57.45 8.45001C57.43 8.42001 57.41 8.38001 57.4 8.35001C57.39 8.33001 57.38 8.31001 57.38 8.29001C57.38 8.31001 57.39 8.32 57.4 8.34C57.38 8.31 57.3699 8.28 57.3499 8.25C57.3699 8.29 57.38 8.32001 57.4 8.35001C57.41 8.38001 57.42 8.41 57.43 8.44C57.42 8.41 57.41 8.38999 57.4 8.35999C57.45 8.44999 57.5 8.55001 57.56 8.64001C57.7 8.84001 57.85 9.02999 58.01 9.20999C58.24 9.45999 58.48 9.69001 58.73 9.92001C59.35 10.43 60 10.92 60.67 11.37C60.61 11.33 60.55 11.28 60.48 11.24C61.85 12.14 63.24 12.99 64.62 13.85Z"
    fill="rgba(191, 192, 191, 1)" />
</svg>