<?xml version="1.0" encoding="UTF-8" standalone="yes"?>
<svg width="73" height="72" viewBox="-40 -40 153 152" fill="none" xmlns="http://www.w3.org/2000/svg">
  <path
    d="M2.64003 71.8C2.22003 71.75 1.74003 71.53 1.44003 71.22C1.12003 70.87 0.900025 70.55 0.810025 70.07C0.700025 69.48 0.81003 68.93 1.01003 68.36C1.21003 67.79 1.40003 67.24 1.66003 66.69C1.92003 66.13 2.21003 65.58 2.50003 65.04C3.05003 63.99 3.66003 62.93 4.32003 61.95C4.95003 61 5.58003 60.06 6.21003 59.12C6.62003 58.5 7.02003 57.87 7.46003 57.27C8.19003 56.27 8.91003 55.28 9.64003 54.28C10.09 53.66 10.53 53.01 11.01 52.4C12.41 50.63 13.8 48.87 15.2 47.1C15.51 46.7 15.84 46.32 16.18 45.94C17.06 44.91 17.95 43.89 18.83 42.85C19.45 42.13 20.08 41.4 20.7 40.67C21.13 40.17 21.61 39.7 22.07 39.22C23.64 37.57 25.21 35.92 26.78 34.27C27.24 33.79 27.76 33.35 28.24 32.89C29.27 31.93 30.29 30.96 31.32 30C31.92 29.44 32.51 28.88 33.11 28.32C33.65 27.81 34.25 27.35 34.81 26.87C36.47 25.47 38.13 24.07 39.79 22.66C40.41 22.13 41.09 21.66 41.74 21.17C42.84 20.32 43.94 19.48 45.04 18.63C45.48 18.3 45.9 17.95 46.36 17.64C46.68 17.43 47 17.21 47.31 17C46.77 16.1 46.24 15.2 45.71 14.31C44.7 12.61 43.57 10.98 42.62 9.24C42.06 8.21 41.57 7.06 41.37 5.9C41.18 4.81 41.17 3.55 41.7 2.54C41.93 2.11 42.23 1.68 42.63 1.38C43.03 1.08 43.43 0.88 43.91 0.74C44.42 0.58 44.99 0.570004 45.52 0.580004C46.28 0.600004 47.04 0.700005 47.79 0.800005C49.76 1.06 51.73 1.41 53.7 1.65C54.84 1.79 55.97 1.93 57.11 2.07C58.2 2.2 59.29 2.27 60.37 2.36C62.27 2.47 64.17 2.57001 66.07 2.66001C67.31 2.71001 68.58 2.76 69.8 3C70.73 3.18 71.74 3.62 72.13 4.54C72.47 5.33 72.18 6.34 71.58 6.92C71.49 7.01 71.39 7.1 71.29 7.17C71.27 7.3 71.24 7.42 71.18 7.55C70.31 9.71 69.32 11.84 68.55 14.05C68.11 15.36 67.77 16.7 67.47 18.05C67.24 19.35 67.01 20.66 66.78 21.96C66.68 22.53 66.63 23.11 66.56 23.69C66.45 24.5 66.35 25.31 66.24 26.13C65.92 28.63 65.65 31.14 65.39 33.65C65.32 34.68 65.24 35.72 65.2 36.75C65.17 37.49 65.14 38.22 65.11 38.96C65.09 39.49 65.07 40.03 65.03 40.56C65 40.94 64.97 41.33 64.88 41.7C64.79 42.07 64.67 42.43 64.54 42.79C64.23 43.74 63.34 44.25 62.36 44.03C61.92 43.93 61.48 43.77 61.16 43.44C60.85 43.12 60.64 42.78 60.43 42.39C60.21 41.99 59.95 41.61 59.73 41.21C59.31 40.42 58.89 39.62 58.48 38.82C57.49 36.91 56.5 35 55.52 33.09C53.7 29.57 51.94 26.02 50.2 22.45C50.18 22.4 50.16 22.36 50.13 22.31C49.75 21.58 49.37 20.86 49 20.13C48.94 20.17 48.88 20.21 48.82 20.25C48.41 20.53 48.02 20.82 47.62 21.13C46.57 21.94 45.51 22.75 44.45 23.56C43.65 24.18 42.84 24.79 42.04 25.41C41.57 25.77 41.12 26.18 40.67 26.56C38.97 28 37.28 29.43 35.59 30.86C33.5 32.82 31.41 34.79 29.32 36.75C29.03 37.02 28.78 37.32 28.5 37.61C27.8 38.34 27.11 39.07 26.42 39.8C25.42 40.85 24.43 41.89 23.44 42.94C22.17 44.4 20.92 45.88 19.65 47.35C19.19 47.88 18.74 48.41 18.28 48.94C17.79 49.5 17.35 50.12 16.89 50.7C15.8 52.08 14.67 53.42 13.64 54.84C12.47 56.43 11.31 58.03 10.14 59.63C9.48003 60.63 8.81003 61.62 8.15003 62.61C7.02003 64.3 5.98003 66.03 5.05003 67.84C5.06003 67.82 5.07003 67.8 5.07003 67.79C5.06003 67.81 5.05003 67.84 5.03003 67.86C5.02003 67.88 5.01003 67.9 5.00003 67.91C5.01003 67.9 5.01002 67.89 5.02002 67.87C4.90002 68.12 4.78003 68.38 4.67003 68.64C4.93003 68.9 5.12003 69.25 5.17003 69.64C5.29003 70.52 4.71003 71.38 3.86003 71.6C3.55003 71.72 3.22002 71.82 2.88002 71.82C2.79002 71.82 2.71003 71.81 2.64003 71.8ZM63.75 11.29C62.92 11.72 62.1 12.16 61.27 12.6C60.56 12.97 59.84 13.32 59.15 13.72C57.45 14.72 55.74 15.72 54.04 16.71C53.34 17.19 52.64 17.66 51.93 18.14C52.47 19.18 53.02 20.21 53.53 21.26C54.22 22.68 54.92 24.1 55.61 25.52C56.98 28.23 58.36 30.92 59.75 33.61C60.37 34.82 61 36.02 61.62 37.22C61.63 36.97 61.64 36.73 61.65 36.48C61.69 35.49 61.77 34.5 61.84 33.52C61.91 32.48 62.04 31.45 62.15 30.41C62.24 29.56 62.35 28.72 62.45 27.87C62.7 25.81 62.97 23.76 63.24 21.7C63.35 20.81 63.54 19.93 63.7 19.06C63.97 17.51 64.29 15.99 64.72 14.47C65.16 12.92 65.74 11.43 66.35 9.94C65.47 10.39 64.61 10.84 63.75 11.29ZM45.03 4.15C44.97 4.16 44.91 4.17 44.84 4.18C44.84 4.18 44.84 4.19 44.83 4.2C44.83 4.2 44.83 4.2 44.83 4.21C44.82 4.24 44.81 4.27 44.81 4.31C44.8 4.36 44.8 4.4 44.79 4.45C44.79 4.62 44.79 4.79 44.79 4.96C44.8 5.07 44.82 5.17 44.83 5.28C44.89 5.53 44.96 5.77 45.04 6.01C45.2 6.45 45.37 6.87001 45.57 7.3C46.01 8.13 46.49 8.94 46.98 9.74C47.46 10.51 47.98 11.24 48.44 12.02C48.84 12.7 49.25 13.38 49.65 14.06C49.84 14.38 50.04 14.7 50.23 15.03C50.78 14.66 51.32 14.28 51.87 13.91C52.37 13.57 52.89 13.28 53.41 12.98C55 12.05 56.58 11.07 58.21 10.21C59.93 9.3 61.65 8.39 63.37 7.5C64.12 7.11 64.86 6.73 65.6 6.34C65.68 6.3 65.76 6.25 65.85 6.21C64.43 6.14 63.01 6.08 61.59 6C59.93 5.9 58.27 5.75 56.61 5.61C55.76 5.54 54.91 5.4 54.07 5.3C53.39 5.22001 52.72 5.12 52.05 5.03C49.92 4.73 47.78 4.34 45.64 4.17C45.51 4.17 45.37 4.16001 45.25 4.16001C45.18 4.14001 45.11 4.15 45.03 4.15Z"
    fill="rgba(191, 192, 191, 1)" />
</svg>