<?xml version="1.0" encoding="UTF-8" standalone="yes"?>
<svg width="77" height="78" viewBox="-40 -40 157 158" fill="none" xmlns="http://www.w3.org/2000/svg">
  <path
    d="M61.8 14.01C61.08 13.61 60.54 12.9 60.13 12.21C59.65 11.42 59.48 10.47 59.35 9.57002C59.23 8.71002 59.28 7.83999 59.36 6.97999C59.46 5.98999 59.74 4.99999 60.17 4.09999C60.63 3.12999 61.46 2.01003 62.53 1.58003C62.54 1.49003 62.56 1.40001 62.58 1.31001C62.85 0.340007 63.81 -0.129983 64.76 0.0700169C66.04 0.350017 67.35 0.619985 68.46 1.34999C69.17 1.80999 69.69 2.46999 70.16 3.16999C70.66 3.92999 71.02 4.81001 71.24 5.69001C71.45 6.51001 71.54 7.42002 71.44 8.26002C71.33 9.18002 71.03 9.99001 70.6 10.81C69.8 12.38 68.29 13.63 66.67 14.27C65.97 14.55 65.24 14.69 64.51 14.69C63.57 14.71 62.64 14.48 61.8 14.01ZM63.65 11C63.66 11 63.67 11.01 63.68 11.02C63.73 11.04 63.78 11.06 63.83 11.09C63.91 11.11 63.99 11.14 64.07 11.16C64.16 11.18 64.25 11.19 64.34 11.2C64.43 11.2 64.51 11.2 64.59 11.2C64.67 11.19 64.75 11.18 64.83 11.16C65.02 11.12 65.21 11.07 65.39 11.01C65.48 10.97 65.56 10.94 65.64 10.9C65.81 10.81 65.98 10.71 66.14 10.61C66.31 10.49 66.48 10.36 66.64 10.22C66.74 10.13 66.84 10.03 66.93 9.93C67.07 9.77 67.19 9.61001 67.31 9.44001C67.41 9.28001 67.5 9.12003 67.59 8.96003C67.66 8.82003 67.72 8.68004 67.77 8.53004C67.81 8.41004 67.84 8.28998 67.87 8.15998C67.85 8.23998 67.84 8.32002 67.82 8.39002C67.86 8.24002 67.89 8.07999 67.9 7.91999C67.91 7.70999 67.91 7.51 67.9 7.3C67.88 7.06 67.84 6.82004 67.79 6.59004C67.76 6.47004 67.73 6.34999 67.69 6.22999C67.6 6.00999 67.51 5.79002 67.41 5.57002C67.29 5.33002 67.15 5.1 67 4.87C66.93 4.77 66.85 4.67003 66.77 4.58003C66.72 4.53003 66.67 4.47 66.62 4.43C66.57 4.39 66.52 4.35001 66.46 4.31001C66.41 4.28001 66.37 4.24998 66.32 4.21998C66.15 4.13998 65.98 4.07001 65.81 4.00001C65.56 3.93001 65.31 3.86 65.06 3.8C64.86 4.33 64.42 4.74002 63.88 4.89002C63.83 4.94002 63.77 5 63.72 5.05C63.66 5.12 63.61 5.19002 63.56 5.26002C63.5 5.37002 63.44 5.47003 63.38 5.58003C63.29 5.76003 63.22 5.95001 63.15 6.13001C63.08 6.38001 63.01 6.62 62.95 6.87C62.9 7.16 62.86 7.45 62.83 7.74C62.81 8.13 62.81 8.51998 62.83 8.90998C62.86 9.15998 62.9 9.40999 62.94 9.66999C62.98 9.85999 63.03 10.05 63.09 10.23C63.12 10.31 63.16 10.39 63.2 10.48C63.19 10.47 63.19 10.46 63.18 10.45C63.19 10.46 63.2 10.47 63.2 10.49C63.22 10.54 63.25 10.58 63.27 10.63C63.25 10.59 63.23 10.56 63.22 10.52C63.23 10.54 63.24 10.55 63.26 10.57C63.25 10.55 63.23 10.53 63.22 10.51C63.21 10.48 63.19 10.46 63.18 10.43C63.22 10.48 63.25 10.54 63.28 10.59L63.29 10.6C63.29 10.61 63.29 10.61 63.3 10.62C63.35 10.69 63.41 10.76 63.46 10.83C63.51 10.88 63.56 10.93 63.61 10.98C63.6 10.97 63.58 10.96 63.57 10.94C63.59 10.96 63.62 10.98 63.65 11Z"
    fill="rgba(191, 192, 191, 1)" />
  <path
    d="M46.6 16.55C44.85 16.43 43.01 15.71 41.85 14.36C40.62 12.94 40.1 11.05 40.31 9.19003C40.52 7.31003 41.22 5.39002 42.53 3.99002C43.03 3.45002 43.65 2.90004 44.35 2.58004C44.41 2.42004 44.49 2.27004 44.6 2.14004C45.21 1.35004 46.29 1.28003 47.08 1.82003C47.53 2.13003 47.96 2.45 48.38 2.79C49.17 3.41 49.86 4.15 50.51 4.91C51.15 5.66 51.7 6.5 52.19 7.35C52.65 8.13 52.97 9.01005 53.11 9.90005C53.25 10.81 53.23 11.68 52.99 12.56C52.75 13.41 52.27 14.14 51.69 14.79C51.12 15.43 50.3 15.88 49.51 16.18C48.78 16.45 47.98 16.56 47.2 16.56C46.99 16.57 46.79 16.56 46.6 16.55ZM45.84 5.80001C45.77 5.84001 45.7 5.88001 45.63 5.92001C45.56 5.97001 45.49 6.03004 45.42 6.08004C45.31 6.18004 45.21 6.29005 45.1 6.40005C45 6.51005 44.91 6.63002 44.82 6.75002C44.7 6.94002 44.58 7.14005 44.47 7.34005C44.35 7.61005 44.23 7.88005 44.13 8.15005C44.06 8.40005 43.99 8.65 43.93 8.91C43.88 9.14 43.85 9.38001 43.82 9.61001C43.81 9.81001 43.81 10.01 43.82 10.22C43.84 10.42 43.87 10.63 43.9 10.83C43.93 10.95 43.96 11.06 44 11.18C44.03 11.26 44.07 11.34 44.1 11.42C44.15 11.52 44.21 11.62 44.27 11.72C44.34 11.83 44.43 11.9301 44.51 12.0301C44.58 12.1001 44.64 12.16 44.71 12.23C44.77 12.28 44.83 12.32 44.89 12.37C45 12.44 45.11 12.51 45.23 12.57C45.41 12.66 45.6 12.74 45.78 12.81C45.97 12.87 46.16 12.92 46.35 12.97C46.49 12.99 46.63 13.01 46.77 13.02C46.98 13.03 47.19 13.0301 47.39 13.0301C47.59 13.0101 47.78 12.99 47.98 12.96C48.08 12.94 48.18 12.91 48.28 12.87C48.37 12.83 48.47 12.79 48.56 12.75C48.64 12.71 48.72 12.66 48.79 12.61C48.88 12.55 48.97 12.48 49.05 12.41C49.1 12.36 49.15 12.32 49.2 12.27C49.24 12.22 49.28 12.16 49.32 12.11C49.37 12.03 49.41 11.95 49.46 11.88C49.5 11.79 49.54 11.69 49.58 11.6C49.6 11.52 49.62 11.44 49.64 11.37C49.65 11.3 49.66 11.24 49.67 11.18C49.67 11.07 49.67 10.96 49.67 10.85C49.65 10.73 49.64 10.6 49.62 10.48C49.57 10.27 49.51 10.06 49.46 9.85C49.39 9.67 49.31 9.49002 49.23 9.31002C48.98 8.85002 48.69 8.42002 48.41 7.99002C48.15 7.62002 47.87 7.27002 47.59 6.93002C47.27 6.58002 46.95 6.24001 46.6 5.92001C46.51 5.84001 46.42 5.77003 46.33 5.69003C46.16 5.74003 46 5.78001 45.84 5.80001Z"
    fill="rgba(191, 192, 191, 1)" />
  <path
    d="M26.01 18.76C24.4 18.68 22.99 17.76 22.03 16.51C20.99 15.15 20.59 13.35 20.58 11.67C20.57 9.94999 21.17 8.27001 22.26 6.94001C22.76 6.33001 23.4 5.85 24.05 5.43C24.43 5.19 24.85 5.00999 25.28 4.85999C25.52 4.76999 25.79 4.68003 26.05 4.65003C26.22 4.64003 26.38 4.64999 26.55 4.66999C26.63 4.39999 26.77 4.15001 26.99 3.94001C27.65 3.28001 28.84 3.23001 29.49 3.94001C30.67 5.24001 32.02 6.48998 32.78 8.09998C33.51 9.64998 33.53 11.41 33.06 13.04C32.62 14.55 31.72 16.03 30.54 17.07C29.91 17.62 29.22 18.06 28.45 18.39C27.8 18.66 27.08 18.77 26.38 18.77C26.24 18.77 26.13 18.77 26.01 18.76ZM26.57 8.15998C26.53 8.16998 26.5 8.18001 26.47 8.19001C26.38 8.23001 26.29 8.25999 26.19 8.29999C26.02 8.38999 25.86 8.48002 25.7 8.58002C25.54 8.70002 25.4 8.81001 25.25 8.94001C25.16 9.03001 25.07 9.12003 24.98 9.21003C24.91 9.30003 24.84 9.39 24.77 9.49C24.7 9.59999 24.63 9.72002 24.57 9.83002C24.48 10.02 24.4 10.21 24.32 10.4C24.29 10.51 24.26 10.61 24.23 10.72C24.19 10.97 24.15 11.21 24.13 11.46C24.12 11.69 24.12 11.91 24.13 12.13C24.16 12.38 24.19 12.63 24.24 12.88C24.27 13.02 24.31 13.15 24.35 13.28C24.42 13.49 24.51 13.69 24.6 13.89C24.68 14.05 24.77 14.2 24.87 14.35C24.92 14.42 24.96 14.48 25.01 14.55C25.06 14.6 25.1 14.64 25.15 14.69C25.15 14.69 25.16 14.7 25.17 14.7C25.17 14.71 25.18 14.72 25.19 14.72C25.28 14.79 25.37 14.86 25.47 14.93C25.54 14.98 25.62 15.02 25.7 15.06C25.75 15.09 25.81 15.11 25.86 15.13C25.91 15.15 25.95 15.16 26 15.17C26.09 15.18 26.17 15.19 26.25 15.2C26.34 15.2 26.43 15.2 26.53 15.2C26.64 15.19 26.74 15.18 26.85 15.16C26.93 15.14 27.01 15.12 27.08 15.1C27.15 15.07 27.21 15.04 27.28 15.01C27.45 14.92 27.61 14.83 27.76 14.73C27.92 14.61 28.08 14.48 28.23 14.35C28.32 14.26 28.41 14.17 28.49 14.08C28.62 13.92 28.74 13.77 28.86 13.61C29.02 13.37 29.16 13.12 29.3 12.86C29.41 12.63 29.5 12.41 29.59 12.17C29.65 11.98 29.71 11.78 29.76 11.59C29.79 11.41 29.81 11.23 29.83 11.05C29.83 10.91 29.83 10.78 29.83 10.64C29.82 10.49 29.79 10.34 29.77 10.19C29.74 10.06 29.71 9.93 29.66 9.81C29.63 9.74 29.61 9.66999 29.57 9.60999C29.46 9.41999 29.35 9.22999 29.23 9.04999C29.23 9.04999 29.24 9.06001 29.24 9.07001C29.02 8.75001 28.79 8.44998 28.55 8.15998C28.29 7.86998 28.03 7.59 27.77 7.31C27.53 7.77 27.09 8.09998 26.57 8.15998Z"
    fill="rgba(191, 192, 191, 1)" />
  <path
    d="M5.49 21.01C5.06 20.95 4.62 20.87 4.21 20.71C3.4 20.39 2.71 19.88 2.09 19.26C1.46 18.63 1.04001 17.81 0.690009 17C0.280009 16.03 0.0900051 15 0.0300051 13.95C-0.0899949 12.06 0.630001 10.22 1.87 8.82001C2.69 7.89001 3.76001 6.96999 4.97001 6.54999C4.92001 6.01999 5.10002 5.46003 5.48002 5.09003C5.81002 4.76003 6.26002 4.57001 6.73002 4.57001C7.22002 4.57001 7.62002 4.77003 7.98002 5.09003C8.74002 5.76003 9.44 6.47998 10.12 7.22998C10.75 7.91998 11.32 8.74998 11.71 9.59998C12.14 10.52 12.37 11.5 12.46 12.51C12.63 14.4 12.12 16.3 11.17 17.93C10.23 19.54 8.64001 20.67 6.82001 20.99C6.61001 21.03 6.38 21.04 6.15 21.04C5.93 21.06 5.7 21.04 5.49 21.01ZM4.82001 16.99C4.91001 17.06 4.98999 17.13 5.07999 17.2C5.16999 17.26 5.26001 17.31 5.35001 17.36C5.40001 17.38 5.44 17.4 5.49 17.41C5.55 17.43 5.62001 17.45 5.69001 17.46C5.78001 17.48 5.87001 17.49 5.97001 17.5C6.07001 17.5 6.17 17.5 6.27 17.5C6.33 17.5 6.39001 17.49 6.44001 17.48C6.50001 17.46 6.56001 17.45 6.63001 17.43C6.72001 17.39 6.82001 17.36 6.91001 17.31C7.00001 17.26 7.09 17.21 7.18 17.15C7.32 17.05 7.45 16.95 7.59 16.84C7.66 16.77 7.72001 16.71 7.78 16.64C7.87001 16.54 7.95001 16.43 8.03001 16.32C8.15001 16.12 8.27001 15.93 8.38001 15.73C8.47001 15.52 8.56 15.32 8.65 15.11C8.74 14.84 8.81 14.58 8.87 14.31C8.91 14.06 8.94001 13.82 8.97001 13.57C8.98001 13.33 8.98001 13.09 8.97001 12.85C8.94001 12.62 8.91 12.39 8.87 12.15C8.81 11.9 8.75002 11.66 8.67002 11.42C8.63002 11.32 8.58999 11.23 8.54999 11.13C8.38999 10.83 8.21001 10.55 8.03001 10.27C7.87001 10.04 7.71 9.83 7.53 9.62C7.47001 9.55 7.41001 9.48999 7.35001 9.42999C7.07001 9.65999 6.72001 9.80999 6.35001 9.85999C6.37001 9.85999 6.40002 9.85999 6.42002 9.85999C6.38002 9.85999 6.33999 9.87 6.29999 9.87C6.27999 9.87 6.26 9.88001 6.24 9.89001C6.07 9.96001 5.91001 10.03 5.75001 10.12C5.82001 10.09 5.89002 10.05 5.95002 10.02C5.85002 10.07 5.75 10.13 5.65 10.2C5.45 10.34 5.26001 10.49 5.07001 10.65C4.90001 10.81 4.73 10.98 4.56 11.15C4.43 11.3 4.31002 11.45 4.20002 11.61C4.11002 11.75 4.02002 11.9 3.95002 12.04C3.87002 12.21 3.8 12.37 3.74 12.55C3.71 12.65 3.69001 12.75 3.66001 12.85C3.63001 12.99 3.61001 13.14 3.60001 13.28C3.59001 13.55 3.58001 13.81 3.60001 14.07C3.63001 14.3 3.66002 14.52 3.70002 14.75C3.76002 14.97 3.82002 15.19 3.89002 15.41C3.97002 15.63 4.07001 15.85 4.16001 16.06C4.26001 16.25 4.37002 16.43 4.48002 16.61C4.57002 16.72 4.66002 16.84 4.76002 16.94C4.71002 16.89 4.65999 16.83 4.60999 16.77C4.66999 16.85 4.74001 16.92 4.82001 16.99Z"
    fill="rgba(191, 192, 191, 1)" />
  <path
    d="M64.15 33.69C62.61 32.22 62.08 30.15 62.06 28.08C62.04 25.98 62.66 23.8 63.91 22.12C64.49 21.33 65.28 20.73 66.19 20.38C66.6 20.22 67.0601 20.13 67.51 20.13C67.55 20.08 67.6 20.03 67.65 19.98C68.33 19.3 69.48 19.29 70.15 19.98C71.34 21.19 72.54 22.43 73.4 23.91C73.92 24.82 74.29 25.78 74.47 26.8C74.67 27.88 74.5 28.98 74.1 30C73.73 30.94 73.1101 31.8 72.4201 32.54C71.6501 33.36 70.78 34 69.77 34.48C69.08 34.8 68.3 34.97 67.52 34.97C66.28 34.96 65.04 34.54 64.15 33.69ZM67.02 23.94C66.96 24 66.9 24.06 66.84 24.12C66.75 24.23 66.66 24.35 66.57 24.46C66.48 24.61 66.39 24.76 66.3 24.92C66.2 25.13 66.12 25.34 66.03 25.56C65.92 25.9 65.83 26.25 65.75 26.6C65.69 26.94 65.64 27.28 65.61 27.62C65.6 27.93 65.6 28.24 65.61 28.56C65.64 28.86 65.67 29.15 65.72 29.44C65.77 29.66 65.84 29.88 65.91 30.1C65.95 30.19 65.99 30.29 66.03 30.39C66.09 30.5 66.16 30.62 66.23 30.73C66.2801 30.8 66.34 30.88 66.4 30.95C66.45 31 66.49 31.0501 66.54 31.0901C66.58 31.1201 66.62 31.15 66.66 31.18C66.7 31.2 66.74 31.23 66.78 31.25C66.85 31.28 66.9201 31.3001 66.98 31.3401C67.05 31.3601 67.11 31.38 67.18 31.39C67.25 31.4 67.3201 31.41 67.3901 31.42C67.4401 31.42 67.48 31.42 67.52 31.42C67.62 31.41 67.72 31.4 67.82 31.38C67.96 31.35 68.11 31.31 68.25 31.26C68.33 31.23 68.41 31.19 68.49 31.15C68.67 31.05 68.83 30.9501 69 30.8401C69.12 30.7501 69.23 30.67 69.34 30.57C69.52 30.41 69.68 30.24 69.84 30.07C70.04 29.84 70.23 29.6001 70.41 29.3401C70.51 29.1801 70.6 29.02 70.69 28.85C70.77 28.7 70.8301 28.54 70.8901 28.38C70.91 28.33 70.92 28.27 70.93 28.22C70.94 28.14 70.95 28.05 70.96 27.97C70.96 27.87 70.96 27.77 70.96 27.68C70.94 27.48 70.9201 27.2901 70.8901 27.0901C70.8701 26.9901 70.84 26.89 70.81 26.8C70.71 26.54 70.61 26.29 70.49 26.05C70.34 25.75 70.17 25.46 69.99 25.17C69.75 24.83 69.5 24.5 69.24 24.19C69.15 24.08 69.05 23.98 68.9501 23.87C68.94 23.88 68.9301 23.89 68.9201 23.89C68.34 24.25 67.62 24.19 67.08 23.85C67.08 23.89 67.05 23.91 67.02 23.94Z"
    fill="rgba(191, 192, 191, 1)" />
  <path
    d="M66.27 57.38C64.31 56.67 62.94 55.02 62.33 53.06C62.01 52.01 61.99 50.8799 62.06 49.7899C62.14 48.6299 62.52 47.43 63.04 46.4C63.99 44.52 65.55 42.9699 67.61 42.4099C68.52 42.1599 69.51 42.21 70.33 42.69C70.94 43.05 71.3 43.74 71.3 44.44C71.3 44.52 71.3 44.6 71.28 44.67C72 45.08 72.65 45.6099 73.26 46.1599C74.12 46.9499 74.82 47.86 75.39 48.89C75.91 49.81 76.22 50.87 76.11 51.93C76.02 52.86 75.73 53.82 75.15 54.57C74.49 55.42 73.67 56.09 72.74 56.62C71.74 57.19 70.62 57.5199 69.49 57.7199C69.18 57.7699 68.87 57.8 68.54 57.8C67.79 57.8 66.99 57.64 66.27 57.38ZM67.88 54.17C68.07 54.21 68.26 54.23 68.46 54.25C68.55 54.25 68.64 54.25 68.73 54.25C68.89 54.23 69.04 54.21 69.2 54.19C69.55 54.11 69.89 54.01 70.24 53.9C70.44 53.82 70.63 53.74 70.83 53.65C71.03 53.54 71.21 53.44 71.4 53.32C71.56 53.21 71.71 53.0899 71.86 52.9699C72 52.8499 72.13 52.72 72.25 52.58C72.29 52.53 72.34 52.47 72.38 52.42C72.4 52.39 72.42 52.36 72.43 52.33C72.46 52.26 72.49 52.19 72.52 52.12C72.54 52.03 72.57 51.95 72.59 51.86C72.61 51.79 72.61 51.71 72.62 51.64C72.62 51.57 72.62 51.5 72.62 51.43C72.62 51.39 72.61 51.35 72.6 51.31C72.58 51.24 72.56 51.16 72.54 51.08C72.51 51 72.47 50.92 72.44 50.84C72.28 50.53 72.11 50.24 71.92 49.95C71.8 49.78 71.67 49.62 71.54 49.46C71.24 49.13 70.92 48.82 70.59 48.51C70.37 48.33 70.15 48.16 69.92 47.99C69.74 47.88 69.56 47.77 69.38 47.67C68.73 47.38 68.06 47.11 67.39 46.87C67.28 46.83 67.19 46.7799 67.1 46.7299C67.05 46.7799 67 46.84 66.95 46.89C66.81 47.07 66.67 47.25 66.54 47.43C66.42 47.64 66.3 47.84 66.18 48.05C66.08 48.28 65.98 48.51 65.89 48.75C65.81 49 65.74 49.25 65.68 49.51C65.63 49.81 65.59 50.11 65.56 50.42C65.55 50.65 65.56 50.8699 65.56 51.0999C65.58 51.3299 65.61 51.55 65.65 51.78C65.69 51.97 65.74 52.1599 65.8 52.3499C65.83 52.4399 65.87 52.52 65.91 52.61C65.99 52.77 66.08 52.91 66.18 53.07C66.25 53.18 66.34 53.28 66.42 53.38C66.51 53.47 66.6 53.56 66.69 53.65C66.76 53.71 66.82 53.76 66.9 53.81C66.97 53.86 67.05 53.9 67.12 53.94C67.29 54.02 67.46 54.09 67.64 54.14C67.57 54.11 67.5 54.09 67.42 54.06C67.58 54.09 67.73 54.13 67.88 54.17Z"
    fill="rgba(191, 192, 191, 1)" />
  <path
    d="M66.4 77.21C65.4 76.86 64.6 76.19 63.94 75.37C63.26 74.51 62.95 73.38 62.8 72.32C62.64 71.15 62.84 69.91 63.19 68.79C63.49 67.82 63.98 66.92 64.6 66.12C64.92 65.71 65.31 65.35 65.71 65.03C65.73 65.02 65.74 65.01 65.76 64.99C65.6 64.69 65.53 64.33 65.58 63.96C65.71 63.01 66.62 62.3 67.58 62.44C70.95 62.95 74.95 64.28 76.16 67.82C76.3 68.23 76.35 68.71 76.35 69.14C76.35 69.71 76.28 70.23 76.16 70.78C75.91 71.91 75.27 72.99 74.61 73.93C73.36 75.73 71.34 77.06 69.18 77.44C68.89 77.49 68.59 77.51 68.29 77.51C67.65 77.53 66.99 77.42 66.4 77.21ZM66.89 73.39C66.94 73.44 66.99 73.5 67.05 73.55C67.13 73.62 67.21 73.68 67.29 73.74C67.34 73.77 67.4 73.81 67.46 73.84C67.5 73.86 67.54 73.88 67.58 73.89C67.64 73.91 67.7 73.92 67.76 73.94C67.85 73.96 67.94 73.97 68.03 73.98C68.2 73.98 68.37 73.98 68.54 73.98C68.65 73.97 68.75 73.95 68.86 73.93C68.95 73.91 69.05 73.88 69.14 73.86C69.35 73.78 69.56 73.69 69.76 73.59C69.94 73.49 70.13 73.39 70.3 73.28C70.49 73.14 70.68 72.99 70.85 72.85C71.05 72.66 71.24 72.47 71.42 72.27C71.58 72.07 71.73 71.88 71.88 71.67C72.03 71.43 72.17 71.19 72.3 70.95C72.43 70.68 72.55 70.4 72.66 70.11C72.7 70 72.73 69.88 72.76 69.76C72.77 69.67 72.78 69.58 72.79 69.49C72.79 69.54 72.79 69.59 72.78 69.64V69.65C72.78 69.67 72.78 69.68 72.78 69.69C72.78 69.67 72.78 69.66 72.79 69.64C72.8 69.48 72.8 69.32 72.79 69.16C72.8 69.24 72.8 69.32 72.81 69.4C72.81 69.22 72.79 69.04 72.76 68.86C72.74 68.79 72.72 68.71 72.69 68.64C72.69 68.64 72.7 68.65 72.7 68.66C72.7 68.66 72.69 68.65 72.69 68.64C72.68 68.6 72.66 68.56 72.64 68.52C72.65 68.56 72.67 68.59 72.68 68.63C72.67 68.62 72.66 68.61 72.66 68.6C72.67 68.61 72.68 68.62 72.68 68.63C72.69 68.65 72.69 68.67 72.7 68.68C72.7 68.69 72.71 68.69 72.71 68.7C72.71 68.7 72.71 68.69 72.7 68.69C72.71 68.71 72.71 68.72 72.72 68.74C72.71 68.71 72.7 68.68 72.68 68.65C72.65 68.6 72.62 68.54 72.59 68.49C72.54 68.42 72.48 68.35 72.43 68.29C72.25 68.1 72.07 67.91 71.88 67.74C71.78 67.66 71.68 67.58 71.58 67.51C71.25 67.3 70.92 67.1 70.57 66.92C70.36 66.83 70.14 66.74 69.93 66.66C69.91 66.79 69.89 66.92 69.85 67.05C69.59 67.98 68.61 68.54 67.67 68.28C67.6 68.26 67.53 68.24 67.46 68.21C67.34 68.35 67.23 68.49 67.13 68.64C67.03 68.8 66.94 68.96 66.85 69.12C66.75 69.33 66.66 69.56 66.57 69.78C66.5 70.01 66.44 70.24 66.38 70.47C66.34 70.73 66.3 70.99 66.28 71.26C66.27 71.4 66.27 71.55 66.28 71.69C66.3 71.9 66.33 72.1 66.36 72.3C66.39 72.44 66.43 72.58 66.47 72.71C66.52 72.83 66.57 72.95 66.62 73.06C66.66 73.14 66.71 73.22 66.76 73.29C66.76 73.29 66.76 73.29 66.77 73.29C66.79 73.33 66.82 73.37 66.84 73.4C66.82 73.37 66.8 73.34 66.78 73.3C66.76 73.27 66.74 73.24 66.72 73.21C66.79 73.27 66.85 73.33 66.89 73.39Z"
    fill="rgba(191, 192, 191, 1)" />
  <path
    d="M27.6 36.55C26.72 36.45 25.92 36.01 25.22 35.51C24.51 35.01 24.06 34.22 23.7 33.45C23.3 32.58 23.21 31.61 23.19 30.67C23.17 29.7 23.38 28.7 23.7 27.79C24.29 26.15 25.38 24.5999 27.07 23.9699C27.82 23.6799 28.61 23.68 29.38 23.86C29.7 23.93 30.05 24.1 30.33 24.32C30.6 24.34 30.86 24.41 31.11 24.53C33.41 25.7 36.77 27.36 36.09 30.48C35.9 31.37 35.43 32.2299 34.89 32.9699C34.34 33.7199 33.7 34.3799 32.98 34.9699C31.69 36.0199 30.03 36.59 28.37 36.59C28.12 36.59 27.86 36.58 27.6 36.55ZM28.08 27.39C28.02 27.44 27.96 27.49 27.9 27.54C27.85 27.59 27.79 27.65 27.74 27.7C27.67 27.78 27.61 27.86 27.54 27.94C27.44 28.11 27.34 28.27 27.25 28.44C27.17 28.62 27.09 28.8 27.03 28.98C26.96 29.22 26.89 29.46 26.83 29.7C26.79 29.94 26.76 30.1799 26.74 30.4099C26.74 30.6599 26.74 30.89 26.75 31.14C26.77 31.3 26.79 31.45 26.82 31.61C26.84 31.7 26.86 31.79 26.89 31.88C26.93 32 26.98 32.11 27.04 32.23C27.08 32.31 27.13 32.38 27.17 32.46C27.2 32.5 27.23 32.54 27.26 32.58C27.29 32.61 27.31 32.63 27.34 32.67C27.39 32.71 27.43 32.74 27.48 32.78C27.54 32.82 27.6 32.86 27.68 32.9C27.74 32.93 27.8 32.95 27.87 32.98C27.93 33 27.99 33.02 28.05 33.03C28.13 33.05 28.21 33.05 28.28 33.06C28.39 33.06 28.5 33.06 28.61 33.06C28.8 33.04 28.99 33.01 29.18 32.98C29.28 32.96 29.38 32.93 29.48 32.89C29.69 32.81 29.91 32.72 30.11 32.62C30.29 32.52 30.47 32.41 30.65 32.3C30.76 32.22 30.87 32.14 30.97 32.05C31.22 31.83 31.45 31.5899 31.68 31.3499C31.82 31.1899 31.94 31.03 32.07 30.86C32.23 30.61 32.37 30.37 32.51 30.11C32.55 30.02 32.6 29.92 32.63 29.82C32.63 29.8 32.64 29.78 32.64 29.75C32.64 29.73 32.64 29.71 32.64 29.69C32.63 29.68 32.62 29.6699 32.62 29.6599C32.5 29.5399 32.38 29.41 32.25 29.29C32.18 29.23 32.1 29.18 32.02 29.12C31.16 28.55 30.25 28.05 29.33 27.58C29.31 27.57 29.3 27.56 29.28 27.56C28.94 27.55 28.61 27.45 28.33 27.27C28.32 27.27 28.31 27.27 28.31 27.28C28.29 27.29 28.26 27.3 28.24 27.31C28.18 27.34 28.13 27.37 28.08 27.39Z"
    fill="rgba(191, 192, 191, 1)" />
  <path
    d="M47.6 36.18C46.76 36.05 45.89 35.76 45.21 35.23C44.55 34.71 44.05 34.06 43.69 33.3C42.85 31.54 42.61 29.46 43.05 27.56C43.25 26.7 43.57 25.81 44.12 25.1C44.67 24.39 45.33 23.89 46.18 23.58C46.46 23.48 46.77 23.41 47.1 23.38C47.55 22.68 48.49 22.33 49.28 22.69C49.77 22.92 50.25 23.15 50.74 23.39C51.07 23.55 51.41 23.69 51.74 23.87C52.14 24.09 52.51 24.35 52.88 24.62C54.37 25.74 55.21 27.69 55 29.55C54.8 31.39 53.93 33.03 52.59 34.3C51.95 34.91 51.2 35.38 50.38 35.72C49.71 36.01 48.91 36.22 48.15 36.22C47.96 36.22 47.78 36.21 47.6 36.18ZM47.63 32.56C47.63 32.57 47.64 32.57 47.63 32.56C47.72 32.6 47.81 32.62 47.9 32.64C47.95 32.65 48 32.66 48.05 32.66C48.09 32.66 48.13 32.66 48.17 32.66C48.27 32.65 48.36 32.64 48.46 32.62C48.57 32.59 48.67 32.57 48.78 32.53C48.99 32.46 49.18 32.37 49.38 32.28C49.47 32.23 49.57 32.17 49.66 32.11C49.82 31.99 49.96 31.88 50.11 31.75C50.26 31.61 50.4 31.46 50.54 31.31C50.62 31.21 50.7 31.11 50.78 31.01C50.89 30.84 50.99 30.66 51.1 30.48C51.17 30.32 51.24 30.16 51.3 30C51.35 29.84 51.39 29.68 51.43 29.52C51.45 29.4 51.47 29.27 51.48 29.14C51.48 29.05 51.48 28.97 51.48 28.88C51.47 28.79 51.46 28.71 51.45 28.62C51.42 28.51 51.39 28.39 51.35 28.28C51.31 28.2 51.28 28.12 51.25 28.04C51.21 27.97 51.18 27.91 51.14 27.85C51.11 27.81 51.08 27.77 51.05 27.73C51.01 27.68 50.96 27.63 50.91 27.59C50.71 27.43 50.51 27.27 50.3 27.12C50.23 27.08 50.15 27.03 50.07 26.99C50 26.95 49.92 26.92 49.85 26.88C49.77 26.95 49.68 27.02 49.58 27.08C48.93 27.46 48.15 27.37 47.59 26.93C47.58 26.93 47.57 26.93 47.57 26.92C47.54 26.92 47.52 26.91 47.5 26.91C47.46 26.91 47.42 26.91 47.38 26.91C47.37 26.91 47.36 26.91 47.35 26.92C47.36 26.92 47.36 26.92 47.37 26.91C47.33 26.93 47.29 26.95 47.25 26.96C47.22 26.98 47.2 27 47.17 27.01C47.15 27.03 47.13 27.04 47.11 27.06C47.1 27.08 47.08 27.09 47.07 27.11C47.03 27.16 46.99 27.21 46.96 27.25C46.9 27.34 46.85 27.44 46.8 27.53C46.75 27.64 46.71 27.74 46.66 27.85C46.61 28.03 46.55 28.2 46.51 28.38C46.47 28.61 46.44 28.84 46.42 29.07C46.41 29.36 46.41 29.64 46.42 29.93C46.44 30.17 46.47 30.41 46.51 30.64C46.56 30.85 46.62 31.05 46.68 31.25C46.76 31.45 46.85 31.66 46.94 31.86C46.99 31.96 47.05 32.05 47.11 32.15C47.15 32.19 47.18 32.24 47.21 32.27C47.23 32.29 47.25 32.31 47.27 32.33C47.3 32.35 47.33 32.38 47.36 32.4C47.42 32.44 47.48 32.47 47.54 32.5C47.61 32.53 47.68 32.56 47.75 32.59C47.71 32.58 47.68 32.57 47.64 32.55C47.63 32.55 47.62 32.54 47.62 32.54C47.63 32.54 47.63 32.55 47.64 32.55C47.6 32.54 47.57 32.53 47.53 32.51C47.55 32.53 47.59 32.55 47.63 32.56Z"
    fill="rgba(191, 192, 191, 1)" />
  <path
    d="M49.73 56.68C48.8 56.34 47.94 55.64 47.28 54.91C46.62 54.19 46.12 53.35 45.71 52.47C45.25 51.5 45.07 50.42 45.03 49.36C44.99 48.42 45.24 47.44 45.62 46.59C46.01 45.7001 46.69 44.99 47.49 44.46C47.83 44.23 48.26 44.1 48.65 43.99C49.11 43.86 49.64 43.84 50.11 43.89C50.31 43.91 50.49 43.95 50.68 44C50.7 44 50.73 43.99 50.75 43.98C51.3 43.88 51.86 43.78 52.42 43.75C52.89 43.72 53.35 43.7401 53.81 43.84C54.31 43.94 54.76 44.15 55.21 44.4C55.99 44.84 56.63 45.5 57.21 46.18C57.9 46.99 58.35 47.93 58.68 48.94C58.98 49.84 58.97 50.82 58.8 51.74C58.61 52.74 58.16 53.62 57.57 54.45C56.98 55.28 56.1 55.95 55.19 56.41C54.33 56.84 53.36 57.12 52.4 57.14C52.35 57.14 52.31 57.14 52.27 57.14C51.38 57.14 50.56 56.99 49.73 56.68ZM48.57 49.13C48.56 49.28 48.57 49.43 48.57 49.59C48.59 49.7401 48.61 49.8801 48.63 50.0301C48.68 50.2601 48.74 50.48 48.81 50.7C48.89 50.91 48.97 51.11 49.07 51.31C49.2 51.55 49.34 51.79 49.49 52.02C49.61 52.18 49.73 52.34 49.86 52.5C49.98 52.62 50.1 52.75 50.22 52.86C50.34 52.96 50.45 53.05 50.58 53.14C50.7 53.22 50.83 53.3 50.96 53.37C51.05 53.41 51.14 53.44 51.23 53.48C51.32 53.51 51.41 53.53 51.5 53.55C51.64 53.58 51.79 53.6 51.93 53.61C52.05 53.61 52.16 53.61 52.28 53.61C52.46 53.59 52.64 53.57 52.82 53.54C52.93 53.51 53.04 53.48 53.14 53.45C53.26 53.4 53.39 53.35 53.52 53.29C53.7 53.2 53.88 53.09 54.05 52.98C54.14 52.91 54.22 52.8501 54.3 52.7801C54.42 52.6701 54.54 52.55 54.65 52.43C54.72 52.34 54.78 52.25 54.85 52.16C54.92 52.05 54.99 51.93 55.05 51.82C55.11 51.7 55.16 51.57 55.21 51.44C55.25 51.32 55.28 51.2 55.31 51.07C55.33 50.95 55.35 50.84 55.36 50.71C55.36 50.62 55.36 50.53 55.36 50.43C55.35 50.34 55.34 50.26 55.32 50.17C55.29 50.04 55.25 49.9 55.21 49.77C55.15 49.6 55.08 49.44 55.01 49.27C54.92 49.1 54.82 48.93 54.72 48.77C54.58 48.58 54.43 48.4 54.29 48.22C54.15 48.06 54 47.92 53.84 47.77C53.73 47.68 53.62 47.59 53.5 47.52C53.41 47.47 53.33 47.41 53.24 47.36C53.19 47.34 53.13 47.31 53.08 47.29C52.96 47.27 52.84 47.26 52.72 47.25C52.8 47.26 52.88 47.26 52.96 47.27C52.78 47.26 52.59 47.2601 52.41 47.2801C52.49 47.2801 52.57 47.27 52.65 47.26C52.17 47.33 51.69 47.39 51.22 47.48C51.19 47.49 51.16 47.49 51.13 47.5C50.68 47.66 50.2 47.62 49.78 47.42C49.77 47.42 49.76 47.41 49.75 47.4C49.74 47.4 49.73 47.4 49.71 47.4C49.67 47.4 49.62 47.4 49.58 47.4C49.56 47.4 49.54 47.41 49.52 47.41C49.49 47.42 49.47 47.43 49.44 47.43C49.39 47.45 49.35 47.47 49.31 47.48C49.33 47.47 49.34 47.46 49.36 47.46C49.36 47.46 49.35 47.46 49.34 47.46C49.31 47.48 49.28 47.5 49.25 47.51C49.23 47.53 49.21 47.55 49.18 47.57C49.15 47.6 49.12 47.63 49.09 47.67C49.05 47.72 49 47.78 48.96 47.84C48.98 47.8101 49 47.78 49.02 47.75C49.02 47.75 49.02 47.75 49.01 47.75C48.95 47.85 48.89 47.95 48.83 48.05C48.79 48.13 48.76 48.22 48.72 48.3C48.66 48.5 48.61 48.7 48.58 48.9C48.6 48.82 48.61 48.74 48.63 48.67C48.61 48.83 48.58 48.97 48.57 49.13Z"
    fill="rgba(191, 192, 191, 1)" />
  <path
    d="M29.59 56C28.85 55.95 28.09 55.6 27.47 55.21C26.79 54.79 26.26 54.16 25.93 53.43C25.18 51.82 25.22 49.99 25.61 48.29C25.98 46.71 26.75 45.06 28.23 44.25C28.91 43.88 29.63 43.8 30.39 43.89C30.68 43.93 30.98 44.03 31.25 44.17C31.49 44.16 31.73 44.21 31.96 44.31C33.11 44.83 34.28 45.35 35.28 46.14C36.51 47.11 37.1 48.84 36.92 50.37C36.83 51.14 36.62 51.9 36.25 52.58C35.82 53.37 35.26 54.01 34.56 54.57C33.33 55.57 31.73 56.01 30.17 56.01C29.98 56.02 29.79 56.01 29.59 56ZM29.78 47.47C29.74 47.52 29.7 47.57 29.66 47.62C29.58 47.74 29.51 47.87 29.44 48C29.36 48.17 29.29 48.34 29.23 48.51C29.17 48.71 29.11 48.91 29.06 49.12C28.99 49.51 28.93 49.9 28.89 50.3C28.88 50.55 28.87 50.8 28.88 51.04C28.89 51.14 28.9 51.24 28.92 51.33C28.95 51.44 28.98 51.55 29.01 51.66C29.05 51.75 29.08 51.84 29.12 51.93C29.15 51.98 29.18 52.03 29.21 52.08C29.22 52.09 29.23 52.11 29.24 52.12C29.25 52.14 29.27 52.15 29.28 52.16C29.32 52.19 29.35 52.21 29.39 52.24C29.43 52.26 29.48 52.29 29.52 52.31C29.6 52.35 29.69 52.38 29.78 52.42C29.83 52.43 29.89 52.45 29.95 52.47C30.06 52.49 30.16 52.5 30.26 52.51C30.26 52.51 30.26 52.51 30.27 52.51C30.23 52.51 30.18 52.51 30.14 52.5C30.22 52.5 30.3 52.5 30.38 52.5C30.61 52.48 30.84 52.45 31.08 52.4C31.19 52.37 31.29 52.35 31.39 52.31C31.59 52.24 31.78 52.15 31.98 52.06C32.07 52.01 32.16 51.95 32.25 51.9C32.36 51.82 32.47 51.74 32.57 51.65C32.66 51.57 32.75 51.49 32.83 51.4C32.88 51.34 32.93 51.28 32.98 51.21C33.05 51.11 33.11 51 33.16 50.89C33.21 50.78 33.26 50.68 33.3 50.57C33.33 50.46 33.36 50.36 33.38 50.25C33.4 50.15 33.41 50.06 33.42 49.96C33.42 49.87 33.42 49.78 33.42 49.69C33.42 49.64 33.41 49.59 33.4 49.55C33.38 49.48 33.36 49.41 33.34 49.34C33.32 49.28 33.29 49.23 33.27 49.17C33.24 49.12 33.21 49.06 33.18 49.01C33.16 48.99 33.14 48.97 33.13 48.95C33.1 48.92 33.06 48.89 33.03 48.86C32.96 48.81 32.89 48.75 32.82 48.7C32.63 48.58 32.44 48.46 32.25 48.36C31.76 48.13 31.27 47.88 30.77 47.65C30.44 47.67 30.1 47.6 29.81 47.44C29.8 47.45 29.79 47.46 29.78 47.47Z"
    fill="rgba(191, 192, 191, 1)" />
  <path
    d="M15.52 77.71C14.97 77.67 14.47 77.54 13.96 77.33C13.08 76.97 12.3 76.29 11.77 75.51C11.16 74.62 10.81 73.53 10.58 72.48C10.32 71.31 10.26 70.1 10.29 68.91C10.32 67.73 10.52 66.55 10.88 65.42C11.2 64.42 11.7 63.48 12.41 62.71C13.06 61.99 13.88 61.47 14.79 61.14C15.61 60.84 16.53 60.84 17.17 61.5C17.26 61.6 17.35 61.7 17.42 61.82C17.49 61.79 17.55 61.77 17.62 61.75C18.1 61.62 18.55 61.71 18.98 61.93C19.55 62.22 20.1 62.53 20.66 62.83C21.64 63.36 22.46 64.12 23.16 64.99C23.81 65.81 24.26 66.78 24.46 67.81C24.67 68.88 24.59 69.92 24.23 70.95C23.48 73.09 22.05 74.97 20.19 76.27C19.26 76.91 18.26 77.38 17.16 77.61C16.74 77.7 16.31 77.75 15.88 77.75C15.76 77.72 15.64 77.72 15.52 77.71ZM14.65 73.47C14.69 73.53 14.74 73.59 14.78 73.65C14.83 73.7 14.88 73.74 14.92 73.79C14.99 73.85 15.07 73.9 15.14 73.96C15.21 74 15.27 74.04 15.34 74.08C15.39 74.1 15.45 74.12 15.5 74.15C15.54 74.16 15.57 74.17 15.61 74.19C15.69 74.2 15.77 74.21 15.86 74.22H15.87C15.83 74.22 15.8 74.22 15.76 74.21C15.85 74.21 15.94 74.21 16.02 74.21C16.16 74.2 16.31 74.17 16.44 74.15C16.64 74.11 16.83 74.06 17.02 73.99C17.14 73.94 17.26 73.89 17.38 73.84C17.63 73.71 17.86 73.57 18.1 73.42C18.35 73.24 18.58 73.06 18.82 72.87C19.07 72.63 19.32 72.39 19.55 72.12C19.74 71.89 19.92 71.65 20.09 71.41C20.27 71.14 20.43 70.86 20.58 70.57C20.7 70.29 20.82 70.01 20.93 69.72C20.97 69.6 21 69.47 21.03 69.34C21.04 69.27 21.05 69.21 21.06 69.14C21.06 69.08 21.06 69.02 21.06 68.95C21.04 68.79 21.02 68.62 20.99 68.46C20.95 68.32 20.92 68.19 20.87 68.05C20.83 67.96 20.79 67.87 20.75 67.78C20.7 67.68 20.64 67.59 20.58 67.49C20.43 67.27 20.26 67.06 20.1 66.85C20.02 66.76 19.93 66.68 19.85 66.6C19.65 66.44 19.46 66.28 19.25 66.13C18.6 65.71 17.89 65.35 17.2 65.01C16.94 64.88 16.74 64.68 16.59 64.44C16.34 64.55 16.06 64.6 15.78 64.58C15.74 64.6 15.69 64.62 15.66 64.63C15.57 64.68 15.49 64.73 15.41 64.78C15.34 64.83 15.26 64.89 15.19 64.94C15.13 64.99 15.07 65.05 15.02 65.12C14.94 65.21 14.86 65.31 14.79 65.41C14.69 65.56 14.6 65.71 14.51 65.87C14.42 66.07 14.34 66.26 14.27 66.45C14.17 66.76 14.09 67.07 14.02 67.4C13.94 67.84 13.88 68.27 13.84 68.71C13.81 69.29 13.82 69.87 13.86 70.46C13.9 70.87 13.95 71.28 14.02 71.68C14.09 71.98 14.17 72.29 14.27 72.59C14.37 72.86 14.48 73.13 14.6 73.39C14.64 73.45 14.67 73.51 14.7 73.56C14.68 73.53 14.66 73.5 14.64 73.47C14.64 73.45 14.64 73.46 14.65 73.47Z"
    fill="rgba(191, 192, 191, 1)" />
</svg>