<?xml version="1.0" encoding="UTF-8" standalone="yes"?>
<svg width="84" height="76" viewBox="-40 -40 164 156" fill="none" xmlns="http://www.w3.org/2000/svg">
  <path
    d="M55.05 75.57C53.35 75.53 51.68 75.36 50.03 74.96C48.17 74.51 46.3599 73.96 44.6899 73.02C43.5999 72.41 42.6199 71.59 41.6899 70.77C40.7899 69.98 39.97 69.14 39.37 68.1C38.81 67.14 38.5201 66.01 38.3 64.94C38.05 63.78 37.95 62.64 38.04 61.46C38.08 60.98 38.18 60.51 38.27 60.05C38.43 59.14 38.7299 58.26 39.0699 57.41C39.4299 56.48 39.95 55.61 40.42 54.73C40.85 53.82 41.27 52.91 41.7 52C42.16 51 42.74 50.07 43.28 49.12C43.7 48.39 44.14 47.69 44.75 47.1C45.14 46.74 45.62 46.44 46.13 46.3C46.47 46.21 46.8301 46.2 47.1801 46.19C48.1901 46.16 49.16 46.32 50.11 46.68C50.84 46.95 51.47 47.43 52.15 47.8C52.31 47.87 52.47 47.94 52.63 48C53.08 48.14 53.52 48.25 53.98 48.34C54.15 48.37 54.32 48.39 54.5 48.41C54.58 48.41 54.66 48.41 54.74 48.41C54.79 48.4 54.85 48.39 54.91 48.39C54.96 48.38 55 48.37 55.04 48.35C55.13 48.31 55.21 48.28 55.29 48.24C55.34 48.21 55.3801 48.18 55.4301 48.15C55.4301 48.14 55.4399 48.12 55.4399 48.11C55.5999 47.2 55.69 46.28 55.76 45.36C55.76 45.4 55.76 45.43 55.76 45.47C55.76 45.4 55.77 45.33 55.77 45.27C55.77 45.26 55.77 45.25 55.77 45.25C55.89 43.25 56.03 41.26 56.29 39.27C56.56 37.24 56.79 35.21 56.97 33.18C57.01 32.69 57.04 32.2 57.08 31.71C57.07 31.79 57.0701 31.87 57.0601 31.95C57.1601 30.46 57.14 28.96 57.14 27.47C57.14 26.08 57.1101 24.7 57.05 23.31C57.01 22.91 56.97 22.52 56.91 22.12C56.87 21.95 56.83 21.78 56.77 21.61C56.75 21.56 56.7299 21.5 56.7 21.44C56.69 21.42 56.68 21.4 56.67 21.39C56.67 21.39 56.67 21.38 56.66 21.38C56.64 21.38 56.62 21.38 56.61 21.38C56.56 21.38 56.51 21.38 56.46 21.38C56.16 21.41 55.8699 21.45 55.5699 21.5C53.1099 22.03 50.67 22.71 48.29 23.53C46.08 24.36 43.86 25.17 41.63 25.94C41.7 25.92 41.78 25.89 41.85 25.87C41.65 25.94 41.44 26.01 41.24 26.08C41.31 26.06 41.39 26.03 41.46 26.01C41.13 26.12 40.8 26.24 40.48 26.35C40.55 26.33 40.6199 26.3 40.7 26.28C40.45 26.37 40.21 26.45 39.97 26.53C40.04 26.51 40.1099 26.48 40.1899 26.46C38.3899 27.09 36.62 27.8 34.86 28.53C33.88 28.93 32.9 29.33 31.92 29.71C30.69 30.19 29.44 30.63 28.26 31.2C27.93 31.37 27.61 31.55 27.29 31.75C27.1 31.88 26.91 32.02 26.72 32.17C26.61 32.27 26.5 32.38 26.39 32.48C26.66 32.69 26.94 32.89 27.23 33.09C27.66 33.36 28.1 33.63 28.53 33.92C28.47 33.88 28.41 33.83 28.34 33.79C28.57 33.95 28.8 34.1 29.03 34.25C28.98 34.22 28.94 34.19 28.89 34.16C30.21 35.06 31.21 36.26 32.38 37.33C32.41 37.35 32.43 37.37 32.45 37.39C32.52 37.38 32.6001 37.38 32.6801 37.38C33.4501 37.38 34.12 37.9 34.36 38.6C34.82 39.01 35.2 39.49 35.36 40.14C35.5 40.7 35.56 41.29 35.63 41.86C35.75 42.75 35.72 43.61 35.63 44.5C35.54 45.44 35.25 46.3 34.9 47.18C34.58 47.98 34.21 48.73 33.76 49.47C33.27 50.26 32.7601 51.06 32.1801 51.79C31.6201 52.49 31.04 53.17 30.5 53.89C30.21 54.27 29.93 54.66 29.61 55.01C29.09 55.6 28.5 56.11 27.89 56.61C26.44 57.81 24.98 59.02 23.28 59.86C22.33 60.32 21.38 60.79 20.38 61.11C19.91 61.26 19.4299 61.37 18.9399 61.44C18.3799 61.52 17.81 61.46 17.25 61.42C16.39 61.35 15.54 61.23 14.7 61.02C13.2 60.65 11.81 59.92 10.49 59.16C9.62999 58.66 8.81001 58.09 8.01001 57.51C6.64001 56.54 5.34003 55.39 4.40003 54C3.50003 52.68 2.79006 51.18 2.18006 49.7C1.84006 48.88 1.56999 48.02 1.35999 47.15C1.21999 46.59 1.06997 46.03 0.969972 45.46C0.789972 44.52 0.620002 43.6 0.500002 42.65C0.240002 40.69 0.179953 38.71 0.199953 36.74C0.219953 34.82 0.379987 32.9 0.609987 30.99C0.719987 30.11 0.860041 29.24 1.04004 28.37C1.23004 27.41 1.41998 26.43 1.72998 25.49C1.89998 24.99 2.06999 24.49 2.23999 24C2.65999 22.76 3.24001 21.59 3.88001 20.46C4.39001 19.56 4.99997 18.7 5.58997 17.85C6.56997 16.43 7.76006 15.19 9.06006 14.06C9.86006 13.37 10.67 12.71 11.49 12.05C13.73 10.26 16.38 9.11003 18.96 7.89003C19.87 7.46003 20.7799 7.05002 21.6899 6.63002C22.5599 6.24002 23.45 5.89005 24.33 5.53005C25.2 5.17005 26.12 4.90999 27.01 4.59999C27.46 4.43999 27.92 4.34004 28.37 4.21004C28.75 4.10004 29.14 3.98002 29.53 3.88002C31.4 3.39002 33.27 2.90002 35.15 2.44002C36.14 2.20002 37.13 1.97003 38.12 1.76003C39.16 1.54003 40.18 1.36003 41.23 1.20003C42.19 1.05003 43.17 0.98999 44.14 0.90999C44.79 0.84999 45.45 0.860002 46.1 0.860002C46.36 0.860002 46.63 0.860002 46.89 0.860002C47.38 0.860002 47.88 0.910019 48.37 0.940019C48.8 0.960019 49.22 0.980046 49.64 1.03005C50.65 1.15005 51.64 1.27003 52.64 1.45003C53.11 1.54003 53.59 1.59999 54.05 1.71999C54.64 1.86999 55.23 2.00999 55.83 2.15999C56.2 2.24999 56.56 2.37001 56.92 2.49001C57.4 2.65001 57.9 2.77999 58.37 2.96999C58.91 3.17999 59.44 3.4 59.98 3.61C60.96 4 61.91 4.49002 62.83 5.00002C64.39 5.88002 65.78 6.97999 67.16 8.09999C68.61 9.27999 70.02 10.55 71.27 11.94C72.97 13.83 74.5701 15.8 76.0601 17.86C76.7401 18.79 77.35 19.79 77.92 20.79C78.24 21.36 78.59 21.91 78.88 22.5C79.16 23.07 79.44 23.63 79.72 24.2C79.73 24.22 79.74 24.25 79.76 24.27C79.76 24.28 79.77 24.29 79.78 24.3C79.97 24.69 80.12 25.1 80.29 25.51C80.45 25.9 80.63 26.3 80.77 26.71C81.13 27.73 81.49 28.74 81.78 29.78C82.07 30.8 82.3 31.81 82.53 32.84C82.62 33.21 82.68 33.58 82.74 33.96C82.82 34.44 82.94 34.94 82.99 35.43C83.09 36.43 83.2 37.41 83.23 38.41C83.24 38.9 83.25 39.39 83.26 39.89C83.27 40.43 83.2199 40.98 83.2 41.53C83.13 43.41 82.91 45.3 82.5 47.14C82.38 47.69 82.26 48.24 82.14 48.79C82.03 49.29 81.86 49.77 81.72 50.27C81.47 51.15 81.17 52.03 80.84 52.88C80.47 53.8 80.11 54.72 79.72 55.63C79.33 56.52 78.9 57.38 78.47 58.25C78.04 59.11 77.57 59.96 77.09 60.79C76.59 61.65 76.05 62.46 75.49 63.29C74.93 64.11 74.29 64.89 73.67 65.67C73.06 66.43 72.41 67.16 71.77 67.9C71.43 68.29 71.03 68.64 70.66 69.01C70.34 69.32 70.0299 69.62 69.6899 69.9C69.2999 70.23 68.9 70.56 68.51 70.9C68.08 71.26 67.6 71.58 67.15 71.92C65.4 73.24 63.44 74.23 61.34 74.86C59.53 75.4 57.63 75.59 55.73 75.59C55.46 75.58 55.26 75.58 55.05 75.57ZM47.11 49.74C47.08 49.76 47.06 49.79 47.04 49.81C46.97 49.9 46.9 49.99 46.83 50.08C46.45 50.66 46.13 51.27 45.78 51.86C45.47 52.38 45.19 52.91 44.92 53.45C44.21 54.97 43.51 56.49 42.71 57.96C42.5 58.41 42.3 58.85 42.13 59.31C41.98 59.76 41.86 60.21 41.75 60.67C41.66 61.13 41.58 61.58 41.54 62.05C41.53 62.27 41.53 62.48 41.54 62.7C41.58 63.18 41.65 63.65 41.74 64.11C41.85 64.6 41.97 65.07 42.12 65.55C42.2 65.76 42.28 65.98 42.38 66.19C42.47 66.35 42.56 66.51 42.65 66.66C42.76 66.8 42.87 66.95 42.99 67.09C43.37 67.5 43.78 67.88 44.2 68.25C44.79 68.75 45.38 69.23 46.02 69.67C46.31 69.85 46.6 70.02 46.91 70.18C47.46 70.45 48.01 70.67 48.58 70.88C49.51 71.18 50.45 71.41 51.4 71.64C52.25 71.8 53.1 71.92 53.97 71.99C54.97 72.05 55.98 72.05 56.98 71.99C57.75 71.93 58.51 71.83 59.26 71.69C59.9 71.55 60.52 71.38 61.13 71.17C61.63 70.99 62.11 70.78 62.59 70.55C63.27 70.19 63.9299 69.8 64.5699 69.37C65.6499 68.62 66.66 67.78 67.66 66.93C68.12 66.47 68.59 66.02 69.05 65.57C69.61 64.93 70.17 64.3 70.7 63.64C71.31 62.87 71.9 62.1 72.49 61.32C72.97 60.61 73.45 59.89 73.88 59.15C74.34 58.35 74.78 57.54 75.22 56.73C75.48 56.21 75.74 55.69 76 55.17C76.3 54.58 76.54 53.95 76.8 53.34C77.3 52.19 77.7 51 78.12 49.82C78.12 49.83 78.12 49.83 78.12 49.84C78.31 49.18 78.5001 48.53 78.6801 47.88C78.8601 47.26 78.96 46.62 79.09 45.99C79.2 45.31 79.31 44.63 79.42 43.95C79.47 43.63 79.48 43.29 79.51 42.97C79.54 42.63 79.57 42.28 79.6 41.93C79.62 41.25 79.65 40.58 79.67 39.91C79.7 39.23 79.64 38.55 79.63 37.88C79.57 37.23 79.4999 36.57 79.4399 35.92C79.3699 35.24 79.21 34.57 79.1 33.91C78.95 33.24 78.8 32.57 78.65 31.9C78.49 31.2 78.2601 30.5 78.0601 29.81C77.8301 29.17 77.61 28.52 77.38 27.88C77.13 27.18 76.81 26.51 76.53 25.83C76.21 25.18 75.8899 24.54 75.5699 23.89C75.2599 23.32 74.91 22.76 74.59 22.19C74.25 21.58 73.85 21 73.48 20.42C72.87 19.58 72.27 18.75 71.62 17.94C70.93 17.08 70.23 16.23 69.53 15.39C69.08 14.89 68.64 14.39 68.2 13.9C68 13.68 67.7701 13.48 67.5601 13.28C67.2601 12.99 66.97 12.71 66.67 12.43C66.73 12.48 66.78 12.53 66.84 12.58C65.34 11.28 63.86 9.96999 62.22 8.84999C62.28 8.88999 62.35 8.93999 62.41 8.96999C61.63 8.44999 60.83 7.98001 60 7.56001C59.02 7.09001 58.02 6.68999 57 6.28999C56.37 6.08999 55.75 5.88001 55.12 5.68001C54.47 5.48001 53.8 5.35002 53.14 5.19002C52.47 5.07002 51.81 4.94002 51.14 4.82002C50.42 4.69002 49.6699 4.64001 48.9399 4.56001C48.2399 4.52001 47.55 4.49003 46.85 4.45003C46.49 4.43003 46.11 4.45004 45.74 4.46004C45.32 4.46004 44.9 4.46999 44.48 4.46999C43.75 4.52999 43.02 4.59004 42.29 4.65004C41.91 4.69004 41.53 4.77003 41.16 4.83003C40.73 4.90003 40.32 4.97005 39.89 5.03005C38.77 5.27005 37.65 5.51005 36.53 5.78005C35.26 6.09005 33.99 6.41 32.72 6.73C31.56 7.02 30.4 7.34 29.26 7.67C28.73 7.82 28.19 7.96003 27.67 8.14003C27.03 8.36003 26.38 8.58001 25.73 8.81001C24.97 9.12001 24.2099 9.43002 23.4399 9.75002C22.6799 10.06 21.9399 10.43 21.1899 10.77C19.7899 11.41 18.4 12.09 17.01 12.76C16.26 13.15 15.5201 13.56 14.8101 14.01C13.4001 14.98 12.0999 16.08 10.8199 17.2C10.3499 17.65 9.88996 18.1 9.45996 18.59C8.81996 19.36 8.25994 20.16 7.68994 20.98C7.19994 21.76 6.72005 22.53 6.30005 23.35C6.01005 23.95 5.76003 24.55 5.53003 25.17C5.38003 25.62 5.22996 26.06 5.07996 26.5C4.90996 27 4.79003 27.54 4.65003 28.05C4.55003 28.56 4.44998 29.07 4.34998 29.58C4.23998 30.15 4.17997 30.74 4.08997 31.32C3.90997 32.44 3.84001 33.58 3.76001 34.71C3.73001 35.55 3.68994 36.39 3.68994 37.23C3.67994 38.14 3.72 39.03 3.75 39.94C3.82 40.74 3.86998 41.55 3.97998 42.35C4.08998 43.19 4.25003 44.01 4.40003 44.84C4.64003 45.84 4.86994 46.83 5.18994 47.8C5.53994 48.75 5.98006 49.67 6.43006 50.58C6.68006 51.05 6.93998 51.51 7.22998 51.96C7.41998 52.24 7.61998 52.51 7.84998 52.76C8.09998 53.02 8.36 53.27 8.62 53.51C9.4 54.17 10.21 54.77 11.04 55.37C11.9 55.91 12.76 56.42 13.66 56.89C14.06 57.08 14.46 57.25 14.87 57.4C15.28 57.53 15.68 57.64 16.09 57.74C16.66 57.84 17.2399 57.9 17.8199 57.94C18.0399 57.95 18.26 57.95 18.48 57.94C18.55 57.93 18.63 57.92 18.7 57.9C18.93 57.85 19.16 57.78 19.39 57.71C20.2 57.41 20.98 57.04 21.75 56.66C22.21 56.41 22.66 56.14 23.1 55.87C24.19 55.07 25.26 54.23 26.28 53.34C26.52 53.11 26.76 52.88 26.98 52.64C27.49 52 27.96 51.32 28.48 50.7C29.01 50.06 29.53 49.43 30 48.75C30.42 48.11 30.82 47.47 31.2 46.81C31.44 46.29 31.65 45.75 31.85 45.21C31.91 45.01 31.97 44.82 32.01 44.62C32.07 44.21 32.12 43.81 32.15 43.4C32.16 43.22 32.15 43.03 32.15 42.85C32.1 42.31 32.0299 41.77 31.9399 41.24C31.8299 41.16 31.72 41.08 31.61 41C30.72 40.72 29.9501 40.02 29.3101 39.37C28.7601 38.82 28.22 38.25 27.65 37.73C27.42 37.53 27.1801 37.33 26.9301 37.16C26.9501 37.17 26.97 37.18 26.99 37.2C26.81 37.08 26.63 36.96 26.45 36.84C26.44 36.84 26.4301 36.83 26.4301 36.83C25.8201 36.45 25.19 36.07 24.61 35.63C24.04 35.21 23.4699 34.78 23.0699 34.2C22.5699 33.47 22.47 32.58 22.74 31.74C23.02 30.88 23.6499 30.18 24.3199 29.6C25.0999 28.91 26.0001 28.41 26.9301 27.95C27.9301 27.45 29 27.09 30.04 26.68C33.15 25.46 36.22 24.13 39.38 23.03C39.31 23.05 39.23 23.08 39.16 23.1C39.49 22.99 39.82 22.87 40.14 22.76C40.07 22.78 40 22.81 39.92 22.83C40.17 22.74 40.41 22.66 40.65 22.58C40.58 22.6 40.5101 22.63 40.4301 22.65C41.0501 22.43 41.6899 22.22 42.3199 22C44.0499 21.37 45.77 20.69 47.52 20.09C49.32 19.47 51.14 18.97 52.98 18.5C54.18 18.2 55.41 17.89 56.65 17.88C57.65 17.86 58.6899 18.33 59.3199 19.11C60.0399 20.01 60.32 21.08 60.48 22.21C60.64 23.36 60.63 24.55 60.64 25.71C60.66 26.63 60.66 27.55 60.66 28.48C60.66 30.12 60.59 31.74 60.48 33.37C60.37 35.08 60.1599 36.8 59.9399 38.5C59.7299 40.22 59.51 41.93 59.38 43.67C59.38 43.65 59.38 43.63 59.38 43.62C59.38 43.66 59.38 43.71 59.37 43.75C59.37 43.76 59.37 43.77 59.37 43.79C59.32 44.73 59.2501 45.67 59.1801 46.62C59.1501 47.07 59.09 47.51 59.03 47.95C58.94 48.56 58.84 49.18 58.6 49.76C58.23 50.65 57.3999 51.2 56.5699 51.6C55.5199 52.11 54.2901 52.09 53.1801 51.86C52.3901 51.7 51.64 51.5 50.89 51.2C50.17 50.9 49.53 50.44 48.85 50.07C48.75 50.03 48.65 49.98 48.55 49.95C48.46 49.92 48.36 49.9 48.26 49.88C48.06 49.84 47.87 49.82 47.66 49.79C47.51 49.73 47.31 49.73 47.11 49.74Z"
    fill="rgba(191, 192, 191, 1)" />
  <path d="M59.4101 43.62C59.4101 43.63 59.4101 43.64 59.4101 43.66C59.4001 43.64 59.4101 43.63 59.4101 43.62Z"
    fill="rgba(191, 192, 191, 1)" />
  <path d="M26.46 36.81C26.48 36.83 26.51 36.84 26.53 36.86C26.5 36.84 26.48 36.82 26.46 36.81Z"
    fill="rgba(191, 192, 191, 1)" />
</svg>