<?xml version="1.0" encoding="UTF-8" standalone="yes"?>
<svg width="80" height="73" viewBox="-40 -40 160 153" fill="none" xmlns="http://www.w3.org/2000/svg">
  <path fill-rule="evenodd" clip-rule="evenodd"
    d="M52.5799 33.02C52.8376 31.0916 53.0771 29.1177 52.4284 27.246C52.5697 27.1889 52.7052 27.1136 52.8299 27.02C53.1205 26.8021 53.3741 26.5367 53.6291 26.2697C53.7252 26.1692 53.8215 26.0685 53.92 25.97C54.0808 25.8043 54.2416 25.641 54.4023 25.4777C54.5615 25.316 54.7207 25.1543 54.88 24.99C55.22 24.64 55.5599 24.2901 55.91 23.9501C56.0909 23.7711 56.272 23.5917 56.4531 23.4122L56.4549 23.4102C57.1839 22.6876 57.9155 21.9624 58.66 21.25C58.8033 21.1154 58.946 20.98 59.0884 20.8439C59.3088 20.6333 59.5284 20.4213 59.7483 20.2092C60.3667 19.6123 60.9864 19.0142 61.63 18.44C61.9979 18.11 62.3658 17.7787 62.7341 17.4471C63.3935 16.8532 64.0543 16.2583 64.7189 15.6667C67.2858 13.4577 69.8424 11.2384 72.31 8.93004C72.8764 8.39903 73.4275 7.85011 73.9658 7.28975C74.2851 9.06502 74.5804 10.8475 74.8299 12.6301C75.02 14.03 75.19 15.4201 75.34 16.8201C75.3664 17.066 75.3887 17.3133 75.4109 17.561C75.4475 17.968 75.4841 18.376 75.54 18.78C75.6301 19.4 75.7601 20.08 76.15 20.58C76.5101 21.04 76.93 21.2901 77.49 21.46C77.65 21.5 77.81 21.53 77.9599 21.52C78.73 21.52 79.4601 20.97 79.67 20.22C79.8701 19.5101 79.6 18.81 79.0699 18.3801C78.9438 17.4509 78.853 16.5173 78.7623 15.5853C78.7163 15.1129 78.6704 14.6409 78.62 14.1701C78.5 13.0401 78.3301 11.9 78.15 10.78C77.7601 8.40004 77.3601 6.04005 76.88 3.69005C76.91 3.40004 76.8801 3.09004 76.77 2.80003C76.7688 2.79686 76.7676 2.79375 76.7663 2.79057C76.7367 2.67271 76.6922 2.55867 76.635 2.45122C76.5798 2.3145 76.5207 2.1808 76.4499 2.05003C76.3129 1.79869 76.113 1.59642 75.8784 1.44972C75.38 1.01051 74.715 0.826553 74.05 0.760055C72.6405 0.630081 71.2308 0.610061 69.8214 0.590042H69.8199C68.2071 0.560165 66.5848 0.550125 64.9719 0.540145L64.9499 0.540054C64.4873 0.540054 64.0233 0.536605 63.5587 0.533126C62.2556 0.523422 60.9474 0.513687 59.65 0.580032C58.2407 0.65129 56.8376 0.747634 55.4309 0.844223C55.0609 0.869644 54.6907 0.895065 54.3199 0.920059H54.12C53.4299 0.950058 52.74 0.990066 52.04 1.04005C51.23 0.860061 50.35 1.29005 50.02 2.08003C49.64 2.97005 50.0699 4.02003 50.9599 4.40004C51.3999 4.59004 51.8199 4.61006 52.29 4.57005C53.3768 4.50438 54.4601 4.42799 55.544 4.35155C56.2752 4.29997 57.0068 4.2484 57.74 4.20006C58.9299 4.14006 60.12 4.09007 61.31 4.07005C62.6186 4.05009 63.9172 4.06007 65.2159 4.07005H65.22C65.5818 4.07164 65.944 4.07271 66.3063 4.07378L66.3627 4.07396H66.3638C68.265 4.07951 70.1709 4.08507 72.0699 4.16005C71.3398 4.94005 70.5998 5.70006 69.8199 6.43004C68.5199 7.66005 67.1799 8.85005 65.84 10.0401C65.5742 10.2685 65.308 10.4964 65.0416 10.7244L65.0383 10.7272C64.0932 11.5363 63.1474 12.346 62.22 13.18C61.8211 13.5405 61.4204 13.8969 61.0201 14.2528C60.1658 15.0126 59.3139 15.7701 58.49 16.56L58.4878 16.562C57.1784 17.8013 55.8692 19.0407 54.5899 20.31C53.9999 20.8801 53.4099 21.4501 52.8399 22.0401C52.1699 22.7301 51.5 23.4501 50.8 24.1301C50.7823 24.1423 50.7649 24.1547 50.7477 24.1673C50.6794 24.074 50.6101 23.9815 50.54 23.89C49.89 23.05 49.13 22.25 48.15 21.79C47.02 21.27 45.8299 21.2 44.62 21.45C44.22 21.53 43.8298 21.63 43.4399 21.74C43.1599 21.54 42.8099 21.43 42.4499 21.43C40.3999 21.43 38.5099 22.62 36.97 23.87C35.6098 24.98 34.38 26.21 33.18 27.48C32.06 28.66 30.9399 29.8501 29.92 31.14C28.6 32.8 27.4199 34.56 26.4599 36.46C26.3382 36.7061 26.2152 36.9514 26.092 37.1969L26.0832 37.2141L26.0803 37.2201C25.7517 37.8745 25.4227 38.5295 25.12 39.2C23.8199 42.05 22.5099 45.02 22.5899 48.22C22.6064 48.8998 22.6659 49.5612 22.8 50.2077C22.7505 50.2377 22.702 50.27 22.6548 50.3046C22.635 50.3192 22.6153 50.3342 22.5959 50.3496C22.5598 50.3783 22.5244 50.4085 22.49 50.44C21.2545 51.5704 20.0146 52.6964 18.7734 53.8237L16.8857 55.5392C15.848 56.4412 14.8161 57.3601 13.7853 58.2779L13.7772 58.2851L13.7646 58.2962L12.94 59.03C12.1145 59.7204 11.2965 60.4158 10.4786 61.1112C9.66154 61.8058 8.84453 62.5004 8.02 63.19C7.75328 63.413 7.48637 63.6357 7.21946 63.8585C5.59477 65.2145 3.96892 66.5715 2.37999 67.9801C1.75999 68.53 1.15001 69.08 0.650007 69.76C-0.0199761 70.68 0.289961 72.01 1.35997 72.47C1.65996 72.6 1.96 72.6301 2.28001 72.64C3.10002 72.64 3.80998 72.05 3.99998 71.28C4.1251 71.1549 4.25371 71.0333 4.38591 70.9132C4.45567 70.8499 4.52641 70.7869 4.59819 70.724L4.57493 70.745C4.5518 70.7661 4.52861 70.7872 4.50395 70.8082C4.59123 70.7345 4.67845 70.6588 4.76463 70.583C4.84202 70.515 4.91856 70.4469 4.99357 70.3802L5.04997 70.33C6.34569 69.211 7.65538 68.1128 8.96458 67.015L8.96898 67.0112C9.88115 66.2463 10.7931 65.4815 11.7 64.71C11.891 64.5483 12.0824 64.3871 12.274 64.2261C12.4628 64.0676 12.6518 63.9092 12.8409 63.7508C13.7065 63.0257 14.5729 62.2999 15.42 61.55C15.8354 61.1811 16.251 60.8133 16.6665 60.4458L17.5417 59.6721L17.5677 59.649C17.9009 59.3544 18.2341 59.0598 18.5672 58.7646C18.7682 58.5866 18.9691 58.4085 19.17 58.2301L19.1664 58.2305C19.1715 58.227 19.1758 58.2234 19.1797 58.2199L19.1891 58.211L19.1899 58.21C19.2099 58.19 19.23 58.1725 19.25 58.155L19.2753 58.1326L19.2873 58.1217C19.2947 58.115 19.302 58.1081 19.3093 58.1008L19.29 58.12C20.6951 56.9032 22.0635 55.6391 23.4294 54.3773L23.4368 54.3705C23.7867 54.0472 24.1366 53.724 24.4868 53.4018C24.7561 53.659 25.0475 53.8925 25.35 54.1C26.7899 55.08 28.5799 55.44 30.36 55.43C31.0099 55.43 31.67 55.38 32.3 55.3C34.87 54.96 37.4199 54.26 39.76 53.13C42.0799 52.01 44.15 50.33 45.92 48.46C47.6799 46.61 49.2799 44.57 50.3299 42.23C51.1999 40.29 51.7799 38.24 52.12 36.14C52.2899 35.1001 52.4399 34.06 52.5799 33.02ZM28.78 39.7027C29.506 38.2686 30.2302 36.8382 31.11 35.49C31.97 34.24 32.9 33.05 33.91 31.9C33.9083 31.9017 33.9067 31.903 33.9051 31.9043C33.9142 31.8943 33.9239 31.8822 33.93 31.87C33.935 31.86 33.9425 31.8525 33.9501 31.845C33.9575 31.8375 33.9649 31.83 33.97 31.82C34.4828 31.2389 35.0174 30.6796 35.5491 30.1236L35.6618 30.0056L35.8199 29.84C36.6299 28.98 37.4499 28.15 38.3199 27.36C38.9199 26.84 39.53 26.34 40.18 25.89C40.49 25.7 40.7899 25.52 41.11 25.35C41.2899 25.27 41.48 25.19 41.66 25.12C42.1 25.49 42.6999 25.66 43.27 25.48C43.9452 25.2648 44.6203 25.0686 45.3049 24.9104C45.2554 24.9209 45.2062 24.9291 45.1605 24.9397C45.2742 24.9114 45.3879 24.8901 45.5017 24.8735C45.5644 24.8643 45.6272 24.8566 45.6899 24.85C45.7502 24.85 45.8094 24.8489 45.8684 24.8478C45.9851 24.8456 46.1003 24.8434 46.22 24.85L46.2262 24.8519C46.2341 24.8543 46.242 24.856 46.25 24.8575L46.265 24.86C46.28 24.8625 46.295 24.865 46.31 24.87C46.36 24.89 46.3999 24.9 46.4499 24.91C46.4764 24.9214 46.5014 24.9313 46.5256 24.9409C46.5653 24.9566 46.6026 24.9714 46.64 24.99C46.6701 25.0101 46.7003 25.0277 46.7304 25.0453C46.7602 25.0627 46.79 25.0801 46.8199 25.1L46.81 25.09C46.8232 25.0988 46.8369 25.1077 46.8508 25.1166C46.8998 25.1481 46.9509 25.181 46.99 25.22C47.0403 25.2704 47.0907 25.3196 47.1411 25.3688C47.2407 25.4663 47.3403 25.5637 47.4399 25.67C47.6899 25.99 47.9399 26.31 48.17 26.65C48.4 27.01 48.61 27.37 48.81 27.74C48.89 27.92 48.97 28.1 49.05 28.29C49.14 28.55 49.2099 28.82 49.27 29.09C49.2811 29.1456 49.2892 29.2012 49.2958 29.2585C49.3011 29.3043 49.3056 29.3512 49.31 29.4C49.3297 29.8223 49.3104 30.2349 49.2908 30.6568V30.6616L49.29 30.68C49.2057 31.6233 49.079 32.5594 48.9515 33.5005C48.9276 33.6768 48.9037 33.8533 48.88 34.03C48.7799 34.8 48.6399 35.58 48.49 36.35C48.2799 37.3 48.0399 38.23 47.74 39.16C47.48 39.88 47.1899 40.58 46.86 41.26C46.5499 41.86 46.2099 42.43 45.8399 43C45.3462 43.7081 44.8177 44.3727 44.2545 45.0263C44.263 45.0173 44.2715 45.0085 44.28 45C44.2363 45.0498 44.1925 45.0993 44.1485 45.1488L44.136 45.1629C43.388 46.0016 42.5961 46.7885 41.76 47.54C41.1799 48.04 40.5699 48.51 39.9499 48.94C39.4199 49.28 38.87 49.61 38.31 49.9C37.65 50.21 36.97 50.49 36.29 50.74C35.42 51.03 34.5299 51.28 33.63 51.48C32.8399 51.64 32.0399 51.78 31.23 51.85C30.73 51.88 30.23 51.88 29.73 51.86C29.4308 51.832 29.1405 51.7865 28.8426 51.7398L28.78 51.73C28.53 51.67 28.29 51.61 28.05 51.53C27.91 51.48 27.78 51.42 27.66 51.36L27.36 51.18C27.3022 51.1396 27.2445 51.0992 27.1887 51.0588C27.1478 51.0292 27.108 50.9996 27.0699 50.97L27.0392 50.9398L26.9907 50.8929C26.9371 50.8416 26.8835 50.7903 26.8299 50.73C26.8083 50.7054 26.7867 50.6807 26.7655 50.6561L26.7286 50.6128C26.694 50.5719 26.6606 50.531 26.63 50.49C26.6102 50.4603 26.5929 50.4307 26.5755 50.401L26.5711 50.3936C26.5549 50.3657 26.5386 50.3379 26.52 50.31C26.5045 50.2729 26.489 50.2368 26.4735 50.2011L26.446 50.1374L26.4446 50.1337C26.4197 50.0766 26.3948 50.0195 26.37 49.96C26.3299 49.81 26.2899 49.67 26.25 49.52C26.1999 49.23 26.1699 48.94 26.14 48.65C26.12 48.24 26.12 47.84 26.14 47.43C26.1799 46.95 26.2399 46.47 26.3299 45.99C26.4599 45.38 26.6399 44.79 26.8399 44.2C27.2883 42.9877 27.8196 41.8099 28.3534 40.6264C28.4624 40.3846 28.5715 40.1426 28.68 39.9L28.78 39.7027Z"
    fill="rgba(191, 192, 191, 1)" />
  <path d="M19.28 58.14C19.27 58.14 19.26 58.15 19.26 58.16L19.28 58.14Z" fill="rgba(191, 192, 191, 1)" />
</svg>