<?xml version="1.0" encoding="UTF-8" standalone="yes"?>
<svg width="68" height="333" viewBox="-40 -40 148 413" fill="none" xmlns="http://www.w3.org/2000/svg">
  <path fill-rule="evenodd" clip-rule="evenodd"
    d="M55.3112 0.371231C55.083 0.465221 53.5523 2.33156 51.8873 4.50675C48.9871 8.32003 46.1539 11.744 43.2805 14.8456C38.0708 20.5118 34.5126 24.5533 30.377 29.5079C27.7722 32.6364 23.6366 37.497 21.1526 40.263C9.7798 53.0724 3.68387 60.9273 0.944733 66.3115C-0.26371 68.7552 -0.129438 70.8096 1.42811 72.9982C2.82453 74.9183 7.43004 78.7316 8.36994 78.7316C9.189 78.7316 11.5253 76.7041 11.5253 76.0596C11.5253 75.8045 11.2971 75.2808 11.0017 74.8914C10.5451 74.2067 10.572 74.0052 12.143 71.4675C14.1705 68.0839 17.3259 63.6395 20.5484 59.5711C23.932 55.2745 31.4646 46.4395 31.5989 46.5603C31.6661 46.5872 30.4576 49.7157 28.9269 53.4753C20.3604 74.6229 16.1443 87.5666 12.3712 104.552C9.01445 119.778 6.93324 133.85 5.4294 151.909C4.71776 160.61 4.58349 193.009 5.26828 201.777C7.4569 230.498 11.6864 255.821 18.5343 281.145C21.8239 293.202 23.8514 299.459 28.3093 311.463C32.324 322.151 34.2441 325.776 37.8291 329.321C39.5209 330.946 42.5555 332.973 43.3745 332.973C43.5759 332.973 42.7569 330.892 41.5216 328.314C25.1942 294.29 14.6001 249.269 11.1494 199.333C10.5989 191.223 10.5989 158.717 11.1494 151.251C13.3917 121.295 17.1782 101.088 24.8719 78.0736C27.5439 70.1248 32.5657 56.926 34.808 51.9983C35.3317 50.857 35.3317 50.8838 35.1303 53.3947C34.902 55.9056 34.9288 55.9324 36.1104 57.6914C37.7083 60.1082 43.0254 65.3448 44.8784 66.325C46.1137 66.9829 46.4493 67.0366 46.8656 66.6875C47.161 66.4324 47.3892 65.8684 47.3892 65.385C47.3892 63.7872 49.0542 53.1262 49.8598 49.38C51.5248 41.8877 54.6802 33.5361 58.3995 26.7286C60.427 23.0495 61.7831 20.8878 65.0191 16.3897C66.4155 14.4294 67.5971 12.4824 67.5971 12.1199C67.5971 10.7504 65.5427 7.82324 62.6425 4.9767C58.574 1.00229 56.6808 -0.206159 55.3112 0.344351V0.371231Z"
    fill="rgba(191, 192, 191, 1)" />
</svg>