<?xml version="1.0" encoding="UTF-8" standalone="yes"?>
<svg width="78" height="76" viewBox="-40 -40 158 156" fill="none" xmlns="http://www.w3.org/2000/svg">
  <path d="M22.0158 68.1026L21.98 68.07C22.0401 68.12 22.1001 68.17 22.15 68.22L22.0158 68.1026Z"
    fill="rgba(191, 192, 191, 1)" />
  <path fill-rule="evenodd" clip-rule="evenodd"
    d="M62.7123 18.1936L62.75 18.22C63.0665 18.4408 63.3721 18.6833 63.6748 18.9235L63.8501 19.0623C63.9002 19.1018 63.9501 19.141 64 19.18C64.49 19.56 64.99 19.93 65.49 20.29C67.08 21.34 68.6701 22.39 70.37 23.26C70.4879 23.3155 70.6066 23.3707 70.7255 23.4259L70.7295 23.4278C71.6373 23.8494 72.5595 24.2777 73.3101 24.94C73.9 25.46 74.4601 26.07 74.77 26.8C75.1901 27.8 75.03 28.87 74.58 29.83C74.09 30.89 73.28 31.78 72.49 32.63C72.0989 33.0531 71.695 33.4634 71.2936 33.8712C71.1922 33.9742 71.0908 34.0771 70.99 34.18C70.6558 34.5237 70.3215 34.8697 69.9872 35.2159L69.9854 35.2178L69.9465 35.2582L69.9341 35.2712C69.5861 35.6316 69.2381 35.9921 68.89 36.35C67.8466 37.4375 66.8478 38.5633 65.8496 39.6886L65.8456 39.6931C64.3486 41.3808 62.853 43.0669 61.21 44.62C60.44 45.35 59.66 46.05 58.84 46.73C58.06 47.39 57.27 48.02 56.46 48.64C55.8374 49.1224 55.2114 49.5997 54.5835 50.0753C54.1559 50.3993 53.7273 50.7225 53.2982 51.0461C52.8292 51.3998 52.3596 51.754 51.89 52.11C50.4 53.25 48.9199 54.39 47.45 55.56C46.0648 56.6608 44.7218 57.8205 43.3822 58.9773L43.02 59.29C43.01 59.3 43 59.3075 42.99 59.3149L42.9867 59.3174C42.9778 59.3241 42.9689 59.3311 42.96 59.34C41.63 60.51 40.3201 61.7 39.03 62.91C38.3301 63.56 37.65 64.21 36.98 64.89C36.9263 64.9445 36.8728 64.999 36.8194 65.0537C36.7496 65.1251 36.6801 65.1966 36.6107 65.2682C36.5026 65.3799 36.3948 65.4919 36.2871 65.604L35.9716 65.9334C35.6361 66.2839 35.3006 66.6345 34.96 66.98C34.485 67.4628 33.992 67.9212 33.4995 68.3791C33.3595 68.5093 33.2195 68.6394 33.08 68.77C32.35 69.46 31.64 70.16 30.94 70.88L30.5667 71.2658L30.5652 71.2674L30.5645 71.2682C29.4506 72.4198 28.3368 73.5713 27.15 74.65C27.0991 74.6962 27.0482 74.7431 26.9971 74.7902L26.9949 74.7923C26.7252 75.0407 26.4486 75.2956 26.13 75.48C25.77 75.69 25.38 75.79 24.99 75.79C24.5701 75.78 24.12 75.65 23.72 75.4C23.19 75.08 22.83 74.56 22.48 74.06C22.02 73.4 21.5501 72.74 21.02 72.13C20.5801 71.65 20.13 71.21 19.65 70.77L19.6519 70.7715C19.5379 70.6708 19.4243 70.5707 19.3109 70.4711L19.042 70.2354C18.8892 70.1019 18.7361 69.9689 18.5818 69.836C17.7494 69.0919 16.963 68.3262 16.24 67.47C15.7818 66.9314 15.3816 66.3474 14.9826 65.7651C14.8853 65.6231 14.788 65.4812 14.69 65.34C14.5554 65.143 14.4186 64.9478 14.2797 64.7541L14.2168 64.6669L14.1496 64.5738C14.0683 64.462 13.9862 64.3507 13.9037 64.2399C13.5838 64.5537 13.1476 64.75 12.6701 64.75C12.5601 64.75 12.46 64.74 12.36 64.72C12.3468 64.7299 12.3336 64.7399 12.3207 64.7501C12.2995 64.7666 12.2785 64.7834 12.2577 64.8004L12.2257 64.827L12.1742 64.8704L12.172 64.8722L12.1214 64.9155C12.0849 64.9468 12.048 64.9784 12.01 65.01C11.086 65.8423 10.2051 66.7219 9.32484 67.6008L9.32265 67.6026L9.32082 67.6045C8.85915 68.0655 8.3976 68.5263 7.93007 68.98C7.28004 69.61 6.55995 70.19 5.84999 70.75C5.62489 70.9301 5.39223 71.1002 5.15956 71.2704L5.157 71.2723C4.92555 71.4415 4.69398 71.6108 4.46999 71.79L4.26002 72C4.06007 72.23 3.86012 72.47 3.67006 72.71C3.31007 73.15 2.78004 73.39 2.24 73.39C1.89003 73.4 1.51002 73.28 1.18996 73.04C0.439956 72.46 0.260024 71.31 0.870009 70.56C1.21999 70.13 1.56996 69.68 1.96999 69.31C2.18336 69.1118 2.40858 68.9427 2.63637 68.7717L2.63783 68.7705C2.70839 68.7175 2.77919 68.6643 2.84999 68.61C3.58998 68.07 4.30006 67.48 4.99 66.88C5.63283 66.2849 6.25038 65.6673 6.86793 65.0496C7.41273 64.5046 7.95766 63.9596 8.52003 63.43C8.93007 63.04 9.3401 62.65 9.77003 62.28C10.2145 61.8927 10.7396 61.4369 11.3172 61.1557C10.7948 60.563 10.2737 59.9737 9.68996 59.44C9.30263 59.1159 8.89589 58.8183 8.48976 58.5212C7.93117 58.1126 7.37379 57.7048 6.87001 57.23C6.25258 56.6549 5.73524 55.9653 5.22743 55.2883C5.13478 55.1649 5.04249 55.0419 4.94997 54.92C4.11 53.8101 3.25001 52.7 2.37001 51.62C1.76002 50.87 1.93996 49.71 2.68996 49.14C2.79994 49.05 2.92006 48.98 3.03004 48.93C3.07008 48.2 3.56996 47.57 4.22999 47.34C4.73231 46.9536 5.20485 46.5373 5.67982 46.1189C5.79176 46.0202 5.90382 45.9215 6.01649 45.823C7.46693 44.5283 8.89821 43.2238 10.32 41.9C11.495 40.8021 12.626 39.6601 13.7569 38.5182C13.9445 38.3287 14.1321 38.1393 14.32 37.95C15.9662 36.2854 17.6576 34.6661 19.3502 33.0456L19.3513 33.0447L19.3557 33.0405C20.417 32.0246 21.4788 31.0083 22.53 29.98C23.7814 28.7614 25.0175 27.5276 26.2536 26.2937C27.6648 24.8849 29.0761 23.4761 30.51 22.09C31.9544 20.6923 33.4335 19.3374 34.9129 17.9824C36.2912 16.72 37.6696 15.4575 39.02 14.16C40.2201 13.01 41.4301 11.88 42.66 10.77C43.1843 10.3003 43.6998 9.81643 44.2153 9.33251C44.929 8.66271 45.6427 7.99282 46.38 7.36001C46.8301 6.97 47.3101 6.57003 47.9201 6.48004C48.8301 6.36004 49.5501 6.90002 50.16 7.50002C50.3462 7.68307 50.5325 7.86514 50.7183 8.04684L50.7553 8.08291C51.146 8.46478 51.5353 8.84521 51.9201 9.23004C52.346 9.65588 52.755 10.0984 53.1641 10.541L53.1696 10.5471C53.3062 10.695 53.4428 10.8428 53.58 10.99C54.13 11.58 54.7001 12.14 55.28 12.7C56.7001 13.95 58.1801 15.1201 59.73 16.2L59.7318 16.2013L59.7384 16.2056L59.8604 16.0732L59.8651 16.0679L60.0175 15.9025C60.0519 15.865 60.0861 15.8275 60.12 15.79C60.2132 15.6876 60.3063 15.5854 60.3994 15.4836C60.5679 15.2995 60.7363 15.1163 60.9048 14.9336C61.1432 14.675 61.3816 14.4175 61.62 14.16C62.77 12.91 63.9299 11.66 65.11 10.42C65.3175 10.2009 65.525 9.98138 65.7327 9.76171C66.5957 8.84863 67.4614 7.93282 68.34 7.03002C68.5192 6.84814 68.7006 6.66769 68.8832 6.48809C69.125 6.25021 69.3689 6.01382 69.6127 5.77758L69.6215 5.76888L69.6277 5.76266L69.6339 5.75652C69.887 5.51138 70.1399 5.26635 70.39 5.02001C69.9301 4.96002 69.47 4.91003 69.01 4.88003C68.3595 4.84176 67.7067 4.82864 67.0537 4.81552C66.3417 4.80123 65.6295 4.78695 64.9201 4.74001C63.53 4.65002 62.13 4.53002 60.78 4.20004C59.8401 3.98004 59.3001 2.93002 59.5401 2.02001C59.8001 1.07 60.78 0.560022 61.72 0.790033C61.76 0.800012 61.7899 0.810022 61.83 0.810022C62.6499 0.950006 63.4701 1.06002 64.2901 1.15002C65.2201 1.20001 66.1399 1.24001 67.07 1.26003C68.59 1.30001 70.11 1.35 71.61 1.62002C72.21 1.73 72.7901 1.88 73.37 2.05001C73.81 2.17999 74.24 2.38003 74.58 2.69003C74.709 2.80697 74.83 2.94021 74.9303 3.08578C75.2966 3.36205 75.5596 3.77682 75.63 4.26C75.7376 4.98953 75.8804 5.71905 76.0224 6.44409L76.0235 6.44894C76.0448 6.55764 76.0661 6.66625 76.0871 6.77474L76.1456 7.07729C76.1443 7.07488 76.1425 7.07241 76.14 7.07C76.14 7.08001 76.14 7.08999 76.15 7.1C76.16 7.14001 76.1701 7.19 76.1801 7.23C76.2901 7.79 76.41 8.36001 76.52 8.92001C76.6325 9.4638 76.763 10.0056 76.8934 10.5471L76.8949 10.5533L76.896 10.5576C77.0551 11.2176 77.214 11.8773 77.34 12.54C77.46 13.21 77.57 13.88 77.65 14.55C77.6817 14.8003 77.7073 15.0495 77.7328 15.2982L77.7332 15.3028C77.7797 15.7579 77.8262 16.2119 77.91 16.67C78.08 17.62 77.32 18.54 76.39 18.66L76.3639 18.6629L76.3161 18.6682C76.296 18.6704 76.2764 18.6724 76.257 18.6741C76.2354 18.6761 76.214 18.6776 76.1929 18.6786C76.1752 18.6795 76.1576 18.68 76.14 18.68C75.25 18.69 74.5401 18.03 74.39 17.16C74.3063 16.7091 74.2599 16.2541 74.2134 15.7976L74.213 15.7942C74.1875 15.5431 74.1619 15.2916 74.13 15.04C74.0405 14.3635 73.9312 13.7068 73.8218 13.0503L73.82 13.04C73.7483 12.7284 73.6751 12.4169 73.6018 12.1051L73.6007 12.1011C73.4113 11.2942 73.2216 10.486 73.0567 9.67272L73.0601 9.67999C73.0303 9.53729 73.0009 9.39416 72.9717 9.25076C72.9325 9.05758 72.8938 8.86392 72.8551 8.67025C72.7924 8.35632 72.7295 8.04241 72.6647 7.73049C71.3266 9.02706 70.0336 10.3689 68.75 11.72L68.1283 12.3751C67.056 13.5047 65.9861 14.6318 64.9301 15.78L64.8825 15.8313L64.8121 15.9074C64.5311 16.211 64.2495 16.5154 63.9683 16.8206C63.5481 17.2765 63.1284 17.7341 62.7123 18.1936ZM25.0216 71.5192L25.0227 71.521L25.14 71.69C26.2101 70.69 27.23 69.64 28.25 68.58C29.1724 67.6155 30.1392 66.7006 31.1054 65.7863C31.5115 65.402 31.9175 65.0178 32.32 64.63C32.8082 64.1643 33.2739 63.6704 33.7382 63.1779C33.892 63.0147 34.0457 62.8518 34.2 62.69C34.82 62.04 35.47 61.4 36.13 60.79C37.51 59.5 38.9 58.22 40.32 56.97C43.07 54.54 45.9099 52.25 48.82 50.02C50.39 48.81 51.9701 47.62 53.5501 46.43C54.9701 45.36 56.34 44.23 57.7 43.09L58.3637 42.4621C58.6996 42.1443 59.0361 41.8258 59.38 41.5C59.7943 41.1164 60.1792 40.7034 60.5663 40.288L60.5813 40.2719L60.5908 40.2617L60.6 40.2519C60.7062 40.1379 60.8125 40.0237 60.9201 39.91C61.7512 39.0532 62.5382 38.1524 63.3252 37.2516L63.3259 37.2507L63.3274 37.249C63.4581 37.0992 63.589 36.9495 63.72 36.8L63.761 36.7536L63.7636 36.7507L63.765 36.7488C64.6798 35.7162 65.5858 34.6936 66.5401 33.7C67.0093 33.2088 67.4866 32.7243 67.9641 32.2396L67.9674 32.2363C68.7913 31.3999 69.6156 30.563 70.4 29.69C70.6801 29.35 70.95 29.02 71.21 28.66C71.2526 28.5931 71.2915 28.5261 71.329 28.4569L71.354 28.4099C71.3694 28.3805 71.3848 28.3506 71.4 28.32C71.4201 28.26 71.45 28.2 71.47 28.14C71.47 28.13 71.47 28.12 71.48 28.11C71.4553 28.0791 71.4268 28.0444 71.3969 28.0082L71.34 27.94C71.24 27.83 71.14 27.73 71.03 27.62C70.9902 27.5852 70.9479 27.5528 70.9055 27.5204C70.8632 27.488 70.82 27.455 70.78 27.42L70.7023 27.3731L70.6067 27.3164C70.5713 27.2956 70.5358 27.2749 70.5003 27.2544C70.4589 27.2305 70.4174 27.2069 70.3756 27.1833L70.3423 27.1646L70.2688 27.1236L70.2149 27.0937L70.129 27.0467L70.08 27.02L69.7398 26.856C68.9417 26.4717 68.1417 26.0865 67.38 25.64C66.619 25.2027 65.881 24.7271 65.146 24.2534L64.83 24.05C63.99 23.51 63.14 22.96 62.35 22.34C61.51 21.69 60.6701 21.05 59.8101 20.43L59.6924 20.3533L59.5327 20.2495L59.2092 20.0398C58.2258 19.4028 57.2404 18.7643 56.3101 18.05C55.2101 17.23 54.16 16.35 53.12 15.45C52.2366 14.6715 51.4297 13.8089 50.6256 12.9491L50.6249 12.9482L50.6231 12.9463L50.526 12.8428L50.28 12.58C49.6001 11.85 48.8999 11.13 48.19 10.44C47.6874 10.9054 47.185 11.3793 46.6902 11.8458L46.6803 11.8553L46.58 11.95C46.1067 12.39 45.6244 12.8212 45.1422 13.2523L45.0112 13.3693L44.7284 13.6226L44.4201 13.9C43.2623 14.9395 42.1474 16.0146 41.033 17.0893C40.8288 17.2863 40.6245 17.4833 40.4201 17.68C39.1945 18.8449 37.9463 19.9794 36.6951 21.1167L36.6896 21.1213L36.6834 21.1269L36.13 21.63C34.6901 22.94 33.3001 24.2801 31.9201 25.64C31.2495 26.3031 30.579 26.9668 29.9083 27.6307C27.8784 29.6399 25.8471 31.6506 23.8101 33.65C23.0291 34.4195 22.2378 35.1753 21.4462 35.9314C20.8798 36.4724 20.3131 37.0136 19.75 37.56C18.39 38.87 17.0601 40.2 15.73 41.54C14.27 43 12.78 44.45 11.25 45.84C10.38 46.63 9.51002 47.41 8.64003 48.19C8.50429 48.3122 8.36732 48.4333 8.22963 48.5539L8.08949 48.6765L7.86037 48.876L7.84608 48.8884C7.70436 49.0116 7.56227 49.1352 7.42006 49.26C7.34083 49.3289 7.26161 49.3989 7.18202 49.4693C6.79957 49.8077 6.40883 50.1534 5.96999 50.41C6.2964 50.8297 6.61842 51.2527 6.94044 51.6757C7.5851 52.5227 8.22975 53.3697 8.91005 54.19C9.10011 54.4 9.29005 54.6 9.50001 54.8C9.97999 55.21 10.5 55.56 11.02 55.93C11.8301 56.52 12.5701 57.19 13.24 57.94C13.88 58.67 14.53 59.4 15.1801 60.14C15.7901 60.84 16.38 61.55 16.9201 62.3C17.137 62.6038 17.3499 62.9125 17.5631 63.222L17.5668 63.2276L17.5683 63.2298C18.0903 63.9874 18.6151 64.7488 19.21 65.45C19.7764 66.076 20.3919 66.6525 21.0275 67.2287C21.0202 67.2226 21.0131 67.2176 21.0068 67.2132C21.0028 67.2104 20.999 67.2077 20.9959 67.2052C21.1436 67.3339 21.2898 67.4627 21.4358 67.5915C21.6289 67.7618 21.8214 67.9322 22.0158 68.1026C22.892 68.9033 23.7 69.7627 24.4301 70.7C24.6371 70.965 24.8306 71.2438 25.0216 71.5192Z"
    fill="rgba(191, 192, 191, 1)" />
  <path d="M73.0501 9.64001C73.0501 9.64874 73.0501 9.6574 73.0567 9.67272L73.0501 9.64001Z"
    fill="rgba(191, 192, 191, 1)" />
</svg>