<?xml version="1.0" encoding="UTF-8" standalone="yes"?>
<svg width="77" height="73" viewBox="-40 -40 157 153" fill="none" xmlns="http://www.w3.org/2000/svg">
  <path
    d="M72.83 40.28C72.57 39.28 72.35 38.28 72.18 37.26C72.0867 36.6601 72.0023 36.0603 71.9178 35.4605C71.8756 35.1603 71.8333 34.8601 71.79 34.56C71.6809 33.7835 71.5665 33.0072 71.452 32.2301L71.4507 32.2215C71.2928 31.1497 71.1347 30.0765 70.99 29C70.72 26.99 70.49 24.98 70.3 22.96C70.2615 22.5713 70.2352 22.179 70.2148 21.7856C70.0792 21.9798 69.9443 22.1746 69.81 22.37V22.36C69.6416 22.6117 69.4738 22.8637 69.306 23.1157C68.4473 24.4049 67.5902 25.6919 66.67 26.93C65.51 28.5 64.38 30.0899 63.27 31.69L63.198 31.7936L63.1224 31.903L63.1156 31.9127C63.0789 31.966 63.0422 32.0192 63.0053 32.0722C62.8654 32.2737 62.7233 32.4737 62.57 32.67C62.4581 32.8168 62.3499 32.9673 62.2415 33.1181L62.2398 33.1203C62.0387 33.4 61.837 33.6805 61.61 33.94C60.91 34.76 60.2 35.5599 59.47 36.35C58.61 37.29 57.74 38.23 56.81 39.1C55.84 39.9999 54.77 40.81 53.65 41.52C53.0804 41.8886 52.5107 42.2431 51.9351 42.6014L51.9303 42.6043L51.6 42.81C51.0599 43.1499 50.51 43.49 49.94 43.78C49.26 44.13 48.58 44.49 47.88 44.8C47.16 45.11 46.43 45.3999 45.69 45.68C45.4868 45.7579 45.2836 45.8363 45.0803 45.9148C43.4326 46.5511 41.7769 47.1905 40.05 47.6C38.992 47.8525 37.9108 48.0026 36.8348 48.1519C36.3344 48.2214 35.8352 48.2906 35.34 48.37C34.12 48.63 32.92 48.91 31.74 49.31C31.07 49.56 30.4 49.8299 29.76 50.13C29.01 50.51 28.28 50.94 27.57 51.4C26.62 52.04 25.71 52.74 24.84 53.5C24.13 54.1399 23.45 54.81 22.82 55.52C22.33 56.09 21.87 56.6799 21.43 57.29C20.86 58.1399 20.3 58.99 19.78 59.87C19.54 60.2799 19.28 60.69 19.06 61.12C18.93 61.37 18.8025 61.62 18.675 61.87C18.5475 62.12 18.42 62.37 18.29 62.62C18.2447 62.7256 18.199 62.8311 18.1532 62.9365C18.1157 63.0227 18.0781 63.1089 18.0405 63.195C17.8964 63.5251 17.7523 63.8552 17.6146 64.1885C17.556 64.3301 17.4987 64.4724 17.4429 64.6155C17.4009 64.7232 17.3599 64.8313 17.32 64.94C16.99 65.8 16.69 66.6499 16.39 67.51C16.3264 67.7082 16.2656 67.9065 16.2076 68.1053C16.1106 68.4378 16.0214 68.7719 15.94 69.11C15.87 69.49 15.82 69.86 15.78 70.24C15.78 70.36 15.77 70.47 15.77 70.59C15.75 71.55 14.98 72.36 14 72.36C13.04 72.3399 12.2 71.5299 12.22 70.57C12.2499 68.86 12.72 67.25 13.28 65.65C13.3337 65.496 13.387 65.3411 13.4406 65.1857L13.4417 65.1822L13.444 65.1755C13.6987 64.4361 13.9572 63.6861 14.27 62.9699C14.68 62.0199 15.09 61.0899 15.56 60.18C15.76 59.79 15.94 59.39 16.15 59.02C16.2434 58.8625 16.3358 58.7058 16.4279 58.5497L16.434 58.5395C16.6556 58.164 16.8753 57.792 17.1 57.42C17.61 56.5599 18.18 55.7199 18.77 54.91C20.27 52.86 22.09 51.09 24.09 49.53C26.1 47.97 28.35 46.72 30.75 45.9C31.97 45.48 33.22 45.1899 34.48 44.92C35.4038 44.7272 36.3409 44.5963 37.2766 44.4656C37.7487 44.3997 38.2205 44.3338 38.69 44.26C39.62 44.06 40.53 43.8 41.44 43.48L42.203 43.1946C43.788 42.6026 45.3688 42.0121 46.92 41.34C47.1055 41.245 47.291 41.152 47.4764 41.0592L47.5444 41.0252C47.7462 40.9243 47.9481 40.8233 48.15 40.7199C48.2813 40.6529 48.4117 40.5812 48.5414 40.5071C48.8762 40.3155 49.2057 40.1073 49.53 39.92C50.2432 39.5039 50.9492 39.0519 51.6541 38.6005L52.03 38.36C52.73 37.86 53.42 37.36 54.08 36.8C55.2214 35.7787 56.2523 34.6471 57.2802 33.5187L57.286 33.5121C57.4539 33.3278 57.6218 33.1436 57.79 32.96C58.11 32.58 58.44 32.21 58.77 31.83C59.0061 31.5611 59.2207 31.2664 59.4335 30.974C59.5452 30.8207 59.6564 30.6679 59.77 30.52C60.2191 29.9309 60.6357 29.3148 61.0518 28.6995C61.2008 28.4791 61.3497 28.2588 61.5 28.04C62.13 27.1363 62.7812 26.2461 63.4318 25.3567C64.0411 24.5237 64.6499 23.6915 65.24 22.85C66.59 20.8399 67.94 18.8399 69.38 16.89C69.5808 16.6152 69.8548 16.4224 70.1583 16.3131C70.2246 13.7307 70.5589 11.1678 71.11 8.65C71.36 7.48997 71.72 6.34 72.09 5.21C72.2 4.88999 72.3 4.56998 72.41 4.24998C71.91 4.38999 71.41 4.54996 70.92 4.71C69.5458 5.21116 68.1979 5.7515 66.8443 6.2941C66.5233 6.42277 66.202 6.55155 65.88 6.67997C65.6793 6.75974 65.4793 6.84013 65.2795 6.92039L65.2782 6.92094C64.6521 7.1724 64.0289 7.42271 63.4 7.65C63.1366 7.74631 62.8748 7.84501 62.6132 7.94364C62.2147 8.09385 61.8167 8.24387 61.4144 8.38486C61.9996 9.01157 62.0154 9.95841 61.52 10.67C60.96 11.4699 60.4 12.28 59.85 13.09C59.8601 13.0749 59.8701 13.0624 59.8801 13.0498L59.8928 13.0338L59.8959 13.0298C59.8868 13.0432 59.8784 13.0566 59.8701 13.0699C59.8576 13.0899 59.845 13.11 59.83 13.13C59.83 13.13 59.8266 13.1334 59.8237 13.1382C59.8217 13.1417 59.82 13.1459 59.82 13.15V13.14C59.3829 13.8042 58.9495 14.4721 58.5159 15.1405L58.4983 15.1674C57.9258 16.0498 57.3527 16.9331 56.77 17.81C56.54 18.1499 56.32 18.49 56.08 18.82C55.9767 18.9633 55.8756 19.1089 55.7745 19.2544C55.6823 19.3872 55.59 19.5199 55.4961 19.651C55.3841 19.8073 55.2697 19.9613 55.15 20.11C55.0929 20.1801 55.0358 20.25 54.9786 20.3197L54.9112 20.402C54.8158 20.5183 54.7204 20.6341 54.625 20.75C54.45 20.9625 54.275 21.175 54.1 21.39C54.0109 21.498 53.9188 21.6031 53.8251 21.7065C53.7413 21.7988 53.6561 21.8898 53.5704 21.9803C53.5153 22.0384 53.46 22.0963 53.4046 22.1543L53.2821 22.2827C53.2042 22.3646 53.1266 22.4468 53.05 22.53C52.43 23.19 51.76 23.81 51.07 24.4C50.985 24.4722 50.9 24.5447 50.8149 24.6173L50.8136 24.6184C50.1683 25.1684 49.5175 25.7232 48.82 26.2C47.94 26.8 47.07 27.38 46.17 27.93C45.46 28.36 44.72 28.7699 43.98 29.1599C43.471 29.4203 42.962 29.6772 42.4492 29.9288C42.0753 30.1122 41.6995 30.2929 41.32 30.4699C40.51 30.85 39.68 31.2199 38.82 31.49L38.4965 31.5968L38.4928 31.5981C37.7816 31.8333 37.0684 32.0692 36.34 32.26C35.38 32.52 34.4201 32.7599 33.45 32.99C32.2561 33.2749 31.0577 33.5414 29.8577 33.8082C29.2887 33.9347 28.7194 34.0613 28.15 34.19C27.3001 34.38 26.45 34.6 25.61 34.83C24.77 35.06 23.96 35.3299 23.14 35.6L23.1301 35.604C22.5734 35.8326 22.0167 36.0613 21.47 36.29C21.0845 36.4427 20.7097 36.6324 20.3377 36.8208L20.3317 36.8239C20.1942 36.8935 20.0571 36.9628 19.92 37.03C19.43 37.3 18.94 37.57 18.45 37.83C18.3294 37.8964 18.2101 37.9659 18.0915 38.0371C17.9047 38.1494 17.7199 38.2662 17.5353 38.3829L17.4281 38.4506L17.3539 38.4973C17.2869 38.5394 17.2197 38.5813 17.1525 38.6229C17.105 38.6522 17.0576 38.6813 17.01 38.71C16.35 39.17 15.69 39.63 15.06 40.13C14.38 40.67 13.73 41.2199 13.08 41.79C12.63 42.2199 12.1901 42.67 11.78 43.13C11.03 44.01 10.36 44.94 9.69001 45.88C9.24 46.55 8.79999 47.21 8.38001 47.9C7.88001 48.72 7.42005 49.54 6.96003 50.38C6.64002 51.02 6.33002 51.67 6.04999 52.33C5.75001 53.03 5.49 53.7199 5.21998 54.43C5.15497 54.645 5.08997 54.8625 5.02503 55.0799L4.94831 55.3363C4.90888 55.4681 4.86945 55.5995 4.83002 55.73C4.76337 55.9565 4.71454 56.192 4.66566 56.4275C4.65357 56.4857 4.64149 56.5439 4.62916 56.6019C4.61646 56.6615 4.60352 56.7209 4.59003 56.78C4.50007 57.36 4.43 57.93 4.38001 58.51V59.38C4.45002 59.56 4.47999 59.76 4.47999 59.96C4.47999 60.92 3.68006 61.73 2.71003 61.73C2.25001 61.7099 1.78004 61.52 1.45002 61.19C0.840033 60.5799 0.839972 59.67 0.849981 58.87C0.859991 57.88 0.959967 56.87 1.16999 55.9C1.38001 54.96 1.59998 54.0199 1.94001 53.11C2.28004 52.18 2.64997 51.2699 3.03998 50.36C3.39576 49.527 3.8343 48.7241 4.2707 47.9252L4.27198 47.923L4.27497 47.9175L4.42841 47.6364L4.46998 47.56C4.88001 46.81 5.32001 46.0799 5.78998 45.37C7.32996 43.05 8.90003 40.7599 11.01 38.91C12.49 37.6199 14.01 36.3899 15.69 35.36C17.37 34.3199 19.12 33.4 20.96 32.65C23.8859 31.4537 26.9947 30.7737 30.0858 30.0974L30.0916 30.0962L30.0967 30.0951L30.0978 30.0949C30.8272 29.9353 31.5554 29.7759 32.28 29.61C33.1701 29.4099 34.05 29.2 34.93 28.96C35.89 28.7 36.82 28.4099 37.76 28.1C38.31 27.8799 38.85 27.6599 39.4 27.44C39.7805 27.2849 40.1511 27.105 40.5222 26.9247L40.524 26.924C40.6787 26.8489 40.8344 26.7734 40.99 26.7L41.1074 26.6397L41.3718 26.5042C41.9442 26.2113 42.5155 25.919 43.08 25.6C43.88 25.1499 44.66 24.69 45.44 24.21C46.06 23.79 46.6901 23.36 47.28 22.9C47.9186 22.4111 48.5274 21.8922 49.136 21.3734L49.14 21.37L49.2719 21.245L49.5719 20.9594C49.6841 20.8528 49.7964 20.7466 49.9097 20.6411C49.9548 20.599 50.0002 20.557 50.0458 20.5152C50.1133 20.4532 50.1813 20.3914 50.25 20.33C50.61 19.98 50.95 19.5899 51.29 19.2199C51.3818 19.1072 51.4743 18.9936 51.5673 18.8798C51.6859 18.7347 51.8053 18.5891 51.9251 18.4437C52.0696 18.2683 52.2149 18.0934 52.36 17.92C52.6082 17.6208 52.8322 17.2973 53.0551 16.9753L53.0563 16.9734C53.1832 16.7902 53.3096 16.6075 53.44 16.43C54.0267 15.5499 54.6068 14.6654 55.1868 13.7809L55.1923 13.7724C56.1463 12.3177 57.1003 10.863 58.0841 9.42808C58.0094 9.44901 57.9347 9.46964 57.86 9.48997C57.4376 9.60471 57.0153 9.71738 56.592 9.82987C56.0932 9.96238 55.5931 10.0947 55.09 10.23C54.7226 10.3287 54.3547 10.4259 53.9869 10.5231C52.4931 10.9179 51.0004 11.3125 49.54 11.81C48.77 12.07 48.01 12.33 47.24 12.58C46.32 12.9 45.4 13.23 44.48 13.56C43.26 13.99 42.02 14.38 40.76 14.68C39.86 14.8999 38.94 15.04 38.01 15.04C37.05 15.04 36.24 14.24 36.24 13.27C36.24 12.3 37.04 11.5 38.01 11.5C38.1321 11.5 38.2388 11.4948 38.3485 11.4883L38.4345 11.4829L38.48 11.48C38.84 11.4399 39.19 11.39 39.55 11.32C40.76 11.05 41.93 10.68 43.1 10.29L43.09 10.3C43.1 10.295 43.1076 10.2925 43.115 10.29L43.1235 10.2871C43.1285 10.2853 43.1337 10.2831 43.14 10.28C43.1428 10.28 43.1448 10.2792 43.1466 10.2781C43.1478 10.2772 43.1489 10.2761 43.15 10.275C43.1525 10.2725 43.155 10.27 43.16 10.27C43.18 10.26 43.19 10.26 43.21 10.25C43.5447 10.1325 43.8795 10.0145 44.2142 9.89646C45.2194 9.54203 46.2247 9.18754 47.23 8.84995C48.68 8.35996 50.14 7.91996 51.62 7.47996C52.476 7.22971 53.3451 7.00553 54.2129 6.78165C54.4423 6.72245 54.6715 6.66331 54.9005 6.60367C55.1207 6.5463 55.3406 6.48856 55.56 6.42997C56.97 6.04996 58.36 5.62998 59.76 5.19999C61.36 4.61997 62.95 4.04001 64.53 3.4C66.26 2.69999 67.99 2.00999 69.74 1.36997C70.65 1.03995 71.57 0.759986 72.51 0.530005C72.6034 0.506446 72.6992 0.48136 72.7968 0.455787L72.799 0.455237C73.819 0.187842 75.0383 -0.131738 75.85 0.679969C76.9836 1.81357 76.4066 3.48179 75.9387 4.83433C75.8906 4.97318 75.8438 5.10868 75.8 5.23997C75.26 6.85996 74.76 8.48997 74.4 10.1599C74.06 11.85 73.85 13.56 73.73 15.28C73.6766 16.1666 73.6678 17.0576 73.6589 17.9502C73.6545 18.3965 73.65 18.8432 73.64 19.29C73.6336 19.6022 73.6556 19.9186 73.6776 20.2338L73.6778 20.2353C73.6903 20.4142 73.7028 20.5927 73.71 20.77C73.74 21.37 73.77 21.9699 73.8 22.56C74.03 24.98 74.31 27.3899 74.66 29.79C74.7799 30.6162 74.8955 31.4425 75.011 32.2688L75.0112 32.2699C75.2423 33.9233 75.4733 35.5766 75.74 37.23C75.8293 37.6526 75.9186 38.0718 76.0142 38.4895C76.0792 38.7735 76.1472 39.0567 76.22 39.34C76.46 40.27 75.92 41.26 74.98 41.52C74.83 41.56 74.6801 41.58 74.53 41.58C73.77 41.57 73.03 41.06 72.83 40.28Z"
    fill="rgba(191, 192, 191, 1)" />
</svg>