<?xml version="1.0" encoding="UTF-8" standalone="yes"?>
<svg width="83" height="79" viewBox="-40 -40 163 159" fill="none" xmlns="http://www.w3.org/2000/svg">
  <path
    d="M0.77002 67.89C0.77002 66.93 1.57004 66.12 2.54004 66.12C3.51004 66.12 4.31003 66.92 4.31003 67.89C4.31003 68.86 3.51004 69.66 2.54004 69.66C1.57004 69.66 0.77002 68.85 0.77002 67.89Z"
    fill="rgba(191, 192, 191, 1)" />
  <path
    d="M5.72004 72.67C5.26004 72.61 4.84004 72.36 4.56004 72C4.27004 71.63 4.18005 71.21 4.20005 70.77C4.20005 70.78 4.20005 70.79 4.20005 70.8C4.20005 70.79 4.20005 70.77 4.20005 70.76C4.20005 70.73 4.20003 70.71 4.21003 70.68C4.21003 70.67 4.21003 70.65 4.21003 70.64V70.63C4.21003 69.67 5.01005 68.86 5.98005 68.86C6.95005 68.86 7.75004 69.66 7.75004 70.63C7.75004 70.81 7.73003 70.99 7.71003 71.16C7.64003 72.05 6.78003 72.69 5.93003 72.69C5.86003 72.68 5.79004 72.68 5.72004 72.67Z"
    fill="rgba(191, 192, 191, 1)" />
  <path
    d="M5.68003 74.28C5.64003 74.17 5.60003 74.05 5.55003 73.94C5.16003 73.06 5.62003 71.99 6.49003 71.62C7.39003 71.24 8.42004 71.68 8.81004 72.56C8.86004 72.67 8.90004 72.79 8.94004 72.9C9.29004 73.8 8.90004 74.84 8.00004 75.22C7.79004 75.31 7.55005 75.36 7.32005 75.36C6.63005 75.36 5.94003 74.95 5.68003 74.28Z"
    fill="rgba(191, 192, 191, 1)" />
  <path
    d="M4.46999 73.91C3.76999 73.22 3.81 72.15 4.44 71.44C4.48 71.4 4.51 71.36 4.54 71.32C5 70.5 6.15999 70.28 6.92999 70.74C7.79999 71.25 8 72.3 7.57 73.16C7.43 73.43 7.17999 73.69 6.96999 73.91C6.64999 74.26 6.19998 74.43 5.73998 74.43C5.27998 74.43 4.79999 74.25 4.46999 73.91Z"
    fill="rgba(191, 192, 191, 1)" />
  <path
    d="M6.16 68.11C5.25 67.86 4.64001 66.85 4.92001 65.93C5.09001 65.37 5.21999 64.8 5.36999 64.24C5.60999 63.31 6.62998 62.75 7.54998 63.01C8.48998 63.27 9.03 64.25 8.79 65.19C8.64 65.75 8.50999 66.32 8.33999 66.88C8.10999 67.65 7.41 68.18 6.63 68.18C6.47 68.18 6.31 68.16 6.16 68.11Z"
    fill="rgba(191, 192, 191, 1)" />
  <path
    d="M8.51004 62.51C8.47004 62.42 8.43005 62.33 8.39005 62.24C8.41005 62.29 8.44002 62.33 8.46002 62.38C8.49002 62.42 8.52002 62.46 8.55002 62.5C8.03002 61.71 8.12002 60.66 8.90002 60.06C9.63002 59.49 10.83 59.59 11.38 60.38C11.54 60.62 11.67 60.87 11.78 61.13C12.17 62.01 11.72 63.08 10.84 63.45C10.62 63.54 10.39 63.59 10.17 63.59C9.47004 63.59 8.81004 63.18 8.51004 62.51Z"
    fill="rgba(191, 192, 191, 1)" />
  <path
    d="M8.20002 68.02C8.08002 67.72 8.01002 67.43 7.98002 67.11C7.89002 66.15 8.51001 65.25 9.50001 65.12C10.43 64.99 11.4 65.67 11.49 66.63C11.5 66.67 11.5 66.71 11.51 66.75C11.79 67.62 11.4 68.59 10.53 68.96C10.32 69.05 10.09 69.09 9.85999 69.09C9.14999 69.1 8.46002 68.7 8.20002 68.02Z"
    fill="rgba(191, 192, 191, 1)" />
  <path
    d="M11.21 68.01C11.21 67.05 12.01 66.24 12.98 66.24C13.95 66.24 14.75 67.04 14.75 68.01C14.75 68.98 13.95 69.78 12.98 69.78C12.01 69.78 11.21 68.98 11.21 68.01Z"
    fill="rgba(191, 192, 191, 1)" />
  <path
    d="M15.89 63.45C15.23 62.8 15.18 61.64 15.86 60.97C15.9 60.91 15.93 60.84 15.97 60.78C16.08 60.54 16.2 60.31 16.3 60.07C16.69 59.19 17.72 58.75 18.62 59.13C19.5 59.5 19.95 60.57 19.56 61.45C19.26 62.14 18.95 62.94 18.39 63.45C18.03 63.78 17.57 63.96 17.11 63.96C16.67 63.96 16.24 63.8 15.89 63.45Z"
    fill="rgba(191, 192, 191, 1)" />
  <path
    d="M15.47 57.27C15.47 56.31 16.27 55.5 17.24 55.5C18.21 55.5 19.01 56.3 19.01 57.27C19.01 58.24 18.21 59.04 17.24 59.04C16.27 59.04 15.47 58.24 15.47 57.27Z"
    fill="rgba(191, 192, 191, 1)" />
  <path
    d="M13.34 59.98C13.34 59.02 14.14 58.21 15.11 58.21C16.08 58.21 16.88 59.01 16.88 59.98C16.88 60.95 16.08 61.75 15.11 61.75C14.14 61.75 13.34 60.94 13.34 59.98Z"
    fill="rgba(191, 192, 191, 1)" />
  <path
    d="M13.1 64.8C12.98 64.55 12.9 64.28 12.86 64.01C12.75 63.05 13.41 62.15 14.38 62.01C15.28 61.89 16.18 62.51 16.36 63.4C16.36 63.4 16.36 63.41 16.37 63.42C16.79 64.29 16.29 65.38 15.43 65.74C15.2 65.84 14.98 65.88 14.75 65.88C14.06 65.88 13.42 65.46 13.1 64.8Z"
    fill="rgba(191, 192, 191, 1)" />
  <path
    d="M18.08 61.38C17.6 60.56 17.87 59.44 18.7 58.96C18.75 58.92 18.8 58.88 18.85 58.84C18.94 58.75 19.03 58.66 19.13 58.57C19.82 57.9 20.95 57.88 21.63 58.57C22.31 59.25 22.32 60.4 21.63 61.07C21.28 61.41 20.92 61.77 20.49 62.01C20.21 62.17 19.9 62.24 19.6 62.24C19 62.25 18.4 61.94 18.08 61.38Z"
    fill="rgba(191, 192, 191, 1)" />
  <path
    d="M21.75 56.56C20.8 56.3 20.29 55.32 20.51 54.38C20.51 54.36 20.52 54.34 20.53 54.33C20.57 54.13 20.6 53.93 20.64 53.73C20.8 52.78 21.65 52.08 22.63 52.21C23.56 52.34 24.31 53.26 24.15 54.21C24.08 54.58 24.02 54.96 23.94 55.32C23.75 56.11 22.99 56.62 22.21 56.62C22.05 56.63 21.9 56.61 21.75 56.56Z"
    fill="rgba(191, 192, 191, 1)" />
  <path
    d="M21.47 49.98C21.47 49.02 22.27 48.21 23.24 48.21C24.21 48.21 25.01 49.01 25.01 49.98C25.01 50.95 24.21 51.75 23.24 51.75C22.27 51.75 21.47 50.95 21.47 49.98Z"
    fill="rgba(191, 192, 191, 1)" />
  <path
    d="M25.2 51.81C24.97 51.78 24.73 51.7499 24.5 51.7199C24.54 51.7199 24.58 51.7199 24.62 51.7199C23.7 51.6199 22.94 50.93 22.94 49.96C22.94 49.04 23.74 48.14 24.71 48.19C25.04 48.21 25.36 48.26 25.68 48.29C26.64 48.4 27.32 49.35 27.2 50.29C27.08 51.19 26.29 51.81 25.41 51.81C25.34 51.82 25.27 51.81 25.2 51.81Z"
    fill="rgba(191, 192, 191, 1)" />
  <path
    d="M28.11 55.8C27.2 55.55 26.59 54.55 26.88 53.62C26.92 53.49 26.96 53.35 27 53.21C27 53.19 27 53.17 27.01 53.15C27.01 53.1 27.01 53.04 27.01 52.98C27 52.91 26.99 52.85 26.98 52.79C26.99 52.83 27 52.88 27.01 52.92C27.01 52.91 27.01 52.91 27.01 52.9C26.8 52.06 27.2 51.17 28.03 50.82C28.9 50.45 29.99 50.87 30.35 51.76C30.7 52.65 30.58 53.67 30.31 54.56C30.08 55.33 29.38 55.86 28.6 55.86C28.42 55.87 28.26 55.85 28.11 55.8Z"
    fill="rgba(191, 192, 191, 1)" />
  <path
    d="M24.66 57.91C23.96 57.21 24.01 56.12 24.66 55.41C24.67 55.4 24.6801 55.39 24.7001 55.37C24.7501 55.3 24.81 55.23 24.86 55.17C25.38 54.38 26.4201 54.08 27.2601 54.57C28.0801 55.05 28.4 56.17 27.9 56.99C27.69 57.33 27.45 57.62 27.18 57.91C26.86 58.26 26.41 58.43 25.96 58.43C25.47 58.42 25 58.24 24.66 57.91Z"
    fill="rgba(191, 192, 191, 1)" />
  <path
    d="M21.48 58.64C20.75 58.01 20.55 56.95 21.16 56.16C21.7 55.46 22.78 55.23 23.52 55.74C24.12 56.03 24.54 56.64 24.54 57.34C24.54 58.3 23.73 59.11 22.77 59.11C22.28 59.11 21.84 58.96 21.48 58.64Z"
    fill="rgba(191, 192, 191, 1)" />
  <path
    d="M29.08 49.63C28.71 49.35 28.47 48.93 28.41 48.47C28.29 47.56 28.96 46.54 29.92 46.47C29.97 46.47 30.02 46.46 30.07 46.45C30.1 46.44 30.12 46.43 30.15 46.43C30.22 46.4 30.3 46.3701 30.38 46.3401C30.56 46.2501 30.74 46.14 30.9 46.04C31.72 45.53 32.85 45.86 33.32 46.67C33.82 47.52 33.5 48.5801 32.69 49.0901C32 49.5201 31.23 49.92 30.4 49.98C30.33 49.98 30.27 49.98 30.2 49.98C29.8 49.98 29.42 49.88 29.08 49.63Z"
    fill="rgba(191, 192, 191, 1)" />
  <path
    d="M31.74 44.88C31.58 44.67 31.47 44.45 31.37 44.21C30.99 43.32 31.43 42.26 32.31 41.89C33.2 41.51 34.25 41.94 34.63 42.83C34.64 42.84 34.64 42.86 34.65 42.87C35.11 43.63 34.94 44.64 34.22 45.19C33.9 45.43 33.52 45.55 33.14 45.55C32.61 45.57 32.08 45.33 31.74 44.88Z"
    fill="rgba(191, 192, 191, 1)" />
  <path
    d="M28.03 44.08C28.03 43.12 28.83 42.31 29.8 42.31C30.77 42.31 31.57 43.11 31.57 44.08C31.57 45.05 30.77 45.85 29.8 45.85C28.83 45.85 28.03 45.05 28.03 44.08Z"
    fill="rgba(191, 192, 191, 1)" />
  <path
    d="M32.82 51.73C32 51.28 31.2 50.75 30.73 49.92C30.26 49.08 30.52 47.99 31.37 47.5C32.19 47.02 33.32 47.29 33.79 48.13C33.79 48.14 33.8 48.14 33.8 48.15C33.81 48.16 33.82 48.17 33.82 48.19L33.83 48.2C33.89 48.25 33.95 48.29 34.01 48.34C34.2 48.46 34.4 48.57 34.59 48.68C35.43 49.14 35.7 50.2899 35.23 51.0999C34.9 51.6699 34.31 51.96 33.71 51.96C33.41 51.96 33.1 51.88 32.82 51.73Z"
    fill="rgba(191, 192, 191, 1)" />
  <path
    d="M37.39 52.61C36.46 52.38 35.9 51.35 36.16 50.43C36.42 49.48 37.4 48.96 38.34 49.19C38.36 49.2 38.39 49.2 38.41 49.21C38.46 49.22 38.5 49.22 38.54 49.23C38.57 49.23 38.59 49.23 38.62 49.23C38.66 49.23 38.71 49.22 38.75 49.21C38.98 49.14 39.21 49.08 39.44 49C40.36 48.7 41.37 49.34 41.62 50.23C41.89 51.19 41.3 52.11 40.38 52.41C39.95 52.55 39.52 52.68 39.07 52.73C38.91 52.75 38.75 52.76 38.6 52.76C38.19 52.77 37.79 52.71 37.39 52.61Z"
    fill="rgba(191, 192, 191, 1)" />
  <path
    d="M41.73 47.69C40.98 47.11 40.8 45.96 41.41 45.21C41.41 45.21 41.42 45.2 41.42 45.19C41.51 45.03 41.6 44.86 41.69 44.69C42.13 43.83 43.31 43.59 44.11 44.05C44.97 44.56 45.19 45.62 44.74 46.47C44.58 46.78 44.42 47.09 44.2 47.36C43.84 47.8 43.31 48.04 42.78 48.04C42.42 48.05 42.05 47.93 41.73 47.69Z"
    fill="rgba(191, 192, 191, 1)" />
  <path
    d="M41.24 43.69C40.81 43.65 40.38 43.61 39.95 43.56C38.99 43.45 38.31 42.51 38.43 41.56C38.56 40.6 39.47 39.94 40.43 40.05C40.86 40.1 41.29 40.14 41.72 40.18C42.68 40.26 43.36 41.26 43.24 42.18C43.11 43.12 42.3 43.7 41.4 43.7C41.35 43.69 41.29 43.69 41.24 43.69Z"
    fill="rgba(191, 192, 191, 1)" />
  <path
    d="M34.09 44.32C34.1 43.95 34.18 43.61 34.3 43.26C34.61 42.35 35.51 41.76 36.48 42.02C37.37 42.27 38.03 43.28 37.72 44.2C37.68 44.32 37.64 44.43 37.61 44.56C37.47 45.42 36.77 46.1 35.86 46.1C34.92 46.09 34.06 45.28 34.09 44.32Z"
    fill="rgba(191, 192, 191, 1)" />
  <path
    d="M37.89 45.26C37.89 44.35 38.62 43.57 39.51 43.5C40.4 43.37 41.29 43.84 41.55 44.76C41.8 45.65 41.26 46.73 40.32 46.94C40.1 46.99 39.89 47.03 39.66 47.03C38.7 47.03 37.89 46.22 37.89 45.26Z"
    fill="rgba(191, 192, 191, 1)" />
  <path
    d="M41.89 42.21C41.24 41.56 41.21 40.49 41.8 39.8C41.98 39.53 42.16 39.25 42.32 38.96C42.82 38.14 43.9 37.83 44.74 38.32C45.56 38.8 45.88 39.92 45.38 40.74C45.08 41.22 44.8 41.8 44.4 42.2C44.06 42.54 43.6 42.71 43.15 42.71C42.68 42.71 42.23 42.55 41.89 42.21Z"
    fill="rgba(191, 192, 191, 1)" />
  <path
    d="M44.08 37.61C43.7 36.72 44.13 35.77 44.94 35.33C44.9 35.35 44.87 35.37 44.83 35.38C44.78 35.41 44.73 35.44 44.68 35.48C44.63 35.52 44.5801 35.57 44.5401 35.61C44.5901 35.56 44.64 35.51 44.68 35.46C45.35 34.76 46.52 34.79 47.18 35.46C47.88 36.16 47.85 37.27 47.18 37.96C46.95 38.21 46.7001 38.4 46.3901 38.55C46.1801 38.65 45.95 38.7 45.72 38.7C45.04 38.7 44.36 38.26 44.08 37.61Z"
    fill="rgba(191, 192, 191, 1)" />
  <path
    d="M42 35.21C42 34.25 42.8 33.44 43.77 33.44C44.74 33.44 45.54 34.24 45.54 35.21C45.54 36.18 44.74 36.98 43.77 36.98C42.8 36.98 42 36.17 42 35.21Z"
    fill="rgba(191, 192, 191, 1)" />
  <path
    d="M46.4 33.6C46.02 32.71 46.44 31.77 47.24 31.33C47.97 30.95 48.72 30.61 49.47 30.29C50.36 29.91 51.42 30.34 51.79 31.23C52.17 32.12 51.74 33.17 50.85 33.55C50.3 33.78 49.77 34.02 49.24 34.28C49.07 34.37 48.89 34.47 48.72 34.55C48.51 34.65 48.28 34.7 48.05 34.7C47.36 34.69 46.67 34.25 46.4 33.6Z"
    fill="rgba(191, 192, 191, 1)" />
  <path
    d="M51.15 34.51C50.97 34.26 50.79 34.01 50.68 33.72C50.32 32.82 50.72 31.78 51.62 31.4C52.49 31.03 53.58 31.44 53.94 32.33C53.94 32.33 53.95 32.34 53.95 32.35C54.52 33.13 54.41 34.23 53.63 34.83C53.32 35.07 52.93 35.19 52.54 35.19C52.01 35.19 51.47 34.96 51.15 34.51Z"
    fill="rgba(191, 192, 191, 1)" />
  <path
    d="M50.83 35.83C50 35.33 49.7 34.25 50.19 33.41C50.67 32.6 51.75 32.29 52.57 32.75C53.12 32.98 53.54 33.48 53.63 34.13C53.76 35.06 53.08 36.02 52.12 36.13C52.04 36.14 51.96 36.14 51.88 36.14C51.51 36.13 51.17 36.03 50.83 35.83Z"
    fill="rgba(191, 192, 191, 1)" />
  <path
    d="M47.53 29.9C47.53 28.94 48.33 28.13 49.3 28.13C50.27 28.13 51.07 28.93 51.07 29.9C51.07 30.87 50.27 31.67 49.3 31.67C48.33 31.67 47.53 30.86 47.53 29.9Z"
    fill="rgba(191, 192, 191, 1)" />
  <path
    d="M37.21 37.9C37.21 36.94 38.01 36.13 38.98 36.13C39.95 36.13 40.75 36.93 40.75 37.9C40.75 38.87 39.95 39.67 38.98 39.67C38.01 39.67 37.21 38.87 37.21 37.9Z"
    fill="rgba(191, 192, 191, 1)" />
  <path
    d="M41.78 37.3C41.78 36.34 42.58 35.53 43.55 35.53C44.52 35.53 45.32 36.33 45.32 37.3C45.32 38.27 44.52 39.07 43.55 39.07C42.58 39.07 41.78 38.26 41.78 37.3Z"
    fill="rgba(191, 192, 191, 1)" />
  <path
    d="M46.62 39.69C46.62 38.73 47.42 37.92 48.39 37.92C49.36 37.92 50.16 38.72 50.16 39.69C50.16 40.66 49.36 41.46 48.39 41.46C47.42 41.46 46.62 40.66 46.62 39.69Z"
    fill="rgba(191, 192, 191, 1)" />
  <path
    d="M55.7001 29.23C55.7001 29.14 55.7 29.05 55.69 28.96C55.67 28 56.51 27.19 57.46 27.19C58.44 27.19 59.2101 28 59.2301 28.96C59.2301 29.05 59.2301 29.14 59.2301 29.23C59.2301 30.19 58.43 31 57.46 31C56.49 31 55.7001 30.19 55.7001 29.23Z"
    fill="rgba(191, 192, 191, 1)" />
  <path
    d="M55.18 27.03C55.01 26.89 54.84 26.73 54.69 26.56C54.05 25.85 53.98 24.77 54.69 24.06C55.35 23.4 56.55 23.34 57.19 24.06C57.28 24.17 57.37 24.25 57.47 24.34C58.11 24.97 58.24 25.97 57.67 26.72C57.33 27.16 56.78 27.41 56.23 27.41C55.86 27.4 55.48 27.28 55.18 27.03Z"
    fill="rgba(191, 192, 191, 1)" />
  <path
    d="M55.42 25.77C55.42 24.81 56.22 24 57.19 24C58.16 24 58.96 24.8 58.96 25.77C58.96 26.74 58.16 27.54 57.19 27.54C56.22 27.54 55.42 26.74 55.42 25.77Z"
    fill="rgba(191, 192, 191, 1)" />
  <path
    d="M57.88 29.61C57.88 28.65 58.68 27.84 59.65 27.84C60.62 27.84 61.42 28.64 61.42 29.61C61.42 30.58 60.62 31.38 59.65 31.38C58.68 31.38 57.88 30.57 57.88 29.61Z"
    fill="rgba(191, 192, 191, 1)" />
  <path
    d="M63.35 28.7199C62.37 28.5899 61.74 27.6799 61.84 26.7199C61.87 26.4299 62 26.17 62.13 25.92C62.57 25.06 63.75 24.82 64.55 25.28C65.32 25.73 65.57 26.61 65.31 27.4C65.13 28.18 64.36 28.7199 63.57 28.7199C63.5 28.7299 63.42 28.7299 63.35 28.7199Z"
    fill="rgba(191, 192, 191, 1)" />
  <path
    d="M64.51 21.58C64.51 20.62 65.31 19.81 66.28 19.81C67.25 19.81 68.05 20.61 68.05 21.58C68.05 22.55 67.25 23.35 66.28 23.35C65.31 23.35 64.51 22.55 64.51 21.58Z"
    fill="rgba(191, 192, 191, 1)" />
  <path
    d="M63.41 20.7899C62.48 20.5399 61.92 19.54 62.18 18.61C62.43 17.68 63.42 17.12 64.35 17.38C65.27 17.44 66.01 18.22 66.01 19.15C66.01 20.11 65.2 20.92 64.24 20.92C63.96 20.91 63.68 20.8599 63.41 20.7899Z"
    fill="rgba(191, 192, 191, 1)" />
  <path
    d="M63.42 20.1C62.46 20.01 61.78 19.03 61.91 18.1C62.04 17.12 62.95 16.4901 63.91 16.5901C63.93 16.5901 63.95 16.5901 63.97 16.5901C64.92 16.6101 65.71 17.41 65.71 18.36C65.71 19.32 64.91 20.13 63.94 20.13C63.77 20.14 63.59 20.12 63.42 20.1Z"
    fill="rgba(191, 192, 191, 1)" />
  <path
    d="M55.98 21.44C55.51 20.64 55.76 19.46 56.61 19.02C56.95 18.84 57.29 18.68 57.65 18.57C58.58 18.31 59.57 18.88 59.83 19.81C60.09 20.74 59.53 21.71 58.61 21.98C58.51 22.02 58.4 22.07 58.31 22.12C58.33 22.11 58.34 22.0999 58.35 22.0999C58.07 22.2299 57.78 22.3 57.49 22.3C56.89 22.29 56.32 22.01 55.98 21.44Z"
    fill="rgba(191, 192, 191, 1)" />
  <path
    d="M57.38 24.71C57.38 23.75 58.18 22.94 59.15 22.94C60.12 22.94 60.92 23.74 60.92 24.71C60.92 25.68 60.12 26.48 59.15 26.48C58.18 26.48 57.38 25.67 57.38 24.71Z"
    fill="rgba(191, 192, 191, 1)" />
  <path
    d="M46.58 28.63C46.22 27.74 46.62 26.69 47.52 26.31C48.13 26.06 48.85 26.18 49.35 26.59C49.99 26.86 50.45 27.49 50.45 28.22C50.45 29.18 49.64 29.99 48.68 29.99C47.74 29.99 46.94 29.53 46.58 28.63Z"
    fill="rgba(191, 192, 191, 1)" />
  <path
    d="M52.02 23.54C51.56 22.76 51.79 21.66 52.56 21.17C52.62 21.12 52.69 21.06 52.75 21.01C52.89 20.89 53.02 20.77 53.16 20.65C53.88 20.01 54.95 19.94 55.66 20.65C56.32 21.3 56.38 22.51 55.66 23.15C55.28 23.49 54.89 23.93 54.44 24.17C54.15 24.32 53.85 24.4 53.55 24.4C52.94 24.4 52.35 24.11 52.02 23.54Z"
    fill="rgba(191, 192, 191, 1)" />
  <path
    d="M58.86 19.9C57.9 19.77 57.22 18.86 57.34 17.91C57.41 17.4 57.69 16.98 58.02 16.6C58.65 15.87 59.71 15.67 60.5 16.28C61.23 16.85 61.45 18.03 60.82 18.76C60.77 18.82 60.73 18.87 60.68 18.93C60.38 19.52 59.76 19.91 59.09 19.91C59.01 19.91 58.93 19.91 58.86 19.9Z"
    fill="rgba(191, 192, 191, 1)" />
  <path
    d="M63.48 15.4C62.55 15.15 61.98 14.15 62.24 13.22C62.34 12.86 62.53 12.54 62.77 12.26C63.38 11.51 64.48 11.34 65.25 11.94C66 12.52 66.18 13.67 65.57 14.42C65.56 14.43 65.55 14.44 65.54 14.45C65.24 15.06 64.61 15.46 63.94 15.46C63.79 15.47 63.63 15.45 63.48 15.4Z"
    fill="rgba(191, 192, 191, 1)" />
  <path
    d="M67.89 16.04C67.48 15.54 67.13 15.04 66.92 14.42C66.61 13.51 67.27 12.49 68.16 12.24C69.04 12 69.84 12.45 70.23 13.21C70.23 13.22 70.24 13.23 70.25 13.24C70.26 13.27 70.28 13.3 70.29 13.33C70.29 13.31 70.28 13.29 70.27 13.28C70.28 13.31 70.29 13.33 70.3 13.36C70.31 13.38 70.32 13.4 70.34 13.42C70.45 13.58 70.57 13.72 70.7 13.87C71.31 14.62 71.13 15.78 70.38 16.35C70.06 16.6 69.69 16.71 69.32 16.71C68.77 16.73 68.24 16.48 67.89 16.04Z"
    fill="rgba(191, 192, 191, 1)" />
  <path
    d="M68.06 17.46C68.06 16.5 68.86 15.69 69.83 15.69C70.8 15.69 71.6 16.49 71.6 17.46C71.6 18.43 70.8 19.23 69.83 19.23C68.86 19.23 68.06 18.42 68.06 17.46Z"
    fill="rgba(191, 192, 191, 1)" />
  <path
    d="M66.62 15.03C66.62 14.07 67.42 13.26 68.39 13.26C69.36 13.26 70.16 14.06 70.16 15.03C70.16 16 69.36 16.8 68.39 16.8C67.42 16.8 66.62 15.99 66.62 15.03Z"
    fill="rgba(191, 192, 191, 1)" />
  <path
    d="M68.61 10.22C68.61 9.25997 69.41 8.45001 70.38 8.45001C71.35 8.45001 72.15 9.24997 72.15 10.22C72.15 11.19 71.35 11.99 70.38 11.99C69.41 11.99 68.61 11.18 68.61 10.22Z"
    fill="rgba(191, 192, 191, 1)" />
  <path
    d="M66.28 8.48999C66.28 7.52999 67.08 6.71997 68.05 6.71997C69.02 6.71997 69.82 7.51999 69.82 8.48999C69.82 9.45999 69.02 10.26 68.05 10.26C67.08 10.26 66.28 9.45999 66.28 8.48999Z"
    fill="rgba(191, 192, 191, 1)" />
  <path
    d="M71 10.01C71 9.05001 71.8 8.23999 72.77 8.23999C73.74 8.23999 74.54 9.04001 74.54 10.01C74.54 10.98 73.74 11.78 72.77 11.78C71.8 11.78 71 10.97 71 10.01Z"
    fill="rgba(191, 192, 191, 1)" />
  <path
    d="M71.96 11.73C71.96 10.77 72.76 9.96002 73.73 9.96002C74.7 9.96002 75.5 10.76 75.5 11.73C75.5 12.7 74.7 13.5 73.73 13.5C72.76 13.5 71.96 12.7 71.96 11.73Z"
    fill="rgba(191, 192, 191, 1)" />
  <path
    d="M73.98 13.43C73.98 12.47 74.78 11.66 75.75 11.66C76.72 11.66 77.52 12.46 77.52 13.43C77.52 14.4 76.72 15.2 75.75 15.2C74.78 15.2 73.98 14.39 73.98 13.43Z"
    fill="rgba(191, 192, 191, 1)" />
  <path
    d="M71.36 16.27C71 15.42 71.4 14.27 72.3 13.95C72.6 13.84 72.86 13.78 73.18 13.75C74.14 13.69 74.95 14.61 74.95 15.52C74.95 15.99 74.76 16.44 74.43 16.77C74.22 16.98 73.97 17.11 73.71 17.2C73.7 17.2 73.69 17.21 73.68 17.21C73.66 17.21 73.64 17.22 73.62 17.23C73.63 17.23 73.64 17.23 73.65 17.23C73.63 17.24 73.61 17.24 73.59 17.25C73.39 17.3 73.2 17.34 73 17.34C72.3 17.33 71.65 16.96 71.36 16.27Z"
    fill="rgba(191, 192, 191, 1)" />
  <path
    d="M72.37 14.9C72.37 13.94 73.17 13.13 74.14 13.13C75.11 13.13 75.91 13.93 75.91 14.9C75.91 15.87 75.11 16.67 74.14 16.67C73.17 16.67 72.37 15.86 72.37 14.9Z"
    fill="rgba(191, 192, 191, 1)" />
  <path
    d="M74.22 2.48999C74.22 1.52999 75.02 0.719971 75.99 0.719971C76.96 0.719971 77.76 1.51999 77.76 2.48999C77.76 3.45999 76.96 4.26001 75.99 4.26001C75.02 4.26001 74.22 3.45999 74.22 2.48999Z"
    fill="rgba(191, 192, 191, 1)" />
  <path
    d="M72.26 5.51999C72.12 5.49999 71.97 5.47994 71.83 5.46994C70.87 5.34994 70.19 4.41994 70.32 3.46994C70.45 2.50994 71.36 1.83998 72.31 1.94998C72.45 1.96998 72.6 1.98998 72.74 2.00998C73.7 2.14998 74.38 3.03997 74.26 3.99997C74.14 4.87997 73.37 5.53995 72.5 5.53995C72.42 5.53995 72.34 5.52999 72.26 5.51999Z"
    fill="rgba(191, 192, 191, 1)" />
  <path
    d="M66.56 6.09996C65.6 6.02996 64.92 5.01997 65.05 4.10997C65.11 3.64997 65.36 3.23 65.72 2.95C66.11 2.65 66.56 2.55996 67.04 2.59996C67.2 2.60996 67.36 2.62 67.53 2.64C67.62 2.64 67.72 2.65001 67.81 2.65001C68.77 2.65001 69.58 3.45997 69.58 4.41997C69.58 5.37997 68.78 6.18999 67.81 6.18999C67.39 6.18999 66.98 6.13996 66.56 6.09996Z"
    fill="rgba(191, 192, 191, 1)" />
  <path
    d="M61.72 5.30002C60.76 5.29002 59.95 4.50006 59.95 3.53006C59.95 2.57006 60.75 1.75004 61.72 1.76004C61.9 1.76004 62.08 1.76004 62.26 1.76004C63.22 1.76004 64.03 2.57006 64.03 3.53006C64.03 4.49006 63.23 5.30002 62.26 5.30002C62.08 5.30002 61.9 5.30002 61.72 5.30002Z"
    fill="rgba(191, 192, 191, 1)" />
  <path
    d="M54.71 5.06001C54.46 4.14001 55.01 3.12002 55.95 2.88002C56.27 2.80002 56.59 2.72 56.9 2.61C57.81 2.3 58.83 2.96999 59.08 3.84999C59.21 4.30999 59.14 4.81004 58.9 5.21004C58.66 5.62004 58.29 5.87004 57.84 6.03004C57.53 6.14004 57.2 6.22 56.89 6.3C56.74 6.34 56.59 6.36 56.44 6.36C55.66 6.35 54.93 5.84001 54.71 5.06001Z"
    fill="rgba(191, 192, 191, 1)" />
  <path
    d="M51.94 7.08002C50.98 7.08002 50.17 6.28 50.17 5.31C50.17 4.34 50.97 3.53998 51.94 3.53998C52.08 3.53998 52.21 3.53998 52.35 3.53998C53.31 3.53998 54.12 4.34 54.12 5.31C54.12 6.28 53.32 7.08002 52.35 7.08002C52.21 7.08002 52.07 7.08002 51.94 7.08002Z"
    fill="rgba(191, 192, 191, 1)" />
  <path
    d="M48.91 6.97999C47.95 6.92999 47.14 6.22003 47.14 5.21003C47.14 4.29003 47.94 3.38001 48.91 3.44001C49.02 3.45001 49.13 3.46003 49.25 3.46003C50.21 3.46003 51.02 4.26999 51.02 5.22999C51.02 6.18999 50.22 7.00001 49.25 7.00001C49.14 7.00001 49.03 6.98999 48.91 6.97999Z"
    fill="rgba(191, 192, 191, 1)" />
  <path
    d="M42.81 6.73997C42.44 6.45997 42.2001 6.03999 42.1401 5.57999C42.0201 4.66999 42.69 3.65 43.65 3.59C43.74 3.58 43.8301 3.56999 43.9201 3.56999C44.8801 3.48999 45.78 4.08999 45.91 5.07999C46.03 5.99999 45.36 6.99 44.4 7.07999C44.31 7.08999 44.22 7.08995 44.13 7.09995C44.07 7.09995 44.01 7.09995 43.94 7.09995C43.53 7.09995 43.15 6.99997 42.81 6.73997Z"
    fill="rgba(191, 192, 191, 1)" />
  <path
    d="M39.78 6.94999C39.7 6.94999 39.62 6.94997 39.53 6.92997C39.53 6.92997 39.52 6.92997 39.51 6.92997C39.41 6.91997 39.31 6.90995 39.21 6.90995C38.25 6.82995 37.57 5.83996 37.7 4.91996C37.83 3.91996 38.73 3.32 39.69 3.4C39.77 3.4 39.84 3.40996 39.92 3.41996C39.98 3.41996 40.04 3.42997 40.1 3.42997C40.06 3.42997 40.03 3.42997 39.99 3.42997C40.03 3.42997 40.07 3.42997 40.11 3.42997C41.07 3.42997 41.88 4.22999 41.88 5.19999C41.88 6.16999 41.08 6.96995 40.11 6.96995C39.99 6.96995 39.88 6.95999 39.78 6.94999Z"
    fill="rgba(191, 192, 191, 1)" />
  <path
    d="M33.74 5.39003C33.61 4.43003 34.3 3.53004 35.25 3.40004C35.39 3.38004 35.52 3.35999 35.66 3.34999C36.62 3.24999 37.52 3.89 37.65 4.86C37.78 5.79 37.1 6.75 36.14 6.86C36 6.87 35.87 6.88998 35.73 6.90998C35.65 6.91998 35.57 6.93 35.49 6.93C34.64 6.92 33.87 6.26003 33.74 5.39003Z"
    fill="rgba(191, 192, 191, 1)" />
  <path
    d="M31.06 5.57001C31.06 4.61001 31.86 3.79999 32.83 3.79999C33.8 3.79999 34.6 4.60001 34.6 5.57001C34.6 6.54001 33.8 7.34003 32.83 7.34003C31.86 7.34003 31.06 6.53001 31.06 5.57001Z"
    fill="rgba(191, 192, 191, 1)" />
  <path
    d="M29.18 6.85999C29.18 5.89999 29.98 5.09003 30.95 5.09003C31.92 5.09003 32.72 5.88999 32.72 6.85999C32.72 7.82999 31.92 8.63 30.95 8.63C29.98 8.63 29.18 7.81999 29.18 6.85999Z"
    fill="rgba(191, 192, 191, 1)" />
  <path
    d="M28.61 9.28003C27.65 9.02003 27.15 8.03998 27.37 7.09998C27.42 6.86998 27.5 6.65 27.59 6.44C27.59 6.45 27.59 6.46002 27.59 6.46002C27.67 6.25002 27.8 6.05 27.97 5.87C28.3 5.54 28.76 5.34998 29.22 5.34998C30.14 5.34998 31.06 6.16 30.99 7.12C30.97 7.39 30.91 7.61998 30.83 7.84998C30.81 7.90998 30.8 7.96998 30.78 8.03998C30.6 8.82998 29.83 9.34003 29.06 9.34003C28.91 9.35003 28.76 9.33003 28.61 9.28003Z"
    fill="rgba(191, 192, 191, 1)" />
  <path
    d="M27.62 11.4C27.57 11.26 27.53 11.12 27.49 10.98C27.22 10.05 27.81 9.05 28.72 8.8C29.66 8.54 30.63 9.11004 30.9 10.03C30.94 10.17 30.99 10.31 31.03 10.45C31.33 11.37 30.69 12.38 29.79 12.63C29.63 12.67 29.47 12.7 29.32 12.7C28.55 12.7 27.87 12.17 27.62 11.4Z"
    fill="rgba(191, 192, 191, 1)" />
  <path
    d="M29.52 15.58C28.57 15.32 28.05 14.34 28.28 13.4C28.32 13.27 28.35 13.13 28.39 13C28.37 13.08 28.36 13.15 28.34 13.23C28.51 12.28 29.35 11.58 30.33 11.71C31.26 11.83 32.01 12.76 31.85 13.71C31.81 13.92 31.75 14.13 31.7 14.34C31.5 15.13 30.75 15.64 29.97 15.64C29.82 15.64 29.66 15.62 29.52 15.58Z"
    fill="rgba(191, 192, 191, 1)" />
  <path
    d="M28.6 16.73C28.6 15.77 29.4 14.96 30.37 14.96C31.34 14.96 32.14 15.76 32.14 16.73C32.14 17.7 31.34 18.5 30.37 18.5C29.4 18.5 28.6 17.69 28.6 16.73Z"
    fill="rgba(191, 192, 191, 1)" />
  <path
    d="M33.53 16.88C33.14 15.96 33.6 14.97 34.47 14.56C34.89 14.36 35.33 14.21 35.76 14.04C36.66 13.68 37.7 14.08 38.08 14.98C38.45 15.85 38.04 16.95 37.14 17.3C36.71 17.47 36.27 17.62 35.85 17.82C35.64 17.92 35.41 17.97 35.18 17.97C34.48 17.97 33.8 17.53 33.53 16.88Z"
    fill="rgba(191, 192, 191, 1)" />
  <path
    d="M36.68 11.74C36.68 11.73 36.68 11.7199 36.67 11.7199C36.64 11.6599 36.61 11.61 36.58 11.56C36.54 11.51 36.51 11.46 36.47 11.41C35.9 10.64 36.02 9.51997 36.79 8.92997C37.54 8.34997 38.7 8.47998 39.27 9.24998C39.69 9.80998 40.13 10.5 40.18 11.21C40.21 11.69 40.13 12.14 39.83 12.53C39.54 12.89 39.12 13.14 38.67 13.2C38.6 13.21 38.53 13.2199 38.46 13.2199C37.62 13.2199 36.77 12.6 36.68 11.74Z"
    fill="rgba(191, 192, 191, 1)" />
  <path
    d="M31.61 10.17C31.61 9.20998 32.41 8.40002 33.38 8.40002C34.35 8.40002 35.15 9.19998 35.15 10.17C35.15 11.14 34.35 11.94 33.38 11.94C32.41 11.94 31.61 11.14 31.61 10.17Z"
    fill="rgba(191, 192, 191, 1)" />
  <path
    d="M33.43 14.64C33.43 13.68 34.23 12.87 35.2 12.87C36.17 12.87 36.97 13.67 36.97 14.64C36.97 15.61 36.17 16.41 35.2 16.41C34.23 16.41 33.43 15.6 33.43 14.64Z"
    fill="rgba(191, 192, 191, 1)" />
  <path
    d="M32.7301 10.51C32.6301 10.02 32.66 9.58999 32.87 9.12999C33.1 8.63999 33.49 8.24997 33.85 7.85997C34.49 7.13997 35.7 7.19997 36.35 7.85997C37.06 8.56997 36.99 9.64997 36.35 10.36C36.27 10.45 36.19 10.55 36.1 10.64C36.07 10.74 36.02 10.83 35.97 10.93C35.74 11.32 35.35 11.62 34.91 11.74C34.77 11.78 34.62 11.8 34.46 11.8C33.69 11.81 32.8901 11.3 32.7301 10.51Z"
    fill="rgba(191, 192, 191, 1)" />
  <path
    d="M39.91 10.38C39.43 10.23 38.98 10.04 38.53 9.78997C37.68 9.32997 37.42 8.17998 37.89 7.36998C38.39 6.51998 39.46 6.26997 40.31 6.72997C40.37 6.76997 40.43 6.80001 40.49 6.83001C40.55 6.86001 40.62 6.87996 40.69 6.90996C40.74 6.92996 40.79 6.94001 40.85 6.96001C41.77 7.25001 42.35 8.18 42.09 9.14C41.88 9.9 41.15 10.45 40.38 10.45C40.22 10.45 40.06 10.43 39.91 10.38Z"
    fill="rgba(191, 192, 191, 1)" />
  <path
    d="M36.43 14.8C35.85 14.05 35.98 12.89 36.75 12.32C37.02 12.12 37.28 11.93 37.55 11.74C38.35 11.19 39.42 11.26 40.03 12.06C40.6 12.79 40.5 14 39.71 14.54C39.44 14.73 39.17 14.92 38.91 15.12C38.59 15.36 38.2 15.48 37.82 15.48C37.3 15.48 36.78 15.25 36.43 14.8Z"
    fill="rgba(191, 192, 191, 1)" />
  <path
    d="M40.01 12.38C39.51 11.52 39.83 10.47 40.65 9.95C40.66 9.95 40.67 9.93998 40.68 9.92998C40.96 9.72998 41.24 9.51999 41.52 9.30999C42.28 8.70999 43.42 8.86999 44 9.62999C44.6 10.4 44.44 11.52 43.68 12.11C43.28 12.43 42.87 12.74 42.44 13.01C42.17 13.18 41.87 13.26 41.58 13.26C40.95 13.26 40.33 12.93 40.01 12.38Z"
    fill="rgba(191, 192, 191, 1)" />
  <path
    d="M43.21 8.49999C42.84 8.21999 42.6 7.80001 42.53 7.34001C42.46 6.85001 42.61 6.42001 42.89 6.02001C43.05 5.78001 43.25 5.59001 43.46 5.40001C44.19 4.77001 45.38 4.98996 45.94 5.71996C46.52 6.45996 46.37 7.44 45.76 8.08C45.76 8.08 45.76 8.09001 45.75 8.09001C45.76 8.08001 45.78 8.06998 45.79 8.04998C45.77 8.06998 45.76 8.07996 45.74 8.09996C45.72 8.12996 45.7 8.14998 45.69 8.17998C45.38 8.63998 44.85 8.85997 44.31 8.85997C43.92 8.85997 43.52 8.72999 43.21 8.49999Z"
    fill="rgba(191, 192, 191, 1)" />
  <path
    d="M41.42 16.9C40.56 16.4 40.33 15.33 40.78 14.48C40.83 14.38 40.88 14.29 40.93 14.19C40.97 14.11 41 14.03 41.03 13.95C41.03 13.97 41.02 13.99 41.01 14.01C41.3 13.26 42.06 12.77 42.9 12.89C43.84 13.02 44.56 13.93 44.42 14.88C44.34 15.38 44.07 15.83 43.84 16.26C43.54 16.83 42.93 17.13 42.31 17.13C42 17.13 41.69 17.05 41.42 16.9Z"
    fill="rgba(191, 192, 191, 1)" />
  <path
    d="M40.94 16.78C40.38 16.69 39.83 16.54 39.42 16.12C39.02 15.72 38.83 15.14 38.91 14.58V14.59C39.02 13.73 39.78 13.04 40.67 13.04C40.99 13.04 41.3 13.13 41.56 13.29C42.44 13.5 43.06 14.33 42.94 15.25C42.83 16.1 42.06 16.79 41.21 16.79C41.12 16.81 41.03 16.8 40.94 16.78Z"
    fill="rgba(191, 192, 191, 1)" />
  <path
    d="M45.35 15.9099C44.39 15.8199 43.71 14.84 43.83 13.92C43.96 12.98 44.77 12.39 45.67 12.4C45.72 12.4 45.76 12.3999 45.81 12.4099C45.83 12.4099 45.85 12.41 45.88 12.4C45.93 12.39 45.97 12.38 46.01 12.36C46.06 12.34 46.12 12.32 46.17 12.3C47.07 11.95 48.11 12.34 48.49 13.25C48.86 14.12 48.45 15.21 47.55 15.57C46.95 15.8 46.37 15.94 45.75 15.94C45.61 15.93 45.48 15.9199 45.35 15.9099Z"
    fill="rgba(191, 192, 191, 1)" />
  <path
    d="M46.97 12.17C46.97 11.21 47.77 10.4 48.74 10.4C49.71 10.4 50.51 11.2 50.51 12.17C50.51 13.14 49.71 13.94 48.74 13.94C47.77 13.94 46.97 13.14 46.97 12.17Z"
    fill="rgba(191, 192, 191, 1)" />
  <path
    d="M46.19 7.78998C46.19 6.82998 46.99 6.02002 47.96 6.02002C48.93 6.02002 49.73 6.81998 49.73 7.78998C49.73 8.75998 48.93 9.56 47.96 9.56C46.99 9.56 46.19 8.74998 46.19 7.78998Z"
    fill="rgba(191, 192, 191, 1)" />
  <path
    d="M58.11 14.07C57.86 14.01 57.61 13.93 57.36 13.84C56.44 13.55 55.86 12.63 56.12 11.66C56.37 10.76 57.38 10.12 58.3 10.42C58.4 10.46 58.5 10.49 58.6 10.53C58.75 10.57 58.9 10.62 59.05 10.65C59.99 10.89 60.54 11.91 60.29 12.83C60.08 13.63 59.35 14.13 58.57 14.13C58.42 14.12 58.26 14.1 58.11 14.07Z"
    fill="rgba(191, 192, 191, 1)" />
  <path
    d="M57.27 12.22C57.14 11.28 57.82 10.33 58.78 10.22C58.82 10.22 58.87 10.21 58.91 10.2C59.81 9.99003 60.76 10.55 61.01 11.46C61.27 12.39 60.7 13.38 59.78 13.64C59.61 13.69 59.44 13.71 59.26 13.73C59.19 13.74 59.12 13.74 59.05 13.74C58.17 13.74 57.39 13.12 57.27 12.22Z"
    fill="rgba(191, 192, 191, 1)" />
  <path
    d="M55.59 8.15997C55.59 7.19997 56.39 6.39001 57.36 6.39001C58.33 6.39001 59.13 7.18997 59.13 8.15997C59.13 9.12997 58.33 9.92999 57.36 9.92999C56.39 9.92999 55.59 9.12997 55.59 8.15997Z"
    fill="rgba(191, 192, 191, 1)" />
  <path
    d="M52.85 11.16C52.85 10.2 53.65 9.39001 54.62 9.39001C55.59 9.39001 56.39 10.19 56.39 11.16C56.39 12.13 55.59 12.93 54.62 12.93C53.65 12.93 52.85 12.13 52.85 11.16Z"
    fill="rgba(191, 192, 191, 1)" />
  <path
    d="M52.18 9.91995C51.05 9.27995 51 7.48996 52.18 6.85996C52.45 6.71996 52.72 6.65 53.01 6.59C53.96 6.41 54.88 7.18996 55.01 8.10996C55.15 9.09996 54.45 9.90995 53.51 10.0999C53.47 10.1099 53.43 10.12 53.39 10.12C53.37 10.12 53.35 10.13 53.34 10.13C53.25 10.14 53.16 10.15 53.07 10.15C52.76 10.15 52.45 10.08 52.18 9.91995Z"
    fill="rgba(191, 192, 191, 1)" />
  <path
    d="M61.18 9.61001C61.16 9.57001 61.13 9.54004 61.1 9.51004C61.1 9.51004 61.1 9.51003 61.09 9.50003C61.07 9.48003 61.06 9.47004 61.05 9.45004C60.78 9.17004 60.6 8.84004 60.55 8.45004C60.49 7.98004 60.62 7.50003 60.91 7.13003C61.47 6.40003 62.66 6.18002 63.39 6.81002C63.61 7.00002 63.8 7.21003 63.99 7.44003C64.6 8.19003 64.42 9.34001 63.67 9.92001C63.35 10.17 62.98 10.2801 62.61 10.2801C62.07 10.3001 61.54 10.06 61.18 9.61001Z"
    fill="rgba(191, 192, 191, 1)" />
  <path
    d="M62.95 9.58002C62.95 8.62002 63.75 7.81 64.72 7.81C65.69 7.81 66.49 8.61002 66.49 9.58002C66.49 10.55 65.69 11.35 64.72 11.35C63.75 11.35 62.95 10.55 62.95 9.58002Z"
    fill="rgba(191, 192, 191, 1)" />
  <path
    d="M60.47 9.81002C60.22 9.32002 60.0701 8.82003 60.1001 8.26003C60.1401 7.61003 60.3701 7.03003 60.6401 6.45003C61.0401 5.57003 62.05 5.13003 62.96 5.51003C63.83 5.88003 64.3 6.95004 63.91 7.83004C63.82 8.01004 63.7501 8.19002 63.6701 8.37002C63.9001 9.15002 63.6401 10 62.8901 10.44C62.6201 10.6 62.31 10.67 62 10.67C61.38 10.68 60.76 10.38 60.47 9.81002Z"
    fill="rgba(191, 192, 191, 1)" />
  <path
    d="M63.07 5.98999C63.07 5.02999 63.87 4.21997 64.84 4.21997C65.81 4.21997 66.61 5.01999 66.61 5.98999C66.61 6.95999 65.81 7.76001 64.84 7.76001C63.87 7.76001 63.07 6.95999 63.07 5.98999Z"
    fill="rgba(191, 192, 191, 1)" />
  <path
    d="M63.47 10.64C63.43 10.4 63.42 10.17 63.43 9.92999C63.47 8.96999 64.2 8.15997 65.2 8.15997C66.13 8.15997 67.02 8.95999 66.97 9.92999C66.97 9.96999 66.97 10.02 66.96 10.06C66.97 10.1 66.97 10.13 66.98 10.16C67.14 11.11 66.4 12.03 65.47 12.16C65.39 12.17 65.31 12.18 65.23 12.18C64.35 12.17 63.62 11.51 63.47 10.64Z"
    fill="rgba(191, 192, 191, 1)" />
  <path
    d="M71.28 6.78997C70.81 5.98997 71.06 4.81998 71.91 4.36998C72.15 4.23998 72.4 4.12001 72.66 4.02001C72.67 4.02001 72.68 4.01 72.69 4.01C72.76 3.98 72.84 3.95998 72.91 3.92998C72.96 3.90998 73.01 3.88999 73.07 3.87999C73.99 3.59999 75 4.19998 75.25 5.11998C75.49 5.99998 75.02 6.87997 74.21 7.22997C74.2 7.22997 74.18 7.23999 74.17 7.24999C74.17 7.24999 74.16 7.25 74.15 7.26C74.17 7.25 74.19 7.23998 74.21 7.23998C74.15 7.26998 74.09 7.28999 74.02 7.30999C74.01 7.30999 74.01 7.30999 74 7.30999C73.98 7.30999 73.97 7.32 73.95 7.32C73.89 7.35 73.83 7.37001 73.77 7.40001C73.75 7.42001 73.72 7.42999 73.7 7.43999C73.41 7.58999 73.1 7.66997 72.8 7.66997C72.19 7.64997 71.61 7.35997 71.28 6.78997Z"
    fill="rgba(191, 192, 191, 1)" />
  <path
    d="M72.13 9.86998C71.81 9.81998 71.5 9.78001 71.19 9.71001C70.75 9.62001 70.4 9.40996 70.03 9.15996C69.38 8.70996 69.18 7.76999 69.48 7.06999C69.68 6.58999 70.01 6.21001 70.47 5.96001C70.67 5.85001 70.86 5.73001 71.07 5.65001C71.96 5.29001 73.01 5.69001 73.39 6.59001C73.41 6.63001 73.43 6.67001 73.44 6.71001C73.92 7.09001 74.21 7.69996 74.12 8.34996C74 9.21996 73.23 9.87999 72.37 9.87999C72.29 9.87999 72.21 9.87998 72.13 9.86998Z"
    fill="rgba(191, 192, 191, 1)" />
  <path
    d="M75.25 11.28C74.82 11.16 74.37 11.01 74 10.76C73.19 10.24 72.86 9.20002 73.36 8.34002C73.83 7.54002 74.97 7.18001 75.78 7.70001C75.8 7.72001 75.83 7.73 75.86 7.75C75.91 7.77 75.95 7.78999 76 7.80999C76.06 7.82999 76.13 7.84998 76.19 7.85998C77.12 8.11998 77.68 9.09997 77.42 10.04C77.21 10.81 76.47 11.34 75.7 11.34C75.55 11.34 75.4 11.32 75.25 11.28Z"
    fill="rgba(191, 192, 191, 1)" />
  <path
    d="M74.4 15C73.54 14.5 73.31 13.43 73.77 12.58C73.83 12.47 73.89 12.37 73.95 12.26C74.43 11.42 75.55 11.14 76.37 11.62C77.21 12.11 77.48 13.2 77 14.04C76.94 14.15 76.88 14.25 76.82 14.36C76.52 14.93 75.91 15.23 75.29 15.23C74.98 15.24 74.67 15.16 74.4 15Z"
    fill="rgba(191, 192, 191, 1)" />
  <path
    d="M71.93 16.61C71.93 15.65 72.73 14.84 73.7 14.84C74.67 14.84 75.47 15.64 75.47 16.61C75.47 17.58 74.67 18.38 73.7 18.38C72.73 18.38 71.93 17.57 71.93 16.61Z"
    fill="rgba(191, 192, 191, 1)" />
  <path
    d="M74.62 17.23C74.62 16.27 75.42 15.46 76.39 15.46C77.36 15.46 78.16 16.26 78.16 17.23C78.16 18.2 77.36 19 76.39 19C75.42 19 74.62 18.19 74.62 17.23Z"
    fill="rgba(191, 192, 191, 1)" />
  <path
    d="M75.67 19.65C74.8 19.15 74.59 18.09 75.03 17.23C75.1 17.09 75.17 16.97 75.27 16.84C75.86 16.08 76.99 15.93 77.75 16.52C78.49 17.09 78.66 18.16 78.13 18.92C78.11 18.95 78.1 18.98 78.09 19.01C77.8 19.58 77.18 19.88 76.56 19.88C76.26 19.88 75.94 19.8 75.67 19.65Z"
    fill="rgba(191, 192, 191, 1)" />
  <path
    d="M73.49 23.48C73.49 23.14 73.53 22.82 73.61 22.5C73.82 21.56 74.89 21.02 75.79 21.27C76.72 21.52 77.2 22.44 77.05 23.34C77.06 23.32 77.06 23.29 77.07 23.27C77.06 23.32 77.05 23.36 77.04 23.41C77.04 23.43 77.04 23.46 77.04 23.49C77.03 24.45 76.24 25.26 75.27 25.26C74.31 25.25 73.49 24.45 73.49 23.48Z"
    fill="rgba(191, 192, 191, 1)" />
  <path
    d="M71.4 31.72C70.92 30.91 71.19 29.76 72.04 29.3C72.26 29.18 72.48 29.05 72.69 28.92C72.63 28.96 72.57 29.01 72.5 29.05C72.5 29.05 72.5 29.05 72.51 29.05C73.3 28.5 74.38 28.58 74.99 29.37C75.56 30.1 75.46 31.3 74.67 31.85C74.4 32.04 74.12 32.21 73.83 32.36C73.55 32.51 73.24 32.5901 72.94 32.5901C72.32 32.5801 71.73 32.28 71.4 31.72Z"
    fill="rgba(191, 192, 191, 1)" />
  <path
    d="M70.63 25.61C70.54 25.58 70.46 25.54 70.38 25.51C69.49 25.15 69.07 24.07 69.44 23.19C69.82 22.29 70.87 21.89 71.76 22.25C71.84 22.29 71.93 22.32 72.01 22.35C72.91 22.69 73.32 23.81 72.96 24.67C72.67 25.36 72.01 25.74 71.32 25.74C71.09 25.74 70.86 25.7 70.63 25.61Z"
    fill="rgba(191, 192, 191, 1)" />
  <path
    d="M66.6 23.41C66.6 22.45 67.4 21.64 68.37 21.64C69.34 21.64 70.14 22.44 70.14 23.41C70.14 24.38 69.34 25.18 68.37 25.18C67.4 25.18 66.6 24.37 66.6 23.41Z"
    fill="rgba(191, 192, 191, 1)" />
  <path
    d="M69.95 25.55C69.96 25.45 69.96 25.35 69.97 25.26C69.97 25.21 69.98 25.16 69.98 25.12C69.98 25.11 69.98 25.1 69.98 25.1V25.11C70.08 24.23 70.84 23.53 71.74 23.53C72.7 23.53 73.51 24.34 73.51 25.3C73.51 25.41 73.49 25.53 73.49 25.65V25.64C73.4 26.57 72.7 27.32 71.73 27.32C70.79 27.32 69.89 26.51 69.95 25.55Z"
    fill="rgba(191, 192, 191, 1)" />
  <path
    d="M71.55 32.09C70.91 31.89 70.26 31.67 69.76 31.2C69.28 30.74 68.99 30.11 68.99 29.43C68.99 28.47 69.79 27.66 70.76 27.66C71.44 27.66 72.04 28.05 72.33 28.62C72.38 28.64 72.44 28.66 72.49 28.67C73.41 28.95 73.99 29.9 73.73 30.85C73.52 31.61 72.79 32.16 72.02 32.16C71.86 32.16 71.7 32.14 71.55 32.09Z"
    fill="rgba(191, 192, 191, 1)" />
  <path
    d="M72.42 34.08C72.3 33.74 72.21 33.41 72.22 33.04C72.26 32.08 73 31.27 73.99 31.27C74.91 31.27 75.77 32.04 75.76 32.98C75.93 33.8 75.55 34.67 74.73 35.02C74.52 35.11 74.29 35.15 74.06 35.15C73.38 35.15 72.68 34.76 72.42 34.08Z"
    fill="rgba(191, 192, 191, 1)" />
  <path
    d="M76.44 33.87C76.44 32.91 77.24 32.1 78.21 32.1C79.18 32.1 79.98 32.9 79.98 33.87C79.98 34.84 79.18 35.64 78.21 35.64C77.24 35.64 76.44 34.84 76.44 33.87Z"
    fill="rgba(191, 192, 191, 1)" />
  <path
    d="M77.82 29.6C77.82 29.45 77.81 29.3 77.8 29.15C77.74 28.19 78.65 27.38 79.57 27.38C80.58 27.38 81.28 28.19 81.34 29.15C81.35 29.3 81.36 29.45 81.36 29.6C81.38 30.57 80.54 31.37 79.59 31.37C78.61 31.38 77.84 30.57 77.82 29.6Z"
    fill="rgba(191, 192, 191, 1)" />
  <path
    d="M77.96 25.17C77.03 24.91 76.47 23.93 76.73 22.99C76.98 22.06 77.98 21.49 78.91 21.75C78.93 21.75 78.95 21.76 78.97 21.77C79.87 21.84 80.6 22.61 80.6 23.54C80.6 24.5 79.8 25.31 78.83 25.31C78.53 25.31 78.25 25.26 77.96 25.17Z"
    fill="rgba(191, 192, 191, 1)" />
  <path
    d="M74.71 20.74C74.38 20.03 74.51 19.24 74.64 18.51C74.8 17.56 75.66 16.87 76.64 17C77.57 17.12 78.31 18.04 78.16 18.99C78.13 19.19 78.09 19.38 78.07 19.58C78.31 20.41 77.84 21.35 77.05 21.69C76.83 21.78 76.6 21.83 76.38 21.83C75.66 21.82 75.02 21.4 74.71 20.74Z"
    fill="rgba(191, 192, 191, 1)" />
  <path
    d="M77.41 14.6C77.21 14.49 77.02 14.36 76.84 14.21C76.1 13.59 75.91 12.51 76.52 11.73C77.09 10.99 78.27 10.79 79 11.41C79.04 11.45 79.07 11.48 79.11 11.5C79.14 11.52 79.16 11.54 79.2 11.55C80.04 12.02 80.32 13.15 79.83 13.97C79.5 14.53 78.91 14.84 78.3 14.84C78 14.83 77.69 14.76 77.41 14.6Z"
    fill="rgba(191, 192, 191, 1)" />
  <path
    d="M76.16 9.31C76 8.92 75.85 8.53999 75.78 8.10999C75.68 7.47999 75.71 6.85998 75.8 6.22998C75.94 5.27998 76.83 4.58997 77.79 4.71997C78.74 4.84997 79.45 5.76002 79.31 6.71002C79.29 6.86002 79.27 7.00997 79.26 7.15997C79.26 7.24997 79.26 7.33999 79.26 7.42999C79.26 7.46999 79.27 7.49998 79.28 7.53998C79.28 7.55998 79.29 7.58999 79.3 7.60999C79.35 7.71999 79.39 7.81999 79.43 7.92999C79.79 8.82999 79.39 9.87 78.49 10.25C78.28 10.34 78.04 10.39 77.82 10.39C77.11 10.39 76.43 9.99 76.16 9.31Z"
    fill="rgba(191, 192, 191, 1)" />
  <path
    d="M76.2 4.29999C76.2 3.33999 77 2.53003 77.97 2.53003C78.94 2.53003 79.74 3.32999 79.74 4.29999C79.74 5.26999 78.94 6.07001 77.97 6.07001C77 6.07001 76.2 5.26999 76.2 4.29999Z"
    fill="rgba(191, 192, 191, 1)" />
  <path
    d="M76.5 26.05C76.5 25.09 77.3 24.28 78.27 24.28C79.24 24.28 80.04 25.08 80.04 26.05C80.04 27.02 79.24 27.82 78.27 27.82C77.3 27.82 76.5 27.01 76.5 26.05Z"
    fill="rgba(191, 192, 191, 1)" />
  <path
    d="M73.82 30.06C73.82 29.1 74.62 28.29 75.59 28.29C76.56 28.29 77.36 29.09 77.36 30.06C77.36 31.03 76.56 31.83 75.59 31.83C74.62 31.83 73.82 31.03 73.82 30.06Z"
    fill="rgba(191, 192, 191, 1)" />
  <path
    d="M71.17 30.01C71.17 29.05 71.97 28.24 72.94 28.24C73.91 28.24 74.71 29.04 74.71 30.01C74.71 30.98 73.91 31.78 72.94 31.78C71.97 31.78 71.17 30.98 71.17 30.01Z"
    fill="rgba(191, 192, 191, 1)" />
  <path
    d="M68.17 34.37C68.17 33.41 68.97 32.6 69.94 32.6C70.91 32.6 71.71 33.4 71.71 34.37C71.71 35.34 70.91 36.14 69.94 36.14C68.97 36.14 68.17 35.33 68.17 34.37Z"
    fill="rgba(191, 192, 191, 1)" />
  <path
    d="M69 36.26C69 35.3 69.8 34.49 70.77 34.49C71.74 34.49 72.54 35.29 72.54 36.26C72.54 37.23 71.74 38.03 70.77 38.03C69.8 38.03 69 37.22 69 36.26Z"
    fill="rgba(191, 192, 191, 1)" />
  <path
    d="M69.63 39.49C68.72 39.1 68.35 38.08 68.69 37.17C68.78 36.93 68.89 36.7099 69 36.4699C69.43 35.6099 70.6201 35.37 71.4201 35.84C71.8101 36.07 72.1101 36.46 72.2301 36.9C72.3501 37.35 72.28 37.77 72.1 38.18C72.11 38.16 72.1201 38.13 72.1401 38.11C72.0701 38.25 72.0101 38.4 71.9501 38.55C71.7001 39.23 71 39.62 70.31 39.62C70.08 39.62 69.85 39.58 69.63 39.49Z"
    fill="rgba(191, 192, 191, 1)" />
  <path
    d="M69.93 40.61C69.93 39.64 70.73 38.84 71.7 38.84C72.67 38.84 73.47 39.64 73.47 40.61C73.47 41.57 72.67 42.38 71.7 42.38C70.73 42.38 69.93 41.58 69.93 40.61Z"
    fill="rgba(191, 192, 191, 1)" />
  <path
    d="M75.5 42.36C75.35 42.35 75.2 42.34 75.04 42.33C75.12 42.33 75.2 42.34 75.27 42.35C74.31 42.29 73.5 41.59 73.5 40.58C73.5 39.66 74.31 38.75 75.27 38.81C75.34 38.82 75.41 38.82 75.48 38.83H75.49C75.52 38.83 75.54 38.83 75.57 38.84C75.59 38.84 75.62 38.84 75.64 38.84C75.62 38.84 75.6 38.84 75.59 38.84C76.5 38.94 77.26 39.63 77.26 40.6C77.26 41.49 76.5 42.37 75.58 42.37C75.56 42.37 75.53 42.37 75.5 42.36Z"
    fill="rgba(191, 192, 191, 1)" />
  <path
    d="M77.41 41.34C76.45 41.34 75.64 40.54 75.64 39.57C75.64 38.6 76.44 37.8 77.41 37.8C77.5 37.8 77.58 37.8 77.67 37.8C78.63 37.8 79.44 38.6 79.44 39.57C79.44 40.54 78.64 41.34 77.67 41.34C77.59 41.34 77.5 41.34 77.41 41.34Z"
    fill="rgba(191, 192, 191, 1)" />
  <path
    d="M78.09 39.24C77.73 39.22 77.39 39.15 77.04 39.07C76.1 38.86 75.56 37.79 75.81 36.89C76.08 35.93 77.05 35.44 77.99 35.65C78.03 35.66 78.06 35.67 78.1 35.67C78.18 35.68 78.25 35.69 78.33 35.7C78.29 35.7 78.25 35.7 78.21 35.69C79.12 35.79 79.86 36.49 79.86 37.46C79.86 38.36 79.1 39.23 78.16 39.23C78.14 39.24 78.12 39.24 78.09 39.24Z"
    fill="rgba(191, 192, 191, 1)" />
  <path
    d="M71.9801 39.2C71.9601 38.96 71.95 38.73 71.96 38.49C72 37.53 72.7401 36.72 73.7301 36.72C74.6701 36.72 75.53 37.53 75.5 38.49C75.5 38.58 75.49 38.67 75.49 38.77C75.49 38.76 75.49 38.75 75.49 38.73C75.56 39.69 74.9701 40.59 73.9801 40.72C73.9101 40.73 73.8401 40.74 73.7601 40.74C72.9101 40.73 72.0501 40.09 71.9801 39.2Z"
    fill="rgba(191, 192, 191, 1)" />
  <path
    d="M71.96 44.7C71.36 43.92 71.53 42.82 72.28 42.22C72.37 42.15 72.45 42.08 72.54 42.01C73.32 41.44 74.42 41.55 75.02 42.33C75.59 43.08 75.48 44.24 74.7 44.81C74.61 44.88 74.52 44.95 74.43 45.02C74.13 45.27 73.75 45.38 73.38 45.38C72.84 45.39 72.3 45.15 71.96 44.7Z"
    fill="rgba(191, 192, 191, 1)" />
  <path
    d="M69.42 43.4C69.42 42.44 70.22 41.63 71.19 41.63C72.16 41.63 72.96 42.43 72.96 43.4C72.96 44.37 72.16 45.17 71.19 45.17C70.22 45.17 69.42 44.36 69.42 43.4Z"
    fill="rgba(191, 192, 191, 1)" />
  <path
    d="M68.78 45.42C67.85 45.16 67.28 44.17 67.55 43.24C67.59 43.08 67.65 42.92 67.71 42.76C68.07 41.87 69.15 41.45 70.03 41.82C70.92 42.2 71.33 43.23 70.98 44.12C70.97 44.14 70.97 44.16 70.96 44.19C70.74 44.97 70.01 45.49 69.24 45.49C69.09 45.48 68.94 45.46 68.78 45.42Z"
    fill="rgba(191, 192, 191, 1)" />
  <path
    d="M68.28 48.32C68.28 47.36 69.08 46.55 70.05 46.55C71.02 46.55 71.82 47.35 71.82 48.32C71.82 49.29 71.02 50.09 70.05 50.09C69.08 50.09 68.28 49.28 68.28 48.32Z"
    fill="rgba(191, 192, 191, 1)" />
  <path
    d="M71.59 50.48C71.59 49.52 72.39 48.71 73.36 48.71C74.33 48.71 75.13 49.51 75.13 50.48C75.13 51.45 74.33 52.25 73.36 52.25C72.39 52.25 71.59 51.44 71.59 50.48Z"
    fill="rgba(191, 192, 191, 1)" />
  <path
    d="M75.32 49.04C75.32 48.08 76.12 47.27 77.09 47.27C78.06 47.27 78.86 48.07 78.86 49.04C78.86 50.01 78.06 50.81 77.09 50.81C76.12 50.81 75.32 50 75.32 49.04Z"
    fill="rgba(191, 192, 191, 1)" />
  <path
    d="M77.07 48.75C77.07 47.79 77.87 46.98 78.84 46.98C79.81 46.98 80.61 47.78 80.61 48.75C80.61 49.72 79.81 50.52 78.84 50.52C77.87 50.52 77.07 49.71 77.07 48.75Z"
    fill="rgba(191, 192, 191, 1)" />
  <path
    d="M78.08 47.8C78.08 46.84 78.88 46.03 79.85 46.03C80.82 46.03 81.62 46.83 81.62 47.8C81.62 48.77 80.82 49.57 79.85 49.57C78.88 49.57 78.08 48.76 78.08 47.8Z"
    fill="rgba(191, 192, 191, 1)" />
  <path
    d="M73.5 45.42C73.5 44.46 74.3 43.65 75.27 43.65C76.24 43.65 77.04 44.45 77.04 45.42C77.04 46.39 76.24 47.19 75.27 47.19C74.3 47.19 73.5 46.39 73.5 45.42Z"
    fill="rgba(191, 192, 191, 1)" />
  <path
    d="M76.05 43.15C76.05 42.19 76.85 41.38 77.82 41.38C78.79 41.38 79.59 42.18 79.59 43.15C79.59 44.12 78.79 44.92 77.82 44.92C76.85 44.92 76.05 44.12 76.05 43.15Z"
    fill="rgba(191, 192, 191, 1)" />
  <path
    d="M76.62 43.02C76.62 42.06 77.42 41.25 78.39 41.25C79.36 41.25 80.16 42.05 80.16 43.02C80.16 43.99 79.36 44.79 78.39 44.79C77.42 44.79 76.62 43.99 76.62 43.02Z"
    fill="rgba(191, 192, 191, 1)" />
  <path
    d="M78.18 40.56C78.18 39.6 78.98 38.79 79.95 38.79C80.92 38.79 81.72 39.59 81.72 40.56C81.72 41.53 80.92 42.33 79.95 42.33C78.98 42.33 78.18 41.53 78.18 40.56Z"
    fill="rgba(191, 192, 191, 1)" />
  <path
    d="M79 35.98C79 35.02 79.8 34.21 80.77 34.21C81.74 34.21 82.54 35.01 82.54 35.98C82.54 36.95 81.74 37.75 80.77 37.75C79.8 37.75 79 36.94 79 35.98Z"
    fill="rgba(191, 192, 191, 1)" />
  <path
    d="M78.32 30.89C78.32 29.93 79.12 29.12 80.09 29.12C81.06 29.12 81.86 29.92 81.86 30.89C81.86 31.86 81.06 32.66 80.09 32.66C79.12 32.66 78.32 31.85 78.32 30.89Z"
    fill="rgba(191, 192, 191, 1)" />
  <path
    d="M77.71 22.19C77.71 21.23 78.51 20.42 79.48 20.42C80.45 20.42 81.25 21.22 81.25 22.19C81.25 23.16 80.45 23.96 79.48 23.96C78.51 23.96 77.71 23.15 77.71 22.19Z"
    fill="rgba(191, 192, 191, 1)" />
  <path
    d="M77.36 18.14C77.34 18.03 77.32 17.93 77.3 17.82C77.11 16.87 77.9101 15.95 78.8201 15.82C79.2801 15.76 79.7701 15.89 80.1401 16.17C80.5101 16.45 80.7 16.83 80.8 17.26C80.83 17.38 80.86 17.5 80.87 17.62C80.94 18.58 80.35 19.48 79.35 19.61C79.28 19.62 79.2 19.63 79.13 19.63C78.29 19.64 77.45 19.01 77.36 18.14Z"
    fill="rgba(191, 192, 191, 1)" />
  <path
    d="M77.76 14.96C77.76 14 78.56 13.19 79.53 13.19C80.5 13.19 81.3 13.99 81.3 14.96C81.3 15.93 80.5 16.73 79.53 16.73C78.56 16.73 77.76 15.92 77.76 14.96Z"
    fill="rgba(191, 192, 191, 1)" />
  <path
    d="M68.3 50.3C68.3 49.34 69.1 48.53 70.07 48.53C71.04 48.53 71.84 49.33 71.84 50.3C71.84 51.27 71.04 52.07 70.07 52.07C69.1 52.07 68.3 51.26 68.3 50.3Z"
    fill="rgba(191, 192, 191, 1)" />
  <path
    d="M77.6 49.41C77.6 48.45 78.4 47.64 79.37 47.64C80.34 47.64 81.14 48.44 81.14 49.41C81.14 50.38 80.34 51.18 79.37 51.18C78.4 51.18 77.6 50.38 77.6 49.41Z"
    fill="rgba(191, 192, 191, 1)" />
  <path
    d="M76.41 44.52C76.41 43.56 77.21 42.75 78.18 42.75C79.15 42.75 79.95 43.55 79.95 44.52C79.95 45.49 79.15 46.29 78.18 46.29C77.21 46.29 76.41 45.49 76.41 44.52Z"
    fill="rgba(191, 192, 191, 1)" />
  <path
    d="M69.34 21.5C69.34 20.54 70.14 19.73 71.11 19.73C72.08 19.73 72.88 20.53 72.88 21.5C72.88 22.47 72.08 23.27 71.11 23.27C70.14 23.27 69.34 22.46 69.34 21.5Z"
    fill="rgba(191, 192, 191, 1)" />
  <path
    d="M65.6 17.87C65.6 16.91 66.4 16.1 67.37 16.1C68.34 16.1 69.14 16.9 69.14 17.87C69.14 18.84 68.34 19.64 67.37 19.64C66.4 19.64 65.6 18.83 65.6 17.87Z"
    fill="rgba(191, 192, 191, 1)" />
  <path
    d="M60.99 14.73C60.99 13.77 61.79 12.96 62.76 12.96C63.73 12.96 64.53 13.76 64.53 14.73C64.53 15.7 63.73 16.5 62.76 16.5C61.79 16.5 60.99 15.7 60.99 14.73Z"
    fill="rgba(191, 192, 191, 1)" />
  <path
    d="M31.85 53.16C31.85 52.2 32.65 51.39 33.62 51.39C34.59 51.39 35.39 52.19 35.39 53.16C35.39 54.13 34.59 54.93 33.62 54.93C32.65 54.93 31.85 54.13 31.85 53.16Z"
    fill="rgba(191, 192, 191, 1)" />
  <path
    d="M28.94 56.37C28.94 55.41 29.74 54.6 30.71 54.6C31.68 54.6 32.48 55.4 32.48 56.37C32.48 57.34 31.68 58.14 30.71 58.14C29.74 58.14 28.94 57.34 28.94 56.37Z"
    fill="rgba(191, 192, 191, 1)" />
  <path
    d="M21.94 62.03C21.94 61.07 22.74 60.26 23.71 60.26C24.68 60.26 25.48 61.06 25.48 62.03C25.48 63 24.68 63.8 23.71 63.8C22.74 63.8 21.94 62.99 21.94 62.03Z"
    fill="rgba(191, 192, 191, 1)" />
  <path
    d="M19.19 64.32C19.19 63.36 19.99 62.55 20.96 62.55C21.93 62.55 22.73 63.35 22.73 64.32C22.73 65.29 21.93 66.09 20.96 66.09C19.99 66.09 19.19 65.28 19.19 64.32Z"
    fill="rgba(191, 192, 191, 1)" />
  <path
    d="M15.71 67.08C15.71 66.12 16.51 65.31 17.48 65.31C18.45 65.31 19.25 66.11 19.25 67.08C19.25 68.05 18.45 68.85 17.48 68.85C16.51 68.85 15.71 68.05 15.71 67.08Z"
    fill="rgba(191, 192, 191, 1)" />
  <path
    d="M11.54 69.16C11.54 68.2 12.34 67.39 13.31 67.39C14.28 67.39 15.08 68.19 15.08 69.16C15.08 70.13 14.28 70.93 13.31 70.93C12.34 70.93 11.54 70.12 11.54 69.16Z"
    fill="rgba(191, 192, 191, 1)" />
  <path
    d="M7.57001 73.28C7.57001 72.32 8.37 71.51 9.34 71.51C10.31 71.51 11.11 72.31 11.11 73.28C11.11 74.25 10.31 75.05 9.34 75.05C8.37 75.05 7.57001 74.24 7.57001 73.28Z"
    fill="rgba(191, 192, 191, 1)" />
  <path
    d="M2.04999 70.22C2.04999 69.26 2.85001 68.45 3.82001 68.45C4.79001 68.45 5.59 69.25 5.59 70.22C5.59 71.19 4.79001 71.99 3.82001 71.99C2.85001 71.99 2.04999 71.18 2.04999 70.22Z"
    fill="rgba(191, 192, 191, 1)" />
  <path
    d="M3.12 73.04C3.12 72.08 3.92001 71.27 4.89001 71.27C5.86001 71.27 6.66 72.07 6.66 73.04C6.66 74.01 5.86001 74.81 4.89001 74.81C3.92001 74.81 3.12 74 3.12 73.04Z"
    fill="rgba(191, 192, 191, 1)" />
  <path
    d="M25.73 60.03C25.73 59.07 26.53 58.26 27.5 58.26C28.47 58.26 29.27 59.06 29.27 60.03C29.27 61 28.47 61.8 27.5 61.8C26.53 61.8 25.73 60.99 25.73 60.03Z"
    fill="rgba(191, 192, 191, 1)" />
  <path
    d="M28.43 59.87C28.43 58.91 29.23 58.1 30.2 58.1C31.17 58.1 31.97 58.9 31.97 59.87C31.97 60.84 31.17 61.64 30.2 61.64C29.23 61.64 28.43 60.83 28.43 59.87Z"
    fill="rgba(191, 192, 191, 1)" />
  <path
    d="M43.28 44.6C43.28 43.64 44.08 42.83 45.05 42.83C46.02 42.83 46.82 43.63 46.82 44.6C46.82 45.57 46.02 46.37 45.05 46.37C44.08 46.37 43.28 45.57 43.28 44.6Z"
    fill="rgba(191, 192, 191, 1)" />
  <path
    d="M49.06 39.14C49.06 38.18 49.86 37.37 50.83 37.37C51.8 37.37 52.6 38.17 52.6 39.14C52.6 40.11 51.8 40.91 50.83 40.91C49.86 40.91 49.06 40.1 49.06 39.14Z"
    fill="rgba(191, 192, 191, 1)" />
  <path
    d="M59.12 28.62C59.12 27.66 59.92 26.85 60.89 26.85C61.86 26.85 62.66 27.65 62.66 28.62C62.66 29.59 61.86 30.39 60.89 30.39C59.92 30.39 59.12 29.59 59.12 28.62Z"
    fill="rgba(191, 192, 191, 1)" />
  <path
    d="M60.85 23.57C60.85 22.61 61.65 21.8 62.62 21.8C63.59 21.8 64.39 22.6 64.39 23.57C64.39 24.54 63.59 25.34 62.62 25.34C61.65 25.34 60.85 24.53 60.85 23.57Z"
    fill="rgba(191, 192, 191, 1)" />
  <path
    d="M50.65 29.7C50.65 28.74 51.45 27.93 52.42 27.93C53.39 27.93 54.19 28.73 54.19 29.7C54.19 30.67 53.39 31.47 52.42 31.47C51.45 31.47 50.65 30.67 50.65 29.7Z"
    fill="rgba(191, 192, 191, 1)" />
  <path
    d="M50.48 27.44C50.48 26.48 51.28 25.67 52.25 25.67C53.22 25.67 54.02 26.47 54.02 27.44C54.02 28.41 53.22 29.21 52.25 29.21C51.28 29.21 50.48 28.4 50.48 27.44Z"
    fill="rgba(191, 192, 191, 1)" />
  <path
    d="M52.39 24.66C52.39 23.7 53.19 22.89 54.16 22.89C55.13 22.89 55.93 23.69 55.93 24.66C55.93 25.63 55.13 26.43 54.16 26.43C53.19 26.43 52.39 25.63 52.39 24.66Z"
    fill="rgba(191, 192, 191, 1)" />
  <path
    d="M54.84 32.45C54.84 31.49 55.64 30.68 56.61 30.68C57.58 30.68 58.38 31.48 58.38 32.45C58.38 33.42 57.58 34.22 56.61 34.22C55.64 34.22 54.84 33.42 54.84 32.45Z"
    fill="rgba(191, 192, 191, 1)" />
  <path
    d="M0.130005 70.04C0.130005 69.08 0.929994 68.27 1.89999 68.27C2.86999 68.27 3.67001 69.07 3.67001 70.04C3.67001 71.01 2.86999 71.81 1.89999 71.81C0.929994 71.81 0.130005 71 0.130005 70.04Z"
    fill="rgba(191, 192, 191, 1)" />
  <path
    d="M5.72003 76.33C5.72003 75.37 6.52002 74.56 7.49002 74.56C8.46002 74.56 9.26004 75.36 9.26004 76.33C9.26004 77.3 8.46002 78.1 7.49002 78.1C6.52002 78.1 5.72003 77.29 5.72003 76.33Z"
    fill="rgba(191, 192, 191, 1)" />
  <path
    d="M11.42 69.74C11.42 68.78 12.22 67.97 13.19 67.97C14.16 67.97 14.96 68.77 14.96 69.74C14.96 70.71 14.16 71.51 13.19 71.51C12.22 71.51 11.42 70.71 11.42 69.74Z"
    fill="rgba(191, 192, 191, 1)" />
  <path
    d="M6.69005 71.48C6.12005 70.75 6.22005 69.54 7.01005 69C7.22005 68.85 7.44006 68.71 7.67006 68.57C8.50006 68.08 9.60004 68.37 10.09 69.21C10.58 70.05 10.2901 71.14 9.45006 71.63C9.36006 71.68 9.28006 71.73 9.20006 71.78C9.19006 71.79 9.18006 71.8 9.17006 71.8C8.83006 72.03 8.44004 72.16 8.06004 72.16C7.55004 72.16 7.04005 71.94 6.69005 71.48Z"
    fill="rgba(191, 192, 191, 1)" />
  <path
    d="M15.64 61.97C15.64 61.01 16.44 60.2 17.41 60.2C18.38 60.2 19.18 61 19.18 61.97C19.18 62.94 18.38 63.74 17.41 63.74C16.44 63.74 15.64 62.93 15.64 61.97Z"
    fill="rgba(191, 192, 191, 1)" />
  <path
    d="M35.4 47.83C35.4 46.87 36.2 46.06 37.17 46.06C38.14 46.06 38.94 46.86 38.94 47.83C38.94 48.8 38.14 49.6 37.17 49.6C36.2 49.6 35.4 48.8 35.4 47.83Z"
    fill="rgba(191, 192, 191, 1)" />
  <path
    d="M36.02 39.29C36.02 38.33 36.82 37.52 37.79 37.52C38.76 37.52 39.56 38.32 39.56 39.29C39.56 40.26 38.76 41.06 37.79 41.06C36.82 41.06 36.02 40.25 36.02 39.29Z"
    fill="rgba(191, 192, 191, 1)" />
  <path
    d="M36.62 36.62C36.62 35.66 37.42 34.85 38.39 34.85C39.36 34.85 40.16 35.65 40.16 36.62C40.16 37.59 39.36 38.39 38.39 38.39C37.42 38.39 36.62 37.58 36.62 36.62Z"
    fill="rgba(191, 192, 191, 1)" />
  <path
    d="M43.9 31.51C43.9 30.55 44.7 29.74 45.67 29.74C46.64 29.74 47.44 30.54 47.44 31.51C47.44 32.48 46.64 33.28 45.67 33.28C44.7 33.28 43.9 32.48 43.9 31.51Z"
    fill="rgba(191, 192, 191, 1)" />
  <path
    d="M40.45 35.44C39.79 34.78 39.74 33.58 40.45 32.94C40.75 32.66 41.05 32.38 41.4 32.15C42.22 31.63 43.35 31.98 43.83 32.79C44.31 33.61 44.03 34.61 43.29 35.15C43.32 35.13 43.34 35.1 43.37 35.08C43.34 35.11 43.32 35.13 43.28 35.16C43.25 35.18 43.22 35.2 43.19 35.22C43.19 35.22 43.18 35.22 43.18 35.23C43.22 35.21 43.25 35.19 43.28 35.17C43.31 35.15 43.34 35.13 43.37 35.11C43.32 35.15 43.27 35.18 43.22 35.22C43.13 35.3 43.05 35.38 42.96 35.46C42.6 35.79 42.13 35.97 41.67 35.97C41.23 35.94 40.8 35.78 40.45 35.44Z"
    fill="rgba(191, 192, 191, 1)" />
  <path
    d="M43.78 30.03C43.78 29.07 44.58 28.26 45.55 28.26C46.52 28.26 47.32 29.06 47.32 30.03C47.32 31 46.52 31.8 45.55 31.8C44.58 31.8 43.78 30.99 43.78 30.03Z"
    fill="rgba(191, 192, 191, 1)" />
  <path
    d="M50.28 24.8C50.28 23.84 51.08 23.03 52.05 23.03C53.02 23.03 53.82 23.83 53.82 24.8C53.82 25.77 53.02 26.57 52.05 26.57C51.08 26.57 50.28 25.76 50.28 24.8Z"
    fill="rgba(191, 192, 191, 1)" />
  <path
    d="M57.53 17.43C57.53 16.47 58.33 15.66 59.3 15.66C60.27 15.66 61.07 16.46 61.07 17.43C61.07 18.4 60.27 19.2 59.3 19.2C58.33 19.2 57.53 18.39 57.53 17.43Z"
    fill="rgba(191, 192, 191, 1)" />
  <path
    d="M65.25 13.17C65.25 12.21 66.05 11.4 67.02 11.4C67.99 11.4 68.79 12.2 68.79 13.17C68.79 14.14 67.99 14.94 67.02 14.94C66.05 14.94 65.25 14.14 65.25 13.17Z"
    fill="rgba(191, 192, 191, 1)" />
  <path
    d="M61.3 18.8C61.3 17.84 62.1 17.03 63.07 17.03C64.04 17.03 64.84 17.83 64.84 18.8C64.84 19.77 64.04 20.57 63.07 20.57C62.1 20.57 61.3 19.76 61.3 18.8Z"
    fill="rgba(191, 192, 191, 1)" />
  <path
    d="M65.5 24.53C65.5 23.57 66.3 22.76 67.27 22.76C68.24 22.76 69.04 23.56 69.04 24.53C69.04 25.5 68.24 26.3 67.27 26.3C66.3 26.3 65.5 25.49 65.5 24.53Z"
    fill="rgba(191, 192, 191, 1)" />
  <path
    d="M75.5 29.83C75.5 28.87 76.3 28.06 77.27 28.06C78.24 28.06 79.04 28.86 79.04 29.83C79.04 30.8 78.24 31.6 77.27 31.6C76.3 31.6 75.5 30.8 75.5 29.83Z"
    fill="rgba(191, 192, 191, 1)" />
  <path
    d="M44.47 10.9C44.47 9.94002 45.27 9.13 46.24 9.13C47.21 9.13 48.01 9.93002 48.01 10.9C48.01 11.87 47.21 12.67 46.24 12.67C45.27 12.67 44.47 11.87 44.47 10.9Z"
    fill="rgba(191, 192, 191, 1)" />
</svg>