<?xml version="1.0" encoding="UTF-8" standalone="yes"?>
<svg width="160" height="213" viewBox="-40 -40 240 293" fill="none" xmlns="http://www.w3.org/2000/svg">
  <path fill-rule="evenodd" clip-rule="evenodd"
    d="M155.317 1.06338C154.337 2.04355 153.518 3.93676 152.78 6.931C152.122 9.50899 147.53 19.1899 143.528 26.3868C140.199 32.3485 139.715 33.5837 140.427 34.3356C140.856 34.7653 141.018 34.7653 141.34 34.4028C141.729 34.0134 145.583 28.2398 147.959 24.5205C148.51 23.6074 149.007 23.0166 149.007 23.1778C149.007 24.2922 140.4 53.7781 137.594 62.1968C132.021 78.9135 125.402 92.4077 121.226 95.4154C117.507 98.1142 115.331 95.2811 115.331 87.7619C115.331 85.7747 115.533 82.8342 115.761 81.2095C116.218 77.8796 115.989 77.0337 114.553 76.4832C113.411 76.0535 112.136 76.7384 111.451 78.1482C111.156 78.7658 109.692 82.7402 108.255 86.9429C101.703 105.781 97.6613 113.958 91.8339 120.094C89.6453 122.444 86.1677 125.022 84.3416 125.734C83.5225 126.029 83.4554 125.989 83.63 125.532C84.0865 124.364 88.034 110.736 88.6785 108.131C90.9611 98.9064 91.9413 91.1858 91.4177 86.0701C91.0954 82.3911 90.6657 81.5452 88.6785 80.1756C86.3019 78.5107 82.1529 79.7862 78.7425 83.2101C75.2245 86.7012 72.0557 94.2606 70.431 103.096C69.4911 108.117 69.2629 115.999 69.9477 119.235C70.9279 123.8 73.2776 127.318 76.6613 129.278C77.4803 129.735 78.1651 130.124 78.1919 130.165C78.3262 130.232 72.2303 146.331 70.0148 151.769C62.3613 170.58 55.057 184.007 46.2219 195.675C40.1931 203.597 34.4597 208.162 28.5249 209.693C20.3478 211.815 12.3855 206.82 7.72629 196.682C2.15403 184.531 1.56324 168.096 5.96734 146.613C7.65916 138.369 9.00187 134.81 10.2372 135.307C10.6668 135.468 11.3113 137.429 11.9693 140.517C12.2244 141.752 13.2448 141.591 13.3657 140.289C13.5268 138.919 12.5198 135.562 11.5664 134.287C8.59904 130.339 5.40341 137.281 2.82539 153.219C1.13357 163.84 0.542757 172.03 0.99928 177.723C2.34199 193.07 6.86696 203.637 14.6547 209.505C17.4207 211.559 19.9316 212.432 23.6777 212.66C41.6701 213.668 60.1458 188.599 79.5749 136.811C80.6222 134.045 81.5622 131.494 81.6964 131.172C81.8307 130.876 82.247 130.621 82.6766 130.621C84.2745 130.621 87.8327 129.225 90.1018 127.694C96.9497 123.129 102.817 114.173 108.618 99.4972C109.692 96.7983 110.672 94.3143 110.833 93.9518C111.035 93.4281 111.196 93.6967 111.679 95.2543C112.364 97.4429 113.801 99.4569 115.399 100.531C116.996 101.605 119.642 101.578 121.884 100.437C123.911 99.4301 126.677 96.9863 128.275 94.8246C132.679 88.7958 139.259 73.4756 143.918 58.3164C145.878 52.0594 150.605 35.8529 151.155 33.6374C151.316 32.8855 151.518 33.5703 151.934 36.7391C152.874 43.748 153.599 47.1988 154.243 47.8567C155.089 48.7026 156.271 48.6355 157.345 47.7224L158.231 46.9437L157.385 41.1029C156.217 33.2481 155.855 29.0051 155.855 23.1778C155.855 14.5442 156.7 8.44826 158.433 4.7961C159.601 2.32552 159.668 1.76158 158.795 0.88882C157.922 0.0160613 156.351 0.0429088 155.344 1.04994L155.317 1.06338ZM87.4835 85.1571C87.9132 87.1174 87.5104 94.7709 86.7719 99.0138C85.3755 106.936 80.1523 125.747 79.3735 125.747C79.1721 125.747 78.2591 125.089 77.3863 124.31C74.231 121.477 73.0225 116.845 73.667 110.36C74.58 101.726 76.1107 95.5228 78.6216 90.3533C80.8639 85.721 83.1466 83.6129 85.7649 83.7741C87.1613 83.868 87.2016 83.9084 87.497 85.1705L87.4835 85.1571Z"
    fill="rgba(191, 192, 191, 1)" />
</svg>