<?xml version="1.0" encoding="UTF-8" standalone="yes"?>
<svg width="86" height="83" viewBox="-40 -40 166 163" fill="none" xmlns="http://www.w3.org/2000/svg">
  <path fill-rule="evenodd" clip-rule="evenodd"
    d="M0.75 79.61C0.45 80 0.26001 80.39 0.26001 80.89C0.26001 81.85 1.06 82.66 2 82.66C2.63 82.66 3.19 82.32 3.5 81.82C4.0149 81.287 4.57065 80.7867 5.12293 80.2895C5.18203 80.2363 5.24109 80.1832 5.30005 80.13C5.91429 79.5955 6.53731 79.0675 7.15985 78.54C7.86502 77.9425 8.56956 77.3455 9.26001 76.74C10.6799 75.5036 12.0905 74.2485 13.4918 72.9839C13.4925 72.9833 13.4932 72.9828 13.4939 72.9823C13.5226 72.9612 13.5462 72.9438 13.5699 72.9201C13.576 72.9155 13.5819 72.9107 13.5876 72.9057C13.5914 72.9027 13.5952 72.8993 13.5988 72.8956C13.6078 72.8872 13.6164 72.8786 13.625 72.87C13.6425 72.8525 13.6601 72.835 13.6801 72.82L13.7323 72.7738C14.3148 72.2592 14.8971 71.7449 15.47 71.24C15.5315 71.1785 15.5977 71.1216 15.6622 71.0663C15.6713 71.0584 15.6804 71.0506 15.6894 71.0429C15.6812 71.0502 15.6731 71.0576 15.665 71.065C15.6585 71.0709 15.652 71.0768 15.6455 71.0827C15.6237 71.1018 15.6018 71.1209 15.58 71.14C15.6029 71.1209 15.6244 71.1018 15.6455 71.0827C16.7674 70.1022 17.9179 69.1503 19.0664 68.2C19.5453 67.8037 20.0239 67.4077 20.5 67.01C21.0283 66.5624 21.5727 66.1256 22.1135 65.6917C22.3098 65.5342 22.5056 65.3771 22.7 65.22C22.905 65.055 23.1075 64.89 23.31 64.725C23.5125 64.56 23.715 64.395 23.92 64.23C24.36 63.87 24.8 63.47 25.08 62.97C25.39 62.41 25.56 61.78 25.38 61.14C25.15 60.32 24.41 59.78 23.61 59.6C22.07 59.26 20.45 59.34 18.88 59.54C16.95 59.79 15.02 60.04 13.09 60.24C11.23 60.43 9.39006 60.75 7.56006 61.11C7.54006 61.115 7.52253 61.1175 7.505 61.12C7.48748 61.1225 7.46995 61.125 7.44995 61.13C8.34995 60.29 9.24 59.45 10.13 58.6C10.3143 58.4236 10.4982 58.2472 10.682 58.071C11.4258 57.3576 12.1683 56.6456 12.9301 55.9399C13.7443 55.1845 14.5796 54.4432 15.4124 53.7041C15.5718 53.5627 15.731 53.4214 15.89 53.28C15.89 53.2805 15.89 53.281 15.8899 53.2815C15.8866 53.2844 15.8833 53.2872 15.88 53.29C15.88 53.29 15.889 53.2901 15.8899 53.2815C15.9108 53.2634 15.9317 53.2444 15.9528 53.2252C15.9851 53.1959 16.0181 53.166 16.0528 53.1373C16.0519 53.1381 16.0511 53.1389 16.0504 53.1397C16.052 53.1382 16.0533 53.137 16.055 53.1355C16.0697 53.1234 16.0846 53.1115 16.1 53.1C16.0923 53.1038 16.0846 53.1092 16.0775 53.1149C16.1333 53.0639 16.1891 53.0145 16.245 52.965C16.31 52.9076 16.3749 52.8501 16.4399 52.79C16.4293 52.7954 16.4215 52.8006 16.4151 52.8059C16.5097 52.718 16.6081 52.6301 16.7079 52.5422C16.7052 52.5448 16.7026 52.5474 16.7 52.5501C16.7311 52.5224 16.7619 52.495 16.7925 52.4679C16.8174 52.4461 16.8423 52.4243 16.8672 52.4025L16.8697 52.4002C16.8643 52.4048 16.8588 52.4093 16.8534 52.4139C16.8907 52.3808 16.9278 52.3479 16.965 52.315C17.0525 52.2375 17.14 52.16 17.23 52.08C17.285 52.03 17.34 51.9825 17.395 51.935C17.45 51.8875 17.5051 51.84 17.5601 51.79L17.53 51.82C17.63 51.74 17.7201 51.66 17.8101 51.58C17.8201 51.58 17.83 51.5701 17.84 51.5601C17.85 51.5551 17.8575 51.5476 17.865 51.54C17.8725 51.5325 17.88 51.525 17.89 51.52C18.7202 50.7863 19.5303 50.0295 20.3402 49.2729C21.0425 48.6168 21.7448 47.9608 22.46 47.32C22.9725 46.8576 23.4876 46.3991 24.0026 45.9407C24.9243 45.1203 25.8454 44.3004 26.75 43.46C27.6964 42.5736 28.6338 41.6783 29.5713 40.783C30.0405 40.335 30.5097 39.8869 30.98 39.4399C33.75 36.7999 36.5801 34.2201 39.4301 31.6801C39.9837 31.1981 40.5415 30.7203 41.1008 30.2413C41.4003 29.9848 41.7001 29.728 42 29.47C42.1106 29.376 42.2213 29.2812 42.3322 29.1862C42.7526 28.8259 43.1769 28.4623 43.62 28.13C43.61 28.215 43.6 28.3025 43.59 28.39C43.58 28.4775 43.5701 28.565 43.5601 28.65C43.4201 29.86 43.3 31.07 43.21 32.28C43.1081 33.58 43.0494 34.8872 42.9907 36.193C42.9514 37.0668 42.9121 37.9401 42.86 38.8101C42.8125 39.394 42.7642 39.9779 42.7159 40.5619C42.5202 42.9283 42.3244 45.2959 42.1801 47.6701C42.167 47.9047 42.1535 48.1395 42.1399 48.3746C42.0701 49.5825 42 50.7963 42 52.01C42 53.4 42.06 54.7801 42.15 56.1701C42.24 57.5801 42.3399 58.98 42.4399 60.38V60.35C42.4699 60.7 42.48 61.06 42.47 61.41C42.44 61.71 42.41 62.02 42.45 62.32C42.6199 63.48 43.8399 64.21 44.9399 63.75C45.5176 63.5 45.8649 62.9897 46.206 62.4885C46.2605 62.4084 46.3149 62.3285 46.37 62.25C46.73 61.75 47.1 61.26 47.48 60.78C49.08 58.73 50.72 56.7 52.38 54.7C53.0723 53.9202 53.7858 53.1618 54.5013 52.4014C54.7676 52.1183 55.0342 51.8349 55.3 51.5501C56.3609 50.4107 57.3927 49.2616 58.4145 48.0934C58.4326 48.0734 58.4508 48.053 58.4689 48.0314C58.7775 47.6818 59.0802 47.3372 59.3827 46.9865C60.2961 45.9672 61.2209 44.9595 62.1434 43.9541C62.3925 43.6826 62.6415 43.4113 62.89 43.14C63.3393 42.6506 63.7806 42.1563 64.2216 41.6624C64.8798 40.9251 65.5373 40.1886 66.22 39.47C67.2291 38.4066 68.2435 37.3467 69.258 36.2867C70.6764 34.8047 72.095 33.3224 73.5 31.83C74.85 30.41 76.17 28.97 77.47 27.51C78.03 26.88 78.6 26.25 79.17 25.63C79.48 25.28 79.74 24.97 79.9 24.52C80.05 24.08 79.9999 23.56 79.8199 23.14C79.5899 22.6 79.16 22.21 78.63 21.99C78.2287 21.8205 77.7717 21.7943 77.337 21.7693C77.2843 21.7663 77.232 21.7633 77.1801 21.76C76.5603 21.72 75.9397 21.68 75.33 21.72C74.57 21.77 73.83 21.86 73.08 21.97C71.27 22.24 69.4799 22.6 67.6899 22.97C67.5879 22.9922 67.4879 23.0124 67.3889 23.0324C67.2648 23.0574 67.1424 23.0822 67.02 23.11C67.24 22.85 67.4575 22.59 67.675 22.33C67.8925 22.07 68.11 21.8101 68.33 21.5501C68.9355 20.8184 69.535 20.0838 70.1339 19.3499C71.4115 17.7843 72.6863 16.2223 74.0099 14.7005C75.2937 13.2603 76.587 11.8206 77.89 10.4C79.1226 9.04821 80.4243 7.78527 81.7755 6.56218C81.8332 6.51169 81.8909 6.46128 81.9487 6.41093C81.9593 7.15528 81.9564 7.89087 81.9399 8.64C81.7799 10.49 81.56 12.34 81.23 14.17C81.2242 14.1988 81.2151 14.2243 81.2066 14.2483C81.2002 14.2661 81.1942 14.2831 81.1899 14.3C81.0165 14.7474 80.8098 15.178 80.6001 15.6149C80.5801 15.6565 80.5601 15.6982 80.54 15.74C80.4361 15.9533 80.3471 16.1727 80.2584 16.3915C80.1849 16.5726 80.1115 16.7534 80.03 16.93C79.65 17.81 80.1 18.88 80.98 19.25C81.2 19.35 81.43 19.39 81.65 19.37C82.34 19.37 83.01 18.95 83.3 18.29C83.3718 18.1247 83.4416 17.9593 83.5113 17.7942C83.665 17.4302 83.818 17.0677 83.99 16.7099C84.0047 16.6796 84.0195 16.6493 84.0342 16.6191C84.1992 16.2807 84.3615 15.948 84.49 15.59C84.7432 14.9119 84.8363 14.1737 84.9273 13.4518C84.9477 13.2901 84.968 13.1292 84.99 12.97C85.0014 12.8875 85.0128 12.805 85.0243 12.7226C85.2334 11.215 85.4426 9.70648 85.49 8.17998C85.52 7.31998 85.53 6.45997 85.46 5.60997C85.423 5.09327 85.3698 4.58203 85.3163 4.06819C85.2973 3.88591 85.2783 3.7033 85.26 3.52001C85.3904 3.05572 85.2759 2.57241 85.0144 2.18217C84.93 1.5112 84.5123 0.986152 83.9 0.680002C83.35 0.410002 82.72 0.509992 82.17 0.669992C81.63 0.809992 81.0999 0.989992 80.5699 1.16999C78.3599 1.88999 76.1401 2.63998 73.9301 3.40998C73.9618 3.39807 73.992 3.38774 74.0213 3.37773C74.0656 3.36255 74.1078 3.34811 74.15 3.33003C73.42 3.59003 72.6899 3.84001 71.95 4.06001C71.781 4.10958 71.6115 4.15814 71.4419 4.20671C70.859 4.37369 70.2755 4.54085 69.71 4.75001C68.85 5.07001 68.03 5.46002 67.21 5.89002C66.9518 6.02339 66.6974 6.16046 66.4435 6.29725C66.1073 6.47842 65.7719 6.65909 65.4301 6.83003C65.4001 6.84503 65.37 6.85752 65.34 6.87C65.31 6.88249 65.28 6.89498 65.25 6.90998C64.85 6.93998 64.47 7.10998 64.16 7.40998C63.49 8.07998 63.46 9.24998 64.16 9.90998C64.67 10.4 65.4 10.58 66.08 10.37C66.35 10.29 66.61 10.18 66.86 10.06C67.4433 9.77891 68.0167 9.46818 68.5872 9.15906C68.8285 9.02831 69.0693 8.89784 69.3101 8.77003C69.8801 8.49003 70.4601 8.24003 71.05 8.02003C71.3431 7.93011 71.6362 7.8413 71.9292 7.7525C72.5161 7.57464 73.103 7.39678 73.6899 7.21003C74.3099 7.01004 74.9299 6.79227 75.5499 6.5745C75.8502 6.46899 76.1506 6.36347 76.451 6.25998C76.4553 6.25969 76.4596 6.25768 76.4639 6.25554C76.4693 6.2537 76.4746 6.25185 76.48 6.25001C76.4799 6.25001 76.48 6.25001 76.48 6.25001C76.5721 6.21901 76.664 6.18668 76.7568 6.15411C76.8959 6.10531 77.0363 6.05601 77.1801 6.01002C74.8102 8.36033 72.6129 10.8928 70.4286 13.4103L70.29 13.57C69.2394 14.7816 68.2319 16.0291 67.2248 17.276C67.0433 17.5007 66.8618 17.7255 66.6801 17.95C65.5501 19.34 64.4 20.72 63.23 22.08C63.1141 22.21 62.9983 22.3405 62.8825 22.471C62.1793 23.2638 61.4741 24.0588 60.71 24.78C60.54 24.88 60.38 25.02 60.26 25.2C59.85 25.8 59.75 26.5401 60.13 27.1801C60.44 27.7001 61.05 28.0901 61.66 28.0601C61.7399 28.0601 61.8197 28.0501 61.8995 28.0401C62.0187 28.0218 62.1384 27.9949 62.2498 27.952L62.13 28H62.15C62.115 28.005 62.0825 28.0125 62.05 28.02C62.0175 28.0275 61.985 28.035 61.95 28.04C62.5129 27.9808 63.0595 27.8062 63.5977 27.6344C63.7861 27.5742 63.9734 27.5144 64.16 27.46C65.27 27.14 66.39 26.83 67.53 26.6C67.4936 26.6091 67.4571 26.6161 67.4216 26.623C67.3792 26.6312 67.3382 26.6391 67.3 26.65C67.515 26.605 67.73 26.5625 67.945 26.52C68.16 26.4775 68.375 26.435 68.59 26.39C68.5519 26.4009 68.5109 26.4088 68.4686 26.4169C68.433 26.4238 68.3965 26.4308 68.36 26.44C68.7661 26.3603 69.173 26.2783 69.5805 26.1963C71.2704 25.856 72.972 25.5133 74.6801 25.32C73.5401 26.58 72.39 27.8301 71.23 29.0601C70.7859 29.5303 70.3417 30.0016 69.8973 30.4733C68.9807 31.446 68.0626 32.4203 67.14 33.39C66.7882 33.7533 66.4348 34.1149 66.0813 34.4765C65.199 35.3791 64.3167 36.2818 63.46 37.21C62.79 37.94 62.125 38.675 61.46 39.41C60.795 40.145 60.13 40.88 59.46 41.61C58.23 42.95 57 44.3101 55.8 45.6801L55.83 45.65C55.815 45.67 55.7975 45.6875 55.78 45.705C55.7708 45.7142 55.7616 45.7234 55.7528 45.7329C55.7536 45.7319 55.7543 45.731 55.755 45.73C55.7625 45.72 55.77 45.71 55.78 45.7C55.75 45.73 55.7101 45.7701 55.6801 45.8101L55.71 45.78C55.545 45.97 55.3775 46.16 55.21 46.35C55.0586 46.5217 54.9072 46.6934 54.7577 46.8651C54.7473 46.8767 54.7369 46.8884 54.7265 46.9005C53.9827 47.7365 53.2153 48.5516 52.4477 49.367C51.1377 50.7585 49.8268 52.151 48.63 53.65C48.3384 54.0153 48.0469 54.3814 47.755 54.748C47.0959 55.5757 46.4354 56.4052 45.77 57.23L45.7693 57.2179C45.7295 56.5719 45.6898 55.9261 45.65 55.29C45.47 52.23 45.63 49.19 45.83 46.13V46.15C45.9453 44.4708 46.0866 42.802 46.2276 41.136C46.2823 40.4904 46.3369 39.8452 46.39 39.2C46.5172 37.6879 46.5845 36.1708 46.6518 34.6522C46.6797 34.0217 46.7077 33.3908 46.74 32.76C46.85 31.31 46.9901 29.8601 47.1801 28.4201C47.1993 28.2716 47.219 28.1238 47.2386 27.9766C47.3206 27.3601 47.4015 26.7515 47.45 26.13C47.5 25.49 47.43 24.94 47.05 24.41C46.33 23.37 44.83 23.4 43.78 23.83C43.37 24 42.99 24.24 42.62 24.49C42 24.9 41.42 25.33 40.85 25.79C38.358 27.8094 35.9915 29.9764 33.6301 32.1388C33.2434 32.4929 32.8569 32.8468 32.47 33.2C30.97 34.57 29.48 35.96 28 37.36C27.5481 37.7874 27.0998 38.2197 26.6514 38.6523C25.8198 39.4543 24.9876 40.2569 24.13 41.03C23.7721 41.3504 23.4135 41.6702 23.0549 41.99C21.981 42.9477 20.907 43.9054 19.85 44.88C18.44 46.2 17.02 47.5201 15.58 48.8101C15.5843 48.8079 15.5886 48.8053 15.5929 48.8023C15.5536 48.8371 15.5143 48.8711 15.475 48.905C15.4731 48.9067 15.4711 48.9084 15.4692 48.9101C15.4728 48.9068 15.4764 48.9034 15.48 48.9C15.4559 48.9201 15.4335 48.9402 15.4113 48.9602C15.3776 48.9896 15.3438 49.0194 15.3101 49.0501C15.3401 49.0251 15.3675 49 15.395 48.975C15.4004 48.9701 15.4059 48.9652 15.4113 48.9602C15.4306 48.9434 15.4499 48.9268 15.4692 48.9101C15.3228 49.0463 15.1764 49.1732 15.03 49.3001C15.0332 49.2937 15.0375 49.2883 15.042 49.2836C15.0481 49.2784 15.0543 49.2732 15.0604 49.2681C15.0598 49.2685 15.0593 49.2689 15.0587 49.2693C15.0534 49.2735 15.0475 49.278 15.042 49.2836C14.8639 49.4344 14.6942 49.5851 14.5246 49.7359C14.5229 49.7373 14.5214 49.7386 14.52 49.74L14.5228 49.7375C14.5234 49.737 14.524 49.7365 14.5246 49.7359C14.5291 49.7323 14.5346 49.7286 14.54 49.725C14.5475 49.72 14.5551 49.715 14.5601 49.71C14.4985 49.7715 14.4323 49.8283 14.3678 49.8837C14.338 49.9093 14.3085 49.9347 14.28 49.96C14.185 50.045 14.0875 50.1325 13.99 50.22C13.8925 50.3075 13.795 50.395 13.7 50.48C13.7012 50.4789 13.7025 50.4778 13.7038 50.4768C13.6859 50.4928 13.6679 50.5089 13.65 50.525C13.6313 50.5417 13.6126 50.5585 13.5939 50.5753C11.616 52.3037 9.70809 54.1019 7.80005 55.91C7.39407 56.2919 6.98971 56.6754 6.58501 57.0592C5.98289 57.6302 5.38002 58.2019 4.77002 58.77C4.54177 58.9831 4.30902 59.1948 4.07535 59.4074C3.38764 60.033 2.692 60.6658 2.07996 61.36C2.03486 61.4099 1.98912 61.46 1.9431 61.5103C1.50956 61.985 1.05177 62.4862 0.880005 63.11C0.720005 63.69 0.809951 64.38 1.19995 64.84C1.66995 65.41 2.30003 65.63 3.03003 65.57C3.33244 65.544 3.63479 65.4808 3.93073 65.419C3.9773 65.4092 4.02372 65.3995 4.06995 65.39C4.817 65.2465 5.56051 65.0941 6.30345 64.9418C7.32077 64.7332 8.33704 64.5249 9.35999 64.34C10.28 64.17 11.2 64 12.13 63.89C12.4278 63.858 12.7246 63.827 13.021 63.796C13.6502 63.7303 14.2778 63.6647 14.91 63.59C15.6389 63.5055 16.3678 63.4132 17.0966 63.3209C18.0077 63.2054 18.9188 63.09 19.83 62.99L19.6304 63.1516C18.9085 63.7364 18.1942 64.3148 17.48 64.91C17.1775 65.1621 16.8741 65.4138 16.5705 65.6656C15.4848 66.5661 14.3973 67.4681 13.342 68.3971L13.35 68.39C13.3215 68.4137 13.2953 68.4375 13.2692 68.4612L13.265 68.465C13.2367 68.49 13.2083 68.515 13.1801 68.54L11.48 70.04L11.3109 70.1892C11.3706 70.1395 11.4302 70.0898 11.48 70.04C11.4118 70.1082 11.339 70.1717 11.2679 70.2338C11.2347 70.2627 11.2019 70.2913 11.17 70.32L11.1801 70.3101C10.6154 70.8031 10.0633 71.3088 9.51389 71.8121C9.37247 71.9416 9.23121 72.071 9.08997 72.2C9.10997 72.185 9.12746 72.17 9.14496 72.155C9.16245 72.14 9.17995 72.125 9.19995 72.11C9.16995 72.14 9.12997 72.18 9.08997 72.21C9.08349 72.2229 9.07286 72.2317 9.06074 72.2417C9.05414 72.2472 9.04709 72.253 9.04004 72.26C9.05004 72.255 9.05752 72.2475 9.065 72.24C9.07248 72.2325 9.07997 72.225 9.08997 72.22C8.37497 72.84 7.65499 73.4575 6.93501 74.075C6.21502 74.6925 5.49503 75.3101 4.78003 75.9301C3.95003 76.6401 3.12996 77.35 2.32996 78.08C2.19201 78.2075 2.04933 78.3337 1.90579 78.4606C1.49782 78.8214 1.08288 79.1883 0.75 79.61ZM54.7452 46.8795C54.7494 46.8747 54.7536 46.8699 54.7577 46.8651C54.7629 46.8593 54.7682 46.8536 54.7734 46.8478C54.764 46.8584 54.7546 46.8689 54.7452 46.8795ZM54.7452 46.8795C54.7335 46.893 54.7217 46.9065 54.71 46.9201C54.7155 46.9134 54.721 46.9069 54.7265 46.9005C54.7328 46.8935 54.739 46.8865 54.7452 46.8795ZM76.465 6.25497C76.46 6.25666 76.455 6.25834 76.45 6.26002C76.4503 6.26002 76.4507 6.26001 76.451 6.25998C76.4553 6.2585 76.4596 6.25702 76.4639 6.25554C76.4643 6.25537 76.4647 6.25515 76.465 6.25497ZM81.7072 6.62211C81.6815 6.64472 81.6557 6.66736 81.63 6.69001C81.6572 6.66737 81.6823 6.64475 81.7072 6.62211ZM58.4635 48.0374C58.4472 48.0561 58.4309 48.0748 58.4145 48.0934C58.4086 48.1 58.4027 48.1065 58.3968 48.113C58.4191 48.0878 58.4413 48.0626 58.4635 48.0374ZM58.4635 48.0374C58.4657 48.0349 58.4678 48.0325 58.47 48.03C58.4696 48.0305 58.4692 48.0309 58.4689 48.0314C58.4671 48.0334 58.4653 48.0354 58.4635 48.0374ZM13.5988 72.8956C13.6031 72.8911 13.607 72.886 13.61 72.88L13.5699 72.9201C13.573 72.917 13.5769 72.914 13.5812 72.9107C13.5833 72.9091 13.5854 72.9075 13.5876 72.9057C13.5914 72.9027 13.5952 72.8993 13.5988 72.8956Z"
    fill="rgba(191, 192, 191, 1)" />
</svg>