<?xml version="1.0" encoding="UTF-8" standalone="yes"?>
<svg width="94" height="160" viewBox="-40 -40 174 240" fill="none" xmlns="http://www.w3.org/2000/svg">
  <path fill-rule="evenodd" clip-rule="evenodd"
    d="M67.5379 0.207123C66.2245 0.629536 63.1754 2.34265 54.0283 7.88096C41.8789 15.2263 37.6103 18.0424 28.0175 25.153C23.7722 28.3211 17.5334 32.8268 14.1794 35.197C4.28174 42.1669 2.35848 43.8096 0.927773 46.4849C-0.456029 49.0897 -0.291841 52.0466 1.42032 55.4494C2.87449 58.3124 7.65916 64.9537 12.0217 70.1635C14.5547 73.1673 15.2818 73.9887 23.1859 82.5073C29.9642 89.8057 34.0452 94.5461 38.783 100.554C45.6551 109.284 50.4398 114.775 60.1499 125.077C69.3674 134.863 77.8813 144.884 77.4825 145.517C77.1542 146.081 74.5273 145.588 71.5252 144.367C65.5912 141.997 62.0966 141.129 59.3524 141.317C53.5357 141.739 52.0347 148.099 57.1242 150.821C58.7895 151.713 61.7917 152.604 64.3716 153.003C65.7085 153.191 67.1627 153.684 69.4143 154.646C79.6169 159.082 85.9026 160.536 88.9048 159.175C90.4762 158.471 91.6958 157.275 92.4464 155.702C93.0093 154.505 93.1031 153.989 93.1031 152.346C93.1031 149.695 91.9304 142.279 90.6639 136.928C90.101 134.464 89.1863 130.404 88.6468 127.893C88.1308 125.382 87.6382 123.129 87.5679 122.895C87.3803 122.285 86.5594 122.402 86.3014 123.082C85.6681 124.772 84.3781 133.291 84.0497 138.055C83.9559 139.322 83.8152 140.308 83.6979 140.284C83.6041 140.237 82.5252 139.04 81.3056 137.632C77.2246 132.868 69.813 124.772 65.2863 120.149C55.4121 110.011 50.7681 104.848 44.154 96.5409C37.7276 88.515 33.5527 83.7042 23.5612 72.9796C18.9172 68.0045 17.0174 65.822 13.8511 61.8325C9.2306 56.0596 6.43954 51.9528 6.18154 50.5682C5.85318 48.8081 7.02589 47.6582 16.994 40.1721C21.3799 36.8867 27.6422 32.0759 30.9024 29.5179C39.2052 22.9705 42.1135 20.8584 51.4718 14.663C55.9984 11.6592 61.346 8.04525 63.3865 6.61374C68.007 3.35177 68.9217 2.812 69.8365 2.812C71.0795 2.812 71.4548 1.54476 70.4697 0.582596C69.8834 -0.0275569 68.781 -0.168356 67.5379 0.207123Z"
    fill="rgba(191, 192, 191, 1)" />
</svg>