<?xml version="1.0" encoding="UTF-8" standalone="yes"?>
<svg width="83" height="78" viewBox="-40 -40 163 158" fill="none" xmlns="http://www.w3.org/2000/svg">
  <path
    d="M11.62 65.27C10.9701 64.6201 10.9 63.4101 11.62 62.77L11.7662 62.6427C12.176 62.2856 12.582 61.9318 13.02 61.61C13.6101 61.18 14.2101 60.7501 14.8101 60.33C16.0001 59.52 17.16 58.7 18.27 57.79C18.4672 57.6128 18.6609 57.4331 18.8528 57.2522C19.0609 57.056 19.2668 56.8584 19.4728 56.6608L19.4746 56.6592C19.9355 56.2169 20.3962 55.7747 20.88 55.35C21.3601 54.92 21.85 54.51 22.36 54.13C22.8334 53.775 23.34 53.4531 23.8418 53.1342L23.99 53.04C24.8097 52.4708 25.5873 51.8498 26.3651 51.2286C26.9537 50.7584 27.5426 50.2881 28.15 49.84C28.8905 49.2871 29.6401 48.7504 30.389 48.2143L30.3953 48.2099C31.202 47.6324 32.0077 47.0556 32.8 46.46C33.6639 45.8075 34.4891 45.1048 35.3141 44.4022C35.8165 43.9743 36.319 43.5464 36.8299 43.13C37.2615 42.7788 37.7043 42.4464 38.1468 42.1144C38.4222 41.9077 38.6976 41.7011 38.97 41.49C39.4364 41.1356 39.8951 40.7695 40.3533 40.4038L40.3558 40.4018C40.6335 40.1801 40.911 39.9587 41.1899 39.74C41.3434 39.6159 41.4979 39.4932 41.6531 39.3712C41.7795 39.2718 41.9062 39.1728 42.0331 39.0737C42.3589 38.8191 42.6855 38.5639 43.0087 38.2996C43.0893 38.2337 43.1698 38.1672 43.25 38.1C43.5135 37.86 43.7749 37.6178 44.0362 37.3756C44.8855 36.5885 45.7347 35.8012 46.66 35.09C46.9822 34.8393 47.3057 34.5912 47.6289 34.3434C48.53 33.6525 49.4289 32.9633 50.29 32.22L50.5239 32.0116C51.3547 31.2714 52.1815 30.5349 53.05 29.84C53.2862 29.6496 53.5231 29.4605 53.7596 29.2714L53.7648 29.2674C54.4582 28.7134 55.1501 28.1606 55.8199 27.58C57.1799 26.3501 58.51 25.08 59.77 23.76C60.3501 23.15 60.9401 22.5401 61.55 21.96C61.7773 21.7457 62.0083 21.5368 62.2389 21.3288L62.2915 21.2813C62.581 21.02 62.87 20.7594 63.15 20.49C63.0199 20.3645 62.8876 20.2412 62.7545 20.1186C62.6792 20.0493 62.6036 19.9802 62.5281 19.9111C62.1626 19.5769 61.7971 19.2426 61.46 18.88C60.84 18.21 60.24 17.54 59.5699 16.92C58.77 16.22 57.98 15.52 57.1999 14.79C56.76 14.38 56.3201 13.97 55.89 13.56C55.8397 13.5141 55.7884 13.4682 55.7366 13.4221L55.61 13.3101C55.2244 12.9697 54.8229 12.6153 54.55 12.19C54.1201 11.52 54.28 10.59 54.8299 10.05C55.4 9.48006 56.28 9.38008 56.97 9.77004C56.9842 9.77956 56.9962 9.78682 57.008 9.7939C57.0212 9.80178 57.0343 9.80953 57.05 9.82003C57.0701 9.83004 57.0901 9.84004 57.12 9.84999C57.1901 9.87001 57.27 9.89009 57.35 9.90004C58.2316 10.0639 59.1201 10.1673 60.009 10.2708C60.9652 10.3821 61.9216 10.4934 62.87 10.68C63.6389 10.8371 64.3736 11.0694 65.1138 11.3034C65.2688 11.3524 65.4241 11.4015 65.5799 11.45C66.4499 11.72 67.3201 11.9501 68.21 12.15C68.6 12.22 68.9801 12.2901 69.38 12.33C70.1101 12.3701 70.84 12.33 71.5799 12.31C72.1999 12.2901 72.8401 12.3101 73.42 12.53C73.92 12.7101 74.3099 13.2001 74.4399 13.71C74.5 13.9201 74.51 14.1201 74.49 14.32C74.73 14.6601 74.87 15.0501 74.86 15.5C74.8401 16 74.8101 16.49 74.73 16.98C74.74 17.1601 74.74 17.34 74.75 17.52C74.76 18.0601 74.77 18.6001 74.77 19.14C74.77 20.14 74.7101 21.13 74.64 22.13C74.6306 22.2345 74.6234 22.3412 74.6162 22.448L74.6151 22.463C74.6075 22.5762 74.6 22.6893 74.59 22.8C74.582 22.9586 74.5749 23.1171 74.5679 23.2757V23.2771C74.5391 23.9178 74.5102 24.5571 74.43 25.19C74.4133 25.3172 74.3944 25.4444 74.3755 25.5716C74.3378 25.8244 74.3 26.0772 74.28 26.33C74.27 26.5601 74.26 26.7901 74.26 27.03C74.26 27.0501 74.26 27.0701 74.27 27.09C74.276 27.1081 74.282 27.1261 74.288 27.1463C74.292 27.1597 74.296 27.1741 74.3 27.19V27.2C74.4901 27.7501 74.5799 28.27 74.4399 28.87C74.41 29 74.37 29.14 74.3299 29.27C74.42 29.8201 74.24 30.4101 73.84 30.82C73.14 31.52 72.04 31.4801 71.34 30.82C70.9401 30.44 70.6899 29.89 70.6999 29.33C70.5453 29.1947 70.4187 29.0223 70.3199 28.83L70.3101 28.81L70.1526 28.675C69.5644 28.1707 68.9757 27.666 68.48 27.06C68.1949 26.7095 67.9274 26.3459 67.6599 25.9824C67.355 25.5682 67.0502 25.1542 66.72 24.76C66.27 24.26 65.8 23.77 65.35 23.26C65.1614 23.4354 64.9706 23.6096 64.7794 23.7843C64.536 24.0067 64.292 24.2296 64.051 24.4562C63.9093 24.5894 63.7688 24.7238 63.63 24.86C63.3028 25.1817 62.9877 25.5093 62.673 25.8364C62.4105 26.1093 62.1484 26.3817 61.88 26.65C61.3227 27.2241 60.7515 27.7773 60.1778 28.3328L59.8299 28.67C58.48 29.97 57.0601 31.1701 55.59 32.33C55.05 32.76 54.52 33.1901 54 33.64C53.8324 33.7885 53.665 33.9374 53.4977 34.0864C52.6161 34.8713 51.7313 35.6589 50.79 36.39C50.4726 36.6372 50.1529 36.8812 49.8332 37.1251C49.0148 37.7497 48.1968 38.374 47.42 39.05C47.206 39.2473 46.9943 39.448 46.7821 39.6489C46.3599 40.0491 45.936 40.4506 45.49 40.83C45.0856 41.1742 44.6665 41.5 44.2483 41.8253C43.9737 42.0388 43.6996 42.252 43.43 42.47C42.668 43.0797 41.8949 43.6756 41.1208 44.2722C40.4222 44.8107 39.7228 45.3498 39.03 45.9C38.3231 46.4533 37.6399 47.0327 36.9573 47.6115L36.9536 47.6145C36.3049 48.1646 35.657 48.7142 34.99 49.24C34.3286 49.7565 33.6344 50.2401 32.9446 50.7207L32.9409 50.723L32.73 50.87C32.0842 51.3197 31.4519 51.7892 30.822 52.257L30.8209 52.2579C30.6805 52.3621 30.5403 52.4662 30.4 52.57C29.5101 53.2401 28.63 53.9401 27.76 54.64C26.8401 55.3801 25.87 56.03 24.87 56.68C24.42 57 23.99 57.34 23.5699 57.69C23.1744 58.0496 22.7897 58.4199 22.4049 58.7903C22.26 58.9299 22.1151 59.0694 21.9695 59.2084C21.8568 59.3161 21.7436 59.4234 21.63 59.53C20.8501 60.2601 20.05 60.9501 19.1999 61.59C18.5627 62.066 17.9023 62.5156 17.2413 62.9657C16.2217 63.6599 15.2004 64.3553 14.26 65.15L14.12 65.29C13.76 65.61 13.3501 65.81 12.87 65.81C12.4 65.7901 11.9401 65.6001 11.62 65.27Z"
    fill="rgba(191, 192, 191, 1)" />
  <path
    d="M74.3149 27.185C74.3125 27.18 74.3101 27.175 74.3101 27.17C74.3201 27.19 74.3199 27.19 74.3199 27.2C74.3199 27.195 74.3174 27.19 74.3149 27.185Z"
    fill="rgba(191, 192, 191, 1)" />
  <path fill-rule="evenodd" clip-rule="evenodd"
    d="M14.0799 77.57C12.7499 77.39 11.71 76.3101 10.96 75.27C10.3993 74.4868 9.86828 73.6799 9.33947 72.8767L9.03954 72.4213C8.97973 72.3308 8.91991 72.2403 8.85998 72.15C8.66991 71.89 8.47997 71.64 8.27001 71.4C8.09997 71.22 7.91991 71.04 7.73998 70.87C7.56579 70.7249 7.38818 70.5832 7.20849 70.4436C7.00695 70.2869 6.80297 70.1327 6.5985 69.9791L6.44433 69.8635L6.44323 69.8626L6.43993 69.86C6.23559 69.7032 6.04028 69.5396 5.84875 69.3725C5.68505 69.2298 5.52404 69.0844 5.36242 68.9385L5.21996 68.81C4.70007 68.3335 4.24804 67.7892 3.79601 67.2449C3.62194 67.0353 3.44787 66.8257 3.27001 66.62C3.05859 66.389 2.84386 66.161 2.62926 65.9331L2.61681 65.9198C2.28759 65.5701 1.95837 65.2204 1.64001 64.86C1.43993 64.63 1.25988 64.4101 1.08996 64.15C0.629875 63.46 0.739982 62.49 1.24999 61.86C1.96166 60.9951 2.86022 60.2763 3.74072 59.5719C3.83739 59.4945 3.93395 59.4173 4.03002 59.34C4.72997 58.78 5.42992 58.24 6.14001 57.68L10.61 54.14C12.1899 52.88 13.79 51.6601 15.41 50.46C16.8451 49.3982 18.2366 48.2791 19.6284 47.1597L19.6306 47.1579C21.1477 45.9376 22.6653 44.7171 24.24 43.57C25.7799 42.44 27.3099 41.3 28.78 40.07C30.22 38.86 31.6699 37.6601 33.22 36.58C34.5299 35.6701 35.8299 34.76 37.09 33.77C38.1999 32.9101 39.2999 32.0401 40.39 31.15L40.5834 30.9776L40.6731 30.8973L40.958 30.6417L40.9613 30.639C41.7672 29.9159 42.5724 29.1934 43.43 28.53C43.8312 28.2204 44.2286 27.9057 44.6263 27.591L44.6278 27.5899C45.3596 27.0105 46.0922 26.4306 46.85 25.88C47.96 25.08 49.0299 24.2401 50.0699 23.34C50.5599 22.9201 51.0599 22.53 51.5799 22.16C51.3099 21.56 51.0099 20.96 50.72 20.37C50.5199 20 50.3199 19.64 50.11 19.28C49.6582 18.646 49.1687 18.0435 48.6764 17.4374L48.6749 17.4354L48.4965 17.2154C48.4276 17.1304 48.3588 17.0454 48.29 16.96C47.9249 16.5084 47.5904 16.0376 47.2559 15.5666L47.2478 15.5556C47.0858 15.3274 46.9238 15.0991 46.758 14.8731L46.6941 14.7862L46.63 14.7C46.1962 14.1123 45.7281 13.5588 45.2601 13.0053C45.0592 12.7678 44.8583 12.5302 44.66 12.29C44.3407 11.9027 44.0406 11.5017 43.7411 11.1013L43.7393 11.099C43.4672 10.7352 43.1953 10.372 42.91 10.02C42.8279 9.93032 42.7451 9.84108 42.6619 9.75209C42.5381 9.61995 42.4136 9.4883 42.2888 9.35652L42.2764 9.34352L42.2723 9.33913L42.0604 9.11519C41.9147 8.96077 41.7694 8.80562 41.6258 8.64864C41.5057 8.51729 41.387 8.3846 41.27 8.25002C41.0045 7.94289 40.7552 7.62221 40.5054 7.30068C40.2753 7.00453 40.0445 6.70766 39.8 6.42C39.39 5.98 38.97 5.54 38.54 5.12001C38.29 4.87001 38.13 4.56002 38.0601 4.23C37.85 4.07003 37.67 3.87001 37.54 3.63002C37.55 3.65004 37.5601 3.67 37.5601 3.69002C37.55 3.68001 37.54 3.67006 37.54 3.65004C37.12 2.85005 37.2899 1.94002 37.99 1.34999C38.5199 0.909991 39.25 0.900042 39.9 0.900042C40.3431 0.89223 40.7862 0.926776 41.2295 0.961322C41.3563 0.971209 41.4831 0.981097 41.61 0.990008C42.34 1.05001 43.0599 1.11 43.79 1.18001C45.1999 1.32003 46.62 1.45003 48.03 1.58003C49.5598 1.72701 51.0896 1.90962 52.6194 2.09224L52.6271 2.09316C53.9047 2.24568 55.1822 2.39821 56.46 2.53005C58.21 2.64003 59.9399 2.73 61.6899 2.74001C63.7599 2.75002 65.8299 2.76003 67.91 2.80001C69.71 2.83998 71.51 3.12001 73.28 3.42L74.0476 3.55477L74.4266 3.62087C74.9543 3.71266 75.4822 3.80306 76.01 3.89003C76.2483 3.93074 76.4866 3.97566 76.7251 4.02065C77.3074 4.13033 77.8911 4.24031 78.48 4.29C78.6433 4.30019 78.8068 4.30928 78.9706 4.31838C79.1881 4.3304 79.4062 4.34255 79.6261 4.35744C79.727 4.36428 79.8284 4.37172 79.93 4.38002L79.9922 4.38497C80.6022 4.43373 81.3562 4.49398 81.8299 4.90004C82.1899 5.22005 82.47 5.54006 82.63 6.00002C82.89 6.70003 82.8899 7.47005 82.86 8.21004C82.84 8.76003 82.7899 9.31002 82.74 9.86C82.5199 12.14 82.2999 14.43 82.13 16.72C82.133 16.695 82.1352 16.6701 82.137 16.6452L82.1404 16.5945C82.1428 16.5564 82.1453 16.5182 82.15 16.48C82.03 18.5 81.9099 20.51 81.6899 22.52C81.4698 24.46 81.26 26.4 81.12 28.35V28.31C81.12 28.3249 81.12 28.3385 81.1194 28.3516C81.119 28.3611 81.1184 28.3704 81.1173 28.3799C81.1158 28.3926 81.1135 28.4057 81.11 28.42V28.46C81.0599 29.2616 81.0121 30.0631 80.9642 30.8646L80.9624 30.8964C80.8674 32.4843 80.7725 34.0722 80.66 35.66C80.59 36.86 80.55 38.0601 80.54 39.27C80.5384 39.4663 80.5364 39.6625 80.5343 39.8587V39.8637C80.5233 40.9358 80.5123 42.0079 80.5799 43.08C80.6199 43.5 80.6699 43.9101 80.71 44.32C80.7338 44.6021 80.7482 44.8858 80.7574 45.1705C80.7682 45.5008 80.7722 45.8324 80.7761 46.1642L80.7781 46.3231L80.78 46.47C80.7837 46.7128 80.7873 46.9556 80.7905 47.1984C80.792 47.3167 80.7934 47.4351 80.7947 47.5535C80.7961 47.6938 80.7974 47.8341 80.7983 47.9744C80.7994 48.143 80.8 48.3115 80.8 48.48V49.19C80.8 49.68 80.6799 50.09 80.4 50.49C80.01 51.04 79.1699 51.33 78.53 51.11C78.13 50.97 77.84 50.8 77.55 50.49C77.28 50.2 77.09 49.8601 76.88 49.53C76.7613 49.3395 76.6448 49.1508 76.5283 48.9624L76.488 48.8975L76.4582 48.8492C76.323 48.6303 76.1877 48.4114 76.05 48.19C75.9474 48.0283 75.8459 47.8665 75.7452 47.7048C75.5432 47.38 75.3444 47.0553 75.1455 46.7305L75.1356 46.714L74.86 46.2645C74.7506 46.0863 74.6409 45.9082 74.53 45.73C74.1426 45.1723 73.7173 44.6457 73.2925 44.1197C72.9935 43.7497 72.6949 43.38 72.41 43C71.8981 42.3325 71.4574 41.6062 71.0174 40.881L71.0167 40.8795C70.7781 40.4862 70.5395 40.0932 70.29 39.71C69.9112 39.1602 69.5209 38.617 69.1304 38.0736L69.1282 38.0708C68.5605 37.2811 67.9927 36.491 67.46 35.68C67.0599 35.11 66.6499 34.55 66.22 34C66.171 33.9374 66.1229 33.8744 66.0753 33.8112C65.9971 33.7073 65.9203 33.6028 65.844 33.4983C65.7294 33.3414 65.6158 33.1845 65.5 33.03C64.7999 34.2401 63.9299 35.34 62.91 36.31C62.2711 36.9291 61.5721 37.4883 60.8733 38.0474L60.8718 38.0485L60.87 38.05C60.1399 38.63 59.4199 39.21 58.72 39.8C58.1786 40.2542 57.6477 40.721 57.1168 41.1879L57.1146 41.1901C56.489 41.7402 55.8633 42.2904 55.22 42.82C54.0806 43.7473 52.918 44.6591 51.7663 45.5622L51.3101 45.92C51.1664 46.0482 51.0211 46.1763 50.8755 46.3039L50.6851 46.4705L50.5526 46.5857C50.4311 46.6913 50.3101 46.7962 50.1899 46.9C49.8779 47.1695 49.5911 47.4741 49.308 47.7747C49.2361 47.8512 49.1643 47.9273 49.0924 48.0026C49.0483 48.0488 49.0043 48.0947 48.96 48.14C48.8524 48.249 48.746 48.3591 48.6403 48.47C48.4938 48.6236 48.3485 48.7785 48.2032 48.9334L48.2014 48.9352L48.1992 48.937C47.7006 49.4691 47.202 50.0012 46.65 50.48C45.7706 51.2443 44.8638 51.9756 43.9568 52.7071C43.1311 53.373 42.3053 54.039 41.5 54.73C40.6399 55.52 39.7899 56.33 38.96 57.16L38.6294 57.4947C37.8934 58.2406 37.1656 58.9779 36.4 59.7C35.5847 60.4696 34.6604 61.1215 33.75 61.7636L33.5 61.94C32.51 62.64 31.5499 63.3601 30.62 64.14C30.4691 64.2751 30.3187 64.4104 30.1684 64.5458L29.7934 64.8842C28.7356 65.8392 27.681 66.7911 26.5699 67.68C26.0771 68.0721 25.5792 68.4577 25.0812 68.8433L25.0753 68.8477C24.1908 69.5328 23.3061 70.218 22.4499 70.94C21.8977 71.4727 21.3751 72.0307 20.8519 72.5894C20.5697 72.8907 20.2872 73.1922 20 73.49C19.8613 73.6333 19.7226 73.7777 19.5836 73.9225C18.8201 74.7181 18.0444 75.5263 17.1899 76.22C16.4099 76.85 15.46 77.49 14.41 77.49C14.3 77.59 14.1899 77.58 14.0799 77.57ZM14.1999 73.65L14.2007 73.651C14.2904 73.7506 14.3801 73.8503 14.48 73.94L14.49 73.93C14.6799 73.8 14.85 73.66 15.03 73.51C15.8982 72.7317 16.7063 71.8934 17.5145 71.0551L17.5174 71.0526L17.52 71.05C17.8013 70.7594 18.0757 70.4609 18.35 70.1626L18.3518 70.1604C18.9546 69.5049 19.5569 68.8501 20.23 68.28C20.9166 67.6984 21.6328 67.1463 22.3509 66.5927C22.6577 66.3562 22.9647 66.1195 23.27 65.88C24.1999 65.15 25.12 64.4101 26.01 63.63C26.2632 63.4045 26.5151 63.1782 26.767 62.9521L26.7684 62.9506C27.7893 62.0341 28.8075 61.1199 29.89 60.27C30.3779 59.8936 30.8854 59.5415 31.3918 59.1899C31.4979 59.1163 31.6039 59.0427 31.7097 58.9689C31.8235 58.8895 31.937 58.81 32.05 58.73C32.6999 58.27 33.3199 57.77 33.9399 57.26C34.7184 56.531 35.4686 55.7757 36.2186 55.0205C37.1354 54.0974 38.052 53.1745 39.02 52.3C39.86 51.54 40.75 50.83 41.64 50.13C42.5533 49.4049 43.4579 48.671 44.3369 47.9032C44.9645 47.2855 45.5821 46.6677 46.18 46.02L46.3179 45.8743C46.8107 45.3532 47.3002 44.8357 47.84 44.36C48.59 43.7 49.3299 43.06 50.12 42.45C50.74 41.9701 51.3799 41.49 51.99 40.99C52.751 40.3664 53.4956 39.7199 54.2407 39.0728C54.7978 38.589 55.3552 38.1049 55.92 37.63C56.7784 36.9085 57.6444 36.1986 58.511 35.4882C58.7408 35.2998 58.9708 35.1113 59.2007 34.9226L59.5813 34.6098C59.751 34.4701 59.9205 34.3302 60.09 34.19C60.2941 34.0029 60.4949 33.8127 60.6925 33.6156C60.7346 33.5736 60.7766 33.5312 60.8185 33.4885C60.8646 33.4414 60.9106 33.3939 60.9564 33.3459C61.0179 33.2815 61.0791 33.2163 61.14 33.15C61.4399 32.7901 61.73 32.4201 62 32.03C62.3199 31.5401 62.61 31.0401 62.88 30.52C62.8854 30.5092 62.8907 30.4984 62.8961 30.486C62.9007 30.4755 62.9054 30.4638 62.91 30.45C63 30.1601 63.09 29.9 63.29 29.65C63.6799 29.1601 64.26 28.9 64.89 28.9C65.4099 28.9 66.0099 29.01 66.48 29.24C67.3829 29.6742 67.9618 30.4702 68.5373 31.2615L68.5454 31.2725C68.63 31.3889 68.7145 31.5051 68.8 31.62C68.9763 31.858 69.1565 32.0942 69.3372 32.3309C69.4762 32.513 69.6153 32.6954 69.7533 32.8794C69.8429 32.9988 69.932 33.1189 70.02 33.24C70.1487 33.4189 70.2733 33.5998 70.396 33.7819C70.5554 34.0189 70.7113 34.2582 70.8678 34.4984L70.8693 34.5004L70.8718 34.5042C70.9772 34.6659 71.0828 34.828 71.1899 34.99C71.3376 35.1998 71.4879 35.4083 71.6395 35.6164C71.7624 35.7849 71.8862 35.9532 72.01 36.1217L72.0122 36.125C72.3247 36.5498 72.6379 36.9757 72.9399 37.41C73.5898 38.36 74.1899 39.33 74.79 40.31C75.22 40.94 75.68 41.5401 76.17 42.13C76.48 42.51 76.7799 42.88 77.0699 43.27C77.0647 43.2303 77.0601 43.1906 77.056 43.1508C77.0502 43.0941 77.0454 43.0373 77.0411 42.9805C77.0372 42.9287 77.0338 42.877 77.0304 42.8252L77.03 42.82C76.9808 42.0019 76.9921 41.1837 77.0033 40.3655C77.0057 40.1837 77.0082 40.0019 77.01 39.82C77.02 37.7901 77.13 35.78 77.28 33.75C77.3002 33.419 77.3195 33.0876 77.3384 32.7559C77.3597 32.3808 77.3805 32.0053 77.4012 31.6295L77.4031 31.5952L77.4034 31.5908C77.4912 30.0024 77.5792 28.4088 77.71 26.82C77.8265 25.3981 77.9803 23.9763 78.134 22.5564C78.244 21.5396 78.3539 20.5239 78.4499 19.51C78.4827 19.0082 78.5132 18.5063 78.5437 18.0044C78.625 16.6663 78.7063 15.3281 78.8299 13.99C78.8931 13.2804 78.9603 12.5708 79.0277 11.8606L79.0295 11.8419C79.1428 10.6469 79.2562 9.45046 79.35 8.25002C79.35 8.15004 79.36 8.06008 79.36 7.96004L79.02 7.93001L78.998 7.92891C78.7873 7.91915 78.5743 7.90926 78.3613 7.89571C78.1467 7.88204 77.9321 7.8647 77.72 7.84004C77.4423 7.80617 77.1692 7.75398 76.8976 7.70204C76.8301 7.6891 76.7627 7.67623 76.6953 7.66365L76.6056 7.64705L76.51 7.63002C76.005 7.54006 75.5024 7.45503 75 7.37001L74.993 7.36891C74.4929 7.28426 73.9927 7.19954 73.49 7.11C73.2195 7.06392 72.9499 7.01497 72.6807 6.96608C72.0741 6.85597 71.4695 6.74617 70.86 6.67C69.9199 6.56002 69 6.47005 68.0601 6.40004C66.0933 6.36013 64.1166 6.35005 62.1499 6.34004H62.14C60.21 6.33003 58.2799 6.23006 56.35 6.13002C55.0957 6.05507 53.8507 5.8918 52.6088 5.7289C52.0287 5.65285 51.4493 5.57686 50.87 5.51003C48.84 5.28005 46.8099 5.08004 44.78 4.89003L44.5842 4.87313C44.4972 4.8655 44.41 4.85768 44.3227 4.84975C44.1785 4.83669 44.0339 4.82332 43.8894 4.80995C43.592 4.78249 43.2948 4.75496 43 4.73C43.1477 4.91457 43.2939 5.10189 43.4404 5.28939C43.5288 5.40261 43.6173 5.51595 43.7062 5.6288C43.8688 5.83528 44.0327 6.04012 44.1999 6.24001L44.3888 6.44014L44.3932 6.4449C44.99 7.07704 45.5906 7.71309 46.15 8.39003C46.4298 8.72982 46.6921 9.08211 46.9545 9.43441C47.2172 9.78713 47.4799 10.1398 47.76 10.48C47.9292 10.6851 48.1007 10.8888 48.2722 11.0925L48.2767 11.098C48.7224 11.6275 49.1693 12.1582 49.5799 12.72C49.7637 12.9699 49.942 13.2239 50.1205 13.478C50.4275 13.9152 50.7347 14.3526 51.0699 14.77C51.6799 15.52 52.2999 16.26 52.86 17.04C53.4099 17.82 53.84 18.65 54.24 19.51C54.2924 19.6197 54.3459 19.7296 54.4 19.8396C54.4413 19.9235 54.4829 20.0075 54.5247 20.0916C54.8774 20.8031 55.2357 21.5262 55.4399 22.28C55.6399 23.03 55.4 23.84 54.78 24.32C54.7627 24.3332 54.7451 24.3462 54.7274 24.359C54.6067 24.4465 54.4773 24.5257 54.3467 24.6057L54.3437 24.6076L54.3386 24.6107C54.259 24.6594 54.1788 24.7086 54.1 24.76L54.0787 24.7741C54.0716 24.7786 54.0646 24.7831 54.0575 24.7872C54.0497 24.7919 54.0419 24.7962 54.034 24.8C54.026 24.8039 54.0179 24.8073 54.01 24.81C53.2211 25.3612 52.486 25.9815 51.7502 26.6022C51.031 27.209 50.3111 27.8162 49.54 28.36C48.6899 28.96 47.86 29.57 47.0601 30.23C46.8651 30.388 46.6683 30.5447 46.4707 30.7008C46.3015 30.8346 46.1317 30.9679 45.9619 31.101C45.5272 31.4422 45.0924 31.7835 44.67 32.13C44.4663 32.3126 44.2645 32.4979 44.0625 32.6834L44.057 32.6884L44.0438 32.7003L44.042 32.7021C43.5864 33.1203 43.1299 33.5392 42.65 33.93C41.9215 34.5287 41.1831 35.1074 40.4447 35.6862L40.4399 35.69C38.9799 36.84 37.5099 37.96 35.99 39.01C34.47 40.06 33.0099 41.19 31.59 42.38C30.1399 43.6001 28.6499 44.77 27.12 45.89C25.6 47 24.12 48.14 22.66 49.32C21.05 50.62 19.4299 51.9 17.78 53.15C17.6103 53.2776 17.4404 53.4049 17.2704 53.5321L16.7792 53.8994L16.7598 53.9139C15.6481 54.7447 14.5372 55.5748 13.4499 56.44C13.1818 56.6524 12.9139 56.8651 12.6464 57.0779C12.3323 57.3277 12.0185 57.5776 11.7049 57.8275C11.1134 58.2987 10.5221 58.7697 9.92992 59.2385C9.61694 59.4864 9.3037 59.7337 8.98998 59.98C8.76635 60.1556 8.54247 60.3309 8.3186 60.5062C7.19079 61.3892 6.06298 62.2722 4.96996 63.19C5.19994 63.44 5.42992 63.68 5.66003 63.92C5.88049 64.1614 6.09765 64.408 6.31274 64.6569C6.52074 64.8977 6.7268 65.1406 6.93237 65.3831L6.95507 65.4099L6.9674 65.4243L7.20995 65.71L7.21447 65.7148L7.2163 65.7166C7.51379 66.0242 7.80212 66.322 8.11999 66.61C8.47997 66.9 8.83996 67.1801 9.20995 67.46C9.94994 68.02 10.6099 68.62 11.21 69.33C11.6432 69.8265 12.0113 70.4044 12.3657 70.9609L12.48 71.14C12.7799 71.6101 13.09 72.08 13.4 72.55L13.34 72.46C13.59 72.8701 13.8799 73.27 14.1999 73.65Z"
    fill="rgba(191, 192, 191, 1)" />
</svg>