<?xml version="1.0" encoding="UTF-8" standalone="yes"?>
<svg width="74" height="74" viewBox="-40 -40 154 154" fill="none" xmlns="http://www.w3.org/2000/svg">
  <path fill-rule="evenodd" clip-rule="evenodd"
    d="M65.56 73.02C65.3954 72.8778 65.2364 72.7245 65.0788 72.5725C65.0258 72.5214 64.9729 72.4704 64.92 72.42C64.88 72.385 64.8375 72.3525 64.795 72.32C64.7525 72.2875 64.71 72.255 64.67 72.22C64.42 72.06 64.16 71.91 63.89 71.77C63.22 71.45 62.53 71.18 61.83 70.93C60.4173 70.4523 58.9906 70.0165 57.5659 69.5813L57.5648 69.581C56.9023 69.3786 56.2401 69.1763 55.58 68.97C53.28 68.24 51.07 67.26 48.92 66.15C48.1549 65.7563 47.4119 65.3185 46.6705 64.8816C46.4138 64.7303 46.1572 64.5792 45.9 64.43C45.13 63.99 44.4 63.51 43.67 63.03C42.93 62.56 42.19 62.08 41.47 61.59C40.575 60.975 39.68 60.3625 38.785 59.75C37.89 59.1375 36.995 58.525 36.1 57.91C36.0451 57.8701 35.9878 57.8302 35.9304 57.7903C35.8728 57.7502 35.8151 57.7101 35.76 57.67C33.79 56.39 31.81 55.12 29.81 53.88C27.47 52.42 25.22 50.85 23.21 48.96C22.6667 48.4476 22.1389 47.9137 21.6104 47.379C20.9425 46.7033 20.2734 46.0264 19.57 45.39C19.12 45.01 18.66 44.64 18.18 44.3C17.51 43.86 16.82 43.46 16.11 43.09C14.8 42.44 13.45 41.86 12.09 41.32C11.43 41.1 10.77 40.89 10.1 40.71C9.60859 40.5739 9.11145 40.4721 8.61291 40.37C8.45204 40.3371 8.29102 40.3041 8.13001 40.27C7.34933 40.101 6.63341 39.7506 5.91971 39.4013L5.91418 39.3986C5.74296 39.3148 5.57186 39.2311 5.40002 39.15C4.66002 38.81 3.93001 38.45 3.22001 38.06C2.47001 37.65 2.17001 36.69 2.45001 35.91C1.87001 35.95 1.27002 35.7 0.900015 35.23C0.300017 34.45 0.470015 33.35 1.22001 32.75C1.55656 32.472 2.0162 32.3438 2.45798 32.2207C2.62005 32.1755 2.77971 32.131 2.93001 32.08C3.56001 31.87 4.20002 31.65 4.83002 31.43C4.80017 31.4385 4.77032 31.4489 4.73971 31.4595C4.69851 31.4738 4.65591 31.4885 4.61001 31.5C5.36575 31.2292 6.12347 30.9614 6.88161 30.6934C8.53103 30.1104 10.1827 29.5266 11.82 28.91C12.65 28.6 13.48 28.29 14.3 27.97C14.4332 27.9193 14.5674 27.8705 14.7013 27.8219C14.9897 27.7172 15.2769 27.6129 15.55 27.49L15.5774 27.4778C16.9183 26.8819 18.2591 26.286 19.59 25.69C20.7866 25.0828 21.9806 24.4705 23.1749 23.858L23.1801 23.8554C25.3275 22.7542 27.4755 21.6526 29.64 20.58C31.53 19.64 33.43 18.72 35.34 17.83C37.2 16.96 39.06 16.1 40.92 15.25C47.67 12.14 54.41 8.96002 61.07 5.67002C62.65 4.85001 64.23 4.03 65.8 3.19001C66.2726 2.93711 66.7451 2.6753 67.2176 2.41349L67.2203 2.41202C67.4569 2.28098 67.6935 2.14994 67.93 2.01999C68.0663 1.94467 68.2013 1.86936 68.3355 1.7945C68.5754 1.66065 68.8127 1.52826 69.05 1.4C69.1437 1.34793 69.235 1.29105 69.326 1.23438C69.4972 1.12775 69.6672 1.02185 69.85 0.950015C70.28 0.780032 70.67 0.709994 71.13 0.739993C71.88 0.780002 72.67 1.24002 72.84 2.04001C72.8483 2.08036 72.8571 2.12091 72.8662 2.16168C72.8778 2.21347 72.8899 2.26557 72.9021 2.31787C72.9728 2.62216 73.0453 2.93399 73.03 3.23999C73.01 3.79001 72.92 4.31 72.82 4.85001C72.77 5.10501 72.725 5.36249 72.68 5.62C72.635 5.87751 72.59 6.13501 72.54 6.39002C72.5176 6.50699 72.494 6.62393 72.4704 6.74091L72.47 6.74265C72.3987 7.0951 72.3275 7.44754 72.29 7.79999C72.15 8.87 72.01 9.95002 71.88 11.03C71.7903 11.7253 71.7341 12.4318 71.6781 13.1369L71.6779 13.1386C71.659 13.376 71.6402 13.6133 71.62 13.85C71.55 14.62 71.48 15.4 71.42 16.17C71.312 17.4148 71.2014 18.6596 71.0907 19.9045C70.8324 22.8096 70.574 25.7148 70.35 28.62C70.335 28.795 70.3225 28.97 70.31 29.145L70.3098 29.1482C70.2974 29.3221 70.2849 29.4961 70.27 29.67C70.2485 30.2181 70.2231 30.7652 70.1978 31.312L70.1975 31.3177C70.1407 32.5445 70.0838 33.7702 70.07 35L70.0699 35.0138C70.0499 37.039 70.0299 39.0749 69.96 41.1C69.9508 41.42 69.9453 41.74 69.9399 42.0599C69.9277 42.78 69.9154 43.5 69.86 44.22C69.77 45.34 69.68 46.47 69.6 47.59C69.4705 49.2733 69.3239 50.9395 69.176 52.6204L69.1759 52.6216L69.14 53.03C69.1288 53.2275 69.1175 53.425 69.1062 53.6225L69.1061 53.624C69.0262 55.0161 68.9463 56.4092 68.92 57.81C68.89 59.047 68.8938 60.2841 68.8975 61.5211V61.5228C68.8988 61.9352 68.9 62.3476 68.9 62.76C68.9 64.35 68.86 65.94 68.75 67.53C68.7 68.32 68.64 69.12 68.58 69.91C68.565 70.115 68.55 70.3225 68.535 70.53L68.5345 70.5374C68.5197 70.7424 68.5048 70.9474 68.49 71.15C68.485 71.23 68.48 71.3125 68.475 71.395C68.47 71.4775 68.465 71.56 68.46 71.64C68.43 72.05 68.29 72.4 68.04 72.73C67.71 73.17 67.15 73.42 66.61 73.42C66.23 73.39 65.86 73.27 65.56 73.02ZM55.01 65L55.0227 65.0219C53.6826 64.5126 52.3724 63.9446 51.1 63.29C51.1332 63.3042 51.1663 63.3184 51.1994 63.3337L51.31 63.39C51.2731 63.369 51.2363 63.3507 51.1994 63.3337C50.1426 62.7928 49.1134 62.1967 48.0859 61.6015C47.7907 61.4305 47.4956 61.2595 47.2 61.09C46.8402 60.8767 46.4892 60.6457 46.1382 60.4147C45.9627 60.2992 45.7867 60.1834 45.61 60.07C45.2305 59.8337 44.8561 59.5923 44.4795 59.3494L44.4765 59.3475C44.3531 59.2679 44.2296 59.1882 44.1054 59.1084C44.0813 59.0916 44.0564 59.0751 44.03 59.06L44.1054 59.1084C44.1218 59.1199 44.1378 59.1315 44.1536 59.143C44.1761 59.1594 44.198 59.1754 44.22 59.19C43.685 58.825 43.15 58.4575 42.615 58.09C42.08 57.7225 41.545 57.355 41.01 56.99C40.6023 56.7122 40.1973 56.4305 39.792 56.1487L39.7898 56.1472C39.0724 55.6483 38.3544 55.149 37.62 54.67L37.496 54.5884C38.6264 54.6114 39.6079 53.7382 40.11 52.76L40.1127 52.7547L40.1138 52.7525C40.4525 52.0851 40.7811 51.4374 41.08 50.75C41.09 50.72 41.1 50.69 41.12 50.65C41.17 51.54 41.21 52.43 41.23 53.31C41.235 53.55 41.2412 53.79 41.2475 54.03C41.2663 54.75 41.285 55.47 41.27 56.19C41.25 57.16 42.09 57.96 43.04 57.96C43.6 57.96 44.1 57.69 44.42 57.28C44.55 58.13 44.81 59.08 45.47 59.66C46.23 60.33 47.11 60.8 48.15 60.62C48.61 60.54 49.05 60.31 49.42 60.03C49.82 59.72 50.21 59.4 50.53 59.01C50.7 58.8 50.87 58.58 51.02 58.35C51.34 58.97 51.73 59.56 52.13 60.15C52.15 60.69 52.31 61.2 52.49 61.74C52.63 62.18 52.81 62.62 53.04 63.02L53.0769 63.087C53.2262 63.3586 53.3861 63.6491 53.58 63.88C53.97 64.35 54.44 64.76 55.01 65ZM35.09 51.56C35.2034 52.1423 35.3566 52.815 35.6537 53.3781C35.2247 53.099 34.7939 52.8222 34.36 52.55C34.0935 52.3836 33.8266 52.2175 33.5596 52.0514L33.5531 52.0473C33.3395 51.9143 33.1258 51.7813 32.9122 51.6481C33.5729 51.2411 34.0065 50.6656 34.28 49.93C34.4 49.61 34.49 49.29 34.58 48.97C34.6198 49.1791 34.6596 49.3782 34.6994 49.5772L34.7 49.58C34.7433 49.7999 34.7877 50.0197 34.8322 50.2396C34.9211 50.6798 35.01 51.1199 35.09 51.56ZM27.15 46.59C27.2128 47.0927 27.3213 47.5856 27.5371 48.0202C27.1339 47.7027 26.7379 47.3761 26.35 47.04C26.2697 46.9677 26.1898 46.8949 26.1104 46.8217C26.3076 46.7964 26.5008 46.7642 26.69 46.72C26.85 46.68 27 46.64 27.15 46.59ZM19.09 40.65L19.0955 40.7C18.8158 40.5324 18.5308 40.3722 18.24 40.22C17.9683 40.0794 17.6956 39.9418 17.4216 39.8069C17.5343 39.7982 17.6471 39.7801 17.76 39.75C18.17 39.63 18.57 39.35 18.83 39.01C19.41 38.26 19.69 37.28 19.89 36.37C19.99 35.91 20.06 35.45 20.08 34.98C20.25 34.75 20.43 34.53 20.61 34.31C20.62 34.97 20.72 35.63 20.91 36.28C20.92 36.305 20.9275 36.3325 20.935 36.36C20.9425 36.3875 20.95 36.415 20.96 36.44C20.71 36.74 20.46 37.05 20.23 37.37C19.55 38.29 18.99 39.48 19.09 40.65ZM15.14 37.75C15.1043 38.1291 15.18 38.5161 15.3529 38.8472C14.7094 38.5639 14.0599 38.3053 13.4028 38.062C13.6429 37.9435 13.8618 37.7717 14.05 37.56C14.33 37.24 14.47 36.94 14.6 36.55C14.6689 36.3434 14.6893 36.1077 14.709 35.8811L14.71 35.87C14.7995 35.7208 14.889 35.5815 14.9786 35.4423L14.98 35.44C15.17 35.18 15.36 34.93 15.57 34.68C15.8 34.43 16.03 34.2 16.27 33.97C16.2936 33.9464 16.3173 33.929 16.3457 33.908L16.37 33.89C16.39 33.88 16.42 33.87 16.44 33.85C16.4458 33.8558 16.4482 33.8582 16.4492 33.8611C16.45 33.8633 16.45 33.8658 16.45 33.87C16.4557 33.887 16.4613 33.9041 16.467 33.9229C16.4713 33.9373 16.4757 33.9527 16.48 33.97C16.35 34.18 16.23 34.39 16.11 34.61C15.85 35.1 15.59 35.6 15.42 36.13C15.25 36.66 15.19 37.19 15.14 37.75ZM8.5 36.59C8.50423 36.6273 8.50965 36.6642 8.51621 36.7007C7.80486 36.4239 7.11671 36.0891 6.4293 35.7547L6.42832 35.7542C6.22568 35.6556 6.0231 35.557 5.82001 35.46C5.58002 35.34 5.34001 35.21 5.10001 35.08C6.32583 34.6583 7.54204 34.2366 8.75805 33.7961C8.60475 34.221 8.48329 34.6577 8.43 35.1C8.42676 35.1335 8.42316 35.1676 8.41941 35.2022L8.41233 35.2666C8.3827 35.5346 8.35049 35.8259 8.4 36.09L8.49 36.54C8.5 36.55 8.5 36.57 8.5 36.59ZM18.61 30.97C18.3632 30.7457 18.0717 30.5493 17.7605 30.4143L17.77 30.41C18.08 30.27 18.39 30.1325 18.7 29.995C19.01 29.8575 19.32 29.72 19.63 29.58C21.1952 28.889 22.7189 28.1147 24.2471 27.3382L24.2494 27.337C24.556 27.1812 24.8627 27.0253 25.17 26.87C26.3386 26.2744 27.5129 25.6674 28.6843 25.062L28.6924 25.0577L29.0491 24.8734C28.8382 25.0847 28.6291 25.2973 28.42 25.51L28.26 25.67C27.6584 25.8204 27.1248 26.1178 26.5866 26.4176C26.4092 26.5165 26.231 26.6158 26.05 26.71C25.892 26.7904 25.7332 26.87 25.5743 26.9497L25.5648 26.9545L25.5638 26.955C25.133 27.1711 24.7012 27.3876 24.28 27.62C23.91 27.82 23.57 28.05 23.25 28.31C22.36 28.52 21.54 28.95 20.75 29.47C20.03 29.95 19.37 30.5 18.76 31.11C18.71 31.07 18.66 31.02 18.61 30.97ZM34.85 22.26C34.7655 22.2112 34.676 22.1673 34.583 22.1286C35.1827 21.8487 35.7825 21.5677 36.3823 21.2867C37.5815 20.7249 38.7808 20.163 39.98 19.61C40.4195 19.407 40.8592 19.2038 41.2989 19.0005C41.0131 19.2041 40.7384 19.419 40.47 19.64C38.91 20.94 37.51 22.45 36.28 24.07C36.17 24.04 36.06 24.01 35.94 24C35.917 23.9482 35.8972 23.893 35.877 23.8364C35.8621 23.7948 35.847 23.7524 35.83 23.71C35.66 23.14 35.39 22.58 34.85 22.26ZM47.46 17.96C46.6325 17.4884 45.6725 17.3236 44.7277 17.4119C46.828 16.4365 48.9272 15.4565 51.02 14.47C52.4625 13.7894 53.9031 13.1052 55.3411 12.4165C55.1705 12.724 55.0123 13.039 54.86 13.36C54.5926 13.5117 54.3305 13.674 54.0698 13.8353L54.0687 13.8359C53.969 13.8976 53.8695 13.9592 53.77 14.02C53.5315 14.167 53.2917 14.3134 53.0516 14.4601C51.9526 15.131 50.8458 15.8069 49.82 16.57C49.13 17.08 48.44 17.6 47.81 18.19C47.7 18.1 47.58 18.03 47.46 17.96ZM59.7027 10.309C59.2122 10.5482 58.7214 10.7868 58.2302 11.0249C58.502 11.1838 58.7052 11.4025 58.85 11.66C59.0999 11.1914 59.3851 10.7363 59.7027 10.309ZM63.54 8.54999C63.4879 8.52579 63.4352 8.50394 63.3822 8.48438C63.5207 8.41385 63.6592 8.34311 63.7975 8.27216C63.9377 8.20026 64.0777 8.12818 64.2176 8.05585C63.9864 8.21521 63.7632 8.3826 63.54 8.54999ZM63.7023 67.8373C64.1953 68.0184 64.6806 68.2163 65.15 68.44C65.17 68.02 65.2 67.6 65.23 67.19C65.32 65.26 65.35 63.34 65.35 61.4C65.35 61.023 65.3483 60.646 65.3465 60.2691L65.346 60.1715C65.2778 60.1783 65.209 60.1811 65.14 60.18C64.8 61.57 64.09 62.8 63.08 63.81C63.1 63.83 63.12 63.85 63.13 63.87C63.4722 64.2882 63.6156 64.8871 63.7406 65.4091L63.76 65.49C63.955 66.2702 64.1415 67.1194 63.7023 67.8373ZM65.31 55.82C65.3477 55.8725 65.3855 55.9249 65.4235 55.9773C65.4823 54.9282 65.5412 53.8793 65.6 52.84C65.6504 52.0407 65.7268 51.2363 65.8029 50.4341L65.803 50.433L65.8032 50.4303C65.8327 50.1197 65.8621 49.8095 65.89 49.5C65.9753 48.4983 66.0548 47.4965 66.1333 46.4948C66.0662 46.5125 65.9984 46.5276 65.93 46.54C65.88 47.13 65.81 47.72 65.7 48.3C65.59 48.91 65.38 49.51 65.13 50.09C64.91 50.59 64.58 51.04 64.2 51.43C64.56 52.63 64.82 53.85 65.04 55.07C65.055 55.145 65.0675 55.22 65.08 55.295L65.0802 55.2964C65.0927 55.3709 65.1051 55.4455 65.12 55.52C65.18 55.62 65.24 55.72 65.31 55.82ZM66.8434 27.9574C66.8201 28.2625 66.7971 28.5676 66.7742 28.8727L66.76 28.83C66.725 28.735 66.6925 28.64 66.66 28.545L66.6596 28.5438C66.6272 28.4492 66.5948 28.3546 66.56 28.26C66.6542 28.159 66.7487 28.0581 66.8434 27.9574ZM67.2093 22.653C67.2354 22.6298 67.2614 22.6066 67.2876 22.5835C67.3628 21.7365 67.4406 20.8891 67.52 20.04C67.6227 18.9149 67.7199 17.7898 67.8163 16.6654C67.7465 16.8212 67.6746 16.9762 67.6 17.13C67.15 18.09 66.66 19.01 66.16 19.93L66.1662 19.9422C66.168 19.9458 66.1698 19.9494 66.1717 19.9528C66.1778 19.9641 66.1839 19.9739 66.19 19.98C66.53 20.55 66.48 21.19 66.19 21.77C66.0001 22.1499 65.8099 22.5302 65.58 22.89C65.39 23.2016 65.1768 23.5017 64.9626 23.8034C64.8949 23.8986 64.8272 23.994 64.76 24.09C64.75 24.105 64.74 24.1175 64.73 24.13C64.7201 24.1424 64.7099 24.1552 64.7 24.17C65.4956 23.7528 66.2442 23.2885 67.0096 22.8137L67.0105 22.8131L67.08 22.77C67.1228 22.7307 67.166 22.6918 67.2093 22.653ZM69.11 5.44001C69.0161 5.96384 68.9276 6.48822 68.8447 7.01316C68.6138 6.88199 68.3585 6.78485 68.08 6.73001C67.5757 6.63126 67.0925 6.66312 66.6291 6.78083C66.7903 6.69443 66.9516 6.60813 67.1129 6.52185C67.7816 6.16422 68.4502 5.80655 69.11 5.44001ZM59.8 61.34C59.77 61.56 59.72 61.79 59.66 62C59.68 61.99 59.7025 61.9775 59.725 61.965C59.7396 61.9569 59.7543 61.9487 59.7682 61.9413C59.7757 61.9373 59.783 61.9335 59.79 61.93C60.04 61.76 60.27 61.57 60.5 61.38C60.6 61.29 60.7 61.19 60.79 61.09C60.91 60.95 61.02 60.81 61.12 60.66C61.1769 60.5787 61.2206 60.4974 61.2672 60.4107L61.3 60.35C61.39 60.16 61.48 59.96 61.55 59.76L61.61 59.55L61.6084 59.5502C61.4089 59.5701 61.2094 59.59 61 59.6C60.61 59.61 60.23 59.59 59.85 59.55C59.89 60.15 59.88 60.74 59.8 61.34ZM48.75 51.33C48.46 52.18 48.23 53.05 48.04 53.93C47.96 54.38 47.9 54.82 47.86 55.27C47.84 55.65 47.85 56.03 47.87 56.41C47.8755 56.4488 47.8811 56.4875 47.8849 56.5246C47.8869 56.5441 47.8885 56.5631 47.8893 56.5814C47.8898 56.5911 47.89 56.6007 47.89 56.61C47.9599 56.5101 48.0398 56.4102 48.1198 56.3103C48.2598 56.0903 48.39 55.87 48.51 55.65C48.61 55.43 48.7 55.22 48.78 55C48.85 54.77 48.91 54.55 48.96 54.32C49 54.08 49.03 53.84 49.06 53.59C49.08 53.25 49.07 52.92 49.05 52.58C49.01 52.25 48.97 51.93 48.91 51.6C48.88 51.46 48.84 51.32 48.8 51.18C48.79 51.23 48.77 51.28 48.75 51.33ZM57.79 51.7C57.55 51.84 57.29 51.92 57.02 51.94C57.0487 51.9766 57.0775 52.013 57.1063 52.0494C57.1393 52.091 57.1723 52.1326 57.2052 52.1741C57.5838 52.6507 57.9563 53.1197 58.24 53.67C58.42 54.01 58.57 54.37 58.71 54.74V54.63C58.68 54.38 58.65 54.13 58.6 53.88C58.53 53.57 58.45 53.27 58.35 52.96C58.19 52.53 58.02 52.1 57.83 51.68C57.8237 51.68 57.8133 51.684 57.804 51.6895C57.7987 51.6927 57.7937 51.6964 57.79 51.7ZM51.04 47.53C51.54 48.28 51.9 49.12 52.15 49.98C52.1698 49.9602 52.1891 49.9403 52.208 49.9205C52.2273 49.9003 52.2462 49.8801 52.2652 49.8598C52.2926 49.8306 52.32 49.8013 52.3484 49.772C52.3588 49.7614 52.3693 49.7507 52.38 49.74C52.13 49.28 51.94 48.79 51.77 48.29C51.64 47.93 51.53 47.56 51.43 47.19C51.3385 47.2815 51.2353 47.3673 51.1338 47.4516L51.1312 47.4537C51.1005 47.4792 51.07 47.5046 51.04 47.53ZM62.34 42.88C62.07 44.21 61.72 45.51 61.28 46.78H61.29C61.65 46.93 61.96 47.11 62.24 47.34C62.31 46.89 62.35 46.45 62.39 46C62.46 44.93 62.5 43.84 62.5 42.76C62.4938 42.723 62.4867 42.685 62.4792 42.6464L62.4691 42.5946C62.4552 42.5242 62.4411 42.4521 62.43 42.38C62.4146 42.4674 62.3992 42.5547 62.3838 42.6407C62.3692 42.7221 62.3546 42.8022 62.34 42.88ZM38.53 46.98C38.55 46.99 38.57 47.01 38.58 47.02C38.59 47.02 38.6 47.03 38.6 47.04C38.6048 47.04 38.6094 47.0403 38.6138 47.0407C38.6168 47.0411 38.6198 47.0415 38.6227 47.042C38.6362 47.0445 38.6486 47.0489 38.6625 47.0539C38.668 47.0559 38.6738 47.0579 38.68 47.06C38.7103 47.06 38.7405 47.0637 38.7708 47.0688C38.7905 47.0721 38.8103 47.0761 38.83 47.08C38.87 47.01 38.9 46.94 38.93 46.87C38.86 46.87 38.78 46.87 38.7 46.86C38.65 46.9 38.59 46.94 38.53 46.98ZM48.18 40.53C47.36 41.75 46.61 43.03 45.93 44.33C46.3158 44.0387 46.7016 43.7536 47.0923 43.4649L47.0996 43.4595L47.41 43.23C47.8227 42.9238 48.2265 42.5999 48.6304 42.2759L48.6324 42.2743C48.8346 42.1121 49.0367 41.95 49.24 41.79C49.545 41.55 49.85 41.3125 50.155 41.075C50.46 40.8375 50.765 40.6 51.07 40.36C50.93 40.35 50.8 40.34 50.66 40.33C50 40.28 49.43 39.75 49.22 39.13C48.86 39.58 48.51 40.05 48.18 40.53ZM58.49 43.32L58.4502 43.5684C58.4235 43.7348 58.3967 43.8996 58.37 44.06C58.38 44.09 58.39 44.11 58.41 44.14C58.58 43.52 58.73 42.89 58.86 42.26C59.02 41.44 59.15 40.61 59.26 39.78C59.13 40.37 59.0025 40.96 58.875 41.55C58.7475 42.14 58.62 42.73 58.49 43.32ZM44.65 38.92C44.5 39.37 44.33 39.81 44.16 40.24C44.4099 39.8302 44.6601 39.4197 44.93 39.02C44.83 38.99 44.74 38.95 44.66 38.91L44.65 38.92ZM28.79 34.76C28.77 34.88 28.75 34.99 28.72 35.11C28.62 35.57 28.47 35.99 28.18 36.36C28.01 36.58 27.8 36.74 27.57 36.86C27.6232 36.9797 27.6676 37.0995 27.712 37.2193C27.7238 37.2513 27.7358 37.2837 27.7478 37.3157C27.7584 37.3438 27.7691 37.3719 27.78 37.4C27.81 37.49 27.83 37.58 27.85 37.67C27.895 37.68 27.9375 37.69 27.98 37.7C28.0225 37.71 28.065 37.72 28.11 37.73L28.1227 37.7321L28.1249 37.7325C28.3599 37.7717 28.5948 37.8108 28.82 37.85C28.8849 37.6702 28.9474 37.4879 29.0098 37.3056C29.0723 37.1232 29.135 36.9399 29.2 36.76C29.1851 36.7949 29.1726 36.8297 29.1601 36.8646C29.1539 36.882 29.1477 36.8994 29.1412 36.9168C29.1346 36.9345 29.1276 36.9523 29.12 36.97C29.1808 36.7604 29.2424 36.5508 29.3042 36.3409L29.3047 36.3394C29.446 35.8589 29.5879 35.3769 29.72 34.89C29.7351 34.7692 29.7477 34.651 29.7602 34.5327C29.7664 34.4744 29.7726 34.4161 29.7792 34.3575C29.7857 34.2988 29.7925 34.2397 29.8 34.18C29.5833 34.3075 29.3666 34.4309 29.1525 34.5528C29.0307 34.6222 28.9097 34.6911 28.79 34.76ZM33.2085 35.6275C33.2071 35.631 33.2052 35.6345 33.2035 35.638C33.2026 35.6398 33.2018 35.6417 33.2012 35.6435C33.2005 35.6457 33.2 35.6478 33.2 35.65C33.16 35.97 33.13 36.29 33.1 36.61C33.1147 36.5695 33.1281 36.5303 33.1412 36.4915C33.1635 36.4249 33.1848 36.3595 33.21 36.29C33.46 35.56 33.78 34.85 34.14 34.17C33.94 34.2 33.74 34.21 33.54 34.17C33.4556 34.6386 33.345 35.0808 33.2326 35.5297L33.21 35.62C33.21 35.6225 33.2094 35.625 33.2085 35.6275ZM55.47 33.86C55.89 34.12 56.2 34.55 56.27 35.1C56.2832 35.2212 56.297 35.3417 56.3109 35.4619C56.3495 35.7978 56.3879 36.1312 56.41 36.47L56.65 35.45C56.76 34.85 56.81 34.25 56.86 33.65C56.87 33.51 56.87 33.38 56.87 33.24C56.4 33.43 55.93 33.63 55.47 33.86ZM47.05 30.26C46.85 30.54 46.58 30.74 46.3 30.92C46.22 31.78 46.12 32.62 45.98 33.47L45.9866 33.5226C46.0244 33.8261 46.0633 34.1375 46.12 34.44C46.17 34.69 46.23 34.94 46.29 35.19C46.3498 35.1103 46.4121 35.033 46.4744 34.9558C46.5369 34.8782 46.6 34.8 46.66 34.72C46.6 34.55 46.55 34.36 46.54 34.17C46.44 32.97 46.75 31.74 47.11 30.6C47.21 30.28 47.33 29.96 47.46 29.65C47.4379 29.6831 47.4161 29.7159 47.3945 29.7486L47.3553 29.8078C47.2535 29.9613 47.1546 30.1107 47.05 30.26ZM24.7 31.84L24.58 32.05C24.52 32.18 24.46 32.32 24.4 32.46L24.3666 32.5692C24.308 32.7606 24.2504 32.9482 24.2 33.15L24.14 33.57C24.216 33.5151 24.2921 33.4602 24.3688 33.4053C24.4738 33.3302 24.5802 33.2551 24.69 33.18C24.78 32.77 24.88 32.38 24.99 31.98L24.88 31.87C24.84 31.84 24.81 31.82 24.77 31.79C24.76 31.79 24.75 31.78 24.74 31.77C24.73 31.79 24.72 31.81 24.7 31.84ZM57.87 29.66C58.55 29.84 59.25 30.23 59.67 30.79C59.72 30.86 59.76 30.92 59.81 30.99C60.03 30.67 60.25 30.35 60.48 30.04C60.96 29.37 61.48 28.72 62.01 28.08C61.94 28.05 61.88 28.01 61.82 27.97C61.765 28.03 61.7125 28.09 61.66 28.15C61.6075 28.21 61.555 28.27 61.5 28.33C61.02 28.85 60.2 28.98 59.56 28.71C59.35 28.62 59.17 28.5 59.02 28.35C58.64 28.79 58.26 29.23 57.87 29.66ZM39.99 29.92C40.58 30 41.16 30.22 41.64 30.57C41.72 30.5 41.79 30.42 41.87 30.34C42 30.19 42.12 30.04 42.24 29.88C42.24 29.8155 42.2392 29.7509 42.2379 29.6864C42.2371 29.6409 42.236 29.5955 42.235 29.55C42.2325 29.44 42.23 29.33 42.23 29.22C42.2213 28.2779 42.3115 27.3358 42.401 26.4004C42.4141 26.2635 42.4272 26.1267 42.44 25.99C41.62 25.87 40.85 25.29 40.41 24.6C39.54 25.6 38.74 26.64 37.99 27.73C38 27.97 37.99 28.21 37.98 28.45C37.96 28.82 37.89 29.18 37.79 29.52C37.895 29.6 38.0025 29.68 38.11 29.76C38.2175 29.84 38.325 29.92 38.43 30C38.46 29.99 38.4875 29.9825 38.515 29.975C38.5425 29.9675 38.57 29.96 38.6 29.95C38.83 29.89 39.06 29.87 39.3 29.87C39.53 29.87 39.76 29.89 39.99 29.92ZM49.71 24.97L49.92 24.58L49.83 24.43C49.8 24.61 49.76 24.79 49.71 24.97ZM57.77 21.42C57.71 21.44 57.65 21.46 57.59 21.47C57.4 21.66 57.21 21.85 57.02 22.05C56.95 22.44 56.84 22.82 56.71 23.19C57.46 22.78 58.21 22.36 58.94 21.92C58.78 21.64 58.68 21.33 58.68 21C58.4275 21.1942 58.109 21.3036 57.7978 21.4105L57.77 21.42ZM52.45 19.04C51.78 19.5 51.14 19.99 50.51 20.52C51 20.68 51.44 20.98 51.83 21.34L52.16 20.86C52.5132 20.3507 52.9474 19.9157 53.3849 19.4773L53.3876 19.4746C53.4819 19.3801 53.5762 19.2856 53.67 19.19C53.58 18.92 53.51 18.65 53.47 18.38C53.13 18.59 52.79 18.81 52.45 19.04ZM61.85 13.53C61.63 13.99 61.43 14.46 61.25 14.95C61.11 15.37 60.98 15.79 60.87 16.2H60.88C60.935 16.105 60.99 16.0075 61.045 15.91C61.1 15.8125 61.155 15.715 61.21 15.62C61.3263 15.4112 61.4426 15.2032 61.5587 14.9954C61.8819 14.4171 62.2036 13.8413 62.52 13.26C62.53 13.245 62.5375 13.23 62.545 13.215L62.547 13.211C62.5517 13.2016 62.5565 13.1922 62.562 13.1828C62.5645 13.1786 62.5672 13.1743 62.57 13.17C62.41 13.15 62.25 13.12 62.1 13.07C62.02 13.23 61.94 13.38 61.85 13.53Z"
    fill="rgba(191, 192, 191, 1)" />
</svg>