<?xml version="1.0" encoding="UTF-8" standalone="yes"?>
<svg width="79" height="78" viewBox="-40 -40 159 158" fill="none" xmlns="http://www.w3.org/2000/svg">
  <path fill-rule="evenodd" clip-rule="evenodd"
    d="M60.49 63.57C61.22 64.28 62.1 64.8301 63.11 65.0501C64.02 65.2401 64.96 65.34 65.88 65.34C66.85 65.34 67.81 65.23 68.74 65.02C71.02 64.49 73.25 63.34 74.61 61.38C75.36 60.29 75.83 58.99 76.13 57.7C76.2864 57.0249 76.4174 56.3398 76.5484 55.6553C76.6017 55.3765 76.655 55.0978 76.71 54.82C76.7763 54.4773 76.844 54.1373 76.9116 53.7981C77.0273 53.2167 77.1427 52.6374 77.25 52.0501C77.707 49.5089 77.7757 46.9389 77.8444 44.3668C77.8749 43.2241 77.9054 42.0811 77.97 40.9399C78.17 38.3599 78.34 35.7799 78.4 33.1899C78.49 29.4299 78.37 25.6601 77.87 21.9301C77.789 21.342 77.7107 20.754 77.6324 20.166C77.4497 18.794 77.267 17.422 77.05 16.0501C76.76 14.1801 76.28 12.32 75.76 10.5C75.7297 10.3959 75.6996 10.2917 75.6694 10.1876C75.471 9.50207 75.2731 8.81852 75.03 8.15003C74.64 7.08003 74.19 5.97002 73.48 5.07002C72.76 4.16002 71.86 3.40001 70.76 3.00001C70.25 2.82001 69.74 2.64001 69.22 2.50001C67.38 1.99001 65.44 1.93002 63.54 1.89002C63.0444 1.8702 62.5586 1.88963 62.0632 1.90945L62.05 1.90998L62.0185 1.91077C61.6295 1.9205 61.2498 1.93 60.87 1.93C59.87 1.92 58.87 1.89004 57.87 1.84004C56.9647 1.79502 56.0619 1.75 55.159 1.70498C54.2569 1.65999 53.3547 1.615 52.45 1.57002C51.36 1.48002 50.28 1.37003 49.2 1.21003C48.58 1.12003 47.95 1.03998 47.33 0.969979C46.8217 0.911649 46.3134 0.888041 45.8051 0.864432C45.7034 0.859709 45.6017 0.854986 45.5 0.849984C44.7283 0.806134 43.9411 0.816155 43.1655 0.826029C43.0568 0.827414 42.9482 0.828796 42.84 0.830026C42.6482 0.832024 42.4564 0.833622 42.2646 0.83522C41.4968 0.841618 40.7302 0.848006 39.97 0.880013C38.93 0.920013 37.9 0.980006 36.86 1.06001C36.146 1.11153 35.4375 1.22265 34.7304 1.33355C34.4768 1.37332 34.2234 1.41307 33.97 1.45002C33.515 1.52002 33.06 1.59253 32.605 1.66503C32.15 1.73752 31.695 1.81002 31.24 1.88001C29.96 2.09001 28.65 2.33001 27.42 2.75001C25.34 3.46001 23.32 4.44001 21.46 5.63001C19.83 6.68001 18.18 7.80999 16.98 9.35999C16.24 10.31 15.64 11.33 15.37 12.51C15.15 13.49 15.25 14.52 15.58 15.46C15.99 16.61 16.69 17.74 17.69 18.47C18.54 19.08 19.48 19.55 20.51 19.78C21.3399 19.9669 22.1809 20.0867 23.0206 20.2063C23.304 20.2467 23.5873 20.2871 23.87 20.33C24.6948 20.4565 25.5151 20.6182 26.3363 20.78C27.2674 20.9635 28.1995 21.1472 29.14 21.28C30.19 21.43 31.23 21.5301 32.29 21.5601C32.8195 21.5701 33.349 21.5501 33.8785 21.5301L33.88 21.53C33.968 21.5271 34.0558 21.524 34.1434 21.5208C34.6533 21.5025 35.158 21.4844 35.67 21.51C36.21 21.56 36.73 21.63 37.25 21.73C37.4139 21.7671 37.5777 21.8051 37.7419 21.8433C38.1087 21.9284 38.477 22.014 38.85 22.09C39.1745 22.1479 39.489 22.1757 39.807 22.181C39.5205 22.4955 39.2425 22.8172 38.9647 23.1387C38.8866 23.2292 38.8084 23.3197 38.73 23.41C38.39 23.805 38.05 24.1975 37.71 24.59C37.37 24.9825 37.03 25.375 36.69 25.77C35.31 27.32 33.89 28.82 32.42 30.29C30.99 31.71 29.51 33.07 28 34.41C27.335 34.955 26.6725 35.5075 26.01 36.06C25.3475 36.6124 24.685 37.1649 24.02 37.7099C23.5334 38.1099 23.0646 38.5365 22.5958 38.9631C22.3613 39.1765 22.1268 39.3899 21.89 39.5999C21.4253 40.0066 20.9816 40.4343 20.5399 40.8601C20.3734 41.0208 20.2071 41.1811 20.04 41.3399C18.68 42.6299 17.35 43.95 16.03 45.27C14.67 46.62 13.32 47.97 12.02 49.38C10.71 50.8 9.46001 52.27 8.29001 53.81C7.17001 55.3 6.16001 56.8599 5.20001 58.4499C4.68001 59.3099 4.16001 60.18 3.64001 61.06C2.92001 62.3 2.21999 63.59 1.70999 64.92C0.81999 67.25 0.299991 69.78 0.679991 72.27C0.849991 73.43 1.34 74.56 2.13 75.43C2.86 76.24 3.81999 76.8699 4.83999 77.2299C6.04999 77.6499 7.31999 77.9 8.58999 77.9C9.83999 77.9 11.07 77.74 12.29 77.5C13.7 77.23 15.11 76.8999 16.47 76.4499C17.7 76.0499 18.92 75.5799 20.06 74.9599C21.13 74.3799 22.16 73.7099 23.11 72.9499C24.55 71.7999 25.87 70.54 27.19 69.26C29.4926 67.0344 31.7 64.7282 33.9125 62.4166C34.2847 62.0278 34.657 61.6388 35.03 61.25C36.45 59.77 37.86 58.28 39.24 56.76C40.3864 55.5043 41.5081 54.2073 42.6199 52.9216C42.7301 52.7943 42.8401 52.6671 42.95 52.54C42.935 52.56 42.9175 52.5775 42.9 52.595C42.8825 52.6125 42.865 52.63 42.85 52.65C43.1 52.365 43.3525 52.0775 43.605 51.79C43.8341 51.5291 44.0633 51.2682 44.2906 51.0092C44.2904 51.0094 44.2907 51.0089 44.2906 51.0092C44.3024 50.9956 44.3137 50.9829 44.3256 50.9694C44.3376 50.9574 44.3495 50.9454 44.3592 50.9311C44.9772 50.229 45.6157 49.5493 46.254 48.8696C46.9794 48.0973 47.7047 47.325 48.4 46.52C49.4897 45.2607 50.573 43.9819 51.655 42.7046C51.9134 42.3995 52.1717 42.0946 52.43 41.79C52.8502 41.3228 53.2758 40.8586 53.7019 40.3939C54.817 39.1777 55.9354 37.9579 56.97 36.67C57.0255 36.601 57.0812 36.5319 57.1368 36.4627C57.1872 36.4 57.2377 36.3373 57.2882 36.2746C57.3258 36.553 57.3598 36.8315 57.39 37.11C57.45 38.42 57.4 39.73 57.32 41.04C57.26 41.88 57.18 42.7201 57.07 43.5501C57.0234 43.9195 56.9661 44.289 56.9088 44.6584C56.8189 45.239 56.7289 45.8195 56.68 46.4C56.59 47.36 56.52 48.32 56.57 49.28C56.6286 50.2364 56.7252 51.1832 56.8228 52.1392L56.83 52.21C56.848 52.3899 56.8656 52.5698 56.8832 52.7497C56.9536 53.4698 57.024 54.1899 57.12 54.91C57.21 55.7 57.31 56.48 57.48 57.26C57.73 58.4 58.1 59.53 58.6 60.59C59.1 61.64 59.65 62.76 60.49 63.57ZM60.5265 31.7994C60.8587 32.2268 60.9867 32.807 60.86 33.38C60.85 33.435 60.8375 33.4875 60.825 33.5399C60.8125 33.5924 60.8 33.6449 60.79 33.7C60.74 33.97 60.7 34.24 60.68 34.51V34.84C60.7073 35.1782 60.7524 35.5164 60.7975 35.8546C60.8351 36.1364 60.8727 36.4182 60.9 36.7C60.96 37.25 60.97 37.82 60.96 38.38C60.94 39.45 60.91 40.53 60.83 41.6C60.7439 42.7243 60.5971 43.8428 60.4502 44.9617C60.324 45.9228 60.1978 46.8843 60.11 47.85C60.1 48.51 60.11 49.1501 60.15 49.8101C60.1976 50.2952 60.2474 50.7803 60.2973 51.2665C60.3524 51.8025 60.4076 52.3399 60.46 52.88C60.58 54.07 60.71 55.2601 60.93 56.4301C61.04 56.9301 61.18 57.41 61.33 57.9C61.54 58.49 61.79 59.06 62.06 59.63C62.24 59.97 62.42 60.29 62.63 60.61C62.73 60.75 62.83 60.88 62.93 61.01L63.13 61.21C63.16 61.235 63.19 61.2575 63.22 61.28C63.25 61.3025 63.28 61.325 63.31 61.35C63.3514 61.3776 63.3928 61.4004 63.4375 61.425C63.4576 61.4361 63.4783 61.4476 63.5 61.46C63.53 61.47 63.5575 61.4825 63.585 61.495C63.6125 61.5075 63.64 61.52 63.67 61.53C63.83 61.58 64 61.6301 64.17 61.6701C64.47 61.7201 64.78 61.76 65.09 61.78C65.6 61.8 66.11 61.81 66.61 61.78C67.04 61.74 67.45 61.68 67.87 61.6C67.9031 61.5912 67.9362 61.5825 67.9694 61.5737C68.2778 61.4923 68.5921 61.4094 68.89 61.3101C69.21 61.1901 69.52 61.06 69.83 60.91C70.1 60.77 70.37 60.62 70.63 60.45C70.8 60.33 70.96 60.21 71.11 60.08C71.2 60 71.28 59.92 71.36 59.83C71.49 59.68 71.61 59.52 71.73 59.36C71.84 59.18 71.94 59.0001 72.04 58.8101C72.21 58.4501 72.35 58.08 72.48 57.7C72.63 57.17 72.76 56.64 72.87 56.1L73.62 52.32C73.89 50.96 74.05 49.59 74.18 48.22C74.2601 46.8498 74.2889 45.486 74.3178 44.1184C74.3249 43.7792 74.3321 43.4398 74.34 43.1C74.3739 41.6684 74.4867 40.2441 74.5994 38.8208C74.6198 38.5639 74.6401 38.307 74.66 38.0501V38.08C74.66 38.04 74.66 38.01 74.67 37.97V37.9399C74.93 33.75 74.97 29.56 74.71 25.37C74.5576 23.8539 74.3621 22.3521 74.166 20.8464C74.1306 20.5745 74.0952 20.3024 74.06 20.03C73.84 18.32 73.58 16.6201 73.25 14.9201C72.81 13.0601 72.35 11.2 71.74 9.39002C71.58 8.95002 71.4 8.51004 71.21 8.09004C71.07 7.82004 70.92 7.56 70.76 7.3C70.7345 7.26712 70.7102 7.23425 70.6863 7.20186C70.6449 7.14558 70.6045 7.09076 70.56 7.03999L70.2 6.68C70.1784 6.66198 70.1568 6.64526 70.1356 6.6289C70.0981 6.59986 70.062 6.57197 70.03 6.53999L69.88 6.45002C69.67 6.35002 69.46 6.26 69.25 6.18C68.64 5.98 68.02 5.79998 67.39 5.65998C67.0668 5.61958 66.7436 5.57921 66.4151 5.54938C66.4167 5.54958 66.4184 5.54979 66.42 5.55C66.2599 5.5396 66.1002 5.52877 65.9407 5.51795C65.3335 5.47677 64.7299 5.43583 64.12 5.41999C63.3053 5.40012 62.4906 5.41975 61.6661 5.43962L61.65 5.44001C59.96 5.47001 58.27 5.38999 56.59 5.28999C55.9841 5.25673 55.3754 5.23303 54.7659 5.20931C53.726 5.16882 52.6841 5.12826 51.65 5.03999C50.5483 4.94926 49.4508 4.80394 48.3521 4.65845C47.7554 4.57944 47.1583 4.50039 46.56 4.43C43.92 4.3 41.29 4.35003 38.65 4.46003C35.76 4.69003 32.88 5.15001 30.03 5.69001C29.4 5.84001 28.77 6.01999 28.15 6.22999C27.5357 6.45921 26.9382 6.72208 26.3344 6.98773C26.2797 7.01181 26.2249 7.03591 26.17 7.06001C25.5802 7.3599 24.9898 7.66012 24.41 7.99C23.7802 8.34991 23.1703 8.73982 22.5605 9.12972C21.9805 9.52972 21.43 9.95003 20.89 10.4C20.58 10.68 20.28 10.97 20 11.28C19.8902 11.4081 19.7878 11.54 19.6861 11.671C19.6211 11.7547 19.5563 11.8381 19.49 11.92C19.4597 11.9697 19.4295 12.019 19.3993 12.0681C19.2899 12.246 19.1819 12.4219 19.08 12.61C19.02 12.73 18.97 12.85 18.92 12.98C18.89 13.07 18.87 13.16 18.85 13.25C18.84 13.33 18.83 13.41 18.82 13.5V13.71L18.85 13.9201C18.86 13.9651 18.8725 14.01 18.885 14.055C18.8975 14.1 18.91 14.1449 18.92 14.1899C19 14.4 19.09 14.6101 19.19 14.8101C19.2034 14.8334 19.2178 14.8568 19.2323 14.8801C19.2612 14.9267 19.29 14.9734 19.31 15.02C19.2948 14.9895 19.2736 14.959 19.2556 14.9329C19.25 14.9248 19.2447 14.9171 19.24 14.91V14.9301C19.285 14.9901 19.33 15.0526 19.375 15.1151C19.42 15.1776 19.465 15.2401 19.51 15.3001C19.545 15.3351 19.58 15.3726 19.615 15.41C19.65 15.4475 19.685 15.485 19.72 15.52C19.81 15.6 19.91 15.68 20.01 15.75L20.37 15.96C20.4197 15.9817 20.4684 16.0035 20.5165 16.0249C20.6232 16.0725 20.7266 16.1187 20.83 16.16C21.0997 16.25 21.3795 16.3199 21.6592 16.3898C22.2109 16.4949 22.7722 16.5743 23.3299 16.6532C23.6212 16.6944 23.9118 16.7354 24.2 16.78C24.9557 16.897 25.6952 17.0382 26.4476 17.1818C26.5316 17.1979 26.6157 17.2139 26.7 17.23C28.3 17.54 29.89 17.83 31.51 17.99C32.49 18.01 33.46 17.99 34.44 17.95C35.49 17.91 36.55 18.0001 37.58 18.1801C38.0011 18.2555 38.4143 18.3506 38.8271 18.4457C39.071 18.5018 39.3148 18.558 39.56 18.61L39.77 18.64C39.83 18.64 39.89 18.64 39.95 18.65C39.9452 18.6506 39.9404 18.6512 39.9356 18.6517C39.9604 18.6506 39.9852 18.65 40.01 18.65C40.03 18.645 40.0475 18.64 40.065 18.635C40.0825 18.63 40.1 18.625 40.12 18.62C40.174 18.6003 40.228 18.5803 40.2822 18.5602C40.7502 18.3867 41.2271 18.21 41.72 18.21C42.6385 18.21 43.4197 18.9515 43.4855 19.8564C44.3448 19.8721 45.1016 20.5067 45.22 21.39C45.34 22.3 44.71 23.21 43.8 23.37C43.78 23.37 43.76 23.38 43.74 23.39C43.735 23.395 43.7275 23.3975 43.72 23.4C43.7125 23.4025 43.705 23.405 43.7 23.41C43.675 23.425 43.6525 23.4375 43.63 23.45C43.6075 23.4625 43.585 23.4749 43.56 23.4899C43.5453 23.5015 43.5307 23.5129 43.5163 23.5243C43.3928 23.621 43.2774 23.7116 43.17 23.81C42.8389 24.115 42.5382 24.4427 42.2348 24.7733C42.19 24.8222 42.1451 24.8711 42.1 24.92C42.1 24.92 42.1 24.92 42.11 24.91C41.7428 25.3323 41.3774 25.7565 41.0119 26.1808C40.1831 27.1431 39.3536 28.1062 38.5 29.05C37.2 30.5 35.83 31.89 34.46 33.26C31.9458 35.7742 29.2089 38.0286 26.4727 40.2824C26.3685 40.3682 26.2642 40.4541 26.16 40.54C26.0271 40.6586 25.8941 40.777 25.7613 40.8954C24.8746 41.6853 23.991 42.4725 23.13 43.29C22.11 44.26 21.1 45.25 20.1 46.2399C18.0292 48.2711 15.9682 50.3023 14.0144 52.4501C13.2578 53.3227 12.5193 54.1875 11.79 55.0799C11.1185 55.8933 10.5185 56.7605 9.9224 57.622C9.88826 57.6714 9.85413 57.7207 9.82001 57.77C8.32001 60.09 6.83 62.44 5.58999 64.91C5.28999 65.53 5.02001 66.15 4.79001 66.8C4.60001 67.37 4.44 67.94 4.31 68.53C4.21 69.04 4.14 69.5499 4.1 70.0799C4.09001 70.3998 4.08 70.7201 4.08999 71.04C4.10999 71.29 4.13999 71.54 4.17999 71.78C4.22999 71.99 4.27999 72.19 4.33999 72.39C4.355 72.425 4.37 72.4625 4.38499 72.5C4.39999 72.5375 4.41499 72.575 4.42999 72.6099C4.47999 72.7099 4.54 72.81 4.6 72.9C4.64284 72.96 4.69303 73.0199 4.73797 73.0736C4.74548 73.0826 4.75285 73.0913 4.76001 73.0999C4.77634 73.1163 4.79268 73.1337 4.80936 73.1515C4.84375 73.1881 4.87961 73.2263 4.92001 73.26C5.01001 73.34 5.10999 73.42 5.20999 73.49C5.32951 73.5696 5.44905 73.6394 5.56858 73.7091L5.57001 73.7099C5.82001 73.8299 6.07001 73.93 6.32001 74.02C6.56001 74.09 6.79999 74.1499 7.04999 74.2099C7.38999 74.2699 7.74 74.3199 8.08999 74.3499C8.51999 74.3699 8.95001 74.3699 9.39001 74.3499C10.19 74.2799 10.97 74.16 11.75 74.01C13.1 73.72 14.45 73.3899 15.77 72.9699C16.55 72.6899 17.32 72.38 18.07 72.02C18.66 71.71 19.23 71.38 19.79 71.02C20.62 70.45 21.41 69.82 22.17 69.16C24.9782 66.6474 27.5901 63.9215 30.1949 61.203C30.4099 60.9786 30.6249 60.7542 30.84 60.53L30.9278 60.4383C32.289 59.0185 33.6591 57.5892 35.01 56.16C36.2229 54.8781 37.3872 53.5572 38.5604 52.2263L38.61 52.17C39.15 51.54 39.7 50.9 40.25 50.28L40.22 50.31C40.235 50.29 40.25 50.2725 40.265 50.255C40.28 50.2374 40.295 50.2199 40.31 50.1999C40.3299 50.18 40.35 50.1599 40.36 50.14C41.5198 48.8202 42.7063 47.527 43.8928 46.2339C44.4863 45.587 45.0798 44.9402 45.67 44.29C46.8796 42.8905 48.0792 41.4709 49.2788 40.0514L49.28 40.05C50.219 38.9425 51.1967 37.8735 52.1768 36.8019C52.4179 36.5383 52.6591 36.2745 52.9 36.01C54.29 34.39 55.6 32.7099 56.86 30.9899C57.27 30.3599 57.66 29.73 58 29.05C58.43 28.19 59.63 27.95 60.42 28.42C60.81 28.65 61.11 29.0299 61.23 29.4699C61.36 29.9499 61.27 30.3999 61.05 30.8399C60.8857 31.1654 60.7106 31.4849 60.5265 31.7994ZM44.3592 50.9311C44.3595 50.9307 44.3597 50.9304 44.36 50.93C44.3481 50.9436 44.3362 50.9571 44.3243 50.9707C44.3246 50.9704 44.3254 50.9696 44.3256 50.9694C44.3254 50.9696 44.3258 50.9692 44.3256 50.9694C44.3368 50.9566 44.348 50.9439 44.3592 50.9311Z"
    fill="rgba(191, 192, 191, 1)" />
</svg>