<?xml version="1.0" encoding="UTF-8" standalone="yes"?>
<svg width="91" height="80" viewBox="-40 -40 171 160" fill="none" xmlns="http://www.w3.org/2000/svg">
  <path
    d="M6.57819 75.9667C6.4599 76.5499 6.34003 77.1409 6.34003 77.74C6.34003 78.6999 7.10999 79.46 8.07001 79.46C9.03003 79.46 9.84003 78.6499 9.84003 77.69V77.66L9.96002 76.82C10.08 76.25 10.18 75.66 10.32 75.09L10.6706 73.6589C10.7537 73.3201 10.8369 72.9809 10.92 72.64C11.0901 71.9596 11.2627 71.2817 11.4353 70.6037C11.517 70.2829 11.5987 69.9621 11.6801 69.641C11.7705 69.2844 11.8606 68.9275 11.95 68.57C12.0679 68.0961 12.1859 67.6223 12.3044 67.1487C12.4107 66.7235 12.5174 66.2984 12.6246 65.8736C12.7515 65.3709 12.8792 64.8685 13.0079 64.3663L13.03 64.39C13.34 64.76 13.63 65.14 13.9 65.53C14.22 66.02 14.49 66.5199 14.76 67.04C15.278 68.1304 15.6967 69.262 16.1141 70.3899L16.1154 70.3934L16.24 70.73C16.44 71.41 16.77 71.93 17.42 72.25C17.63 72.36 17.85 72.41 18.07 72.39C18.77 72.39 19.46 71.9399 19.73 71.3C19.95 70.78 19.9 70.24 19.65 69.79C19.4795 69.219 19.2538 68.6535 19.0304 68.0936L19.0297 68.0916C18.952 67.8971 18.8747 67.7032 18.8 67.51C18.12 65.77 17.3 64.04 16.12 62.58C15.5141 61.8239 14.8054 61.1304 13.9989 60.6089C14.3019 59.4969 14.6144 58.3872 14.94 57.28C15.3365 55.9364 15.7477 54.5982 16.1699 53.2639C16.2286 53.3863 16.2885 53.5085 16.35 53.63C16.83 54.56 17.3799 55.43 18.05 56.23C18.59 56.8899 19.21 57.62 19.94 58.07C20.21 58.23 20.5099 58.31 20.8 58.33C21.41 58.33 22.0299 58 22.35 57.45C22.84 56.63 22.55 55.57 21.76 55.06C21.4243 54.7333 21.1049 54.3818 20.7872 54.0282C20.6492 53.8655 20.5173 53.6998 20.3896 53.531C20.3046 53.4187 20.2216 53.305 20.14 53.19C19.89 52.79 19.66 52.3899 19.45 51.98C19.2867 51.6306 19.1316 51.2771 18.9763 50.9233L18.9756 50.9217C18.7889 50.4962 18.6019 50.0701 18.4 49.65C18.2045 49.2347 18.0054 48.7931 17.7591 48.3871C17.8704 48.0537 17.982 47.7204 18.0939 47.3873C18.2056 47.0547 18.3177 46.7223 18.43 46.39C19.0297 44.7438 19.6398 43.1078 20.2541 41.4742C20.4462 41.8365 20.6531 42.1922 20.88 42.54C21.46 43.42 22.1901 44.19 23.05 44.8C23.4701 45.09 23.89 45.39 24.29 45.71C24.59 45.96 24.97 46.07 25.34 46.09C25.88 46.09 26.4301 45.84 26.77 45.4C27.37 44.63 27.2 43.53 26.45 42.92C26.1638 42.6881 25.863 42.4708 25.5609 42.2526C25.2506 42.0284 24.939 41.8032 24.64 41.56C24.51 41.43 24.37 41.29 24.24 41.15C24.1 40.98 23.97 40.81 23.85 40.63C23.63 40.29 23.4299 39.94 23.24 39.58C22.97 39.02 22.72 38.45 22.5 37.87C22.4296 37.6809 22.3633 37.4905 22.297 37.3002C22.226 37.0964 22.155 36.8926 22.0791 36.691C22.6163 35.3538 23.1824 34.0297 23.7488 32.7045L23.7561 32.6878C24.1198 31.8369 24.4835 30.9855 24.84 30.13C24.8199 30.165 24.8025 30.2 24.7849 30.235C24.7803 30.2444 24.7756 30.2539 24.7708 30.2634L24.7615 30.2815C24.7515 30.301 24.7411 30.3205 24.73 30.34C25.2192 29.378 25.6947 28.409 26.1682 27.4446L26.1818 27.4167L26.46 26.85C27.0399 25.7099 27.7001 24.59 28.41 23.52C28.9701 22.72 29.55 21.94 30.1801 21.2C30.7201 20.6 31.29 20.04 31.88 19.5C32.39 19.07 32.9199 18.66 33.47 18.27C33.98 17.93 34.51 17.6299 35.05 17.35C35.53 17.1199 36.02 16.91 36.53 16.73C37.14 16.53 37.75 16.37 38.37 16.24C39.26 16.0699 40.1599 15.96 41.0699 15.89C43.4696 15.7505 45.8522 15.8445 48.2415 15.9388L48.78 15.96C49.9866 16.0066 51.192 16.0633 52.3966 16.1199L52.4113 16.1207C54.816 16.2338 57.218 16.3467 59.62 16.38C61.75 16.41 63.87 16.43 66 16.4C68.02 16.37 70.03 16.29 72.04 16.21C73.8 16.14 75.58 16.0199 77.34 15.85C77.5356 15.8318 77.7313 15.8143 77.9269 15.7967L77.9386 15.7956L77.9507 15.7945L77.9536 15.7943C79.2585 15.6767 80.5604 15.5593 81.84 15.3C83.5 14.97 85.3099 14.5199 86.73 13.55C86.75 13.6399 86.76 13.74 86.76 13.83V13.84C86.76 13.8205 86.7577 13.801 86.7552 13.7804C86.7537 13.7673 86.7521 13.7536 86.7511 13.7392C86.7505 13.7298 86.75 13.7201 86.75 13.71L86.7501 13.9173L86.75 13.94V13.98C86.74 14.0699 86.73 14.15 86.71 14.24L86.7089 14.2438C86.6792 14.3525 86.6495 14.4612 86.61 14.57C86.5596 14.7046 86.506 14.8361 86.4492 14.9662C86.4048 15.068 86.3584 15.169 86.3101 15.27C86.13 15.61 85.9399 15.93 85.74 16.25C85.4299 16.67 85.11 17.0799 84.77 17.47C83.91 18.4499 82.99 19.35 82.02 20.22C81.101 21.0242 80.1451 21.7734 79.1438 22.4677C78.0612 23.1951 76.9401 23.9202 75.78 24.51C74.92 24.95 74.6801 26.1399 75.14 26.93C75.66 27.8 76.71 28.01 77.5699 27.57C78.1321 27.2801 78.6788 26.9439 79.2236 26.6089L79.45 26.47C80.7699 25.66 82.05 24.79 83.26 23.81C84.76 22.59 86.16 21.2699 87.4301 19.81C88.1101 19.04 88.75 18.22 89.24 17.31C89.66 16.54 90.0599 15.73 90.21 14.85C90.36 13.9399 90.29 13.03 90.03 12.14C89.8201 11.4 89.38 10.76 88.86 10.21C88.88 9.84996 88.86 9.48992 88.77 9.15996C88.48 8.03997 87.8701 7.11998 87.0601 6.30998C85.8492 5.08043 84.4008 4.14171 82.9541 3.20421L82.953 3.20348L82.67 3.02001C82.1364 2.67382 81.5975 2.33281 81.0609 1.99333C80.8534 1.86205 80.6462 1.73101 80.4399 1.59996C80.2438 1.47563 80.05 1.35131 79.8563 1.22698L79.83 1.20995C79.6274 1.07994 79.425 0.949999 79.22 0.819995C79.1614 0.782702 79.1028 0.744555 79.0439 0.706225C78.6611 0.456713 78.2682 0.200671 77.8 0.140002C77.0901 0.0499749 76.39 0.379992 76.03 0.999987C75.7001 1.56999 75.73 2.21996 76.03 2.78997C76.41 3.51995 76.9399 4.21001 77.48 4.83C78.1 5.54997 78.75 6.22997 79.46 6.85997C80.2 7.51995 80.96 8.14995 81.73 8.78997C82.1602 9.14507 82.5953 9.49272 83.0319 9.8391L83.3478 10.0896L83.3529 10.0936C83.6823 10.3547 84.0118 10.6159 84.34 10.88C84.2899 10.9 84.25 10.93 84.2 10.95C83.9099 11.08 83.62 11.1999 83.3199 11.31C82.73 11.5 82.13 11.66 81.52 11.79C80.0095 12.0871 78.4854 12.2276 76.9531 12.3688C76.629 12.3987 76.3047 12.4286 75.98 12.46C72.4299 12.69 68.88 12.86 65.3199 12.9C61.6399 12.94 57.9801 12.83 54.3 12.7C53.3558 12.6659 52.4116 12.6188 51.4674 12.5718L51.4542 12.571C51.0594 12.5513 50.6647 12.5316 50.2699 12.5129C49.9532 12.4978 49.6366 12.4833 49.3199 12.47C48.13 12.4199 46.9399 12.38 45.74 12.33C44.61 12.28 43.46 12.2699 42.3199 12.32L42.1099 12.3296C40.8779 12.3859 39.6312 12.4429 38.42 12.67C37.15 12.9 35.88 13.19 34.6801 13.69C33.5801 14.15 32.53 14.7099 31.53 15.37C29.4301 16.7699 27.62 18.6199 26.16 20.66C25 22.28 23.97 23.9999 23.09 25.79C22.8593 26.2614 22.6261 26.7328 22.3929 27.2043C22.1938 27.6066 21.9948 28.009 21.7974 28.4113L21.7 28.61C21.4707 29.0709 21.2721 29.5522 21.0742 30.0315C20.9999 30.2117 20.9257 30.3916 20.85 30.57C20.55 31.26 20.25 31.95 19.96 32.65C19.8867 32.8229 19.8138 32.9961 19.7413 33.1693C19.3447 32.9592 18.9086 32.83 18.48 32.83C17.64 32.83 16.84 33.29 16.16 33.73L15.96 33.8591C14.4465 34.8366 12.9296 35.8163 11.33 36.64C11.23 36.685 11.1325 36.73 11.035 36.775C10.9375 36.82 10.84 36.865 10.74 36.91C10.735 36.91 10.73 36.9125 10.725 36.915C10.72 36.9175 10.715 36.92 10.71 36.92C10.67 36.92 10.64 36.93 10.6 36.94C10.45 36.97 10.29 37.05 10.16 37.12C9.38995 37.53 9.08997 38.54 9.42999 39.33C9.75 40.09 10.5099 40.47 11.3 40.4C11.81 40.35 12.31 40.09 12.77 39.87C13.14 39.69 13.49 39.5 13.84 39.3C14.2861 39.0439 14.7252 38.7879 15.1633 38.5318L15.44 38.37C15.915 38.09 16.38 37.7925 16.845 37.495C17.31 37.1975 17.775 36.9 18.25 36.62C18.2673 36.6596 18.2844 36.6992 18.3013 36.7389C17.4109 39.0212 16.5635 41.3206 15.72 43.62C15.3713 44.5726 15.0372 45.53 14.7092 46.4899C14.1135 46.4368 13.5051 46.511 12.94 46.72C11.6898 47.179 10.5638 47.9433 9.46851 48.6867L9.39001 48.74C9.06494 48.9659 8.73987 49.1887 8.41486 49.4102C8.1499 49.5907 7.88495 49.7704 7.62 49.95L7.60999 49.96L7.59998 49.97C7.56 49.9974 7.52002 50.0243 7.48004 50.0508C7.44043 50.0771 7.40082 50.1031 7.36121 50.1291C7.28076 50.1819 7.20038 50.2347 7.12 50.29C7.17767 50.2569 7.22852 50.224 7.2782 50.1911C6.92816 50.4235 6.56885 50.6461 6.20001 50.85C6.17999 50.85 6.15997 50.86 6.14001 50.87C6.04999 50.8899 5.95996 50.92 5.87 50.96C5.04999 51.29 4.61993 52.22 4.84998 53.06C4.96997 53.4599 5.21997 53.8099 5.56 54.04C5.85999 54.28 6.23999 54.42 6.65002 54.42C7.04999 54.42 7.41992 54.28 7.71997 54.05C8.30994 53.78 8.85999 53.38 9.38 53.02C9.89825 52.6678 10.421 52.3157 10.9422 51.9605C11.2054 51.7812 11.4683 51.6011 11.73 51.42C12.283 51.0644 12.8299 50.7213 13.3952 50.4055C12.9567 51.7529 12.5367 53.1097 12.13 54.46C12.0024 54.8957 11.8737 55.3313 11.7449 55.7672C11.3619 57.0633 10.9786 58.3606 10.6242 59.6628C9.8302 59.7 9.05774 59.8989 8.34003 60.25L8.15167 60.3437L8.14893 60.3454C7.77301 60.532 7.39911 60.7176 7.03998 60.94C6.99481 60.9689 6.94983 60.9979 6.90497 61.027C6.85315 61.0607 6.80145 61.0945 6.74994 61.1285C6.65955 61.188 6.56946 61.248 6.47931 61.3084L6.17822 61.5106C6.10913 61.557 6.03973 61.6035 5.96997 61.65C5.13995 62.21 4.33002 62.77 3.52002 63.34C3.10004 63.62 2.66998 63.89 2.21997 64.14C2.16998 64.16 2.10999 64.19 2.06 64.21C1.27997 64.39 0.679993 65.11 0.679993 65.94C0.679993 66.91 1.48999 67.71 2.45001 67.71C3.08002 67.71 3.70996 67.38 4.23999 67.07C4.76001 66.77 5.27002 66.4399 5.76001 66.1C6.07001 65.885 6.3775 65.67 6.685 65.4549C6.86511 65.329 7.04523 65.2031 7.22583 65.0771C7.35358 64.9881 7.48157 64.899 7.60999 64.81C7.74481 64.7182 7.88257 64.6236 8.02167 64.5293C8.1405 64.4487 8.26025 64.3683 8.38 64.29C8.77002 64.03 9.17004 63.79 9.59003 63.58L9.6059 63.5728C9.47577 64.0811 9.34625 64.5892 9.21686 65.097L9.20441 65.1455L9.03998 65.79L7.59998 71.54C7.37 72.4399 7.14996 73.34 6.92999 74.24C6.90131 74.3595 6.87494 74.4801 6.84985 74.6013C6.8338 74.6791 6.8183 74.7571 6.80304 74.8353C6.78595 74.923 6.76917 75.0109 6.75244 75.0987L6.72333 75.2511L6.70789 75.331C6.67993 75.475 6.65118 75.6183 6.62 75.76L6.57819 75.9667Z"
    fill="rgba(191, 192, 191, 1)" />
</svg>