<?xml version="1.0" encoding="UTF-8" standalone="yes"?>
<svg width="212" height="181" viewBox="-40 -40 292 261" fill="none" xmlns="http://www.w3.org/2000/svg">
  <path fill-rule="evenodd" clip-rule="evenodd"
    d="M48.3405 0.123174C34.689 0.662894 20.709 3.85426 10.6462 8.66481C6.18955 10.8002 3.67973 12.3959 1.73285 14.3202C-0.964619 16.9718 -0.425113 17.6289 2.74149 15.5404C9.16851 11.3165 20.7794 7.35073 32.5075 5.40304C43.6962 3.54922 59.4588 3.59616 76.2535 5.52037C98.6074 8.10164 114.276 11.997 133.604 19.7643C145.215 24.434 155.981 30.3005 163.722 36.1905C170.993 41.7051 183.472 53.9074 189.383 61.2758C196.749 70.451 203.011 84.9296 204.888 97.132C206.108 105.063 205.756 114.919 203.996 121.865C202.143 129.116 198.672 135.687 193.465 141.718C180.446 156.877 157.905 164.362 119.061 166.498C112.822 166.826 97.1531 166.639 90.3273 166.146C74.8696 164.996 64.8303 163.658 52.2108 161.054C45.69 159.716 42.2184 158.848 42.711 158.66C42.8987 158.613 44.4468 158.167 46.1122 157.698C47.801 157.205 49.959 156.431 50.9207 155.961C52.3516 155.257 52.7503 154.929 53.1256 154.201C53.5009 153.427 53.5244 153.146 53.2898 152.418C52.633 150.212 51.2256 149.931 45.6665 150.846C40.7876 151.667 37.2926 151.902 29.8335 151.925C24.0398 151.925 23.5472 151.949 22.6324 152.418C19.372 153.99 19.9819 158.496 24.3213 165.16C28.3088 171.238 32.2261 175.18 37.1988 178.043C40.1308 179.756 43.1801 180.624 43.1801 179.779C43.1801 179.615 42.4061 178.7 41.4678 177.738C40.2716 176.494 38.6061 174.242 35.8852 170.111C31.7569 163.846 30.1853 161.335 30.3026 161.194C30.3495 161.171 32.6717 161.898 35.4865 162.837C46.7689 166.592 64.0328 169.947 80.7102 171.613C100.906 173.631 115.168 173.725 133.956 171.965C151.994 170.299 167.85 166.333 179.086 160.678C194.59 152.887 205.615 139.676 209.462 124.329C211.385 116.585 211.784 106.988 210.517 97.8829C208.828 85.5866 202.589 70.2164 195.271 60.3606C189.712 52.8749 176.975 40.2971 167.733 33.1399C152.486 21.36 124.503 9.83813 99.0061 4.81639C86.5508 2.37592 71.9376 0.569007 61.8279 0.217016C53.9935 -0.0411113 52.5627 -0.0645544 48.3405 0.123174Z"
    fill="rgba(191, 192, 191, 1)" />
</svg>