<?xml version="1.0" encoding="UTF-8" standalone="yes"?>
<svg width="75" height="86" viewBox="-40 -40 155 166" fill="none" xmlns="http://www.w3.org/2000/svg">
  <path
    d="M46.9397 43.0144C47.0075 43.5928 47.0746 44.1646 47.22 44.73C47.42 45.51 48.17 46.03 48.96 46.03C49.11 46.03 49.26 46.01 49.41 45.97C50.35 45.71 50.88 44.72 50.64 43.79C50.63 43.72 50.6101 43.64 50.59 43.57C50.47 42.77 50.4 41.96 50.33 41.15C50.3238 40.9901 50.3177 40.8301 50.3116 40.6702C50.2689 39.5502 50.2263 38.4299 50.13 37.31C50.1202 37.2069 50.1107 37.1038 50.1011 37.0007C50.0523 36.4742 50.0036 35.9483 49.92 35.43C49.8973 35.2759 49.8757 35.1212 49.854 34.9664L49.8538 34.9648C49.78 34.4372 49.7059 33.9076 49.59 33.39C49.3301 32.2296 49.0573 31.0736 48.7845 29.9178C48.4696 28.5835 48.1547 27.2496 47.86 25.91C47.83 25.7327 47.7997 25.5556 47.7695 25.3785C47.4978 23.7872 47.227 22.2008 47.11 20.59L47.1088 20.5651C47.0992 20.3742 47.09 20.1917 47.09 20V19.74C47.07 18.77 46.3 17.97 45.32 17.97C44.32 17.97 43.59 18.78 43.55 19.74C43.5142 20.5267 43.6064 21.3215 43.6978 22.1099L43.7131 22.2424L43.73 22.39C43.7496 22.5471 43.7671 22.7042 43.7846 22.8609C43.8205 23.1831 43.8562 23.5038 43.91 23.82L43.983 24.2597C44.1575 25.313 44.3318 26.3653 44.56 27.41C44.84 28.66 45.13 29.9 45.44 31.15C45.6308 31.9209 45.8042 32.6977 45.9779 33.4758C46.0317 33.717 46.0856 33.9587 46.14 34.2C46.195 34.565 46.2525 34.93 46.31 35.295C46.3675 35.66 46.425 36.025 46.48 36.39C46.5524 36.8242 46.5829 37.2741 46.6131 37.7207C46.6247 37.8913 46.6362 38.0614 46.65 38.23C46.7 39.2 46.7401 40.17 46.7801 41.14C46.8001 41.62 46.84 42.12 46.89 42.6C46.9073 42.7382 46.9236 42.8769 46.9397 43.0144Z"
    fill="rgba(191, 192, 191, 1)" />
  <path
    d="M61.7196 21.1551C61.933 21.8481 62.1476 22.5451 62.42 23.21C62.7 23.88 63.38 24.29 64.06 24.29C64.29 24.29 64.52 24.24 64.74 24.15C65.63 23.78 66.05 22.72 65.68 21.83C65.6017 21.656 65.5386 21.4744 65.4774 21.2985C65.4682 21.2722 65.4591 21.246 65.45 21.22C64.99 19.85 64.64 18.47 64.31 17.06C64.2716 16.867 64.2328 16.6739 64.194 16.4808C63.8992 15.0134 63.6037 13.5423 63.48 12.04V11.73C63.53 11.57 63.56 11.39 63.56 11.21C63.56 10.24 62.75 9.44 61.79 9.44C61.08 9.44 60.41 9.87003 60.13 10.53C59.92 11.03 59.93 11.57 59.95 12.1C59.97 12.68 60.05 13.27 60.13 13.84C60.2842 14.8501 60.48 15.8483 60.6762 16.8484C60.7345 17.1453 60.7927 17.4424 60.85 17.74C61.04 18.71 61.27 19.69 61.56 20.64C61.6137 20.8111 61.6666 20.983 61.7196 21.1551Z"
    fill="rgba(191, 192, 191, 1)" />
  <path fill-rule="evenodd" clip-rule="evenodd"
    d="M17.6159 82.7517C17.7741 82.9451 17.9321 83.138 18.09 83.33C18.92 84.34 20.14 85.56 21.52 85.58C21.73 85.58 21.95 85.55 22.16 85.49C22.5575 85.3751 22.9395 85.1588 23.3058 84.9514C23.3542 84.924 23.4022 84.8968 23.45 84.87C23.81 84.65 24.16 84.41 24.5 84.14C25.1689 83.6208 25.7781 83.0219 26.3771 82.4328L26.38 82.43C27.2822 81.5435 28.1474 80.6263 29.0143 79.7073C29.2524 79.4548 29.4907 79.2022 29.73 78.95C30.93 77.68 32.13 76.4 33.29 75.09C34.0659 74.2148 34.8148 73.3165 35.5631 72.419C36.0203 71.8705 36.4773 71.3224 36.94 70.78C38.16 69.34 39.4 67.91 40.65 66.49C41.94 65.03 43.23 63.57 44.48 62.08C45.73 60.58 46.96 59.06 48.18 57.53C48.4652 57.172 48.7511 56.8143 49.0371 56.4565C51.1079 53.8658 53.1837 51.269 55.02 48.51C55.58 47.68 56.14 46.85 56.66 45.99C57.21 45.09 57.72 44.17 58.22 43.23C58.64 42.46 59 41.66 59.34 40.85C59.34 40.87 59.35 40.9 59.36 40.92C59.76 42.08 60.28 43.17 60.83 44.26C61.23 45.11 61.59 45.97 61.91 46.85C61.965 47.0149 62.0193 47.1813 62.0738 47.3483C62.2274 47.8189 62.3829 48.2951 62.56 48.76C62.5977 48.8596 62.6346 48.9605 62.6718 49.0618C62.9106 49.7135 63.1568 50.3854 63.65 50.87C64.35 51.57 65.44 51.53 66.15 50.87C66.6309 50.4235 66.7873 49.7631 66.9359 49.1358C66.9603 49.0327 66.9846 48.9302 67.01 48.83C67.1378 48.3097 67.2489 47.781 67.3586 47.2593L67.39 47.11C67.5875 46.172 67.724 45.2205 67.8609 44.2666L67.8611 44.2652L67.8613 44.2639L67.8615 44.2627C67.8908 44.0586 67.9201 43.8543 67.95 43.65C68.3804 40.6678 68.929 37.7033 69.4777 34.7383L69.4779 34.7371C69.643 33.8451 69.8081 32.9525 69.97 32.06C70.64 28.34 71.22 24.6 71.73 20.86C71.7869 20.4551 71.8428 20.0501 71.8988 19.6453C72.0984 18.2006 72.2978 16.7573 72.54 15.32C72.836 13.5758 73.1577 11.8316 73.4793 10.0874C73.5597 9.65158 73.64 9.21581 73.72 8.78003C73.97 7.48003 74.22 6.14 74.24 4.81C74.25 3.83 74.23 2.72997 73.71 1.84997C73.23 1.01997 72.28 0.440015 71.3 0.580015C70.699 0.665868 70.1527 0.915514 69.6088 1.16403L69.53 1.20001C68.1332 1.84469 66.7569 2.54401 65.3841 3.24153L65.3813 3.24294C65.0944 3.38873 64.8068 3.53487 64.52 3.67999C61.4691 5.19586 58.384 6.64084 55.2984 8.08601C54.121 8.63747 52.9435 9.18895 51.7678 9.74442C51.565 9.80086 51.3703 9.89288 51.197 10.0145C49.2021 10.9599 47.2134 11.9186 45.24 12.91C45.07 12.97 44.9 13.05 44.75 13.15L44.39 13.33C44.3301 13.36 44.2699 13.3901 44.21 13.43L44.03 13.52C44.02 13.52 44.01 13.53 44.01 13.53C44 13.53 43.98 13.54 43.96 13.55C43.94 13.56 43.9175 13.57 43.895 13.58C43.8725 13.59 43.85 13.6 43.83 13.61C43.73 13.66 43.63 13.71 43.54 13.76C43.54 13.77 43.53 13.77 43.52 13.77C43.4316 13.8198 43.3401 13.8634 43.2473 13.9077C43.1722 13.9435 43.096 13.9798 43.02 14.02C42.8485 14.0902 42.6831 14.1786 42.5191 14.2662C42.4726 14.291 42.4263 14.3158 42.38 14.34C42.375 14.345 42.3675 14.35 42.36 14.355C42.3525 14.36 42.345 14.365 42.34 14.37C42.33 14.38 42.32 14.39 42.3 14.39H42.29C42.25 14.41 42.23 14.42 42.2 14.44C42.1938 14.44 42.1876 14.4438 42.1791 14.4491L42.1707 14.4542L42.1662 14.4568L42.16 14.46H42.15C39.39 15.85 36.66 17.32 33.95 18.81C32.32 19.7 30.69 20.61 29.07 21.52C28.6754 21.7436 28.2807 21.9634 27.887 22.1827L27.8859 22.1833C27.382 22.464 26.8794 22.7439 26.38 23.03C26.1166 23.1817 25.8511 23.3312 25.5854 23.4808C24.8523 23.8937 24.1172 24.3076 23.42 24.77L23.3005 24.8499C22.4742 25.4021 21.5065 26.0487 21.23 27.05C21 27.88 21.36 28.72 22.08 29.18C22.59 29.5 23.24 29.61 23.83 29.66C24.77 29.75 25.71 29.76 26.65 29.67C27.13 29.62 27.62 29.55 28.1 29.48C26.3957 31.3928 24.6503 33.2646 22.9085 35.1325L22.37 35.71C20.02 38.23 17.72 40.79 15.43 43.37C14.3468 44.596 13.2565 45.8149 12.1666 47.0334C10.6605 48.7171 9.15516 50.4001 7.66998 52.1L7.45757 52.3436C6.23861 53.7416 5.02359 55.1351 3.88 56.6C3.67332 56.8661 3.46381 57.131 3.25402 57.3963C2.58077 58.2477 1.90469 59.1027 1.31 60.01C0.989998 60.5 0.710022 61.02 0.710022 61.62C0.710022 61.92 0.790002 62.24 0.940002 62.51C0.730002 63.07 0.790002 63.73 1.19 64.2C1.32371 64.3592 1.46958 64.5022 1.61471 64.6444L1.61542 64.6451C1.69798 64.726 1.78029 64.8067 1.85999 64.89C1.93739 64.9715 2.01147 65.053 2.08493 65.1338C2.1918 65.2513 2.29737 65.3674 2.40997 65.48C2.73038 65.8143 3.06158 66.1314 3.39254 66.4483C3.77425 66.8137 4.15585 67.1791 4.52002 67.57C5.26002 68.43 6.02003 69.28 6.84003 70.07C7.64003 70.83 8.40001 71.61 9.14001 72.43H9.13L9.30879 72.6348C10.21 73.6668 11.1146 74.7026 11.94 75.8C12.2077 76.1549 12.4691 76.5144 12.7304 76.8737C13.3378 77.7091 13.9448 78.5439 14.63 79.32C14.735 79.435 14.8375 79.5525 14.94 79.67C15.0164 79.7576 15.0927 79.8451 15.1701 79.9316C15.4303 80.2327 15.6989 80.5254 15.9674 80.8182C16.1626 81.031 16.358 81.244 16.55 81.46C16.6288 81.554 16.7074 81.6482 16.7857 81.7425C16.9095 81.9948 17.0908 82.2196 17.3197 82.3901L17.6159 82.7517ZM47.73 15.64C48.8493 15.09 49.9707 14.5441 51.0942 14.002C51.1909 14.436 51.2804 14.8728 51.3699 15.3097C51.4272 15.5873 51.4865 15.8672 51.546 16.1479C51.6214 16.5038 51.6973 16.8623 51.77 17.22C52.12 19.05 52.46 20.88 52.78 22.72C53.07 24.38 53.35 26.05 53.52 27.72C53.601 28.5346 53.6766 29.3474 53.7521 30.1599C53.8537 31.2522 53.9553 32.3449 54.07 33.44C54.16 34.24 54.31 35.05 54.46 35.84C54.5167 36.127 54.5724 36.4141 54.628 36.7011C54.739 37.274 54.85 37.847 54.9699 38.42C54.962 38.3963 54.9557 38.3725 54.9503 38.3494C54.9438 38.3159 54.9371 38.2828 54.93 38.25L54.9349 38.2752C54.9394 38.2986 54.9443 38.3236 54.9503 38.3494C54.9598 38.3984 54.9688 38.4481 54.9779 38.498C55.006 38.6531 55.0346 38.8108 55.08 38.96C55.09 39.05 55.11 39.14 55.13 39.23C55.1704 39.4069 55.2077 39.5863 55.2451 39.7667C55.3135 40.0963 55.3825 40.4291 55.4729 40.7552L55.3641 40.9859C55.2926 41.1373 55.2211 41.2886 55.15 41.44C54.65 42.37 54.14 43.29 53.59 44.19C53.09 45 52.57 45.8 52.04 46.59C49.97 49.55 47.74 52.38 45.49 55.21C45.2495 55.5134 45.0081 55.8161 44.7657 56.1181C44.8412 55.8265 44.8463 55.5116 44.77 55.2C44.7536 55.1398 44.7402 55.0765 44.7265 55.0119L44.7131 54.9494C44.7059 54.9164 44.6983 54.8832 44.69 54.85C44.62 54.52 44.56 54.19 44.5 53.85C44.2734 52.5833 43.9667 51.3344 43.66 50.0855C43.5067 49.4611 43.3534 48.8367 43.21 48.21C42.8813 46.7951 42.5781 45.3802 42.2749 43.9654L42.2746 43.9637C42.1536 43.3994 42.0325 42.8343 41.91 42.27C41.4903 40.3204 41.0425 38.3765 40.5948 36.4337C40.1999 34.7194 39.805 33.0055 39.43 31.29L39.4162 31.2196C38.9809 28.9933 38.5473 26.7762 38.29 24.52C38.17 23.56 37.23 22.88 36.29 23C35.31 23.14 34.66 24.04 34.77 25C35.03 27.19 35.45 29.36 35.87 31.52C36.1741 33.1032 36.5422 34.6703 36.91 36.2358L37.04 36.79C37.51 38.82 37.97 40.85 38.42 42.89C38.5991 43.6936 38.7705 44.4991 38.9418 45.3041L38.9422 45.3059C39.163 46.3434 39.3836 47.3798 39.62 48.41C39.7965 49.1893 39.9842 49.9667 40.1718 50.7439L40.1722 50.7454C40.4201 51.7726 40.6681 52.8 40.89 53.83C41.03 54.61 41.17 55.38 41.35 56.15C41.54 56.94 42.3001 57.45 43.09 57.44C43.2401 57.44 43.39 57.42 43.54 57.38C43.6444 57.3503 43.7435 57.3122 43.8368 57.2666C42.0225 59.493 40.1609 61.6812 38.27 63.84C36.95 65.34 35.63 66.85 34.34 68.37C33.8212 68.9812 33.3062 69.5963 32.7908 70.2118L32.7895 70.2133C32.1332 70.9971 31.4763 71.7817 30.81 72.56C30.2442 73.1976 29.6724 73.8291 29.0946 74.4556C28.8868 73.4944 28.6074 72.5509 28.3279 71.607C28.0527 70.6776 27.7773 69.7478 27.57 68.8C27.2876 67.2832 27.1419 65.7468 26.9964 64.2119C26.9615 63.8444 26.9267 63.477 26.89 63.11C26.7767 61.9766 26.6989 60.8343 26.6211 59.6921C26.5822 59.121 26.5433 58.5499 26.5 57.98C26.35 55.9 26.2 53.84 25.99 51.78C25.6 47.94 25.08 44.1 24.22 40.33C24.1409 39.9924 23.9535 39.705 23.7041 39.487C23.9621 39.2075 24.2207 38.9285 24.48 38.65L24.9276 38.168C25.8936 37.128 26.8602 36.0872 27.8223 35.0418C27.8413 35.1112 27.8606 35.1806 27.88 35.25C28.04 35.8365 28.1821 36.4319 28.3243 37.0273C28.3954 37.3251 28.4666 37.6233 28.54 37.92C28.827 39.1069 29.0719 40.3118 29.3167 41.5162L29.317 41.5173C29.3877 41.865 29.4583 42.2128 29.53 42.56C29.52 42.52 29.5125 42.4825 29.505 42.445C29.4975 42.4075 29.49 42.37 29.48 42.33C29.95 44.98 30.38 47.64 30.8 50.3C31.03 51.79 31.27 53.27 31.55 54.75C31.7539 55.8318 32.005 56.9136 32.2545 57.9885L32.35 58.4C32.56 59.41 32.76 60.43 32.92 61.45C32.983 61.8455 33.0276 62.2471 33.0723 62.6493C33.1553 63.3962 33.2385 64.145 33.44 64.86C33.66 65.63 34.38 66.15 35.16 66.16C35.31 66.16 35.46 66.14 35.62 66.1C36.54 65.84 37.12 64.85 36.85 63.92C36.84 63.89 36.8325 63.8625 36.825 63.835L36.8188 63.8126L36.8114 63.7865C36.8079 63.7746 36.8042 63.7625 36.8 63.75C36.7086 63.1675 36.6318 62.5851 36.555 62.0037C36.4302 61.0581 36.3058 60.1151 36.12 59.18C35.79 57.57 35.44 55.98 35.08 54.39C34.77 52.72 34.5 51.05 34.24 49.37C33.93 47.31 33.59 45.26 33.23 43.21C32.9646 41.6984 32.6476 40.1933 32.3308 38.6895C32.2536 38.3231 32.1764 37.9564 32.1 37.59C31.9548 36.8785 31.7727 36.1723 31.592 35.4714C31.5238 35.207 31.4557 34.9429 31.39 34.68C31.3038 34.3263 31.2063 33.9745 31.109 33.623C30.9806 33.1594 30.8524 32.6963 30.75 32.23C30.7343 32.1189 30.7079 32.0109 30.6718 31.9071C31.1679 31.353 31.6613 30.7965 32.1514 30.237C32.1709 30.2154 32.1905 30.1934 32.21 30.17L32.1514 30.237L32.135 30.255C32.1226 30.2687 32.1102 30.2824 32.0977 30.2963C32.465 29.8708 32.827 29.4418 33.03 28.91C33.24 28.35 33.18 27.8 32.97 27.24C32.77 26.71 32.22 26.29 31.72 26.08C31.18 25.86 30.58 25.77 30 25.77C29.53 25.77 29.05 25.81 28.58 25.86C28.7907 25.7421 29.0026 25.6243 29.2154 25.506C29.5985 25.293 29.9842 25.0786 30.37 24.86C30.9475 24.5411 31.5213 24.2184 32.0946 23.8961C32.8515 23.4705 33.6075 23.0454 34.37 22.63L34.9464 22.314C37.8745 20.7086 40.8058 19.1014 43.79 17.6C43.96 17.54 44.13 17.46 44.28 17.36L44.64 17.18C44.71 17.15 44.77 17.12 44.82 17.09C44.85 17.07 44.87 17.06 44.89 17.05C44.9599 17.0201 45.0302 16.9899 45.09 16.95C45.13 16.94 45.17 16.92 45.21 16.9C45.2996 16.8602 45.399 16.8105 45.4985 16.7607L45.5 16.76C45.5 16.76 45.51 16.75 45.52 16.75C45.6 16.705 45.685 16.665 45.77 16.625C45.855 16.585 45.94 16.545 46.02 16.5C46.1777 16.4283 46.3302 16.3464 46.4813 16.2652L46.4826 16.2645C46.5419 16.2326 46.6009 16.2009 46.66 16.17H46.67L46.6719 16.169C46.7313 16.1393 46.7906 16.1097 46.84 16.08C46.86 16.08 46.87 16.07 46.8799 16.0601C47.0199 15.9901 47.1625 15.92 47.305 15.85C47.4475 15.78 47.59 15.71 47.73 15.64ZM57.95 35.21L57.9928 35.4427C58.0083 35.425 58.024 35.4074 58.04 35.39C58.68 34.7 59.7 34.35 60.57 34.86C60.96 35.09 61.27 35.4 61.46 35.81C61.6229 36.1454 61.7307 36.5082 61.8362 36.8635L61.85 36.91C62.0228 37.4796 62.1874 38.0534 62.3517 38.626L62.352 38.627L62.3523 38.6281C62.4445 38.9492 62.5367 39.2706 62.63 39.59C62.92 40.41 63.25 41.19 63.63 41.97C63.89 42.49 64.14 43 64.38 43.52C64.51 42.6 64.65 41.68 64.8 40.77C65.14 38.83 65.48 36.9 65.84 34.97C66.54 31.19 67.21 27.4 67.76 23.6C67.918 22.506 68.0728 21.4104 68.2275 20.3145L68.2278 20.3125C68.4549 18.7043 68.6822 17.0954 68.92 15.49C69.09 14.3 69.31 13.11 69.53 11.93C69.6218 11.4411 69.7177 10.9518 69.8137 10.4619L69.814 10.4606C70.1676 8.65631 70.5227 6.8442 70.68 5.02002C70.68 4.94502 70.6825 4.87001 70.685 4.79501C70.6875 4.72001 70.69 4.64501 70.69 4.57C69.94 4.92 69.2 5.28997 68.46 5.65997C68.495 5.64497 68.53 5.62748 68.565 5.60998C68.6 5.59249 68.635 5.575 68.67 5.56C66.98 6.42 65.29 7.27997 63.58 8.09997C62.011 8.85806 60.4341 9.59285 58.8632 10.3249L58.23 10.62C56.9361 11.2228 55.645 11.8297 54.3565 12.4411C54.5543 13.2273 54.7169 14.0241 54.8795 14.8207C54.9162 15.0005 54.9529 15.1803 54.99 15.36L54.9913 15.3663C55.1708 16.2442 55.3504 17.1221 55.52 18C55.575 18.2889 55.6305 18.578 55.686 18.8673C55.9938 20.4708 56.3028 22.0804 56.54 23.69C56.6092 24.1703 56.6764 24.6485 56.7434 25.1256L56.7437 25.1279C56.8216 25.683 56.8993 26.2365 56.98 26.79C57.0628 27.3698 57.1172 27.9577 57.1717 28.546C57.2027 28.8808 57.2337 29.2164 57.27 29.55C57.32 30.025 57.36 30.4974 57.4 30.9699C57.44 31.4425 57.48 31.915 57.53 32.39C57.62 33.34 57.78 34.27 57.95 35.21ZM20.3221 80.4914C20.5377 80.7561 20.7526 81.0215 20.9675 81.287L20.97 81.29C21.1005 81.4293 21.2316 81.569 21.3688 81.7017L21.3777 81.7093C21.4438 81.7655 21.5019 81.8148 21.56 81.86C21.7298 81.7601 21.9002 81.6599 22.06 81.56C22.3294 81.3505 22.5887 81.131 22.8481 80.9116L22.85 80.91C23.985 79.8469 25.0562 78.7199 26.1298 77.5903L26.5524 77.146C26.1589 76.8706 25.8714 76.4358 25.79 75.93C25.78 75.8501 25.77 75.7699 25.75 75.7C25.57 74.88 25.38 74.06 25.15 73.24C25.0679 72.9547 24.9841 72.6702 24.9004 72.3859C24.5761 71.2851 24.2526 70.1865 24.03 69.05C23.8143 67.8993 23.7007 66.7294 23.5872 65.5607C23.5586 65.267 23.5301 64.9733 23.5 64.68C23.42 63.89 23.35 63.11 23.29 62.31C23.21 61.245 23.13 60.1775 23.05 59.11C22.97 58.0425 22.89 56.975 22.81 55.91C22.7087 54.4925 22.5657 53.0802 22.4223 51.6656L22.4222 51.6646C22.3674 51.1236 22.3126 50.5822 22.26 50.04C22.2224 49.6574 22.1651 49.2826 22.1078 48.9083C22.0738 48.6859 22.0398 48.4636 22.01 48.24C21.9672 47.9481 21.9274 47.6561 21.8877 47.3648C21.8254 46.9077 21.7633 46.4519 21.69 46C21.4853 44.8045 21.2739 43.6023 21.0448 42.4043C19.5291 44.0854 18.0279 45.7777 16.53 47.47C16.3418 47.6827 16.1534 47.8955 15.9648 48.1082C16.4756 48.4203 16.82 48.9836 16.82 49.62C16.82 50.3109 16.8622 51.0078 16.9045 51.7061C16.9166 51.9073 16.9288 52.1087 16.94 52.31C17.26 56.04 17.56 59.77 17.83 63.5C17.8577 63.8997 17.8834 64.3001 17.9092 64.7006C17.9859 65.8932 18.0627 67.0872 18.19 68.27C18.2449 68.7941 18.3023 69.3156 18.3597 69.8371L18.3603 69.8429C18.4177 70.3644 18.4751 70.8859 18.53 71.41C18.6001 72.048 18.7124 72.686 18.8248 73.3241C18.8569 73.506 18.8889 73.688 18.92 73.87C18.9425 73.9745 18.9648 74.079 18.987 74.1835C19.1031 74.7288 19.2189 75.2729 19.37 75.81C19.4693 76.1687 19.5839 76.5244 19.6985 76.8804C19.7917 77.1694 19.8848 77.4587 19.97 77.75C20.05 78.04 20.13 78.34 20.2 78.64C20.34 79.24 20.38 79.8 20.33 80.41C20.3277 80.4368 20.3251 80.4639 20.3221 80.4914ZM13.319 51.0803C12.4835 52.0155 11.6463 52.9496 10.8091 53.8818C10.6268 54.0923 10.4442 54.3026 10.2616 54.5128C9.43583 55.4633 8.61011 56.4139 7.81 57.39L7.5116 57.7518C6.43749 59.0534 5.35177 60.369 4.40002 61.76C4.40002 61.97 4.37 62.19 4.31 62.38C4.40152 62.4744 4.49222 62.5696 4.58281 62.6647C4.80884 62.9019 5.03454 63.1388 5.27002 63.36C5.72002 63.77 6.16002 64.18 6.58002 64.62C6.97159 65.0286 7.33417 65.4517 7.69861 65.8769C7.7623 65.9512 7.82605 66.0256 7.89001 66.1C8.39129 66.6507 8.91747 67.1665 9.44395 67.6826C9.66316 67.8975 9.88243 68.1125 10.1 68.33C11 69.24 11.85 70.19 12.68 71.16C13.51 72.12 14.31 73.11 15.08 74.12C15.2036 74.2836 15.3253 74.4486 15.4461 74.6144C15.4335 74.5431 15.4214 74.4716 15.41 74.4C15.3673 74.1209 15.3203 73.8417 15.2732 73.5622C15.177 72.9908 15.0804 72.4174 15.02 71.84L15.0188 71.8292C14.8992 70.7528 14.7796 69.6764 14.67 68.59C14.5964 67.8942 14.5497 67.1939 14.5028 66.4921C14.4797 66.1451 14.4565 65.7974 14.43 65.45C14.38 64.68 14.32 63.9 14.26 63.13C14.1 60.98 13.93 58.83 13.76 56.68C13.66 55.45 13.56 54.23 13.45 53C13.3988 52.3627 13.3508 51.7222 13.319 51.0803ZM10.8389 53.8475C10.8526 53.8321 10.8663 53.8164 10.88 53.8L10.8389 53.8475Z"
    fill="rgba(191, 192, 191, 1)" />
</svg>