<?xml version="1.0" encoding="UTF-8" standalone="yes"?>
<svg width="251" height="145" viewBox="-40 -40 331 225" fill="none" xmlns="http://www.w3.org/2000/svg">
  <path fill-rule="evenodd" clip-rule="evenodd"
    d="M237.229 1.28635C236.679 1.6086 234.759 2.85731 232.892 4.0926C229.213 6.53632 219.694 12.2697 215.786 14.4314C213.41 15.7338 213.248 15.895 213.436 16.6737C213.732 17.8822 214.833 19.48 217.116 21.9237L219.076 24.0452L210.536 32.6788C201.835 41.4467 197.888 45.9716 188.825 57.6129C186.059 61.171 183.158 64.756 182.406 65.5617L181.037 67.0655L181.01 65.5349C181.01 62.93 180.097 59.1436 179.023 57.1295C178.338 55.8539 176.941 54.1621 174.914 52.242C171.759 49.1404 169.503 47.8111 168.133 48.1333C167.61 48.2676 166.28 50.1205 163.434 54.6589C158.707 62.1915 153.162 70.1672 149.872 74.249C146.811 78.0354 141.722 82.9498 138.661 85.0981C136.311 86.763 135.693 86.9242 135.693 85.9171C135.693 85.0041 133.478 78.7739 132.404 76.6256C129.866 71.6039 125.851 66.9715 121.716 64.3398C118.426 62.2183 117.701 62.4466 113.606 66.9447C108.584 72.4229 104.932 77.0552 96.2712 89.0053L92.9144 93.6645L91.7462 91.4491C89.0742 86.4005 84.6433 81.3116 81.2462 79.4587C79.8766 78.7068 79.0576 78.5188 77.5269 78.4785C75.8351 78.4785 75.3785 78.6128 73.9418 79.6198C71.4981 81.3116 67.3625 85.5814 64.6234 89.2336C63.2807 91.0328 60.2596 95.5578 57.8427 99.3442C55.4258 103.09 52.6598 107.293 51.6796 108.636C49.9475 110.985 49.8535 111.012 49.5581 110.26C48.3228 107.105 45.5166 101.949 44.1201 100.217C41.0856 96.4976 36.2653 93.6377 33.8886 94.1479C32.2908 94.4702 30.3976 95.7189 28.4506 97.7598C24.4091 101.936 1.55607 132.63 0.750436 135.02C0.455039 135.839 0.549034 136.228 1.30095 137.625C2.24085 139.357 5.70505 142.875 7.92053 144.338C9.42437 145.318 10.7268 145.184 10.3911 144.11C10.0957 143.197 14.5267 136.228 23.402 123.607C33.4053 109.334 37.5811 104.151 40.2263 102.741C40.9782 102.352 41.005 102.486 42.3477 108.904C43.8784 116.141 45.2212 118.652 49.2896 122.009C52.0556 124.292 53.6534 125.232 54.7947 125.232C56.8222 125.232 61.374 119.337 69.6854 105.937C75.0026 97.3704 77.9297 93.5571 81.6087 90.4823C82.75 89.5021 83.8242 88.8576 83.9585 88.9785C84.0927 89.0993 84.5761 90.8314 85.0058 92.7918C86.08 97.5181 86.6036 98.9145 87.9732 100.781C89.7724 103.225 94.4585 107.494 96.4189 108.434C98.0838 109.253 98.245 109.253 99.3191 108.797C100.823 108.179 103.267 105.078 110.209 94.9133C116.17 86.1185 119.406 81.7815 122.629 78.0622L124.75 75.6186L125.959 79.2976C128.013 85.7157 130.43 89.6633 134.498 93.4497C139.977 98.4714 143.75 99.2502 148.704 96.3231C151.054 94.9535 155.941 90.2272 159.07 86.387C161.353 83.5136 166.67 75.726 168.818 72.0067L170.12 69.7912L170.483 71.2548C171.235 74.1819 172.282 75.7797 175.639 79.1096C179.707 83.1243 181.708 84.2925 184.085 84.0911C186.394 83.8897 187.965 83.084 190.409 80.8014C192.53 78.8142 193.215 77.9683 200.117 68.5425C205.434 61.3456 210.321 55.0751 214.162 50.5771C217.773 46.4013 228.958 34.9346 229.455 34.9346C229.656 34.9346 230.368 35.7536 231.08 36.7606C232.678 38.9761 237.041 43.4473 238.867 44.7095C240.398 45.7568 241.835 46.2133 242.09 45.7836C242.184 45.6225 242.573 43.6621 242.976 41.4198C244.829 30.5976 246.172 25.643 249.3 18.1776C251.126 13.8406 251.22 12.5382 249.824 10.457C248.387 8.24155 241.902 2.07854 240.304 1.36691C238.572 0.588136 238.478 0.588126 237.27 1.27291L237.229 1.28635Z"
    fill="rgba(191, 192, 191, 1)" />
</svg>