<?xml version="1.0" encoding="UTF-8" standalone="yes"?>
<svg width="89" height="79" viewBox="-40 -40 169 159" fill="none" xmlns="http://www.w3.org/2000/svg">
  <path fill-rule="evenodd" clip-rule="evenodd"
    d="M11.48 78.49C11.93 78.73 12.44 78.8 12.94 78.82C13.19 78.83 13.44 78.84 13.73 78.84C14.3 78.84 14.87 78.8 15.44 78.73C16.73 78.58 18.03 78.35 19.28 77.98C20.01 77.76 20.75 77.55 21.49 77.33C21.8648 77.219 22.2348 77.0838 22.6067 76.948C22.7706 76.8881 22.9348 76.8281 23.1 76.77C24.36 76.32 25.59 75.85 26.82 75.36C29.2 74.41 31.49 73.2 33.63 71.79C33.976 71.5605 34.322 71.3326 34.6675 71.1049C35.2405 70.7272 35.8122 70.3505 36.38 69.97C38.36 68.67 40.16 67.09 41.83 65.42C43.63 63.62 45.38 61.7 46.84 59.61C47.47 58.71 48.1 57.8101 48.73 56.9C49.1338 56.3347 49.4944 55.7371 49.8555 55.1387C49.9863 54.9221 50.1171 54.7053 50.25 54.49C50.71 53.75 51.12 53.02 51.53 52.25C51.6166 52.0887 51.7039 51.9274 51.7914 51.7658C52.1486 51.1059 52.5087 50.4409 52.83 49.75C52.9602 49.4674 53.0964 49.1859 53.233 48.9037C53.5264 48.2972 53.8211 47.6879 54.06 47.06C54.2483 46.5441 54.4434 46.0416 54.6397 45.5361L54.77 45.2C54.8217 45.0596 54.8776 44.9207 54.9334 44.7815C55.0288 44.5439 55.1243 44.306 55.2 44.06C55.3505 43.5685 55.5009 43.0745 55.6514 42.5804C55.8009 42.0895 55.9504 41.5985 56.1 41.11C56.2666 40.5505 56.4085 39.9839 56.5445 39.4166C57.0193 39.4261 57.4941 39.4436 57.9688 39.4611C58.3625 39.4755 58.7563 39.49 59.15 39.5C59.8833 39.5267 60.6166 39.5711 61.3499 39.6155C61.7166 39.6378 62.0833 39.66 62.45 39.68C65.29 39.89 68.13 40.11 70.96 40.41C73.71 40.71 76.43 41.1801 79.14 41.7C80.11 41.91 81.07 42.12 82.02 42.37C82.56 42.52 83.0799 42.67 83.61 42.83C83.7648 42.8749 83.9195 42.9249 84.0743 42.9748C84.2295 43.0249 84.3848 43.075 84.54 43.12C84.4949 43.1901 84.4498 43.2628 84.4048 43.3354C84.3598 43.4078 84.3149 43.4802 84.27 43.55C83.5631 44.5435 82.8014 45.4915 82.0025 46.4023C81.987 46.4197 81.9717 46.4372 81.9562 46.4546C81.9598 46.4506 81.9635 46.4465 81.9671 46.4426C81.9414 46.4717 81.9158 46.5009 81.89 46.53C81.8948 46.5244 81.8995 46.5187 81.9043 46.5131C80.1152 48.5283 78.2424 50.4689 76.36 52.4C74.8799 53.92 73.34 55.3701 71.76 56.78H71.77C71.7506 56.7994 71.7312 56.8146 71.7118 56.8311C71.7046 56.8372 71.6973 56.8432 71.69 56.85C71.6866 56.8531 71.6833 56.8566 71.68 56.86L71.69 56.85C71.69 56.8546 71.6879 56.8571 71.6847 56.8594C71.6808 56.8621 71.6754 56.8646 71.67 56.87C71.615 56.925 71.5552 56.9753 71.4973 57.024C71.4709 57.0463 71.445 57.0682 71.42 57.09C70.6899 57.72 70.49 58.77 71.1 59.57C71.4399 60 72 60.2501 72.55 60.21C72.93 60.21 73.3 60.09 73.59 59.84C73.9545 59.5242 74.3189 59.2047 74.6811 58.8837C74.9151 58.6761 75.1484 58.4681 75.38 58.26C76.74 57.0601 78.01 55.7601 79.28 54.46C80.74 52.96 82.17 51.44 83.6 49.91C84.36 49.09 85.11 48.25 85.81 47.37C86.56 46.43 87.3 45.47 87.88 44.42C88.47 43.37 88.98 42.22 88.97 40.99C88.9599 39.93 88.68 38.94 88.07 38.07C87.1786 36.8131 85.85 35.9536 84.5662 35.1229C84.4098 35.0217 84.2541 34.921 84.1 34.82L84.069 34.7995C83.3893 34.3464 82.7096 33.8932 82.02 33.44C81.72 33.23 81.42 33.02 81.13 32.81C79.55 31.67 78 30.5001 76.45 29.33C75.58 28.67 74.6499 28.03 73.66 27.56C72.78 27.13 71.8 26.79 70.84 27.2C69.98 27.57 69.54 28.6 69.78 29.49C69.9527 30.117 70.4309 30.5706 70.8844 31.0009C70.93 31.0441 70.9753 31.0871 71.02 31.13C71.5788 31.656 72.212 32.1144 72.8361 32.5663C72.9714 32.6643 73.1063 32.762 73.24 32.86C73.9599 33.39 74.68 33.93 75.39 34.48C76.21 35.12 77.04 35.73 77.87 36.35C78.3049 36.6738 78.7505 36.9827 79.1958 37.2915C79.7132 37.6501 80.2302 38.0085 80.73 38.39C80.6899 38.39 80.66 38.38 80.62 38.37C78.79 37.97 76.93 37.6 75.08 37.35C73.17 37.08 71.2599 36.85 69.35 36.65C67.7576 36.4838 66.1652 36.3712 64.5728 36.2585L63.89 36.21C62.08 36.08 60.27 35.97 58.46 35.92C58.1134 35.9128 57.7641 35.9003 57.4137 35.8879C57.3777 35.8866 57.3418 35.8853 57.3058 35.884C57.3462 35.6687 57.3872 35.4539 57.43 35.24C57.8 33.37 58.0199 31.47 58.23 29.58C58.4468 27.7319 58.5126 25.8748 58.5781 24.0256L58.59 23.69C58.62 22.76 58.62 21.82 58.63 20.89C58.65 20.01 58.65 19.13 58.61 18.25C58.5199 16.28 58.41 14.32 58.13 12.36C57.86 10.44 57.48 8.55005 56.86 6.71002C56.8223 6.59534 56.7852 6.48035 56.7481 6.36529C56.5685 5.80841 56.3887 5.25043 56.14 4.71997C56.02 4.46997 55.89 4.20001 55.75 3.95001C55.7699 3.94006 55.7873 3.93262 55.8047 3.92517C55.8223 3.9176 55.8399 3.91009 55.86 3.90002L55.89 3.92999C56.13 4.23004 56.36 4.53003 56.57 4.84003C56.9834 5.47351 57.388 6.11584 57.7925 6.75818C57.9947 7.07916 58.1968 7.40015 58.4 7.71997C58.6838 8.17541 58.9982 8.6178 59.3113 9.05865C59.4726 9.28564 59.6336 9.51227 59.79 9.73999C60.2624 10.4141 60.7415 11.0849 61.2196 11.7543C61.5713 12.2467 61.9225 12.7383 62.27 13.23C62.59 13.71 62.9499 14.18 63.22 14.69C63.3648 14.9497 63.5071 15.2119 63.6495 15.4741C63.7922 15.7369 63.9349 15.9998 64.08 16.26C64.1461 16.3827 64.2111 16.5051 64.2759 16.627C64.5541 17.1506 64.8274 17.6652 65.16 18.16C65.4999 18.67 65.92 19.21 66.43 19.57C67.0199 19.99 67.61 20.28 68.32 20.43C68.74 20.52 69.17 20.57 69.6 20.62C70.55 20.73 71.46 20.08 71.59 19.11C71.72 18.17 71.04 17.22 70.08 17.11C69.73 17.07 69.3799 17.02 69.04 16.97C68.99 16.96 68.95 16.95 68.9 16.93C68.85 16.91 68.79 16.88 68.73 16.86C68.7099 16.85 68.7 16.84 68.69 16.84C68.67 16.83 68.6525 16.8175 68.6349 16.805C68.6174 16.7925 68.6 16.78 68.58 16.77C68.6224 16.8054 68.6647 16.8406 68.7035 16.8759C68.7197 16.8906 68.7353 16.9053 68.75 16.92C68.62 16.81 68.49 16.7 68.38 16.58C68.29 16.47 68.21 16.3701 68.13 16.26C68.125 16.255 68.1225 16.25 68.12 16.245C68.1175 16.24 68.115 16.235 68.11 16.23C68.1063 16.2263 68.103 16.2231 68.1 16.22C67.8025 15.7496 67.5386 15.26 67.2749 14.7712C67.1575 14.5534 67.0401 14.3358 66.92 14.12C66.8337 13.9662 66.7517 13.8083 66.6697 13.6503C66.5329 13.3871 66.3962 13.1238 66.24 12.88L66.2392 12.8791C65.7095 12.0594 65.1797 11.2397 64.61 10.44C63.9561 9.50317 63.2982 8.57025 62.6413 7.63879C62.2535 7.08887 61.8661 6.53943 61.48 5.98999C61.2045 5.54046 60.9184 5.09625 60.6333 4.65338C60.5252 4.48547 60.4172 4.31775 60.31 4.15002C60.2082 3.99103 60.1075 3.83026 60.0065 3.66907C59.313 2.56299 58.6072 1.43695 57.49 0.729979C56.17 -0.0999772 54.43 0.419981 53.28 1.28998C52.84 1.61999 52.44 2.00006 52.06 2.40002C52.007 2.42651 51.9568 2.45862 51.9079 2.49341C51.8646 2.52423 51.8223 2.55713 51.78 2.59003C51.1038 3.11145 50.6201 3.86517 50.1504 4.59704C50.0436 4.76349 49.9375 4.92883 49.83 5.09003C48.178 7.46582 46.3882 9.73279 44.5965 12.0021C44.2842 12.3978 43.9717 12.7936 43.66 13.19C42.55 14.6 41.42 15.99 40.27 17.37C39.7816 17.9532 39.3044 18.5433 38.8278 19.1325C38.2993 19.7859 37.7715 20.4385 37.23 21.08C36.62 21.7 36.0199 22.33 35.42 22.96C34.7599 23.66 34.73 24.7601 35.42 25.46C36.11 26.16 37.22 26.1201 37.92 25.46C38.0625 25.3273 38.2003 25.1921 38.3356 25.0557C38.4755 24.9147 38.6127 24.7723 38.75 24.63C38.8868 24.4807 39.0275 24.3353 39.1648 24.189C39.2483 24.1 39.3306 24.0107 39.41 23.92L39.4145 23.9154C39.6631 23.6668 39.9215 23.4084 40.17 23.15C40.4096 22.9104 40.6453 22.6668 40.8815 22.4228C41.1774 22.1169 41.4741 21.8104 41.78 21.51C42.45 20.84 43.13 20.1801 43.8 19.51C43.8926 19.4174 43.9867 19.3254 44.081 19.2335C44.3325 18.9879 44.5845 18.7419 44.81 18.48C45.0093 18.2445 45.2122 18.0126 45.4144 17.78C45.547 17.6274 45.6792 17.4745 45.81 17.32C46.2229 16.843 46.6055 16.3356 46.9864 15.8303C47.1406 15.6258 47.2944 15.4216 47.45 15.22C47.6437 14.964 47.8182 14.6938 47.9935 14.4224C48.0716 14.3014 48.1498 14.1802 48.23 14.06C48.2771 13.9913 48.3248 13.9227 48.3725 13.8539C48.5473 13.6022 48.7229 13.3492 48.88 13.09C49.9039 11.4323 50.9278 9.78393 52.0074 8.17297C52.0355 8.1344 52.0646 8.09436 52.0898 8.05041C52.4087 7.58789 52.7355 7.13891 53.07 6.69C53.08 6.74005 53.1 6.79004 53.12 6.84003C53.49 7.94006 53.82 9.04999 54.12 10.17C54.32 11.16 54.48 12.15 54.62 13.16C54.717 13.8319 54.7806 14.515 54.8441 15.1968C54.8657 15.4282 54.8871 15.6594 54.91 15.89C54.9999 17.54 55.07 19.1801 55.05 20.83C55.03 22.58 54.98 24.32 54.92 26.07C54.8942 26.3909 54.8738 26.7145 54.8533 27.0393C54.8183 27.5952 54.7831 28.1546 54.72 28.71C54.683 29.0293 54.6506 29.3497 54.6181 29.6705C54.5539 30.3042 54.4896 30.9393 54.39 31.57C54.3482 31.8431 54.3087 32.1169 54.2692 32.3911C54.1669 33.101 54.0643 33.8131 53.92 34.52C53.8259 34.9706 53.7343 35.4211 53.6439 35.8729C53.149 35.8794 52.6536 35.8857 52.16 35.89C51.4654 35.897 50.7757 35.9385 50.0875 35.9799C49.7948 35.9976 49.5024 36.0151 49.21 36.03C48.31 36.0701 47.41 36.15 46.51 36.23C46.3763 36.2421 46.2428 36.254 46.1095 36.2659C45.3658 36.3324 44.6293 36.3983 43.9 36.5C43.5677 36.5471 43.2333 36.5892 42.8989 36.6313C42.1666 36.7236 41.4338 36.8159 40.72 36.96C40.79 36.9401 40.87 36.93 40.95 36.91L40.4704 37.0051C38.9704 37.3025 37.472 37.5995 35.99 37.97C35.7032 38.0433 35.4153 38.1133 35.1274 38.1833C34.552 38.3234 33.9766 38.4634 33.41 38.63C32.4499 38.9 31.48 39.1801 30.52 39.46C27.27 40.3901 24.0599 41.44 20.85 42.49C19.11 43.06 17.37 43.6801 15.68 44.38C13.8899 45.13 12.1 45.89 10.37 46.79C10.2408 46.8561 10.1114 46.9219 9.98192 46.9879C9.24926 47.3607 8.51378 47.735 7.79997 48.16C6.90996 48.69 6.03997 49.21 5.18999 49.8C4.31999 50.41 3.46996 51.04 2.62999 51.68C2.36193 51.8831 2.1071 52.0993 1.84935 52.318C1.78978 52.3685 1.73003 52.4193 1.66997 52.47C0.969958 53.06 0.210009 53.8 0.0900141 54.74C0.00999702 55.36 0.259997 56 0.759997 56.38C1.11998 56.67 1.52996 56.79 1.98998 56.79C2.82994 56.79 3.53997 56.1801 3.71996 55.39L3.87999 55.23C4.56999 54.67 5.25994 54.1201 5.96996 53.58C6.4326 53.2236 6.924 52.8901 7.41362 52.5579C7.56957 52.452 7.72539 52.3463 7.87999 52.24C8.26 52.02 8.65001 51.79 9.03002 51.56C9.17089 51.4796 9.31011 51.3926 9.45037 51.305C9.65856 51.1749 9.86895 51.0435 10.09 50.93C10.4739 50.7306 10.8602 50.5311 11.2466 50.3317C11.6352 50.1311 12.0239 49.9305 12.41 49.73C12.8029 49.5482 13.1935 49.3665 13.5828 49.1847C13.9861 48.9965 14.388 48.8082 14.79 48.62C15.285 48.3879 15.792 48.1798 16.2972 47.9725C16.4451 47.9118 16.5928 47.8511 16.74 47.79C18.12 47.22 19.5099 46.71 20.92 46.2C23.8 45.2401 26.6899 44.33 29.6 43.44C31.0874 42.9808 32.5948 42.5515 34.1023 42.1222L34.11 42.12C34.7099 41.95 35.3199 41.8 35.93 41.65C36.1774 41.5882 36.4249 41.5211 36.6723 41.4539C37.1048 41.3365 37.5374 41.2191 37.97 41.13C38.3774 41.0499 38.786 40.9686 39.1953 40.8865C40.0116 40.723 40.8308 40.5565 41.65 40.39C41.58 40.41 41.4999 40.42 41.42 40.44C41.7256 40.3999 42.0288 40.3573 42.332 40.3147C42.6338 40.2723 42.9357 40.2299 43.24 40.19C43.4643 40.1606 43.6872 40.1258 43.9099 40.091C44.2927 40.0312 44.6743 39.9716 45.06 39.94C45.6484 39.8852 46.2392 39.8328 46.83 39.7805C47.4242 39.7278 48.0184 39.6752 48.61 39.62C48.9585 39.6016 49.308 39.5795 49.6578 39.5574C50.4523 39.5073 51.2485 39.457 52.04 39.45C52.3053 39.4478 52.5706 39.4456 52.8359 39.4432C52.775 39.6767 52.7104 39.9092 52.64 40.14C52.4566 40.7473 52.2691 41.3586 52.0828 41.9688C51.9745 42.3232 51.8666 42.6773 51.76 43.03L51.22 44.44C51.162 44.5912 51.1072 44.7435 51.0525 44.8955C50.9372 45.2159 50.8224 45.5349 50.68 45.84C50.4557 46.3236 50.2314 46.8096 50.0071 47.2957C49.7814 47.7846 49.5557 48.2736 49.33 48.76C49.2341 48.9382 49.1381 49.114 49.0425 49.2891C48.8592 49.625 48.6775 49.9582 48.5 50.3C48.26 50.76 48.03 51.2401 47.76 51.69C47.5266 52.0688 47.2947 52.4476 47.0631 52.8257C46.6894 53.4361 46.3166 54.045 45.94 54.65C44.5 56.72 43.06 58.78 41.4 60.68C40.1678 62.0502 38.8772 63.3718 37.4997 64.6065C36.5329 65.4487 35.5204 66.2183 34.48 66.96C34.2998 67.0795 34.1197 67.1992 33.9397 67.3189C32.102 68.5408 30.2682 69.7599 28.31 70.78C25.82 72.02 23.2 72.97 20.58 73.89C20.458 73.9264 20.3361 73.9629 20.2143 73.9994C19.0976 74.3337 17.986 74.6666 16.85 74.91C16.03 75.08 15.22 75.2001 14.39 75.28C13.96 75.3 13.53 75.31 13.1 75.29C13.0379 75.2811 12.968 75.2802 12.8971 75.2731C12.8948 75.2721 12.8924 75.2711 12.89 75.27H12.87C12.879 75.2712 12.8881 75.2722 12.8971 75.2731C12.9641 75.3015 13.022 75.3207 13.08 75.34L13.14 75.37C12.32 75 11.31 75.26 10.84 76.07C10.37 76.88 10.6299 78.03 11.48 78.49ZM37.5391 64.5721C37.5627 64.5515 37.5864 64.5308 37.61 64.51C37.585 64.5308 37.562 64.5514 37.5391 64.5721ZM52.088 8.05298C52.0611 8.09296 52.0342 8.13299 52.0074 8.17297C52.0073 8.17309 52.0076 8.17285 52.0074 8.17297C51.9952 8.18976 51.9828 8.20672 51.9714 8.22314C52.0102 8.1662 52.049 8.1095 52.088 8.05298ZM52.0898 8.05041C52.0898 8.05029 52.0898 8.05054 52.0898 8.05041V8.05041ZM68.0984 16.2184C68.0889 16.208 68.0795 16.1895 68.07 16.18C68.0779 16.1957 68.0857 16.2053 68.0984 16.2184Z"
    fill="rgba(191, 192, 191, 1)" />
</svg>