<?xml version="1.0" encoding="UTF-8" standalone="yes"?>
<svg width="73" height="84" viewBox="-40 -40 153 164" fill="none" xmlns="http://www.w3.org/2000/svg">
  <path
    d="M12.37 83.75C11.44 83.63 10.7 82.71 10.86 81.76C11.08 80.44 11.43 79.14 11.75 77.83C12.12 76.29 12.55 74.77 12.88 73.22C13 72.58 13.07 71.93 13.13 71.28C13.14 71.12 13.14 70.97 13.14 70.81C13.13 70.76 13.12 70.72 13.12 70.67C13.12 70.64 13.11 70.62 13.1 70.59C13.09 70.56 13.08 70.53 13.06 70.5C13.05 70.47 13.03 70.45 13.02 70.43C12.74 70.46 12.47 70.49 12.19 70.54C11.58 70.7 10.99 70.89 10.39 71.09C7.82002 72 5.35999 73.2 2.79999 74.12C2.18999 74.33 1.55 74.29 1.03 73.89C0.52 73.5 0.300007 72.88 0.350007 72.25C0.420007 71.52 0.960006 70.96 1.63001 70.7C1.94001 70.58 2.21999 70.41 2.54999 70.31C2.69999 70.26 2.85001 70.24 3.01001 70.24C4.21001 69.76 5.39001 69.25 6.57001 68.76C8.11001 68.12 9.68001 67.52 11.29 67.11C12.11 66.9 13.04 66.81 13.88 66.95C14.74 67.1 15.42 67.66 15.89 68.37C16.35 69.05 16.62 69.82 16.66 70.63C16.71 71.58 16.57 72.55 16.42 73.48C16.2 74.85 15.8 76.21 15.46 77.55C15.1 78.99 14.73 80.44 14.41 81.89C14.39 82 14.37 82.12 14.36 82.23C14.21 83.1 13.48 83.76 12.6 83.76C12.53 83.77 12.45 83.76 12.37 83.75Z"
    fill="rgba(191, 192, 191, 1)" />
  <path
    d="M22.27 68.41C22.39 65.42 22.67 62.44 22.51 59.45C22.46 58.9 22.37 58.35 22.27 57.8C22.22 57.6 22.17 57.4 22.11 57.21C22.09 57.16 22.06 57.1 22.04 57.04C22.02 57 21.99 56.96 21.97 56.92C21.92 56.86 21.88 56.8 21.83 56.74C21.86 56.77 21.88 56.8 21.91 56.83C21.91 56.84 21.91 56.84 21.92 56.84C21.94 56.86 21.96 56.89 21.98 56.91C21.96 56.88 21.93 56.85 21.9 56.82C21.89 56.8 21.88 56.79 21.87 56.78C21.88 56.8 21.89 56.81 21.9 56.82C21.85 56.77 21.8 56.71 21.75 56.66C21.73 56.66 21.71 56.66 21.7 56.66C21.49 56.68 21.28 56.71 21.08 56.74C20.85 56.8 20.62 56.87 20.39 56.95C19.3 57.34 18.23 57.77 17.19 58.25C16.54 58.55 15.89 58.86 15.24 59.17C14.39 59.6 13.54 60.05 12.74 60.57C12.72 60.58 12.7 60.59 12.69 60.61C12.27 61.47 11.29 61.78 10.41 61.47C10.19 61.39 9.97001 61.23 9.81001 61.06C9.33002 60.52 9.13001 59.8 9.43001 59.12C9.71001 58.48 10.21 58.02 10.79 57.64C11.61 57.09 12.48 56.62 13.36 56.18C14.17 55.77 14.99 55.4 15.81 55.02C17.15 54.4 18.52 53.84 19.93 53.4C20.72 53.16 21.57 53.1 22.39 53.18C23.22 53.26 23.96 53.83 24.49 54.43C25.01 55.02 25.33 55.68 25.58 56.42C25.72 56.85 25.79 57.33 25.87 57.78C25.96 58.29 26.02 58.8 26.05 59.32C26.14 60.84 26.11 62.35 26.06 63.86C26.01 65.39 25.89 66.92 25.82 68.45C25.78 69.41 25.05 70.22 24.05 70.22C23.11 70.18 22.23 69.37 22.27 68.41Z"
    fill="rgba(191, 192, 191, 1)" />
  <path
    d="M34.77 51.27C34.49 50.64 34.37 50 34.35 49.31C34.34 48.81 34.42 48.29 34.48 47.79C34.57 47.04 34.67 46.29 34.77 45.54C35.04 43.61 35.45 41.7 35.63 39.76C35.56 39.8 35.49 39.83 35.42 39.86C33.44 40.89 31.55 42.09 29.65 43.27C28.23 44.15 26.8 45.05 25.31 45.82C25.2 45.91 25.08 45.98 24.95 46.05C24.8 46.12 24.64 46.17 24.49 46.23C23.6 46.59 22.55 46.19 22.17 45.29C21.78 44.37 22.24 43.38 23.11 42.97C23.22 42.92 23.33 42.86 23.43 42.81C25.1 41.88 26.74 40.9 28.36 39.89C29.21 39.37 30.05 38.83 30.91 38.33C31.48 37.99 32.06 37.66 32.64 37.33C33.36 36.92 34.11 36.56 34.85 36.2C35.17 36.04 35.48 35.89 35.84 35.83C36.31 35.75 36.72 35.79 37.18 35.89C38.03 36.08 38.72 36.84 38.94 37.67C39.2 38.64 39.19 39.62 39.08 40.61C38.96 41.61 38.79 42.59 38.63 43.58C38.34 45.43 38.02 47.29 37.87 49.16C37.87 49.24 37.87 49.32 37.87 49.39C37.88 49.44 37.89 49.5 37.89 49.56C37.9 49.6 37.91 49.64 37.92 49.68C37.95 49.75 37.98 49.82 38.01 49.89C38.4 50.77 37.94 51.84 37.06 52.21C36.84 52.3 36.61 52.35 36.39 52.35C35.73 52.35 35.07 51.94 34.77 51.27Z"
    fill="rgba(191, 192, 191, 1)" />
  <path
    d="M47.14 33.93C47.03 32.19 47.02 30.44 47.08 28.7C47.14 26.9 47.39 25.12 47.58 23.33C46.39 23.88 45.22 24.46 44.05 25.03C42.82 25.63 41.6 26.23 40.38 26.83C40.45 26.79 40.52 26.76 40.58 26.72C39.94 27.04 39.28 27.35 38.64 27.68C38.49 28.39 37.91 28.99 37.15 29.07C36.65 29.13 36.17 29.12 35.67 29C34.6 28.74 33.98 27.34 34.61 26.4C34.81 26.1 35.01 25.8 35.29 25.57C35.71 25.24 36.17 24.99 36.64 24.74C37.02 24.54 37.41 24.35 37.79 24.16C38.53 23.79 39.26 23.42 40 23.06C41.5 22.32 43 21.56 44.52 20.85C45.01 20.62 45.5 20.4 45.98 20.17C46.62 19.87 47.24 19.54 47.93 19.38C48.73 19.2 49.62 19.24 50.23 19.85C50.84 20.45 51.05 21.24 51.15 22.07C51.23 22.8 51.1 23.57 51.01 24.29C50.94 24.85 50.88 25.41 50.81 25.98C50.72 26.71 50.67 27.44 50.61 28.16C50.54 30.07 50.52 31.99 50.65 33.91C50.71 34.87 49.8 35.68 48.88 35.68C47.9 35.7 47.2 34.9 47.14 33.93Z"
    fill="rgba(191, 192, 191, 1)" />
  <path
    d="M69.2 64.61C68.67 62.65 68.43 60.61 68.24 58.59C68.06 56.75 67.9 54.91 67.71 53.08C67.28 49.01 66.77 44.94 66.27 40.87C66.01 38.73 65.69 36.6 65.39 34.46C65.25 33.47 65.05 32.49 64.88 31.51C64.69 30.39 64.5 29.26 64.3 28.14C63.55 24.53 62.78 20.92 62 17.31C61.29 14.01 60.71 10.67 60.12 7.33999C59.94 6.50999 59.76 5.68 59.58 4.85999C59.52 4.57999 59.45 4.30999 59.37 4.03999C57.08 4.64999 54.84 5.41999 52.6 6.19999C45.44 8.77999 38.27 11.35 31.06 13.78C27.81 14.87 24.56 15.98 21.31 17.08C18.99 17.94 16.67 18.79 14.37 19.69C13.27 20.12 12.17 20.54 11.07 20.95C10.55 21.15 10.04 21.34 9.52 21.53C8.79 21.78 8.04002 22.02 7.32002 22.32C7.30002 22.33 7.28 22.34 7.27 22.36C6.45 22.87 5.32002 22.54 4.85002 21.72C4.35002 20.87 4.67002 19.81 5.48002 19.3C5.97002 18.99 6.55001 18.83 7.09001 18.64C7.53001 18.48 7.97 18.34 8.4 18.18C9.35 17.83 10.3 17.48 11.24 17.12C12.95 16.45 14.67 15.77 16.39 15.13C18.32 14.42 20.25 13.71 22.19 13.05C24.08 12.4 25.98 11.76 27.88 11.12C30.72 10.17 33.54 9.19 36.37 8.21C36.3 8.24 36.23 8.25999 36.15 8.28999C39.77 7.01999 43.4 5.74999 47.01 4.44999C50.72 3.11999 54.42 1.69999 58.23 0.679987C58.55 0.589987 58.86 0.509987 59.18 0.429987C59.7 0.299987 60.27 0.130001 60.81 0.210001C61.45 0.300001 62.03 0.760001 62.28 1.35C62.43 1.71 62.48 2.11999 62.59 2.49999C63 3.92999 63.35 5.37999 63.62 6.83999C64.16 9.81999 64.72 12.8 65.28 15.78C66.13 19.64 66.94 23.51 67.75 27.39C67.92 28.21 68.04 29.04 68.19 29.86C68.4 31.1 68.62 32.34 68.83 33.58C69.16 35.51 69.38 37.46 69.65 39.4C69.92 41.3 70.13 43.22 70.36 45.12C70.57 46.81 70.79 48.5 70.97 50.19C71.18 52.24 71.4 54.29 71.58 56.35C71.75 58.26 71.91 60.17 72.26 62.06C72.31 62.31 72.36 62.57 72.41 62.83C72.48 63.12 72.55 63.4 72.62 63.68C72.87 64.61 72.32 65.6 71.39 65.86C71.24 65.9 71.09 65.92 70.94 65.92C70.15 65.91 69.42 65.39 69.2 64.61Z"
    fill="rgba(191, 192, 191, 1)" />
</svg>