<?xml version="1.0" encoding="UTF-8" standalone="yes"?>
<svg width="209" height="124" viewBox="-40 -40 289 204" fill="none" xmlns="http://www.w3.org/2000/svg">
  <path fill-rule="evenodd" clip-rule="evenodd"
    d="M134.408 1.05383C124.929 1.96687 105.406 6.82747 93.7645 11.1644C88.2593 13.1919 79.9076 17.1932 75.7452 19.7712C66.1314 25.7328 52.57 38.0185 43.1441 49.2704C33.5571 60.7371 24.2655 74.755 15.7661 90.5049L12.7719 96.0503L12.933 93.9288C13.027 92.7607 13.2955 89.3636 13.5238 86.3962L13.9535 80.9851L12.8793 79.3202C10.8518 76.1648 5.38697 71.6265 4.3665 72.2441C3.93684 72.4993 3.38632 74.6207 3.35947 76.1514C3.35947 76.8631 3.10435 78.2729 2.76867 79.2531C2.339 80.5286 2.24501 81.2805 2.47327 81.831C2.6344 82.3144 2.63439 85.0535 2.40613 88.84C1.78848 99.7562 1.42596 103.771 0.714318 107.611L0.029541 111.33L0.969437 113.156C2.76868 116.58 10.3282 123.267 12.4362 123.267C13.4835 123.267 16.0213 120.796 25.5008 110.552C29.7438 105.986 37.4241 97.9972 42.6473 92.8547L52.0732 83.4691L51.2944 81.9385C49.7905 79.0382 43.2381 73.0766 41.5463 73.0766C41.224 73.0766 33.0335 79.0785 30.2675 81.3611L28.6696 82.7038L29.5827 81.0791C31.2745 78.1117 39.1025 66.4705 41.8417 62.8318C48.3001 54.2653 56.9338 44.9066 63.9696 38.8108C74.4025 29.7878 85.8424 22.8997 96.7587 19.0864C109.662 14.5615 122.539 11.433 135.389 9.63374C141.323 8.81469 159.02 8.81469 164.566 9.63374C174.113 11.0704 188.063 14.9777 198.134 19.0595C200.967 20.2277 201.719 20.6842 203.907 22.7788C206.579 25.3166 208.473 26.2699 208.661 25.1286C208.983 23.3696 203.961 17.502 199.664 14.6689C196.281 12.3863 192.696 10.8288 185.056 8.25076C175.146 4.89399 166.54 2.83964 157.221 1.56406C152.723 0.94642 138.839 0.65103 134.408 1.10755V1.05383Z"
    fill="rgba(191, 192, 191, 1)" />
</svg>