<?xml version="1.0" encoding="UTF-8" standalone="yes"?>
<svg width="82" height="70" viewBox="-40 -40 162 150" fill="none" xmlns="http://www.w3.org/2000/svg">
  <path
    d="M66.9499 33.75C67.1399 34.47 67.7999 35.02 68.5699 35.06C68.6499 35.07 68.73 35.08 68.87 35.04C69.41 35.04 69.9501 34.8 70.29 34.36C70.66 33.87 70.73 33.28 70.55 32.73C70.63 32.79 70.7201 32.85 70.81 32.9C71.2101 33.14 71.7001 33.18 72.16 33.17C73.2001 33.15 74.0799 32.23 73.91 31.16L73.9031 31.1153C73.7756 30.3116 73.6543 29.546 73.35 28.79C73.0299 28.01 72.66 27.26 72.28 26.5C71.85 25.63 71.39 24.78 70.91 23.93C71.3 24.02 71.7099 24.04 72.11 23.99C73 23.87 73.6799 23.19 73.9499 22.35C74.2899 21.29 74.25 20.08 73.9599 19.01C73.7899 18.34 73.5799 17.69 73.34 17.04C73.5799 17.17 73.8099 17.27 74.09 17.33C74.3999 17.4 74.6899 17.4 75.01 17.35C75.51 17.28 76.11 17 76.4499 16.63L76.4795 16.5977C76.6776 16.381 76.8556 16.1864 76.97 15.91C77.1 15.62 77.1599 15.35 77.22 15.05C77.318 14.5512 77.2254 14.0048 77.1405 13.5027C77.1301 13.4411 77.1199 13.3801 77.11 13.32C76.97 12.51 76.6899 11.74 76.36 10.99C76.3338 10.9313 76.3035 10.8682 76.2744 10.8037C76.259 10.7694 76.2439 10.7347 76.23 10.7C76.4499 10.79 76.68 10.85 76.92 10.89C77.51 10.97 78.0799 10.78 78.5799 10.49C79.0499 10.23 79.31 9.8 79.54 9.34C79.68 9.06 79.7099 8.71001 79.73 8.41C79.76 8.05 79.74 7.7 79.72 7.34C79.6844 6.77254 79.5547 6.20508 79.4281 5.65155L79.38 5.44L79.17 4.53999C79.69 4.36 80.1 4.02 80.51 3.66C81.24 3.02 81.16 1.81 80.51 1.16C80.1799 0.830002 79.73 0.639999 79.26 0.639999C78.78 0.639999 78.38 0.839996 78.03 1.14C77.6999 1.11 77.39 1.09999 77.06 1.17C76.7201 1.25 76.42 1.39 76.15 1.60001C75.55 2.06001 75.37 2.79999 75.37 3.50999C75.37 4.04602 75.5148 4.58929 75.6565 5.12131C75.6813 5.21458 75.706 5.30751 75.73 5.39999C75.4299 5.03999 75.1199 4.68001 74.8199 4.32001C74.6424 4.11023 74.4753 3.89003 74.3082 3.66983C73.9576 3.20776 73.607 2.74571 73.16 2.38C72.86 2.13 72.55 1.92 72.18 1.77C71.9055 1.6602 71.6125 1.61806 71.3204 1.57603C71.2401 1.56448 71.1598 1.55293 71.0799 1.53999C69.8299 1.31999 68.8199 2.59 69.13 3.75999C69.1749 3.9348 69.2168 4.11086 69.2587 4.28691C69.3843 4.81586 69.5099 5.34482 69.72 5.84C70 6.5 70.3301 7.13 70.68 7.75C71.3401 8.92 72 10.1 72.61 11.3C72.65 11.39 72.6999 11.49 72.74 11.58C71.9299 10.57 71.15 9.53 70.4 8.48C70.22 8.23 70.0425 7.9825 69.865 7.735C69.6875 7.4875 69.51 7.24001 69.3299 6.99001C68.9911 6.50806 68.6125 6.05446 68.2327 5.59932C68.1081 5.45006 67.9835 5.30063 67.86 5.14999C67.0699 4.18999 65.5801 4.26999 64.93 5.34C64.7001 5.70999 64.51 6.14 64.51 6.59C64.51 6.97 64.5799 7.39 64.74 7.73C64.8703 8.0071 65.0215 8.26942 65.1723 8.53143C65.2992 8.75166 65.4259 8.97166 65.54 9.2C65.8381 9.7831 66.1319 10.3662 66.4271 10.9522C66.5774 11.2506 66.7281 11.5497 66.88 11.85C67.2922 12.6619 67.7123 13.4699 68.1327 14.2788C68.3855 14.7652 68.6384 15.2519 68.89 15.74C69.3199 16.66 69.75 17.57 70.1 18.52C70.1046 18.5383 70.1092 18.5587 70.1147 18.5793C70.1212 18.6037 70.1291 18.6283 70.14 18.65C70.0799 18.58 70.0199 18.5 69.97 18.43C69.5299 17.82 69.1 17.2 68.68 16.58C68.68 16.58 68.6899 16.59 68.6899 16.6C66.8135 13.7566 65.1753 10.7391 63.5475 7.7404L63.3299 7.34C63.2117 7.09256 63.1002 6.83908 62.9883 6.58453C62.6932 5.91324 62.395 5.23456 61.9599 4.64C61.6799 4.27 61.38 3.95 61.02 3.66C60.64 3.35001 60.12 3.25 59.66 3.17999C58.4599 3 57.3199 4.22 57.7099 5.41C57.8099 5.71666 57.9062 6.02449 58.0027 6.3327C58.1863 6.91901 58.3701 7.50665 58.5799 8.09C58.9199 9.03999 59.3199 9.98 59.74 10.9C60.28 12.09 60.8299 13.28 61.4599 14.43C61.8899 15.215 62.3199 15.9975 62.75 16.78C63.18 17.5625 63.6101 18.345 64.04 19.13C64.63 20.21 65.24 21.27 65.86 22.33C65.6699 22.11 65.48 21.89 65.3 21.67C64.6866 20.9434 64.1089 20.19 63.5311 19.4367C63.2423 19.06 62.9534 18.6833 62.66 18.31C62.43 18.015 62.1975 17.72 61.9651 17.425C61.7325 17.13 61.5 16.835 61.27 16.54C61.0638 16.2789 60.8767 15.9943 60.6889 15.7088C60.6034 15.5787 60.5177 15.4483 60.43 15.32C59.9851 14.665 59.5376 14.0125 59.0901 13.36C58.6426 12.7075 58.1951 12.055 57.75 11.4C57.2047 10.4376 56.647 9.47931 56.0901 8.52249C55.779 7.98802 55.4682 7.45401 55.16 6.92C54.8979 6.47592 54.6677 6.01065 54.4383 5.54733C54.3526 5.37422 54.2671 5.20137 54.18 5.03C53.68 4.05 53.17 3.07001 52.64 2.10001C52.26 1.41 51.39 1.07999 50.64 1.28999C49.92 1.48999 49.2899 2.22 49.34 3C49.38 3.59 49.4299 4.15999 49.61 4.73C49.7605 5.23491 49.9346 5.72391 50.1116 6.21828C50.1079 6.20883 50.104 6.19942 50.1 6.19C50.7899 8.23 51.53 10.24 52.42 12.2C53.0607 13.6187 53.7421 15.0141 54.4952 16.3729C54.4617 16.4466 54.433 16.5225 54.41 16.6C53.62 16.19 52.48 16.46 52.0699 17.28C51.8699 17.68 51.68 18.08 51.68 18.54C51.68 18.98 51.8099 19.38 51.9599 19.78C51.5699 19.51 51.11 19.25 50.65 19.21C50.11 19.17 49.61 19.2 49.13 19.48C48.6699 19.75 48.3201 20.12 48.06 20.58C47.79 21.05 47.74 21.63 47.81 22.16C47.8463 22.4069 47.9143 22.638 47.9833 22.8723C48.0093 22.9607 48.0354 23.0496 48.06 23.14C48.0975 23.2713 48.1306 23.4027 48.1634 23.533C48.2007 23.6805 48.2375 23.8266 48.28 23.97L48.3414 24.1724C48.6207 25.0937 48.8977 26.0075 49.14 26.93C48.8963 26.7279 48.6544 26.525 48.4127 26.3222C47.841 25.8425 47.2704 25.3639 46.68 24.9C46.31 24.61 45.93 24.33 45.52 24.09C45.4261 24.0342 45.3316 23.9752 45.2362 23.9156C44.9554 23.7401 44.666 23.5594 44.36 23.44C43.61 23.15 42.86 23.04 42.11 23.4C41.4299 23.73 40.87 24.4 40.67 25.13C40.4679 25.8804 40.7195 26.5845 40.9703 27.2869L41 27.37C41.4286 28.6555 41.9657 29.8976 42.5027 31.1392C42.7801 31.781 43.0576 32.4226 43.3199 33.07C42.4418 32.182 41.5929 31.2746 40.7347 30.3573L40.6999 30.32L39.5 29.06C39.4333 28.989 39.3667 28.9173 39.2998 28.8452C38.9048 28.4194 38.5004 27.9835 38.03 27.65C37.6 27.35 37.17 27.13 36.67 26.94C36 26.68 35.24 26.8 34.73 27.32C34.2699 27.78 34.13 28.42 34.27 29.04C34.5134 30.1126 35.0005 31.0797 35.4897 32.0509C35.5432 32.1572 35.5968 32.2635 35.65 32.37L35.6507 32.3716C36.0105 33.1111 36.3702 33.8505 36.74 34.59L38.8199 38.69L38.8269 38.7042C38.8295 38.7093 38.8318 38.7144 38.8343 38.7196C39.2389 39.5502 39.6138 40.4003 39.9399 41.27C39.9526 41.2997 39.9635 41.3275 39.9734 41.3543C39.9868 41.3908 39.9984 41.4254 40.01 41.46C39.23 40.68 38.49 39.86 37.76 39.04C36.9414 38.0982 36.1617 37.1332 35.3797 36.1654L35.06 35.77C34.9501 35.63 34.8299 35.5 34.72 35.36C34.5404 35.1379 34.3721 34.9046 34.2032 34.6707C34.0148 34.4097 33.8257 34.1479 33.62 33.9C33.25 33.46 32.87 33.06 32.39 32.73C31.9499 32.43 31.48 32.3 30.9599 32.21C30.9449 32.205 30.9324 32.2025 30.9199 32.2C30.9075 32.1975 30.895 32.195 30.88 32.19C30.25 32.06 29.63 32.18 29.16 32.65C28.72 33.1 28.5499 33.76 28.7099 34.37C28.7624 34.573 28.8121 34.7772 28.8618 34.9814C29.0203 35.6321 29.1788 36.2834 29.43 36.9C29.74 37.67 30.1 38.42 30.49 39.15C30.9099 39.92 31.3199 40.7 31.72 41.47C32.1034 42.2065 32.4868 42.9393 32.8702 43.6707C33.1168 44.1409 33.3634 44.6104 33.61 45.08C34.1499 46.22 34.6799 47.35 35.11 48.54C34.5876 48.0249 34.0807 47.4995 33.5744 46.9749C33.3794 46.7727 33.1846 46.5707 32.9889 46.3694C32.8021 46.1551 32.6151 45.941 32.4282 45.7269C31.3772 44.5231 30.3269 43.32 29.31 42.09L27.03 39.33C26.8308 39.0891 26.641 38.8419 26.4514 38.5953C26.0509 38.074 25.652 37.5548 25.17 37.1C24.79 36.73 24.3 36.37 23.79 36.23C23.3607 36.1087 22.9488 36.1093 22.5138 36.1099L22.42 36.11C21.27 36.11 20.3899 37.24 20.7099 38.35C20.7666 38.5555 20.821 38.7619 20.8755 38.9684C21.0806 39.7463 21.2859 40.5251 21.61 41.26C22.0399 42.25 22.5499 43.19 23.0799 44.13C23.5199 44.91 23.97 45.69 24.43 46.46C24.7309 46.9759 25.0358 47.4881 25.3396 47.9988C25.5304 48.3196 25.7209 48.6398 25.91 48.96L25.7157 48.7089C25.2709 48.1343 24.829 47.5636 24.41 46.97C23.65 45.91 22.89 44.85 22.12 43.79C21.7999 43.35 21.49 42.92 21.18 42.47C20.8201 41.96 20.47 41.44 20.09 40.93C19.9947 40.8012 19.8972 40.674 19.7988 40.5472C19.5459 40.2212 19.2876 39.8984 19.05 39.56C18.8301 39.23 18.61 38.9 18.34 38.6C18.09 38.32 17.8199 38.11 17.51 37.9C16.86 37.47 16.0799 37.55 15.4 37.82C14.53 38.16 14.0499 39.29 14.4599 40.14C15.0399 41.37 15.63 42.6 16.27 43.8C16.453 44.1393 16.6327 44.4809 16.8124 44.8225C17.1726 45.5076 17.5329 46.1927 17.92 46.86C18.3805 47.6559 18.8511 48.4468 19.3216 49.2378C19.7911 50.0268 20.2605 50.8159 20.72 51.61C20.1948 50.7958 19.6534 49.9886 19.1114 49.1806C18.5284 48.3113 17.9448 47.441 17.38 46.56C16.62 45.38 15.87 44.2 15.12 43.02C14.9099 42.7 14.7099 42.38 14.53 42.04C14.24 41.53 13.9599 40.99 13.5799 40.54C13.22 40.11 12.85 39.77 12.38 39.47C11.8999 39.16 11.29 39.16 10.74 39.16C10.1999 39.15 9.66997 39.42 9.34001 39.85C8.97997 40.3 8.90996 40.85 9.03001 41.4L9.09001 41.67C9.27001 42.57 9.43993 43.46 9.73998 44.33C10.0099 45.14 10.3 45.93 10.63 46.72C11.35 48.43 12.1299 50.11 12.97 51.77C13.6634 53.1397 14.4172 54.4794 15.1723 55.8216C15.2883 56.0276 15.4043 56.2337 15.52 56.44C15.65 56.66 15.78 56.88 15.9 57.1C15.5901 56.785 15.2776 56.47 14.9651 56.155C14.6526 55.84 14.3401 55.525 14.03 55.21C13.4874 54.6674 12.9513 54.1183 12.4143 53.5682C12.0111 53.1552 11.6074 52.7417 11.2 52.33L9.55998 50.66C9.35942 50.4557 9.1599 50.2507 8.9605 50.0459C8.08745 49.1491 7.21721 48.2552 6.27434 47.4338C6.28288 47.4402 6.29143 47.4415 6.29997 47.45C6.11571 47.2905 5.93828 47.1234 5.76116 46.9567C5.2943 46.5172 4.82994 46.08 4.24999 45.79C3.57994 45.46 2.82994 45.38 2.12999 45.68C1.44994 45.96 0.849961 46.61 0.65001 47.32C0.439988 48.09 0.639939 48.89 0.979966 49.59C1.14513 49.9321 1.30254 50.2788 1.46007 50.6259C1.70323 51.1615 1.94689 51.6981 2.21996 52.22C2.72991 53.2 3.25993 54.16 3.81999 55.1C4.39995 56.08 5.00993 57.04 5.61998 58C5.62694 58.0211 5.6389 58.0372 5.65233 58.0553C5.65801 58.063 5.66399 58.071 5.66997 58.08C6.56993 59.43 7.46996 60.78 8.37999 62.12L8.39 62.13C8.39 62.13 8.40001 62.14 8.40001 62.15C8.41002 62.165 8.42009 62.1776 8.43016 62.1902C8.44011 62.2026 8.45006 62.2151 8.46001 62.23C9.12999 63.25 9.80992 64.27 10.49 65.28C10.8094 65.7492 11.1089 66.2285 11.4085 66.7077L11.41 66.71C11.522 66.8832 11.6308 67.0629 11.7404 67.2437C12.061 67.773 12.3877 68.3127 12.82 68.73C13.1699 69.06 13.6199 69.24 14.0799 69.2C14.3099 69.2 14.54 69.15 14.76 69.06C15.3199 68.83 15.7599 68.28 15.8299 67.67C15.8371 67.6053 15.8443 67.5354 15.8479 67.4678C15.8492 67.4414 15.85 67.4153 15.85 67.39C15.85 66.87 15.61 66.39 15.24 66.07C14.8634 65.5029 14.4956 64.9272 14.1273 64.3509C13.7034 63.6873 13.2789 63.0229 12.84 62.37C12.37 61.67 11.8999 60.97 11.44 60.27C11.4249 60.2499 11.4098 60.2273 11.3948 60.2048C11.3799 60.1823 11.3649 60.1599 11.35 60.14C11.3428 60.1293 11.3344 60.1185 11.3256 60.1073C11.3098 60.0872 11.2928 60.0657 11.28 60.04C10.41 58.74 9.52995 57.43 8.65001 56.13L8.64745 56.1258C7.88829 54.9172 7.12908 53.7086 6.41997 52.47C6.60014 52.6635 6.78032 52.8481 6.9605 53.0328C7.05028 53.1248 7.14012 53.2169 7.22997 53.31C7.55394 53.639 7.87792 53.9704 8.20189 54.3019C8.52788 54.6354 8.85393 54.969 9.17998 55.3C9.65422 55.7792 10.1285 56.2609 10.6027 56.7427C11.0785 57.226 11.5542 57.7092 12.03 58.19C12.3895 58.5494 12.7478 58.91 13.1062 59.2706C13.8244 59.9933 14.5427 60.7161 15.27 61.43C15.6266 61.7816 15.9831 62.1306 16.3398 62.4796C16.6932 62.8256 17.0466 63.1715 17.4 63.52C17.5138 63.6304 17.6276 63.7419 17.7417 63.8538C17.9686 64.0764 18.1971 64.3004 18.43 64.52L18.4359 64.5257C18.8039 64.8839 19.1821 65.2517 19.59 65.57C19.9099 65.82 20.2399 66.05 20.5699 66.28C21.09 66.65 21.73 66.77 22.34 66.51C22.8999 66.27 23.3299 65.73 23.4 65.12C23.4059 65.0684 23.412 65.0173 23.4181 64.9665C23.4531 64.6723 23.487 64.3884 23.47 64.09C23.4499 63.74 23.36 63.42 23.25 63.09C23.0499 62.49 22.74 61.93 22.42 61.39C22.2346 61.0872 22.0607 60.7769 21.8865 60.4659C21.7787 60.2736 21.6709 60.0811 21.56 59.89C20.97 58.84 20.37 57.79 19.77 56.74C19.37 56.06 18.97 55.37 18.5799 54.67C19.1 55.37 19.62 56.06 20.14 56.76C20.84 57.7 21.62 58.58 22.41 59.45L22.4951 59.55C22.7074 59.7997 22.9243 60.0548 23.18 60.24C23.4401 60.43 23.6799 60.58 23.97 60.7C24.61 60.98 25.28 60.8 25.91 60.63C26.65 60.42 27.23 59.7 27.2099 58.92C27.2056 58.7621 27.2041 58.6043 27.2026 58.4465C27.1974 57.8947 27.1921 57.3443 27.06 56.8C26.9401 56.28 26.77 55.76 26.56 55.26C26.7101 55.43 26.87 55.61 27.02 55.78C27.17 55.96 27.3299 56.13 27.49 56.3C27.6703 56.4846 27.8597 56.6618 28.0491 56.8388C28.3006 57.0741 28.5517 57.3089 28.78 57.56C29.0799 57.88 29.4 58.21 29.81 58.38C30.23 58.55 30.6299 58.6 31.0799 58.53C32.0499 58.36 32.8199 57.57 32.9499 56.6C33.0099 56.13 32.9499 55.63 32.8199 55.18C32.6699 54.67 32.5199 54.15 32.3299 53.65C31.5408 51.5553 30.391 49.603 29.2596 47.6821L29.17 47.53C29.1147 47.4415 29.0625 47.3531 29.0099 47.2646C28.9674 47.1931 28.9247 47.1215 28.88 47.05L29.0312 47.227C29.571 47.8591 30.1138 48.4946 30.6899 49.08L31.0705 49.4702C32.1997 50.629 33.3192 51.778 34.56 52.83C34.6172 52.8841 34.6742 52.9394 34.7313 52.9948C35.0439 53.2984 35.3627 53.6078 35.76 53.76C36.26 53.96 36.6999 54.01 37.24 53.96C38.26 53.86 39.0699 52.97 39.1999 51.97C39.36 50.76 39.13 49.47 38.75 48.32C38.3299 47.02 37.84 45.77 37.25 44.54C36.98 43.97 36.7099 43.41 36.42 42.85C36.4967 42.9268 36.5718 43.0035 36.6459 43.0796C36.7554 43.1919 36.8627 43.3027 36.97 43.41C37.1323 43.5724 37.2925 43.7386 37.4529 43.905C37.8751 44.3432 38.2989 44.7831 38.77 45.16C39.11 45.42 39.4499 45.67 39.84 45.86C40.0804 45.9732 40.326 46.0764 40.573 46.1801C40.6752 46.2231 40.7776 46.2661 40.88 46.31C41.61 46.62 42.49 46.39 42.97 45.76C43.026 45.6871 43.0827 45.6149 43.1395 45.5428C43.5184 45.061 43.8931 44.585 43.98 43.95C44.09 43.16 43.98 42.38 43.75 41.61C43.5 40.77 43.24 39.93 42.89 39.12C42.5699 38.39 42.24 37.65 41.88 36.94C41.8379 36.8511 41.7936 36.7621 41.748 36.6732C41.6964 36.5721 41.6432 36.4711 41.59 36.37C41.8799 36.64 42.1699 36.9 42.47 37.15C43 37.58 43.5599 38 44.1999 38.27C44.7699 38.5 45.4199 38.46 45.98 38.23C47.1699 37.73 47.7799 36.44 47.6 35.19C47.3999 33.79 46.8999 32.49 46.35 31.2C45.9199 30.19 45.47 29.17 45.05 28.15C45.31 28.37 45.5799 28.6 45.85 28.82C46.0731 29.0005 46.2941 29.1832 46.5149 29.366C46.7591 29.5682 47.0032 29.7705 47.25 29.97C47.5699 30.23 47.8999 30.47 48.22 30.72C48.4299 30.88 48.6299 31.04 48.84 31.2C49.24 31.51 49.65 31.74 50.14 31.88C51.02 32.13 51.9399 31.83 52.5 31.11C53.0699 30.37 53.16 29.2 53.04 28.32C52.86 27.01 52.5 25.74 52.13 24.48C52.1922 24.5298 52.2545 24.5834 52.3168 24.6385C52.3545 24.672 52.3923 24.706 52.43 24.74C52.75 25.03 53.0799 25.32 53.48 25.49C53.84 25.64 54.23 25.66 54.61 25.67C55.3999 25.69 56.1098 25.11 56.3199 24.37L56.3323 24.3258C56.4287 23.979 56.53 23.6149 56.53 23.26C56.53 23.05 56.51 22.83 56.48 22.62C56.87 22.67 57.26 22.61 57.61 22.4C57.7751 22.3044 57.9327 22.1748 58.0655 22.0227C59.2866 23.7831 60.5681 25.5022 61.88 27.2C62.89 28.51 63.91 29.82 64.92 31.13C65.1415 31.4154 65.3605 31.7033 65.5795 31.9912C65.8054 32.2883 66.0314 32.5854 66.26 32.88L66.9499 33.75Z"
    fill="rgba(191, 192, 191, 1)" />
</svg>