<?xml version="1.0" encoding="UTF-8" standalone="yes"?>
<svg width="66" height="77" viewBox="-40 -40 146 157" fill="none" xmlns="http://www.w3.org/2000/svg">
  <path
    d="M54.45 76.22C53.56 75.7 52.91 74.81 52.33 73.99C51.55 72.91 50.8801 71.74 50.2901 70.55C49.2001 68.35 48.3701 66.03 47.5401 63.72C46.2501 60.18 44.9701 56.64 43.9301 53.01C43.5301 51.62 43.13 50.22 42.72 48.83C42.46 48.08 42.2 47.33 41.95 46.58C41.73 45.98 41.45 45.4 41.21 44.8C40.98 44.25 40.7001 43.71 40.4301 43.17C40.0501 42.48 39.67 41.79 39.25 41.13C39 40.76 38.7201 40.4 38.4301 40.06C38.2301 39.85 38.04 39.65 37.83 39.46C37.73 39.38 37.62 39.3 37.52 39.22C37.41 39.15 37.31 39.09 37.2 39.02C37.1 38.97 36.99 38.93 36.89 38.89C36.8 38.86 36.7 38.83 36.6 38.81C36.51 38.79 36.42 38.78 36.33 38.77C36.22 38.77 36.11 38.77 36.01 38.77C35.89 38.78 35.76 38.8 35.64 38.82C35.21 38.92 34.79 39.03 34.37 39.17C33.58 39.45 32.79 39.76 32 40.05C31.23 40.34 30.44 40.59 29.66 40.84C28.93 41.07 28.16 41.23 27.41 41.38C26.52 41.55 25.63 41.7 24.73 41.82C21.54 42.26 18.32 42.17 15.12 42.31C13.74 42.42 12.37 42.56 10.98 42.66C9.63999 42.76 8.29997 42.8 6.95997 42.88C6.54997 42.92 6.15 42.98 5.74 43.05C4.85 43.25 3.96997 43.47 3.07997 43.64C2.71997 43.71 2.32998 43.75 1.96998 43.7C1.59998 43.65 1.23996 43.52 0.949965 43.29C0.689965 43.09 0.499989 42.83 0.349989 42.54C0.0699893 41.98 -0.10002 41.33 0.0899796 40.7C0.22998 40.25 0.400067 39.84 0.680067 39.47C0.820067 39.29 0.970019 39.11 1.13002 38.95C1.14002 38.45 1.36006 37.96 1.80006 37.59C2.37006 37.11 3.02003 36.76 3.64003 36.38C4.19003 36.04 4.75006 35.7 5.30006 35.35C6.08006 34.87 6.83999 34.38 7.59999 33.89C9.32999 32.79 11.05 31.68 12.77 30.57C14.34 29.56 15.93 28.57 17.51 27.57C19.12 26.55 20.7101 25.5 22.3101 24.48C25.5401 22.43 28.69 20.26 31.89 18.16C31.83 18.2 31.77 18.25 31.7 18.29C34.79 16.19 37.86 14.07 40.95 11.96C42.7 10.76 44.46 9.55999 46.22 8.35999C47.77 7.30999 49.3 6.22003 50.88 5.21003C52.81 3.99003 54.73 2.73002 56.77 1.70002C57.77 1.20002 58.8101 0.769992 59.9201 0.609992C61.0601 0.439992 62.1301 0.75999 63.0601 1.41999C63.4501 1.69999 63.7901 2.12998 64.0401 2.53998C64.3101 2.98998 64.54 3.45998 64.7 3.96998C65.07 5.17998 65.2 6.43002 65.24 7.70002C65.33 10.64 64.79 13.58 64.4 16.48C64.16 18.25 63.87 20 63.63 21.77C63.07 25.95 62.55 30.13 62.03 34.31C61.58 37.95 61.15 41.6 60.86 45.26C60.79 46.18 60.71 47.1 60.64 48.01C60.64 48 60.64 47.98 60.64 47.97C60.61 48.46 60.5701 48.95 60.5401 49.43V49.42C60.5401 49.45 60.5401 49.48 60.5401 49.51C60.5401 49.54 60.54 49.58 60.53 49.61C60.52 49.75 60.51 49.89 60.5 50.02C60.5 50 60.5 50 60.5 49.98C60.46 50.62 60.41 51.25 60.37 51.89C60.37 51.88 60.37 51.87 60.37 51.87C60.13 55.53 59.87 59.19 59.49 62.84C59.29 64.79 59.07 66.74 58.84 68.69C58.62 70.55 58.3201 72.39 57.9301 74.22C57.7801 74.94 57.5001 75.59 56.9301 76.06C56.5501 76.38 56.1 76.53 55.64 76.53C55.22 76.55 54.82 76.44 54.45 76.22ZM51.19 63.43C51.89 65.36 52.62 67.28 53.53 69.13C53.94 69.92 54.38 70.68 54.85 71.42C55.35 68.41 55.65 65.37 55.97 62.33C56.35 58.74 56.58 55.13 56.84 51.52C56.83 51.6 56.83 51.68 56.82 51.76C56.86 51.16 56.9 50.55 56.94 49.95C56.95 49.83 56.96 49.71 56.96 49.59C56.96 49.59 56.96 49.6 56.96 49.61C57.01 48.93 57.05 48.26 57.1 47.59C57.1 47.67 57.09 47.75 57.08 47.83C57.34 43.93 57.75 40.03 58.21 36.15C58.65 32.4 59.09 28.66 59.6 24.92C59.93 22.52 60.25 20.12 60.6 17.72C60.99 15.08 61.41 12.43 61.61 9.77003C61.66 8.86003 61.67 7.94003 61.62 7.02003C61.58 6.56003 61.5101 6.11999 61.4301 5.66999C61.3801 5.42999 61.31 5.19002 61.24 4.95002C61.2 4.86002 61.17 4.77 61.13 4.68C61.08 4.59 61.03 4.49998 60.98 4.40998C60.94 4.35998 60.91 4.31003 60.86 4.27003C60.84 4.25003 60.8301 4.23998 60.8101 4.21998C60.7901 4.20998 60.77 4.20001 60.76 4.19001C60.74 4.18001 60.72 4.16998 60.69 4.15998C60.68 4.15998 60.67 4.15003 60.66 4.15003C60.64 4.15003 60.62 4.14002 60.59 4.14002C60.54 4.14002 60.4801 4.14001 60.4301 4.13001C60.3501 4.14001 60.27 4.14998 60.19 4.15998C59.98 4.20998 59.78 4.27002 59.58 4.33002C59.18 4.48002 58.7901 4.65002 58.41 4.83002C55.32 6.40002 52.46 8.41001 49.58 10.32C49.65 10.28 49.71 10.24 49.77 10.2C43.23 14.69 36.7 19.2 30.09 23.59C23.69 27.84 17.18 31.92 10.72 36.08C9.67998 36.75 8.63999 37.41 7.59999 38.07C7.10999 38.39 6.62001 38.69 6.12001 38.99C6.10001 39.14 6.06001 39.29 6.00001 39.44C6.04001 39.43 6.07 39.43 6.11 39.42C7.39 39.28 8.67997 39.27 9.95997 39.21C12.09 39.05 14.21 38.83 16.35 38.73C17.34 38.69 18.34 38.69 19.33 38.68C20.26 38.66 21.19 38.61 22.13 38.55C22.97 38.47 23.82 38.39 24.66 38.26C25.48 38.15 26.28 37.99 27.1 37.84C27.62 37.71 28.13 37.57 28.65 37.45C29.13 37.33 29.6001 37.15 30.0601 36.99C31.7801 36.35 33.52 35.57 35.34 35.29C38.61 34.78 41.23 37.4 42.7 40.03C43.34 41.19 44 42.36 44.5 43.59C44.78 44.26 45.08 44.93 45.32 45.62C45.57 46.36 45.83 47.1 46.09 47.84C46.06 47.77 46.04 47.69 46.01 47.62C46.33 48.54 46.57 49.49 46.84 50.42C47.11 51.35 47.34 52.29 47.64 53.21C48.25 55.12 48.87 57.01 49.53 58.9C49.51 58.83 49.48 58.76 49.46 58.68C50.06 60.27 50.61 61.85 51.19 63.43Z"
    fill="rgba(191, 192, 191, 1)" />
  <path
    d="M50.8299 45.38C50.5499 44.97 50.3799 44.5 50.1899 44.06C50.0799 43.9 50 43.72 49.92 43.53C49.68 43.08 49.43 42.62 49.22 42.15C48.74 41.08 48.34 39.99 47.8299 38.94C47.4599 38.25 47.08 37.57 46.74 36.87C46.38 36.13 46.0499 35.39 45.6899 34.65C45.7299 34.72 45.76 34.78 45.8 34.85C45.44 34.14 45.1 33.44 44.84 32.71C44.67 32.46 44.5 32.21 44.34 31.96C44.25 31.82 44.15 31.69 44.05 31.55C43.94 31.51 43.83 31.48 43.72 31.45C43.68 31.45 43.63 31.44 43.59 31.43C42.8 31.39 42.02 31.39 41.23 31.31C41.17 31.3 41.11 31.29 41.04 31.29C39.28 31.23 37.52 31.29 35.76 31.35C35.43 31.36 35.13 31.27 34.87 31.12C34.85 31.12 34.82 31.12 34.8 31.13C34.48 31.15 34.16 31.17 33.84 31.18C33.75 31.19 33.66 31.2 33.5799 31.21C33.5399 31.22 33.51 31.23 33.47 31.24C33.32 31.29 33.17 31.36 33.02 31.43C32.47 31.66 31.84 31.58 31.36 31.27C30.62 31.14 30.02 30.54 29.9 29.77C29.75 28.81 30.43 28.12 31.11 27.57C31.22 27.47 31.3299 27.39 31.4499 27.31C31.4599 27.3 31.47 27.3 31.47 27.29C31.58 27.22 31.68 27.15 31.8 27.09C31.93 27.01 32.0699 26.94 32.1999 26.86C32.3199 26.8 32.43 26.75 32.55 26.7C32.64 26.58 32.73 26.47 32.84 26.36C33.08 26.12 33.35 25.91 33.61 25.7C34.27 25.18 34.9699 24.72 35.6999 24.3C36.7299 23.71 37.79 23.19 38.86 22.68C39.95 22.16 41.06 21.72 42.16 21.22C42.98 20.79 43.76 20.31 44.55 19.85C45.4 19.35 46.26 18.88 47.12 18.4C48.05 17.88 48.96 17.35 49.88 16.82C50.33 16.57 50.78 16.32 51.23 16.08C51.71 15.83 52.2699 15.5 52.8199 15.44C53.5599 15.36 54.27 15.73 54.61 16.35C54.77 16.51 54.91 16.7 54.99 16.93C55.08 17.18 55.19 17.45 55.17 17.72C55.16 17.95 55.14 18.18 55.13 18.41V18.4C55.07 19.37 55.0299 20.34 55.0799 21.31C55.1499 22.11 55.28 22.91 55.26 23.72C55.24 24.6 55.2199 25.47 55.1899 26.35C55.1699 27.29 55.16 28.23 55.13 29.17C55.1 30.07 55.04 30.97 55.03 31.88C55.02 32.83 55.03 33.79 55.04 34.74C55.05 35.72 54.97 36.7 54.91 37.68C54.79 39.67 54.69 41.7 54.3 43.66C54.09 44.68 53.68 45.91 52.46 46.03C52.4 46.03 52.33 46.04 52.26 46.04C51.73 46.06 51.1499 45.85 50.8299 45.38Z"
    fill="rgba(191, 192, 191, 1)" />
</svg>