<?xml version="1.0" encoding="UTF-8" standalone="yes"?>
<svg width="234" height="288" viewBox="-40 -40 314 368" fill="none" xmlns="http://www.w3.org/2000/svg">
  <path fill-rule="evenodd" clip-rule="evenodd"
    d="M64.706 0.615767C54.7028 1.8242 45.3441 7.46356 33.2462 19.6151C17.1471 35.7812 6.48591 55.7607 1.98781 78.1571C1.04791 82.9102 0.779364 85.9179 0.618238 95.2631C0.389977 105.83 0.752502 110.194 2.31005 115.498C3.54535 119.794 5.11633 122.44 8.04345 125.246C11.9507 128.992 13.8171 129.583 12.085 126.521C11.1988 124.924 10.0038 119.942 9.05049 114.007C8.23143 108.69 8.20458 92.4569 9.05049 86.7235C10.8094 74.4378 13.8708 63.9781 19.3894 51.746C25.0288 39.0977 32.7494 29.0543 45.5589 17.6547C48.0295 15.4392 51.2923 12.8344 52.7559 11.8139C66.3441 2.79095 82.0942 2.97893 94.7962 12.4047C108.291 22.4482 118.683 43.5018 124.94 73.4173C125.719 77.1635 126.927 83.9173 126.927 84.5349C126.927 84.7632 125.88 85.6494 124.578 86.4953C118.683 90.3085 111.701 96.6058 107.633 101.789C96.5821 115.874 90.4593 132.845 89.1568 153.12C88.3781 165.017 90.9158 173.785 96.8506 179.719C100.53 183.398 103.108 184.58 107.216 184.352C109.593 184.217 110.278 184.056 112.426 182.955C115.461 181.425 119.502 177.705 122.107 174.093C128.042 165.849 131.56 154.597 132.795 139.908C133.278 134.269 133.023 104.702 132.473 99.0361C132.245 96.9818 132.043 94.2829 132.043 93.0342L131.976 90.7516L134.42 89.3149C157.394 75.5925 171.385 88.9256 173.211 126.213C173.533 132.859 173.211 144.863 172.66 145.319C172.526 145.413 171.13 146.487 169.599 147.696C163.892 152.06 158.871 158.357 155.675 165.205C153.688 169.381 152.842 171.824 151.835 176.282C150.492 182.217 150.989 186.124 153.594 190.166C155.903 193.724 160.562 197.47 162.684 197.47C164.215 197.47 166.041 195.671 168.162 192.126C173.117 183.721 176.339 172.67 178.367 157.377C178.595 155.618 178.622 155.578 180.878 154.02C182.153 153.134 184.785 151.643 186.745 150.69C197.245 145.601 206.725 145.024 212.848 149.092C214.19 149.978 214.902 150.824 216.111 152.879C220.353 160.076 223.576 169.703 225.107 179.545C225.765 183.882 225.657 198.45 224.946 202.357C221.656 220.027 214.19 237.724 203.959 252.132C201.22 256.012 198.937 258.845 198.776 258.657C198.682 258.563 198.87 257.126 199.165 255.461C199.944 251.286 200.011 243.404 199.259 241.806C198.575 240.302 193.821 235.281 192.344 234.475C190.68 233.589 190.29 233.924 190.035 236.328C189.941 237.469 189.552 239.43 189.189 240.665C188.437 243.243 188.37 244.733 188.894 246.21C189.216 247.056 189.122 247.875 188.37 251.138C187.323 255.663 185.336 261.598 183.899 264.431C183.375 265.505 182.1 267.626 181.16 269.09C179.79 271.171 179.132 271.829 178.259 272.124C176.688 272.648 175.493 273.695 175.493 274.541C175.493 276.367 180.931 282.598 185.08 285.525C187.269 287.096 188.303 287.445 188.692 286.827C188.921 286.397 190.881 285.525 202.254 280.597C212.525 276.126 218.903 273.225 222.529 271.278C224.583 270.204 224.744 270.043 224.556 269.251C224.234 267.949 222.408 265.666 219.373 262.766C216.111 259.61 214.325 258.563 213.022 259.02C212.176 259.315 212.364 258.926 215.05 254.548C224.503 239.228 230.437 223.975 232.787 208.883C233.606 203.566 233.606 191.28 232.76 186.07C230.343 170.884 224.382 157.323 216.393 148.945C212.875 145.266 210.001 143.104 206.121 141.291C201.555 139.17 199.313 138.686 194.09 138.686C189.364 138.686 186.302 139.277 181.898 140.902C179.253 141.909 179.32 141.909 179.548 141.157C179.871 140.217 179.159 125.219 178.609 121.043C176.715 106.703 172.029 96.1359 163.973 88.0931C158.334 82.4806 153.057 79.6475 146.8 78.8418C142.301 78.2913 136.958 79.3923 132.594 81.7689C131.587 82.2926 130.7 82.7088 130.674 82.6551C130.606 82.6283 130.123 80.2114 129.559 77.3783C126.108 59.6814 120.657 44.5491 113.259 32.0754C105.431 18.9706 97.2534 10.4712 87.4382 5.34208C80.0398 1.50194 71.7956 -0.230153 64.6926 0.642606L64.706 0.615767ZM128.391 96.6327C129.787 115.739 130.123 125.474 129.599 133.732C128.592 149.468 125.947 159.028 120.174 167.796C115.581 174.765 108.935 179.209 103.067 179.209C99.4555 179.209 98.4753 178.82 97.8576 177.155C96.0987 172.402 95.5482 168.253 95.7764 161.15C95.9778 154.57 96.8238 149.186 99.2272 139.599C101.376 130.966 103.014 126.333 106.102 120.036C111.057 109.925 117.246 102.071 125.236 95.7196C126.578 94.6455 127.773 93.7996 127.908 93.7996C128.069 93.7996 128.27 95.0752 128.391 96.6327ZM169.008 168.508C167.316 174.859 165.195 179.693 162.523 183.439C160.562 186.245 160.468 185.52 162.16 180.444C163.986 174.939 168.941 165.03 169.559 165.648C169.653 165.742 169.397 167.017 169.008 168.521V168.508Z"
    fill="rgba(191, 192, 191, 1)" />
</svg>