<?xml version="1.0" encoding="UTF-8" standalone="yes"?>
<svg width="98" height="187" viewBox="-40 -40 178 267" fill="none" xmlns="http://www.w3.org/2000/svg">
  <path fill-rule="evenodd" clip-rule="evenodd"
    d="M44.4076 0.056348C38.7595 0.877517 32.6896 3.7868 26.9712 8.43227C23.0574 11.5996 17.9484 17.1132 13.9409 22.4156C1.21519 39.3317 -3.12046 59.4386 2.2698 76.4016C3.27754 79.6159 5.90239 84.9183 7.8007 87.593C9.6287 90.1972 12.3941 93.0831 14.6205 94.7489C17.011 96.532 20.6904 98.3385 23.1981 98.9485C24.2996 99.2301 25.2136 99.4647 25.237 99.4882C25.2604 99.5116 24.8151 100.99 24.2292 102.796C22.2372 108.99 20.2451 117.835 19.3077 124.733C18.7452 128.816 18.7453 135.127 19.2843 137.168C20.5264 141.814 23.3621 144.629 27.0415 144.864C27.9555 144.911 29.1039 144.864 29.5961 144.723C30.3929 144.512 30.4632 144.512 30.3694 144.864C30.1351 145.661 29.3383 149.298 29.0336 151.011C28.5649 153.545 28.6352 160.419 29.1508 163.187C31.096 173.886 38.1502 182.027 48.2276 185.265C51.8133 186.438 54.2272 186.743 58.2348 186.602C63.7891 186.391 67.5388 185.406 73.0931 182.684C79.1865 179.705 83.944 175.904 86.8734 171.728L88.0452 170.015L88.1859 173.956C88.3499 179.634 89.0764 181.722 91.5138 183.74C93.2012 185.101 93.6699 184.843 93.248 182.731C92.9668 181.417 93.0137 181.159 93.9277 177.382C94.4667 175.2 95.076 172.408 95.2635 171.188C95.4744 169.968 96.1306 166.801 96.7165 164.149C98.4039 156.571 98.3336 154.295 96.3885 153.075C95.076 152.278 93.9042 152.395 91.7715 153.568C90.6466 154.201 89.3108 154.718 88.2796 154.929C85.9126 155.422 84.4361 155.938 79.702 157.979C72.8822 160.912 72.3432 161.24 71.9213 162.789C71.7338 163.539 71.7573 163.868 72.1088 164.548C73.4212 167.176 75.4836 166.965 84.3892 163.328C86.7328 162.366 88.7014 161.615 88.7483 161.662C88.9592 161.874 86.4282 166.542 85.2798 168.044C83.5221 170.39 80.7567 173.135 78.8115 174.496C76.7492 175.927 72.8354 177.875 69.7887 179.024C59.9222 182.708 50.6884 181.769 43.353 176.326C35.3613 170.461 32.3147 159.926 34.916 147.304C35.7597 143.268 37.658 138.482 39.8376 134.939C41.2203 132.687 41.5484 131.655 41.2203 130.669C40.939 129.754 40.4235 129.426 39.322 129.426C37.8455 129.426 36.9315 130.552 34.3535 135.502C33.3927 137.309 32.7131 138.341 32.1037 138.81C29.3383 140.992 26.4791 140.969 25.1198 138.764C23.1278 135.526 23.5965 127.15 26.4791 114.41C27.6978 108.99 30.3226 100.333 30.9788 99.4882C31.096 99.3239 31.6584 99.1362 32.2209 99.0424C33.6739 98.8312 36.8378 97.7285 38.6658 96.8135C45.0638 93.5757 51.7196 86.1852 54.2975 79.4516C56.1958 74.5012 54.4616 71.1696 50.0322 71.193C46.4231 71.2165 40.236 74.6654 36.5566 78.7009C33.8614 81.6102 30.6741 86.8656 28.2368 92.3557C27.6275 93.7165 27.065 94.8896 26.9947 94.9835C26.9009 95.0773 26.151 95.0069 25.3073 94.8427C18.7453 93.4584 12.7222 88.0857 8.71467 80.0147C5.55082 73.68 4.26187 67.181 4.51967 59.0397C4.75403 51.9073 6.20701 45.6664 9.27711 38.2759C14.058 26.8499 24.3933 13.7347 33.5099 7.54071C35.7129 6.03915 39.861 3.9745 42.1109 3.24718C45.9543 1.98023 48.5323 2.07408 52.3055 3.59911C53.4538 4.04488 54.4381 4.37335 54.5084 4.30297C55.024 3.7868 51.9305 1.34675 49.7978 0.619434C48.462 0.173656 45.6966 -0.131348 44.4076 0.056348ZM51.6259 75.3223C51.9071 75.7212 51.6727 77.2932 51.1102 78.7713C50.829 79.522 49.8447 81.2582 48.9307 82.6425C46.1419 86.8891 41.8062 90.8776 37.7987 92.8954C36.5097 93.5523 33.0411 94.7958 32.9005 94.655C32.7833 94.5142 34.6582 90.4318 35.9472 88.0153C39.1814 81.9386 42.5327 78.3489 47.2902 75.9558C49.5401 74.8062 51.1103 74.595 51.6259 75.3223Z"
    fill="rgba(191, 192, 191, 1)" />
</svg>