<?xml version="1.0" encoding="UTF-8" standalone="yes"?>
<svg width="80" height="81" viewBox="-40 -40 160 161" fill="none" xmlns="http://www.w3.org/2000/svg">
  <path fill-rule="evenodd" clip-rule="evenodd"
    d="M75.9335 47.9521C75.7714 47.8299 75.6298 47.6785 75.52 47.5C75.38 47.36 75.22 47.2201 75.07 47.09L75.0818 47.1017C74.6178 46.6974 74.1452 46.2989 73.6731 45.9007C73.361 45.6375 73.0491 45.3744 72.74 45.11C71.85 44.35 71.02 43.53 70.22 42.67C70.0758 42.5119 69.932 42.3534 69.7885 42.1947L69.5098 41.886L69.2258 41.5708L69.2247 41.5695C68.0169 40.229 66.8108 38.8903 65.5 37.65C65.2396 37.4316 64.9792 37.2203 64.7129 37.0041L64.7119 37.0034L64.56 36.88C64.3022 36.6677 64.0157 36.4784 63.7309 36.2903L63.6056 36.2074C63.5568 36.175 63.5082 36.1426 63.46 36.11L63.0599 35.8477C62.7833 35.6665 62.5065 35.4852 62.2303 35.3031C61.7375 36.0792 61.2117 36.8346 60.65 37.57C59.15 39.5301 57.32 41.19 55.47 42.82C54.12 44.01 52.74 45.1701 51.31 46.27C50.53 46.8701 49.74 47.45 48.93 48.01C48.13 48.56 47.26 49.02 46.4 49.47C45.54 49.92 44.65 50.33 43.74 50.69C43.5882 50.7508 43.4366 50.8109 43.2854 50.8709C42.5902 51.1466 41.9018 51.4197 41.22 51.74C40.9 51.92 40.58 52.11 40.27 52.31C39.98 52.51 39.71 52.7201 39.45 52.94C39.18 53.18 38.93 53.43 38.7 53.7C38.49 53.95 38.29 54.21 38.11 54.47C37.9 54.81 37.7 55.15 37.51 55.5C37.32 55.9101 37.15 56.32 37 56.74C36.6342 57.8685 36.3683 59.0239 36.1023 60.18C35.9393 60.8884 35.7762 61.5971 35.59 62.3C35.13 64.07 34.41 65.75 33.65 67.41C33.5347 67.6608 33.4185 67.9116 33.3023 68.1627C33.0153 68.7825 32.7276 69.4038 32.45 70.0301C32.1676 70.6618 31.9128 71.3046 31.6569 71.9502C31.5684 72.1732 31.4799 72.3966 31.39 72.62C31.1301 73.26 30.83 73.88 30.46 74.46C30.1862 74.9002 29.855 75.3116 29.5318 75.7129L29.51 75.74C28.92 76.48 28.25 77.19 27.55 77.82C27.2111 78.1256 26.8567 78.4158 26.5024 78.706C26.219 78.938 25.9355 79.1701 25.66 79.41C25.64 79.43 25.62 79.45 25.6 79.46C25.27 80.01 24.67 80.33 24.06 80.33C23.78 80.31 23.48 80.2401 23.21 80.08C22.38 79.6001 22.08 78.49 22.57 77.66C22.84 77.21 23.17 76.9 23.55 76.56C24.05 76.12 24.58 75.7 25.09 75.27C25.55 74.84 25.98 74.39 26.4 73.93C26.78 73.48 27.13 73.0301 27.47 72.56C27.58 72.39 27.67 72.22 27.77 72.04C28.0043 71.5388 28.209 71.025 28.4143 70.5095C28.5244 70.2329 28.6348 69.9558 28.75 69.68C29.09 68.85 29.46 68.02 29.84 67.21C30.56 65.6601 31.27 64.12 31.84 62.51C32.25 61.15 32.57 59.7801 32.89 58.4C33.05 57.7 33.23 57.02 33.43 56.33C33.87 54.81 34.52 53.4101 35.43 52.12C36.81 50.17 38.82 48.8701 40.99 47.96C41.59 47.71 42.2 47.49 42.79 47.24C43.42 46.97 44.04 46.68 44.66 46.38C45.43 45.9801 46.19 45.5601 46.93 45.09C49.51 43.2901 51.91 41.24 54.27 39.16C55.18 38.31 56.09 37.45 56.92 36.52C57.6024 35.7289 58.2359 34.8986 58.8301 34.0486L58.83 34.05C58.998 33.8011 59.1621 33.5503 59.3224 33.2976C59.1539 33.1731 58.9864 33.0473 58.82 32.92C58.0261 32.3139 57.2351 31.6991 56.4485 31.0788L55.94 31.52C55.6276 31.7896 55.3158 32.0606 55.0036 32.3317C53.8568 33.3279 52.7069 34.3267 51.52 35.27C50.01 36.4701 48.49 37.67 46.89 38.75C45.33 39.8 43.75 40.83 42.13 41.8C40.77 42.61 39.42 43.41 37.92 43.97C36.29 44.58 34.58 44.8001 32.87 44.96C32.5849 44.9863 32.2997 45.0083 32.0146 45.0304L31.8321 45.0445C31.8213 45.1996 31.8106 45.3548 31.8 45.51C31.73 46.51 31.66 47.51 31.57 48.51C31.52 49.05 31.46 49.6 31.41 50.15C31.3781 50.4691 31.3259 50.788 31.274 51.1045L31.2736 51.1071C31.2443 51.2857 31.2152 51.4635 31.19 51.64C31.03 52.68 30.81 53.69 30.58 54.71C30.4427 55.3461 30.2635 55.9718 30.0841 56.5983C30.05 56.7174 30.0159 56.8366 29.982 56.9558C29.9477 57.0771 29.9135 57.1984 29.88 57.32C29.8032 57.6018 29.7058 57.8795 29.609 58.1557C29.5546 58.3108 29.5004 58.4654 29.45 58.62C29.2 59.37 28.93 60.12 28.62 60.85C27.78 62.85 26.57 64.64 25.15 66.26C24.0068 67.5876 22.7105 68.7708 21.418 69.9505L21.09 70.25C21.0019 70.3314 20.9142 70.4123 20.8267 70.4927C20.5272 70.7682 20.2296 71.0391 19.92 71.31C19.9085 71.3215 19.8969 71.3297 19.8873 71.3365L19.8789 71.3426L19.8752 71.3454C19.8733 71.3469 19.8715 71.3485 19.87 71.35L19.83 71.39C19.8183 71.3958 19.8101 71.4017 19.8032 71.4095C19.8015 71.4115 19.7999 71.4135 19.7983 71.4157C19.7955 71.4199 19.7927 71.4245 19.79 71.43C19.77 71.45 19.75 71.46 19.74 71.48C19.6 71.64 19.43 71.7899 19.25 71.9099C19.2381 71.9219 19.2262 71.9339 19.2122 71.9436C19.2083 71.9463 19.2044 71.9488 19.2002 71.9511L19.1934 71.9546C19.1891 71.9566 19.1847 71.9584 19.18 71.96L19.17 71.97C18.54 72.52 17.87 73 17.11 73.36C16.61 73.59 16.06 73.69 15.52 73.69C15.22 73.71 14.94 73.68 14.67 73.63C13.72 73.45 13.02 72.63 13.15 71.63C13.27 70.71 14.2 69.94 15.15 70.12C15.24 70.14 15.34 70.16 15.44 70.1699H15.52L15.64 70.14C15.6211 70.1482 15.6021 70.1555 15.583 70.1626C15.5695 70.1675 15.556 70.1723 15.5423 70.1771L15.5117 70.1876C15.4824 70.1976 15.452 70.208 15.42 70.22C15.55 70.18 15.69 70.13 15.81 70.08C15.92 70.02 16.03 69.95 16.14 69.88C16.37 69.71 16.58 69.54 16.8 69.36C16.94 69.2 17.1 69.06 17.28 68.94C17.3 68.92 17.33 68.9 17.35 68.88C17.4367 68.7933 17.5323 68.7155 17.6279 68.6377L17.6876 68.5889L17.7234 68.5594C17.739 68.5463 17.7546 68.5333 17.77 68.52C17.7499 68.5351 17.7324 68.5501 17.7148 68.5651C17.6974 68.5801 17.68 68.5951 17.66 68.61C19.18 67.27 20.64 65.89 22.06 64.45L22.1521 64.3414L22.1533 64.3399C22.7912 63.5882 23.4175 62.8501 23.98 62.0301C24.31 61.52 24.62 60.99 24.91 60.46C25.27 59.71 25.59 58.95 25.87 58.18C26.21 57.18 26.53 56.18 26.82 55.1599C27.0494 54.3533 27.2286 53.5342 27.4074 52.7174L27.4079 52.715L27.4771 52.3994L27.5095 52.2523L27.55 52.07C27.5892 51.8076 27.6311 51.5462 27.673 51.2849C27.7701 50.6796 27.8671 50.0747 27.93 49.46C27.9548 49.1897 27.9812 48.9187 28.0076 48.6472C28.0769 47.934 28.1466 47.217 28.19 46.5C28.215 46.1556 28.239 45.8115 28.2627 45.4677L27.98 45.51C28.0076 45.5031 28.0339 45.4975 28.0599 45.4921C28.1094 45.482 28.1575 45.4732 28.21 45.46C27.9208 45.5212 27.6316 45.5792 27.3408 45.6377C27.1086 45.6843 26.8753 45.7312 26.64 45.7801C26.2832 45.8501 25.9304 45.9567 25.5765 46.0637L25.5696 46.0659C25.3704 46.126 25.1708 46.1862 24.97 46.24L24.8269 46.2906C24.0568 46.5628 23.3028 46.8292 22.54 47.14C22.3051 47.236 22.0722 47.3339 21.8405 47.4334C21.7802 47.6953 21.722 47.9578 21.6638 48.2207L21.6609 48.2337C21.6176 48.4288 21.5742 48.6248 21.53 48.82C21.4549 49.1653 21.3749 49.5106 21.2948 49.8559C21.2149 50.2006 21.1349 50.5453 21.06 50.89C21.0047 51.1295 20.9344 51.3653 20.8651 51.5973C20.8216 51.743 20.7786 51.8873 20.74 52.0301C20.7216 52.0967 20.7036 52.1634 20.6855 52.2301C20.5953 52.5634 20.505 52.8967 20.38 53.23C20.3314 53.3695 20.2831 53.5092 20.2347 53.6491L20.2308 53.6604C19.9719 54.409 19.7121 55.1601 19.41 55.89C18.67 57.68 17.72 59.44 16.42 60.89C15.557 61.8585 14.5836 62.7074 13.6057 63.5603L13.6049 63.5611L13.48 63.67C12.9278 64.1512 12.3705 64.6248 11.8146 65.0971L11.8101 65.101C11.2701 65.5598 10.7314 66.0175 10.2 66.48L9.68999 66.93C9.32 67.26 8.86001 67.44 8.39999 67.44C7.99001 67.45 7.55001 67.29 7.20998 66.94C6.55001 66.29 6.48998 65.08 7.20998 64.44C8.2478 63.5147 9.30517 62.609 10.3625 61.7032C10.9964 61.1602 11.6303 60.6172 12.26 60.07C12.83 59.55 13.37 59.03 13.88 58.46C14.15 58.14 14.4 57.81 14.64 57.46C14.99 56.92 15.3 56.36 15.6 55.7801C15.5845 55.8072 15.5705 55.8344 15.5569 55.8609L15.5558 55.8629C15.5346 55.9041 15.5141 55.9438 15.49 55.98C16.12 54.7 16.6 53.38 17.07 52.04C17.103 51.9264 17.1362 51.8127 17.1695 51.699C17.3877 50.9524 17.6064 50.2037 17.78 49.44L17.7927 49.3845C17.0859 49.7555 16.3819 50.1307 15.6778 50.5058L15.67 50.51C14.37 51.21 13.12 51.98 11.87 52.76C11.5982 52.9469 11.3263 53.1338 11.0545 53.3188C10.8463 53.4605 10.6381 53.6012 10.43 53.74C10.2499 53.8626 10.0742 53.9941 9.90063 54.1293C9.76235 54.237 9.62545 54.3471 9.48879 54.4569C9.34936 54.5691 9.21017 54.681 9.07 54.79C8.73998 55.08 8.40997 55.37 8.07998 55.67C7.8424 55.8796 7.61947 56.1088 7.39413 56.3404C7.29699 56.4403 7.19939 56.5406 7.1 56.64C6.48 57.27 5.89999 57.93 5.32 58.6L5.10738 58.8629C4.71865 59.3433 4.33218 59.8209 3.95998 60.32V60.43C3.95998 61.33 3.26 62.09 2.39001 62.19H2.33999C2.2604 62.2014 2.18081 62.2127 2.10122 62.2204C2.04079 62.2263 1.9804 62.23 1.92001 62.23C1.91 62.22 1.89999 62.22 1.89999 62.22C1.11999 62.22 0.409966 61.67 0.209984 60.92C0.089989 60.47 0.0999988 60.09 0.260002 59.65C0.400017 59.23 0.647271 58.8635 0.894493 58.4971C0.929772 58.4448 0.96505 58.3925 0.999993 58.34C1.30117 57.8963 1.64001 57.4838 1.98171 57.068C2.07116 56.9591 2.16079 56.85 2.24999 56.74C2.67391 56.2065 3.13522 55.6943 3.5949 55.184C3.76415 54.9961 3.93316 54.8084 4.1 54.62C4.71999 53.92 5.42999 53.27 6.13 52.65C6.82998 52.0301 7.53997 51.4201 8.30999 50.89C8.46355 50.7865 8.61678 50.6826 8.76998 50.5787L8.77197 50.5774C9.47607 50.1001 10.1796 49.6231 10.91 49.18C11.77 48.64 12.64 48.14 13.52 47.64C14.27 47.21 15.04 46.81 15.81 46.41C16.0041 46.3086 16.1981 46.2061 16.3924 46.1036C17.0791 45.7412 17.7685 45.3774 18.47 45.05C18.5654 45.0048 18.6607 44.9594 18.7562 44.9138L18.8702 44.8595C18.9983 44.4453 19.1415 44.0355 19.3 43.63C19.76 42.43 20.45 41.34 21.17 40.29C21.79 39.39 22.47 38.54 23.15 37.69C23.7 36.99 24.27 36.31 24.85 35.64C25.48 34.91 26.1 34.16 26.78 33.48L27.87 32.39C28.6425 31.6175 29.5307 30.9528 30.4329 30.3284C30.9343 28.6956 31.5655 27.1049 32.36 25.6C33.28 23.8599 34.5 22.29 35.8 20.81C36.7393 19.7432 37.7686 18.7485 38.8668 17.8409C38.3769 17.5061 37.8907 17.1666 37.41 16.82C36.21 15.95 35.02 15.07 33.83 14.17L33.5222 13.9359C32.4145 13.0929 31.3032 12.2472 30.15 11.46C29.82 11.2401 29.47 11.02 29.12 10.82C29.11 10.82 29.1 10.81 29.09 10.81C28.36 10.59 27.81 9.89999 27.81 9.11001C27.81 8.69369 27.9604 8.30563 28.2099 7.9996C28.2551 7.34676 28.6604 6.68978 29.29 6.46004C29.8199 6.27254 30.3831 6.23122 30.947 6.1899C31.0747 6.1805 31.2025 6.1711 31.33 6.16C31.54 6.13998 31.7526 6.12246 31.9651 6.10494C32.1775 6.08749 32.39 6.06997 32.6 6.05001C33.54 5.95998 34.48 5.88003 35.42 5.79C37.54 5.57998 39.67 5.37002 41.8 5.16C45.55 4.77999 49.3 4.45003 53.05 4.15005C55.53 3.95003 58.01 3.74001 60.48 3.41C61.9 3.21999 63.32 3.01998 64.73 2.80001C65.905 2.61721 67.0614 2.3879 68.2261 2.15694L68.2305 2.15585L68.36 2.13003C68.574 2.07772 68.7879 2.02499 69.0019 1.97195C69.2549 1.90926 69.508 1.84615 69.7611 1.78274L70.5947 1.57345L70.5959 1.57308C71.6518 1.3077 72.7092 1.04195 73.77 0.79C74.17 0.690025 74.58 0.600059 74.98 0.510032L75.1011 0.483116C75.7461 0.339195 76.4302 0.186546 77.07 0.450035C77.76 0.730064 78.22 1.41006 78.21 2.15005C78.21 2.45003 78.13 2.71004 78.01 2.95003C78.1908 5.98373 78.1677 9.03603 78.1447 12.0777C78.1384 12.9061 78.1322 13.7337 78.13 14.56C78.12 18.25 78.11 21.95 78.26 25.63C78.33 27.38 78.41 29.13 78.5 30.87V30.99C78.5 31.02 78.51 31.06 78.51 31.08C78.56 31.81 78.61 32.5401 78.66 33.26V33.2801C78.7091 33.9762 78.7657 34.6723 78.8224 35.3687L78.8228 35.3742C78.9622 37.0868 79.1016 38.8009 79.13 40.52C79.15 41.82 79.16 43.11 79.11 44.41L79.1033 44.5918C79.0997 44.6848 79.0959 44.7779 79.0919 44.8709C79.0738 45.2873 79.0519 45.7036 79.03 46.12C79.0233 46.2035 79.0189 46.2869 79.0145 46.3703C79.0056 46.5369 78.9967 46.7035 78.97 46.87C78.88 47.43 78.56 47.94 78.06 48.22C77.78 48.38 77.47 48.45 77.17 48.45C76.716 48.45 76.2678 48.2783 75.9335 47.9521ZM51.45 30.72C52.1848 30.0939 52.9153 29.4635 53.6453 28.8327C53.2746 28.5293 52.9058 28.2234 52.5378 27.9162C52.1472 27.59 51.7577 27.2624 51.3681 26.9348L51.3646 26.932C50.6073 26.2952 49.85 25.6583 49.0848 25.0321C48.4993 25.3692 47.9116 25.703 47.32 26.0301C46.39 26.55 45.47 27.05 44.52 27.52C44.4119 27.5727 44.3046 27.627 44.1973 27.6812L44.1952 27.6823C43.9364 27.8134 43.6782 27.9441 43.41 28.05C43.1751 28.1439 42.9402 28.2398 42.7061 28.335L42.4447 28.4412C42.3464 28.481 42.2484 28.5206 42.1506 28.5597C42.0232 28.6107 41.8964 28.6609 41.77 28.71C41.3602 28.875 40.9479 29.0249 40.5356 29.1748C40.1232 29.3247 39.7099 29.4751 39.3 29.64C39.2133 29.6739 39.1262 29.7072 39.0391 29.7406L39.0369 29.7414C38.7124 29.8657 38.3869 29.9905 38.08 30.14L38.0541 30.1525C37.5027 30.4183 36.9512 30.6842 36.39 30.95C36.3846 30.9527 36.38 30.9554 36.3756 30.9579C36.3639 30.9646 36.3546 30.97 36.34 30.97C36.2112 31.0392 36.0824 31.1082 35.9536 31.1772L35.952 31.1781C35.1301 31.6186 34.3108 32.0576 33.5101 32.5346C33.4325 32.8306 33.3577 33.127 33.2843 33.4237C33.1947 33.7855 33.1074 34.1478 33.02 34.51C32.71 36.26 32.41 38.01 32.25 39.7999C32.2003 40.3551 32.1524 40.9102 32.1061 41.4655C33.0785 41.3853 34.048 41.2977 35.01 41.12C35.53 41 36.05 40.87 36.55 40.7C37.03 40.52 37.5 40.32 37.96 40.11C39.2421 39.45 40.4621 38.6835 41.6785 37.9192L41.9 37.7801C42.95 37.1201 43.98 36.45 45 35.76C47.23 34.17 49.37 32.49 51.45 30.72ZM28.62 40.73C28.5854 41.0991 28.5534 41.4683 28.5232 41.8375C28.3824 41.8576 28.2414 41.8784 28.1 41.9C27.5123 41.984 26.9317 42.1032 26.3523 42.2221C26.2415 42.2448 26.1307 42.2675 26.02 42.29C25.202 42.4524 24.402 42.6944 23.6093 42.9616C23.7076 42.8068 23.808 42.653 23.91 42.5C23.87 42.57 23.83 42.63 23.79 42.69C25.1385 40.7259 26.6875 38.8764 28.2504 37.0762C28.5497 36.7513 28.8492 36.4266 29.1523 36.1059C29.0653 36.6657 28.9879 37.2246 28.92 37.7899C28.8 38.77 28.71 39.75 28.62 40.73ZM35.3408 27.5398L35.3563 27.5324C35.5253 27.4527 35.6942 27.3729 35.86 27.29C35.913 27.2635 35.9659 27.2367 36.019 27.2099L36.0201 27.2094C36.219 27.1089 36.4192 27.0078 36.6254 26.918C36.6962 26.8872 36.7676 26.8577 36.84 26.83C36.9918 26.7689 37.1435 26.7075 37.2953 26.6461C37.9639 26.3755 38.6336 26.1045 39.31 25.86C40.0874 25.5797 40.8483 25.275 41.6151 24.9679L41.6171 24.9672L41.86 24.87C42.54 24.6 43.2 24.25 43.86 23.92C44.5963 23.5104 45.3278 23.0961 46.058 22.6793C45.8401 22.521 45.6208 22.3645 45.4 22.21C45.3029 22.1425 45.2064 22.075 45.11 22.0075C44.978 21.9151 44.8465 21.8225 44.715 21.73L44.5434 21.6093C44.3729 21.4896 44.2022 21.3698 44.03 21.25C43.3577 20.8029 42.6808 20.3612 42.0037 19.9195L42.0014 19.9181L41.9676 19.896C41.5627 20.201 41.1681 20.5189 40.78 20.85C39.87 21.66 39.01 22.52 38.2 23.43C37.54 24.21 36.91 25.02 36.33 25.86C35.969 26.4058 35.6432 26.9657 35.3408 27.5398Z"
    fill="rgba(191, 192, 191, 1)" />
  <path d="M58.8301 34.0486C58.8368 34.0391 58.8434 34.0296 58.85 34.02C58.8405 34.0296 58.831 34.0391 58.8301 34.0486Z"
    fill="rgba(191, 192, 191, 1)" />
  <path
    d="M75.0818 47.1017L75.143 47.1551L75.24 47.24C75.1993 47.2061 75.1587 47.1723 75.1211 47.1384C75.1076 47.1262 75.0944 47.1139 75.0818 47.1017Z"
    fill="rgba(191, 192, 191, 1)" />
</svg>