<?xml version="1.0" encoding="UTF-8" standalone="yes"?>
<svg width="82" height="78" viewBox="-40 -40 162 158" fill="none" xmlns="http://www.w3.org/2000/svg">
  <path
    d="M23.21 77.03C22.64 76.68 22.15 76.23 21.65 75.8C21.18 75.39 20.72 74.97 20.25 74.55C19.69 74.07 19.1301 73.6 18.5601 73.14C17.4201 72.21 16.42 71.16 15.49 70.02C14.96 69.38 14.4501 68.71 13.9201 68.07C13.3801 67.44 12.8401 66.81 12.3001 66.19C10.9401 64.68 9.60005 63.15 8.28005 61.6C7.58005 60.8 6.87007 60 6.18007 59.2C6.16007 59.17 6.12999 59.14 6.09999 59.11C6.09999 59.1 6.08997 59.1 6.07997 59.09C5.25997 58.17 4.39008 57.28 3.56008 56.36C2.93008 55.66 2.28996 54.97 1.68996 54.25C0.91996 53.32 -0.120026 51.97 0.829974 50.8C1.06997 50.5 1.38 50.29 1.73 50.18C1.52 49.75 1.43007 49.3 1.55007 48.82C1.67007 48.38 1.97001 48 2.37001 47.76C2.88001 47.46 3.54998 47.46 4.08998 47.72C4.42998 47.61 4.75999 47.49 5.09999 47.38C5.93999 47.08 6.77996 46.75 7.68996 46.81C8.13996 46.84 8.58004 46.92 9.02004 46.97C9.03004 46.97 9.04007 46.97 9.05007 46.97C9.81007 46.8 10.56 46.57 11.32 46.4C12.18 46.21 13.02 46.07 13.89 46.06C14.32 46.06 14.7501 46.05 15.1801 46.04C15.4801 46.01 15.78 45.97 16.07 45.92C17.17 45.67 18.27 45.44 19.39 45.23C19.78 45.13 20.1601 45.03 20.5401 44.91C21.1901 44.67 21.84 44.42 22.52 44.25C23.4 44.03 24.32 44.03 25.23 44.05C26.22 44.07 27.2001 44.13 28.1801 44.23C29.0701 44.32 29.95 44.5 30.82 44.68C31.47 44.82 32.1 44.97 32.6 45.45C33 45.83 33.1501 46.38 33.1701 46.91C33.1801 47.2 33.1201 47.47 33.0601 47.75C32.9801 48.12 32.8901 48.48 32.8101 48.85C32.6001 49.74 32.38 50.62 32.15 51.51C31.92 52.36 31.66 53.19 31.45 54.05C31.23 54.94 31.0301 55.84 30.8101 56.73C30.4001 58.45 29.93 60.16 29.45 61.86C29.2 62.78 28.95 63.7 28.71 64.61C28.51 65.4 28.3501 66.2 28.1701 67C27.7101 69.59 27.28 72.18 26.71 74.75C26.54 75.51 26.25 76.23 25.69 76.77C25.3 77.15 24.79 77.34 24.27 77.34C23.9 77.33 23.54 77.23 23.21 77.03ZM10.94 59.28L10.95 59.29V59.3C11.66 60.11 12.3601 60.93 13.0601 61.74C13.9701 62.75 14.88 63.77 15.76 64.8C16.83 66.04 17.83 67.34 18.89 68.58C19.23 68.96 19.59 69.33 19.96 69.68C20.57 70.2 21.1901 70.7 21.8001 71.22C22.3801 71.72 22.96 72.23 23.53 72.74C23.55 72.65 23.57 72.55 23.59 72.46C23.97 70.53 24.29 68.59 24.64 66.66C24.97 64.83 25.46 63.02 25.95 61.23C26.47 59.37 26.9801 57.51 27.4301 55.64C27.6401 54.77 27.8401 53.89 28.0501 53.02C28.2601 52.16 28.53 51.31 28.76 50.45C28.98 49.64 29.19 48.83 29.38 48.01C28.39 47.84 27.4101 47.71 26.4101 47.63C25.6201 47.6 24.82 47.56 24.03 47.59C23.87 47.61 23.7101 47.63 23.5401 47.65C23.2901 47.7 23.06 47.77 22.82 47.85C22.11 48.1 21.42 48.39 20.69 48.56C20.03 48.72 19.3501 48.84 18.6701 48.96C17.8801 49.13 17.1001 49.33 16.3001 49.48C15.3701 49.65 14.42 49.59 13.49 49.62C13.23 49.64 12.97 49.68 12.71 49.72C11.66 49.96 10.62 50.27 9.56996 50.47C8.89996 50.59 8.24997 50.41 7.57997 50.35C7.52997 50.35 7.48007 50.35 7.43007 50.35C7.39007 50.36 7.35008 50.36 7.31008 50.37C7.22008 50.4 7.12005 50.42 7.03005 50.46C7.10005 50.43 7.17 50.41 7.23 50.39C6.33 50.71 5.43004 51 4.52004 51.29C4.34004 51.34 4.15999 51.4 3.96999 51.43C4.27999 51.86 4.61999 52.28 4.96999 52.68C5.55999 53.32 6.12999 53.97 6.71999 54.61C7.38999 55.33 8.07999 56.04 8.71999 56.77C8.70999 56.76 8.69996 56.75 8.68996 56.74C9.43996 57.57 10.19 58.42 10.94 59.28Z"
    fill="rgba(191, 192, 191, 1)" />
  <path d="M6.16003 59.18C6.16003 59.19 6.16003 59.19 6.16003 59.18V59.18Z" fill="rgba(191, 192, 191, 1)" />
  <path
    d="M10.98 59.32C10.99 59.32 10.99 59.33 11 59.34C11.01 59.35 11.01 59.36 11.02 59.36C11 59.35 10.99 59.33 10.98 59.32Z"
    fill="rgba(191, 192, 191, 1)" />
  <path d="M10.96 59.3C10.96 59.3 10.97 59.31 10.98 59.32C10.98 59.32 10.97 59.31 10.96 59.3Z"
    fill="rgba(191, 192, 191, 1)" />
  <path d="M10.9399 59.27C10.9499 59.28 10.95 59.28 10.95 59.28C10.94 59.28 10.9399 59.27 10.9399 59.27Z"
    fill="rgba(191, 192, 191, 1)" />
  <path
    d="M51.28 54.79C51.21 54.74 51.1399 54.7 51.0699 54.65C50.6899 54.5 50.3499 54.24 50.0799 53.89C49.6999 53.4 49.36 52.88 49.02 52.36C48.37 51.38 47.79 50.36 47.16 49.36C47.07 49.24 46.97 49.11 46.87 48.98C46.18 48.25 45.43 47.58 44.73 46.86C43.94 46.04 43.21 45.16 42.48 44.28C41.12 42.64 39.81 40.96 38.43 39.33C38.01 38.9 37.59 38.47 37.18 38.04C36.73 37.58 36.2 37.17 35.72 36.74C35.77 36.79 35.83 36.84 35.89 36.89C34.95 36.12 34.0099 35.34 33.0699 34.56C31.9499 33.63 30.8899 32.6 29.7099 31.76C29.6499 31.72 29.58 31.68 29.51 31.64C28.84 31.52 28.2499 31.08 28.0799 30.37C27.9599 29.85 28.0599 29.33 28.3299 28.92C28.5199 28 29.38 27.44 30.31 27.52C30.36 27.52 30.3999 27.53 30.4499 27.53C31.4799 27.58 32.5 27.62 33.53 27.61C34.73 27.5 35.92 27.31 37.13 27.19C37.69 27.14 38.25 27.05 38.8 26.97C39.45 26.88 40.1 26.82 40.76 26.78C41.23 26.74 41.69 26.7 42.16 26.62C42.57 26.53 42.96 26.4 43.36 26.28C43.29 26.31 43.22 26.33 43.14 26.36C44.04 26.04 44.9299 25.72 45.8299 25.41C45.9499 25.37 46.0699 25.33 46.1999 25.29C46.1799 25.29 46.16 25.3 46.15 25.31C46.37 25.24 46.59 25.16 46.81 25.08C46.74 25.11 46.67 25.13 46.59 25.16C46.96 25.03 47.3299 24.9 47.6999 24.77C47.6299 24.8 47.56 24.82 47.48 24.85C48.39 24.53 49.31 24.29 50.27 24.17C51.1 24.06 51.93 24.09 52.77 24.13C53.48 24.17 54.19 24.22 54.89 24.27C55.12 24.28 55.3499 24.28 55.5799 24.27C56.0899 24.25 56.5899 24.44 56.9599 24.8C57.4299 25.27 57.56 25.93 57.42 26.56C57.4 26.64 57.38 26.73 57.36 26.81C57.32 27.19 57.22 27.58 57.15 27.95C56.93 29.2 56.73 30.45 56.48 31.7C56.5 31.62 56.51 31.55 56.53 31.47C56.27 32.9 56.17 34.33 56.01 35.76C55.83 37.33 55.5199 38.88 55.1999 40.43C54.9899 41.59 54.82 42.76 54.74 43.94C54.74 43.91 54.74 43.88 54.74 43.85C54.74 43.89 54.74 43.93 54.73 43.96C54.73 44 54.73 44.05 54.72 44.08C54.72 44.06 54.72 44.03 54.73 44.01C54.66 45.25 54.65 46.49 54.66 47.74C54.66 48.35 54.67 48.97 54.68 49.58C54.68 49.97 54.6799 50.35 54.6899 50.74C54.6999 51.19 54.71 51.63 54.6 52.06C54.55 52.27 54.4499 52.47 54.3199 52.63C54.1399 53.47 53.89 54.34 53.1 54.79C52.83 54.95 52.5 55.04 52.17 55.04C51.83 55.04 51.53 54.96 51.28 54.79ZM46.1999 29.02C45.3599 29.32 44.51 29.63 43.66 29.89C42.63 30.21 41.56 30.28 40.49 30.34C39.62 30.43 38.76 30.57 37.9 30.67C37.06 30.77 36.21 30.85 35.37 30.96C35.05 31 34.73 31.05 34.42 31.08C34.82 31.42 35.22 31.76 35.62 32.1C36.33 32.69 37.04 33.28 37.75 33.86C38.41 34.4 39.04 34.98 39.67 35.54C40.02 35.85 40.34 36.23 40.67 36.57C40.96 36.87 41.24 37.18 41.51 37.5C42.08 38.17 42.6399 38.85 43.1999 39.54C44.2499 40.85 45.31 42.16 46.41 43.44C46.95 44.04 47.4999 44.63 48.0799 45.2C48.6499 45.76 49.23 46.29 49.74 46.9C50.28 47.55 50.68 48.31 51.1 49.03C51.1 48.93 51.1 48.83 51.1 48.73C51.1 47.87 51.09 47 51.11 46.14C51.14 44.6 51.19 43.08 51.4 41.55C51.55 40.39 51.81 39.24 52.05 38.1C52.16 37.47 52.3 36.84 52.37 36.21C52.46 35.48 52.54 34.74 52.6 34C52.71 32.77 52.89 31.56 53.13 30.34C53.13 30.36 53.12 30.38 53.12 30.39C53.29 29.5 53.4199 28.61 53.5799 27.71C53.5599 27.71 53.55 27.71 53.53 27.71C53.51 27.71 53.4799 27.71 53.4599 27.71C53.4699 27.71 53.48 27.71 53.5 27.71C52.67 27.66 51.84 27.61 51.02 27.64C50.73 27.67 50.44 27.71 50.15 27.76C49.67 27.87 49.2 28 48.72 28.15C48.47 28.24 48.22 28.32 47.98 28.4C47.98 28.4 47.99 28.4 48 28.4C47.97 28.41 47.93 28.42 47.9 28.44C47.89 28.44 47.88 28.45 47.86 28.45C47.84 28.46 47.81 28.47 47.78 28.48C47.79 28.48 47.8 28.47 47.81 28.47C47.77 28.49 47.7299 28.5 47.6899 28.52C47.4399 28.61 47.17 28.7 46.92 28.79C46.99 28.77 47.06 28.74 47.14 28.72C46.81 28.82 46.5099 28.92 46.1999 29.02Z"
    fill="rgba(191, 192, 191, 1)" />
  <path d="M47.67 28.52C47.65 28.53 47.63 28.54 47.61 28.54C47.63 28.53 47.65 28.53 47.67 28.52Z"
    fill="rgba(191, 192, 191, 1)" />
  <path
    d="M75.14 32.15C74.55 32.13 74.02 31.79 73.57 31.42C72.5 30.55 71.5 29.61 70.47 28.7C69.43 27.79 68.47 26.81 67.48 25.85C66.47 24.87 65.43 23.92 64.39 22.97C64.45 23.02 64.5001 23.07 64.5601 23.12C62.8801 21.66 61.16 20.26 59.39 18.92C58.38 18.15 57.36 17.4 56.34 16.64C55.39 15.93 54.48 15.18 53.61 14.37C53.07 13.87 52.58 13.31 52.07 12.78C51.94 12.71 51.81 12.62 51.69 12.51C51.37 12.21 51.14 11.87 51 11.45C50.77 10.78 51.09 9.99001 51.62 9.58001C51.81 9.43001 52.02 9.33002 52.23 9.28002C52.11 9.00002 52.05 8.68002 52.1 8.34002C52.22 7.46002 53.08 6.69998 53.99 6.79998C54.37 6.74998 54.74 6.68 55.11 6.63C55.74 6.54 56.37 6.50999 57 6.43999C57.58 6.37999 58.16 6.27997 58.73 6.16997C59.31 6.05997 59.89 5.99002 60.48 5.90001C61.64 5.63001 62.75 5.22 63.89 4.88C65.18 4.5 66.48 4.15997 67.7701 3.78997C69.05 3.41997 70.33 3.04001 71.6 2.64001C72.58 2.33001 73.5601 2.04997 74.5601 1.84997C75.7101 1.61997 76.9001 1.59996 78.0601 1.40996C78.1401 1.38996 78.2201 1.37002 78.3001 1.34002C78.3101 1.33002 78.32 1.33 78.32 1.32C78.9 0.939998 79.56 0.769988 80.24 1.05999C80.91 1.33999 81.28 1.97002 81.44 2.65001C81.65 3.58001 81.5001 4.50999 81.4001 5.43999C81.2601 6.74999 80.94 8.01998 80.59 9.29998C80.25 10.57 79.9301 11.85 79.6601 13.14C79.5901 13.57 79.54 14 79.5 14.43C79.43 15.57 79.3901 16.72 79.2701 17.85C79.1401 19 78.94 20.14 78.74 21.28C78.53 22.5 78.3 23.71 78.09 24.93C77.9 25.98 77.7901 27.04 77.6701 28.1C77.6501 28.48 77.63 28.85 77.63 29.22C77.62 29.87 77.6701 30.57 77.4001 31.17C77.1001 31.84 76.44 32.24 75.75 32.24C75.55 32.27 75.34 32.23 75.14 32.15ZM77.6 5.04998C76.7 5.13998 75.8101 5.23001 74.9201 5.39001C73.8001 5.65001 72.71 6.01999 71.61 6.36999C70.82 6.61999 70.02 6.85001 69.22 7.08001C67.43 7.59001 65.62 8.03999 63.85 8.61999C63.05 8.87999 62.2601 9.16001 61.4301 9.33001C60.5701 9.52001 59.7 9.6 58.83 9.76C57.93 9.92 57.03 9.99001 56.12 10.08C55.73 10.12 55.34 10.18 54.96 10.23C54.83 10.25 54.6901 10.27 54.5601 10.3C54.6401 10.39 54.7201 10.48 54.8001 10.56C55.3401 11.14 55.91 11.7 56.51 12.24C58.35 13.83 60.3501 15.22 62.2801 16.68C63.7801 17.82 65.2301 19.04 66.6501 20.27C68.0401 21.47 69.3701 22.75 70.6701 24.04C71.8101 25.17 73 26.24 74.19 27.31C74.22 26.99 74.2601 26.67 74.2901 26.35C74.4101 25.18 74.65 24.01 74.86 22.85C75.06 21.7 75.27 20.56 75.47 19.41C75.66 18.32 75.78 17.23 75.86 16.14C75.9 15.3 75.94 14.45 76.0201 13.61C76.11 12.78 76.29 11.96 76.48 11.15C76.66 10.38 76.8401 9.60002 77.0501 8.84002C77.2601 8.07002 77.4801 7.30997 77.6501 6.53997C77.7401 6.03997 77.82 5.54002 77.89 5.03002C77.81 5.03002 77.7 5.03998 77.6 5.04998Z"
    fill="rgba(191, 192, 191, 1)" />
  <path
    d="M13.1 58.84C12.12 58.7 11.49 57.8 11.59 56.84C11.66 56.11 11.7201 55.39 11.7801 54.66C11.7801 54.55 11.7901 54.43 11.8001 54.32C11.7301 54.13 11.69 53.92 11.69 53.7C11.69 53.28 11.79 52.84 12.01 52.49C12.33 51.95 12.9101 51.61 13.5401 51.61C14.2101 51.61 14.9301 52.04 15.1701 52.69C15.5101 53.62 15.34 54.66 15.26 55.63C15.21 56.19 15.16 56.75 15.1 57.31C15.01 58.19 14.18 58.84 13.33 58.84C13.25 58.85 13.17 58.85 13.1 58.84Z"
    fill="rgba(191, 192, 191, 1)" />
  <path
    d="M17.8499 62.16C17.8999 60.94 18.1 59.72 18.26 58.52C18.42 57.37 18.68 56.22 18.92 55.08C18.9 55.16 18.89 55.23 18.87 55.31C18.95 54.92 19.05 54.52 19.14 54.13C19.29 53.49 19.4299 52.84 19.7099 52.24C19.9399 51.75 20.34 51.37 20.87 51.22C21.46 51.06 22.1699 51.21 22.5899 51.67C22.9199 52.03 23.11 52.45 23.11 52.94C23.11 53.24 23.03 53.53 22.9 53.78C22.67 54.5 22.5099 55.25 22.3399 55.98C22.2299 56.53 22.12 57.08 22 57.62C22.02 57.55 22.04 57.47 22.05 57.39C21.74 58.92 21.57 60.47 21.4 62.02C21.4 62.07 21.4 62.11 21.39 62.16C21.35 63.12 20.62 63.93 19.62 63.93C18.69 63.93 17.8099 63.13 17.8499 62.16Z"
    fill="rgba(191, 192, 191, 1)" />
  <path d="M22.3399 55.98C22.3399 55.98 22.34 55.99 22.34 56C22.33 55.99 22.3399 55.99 22.3399 55.98Z"
    fill="rgba(191, 192, 191, 1)" />
  <path
    d="M41.11 35C41.09 34.8 41.06 34.59 41.03 34.39C40.71 34.07 40.51 33.63 40.51 33.15C40.51 32.19 41.32 31.38 42.28 31.38C42.92 31.38 43.5301 31.61 43.9301 32.13C44.4501 32.8 44.51 33.7 44.61 34.52C44.73 35.48 44.06 36.38 43.09 36.51C43.02 36.52 42.94 36.53 42.86 36.53C42.01 36.53 41.22 35.88 41.11 35Z"
    fill="rgba(191, 192, 191, 1)" />
  <path
    d="M47.63 43.11C46.66 42.98 46 42.07 46.11 41.11C46.22 40.2 46.31 39.29 46.4 38.38C46.45 37.49 46.4799 36.6 46.45 35.71C46.11 35.39 45.9 34.93 45.9 34.43C45.9 33.93 45.99 33.39 46.2 32.95C46.7 31.88 47.95 31.57 48.91 32.24C49.41 32.59 49.73 33.1199 49.83 33.7299C49.93 34.3899 50 35.07 50.01 35.75C50.01 36.36 50.03 36.96 49.99 37.57C49.91 38.92 49.79 40.27 49.62 41.61C49.51 42.49 48.71 43.14 47.85 43.14C47.78 43.13 47.7 43.13 47.63 43.11Z"
    fill="rgba(191, 192, 191, 1)" />
  <path
    d="M61.63 13.54C61.63 13.2 61.64 12.86 61.64 12.53C61.65 12.13 61.6299 11.71 61.6999 11.32C61.7999 10.78 62.08 10.31 62.56 10.03C63.02 9.76003 63.65 9.68999 64.14 9.92999C64.64 10.16 65.03 10.57 65.17 11.11C65.24 11.38 65.2499 11.66 65.1899 11.92C65.1699 12.46 65.17 13 65.16 13.54C65.15 14.5 64.36 15.31 63.39 15.31C62.44 15.31 61.61 14.51 61.63 13.54Z"
    fill="rgba(191, 192, 191, 1)" />
  <path
    d="M67.99 19.39C67.99 18.62 68.08 17.87 68.22 17.12C68.22 17.1 68.23 17.08 68.23 17.06C68.24 17.02 68.25 16.98 68.25 16.94C68.24 16.97 68.24 17 68.23 17.03C68.32 16.62 68.4 16.21 68.48 15.8C68.46 15.88 68.4501 15.95 68.4301 16.03C68.4601 15.9 68.48 15.76 68.51 15.63C68.49 15.71 68.48 15.78 68.46 15.86C68.63 15.01 68.84 14.16 69.04 13.32C69.18 12.74 69.32 12.16 69.45 11.57C69.6499 10.75 69.77 9.86999 70.17 9.11999C70.51 8.47999 71.2499 8.2 71.9399 8.26C71.9499 8.26 71.96 8.26 71.97 8.26C72.63 8.32 73.2901 8.88998 73.4301 9.54998C73.4801 9.75998 73.51 9.94998 73.51 10.17C73.51 10.54 73.3899 10.89 73.1899 11.17C72.9499 12.2 72.6799 13.22 72.4399 14.25C72.2699 14.97 72.1099 15.69 71.9399 16.41C71.9399 16.43 71.9301 16.45 71.9301 16.46C71.9301 16.47 71.93 16.48 71.92 16.5C71.91 16.54 71.9 16.57 71.9 16.61C71.84 16.93 71.77 17.25 71.7 17.56C71.6899 17.61 71.68 17.66 71.67 17.71C71.67 17.72 71.67 17.73 71.67 17.73C71.67 17.74 71.67 17.75 71.67 17.76C71.6 18.12 71.55 18.48 71.51 18.85C71.51 19.03 71.5 19.21 71.5 19.39C71.5 20.35 70.69 21.16 69.73 21.16C68.8 21.16 68 20.36 67.99 19.39Z"
    fill="rgba(191, 192, 191, 1)" />
  <path
    d="M71.74 17.56C71.74 17.55 71.75 17.55 71.74 17.56C71.74 17.56 71.74 17.58 71.74 17.59C71.74 17.58 71.74 17.57 71.74 17.56Z"
    fill="rgba(191, 192, 191, 1)" />
  <path
    d="M68.23 17.1C68.23 17.11 68.23 17.12 68.23 17.12C68.23 17.14 68.22 17.16 68.22 17.17C68.22 17.15 68.23 17.12 68.23 17.1Z"
    fill="rgba(191, 192, 191, 1)" />
</svg>