<?xml version="1.0" encoding="UTF-8" standalone="yes"?>
<svg width="75" height="317" viewBox="-40 -40 155 397" fill="none" xmlns="http://www.w3.org/2000/svg">
  <path fill-rule="evenodd" clip-rule="evenodd"
    d="M8.28846 0.36628C7.83194 1.07791 6.14012 8.5165 5.3882 12.9474C1.27949 37.1699 0.111328 51.8591 0.111328 79.116C0.111328 96.5846 0.33959 103.177 1.77629 125.238C4.08576 161.545 10.6785 190.749 24.2936 225.135C29.114 237.287 33.7195 247.263 47.2675 275.003C56.6262 294.11 59.7816 300.851 59.4862 301.106C58.9357 301.696 49.5098 295.762 44.2329 291.519C39.5737 287.799 36.9286 286.202 36.1498 286.725C33.8 288.162 42.474 297.615 53.5514 305.698C58.8283 309.538 70.8321 316.882 71.7989 316.882C72.2554 316.882 72.4165 316.493 72.3225 315.808C72.3225 315.674 72.5239 315.58 72.7791 315.58C73.0342 315.58 73.5578 315.285 73.9204 314.922C74.9006 313.942 74.7663 311.015 73.5981 306.611C71.9734 300.582 69.2343 288.753 65.9446 273.553C63.568 262.476 62.6147 258.69 61.9299 257.414C60.7618 255.266 56.0623 250.472 53.4171 248.78C51.0674 247.277 50.4497 247.156 50.4497 248.122C50.4497 250.365 54.8538 275.138 56.841 283.906C57.4318 286.672 57.9152 288.994 57.8481 289.021C57.6869 289.223 49.6307 273.634 44.7835 263.725C30.403 234.319 21.1785 209.265 15.7405 184.68C13.7802 175.845 12.8403 170.017 11.699 159.584C9.16123 136.705 8.59729 126.111 8.57043 101.405C8.57043 80.9689 8.73156 76.538 9.87287 62.6142C11.4707 43.87 14.8543 22.8432 17.8889 12.9743C18.8288 9.84581 18.8288 9.77867 18.2783 8.57024C17.6606 7.22753 12.2763 1.69555 10.6248 0.688517C9.48348 0.00373645 8.57043 -0.157374 8.27503 0.326001L8.28846 0.36628Z"
    fill="rgba(191, 192, 191, 1)" />
</svg>