<?xml version="1.0" encoding="UTF-8" standalone="yes"?>
<svg width="57" height="65" viewBox="-40 -40 137 145" fill="none" xmlns="http://www.w3.org/2000/svg">
  <path
    d="M0.730042 45.32C0.730042 44.49 1.30003 43.86 1.81003 43.27C2.35003 42.65 2.93004 42.07 3.51004 41.49C4.31004 40.69 5.11003 39.89 5.91003 39.08C7.14003 37.85 8.38003 36.62 9.62003 35.39C12.56 32.46 15.5 29.53 18.45 26.61C20.86 24.23 23.32 21.88 25.76 19.54C26.92 18.42 28.09 17.32 29.26 16.2C30.35 15.16 31.46 14.11 32.6 13.12C32.54 13.17 32.49 13.22 32.43 13.27C32.59 13.13 32.75 12.98 32.91 12.84C32.12 12.18 31.34 11.53 30.5 10.95C30.16 10.73 29.82 10.52 29.46 10.33C29.13 10.17 28.8 10.02 28.46 9.89001C28.05 9.73001 27.73 9.43998 27.48 9.09998C26.92 8.34998 27.01 7.19 27.8 6.62C28.6 6.04999 29.57 5.71001 30.46 5.32001C31.07 5.05001 31.7 4.80001 32.33 4.57001C33.17 4.25001 34.03 3.94997 34.88 3.65997C35.03 3.57997 35.2 3.51999 35.37 3.48999C35.91 3.30999 36.45 3.13002 36.99 2.96002C38.49 2.48002 40 1.99998 41.53 1.59998C42.88 1.24998 44.23 0.979971 45.62 0.969971C46.05 0.969971 46.47 1.00002 46.9 1.02002C47.17 1.03002 47.44 1.02998 47.7 1.09998C48.09 1.20998 48.43 1.45002 48.66 1.77002C49.07 2.32002 49.18 3.15 48.79 3.75C48.65 3.96 48.5 4.12999 48.33 4.29999C48.27 4.34999 48.21 4.41002 48.15 4.46002C48.46 4.83002 48.73 5.27003 48.7 5.78003C48.68 6.11003 48.65 6.40002 48.55 6.71002C48.48 6.93002 48.42 7.15 48.37 7.38C48.21 7.99001 48.08 8.60998 47.95 9.22998C47.78 10.25 47.65 11.27 47.58 12.3C47.59 12.22 47.59 12.14 47.6 12.06C47.54 13.11 47.54 14.17 47.6 15.22C47.65 15.88 47.74 16.54 47.86 17.19C47.98 17.74 48.13 18.29 48.11 18.87C48.09 19.43 47.86 19.96 47.46 20.36C47.04 20.78 46.41 20.96 45.83 20.9C45.21 20.83 44.69 20.52 44.15 20.22C43.13 19.64 42.09 19.08 41.05 18.52C39.18 17.52 37.34 16.45 35.67 15.13C35.41 15.36 35.15 15.58 34.9 15.81C33.56 17.06 32.21 18.29 30.89 19.55C29.43 20.95 27.96 22.35 26.5 23.75C23.79 26.36 21.09 28.98 18.41 31.64C16.21 33.83 14.01 36.03 11.8 38.23C10.68 39.35 9.55004 40.47 8.42004 41.59C7.09004 42.92 5.72002 44.23 4.46002 45.62C4.34002 45.76 4.22002 45.9 4.11002 46.04C3.84002 46.66 3.21002 47.11 2.49002 47.11C1.53002 47.09 0.730042 46.29 0.730042 45.32ZM35.55 10.44C35.57 10.45 35.59 10.47 35.6 10.48C35.77 10.34 35.93 10.19 36.1 10.05C36.07 9.81999 36.09 9.58998 36.11 9.34998C36.11 9.33998 36.11 9.33001 36.11 9.32001C35.91 9.39001 35.7 9.46002 35.49 9.52002C35.19 9.60002 34.88 9.64 34.57 9.62C34.89 9.89 35.22 10.16 35.55 10.44ZM39.92 5.72998C40.02 5.82998 40.12 5.92998 40.2 6.03998C40.21 6.02998 40.22 6.02002 40.23 6.02002C40.44 5.82002 40.66 5.62999 40.87 5.42999C40.55 5.52999 40.24 5.62998 39.92 5.72998Z"
    fill="rgba(191, 192, 191, 1)" />
  <path
    d="M32.59 62.54C32.71 62.05 32.93 61.61 33.16 61.16C33.49 60.45 34.24 60.03 34.99 60.12C35.01 60.1 35.03 60.08 35.05 60.06C35.53 59.55 36.01 59.05 36.48 58.54C37.05 57.94 37.61 57.35 38.18 56.75C38.81 56.08 39.43 55.4 40.08 54.75C40.9 53.93 41.74 53.11 42.56 52.29C43.34 51.52 44.13 50.76 44.93 50.01C44.62 49.74 44.31 49.47 44.01 49.2C44 49.19 43.99 49.18 43.97 49.17C43.54 48.83 43.12 48.49 42.7 48.16C41.9 47.52 41.01 46.71 41.01 45.59C41.01 43.7 43.09 43.02 44.58 42.57C45.54 42.27 46.5 42.04 47.49 41.87C48.36 41.72 49.23 41.66 50.1 41.58C51.17 41.49 52.25 41.45 53.32 41.38C53.71 41.35 54.11 41.32 54.51 41.29C55.36 41.21 56.19 41.44 56.62 42.25C56.96 42.9 56.93 43.63 56.49 44.23C56.38 44.39 56.25 44.52 56.11 44.65C56.27 44.97 56.33 45.33 56.3 45.7C56.24 46.36 56.05 46.99 55.9 47.64C55.83 48.05 55.78 48.46 55.74 48.87C55.72 49.25 55.72 49.61 55.75 49.98C55.75 49.97 55.75 49.96 55.75 49.96C55.86 51.24 56.01 52.51 56.12 53.79C56.21 54.91 56.19 56.04 56.23 57.16C56.23 57.21 56.24 57.26 56.24 57.3C56.3 58.09 55.93 58.85 55.17 59.17C54.42 59.49 53.59 59.23 53.08 58.62C52.68 58.14 52.29 57.66 51.88 57.19C50.96 56.15 50.01 55.15 49.05 54.14C48.52 53.59 48 53.02 47.46 52.48C47.45 52.49 47.44 52.5 47.43 52.51C44.64 55.09 42.01 57.82 39.4 60.58C38.81 61.21 38.21 61.84 37.62 62.47C37.36 62.75 37.09 63.02 36.83 63.31C36.24 63.96 35.61 64.51 34.74 64.73C34.59 64.77 34.44 64.78 34.3 64.78C33.2 64.77 32.29 63.72 32.59 62.54ZM51.99 50.76C51.76 50.97 51.48 51.13 51.19 51.21C51.44 51.48 51.69 51.75 51.94 52.01C52.12 52.2 52.3 52.39 52.47 52.57C52.43 52.19 52.4 51.82 52.35 51.44C52.31 51.12 52.28 50.8 52.26 50.49C52.17 50.59 52.08 50.68 51.99 50.76ZM47.56 47.6C47.63 47.53 47.7 47.47 47.78 47.4C47.76 47.38 47.74 47.35 47.73 47.33C47.59 47.37 47.44 47.38 47.3 47.37C47.38 47.45 47.47 47.53 47.56 47.6Z"
    fill="rgba(191, 192, 191, 1)" />
</svg>