<?xml version="1.0" encoding="UTF-8" standalone="yes"?>
<svg width="69" height="73" viewBox="-40 -40 149 153" fill="none" xmlns="http://www.w3.org/2000/svg">
  <path
    d="M24.61 71.91C24.56 71.86 24.52 71.8 24.49 71.74C24.46 71.7 24.43 71.66 24.39 71.62C24.24 71.46 24.07 71.3 23.91 71.15C23.3 70.63 22.68 70.12 22.02 69.65C21.49 69.3 20.94 68.99 20.38 68.7C19.2 68.13 17.98 67.65 16.77 67.14C15.89 66.78 15.03 66.39 14.16 66.02C13.36 65.67 12.59 65.27 11.8 64.89C11.05 64.51 10.3 64.14 9.56004 63.74C8.44004 63.13 7.30994 62.52 6.19993 61.87C5.13994 61.25 4.11002 60.57 3.16002 59.79C2.36002 59.13 1.57001 58.31 1.15001 57.35C0.730008 56.39 0.610023 55.4 1.04002 54.42C1.35002 53.7 1.98001 53.11 2.53001 52.57C3.19001 51.92 3.87994 51.3 4.57994 50.68C4.57994 50.68 4.56993 50.69 4.56993 50.7C4.76993 50.52 4.96002 50.35 5.16002 50.18C5.16002 50.19 5.15 50.2 5.14 50.2C6.48 49.02 7.82002 47.81 9.04002 46.51C10.31 45.15 11.54 43.76 12.78 42.39C15.35 39.54 18.03 36.78 20.81 34.14C22.98 32.08 25.16 30.04 27.35 28C28.5 26.92 29.67 25.86 30.79 24.75C31.36 24.18 31.93 23.62 32.49 23.05C32.99 22.55 33.45 22 33.93 21.46C34.06 21.3 34.18 21.15 34.31 21C33.84 20.83 33.36 20.66 32.89 20.48C32.14 20.2 31.41 19.86 30.68 19.55C29.88 19.2 29.06 18.87 28.25 18.53C27.36 18.23 26.4899 17.94 25.5699 17.73C24.9299 17.62 24.3 17.54 23.66 17.48C23.34 17.46 23.0199 17.44 22.6999 17.42C22.4799 17.41 22.26 17.4 22.04 17.39C21.77 17.37 21.5 17.35 21.22 17.31C20.98 17.27 20.75 17.18 20.52 17.1C20.02 16.93 19.64 16.43 19.5 15.94C19.35 15.39 19.49 14.85 19.81 14.39C20.17 13.87 20.72 13.66 21.28 13.41C21.68 13.23 22.08 13.05 22.48 12.87C23.23 12.53 23.98 12.19 24.74 11.88C26.41 11.2 28.14 10.66 29.85 10.07C32.71 9.03001 35.53 7.89 38.36 6.78C39.82 6.21 41.3299 5.73 42.8199 5.26C44.1599 4.83 45.5099 4.42 46.84 3.97C47.47 3.72 48.1 3.47 48.73 3.22C49.41 2.95 50.06 2.63 50.72 2.33C51.36 2.04 51.99 1.74 52.62 1.44C53.3 1.12 53.9899 0.829998 54.6899 0.559998C55.5099 0.259998 56.37 0.00999346 57.24 0.179993C57.87 0.299993 58.48 0.680001 58.81 1.25C59.07 1.7 59.1399 2.21001 59.1899 2.71001C59.2599 3.38001 59.33 4.04001 59.42 4.71001C59.6 6.07001 59.76 7.42 59.99 8.78C60.13 9.39 60.2799 9.99 60.4499 10.58C60.6299 11.19 60.84 11.79 61.05 12.39C61.03 12.32 61 12.25 60.98 12.17C61.58 13.78 62.19 15.36 62.55 17.05C62.87 18.55 63.05 20.1 63.27 21.63C63.42 22.37 63.56 23.13 63.74 23.86C63.97 24.75 64.2 25.63 64.42 26.52C64.65 27.45 64.87 28.39 65.1 29.32C65.33 30.26 65.49 31.23 65.68 32.18C65.84 32.97 65.99 33.77 66.14 34.57C66.31 35.27 66.48 35.96 66.64 36.65C66.79 37.26 66.99 37.85 67.18 38.45C67.64 39.92 68.18 41.37 68.61 42.85C68.98 44.1 69.2399 45.83 67.9499 46.64C67.1199 47.16 66.0999 46.89 65.4399 46.25C64.9499 45.79 64.67 45.08 64.37 44.49C63.98 43.74 63.59 42.98 63.13 42.27C62.89 41.92 62.63 41.59 62.36 41.27C62.03 40.92 61.6899 40.59 61.34 40.27C59.5499 38.73 57.5999 37.38 55.6999 35.98C54.6599 35.21 53.6199 34.44 52.5799 33.66C51.5899 32.92 50.61 32.16 49.59 31.45C49.32 31.28 49.06 31.11 48.79 30.97C48.75 30.95 48.71 30.93 48.67 30.92C48.66 30.92 48.65 30.92 48.64 30.93C48.6 30.95 48.57 30.97 48.54 30.99C48.43 31.07 48.33 31.15 48.22 31.23L48.2099 31.24C48.1299 31.35 48.05 31.46 47.98 31.57C47.37 32.48 46.8 33.4 46.29 34.37C45.74 35.57 45.22 36.76 44.63 37.93C43.99 39.18 43.36 40.43 42.72 41.68C42.76 41.61 42.7899 41.54 42.8299 41.48C41.2099 44.78 39.7 48.14 38.13 51.47C36.55 54.83 34.96 58.18 33.29 61.49C33.29 61.48 33.3 61.47 33.31 61.46C32.84 62.39 32.3099 63.3 31.8199 64.22C31.3399 65.11 30.83 65.99 30.34 66.88C29.87 67.72 29.39 68.54 28.91 69.38C28.61 69.9 28.32 70.42 28.02 70.93C27.67 71.53 27.3799 72.14 26.7099 72.44C26.4899 72.54 26.27 72.58 26.05 72.58C25.5 72.61 24.98 72.34 24.61 71.91Z"
    fill="rgba(191, 192, 191, 1)" />
</svg>