<?xml version="1.0" encoding="UTF-8" standalone="yes"?>
<svg width="78" height="70" viewBox="-40 -40 158 150" fill="none" xmlns="http://www.w3.org/2000/svg">
  <path
    d="M9.03997 69.75C8.65997 69.57 8.4 69.34 8.14 69.01C7.83 68.62 7.60998 68.14 7.36998 67.71C7.08998 67.21 6.84 66.71 6.57 66.2C6.12 65.34 5.67998 64.47 5.23998 63.61C4.35998 61.9 3.47001 60.19 2.58001 58.47C2.17001 57.68 1.77996 56.89 1.40996 56.08C1.09996 55.4 0.740003 54.7 0.640003 53.95C0.580003 53.49 0.539962 52.99 0.659962 52.53C0.789962 52.05 1.07998 51.56 1.48998 51.27C1.86998 51 2.24 50.79 2.7 50.69C3.2 50.58 3.66996 50.65 4.15996 50.75C4.67996 50.86 5.19001 51.16 5.65001 51.42C6.26001 51.76 6.84001 52.14 7.40001 52.56C8.51001 53.4 9.58001 54.31 10.65 55.19C12.08 56.35 13.49 57.52 15.02 58.56C15.41 58.81 15.81 59.07 16.22 59.3C15.97 58.76 15.72 58.23 15.48 57.69C14.7 55.94 13.93 54.18 13.11 52.44C12.67 51.5 12.23 50.56 11.81 49.62C11.52 48.99 11.23 48.37 10.99 47.72C10.65 46.81 10.7 45.82 11.41 45.11C12.13 44.39 13.21 44.5 14.11 44.76C15.36 45.12 16.47 45.87 17.51 46.64C18.93 47.68 20.21 48.9 21.52 50.07C21.78 50.3 22.03 50.53 22.29 50.76C22.24 50.71 22.18 50.66 22.12 50.61C22.87 51.24 23.62 51.88 24.41 52.46C23.71 50.56 22.93 48.67 22.17 46.79C21.83 45.93 21.52 45.06 21.2 44.19C21 43.67 20.85 43.14 20.68 42.61C20.61 42.38 20.54 42.16 20.47 41.93C20.39 41.68 20.32 41.42 20.27 41.16C20.19 40.77 20.18 40.39 20.17 40C20.15 39.23 20.72 38.47 21.47 38.29C21.79 38.22 22.08 38.17 22.4 38.16C22.71 38.14 23.01 38.27 23.29 38.38C23.87 38.61 24.31 39.11 24.75 39.52C25.49 40.18 26.18 40.88 26.91 41.54C27.34 41.92 27.77 42.31 28.21 42.7C28.99 43.32 29.75 43.95 30.57 44.52C30.92 44.74 31.27 44.96 31.63 45.16C31.53 44.77 31.4 44.38 31.27 43.99C30.48 41.87 29.67 39.74 29.17 37.53C29.09 37.19 29.02 36.84 28.96 36.5C28.83 35.84 28.73 35.11 28.91 34.45C29.05 33.95 29.34 33.47 29.74 33.14C30.23 32.73 30.79 32.58 31.42 32.61C32.81 32.68 34.03 33.57 35.13 34.34C35.66 34.71 36.19 35.07 36.72 35.43C37.03 35.63 37.35 35.81 37.67 35.98C37.35 34.53 36.96 33.09 36.63 31.65C36.49 31.07 36.37 30.48 36.25 29.9C36.17 29.51 36.03 29.11 36.04 28.71C36.05 28.4 36.04 28.07 36.18 27.78C36.31 27.51 36.45 27.27 36.63 27.03C37.07 26.4 38.03 26.15 38.72 26.48C39.07 26.65 39.42 26.81 39.75 27C40.05 27.18 40.33 27.42 40.59 27.66C40.97 28 41.32 28.35 41.69 28.7C42.24 29.21 42.78 29.73 43.35 30.23C43.72 30.55 44.1 30.84 44.5 31.12C44.59 31.18 44.68 31.23 44.77 31.28C44.79 31.29 44.82 31.31 44.85 31.32C44.87 31.2 44.89 31.08 44.89 30.96C44.91 30.5 44.89 30.05 44.87 29.59C44.87 29.6 44.87 29.61 44.87 29.62C44.82 28.94 44.75 28.27 44.7 27.6C44.59 26.31 44.58 25.01 45.31 23.9C45.68 23.35 46.17 22.94 46.74 22.61C47.38 22.24 48.12 22.13 48.85 22.11C49.96 22.09 50.99 22.56 52 23.04C52 23.01 51.99 22.99 51.98 22.95C51.8 22.15 51.59 21.36 51.39 20.57C51.25 20.02 51.12 19.46 50.99 18.91C50.8 18.07 50.76 17.05 51.32 16.33C51.78 15.74 52.54 15.5 53.26 15.52C54.15 15.55 54.81 16.11 55.49 16.62C55.94 16.95 56.36 17.32 56.81 17.67C56.81 17.64 56.81 17.61 56.82 17.58C56.87 16.59 56.9 15.62 57.39 14.73C57.7 14.16 58.28 13.76 58.88 13.54C59.41 13.34 59.97 13.31 60.53 13.33C60.51 12.77 60.46 12.21 60.51 11.65C60.57 10.93 60.86 10.27 61.37 9.76002C61.89 9.24002 62.64 9.07001 63.35 9.06001C63.53 9.06001 63.7 9.07001 63.87 9.10001C63.9 8.51001 63.99 7.94002 64.38 7.48002C64.67 7.15002 64.97 6.84 65.38 6.68C65.77 6.52 66.15 6.46 66.55 6.4C66.78 5.97 67.04 5.59001 67.38 5.22001C67.57 5.02001 67.76 4.82 67.94 4.62C67.94 4.62 67.94 4.61999 67.94 4.60999C68.21 4.16999 68.5 3.79 68.93 3.49C69.19 3.31 69.47 3.18002 69.75 3.04002C69.81 3.00002 69.87 2.97 69.93 2.93C70.7 2.37 71.8 2.49002 72.4 3.26002C72.98 4.01002 72.85 5.17 72.08 5.74C71.76 5.98 71.41 6.14999 71.06 6.32999C71.05 6.32999 71.04 6.34001 71.03 6.35001C70.85 6.64001 70.64 6.91002 70.4 7.17002C70.22 7.37002 70.04 7.56001 69.86 7.75001C69.84 7.78001 69.82 7.79999 69.8 7.82999C69.78 7.85999 69.76 7.89002 69.74 7.92002C69.75 7.90002 69.76 7.89 69.76 7.87C69.78 7.83 69.8 7.80002 69.81 7.76002C69.59 8.21002 69.37 8.62 69.02 8.99C68.79 9.24 68.45 9.48999 68.13 9.60999C67.9 9.69999 67.68 9.78999 67.44 9.82999C67.42 9.82999 67.41 9.83 67.39 9.84C67.36 10.79 67.23 11.79 66.44 12.4C66.22 12.56 66.01 12.69 65.76 12.79C65.42 12.92 65.12 12.93 64.76 12.91C64.52 12.89 64.29 12.85 64.06 12.79C64.08 13.13 64.1 13.47 64.09 13.8C64.08 14.47 63.95 15.1 63.62 15.69C63.33 16.19 62.83 16.6 62.28 16.77C61.65 16.96 61.06 16.9 60.42 16.84C60.41 16.93 60.4 17.01 60.4 17.1C60.36 17.93 60.34 18.8 60.13 19.6C59.97 20.21 59.74 20.8 59.28 21.26C58.87 21.67 58.3 21.94 57.71 21.94C56.7 21.95 55.92 21.35 55.12 20.79C55.35 21.67 55.57 22.55 55.63 23.45C55.65 23.8 55.67 24.16 55.62 24.51C55.57 24.85 55.47 25.16 55.34 25.47C55.08 26.12 54.54 26.65 53.89 26.88C52.34 27.45 50.92 26.32 49.53 25.78C49.37 25.73 49.2 25.68 49.03 25.63C48.98 25.62 48.92 25.61 48.87 25.61C48.82 25.61 48.76 25.61 48.71 25.61C48.67 25.61 48.63 25.62 48.59 25.62C48.57 25.62 48.56 25.63 48.55 25.63C48.52 25.64 48.5 25.65 48.47 25.67C48.45 25.69 48.42 25.7 48.4 25.71C48.38 25.72 48.37 25.73 48.35 25.75C48.34 25.76 48.32 25.78 48.31 25.79C48.3 25.8 48.29 25.81 48.27 25.83C48.26 25.84 48.26 25.85 48.25 25.87C48.25 25.88 48.25 25.89 48.24 25.89C48.24 25.91 48.23 25.92 48.23 25.94C48.22 26 48.21 26.06 48.21 26.12C48.2 26.39 48.21 26.66 48.22 26.92C48.29 27.84 48.38 28.76 48.44 29.68C48.51 30.7 48.51 31.88 48.09 32.83C47.71 33.69 47.06 34.52 46.11 34.78C45.72 34.89 45.34 34.94 44.94 34.92C44.4 34.89 43.9 34.72 43.41 34.49C42.43 34.05 41.59 33.31 40.79 32.6C40.69 32.51 40.59 32.42 40.49 32.33C40.54 32.53 40.59 32.73 40.64 32.94C40.76 33.44 40.9 33.95 41.02 34.45C41.17 35.1 41.33 35.77 41.37 36.43C41.44 37.48 41.35 38.68 40.44 39.38C40.01 39.7 39.56 39.93 39.02 39.97C38.49 40.01 37.95 39.89 37.45 39.69C35.74 39.01 34.25 37.95 32.75 36.9C32.73 36.89 32.72 36.88 32.7 36.87C32.74 37.04 32.77 37.2 32.82 37.37C32.98 37.9 33.13 38.43 33.29 38.97C33.7 40.14 34.12 41.31 34.55 42.47C35.03 43.77 35.45 45.12 35.28 46.51C35.12 47.84 33.94 48.99 32.58 49.01C31.93 49.02 31.32 48.85 30.72 48.59C29.95 48.26 29.23 47.81 28.54 47.34C27.78 46.82 27.07 46.25 26.35 45.68C25.97 45.38 25.6 45.06 25.23 44.73C25.58 45.64 25.93 46.54 26.29 47.44C26.57 48.14 26.84 48.84 27.12 49.54C27.25 49.87 27.38 50.2 27.51 50.53C27.69 51 27.87 51.48 28.03 51.96C28.23 52.53 28.45 53.13 28.54 53.73C28.66 54.52 28.72 55.44 28.19 56.11C27.94 56.42 27.69 56.64 27.35 56.85C27.01 57.06 26.63 57.08 26.24 57.1C25.86 57.12 25.39 56.98 25.05 56.83C24.64 56.65 24.25 56.46 23.86 56.25C23.04 55.8 22.22 55.26 21.51 54.66C20.3 53.64 19.11 52.6 17.92 51.54C17.91 51.53 17.9 51.52 17.89 51.51C17.88 51.51 17.87 51.5 17.87 51.49C17.83 51.45 17.8 51.42 17.76 51.39C17.78 51.41 17.81 51.43 17.83 51.45C17.16 50.87 16.49 50.29 15.8 49.74C15.91 49.97 16.02 50.2 16.12 50.44C16.69 51.67 17.25 52.9 17.81 54.14C18.27 55.16 18.72 56.19 19.19 57.21C19.76 58.41 20.33 59.61 20.91 60.81C21.07 61.1 21.22 61.39 21.37 61.69C21.55 62.05 21.59 62.45 21.6 62.85C21.61 64.06 20.27 65.01 19.14 64.48C18.33 64.1 17.5 63.76 16.67 63.41C14.73 62.59 12.98 61.46 11.31 60.19C10.27 59.4 9.25999 58.57 8.24999 57.74C7.12999 56.83 6.02997 55.88 4.85997 55.03C5.08997 55.52 5.34001 56.01 5.58001 56.49C6.46001 58.19 7.33001 59.88 8.21001 61.58C9.07001 63.24 9.89 64.91 10.82 66.53C11.1 66.76 11.31 67.07 11.42 67.43C11.46 67.56 11.49 67.7 11.49 67.83C11.54 68.47 11.34 69.07 10.82 69.47C10.52 69.71 10.11 69.85 9.71001 69.85C9.48001 69.9 9.24997 69.85 9.03997 69.75Z"
    fill="rgba(191, 192, 191, 1)" />
  <path d="M17.92 51.57C17.92 51.58 17.92 51.58 17.92 51.57V51.57Z" fill="rgba(191, 192, 191, 1)" />
  <path d="M69.74 7.91C69.73 7.93 69.72 7.93999 69.71 7.95999C69.73 7.93999 69.73 7.92 69.74 7.91Z"
    fill="rgba(191, 192, 191, 1)" />
  <path
    d="M12.81 7.00001C12.67 6.01001 13.37 5.18001 14.32 5.00001C17.95 4.32001 21.62 3.73002 25.29 3.39002C29.22 3.02002 33.15 2.69001 37.08 2.28001C39.64 2.01001 42.2 1.73999 44.77 1.60999C47.45 1.46999 50.14 1.35 52.82 1.18C54.73 1.04 56.65 0.859997 58.57 0.769997C59.65 0.719997 60.73 0.660001 61.81 0.650001C62.67 0.640001 63.54 0.67002 64.4 0.70002C65.36 0.74002 66.17 1.48001 66.17 2.47001C66.17 3.41001 65.37 4.28 64.4 4.24C63.42 4.2 62.45 4.17001 61.48 4.19001C60.46 4.20001 59.4299 4.26 58.4099 4.31C56.0299 4.49001 53.65 4.67001 51.27 4.81001C48.91 4.95001 46.56 5.05002 44.21 5.17002C42.23 5.33002 40.25 5.51 38.27 5.71C36.52 5.89 34.77 6.08 33.02 6.24C31.08 6.42 29.14 6.58002 27.21 6.76002C25.21 6.95002 23.23 7.17002 21.24 7.45002C19.08 7.75002 16.93 8.11002 14.79 8.51002C14.7 8.53002 14.6 8.53001 14.51 8.53001C13.68 8.54001 12.92 7.83001 12.81 7.00001Z"
    fill="rgba(191, 192, 191, 1)" />
  <path
    d="M70.92 62.3C69.97 62.17 69.2599 61.26 69.41 60.3C69.42 60.25 69.43 60.19 69.43 60.13C69.43 59.88 69.43 59.62 69.42 59.37C69.35 58.51 69.22 57.66 69.18 56.8C69.14 55.89 69.09 54.96 69.14 54.05C69.25 51.96 69.43 49.88 69.6 47.8C69.76 45.85 69.9 43.9 70.09 41.95C70.26 40.11 70.56 38.28 70.85 36.46C71.21 34.21 71.6 31.96 71.89 29.71C72.04 28.55 72.23 27.39 72.32 26.22C72.42 24.94 72.52 23.65 72.62 22.37C72.67 21.12 72.71 19.86 72.76 18.61C72.81 17.14 72.85 15.67 73.05 14.21C73.21 13.05 73.63 11.74 74.86 11.36C75.79 11.08 76.79 11.68 77.04 12.6C77.21 13.2 77.04 13.8 76.65 14.23C76.63 14.31 76.61 14.39 76.59 14.47C76.49 15.06 76.45 15.65 76.39 16.24C76.25 18.53 76.28 20.83 76.1 23.12C76 24.35 75.91 25.57 75.81 26.79C75.74 27.65 75.6 28.51 75.49 29.36C74.99 33.22 74.28 37.05 73.78 40.91C73.53 42.8 73.38 44.71 73.24 46.62C73.1 48.53 72.93 50.44 72.78 52.35C72.74 53.01 72.69 53.66 72.69 54.31C72.69 55.12 72.7 55.92 72.73 56.72C72.85 58.06 73.12 59.46 72.92 60.79C72.79 61.67 72.03 62.32 71.16 62.32C71.0799 62.32 71 62.31 70.92 62.3Z"
    fill="rgba(191, 192, 191, 1)" />
</svg>