<?xml version="1.0" encoding="UTF-8" standalone="yes"?>
<svg width="88" height="94" viewBox="-40 -40 168 174" fill="none" xmlns="http://www.w3.org/2000/svg">
  <path
    d="M19.34 92.93C18.35 92.23 17.59 91.32 16.82 90.4C16.44 89.94 16.05 89.49 15.67 89.03C15.09 88.42 14.5 87.81 13.89 87.23C13.37 86.73 12.85 86.24 12.34 85.74C11.46 84.88 10.68 83.91 9.96001 82.9C9.35001 82.04 8.79002 81.15 8.16002 80.31C7.60002 79.56 7.02003 78.85 6.42003 78.13C5.77003 77.42 5.12002 76.7 4.44002 76.01C3.72002 75.28 2.96002 74.58 2.28002 73.81C1.51002 72.95 0.540033 71.89 0.890033 70.63C1.09003 69.9 1.75002 69.31 2.50002 69.23C2.65002 69.21 2.80002 69.22 2.94002 69.23C3.25002 68.92 3.55002 68.6 3.85002 68.28C4.19002 67.94 4.64002 67.77 5.10002 67.77C5.14002 67.73 5.18002 67.7 5.22002 67.66C5.62002 67.3 6.02003 66.94 6.42003 66.58C7.05003 66.02 7.65003 65.42 8.26003 64.84C9.64003 63.5 11.03 62.16 12.42 60.83C15.28 58.11 18.13 55.38 20.98 52.66C23.73 50.04 26.51 47.46 29.3 44.88C32.3 42.11 35.3 39.35 38.18 36.47C39.37 35.28 40.49 34.02 41.63 32.78C42.72 31.54 43.83 30.3 44.81 28.95C44.92 28.77 45.03 28.6 45.13 28.42C44.42 28.01 43.68 27.65 42.96 27.27C42.13 26.84 41.3 26.42 40.48 25.97C38.73 25 37.01 23.98 35.31 22.92C33.69 21.92 32.14 20.8 30.61 19.67C29.88 19.13 29.17 18.56 28.47 17.98C27.75 17.38 27.03 16.75 26.44 16.01C26.05 15.51 25.76 14.96 25.8 14.31C25.85 13.59 26.23 12.99 26.85 12.62C27.73 12.11 28.87 12.16 29.86 12.11C30.4 12.07 30.93 12.03 31.47 11.99C32.11 11.94 32.75 11.81 33.38 11.72C34.4 11.58 35.41 11.35 36.42 11.14C44.06 9.39 51.73 7.69001 59.33 5.77001C63.02 4.84001 66.68 3.83999 70.36 2.87999C72.15 2.41999 73.91 1.87 75.7 1.39C76.25 1.24 76.8 1.09999 77.36 0.999988C77.78 0.919988 78.26 0.900007 78.68 1.02001C79.25 1.19001 79.7 1.47996 80.11 1.90996C80.8 2.63996 81.09 3.75001 81.28 4.71001C81.51 5.85001 81.7 7.00997 81.81 8.16997C82.17 11.96 82.41 15.76 82.78 19.55C83.15 23.39 83.5 27.23 84.04 31.04C84.25 32.54 84.46 34.03 84.71 35.52C84.95 36.93 85.22 38.34 85.5 39.74C85.84 41.26 86.18 42.79 86.54 44.31C86.73 45.08 86.92 45.85 87.11 46.63C87.2 46.99 87.29 47.34 87.38 47.7C87.49 48.15 87.64 48.62 87.63 49.09C87.63 49.64 87.38 50.16 86.94 50.49C86.42 50.89 85.78 50.94 85.17 50.72C84.71 50.56 84.35 50.2 83.99 49.9C83.72 49.68 83.43 49.47 83.15 49.26C82.25 48.66 81.34 48.09 80.39 47.58C79.3 46.98 78.18 46.42 77.07 45.86C76.07 45.35 75.08 44.82 74.12 44.23C73.07 43.58 72.06 42.86 70.98 42.27C70.93 42.24 70.87 42.22 70.81 42.19C70.81 42.19 70.8 42.2 70.8 42.21C70.51 42.65 70.21 43.09 69.92 43.53C69.41 44.29 68.85 45.04 68.28 45.75C67.06 47.27 65.82 48.76 64.55 50.24C62.01 53.19 59.51 56.18 56.85 59.02C54.21 61.84 51.51 64.6 48.85 67.4C46.22 70.16 43.55 72.88 40.85 75.57C38.08 78.32 35.33 81.07 32.57 83.82C31.24 85.15 29.86 86.43 28.53 87.76C27.18 89.11 25.89 90.51 24.5 91.83C24.02 92.29 23.5 92.73 22.94 93.1C22.46 93.42 21.94 93.69 21.35 93.69C20.62 93.65 19.93 93.35 19.34 92.93ZM5.89003 71.28C5.75003 71.42 5.60001 71.57 5.46001 71.72C5.41001 71.77 5.36003 71.82 5.32003 71.87C5.78003 72.35 6.26003 72.81 6.73003 73.28C7.51003 74.08 8.27001 74.9 9.02001 75.73C9.78001 76.57 10.46 77.46 11.13 78.36C11.44 78.77 11.72 79.2 12.01 79.63C12.67 80.6 13.35 81.55 14.11 82.45C14.83 83.25 15.62 83.99 16.4 84.73C16.9 85.2 17.38 85.69 17.85 86.18C18.69 87.07 19.45 88.03 20.23 88.97C20.46 89.22 20.7 89.47 20.95 89.7C21.05 89.78 21.15 89.86 21.24 89.93C21.38 89.82 21.51 89.72 21.65 89.61C22.94 88.45 24.08 87.17 25.31 85.95C26.71 84.55 28.13 83.18 29.55 81.8C30.83 80.55 32.07 79.28 33.34 78.02C34.74 76.62 36.15 75.23 37.55 73.84C40.26 71.16 42.94 68.46 45.57 65.7C48.24 62.9 50.95 60.13 53.6 57.31C54.59 56.26 55.56 55.19 56.53 54.12C56.48 54.18 56.43 54.23 56.38 54.29C58.24 52.17 60.07 50.02 61.91 47.89C62.72 46.95 63.53 46.01 64.31 45.05C64.76 44.49 65.24 43.94 65.67 43.35C66.11 42.76 66.54 42.17 66.98 41.58C67.23 41.21 67.47 40.85 67.71 40.48C67.96 40.1 68.18 39.69 68.41 39.3C68.79 38.66 69.47 38.27 70.22 38.3C70.73 38.32 71.22 38.48 71.68 38.68C73.44 39.43 74.92 40.63 76.57 41.56C78.21 42.49 79.91 43.29 81.55 44.18C82.06 44.46 82.57 44.75 83.07 45.04C82.99 44.7 82.91 44.37 82.83 44.03C82.36 41.99 81.93 39.95 81.52 37.9C81.15 36.04 80.9 34.15 80.63 32.26C80.39 30.54 80.17 28.81 79.99 27.08C79.63 23.69 79.29 20.29 79 16.88C78.86 15.23 78.74 13.58 78.61 11.92C78.45 9.74997 78.24 7.54996 77.82 5.40996C77.76 5.14996 77.7 4.90001 77.62 4.65001C77.61 4.63001 77.6 4.61 77.59 4.58C75.8 5 74.05 5.57998 72.29 6.04998C70.5 6.52998 68.71 6.99001 66.93 7.46001C63.09 8.48001 59.25 9.48001 55.4 10.4C51.55 11.32 47.69 12.19 43.83 13.08C41.99 13.5 40.16 13.93 38.32 14.35C37.38 14.56 36.44 14.76 35.5 14.94C34.54 15.13 33.58 15.28 32.6 15.42C32.11 15.49 31.62 15.54 31.13 15.58C32.5 16.69 33.92 17.72 35.36 18.73C36.96 19.78 38.57 20.79 40.21 21.76C41.83 22.72 43.51 23.57 45.18 24.44C45.53 24.62 45.88 24.81 46.22 24.99C46.95 25.38 47.7 25.75 48.29 26.35C48.95 27.01 49.19 28.04 48.84 28.91C48.6 29.51 48.3 30.09 47.96 30.64C47.34 31.64 46.53 32.55 45.77 33.45C45.22 34.11 44.65 34.75 44.07 35.38C42.73 36.84 41.39 38.29 39.98 39.7C38.66 41.02 37.31 42.31 35.94 43.58C33.1 46.21 30.23 48.82 27.41 51.47C24.59 54.12 21.8 56.79 19 59.46C16.13 62.19 13.29 64.96 10.41 67.69C9.90002 68.17 9.39001 68.67 8.87001 69.15C8.31001 69.65 7.71002 70.13 7.19002 70.68C7.22002 70.64 7.25002 70.61 7.28002 70.57C7.29002 70.55 7.30002 70.54 7.31002 70.52C6.97002 70.99 6.44003 71.27 5.89003 71.28Z"
    fill="rgba(191, 192, 191, 1)" />
  <path
    d="M17.38 81.33C16.9 80.9 16.66 80.32 16.36 79.77C15.92 78.97 15.44 78.2 14.97 77.41C14.57 76.73 14.25 76.02 13.83 75.36C13.75 75.25 13.66 75.13 13.57 75.02C13.48 74.92 13.38 74.82 13.28 74.73C13 74.5 12.72 74.27 12.42 74.04C11.91 73.65 11.68 73.01 11.76 72.4C11.65 71.9 11.75 71.37 12.09 70.96C12.43 70.55 12.86 70.2 13.26 69.84C13.79 69.37 14.32 68.89 14.85 68.42C15.75 67.61 16.65 66.79 17.55 65.97C19.44 64.27 21.36 62.63 23.27 60.97C23.24 61 23.21 61.02 23.18 61.05C23.22 61.01 23.26 60.98 23.3 60.94C23.32 60.92 23.34 60.91 23.35 60.9C23.35 60.9 23.35 60.9 23.35 60.91C26.19 58.37 29.02 55.82 31.83 53.26C33.23 51.99 34.56 50.63 35.85 49.24C37.1 47.9 38.37 46.6 39.6 45.26C40.87 43.87 42.1 42.45 43.38 41.07C44.74 39.6 46.14 38.15 47.54 36.71C48.86 35.35 50.24 34.05 51.59 32.72C52.86 31.47 54.07 30.16 55.3 28.88C55.74 28.43 56.17 27.98 56.6 27.52C55.94 26.86 55.24 26.23 54.55 25.62C53.26 24.51 52.01 23.36 50.75 22.21C50.38 21.89 50.01 21.59 49.61 21.31C49.32 21.13 49.03 20.95 48.73 20.79C48.39 20.63 48.06 20.46 47.73 20.3C47.25 20.07 46.73 19.85 46.35 19.47C45.81 18.92 45.64 17.99 46.07 17.33C46.3 16.98 46.54 16.73 46.91 16.52C47.26 16.32 47.68 16.21 48.06 16.12C48.51 16.01 48.95 15.9 49.39 15.79C50.43 15.53 51.46 15.24 52.49 14.94C54.22 14.44 55.92 13.83 57.66 13.35C59.55 12.83 61.46 12.38 63.36 11.91C65.17 11.46 66.97 10.95 68.79 10.54C69.13 10.47 69.46 10.39 69.8 10.33C70.06 10.17 70.37 10.08 70.7 10.08C71.55 10.08 72.37 10.74 72.45 11.61C72.46 11.7 72.47 11.78 72.47 11.87C72.47 11.88 72.47 11.88 72.47 11.89C72.47 11.89 72.47 11.88 72.47 11.87C72.47 11.88 72.47 11.89 72.47 11.9C72.52 12.32 72.6 12.72 72.68 13.14C73.11 15.02 73.61 16.89 74.02 18.77C74.45 20.75 74.81 22.75 75.2 24.74C75.64 26.63 76.13 28.5 76.7 30.35C76.84 30.74 77 31.12 77.17 31.5C77.33 31.8 77.49 32.11 77.67 32.41C77.9 32.81 78.15 33.21 78.28 33.65C78.46 34.33 78.22 35.1 77.66 35.52C77.33 35.77 76.95 35.93 76.53 35.93C76.03 35.93 75.58 35.7 75.14 35.48C74.74 35.28 74.35 35.07 73.95 34.86C73.07 34.39 72.2 33.9 71.32 33.42C71.07 33.3 70.83 33.19 70.57 33.08C70.39 33.02 70.21 32.97 70.03 32.92C69.82 32.88 69.62 32.85 69.41 32.83C69.18 32.82 68.95 32.82 68.72 32.83C68.36 32.86 68.01 32.92 67.65 32.98C67.67 32.98 67.69 32.97 67.7 32.97C67.5 33.01 67.31 33.06 67.11 33.11C67.02 33.27 66.93 33.43 66.84 33.59C66.56 34.03 66.26 34.45 65.96 34.88C65.42 35.66 64.82 36.4 64.23 37.14C63.09 38.6 61.88 40.04 60.62 41.4C58.02 44.21 55.29 46.89 52.5 49.5C49.02 52.75 45.5 55.97 41.92 59.12C41.98 59.07 42.03 59.02 42.09 58.97C41.98 59.06 41.88 59.16 41.77 59.26C41.82 59.21 41.88 59.16 41.94 59.11C41.75 59.28 41.56 59.44 41.38 59.61C41.37 59.62 41.36 59.63 41.36 59.63C41.32 59.66 41.29 59.69 41.25 59.72C39.01 61.73 36.8 63.78 34.69 65.93C32.6 68.06 30.45 70.14 28.46 72.38C28.51 72.33 28.56 72.27 28.61 72.21C27.49 73.51 26.41 74.84 25.24 76.09C24.03 77.38 22.77 78.61 21.55 79.89C21 80.47 20.43 81.17 19.74 81.58C19.43 81.76 19.09 81.85 18.76 81.85C18.25 81.85 17.77 81.67 17.38 81.33ZM65.31 15.09C63.53 15.55 61.72 15.92 59.94 16.41C57.99 16.95 56.06 17.54 54.13 18.15C53.46 18.36 52.79 18.57 52.11 18.76C52.49 19.05 52.85 19.35 53.2 19.67C54.09 20.49 54.98 21.31 55.89 22.12C56.57 22.7 57.25 23.28 57.9 23.89C58.26 24.23 58.61 24.57 58.96 24.91C59.43 25.37 59.94 25.83 60.26 26.42C60.49 26.83 60.58 27.36 60.51 27.83C60.45 28.29 60.21 28.7 59.94 29.08C59.65 29.49 59.26 29.87 58.91 30.24C58.24 30.94 57.57 31.64 56.89 32.34C55.65 33.64 54.41 34.93 53.12 36.18C51.7 37.56 50.29 38.96 48.91 40.38C47.56 41.77 46.24 43.18 44.94 44.62C43.69 45.99 42.48 47.39 41.2 48.73C39.95 50.06 38.7 51.4 37.44 52.71C36.06 54.14 34.63 55.5 33.16 56.83C31.16 58.65 29.16 60.46 27.14 62.26C25.01 64.15 22.85 66.01 20.7 67.89C19.69 68.8 18.68 69.71 17.67 70.62C17.22 71.03 16.76 71.44 16.3 71.85C16.14 71.99 15.98 72.12 15.82 72.26C15.98 72.42 16.14 72.58 16.28 72.76C16.77 73.37 17.15 74.03 17.51 74.71C17.88 75.41 18.28 76.09 18.7 76.77C18.82 76.97 18.93 77.16 19.05 77.36C19.53 76.86 20 76.35 20.48 75.87C21.47 74.87 22.44 73.87 23.38 72.82C23.38 72.82 23.38 72.82 23.37 72.83C24.51 71.51 25.62 70.16 26.8 68.88C28.05 67.52 29.37 66.24 30.66 64.93C33.29 62.25 35.97 59.62 38.78 57.14C38.83 57.1 38.88 57.05 38.93 57.01C38.98 56.97 39.03 56.92 39.08 56.88C39.09 56.88 39.09 56.87 39.1 56.87C39.28 56.7 39.48 56.54 39.66 56.37C39.61 56.42 39.55 56.47 39.49 56.52C39.82 56.23 40.16 55.94 40.49 55.64C40.47 55.66 40.46 55.67 40.44 55.68C40.49 55.63 40.55 55.58 40.6 55.54C43.33 53.12 46 50.63 48.69 48.16C51.49 45.59 54.21 42.93 56.86 40.21C57.28 39.78 57.67 39.33 58.08 38.89C60.04 36.66 61.96 34.39 63.65 31.94C63.76 31.77 63.88 31.59 63.99 31.42C64.1 31.24 64.18 31.03 64.3 30.86C64.59 30.43 64.96 30.14 65.42 29.93C65.81 29.76 66.24 29.66 66.66 29.57C67.4 29.41 68.1301 29.31 68.89 29.28C70.12 29.23 71.39 29.53 72.49 30.07C72.65 30.14 72.8 30.22 72.95 30.3C72.79 29.76 72.64 29.21 72.49 28.66C72.19 27.5 71.88 26.33 71.65 25.15C71.41 23.94 71.19 22.73 70.96 21.52C70.64 20.03 70.31 18.55 69.95 17.07C69.74 16.21 69.54 15.36 69.34 14.5C69.31 14.36 69.28 14.21 69.25 14.07C67.95 14.39 66.63 14.75 65.31 15.09Z"
    fill="rgba(191, 192, 191, 1)" />
  <path d="M40.54 55.62C40.53 55.63 40.52 55.64 40.5 55.65C40.51 55.64 40.53 55.63 40.54 55.62Z"
    fill="rgba(191, 192, 191, 1)" />
</svg>