<?xml version="1.0" encoding="UTF-8" standalone="yes"?>
<svg width="77" height="77" viewBox="-40 -40 157 157" fill="none" xmlns="http://www.w3.org/2000/svg">
  <path
    d="M13.81 75.82C13.27 75.41 12.95 74.61 13.19 73.95C13.32 73.58 13.45 73.22 13.61 72.86C13.83 72.37 14.25 72.02 14.73 71.86C15.04 71.4 15.35 70.95 15.66 70.5C17.2 68.19 18.71 65.86 20.22 63.53C20.94 62.42 21.66 61.29 22.41 60.19C22.79 59.62 23.18 59.05 23.57 58.49C23.91 58 24.27 57.51 24.62 57.03C23.16 57.23 21.71 57.52 20.26 57.79C18.46 58.13 16.65 58.45 14.82 58.65C12.81 58.87 10.81 59.07 8.79002 59.15C7.72002 59.19 6.64002 59.25 5.57002 59.29C4.45002 59.33 3.30003 59.41 2.20003 59.16C1.29003 58.95 0.700021 58.02 0.820021 57.11C0.840021 57 0.860007 56.9 0.900007 56.8C1.10001 56.03 1.8 55.45 2.61 55.45C2.99 55.45 3.33001 55.57 3.62001 55.77C5.31001 55.8 7.01002 55.68 8.69002 55.6C9.74002 55.55 10.79 55.47 11.84 55.4C12.81 55.29 13.79 55.19 14.76 55.08C15.63 54.98 16.49 54.82 17.35 54.69C19.17 54.39 20.99 54.04 22.81 53.73C23.71 53.58 24.61 53.45 25.51 53.34C26.57 53.22 27.67 53.13 28.56 53.82C29.34 54.42 29.44 55.51 29.17 56.39C29.02 56.87 28.71 57.3 28.44 57.72C28.13 58.21 27.76 58.67 27.42 59.15C27.13 59.56 26.84 59.97 26.55 60.38C26.06 61.08 25.58 61.79 25.1 62.5C25.12 62.46 25.15 62.43 25.17 62.38C25.13 62.45 25.09 62.51 25.05 62.57C22.48 66.5 19.94 70.46 17.29 74.34C17.09 74.64 16.91 74.95 16.68 75.23C16.39 75.61 16.02 75.85 15.58 76.02C15.35 76.11 15.12 76.15 14.88 76.15C14.5 76.18 14.13 76.06 13.81 75.82Z"
    fill="rgba(191, 192, 191, 1)" />
  <path
    d="M34.56 66.95C33.81 66.63 33.42 65.87 33.49 65.08C33.51 64.88 33.57 64.69 33.63 64.49C33.68 64.33 33.75 64.17 33.84 64.03C34.39 62.32 35.08 60.65 35.73 58.98C36.39 57.27 37.09 55.57 37.75 53.86C39.07 50.45 40.36 47.03 41.63 43.6C41.84 42.98 42.04 42.37 42.19 41.73C42.24 41.42 42.29 41.11 42.32 40.8C42.32 40.74 42.32 40.68 42.32 40.62C42.32 40.65 42.32 40.67 42.32 40.7C42.32 40.69 42.32 40.68 42.32 40.68C42.32 40.66 42.31 40.63 42.31 40.61C42.25 40.59 42.19 40.57 42.12 40.56C41.99 40.54 41.85 40.52 41.72 40.51C41.35 40.49 40.99 40.49 40.63 40.51C39.81 40.57 38.99 40.69 38.18 40.83C37.38 41.01 36.57 41.18 35.76 41.36C34.99 41.53 34.23 41.74 33.47 41.93C31.94 42.32 30.42 42.69 28.89 43.06C28.05 43.27 27.18 43.4 26.33 43.58C25.68 43.71 25.03 43.83 24.37 43.93C23.28 44.09 22.18 44.25 21.08 44.38C19.94 44.5 18.78 44.6 17.64 44.44C17.27 44.39 16.87 44.22 16.58 43.99C16.23 43.72 16.05 43.37 15.92 42.96C15.7 42.28 16.01 41.51 16.55 41.09C16.94 40.78 17.4 40.64 17.89 40.62C18.29 40.6 18.67 40.74 18.97 40.98C19.21 40.98 19.44 40.96 19.68 40.95C21.35 40.83 23.01 40.56 24.67 40.31C25.23 40.23 25.79 40.09 26.34 39.97C26.88 39.86 27.41 39.76 27.96 39.65C29.87 39.18 31.77 38.71 33.67 38.23C34.57 38 35.47 37.8 36.38 37.61C38.16 37.22 39.96 36.9 41.79 36.99C42.79 37.04 43.71 37.27 44.54 37.84C44.93 38.11 45.22 38.56 45.44 38.97C45.71 39.46 45.86 40.08 45.84 40.64C45.8 42.47 45.17 44.18 44.54 45.87C43.87 47.68 43.18 49.47 42.5 51.28C41.62 53.61 40.74 55.94 39.82 58.25C38.91 60.53 38.02 62.81 37.19 65.12C37.03 65.65 36.87 66.18 36.48 66.59C36.15 66.93 35.68 67.1 35.22 67.1C35.01 67.08 34.78 67.04 34.56 66.95Z"
    fill="rgba(191, 192, 191, 1)" />
  <path
    d="M54.39 46.56C54.22 46.01 54.39 45.48 54.53 44.94C54.61 44.62 54.69 44.3 54.76 43.97C54.92 43.34 55.07 42.71 55.22 42.08C55.56 40.66 55.9 39.24 56.23 37.81C56.5 36.66 56.77 35.52 57.05 34.38C57.58 32.29 58.18 30.2 58.62 28.08C58.77 27.32 58.92 26.57 59 25.8C59.01 25.45 59.02 25.1 59.01 24.75C59 24.63 58.99 24.5 58.97 24.38C58.99 24.45 59 24.53 59.02 24.61C59 24.49 58.98 24.37 58.94 24.25C58.93 24.22 58.91 24.19 58.9 24.16C58.89 24.14 58.88 24.12 58.86 24.1C58.77 24.08 58.69 24.07 58.6 24.06C58.6 24.06 58.59 24.06 58.58 24.06C58.6 24.06 58.63 24.06 58.65 24.06C58.59 24.06 58.53 24.06 58.46 24.06C57.91 24.11 57.36 24.18 56.81 24.29C56.07 24.47 55.32 24.63 54.59 24.84C53.79 25.07 52.98 25.3 52.18 25.54C50.44 26.06 48.7 26.55 46.95 27.04C46.03 27.3 45.08 27.47 44.15 27.68C43.25 27.89 42.33 28.03 41.41 28.2C40.58 28.36 39.74 28.5 38.91 28.65C38.41 28.74 37.91 28.85 37.41 28.95C37.18 29.06 36.93 29.12 36.67 29.12C36.56 29.12 36.44 29.12 36.33 29.11C36.15 29.13 35.97 29.14 35.79 29.14C35.09 29.14 34.43 28.7 34.16 28.06C33.89 27.43 34.01 26.59 34.54 26.12C35 25.7 35.52 25.57 36.13 25.57C36.79 25.48 37.45 25.33 38.1 25.21C38.69 25.1 39.27 25 39.85 24.89C40.94 24.7 42.02 24.5 43.1 24.29C44.06 24.07 45.03 23.85 46 23.63C46.97 23.41 47.93 23.09 48.9 22.83C49.83 22.58 50.74 22.28 51.66 22C52.48 21.75 53.3 21.49 54.13 21.29C55.62 20.94 57.1 20.56 58.64 20.53C59.54 20.51 60.65 20.82 61.27 21.5C61.59 21.86 61.89 22.23 62.09 22.67C62.35 23.25 62.47 23.85 62.52 24.49C62.61 25.7 62.45 26.88 62.22 28.07C61.95 29.45 61.61 30.8 61.26 32.17C61 33.22 60.72 34.27 60.46 35.32C60 37.11 59.6 38.91 59.18 40.71C58.97 41.62 58.74 42.54 58.52 43.45C58.31 44.33 58.11 45.23 57.86 46.1C57.85 46.87 57.3 47.59 56.55 47.79C56.39 47.83 56.23 47.85 56.08 47.86C55.32 47.86 54.63 47.33 54.39 46.56Z"
    fill="rgba(191, 192, 191, 1)" />
  <path
    d="M73.78 35.85C73.35 35.79 72.93 35.56 72.62 35.26C72.33 34.97 72.04 34.56 71.96 34.16C71.91 33.93 71.85 33.7 71.85 33.46C71.85 33.22 71.86 32.99 71.88 32.75V32.76C71.88 32.75 71.88 32.74 71.88 32.73C71.88 32.73 71.88 32.74 71.88 32.75C71.88 32.73 71.88 32.72 71.88 32.7C72.09 29.61 72.34 26.54 72.56 23.45C72.71 20.59 72.81 17.73 72.85 14.86C72.87 13.27 72.9 11.68 72.92 10.09C72.95 8.52001 73.01 6.92996 72.92 5.35996C72.9 5.08996 72.86 4.81998 72.81 4.55998C72.79 4.48998 72.77 4.41995 72.76 4.34995C72.75 4.31995 72.74 4.28999 72.72 4.25999C72.59 4.25999 72.45 4.25999 72.32 4.25999C71.78 4.30999 71.27 4.38997 70.74 4.48997C68.98 4.86997 67.26 5.40996 65.54 5.91996C63.59 6.48996 61.65 7.04995 59.69 7.59995C57.81 8.12995 55.93 8.64999 54.05 9.19999C52.33 9.69999 50.64 10.28 48.94 10.87C49.01 10.85 49.09 10.82 49.16 10.8C48.93 10.88 48.7 10.97 48.47 11.05C47.93 11.52 47.15 11.61 46.51 11.3C45.92 11.05 45.53 10.55 45.41 9.9C45.41 9.89 45.41 9.87998 45.41 9.87998C45.29 9.19998 45.68 8.43996 46.27 8.10996C46.49 7.98996 46.7 7.90001 46.93 7.84001C48.77 7.19001 50.63 6.56995 52.49 5.96995C54.35 5.37995 56.23 4.87996 58.11 4.35996C59.88 3.86996 61.65 3.37995 63.42 2.84995C65.29 2.29995 67.16 1.72999 69.05 1.25999C69.77 1.07999 70.5 0.919977 71.23 0.809977C72.34 0.649977 73.56 0.609982 74.56 1.18998C76.37 2.24998 76.51 4.66001 76.49 6.53001C76.47 8.53001 76.44 10.53 76.41 12.52C76.35 16.32 76.31 20.13 76.05 23.93C75.88 26.39 75.69 28.84 75.5 31.29C75.48 31.59 75.46 31.88 75.45 32.18C75.96 32.39 76.39 32.84 76.53 33.37C76.66 33.83 76.59 34.32 76.35 34.73C76.11 35.14 75.73 35.39 75.29 35.54C75.22 35.57 75.15 35.59 75.08 35.61C74.74 35.74 74.38 35.84 74.02 35.84C73.95 35.87 73.87 35.86 73.78 35.85Z"
    fill="rgba(191, 192, 191, 1)" />
</svg>