<svg width="119" height="54" viewBox="0 -5 119 64" fill="none" xmlns="http://www.w3.org/2000/svg">
  <path fill-rule="evenodd" clip-rule="evenodd"
    d="M9.99996 1.66675C5.39579 1.66675 1.66663 5.49024 1.66663 10.2109C1.66663 13.9916 4.05204 17.185 7.36454 18.3171C7.78121 18.3919 7.93746 18.1355 7.93746 17.9112C7.93746 17.7083 7.92704 17.0355 7.92704 16.3199C5.83329 16.7151 5.29163 15.7966 5.12496 15.316C5.03121 15.0703 4.62496 14.312 4.27079 14.1091C3.97913 13.9489 3.56246 13.5537 4.26038 13.5431C4.91663 13.5324 5.38538 14.1625 5.54163 14.4188C6.29163 15.7111 7.48954 15.348 7.96871 15.1237C8.04163 14.5684 8.26038 14.1946 8.49996 13.981C6.64579 13.7674 4.70829 13.0304 4.70829 9.7623C4.70829 8.83312 5.03121 8.06415 5.56246 7.46607C5.47913 7.25246 5.18746 6.37669 5.64579 5.20188C5.64579 5.20188 6.34371 4.97759 7.93746 6.07765C8.60413 5.8854 9.31246 5.78928 10.0208 5.78928C10.7291 5.78928 11.4375 5.8854 12.1041 6.07765C13.6979 4.96691 14.3958 5.20188 14.3958 5.20188C14.8541 6.37669 14.5625 7.25246 14.4791 7.46607C15.0104 8.06415 15.3333 8.82244 15.3333 9.7623C15.3333 13.0411 13.3854 13.7674 11.5312 13.981C11.8333 14.248 12.0937 14.7606 12.0937 15.5616C12.0937 16.7044 12.0833 17.6229 12.0833 17.9112C12.0833 18.1355 12.2395 18.4025 12.6562 18.3171C14.3105 17.7444 15.748 16.6543 16.7664 15.2002C17.7848 13.746 18.3328 12.0011 18.3333 10.2109C18.3333 5.49024 14.6041 1.66675 9.99996 1.66675Z"
    fill="rgba(191, 192, 191, 1)" />
  <path
    d="M3.5625 38.5909C3.0767 38.5909 2.65909 38.5284 2.30966 38.4034C1.96023 38.2812 1.66903 38.1193 1.43608 37.9176C1.20597 37.7188 1.02273 37.5057 0.886364 37.2784L1.6875 36.7159C1.77841 36.8352 1.89347 36.9716 2.03267 37.125C2.17188 37.2812 2.36222 37.4162 2.60369 37.5298C2.84801 37.6463 3.16761 37.7045 3.5625 37.7045C4.09091 37.7045 4.52699 37.5767 4.87074 37.321C5.21449 37.0653 5.38636 36.6648 5.38636 36.1193V34.7898H5.30114C5.22727 34.9091 5.12216 35.0568 4.9858 35.233C4.85227 35.4062 4.65909 35.5611 4.40625 35.6974C4.15625 35.831 3.81818 35.8977 3.39205 35.8977C2.86364 35.8977 2.3892 35.7727 1.96875 35.5227C1.55114 35.2727 1.22017 34.9091 0.975852 34.4318C0.734375 33.9545 0.613636 33.375 0.613636 32.6932C0.613636 32.0227 0.731534 31.4389 0.96733 30.9418C1.20313 30.4418 1.53125 30.0554 1.9517 29.7827C2.37216 29.5071 2.85795 29.3693 3.40909 29.3693C3.83523 29.3693 4.1733 29.4403 4.4233 29.5824C4.67614 29.7216 4.86932 29.8807 5.00284 30.0597C5.1392 30.2358 5.24432 30.3807 5.31818 30.4943H5.42045V29.4545H6.39205V36.1875C6.39205 36.75 6.2642 37.2074 6.00852 37.5597C5.75568 37.9148 5.41477 38.1747 4.9858 38.3395C4.55966 38.5071 4.08523 38.5909 3.5625 38.5909ZM3.52841 34.9943C3.93182 34.9943 4.27273 34.902 4.55114 34.7173C4.82955 34.5327 5.04119 34.267 5.18608 33.9205C5.33097 33.5739 5.40341 33.1591 5.40341 32.6761C5.40341 32.2045 5.33239 31.7884 5.19034 31.4276C5.0483 31.0668 4.83807 30.7841 4.55966 30.5795C4.28125 30.375 3.9375 30.2727 3.52841 30.2727C3.10227 30.2727 2.74716 30.3807 2.46307 30.5966C2.18182 30.8125 1.97017 31.1023 1.82812 31.4659C1.68892 31.8295 1.61932 32.233 1.61932 32.6761C1.61932 33.1307 1.69034 33.5327 1.83239 33.8821C1.97727 34.2287 2.19034 34.5014 2.47159 34.7003C2.75568 34.8963 3.10795 34.9943 3.52841 34.9943ZM8.23295 36V29.4545H9.23864V36H8.23295ZM8.74432 28.3636C8.5483 28.3636 8.37926 28.2969 8.23722 28.1634C8.09801 28.0298 8.02841 27.8693 8.02841 27.6818C8.02841 27.4943 8.09801 27.3338 8.23722 27.2003C8.37926 27.0668 8.5483 27 8.74432 27C8.94034 27 9.10795 27.0668 9.24716 27.2003C9.3892 27.3338 9.46023 27.4943 9.46023 27.6818C9.46023 27.8693 9.3892 28.0298 9.24716 28.1634C9.10795 28.2969 8.94034 28.3636 8.74432 28.3636ZM13.9272 29.4545V30.3068H10.5352V29.4545H13.9272ZM11.5238 27.8864H12.5295V34.125C12.5295 34.4091 12.5707 34.6222 12.6531 34.7642C12.7383 34.9034 12.8462 34.9972 12.9769 35.0455C13.1104 35.0909 13.2511 35.1136 13.3988 35.1136C13.5096 35.1136 13.6005 35.108 13.6715 35.0966C13.7425 35.0824 13.7994 35.071 13.842 35.0625L14.0465 35.9659C13.9783 35.9915 13.8832 36.017 13.761 36.0426C13.6388 36.071 13.484 36.0852 13.2965 36.0852C13.0124 36.0852 12.734 36.0241 12.4613 35.902C12.1914 35.7798 11.967 35.5938 11.788 35.3438C11.6119 35.0938 11.5238 34.7784 11.5238 34.3977V27.8864ZM16.5863 32.0625V36H15.5806V27.2727H16.5863V30.4773H16.6715C16.8249 30.1392 17.055 29.8707 17.3619 29.6719C17.6715 29.4702 18.0835 29.3693 18.5977 29.3693C19.0437 29.3693 19.4343 29.4588 19.7695 29.6378C20.1048 29.8139 20.3647 30.0852 20.5494 30.4517C20.7369 30.8153 20.8306 31.2784 20.8306 31.8409V36H19.8249V31.9091C19.8249 31.3892 19.69 30.9872 19.4201 30.7031C19.1531 30.4162 18.7823 30.2727 18.3079 30.2727C17.9783 30.2727 17.6829 30.3423 17.4215 30.4815C17.163 30.6207 16.9585 30.8239 16.8079 31.0909C16.6602 31.358 16.5863 31.6818 16.5863 32.0625ZM26.7955 33.3239V29.4545H27.8011V36H26.7955V34.892H26.7273C26.5739 35.2244 26.3352 35.5071 26.0114 35.7401C25.6875 35.9702 25.2784 36.0852 24.7841 36.0852C24.375 36.0852 24.0114 35.9957 23.6932 35.8168C23.375 35.6349 23.125 35.3622 22.9432 34.9986C22.7614 34.6321 22.6705 34.1705 22.6705 33.6136V29.4545H23.6761V33.5455C23.6761 34.0227 23.8097 34.4034 24.0767 34.6875C24.3466 34.9716 24.6903 35.1136 25.108 35.1136C25.358 35.1136 25.6122 35.0497 25.8707 34.9219C26.1321 34.794 26.3509 34.598 26.527 34.3338C26.706 34.0696 26.7955 33.733 26.7955 33.3239ZM29.7795 36V27.2727H30.7852V30.4943H30.8704C30.9442 30.3807 31.0465 30.2358 31.1772 30.0597C31.3107 29.8807 31.5011 29.7216 31.7482 29.5824C31.9982 29.4403 32.3363 29.3693 32.7624 29.3693C33.3136 29.3693 33.7994 29.5071 34.2198 29.7827C34.6403 30.0582 34.9684 30.4489 35.2042 30.9545C35.44 31.4602 35.5579 32.0568 35.5579 32.7443C35.5579 33.4375 35.44 34.0384 35.2042 34.5469C34.9684 35.0526 34.6417 35.4446 34.2241 35.723C33.8065 35.9986 33.3249 36.1364 32.7795 36.1364C32.359 36.1364 32.0224 36.0668 31.7695 35.9276C31.5167 35.7855 31.3221 35.625 31.1857 35.446C31.0494 35.2642 30.9442 35.1136 30.8704 34.9943H30.7511V36H29.7795ZM30.7681 32.7273C30.7681 33.2216 30.8406 33.6577 30.9854 34.0355C31.1303 34.4105 31.342 34.7045 31.6204 34.9176C31.8988 35.1278 32.2397 35.233 32.6431 35.233C33.0636 35.233 33.4144 35.1222 33.6957 34.9006C33.9798 34.6761 34.1928 34.375 34.3349 33.9972C34.4798 33.6165 34.5522 33.1932 34.5522 32.7273C34.5522 32.267 34.4812 31.8523 34.3391 31.483C34.1999 31.1108 33.9883 30.8168 33.7042 30.6009C33.4229 30.3821 33.0692 30.2727 32.6431 30.2727C32.234 30.2727 31.8903 30.3764 31.6119 30.5838C31.3335 30.7884 31.1232 31.0753 30.9812 31.4446C30.8391 31.8111 30.7681 32.2386 30.7681 32.7273ZM37.8292 36.0682C37.619 36.0682 37.4386 35.9929 37.288 35.8423C37.1374 35.6918 37.0621 35.5114 37.0621 35.3011C37.0621 35.0909 37.1374 34.9105 37.288 34.7599C37.4386 34.6094 37.619 34.5341 37.8292 34.5341C38.0394 34.5341 38.2198 34.6094 38.3704 34.7599C38.521 34.9105 38.5962 35.0909 38.5962 35.3011C38.5962 35.4403 38.5607 35.5682 38.4897 35.6847C38.4215 35.8011 38.3292 35.8949 38.2127 35.9659C38.0991 36.0341 37.9712 36.0682 37.8292 36.0682ZM43.06 36.1364C42.4464 36.1364 41.918 35.9915 41.4748 35.7017C41.0316 35.4119 40.6907 35.0128 40.4521 34.5043C40.2134 33.9957 40.0941 33.4148 40.0941 32.7614C40.0941 32.0966 40.2163 31.5099 40.4606 31.0014C40.7077 30.4901 41.0515 30.0909 41.4918 29.804C41.935 29.5142 42.4521 29.3693 43.043 29.3693C43.5032 29.3693 43.918 29.4545 44.2873 29.625C44.6566 29.7955 44.9592 30.0341 45.195 30.3409C45.4308 30.6477 45.5771 31.0057 45.6339 31.4148H44.6282C44.5515 31.1165 44.381 30.8523 44.1168 30.6222C43.8555 30.3892 43.5032 30.2727 43.06 30.2727C42.668 30.2727 42.3242 30.375 42.0288 30.5795C41.7362 30.7812 41.5075 31.0668 41.3427 31.4361C41.1808 31.8026 41.0998 32.233 41.0998 32.7273C41.0998 33.233 41.1793 33.6733 41.3384 34.0483C41.5004 34.4233 41.7276 34.7145 42.0202 34.9219C42.3157 35.1293 42.6623 35.233 43.06 35.233C43.3214 35.233 43.5586 35.1875 43.7717 35.0966C43.9847 35.0057 44.1651 34.875 44.3129 34.7045C44.4606 34.5341 44.5657 34.3295 44.6282 34.0909H45.6339C45.5771 34.4773 45.4364 34.8253 45.212 35.1349C44.9904 35.4418 44.6964 35.6861 44.3299 35.8679C43.9663 36.0469 43.543 36.1364 43.06 36.1364ZM49.7631 36.1364C49.1722 36.1364 48.6538 35.9957 48.2077 35.7145C47.7646 35.4332 47.418 35.0398 47.168 34.5341C46.9208 34.0284 46.7972 33.4375 46.7972 32.7614C46.7972 32.0795 46.9208 31.4844 47.168 30.9759C47.418 30.4673 47.7646 30.0724 48.2077 29.7912C48.6538 29.5099 49.1722 29.3693 49.7631 29.3693C50.354 29.3693 50.8711 29.5099 51.3143 29.7912C51.7603 30.0724 52.1069 30.4673 52.354 30.9759C52.604 31.4844 52.729 32.0795 52.729 32.7614C52.729 33.4375 52.604 34.0284 52.354 34.5341C52.1069 35.0398 51.7603 35.4332 51.3143 35.7145C50.8711 35.9957 50.354 36.1364 49.7631 36.1364ZM49.7631 35.233C50.212 35.233 50.5813 35.1179 50.8711 34.8878C51.1609 34.6577 51.3754 34.3551 51.5146 33.9801C51.6538 33.6051 51.7234 33.1989 51.7234 32.7614C51.7234 32.3239 51.6538 31.9162 51.5146 31.5384C51.3754 31.1605 51.1609 30.8551 50.8711 30.6222C50.5813 30.3892 50.212 30.2727 49.7631 30.2727C49.3143 30.2727 48.945 30.3892 48.6552 30.6222C48.3654 30.8551 48.1509 31.1605 48.0117 31.5384C47.8725 31.9162 47.8029 32.3239 47.8029 32.7614C47.8029 33.1989 47.8725 33.6051 48.0117 33.9801C48.1509 34.3551 48.3654 34.6577 48.6552 34.8878C48.945 35.1179 49.3143 35.233 49.7631 35.233ZM54.2642 36V29.4545H55.2358V30.4773H55.321C55.4574 30.1278 55.6776 29.8565 55.9815 29.6634C56.2855 29.4673 56.6506 29.3693 57.0767 29.3693C57.5085 29.3693 57.8679 29.4673 58.1548 29.6634C58.4446 29.8565 58.6705 30.1278 58.8324 30.4773H58.9006C59.0682 30.1392 59.3196 29.8707 59.6548 29.6719C59.9901 29.4702 60.392 29.3693 60.8608 29.3693C61.446 29.3693 61.9247 29.5526 62.2969 29.919C62.669 30.2827 62.8551 30.8494 62.8551 31.6193V36H61.8494V31.6193C61.8494 31.1364 61.7173 30.7912 61.4531 30.5838C61.1889 30.3764 60.8778 30.2727 60.5199 30.2727C60.0597 30.2727 59.7031 30.4119 59.4503 30.6903C59.1974 30.9659 59.071 31.3153 59.071 31.7386V36H58.0483V31.517C58.0483 31.1449 57.9276 30.8452 57.6861 30.6179C57.4446 30.3878 57.1335 30.2727 56.7528 30.2727C56.4915 30.2727 56.2472 30.3423 56.0199 30.4815C55.7955 30.6207 55.6136 30.8139 55.4744 31.0611C55.3381 31.3054 55.2699 31.5881 55.2699 31.9091V36H54.2642ZM67.7791 26.8636L64.9666 37.3125H64.0462L66.8587 26.8636H67.7791ZM69.1076 36V27.2727H74.3746V28.2102H70.1644V31.1591H74.1019V32.0966H70.1644V35.0625H74.4428V36H69.1076ZM76.1431 36V29.4545H77.1147V30.4432H77.1829C77.3022 30.1193 77.5181 29.8565 77.8306 29.6548C78.1431 29.4531 78.4954 29.3523 78.8874 29.3523C78.9613 29.3523 79.0536 29.3537 79.1644 29.3565C79.2752 29.3594 79.359 29.3636 79.4158 29.3693V30.392C79.3817 30.3835 79.3036 30.3707 79.1815 30.3537C79.0621 30.3338 78.9357 30.3239 78.8022 30.3239C78.484 30.3239 78.1999 30.3906 77.9499 30.5241C77.7028 30.6548 77.5067 30.8366 77.3619 31.0696C77.2198 31.2997 77.1488 31.5625 77.1488 31.858V36H76.1431ZM83.0678 36.1364C82.4769 36.1364 81.9585 35.9957 81.5124 35.7145C81.0692 35.4332 80.7227 35.0398 80.4727 34.5341C80.2255 34.0284 80.1019 33.4375 80.1019 32.7614C80.1019 32.0795 80.2255 31.4844 80.4727 30.9759C80.7227 30.4673 81.0692 30.0724 81.5124 29.7912C81.9585 29.5099 82.4769 29.3693 83.0678 29.3693C83.6587 29.3693 84.1758 29.5099 84.619 29.7912C85.065 30.0724 85.4116 30.4673 85.6587 30.9759C85.9087 31.4844 86.0337 32.0795 86.0337 32.7614C86.0337 33.4375 85.9087 34.0284 85.6587 34.5341C85.4116 35.0398 85.065 35.4332 84.619 35.7145C84.1758 35.9957 83.6587 36.1364 83.0678 36.1364ZM83.0678 35.233C83.5167 35.233 83.886 35.1179 84.1758 34.8878C84.4656 34.6577 84.68 34.3551 84.8192 33.9801C84.9585 33.6051 85.0281 33.1989 85.0281 32.7614C85.0281 32.3239 84.9585 31.9162 84.8192 31.5384C84.68 31.1605 84.4656 30.8551 84.1758 30.6222C83.886 30.3892 83.5167 30.2727 83.0678 30.2727C82.619 30.2727 82.2496 30.3892 81.9599 30.6222C81.6701 30.8551 81.4556 31.1605 81.3164 31.5384C81.1772 31.9162 81.1076 32.3239 81.1076 32.7614C81.1076 33.1989 81.1772 33.6051 81.3164 33.9801C81.4556 34.3551 81.6701 34.6577 81.9599 34.8878C82.2496 35.1179 82.619 35.233 83.0678 35.233ZM88.5746 32.0625V36H87.5689V29.4545H88.5405V30.4773H88.6257C88.7791 30.1449 89.0121 29.8778 89.3246 29.6761C89.6371 29.4716 90.0405 29.3693 90.5348 29.3693C90.978 29.3693 91.3658 29.4602 91.6982 29.642C92.0305 29.821 92.2891 30.0938 92.4737 30.4602C92.6584 30.8239 92.7507 31.2841 92.7507 31.8409V36H91.745V31.9091C91.745 31.3949 91.6115 30.9943 91.3445 30.7074C91.0774 30.4176 90.7109 30.2727 90.245 30.2727C89.924 30.2727 89.6371 30.3423 89.3842 30.4815C89.1342 30.6207 88.9368 30.8239 88.7919 31.0909C88.647 31.358 88.5746 31.6818 88.5746 32.0625ZM94.5884 36V29.4545H95.56V30.4432H95.6282C95.7475 30.1193 95.9634 29.8565 96.2759 29.6548C96.5884 29.4531 96.9407 29.3523 97.3327 29.3523C97.4066 29.3523 97.4989 29.3537 97.6097 29.3565C97.7205 29.3594 97.8043 29.3636 97.8612 29.3693V30.392C97.8271 30.3835 97.7489 30.3707 97.6268 30.3537C97.5075 30.3338 97.381 30.3239 97.2475 30.3239C96.9293 30.3239 96.6452 30.3906 96.3952 30.5241C96.1481 30.6548 95.9521 30.8366 95.8072 31.0696C95.6651 31.2997 95.5941 31.5625 95.5941 31.858V36H94.5884ZM101.598 36.1364C100.968 36.1364 100.424 35.9972 99.9663 35.7188C99.5117 35.4375 99.1609 35.0455 98.9137 34.5426C98.6694 34.0369 98.5472 33.4489 98.5472 32.7784C98.5472 32.108 98.6694 31.517 98.9137 31.0057C99.1609 30.4915 99.5046 30.0909 99.945 29.804C100.388 29.5142 100.905 29.3693 101.496 29.3693C101.837 29.3693 102.174 29.4261 102.506 29.5398C102.838 29.6534 103.141 29.8381 103.414 30.0938C103.686 30.3466 103.904 30.6818 104.066 31.0994C104.228 31.517 104.309 32.0312 104.309 32.642V33.0682H99.2631V32.1989H103.286C103.286 31.8295 103.212 31.5 103.064 31.2102C102.919 30.9205 102.712 30.6918 102.442 30.5241C102.175 30.3565 101.86 30.2727 101.496 30.2727C101.096 30.2727 100.749 30.3722 100.456 30.571C100.167 30.767 99.9435 31.0227 99.7873 31.3381C99.631 31.6534 99.5529 31.9915 99.5529 32.3523V32.9318C99.5529 33.4261 99.6381 33.8452 99.8086 34.1889C99.9819 34.5298 100.222 34.7898 100.529 34.9688C100.836 35.1449 101.192 35.233 101.598 35.233C101.863 35.233 102.101 35.196 102.314 35.1222C102.53 35.0455 102.716 34.9318 102.873 34.7812C103.029 34.6278 103.15 34.4375 103.235 34.2102L104.206 34.483C104.104 34.8125 103.932 35.1023 103.691 35.3523C103.449 35.5994 103.151 35.7926 102.796 35.9318C102.441 36.0682 102.042 36.1364 101.598 36.1364ZM108.31 36.1364C107.765 36.1364 107.283 35.9986 106.865 35.723C106.448 35.4446 106.121 35.0526 105.885 34.5469C105.65 34.0384 105.532 33.4375 105.532 32.7443C105.532 32.0568 105.65 31.4602 105.885 30.9545C106.121 30.4489 106.449 30.0582 106.87 29.7827C107.29 29.5071 107.776 29.3693 108.327 29.3693C108.753 29.3693 109.09 29.4403 109.337 29.5824C109.587 29.7216 109.777 29.8807 109.908 30.0597C110.042 30.2358 110.145 30.3807 110.219 30.4943H110.304V27.2727H111.31V36H110.338V34.9943H110.219C110.145 35.1136 110.04 35.2642 109.904 35.446C109.767 35.625 109.573 35.7855 109.32 35.9276C109.067 36.0668 108.73 36.1364 108.31 36.1364ZM108.446 35.233C108.85 35.233 109.191 35.1278 109.469 34.9176C109.748 34.7045 109.959 34.4105 110.104 34.0355C110.249 33.6577 110.321 33.2216 110.321 32.7273C110.321 32.2386 110.25 31.8111 110.108 31.4446C109.966 31.0753 109.756 30.7884 109.478 30.5838C109.199 30.3764 108.855 30.2727 108.446 30.2727C108.02 30.2727 107.665 30.3821 107.381 30.6009C107.1 30.8168 106.888 31.1108 106.746 31.483C106.607 31.8523 106.537 32.267 106.537 32.7273C106.537 33.1932 106.608 33.6165 106.75 33.9972C106.895 34.375 107.108 34.6761 107.39 34.9006C107.674 35.1222 108.026 35.233 108.446 35.233ZM116.377 26.8636L113.564 37.3125H112.644L115.456 26.8636H116.377ZM1.92614 47.0625V51H0.920455V42.2727H1.92614V45.4773H2.01136C2.16477 45.1392 2.39489 44.8707 2.7017 44.6719C3.01136 44.4702 3.4233 44.3693 3.9375 44.3693C4.38352 44.3693 4.77415 44.4588 5.10938 44.6378C5.4446 44.8139 5.70455 45.0852 5.8892 45.4517C6.0767 45.8153 6.17045 46.2784 6.17045 46.8409V51H5.16477V46.9091C5.16477 46.3892 5.02983 45.9872 4.75994 45.7031C4.4929 45.4162 4.12216 45.2727 3.64773 45.2727C3.31818 45.2727 3.02273 45.3423 2.76136 45.4815C2.50284 45.6207 2.2983 45.8239 2.14773 46.0909C2 46.358 1.92614 46.6818 1.92614 47.0625ZM9.93643 51.1534C9.52166 51.1534 9.14524 51.0753 8.80717 50.919C8.46911 50.7599 8.20064 50.5312 8.00178 50.233C7.80291 49.9318 7.70348 49.5682 7.70348 49.142C7.70348 48.767 7.77734 48.4631 7.92507 48.2301C8.0728 47.9943 8.27024 47.8097 8.5174 47.6761C8.76456 47.5426 9.03729 47.4432 9.33558 47.3778C9.63672 47.3097 9.93928 47.2557 10.2433 47.2159C10.641 47.1648 10.9634 47.1264 11.2106 47.1009C11.4606 47.0724 11.6424 47.0256 11.756 46.9602C11.8725 46.8949 11.9308 46.7812 11.9308 46.6193V46.5852C11.9308 46.1648 11.8157 45.8381 11.5856 45.6051C11.3583 45.3722 11.0131 45.2557 10.5501 45.2557C10.07 45.2557 9.69354 45.3608 9.42081 45.571C9.14808 45.7812 8.95632 46.0057 8.84553 46.2443L7.89098 45.9034C8.06143 45.5057 8.28871 45.196 8.5728 44.9744C8.85973 44.75 9.17223 44.5937 9.5103 44.5057C9.85121 44.4148 10.1864 44.3693 10.516 44.3693C10.7262 44.3693 10.9677 44.3949 11.2404 44.446C11.516 44.4943 11.7816 44.5952 12.0373 44.7486C12.2958 44.902 12.5103 45.1335 12.6808 45.4432C12.8512 45.7528 12.9364 46.1676 12.9364 46.6875V51H11.9308V50.1136H11.8796C11.8114 50.2557 11.6978 50.4077 11.5387 50.5696C11.3796 50.7315 11.168 50.8693 10.9038 50.983C10.6396 51.0966 10.3171 51.1534 9.93643 51.1534ZM10.0898 50.25C10.4876 50.25 10.8228 50.1719 11.0955 50.0156C11.3711 49.8594 11.5785 49.6577 11.7177 49.4105C11.8597 49.1634 11.9308 48.9034 11.9308 48.6307V47.7102C11.8881 47.7614 11.7944 47.8082 11.6495 47.8509C11.5075 47.8906 11.3427 47.9261 11.1552 47.9574C10.9705 47.9858 10.7901 48.0114 10.614 48.0341C10.4407 48.054 10.3001 48.071 10.1921 48.0852C9.93075 48.1193 9.68643 48.1747 9.45916 48.2514C9.23473 48.3253 9.05291 48.4375 8.91371 48.5881C8.77734 48.7358 8.70916 48.9375 8.70916 49.1932C8.70916 49.5426 8.83842 49.8068 9.09695 49.9858C9.35831 50.1619 9.68928 50.25 10.0898 50.25ZM15.7777 47.0625V51H14.772V44.4545H15.7436V45.4773H15.8288C15.9822 45.1449 16.2152 44.8778 16.5277 44.6761C16.8402 44.4716 17.2436 44.3693 17.7379 44.3693C18.1811 44.3693 18.5689 44.4602 18.9013 44.642C19.2337 44.821 19.4922 45.0938 19.6768 45.4602C19.8615 45.8239 19.9538 46.2841 19.9538 46.8409V51H18.9482V46.9091C18.9482 46.3949 18.8146 45.9943 18.5476 45.7074C18.2805 45.4176 17.9141 45.2727 17.4482 45.2727C17.1271 45.2727 16.8402 45.3423 16.5874 45.4815C16.3374 45.6207 16.1399 45.8239 15.995 46.0909C15.8501 46.358 15.7777 46.6818 15.7777 47.0625ZM24.2631 51.1364C23.7177 51.1364 23.2362 50.9986 22.8185 50.723C22.4009 50.4446 22.0742 50.0526 21.8384 49.5469C21.6026 49.0384 21.4847 48.4375 21.4847 47.7443C21.4847 47.0568 21.6026 46.4602 21.8384 45.9545C22.0742 45.4489 22.4023 45.0582 22.8228 44.7827C23.2433 44.5071 23.729 44.3693 24.2802 44.3693C24.7063 44.3693 25.043 44.4403 25.2901 44.5824C25.5401 44.7216 25.7305 44.8807 25.8612 45.0597C25.9947 45.2358 26.0984 45.3807 26.1722 45.4943H26.2575V42.2727H27.2631V51H26.2915V49.9943H26.1722C26.0984 50.1136 25.9933 50.2642 25.8569 50.446C25.7205 50.625 25.5259 50.7855 25.2731 50.9276C25.0202 51.0668 24.6836 51.1364 24.2631 51.1364ZM24.3995 50.233C24.8029 50.233 25.1438 50.1278 25.4222 49.9176C25.7006 49.7045 25.9123 49.4105 26.0572 49.0355C26.2021 48.6577 26.2745 48.2216 26.2745 47.7273C26.2745 47.2386 26.2035 46.8111 26.0614 46.4446C25.9194 46.0753 25.7092 45.7884 25.4308 45.5838C25.1523 45.3764 24.8086 45.2727 24.3995 45.2727C23.9734 45.2727 23.6183 45.3821 23.3342 45.6009C23.0529 45.8168 22.8413 46.1108 22.6992 46.483C22.56 46.8523 22.4904 47.267 22.4904 47.7273C22.4904 48.1932 22.5614 48.6165 22.7035 48.9972C22.8484 49.375 23.0614 49.6761 23.3427 49.9006C23.6268 50.1222 23.979 50.233 24.3995 50.233ZM29.8924 53.4545C29.7219 53.4545 29.57 53.4403 29.4364 53.4119C29.3029 53.3864 29.2106 53.3608 29.1594 53.3352L29.4151 52.4489C29.6594 52.5114 29.8754 52.5341 30.0629 52.517C30.2504 52.5 30.4165 52.4162 30.5614 52.2656C30.7092 52.1179 30.8441 51.8778 30.9663 51.5455L31.1538 51.0341L28.7333 44.4545H29.8242L31.631 49.6705H31.6992L33.506 44.4545H34.5969L31.8185 51.9545C31.6935 52.2926 31.5387 52.5724 31.354 52.794C31.1694 53.0185 30.9549 53.1847 30.7106 53.2926C30.4691 53.4006 30.1964 53.4545 29.8924 53.4545ZM39.6744 46.7898V47.7273H35.8562V46.7898H39.6744ZM43.37 51.1534C42.9553 51.1534 42.5788 51.0753 42.2408 50.919C41.9027 50.7599 41.6342 50.5312 41.4354 50.233C41.2365 49.9318 41.1371 49.5682 41.1371 49.142C41.1371 48.767 41.2109 48.4631 41.3587 48.2301C41.5064 47.9943 41.7038 47.8097 41.951 47.6761C42.1982 47.5426 42.4709 47.4432 42.7692 47.3778C43.0703 47.3097 43.3729 47.2557 43.6768 47.2159C44.0746 47.1648 44.397 47.1264 44.6442 47.1009C44.8942 47.0724 45.076 47.0256 45.1896 46.9602C45.3061 46.8949 45.3643 46.7812 45.3643 46.6193V46.5852C45.3643 46.1648 45.2493 45.8381 45.0192 45.6051C44.7919 45.3722 44.4467 45.2557 43.9837 45.2557C43.5036 45.2557 43.1271 45.3608 42.8544 45.571C42.5817 45.7812 42.3899 46.0057 42.2791 46.2443L41.3246 45.9034C41.495 45.5057 41.7223 45.196 42.0064 44.9744C42.2933 44.75 42.6058 44.5937 42.9439 44.5057C43.2848 44.4148 43.62 44.3693 43.9496 44.3693C44.1598 44.3693 44.4013 44.3949 44.674 44.446C44.9496 44.4943 45.2152 44.5952 45.4709 44.7486C45.7294 44.902 45.9439 45.1335 46.1143 45.4432C46.2848 45.7528 46.37 46.1676 46.37 46.6875V51H45.3643V50.1136H45.3132C45.245 50.2557 45.1314 50.4077 44.9723 50.5696C44.8132 50.7315 44.6016 50.8693 44.3374 50.983C44.0732 51.0966 43.7507 51.1534 43.37 51.1534ZM43.5234 50.25C43.9212 50.25 44.2564 50.1719 44.5291 50.0156C44.8047 49.8594 45.0121 49.6577 45.1513 49.4105C45.2933 49.1634 45.3643 48.9034 45.3643 48.6307V47.7102C45.3217 47.7614 45.228 47.8082 45.0831 47.8509C44.9411 47.8906 44.7763 47.9261 44.5888 47.9574C44.4041 47.9858 44.2237 48.0114 44.0476 48.0341C43.8743 48.054 43.7337 48.071 43.6257 48.0852C43.3643 48.1193 43.12 48.1747 42.8928 48.2514C42.6683 48.3253 42.4865 48.4375 42.3473 48.5881C42.2109 48.7358 42.1428 48.9375 42.1428 49.1932C42.1428 49.5426 42.272 49.8068 42.5305 49.9858C42.7919 50.1619 43.1229 50.25 43.5234 50.25ZM48.2056 51V44.4545H49.1772V45.4432H49.2454C49.3647 45.1193 49.5806 44.8565 49.8931 44.6548C50.2056 44.4531 50.5579 44.3523 50.9499 44.3523C51.0238 44.3523 51.1161 44.3537 51.2269 44.3565C51.3377 44.3594 51.4215 44.3636 51.4783 44.3693V45.392C51.4442 45.3835 51.3661 45.3707 51.244 45.3537C51.1246 45.3338 50.9982 45.3239 50.8647 45.3239C50.5465 45.3239 50.2624 45.3906 50.0124 45.5241C49.7653 45.6548 49.5692 45.8366 49.4244 46.0696C49.2823 46.2997 49.2113 46.5625 49.2113 46.858V51H48.2056ZM52.6705 51V44.4545H53.642V45.4432H53.7102C53.8295 45.1193 54.0455 44.8565 54.358 44.6548C54.6705 44.4531 55.0227 44.3523 55.4148 44.3523C55.4886 44.3523 55.581 44.3537 55.6918 44.3565C55.8026 44.3594 55.8864 44.3636 55.9432 44.3693V45.392C55.9091 45.3835 55.831 45.3707 55.7088 45.3537C55.5895 45.3338 55.4631 45.3239 55.3295 45.3239C55.0114 45.3239 54.7273 45.3906 54.4773 45.5241C54.2301 45.6548 54.0341 45.8366 53.8892 46.0696C53.7472 46.2997 53.6761 46.5625 53.6761 46.858V51H52.6705ZM59.5952 51.1364C59.0043 51.1364 58.4858 50.9957 58.0398 50.7145C57.5966 50.4332 57.25 50.0398 57 49.5341C56.7528 49.0284 56.6293 48.4375 56.6293 47.7614C56.6293 47.0795 56.7528 46.4844 57 45.9759C57.25 45.4673 57.5966 45.0724 58.0398 44.7912C58.4858 44.5099 59.0043 44.3693 59.5952 44.3693C60.1861 44.3693 60.7031 44.5099 61.1463 44.7912C61.5923 45.0724 61.9389 45.4673 62.1861 45.9759C62.4361 46.4844 62.5611 47.0795 62.5611 47.7614C62.5611 48.4375 62.4361 49.0284 62.1861 49.5341C61.9389 50.0398 61.5923 50.4332 61.1463 50.7145C60.7031 50.9957 60.1861 51.1364 59.5952 51.1364ZM59.5952 50.233C60.044 50.233 60.4134 50.1179 60.7031 49.8878C60.9929 49.6577 61.2074 49.3551 61.3466 48.9801C61.4858 48.6051 61.5554 48.1989 61.5554 47.7614C61.5554 47.3239 61.4858 46.9162 61.3466 46.5384C61.2074 46.1605 60.9929 45.8551 60.7031 45.6222C60.4134 45.3892 60.044 45.2727 59.5952 45.2727C59.1463 45.2727 58.777 45.3892 58.4872 45.6222C58.1974 45.8551 57.983 46.1605 57.8438 46.5384C57.7045 46.9162 57.6349 47.3239 57.6349 47.7614C57.6349 48.1989 57.7045 48.6051 57.8438 48.9801C57.983 49.3551 58.1974 49.6577 58.4872 49.8878C58.777 50.1179 59.1463 50.233 59.5952 50.233ZM65.3565 51L63.3622 44.4545H64.419L65.8338 49.4659H65.902L67.2997 44.4545H68.3736L69.7543 49.4489H69.8224L71.2372 44.4545H72.294L70.2997 51H69.3111L67.8793 45.9716H67.777L66.3452 51H65.3565ZM78.2599 45.9205L77.3565 46.1761C77.2997 46.0256 77.2159 45.8793 77.1051 45.7372C76.9972 45.5923 76.8494 45.473 76.6619 45.3793C76.4744 45.2855 76.2344 45.2386 75.9418 45.2386C75.5412 45.2386 75.2074 45.331 74.9403 45.5156C74.6761 45.6974 74.544 45.929 74.544 46.2102C74.544 46.4602 74.6349 46.6577 74.8168 46.8026C74.9986 46.9474 75.2827 47.0682 75.669 47.1648L76.6406 47.4034C77.2259 47.5455 77.6619 47.7628 77.9489 48.0554C78.2358 48.3452 78.3793 48.7187 78.3793 49.1761C78.3793 49.5511 78.2713 49.8864 78.0554 50.1818C77.8423 50.4773 77.544 50.7102 77.1605 50.8807C76.777 51.0511 76.331 51.1364 75.8224 51.1364C75.1548 51.1364 74.6023 50.9915 74.1648 50.7017C73.7273 50.4119 73.4503 49.9886 73.3338 49.4318L74.2884 49.1932C74.3793 49.5455 74.5511 49.8097 74.804 49.9858C75.0597 50.1619 75.3935 50.25 75.8054 50.25C76.2741 50.25 76.6463 50.1506 76.9219 49.9517C77.2003 49.75 77.3395 49.5085 77.3395 49.2273C77.3395 49 77.2599 48.8097 77.1009 48.6562C76.9418 48.5 76.6974 48.3835 76.3679 48.3068L75.277 48.0511C74.6776 47.9091 74.2372 47.6889 73.956 47.3906C73.6776 47.0895 73.5384 46.7131 73.5384 46.2614C73.5384 45.892 73.642 45.5653 73.8494 45.2812C74.0597 44.9972 74.3452 44.7741 74.706 44.6122C75.0696 44.4503 75.4815 44.3693 75.9418 44.3693C76.5895 44.3693 77.098 44.5114 77.4673 44.7955C77.8395 45.0795 78.1037 45.4545 78.2599 45.9205Z"
    fill="rgba(191, 192, 191, 1)" />
</svg>