<svg width="24" height="24" viewBox="0 0 24 24" fill="none" xmlns="http://www.w3.org/2000/svg">
    <path fill-rule="evenodd" clip-rule="evenodd" d="M10 4.19999L21 4.19999L21 5.79999L10 5.79999L10 4.19999Z" fill="#98ACBD"/>
    <path fill-rule="evenodd" clip-rule="evenodd" d="M10 18.2L21 18.2L21 19.8L10 19.8L10 18.2Z" fill="#98ACBD"/>
    <path fill-rule="evenodd" clip-rule="evenodd" d="M10 11.2L21 11.2L21 12.8L10 12.8L10 11.2Z" fill="#98ACBD"/>
    <path fill-rule="evenodd" clip-rule="evenodd" d="M7.57574 2.77576L8.42426 3.62428L5 7.04855L3.07574 5.12428L3.92426 4.27576L5 5.35149L7.57574 2.77576Z" fill="#98ACBD"/>
    <path fill-rule="evenodd" clip-rule="evenodd" d="M7.57574 16.7758L8.42426 17.6243L5 21.0485L3.07574 19.1243L3.92426 18.2758L5 19.3515L7.57574 16.7758Z" fill="#98ACBD"/>
    <path fill-rule="evenodd" clip-rule="evenodd" d="M7.57574 9.77576L8.42426 10.6243L5 14.0485L3.07574 12.1243L3.92426 11.2758L5 12.3515L7.57574 9.77576Z" fill="#98ACBD"/>
</svg>
