<svg width="135" height="80" viewBox="0 0 135 80" fill="none" xmlns="http://www.w3.org/2000/svg">
<rect width="135" height="80" fill="white"/>
<rect x="8" y="31" width="19" height="12" rx="0.728829" fill="#F16F6F"/>
<rect x="51" y="7" width="16" height="16" rx="0.728829" fill="#9DD194"/>
<path d="M81.1768 15.1768C81.2744 15.0791 81.2744 14.9209 81.1768 14.8232L79.5858 13.2322C79.4882 13.1346 79.3299 13.1346 79.2322 13.2322C79.1346 13.3299 79.1346 13.4882 79.2322 13.5858L80.6464 15L79.2322 16.4142C79.1346 16.5118 79.1346 16.6701 79.2322 16.7678C79.3299 16.8654 79.4882 16.8654 79.5858 16.7678L81.1768 15.1768ZM67 15.25H81V14.75H67V15.25Z" fill="#7CC270"/>
<path d="M107.177 65.1768C107.274 65.0791 107.274 64.9209 107.177 64.8232L105.586 63.2322C105.488 63.1346 105.33 63.1346 105.232 63.2322C105.135 63.3299 105.135 63.4882 105.232 63.5858L106.646 65L105.232 66.4142C105.135 66.5118 105.135 66.6701 105.232 66.7678C105.33 66.8654 105.488 66.8654 105.586 66.7678L107.177 65.1768ZM93 65.25H107V64.75H93V65.25Z" fill="#FFD338"/>
<rect x="81" y="9" width="12" height="12" rx="0.728829" fill="#9DD194"/>
<rect x="112" y="19" width="12" height="12" rx="0.728829" fill="#ED8CBD"/>
<rect x="112" y="37" width="12" height="12" rx="0.728829" fill="#ED8CBD"/>
<rect x="81" y="59" width="12" height="12" rx="0.728829" fill="#FFDE6B"/>
<rect x="51" y="51" width="16" height="16" rx="0.728829" fill="#FFDE6B"/>
<rect x="81" y="31" width="12" height="12" rx="0.728829" fill="#ED8CBD"/>
<rect x="107" y="59" width="12" height="12" rx="0.728829" fill="#FFDE6B"/>
<path d="M51.1768 15.1769C51.2744 15.0792 51.2744 14.9209 51.1768 14.8233L49.5859 13.2322C49.4882 13.1346 49.3299 13.1346 49.2323 13.2322C49.1347 13.3299 49.1347 13.4882 49.2323 13.5858L50.6464 15.0001L49.2322 16.4142C49.1345 16.5118 49.1345 16.6701 49.2322 16.7678C49.3298 16.8654 49.4881 16.8654 49.5857 16.7678L51.1768 15.1769ZM27 37.25C29.6064 37.25 31.4984 35.8069 33.0346 33.7103C34.565 31.6215 35.7728 28.8425 37.004 26.1025C38.242 23.3473 39.505 20.6278 41.1503 18.5948C42.788 16.5711 44.786 15.25 47.5 15.25V14.75C44.5907 14.75 42.4623 16.1789 40.7616 18.2802C39.0686 20.3722 37.7813 23.1527 36.5479 25.8975C35.3077 28.6575 34.1232 31.3785 32.6313 33.4147C31.1451 35.4431 29.3848 36.75 27 36.75V37.25ZM47.5 15.25C48.3245 15.25 49.1995 15.25 49.8683 15.25C50.2028 15.25 50.4857 15.2501 50.685 15.2501C50.7846 15.2501 50.8634 15.2501 50.9172 15.2501C50.9442 15.2501 50.9648 15.2501 50.9788 15.2501C50.9858 15.2501 50.9911 15.2501 50.9946 15.2501C50.9964 15.2501 50.9977 15.2501 50.9986 15.2501C50.9991 15.2501 50.9994 15.2501 50.9997 15.2501C50.9998 15.2501 50.9998 15.2501 50.9999 15.2501C50.9999 15.2501 51 15.2501 51 15.2501C51 15.2501 51 15.2501 51 15.0001C51 14.7501 51 14.7501 51 14.7501C51 14.7501 51 14.7501 50.9999 14.7501C50.9999 14.7501 50.9998 14.7501 50.9997 14.7501C50.9994 14.7501 50.9991 14.7501 50.9987 14.7501C50.9978 14.7501 50.9964 14.7501 50.9946 14.7501C50.9911 14.7501 50.9858 14.7501 50.9788 14.7501C50.9649 14.7501 50.9442 14.7501 50.9173 14.7501C50.8634 14.7501 50.7847 14.7501 50.685 14.7501C50.4857 14.7501 50.2028 14.75 49.8684 14.75C49.1995 14.75 48.3245 14.75 47.5 14.75V15.25Z" fill="#ED3F3F"/>
<path d="M81.1768 37.1769C81.2744 37.0792 81.2744 36.9209 81.1768 36.8233L79.5859 35.2322C79.4883 35.1346 79.33 35.1346 79.2324 35.2322C79.1347 35.3298 79.1347 35.4881 79.2323 35.5857L80.6464 37L79.2321 38.4142C79.1345 38.5118 79.1345 38.6701 79.2321 38.7677C79.3297 38.8654 79.488 38.8654 79.5857 38.7677L81.1768 37.1769ZM67 59.25C67.8169 59.25 68.5092 58.861 69.0998 58.2248C69.6868 57.5926 70.187 56.703 70.6324 55.6608C71.523 53.5771 72.2258 50.8052 72.9445 48.0634C73.6667 45.308 74.4051 42.5818 75.3671 40.5442C76.3381 38.4874 77.4807 37.25 78.9583 37.25V36.75C77.1556 36.75 75.8913 38.2626 74.9149 40.3308C73.9295 42.4182 73.1802 45.192 72.4608 47.9366C71.7378 50.6948 71.0451 53.4229 70.1727 55.4642C69.7366 56.4845 69.2634 57.3137 68.7334 57.8846C68.2071 58.4515 67.6389 58.75 67 58.75V59.25ZM78.9583 37.25C79.4393 37.25 79.9497 37.25 80.3399 37.25C80.535 37.25 80.7 37.2501 80.8162 37.2501C80.8744 37.2501 80.9203 37.2501 80.9517 37.2501C80.9674 37.2501 80.9795 37.2501 80.9876 37.2501C80.9917 37.2501 80.9948 37.2501 80.9969 37.2501C80.9979 37.2501 80.9987 37.2501 80.9992 37.2501C80.9995 37.2501 80.9997 37.2501 80.9998 37.2501C80.9999 37.2501 80.9999 37.2501 80.9999 37.2501C81 37.2501 81 37.2501 81 37.2501C81 37.2501 81 37.2501 81 37.0001C81 36.7501 81 36.7501 81 36.7501C81 36.7501 81 36.7501 81 36.7501C80.9999 36.7501 80.9999 36.7501 80.9998 36.7501C80.9997 36.7501 80.9995 36.7501 80.9992 36.7501C80.9987 36.7501 80.9979 36.7501 80.9969 36.7501C80.9948 36.7501 80.9917 36.7501 80.9877 36.7501C80.9795 36.7501 80.9674 36.7501 80.9517 36.7501C80.9203 36.7501 80.8744 36.7501 80.8163 36.7501C80.7 36.7501 80.535 36.75 80.3399 36.75C79.9497 36.75 79.4393 36.75 78.9583 36.75V37.25Z" fill="#FFD338"/>
<path d="M112.177 25.1768C112.274 25.0792 112.274 24.9209 112.177 24.8233L110.586 23.2322C110.488 23.1346 110.33 23.1346 110.232 23.2322C110.135 23.3299 110.135 23.4881 110.232 23.5858L111.646 25L110.232 26.4142C110.135 26.5118 110.135 26.6701 110.232 26.7678C110.33 26.8654 110.488 26.8654 110.586 26.7678L112.177 25.1768ZM93 37.25C97.1095 37.25 99.0116 34.1068 100.949 31.1366C102.91 28.1288 104.925 25.25 109.229 25.25V24.75C104.629 24.75 102.481 27.8712 100.53 30.8634C98.554 33.8932 96.7933 36.75 93 36.75V37.25ZM109.229 25.25C109.882 25.25 110.575 25.25 111.104 25.25C111.369 25.25 111.593 25.25 111.751 25.25C111.83 25.25 111.892 25.25 111.934 25.25C111.956 25.25 111.972 25.25 111.983 25.25C111.989 25.25 111.993 25.25 111.996 25.25C111.997 25.25 111.998 25.25 111.999 25.25C111.999 25.25 112 25.25 112 25.25C112 25.25 112 25.25 112 25.25C112 25.25 112 25.25 112 25.25C112 25.25 112 25.25 112 25C112 24.75 112 24.75 112 24.75C112 24.75 112 24.75 112 24.75C112 24.75 112 24.75 112 24.75C112 24.75 111.999 24.75 111.999 24.75C111.998 24.75 111.997 24.75 111.996 24.75C111.993 24.75 111.989 24.75 111.983 24.75C111.972 24.75 111.956 24.75 111.934 24.75C111.892 24.75 111.83 24.75 111.751 24.75C111.593 24.75 111.369 24.75 111.104 24.75C110.575 24.75 109.882 24.75 109.229 24.75V25.25Z" fill="#E660A4"/>
<path d="M112.177 41.8232C112.274 41.9208 112.274 42.0791 112.177 42.1768L110.586 43.7678C110.488 43.8654 110.33 43.8654 110.232 43.7678C110.135 43.6701 110.135 43.5118 110.232 43.4142L111.646 42L110.232 40.5858C110.135 40.4882 110.135 40.3299 110.232 40.2322C110.33 40.1346 110.488 40.1346 110.586 40.2322L112.177 41.8232ZM93 36.75C95.0041 36.75 96.481 37.0673 97.7089 37.5485C98.9323 38.0278 99.9003 38.6673 100.874 39.2893C101.85 39.9132 102.839 40.5246 104.132 40.9831C105.423 41.4411 107.028 41.75 109.229 41.75V42.25C106.979 42.25 105.317 41.9339 103.965 41.4544C102.615 40.9754 101.585 40.3368 100.605 39.7107C99.6217 39.0827 98.6959 38.4722 97.5265 38.014C96.3618 37.5577 94.9474 37.25 93 37.25V36.75ZM109.229 41.75C109.882 41.75 110.575 41.75 111.104 41.75C111.369 41.75 111.593 41.75 111.751 41.75C111.83 41.75 111.892 41.75 111.934 41.75C111.956 41.75 111.972 41.75 111.983 41.75C111.989 41.75 111.993 41.75 111.996 41.75C111.997 41.75 111.998 41.75 111.999 41.75C111.999 41.75 112 41.75 112 41.75C112 41.75 112 41.75 112 41.75C112 41.75 112 41.75 112 41.75C112 41.75 112 41.75 112 42C112 42.25 112 42.25 112 42.25C112 42.25 112 42.25 112 42.25C112 42.25 112 42.25 112 42.25C112 42.25 111.999 42.25 111.999 42.25C111.998 42.25 111.997 42.25 111.996 42.25C111.993 42.25 111.989 42.25 111.983 42.25C111.972 42.25 111.956 42.25 111.934 42.25C111.892 42.25 111.83 42.25 111.751 42.25C111.593 42.25 111.369 42.25 111.104 42.25C110.575 42.25 109.882 42.25 109.229 42.25V41.75Z" fill="#E660A4"/>
<path d="M81.1768 64.8232C81.2744 64.9208 81.2744 65.0791 81.1768 65.1768L79.5858 66.7678C79.4882 66.8654 79.3299 66.8654 79.2323 66.7678C79.1346 66.6702 79.1346 66.5119 79.2323 66.4142L80.6464 65L79.2322 63.5858C79.1346 63.4882 79.1346 63.3299 79.2322 63.2322C79.3298 63.1346 79.4881 63.1346 79.5858 63.2322L81.1768 64.8232ZM67 58.75C70.0276 58.75 71.4435 60.3291 72.8829 61.8268C73.6041 62.5772 74.3263 63.3032 75.266 63.846C76.1999 64.3855 77.3599 64.75 78.9583 64.75V65.25C77.2765 65.25 76.0295 64.8645 75.0159 64.279C74.0083 63.6968 73.2428 62.9228 72.5224 62.1732C71.0785 60.6709 69.7955 59.25 67 59.25V58.75ZM78.9583 64.75C79.4393 64.75 79.9497 64.75 80.3399 64.75C80.535 64.75 80.7 64.75 80.8162 64.75C80.8744 64.75 80.9203 64.75 80.9517 64.75C80.9674 64.75 80.9795 64.75 80.9876 64.75C80.9917 64.75 80.9948 64.75 80.9969 64.75C80.9979 64.75 80.9987 64.75 80.9992 64.75C80.9995 64.75 80.9997 64.75 80.9998 64.75C80.9999 64.75 80.9999 64.75 80.9999 64.75C81 64.75 81 64.75 81 64.75C81 64.75 81 64.75 81 65C81 65.25 81 65.25 81 65.25C81 65.25 81 65.25 81 65.25C80.9999 65.25 80.9999 65.25 80.9998 65.25C80.9997 65.25 80.9995 65.25 80.9992 65.25C80.9987 65.25 80.9979 65.25 80.9969 65.25C80.9948 65.25 80.9917 65.25 80.9876 65.25C80.9795 65.25 80.9674 65.25 80.9517 65.25C80.9203 65.25 80.8744 65.25 80.8163 65.25C80.7 65.25 80.535 65.25 80.3399 65.25C79.9497 65.25 79.4393 65.25 78.9583 65.25V64.75Z" fill="#FFD338"/>
<path d="M51.1768 58.8231C51.2744 58.9208 51.2744 59.0791 51.1768 59.1767L49.5859 60.7678C49.4882 60.8654 49.3299 60.8654 49.2323 60.7678C49.1347 60.6701 49.1347 60.5118 49.2323 60.4142L50.6464 58.9999L49.2322 57.5858C49.1345 57.4882 49.1345 57.3299 49.2322 57.2322C49.3298 57.1346 49.4881 57.1346 49.5857 57.2322L51.1768 58.8231ZM27 36.75C29.6064 36.75 31.4984 38.1931 33.0346 40.2897C34.565 42.3785 35.7728 45.1575 37.004 47.8975C38.242 50.6527 39.505 53.3722 41.1503 55.4052C42.788 57.4289 44.786 58.75 47.5 58.75V59.25C44.5907 59.25 42.4623 57.8211 40.7616 55.7198C39.0686 53.6278 37.7813 50.8473 36.5479 48.1025C35.3077 45.3425 34.1232 42.6215 32.6313 40.5853C31.1451 38.5569 29.3848 37.25 27 37.25V36.75ZM47.5 58.75C48.3245 58.75 49.1995 58.75 49.8683 58.75C50.2028 58.75 50.4857 58.7499 50.685 58.7499C50.7846 58.7499 50.8634 58.7499 50.9172 58.7499C50.9442 58.7499 50.9648 58.7499 50.9788 58.7499C50.9858 58.7499 50.9911 58.7499 50.9946 58.7499C50.9964 58.7499 50.9977 58.7499 50.9986 58.7499C50.9991 58.7499 50.9994 58.7499 50.9997 58.7499C50.9998 58.7499 50.9998 58.7499 50.9999 58.7499C50.9999 58.7499 51 58.7499 51 58.7499C51 58.7499 51 58.7499 51 58.9999C51 59.2499 51 59.2499 51 59.2499C51 59.2499 51 59.2499 50.9999 59.2499C50.9999 59.2499 50.9998 59.2499 50.9997 59.2499C50.9994 59.2499 50.9991 59.2499 50.9987 59.2499C50.9978 59.2499 50.9964 59.2499 50.9946 59.2499C50.9911 59.2499 50.9858 59.2499 50.9788 59.2499C50.9649 59.2499 50.9442 59.2499 50.9173 59.2499C50.8634 59.2499 50.7847 59.2499 50.685 59.2499C50.4857 59.2499 50.2028 59.25 49.8684 59.25C49.1995 59.25 48.3245 59.25 47.5 59.25V58.75Z" fill="#ED3F3F"/>
</svg>
