<svg width="135" height="80" viewBox="0 0 135 80" fill="none" xmlns="http://www.w3.org/2000/svg">
<rect width="135" height="80" fill="white"/>
<rect x="28" y="7" width="19" height="10" fill="#FFC46B" stroke="white"/>
<rect x="28" y="17" width="19" height="14" fill="#FFF4D8" stroke="white"/>
<rect x="28" y="31" width="19" height="14" fill="#FFF4D8" stroke="white"/>
<rect x="28" y="45" width="19" height="14" fill="#FFF4D8" stroke="white"/>
<rect x="28" y="59" width="19" height="14" fill="#FFF4D8" stroke="white"/>
<rect x="47" y="7" width="20" height="10" fill="#FFC46B" stroke="white"/>
<rect x="47" y="17" width="20" height="14" fill="#FFF4D8" stroke="white"/>
<rect x="47" y="31" width="20" height="14" fill="#FFF4D8" stroke="white"/>
<rect x="47" y="45" width="20" height="14" fill="#FFF4D8" stroke="white"/>
<rect x="47" y="59" width="20" height="14" fill="#FFF4D8" stroke="white"/>
<rect x="67" y="7" width="20" height="10" fill="#FFC46B" stroke="white"/>
<rect x="67" y="17" width="20" height="14" fill="#FFF4D8" stroke="white"/>
<rect x="67" y="31" width="20" height="14" fill="#FFF4D8" stroke="white"/>
<rect x="67" y="45" width="20" height="14" fill="#FFF4D8" stroke="white"/>
<rect x="67" y="59" width="20" height="14" fill="#FFF4D8" stroke="white"/>
<rect x="87" y="7" width="19" height="10" fill="#FFC46B" stroke="white"/>
<rect x="87" y="17" width="19" height="14" fill="#FFF4D8" stroke="white"/>
<rect x="87" y="31" width="19" height="14" fill="#FFF4D8" stroke="white"/>
<rect x="87" y="45" width="19" height="14" fill="#FFF4D8" stroke="white"/>
<rect x="87" y="59" width="19" height="14" fill="#FFF4D8" stroke="white"/>
<rect x="106" y="7" width="20" height="10" fill="#FFC46B" stroke="white"/>
<rect x="106" y="17" width="20" height="14" fill="#FFF4D8" stroke="white"/>
<rect x="106" y="31" width="20" height="14" fill="#FFF4D8" stroke="white"/>
<rect x="106" y="45" width="20" height="14" fill="#FFF4D8" stroke="white"/>
<rect x="106" y="59" width="20" height="14" fill="#FFF4D8" stroke="white"/>
<rect x="8" y="7" width="20" height="10" fill="#FFC46B" stroke="white"/>
<rect x="8" y="17" width="20" height="14" fill="#FFC46B" stroke="white"/>
<rect x="8" y="31" width="20" height="14" fill="#FFC46B" stroke="white"/>
<rect x="8" y="45" width="20" height="14" fill="#FFC46B" stroke="white"/>
<rect x="8" y="59" width="20" height="14" fill="#FFC46B" stroke="white"/>
<rect x="92" y="35" width="11" height="6" fill="#937EE7"/>
<rect x="92.05" y="35.05" width="10.9" height="5.9" stroke="black" stroke-opacity="0.1" stroke-width="0.1"/>
<rect x="90" y="62" width="11" height="6" fill="#F16F6F"/>
<rect x="90.05" y="62.05" width="10.9" height="5.9" stroke="black" stroke-opacity="0.1" stroke-width="0.1"/>
<rect x="54" y="48" width="12" height="6" fill="#F16F6F"/>
<rect x="54.05" y="48.05" width="11.9" height="5.9" stroke="black" stroke-opacity="0.1" stroke-width="0.1"/>
<rect x="32" y="21" width="12" height="6" fill="#84CFFF"/>
<rect x="32.05" y="21.05" width="11.9" height="5.9" stroke="black" stroke-opacity="0.1" stroke-width="0.1"/>
<rect x="69" y="32" width="12" height="6" fill="#84CFFF"/>
<rect x="69.05" y="32.05" width="11.9" height="5.9" stroke="black" stroke-opacity="0.1" stroke-width="0.1"/>
<rect x="111" y="48" width="11" height="6" fill="#9DD194"/>
<rect x="111.05" y="48.05" width="10.9" height="5.9" stroke="black" stroke-opacity="0.1" stroke-width="0.1"/>
<rect x="32" y="63" width="11" height="6" fill="#937EE7"/>
<rect x="32.05" y="63.05" width="10.9" height="5.9" stroke="black" stroke-opacity="0.1" stroke-width="0.1"/>
</svg>
