<svg width="135" height="80" viewBox="0 0 135 80" fill="none" xmlns="http://www.w3.org/2000/svg">
<rect width="135" height="80" fill="white"/>
<rect x="39" y="8" width="86" height="7" rx="2" fill="#ED8CBD"/>
<rect x="39" y="17.5" width="86" height="7" rx="2" fill="#937EE7"/>
<rect x="39" y="27" width="86" height="7" rx="2" fill="#FFC46B"/>
<rect x="39" y="36.5" width="86" height="7" rx="2" fill="#9DD194"/>
<rect x="39" y="46" width="86" height="7" rx="2" fill="#FFDE6B"/>
<rect x="39" y="55.5" width="86" height="7" rx="2" fill="#F16F6F"/>
<rect x="39" y="65" width="86" height="7" rx="2" fill="#B8E3FF"/>
<path d="M12.071 12.909C11.9777 12.909 11.8423 12.8367 11.665 12.692C11.4923 12.5427 11.406 12.3957 11.406 12.251C11.406 11.9103 11.455 11.3223 11.553 10.487C11.651 9.65167 11.7 8.849 11.7 8.079C11.7 7.883 11.7607 7.785 11.882 7.785C12.05 7.785 12.2507 7.87833 12.484 8.065C12.722 8.25167 12.841 8.43833 12.841 8.625C12.841 8.69033 12.764 9.08933 12.61 9.822C12.456 10.55 12.3673 11.1357 12.344 11.579C12.568 11.1263 12.8317 10.7483 13.135 10.445C13.443 10.1417 13.695 9.99 13.891 9.99C14.031 9.99 14.122 10.3003 14.164 10.921C14.1827 11.1543 14.22 11.369 14.276 11.565C14.332 11.7563 14.409 11.852 14.507 11.852C14.689 11.852 14.85 11.6583 14.99 11.271C15.1347 10.879 15.207 10.4753 15.207 10.06C15.207 9.15933 14.9597 8.709 14.465 8.709C14.3203 8.709 14.185 8.63433 14.059 8.485C13.9377 8.33567 13.877 8.20267 13.877 8.086C13.877 7.876 14.0053 7.771 14.262 7.771C14.6073 7.771 14.9083 7.83633 15.165 7.967C15.4263 8.093 15.6293 8.268 15.774 8.492C16.0633 8.93533 16.208 9.48133 16.208 10.13C16.208 10.5687 16.131 11.0027 15.977 11.432C15.823 11.8567 15.6083 12.209 15.333 12.489C15.0623 12.769 14.773 12.909 14.465 12.909C13.8957 12.909 13.5713 12.426 13.492 11.46L13.275 11.768C12.7617 12.5287 12.3603 12.909 12.071 12.909ZM17.5461 7.638C17.5461 7.442 17.6231 7.344 17.7771 7.344C17.9031 7.344 18.0478 7.449 18.2111 7.659C18.3744 7.869 18.4561 8.04867 18.4561 8.198C18.4561 8.34733 18.4258 8.55733 18.3651 8.828C18.3044 9.09867 18.2414 9.346 18.1761 9.57C18.1154 9.794 18.0221 10.1137 17.8961 10.529C17.7701 10.9397 17.6838 11.2267 17.6371 11.39C17.9404 10.774 18.2601 10.2723 18.5961 9.885C18.9368 9.49767 19.2214 9.304 19.4501 9.304C19.5948 9.304 19.7604 9.43233 19.9471 9.689C20.1338 9.941 20.2271 10.1697 20.2271 10.375C20.2271 10.5757 20.1898 10.8697 20.1151 11.257C20.0404 11.6443 19.9098 12.0177 19.7231 12.377C19.5364 12.7363 19.3451 12.916 19.1491 12.916C18.9951 12.916 18.9181 12.8063 18.9181 12.587C18.9181 12.4283 18.9648 12.1693 19.0581 11.81C19.1934 11.2733 19.2611 10.9467 19.2611 10.83C19.2611 10.7133 19.2424 10.655 19.2051 10.655C18.9344 10.655 18.5378 11.1053 18.0151 12.006C17.8378 12.314 17.6884 12.5427 17.5671 12.692C17.4504 12.8413 17.3384 12.916 17.2311 12.916C17.1238 12.916 16.9931 12.8297 16.8391 12.657C16.6898 12.4843 16.6151 12.3513 16.6151 12.258C16.6151 12.16 16.6338 12.0177 16.6711 11.831C16.7131 11.6443 16.7738 11.3783 16.8531 11.033C16.9371 10.6877 17.0724 10.0623 17.2591 9.157C17.4504 8.247 17.5461 7.74067 17.5461 7.638ZM21.6024 12.202C21.8544 12.09 22.0738 11.8637 22.2604 11.523C22.4471 11.1823 22.5404 10.8627 22.5404 10.564C22.5404 10.2653 22.4984 10.06 22.4144 9.948C22.2138 10.0647 22.0131 10.3097 21.8124 10.683C21.6164 11.0563 21.5184 11.3853 21.5184 11.67C21.5184 11.95 21.5464 12.1273 21.6024 12.202ZM20.5804 11.74C20.5804 11.1567 20.7601 10.6037 21.1194 10.081C21.4834 9.55833 21.8428 9.297 22.1974 9.297C22.5521 9.297 22.8508 9.423 23.0934 9.675C23.3361 9.92233 23.4574 10.2233 23.4574 10.578C23.4574 10.928 23.3734 11.285 23.2054 11.649C23.0374 12.013 22.8018 12.3163 22.4984 12.559C22.1951 12.797 21.8708 12.916 21.5254 12.916C21.2688 12.916 21.0471 12.8017 20.8604 12.573C20.6738 12.3443 20.5804 12.0667 20.5804 11.74Z" fill="#E660A4"/>
<path d="M12.071 22.409C11.9777 22.409 11.8423 22.3367 11.665 22.192C11.4923 22.0427 11.406 21.8957 11.406 21.751C11.406 21.4103 11.455 20.8223 11.553 19.987C11.651 19.1517 11.7 18.349 11.7 17.579C11.7 17.383 11.7607 17.285 11.882 17.285C12.05 17.285 12.2507 17.3783 12.484 17.565C12.722 17.7517 12.841 17.9383 12.841 18.125C12.841 18.1903 12.764 18.5893 12.61 19.322C12.456 20.05 12.3673 20.6357 12.344 21.079C12.568 20.6263 12.8317 20.2483 13.135 19.945C13.443 19.6417 13.695 19.49 13.891 19.49C14.031 19.49 14.122 19.8003 14.164 20.421C14.1827 20.6543 14.22 20.869 14.276 21.065C14.332 21.2563 14.409 21.352 14.507 21.352C14.689 21.352 14.85 21.1583 14.99 20.771C15.1347 20.379 15.207 19.9753 15.207 19.56C15.207 18.6593 14.9597 18.209 14.465 18.209C14.3203 18.209 14.185 18.1343 14.059 17.985C13.9377 17.8357 13.877 17.7027 13.877 17.586C13.877 17.376 14.0053 17.271 14.262 17.271C14.6073 17.271 14.9083 17.3363 15.165 17.467C15.4263 17.593 15.6293 17.768 15.774 17.992C16.0633 18.4353 16.208 18.9813 16.208 19.63C16.208 20.0687 16.131 20.5027 15.977 20.932C15.823 21.3567 15.6083 21.709 15.333 21.989C15.0623 22.269 14.773 22.409 14.465 22.409C13.8957 22.409 13.5713 21.926 13.492 20.96L13.275 21.268C12.7617 22.0287 12.3603 22.409 12.071 22.409ZM17.5461 17.138C17.5461 16.942 17.6231 16.844 17.7771 16.844C17.9031 16.844 18.0478 16.949 18.2111 17.159C18.3744 17.369 18.4561 17.5487 18.4561 17.698C18.4561 17.8473 18.4258 18.0573 18.3651 18.328C18.3044 18.5987 18.2414 18.846 18.1761 19.07C18.1154 19.294 18.0221 19.6137 17.8961 20.029C17.7701 20.4397 17.6838 20.7267 17.6371 20.89C17.9404 20.274 18.2601 19.7723 18.5961 19.385C18.9368 18.9977 19.2214 18.804 19.4501 18.804C19.5948 18.804 19.7604 18.9323 19.9471 19.189C20.1338 19.441 20.2271 19.6697 20.2271 19.875C20.2271 20.0757 20.1898 20.3697 20.1151 20.757C20.0404 21.1443 19.9098 21.5177 19.7231 21.877C19.5364 22.2363 19.3451 22.416 19.1491 22.416C18.9951 22.416 18.9181 22.3063 18.9181 22.087C18.9181 21.9283 18.9648 21.6693 19.0581 21.31C19.1934 20.7733 19.2611 20.4467 19.2611 20.33C19.2611 20.2133 19.2424 20.155 19.2051 20.155C18.9344 20.155 18.5378 20.6053 18.0151 21.506C17.8378 21.814 17.6884 22.0427 17.5671 22.192C17.4504 22.3413 17.3384 22.416 17.2311 22.416C17.1238 22.416 16.9931 22.3297 16.8391 22.157C16.6898 21.9843 16.6151 21.8513 16.6151 21.758C16.6151 21.66 16.6338 21.5177 16.6711 21.331C16.7131 21.1443 16.7738 20.8783 16.8531 20.533C16.9371 20.1877 17.0724 19.5623 17.2591 18.657C17.4504 17.747 17.5461 17.2407 17.5461 17.138ZM23.5904 20.428C23.6744 20.5027 23.7164 20.5703 23.7164 20.631C23.7164 20.6917 23.6884 20.8177 23.6324 21.009C23.5764 21.2003 23.5391 21.3497 23.5204 21.457C23.5018 21.5597 23.4854 21.6413 23.4714 21.702C23.4621 21.7627 23.4551 21.8117 23.4504 21.849C23.4458 21.8817 23.4364 21.9237 23.4224 21.975C23.4131 22.0263 23.4038 22.0683 23.3944 22.101C23.3898 22.129 23.3804 22.164 23.3664 22.206C23.3571 22.2433 23.3454 22.2737 23.3314 22.297C23.3174 22.3157 23.3011 22.3367 23.2824 22.36C23.2544 22.3973 23.2078 22.416 23.1424 22.416C23.0771 22.416 22.9954 22.3507 22.8974 22.22C22.8041 22.0893 22.7341 21.9307 22.6874 21.744C22.2488 22.192 21.8801 22.416 21.5814 22.416C21.3808 22.416 21.1638 22.3063 20.9304 22.087C20.6971 21.863 20.5804 21.6413 20.5804 21.422C20.5804 21.198 20.6808 20.8807 20.8814 20.47C21.0821 20.0593 21.3551 19.679 21.7004 19.329C22.0504 18.979 22.3958 18.804 22.7364 18.804C22.9324 18.804 23.1588 18.9183 23.4154 19.147C23.6721 19.3757 23.8004 19.5857 23.8004 19.777C23.8004 19.9637 23.7304 20.1807 23.5904 20.428ZM21.5534 21.534C21.7401 21.534 21.9874 21.408 22.2954 21.156C22.6081 20.8993 22.8018 20.5773 22.8764 20.19C22.8811 20.134 22.9208 20.1013 22.9954 20.092C22.9814 19.826 22.9371 19.693 22.8624 19.693C22.6758 19.693 22.4658 19.8143 22.2324 20.057C22.0038 20.2997 21.8148 20.5587 21.6654 20.834C21.5208 21.1093 21.4484 21.3123 21.4484 21.443C21.4484 21.4803 21.4531 21.506 21.4624 21.52C21.4764 21.5293 21.5068 21.534 21.5534 21.534ZM25.9968 19.637C25.9595 19.763 25.9035 19.9403 25.8288 20.169C25.7588 20.393 25.6701 20.6753 25.5628 21.016C25.4601 21.3567 25.4088 21.5387 25.4088 21.562C25.4088 21.5807 25.4461 21.59 25.5208 21.59C25.6001 21.59 25.7845 21.5387 26.0738 21.436C26.3631 21.3287 26.5335 21.275 26.5848 21.275C26.7015 21.275 26.7598 21.3543 26.7598 21.513C26.7598 21.6717 26.6035 21.863 26.2908 22.087C25.9781 22.3063 25.6515 22.416 25.3108 22.416C25.1615 22.416 24.9841 22.3343 24.7788 22.171C24.5735 22.0077 24.4708 21.842 24.4708 21.674C24.4708 21.534 24.5408 21.24 24.6808 20.792C24.8255 20.3393 24.9235 20.029 24.9748 19.861C24.7928 19.9123 24.6551 19.938 24.5618 19.938C24.4685 19.938 24.3705 19.875 24.2678 19.749C24.1651 19.6183 24.1138 19.4947 24.1138 19.378C24.1138 19.2287 24.4755 19.1027 25.1988 19C25.2875 18.566 25.3318 18.1903 25.3318 17.873C25.3318 17.733 25.4018 17.663 25.5418 17.663C25.6631 17.663 25.8171 17.7377 26.0038 17.887C26.1951 18.0317 26.2908 18.1763 26.2908 18.321C26.2908 18.461 26.2605 18.6593 26.1998 18.916C26.4238 18.9067 26.5941 18.902 26.7108 18.902C27.0608 18.902 27.2358 18.9813 27.2358 19.14C27.2358 19.2427 27.1331 19.3313 26.9278 19.406C26.7271 19.476 26.4168 19.553 25.9968 19.637Z" fill="#6E52DF"/>
<path d="M12.071 31.909C11.9777 31.909 11.8423 31.8367 11.665 31.692C11.4923 31.5427 11.406 31.3957 11.406 31.251C11.406 30.9103 11.455 30.3223 11.553 29.487C11.651 28.6517 11.7 27.849 11.7 27.079C11.7 26.883 11.7607 26.785 11.882 26.785C12.05 26.785 12.2507 26.8783 12.484 27.065C12.722 27.2517 12.841 27.4383 12.841 27.625C12.841 27.6903 12.764 28.0893 12.61 28.822C12.456 29.55 12.3673 30.1357 12.344 30.579C12.568 30.1263 12.8317 29.7483 13.135 29.445C13.443 29.1417 13.695 28.99 13.891 28.99C14.031 28.99 14.122 29.3003 14.164 29.921C14.1827 30.1543 14.22 30.369 14.276 30.565C14.332 30.7563 14.409 30.852 14.507 30.852C14.689 30.852 14.85 30.6583 14.99 30.271C15.1347 29.879 15.207 29.4753 15.207 29.06C15.207 28.1593 14.9597 27.709 14.465 27.709C14.3203 27.709 14.185 27.6343 14.059 27.485C13.9377 27.3357 13.877 27.2027 13.877 27.086C13.877 26.876 14.0053 26.771 14.262 26.771C14.6073 26.771 14.9083 26.8363 15.165 26.967C15.4263 27.093 15.6293 27.268 15.774 27.492C16.0633 27.9353 16.208 28.4813 16.208 29.13C16.208 29.5687 16.131 30.0027 15.977 30.432C15.823 30.8567 15.6083 31.209 15.333 31.489C15.0623 31.769 14.773 31.909 14.465 31.909C13.8957 31.909 13.5713 31.426 13.492 30.46L13.275 30.768C12.7617 31.5287 12.3603 31.909 12.071 31.909ZM17.5461 26.638C17.5461 26.442 17.6231 26.344 17.7771 26.344C17.9031 26.344 18.0478 26.449 18.2111 26.659C18.3744 26.869 18.4561 27.0487 18.4561 27.198C18.4561 27.3473 18.4258 27.5573 18.3651 27.828C18.3044 28.0987 18.2414 28.346 18.1761 28.57C18.1154 28.794 18.0221 29.1137 17.8961 29.529C17.7701 29.9397 17.6838 30.2267 17.6371 30.39C17.9404 29.774 18.2601 29.2723 18.5961 28.885C18.9368 28.4977 19.2214 28.304 19.4501 28.304C19.5948 28.304 19.7604 28.4323 19.9471 28.689C20.1338 28.941 20.2271 29.1697 20.2271 29.375C20.2271 29.5757 20.1898 29.8697 20.1151 30.257C20.0404 30.6443 19.9098 31.0177 19.7231 31.377C19.5364 31.7363 19.3451 31.916 19.1491 31.916C18.9951 31.916 18.9181 31.8063 18.9181 31.587C18.9181 31.4283 18.9648 31.1693 19.0581 30.81C19.1934 30.2733 19.2611 29.9467 19.2611 29.83C19.2611 29.7133 19.2424 29.655 19.2051 29.655C18.9344 29.655 18.5378 30.1053 18.0151 31.006C17.8378 31.314 17.6884 31.5427 17.5671 31.692C17.4504 31.8413 17.3384 31.916 17.2311 31.916C17.1238 31.916 16.9931 31.8297 16.8391 31.657C16.6898 31.4843 16.6151 31.3513 16.6151 31.258C16.6151 31.16 16.6338 31.0177 16.6711 30.831C16.7131 30.6443 16.7738 30.3783 16.8531 30.033C16.9371 29.6877 17.0724 29.0623 17.2591 28.157C17.4504 27.247 17.5461 26.7407 17.5461 26.638ZM23.7514 29.613C23.7514 29.8417 23.5951 30.047 23.2824 30.229C22.9744 30.411 22.6571 30.502 22.3304 30.502C22.0038 30.502 21.7354 30.4787 21.5254 30.432C21.4834 30.558 21.4624 30.684 21.4624 30.81C21.4624 30.936 21.4834 31.027 21.5254 31.083C21.5674 31.1343 21.6724 31.16 21.8404 31.16C22.1904 31.16 22.4891 31.1273 22.7364 31.062C22.9884 30.9967 23.1191 30.964 23.1284 30.964C23.3198 30.964 23.4154 31.027 23.4154 31.153C23.4154 31.335 23.2638 31.5077 22.9604 31.671C22.6618 31.8343 22.3141 31.916 21.9174 31.916C21.5254 31.916 21.2104 31.7923 20.9724 31.545C20.7344 31.2977 20.6154 31.006 20.6154 30.67C20.6154 30.3293 20.7134 29.9747 20.9094 29.606C21.1101 29.2373 21.3598 28.9293 21.6584 28.682C21.9571 28.43 22.2534 28.304 22.5474 28.304C22.8461 28.304 23.1214 28.451 23.3734 28.745C23.6254 29.0343 23.7514 29.3237 23.7514 29.613ZM22.9394 29.501C22.9394 29.4543 22.8904 29.3867 22.7924 29.298C22.6944 29.2093 22.6011 29.165 22.5124 29.165C22.4284 29.165 22.3188 29.228 22.1834 29.354C22.0481 29.4753 21.9198 29.634 21.7984 29.83C21.8404 29.8347 21.9011 29.837 21.9804 29.837C22.6198 29.837 22.9394 29.725 22.9394 29.501ZM24.4184 29.487L24.3764 28.696C24.3764 28.4347 24.4581 28.304 24.6214 28.304C24.7147 28.304 24.8057 28.339 24.8944 28.409C24.9877 28.479 25.0577 28.5887 25.1044 28.738C25.2631 28.598 25.4357 28.486 25.6224 28.402C25.8137 28.3133 25.9817 28.269 26.1264 28.269C26.4671 28.269 26.6374 28.3507 26.6374 28.514C26.6374 28.598 26.6211 28.661 26.5884 28.703C26.5604 28.7403 26.5371 28.7683 26.5184 28.787C26.5044 28.8057 26.4764 28.8313 26.4344 28.864C26.3971 28.892 26.3691 28.913 26.3504 28.927C26.2431 28.997 26.1661 29.046 26.1194 29.074C25.9094 29.2047 25.7297 29.3633 25.5804 29.55C25.4311 29.732 25.3191 29.9863 25.2444 30.313C25.1184 30.8497 24.9947 31.251 24.8734 31.517C24.7567 31.7783 24.6237 31.909 24.4744 31.909C24.3297 31.909 24.2201 31.839 24.1454 31.699C24.0754 31.559 24.0404 31.4283 24.0404 31.307C24.0404 31.181 24.0847 30.9943 24.1734 30.747C24.2667 30.4997 24.3297 30.2873 24.3624 30.11C24.3997 29.928 24.4184 29.7203 24.4184 29.487ZM29.7055 29.613C29.7055 29.8417 29.5492 30.047 29.2365 30.229C28.9285 30.411 28.6112 30.502 28.2845 30.502C27.9579 30.502 27.6895 30.4787 27.4795 30.432C27.4375 30.558 27.4165 30.684 27.4165 30.81C27.4165 30.936 27.4375 31.027 27.4795 31.083C27.5215 31.1343 27.6265 31.16 27.7945 31.16C28.1445 31.16 28.4432 31.1273 28.6905 31.062C28.9425 30.9967 29.0732 30.964 29.0825 30.964C29.2739 30.964 29.3695 31.027 29.3695 31.153C29.3695 31.335 29.2179 31.5077 28.9145 31.671C28.6159 31.8343 28.2682 31.916 27.8715 31.916C27.4795 31.916 27.1645 31.7923 26.9265 31.545C26.6885 31.2977 26.5695 31.006 26.5695 30.67C26.5695 30.3293 26.6675 29.9747 26.8635 29.606C27.0642 29.2373 27.3139 28.9293 27.6125 28.682C27.9112 28.43 28.2075 28.304 28.5015 28.304C28.8002 28.304 29.0755 28.451 29.3275 28.745C29.5795 29.0343 29.7055 29.3237 29.7055 29.613ZM28.8935 29.501C28.8935 29.4543 28.8445 29.3867 28.7465 29.298C28.6485 29.2093 28.5552 29.165 28.4665 29.165C28.3825 29.165 28.2729 29.228 28.1375 29.354C28.0022 29.4753 27.8739 29.634 27.7525 29.83C27.7945 29.8347 27.8552 29.837 27.9345 29.837C28.5739 29.837 28.8935 29.725 28.8935 29.501Z" fill="#FF8C38"/>
<path d="M12.071 41.409C11.9777 41.409 11.8423 41.3367 11.665 41.192C11.4923 41.0427 11.406 40.8957 11.406 40.751C11.406 40.4103 11.455 39.8223 11.553 38.987C11.651 38.1517 11.7 37.349 11.7 36.579C11.7 36.383 11.7607 36.285 11.882 36.285C12.05 36.285 12.2507 36.3783 12.484 36.565C12.722 36.7517 12.841 36.9383 12.841 37.125C12.841 37.1903 12.764 37.5893 12.61 38.322C12.456 39.05 12.3673 39.6357 12.344 40.079C12.568 39.6263 12.8317 39.2483 13.135 38.945C13.443 38.6417 13.695 38.49 13.891 38.49C14.031 38.49 14.122 38.8003 14.164 39.421C14.1827 39.6543 14.22 39.869 14.276 40.065C14.332 40.2563 14.409 40.352 14.507 40.352C14.689 40.352 14.85 40.1583 14.99 39.771C15.1347 39.379 15.207 38.9753 15.207 38.56C15.207 37.6593 14.9597 37.209 14.465 37.209C14.3203 37.209 14.185 37.1343 14.059 36.985C13.9377 36.8357 13.877 36.7027 13.877 36.586C13.877 36.376 14.0053 36.271 14.262 36.271C14.6073 36.271 14.9083 36.3363 15.165 36.467C15.4263 36.593 15.6293 36.768 15.774 36.992C16.0633 37.4353 16.208 37.9813 16.208 38.63C16.208 39.0687 16.131 39.5027 15.977 39.932C15.823 40.3567 15.6083 40.709 15.333 40.989C15.0623 41.269 14.773 41.409 14.465 41.409C13.8957 41.409 13.5713 40.926 13.492 39.96L13.275 40.268C12.7617 41.0287 12.3603 41.409 12.071 41.409ZM17.5461 36.138C17.5461 35.942 17.6231 35.844 17.7771 35.844C17.9031 35.844 18.0478 35.949 18.2111 36.159C18.3744 36.369 18.4561 36.5487 18.4561 36.698C18.4561 36.8473 18.4258 37.0573 18.3651 37.328C18.3044 37.5987 18.2414 37.846 18.1761 38.07C18.1154 38.294 18.0221 38.6137 17.8961 39.029C17.7701 39.4397 17.6838 39.7267 17.6371 39.89C17.9404 39.274 18.2601 38.7723 18.5961 38.385C18.9368 37.9977 19.2214 37.804 19.4501 37.804C19.5948 37.804 19.7604 37.9323 19.9471 38.189C20.1338 38.441 20.2271 38.6697 20.2271 38.875C20.2271 39.0757 20.1898 39.3697 20.1151 39.757C20.0404 40.1443 19.9098 40.5177 19.7231 40.877C19.5364 41.2363 19.3451 41.416 19.1491 41.416C18.9951 41.416 18.9181 41.3063 18.9181 41.087C18.9181 40.9283 18.9648 40.6693 19.0581 40.31C19.1934 39.7733 19.2611 39.4467 19.2611 39.33C19.2611 39.2133 19.2424 39.155 19.2051 39.155C18.9344 39.155 18.5378 39.6053 18.0151 40.506C17.8378 40.814 17.6884 41.0427 17.5671 41.192C17.4504 41.3413 17.3384 41.416 17.2311 41.416C17.1238 41.416 16.9931 41.3297 16.8391 41.157C16.6898 40.9843 16.6151 40.8513 16.6151 40.758C16.6151 40.66 16.6338 40.5177 16.6711 40.331C16.7131 40.1443 16.7738 39.8783 16.8531 39.533C16.9371 39.1877 17.0724 38.5623 17.2591 37.657C17.4504 36.747 17.5461 36.2407 17.5461 36.138ZM23.7514 39.113C23.7514 39.3417 23.5951 39.547 23.2824 39.729C22.9744 39.911 22.6571 40.002 22.3304 40.002C22.0038 40.002 21.7354 39.9787 21.5254 39.932C21.4834 40.058 21.4624 40.184 21.4624 40.31C21.4624 40.436 21.4834 40.527 21.5254 40.583C21.5674 40.6343 21.6724 40.66 21.8404 40.66C22.1904 40.66 22.4891 40.6273 22.7364 40.562C22.9884 40.4967 23.1191 40.464 23.1284 40.464C23.3198 40.464 23.4154 40.527 23.4154 40.653C23.4154 40.835 23.2638 41.0077 22.9604 41.171C22.6618 41.3343 22.3141 41.416 21.9174 41.416C21.5254 41.416 21.2104 41.2923 20.9724 41.045C20.7344 40.7977 20.6154 40.506 20.6154 40.17C20.6154 39.8293 20.7134 39.4747 20.9094 39.106C21.1101 38.7373 21.3598 38.4293 21.6584 38.182C21.9571 37.93 22.2534 37.804 22.5474 37.804C22.8461 37.804 23.1214 37.951 23.3734 38.245C23.6254 38.5343 23.7514 38.8237 23.7514 39.113ZM22.9394 39.001C22.9394 38.9543 22.8904 38.8867 22.7924 38.798C22.6944 38.7093 22.6011 38.665 22.5124 38.665C22.4284 38.665 22.3188 38.728 22.1834 38.854C22.0481 38.9753 21.9198 39.134 21.7984 39.33C21.8404 39.3347 21.9011 39.337 21.9804 39.337C22.6198 39.337 22.9394 39.225 22.9394 39.001ZM26.6094 37.804C26.8521 37.804 27.0644 37.9137 27.2464 38.133C27.4331 38.3477 27.5264 38.5787 27.5264 38.826C27.5264 39.2227 27.4611 39.638 27.3304 40.072C27.2044 40.5013 27.0644 40.8327 26.9104 41.066C26.7611 41.2993 26.6071 41.416 26.4484 41.416C26.2944 41.416 26.2174 41.3063 26.2174 41.087C26.2174 40.919 26.2944 40.5807 26.4484 40.072C26.5651 39.652 26.6234 39.351 26.6234 39.169C26.6234 38.987 26.6001 38.896 26.5534 38.896C26.4927 38.896 26.4321 38.9263 26.3714 38.987C26.3154 39.0477 26.2687 39.1013 26.2314 39.148C26.1941 39.1947 26.1497 39.2553 26.0984 39.33C26.0517 39.4 26.0097 39.4653 25.9724 39.526C25.9397 39.582 25.8954 39.6567 25.8394 39.75C25.7881 39.8387 25.7461 39.9133 25.7134 39.974C25.6807 40.03 25.6387 40.1047 25.5874 40.198C25.1534 41.01 24.8127 41.416 24.5654 41.416C24.4674 41.416 24.3437 41.332 24.1944 41.164C24.0451 40.9913 23.9704 40.8653 23.9704 40.786C23.9704 40.7347 24.0031 40.625 24.0684 40.457C24.1384 40.2843 24.1874 40.1537 24.2154 40.065C24.2481 39.9717 24.2737 39.8737 24.2924 39.771C24.3157 39.6683 24.3344 39.5587 24.3484 39.442C24.3624 39.3207 24.3717 39.2273 24.3764 39.162C24.3857 39.0967 24.3951 38.994 24.4044 38.854C24.4464 38.2473 24.4814 37.9113 24.5094 37.846C24.5421 37.7807 24.5771 37.748 24.6144 37.748C24.7917 37.748 24.9621 37.8227 25.1254 37.972C25.2887 38.1167 25.3704 38.2497 25.3704 38.371C25.3704 38.6603 25.2957 39.0757 25.1464 39.617C25.4497 39.085 25.7251 38.651 25.9724 38.315C26.2244 37.9743 26.4367 37.804 26.6094 37.804Z" fill="#7CC270"/>
<path d="M12.071 50.909C11.9777 50.909 11.8423 50.8367 11.665 50.692C11.4923 50.5427 11.406 50.3957 11.406 50.251C11.406 49.9103 11.455 49.3223 11.553 48.487C11.651 47.6517 11.7 46.849 11.7 46.079C11.7 45.883 11.7607 45.785 11.882 45.785C12.05 45.785 12.2507 45.8783 12.484 46.065C12.722 46.2517 12.841 46.4383 12.841 46.625C12.841 46.6903 12.764 47.0893 12.61 47.822C12.456 48.55 12.3673 49.1357 12.344 49.579C12.568 49.1263 12.8317 48.7483 13.135 48.445C13.443 48.1417 13.695 47.99 13.891 47.99C14.031 47.99 14.122 48.3003 14.164 48.921C14.1827 49.1543 14.22 49.369 14.276 49.565C14.332 49.7563 14.409 49.852 14.507 49.852C14.689 49.852 14.85 49.6583 14.99 49.271C15.1347 48.879 15.207 48.4753 15.207 48.06C15.207 47.1593 14.9597 46.709 14.465 46.709C14.3203 46.709 14.185 46.6343 14.059 46.485C13.9377 46.3357 13.877 46.2027 13.877 46.086C13.877 45.876 14.0053 45.771 14.262 45.771C14.6073 45.771 14.9083 45.8363 15.165 45.967C15.4263 46.093 15.6293 46.268 15.774 46.492C16.0633 46.9353 16.208 47.4813 16.208 48.13C16.208 48.5687 16.131 49.0027 15.977 49.432C15.823 49.8567 15.6083 50.209 15.333 50.489C15.0623 50.769 14.773 50.909 14.465 50.909C13.8957 50.909 13.5713 50.426 13.492 49.46L13.275 49.768C12.7617 50.5287 12.3603 50.909 12.071 50.909ZM17.5461 45.638C17.5461 45.442 17.6231 45.344 17.7771 45.344C17.9031 45.344 18.0478 45.449 18.2111 45.659C18.3744 45.869 18.4561 46.0487 18.4561 46.198C18.4561 46.3473 18.4258 46.5573 18.3651 46.828C18.3044 47.0987 18.2414 47.346 18.1761 47.57C18.1154 47.794 18.0221 48.1137 17.8961 48.529C17.7701 48.9397 17.6838 49.2267 17.6371 49.39C17.9404 48.774 18.2601 48.2723 18.5961 47.885C18.9368 47.4977 19.2214 47.304 19.4501 47.304C19.5948 47.304 19.7604 47.4323 19.9471 47.689C20.1338 47.941 20.2271 48.1697 20.2271 48.375C20.2271 48.5757 20.1898 48.8697 20.1151 49.257C20.0404 49.6443 19.9098 50.0177 19.7231 50.377C19.5364 50.7363 19.3451 50.916 19.1491 50.916C18.9951 50.916 18.9181 50.8063 18.9181 50.587C18.9181 50.4283 18.9648 50.1693 19.0581 49.81C19.1934 49.2733 19.2611 48.9467 19.2611 48.83C19.2611 48.7133 19.2424 48.655 19.2051 48.655C18.9344 48.655 18.5378 49.1053 18.0151 50.006C17.8378 50.314 17.6884 50.5427 17.5671 50.692C17.4504 50.8413 17.3384 50.916 17.2311 50.916C17.1238 50.916 16.9931 50.8297 16.8391 50.657C16.6898 50.4843 16.6151 50.3513 16.6151 50.258C16.6151 50.16 16.6338 50.0177 16.6711 49.831C16.7131 49.6443 16.7738 49.3783 16.8531 49.033C16.9371 48.6877 17.0724 48.0623 17.2591 47.157C17.4504 46.247 17.5461 45.7407 17.5461 45.638ZM23.2264 47.479C23.2544 47.3623 23.3314 47.304 23.4574 47.304C23.5834 47.304 23.7118 47.3833 23.8424 47.542C23.9778 47.7007 24.0454 47.8803 24.0454 48.081C24.0454 48.1977 24.0034 48.382 23.9194 48.634C23.8354 48.886 23.7748 49.0657 23.7374 49.173C23.7048 49.2803 23.6558 49.4273 23.5904 49.614C23.5251 49.796 23.4644 49.9663 23.4084 50.125C23.3571 50.279 23.2848 50.4867 23.1914 50.748C23.1028 51.0093 23.0211 51.252 22.9464 51.476C22.8018 51.896 22.6244 52.2203 22.4144 52.449C22.2091 52.6777 21.9408 52.792 21.6094 52.792C21.2781 52.792 20.9818 52.7033 20.7204 52.526C20.4591 52.3533 20.3284 52.1783 20.3284 52.001C20.3284 51.8937 20.3751 51.7747 20.4684 51.644C20.5664 51.5133 20.6481 51.448 20.7134 51.448C20.7834 51.448 20.8721 51.5017 20.9794 51.609C21.0914 51.721 21.2058 51.8307 21.3224 51.938C21.4391 52.05 21.5418 52.106 21.6304 52.106C21.6911 52.106 21.7401 52.078 21.7774 52.022C21.8194 51.966 21.8521 51.9147 21.8754 51.868C21.9034 51.826 21.9314 51.7653 21.9594 51.686C21.9874 51.6113 22.0131 51.5413 22.0364 51.476C22.0598 51.4107 22.0878 51.3243 22.1204 51.217C22.1531 51.1097 22.1811 51.014 22.2044 50.93C22.2838 50.678 22.3514 50.454 22.4074 50.258C22.2534 50.4587 22.0948 50.6197 21.9314 50.741C21.7681 50.8577 21.6164 50.916 21.4764 50.916C21.3411 50.916 21.1708 50.8133 20.9654 50.608C20.7648 50.398 20.6644 50.1693 20.6644 49.922C20.6644 49.67 20.7181 49.334 20.8254 48.914C20.9374 48.494 21.0751 48.1207 21.2384 47.794C21.4018 47.4673 21.5464 47.304 21.6724 47.304C21.8171 47.304 21.9524 47.367 22.0784 47.493C22.2091 47.6143 22.2744 47.7333 22.2744 47.85C22.2744 47.962 22.2161 48.144 22.0994 48.396C21.9874 48.648 21.8731 48.9233 21.7564 49.222C21.6398 49.5207 21.5814 49.775 21.5814 49.985C21.5814 50.013 21.5931 50.027 21.6164 50.027C21.6771 50.027 21.8054 49.915 22.0014 49.691C22.1974 49.4623 22.4168 49.1403 22.6594 48.725C22.9068 48.305 23.0958 47.8897 23.2264 47.479Z" fill="#FFD338"/>
<path d="M12.05 55.138C12.05 54.942 12.127 54.844 12.281 54.844C12.407 54.844 12.5517 54.949 12.715 55.159C12.8783 55.369 12.96 55.5487 12.96 55.698C12.96 55.8473 12.9297 56.0573 12.869 56.328C12.8083 56.5987 12.7453 56.846 12.68 57.07C12.6193 57.294 12.526 57.6137 12.4 58.029C12.274 58.4397 12.1877 58.7267 12.141 58.89C12.4443 58.274 12.764 57.7723 13.1 57.385C13.4407 56.9977 13.7253 56.804 13.954 56.804C14.0987 56.804 14.2643 56.9323 14.451 57.189C14.6377 57.441 14.731 57.6697 14.731 57.875C14.731 58.0757 14.6937 58.3697 14.619 58.757C14.5443 59.1443 14.4137 59.5177 14.227 59.877C14.0403 60.2363 13.849 60.416 13.653 60.416C13.499 60.416 13.422 60.3063 13.422 60.087C13.422 59.9283 13.4687 59.6693 13.562 59.31C13.6973 58.7733 13.765 58.4467 13.765 58.33C13.765 58.2133 13.7463 58.155 13.709 58.155C13.4383 58.155 13.0417 58.6053 12.519 59.506C12.3417 59.814 12.1923 60.0427 12.071 60.192C11.9543 60.3413 11.8423 60.416 11.735 60.416C11.6277 60.416 11.497 60.3297 11.343 60.157C11.1937 59.9843 11.119 59.8513 11.119 59.758C11.119 59.66 11.1377 59.5177 11.175 59.331C11.217 59.1443 11.2777 58.8783 11.357 58.533C11.441 58.1877 11.5763 57.5623 11.763 56.657C11.9543 55.747 12.05 55.2407 12.05 55.138ZM16.1063 59.702C16.3583 59.59 16.5777 59.3637 16.7643 59.023C16.951 58.6823 17.0443 58.3627 17.0443 58.064C17.0443 57.7653 17.0023 57.56 16.9183 57.448C16.7177 57.5647 16.517 57.8097 16.3163 58.183C16.1203 58.5563 16.0223 58.8853 16.0223 59.17C16.0223 59.45 16.0503 59.6273 16.1063 59.702ZM15.0843 59.24C15.0843 58.6567 15.264 58.1037 15.6233 57.581C15.9873 57.0583 16.3467 56.797 16.7013 56.797C17.056 56.797 17.3547 56.923 17.5973 57.175C17.84 57.4223 17.9613 57.7233 17.9613 58.078C17.9613 58.428 17.8773 58.785 17.7093 59.149C17.5413 59.513 17.3057 59.8163 17.0023 60.059C16.699 60.297 16.3747 60.416 16.0293 60.416C15.7727 60.416 15.551 60.3017 15.3643 60.073C15.1777 59.8443 15.0843 59.5667 15.0843 59.24ZM22.5117 56.804C22.6424 56.804 22.7847 56.8483 22.9387 56.937C23.0974 57.0257 23.1767 57.119 23.1767 57.217C23.1767 57.315 23.0974 57.6463 22.9387 58.211C22.7801 58.7757 22.5304 59.2843 22.1897 59.737C21.8537 60.185 21.6041 60.409 21.4407 60.409C21.3754 60.409 21.2774 60.3623 21.1467 60.269C21.0161 60.1757 20.9227 60.0707 20.8667 59.954C20.7687 59.7627 20.7197 59.2027 20.7197 58.274C20.5191 58.9273 20.2904 59.4477 20.0337 59.835C19.7771 60.2177 19.5694 60.409 19.4107 60.409C19.3407 60.409 19.2381 60.3623 19.1027 60.269C18.9721 60.1757 18.8881 60.0823 18.8507 59.989C18.7481 59.737 18.6501 59.2563 18.5567 58.547C18.4634 57.8377 18.4167 57.3523 18.4167 57.091C18.4167 56.8997 18.4821 56.804 18.6127 56.804C18.7901 56.804 18.9721 56.9113 19.1587 57.126C19.3454 57.3407 19.4387 57.5087 19.4387 57.63C19.4387 58.3067 19.4457 58.8457 19.4597 59.247C19.6464 58.9623 19.8144 58.6077 19.9637 58.183C20.1177 57.7583 20.2414 57.4223 20.3347 57.175C20.4281 56.9277 20.5261 56.804 20.6287 56.804C20.8341 56.804 21.0371 56.9043 21.2377 57.105C21.4384 57.301 21.5387 57.5017 21.5387 57.707C21.5387 57.8003 21.5224 57.994 21.4897 58.288C21.4617 58.582 21.4477 58.8037 21.4477 58.953C21.4477 59.1023 21.4571 59.226 21.4757 59.324C21.6297 59.17 21.7627 58.9437 21.8747 58.645C21.9914 58.3463 22.0754 58.064 22.1267 57.798C22.2574 57.1353 22.3857 56.804 22.5117 56.804Z" fill="#ED3F3F"/>
<path d="M12.05 64.638C12.05 64.442 12.127 64.344 12.281 64.344C12.407 64.344 12.5517 64.449 12.715 64.659C12.8783 64.869 12.96 65.0487 12.96 65.198C12.96 65.3473 12.9297 65.5573 12.869 65.828C12.8083 66.0987 12.7453 66.346 12.68 66.57C12.6193 66.794 12.526 67.1137 12.4 67.529C12.274 67.9397 12.1877 68.2267 12.141 68.39C12.4443 67.774 12.764 67.2723 13.1 66.885C13.4407 66.4977 13.7253 66.304 13.954 66.304C14.0987 66.304 14.2643 66.4323 14.451 66.689C14.6377 66.941 14.731 67.1697 14.731 67.375C14.731 67.5757 14.6937 67.8697 14.619 68.257C14.5443 68.6443 14.4137 69.0177 14.227 69.377C14.0403 69.7363 13.849 69.916 13.653 69.916C13.499 69.916 13.422 69.8063 13.422 69.587C13.422 69.4283 13.4687 69.1693 13.562 68.81C13.6973 68.2733 13.765 67.9467 13.765 67.83C13.765 67.7133 13.7463 67.655 13.709 67.655C13.4383 67.655 13.0417 68.1053 12.519 69.006C12.3417 69.314 12.1923 69.5427 12.071 69.692C11.9543 69.8413 11.8423 69.916 11.735 69.916C11.6277 69.916 11.497 69.8297 11.343 69.657C11.1937 69.4843 11.119 69.3513 11.119 69.258C11.119 69.16 11.1377 69.0177 11.175 68.831C11.217 68.6443 11.2777 68.3783 11.357 68.033C11.441 67.6877 11.5763 67.0623 11.763 66.157C11.9543 65.247 12.05 64.7407 12.05 64.638ZM15.4063 69.202C15.6583 69.09 15.8777 68.8637 16.0643 68.523C16.251 68.1823 16.3443 67.8627 16.3443 67.564C16.3443 67.2653 16.3023 67.06 16.2183 66.948C16.0177 67.0647 15.817 67.3097 15.6163 67.683C15.4203 68.0563 15.3223 68.3853 15.3223 68.67C15.3223 68.95 15.3503 69.1273 15.4063 69.202ZM14.3843 68.74C14.3843 68.1567 14.564 67.6037 14.9233 67.081C15.2873 66.5583 15.6467 66.297 16.0013 66.297C16.356 66.297 16.6547 66.423 16.8973 66.675C17.14 66.9223 17.2613 67.2233 17.2613 67.578C17.2613 67.928 17.1773 68.285 17.0093 68.649C16.8413 69.013 16.6057 69.3163 16.3023 69.559C15.999 69.797 15.6747 69.916 15.3293 69.916C15.0727 69.916 14.851 69.8017 14.6643 69.573C14.4777 69.3443 14.3843 69.0667 14.3843 68.74ZM21.1117 66.304C21.2424 66.304 21.3847 66.3483 21.5387 66.437C21.6974 66.5257 21.7767 66.619 21.7767 66.717C21.7767 66.815 21.6974 67.1463 21.5387 67.711C21.3801 68.2757 21.1304 68.7843 20.7897 69.237C20.4537 69.685 20.2041 69.909 20.0407 69.909C19.9754 69.909 19.8774 69.8623 19.7467 69.769C19.6161 69.6757 19.5227 69.5707 19.4667 69.454C19.3687 69.2627 19.3197 68.7027 19.3197 67.774C19.1191 68.4273 18.8904 68.9477 18.6337 69.335C18.3771 69.7177 18.1694 69.909 18.0107 69.909C17.9407 69.909 17.8381 69.8623 17.7027 69.769C17.5721 69.6757 17.4881 69.5823 17.4507 69.489C17.3481 69.237 17.2501 68.7563 17.1567 68.047C17.0634 67.3377 17.0167 66.8523 17.0167 66.591C17.0167 66.3997 17.0821 66.304 17.2127 66.304C17.3901 66.304 17.5721 66.4113 17.7587 66.626C17.9454 66.8407 18.0387 67.0087 18.0387 67.13C18.0387 67.8067 18.0457 68.3457 18.0597 68.747C18.2464 68.4623 18.4144 68.1077 18.5637 67.683C18.7177 67.2583 18.8414 66.9223 18.9347 66.675C19.0281 66.4277 19.1261 66.304 19.2287 66.304C19.4341 66.304 19.6371 66.4043 19.8377 66.605C20.0384 66.801 20.1387 67.0017 20.1387 67.207C20.1387 67.3003 20.1224 67.494 20.0897 67.788C20.0617 68.082 20.0477 68.3037 20.0477 68.453C20.0477 68.6023 20.0571 68.726 20.0757 68.824C20.2297 68.67 20.3627 68.4437 20.4747 68.145C20.5914 67.8463 20.6754 67.564 20.7267 67.298C20.8574 66.6353 20.9857 66.304 21.1117 66.304ZM25.8924 66.304C26.0744 66.304 26.2261 66.4253 26.3474 66.668C26.4688 66.9107 26.5294 67.1323 26.5294 67.333C26.5294 67.5337 26.4898 67.8323 26.4104 68.229C26.3358 68.621 26.2144 69.0013 26.0464 69.37C25.8831 69.734 25.7058 69.916 25.5144 69.916C25.3604 69.916 25.2834 69.811 25.2834 69.601C25.2834 69.391 25.3441 69.048 25.4654 68.572C25.5868 68.096 25.6474 67.7833 25.6474 67.634C25.6474 67.4847 25.6241 67.41 25.5774 67.41C25.4794 67.41 25.3628 67.5173 25.2274 67.732C25.0921 67.9467 24.9288 68.2337 24.7374 68.593C24.5508 68.9523 24.4341 69.1833 24.3874 69.286C24.3408 69.3887 24.3011 69.4703 24.2684 69.531C24.2404 69.5917 24.2078 69.6547 24.1704 69.72C24.0211 69.9673 23.8228 69.9673 23.5754 69.72C23.4494 69.594 23.3864 69.4797 23.3864 69.377C23.3864 69.3583 23.4238 69.181 23.4984 68.845C23.5778 68.5043 23.6174 68.117 23.6174 67.683C23.6174 67.501 23.5964 67.41 23.5544 67.41C23.4984 67.41 23.4331 67.466 23.3584 67.578C23.2838 67.69 23.1694 67.893 23.0154 68.187C22.8614 68.481 22.7284 68.7237 22.6164 68.915C22.2244 69.5823 21.9258 69.916 21.7204 69.916C21.6178 69.916 21.4894 69.8297 21.3354 69.657C21.1861 69.4843 21.1114 69.3537 21.1114 69.265C21.1114 69.1717 21.1628 68.9523 21.2654 68.607C21.3728 68.257 21.4404 67.886 21.4684 67.494C21.5011 67.102 21.5291 66.7963 21.5524 66.577C21.5804 66.3577 21.6364 66.248 21.7204 66.248C21.8978 66.248 22.0681 66.3227 22.2314 66.472C22.3994 66.6167 22.4834 66.7497 22.4834 66.871C22.4834 67.1463 22.3831 67.627 22.1824 68.313C22.5091 67.5337 22.7844 67.0063 23.0084 66.731C23.2464 66.4463 23.4751 66.304 23.6944 66.304C23.8158 66.304 23.9651 66.416 24.1424 66.64C24.3244 66.864 24.4154 67.074 24.4154 67.27C24.4154 67.4613 24.4131 67.6293 24.4084 67.774C24.5531 67.41 24.7724 67.074 25.0664 66.766C25.3604 66.458 25.6358 66.304 25.8924 66.304ZM28.6738 66.479C28.7111 66.3623 28.7858 66.304 28.8978 66.304C29.0098 66.304 29.1381 66.3997 29.2828 66.591C29.4321 66.7823 29.5068 66.948 29.5068 67.088C29.5068 67.1393 29.3995 67.4823 29.1848 68.117C28.9701 68.7517 28.8045 69.2533 28.6878 69.622C28.6225 69.818 28.5128 69.916 28.3588 69.916C28.2655 69.916 28.1861 69.8833 28.1208 69.818C28.0601 69.748 28.0298 69.6407 28.0298 69.496C28.0298 69.3513 28.0578 69.146 28.1138 68.88C27.6331 69.5707 27.2505 69.916 26.9658 69.916C26.8165 69.916 26.6368 69.8203 26.4268 69.629C26.2168 69.433 26.1118 69.244 26.1118 69.062C26.1118 68.614 26.2378 68.0423 26.4898 67.347C26.7465 66.6517 26.9868 66.304 27.2108 66.304C27.3461 66.304 27.4651 66.3647 27.5678 66.486C27.6751 66.6073 27.7288 66.7403 27.7288 66.885C27.7288 66.941 27.6705 67.0973 27.5538 67.354C27.1991 68.124 27.0218 68.6677 27.0218 68.985C27.0218 69.013 27.0335 69.027 27.0568 69.027C27.1268 69.027 27.2575 68.9173 27.4488 68.698C27.6448 68.474 27.8618 68.1567 28.0998 67.746C28.3425 67.3307 28.5338 66.9083 28.6738 66.479ZM28.9211 68.817C28.9211 68.4903 29.0238 68.131 29.2291 67.739C29.4344 67.347 29.7028 67.011 30.0341 66.731C30.3701 66.451 30.6991 66.311 31.0211 66.311C31.1844 66.311 31.3524 66.4183 31.5251 66.633C31.6978 66.843 31.7841 67.032 31.7841 67.2C31.7841 67.3213 31.7281 67.382 31.6161 67.382C31.5601 67.382 31.4831 67.3563 31.3851 67.305C31.2871 67.2537 31.1868 67.228 31.0841 67.228C30.9814 67.228 30.8344 67.3167 30.6431 67.494C30.4564 67.6667 30.2884 67.8767 30.1391 68.124C29.9944 68.3667 29.9221 68.558 29.9221 68.698C29.9221 68.838 29.9478 68.929 29.9991 68.971C30.0551 69.013 30.1858 69.034 30.3911 69.034C30.6011 69.034 30.7901 69.0153 30.9581 68.978C31.1308 68.9407 31.2568 68.9033 31.3361 68.866C31.4201 68.824 31.4948 68.803 31.5601 68.803C31.6908 68.803 31.7561 68.859 31.7561 68.971C31.7561 69.1763 31.5764 69.3863 31.2171 69.601C30.8578 69.811 30.4984 69.916 30.1391 69.916C29.9104 69.916 29.6491 69.79 29.3551 69.538C29.0658 69.2813 28.9211 69.041 28.9211 68.817ZM32.5209 64.638C32.5209 64.442 32.5979 64.344 32.7519 64.344C32.8779 64.344 33.0226 64.449 33.1859 64.659C33.3492 64.869 33.4309 65.0487 33.4309 65.198C33.4309 65.3473 33.4006 65.5573 33.3399 65.828C33.2792 66.0987 33.2162 66.346 33.1509 66.57C33.0902 66.794 32.9969 67.1137 32.8709 67.529C32.7449 67.9397 32.6586 68.2267 32.6119 68.39C32.9152 67.774 33.2349 67.2723 33.5709 66.885C33.9116 66.4977 34.1962 66.304 34.4249 66.304C34.5696 66.304 34.7352 66.4323 34.9219 66.689C35.1086 66.941 35.2019 67.1697 35.2019 67.375C35.2019 67.5757 35.1646 67.8697 35.0899 68.257C35.0152 68.6443 34.8846 69.0177 34.6979 69.377C34.5112 69.7363 34.3199 69.916 34.1239 69.916C33.9699 69.916 33.8929 69.8063 33.8929 69.587C33.8929 69.4283 33.9396 69.1693 34.0329 68.81C34.1682 68.2733 34.2359 67.9467 34.2359 67.83C34.2359 67.7133 34.2172 67.655 34.1799 67.655C33.9092 67.655 33.5126 68.1053 32.9899 69.006C32.8126 69.314 32.6632 69.5427 32.5419 69.692C32.4252 69.8413 32.3132 69.916 32.2059 69.916C32.0986 69.916 31.9679 69.8297 31.8139 69.657C31.6646 69.4843 31.5899 69.3513 31.5899 69.258C31.5899 69.16 31.6086 69.0177 31.6459 68.831C31.6879 68.6443 31.7486 68.3783 31.8279 68.033C31.9119 67.6877 32.0472 67.0623 32.2339 66.157C32.4252 65.247 32.5209 64.7407 32.5209 64.638Z" fill="#84CFFF"/>
</svg>
