<svg width="135" height="80" viewBox="0 0 135 80" fill="none" xmlns="http://www.w3.org/2000/svg">
<rect width="135" height="80" fill="white"/>
<rect x="9" y="25" width="21" height="30" fill="#9DD194"/>
<rect x="33" y="25" width="21" height="30" fill="#ED8CBD"/>
<rect x="57" y="25" width="21" height="30" fill="#937EE7"/>
<rect x="81" y="25" width="21" height="30" fill="#FFDE6B"/>
<rect x="105" y="25" width="21" height="30" fill="#FFC46B"/>
<path d="M19.32 47.14C18.2933 47.14 17.3733 46.9733 16.56 46.64C15.7467 46.3067 15.0933 45.8133 14.6 45.16C14.12 44.5067 13.8667 43.72 13.84 42.8H17.48C17.5333 43.32 17.7133 43.72 18.02 44C18.3267 44.2667 18.7267 44.4 19.22 44.4C19.7267 44.4 20.1267 44.2867 20.42 44.06C20.7133 43.82 20.86 43.4933 20.86 43.08C20.86 42.7333 20.74 42.4467 20.5 42.22C20.2733 41.9933 19.9867 41.8067 19.64 41.66C19.3067 41.5133 18.8267 41.3467 18.2 41.16C17.2933 40.88 16.5533 40.6 15.98 40.32C15.4067 40.04 14.9133 39.6267 14.5 39.08C14.0867 38.5333 13.88 37.82 13.88 36.94C13.88 35.6333 14.3533 34.6133 15.3 33.88C16.2467 33.1333 17.48 32.76 19 32.76C20.5467 32.76 21.7933 33.1333 22.74 33.88C23.6867 34.6133 24.1933 35.64 24.26 36.96H20.56C20.5333 36.5067 20.3667 36.1533 20.06 35.9C19.7533 35.6333 19.36 35.5 18.88 35.5C18.4667 35.5 18.1333 35.6133 17.88 35.84C17.6267 36.0533 17.5 36.3667 17.5 36.78C17.5 37.2333 17.7133 37.5867 18.14 37.84C18.5667 38.0933 19.2333 38.3667 20.14 38.66C21.0467 38.9667 21.78 39.26 22.34 39.54C22.9133 39.82 23.4067 40.2267 23.82 40.76C24.2333 41.2933 24.44 41.98 24.44 42.82C24.44 43.62 24.2333 44.3467 23.82 45C23.42 45.6533 22.8333 46.1733 22.06 46.56C21.2867 46.9467 20.3733 47.14 19.32 47.14Z" fill="#7CC270"/>
<path d="M51.14 32.96V47H47.72V38.58L44.58 47H41.82L38.66 38.56V47H35.24V32.96H39.28L43.22 42.68L47.12 32.96H51.14Z" fill="#E660A4"/>
<path d="M69.98 44.52H64.74L63.9 47H60.32L65.4 32.96H69.36L74.44 47H70.82L69.98 44.52ZM69.1 41.88L67.36 36.74L65.64 41.88H69.1Z" fill="#6E52DF"/>
<path d="M93.4 47L90.48 41.7H89.66V47H86.24V32.96H91.98C93.0867 32.96 94.0267 33.1533 94.8 33.54C95.5867 33.9267 96.1733 34.46 96.56 35.14C96.9467 35.8067 97.14 36.5533 97.14 37.38C97.14 38.3133 96.8733 39.1467 96.34 39.88C95.82 40.6133 95.0467 41.1333 94.02 41.44L97.26 47H93.4ZM89.66 39.28H91.78C92.4067 39.28 92.8733 39.1267 93.18 38.82C93.5 38.5133 93.66 38.08 93.66 37.52C93.66 36.9867 93.5 36.5667 93.18 36.26C92.8733 35.9533 92.4067 35.8 91.78 35.8H89.66V39.28Z" fill="#FFD338"/>
<path d="M121.34 32.96V35.7H117.62V47H114.2V35.7H110.48V32.96H121.34Z" fill="#FF8C38"/>
</svg>
