<svg width="25" height="24" viewBox="0 0 25 24" fill="none" xmlns="http://www.w3.org/2000/svg">
<path d="M22.3055 10.0415H21.5V10H12.5V14H18.1515C17.327 16.3285 15.1115 18 12.5 18C9.1865 18 6.5 15.3135 6.5 12C6.5 8.6865 9.1865 6 12.5 6C14.0295 6 15.421 6.577 16.4805 7.5195L19.309 4.691C17.523 3.0265 15.134 2 12.5 2C6.9775 2 2.5 6.4775 2.5 12C2.5 17.5225 6.9775 22 12.5 22C18.0225 22 22.5 17.5225 22.5 12C22.5 11.3295 22.431 10.675 22.3055 10.0415Z" fill="#FFC107"/>
<path d="M3.65234 7.3455L6.93784 9.755C7.82684 7.554 9.97984 6 12.4993 6C14.0288 6 15.4203 6.577 16.4798 7.5195L19.3083 4.691C17.5223 3.0265 15.1333 2 12.4993 2C8.65834 2 5.32734 4.1685 3.65234 7.3455Z" fill="#FF3D00"/>
<path d="M12.5002 22.0003C15.0832 22.0003 17.4302 21.0118 19.2047 19.4043L16.1097 16.7853C15.0719 17.5745 13.8039 18.0014 12.5002 18.0003C9.89916 18.0003 7.69066 16.3418 6.85866 14.0273L3.59766 16.5398C5.25266 19.7783 8.61366 22.0003 12.5002 22.0003Z" fill="#4CAF50"/>
<path d="M22.3055 10.0415H21.5V10H12.5V14H18.1515C17.7571 15.1082 17.0467 16.0766 16.108 16.7855L16.1095 16.7845L19.2045 19.4035C18.9855 19.6025 22.5 17 22.5 12C22.5 11.3295 22.431 10.675 22.3055 10.0415Z" fill="#1976D2"/>
</svg>
