<svg width="24" height="24" viewBox="0 0 24 24" fill="none" xmlns="http://www.w3.org/2000/svg">
    <path fill-rule="evenodd" clip-rule="evenodd" d="M12 20.4C16.6392 20.4 20.4 16.6392 20.4 12C20.4 7.36081 16.6392 3.6 12 3.6C7.36081 3.6 3.6 7.36081 3.6 12C3.6 16.6392 7.36081 20.4 12 20.4ZM12 22C17.5228 22 22 17.5228 22 12C22 6.47715 17.5228 2 12 2C6.47715 2 2 6.47715 2 12C2 17.5228 6.47715 22 12 22Z" fill="#98ACBD"/>
    <path fill-rule="evenodd" clip-rule="evenodd" d="M11 13L11 17H13V13H17V11H13V7H11L11 11H7V13H11Z" fill="#98ACBD"/>
</svg>
