<svg width="300" height="300" viewBox="0 0 300 300" fill="none" xmlns="http://www.w3.org/2000/svg">
<g clip-path="url(#clip0_10846_21558)">
<path d="M276.304 178.466C275.944 175.885 274.553 173.514 272.648 171.758C271.454 170.658 270.059 169.798 268.539 169.226C271.653 168.181 274.328 165.591 275.322 162.521C276.769 158.055 273.947 153.135 270.128 150.838C269.152 150.25 268.085 149.829 266.969 149.593C270.711 147.387 272.499 142.584 271.563 138.138C270.914 135.054 269.038 132.257 266.597 130.292C263.829 128.063 260.321 127.002 256.8 126.802C253.148 126.595 249.531 127.376 245.967 128.125C248.024 124.223 253.418 111.908 251.68 98.4882C251.05 93.6252 249.283 88.6016 245.018 85.7808C242.226 83.9348 238.894 83.4878 235.723 84.6135C232.06 85.914 229.291 88.7883 227.802 92.3342C226.189 96.1726 226.065 100.398 225.765 104.49C225.637 106.241 225.113 112.885 224.758 114.425C223.983 117.794 221.98 120.837 219.266 122.982C217.84 124.11 216.24 125.037 214.666 125.939C209.76 128.752 204.651 131.216 199.55 133.65C193.696 136.444 172.788 145.967 168.306 148.182C160.69 151.948 153.04 156.194 146.86 162.103C140.995 167.708 136.897 175.139 137.002 183.41C137.104 191.36 141.319 199.025 147.317 204.129C151.646 207.814 156.987 210.082 162.588 210.963C165.63 211.441 192.055 210.983 196.976 210.855C202.503 210.711 208.03 210.562 213.556 210.407C218.936 210.256 259.333 211.175 266.46 204.622C268.045 203.165 269.504 201.556 270.078 199.461C270.737 197.06 270.502 194.433 269.009 192.387C268.522 191.729 267.938 191.15 267.275 190.668C270.19 189.855 272.84 187.945 274.544 185.481C275.961 183.434 276.649 180.946 276.304 178.466Z" fill="#2FB195"/>
<path d="M194.64 207.524L192.969 220.285L190.311 240.594L189.707 245.216L191.493 243.433H185.751C183.453 243.433 183.448 246.999 185.751 246.999H191.493C192.55 246.999 193.154 246.174 193.279 245.216L194.949 232.455L197.607 212.146L198.212 207.524C198.337 206.567 197.301 205.741 196.426 205.741C195.357 205.741 194.766 206.565 194.64 207.524ZM210.92 208.102L214.909 220.782L221.262 240.976L222.712 245.587C223.025 246.582 223.924 246.988 224.909 246.833L229.895 246.04C230.848 245.888 231.377 244.701 231.143 243.847C230.864 242.833 229.902 242.449 228.946 242.601L223.96 243.394L226.157 244.639L222.168 231.959L215.815 211.765L214.365 207.154C213.678 204.972 210.228 205.904 210.92 208.102Z" fill="#2FB195"/>
<path d="M195.703 153.4C191.527 150.165 185.52 151.474 182.481 155.539C179.528 159.489 180.037 165.29 184.122 168.306C184.983 168.931 185.964 169.374 187.003 169.608C191.027 170.548 195.99 168.786 198.004 165.327C200.228 161.505 199.201 156.109 195.703 153.4Z" fill="#FCF1D5"/>
<path d="M196.004 152.886C192.73 150.412 188.193 150.447 184.772 152.628C181.395 154.781 179.519 158.75 180.128 162.72C180.784 167.004 184.276 170.165 188.6 170.433C192.482 170.673 196.871 168.833 198.714 165.269C200.809 161.22 199.705 155.824 196.125 152.979C195.532 152.507 194.682 153.342 195.283 153.819C198.099 156.057 199.254 159.977 198.199 163.405C197.128 166.882 193.638 168.941 190.137 169.227C188.22 169.384 186.228 169.041 184.622 167.935C183.139 166.915 182.053 165.357 181.547 163.639C180.552 160.264 181.758 156.583 184.44 154.336C187.562 151.721 192.13 151.439 195.404 153.913C196.014 154.374 196.608 153.342 196.004 152.886Z" fill="#FCF1D5"/>
<path d="M189.904 158.411C187.445 156.579 183.835 156.895 181.957 159.429C181.567 159.963 181.292 160.572 181.147 161.216C180.561 163.713 181.658 166.792 183.812 168.04C186.191 169.419 189.55 168.783 191.237 166.612C193.25 164.023 192.434 160.296 189.904 158.411Z" fill="black"/>
<path d="M190.204 157.898C188.145 156.402 185.224 156.206 183.057 157.602C180.641 159.158 179.915 162.12 180.717 164.783C181.499 167.375 183.593 169.236 186.35 169.357C188.963 169.471 191.514 168.006 192.518 165.564C193.654 162.803 192.511 159.658 190.204 157.898C189.596 157.433 189.002 158.465 189.603 158.924C191.26 160.188 192.14 162.436 191.627 164.476C191.104 166.557 189.218 167.987 187.103 168.154C184.897 168.327 183.026 167.202 182.128 165.187C181.198 163.101 181.397 160.458 183.235 158.934C185.071 157.411 187.733 157.564 189.603 158.922C190.224 159.375 190.819 158.345 190.204 157.898Z" fill="black"/>
<path d="M225.197 157.44C224.205 153.534 220.917 150.398 216.907 149.764C212.202 149.021 207.467 151.739 206.29 156.458C205.429 160.32 206.696 164.892 209.85 167.416C213.018 169.949 217.76 169.926 221.145 167.828C224.662 165.646 226.203 161.407 225.197 157.44Z" fill="#FCF1D5"/>
<path d="M218.535 158.187C217.107 155.934 214.363 154.952 211.803 155.618C209.321 156.264 207.318 158.352 206.907 160.898C206.415 163.94 208.163 167.007 211.229 167.772C213.761 168.331 216.73 167.492 218.349 165.403C219.931 163.361 219.895 160.332 218.535 158.187Z" fill="black"/>
<path d="M192.463 171.142C192.001 170.518 191.342 170.106 190.603 169.88C189.112 169.425 187.397 169.681 186.003 170.324C185.148 170.719 184.283 171.393 184.021 172.336C183.868 172.891 183.957 173.521 184.311 173.982C184.707 174.5 185.316 174.638 185.931 174.714C187.032 174.831 188.188 174.749 189.281 174.61C190.411 174.466 192.055 174.27 192.734 173.212C193.162 172.545 192.902 171.734 192.463 171.142ZM222.507 171.407C222.35 170.499 221.566 169.819 220.774 169.427C219.407 168.751 217.727 168.551 216.243 168.912C215.53 169.086 214.824 169.428 214.313 169.965C213.787 170.519 213.322 171.395 213.596 172.166C214.027 173.378 215.755 173.573 216.84 173.678C218.137 173.803 219.51 173.804 220.799 173.584C221.345 173.482 221.871 173.287 222.211 172.825C222.512 172.418 222.591 171.899 222.507 171.407Z" fill="#E24122"/>
<path d="M203.187 176.759C202.974 176.759 202.761 176.757 202.548 176.751C197.63 176.617 192.553 174.89 192.294 171.331C192.283 171.176 192.302 171.019 192.352 170.871C192.401 170.723 192.479 170.586 192.581 170.468C192.683 170.349 192.808 170.253 192.948 170.183C193.087 170.113 193.24 170.071 193.396 170.059C193.552 170.048 193.708 170.067 193.857 170.117C194.005 170.166 194.142 170.244 194.261 170.346C194.379 170.448 194.476 170.572 194.546 170.712C194.616 170.851 194.658 171.003 194.67 171.159C194.792 172.844 198.28 174.257 202.612 174.374C206.914 174.494 211.664 173.202 211.998 170.584C212.05 170.282 212.217 170.012 212.464 169.83C212.71 169.648 213.018 169.568 213.322 169.606C213.627 169.645 213.904 169.799 214.098 170.037C214.291 170.275 214.385 170.578 214.36 170.883C213.84 174.977 208.478 176.759 203.187 176.759ZM237.828 131.708C244.235 128.782 251.543 126.808 258.61 128.078C264.483 129.133 271.017 133.027 270.974 139.727C270.951 143.265 269.129 146.556 266.802 149.12C266.289 149.686 267.129 150.529 267.644 149.961C269.884 147.492 271.636 144.475 272.066 141.13C272.503 137.732 271.313 134.454 268.979 131.971C264.252 126.941 256.567 125.945 250.046 126.794C245.584 127.375 241.305 128.817 237.225 130.68C236.531 130.999 237.136 132.024 237.828 131.708Z" fill="black"/>
<path d="M264.524 150.127C266.29 150.008 268.053 150.385 269.615 151.214C271.178 152.044 272.476 153.293 273.364 154.821C275.268 158.096 274.993 162.227 272.705 165.239C271.392 166.952 269.57 168.206 267.499 168.821C266.766 169.039 267.078 170.187 267.815 169.967C271.877 168.753 275.142 165.264 275.73 161.022C276.29 156.978 274.416 152.913 271.024 150.65C269.106 149.38 266.821 148.779 264.524 148.938C263.763 148.989 263.757 150.178 264.524 150.127Z" fill="black"/>
<path d="M265.969 169.813C269.668 169.918 273.019 171.949 274.515 175.385C276.198 179.252 275.167 183.995 272.233 186.977C270.779 188.455 268.906 189.327 266.965 189.98C266.242 190.222 266.553 191.371 267.282 191.126C269.196 190.483 271.048 189.646 272.572 188.295C274.228 186.829 275.44 184.815 276.047 182.697C277.28 178.391 275.994 173.519 272.362 170.768C270.518 169.371 268.269 168.689 265.97 168.623C265.202 168.603 265.202 169.792 265.969 169.813Z" fill="black"/>
<path d="M266.052 190.722C269.193 191.826 270.231 195.619 269.351 198.558C268.397 201.743 265.744 204.361 262.76 205.699C262.062 206.012 262.667 207.037 263.361 206.725C266.8 205.183 269.891 201.928 270.678 198.166C271.4 194.722 269.854 190.8 266.369 189.574C265.644 189.321 265.333 190.468 266.052 190.722ZM245.975 111.907C245.688 115.821 244.456 119.606 242.382 122.94C241.977 123.593 243.007 124.189 243.41 123.54C245.585 120.023 246.874 116.032 247.164 111.909C247.22 111.143 246.03 111.147 245.975 111.907ZM240.945 117.853C240.33 120.07 239.342 122.167 238.024 124.054C237.841 124.318 237.975 124.713 238.237 124.867C238.534 125.04 238.867 124.918 239.052 124.654C240.425 122.679 241.453 120.487 242.093 118.17C242.298 117.431 241.15 117.116 240.945 117.853ZM235.699 120.364L234.008 123.254C233.85 123.522 233.937 123.917 234.221 124.067C234.507 124.218 234.867 124.141 235.035 123.854L236.726 120.964C236.883 120.696 236.796 120.301 236.513 120.151C236.376 120.074 236.215 120.054 236.063 120.093C235.911 120.133 235.78 120.23 235.699 120.364ZM168.398 141.383L192.888 128.763C193.569 128.413 192.968 127.387 192.287 127.738L167.797 140.357C167.115 140.708 167.717 141.733 168.398 141.383Z" fill="black"/>
<path d="M188.514 130.222C187.828 127.727 187.089 125.157 185.376 123.147C183.804 121.302 181.558 120.253 179.118 120.579C176.643 120.91 174.034 122.243 172.086 123.782C170.106 125.347 169.068 127.575 169.06 130.091C169.051 133.171 170.477 135.979 171.862 138.648C172.008 138.929 172.269 138.984 172.5 138.91C172.559 138.9 172.616 138.891 172.676 138.86L186.305 131.881L188.238 130.891C188.472 130.775 188.58 130.466 188.514 130.222Z" fill="black"/>
<path d="M174.07 136.313L175.602 135.516C175.737 135.436 175.836 135.306 175.876 135.154C175.915 135.001 175.894 134.84 175.815 134.703C175.733 134.57 175.602 134.473 175.451 134.433C175.299 134.394 175.137 134.414 175 134.491L173.469 135.287C173.334 135.367 173.235 135.498 173.195 135.65C173.155 135.802 173.177 135.964 173.256 136.1C173.338 136.233 173.469 136.329 173.621 136.369C173.772 136.409 173.933 136.389 174.07 136.313ZM178.592 134.013L180.28 132.968C180.545 132.804 180.671 132.429 180.493 132.155C180.322 131.89 179.962 131.766 179.679 131.942L177.99 132.987C177.726 133.151 177.6 133.525 177.777 133.8C177.948 134.064 178.308 134.188 178.592 134.013ZM183.682 131.564L185.692 130.438C185.964 130.286 186.078 129.892 185.905 129.625C185.824 129.492 185.693 129.395 185.541 129.355C185.389 129.315 185.228 129.336 185.091 129.412L183.081 130.538C182.809 130.69 182.695 131.085 182.868 131.351C182.95 131.485 183.08 131.582 183.232 131.621C183.384 131.661 183.545 131.641 183.682 131.564ZM179.981 149.767C179.712 149.768 179.45 149.677 179.239 149.51C179.028 149.344 178.879 149.11 178.818 148.848C178.757 148.586 178.786 148.312 178.902 148.069C179.017 147.826 179.212 147.629 179.454 147.511C179.836 147.323 188.905 142.952 197.047 146.052C197.193 146.108 197.327 146.192 197.441 146.299C197.555 146.406 197.646 146.535 197.71 146.677C197.774 146.82 197.809 146.973 197.813 147.129C197.818 147.285 197.791 147.441 197.736 147.587C197.68 147.733 197.596 147.866 197.488 147.98C197.381 148.093 197.252 148.184 197.11 148.248C196.967 148.312 196.813 148.347 196.657 148.351C196.5 148.356 196.344 148.329 196.198 148.274C189.037 145.548 180.587 149.604 180.503 149.644C180.341 149.725 180.162 149.767 179.981 149.767ZM224.086 148.548C223.905 148.548 223.726 148.507 223.563 148.427C223.479 148.387 215.029 144.331 207.868 147.057C207.573 147.169 207.245 147.16 206.957 147.031C206.668 146.902 206.443 146.664 206.331 146.369C206.218 146.075 206.227 145.748 206.356 145.46C206.485 145.172 206.724 144.947 207.019 144.835C215.161 141.736 224.23 146.106 224.612 146.293C224.853 146.412 225.047 146.609 225.162 146.851C225.277 147.094 225.307 147.368 225.246 147.629C225.185 147.891 225.037 148.124 224.826 148.291C224.616 148.458 224.355 148.548 224.086 148.548Z" fill="#E24122"/>
</g>
<g clip-path="url(#clip1_10846_21558)">
<path d="M176.364 244.053L140.476 127.163C140.287 126.536 139.899 125.986 139.369 125.596C138.84 125.206 138.199 124.997 137.54 125H49.4801C49.3959 125.001 49.3131 125.021 49.2369 125.056C49.2124 125.067 49.1915 125.082 49.1682 125.097C49.1399 125.114 49.108 125.125 49.0834 125.147L42.0438 131.098C41.6068 131.471 41.2831 131.958 41.1091 132.504C40.9352 133.049 40.9178 133.633 41.059 134.188L52.4295 178.18C52.3172 178.241 52.2273 178.336 52.1729 178.452L23.2627 243.713C22.8415 244.661 22.9299 245.745 23.4985 246.614C24.067 247.483 25.0285 248.001 26.071 248.001H60.2514C60.8805 248 61.494 247.807 62.0097 247.448C62.5253 247.089 62.9182 246.582 63.1358 245.995L67.14 235.09L69.8574 245.602C70.027 246.258 70.4106 246.839 70.948 247.254C71.4854 247.67 72.1462 247.895 72.8265 247.896L80.641 247.905C80.7352 247.965 80.8445 247.998 80.9566 248H173.428C174.411 248 175.31 247.549 175.896 246.762C176.482 245.975 176.65 244.989 176.364 244.053Z" fill="#F6A50C"/>
<path d="M80.9566 248.001C80.8204 248.001 80.688 247.956 80.5805 247.873C80.4729 247.79 80.3961 247.673 80.3623 247.542L48.8846 125.764C48.8645 125.686 48.86 125.605 48.8713 125.526C48.8827 125.446 48.9097 125.37 48.9507 125.301C48.9918 125.232 49.0461 125.171 49.1106 125.123C49.1751 125.075 49.2485 125.04 49.3266 125.02C49.4047 125 49.4861 124.995 49.5659 125.006C49.6458 125.018 49.7226 125.045 49.7921 125.085C49.8615 125.126 49.9222 125.18 49.9706 125.245C50.0191 125.309 50.0543 125.382 50.0744 125.46L81.5522 247.237C81.5756 247.328 81.578 247.422 81.559 247.514C81.54 247.605 81.5003 247.691 81.4428 247.765C81.3853 247.839 81.3116 247.898 81.2273 247.939C81.143 247.98 81.0504 248.001 80.9566 248.001ZM67.199 236.959C67.0622 236.959 66.9293 236.914 66.8215 236.83C66.7136 236.747 66.6368 236.63 66.6035 236.497L51.8279 177.862C51.8083 177.784 51.8043 177.703 51.8161 177.623C51.828 177.544 51.8554 177.468 51.8968 177.399C51.9383 177.33 51.9929 177.27 52.0577 177.222C52.1224 177.174 52.196 177.14 52.2742 177.12C52.3524 177.101 52.4337 177.097 52.5135 177.109C52.5933 177.12 52.6699 177.148 52.739 177.189C52.8082 177.23 52.8685 177.285 52.9165 177.349C52.9646 177.413 52.9994 177.487 53.019 177.565L67.7946 236.199C67.8176 236.289 67.8196 236.384 67.8004 236.475C67.7813 236.566 67.7414 236.651 67.6839 236.725C67.6265 236.798 67.5529 236.857 67.4688 236.898C67.3848 236.939 67.2925 236.96 67.199 236.959Z" fill="black"/>
<path d="M164.579 237.914L88.0774 238.383L61.2866 133.653L132.397 132.553L164.579 237.914Z" fill="white"/>
<path d="M109.987 158.777C139.251 156.094 153.15 202.327 153.15 202.327L165.119 237.302L88.0771 238.382L82.1413 213.043C82.1413 213.044 75.3877 161.948 109.987 158.777Z" fill="#6166F0"/>
<path d="M128.349 186.123C127.505 181.21 125.378 176.812 122.362 173.737C119.287 170.603 115.659 169.211 112.13 169.805C108.606 170.407 105.646 172.927 103.795 176.902C101.98 180.801 101.446 185.653 102.29 190.564C103.921 200.036 110.288 207.015 116.929 207.015C117.459 207.015 117.988 206.971 118.51 206.882C122.034 206.281 124.994 203.761 126.845 199.785C128.66 195.887 129.195 191.035 128.349 186.123Z" fill="#FCF1D5"/>
<path d="M126.747 188.685C126.388 186.525 125.2 184.589 123.433 183.284C122.579 182.646 121.603 182.189 120.565 181.939C119.527 181.689 118.448 181.652 117.395 181.83C113.02 182.576 110.093 186.866 110.872 191.39C111.231 193.55 112.419 195.486 114.184 196.791C115.544 197.803 117.195 198.352 118.892 198.356C119.333 198.356 119.779 198.32 120.221 198.244C122.345 197.881 124.194 196.685 125.427 194.872C126.658 193.058 127.131 190.839 126.747 188.685Z" fill="black"/>
<path d="M128.859 175.5C129.391 180.149 121.995 186.324 113.44 186.426C104.924 186.528 98.021 184.549 98.021 178.514C98.021 172.479 104.924 164.575 113.44 164.575C121.956 164.575 128.174 169.505 128.859 175.5Z" fill="#6166F0"/>
<path d="M100.327 174.233C100.072 174.234 99.8228 174.156 99.6144 174.009C99.406 173.862 99.2487 173.655 99.1645 173.415C99.0803 173.175 99.0734 172.915 99.1447 172.671C99.216 172.427 99.362 172.212 99.5623 172.054C100.023 171.69 111.015 163.223 125.061 169.72C125.357 169.856 125.585 170.104 125.697 170.409C125.809 170.713 125.795 171.049 125.657 171.343C125.52 171.637 125.271 171.865 124.965 171.976C124.659 172.088 124.322 172.073 124.026 171.937C111.385 166.09 101.5 173.646 101.085 173.972C100.869 174.141 100.602 174.233 100.327 174.233ZM111.764 187.287C105.661 187.287 100.454 186.071 100.037 185.97C99.8778 185.936 99.7266 185.87 99.5929 185.776C99.4592 185.682 99.3456 185.563 99.2588 185.425C99.172 185.287 99.1137 185.134 99.0873 184.973C99.061 184.813 99.0671 184.648 99.1054 184.49C99.1437 184.332 99.2133 184.183 99.3101 184.052C99.407 183.921 99.5292 183.811 99.6696 183.727C99.8099 183.644 99.9656 183.589 100.127 183.566C100.289 183.543 100.454 183.553 100.612 183.595C100.799 183.639 119.297 187.95 126.597 180.165C126.822 179.937 127.127 179.805 127.447 179.797C127.768 179.79 128.079 179.908 128.314 180.125C128.548 180.343 128.688 180.644 128.703 180.963C128.717 181.282 128.606 181.594 128.393 181.832C124.334 186.161 117.635 187.287 111.764 187.287Z" fill="black"/>
<path d="M131.538 183.349C129.107 183.349 127.002 182.129 126.868 182.05C126.588 181.885 126.385 181.615 126.305 181.301C126.224 180.987 126.272 180.654 126.437 180.375C126.603 180.097 126.874 179.895 127.189 179.814C127.505 179.734 127.839 179.781 128.12 179.947C128.179 179.981 131.682 181.976 133.881 180.076C134.127 179.863 134.448 179.757 134.773 179.779C135.098 179.802 135.4 179.952 135.614 180.197C135.827 180.442 135.935 180.761 135.912 181.084C135.889 181.408 135.738 181.709 135.492 181.921C134.249 182.996 132.846 183.349 131.538 183.349Z" fill="black"/>
<path d="M137.036 201.307C136.455 199.973 134.993 199.262 133.633 198.97C131.319 198.471 128.735 198.795 126.613 199.836C125.594 200.336 124.666 201.062 124.04 202.015C123.408 202.976 122.934 204.505 123.556 205.568C124.532 207.239 127.265 206.892 128.848 206.673C131.024 206.374 133.281 205.838 135.3 204.96C135.992 204.647 136.685 204.235 137.035 203.531C137.381 202.834 137.342 202.008 137.036 201.307ZM111.139 202.385C109.157 201.098 106.533 200.654 104.207 200.941C102.755 201.121 101.169 201.62 100.271 202.849C99.7623 203.544 99.54 204.485 99.8102 205.32C100.096 206.201 100.872 206.707 101.678 207.071C103.431 207.834 105.36 208.312 107.239 208.644C108.942 208.946 111.636 209.457 113.058 208.13C113.937 207.31 113.777 205.959 113.362 204.944C112.922 203.867 112.11 203.014 111.139 202.385Z" fill="#E24122"/>
<path d="M110.313 154.613C110.808 152.563 111.314 150.485 112.325 148.631C113.335 146.777 114.926 145.142 116.957 144.537C118.754 144.002 120.691 144.317 122.51 144.767C124.485 145.255 126.538 145.975 127.804 147.56C129.032 149.097 129.302 151.221 128.975 153.156C128.648 155.092 127.788 156.891 126.936 158.662" fill="#F9C8B7"/>
<path d="M110.906 154.776C111.864 150.816 113.405 145.319 118.326 144.895C120.507 144.707 123.027 145.317 125.006 146.232C126.968 147.139 128.247 148.739 128.454 150.913C128.707 153.556 127.52 156.035 126.406 158.355C126.067 159.062 127.126 159.683 127.466 158.973C128.592 156.629 129.764 154.164 129.715 151.505C129.672 149.155 128.653 147.029 126.649 145.736C124.648 144.444 121.94 143.802 119.584 143.664C117.036 143.515 114.738 144.519 113.089 146.45C111.154 148.714 110.405 151.626 109.721 154.452C109.537 155.215 110.721 155.541 110.906 154.776Z" fill="black"/>
<path d="M112.867 153.754L114.511 154.144C114.671 154.184 114.84 154.162 114.984 154.083C115.121 154.001 115.222 153.871 115.266 153.717C115.337 153.403 115.172 153.045 114.838 152.966L113.193 152.576C113.034 152.536 112.865 152.558 112.721 152.637C112.583 152.719 112.482 152.849 112.438 153.003C112.367 153.315 112.533 153.675 112.867 153.754ZM117.686 154.942L119.606 155.249C119.774 155.276 119.926 155.276 120.078 155.188C120.216 155.106 120.317 154.975 120.361 154.822C120.382 154.744 120.388 154.662 120.377 154.581C120.367 154.5 120.34 154.422 120.299 154.352C120.218 154.226 120.087 154.095 119.932 154.071L118.013 153.764C117.845 153.737 117.693 153.737 117.54 153.825C117.403 153.906 117.302 154.037 117.258 154.19C117.237 154.269 117.231 154.351 117.242 154.432C117.252 154.512 117.278 154.59 117.319 154.661C117.4 154.786 117.532 154.916 117.686 154.942ZM123.022 156.383L125.231 156.834C125.544 156.897 125.909 156.743 125.986 156.407C126.056 156.102 125.894 155.724 125.557 155.656L123.348 155.205C123.035 155.141 122.671 155.295 122.593 155.631C122.523 155.937 122.685 156.314 123.022 156.383ZM105.369 154.331L131.578 160.646C132.345 160.83 132.673 159.652 131.905 159.468L105.696 153.153C104.927 152.968 104.6 154.146 105.369 154.331Z" fill="black"/>
<path d="M106.535 159.829C104.248 160.515 101.616 159.52 100.356 157.489C98.9049 155.151 99.8774 152.076 98.2001 149.798C95.6619 146.352 89.9202 146.552 88.1471 150.616C87.1905 152.807 87.5245 155.467 89.1982 157.22C89.6169 157.659 90.4028 157.207 90.2247 156.626C89.6844 154.87 89.0692 153.006 87.5442 151.845C86.2745 150.878 84.5419 150.584 83.1605 151.504C81.9203 152.33 81.2326 153.804 81.1455 155.261C81.0288 157.215 81.9657 159.073 82.8203 160.768L83.7843 160.027C82.5588 158.486 81.1663 156.863 79.1083 156.521C77.4199 156.241 75.7254 156.982 75.0734 158.611C74.4545 160.157 74.8425 161.987 75.4295 163.483C76.0164 164.978 76.9398 166.844 78.6761 167.225C80.0158 167.519 81.8012 166.667 81.8245 165.15C81.8478 163.621 79.5393 163.376 78.476 163.703C76.9349 164.179 75.9722 165.464 75.8679 167.052C75.7401 168.993 76.8625 170.865 78.1592 172.224C80.9551 175.157 85.4591 176.545 89.2571 174.809C89.9742 174.481 89.3517 173.426 88.637 173.754C86.2168 174.861 83.4061 174.38 81.1725 173.062C80.033 172.39 79.0003 171.491 78.2365 170.408C77.415 169.244 76.682 167.575 77.2996 166.16C77.6839 165.279 78.751 164.669 79.7112 164.771C80.0354 164.806 80.615 164.969 80.5671 165.316C80.4947 165.84 79.6253 166.079 79.2017 166.063C77.8964 166.016 77.1437 164.412 76.7102 163.389C76.251 162.306 75.89 161.066 76.0177 159.881C76.1859 158.32 77.4678 157.438 79.0101 157.741C80.7329 158.079 81.892 159.601 82.9186 160.891C83.3729 161.462 84.1784 160.736 83.8825 160.151C82.7872 157.981 81.2584 154.667 83.5927 152.704C84.6708 151.799 86.0989 152.148 87.069 153.035C88.1765 154.049 88.6161 155.565 89.0422 156.951L90.0688 156.357C88.6947 154.918 88.4897 152.641 89.3701 150.888C90.3033 149.032 92.3343 148.234 94.3284 148.693C96.6296 149.225 97.8231 150.955 98.1288 153.203C98.4506 155.577 98.5807 157.857 100.517 159.543C102.24 161.044 104.653 161.67 106.864 161.009C107.616 160.781 107.294 159.602 106.535 159.829Z" fill="#6166F0"/>
<path d="M131.347 188.026C125.954 188.026 124.132 183.344 124.109 183.285C123.999 182.983 124.014 182.649 124.149 182.357C124.285 182.065 124.531 181.838 124.834 181.725C125.136 181.612 125.472 181.623 125.767 181.754C126.062 181.886 126.293 182.128 126.409 182.429C126.605 182.93 128.475 187.194 134.733 184.903C134.885 184.848 135.046 184.823 135.207 184.829C135.368 184.836 135.526 184.874 135.673 184.941C135.819 185.009 135.951 185.104 136.06 185.222C136.17 185.34 136.254 185.479 136.31 185.629C136.366 185.78 136.391 185.94 136.384 186.101C136.378 186.261 136.34 186.419 136.272 186.564C136.204 186.71 136.108 186.841 135.99 186.95C135.871 187.059 135.732 187.143 135.581 187.199C133.972 187.786 132.567 188.026 131.347 188.026Z" fill="black"/>
<path d="M126.895 185.343C126.87 185.343 126.845 185.343 126.821 185.341C126.66 185.332 126.502 185.291 126.357 185.221C126.212 185.151 126.082 185.053 125.975 184.933C125.868 184.813 125.785 184.673 125.732 184.522C125.68 184.37 125.657 184.209 125.667 184.049L125.818 181.489C125.837 181.165 125.984 180.862 126.228 180.647C126.471 180.431 126.79 180.321 127.116 180.34C127.441 180.359 127.745 180.506 127.962 180.748C128.178 180.99 128.289 181.308 128.27 181.632L128.119 184.192C128.101 184.503 127.964 184.796 127.736 185.01C127.509 185.224 127.208 185.343 126.895 185.343Z" fill="black"/>
<path d="M162.122 239.605H89.9673C89.1547 239.605 88.3651 239.337 87.7211 238.844C87.0772 238.35 86.615 237.659 86.4063 236.878L59.5431 135.936C59.3967 135.393 59.3785 134.824 59.4899 134.273C59.6013 133.722 59.8393 133.204 60.1853 132.76C60.5279 132.314 60.9697 131.953 61.476 131.705C61.9824 131.456 62.5397 131.328 63.1041 131.331H130.589C132.211 131.331 133.625 132.367 134.107 133.908L165.64 234.85C165.992 235.974 165.791 237.164 165.089 238.112C164.387 239.06 163.306 239.605 162.122 239.605ZM63.1041 133.775C62.916 133.774 62.7302 133.817 62.5615 133.899C62.3927 133.982 62.2455 134.103 62.1315 134.251C62.0162 134.399 61.9369 134.572 61.8998 134.756C61.8628 134.939 61.8689 135.129 61.9179 135.31L88.7799 236.252C88.9223 236.787 89.411 237.161 89.9673 237.161H162.122C162.315 237.162 162.505 237.118 162.677 237.031C162.849 236.945 162.998 236.819 163.111 236.664C163.226 236.51 163.303 236.331 163.335 236.142C163.367 235.953 163.353 235.759 163.295 235.576L131.762 134.634C131.685 134.384 131.53 134.166 131.318 134.012C131.107 133.857 130.852 133.774 130.589 133.775H63.1041Z" fill="#F6A50C"/>
</g>
<g clip-path="url(#clip2_10846_21558)">
<path d="M167.983 99.1692C167.452 92.1953 159.352 90.9932 156.099 93.8281C155.501 90.3903 147.514 86.1373 143.273 91.6616C138.822 97.4588 147.248 110.049 150.112 114C154.655 112.299 168.542 106.489 167.983 99.1692Z" fill="#E24122"/>
</g>
<g clip-path="url(#clip3_10846_21558)">
<path d="M147.961 62.5713C144.71 59.2943 140.166 62.1271 139.762 64.9307C137.992 63.4581 132.197 64.7108 132.452 69.2842C132.72 74.0842 142.304 76.8323 145.421 77.6013C146.953 74.8199 151.374 66.0102 147.961 62.5713Z" fill="#E24122"/>
</g>
<defs>
<clipPath id="clip0_10846_21558">
<rect width="139.5" height="163" fill="white" transform="translate(137 84)"/>
</clipPath>
<clipPath id="clip1_10846_21558">
<rect width="153.5" height="123" fill="white" transform="translate(23 125)"/>
</clipPath>
<clipPath id="clip2_10846_21558">
<rect width="26" height="25" fill="white" transform="translate(142 89)"/>
</clipPath>
<clipPath id="clip3_10846_21558">
<rect width="17" height="16.5" fill="white" transform="translate(130.679 68.4878) rotate(-40.4556)"/>
</clipPath>
</defs>
</svg>
