<svg width="135" height="80" viewBox="0 0 135 80" fill="none" xmlns="http://www.w3.org/2000/svg">
<rect width="135" height="80" fill="white"/>
<rect x="10" y="7" width="29" height="65" fill="#937EE7"/>
<rect x="39" y="7" width="29" height="65" fill="#B8E3FF"/>
<rect x="68" y="7" width="29" height="65" fill="#937EE7"/>
<rect x="97" y="7" width="29" height="65" fill="#B8E3FF"/>
<rect x="22" y="27" width="13" height="13" fill="white"/>
<rect x="22.05" y="27.05" width="12.9" height="12.9" stroke="black" stroke-opacity="0.3" stroke-width="0.1"/>
<rect x="47" y="24" width="13" height="13" fill="#ED8CBD"/>
<rect x="47.05" y="24.05" width="12.9" height="12.9" stroke="black" stroke-opacity="0.3" stroke-width="0.1"/>
<rect x="73" y="36" width="13" height="13" fill="#ED8CBD"/>
<rect x="73.05" y="36.05" width="12.9" height="12.9" stroke="black" stroke-opacity="0.3" stroke-width="0.1"/>
<rect x="13" y="53" width="13" height="13" fill="#FFDE6B"/>
<rect x="13.05" y="53.05" width="12.9" height="12.9" stroke="black" stroke-opacity="0.1" stroke-width="0.1"/>
<rect x="101" y="22" width="13" height="13" fill="white"/>
<rect x="109" y="46" width="13" height="13" fill="#FFDE6B"/>
<rect x="109.05" y="46.05" width="12.9" height="12.9" stroke="black" stroke-opacity="0.1" stroke-width="0.1"/>
<rect x="80" y="26" width="13" height="13" fill="#FFDE6B"/>
<rect x="80.05" y="26.05" width="12.9" height="12.9" stroke="black" stroke-opacity="0.1" stroke-width="0.1"/>
<rect x="15" y="18" width="13" height="13" fill="#B8E3FF"/>
<rect x="15.05" y="18.05" width="12.9" height="12.9" stroke="black" stroke-opacity="0.3" stroke-width="0.1"/>
</svg>
