<svg width="405" height="240" viewBox="0 0 405 240" fill="none" xmlns="http://www.w3.org/2000/svg">
<path d="M197.311 54.1072C194.426 58.6753 192.006 63.5659 189.501 68.3459C182.817 81.1013 176.289 93.9287 169.424 106.59C164.329 115.987 158.618 125.091 154.222 134.85C149.571 145.178 146.32 155.912 142.872 166.666C141.928 169.61 140.533 171.872 138.959 174.507C136.527 178.579 134.36 182.779 132.189 186.991C129.97 191.296 127.576 195.674 126.04 200.283" stroke="#C8C8C8" stroke-width="15" stroke-linecap="round"/>
<path d="M126.04 200.562C138.42 200.046 150.792 199.224 163.182 198.947C171.471 198.762 179.769 199.071 188.057 198.823C193.006 198.675 197.905 198.12 202.839 197.829C208.393 197.503 213.985 197.893 219.546 197.752C226.112 197.586 232.703 197.08 239.266 196.774C244.336 196.537 249.473 196.362 254.53 195.935C260.348 195.444 266.185 194.359 271.952 193.466C273.601 193.211 275.3 192.457 276.967 192.457" stroke="#C8C8C8" stroke-width="15" stroke-linecap="round"/>
<path d="M196.473 51.5918C196.805 52.5897 197.376 53.4565 197.948 54.3402C200.8 58.7485 203.987 62.9448 207.124 67.1503C216.887 80.2361 226.727 93.2651 236.502 106.342C246.53 119.756 256.39 133.294 266.408 146.713C268.713 149.8 270.989 152.946 273.458 155.905C276.857 159.98 280.972 163.916 283.395 168.7C284.689 171.254 285.186 174.08 285.849 176.836C286.386 179.073 286.709 181.495 286.749 183.793C286.779 185.501 285.79 186.35 285.414 187.923C284.63 191.202 284.297 192.987 281.159 194.413" stroke="#C8C8C8" stroke-width="15" stroke-linecap="round"/>
<path d="M176.069 92.957C184.313 95.2926 191.968 99.6975 199.671 103.36C205.699 106.226 211.807 108.896 217.869 111.683C223.551 114.295 228.902 117.471 234.36 120.503C237.738 122.379 241.262 124.163 244.825 125.658C248.177 127.064 251.975 128.784 254.887 130.968" stroke="#C8C8C8" stroke-width="15" stroke-linecap="round"/>
<path d="M172.995 97.9879C172.932 109.643 171.186 121.126 168.927 132.552C166.192 146.388 163.004 160.032 161.055 174.026C159.817 182.908 159.3 191.88 159.3 200.842" stroke="#C8C8C8" stroke-width="15" stroke-linecap="round"/>
<path d="M159.579 201.121C170.914 197.366 182.247 193.175 192.715 187.364C201.586 182.439 209.755 176.167 217.093 169.181C222.762 163.785 228.372 158.776 234.779 154.29C239.895 150.709 245.054 147.175 250.136 143.545C251.462 142.598 252.925 142.135 254.359 141.418C255.869 140.663 257.19 139.538 258.52 138.515" stroke="#C8C8C8" stroke-width="15" stroke-linecap="round"/>
<path d="M170.759 131.807C179.791 125.125 189.13 118.145 199.656 113.935C202.767 112.69 205.546 110.92 208.491 109.447" stroke="#C8C8C8" stroke-width="15" stroke-linecap="round"/>
<path d="M209.05 109.447C209.255 117.44 210.203 125.347 210.168 133.359C210.139 139.832 209.837 146.293 209.888 152.769C209.926 157.467 211.109 162.093 211.845 166.712C212.095 168.282 212.683 169.896 212.683 171.495" stroke="#C8C8C8" stroke-width="15" stroke-linecap="round"/>
<path d="M212.683 171.495C204.185 166.734 195.833 161.73 187.358 156.93C183.371 154.672 179.018 153.035 175.107 150.688C172.976 149.409 170.999 147.718 168.803 146.62" stroke="#C8C8C8" stroke-width="15" stroke-linecap="round"/>
<path d="M184.734 127.614C184.734 135.533 185.35 143.421 185.293 151.34C185.29 151.772 185.205 157.971 185.262 157.924C188.211 155.441 190.693 152.353 193.678 149.865C195.743 148.144 198.146 146.707 200.432 145.3C201.901 144.396 203.569 143.834 205.044 142.94C206.418 142.107 209.368 140.635 209.888 139.074" stroke="#C8C8C8" stroke-width="15" stroke-linecap="round"/>
<path d="M209.888 138.794C205.93 136.244 201.752 134.034 197.373 132.304C195.095 131.403 192.671 130.778 190.541 129.571C188.808 128.589 186.627 127.686 184.734 127.055" stroke="#C8C8C8" stroke-width="15" stroke-linecap="round"/>
<path d="M188.271 41.5154C185.386 46.0835 182.965 50.9741 180.461 55.7541C173.777 68.5095 167.249 81.3369 160.384 93.9983C155.289 103.395 149.578 112.499 145.182 122.258C140.531 132.586 137.28 143.32 133.832 154.074C132.888 157.018 131.493 159.28 129.919 161.915C127.487 165.987 125.32 170.187 123.149 174.399C120.93 178.704 118.536 183.082 117 187.691" stroke="black" stroke-width="15" stroke-linecap="round"/>
<path d="M117 187.97C129.38 187.455 141.752 186.632 154.142 186.356C162.431 186.171 170.729 186.479 179.017 186.231C183.966 186.083 188.865 185.528 193.799 185.238C199.353 184.911 204.945 185.301 210.506 185.16C217.072 184.994 223.663 184.488 230.226 184.182C235.296 183.945 240.433 183.77 245.49 183.343C251.307 182.853 257.145 181.767 262.912 180.874C264.561 180.619 266.26 179.865 267.927 179.865" stroke="black" stroke-width="15" stroke-linecap="round"/>
<path d="M187.432 39C187.765 39.9979 188.336 40.8647 188.908 41.7484C191.76 46.1567 194.947 50.353 198.084 54.5585C207.847 67.6443 217.687 80.6733 227.462 93.7498C237.49 107.164 247.35 120.702 257.368 134.121C259.673 137.208 261.949 140.354 264.418 143.314C267.817 147.388 271.932 151.325 274.355 156.108C275.649 158.662 276.146 161.489 276.809 164.245C277.346 166.482 277.669 168.903 277.709 171.201C277.739 172.909 276.75 173.758 276.374 175.331C275.59 178.61 275.257 180.395 272.119 181.822" stroke="black" stroke-width="15" stroke-linecap="round"/>
<path d="M167.029 80.3652C175.273 82.7008 182.928 87.1057 190.631 90.7686C196.659 93.6347 202.767 96.3044 208.829 99.0913C214.511 101.703 219.862 104.879 225.32 107.911C228.698 109.788 232.222 111.572 235.785 113.066C239.137 114.472 242.935 116.193 245.847 118.376" stroke="black" stroke-width="15" stroke-linecap="round"/>
<path d="M163.955 85.3961C163.892 97.051 162.146 108.534 159.887 119.96C157.152 133.797 153.964 147.441 152.014 161.434C150.777 170.316 150.26 179.288 150.26 188.25" stroke="black" stroke-width="15" stroke-linecap="round"/>
<path d="M150.539 188.529C161.874 184.774 173.207 180.584 183.675 174.772C192.546 169.847 200.715 163.575 208.053 156.589C213.722 151.193 219.332 146.184 225.739 141.699C230.855 138.117 236.014 134.583 241.095 130.954C242.422 130.006 243.885 129.543 245.319 128.826C246.829 128.072 248.15 126.946 249.48 125.923" stroke="black" stroke-width="15" stroke-linecap="round"/>
<path d="M161.719 119.215C170.751 112.533 180.09 105.553 190.616 101.343C193.727 100.098 196.506 98.3278 199.451 96.8553" stroke="black" stroke-width="15" stroke-linecap="round"/>
<path d="M200.01 96.8553C200.215 104.848 201.163 112.755 201.128 120.768C201.099 127.24 200.797 133.701 200.848 140.177C200.886 144.875 202.069 149.501 202.805 154.121C203.055 155.69 203.643 157.304 203.643 158.903" stroke="black" stroke-width="15" stroke-linecap="round"/>
<path d="M203.643 158.903C195.145 154.142 186.793 149.138 178.318 144.338C174.331 142.08 169.978 140.443 166.067 138.096C163.936 136.818 161.959 135.126 159.763 134.028" stroke="black" stroke-width="15" stroke-linecap="round"/>
<path d="M175.694 115.022C175.694 122.941 176.31 130.83 176.253 138.748C176.25 139.18 176.165 145.38 176.222 145.332C179.17 142.849 181.653 139.761 184.638 137.273C186.703 135.553 189.106 134.115 191.392 132.708C192.861 131.804 194.529 131.242 196.004 130.348C197.378 129.515 200.328 128.043 200.848 126.482" stroke="black" stroke-width="15" stroke-linecap="round"/>
<path d="M200.848 126.202C196.89 123.653 192.712 121.442 188.333 119.712C186.055 118.811 183.631 118.186 181.501 116.979C179.768 115.997 177.587 115.094 175.694 114.464" stroke="black" stroke-width="15" stroke-linecap="round"/>
</svg>
