<svg width="405" height="240" viewBox="0 0 405 240" fill="none" xmlns="http://www.w3.org/2000/svg">
<path d="M195.573 81C195.684 83.1073 195.667 85.3779 195.47 87.7721C195.921 109.965 204.988 135.687 255.497 126.507C256.644 126.268 257.811 126.042 259 125.827C257.811 126.072 256.643 126.298 255.497 126.507C204.559 137.089 194.389 170.768 195.066 201.163C195.573 205.154 195.874 209.427 195.944 214C195.486 209.841 195.164 205.536 195.066 201.163C189.864 160.185 162.984 148.941 142.707 147.651C141.52 147.576 141.156 145.286 142.27 144.871C182.864 129.778 194.023 105.42 195.47 87.7721C195.423 85.462 195.47 83.1902 195.573 81Z" fill="#9ABCFF"/>
<path d="M261.173 31C261.215 31.8107 261.233 32.7155 261.192 33.688C261.652 40.9546 265.716 49.2058 281.901 46.2165C282.261 46.1404 282.628 46.0682 283 46C282.628 46.0778 282.261 46.15 281.901 46.2165C265.117 49.7577 260.899 61.687 260.942 71.9539C261.072 73.2154 261.151 74.5624 261.173 76C261.032 74.6982 260.948 73.3412 260.942 71.9539C259.313 56.1952 249.632 53.7587 243 54.25C258.098 49.4859 260.921 40.1094 261.192 33.688C261.133 32.768 261.133 31.8637 261.173 31Z" fill="#9ABCFF"/>
<path d="M184.669 61C185.656 79.6182 174.304 120.997 121 137.569C142.963 135.966 187.112 147.408 188 206C184.298 172.339 193.552 127.952 255 116.855C196.07 128.987 183.558 84.6735 184.669 61Z" stroke="black" stroke-width="15" stroke-linejoin="round"/>
<path d="M257.906 26C258.23 32.0349 254.503 45.4474 237 50.8189C244.212 50.2993 258.708 54.0082 259 73C257.785 62.0893 260.823 47.7015 281 44.1046C261.65 48.0372 257.541 33.6735 257.906 26Z" stroke="black" stroke-width="10" stroke-linejoin="round"/>
</svg>
