<svg width="405" height="240" viewBox="0 0 405 240" fill="none" xmlns="http://www.w3.org/2000/svg">
<path d="M162.444 63.6417C160.087 62.8537 149.459 87.6098 144.44 100.086C142.148 101.29 137.172 104.355 135.601 106.981C133.637 110.265 132 131.278 132 135.874C132 140.471 136.91 167.394 139.529 171.991C142.148 176.587 153.606 183.811 164.409 188.079C173.051 191.493 182.413 193.004 186.014 193.332H247.231C247.558 194.755 251.748 194.842 265.89 183.811C280.032 172.779 282.477 153.823 281.931 145.724C282.04 136.969 280.621 116.306 274.074 103.698C267.527 91.0901 254.105 91.2214 248.213 92.863C243.761 79.4672 238.283 66.7061 236.1 62C230.077 62.5253 220.715 82.7943 216.786 92.863C209.715 90.2364 186.124 91.7686 175.212 92.863C171.938 83.4509 164.801 64.4297 162.444 63.6417Z" fill="#FFE179"/>
<path d="M207 104V114" stroke="black" stroke-width="15" stroke-linecap="round" stroke-linejoin="round"/>
<path d="M166 106L170 116" stroke="black" stroke-width="15" stroke-linecap="round" stroke-linejoin="round"/>
<path d="M149.444 47.6417C147.087 46.8537 136.459 71.6098 131.44 84.0863C129.148 85.2902 124.172 88.3546 122.601 90.9813C120.637 94.2646 119 115.278 119 119.874C119 124.471 123.91 151.394 126.529 155.991C129.148 160.587 140.606 167.811 151.409 172.079C160.051 175.493 169.413 177.004 173.014 177.332H234.231C234.558 178.755 238.748 178.842 252.89 167.811C267.032 156.779 269.477 137.823 268.931 129.724C269.04 120.969 267.621 100.306 261.074 87.6979C254.527 75.0901 241.105 75.2214 235.213 76.863C230.761 63.4672 225.283 50.7061 223.1 46C217.077 46.5253 207.715 66.7943 203.786 76.863C196.715 74.2364 173.124 75.7686 162.212 76.863C158.938 67.4509 151.801 48.4297 149.444 47.6417Z" stroke="black" stroke-width="15" stroke-linejoin="round"/>
<path d="M150 78C165.21 75.5807 205.02 75.0969 215 78" stroke="black" stroke-width="15" stroke-linecap="round" stroke-linejoin="round"/>
<path d="M175.004 135.998C174.896 140.885 176.951 150.659 186.034 150.659C195.118 150.659 197.605 142.218 197.714 137.997C198.903 142.884 202.969 152.725 209.717 152.992C218.152 153.325 224.312 143.329 223.988 137.997C223.88 135.887 223.469 131.333 222.69 130" stroke="black" stroke-width="15" stroke-linecap="round" stroke-linejoin="round"/>
<path d="M244 145C259.027 148.16 289.864 155.985 293 162" stroke="black" stroke-width="15" stroke-linecap="round" stroke-linejoin="round"/>
<path d="M253 112C264.527 113.607 289.865 117.657 299 121" stroke="black" stroke-width="15" stroke-linecap="round" stroke-linejoin="round"/>
<path d="M114 168C122.193 162.086 141.464 149.206 153 145" stroke="black" stroke-width="15" stroke-linecap="round" stroke-linejoin="round"/>
<path d="M105 132C114.845 129.971 136.028 125.73 142 125" stroke="black" stroke-width="15" stroke-linecap="round" stroke-linejoin="round"/>
</svg>
