<svg width="405" height="240" viewBox="0 0 405 240" fill="none" xmlns="http://www.w3.org/2000/svg">
<path d="M171.153 166.543C136.332 146.12 153.585 71 171.153 71C182.978 71 197.772 78.1784 194.552 117.002C190.694 163.51 178.366 168.902 171.153 166.543Z" fill="#D9D9D9"/>
<path d="M237.611 175.543C201.998 155.12 219.643 80 237.611 80C249.705 80 264.835 87.1784 261.542 126.002C257.596 172.51 244.988 177.902 237.611 175.543Z" fill="#D9D9D9"/>
<path d="M162.611 159.543C126.998 139.12 144.643 64 162.611 64C174.705 64 189.835 71.1784 186.542 110.002C182.596 156.51 169.988 161.902 162.611 159.543Z" stroke="black" stroke-width="15" stroke-linecap="round" stroke-linejoin="round"/>
<path d="M227.611 166.543C191.998 146.12 209.643 71 227.611 71C239.705 71 254.835 78.1784 251.542 117.002C247.596 163.51 234.988 168.902 227.611 166.543Z" stroke="black" stroke-width="15" stroke-linecap="round" stroke-linejoin="round"/>
<path d="M163.207 108.106C158.072 97.0477 149.428 103.498 145.749 108.106C142.257 118.549 151.825 123.72 157.045 125C161.238 123.976 168.341 119.164 163.207 108.106Z" fill="white" stroke="black" stroke-width="15" stroke-linecap="round" stroke-linejoin="round"/>
<path d="M227.296 107.106C222.418 96.0477 214.207 102.498 210.711 107.106C207.394 117.549 216.483 122.72 221.443 124C225.426 122.976 232.174 118.164 227.296 107.106Z" fill="white" stroke="black" stroke-width="15" stroke-linecap="round" stroke-linejoin="round"/>
</svg>
