<svg width="405" height="240" viewBox="0 0 405 240" fill="none" xmlns="http://www.w3.org/2000/svg">
<path d="M210.956 196.712C147.912 192.261 139.156 144.996 142.659 121.92C154.526 118.706 167.588 127.38 172.635 132.119C170.41 104.674 175.829 82.3604 178.816 74.634C184.997 75.623 193.753 87.8204 197.359 93.7956C209.72 84.4002 220.433 62.6838 224.245 53C227.706 56.2142 234.34 80.5061 237.224 92.2503C241.922 94.2282 254.428 93.0744 260.093 92.2503C252.985 108.321 255.149 116.357 258.548 120.993C261.268 124.701 269.983 125.834 274 125.938C270.91 143.348 261.824 180.27 250.204 188.676C238.584 197.082 219.197 197.536 210.956 196.712Z" fill="#FFC691"/>
<path d="M204.432 161.302C191.71 162.515 187.51 182.227 187 191.931C220.274 201.635 242.864 191.728 250 185.562C243.883 180.468 230.121 169.288 224.005 164.335C222.782 162.819 217.154 160.089 204.432 161.302Z" fill="#FCBD5F"/>
<path d="M199.956 186.712C136.912 182.261 128.156 134.996 131.659 111.92C143.526 108.706 156.588 117.38 161.635 122.119C159.41 94.6744 164.829 72.3604 167.816 64.634C173.997 65.623 182.753 77.8204 186.359 83.7956C198.72 74.4002 209.433 52.6838 213.245 43C216.706 46.2142 223.34 70.5061 226.224 82.2503C230.922 84.2282 243.428 83.0744 249.093 82.2503C241.985 98.3212 244.149 106.357 247.548 110.993C250.268 114.701 258.983 115.834 263 115.938C259.91 133.348 250.824 170.27 239.204 178.676C227.584 187.082 208.197 187.536 199.956 186.712Z" stroke="black" stroke-width="15" stroke-linejoin="round"/>
<path d="M193.709 151.311C180.784 152.559 176.518 172.833 176 182.814C209.802 192.796 232.751 182.606 240 176.264C233.786 171.024 219.806 159.525 213.592 154.43C212.35 152.87 206.633 150.063 193.709 151.311Z" stroke="black" stroke-width="15"/>
</svg>
