<svg width="405" height="240" viewBox="0 0 405 240" fill="none" xmlns="http://www.w3.org/2000/svg">
<path d="M134.564 191.179C112.504 170.453 113.053 137.554 116.085 123.695C122.331 121.142 137.733 114.94 149.377 110.557C161.022 106.175 170.353 122.733 173.563 131.561C186.729 107.505 215.103 59.597 223.275 60.4097C231.447 61.2224 256.439 110.278 267.913 134.704C273.171 127.847 286.689 120.521 292.791 117.714C298.241 120.238 304.228 134.186 306.54 140.844C307.986 156.105 293.76 184.183 286.467 196.314C231.13 202.108 162.142 195.305 134.564 191.179Z" fill="#FFE279"/>
<path d="M119.054 170.028C96.9928 149.302 97.5422 116.403 100.575 102.544C106.82 99.9911 122.222 93.7889 133.867 89.4062C145.511 85.0235 154.842 101.582 158.053 110.41C171.218 86.3541 199.592 38.446 207.764 39.2587C215.937 40.0714 240.928 89.1269 252.402 113.553C257.66 106.696 271.179 99.3696 277.28 96.5632C282.731 99.0875 288.717 113.035 291.029 119.693C292.475 134.954 278.25 163.032 270.956 175.163C215.619 180.957 146.631 174.154 119.054 170.028Z" stroke="black" stroke-width="15" stroke-linecap="round" stroke-linejoin="round"/>
</svg>
