<svg width="405" height="240" viewBox="0 0 405 240" fill="none" xmlns="http://www.w3.org/2000/svg">
<circle cx="214" cy="133" r="80" fill="#FFD99A"/>
<circle cx="200" cy="118" r="82.5" stroke="black" stroke-width="15"/>
<path d="M159.155 81.4446C166.035 76.3516 169.242 80.3836 169.986 83.0362C172.322 80.3836 178.332 76.3516 183.684 81.4446C189.035 86.5377 176.782 99.2703 169.986 105C163.508 99.2703 152.274 86.5377 159.155 81.4446Z" fill="#FFABAB"/>
<path d="M220.155 84.4446C227.035 79.3516 230.242 83.3836 230.986 86.0362C233.322 83.3836 239.332 79.3516 244.684 84.4446C250.035 89.5377 237.782 102.27 230.986 108C224.508 102.27 213.274 89.5377 220.155 84.4446Z" fill="#FFABAB"/>
<path d="M159.155 80.4446C166.035 75.3516 169.242 79.3836 169.986 82.0362C172.322 79.3836 178.332 75.3516 183.684 80.4446C189.035 85.5377 176.782 98.2703 169.986 104C163.508 98.2703 152.274 85.5377 159.155 80.4446Z" stroke="black" stroke-width="10" stroke-linejoin="round"/>
<path d="M219.078 84.4446C225.713 79.3516 228.805 83.3836 229.522 86.0362C231.774 83.3836 237.57 79.3516 242.731 84.4446C247.891 89.5377 236.075 102.27 229.522 108C223.276 102.27 212.443 89.5377 219.078 84.4446Z" stroke="black" stroke-width="10" stroke-linejoin="round"/>
<path d="M137 124C138.902 143.719 153.551 179.151 195.659 180.932C237.766 182.713 258.862 149.126 267 130.997" stroke="black" stroke-width="10" stroke-linecap="round" stroke-linejoin="round"/>
</svg>
