<svg width="405" height="240" viewBox="0 0 405 240" fill="none" xmlns="http://www.w3.org/2000/svg">
<path d="M158.367 64.29C185.946 57.7794 200.984 77.4919 205.055 88.162C210.918 79.2643 219.08 75.9547 222.427 75.4122C255 65.2123 273.096 85.6302 278.073 97.114C288.659 141.603 252.829 163.033 238.714 173.884C224.599 184.735 174.111 193.959 167.868 188.262C162.873 183.704 144.614 155.167 136.38 131.023C132.037 118.454 130.789 70.8005 158.367 64.29Z" fill="#FFABAB"/>
<path d="M148.367 51.29C175.946 44.7794 190.984 64.4919 195.055 75.162C200.918 66.2643 209.08 62.9547 212.427 62.4122C245 52.2123 263.096 72.6302 268.073 84.114C278.659 128.603 242.829 150.033 228.714 160.884C214.599 171.735 164.111 180.959 157.868 175.262C152.873 170.704 134.614 142.167 126.38 118.023C122.037 105.454 120.789 57.8005 148.367 51.29Z" stroke="black" stroke-width="15" stroke-linejoin="round"/>
</svg>
