<svg width="405" height="240" viewBox="0 0 405 240" fill="none" xmlns="http://www.w3.org/2000/svg">
<path d="M127.351 179.772C118.562 153.497 153.599 60.8657 204.873 56C249.432 67.252 297.96 162.134 287.583 179.772C277.206 197.41 187.415 219.428 127.351 179.772Z" fill="#FFE179"/>
<path d="M116.351 161.772C107.562 135.497 142.599 42.8657 193.873 38C238.432 49.252 286.96 144.134 276.583 161.772C266.206 179.41 176.415 201.428 116.351 161.772Z" stroke="black" stroke-width="15" stroke-linecap="round" stroke-linejoin="round"/>
<path d="M196.788 133.379C195.803 125.563 194.948 107.495 199.417 97.7508C199.636 97.0403 200.798 95.4974 203.689 95.0102C207.304 94.4012 209.604 121.198 206.647 130.943C204.281 138.738 199.089 135.815 196.788 133.379Z" fill="white" stroke="white" stroke-width="10" stroke-linecap="round" stroke-linejoin="round"/>
<path d="M205.573 157.814C207.465 152.044 202.617 150.2 199.956 150L197 157.814C199.069 160.218 203.681 163.584 205.573 157.814Z" fill="white" stroke="white" stroke-width="10" stroke-linecap="round" stroke-linejoin="round"/>
<path d="M187.723 128.379C186.819 120.563 186.036 102.495 190.133 92.7508C190.333 92.0403 191.398 90.4974 194.049 90.0102C197.362 89.4012 199.471 116.198 196.76 125.943C194.591 133.738 189.831 130.815 187.723 128.379Z" fill="black" stroke="black" stroke-width="10" stroke-linecap="round" stroke-linejoin="round"/>
<path d="M196.525 152.524C198.627 146.229 193.241 144.219 190.285 144L187 152.524C189.299 155.147 194.423 158.819 196.525 152.524Z" stroke="black" stroke-width="10" stroke-linecap="round" stroke-linejoin="round"/>
</svg>
