<svg width="405" height="240" viewBox="0 0 405 240" fill="none" xmlns="http://www.w3.org/2000/svg">
<path d="M159.047 209.382C160.512 197.567 185.902 146.205 198.414 122C202.991 122 211.902 123.108 210.926 127.538C209.705 133.077 157.216 224.151 159.047 209.382Z" fill="#D4D4D4"/>
<path d="M259 53.4279C253.01 38.4504 236.435 40.1282 227.492 42.6858C220.317 56.804 206.403 86.0838 208.15 90.2579C209.897 94.432 227.388 99.1585 235.915 101C245.898 90.2579 255.152 65.7046 259 53.4279Z" fill="#FFAEAE"/>
<path d="M164 104.176C175.773 93.8863 198.339 91.1046 208.15 91L236.663 100.098C245.286 102.849 245.57 127.179 244.635 139C211.768 132.475 177.184 113.065 164 104.176Z" fill="#FF9595"/>
<path d="M249 41.4279C243.128 26.4504 226.877 28.1282 218.11 30.6858C211.075 44.804 197.435 74.0838 199.147 78.2579C200.86 82.432 218.008 87.1585 226.368 89C236.155 78.2579 245.228 53.7046 249 41.4279Z" stroke="black" stroke-width="15" stroke-linecap="round" stroke-linejoin="round"/>
<path d="M154 92.1765C165.919 81.8863 188.763 79.1046 198.695 79L227.56 88.098C236.289 90.8492 236.577 115.179 235.63 127C202.357 120.475 167.346 101.065 154 92.1765Z" stroke="black" stroke-width="15" stroke-linecap="round" stroke-linejoin="round"/>
<path d="M145.048 199.382C146.541 187.567 172.419 136.205 185.172 112C189.837 112 198.92 113.108 197.924 117.538C196.68 123.077 143.181 214.151 145.048 199.382Z" stroke="black" stroke-width="10" stroke-linecap="round" stroke-linejoin="round"/>
</svg>
