<svg width="405" height="240" viewBox="0 0 405 240" fill="none" xmlns="http://www.w3.org/2000/svg">
<path d="M200.673 116.495V158L217.534 156.101C216.663 155.233 216.265 137.474 216.174 128.702C221.395 126.315 229.952 124.272 233.578 123.548C249.677 99.2421 250.076 81.772 248.263 76.0753C245.363 66.0381 232.055 47.9713 202.033 56.001C172.01 64.0307 170.125 89.006 172.935 100.49H195.506C191.373 92.4602 198.679 83.5805 202.849 80.1444C208.832 76.5274 221.123 73.3083 222.429 89.3677C223.734 105.427 208.469 114.144 200.673 116.495Z" fill="#FFE179"/>
<path d="M211.912 188.232C210.859 177.035 205.507 175.491 202.962 176.119C201.382 176.119 197.539 177.681 194.801 183.925C192.063 190.17 196.995 194.064 199.803 195.23C204.278 197.563 212.965 199.429 211.912 188.232Z" fill="#FFE179"/>
<path d="M183.673 106.495V148L200.534 146.101C199.663 145.233 199.265 127.474 199.174 118.702C204.395 116.315 212.952 114.272 216.578 113.548C232.677 89.2421 233.076 71.772 231.263 66.0753C228.363 56.0381 215.055 37.9713 185.033 46.001C155.01 54.0307 153.125 79.006 155.935 90.4899H178.506C174.373 82.4602 181.679 73.5805 185.849 70.1444C191.832 66.5274 204.123 63.3083 205.429 79.3677C206.734 95.4271 191.469 104.144 183.673 106.495Z" stroke="black" stroke-width="15" stroke-linejoin="round"/>
<path d="M202.912 180.232C201.859 169.035 196.507 167.491 193.962 168.119C192.382 168.119 188.539 169.681 185.801 175.925C183.063 182.17 187.995 186.064 190.803 187.23C195.278 189.563 203.965 191.429 202.912 180.232Z" stroke="black" stroke-width="15" stroke-linejoin="round"/>
</svg>
