<svg width="405" height="240" viewBox="0 0 405 240" fill="none" xmlns="http://www.w3.org/2000/svg">
<path d="M245.66 57.5283C209.991 53.8583 194.521 54.47 171.234 57.5283C157.191 72.3492 128.685 106.084 127 122.458C130.043 141.866 143.149 183.93 157.191 192.681C179.191 195.975 226.632 201.926 240.394 199.386C255.606 184.8 287.226 152.312 292 139.043C288.63 101.779 259.702 69.1733 245.66 57.5283Z" fill="#FF4B4B"/>
<path d="M191.854 127.995C190.786 119.036 189.861 98.3239 194.702 87.1534C194.939 86.3389 196.197 84.5702 199.33 84.0117C203.246 83.3136 205.738 114.032 202.534 125.203C199.971 134.139 194.346 130.788 191.854 127.995Z" fill="white" stroke="white" stroke-width="10" stroke-linecap="round" stroke-linejoin="round"/>
<path d="M202.478 155.524C204.79 149.229 198.865 147.219 195.613 147L192 155.524C194.529 158.147 200.165 161.819 202.478 155.524Z" fill="white" stroke="white" stroke-width="10" stroke-linecap="round" stroke-linejoin="round"/>
<path d="M231.379 42.5283C195.494 38.8583 179.93 39.47 156.502 42.5283C142.374 57.3492 113.695 91.0844 112 107.458C115.061 126.866 128.247 168.93 142.374 177.681C164.508 180.975 212.236 186.926 226.081 184.386C241.386 169.8 273.197 137.312 278 124.043C274.609 86.7793 245.506 54.1733 231.379 42.5283Z" stroke="black" stroke-width="15" stroke-linecap="round" stroke-linejoin="round"/>
<path d="M180.854 121.995C179.786 113.036 178.861 92.3239 183.702 81.1534C183.939 80.3389 185.197 78.5702 188.33 78.0117C192.246 77.3136 194.738 108.032 191.534 119.203C188.971 128.139 183.346 124.788 180.854 121.995Z" fill="black" stroke="black" stroke-width="10" stroke-linecap="round" stroke-linejoin="round"/>
<path d="M190.525 149.524C192.627 143.229 187.241 141.219 184.285 141L181 149.524C183.299 152.147 188.423 155.819 190.525 149.524Z" stroke="black" stroke-width="10" stroke-linecap="round" stroke-linejoin="round"/>
</svg>
