<svg xmlns="http://www.w3.org/2000/svg" viewBox="0 0 24 24"><path fill-rule="evenodd" d="M5.578 8 12 11.211 18.422 8 12 4.789 5.578 8Zm5.975-4.776L3.789 7.106a1 1 0 0 0 0 1.788l7.764 3.882a1 1 0 0 0 .894 0l7.764-3.882a1 1 0 0 0 0-1.788l-7.764-3.882a1 1 0 0 0-.894 0Z" clip-rule="evenodd"/><path fill-rule="evenodd" d="m5.579 12-1.789-.895h-.001a1 1 0 0 0 0 1.79l7.764 3.881a1 1 0 0 0 .894 0l7.764-3.882a1 1 0 0 0 0-1.788l-.001-.001-1.789.894.001.001L12 15.211 5.578 12Z" clip-rule="evenodd"/><path fill-rule="evenodd" d="M5.579 16.094 3.79 15.2h-.001a1 1 0 0 0 0 1.79l7.764 3.881a1 1 0 0 0 .894 0l7.764-3.882a1 1 0 0 0 0-1.789h-.001l-1.789.894.001.001L12 19.306l-6.422-3.211Z" clip-rule="evenodd"/></svg>