<svg width="36" height="35" viewBox="0 0 36 35" fill="none" xmlns="http://www.w3.org/2000/svg">
<path fill-rule="evenodd" clip-rule="evenodd" d="M14.8277 12.2008C15.0955 12.4686 15.0955 12.9028 14.8277 13.1706L12.3412 15.6571H20.9551C21.6982 15.6571 22.2977 15.6571 22.7831 15.6968C23.2828 15.7376 23.7218 15.8239 24.128 16.0308C24.7731 16.3595 25.2976 16.884 25.6263 17.5292C25.8332 17.9353 25.9195 18.3743 25.9604 18.8741C26 19.3595 26 19.9589 26 20.7021V21.8286C26 22.2073 25.693 22.5143 25.3143 22.5143C24.9356 22.5143 24.6286 22.2073 24.6286 21.8286V20.7314C24.6286 19.952 24.628 19.4087 24.5935 18.9858C24.5596 18.5708 24.4964 18.3324 24.4044 18.1518C24.2071 17.7647 23.8924 17.45 23.5054 17.2528C23.3248 17.1608 23.0864 17.0976 22.6714 17.0637C22.2484 17.0291 21.7051 17.0286 20.9257 17.0286H12.3412L14.8277 19.5151C15.0955 19.7829 15.0955 20.2171 14.8277 20.4849C14.5599 20.7527 14.1258 20.7527 13.858 20.4849L10.2008 16.8277C9.93305 16.5599 9.93305 16.1258 10.2008 15.858L13.858 12.2008C14.1258 11.9331 14.5599 11.9331 14.8277 12.2008Z" fill="#9096A5"/>
</svg>
