<svg width="490" height="242" viewBox="0 0 490 242" fill="none" xmlns="http://www.w3.org/2000/svg">
  <path d="M16.5098 155.545C16.4625 163.027 18.0723 169.655 21.3393 175.432C24.6064 181.208 29.1282 185.73 34.9047 188.997C40.6812 192.264 47.3337 193.898 54.8621 193.898C63.2428 193.898 70.6765 191.838 77.1632 187.719C83.65 183.599 88.7399 177.989 92.4331 170.886C96.1263 163.784 97.9965 155.735 98.0439 146.739C98.0912 137.364 96.1026 129.196 92.078 122.236C88.1007 115.228 82.7977 109.807 76.1689 105.972C69.5875 102.089 62.3905 100.148 54.578 100.148C48.7541 100.148 43.4274 101.166 38.5979 103.202C33.7683 105.19 29.5306 107.866 25.8848 111.227H25.3166L32.703 51H93.2143" stroke="black" stroke-width="2"/>
  <ellipse cx="94.4026" cy="50.8894" rx="3.89381" ry="3.88938" fill="#121212"/>
  <ellipse cx="16.4026" cy="155.889" rx="3.89381" ry="3.88938" fill="#121212"/>
  <ellipse cx="32.4026" cy="50.8894" rx="3.89381" ry="3.88938" fill="#121212"/>
  <ellipse cx="25.4026" cy="110.889" rx="3.89381" ry="3.88938" fill="#121212"/>
  <path d="M151.592 59.1235L275.951 183.342" stroke="#E3E2E4"/>
  <rect x="151.626" y="59.1582" width="124.291" height="124.149" stroke="#E3E2E4"/>
  <path d="M275.573 121.465C276.129 117.824 276.417 114.095 276.417 110.299C276.417 69.7024 243.469 36.792 202.826 36.792C162.183 36.792 129.235 69.7024 129.235 110.299C129.235 150.897 162.183 183.807 202.826 183.807C206.465 183.807 210.041 183.543 213.539 183.034" stroke="#E3E2E4"/>
  <path d="M213.539 182.964C217.184 183.519 220.917 183.807 224.717 183.807C265.36 183.807 298.308 150.897 298.308 110.299C298.308 69.7024 265.36 36.792 224.717 36.792C184.074 36.792 151.126 69.7024 151.126 110.299C151.126 114.095 151.414 117.824 151.97 121.465" stroke="#E3E2E4"/>
  <path d="M151.434 121.465C150.924 124.958 150.66 128.531 150.66 132.166C150.66 172.763 183.608 205.673 224.251 205.673C264.894 205.673 297.842 172.763 297.842 132.166C297.842 91.5686 264.894 58.6582 224.251 58.6582C220.613 58.6582 217.036 58.922 213.539 59.4314" stroke="#E3E2E4"/>
  <path d="M213.539 59.4314C210.041 58.922 206.465 58.6582 202.826 58.6582C162.183 58.6582 129.235 91.5686 129.235 132.166C129.235 172.763 162.183 205.673 202.826 205.673C243.469 205.673 276.417 172.763 276.417 132.166C276.417 128.531 276.153 124.958 275.643 121.465" stroke="#E3E2E4"/>
  <path d="M275.951 59.1235L151.592 183.342" stroke="#E3E2E4"/>
  <path d="M151.126 121.465H275.951" stroke="#E3E2E4"/>
  <path d="M213.539 58.6582V183.807" stroke="#E3E2E4"/>
  <ellipse cx="275.951" cy="121.465" rx="3.72614" ry="3.7219" fill="#121212"/>
  <ellipse cx="275.951" cy="59.1233" rx="3.72614" ry="3.7219" fill="#121212"/>
  <ellipse cx="275.951" cy="183.807" rx="3.72614" ry="3.7219" fill="#121212"/>
  <ellipse cx="151.592" cy="183.807" rx="3.72613" ry="3.7219" fill="#121212"/>
  <ellipse cx="213.539" cy="121.465" rx="3.72613" ry="3.7219" fill="#121212"/>
  <ellipse cx="213.539" cy="59.1233" rx="3.72613" ry="3.7219" fill="#121212"/>
  <ellipse cx="151.592" cy="121.465" rx="3.72613" ry="3.7219" fill="#121212"/>
  <ellipse cx="151.592" cy="59.1233" rx="3.72613" ry="3.7219" fill="#121212"/>
  <ellipse cx="213.539" cy="183.807" rx="3.72613" ry="3.7219" fill="#121212"/>
  <path d="M338.583 59.1235L462.943 183.342" stroke="#E3E2E4"/>
  <rect x="338.617" y="59.1582" width="124.291" height="124.149" stroke="#E3E2E4"/>
  <path d="M462.565 121.465C463.12 117.824 463.408 114.095 463.408 110.299C463.408 69.7024 430.46 36.792 389.817 36.792C349.174 36.792 316.226 69.7024 316.226 110.299C316.226 150.897 349.174 183.807 389.817 183.807C393.456 183.807 397.033 183.543 400.53 183.034" stroke="#E3E2E4"/>
  <path d="M400.53 182.964C404.175 183.519 407.908 183.807 411.708 183.807C452.351 183.807 485.299 150.897 485.299 110.299C485.299 69.7024 452.351 36.792 411.708 36.792C371.065 36.792 338.117 69.7024 338.117 110.299C338.117 114.095 338.405 117.824 338.961 121.465" stroke="#E3E2E4"/>
  <path d="M338.425 121.465C337.915 124.958 337.651 128.531 337.651 132.166C337.651 172.763 370.599 205.673 411.242 205.673C451.886 205.673 484.833 172.763 484.833 132.166C484.833 91.5686 451.886 58.6582 411.242 58.6582C407.604 58.6582 404.027 58.922 400.53 59.4314" stroke="#E3E2E4"/>
  <path d="M400.53 59.4314C397.033 58.922 393.456 58.6582 389.817 58.6582C349.174 58.6582 316.226 91.5686 316.226 132.166C316.226 172.763 349.174 205.673 389.817 205.673C430.46 205.673 463.408 172.763 463.408 132.166C463.408 128.531 463.144 124.958 462.634 121.465" stroke="#E3E2E4"/>
  <path d="M462.943 59.1235L338.583 183.342" stroke="#E3E2E4"/>
  <path d="M338.117 121.465H462.943" stroke="#E3E2E4"/>
  <path d="M400.53 58.6582V183.807" stroke="#E3E2E4"/>
  <ellipse cx="462.942" cy="121.465" rx="3.72614" ry="3.7219" fill="#121212"/>
  <ellipse cx="462.942" cy="59.1233" rx="3.72614" ry="3.7219" fill="#121212"/>
  <ellipse cx="462.942" cy="183.807" rx="3.72614" ry="3.7219" fill="#121212"/>
  <ellipse cx="338.583" cy="183.807" rx="3.72613" ry="3.7219" fill="#121212"/>
  <ellipse cx="400.53" cy="121.465" rx="3.72613" ry="3.7219" fill="#121212"/>
  <ellipse cx="400.53" cy="59.1233" rx="3.72613" ry="3.7219" fill="#121212"/>
  <ellipse cx="338.583" cy="121.465" rx="3.72613" ry="3.7219" fill="#121212"/>
  <ellipse cx="338.583" cy="59.1233" rx="3.72613" ry="3.7219" fill="#121212"/>
  <ellipse cx="400.53" cy="183.807" rx="3.72613" ry="3.7219" fill="#121212"/>
</svg>
