<svg width="24" height="24" viewBox="0 0 24 24" fill="none" xmlns="http://www.w3.org/2000/svg">
    <path fill-rule="evenodd" clip-rule="evenodd" d="M21 3.79998C21 4.2418 20.6418 4.59998 20.2 4.59998L13.8 4.59997C13.3582 4.59997 13 4.2418 13 3.79997C13 3.35815 13.3582 2.99997 13.8 2.99997L20.2 2.99998C20.6418 2.99998 21 3.35815 21 3.79998Z" fill="#98ACBD"/>
    <path fill-rule="evenodd" clip-rule="evenodd" d="M11 3.79998C11 4.2418 10.6418 4.59998 10.2 4.59998L3.8 4.59998C3.35817 4.59998 3 4.2418 3 3.79997C3 3.35815 3.35817 2.99997 3.8 2.99998L10.2 2.99998C10.6418 2.99998 11 3.35815 11 3.79998Z" fill="#98ACBD"/>
    <path fill-rule="evenodd" clip-rule="evenodd" d="M9 8.6H5C4.77909 8.6 4.6 8.77909 4.6 9V19C4.6 19.2209 4.77909 19.4 5 19.4H9C9.22091 19.4 9.4 19.2209 9.4 19V9C9.4 8.77909 9.22091 8.6 9 8.6ZM5 7C3.89543 7 3 7.89543 3 9V19C3 20.1046 3.89543 21 5 21H9C10.1046 21 11 20.1046 11 19V9C11 7.89543 10.1046 7 9 7H5Z" fill="#98ACBD"/>
    <path fill-rule="evenodd" clip-rule="evenodd" d="M19 8.6H15C14.7791 8.6 14.6 8.77909 14.6 9V14C14.6 14.2209 14.7791 14.4 15 14.4H19C19.2209 14.4 19.4 14.2209 19.4 14V9C19.4 8.77909 19.2209 8.6 19 8.6ZM15 7C13.8954 7 13 7.89543 13 9V14C13 15.1046 13.8954 16 15 16H19C20.1046 16 21 15.1046 21 14V9C21 7.89543 20.1046 7 19 7H15Z" fill="#98ACBD"/>
</svg>
