<svg xmlns="http://www.w3.org/2000/svg" viewBox="0 0 24 24"><path fill-rule="evenodd" d="M19 5.6H5A1.4 1.4 0 0 0 3.6 7v10A1.4 1.4 0 0 0 5 18.4h14a1.4 1.4 0 0 0 1.4-1.4V7A1.4 1.4 0 0 0 19 5.6ZM5 4a3 3 0 0 0-3 3v10a3 3 0 0 0 3 3h14a3 3 0 0 0 3-3V7a3 3 0 0 0-3-3H5Z" clip-rule="evenodd"/><path fill-rule="evenodd" d="m8.576 8.576.848.848L6.85 12l2.575 2.576-.848.848L5.15 12l3.425-3.424ZM15.424 15.424l-.848-.848L17.15 12l-2.575-2.576.848-.848L18.85 12l-3.425 3.424ZM10 15l3-6 1.073.537-3 6L10 15Z" clip-rule="evenodd"/></svg>