<svg width="361" height="360" viewBox="0 0 361 360" fill="none" xmlns="http://www.w3.org/2000/svg">
<path d="M248.337 266.914C267.892 263.91 282.624 247.438 283.992 228.236C285.101 212.54 277.123 197.118 263.616 188.666C263.385 182.227 262.204 171.533 256.818 159.877C253.074 151.77 248.509 145.834 244.938 141.881C248.005 137.871 254.255 128.543 255.969 114.903C257.193 105.1 255.58 97.0798 254.27 92.4229C248.625 91.0574 240.719 89.8645 231.344 90.6262C217.994 91.7042 207.727 96.2749 201.635 99.6239C190.129 97.2236 176.089 95.2832 160.047 95.1251C142.147 94.9526 126.623 97.0367 114.21 99.6239C107.902 96.5336 97.6488 92.5091 84.5011 91.5318C69.9277 90.4394 58.2489 93.5871 51.3942 96.0306C51.0342 101.55 51.1062 109.412 53.0935 118.51C55.0519 127.451 58.1769 134.436 60.7402 139.193C53.5399 147.142 35.0351 169.679 30.1821 204.85C26.4956 231.542 32.3998 252.915 36.0576 263.421C75.4576 267.388 104.144 270.335 116.816 271.643C192.347 279.419 215.546 271.945 248.337 266.914Z" fill="#FCEAF0"/>
<path d="M148.425 181.537C134.918 175.27 117.075 181.393 109.875 194.832C105.252 203.456 104.806 215.515 111.632 224.915C118.89 234.905 131.678 238.168 142.118 235.408C157.253 231.398 166.671 214.926 163.488 200.438C163.316 199.647 160.349 187.071 148.425 181.551V181.537Z" fill="#F7D0DD"/>
<path d="M255.954 181.724C248.913 181.954 243.584 194.775 241.971 200.538C241.079 203.729 238.415 213.288 244.045 222.716C244.506 223.493 251.562 234.876 265.027 235.954C268.699 236.242 272.486 236.558 275.093 234.546C286.066 226.051 269.289 181.293 255.954 181.724Z" fill="#F7D0DD"/>
<path d="M250.165 139.84C255.983 123.699 256.732 106.451 252.671 89.8069C252.34 88.4415 251.073 87.076 249.647 86.7886C241.309 85.1356 232.928 84.7763 224.504 85.998C219.42 86.7311 214.466 87.9815 209.671 89.8213C206.388 91.0718 203.205 93.2853 199.907 94.3345C196.61 95.3838 193.182 94.0614 189.669 93.5296C185.262 92.8541 180.841 92.2935 176.406 91.8623C165.288 90.7699 154.085 90.5112 142.924 91.0718C138.057 91.3161 133.204 91.7186 128.365 92.2648C124.564 92.696 118.933 94.6364 115.275 94.1045C112.539 93.7165 108.867 91.0287 106.174 89.9794C101.407 88.1253 96.4825 86.7742 91.4423 85.9549C75.9185 83.4396 60.4234 86.0124 46.1092 92.2791C44.6548 92.9116 44.122 94.5932 43.9636 96.0018C42.2643 111.87 45.7348 127.666 53.9432 141.349C56.7945 146.107 64.2684 141.781 61.4027 136.994C53.9144 124.518 51.0486 110.433 52.6039 96.0018L50.4582 99.7245C65.0172 93.3428 81.5347 91.6611 96.9145 95.9587C103.755 97.8703 110.465 103.533 117.565 102.412C126.839 100.946 136.127 99.9257 145.502 99.5664C155.381 99.1783 165.274 99.4514 175.124 100.357C179.977 100.802 184.83 101.406 189.64 102.197C192.75 102.7 196.855 104.381 199.979 103.85C202.557 103.404 205.048 101.277 207.396 100.141C211.342 98.2153 215.474 96.7636 219.737 95.7C228.795 93.429 238.199 93.314 247.329 95.1107L244.304 92.0923C248.02 107.328 247.098 122.808 241.799 137.54C239.912 142.772 248.265 145.029 250.137 139.84H250.165Z" fill="#3E302E"/>
<path d="M233.374 135.428C243.93 145.015 251.879 157.059 256.012 170.743C257.366 175.242 257.207 182.543 259.727 186.395C261.268 188.752 264.508 190.664 266.452 192.82C269.059 195.723 271.305 198.972 273.12 202.436C283.892 222.946 276.518 247.985 257.164 260.302C252.484 263.278 256.818 270.737 261.527 267.748C282.408 254.453 292.388 228.394 283.618 204.879C281.127 198.181 277.354 192.03 272.558 186.726C271.219 185.245 269.016 183.736 267.878 182.141C267.633 181.796 267.36 181.206 266.971 180.243C265.689 177.081 265.632 172.899 264.681 169.564C260.217 154.084 251.404 140.156 239.495 129.333C235.39 125.611 229.256 131.691 233.389 135.428H233.374Z" fill="#3E302E"/>
<path d="M162.768 172.036C160.882 169.852 157.166 168.271 154.027 168.774C148.944 169.579 146.64 175.601 148.757 180.215C150.067 183.061 153.523 186.366 156.85 186.28C162.236 186.151 167.161 177.139 162.768 172.036Z" fill="#3E302E"/>
<path d="M165.821 168.989C161.04 164.074 152.486 162.406 147.259 167.609C142.031 172.812 142.867 180.488 147.216 185.605C151.565 190.722 158.952 192.389 164.165 187.373C168.759 182.96 170.573 175.198 166.498 169.866C163.172 165.496 155.669 169.794 159.039 174.221C161.703 177.728 158.103 184.57 153.998 180.258C152.515 178.691 151.521 176.061 153.019 174.135C154.79 171.849 158.103 173.431 159.715 175.098C163.589 179.094 169.695 172.985 165.821 169.004V168.989Z" fill="#3E302E"/>
<path d="M245.197 166.23C243.282 164.605 240.085 164.016 237.767 165.267C234.022 167.293 233.518 173.632 236.125 177.513C237.738 179.913 241.108 182.213 243.656 181.321C247.775 179.87 249.661 170.01 245.197 166.23Z" fill="#3E302E"/>
<path d="M247.386 162.507C241.784 158.396 233.778 160.308 231.157 166.819C228.68 172.971 231.099 180.215 236.571 183.88C249.359 192.432 256.804 171.303 248.25 163.182C244.218 159.359 238.098 165.453 242.144 169.277C243.484 170.556 243.642 172.453 243.368 174.221C243.224 175.127 242.965 176.233 242.375 176.981C242.26 177.124 241.842 177.469 241.943 177.426C242.548 177.153 242.346 177.311 241.727 176.938C239.725 175.716 238.573 173.646 238.832 171.275C239.135 168.515 240.992 168.472 243.008 169.952C247.487 173.244 251.807 165.77 247.372 162.507H247.386Z" fill="#3E302E"/>
<path d="M159.283 178.289C164.842 178.289 164.856 169.665 159.283 169.665C153.71 169.665 153.71 178.289 159.283 178.289Z" fill="white"/>
<path d="M241.482 174.868C247.041 174.868 247.055 166.244 241.482 166.244C235.909 166.244 235.909 174.868 241.482 174.868Z" fill="white"/>
<path d="M216.295 220.833C220.039 230.42 217.231 240.87 209.959 246.174C202.226 251.822 192.909 249.149 191.757 248.804C191.728 249.479 191.281 256.22 185.737 259.498C183.361 260.906 178.911 262.329 176.218 260.288C172.993 257.845 172.402 251.118 177.01 245.541C175.873 244.319 174.289 242.264 173.698 239.418C173.108 236.658 173.77 234.646 175.426 228.408C175.959 226.425 176.794 223.219 177.802 219.123" fill="#E490B1"/>
<path d="M212.133 221.969C216.626 235.149 207.64 248.861 192.909 244.636C190.057 243.816 187.638 246.059 187.436 248.789C187.278 251.075 186.313 253.159 184.657 254.711C183.232 256.048 179.948 258.362 178.134 255.459C176.78 253.288 179.646 249.249 180.74 247.697C181.907 246.059 181.244 243.845 180.063 242.465C175.182 236.745 180.38 226.64 181.964 220.259C183.304 214.869 174.98 212.569 173.626 217.959C170.948 228.696 165.836 239.059 173.943 248.559L173.266 243.328C167.88 250.902 167.578 265.922 180.207 265.52C189.309 265.232 195.458 257.327 196.062 248.775L190.59 252.929C211.514 258.923 227.081 239.188 220.443 219.655C218.657 214.423 210.319 216.665 212.105 221.955L212.133 221.969Z" fill="#3E302E"/>
<path d="M202.24 221.926C190.734 222.256 172.129 218.016 168.961 206.043C165.591 193.323 180.913 176.65 197.33 174.293C216.929 171.461 237.81 189.069 236.096 202.45C234.598 214.092 216.108 221.538 202.255 221.94L202.24 221.926Z" fill="#F7D0DD"/>
<path d="M202.24 217.614C193.11 217.715 175.988 215.688 173.122 204.894C169.465 191.124 188.992 178.892 200.368 178.332C211.745 177.771 229.069 186.065 231.574 198.598C234.282 212.152 211.73 217.14 202.24 217.614C196.711 217.887 196.667 226.511 202.24 226.238C216.727 225.519 241.583 218.189 240.445 199.619C239.351 181.609 216.598 169.047 200.368 169.708C183.678 170.383 163.013 185.375 164.237 203.701C165.418 221.25 188.013 226.396 202.226 226.223C207.785 226.166 207.799 217.542 202.226 217.6L202.24 217.614Z" fill="#3E302E"/>
<path d="M214.409 191.181C210.06 190.98 206.416 194.789 206.474 199.072C206.517 202.795 209.167 206.575 212.998 207.064C216.828 207.553 220.558 204.347 221.278 200.596C222.056 196.629 219.694 192.202 215.561 191.34C213.286 190.865 210.895 192.001 210.247 194.358C209.657 196.5 210.967 199.187 213.271 199.662C213.804 199.777 213.53 199.834 213.329 199.619C213.185 199.46 212.983 199.302 212.825 199.144C213.199 199.518 212.81 199.475 212.839 199.116C212.796 199.504 212.983 199.475 212.839 199.044C212.724 198.699 212.998 198.641 212.767 199.087C212.868 198.9 212.954 198.742 213.055 198.569C212.71 199.159 213.055 198.627 213.055 198.656L212.738 198.842C213.199 198.541 213.689 198.454 214.164 198.569C214.51 198.627 214.726 198.771 215.014 198.929C215.215 199.101 215.23 199.101 215.057 198.929C214.898 198.756 214.898 198.756 215.057 198.929C215.215 199.116 215.215 199.116 215.086 198.9C214.97 198.684 214.97 198.684 215.086 198.9C215.186 199.116 215.186 199.116 215.114 198.871C215.057 198.627 215.057 198.627 215.1 198.871C215.129 199.13 215.143 199.13 215.129 198.871C215.129 198.612 215.129 198.612 215.129 198.871C215.071 199.044 214.927 199.36 214.884 199.518C214.826 199.748 215.172 199.374 214.999 199.432C214.74 199.518 213.343 199.748 214.438 199.791C216.77 199.906 218.758 197.736 218.758 195.479C218.758 193.05 216.77 191.282 214.438 191.167L214.409 191.181Z" fill="#3E302E"/>
<path d="M194.896 191.871C192.736 192.144 190.95 192.849 189.539 194.559C188.243 196.126 187.494 198.095 187.624 200.15C187.869 204.146 191.094 207.826 195.299 207.624C199.447 207.438 202.975 203.701 202.658 199.518C202.341 195.335 199.101 191.986 194.91 191.886C192.65 191.828 190.489 193.912 190.59 196.198C190.691 198.483 192.491 200.452 194.91 200.51C194.579 200.51 194.32 200.352 194.046 200.222C194.637 200.495 194.032 200.337 194.046 200.165C194.018 200.812 194.464 199.964 194.061 200.15C194.262 200.064 194.147 200.855 194.075 200.15C194.032 199.69 194.176 199.705 194.075 200.093C194.133 199.863 194.219 199.575 194.262 199.345C194.334 199.001 194.637 199.173 194.219 199.389C194.478 199.245 194.622 199.087 194.939 199.058C195.213 199.029 195.472 199.087 195.717 199.187C195.832 199.245 196.408 199.734 196.12 199.432C195.688 198.986 196.538 199.992 196.178 199.475C195.818 198.957 196.437 200.093 196.235 199.532C196.034 198.972 196.336 200.251 196.278 199.647C196.235 199.245 196.25 199.877 196.206 200.021C196.149 200.179 195.746 200.481 196.091 200.208C196.278 200.021 196.278 200.007 196.12 200.165C195.818 200.467 195.429 200.582 194.954 200.524C197.186 200.237 199.389 198.756 199.274 196.212C199.173 194.128 197.359 191.584 194.954 191.9L194.896 191.871Z" fill="#3E302E"/>
<path d="M63.5052 127.091C27.7485 162.651 15.22 215.918 33.0335 263.35C34.9632 268.495 43.33 266.267 41.3715 261.05C24.5948 216.407 35.8993 166.718 69.6254 133.2C73.5712 129.276 67.4653 123.182 63.5196 127.106L63.5052 127.091Z" fill="#3E302E"/>
<path d="M273.278 115.147C278.002 106.724 291.38 103.03 300.913 106.394C304.009 107.486 306.198 109.153 317.085 123.21C328.073 137.397 333.602 144.598 335.287 150.117C336.382 153.739 341.796 171.548 332.594 179.726C324.357 187.028 309.222 182.385 300.913 177.038C293.641 172.353 290.098 165.353 283.301 151.511C273.826 132.251 269.102 122.607 273.278 115.133V115.147Z" fill="#F8B62D"/>
<path d="M277.008 117.317C281.3 110.619 293.094 106.911 300.179 110.72C305.176 113.422 309.035 119.861 312.39 124.145C321.52 135.787 332.206 146.998 333.43 162.377C334.294 173.258 329.037 180.66 317.359 178.835C308.905 177.513 301.028 173.301 296.132 166.244C290.185 157.649 285.965 147.501 281.573 138.072C278.967 132.452 273.854 123.642 277.023 117.332C279.514 112.387 272.054 108.018 269.563 112.977C266.51 119.071 267.36 125.352 269.549 131.604C273.264 142.212 278.736 152.446 283.935 162.392C291.855 177.541 306.529 190.218 325.02 187.531C343.539 184.843 344.158 164.275 339.78 149.988C337.779 143.462 333.718 137.986 329.671 132.553C323.508 124.288 317.373 115.65 310.317 108.118C299.228 96.2749 278.131 99.5808 269.563 112.962C266.553 117.648 274.042 121.989 277.023 117.317H277.008Z" fill="#3E302E"/>
<path d="M283.877 127.954C283.028 123.857 293.166 118.712 299.977 117.289C301.432 116.987 303.332 116.541 304.052 117.691C305.19 119.488 305.061 122.952 303.505 125.28C302.252 127.149 301.014 126.991 297.601 128.816C295.758 129.808 296.089 130.095 294.462 130.814C293.871 131.073 292.23 131.791 290.343 131.734C287.78 131.647 284.324 130.138 283.863 127.968L283.877 127.954Z" fill="#FEF1DD"/>
<path d="M291.783 147.271C291.337 142.557 303.52 138.302 312.16 135.298C313.298 134.896 315.429 134.206 316.408 135.701C317.589 137.497 317.459 140.961 315.847 143.29C314.55 145.158 313.254 145 309.697 146.826C304.326 149.6 304.297 151.511 301.403 152.072C297.443 152.834 292.071 150.304 291.783 147.286V147.271Z" fill="#FEF1DD"/>
<path d="M304.816 163.168C304.427 159.014 315.213 155.263 322.86 152.604C323.868 152.259 325.754 151.641 326.618 152.963C327.655 154.544 327.554 157.606 326.114 159.661C324.962 161.3 323.824 161.17 320.671 162.78C315.904 165.223 315.89 166.919 313.326 167.408C309.813 168.084 305.06 165.856 304.801 163.182L304.816 163.168Z" fill="#FEF1DD"/>
</svg>
