<svg width="361" height="360" viewBox="0 0 361 360" fill="none" xmlns="http://www.w3.org/2000/svg">
<path d="M291.468 259.249C299.825 251.69 311.829 238.179 316.281 218.773C322.714 190.703 309.604 166.75 302.812 154.371C297.499 144.69 291.77 137.389 287.606 132.613C291.095 128.539 298.203 119.101 300.141 105.274C301.534 95.3489 299.696 87.2306 298.217 82.4973C290.679 80.8909 278.301 79.2414 263.482 81.7228C252.785 83.5157 244.299 86.9007 238.412 89.7837C226.58 87.5892 212.723 85.8393 197.215 85.3516C174.456 84.6488 154.712 86.8863 139.075 89.7837C130.273 86.0114 114.392 80.6327 94.232 81.4646C83.4914 81.9092 74.4739 83.989 67.6964 86.1405C67.2943 91.7344 67.3661 99.6949 69.6205 108.918C71.8462 117.968 75.3929 125.054 78.3078 129.873C74.5888 134.735 69.6492 141.721 64.7671 150.599C58.1189 162.676 47.8665 181.796 46.5598 207.37C45.5547 227.178 50.2645 244.06 55.4768 256.424C93.514 261.458 137.166 265.001 185.455 264.986C224.081 264.986 259.591 262.706 291.44 259.249H291.468Z" fill="#FCEAF0"/>
<path d="M138.041 176.818C123.682 170.479 104.743 176.661 97.0894 190.287C92.1786 199.022 91.7047 211.242 98.9561 220.752C106.667 230.878 120.251 234.177 131.336 231.38C147.418 227.321 157.412 210.626 154.038 195.952C153.851 195.164 150.706 182.412 138.027 176.818H138.041Z" fill="#F7D0DD"/>
<path d="M272.299 176.818C257.94 170.479 239 176.661 231.347 190.287C226.436 199.022 225.962 211.242 233.214 220.752C240.924 230.878 254.508 234.177 265.593 231.38C281.675 227.321 291.669 210.626 288.295 195.952C288.108 195.164 284.964 182.412 272.285 176.818H272.299Z" fill="#F7D0DD"/>
<path d="M193.439 184.506C205.658 184.779 225.187 190.057 227.944 202.335C230.873 215.373 213.771 231.438 196.239 232.958C175.303 234.78 154.038 215.861 156.55 202.421C158.733 190.731 178.735 184.162 193.439 184.506Z" fill="#F7D0DD"/>
<path d="M193.439 188.809C202.772 189.168 221.54 192.065 223.794 203.483C226.838 218.988 203.045 229.616 191.012 228.684C179.927 227.823 160.111 218.027 160.671 204.487C161.203 191.649 184.134 188.781 193.439 188.809C198.981 188.838 198.996 180.232 193.439 180.203C180.473 180.146 163.055 183.574 155.143 195.049C147.231 206.523 156.565 220.379 166.114 227.68C179.353 237.792 196.555 240.287 211.646 232.843C223.392 227.049 236.617 213.279 231.404 199.079C226.206 184.951 206.664 180.72 193.439 180.218C187.896 180.003 187.896 188.609 193.439 188.824V188.809Z" fill="#3E302E"/>
<path d="M204.567 201.761C200.317 201.532 196.626 205.06 196.425 209.234C196.253 212.849 198.723 216.779 202.37 217.596C206.477 218.514 210.641 215.402 211.546 211.4C212.45 207.398 209.952 202.751 205.701 201.905C203.418 201.46 201.049 202.55 200.403 204.917C199.814 207.04 201.121 209.751 203.418 210.21C203.935 210.31 203.72 210.41 203.548 210.181C203.533 210.152 202.815 209.535 203.217 209.88C203.174 209.521 203.519 210.138 203.217 209.88C203.26 210.353 203.189 209.578 203.189 209.492C203.217 209.005 203.504 209.062 203.146 209.435C203.49 209.076 203.203 209.435 203.031 209.507C203.691 209.191 203.95 209.163 204.725 209.378C205.256 209.535 204.495 209.076 204.826 209.421C204.897 209.492 205.5 209.98 205.127 209.693C205.012 209.478 204.998 209.492 205.098 209.722C205.199 210.023 205.185 209.966 205.041 209.55C205.055 209.105 205.041 209.206 205.041 209.607C205.041 210.037 204.826 210.066 205.041 209.679C204.926 209.908 204.797 210.095 204.668 210.31C204.983 209.779 204.926 210.109 204.581 210.281C204.366 210.382 203.648 210.324 204.581 210.382C206.908 210.511 208.889 208.316 208.889 206.079C208.889 203.64 206.908 201.905 204.581 201.776L204.567 201.761Z" fill="#3E302E"/>
<path d="M183.861 202.45C179.64 202.952 176.28 206.15 176.395 210.582C176.509 214.713 179.898 218.242 184.062 218.285C188.226 218.328 191.96 214.484 191.831 210.31C191.701 206.136 188.054 202.55 183.861 202.45C181.607 202.393 179.453 204.472 179.554 206.753C179.654 209.033 181.449 210.998 183.861 211.056C183.459 211.056 183.344 210.841 183.775 211.056C183.545 210.941 183.359 210.841 183.129 210.712L183.402 210.984C183.172 210.654 183.129 210.626 183.287 210.884C183.517 211.5 183.115 210.267 183.287 210.898C183.402 211.343 183.244 210.611 183.258 210.482C183.287 210.224 183.445 210.066 183.502 209.851C183.56 209.636 183.215 209.98 183.402 209.923C183.675 209.851 183.718 209.679 184.077 209.679C184.35 209.679 184.536 209.822 184.78 209.908C184.364 209.765 184.464 209.822 184.809 209.937C184.953 209.98 185.283 210.382 184.866 209.937C185.053 210.138 185.182 210.439 184.938 209.966C185.082 210.253 184.967 210.611 185.01 210.066C185.01 210.181 184.737 211.056 184.953 210.654C185.168 210.253 184.895 210.783 184.737 210.855C184.393 211.013 184.249 211.027 183.861 211.07C186.087 210.812 188.284 209.277 188.169 206.767C188.069 204.659 186.259 202.177 183.861 202.464V202.45Z" fill="#3E302E"/>
<path fill-rule="evenodd" clip-rule="evenodd" d="M142.866 172.358C146.628 168.069 153.406 168.399 157.039 172.731L157.053 172.745C157.098 172.799 157.142 172.853 157.185 172.908C157.379 173.117 157.56 173.354 157.728 173.62C160.528 178.081 159.092 184.019 155.761 187.791C151.999 192.022 146.183 191.449 142.737 187.203C139.291 182.957 139.104 176.646 142.866 172.358Z" fill="#3E302E"/>
<path fill-rule="evenodd" clip-rule="evenodd" d="M227.039 170.135C229.337 164.569 236.272 162.963 241.111 166.377L241.068 166.362C241.149 166.419 241.228 166.478 241.306 166.538C241.533 166.683 241.755 166.853 241.973 167.051C249.669 174.065 242.504 191.363 231.677 184.349C227.039 181.351 224.9 175.312 227.039 170.135Z" fill="#3E302E"/>
<path d="M232.18 147.802C226.809 150.47 222.272 154.673 219.457 159.98C216.873 164.871 224.296 169.231 226.895 164.326C229.078 160.195 232.366 157.283 236.53 155.232C241.499 152.765 237.133 145.349 232.18 147.802Z" fill="#3E302E"/>
<path d="M145.58 161.113C150.247 162.102 154.138 164.569 156.522 168.786C159.25 173.606 166.688 169.274 163.96 164.44C160.542 158.402 154.626 154.242 147.863 152.808C142.45 151.66 140.138 159.951 145.566 161.113H145.58Z" fill="#3E302E"/>
<path d="M291.425 265.273C314.759 242.381 322.096 211.4 313.854 180.031C308.599 160.037 298.389 141.118 285.653 124.896C282.235 120.536 276.176 126.675 279.564 130.977C290.276 144.632 299.437 161.6 304.506 178.611C313.308 208.115 307.608 237.333 285.337 259.192C281.374 263.079 287.462 269.16 291.425 265.273Z" fill="#3E302E"/>
<path d="M72.88 128.553C44.6501 166.061 37.0541 214.685 50.365 259.436C51.9445 264.728 60.2584 262.476 58.6789 257.141C45.9567 214.383 53.3804 168.686 80.318 132.885C83.6493 128.453 76.1682 124.164 72.88 128.539V128.553Z" fill="#3E302E"/>
<path d="M290.75 137.532C302.826 122.156 307.436 103.051 301.749 84.0894C301.333 82.7268 300.213 81.3785 298.734 81.0773C279.622 77.2333 259.749 78.6246 241.657 86.0831C237.32 87.876 235.726 87.7469 231.16 87.0441C226.594 86.3413 221.784 85.6958 217.074 85.1938C205.73 83.989 194.329 83.487 182.914 83.7021C171.498 83.9173 160.987 84.8066 150.103 86.2982C145.724 86.9007 141.114 88.335 136.821 87.3883C133.102 86.5564 129.498 85.0934 125.764 84.2185C106.078 79.5713 85.5733 79.8581 65.9445 84.7205C64.0204 85.1938 62.9004 87.0011 62.7855 88.8657C61.8521 104.313 65.4706 119.316 72.8799 132.885C75.5363 137.747 82.9743 133.416 80.3179 128.539C73.6122 116.247 70.5537 102.822 71.4009 88.8657L68.2419 93.0109C87.641 88.2059 107.902 88.2346 127.229 93.4555C130.503 94.3448 133.992 96.0947 137.323 96.6541C140.655 97.2135 144.604 95.7505 147.978 95.2341C159.092 93.5416 170.321 92.5949 181.549 92.3224C192.778 92.0499 202.973 92.4372 213.628 93.4412C218.725 93.9145 223.823 94.5313 228.891 95.3202C232.022 95.8078 235.841 97.2421 238.957 96.6397C242.949 95.8795 247.127 93.0109 251.047 91.7487C256.848 89.8697 262.865 88.5501 268.939 87.9334C278.143 87.0154 287.405 87.5318 296.465 89.3534L293.45 86.3413C298.174 102.105 294.8 118.513 284.662 131.408C281.273 135.711 287.333 141.85 290.75 137.489V137.532Z" fill="#3E302E"/>
<path d="M211.187 222.057C216.542 230.448 221.898 238.839 227.254 247.215C228.145 246.555 234.032 242.367 240.264 244.461C240.967 244.705 246.797 246.656 246.826 250.772C246.854 254.2 242.848 256.395 242.633 256.51C242.891 256.768 247.616 261.573 245.792 266.492C243.954 271.412 236.157 274.783 228.058 272.345C226.508 276.303 223.952 277.293 223.334 277.508C217.806 279.416 209.291 274.381 207.166 267.869C205.357 262.276 208.329 255.85 214.661 252.034C210.856 243.328 207.051 234.636 203.246 225.93C205.902 224.639 208.544 223.348 211.201 222.057H211.187Z" fill="white"/>
<path d="M207.468 224.237C212.824 232.628 218.179 241.019 223.535 249.395C224.713 251.231 227.455 252.321 229.423 250.944C232.108 249.051 236.028 247.143 239.359 248.707C241.341 249.639 243.121 251.246 240.45 252.809C238.009 254.243 237.679 257.557 239.574 259.565C246.654 267.038 234.549 269.447 229.179 268.199C227.412 267.783 225.187 268.443 224.311 270.179C221.683 275.385 216.83 273.808 213.24 269.734C208.746 264.642 211.818 259.134 216.801 255.764C218.897 254.344 219.328 252.135 218.352 249.883C214.547 241.177 210.741 232.485 206.936 223.778L205.386 229.659C208.042 228.368 210.684 227.077 213.34 225.786C218.323 223.362 213.958 215.933 208.99 218.357C206.333 219.647 203.691 220.938 201.035 222.229C198.78 223.334 198.622 226.116 199.484 228.11C203.289 236.816 207.094 245.508 210.899 254.215L212.45 248.334C202.815 254.86 198.436 266.837 207.367 276.088C214.733 283.719 226.594 284.737 231.749 274.525L226.881 276.504C234.391 278.254 244.299 277.479 248.764 270.107C252.153 264.499 249.884 257.944 245.663 253.483L244.787 260.239C251.349 256.395 253.359 248.434 247.084 243.328C240.809 238.222 231.62 238.91 225.072 243.515L230.959 245.064C225.603 236.673 220.247 228.282 214.891 219.906C211.919 215.244 204.452 219.561 207.453 224.252L207.468 224.237Z" fill="#3E302E"/>
<path d="M79.0113 105.188C81.8257 113.235 84.6401 121.281 87.4401 129.342L90.4555 124.05C82.9601 126.861 75.4646 129.672 67.9692 132.469C62.8286 134.391 65.0543 142.725 70.2666 140.774C77.7621 137.963 85.2575 135.151 92.753 132.354C94.8207 131.58 96.5868 129.414 95.7684 127.062C92.954 119.015 90.1396 110.969 87.3396 102.908C85.5303 97.7155 77.2021 99.953 79.0257 105.203L79.0113 105.188Z" fill="#E60012"/>
<path d="M80.0021 152.134C85.0565 149.509 90.1253 146.898 95.1797 144.274L88.8473 141.706C91.1017 147.128 93.3417 152.564 95.5961 157.986C97.6925 163.035 106.021 160.826 103.91 155.691C101.656 150.269 99.4156 144.833 97.1612 139.411C96.0699 136.786 93.5427 135.438 90.8289 136.844C85.7745 139.469 80.7057 142.079 75.6513 144.704C70.5969 147.329 75.077 154.687 80.0021 152.134Z" fill="#E60012"/>
<path d="M118.111 155.82C115.483 149.079 112.87 142.337 110.242 135.596L107.227 140.889C113.229 139.77 119.217 138.637 125.219 137.518C130.661 136.5 128.363 128.209 122.921 129.213C116.919 130.332 110.932 131.465 104.929 132.584C102.804 132.986 101.124 135.84 101.914 137.877C104.542 144.618 107.155 151.359 109.783 158.101C111.764 163.207 120.107 160.984 118.097 155.806L118.111 155.82Z" fill="#E60012"/>
<path d="M92.796 106.307C95.0504 111.93 97.2904 117.538 99.5448 123.16C100.421 125.355 102.373 126.789 104.843 126.172C110.084 124.867 115.34 123.548 120.581 122.242C125.822 120.937 123.682 112.604 118.283 113.938C112.884 115.272 107.787 116.563 102.546 117.868L107.844 120.88C105.59 115.257 103.35 109.649 101.096 104.027C99.0565 98.949 90.7283 101.158 92.7816 106.321L92.796 106.307Z" fill="#E60012"/>
</svg>
