<svg width="360" height="360" viewBox="0 0 360 360" fill="none" xmlns="http://www.w3.org/2000/svg">
<path d="M298.778 268.171C306.194 264.501 333.914 250.788 335.225 224.796C336.341 202.564 317.348 187.031 314.424 184.719C314.198 178.198 312.992 167.366 307.491 155.578C303.662 147.372 299.004 141.359 295.357 137.36C297.844 131.302 300.828 122.006 301.431 110.338C301.959 100.162 300.497 91.6869 298.989 85.7782C294.121 85.1515 288.182 84.8233 281.474 85.4499C268.089 86.6884 257.674 91.09 251.147 94.5517C239.405 92.1345 225.055 90.1649 208.686 90.0008C190.417 89.8218 174.56 91.9405 161.884 94.5517C155.448 91.4183 144.972 87.3449 131.557 86.3601C116.679 85.256 104.757 88.4341 97.7626 90.911C97.4008 96.4914 97.4611 104.459 99.496 113.68C101.486 122.737 104.681 129.81 107.289 134.629C98.7875 148.207 86.9853 170.917 81.6795 201.251C77.4892 225.184 78.7855 245.626 80.8354 259.801C110.665 273.379 135.973 278.198 152.795 280.153C176.61 282.913 173.159 278.243 245.691 275.93C273.425 275.05 284.248 275.378 298.793 268.186L298.778 268.171Z" fill="#FCEAF0"/>
<path d="M196.808 177.497C183.016 171.156 164.808 177.348 157.452 190.956C152.734 199.699 152.267 211.905 159.246 221.409C166.662 231.526 179.715 234.838 190.372 232.033C205.822 227.974 215.439 211.293 212.198 196.611C212.017 195.82 208.987 183.077 196.808 177.482V177.497Z" fill="#F7D0DD"/>
<path d="M306.586 177.691C299.396 177.93 293.955 190.896 292.312 196.745C291.393 199.983 288.679 209.651 294.422 219.201C294.89 219.977 302.11 231.511 315.841 232.615C319.594 232.913 323.468 233.226 326.121 231.182C337.32 222.573 320.197 177.258 306.586 177.706V177.691Z" fill="#F7D0DD"/>
<path d="M300.783 135.301C306.722 118.932 307.49 101.445 303.345 84.5696C302.999 83.1521 301.672 81.7346 300.18 81.4362C283.961 78.2581 267.396 80.1978 252.519 87.4195C248.162 89.5383 248.253 89.8068 243.535 89.0011C239.194 88.2551 234.823 87.6433 230.451 87.1211C220.081 85.8826 209.635 85.3455 199.19 85.5096C189.965 85.6588 180.77 86.3601 171.636 87.5687C167.672 88.0909 164.491 89.1205 160.829 87.882C157.166 86.6436 153.835 84.7785 150.217 83.555C133.742 77.9895 116.001 77.6911 99.1643 81.7495C97.7323 82.0927 96.3004 83.4058 95.9989 84.8829C92.1251 104.131 95.185 123.722 105.013 140.806C107.892 145.805 115.715 141.314 112.821 136.285C104.244 121.365 101.335 104.116 104.726 87.2703L101.561 90.4037C118.066 86.4347 135.37 87.2554 151.242 93.4475C154.422 94.686 158.085 97.4314 161.447 97.9387C164.597 98.4162 168.621 96.939 171.787 96.5063C180.861 95.253 190.025 94.6114 199.19 94.4771C208.354 94.3428 218.393 94.7755 227.934 95.805C232.351 96.2825 236.752 96.9092 241.138 97.6552C244.168 98.1774 247.59 99.5054 250.604 98.64C253.408 97.8343 256.181 95.5365 258.864 94.3428C262.708 92.6269 266.778 91.3288 270.878 90.3887C279.711 88.3595 288.89 88.3595 297.768 90.1052L294.603 86.9719C298.386 102.385 297.452 118.037 292.04 132.943C290.066 138.374 298.808 140.717 300.768 135.33L300.783 135.301Z" fill="#3E302E"/>
<path d="M283.464 130.884C293.91 140.299 301.928 152.087 306.209 165.471C307.777 170.38 307.536 177.676 310.023 182.033C311.394 184.435 314.816 186.42 316.715 188.434C319.308 191.194 321.539 194.253 323.408 197.536C335.24 218.395 327.945 244.432 307.807 257.16C302.908 260.248 307.445 268.007 312.374 264.889C334.125 251.161 344.118 224.214 334.592 200.117C331.819 193.104 327.613 186.688 322.338 181.272C319.685 178.556 318.614 178.661 317.861 175.319C316.926 171.215 316.248 167.142 314.952 163.098C310.204 148.282 301.476 135.002 289.885 124.558C285.589 120.693 279.168 127.005 283.494 130.884H283.464Z" fill="#3E302E"/>
<path d="M195.527 163.337C200.908 158.01 209.726 159.711 214.64 164.725V164.74C214.911 165.016 215.135 165.302 215.317 165.594C215.327 165.607 215.338 165.621 215.348 165.635C219.524 171.081 217.654 178.989 212.937 183.495C207.571 188.613 199.959 186.927 195.482 181.705C191.005 176.482 190.387 168.425 195.527 163.337Z" fill="#3E302E"/>
<path d="M281.173 162.561C283.871 155.906 292.131 153.937 297.904 158.145C297.951 158.179 297.998 158.214 298.043 158.249C298.304 158.414 298.56 158.612 298.808 158.846C307.641 167.157 299.924 188.703 286.75 179.974C281.112 176.244 278.625 168.843 281.173 162.561Z" fill="#3E302E"/>
<path d="M251.75 218.395C240.008 218.723 221.001 214.426 217.76 202.31C214.323 189.434 229.969 172.543 246.731 170.156C266.748 167.291 288.061 185.121 286.298 198.67C284.76 210.457 265.889 218.007 251.735 218.395H251.75Z" fill="#F7D0DD"/>
<path d="M251.75 213.919C242.284 214.023 223.835 211.8 221.965 200.072C219.735 186.062 238.998 174.393 251.027 174.319C262.437 174.259 279.922 182.809 281.746 195.372C283.675 208.652 261.216 213.441 251.75 213.904C245.962 214.187 245.917 223.14 251.75 222.856C266.582 222.125 292.116 214.635 290.865 195.685C289.674 177.825 267.336 165.292 251.042 165.351C233.692 165.411 212.439 180.392 212.786 198.998C213.118 217.47 237.024 223.006 251.765 222.856C257.583 222.797 257.598 213.844 251.765 213.904L251.75 213.919Z" fill="#3E302E"/>
<path d="M264.17 187.166C259.664 186.957 255.895 190.881 255.956 195.268C256.001 199.117 258.744 202.937 262.708 203.459C266.673 203.982 270.577 200.669 271.285 196.834C272.039 192.761 269.687 188.225 265.361 187.33C263.055 186.852 260.372 188.001 259.799 190.463C259.287 192.701 260.478 195.462 262.965 195.969C263.537 196.088 263.206 196.148 262.995 195.924C262.829 195.745 262.618 195.581 262.437 195.402C262.738 195.715 262.603 195.775 262.437 195.342C262.603 195.805 262.527 195.596 262.437 195.253C262.316 194.865 262.618 194.82 262.362 195.253C262.482 195.059 262.558 194.88 262.693 194.671C262.286 195.312 262.693 194.656 262.723 194.745L262.392 194.925C262.889 194.611 263.402 194.507 263.929 194.641C264.306 194.701 264.532 194.865 264.849 195.029C265.437 195.327 264.366 194.925 264.909 195.059C265.075 195.268 265.09 195.268 264.954 195.044C264.834 194.82 264.834 194.82 264.954 195.044C265.06 195.283 265.06 195.283 264.984 195.044C264.924 194.79 264.924 194.79 264.969 195.059C265.015 195.611 265.21 194.566 264.999 195.104C264.924 195.268 264.773 195.641 264.728 195.805C264.653 196.059 265.03 195.671 264.819 195.73C264.547 195.82 263.055 196.073 264.17 196.118C266.537 196.223 268.798 193.985 268.692 191.642C268.572 189.12 266.703 187.285 264.17 187.166Z" fill="#3E302E"/>
<path d="M244.259 187.852C242.028 188.136 240.174 188.852 238.697 190.597C237.355 192.209 236.571 194.223 236.707 196.327C236.963 200.43 240.294 204.205 244.651 204.011C249.007 203.817 252.609 199.998 252.263 195.686C251.916 191.373 248.585 187.942 244.244 187.837C241.877 187.777 239.616 189.941 239.722 192.313C239.827 194.686 241.711 196.73 244.244 196.79C243.882 196.79 243.611 196.626 243.294 196.476C243.731 196.685 243.52 196.67 243.264 196.402C243.595 196.745 243.565 196.581 243.264 196.372C243.58 196.596 243.384 196.834 243.264 196.327C243.158 195.879 243.369 195.79 243.264 196.238C243.339 195.954 243.384 195.7 243.475 195.432C243.611 195.014 243.867 195.298 243.445 195.462C243.731 195.342 243.897 195.133 244.244 195.089C244.545 195.044 244.816 195.104 245.088 195.238C245.223 195.298 245.826 195.82 245.525 195.506C245.073 195.044 245.977 196.103 245.6 195.581C245.223 195.059 245.872 196.238 245.661 195.671C245.449 195.104 245.766 196.432 245.706 195.82C245.661 195.402 245.661 196.103 245.615 196.238C245.57 196.402 245.103 196.76 245.465 196.461C245.645 196.282 245.661 196.267 245.48 196.417C245.163 196.73 244.741 196.864 244.214 196.805C246.55 196.506 248.856 194.969 248.735 192.328C248.63 190.165 246.731 187.524 244.214 187.852H244.259Z" fill="#3E302E"/>
<path d="M116.061 122.29C82.8553 160.651 68.3248 211.024 76.4643 260.979C77.3837 266.649 86.1111 264.247 85.1916 258.592C77.6098 212.039 91.5374 164.352 122.468 128.616C126.236 124.259 119.875 117.903 116.077 122.29H116.061Z" fill="#3E302E"/>
<path d="M72.0477 137.509C72.9973 144.731 73.9318 151.952 74.8814 159.174C75.62 164.814 84.679 164.874 83.9253 159.174C82.9757 151.952 82.0412 144.731 81.0916 137.509C80.353 131.869 71.294 131.809 72.0477 137.509Z" fill="#3E302E"/>
<path d="M74.8515 128.109C86.4879 128.109 86.503 110.204 74.8515 110.204C63.1999 110.204 63.1999 128.109 74.8515 128.109Z" fill="#3E302E"/>
<path d="M51.7441 117.44C53.372 130.809 54.9849 144.193 56.6128 157.563C57.2911 163.218 66.35 163.277 65.6567 157.563C64.0288 144.193 62.4159 130.809 60.788 117.44C60.1097 111.785 51.0508 111.726 51.7441 117.44Z" fill="#3E302E"/>
<path d="M19.0656 123.051C21.2211 136.554 23.3916 150.057 25.5471 163.576C26.4515 169.246 35.1788 166.843 34.2744 161.188C32.119 147.685 29.9484 134.182 27.793 120.663C26.8886 114.993 18.1612 117.396 19.0656 123.051Z" fill="#3E302E"/>
<path d="M31.6216 147.461C39.6254 145.88 47.6293 144.298 55.618 142.716C61.3157 141.582 58.904 132.958 53.2063 134.077C45.2025 135.659 37.1986 137.24 29.2099 138.822C23.5122 139.956 25.9239 148.58 31.6216 147.461Z" fill="#3E302E"/>
<path d="M58.4367 197.566C61.6774 193.059 66.8626 190.09 72.4547 189.926C81.3328 189.657 83.8651 196.805 90.8289 200.102C100.868 204.847 113.092 201.49 120.101 193.313C123.839 188.941 117.478 182.585 113.71 186.987C108.871 192.642 100.265 195.775 93.3461 191.329C90.9043 189.762 89.3216 187.076 86.9853 185.33C84.046 183.137 80.5792 181.884 76.9616 181.287C66.4556 179.571 56.6279 184.704 50.6137 193.059C47.2373 197.759 55.0754 202.236 58.4216 197.58L58.4367 197.566Z" fill="#3E302E"/>
<path d="M216.253 226.124C222.418 233.659 231.612 237.897 241.395 237.792C247.213 237.733 247.228 228.78 241.395 228.84C233.783 228.914 227.377 225.572 222.644 219.798C218.981 215.321 212.62 221.693 216.253 226.124Z" fill="#3E302E"/>
</svg>
