<svg width="361" height="360" viewBox="0 0 361 360" fill="none" xmlns="http://www.w3.org/2000/svg">
<path d="M65.4222 261.141C59.0744 248.56 56.3314 237.701 54.9957 230.341C49.2511 198.465 59.0457 170.793 66.0542 150.953C68.9696 142.719 71.8275 136.12 73.8238 131.773C70.3913 127.771 63.4116 118.503 61.5015 104.904C60.1228 95.1487 61.9324 87.1582 63.3973 82.5102C70.8078 80.9322 82.9721 79.3112 97.5347 81.7499C108.047 83.5144 116.392 86.8282 122.179 89.6687C133.812 87.5168 147.427 85.781 162.665 85.3076C185.04 84.619 204.442 86.8139 219.809 89.6687C228.469 85.9675 244.066 80.674 263.885 81.4917C274.441 81.9221 283.302 83.9735 289.966 86.0966C290.368 91.591 290.296 99.4237 288.07 108.49C285.887 117.399 282.397 124.356 279.539 129.09C294.001 145.143 299.861 160.708 302.417 169.746C306.639 184.651 306.209 196.844 305.706 210.874C305.074 228.462 302.288 243.798 299.028 256.292C288.472 261.041 272.646 267.382 252.74 272.474C242.759 275.028 196.486 286.16 135.047 278.126C117.483 275.831 93.2694 271.212 65.4222 261.141Z" fill="#FCEAF0"/>
<path d="M220.843 175.211C234.946 168.971 253.573 175.068 261.084 188.438C265.91 197.031 266.384 209.024 259.26 218.377C251.678 228.333 238.336 231.575 227.435 228.821C211.637 224.833 201.8 208.421 205.117 194.004C205.29 193.229 208.392 180.706 220.843 175.197V175.211Z" fill="#F7D0DD"/>
<path d="M88.8891 175.211C102.992 168.971 121.619 175.068 129.13 188.438C133.956 197.031 134.43 209.024 127.306 218.377C119.723 228.333 106.382 231.575 95.4811 228.821C79.6834 224.833 69.8457 208.421 73.1632 194.004C73.3355 193.229 76.4376 180.706 88.8891 175.197V175.211Z" fill="#F7D0DD"/>
<path d="M168.596 230.255C180.616 230.356 199.962 225.78 203.049 213.801C206.338 201.076 190.023 184.78 172.847 182.743C152.338 180.304 130.854 198.236 132.907 211.52C134.688 223.083 154.134 230.141 168.596 230.255Z" fill="#F7D0DD"/>
<path d="M168.596 234.559C183.072 234.444 207.43 229.136 207.774 210.688C208.119 192.24 184.738 177.621 167.705 178.253C151.936 178.841 129.303 190.848 128.484 208.809C127.637 227.716 154.191 234.157 168.581 234.559C174.125 234.717 174.125 226.109 168.581 225.952C159.433 225.693 136.096 221.877 137.101 208.809C138.106 195.74 156.661 187.319 167.705 186.86C179.769 186.358 199.732 196.357 199.157 210.688C198.64 223.298 177.96 225.88 168.596 225.952C163.052 225.995 163.038 234.602 168.596 234.559Z" fill="#3E302E"/>
<path d="M155.455 208.278C155.986 208.249 155.8 208.407 155.556 208.235C155.512 208.206 154.794 207.704 155.168 208.063C155.498 208.378 155.067 207.862 154.995 207.733C154.766 207.288 154.952 208.22 154.967 207.675C154.967 207.36 154.981 206.714 154.909 207.388C154.852 207.919 154.679 207.575 154.909 207.36C154.565 207.661 154.694 207.532 154.952 207.331C155.599 206.872 154.766 207.302 155.254 207.159C155.929 206.958 156.245 206.972 156.877 207.202C157.322 207.36 156.317 206.686 156.906 207.245C156.546 206.901 156.906 206.843 156.848 207.159C156.805 207.388 156.848 207.661 156.791 207.919C156.92 207.231 156.834 207.962 156.719 207.934C156.834 207.948 157.02 207.446 156.59 207.991C156.446 208.177 155.67 208.307 156.575 208.134C158.859 207.675 160.166 204.964 159.591 202.841C158.931 200.46 156.575 199.384 154.292 199.828C150.141 200.646 147.657 205.05 148.461 209.053C149.265 213.055 153.473 216.397 157.624 215.393C161.142 214.547 163.655 210.846 163.526 207.274C163.383 203.056 159.749 199.441 155.441 199.671C153.114 199.8 151.132 201.564 151.132 203.974C151.132 206.212 153.1 208.407 155.441 208.278H155.455Z" fill="#3E302E"/>
<path d="M175.82 208.952C175.202 208.88 175.001 208.809 174.585 208.35C174.958 208.766 174.728 208.579 174.628 208.12C174.47 207.446 174.628 208.723 174.656 208.005C174.671 207.388 174.427 208.421 174.685 207.919C174.944 207.417 174.269 208.235 174.714 207.876C174.8 207.804 175.418 207.388 175.03 207.589C174.642 207.79 175.489 207.446 175.604 207.446C175.834 207.446 175.992 207.561 176.208 207.604C176.538 207.661 176.337 207.919 176.121 207.518C176.409 208.063 176.523 208.264 176.409 208.909C176.538 208.192 176.394 208.909 176.351 208.895C176.581 208.536 176.61 208.464 176.437 208.708C176.279 208.895 176.294 208.895 176.466 208.708C176.839 208.637 176.279 208.78 176.121 208.88C175.791 209.067 176.768 208.923 175.82 208.938C178.075 208.88 180.229 207.001 180.128 204.634C180.028 202.267 178.233 200.273 175.82 200.33C171.727 200.417 168.524 203.573 167.978 207.561C167.375 212.008 171.224 215.953 175.604 216.053C179.985 216.154 182.871 212.524 183.202 208.579C183.36 206.643 182.627 204.749 181.45 203.257C179.985 201.406 178.103 200.603 175.805 200.345C173.508 200.087 171.396 202.511 171.497 204.648C171.612 207.202 173.393 208.665 175.805 208.952H175.82Z" fill="#3E302E"/>
<path d="M73.3641 260.352C45.9622 218.894 54.5073 168.024 82.4693 129.349C85.715 124.858 78.247 120.555 75.03 125.002C45.3446 166.059 36.9574 220.888 65.9248 264.699C68.9694 269.304 76.4375 265 73.3641 260.352Z" fill="#3E302E"/>
<path d="M270.52 129.191C306.223 163.434 314.251 216.541 292.335 260.553C289.879 265.502 297.304 269.863 299.774 264.9C323.399 217.459 315.228 160.134 276.624 123.108C272.617 119.278 266.527 125.346 270.534 129.191H270.52Z" fill="#3E302E"/>
<path d="M76.7966 130.568C66.8584 117.901 63.5409 101.805 68.1797 86.3405L65.1637 89.3531C73.6514 87.646 82.2971 87.1152 90.9284 87.8612C96.9603 88.3776 102.906 89.5826 108.679 91.3615C112.744 92.6239 116.578 94.9048 120.614 96.0812C123.716 96.9849 126.703 95.9951 129.877 95.4787C134.631 94.704 139.399 94.0871 144.181 93.585C154.995 92.4661 165.867 92.0214 176.725 92.2366C187.481 92.4374 198.253 93.2694 208.909 94.8044C212.528 95.3209 216.779 96.7985 220.441 96.6693C223.342 96.5689 226.545 94.7757 229.36 93.9724C248.978 88.2772 269.644 88.0477 289.449 92.9395L286.289 88.7936C287.122 102.508 284.12 115.692 277.529 127.756C274.872 132.619 282.311 136.966 284.968 132.103C292.249 118.762 295.825 104 294.906 88.7936C294.791 86.9287 293.657 85.1212 291.746 84.6478C271.726 79.6985 250.759 79.5551 230.738 84.6764C227.478 85.5085 224.003 87.3017 220.7 87.7321C216.836 88.2341 211.738 86.5701 207.86 86.0536C197.089 84.6047 186.246 83.7727 175.375 83.6292C164.503 83.4858 152.985 84.0165 141.855 85.2646C137.087 85.7954 132.333 86.441 127.608 87.2156C123.86 87.8181 122.495 87.4308 119.034 86.0106C101.211 78.6226 81.6796 77.2598 62.8802 81.047C61.4154 81.3483 60.2808 82.6824 59.8643 84.0596C54.2776 102.709 58.8303 121.53 70.6929 136.665C74.111 141.026 80.1716 134.886 76.7823 130.582L76.7966 130.568Z" fill="#3E302E"/>
<path d="M202.662 151.857C210.13 158.714 219.321 163.247 229.389 164.624C234.817 165.37 237.158 157.064 231.686 156.318C223.069 155.142 215.185 151.656 208.765 145.774C204.687 142.03 198.583 148.098 202.676 151.857H202.662Z" fill="#3E302E"/>
<path d="M128.11 146.19C121.964 151.627 114.28 155.156 106.108 156.103C100.665 156.734 100.608 165.356 106.108 164.71C116.693 163.477 126.2 159.345 134.2 152.273C138.365 148.6 132.247 142.532 128.11 146.19Z" fill="#3E302E"/>
<path d="M158.399 262.734C155.053 260.897 154.148 252.462 157.81 248.101C163.296 241.545 178.836 244.328 181.607 251.429C183.259 255.661 180.631 262.074 176.954 263.307C174.412 264.154 173.235 261.916 168.395 261.6C162.736 261.213 160.726 264.039 158.385 262.748L158.399 262.734Z" fill="#E490B1"/>
<path d="M160.568 259.018C159.175 258.028 159.72 254.026 160.122 252.835C160.869 250.655 162.176 249.679 164.345 249.077C167.964 248.072 173.809 248.761 176.566 251.616C178.146 253.237 178.089 255.432 177.055 257.426C175.82 259.821 175.532 258.903 173.349 258.215C170.779 257.397 168.093 257.096 165.407 257.383C164.057 257.526 160.697 259.047 159.534 258.588C154.349 256.594 152.109 264.914 157.236 266.894C161.472 268.529 165.58 265.115 169.989 266.191C174.096 267.195 176.911 268.816 180.861 266.019C188.573 260.524 187.883 248.704 180.286 243.683C173.594 239.264 162.55 238.332 156.13 243.769C149.71 249.206 149.05 261.4 156.216 266.478C160.754 269.691 165.063 262.232 160.568 259.047V259.018Z" fill="#3E302E"/>
<path fill-rule="evenodd" clip-rule="evenodd" d="M199.416 173.691C202.188 163.85 213.232 161.009 221.561 166.016L221.576 166.03C221.946 166.252 222.261 166.502 222.525 166.773C234.729 176.488 228.21 206.706 209.713 197.103C201.412 192.799 196.86 182.757 199.416 173.691Z" fill="#3E302E"/>
<path fill-rule="evenodd" clip-rule="evenodd" d="M213.798 170.391C213.839 170.39 213.88 170.39 213.921 170.391C215.817 170.463 217.741 171.066 219.306 172.17C220.8 173.232 222.15 174.738 222.236 176.646C222.394 179.945 218.402 182.456 215.4 182.169C215.03 182.135 214.659 182.075 214.296 182.017C214.194 182 214.093 181.984 213.993 181.968C213.921 181.959 213.687 181.945 213.657 181.942C213.64 181.94 213.696 181.943 213.907 181.954C213.734 181.939 213.562 181.925 213.39 181.925C213.369 181.92 213.344 181.919 213.32 181.92C213.347 181.914 213.379 181.906 213.418 181.896L213.366 181.908C213.348 181.912 213.331 181.916 213.313 181.921C213.262 181.924 213.213 181.936 213.203 181.94C213.196 181.943 213.209 181.943 213.252 181.935C213.144 181.96 213.035 181.988 212.929 182.024C212.904 182.038 212.861 182.061 212.817 182.084C212.763 182.112 212.709 182.141 212.686 182.155C212.636 182.18 212.548 182.245 212.494 182.286C212.424 182.338 212.411 182.347 212.614 182.169C212.485 182.277 212.359 182.388 212.234 182.499C211.763 182.917 211.3 183.328 210.675 183.532C209.971 183.761 209.196 183.733 208.507 183.489C205.103 182.284 203.853 177.708 205.649 174.738C207.296 172.015 210.655 170.4 213.798 170.391ZM213.252 181.935C213.269 181.931 213.291 181.927 213.32 181.92C213.317 181.92 213.315 181.92 213.313 181.921C213.293 181.925 213.272 181.93 213.252 181.935Z" fill="white"/>
<path d="M215.472 190.905C215.96 191.192 216.736 191.881 216.607 192.498C216.391 193.516 213.677 194.377 212.743 193.287C212.241 192.713 212.212 191.537 212.858 190.905C213.605 190.145 214.869 190.547 215.472 190.905Z" fill="white" stroke="white" stroke-miterlimit="10"/>
<path fill-rule="evenodd" clip-rule="evenodd" d="M113.031 169.215C119.149 162.229 129.69 163.735 135.521 170.32V170.334C135.635 170.461 135.739 170.591 135.834 170.722C135.96 170.868 136.081 171.025 136.196 171.195C140.863 178.095 138.767 187.735 133.352 193.631C127.263 200.259 118.66 198.867 113.189 192.182C107.861 185.684 107.344 175.713 113.031 169.215Z" fill="#3E302E"/>
<path fill-rule="evenodd" clip-rule="evenodd" d="M121.011 170.298C121.154 170.261 121.3 170.234 121.447 170.219C124.965 169.875 128.369 172.256 129.934 175.283C130.48 176.345 130.997 177.607 130.925 178.826C130.868 179.888 130.38 180.907 129.432 181.452C128.671 181.882 127.852 181.882 127.033 181.724C126.749 181.659 126.469 181.576 126.189 181.492C125.973 181.428 125.758 181.364 125.54 181.308C125.209 181.222 124.865 181.15 124.534 181.093C124.51 181.088 124.487 181.084 124.468 181.08C124.435 181.08 124.391 181.08 124.333 181.079C124.226 181.079 124.122 181.072 124.017 181.064C123.913 181.057 123.809 181.05 123.701 181.05C123.565 181.05 123.432 181.057 123.299 181.064C123.167 181.072 123.034 181.079 122.897 181.079C122.863 181.08 122.834 181.08 122.809 181.08C122.793 181.084 122.774 181.088 122.754 181.093C122.438 181.165 122.122 181.236 121.806 181.323C121.538 181.395 121.275 181.487 121.011 181.578C120.808 181.649 120.605 181.719 120.398 181.782C118.833 182.269 117.296 182.04 116.032 180.993C114.769 179.945 114.065 178.123 114.194 176.502C114.497 172.984 117.792 170.861 121.011 170.298Z" fill="white"/>
<path d="M126.258 189.241C127.191 189.643 128.039 190.69 127.838 191.551C127.536 192.828 124.908 193.66 123.515 192.598C122.897 192.125 122.423 191.192 122.667 190.389C123.041 189.184 124.922 188.653 126.243 189.227L126.258 189.241Z" fill="white" stroke="white" stroke-miterlimit="10"/>
</svg>
