<svg width="361" height="360" viewBox="0 0 361 360" fill="none" xmlns="http://www.w3.org/2000/svg">
<path d="M277.947 258.716C298.76 255.709 314.434 239.26 315.888 220.075C317.068 204.385 308.576 188.994 294.212 180.533C293.967 174.091 292.715 163.411 286.986 151.786C282.999 143.683 278.149 137.756 274.335 133.819C277.602 129.81 284.251 120.49 286.079 106.861C287.389 97.0681 285.662 89.0652 284.266 84.398C278.249 83.038 269.844 81.8497 259.869 82.5942C245.649 83.6679 234.738 88.2349 228.247 91.5849C216.013 89.1941 201.058 87.247 183.988 87.0895C164.945 86.9178 148.422 89.008 135.209 91.5849C128.501 88.5069 117.591 84.4696 103.587 83.4961C88.0706 82.4081 75.6492 85.5434 68.3518 87.9915C67.7904 92.9164 67.5026 101.019 70.1653 110.454C73.1591 121.106 78.5135 128.493 81.8383 132.444C73.5334 143.94 63.3861 160.619 55.8728 182.323C46.1717 210.34 44.9051 235.008 45.3656 251.099C81.8815 256.54 113.302 260.548 137.958 263.454C220.302 273.132 245.793 263.368 277.918 258.73L277.947 258.716Z" fill="#FCEAF0"/>
<path d="M180.015 173.418C166.471 167.162 148.595 173.275 141.369 186.689C136.734 195.308 136.288 207.348 143.125 216.74C150.408 226.718 163.218 229.983 173.682 227.219C188.853 223.211 198.295 206.747 195.114 192.273C194.941 191.485 191.962 178.93 180.015 173.404V173.418Z" fill="#F7D0DD"/>
<path d="M287.792 173.604C280.739 173.833 275.399 186.632 273.787 192.402C272.895 195.594 270.218 205.143 275.86 214.549C276.321 215.322 283.402 226.704 296.889 227.778C300.573 228.078 304.373 228.379 306.978 226.36C317.975 217.871 301.164 173.16 287.792 173.604Z" fill="#F7D0DD"/>
<path d="M281.689 131.771C287.821 115.708 288.641 98.4282 284.338 81.7925C283.992 80.4467 282.74 79.058 281.315 78.786C263.885 75.5219 245.994 77.7266 230.104 85.6866C226.29 87.605 224.159 86.4597 219.669 85.7725C214.919 85.0566 210.155 84.4554 205.391 83.9829C193.818 82.8519 182.174 82.494 170.559 82.9664C160.829 83.353 150.897 85.7725 141.24 85.8011C137.828 85.8011 135.828 84.5269 132.517 83.1669C127.408 81.0767 122.14 79.4589 116.713 78.4281C100.031 75.3071 82.8171 77.383 67.2003 83.8541C65.2284 84.6701 64.2641 85.887 64.0338 87.9915C62.2202 103.911 65.9625 119.76 74.5553 133.289C77.5203 137.942 84.9904 133.647 82.011 128.951C74.1379 116.582 71.0145 102.537 72.6698 87.9915L69.5032 92.129C85.3071 85.5864 102.694 83.5391 119.405 87.8197C126.602 89.6666 134.129 95.5363 141.484 94.4053C151.128 92.9307 160.814 91.9429 170.573 91.5563C181.339 91.1268 192.134 91.3989 202.872 92.3437C208.111 92.8019 213.321 93.4318 218.517 94.2335C221.842 94.7489 226.045 96.3667 229.399 95.7224C232.076 95.207 235.185 92.6873 237.704 91.585C241.647 89.867 245.793 88.5499 249.995 87.5764C259.538 85.3716 269.426 85.2571 279.041 87.061L276.019 84.0545C279.948 99.3016 278.955 114.792 273.37 129.466C271.398 134.635 279.746 136.882 281.704 131.757L281.689 131.771Z" fill="#3E302E"/>
<path d="M83.695 122.909C54.3614 160.347 39.0901 207.019 41.1915 254.507C41.4362 260.018 50.0722 260.047 49.8275 254.507C47.8268 209.438 61.8891 164.599 89.7977 128.98C93.1802 124.67 87.1062 118.543 83.695 122.909Z" fill="#3E302E"/>
<path d="M265.166 127.348C275.745 136.925 283.719 148.951 287.864 162.638C289.232 167.133 289.059 174.42 291.592 178.271C293.147 180.619 296.385 182.538 298.328 184.699C300.948 187.606 303.193 190.855 305.021 194.306C315.816 214.807 308.418 239.818 289.03 252.13C284.352 255.094 288.685 262.524 293.391 259.546C314.319 246.275 324.322 220.247 315.528 196.754C313.024 190.068 309.238 183.926 304.445 178.629C303.107 177.155 300.905 175.637 299.753 174.048C299.494 173.69 299.235 173.103 298.832 172.144C297.551 168.994 297.493 164.814 296.529 161.478C292.067 146.016 283.23 132.101 271.283 121.292C267.181 117.584 261.049 123.64 265.18 127.362L265.166 127.348Z" fill="#3E302E"/>
<path fill-rule="evenodd" clip-rule="evenodd" d="M180.49 159.545C185.355 154.721 193.329 156.21 197.776 160.777L197.791 160.762C198.096 161.075 198.339 161.4 198.526 161.733C202.187 166.669 200.498 173.774 196.279 177.827C191.429 182.495 184.506 180.991 180.447 176.253C176.388 171.514 175.625 164.37 180.49 159.545Z" fill="#3E302E"/>
<path fill-rule="evenodd" clip-rule="evenodd" d="M262.302 159.388C264.677 153.532 271.974 151.686 277.084 155.422L277.065 155.431C277.367 155.606 277.662 155.826 277.947 156.095C285.763 163.468 278.724 182.538 267.195 174.721C262.273 171.385 259.927 165.243 262.302 159.388Z" fill="#3E302E"/>
<path d="M311.771 264.342C312.606 253.433 308.763 243.784 301.408 239.789C299.796 238.916 297.393 237.971 294.096 237.771C280.754 222.108 273.111 214.922 271.168 216.224C269.383 217.413 272.377 225.716 280.149 241.121C277.947 241.665 274.694 242.738 271.269 244.986C267.929 247.162 264.317 250.527 263.064 253.218C259.869 260.047 267.023 272.975 281.833 283.011" fill="#FCEAF0"/>
<path d="M319.947 263.927C320.436 253.304 317.457 241.25 307.439 235.666C305.395 234.521 302.776 234.464 300.833 233.418C298.386 232.101 296.385 228.751 294.485 226.561C290.973 222.509 287.375 218.386 283.201 214.979C279.502 211.972 273.241 208.909 270.52 214.864C267.051 222.452 274.824 235.981 277.544 242.538L280.567 237.255C272.305 240.262 261.596 246.962 261.956 256.898C262.345 267.606 272.06 276.339 280.077 282.137C284.583 285.387 288.901 277.943 284.439 274.722C279.113 270.87 272.435 265.215 270.909 258.458C269.383 251.701 277.674 247.434 282.855 245.545C284.842 244.829 286.828 242.552 285.878 240.262C284.05 235.867 282.236 231.443 280.711 226.933C279.962 224.728 279.804 220.963 278.595 219.045C278.537 218.63 278.509 218.2 278.537 217.771C274.953 218.902 273.831 219.603 275.212 219.875C275.227 220.061 276.537 220.505 276.709 220.777C278.106 222.882 281.114 224.714 282.898 226.589C287.231 231.114 291.937 239.918 297.94 241.665C302.992 243.139 306.374 244.499 308.95 249.467C311.268 253.92 311.527 259.045 311.296 263.941C311.037 269.467 319.673 269.453 319.932 263.941L319.947 263.927Z" fill="#3E302E"/>
<path d="M206.384 209.424C201.663 211.514 198.741 214.263 197.1 216.153C195.085 218.472 192.508 221.407 193.315 224.055C194.192 226.919 198.525 227.878 200.655 228.336C209.435 230.283 211.983 225.544 222.634 226.403C225.124 226.604 226.621 226.99 232.882 227.577C238.035 228.05 236.307 227.72 240.222 228.093C246.124 228.651 248.369 229.252 250.614 227.763C250.96 227.534 252.111 226.747 252.831 225.272C253.018 224.886 253.608 223.569 253.277 221.02C252.845 217.656 251.233 215.065 250.039 213.519" fill="#E490B1"/>
<path d="M204.196 205.716C197.46 209.037 183.326 219.775 190.954 228.365C198.582 236.955 210.227 230.985 219.266 230.627C228.765 230.254 238.524 233.848 248.009 232.932C259.61 231.801 258.977 218.787 253.752 211.357C250.585 206.861 243.101 211.142 246.296 215.695C248.383 218.672 251.104 223.755 246.066 224.37C243.346 224.7 240.107 223.798 237.358 223.597C232.436 223.225 227.527 222.466 222.619 222.123C216.617 221.693 211.695 224.013 205.894 224.485C202.353 224.771 197.561 224.399 199.259 220.276C200.597 217.026 205.736 214.535 208.543 213.146C213.523 210.698 209.147 203.282 204.181 205.73L204.196 205.716Z" fill="#3E302E"/>
<path d="M155.115 202.853C154.971 206.346 154.726 209.839 154.28 213.304C153.963 215.738 153.891 219.488 152.725 221.693C152.049 222.996 152.682 223.325 151.056 223.254C149.66 223.196 149.026 221.908 148.594 220.834C147.198 217.398 148.508 213.017 149.573 209.725C151.286 204.456 142.952 202.194 141.239 207.434C139.426 213.032 138.375 219.718 141.11 225.229C143.384 229.811 148.71 232.889 153.906 231.629C159.102 230.369 160.699 225.931 161.649 221.393C162.916 215.294 163.492 209.023 163.751 202.824C163.981 197.298 155.345 197.312 155.115 202.824V202.853Z" fill="#3E302E"/>
<path d="M233.947 213.762C224.404 214.02 204.757 211.357 200.583 197.899C198.108 189.911 201.864 180.634 207.607 175.408C213.163 170.369 220 170.111 233.688 169.581C245.893 169.109 252.011 168.88 257.638 172.759C264.13 177.226 269.326 186.045 267.872 194.291C265.425 208.064 245.634 213.433 233.947 213.762Z" fill="#F7D0DD"/>
<path d="M233.947 209.467C224.145 209.61 208.356 207.663 204.743 196.754C202.411 189.682 206.628 180.276 213.091 176.754C218.704 173.69 226.275 174.177 232.45 173.933C238.625 173.69 246.196 172.559 252.212 174.778C259.193 177.355 264.878 186.074 263.568 193.475C261.452 205.458 244.065 209.037 233.947 209.481C228.405 209.725 228.377 218.315 233.947 218.071C246.138 217.541 260.891 213.862 268.448 203.511C277.242 191.457 269.959 173.905 257.365 167.634C251.248 164.599 244.022 164.943 237.401 165.157C229.413 165.415 220.59 165.057 212.889 167.563C199.82 171.829 191.832 188.379 197.215 201.106C202.944 214.664 220.719 218.243 233.947 218.042C239.503 217.957 239.517 209.367 233.947 209.453V209.467Z" fill="#3E302E"/>
<path d="M246.138 183.082C241.849 183.01 238.207 186.546 238.164 190.827C238.135 194.649 240.812 198.372 244.713 198.916C248.959 199.517 252.903 196.281 253.464 192.13C253.982 188.25 251.334 183.898 247.275 183.239C244.972 182.867 242.626 183.826 241.964 186.246C241.403 188.293 242.669 191.156 244.986 191.528C245.706 191.643 244.986 191.5 245.03 191.414C245.404 191.643 245.461 191.672 245.202 191.514C245.087 191.471 245.015 191.385 244.958 191.285C244.684 190.798 245.116 191.872 244.986 191.328C244.871 190.827 244.9 191.929 244.986 191.371C245.015 191.07 245.058 190.841 245.145 190.555C245.044 190.884 244.785 190.941 245.102 190.655C245.418 190.369 245.303 190.583 245.001 190.684C245.318 190.569 245.533 190.44 245.893 190.483C246.224 190.512 246.411 190.655 246.699 190.813C247.189 191.085 246.455 190.44 246.757 190.87C246.915 191.085 246.93 191.085 246.8 190.87C246.656 190.598 246.671 190.669 246.872 191.099L246.771 190.755L246.814 191.199C246.944 190.669 246.843 191.042 246.728 191.299C246.944 190.827 246.858 191.142 246.685 191.299C246.57 191.4 246.052 191.743 246.469 191.543C247.102 191.242 244.799 191.672 246.124 191.7C248.455 191.743 250.442 189.696 250.442 187.405C250.442 185.115 248.47 183.153 246.124 183.11L246.138 183.082Z" fill="#3E302E"/>
<path d="M226.592 183.755C224.433 184.041 222.648 184.728 221.223 186.432C219.928 187.992 219.179 189.954 219.309 192.001C219.553 195.981 222.778 199.646 226.995 199.46C231.212 199.274 234.681 195.551 234.35 191.371C234.019 187.19 230.795 183.855 226.592 183.755C224.332 183.697 222.173 185.773 222.274 188.049C222.375 190.326 224.174 192.287 226.592 192.344C226.261 192.344 226.016 192.187 225.728 192.058C226.333 192.33 225.699 192.158 225.728 192.001C225.656 192.602 226.218 191.858 225.743 192.001C225.973 191.929 225.829 192.688 225.757 192.001C225.714 191.543 225.858 191.571 225.757 191.944C225.815 191.729 225.901 191.428 225.944 191.199C226.016 190.855 226.318 191.027 225.887 191.256C226.146 191.128 226.275 190.97 226.606 190.927C226.88 190.898 227.139 190.956 227.383 191.056C227.499 191.113 228.074 191.6 227.786 191.299C227.355 190.855 228.204 191.858 227.844 191.342C227.484 190.827 228.103 191.958 227.902 191.4C227.7 190.841 228.002 192.115 227.945 191.514C227.902 191.113 227.916 191.743 227.873 191.886C227.815 192.044 227.412 192.344 227.758 192.058C227.945 191.872 227.945 191.858 227.786 192.015C227.499 192.316 227.11 192.43 226.621 192.373C228.852 192.087 231.054 190.612 230.939 188.078C230.838 186.002 229.024 183.468 226.621 183.783L226.592 183.755Z" fill="#3E302E"/>
</svg>
