<svg width="361" height="360" viewBox="0 0 361 360" fill="none" xmlns="http://www.w3.org/2000/svg">
<path d="M67.3425 243.277C58.6458 237.521 54.3407 231.449 52.1089 227.539C40.9933 207.992 48.7973 184.078 61.2951 147.476C65.1395 136.206 68.7967 127.227 71.1581 121.656C67.7024 117.747 60.676 108.682 58.7466 95.4077C57.3644 85.8705 59.1786 78.0803 60.6616 73.5265C68.1344 71.9943 80.3731 70.3904 95.0451 72.7819C105.628 74.5146 114.037 77.7509 119.854 80.5147C131.574 78.4097 145.281 76.7199 160.63 76.2617C183.164 75.5886 202.702 77.7366 218.181 80.5147C226.892 76.8917 242.615 71.7222 262.571 72.5241C273.197 72.9537 282.124 74.9585 288.834 77.0206C289.237 82.3907 289.165 90.0376 286.919 98.9018C284.716 107.594 281.203 114.396 278.323 119.022C282.009 123.69 286.89 130.406 291.728 138.926C298.308 150.526 308.459 168.884 309.741 193.458C310.734 212.489 306.069 228.685 300.914 240.571C263.262 245.411 220.053 248.805 172.25 248.79C134.022 248.79 98.8607 246.599 67.3425 243.292V243.277Z" fill="#FCEAF0"/>
<path d="M219.217 161.652C233.429 155.409 252.175 161.509 259.749 174.927C264.601 183.548 265.091 195.577 257.906 204.957C250.275 214.938 236.827 218.188 225.855 215.425C209.945 211.415 200.039 194.975 203.379 180.512C203.566 179.724 206.691 167.18 219.217 161.652Z" fill="#F7D0DD"/>
<path d="M86.3196 161.652C100.531 155.409 119.278 161.509 126.851 174.927C131.704 183.548 132.193 195.577 125.008 204.957C117.377 214.938 103.929 218.188 92.9573 215.425C77.047 211.415 67.1409 194.975 70.4813 180.512C70.6685 179.724 73.793 167.18 86.3196 161.652Z" fill="#F7D0DD"/>
<path d="M164.374 169.228C152.279 169.5 132.942 174.698 130.221 186.799C127.326 199.658 144.245 215.482 161.609 216.985C182.343 218.775 203.379 200.131 200.903 186.885C198.743 175.357 178.945 168.898 164.388 169.228H164.374Z" fill="#F7D0DD"/>
<path d="M164.374 164.932C149.802 165.49 125.498 171.462 125.57 189.935C125.656 209.052 149.702 222.47 166.778 221.296C182.674 220.207 204.992 207.634 205.409 189.591C205.841 170.603 178.858 164.875 164.374 164.917C158.816 164.932 158.801 173.524 164.374 173.51C173.574 173.481 197.202 176.474 196.77 189.591C196.338 202.708 177.865 211.845 166.778 212.704C154.568 213.635 134.31 204.312 134.209 189.935C134.122 177.233 154.957 173.882 164.374 173.524C169.917 173.309 169.946 164.717 164.374 164.932Z" fill="#3E302E"/>
<path d="M153.359 191.811C153.892 191.782 153.719 191.94 153.474 191.768C153.431 191.739 152.725 191.252 153.1 191.596C153.431 191.911 152.999 191.395 152.927 191.267C152.697 190.823 152.884 191.753 152.898 191.209C152.898 190.88 152.898 190.25 152.841 190.923C152.797 191.467 152.596 191.109 152.841 190.894C152.495 191.166 152.61 191.066 152.884 190.88C153.532 190.422 152.682 190.866 153.172 190.722C153.849 190.522 154.151 190.551 154.784 190.751C155.216 190.894 154.237 190.235 154.799 190.78C154.439 190.422 154.799 190.379 154.741 190.694C154.698 190.923 154.741 191.195 154.684 191.438C154.799 190.737 154.712 191.481 154.612 191.438C154.684 191.467 154.914 190.923 154.482 191.496C154.338 191.682 153.561 191.811 154.482 191.639C156.771 191.181 158.082 188.474 157.506 186.355C156.843 183.978 154.482 182.904 152.193 183.347C148.032 184.164 145.526 188.574 146.333 192.57C147.139 196.565 151.372 199.916 155.533 198.913C159.075 198.069 161.58 194.36 161.465 190.794C161.321 186.57 157.664 182.961 153.345 183.19C151.012 183.319 149.025 185.08 149.025 187.486C149.025 189.72 150.998 191.911 153.345 191.782L153.359 191.811Z" fill="#3E302E"/>
<path d="M173.877 192.484C173.258 192.412 173.07 192.341 172.653 191.882C173.027 192.298 172.811 192.111 172.696 191.668C172.538 190.994 172.696 192.269 172.725 191.567C172.754 190.952 172.494 191.983 172.754 191.496C173.013 191.009 172.336 191.811 172.782 191.453C172.869 191.381 173.488 190.966 173.099 191.166C172.71 191.367 173.546 191.023 173.675 191.023C173.906 191.023 174.05 191.138 174.265 191.166C174.597 191.224 174.395 191.481 174.179 191.08C174.467 191.61 174.582 191.825 174.467 192.469C174.597 191.768 174.438 192.469 174.409 192.441C174.64 192.068 174.669 192.011 174.496 192.255C174.352 192.441 174.352 192.441 174.525 192.255C174.899 192.183 174.337 192.355 174.179 192.412C173.704 192.598 175 192.441 173.891 192.469C176.152 192.412 178.311 190.536 178.211 188.173C178.11 185.811 176.31 183.82 173.891 183.877C169.773 183.978 166.562 187.128 166.015 191.109C165.41 195.563 169.284 199.515 173.675 199.601C178.067 199.687 180.975 196.078 181.321 192.126C181.494 190.193 180.745 188.288 179.564 186.799C178.095 184.951 176.195 184.149 173.891 183.877C171.587 183.605 169.471 186.04 169.572 188.173C169.687 190.722 171.472 192.183 173.891 192.469L173.877 192.484Z" fill="#3E302E"/>
<path fill-rule="evenodd" clip-rule="evenodd" d="M200.309 157.659C200.329 157.635 200.349 157.61 200.37 157.586C204.07 153.189 210.996 152.975 214.668 157.442C218.109 161.624 217.994 167.739 214.61 171.906C211.039 176.288 205.179 176.574 201.464 172.249C198.268 168.54 196.957 162.769 199.693 158.445C199.881 158.147 200.088 157.886 200.309 157.659Z" fill="#3E302E"/>
<path fill-rule="evenodd" clip-rule="evenodd" d="M116.913 151.483C116.994 151.42 117.076 151.358 117.161 151.299C122.215 147.748 129.285 149.724 131.387 155.538C133.187 160.536 130.984 166.292 126.549 169.113C115.736 175.973 108.608 158.946 116.283 151.972C116.488 151.785 116.699 151.622 116.913 151.483Z" fill="#3E302E"/>
<path d="M116.182 139.399C122.143 141.246 127.787 143.967 131.891 148.779C135.49 153.003 141.581 146.903 137.996 142.707C132.971 136.821 125.757 133.385 118.472 131.108C113.158 129.447 110.884 137.738 116.168 139.399H116.182Z" fill="#3E302E"/>
<path d="M214.696 136.363C206.979 137.552 199.103 140.845 194.193 147.103C190.809 151.414 196.885 157.528 200.298 153.175C204.416 147.934 210.578 145.643 217 144.64C222.472 143.795 220.153 135.518 214.696 136.349V136.363Z" fill="#3E302E"/>
<path d="M78.6884 254.447C59.1497 242.876 53.1888 226.064 53.6783 204.355C54.355 174.383 64.7651 145.027 79.8403 119.351C82.648 114.568 75.1896 110.243 72.3819 115.012C55.9245 143.036 44.6073 175.729 45.0104 208.537C45.2984 231.664 53.8079 249.721 74.3257 261.865C79.1204 264.7 83.4687 257.268 78.6884 254.447Z" fill="#3E302E"/>
<path d="M269.252 119.208C300.022 154.034 325.392 211.93 287.293 250.48C283.391 254.433 289.496 260.504 293.398 256.552C335.14 214.308 309.366 151.614 275.357 113.122C271.685 108.954 265.595 115.055 269.252 119.193V119.208Z" fill="#3E302E"/>
<path d="M74.1241 120.425C64.1748 108.124 60.7623 92.4577 65.4418 77.2927L62.4182 80.2999C71.3884 78.5528 80.5602 78.0516 89.66 78.9395C100.056 79.9562 108.551 83.9229 118.284 86.8585C121.423 87.8036 124.36 86.7869 127.6 86.2857C132.783 85.4695 137.981 84.8251 143.208 84.3239C154.151 83.2785 165.166 82.8775 176.166 83.1353C186.547 83.3787 196.929 84.1807 207.209 85.6127C210.924 86.1282 215.632 87.7177 219.39 87.3597C222.673 87.0447 226.402 85.1401 229.599 84.2952C248.835 79.1973 269.007 79.14 288.316 83.7797L285.148 79.6412C285.983 93.0734 282.931 105.933 276.322 117.661C273.6 122.487 281.059 126.826 283.78 122C291.095 108.997 294.709 94.5484 293.787 79.6412C293.672 77.7939 292.534 75.9609 290.619 75.5027C271.109 70.82 250.736 70.5193 231.154 75.0587C227.396 75.9323 223.595 77.665 219.822 78.2664C215.791 78.8965 211.385 77.5791 207.296 77.0206C196.525 75.5743 185.683 74.7151 174.813 74.5146C163.078 74.2998 151.343 74.8153 139.68 76.0898C135.577 76.5337 131.488 77.0636 127.413 77.6793C122.474 78.424 121.106 78.5958 116.686 76.8201C98.7167 69.6028 79.034 68.314 60.1288 72.0086C58.6458 72.295 57.5371 73.6554 57.1051 75.0158C51.4609 93.3169 56.126 111.804 68.0192 126.511C71.5036 130.821 77.5797 124.707 74.1241 120.439V120.425Z" fill="#3E302E"/>
<path d="M110.912 207.42C142.589 208.264 174.251 209.152 205.899 210.083C222.342 210.57 238.785 211.057 255.242 211.558C254.58 226.494 254.091 241.673 253.774 257.053C253.572 266.691 253.457 276.242 253.399 285.708C226.69 285.693 199.808 285.593 172.768 285.407C150.94 285.264 129.213 285.063 107.601 284.82C105.254 270.629 104.044 253.401 106.132 233.998C107.169 224.36 108.868 215.468 110.912 207.405V207.42Z" fill="white"/>
<path d="M110.912 211.716C159.017 213.004 207.137 214.379 255.242 215.854L250.923 211.558C249.843 236.26 249.224 260.991 249.08 285.708L253.399 281.412C204.805 281.369 156.195 281.082 107.601 280.524L111.762 283.674C107.773 258.6 108.968 233.182 115.073 208.551C116.398 203.181 108.076 200.89 106.737 206.26C100.243 232.466 99.1774 259.301 103.425 285.951C103.713 287.798 105.844 289.087 107.586 289.102C156.181 289.66 204.79 289.946 253.385 289.989C255.732 289.989 257.69 288.013 257.705 285.693C257.849 260.963 258.468 236.246 259.548 211.544C259.648 209.167 257.489 207.319 255.228 207.248C207.123 205.773 159.017 204.398 110.898 203.109C105.34 202.966 105.34 211.558 110.898 211.701L110.912 211.716Z" fill="#3E302E"/>
<path d="M154.439 235.96C163.294 239.511 166.908 255.635 157.391 260.59C149.731 264.586 140.199 258.9 138.485 250.967C136.383 241.229 145.008 233.282 154.439 235.96C159.795 237.478 162.084 229.186 156.743 227.668C143.712 223.974 130.523 232.952 129.587 246.556C128.651 260.161 140.328 271.359 153.805 270.314C177.678 268.466 175.403 235.158 156.743 227.683C151.588 225.62 149.342 233.926 154.439 235.974V235.96Z" fill="#3E302E"/>
<path d="M184.733 229.014C183.84 241.501 182.933 253.989 182.041 266.476C181.637 271.989 190.291 271.975 190.68 266.476C191.572 253.989 192.479 241.501 193.372 229.014C193.775 223.501 185.122 223.515 184.733 229.014Z" fill="#3E302E"/>
<path d="M211.327 233.454C203.005 237.435 194.668 241.401 186.346 245.382C183.178 246.886 183.927 251.11 186.346 252.8C195.446 259.13 204.56 265.445 213.66 271.774C218.224 274.953 222.543 267.507 218.022 264.356C208.923 258.027 199.808 251.712 190.708 245.382V252.8C199.031 248.819 207.368 244.852 215.69 240.871C220.7 238.48 216.323 231.062 211.327 233.454Z" fill="#3E302E"/>
<path d="M267.668 222.241C265.811 222.055 259.216 221.396 254.033 225.449C242.255 234.685 250.62 258.285 251.888 261.836C254.45 269.068 257.215 276.872 263.723 278.605C272.319 280.896 281.865 271.13 285.954 263.626C286.861 261.965 293.355 249.564 287.034 236.876C286.213 235.229 280.123 223.501 267.668 222.255V222.241Z" fill="#FCEAF0"/>
<path d="M267.668 217.945C249.454 216.269 241.953 231.492 243.94 247.373C245.394 259.001 250.016 280.137 263.435 282.901C279.115 286.123 291.872 266.676 293.701 253.387C295.904 237.449 285.407 220.58 268.82 218.102C263.378 217.286 261.031 225.563 266.516 226.394C277.603 228.041 285.566 237.979 285.45 249.077C285.393 253.917 283.895 258.872 281.347 262.982C278.122 268.18 270.433 277.302 263.55 273.693C256.668 270.084 254.004 255.678 252.795 248.547C250.865 237.162 253.515 225.234 267.668 226.537C273.197 227.052 273.168 218.446 267.668 217.945Z" fill="#3E302E"/>
<path d="M95.1458 222.399C103.396 223.157 110.178 231.506 112.15 239.311C114.08 246.958 111.171 253.23 108.09 259.903C104.793 267.006 99.6813 278.047 91.8197 278.662C82.36 279.407 71.4171 264.915 71.4891 251.082C71.5611 237.048 82.9791 221.282 95.1602 222.399H95.1458Z" fill="#FCEAF0"/>
<path d="M93.994 226.537C99.6526 227.453 103.771 231.062 106.333 236.089C109.674 242.661 108.22 249.063 105.383 255.521C102.935 261.091 97.9104 275.54 89.948 274.266C80.1715 272.705 75.1752 257.225 75.8951 249.063C76.7446 239.354 84.0879 226.394 95.1603 226.695C100.718 226.838 100.718 218.246 95.1603 218.102C79.8979 217.687 69.2574 233.353 67.5008 247.043C65.7442 260.733 73.9225 280.796 89.1849 282.801C103.555 284.691 111.301 265.115 115.131 254.447C120.329 239.998 112.798 220.938 96.3121 218.26C90.8695 217.372 88.537 225.649 94.0084 226.551L93.994 226.537Z" fill="#3E302E"/>
</svg>
