<svg width="361" height="360" viewBox="0 0 361 360" fill="none" xmlns="http://www.w3.org/2000/svg">
<path d="M77.4727 268.692C71.962 265.844 49.5454 254.248 46.0778 230.398C42.8261 208.038 58.6387 191.646 61.0702 189.213C61.3148 182.67 62.581 171.805 68.365 159.98C72.3937 151.749 77.2856 145.722 81.1273 141.714C77.8324 137.634 71.1131 128.171 69.2715 114.299C67.9478 104.336 69.6887 96.2045 71.0988 91.4518C77.1705 90.0775 85.6595 88.8607 95.7168 89.6194C110.062 90.7217 121.083 95.3599 127.63 98.7527C139.975 96.3191 155.068 94.3435 172.305 94.1861C191.527 94 208.203 96.133 221.526 98.7527C228.303 95.6176 239.31 91.5234 253.439 90.5356C269.094 89.4333 281.64 92.6257 288.992 95.1022C289.366 100.714 289.309 108.688 287.165 117.95C285.064 127.026 281.712 134.126 278.964 138.965C286.705 147.039 306.56 169.93 311.783 205.661C315.74 232.775 309.409 254.491 305.467 265.171C263.166 269.194 232.346 272.2 127.457 275.721C104.22 276.509 91.645 276.022 77.5015 268.707L77.4727 268.692Z" fill="#FCEAF0"/>
<path d="M186.995 185.548C200.764 179.435 218.937 185.405 226.274 198.518C230.979 206.935 231.44 218.688 224.49 227.85C217.095 237.599 204.059 240.777 193.426 238.086C178.002 234.178 168.42 218.101 171.643 203.972C171.815 203.213 174.851 190.945 186.995 185.548Z" fill="#F7D0DD"/>
<path d="M90.5082 236.096C83.4293 240.949 71.7605 243.683 64.3363 238.429C52.1207 229.783 55.3005 202.268 69.0124 193.207C73.0986 190.501 79.415 188.597 86.0911 189.227C88.1773 189.427 94.3786 190.014 98.3641 193.622C107.601 201.996 105.141 226.075 90.5082 236.096Z" fill="#F7D0DD"/>
<path d="M84.1344 137.29C78.4511 122.359 77.4295 106.555 81.4438 91.0796L78.4223 94.0858C87.7746 92.325 97.4146 92.3393 106.738 94.3292C111.414 95.3313 116.047 96.7772 120.421 98.6811C122.968 99.7977 126.133 102.375 128.838 102.89C132.09 103.505 136.147 101.959 139.37 101.458C144.305 100.685 149.284 100.055 154.262 99.5973C165.211 98.5666 176.233 98.2374 187.211 98.6096C197.196 98.9531 207.167 99.855 217.023 101.387C224.951 102.618 231.598 97.2639 239.253 95.1738C256.576 90.4354 274.69 92.4109 291.136 99.2394L287.971 95.1022C289.539 108.917 286.92 122.373 279.942 134.427C277.165 139.223 284.618 143.56 287.395 138.765C295.078 125.48 298.345 110.348 296.604 95.1022C296.359 92.9692 295.381 91.7667 293.438 90.9651C277.597 84.3942 260.13 82.2755 243.209 85.4536C237.699 86.4843 232.346 88.1449 227.167 90.2636C223.958 91.5806 221.67 92.9549 218.275 92.9406C208.045 92.8977 197.527 90.3638 187.211 90.0202C175.815 89.6337 164.391 90.0059 153.053 91.1225C145.73 91.8526 135.241 95.3027 128.795 93.2126C120.061 90.3638 112.594 86.3698 103.227 85.0527C93.8607 83.7357 85.1271 84.1079 76.1346 85.7971C74.7102 86.0691 73.4728 87.4434 73.1131 88.8034C68.7391 105.681 69.6024 123.275 75.8037 139.581C77.746 144.706 86.1055 142.487 84.1344 137.29Z" fill="#3E302E"/>
<path d="M87.1559 128.987C74.7821 140.211 65.6601 154.698 61.2141 170.788C60.1638 174.596 59.4012 178.447 58.8689 182.37C58.7106 183.529 58.2358 185.09 58.4085 186.278C58.8833 189.613 59.3005 186.049 58.8257 186.836C56.5524 190.616 53.2863 193.779 51.1137 197.716C38.1068 221.265 43.2866 251.17 63.7896 268.778C67.9765 272.372 74.1059 266.33 69.8902 262.709C50.9698 246.46 47.1857 219.161 60.8113 198.332C62.3508 195.984 64.9838 193.822 66.2356 191.36C68.4226 187.022 67.7751 180.065 68.9693 175.241C72.8253 159.637 81.3575 145.851 93.2565 135.057C97.3715 131.321 91.2565 125.265 87.1559 128.987Z" fill="#3E302E"/>
<path d="M271.683 132.795C306.071 166.866 317.61 217.371 300.503 262.766C298.546 267.948 306.891 270.181 308.834 265.056C326.991 216.899 314.229 162.829 277.798 126.74C273.856 122.831 267.755 128.901 271.698 132.809L271.683 132.795Z" fill="#3E302E"/>
<path d="M91.2852 177.102C95.5153 176.257 99.4865 177.273 102.925 179.822C104.81 181.225 107.731 180.108 108.824 178.276C110.134 176.1 109.126 173.78 107.27 172.406C101.99 168.469 95.3427 167.539 88.9831 168.813C83.5444 169.901 85.8465 178.175 91.2852 177.102Z" fill="#3E302E"/>
<path d="M116.421 222.94C115.99 223.742 112.349 230.713 114.177 237.971C115.817 244.471 121.025 248.021 125.543 247.219C132.363 245.988 140.047 234.378 139.342 220.005" fill="#E490B1"/>
<path d="M112.695 220.764C107.314 231.071 108.321 251.099 123.831 251.585C139.342 252.072 143.931 231.114 143.672 220.005C143.543 214.494 134.91 214.465 135.04 220.005C135.198 226.662 133.514 239.99 125.687 242.681C121.356 244.17 118.709 239.131 118.177 235.609C117.644 232.088 118.508 228.251 120.162 225.102C122.723 220.206 115.27 215.854 112.709 220.764H112.695Z" fill="#3E302E"/>
<path fill-rule="evenodd" clip-rule="evenodd" d="M189.427 187.781C185.053 191.589 178.42 190.072 175.902 184.904L175.913 184.86C175.737 184.566 175.587 184.238 175.47 183.873C172.521 174.697 186.132 163.33 191.858 174.11C194.218 178.576 193.283 184.417 189.427 187.781Z" fill="#3E302E"/>
<path d="M274.59 253.475C271.683 244.814 268.791 236.168 265.885 227.507C267.813 225.76 272.216 221.251 272.302 215.21C272.432 206.262 263.065 196.8 248.95 195.168C241.986 173.823 237.569 169.386 234.749 169.658C232.749 169.844 230.936 172.478 230.188 174.21C228.821 177.374 229.814 180.265 231.023 184.989C231.843 188.196 232.907 192.877 233.828 198.804C222.893 200.579 216.304 211.144 218.721 220.22C220.749 227.85 228.879 233.448 237.958 232.517C238.878 241.937 239.785 251.356 240.706 260.762" fill="#FCEAF0"/>
<path d="M278.748 252.33C275.842 243.669 272.95 235.022 270.043 226.361L268.935 230.542C286.518 213.878 269.511 193.908 250.087 191.016L253.108 194.023C250.677 186.693 246.274 166.837 236.058 165.463C230.562 164.733 226.346 170.345 225.454 175.198C224.059 182.785 228.447 192.434 229.67 199.949L232.692 194.667C221.642 197.072 212.807 206.821 214.059 218.502C215.325 230.327 226.735 237.356 237.958 236.812L233.641 232.517C234.562 241.937 235.469 251.356 236.389 260.762C236.922 266.216 245.555 266.273 245.022 260.762C244.101 251.342 243.195 241.922 242.274 232.517C242.058 230.298 240.476 228.108 237.958 228.222C230.821 228.566 222.922 224.758 222.548 216.77C222.203 209.469 228.404 204.373 234.979 202.941C237.425 202.412 238.346 199.849 238.001 197.659C237.123 192.233 235.814 186.965 234.62 181.611C234.102 179.306 233.31 177.173 234.677 174.94C235.656 173.351 235.051 174.038 234.605 173.938C236.073 174.281 237.857 178.662 238.418 179.793C241.08 185.047 242.936 190.716 244.792 196.284C245.224 197.587 246.317 199.062 247.814 199.291C260.144 201.123 275.842 212.146 262.849 224.457C261.784 225.46 261.266 227.235 261.741 228.638C264.648 237.299 267.54 245.945 270.446 254.606C272.201 259.831 280.532 257.584 278.777 252.315L278.748 252.33Z" fill="#3E302E"/>
<path d="M136.478 222.983C148.723 223.369 167.125 218.76 170.391 206.849C172.261 200.049 168.42 193.693 167.125 191.532C158.765 177.689 136.795 170.688 120.205 178.562C111.63 182.627 100.551 192.534 101.99 203.185C103.788 216.469 123.946 222.582 136.478 222.983Z" fill="#F7D0DD"/>
<path d="M136.478 227.278C152.262 227.492 177.556 220.664 174.981 200.336C172.708 182.298 153.025 171.375 136.262 170.989C119.572 170.617 95.688 183.859 97.6592 203.185C99.4289 220.492 122.047 226.576 136.464 227.278C142.018 227.55 142.003 218.96 136.464 218.688C126.896 218.23 108.954 214.823 106.422 203.542C103.141 188.926 124.853 179.321 136.248 179.578C148.492 179.85 162.636 186.951 166.046 199.52C170.247 215.009 147.097 218.846 136.464 218.688C130.91 218.617 130.91 227.206 136.464 227.278H136.478Z" fill="#3E302E"/>
<path d="M124.076 200.436C125.025 200.393 123.946 200.15 123.63 200.178C123.371 200.207 123.587 199.849 123.774 200.293C123.702 200.135 123.543 199.921 123.457 199.777C123.097 199.162 123.745 199.677 123.443 199.777L123.5 199.405L123.4 199.777L123.543 199.477L123.356 199.806C123.673 199.591 123.673 199.62 123.356 199.806C123.687 199.591 123.932 199.391 124.349 199.334C124.623 199.248 124.896 199.291 125.169 199.448C125.788 199.663 125.932 199.677 125.587 199.505C125.371 199.505 125.644 199.677 125.543 199.463C125.356 199.019 125.615 199.577 125.644 199.663C125.759 199.992 125.702 199.205 125.587 199.577C125.572 199.634 125.486 200.45 125.558 199.964C125.601 199.62 125.227 200.193 125.529 199.964C125.889 199.692 125.371 200.092 125.284 200.164C125.112 200.321 124.364 200.465 125.227 200.293C127.515 199.82 128.838 197.143 128.248 195.01C127.601 192.648 125.227 191.532 122.939 192.004C118.795 192.863 116.364 197.315 117.169 201.295C117.932 205.06 121.543 208.295 125.515 207.794C129.486 207.293 132.047 203.499 132.09 199.763C132.147 195.468 128.479 191.632 124.09 191.832C121.759 191.947 119.774 193.722 119.774 196.127C119.774 198.375 121.745 200.536 124.09 200.422L124.076 200.436Z" fill="#3E302E"/>
<path d="M143.96 201.123C143.485 201.066 143.111 200.794 142.708 200.679C143.14 200.822 142.823 201.152 142.809 200.794C142.795 200.593 142.708 200.364 142.68 200.15C142.737 200.694 142.593 200.336 142.766 200.064C142.478 200.565 142.694 200.164 142.852 200.049C142.334 200.465 142.91 200.049 142.939 200.049L142.694 200.293L143.01 200.021C143.327 199.878 143.6 199.763 143.946 199.806C144.176 199.835 144.32 199.978 144.521 200.035C144.766 200.107 144.363 199.706 144.464 199.949C144.536 200.121 144.651 200.393 144.737 200.579C144.938 201.009 144.823 200.135 144.766 200.608C144.766 200.694 144.564 201.438 144.694 200.966C144.823 200.751 144.823 200.751 144.665 200.937C144.507 201.109 144.507 201.109 144.679 200.937C144.852 200.765 144.852 200.765 144.665 200.908C144.464 201.052 144.464 201.052 144.665 200.937C145.054 200.737 144.09 201.137 143.974 201.137C146.305 201.08 148.291 199.205 148.291 196.843C148.291 194.481 146.32 192.491 143.974 192.548C139.802 192.648 136.593 195.998 136.19 200.035C135.788 204.072 139.298 208.238 143.572 208.367C147.615 208.496 150.737 205.26 151.226 201.424C151.499 199.362 150.953 197.344 149.715 195.669C148.262 193.693 146.363 192.849 143.974 192.534C141.586 192.219 139.658 194.724 139.658 196.828C139.658 199.405 141.658 200.823 143.974 201.123H143.96Z" fill="#3E302E"/>
</svg>
