<svg width="360" height="360" viewBox="0 0 360 360" fill="none" xmlns="http://www.w3.org/2000/svg">
<path d="M79.8182 268.324C77.0005 265.026 66.506 251.948 66.6641 232.517C66.8654 207.45 84.6198 192.55 87.0206 190.6C86.2012 185.811 85.5974 178.884 86.8193 170.753C88.6307 158.794 93.5186 150.118 96.6669 145.429C93.8349 141.571 88.5732 133.325 86.8193 121.452C85.2811 111.069 87.1356 102.666 88.4582 98.1489C93.6911 96.7866 101.727 95.3956 111.417 96.4568C124.355 97.8908 133.887 102.996 138.976 106.251C146.351 103.025 156.974 99.3822 170.143 98.1489C189.162 96.3564 204.502 100.4 213.444 103.555C221.178 98.8229 235.597 91.5238 254.775 90.3909C265.197 89.7743 274.067 91.1366 280.695 92.757C281.385 100.486 281.442 110.467 279.387 121.796C278.351 127.489 276.943 132.565 275.447 136.997C276.741 138.746 278.064 140.653 279.387 142.733C281.169 145.558 282.693 148.282 283.972 150.835C286.373 149.716 289.766 148.139 293.834 146.26C315.082 136.509 316.922 136.236 317.584 136.982C318.906 138.459 316.29 144.726 298.65 166.064C311.043 161.289 320.847 160.471 322.4 163.583C323.88 166.566 318.044 173.693 308.872 180.605C317.239 179.988 319.136 181.967 319.697 183.086C322.328 188.377 307.621 200.309 304.803 202.546C307.003 206.59 309.159 210.992 311.186 215.753C317.67 231.068 320.718 245.408 322.112 257.253C271.149 264.51 230.091 267.492 200.98 268.826C183.124 269.643 168.375 269.887 79.8326 268.31L79.8182 268.324Z" fill="#FCEAF0"/>
<path d="M117.153 196.293C105.336 188.55 85.0656 195.132 76.9862 209.472C72.1703 218.033 71.6959 229.993 78.812 239.314C86.1869 248.979 99.3266 253.926 110.569 249.725C125.434 244.175 128.323 226.078 127.072 215.667C126.67 212.311 125.405 201.714 117.139 196.293H117.153Z" fill="#F7D0DD"/>
<path d="M183.47 216.814C184.605 222.306 185.913 230.552 185.913 240.676C185.913 251.632 185.913 259.476 181.457 261.957C176.555 264.682 172.184 257.655 161.086 258.903C154.487 259.648 152.863 262.488 148.148 261.125C143.547 259.792 140.04 255.576 138.516 251.517C137.811 249.624 137.711 248.09 137.667 244.591C137.624 240.475 137.667 234.768 138.099 227.784" fill="#E490B1"/>
<path d="M179.315 217.961C181.284 227.799 181.845 237.722 181.558 247.746C181.486 250.141 181.859 257.497 178.826 258.214C176.842 258.687 172.285 255.791 170.272 255.303C166.894 254.471 163.401 254.285 159.95 254.773C154.919 255.475 150.548 258.974 145.977 255.045C139.306 249.309 142.009 235.528 142.426 227.813C142.728 222.278 134.102 222.292 133.8 227.813C133.168 239.256 130.796 253.453 140.672 261.771C144.338 264.854 148.967 266.488 153.74 265.384C160.741 263.764 165.428 262.502 172.472 265.141C197.975 274.691 190.183 228.329 187.653 215.681C186.56 210.261 178.251 212.555 179.329 217.976L179.315 217.961Z" fill="#3E302E"/>
<path d="M154.114 229.677C169.381 229.319 178.424 229.118 183.455 222.937C187.164 218.391 186.992 212.698 186.949 211.021C186.949 211.021 186.733 203.621 181.543 197.742C170.301 184.993 137.653 185.681 127.417 199.52C125.261 202.431 122.156 208.554 123.565 215.566C123.867 217.115 124.801 221.446 128.438 224.931C133.786 230.036 141.477 229.964 154.114 229.677Z" fill="#F7D0DD"/>
<path d="M154.114 233.979C170.186 233.592 192.297 232.861 191.261 211.035C190.442 193.726 174.729 185.538 159.232 184.463C143.734 183.387 124.168 188.894 119.726 205.815C117.484 214.333 120.057 224.271 127.36 229.606C134.663 234.94 145.316 234.18 154.114 233.979C159.663 233.85 159.677 225.246 154.114 225.375C147.86 225.519 139.939 226.594 134.131 223.697C126.9 220.098 126.167 210.504 129.631 204.08C134.936 194.243 149.197 192.321 159.232 193.052C169.956 193.841 181.658 198.688 182.621 210.906C183.887 226.737 164.723 225.103 154.099 225.361C148.565 225.49 148.536 234.094 154.099 233.965L154.114 233.979Z" fill="#3E302E"/>
<path d="M80.1202 139.635C73.6078 136.767 67.0667 133.741 60.3819 131.303C57.1473 130.128 53.0645 128.88 50.2324 131.648C48.2916 133.541 48.3635 136.036 48.6223 138.502C49.2836 144.898 51.6412 151.337 53.4814 157.46L56.5003 152.168C50.4624 153.23 32.2479 155.696 35.3532 165.404C38.0415 173.822 52.1731 179.372 58.9874 183C63.8896 185.595 68.2456 178.182 63.3433 175.572C59.3037 173.421 55.2784 171.241 51.3968 168.817C49.1685 167.426 46.969 165.017 44.6688 163.927C44.2088 163.712 43.7488 162.952 43.4756 162.565C45.4883 165.419 39.9391 166.064 46.8971 163.569C50.7643 162.178 54.7608 161.203 58.8005 160.486C61.0575 160.084 62.4376 157.259 61.8195 155.194C61.2013 153.129 57.7223 136.38 57.061 136.251L55.2496 138.646C55.954 138.832 56.6441 139.062 57.3341 139.334C58.5849 140.252 60.7413 140.668 62.222 141.27C66.7792 143.134 71.2933 145.099 75.793 147.078C80.8246 149.286 85.2237 141.887 80.1489 139.649L80.1202 139.635Z" fill="#3E302E"/>
<path d="M144.985 211.766C145.948 211.723 144.367 211.523 144.18 211.436C143.849 211.293 143.849 210.978 144.108 211.393C143.921 211.107 143.706 210.92 143.619 210.576C143.547 210.289 143.648 209.787 143.576 210.332C143.619 210.017 143.792 209.601 143.576 210.103C143.706 209.802 143.964 209.529 143.634 209.916C143.806 209.716 144.166 209.4 143.763 209.73C144.151 209.4 144.539 209.171 145.071 209.113C145.416 209.013 145.747 209.056 146.078 209.242C146.782 209.486 146.969 209.529 146.638 209.357C146.149 209.113 147.228 209.845 146.796 209.458C146.494 209.185 146.998 209.845 147.055 209.916C147.141 210.189 147.156 210.218 147.084 209.988C147.026 209.744 147.012 209.787 147.07 210.089C147.055 210.203 146.926 211.078 147.026 210.748C147.199 210.232 146.609 211.465 146.911 210.963C147.098 210.648 146.595 211.293 146.48 211.379C146.293 211.508 145.388 211.795 146.121 211.637C148.335 211.178 149.815 208.454 149.14 206.346C148.378 204.008 146.207 202.847 143.835 203.334C140.083 204.109 137.898 208.196 138.645 211.795C139.35 215.194 142.656 218.062 146.221 217.588C149.787 217.115 152.159 213.774 152.187 210.361C152.216 206.489 148.938 203.004 144.971 203.191C142.714 203.291 140.557 205.098 140.658 207.493C140.758 209.73 142.555 211.91 144.971 211.795L144.985 211.766Z" fill="#3E302E"/>
<path d="M163.228 211.164C162.624 211.092 162.064 210.92 161.604 210.547C162.006 210.863 161.675 210.748 161.532 210.461C161.388 210.132 161.302 209.845 161.302 209.486C161.302 210.074 161.345 209.372 161.402 209.171C161.259 209.716 161.46 209.142 161.56 208.941C161.287 209.429 161.618 208.941 161.776 208.755C161.402 209.171 161.819 208.712 162.006 208.597C162.394 208.353 162.869 208.253 163.329 208.325C163.703 208.368 163.889 208.525 164.22 208.683C164.637 208.884 164.105 208.368 164.335 208.784C164.522 209.113 164.608 209.343 164.723 209.701C164.752 210.031 164.766 210.074 164.766 209.83C164.766 209.587 164.766 209.63 164.752 209.959C164.709 210.103 164.393 210.863 164.579 210.576C164.896 210.103 164.019 211.121 164.436 210.734C164.853 210.347 163.76 211.178 164.234 210.877C164.436 210.763 164.393 210.777 164.105 210.935C163.846 211.092 163.559 211.164 163.242 211.164C165.5 211.107 167.656 209.228 167.555 206.862C167.455 204.496 165.658 202.503 163.242 202.56C159.404 202.646 156.601 205.686 156.198 209.386C155.796 213.086 159.117 216.785 162.926 216.886C166.736 216.986 169.381 214.089 169.855 210.619C170.1 208.769 169.64 206.891 168.49 205.399C167.11 203.621 165.471 202.847 163.257 202.56C161.043 202.273 158.843 204.754 158.944 206.862C159.059 209.443 160.856 210.849 163.257 211.164H163.228Z" fill="#3E302E"/>
<path d="M248.823 196.293C234.749 190.084 216.161 196.15 208.656 209.472C203.84 218.033 203.366 229.993 210.482 239.314C218.044 249.223 231.371 252.464 242.239 249.725C258.009 245.753 267.814 229.405 264.507 215.022C264.335 214.247 261.23 201.771 248.809 196.279L248.823 196.293Z" fill="#F7D0DD"/>
<path d="M98.6366 196.982C104.459 199.29 110.296 201.599 116.118 203.894L115.083 196.035C109.261 199.907 103.424 203.779 97.6015 207.665C93.0012 210.719 97.314 218.176 101.957 215.093C107.78 211.221 113.616 207.35 119.439 203.463C122.717 201.284 121.854 196.967 118.404 195.605C112.581 193.296 106.745 190.987 100.922 188.693C95.7614 186.657 93.5187 194.974 98.6222 196.996L98.6366 196.982Z" fill="#3E302E"/>
<path d="M209.907 184.964C203.524 188.463 197.141 191.977 190.758 195.476C187.941 197.025 187.969 201.355 190.758 202.904C197.041 206.403 203.337 209.916 209.62 213.415C214.464 216.126 218.82 208.697 213.976 205.987C207.693 202.488 201.397 198.975 195.114 195.476V202.904C201.497 199.405 207.88 195.892 214.263 192.393C219.122 189.725 214.781 182.283 209.907 184.964Z" fill="#3E302E"/>
<path d="M100.39 143.249C91.2617 130.3 88.3577 114.597 92.6274 99.2818L89.6084 102.293C98.0903 100.228 106.917 99.7837 115.514 101.418C120.344 102.351 125.074 103.842 129.516 105.936C131.96 107.083 135.152 109.908 137.826 110.395C140.5 110.883 143.332 109.047 145.833 108.13C149.442 106.825 153.122 105.706 156.86 104.803C166.434 102.465 176.296 101.605 186.129 102.121C194.266 102.551 202.302 104 210.094 106.366C216.118 108.201 219.309 104.874 224.729 102.351C241.908 94.3918 261.115 92.5706 279.53 96.8726L276.368 92.7283C277.547 107.413 275.85 121.81 271.279 135.821C269.553 141.098 277.877 143.364 279.602 138.115C284.404 123.431 286.23 108.115 285.008 92.7283C284.864 90.8928 283.771 89.0285 281.845 88.584C268.216 85.4148 254.185 85.0707 240.485 88.0534C234.404 89.3727 228.495 91.366 222.788 93.8612C220.517 94.8507 218.274 95.9262 216.075 97.1021C215.226 97.5466 213.961 98.6795 213.012 98.8086C215.039 98.5361 212.337 98.1633 211.618 97.8765C199.858 93.1155 184.347 92.714 171.94 93.7465C159.534 94.779 148.047 97.8048 136.791 102.551H141.147C125.002 92.4559 105.796 89.5161 87.3083 94.0189C85.8563 94.3774 84.6918 95.6107 84.2893 97.0304C79.4446 114.396 82.521 132.867 92.9293 147.623C96.092 152.111 103.582 147.823 100.376 143.278L100.39 143.249Z" fill="#3E302E"/>
<path d="M82.8661 265.284C66.2474 244.677 68.26 216.972 84.4906 196.881C86.0001 195.017 88.0702 193.382 89.4503 191.446C92.0668 187.761 90.2985 182.455 90.4423 178.067C90.8735 163.784 96.9977 150.405 106.96 140.252C110.842 136.294 104.746 130.199 100.865 134.171C90.8304 144.396 84.1887 157.46 82.3486 171.7C81.8598 175.5 81.6729 179.329 81.8741 183.158C81.9029 183.588 81.8454 189.281 83.3549 185.352C83.2111 185.739 82.4492 186.241 82.176 186.528C79.4015 189.439 76.8569 192.565 74.5424 195.849C58.0962 219.238 58.7718 249.051 76.7563 271.364C80.2353 275.681 86.302 269.557 82.8517 265.284H82.8661Z" fill="#3E302E"/>
<path d="M272.4 140.022C275.735 144.296 277.762 153.617 283.599 155.295C289.436 156.972 295.057 151.58 299.384 148.985C303.323 146.619 309.303 144.869 312.524 141.786C315.744 141.428 315.902 140.137 312.998 137.9C312.811 138.617 312.538 139.305 312.178 139.936C311 141.083 310.166 143.564 309.26 144.97C304.832 151.91 299.686 158.378 293.95 164.286C290.384 167.957 294.855 173.033 299.183 171.04C305.551 168.1 311.287 166.566 318.03 165.419L317.196 163.942L316.578 165.361C315.844 165.935 315.284 167.469 314.723 168.229C312.193 171.685 308.973 174.654 305.824 177.536C303.122 180.017 305.177 185.051 308.872 184.878C310.655 184.792 312.739 184.549 314.522 184.979C315.83 185.294 315.888 185.567 315.643 184.692C316.06 186.212 312.178 189.898 311.23 190.901C308.311 194.013 305.062 196.824 301.741 199.491C300.275 200.667 300.174 203.191 301.066 204.711C311.014 221.647 316.175 240.547 316.233 260.179C316.247 265.714 324.873 265.728 324.858 260.179C324.801 239.07 319.208 218.578 308.513 200.366L307.837 205.586C313.674 200.896 321.997 194.63 323.952 187.001C326.396 177.465 315.715 176.002 308.858 176.303L311.905 183.645C316.664 179.286 331.227 166.781 324.01 159.181C317.325 152.125 301.368 160.615 294.798 163.641L300.031 170.395C304.329 165.978 330.709 138.631 318.418 132.637C311.46 129.253 298.536 139.391 293.173 142.69C291.233 143.88 289.335 145.113 287.351 146.232C285.195 147.451 286.92 147.551 286.258 146.705C283.283 142.933 281.572 137.857 278.51 133.913C275.103 129.54 269.036 135.677 272.414 139.994L272.4 140.022Z" fill="#3E302E"/>
<path d="M273.018 241.422C277.431 241.608 280.321 217.087 281.902 203.707C282.894 195.332 283.153 188.363 279.358 185.983C277.086 184.563 273.809 185.065 271.839 186.083C258.901 192.837 266.851 241.149 273.018 241.422Z" fill="#E60012"/>
<path d="M274.154 245.566C279.358 244.72 280.867 236.991 281.816 232.904C283.671 224.902 284.634 216.671 285.626 208.525C286.503 201.355 289.292 189.725 283.412 183.789C278.926 179.257 271.034 180.261 266.779 184.577C258.556 192.923 260.051 209.343 261.33 219.826C262.078 226.064 263.343 243.974 271.868 245.566C277.288 246.584 279.617 238.296 274.168 237.263C274.959 237.407 274.585 237.364 274.082 236.489C273.42 235.327 273.047 233.994 272.659 232.732C271.523 229.089 270.761 225.289 270.2 221.518C268.964 213.2 268.159 203.621 270.603 195.447C271.408 192.737 274.527 186.169 277.733 191.045C280.335 194.988 277.474 204.84 276.899 209.4C276.195 215.122 275.433 220.844 274.355 226.494C273.895 228.86 273.435 231.24 272.759 233.549C272.515 234.381 272.299 235.256 271.968 236.059C271.307 237.693 270.804 237.435 271.853 237.263C266.391 238.152 268.705 246.441 274.154 245.566Z" fill="#3E302E"/>
<path d="M267.167 269.113C269.05 270.059 271.465 269.715 273.19 268.64C275.893 266.947 276.914 263.463 276.051 260.738C274.628 256.264 268.317 254.543 265.514 256.536C262.178 258.888 262.94 267.005 267.167 269.127V269.113Z" fill="#E60012"/>
<path d="M266.017 273.271C272.759 275.996 279.875 270.676 280.58 263.836C281.184 257.927 276.813 252.88 271.12 251.718C265.715 250.614 260.626 253.209 259.433 258.802C258.34 263.979 260.209 270.131 264.982 272.841C269.755 275.552 274.168 268.152 269.338 265.413C268.159 264.739 267.627 262.889 267.742 261.269C267.756 261.011 268.303 259.505 267.9 260.164C268.389 259.376 268.188 260.107 267.857 260.107C268.389 260.107 268.159 259.949 268.921 260.035C270.028 260.164 271.839 260.939 272.055 262.473C272.385 264.796 270.143 265.7 268.317 264.968C266.161 264.094 263.573 265.915 263.012 267.98C262.337 270.446 263.86 272.397 266.031 273.271H266.017Z" fill="#3E302E"/>
</svg>
