<svg width="361" height="360" viewBox="0 0 361 360" fill="none" xmlns="http://www.w3.org/2000/svg">
<path d="M54.3956 272.353C52.3543 258.71 51.0749 240.974 53.1306 220.495C56.0056 191.86 64.2999 169.097 71.2862 153.889C69.863 148.217 65.7518 135.392 53.7774 126.058C50.155 123.243 46.5468 121.304 43.3556 119.954C46.2593 117.039 63.8974 99.9349 89.0249 102.075C99.9355 103.008 108.244 107.216 113.132 110.289C124.517 108.049 137.828 106.268 152.749 105.78C174.642 105.062 193.617 107.345 208.668 110.289C228.146 123.903 247.624 137.518 267.102 151.132C269.402 157.623 272.751 167.259 276.589 179.006C289.168 217.609 291.741 230.39 292.704 235.905C293.969 243.128 295.464 253.583 296.068 266.465C274.778 275.182 256.795 280.28 244.778 283.267C215.438 290.534 155.969 304.536 89.0536 285.249C73.5143 280.768 61.4537 275.613 54.4099 272.367L54.3956 272.353Z" fill="#FCEAF0"/>
<path d="M212.031 198.939C226.65 192.477 245.956 198.781 253.733 212.654C258.735 221.558 259.224 233.994 251.835 243.688C243.986 253.999 230.143 257.374 218.844 254.516C202.471 250.38 192.28 233.377 195.715 218.427C195.902 217.623 199.122 204.641 212.016 198.939H212.031Z" fill="#F7D0DD"/>
<path d="M75.2681 198.939C89.8874 192.477 109.193 198.782 116.97 212.654C121.972 221.558 122.461 233.995 115.072 243.688C107.224 253.999 93.3805 257.374 82.0818 254.516C65.7087 250.38 55.5168 233.377 58.9525 218.427C59.1393 217.623 62.3593 204.641 75.2537 198.939H75.2681Z" fill="#F7D0DD"/>
<path d="M58.55 271.204C51.7937 226.843 61.2381 182.41 82.2974 143.09C84.9137 138.207 77.4674 133.841 74.8512 138.738C52.6131 180.27 43.1113 226.699 50.2269 273.502C51.0606 278.959 59.3694 276.647 58.55 271.204Z" fill="#3E302E"/>
<path d="M257.513 149.466C280.24 184.363 292.272 224.789 291.74 266.45C291.668 271.993 300.293 271.993 300.365 266.45C300.911 223.367 288.477 181.218 264.959 145.114C261.941 140.49 254.466 144.798 257.513 149.466Z" fill="#3E302E"/>
<path d="M70.0643 155.814C70.9843 138.279 62.4599 120.486 44.5056 115.804L46.4031 122.999C61.3674 111.05 81.3918 105.608 99.9786 111.524C104.248 112.889 109.322 117.053 113.735 117.369C117.832 117.656 122.849 115.746 126.903 115.158C139.553 113.319 152.375 112.558 165.155 112.745C177.934 112.932 191.145 114.138 203.953 116.436C208.136 117.183 209.775 117.47 213.44 115.746C217.609 113.779 221.835 112.142 226.291 110.993C231.696 109.6 237.245 108.954 242.823 109.14C247.078 109.27 259.167 109.715 262.186 113.65C263.235 115.014 263.106 120.284 263.293 121.979C263.681 125.397 263.968 128.844 264.17 132.276C264.558 138.853 264.601 145.431 264.414 152.008C264.241 157.551 272.866 157.551 273.039 152.008C273.384 140.749 272.909 129.519 271.486 118.331C271.084 115.129 271.357 109.715 269.028 107.23C266.283 104.301 258.995 102.98 255.372 102.161C245.698 99.9637 235.635 100.036 225.961 102.233C222.08 103.109 218.313 104.344 214.633 105.837C211.816 106.986 209.056 108.437 207.288 108.351C196.952 107.805 186.602 105.191 176.18 104.574C163.904 103.841 151.57 104.028 139.337 105.134C134.766 105.55 130.224 106.096 125.681 106.728C121.958 107.259 117.128 108.911 113.635 108.092C109.854 107.216 106.045 104.444 102.25 103.238C97.2474 101.658 91.9861 100.739 86.7536 100.495C69.7768 99.6765 53.375 106.484 40.2937 116.938C37.7062 119.006 39.3019 123.386 42.1912 124.133C56.5231 127.867 62.1437 142.185 61.4249 155.842C61.1374 161.386 69.7624 161.371 70.0499 155.842L70.0643 155.814Z" fill="#3E302E"/>
<path d="M191.661 196.713C200.516 200.102 209.472 203.19 218.528 205.99C223.847 207.642 226.118 199.327 220.828 197.675C211.772 194.875 202.816 191.773 193.961 188.398C188.772 186.416 186.53 194.746 191.661 196.713Z" fill="#3E302E"/>
<path d="M120.923 191.098C111.967 194.387 102.81 196.742 93.3805 198.164C87.9036 198.997 90.2324 207.298 95.6805 206.479C105.11 205.057 114.267 202.702 123.223 199.413C128.384 197.518 126.155 189.188 120.923 191.098Z" fill="#3E302E"/>
<path d="M179.4 255.206C183.253 261.697 180.363 268.762 172.903 272.353C164.968 276.173 155.394 274.363 154.23 274.133C154.201 274.593 153.755 279.145 148.049 281.371C145.605 282.319 141.048 283.296 138.274 281.917C134.967 280.266 134.349 275.713 139.093 271.936C137.929 271.118 136.304 269.725 135.686 267.8C135.082 265.933 135.758 264.569 137.454 260.347C138 259.011 138.863 256.828 139.898 254.071" fill="#E490B1"/>
<path d="M175.677 257.374C181.427 268.949 162.97 271.405 155.365 269.969C152.375 269.409 150.248 271.204 149.903 274.119C149.845 274.564 148.149 276.417 147.761 276.704C146.266 277.81 137.828 279.131 142.126 274.952C143.664 273.459 143.923 270.299 142.126 268.863C138.044 265.589 142.529 259.169 144.038 255.191C146.007 249.993 137.67 247.752 135.715 252.894C132.696 260.864 127.866 268.432 136.017 274.952V268.863C129.275 275.383 130.353 286.24 141.134 286.814C149.184 287.245 157.522 282.52 158.514 274.105L153.051 278.255C168.403 281.142 192.841 272.64 183.095 252.994C180.637 248.025 173.19 252.391 175.648 257.346L175.677 257.374Z" fill="#3E302E"/>
<path d="M157.881 254.559C170.33 254.674 190.383 249.921 193.588 237.499C196.995 224.315 180.09 207.412 162.294 205.301C141.033 202.774 118.781 221.357 120.909 235.129C122.749 247.106 142.902 254.43 157.895 254.559H157.881Z" fill="#F7D0DD"/>
<path d="M157.881 258.868C170.517 258.782 187.393 255.708 195.026 244.435C203.493 231.941 193.933 217.235 183.497 209.524C169.74 199.356 152.447 198.351 137.339 206.163C126.615 211.706 113.29 224.186 117.042 237.671C121.426 253.454 143.908 258.466 157.881 258.839C163.43 258.997 163.43 250.38 157.881 250.222C148.365 249.964 124.157 245.986 125.092 232.386C126.026 218.786 145.576 209.811 157.133 209.394C169.582 208.949 190.555 219.461 189.707 234.382C188.96 247.48 167.699 250.165 157.881 250.237C152.332 250.28 152.318 258.896 157.881 258.853V258.868Z" fill="#3E302E"/>
<path d="M144.254 231.611C144.829 231.582 144.555 231.726 144.412 231.568C144.44 231.596 143.65 231.022 144.081 231.424C144.426 231.74 143.995 231.252 143.937 231.137C143.722 230.72 143.894 231.625 143.909 231.108C143.837 230.907 143.851 230.706 143.937 230.505L143.851 230.878L143.736 231.237L143.851 230.893C144.067 231.094 143.233 231.237 143.865 230.893C144.599 230.505 143.578 230.893 144.124 230.749C144.771 230.562 145.044 230.591 145.648 230.763C146.022 230.878 145.174 230.261 145.634 230.763C145.289 230.39 145.634 230.361 145.562 230.634C145.519 230.835 145.547 231.122 145.504 231.338C145.59 230.735 145.404 231.209 145.447 231.323C145.447 231.323 145.662 230.72 145.346 231.338C145.26 231.51 144.383 231.654 145.375 231.453C147.66 230.993 148.969 228.279 148.394 226.154C147.732 223.77 145.375 222.693 143.089 223.138C138.877 223.971 136.333 228.437 137.152 232.515C137.972 236.594 142.241 239.997 146.453 238.978C150.047 238.116 152.591 234.339 152.462 230.706C152.318 226.412 148.609 222.75 144.239 222.98C141.91 223.109 139.927 224.875 139.927 227.288C139.927 229.528 141.896 231.726 144.239 231.596L144.254 231.611Z" fill="#3E302E"/>
<path d="M165.356 232.314C164.767 232.243 164.608 232.185 164.22 231.769C164.608 232.185 164.292 232.085 164.278 231.596C164.263 231.065 164.077 232.027 164.307 231.525C164.623 230.864 163.962 232.056 164.335 231.481C163.89 231.884 164.68 230.95 164.335 231.481C164.422 231.395 165.011 231.008 164.623 231.223C164.235 231.438 165.011 231.094 165.14 231.094C165.298 231.094 165.557 231.252 165.687 231.237C165.945 231.194 165.802 231.611 165.572 231.137C165.816 231.654 165.945 231.826 165.83 232.444C165.931 231.84 165.73 232.271 165.787 232.386C166.017 232.013 166.06 231.941 165.888 232.185C165.744 232.357 165.758 232.357 165.931 232.185C166.118 232.013 166.118 231.998 165.931 232.156C165.845 232.257 165.744 232.3 165.615 232.329C165.155 232.501 166.448 232.357 165.37 232.372C167.699 232.314 169.683 230.433 169.683 228.064C169.683 225.694 167.713 223.698 165.37 223.755C161.273 223.841 157.867 227.058 157.392 231.108C156.875 235.632 160.627 239.638 165.155 239.739C169.367 239.825 172.601 236.163 172.888 232.142C173.032 230.16 172.313 228.25 171.106 226.714C169.625 224.832 167.699 224.028 165.37 223.755C163.042 223.482 161.058 225.924 161.058 228.064C161.058 230.62 163.042 232.099 165.37 232.372L165.356 232.314Z" fill="#3E302E"/>
<path d="M218.026 119.021C219.65 125.842 221.893 133.281 225.026 141.108C233.838 163.066 246.158 179.236 256.249 190.122C259.584 189.332 262.919 188.542 266.254 187.752C270.883 175.316 278.228 149.739 269.977 120.629C268.353 114.899 266.57 108.609 262.531 102.305C239.171 65.8277 159.304 58.044 128.197 92.3524C115.719 106.11 109.552 128.341 116.84 135.924C123.41 142.759 137.727 134.373 161.13 131.831C186.688 129.059 208.869 134.818 225.041 141.108" fill="#1E96EB"/>
<path d="M213.857 120.17C220.585 147.57 234.14 172.415 253.201 193.166C254.251 194.315 255.933 194.617 257.399 194.272C260.705 193.482 266.815 193.324 269.301 190.797C270.969 189.102 271.529 185.828 272.234 183.631C274.448 176.766 276.014 169.729 276.978 162.592C279.407 144.397 277.466 125.239 270.394 108.207C260.648 84.7554 235.218 72.6491 211.528 68.2403C186.746 63.6304 157.996 65.4974 136.448 79.7434C125.221 87.1681 117.027 98.0393 112.413 110.663C109.15 119.595 106.246 134.961 116.323 140.95C121.095 143.779 127.018 142.86 132.164 141.883C141.853 140.045 151.283 137.216 161.115 136.139C182.592 133.784 203.823 137.589 223.876 145.258C229.066 147.24 231.308 138.911 226.176 136.943C198.418 126.316 169.87 124.42 140.919 131.055C132.667 132.951 118.163 139.27 118.034 125.914C117.919 113.549 125.609 100.337 134.45 92.1657C150.248 77.5606 174.024 73.7262 194.782 74.8463C215.539 75.9665 238.381 82.3428 253.216 97.508C264.816 109.37 268.769 128.054 269.33 144.124C269.848 158.657 267.073 172.975 262.1 186.589L265.118 183.573C261.783 184.363 258.448 185.153 255.113 185.943L259.311 187.049C241.241 167.36 228.563 143.822 222.195 117.843C220.872 112.458 212.549 114.741 213.871 120.141L213.857 120.17Z" fill="#3E302E"/>
<path d="M260.374 147.168C270.709 146.421 282.971 153.228 285.789 165.808C288.563 178.173 280.772 189.748 271.543 194.186C258.534 200.433 240.766 193.367 236.885 179.595C232.803 165.105 245.496 148.245 260.374 147.168Z" fill="white"/>
<path d="M260.374 151.476C271.284 151.103 281.548 158.743 282.037 170.131C282.526 181.519 272.693 192.118 261.193 192.161C251.016 192.204 240.608 184.894 240.436 174.08C240.263 163.267 249.664 152.726 260.388 151.476C265.836 150.844 265.894 142.213 260.388 142.86C245.021 144.655 231.624 158.111 231.811 174.08C231.998 189.59 246.286 200.806 261.193 200.777C277.365 200.749 291.151 186.287 290.662 170.131C290.173 153.975 275.971 142.328 260.374 142.86C254.839 143.046 254.811 151.663 260.374 151.476Z" fill="#3E302E"/>
<path d="M292.588 96.129C296.728 97.7375 300.854 99.3746 304.965 101.069C307.006 101.917 309.047 102.778 311.089 103.654C314.064 105.923 315.186 104.717 314.424 100.035C314.05 99.8054 311.621 100.897 311.002 101.084C301.558 103.812 290.806 106.34 282.828 112.4C278.601 115.603 276.905 120.586 281.922 124.119C284.366 125.842 287.787 126.431 290.561 127.436C295.923 129.36 301.141 131.629 306.331 133.97C311.52 136.311 315.746 128.815 310.686 126.531C306.144 124.478 301.573 122.467 296.915 120.658C294.198 119.595 289.771 117.024 286.809 117.053C286.651 119.896 287.399 120.413 289.038 118.575C290.374 117.771 291.754 117.039 293.178 116.364C295.981 114.985 298.884 113.836 301.831 112.802C306.259 111.251 310.859 110.289 315.301 108.81C319.742 107.331 324.702 103.898 320.375 99.0587C317.629 95.9711 312.167 94.8078 308.415 93.2425C303.93 91.3756 299.416 89.5661 294.888 87.814C289.713 85.8035 287.471 94.1329 292.588 96.129Z" fill="#3E302E"/>
</svg>
