<svg width="361" height="360" viewBox="0 0 361 360" fill="none" xmlns="http://www.w3.org/2000/svg">
<path d="M64.0177 260.592C58.5372 253.634 57.7338 245.077 56.1412 227.964C55.2374 218.269 52.9706 189.905 68.7522 160.172C74.7062 148.965 81.478 140.826 86.3416 135.669C82.7692 131.319 76.8439 122.848 74.4049 110.69C73.0707 103.992 73.1854 98.1432 73.6302 93.8072C79.6846 90.9693 89.6271 87.2816 102.324 86.8062C122.137 86.0859 136.915 93.6487 143.213 97.3797C150.056 94.6139 157.99 92.0785 166.929 90.3643C198.391 84.3429 225.062 91.7184 240.055 97.3797C244.603 94.1529 254.015 88.4052 267.329 86.5469C281.747 84.5446 293.124 88.1891 298.361 90.2347C299.824 95.1757 302.522 106.858 298.39 120.515C295.85 128.899 291.69 134.906 288.706 138.507C290.714 142.223 293.411 147.597 296.051 154.295C299.05 161.915 305.764 180.772 306.611 211.527C307.457 241.937 307.887 257.135 301.431 265.49C284.545 287.357 249.108 264.438 167.761 266.757C112.31 268.342 79.5985 280.385 64.0034 260.606L64.0177 260.592Z" fill="#FCEAF0"/>
<path d="M90.4877 231.709C103.73 239.402 122.74 235.383 131.592 222.936C137.273 214.941 139.024 203.1 133.012 193.06C126.613 182.385 113.787 177.718 102.754 179.274C86.7432 181.521 75.2943 196.733 77.0016 211.383C77.0877 212.176 78.8093 224.924 90.4877 231.724V231.709Z" fill="#F7D0DD"/>
<path d="M224.374 185.022C238.362 178.813 256.841 184.878 264.287 198.217C269.079 206.788 269.538 218.744 262.479 228.079C254.961 238.004 241.719 241.246 230.902 238.494C215.235 234.518 205.479 218.154 208.764 203.777C208.936 202.999 212.021 190.51 224.374 185.036V185.022Z" fill="#F7D0DD"/>
<path d="M174.676 234.734C187.731 233.769 206.483 226.696 207.458 215.69C208.477 204.109 189.396 193.031 174.317 190.769C169.324 190.02 155.924 188.003 146.125 197.165C141.19 201.775 135.681 210.605 137.933 218.903C141.477 231.983 162.165 235.671 174.69 234.734H174.676Z" fill="#F7D0DD"/>
<path d="M174.676 239.056C187.904 237.831 214.058 230.903 211.605 212.809C209.152 194.716 184.891 187.254 170.243 185.944C152.395 184.345 129.052 197.871 133.543 218.917C137.216 236.146 160.085 239.92 174.661 239.056C180.171 238.739 180.199 230.081 174.661 230.413C164.963 230.975 149.497 229.981 143.5 220.876C138.421 213.17 145.135 202.438 151.864 198.102C157.33 194.587 163.916 193.996 170.243 194.572C180.745 195.537 197.932 200.781 202.38 211.643C207.53 224.247 182.767 229.649 174.676 230.413C169.21 230.917 169.152 239.574 174.676 239.056Z" fill="#3E302E"/>
<path d="M159.784 212.968C160.315 212.939 160.128 213.098 159.884 212.925C159.841 212.896 159.124 212.392 159.482 212.737C159.812 213.054 159.368 212.521 159.31 212.406C159.081 211.96 159.267 212.896 159.282 212.334C159.282 212.017 159.325 211.355 159.224 212.032C159.152 212.55 159.009 212.233 159.239 212.003C158.923 212.305 159.023 212.248 159.282 211.974L159.64 211.729C159.296 211.931 159.267 211.96 159.583 211.801C160.257 211.599 160.587 211.614 161.218 211.844C161.677 212.003 160.645 211.326 161.247 211.888C160.874 211.542 161.247 211.47 161.19 211.815C161.147 212.06 161.19 212.32 161.132 212.579C161.247 211.902 161.204 212.608 161.061 212.608C161.29 212.233 161.319 212.176 161.147 212.435C161.104 212.536 161.018 212.622 160.917 212.68C160.774 212.867 159.999 212.997 160.888 212.824C163.17 212.363 164.475 209.64 163.901 207.508C163.241 205.117 160.888 204.037 158.607 204.483C154.475 205.304 151.993 209.712 152.797 213.717C153.6 217.722 157.789 221.064 161.921 220.055C165.436 219.205 167.918 215.503 167.804 211.931C167.66 207.71 164.045 204.094 159.755 204.325C157.431 204.454 155.451 206.226 155.451 208.646C155.451 210.894 157.416 213.098 159.755 212.968H159.784Z" fill="#3E302E"/>
<path d="M179.984 213.645C179.353 213.573 179.152 213.501 178.736 213.026C179.109 213.458 178.922 213.198 178.779 212.795C178.564 212.219 178.779 213.299 178.808 212.68C178.836 212.06 178.592 213.098 178.836 212.593C179.08 212.089 178.435 212.91 178.865 212.536C178.951 212.464 179.568 212.032 179.181 212.233C178.793 212.435 179.64 212.089 179.769 212.075C180.013 212.075 180.156 212.19 180.371 212.233C180.701 212.291 180.515 212.565 180.3 212.161C180.601 212.709 180.716 212.925 180.587 213.587C180.716 212.867 180.587 213.602 180.515 213.587C180.744 213.227 180.773 213.155 180.587 213.4C180.429 213.587 180.443 213.587 180.615 213.4C180.988 213.314 180.415 213.487 180.271 213.573C179.941 213.76 180.902 213.616 179.97 213.631C182.222 213.573 184.374 211.686 184.274 209.309C184.173 206.932 182.38 204.93 179.97 204.987C175.895 205.074 172.696 208.229 172.165 212.219C171.562 216.67 175.393 220.632 179.769 220.718C184.145 220.804 187.014 217.189 187.344 213.242C187.502 211.311 186.77 209.41 185.594 207.912C184.145 206.053 182.251 205.261 179.97 204.987C177.689 204.714 175.565 207.163 175.666 209.309C175.78 211.873 177.559 213.342 179.97 213.631L179.984 213.645Z" fill="#3E302E"/>
<path fill-rule="evenodd" clip-rule="evenodd" d="M221.105 176.244C224.457 179.902 225.373 185.448 221.361 189.3C217.559 192.945 211.404 193.42 207.1 190.452C202.366 187.182 201.347 181.233 205.665 177.128C209.094 173.874 214.349 172.417 218.704 174.369C218.95 174.454 219.187 174.57 219.41 174.72C219.463 174.749 219.515 174.778 219.568 174.808C220.261 175.204 220.765 175.698 221.105 176.244Z" fill="#3E302E"/>
<path fill-rule="evenodd" clip-rule="evenodd" d="M124.679 186.053C124.564 186.007 124.448 185.956 124.332 185.9C118.837 183.235 116.987 176.09 121.162 171.437C124.705 167.49 130.631 166.554 135.265 169.061C146.341 175.053 135.15 189.473 125.365 186.333C125.12 186.253 124.892 186.159 124.679 186.053Z" fill="#3E302E"/>
<path d="M123.07 161.037C128.536 160.72 133.615 161.872 138.349 164.667C143.084 167.462 147.474 160.028 142.696 157.205C136.742 153.69 129.971 151.99 123.07 152.394C117.56 152.711 117.532 161.354 123.07 161.037Z" fill="#3E302E"/>
<path d="M202.437 166.179C208.736 169.205 214.833 171.164 221.748 169.205C227.071 167.692 224.804 159.351 219.453 160.864C214.89 162.16 210.945 160.705 206.77 158.718C201.792 156.326 197.43 163.774 202.423 166.179H202.437Z" fill="#3E302E"/>
<path d="M305.606 266.628C317.371 220.07 309.236 172.187 287.472 129.907C284.932 124.966 277.501 129.331 280.04 134.272C300.728 174.477 308.49 220.055 297.299 264.337C295.936 269.725 304.243 272.03 305.606 266.642V266.628Z" fill="#3E302E"/>
<path d="M87.4893 128.005C53.0566 163.385 40.7612 214.092 57.2459 260.966C59.0823 266.181 67.4036 263.934 65.5528 258.662C50.0724 214.668 61.177 167.404 93.5724 134.113C97.4461 130.137 91.363 124.015 87.4893 128.005Z" fill="#3E302E"/>
<path d="M291.776 141.546C303.555 126.45 308.074 107.679 302.536 89.0678C302.12 87.6993 301.001 86.3452 299.523 86.0427C280.872 82.2685 261.489 83.6226 243.814 90.9549C240.141 92.4818 239.194 92.7988 235.335 92.1649C230.643 91.4014 225.923 90.7532 221.189 90.2202C210.156 88.9814 199.037 88.434 187.947 88.5924C176.857 88.7509 166.412 89.572 155.723 91.0125C151.778 91.5455 146.9 93.1877 142.998 92.6835C139.727 92.2658 136.283 90.4795 133.027 89.644C113.17 84.5301 92.3673 84.6886 72.4967 89.6152C70.5743 90.0906 69.4552 91.9056 69.3404 93.7783C68.4366 108.947 71.9659 123.669 79.1968 136.965C81.851 141.849 89.2827 137.498 86.6285 132.601C80.1006 120.572 77.1308 107.435 77.9486 93.7639L74.7923 97.9271C94.4189 93.0581 114.935 93.2741 134.375 98.9498C137.173 99.7709 140.301 101.543 143.227 101.644C146.886 101.773 151.018 100.304 154.662 99.7853C165.221 98.244 175.91 97.4373 186.584 97.2356C197.258 97.0339 208.147 97.4805 218.864 98.5897C223.613 99.0795 228.333 99.6989 233.039 100.477C236.239 100.995 239.137 101.989 242.25 101.067C246.253 99.8862 250.04 97.6245 254.072 96.3569C259.38 94.7003 264.875 93.5334 270.413 92.9716C279.38 92.0641 288.404 92.5683 297.228 94.3545L294.215 91.3294C298.806 106.743 295.535 122.776 285.678 135.395C282.292 139.731 288.347 145.882 291.761 141.503L291.776 141.546Z" fill="#3E302E"/>
<path d="M263.096 137.383C247.444 159.481 243.097 180.513 250.916 188.637C253.728 191.562 260.629 195.437 267.73 193.881C267.73 193.881 273.641 192.584 277.587 187.471C284.574 178.395 278.419 158.228 263.082 137.383H263.096Z" fill="#1E96EB"/>
<path d="M259.38 135.208C250.916 147.453 242.107 162.967 242.867 178.453C243.455 190.481 253.226 199.052 265.377 198.519C275.449 198.073 283.77 189.833 284.66 179.893C286.094 163.932 275.65 147.467 266.812 135.208C263.598 130.742 256.124 135.05 259.38 139.573C265.966 148.735 289.739 184.748 266.597 189.718C254.789 192.253 250.399 181.463 251.82 172.158C253.627 160.259 260.098 149.296 266.826 139.573C269.997 134.992 262.537 130.67 259.395 135.208H259.38Z" fill="#3E302E"/>
</svg>
