<svg width="360" height="360" viewBox="0 0 360 360" fill="none" xmlns="http://www.w3.org/2000/svg">
<path d="M97.0957 266.394C76.2047 263.396 60.4737 246.947 59.0233 227.79C57.8379 212.113 66.3589 196.727 80.779 188.288C81.0161 181.851 82.2851 171.189 88.0309 159.559C92.0334 151.465 96.9005 145.54 100.722 141.604C97.4444 137.598 90.7643 128.289 88.9374 114.671C87.6264 104.892 89.3557 96.8809 90.7503 92.2264C96.7889 90.8728 105.226 89.6712 115.225 90.4308C129.492 91.5081 140.454 96.066 146.953 99.4085C159.239 97.0191 174.231 95.0716 191.37 94.9197C210.476 94.7401 227.072 96.8257 240.321 99.4085C247.057 96.3285 258.004 92.3092 272.048 91.3286C287.611 90.2513 300.079 93.3865 307.401 95.8174C307.777 101.328 307.708 109.173 305.588 118.262C303.496 127.184 300.163 134.159 297.429 138.91C305.058 151.673 313.732 169.089 319.994 190.815C328.166 219.13 329.129 243.894 328.389 261.118C306.146 263.659 274.949 267.167 237.532 271.117C157.273 279.598 131.751 271.38 97.0818 266.394H97.0957Z" fill="#FCEAF0"/>
<path d="M195.373 181.175C208.97 174.932 226.905 181.023 234.143 194.434C238.787 203.053 239.247 215.083 232.386 224.461C225.078 234.433 212.22 237.693 201.719 234.93C186.49 230.925 177.02 214.475 180.214 200.014C180.381 199.227 183.38 186.672 195.373 181.161V181.175Z" fill="#F7D0DD"/>
<path d="M87.2222 181.368C94.3068 181.603 99.662 194.393 101.28 200.152C102.172 203.343 104.864 212.873 99.2018 222.292C98.7416 223.066 91.6292 234.433 78.1016 235.51C74.4059 235.8 70.5987 236.104 67.9768 234.102C56.9456 225.621 73.8202 180.94 87.2222 181.382V181.368Z" fill="#F7D0DD"/>
<path d="M101.545 137.322C95.9243 122.64 94.9063 107.102 98.8809 91.8673L95.9522 94.7677C105.617 92.9584 115.574 93.0689 125.169 95.2788C129.994 96.3975 134.722 97.9583 139.213 100.058C141.639 101.19 144.233 103.331 146.953 103.566C150.453 103.87 154.832 102.199 158.36 101.674C163.353 100.942 168.36 100.375 173.38 99.9472C184.035 99.0494 194.745 98.8284 205.428 99.2704C215.065 99.6709 224.646 100.665 234.171 102.116C237.922 102.682 239.177 101.978 242.594 100.362C246.931 98.3036 251.478 96.7014 256.135 95.5136C272.926 91.2319 290.415 93.2761 306.285 99.8229L303.217 95.8313C304.904 110.375 301.725 124.477 293.817 136.839C290.931 141.355 298.169 145.512 301.041 141.024C309.66 127.543 313.425 111.701 311.585 95.8451C311.348 93.7871 310.399 92.6269 308.516 91.8534C292.883 85.4033 275.604 83.2901 258.911 86.4392C253.82 87.3922 248.856 88.8701 244.044 90.7761C240.586 92.1435 238.034 93.8423 234.436 93.8423C224.897 93.8423 215.037 91.4115 205.428 91.0109C193.937 90.5413 182.417 90.8314 170.968 91.9087C166.742 92.3092 162.53 92.8065 158.333 93.4004C154.428 93.9528 149.993 95.4998 146.478 94.4363C142.643 93.2761 138.976 90.859 135.14 89.5331C130.566 87.9447 125.852 86.8397 121.069 86.1215C111.934 84.768 102.8 85.1133 93.7488 86.7983C92.3681 87.0607 91.1688 88.3867 90.8201 89.6988C86.4969 106.273 87.3476 123.538 93.4838 139.56C95.3805 144.504 103.469 142.363 101.559 137.35L101.545 137.322Z" fill="#3E302E"/>
<path d="M286.873 135.83C313.914 171.907 327.162 216.27 324.22 261.118C323.871 266.449 332.239 266.421 332.587 261.118C335.614 214.986 321.919 168.758 294.097 131.645C290.917 127.405 283.651 131.535 286.873 135.83Z" fill="#3E302E"/>
<path d="M141.249 221.491C152.824 221.823 171.539 217.583 174.733 205.635C178.122 192.942 162.712 176.299 146.2 173.937C126.48 171.12 105.477 188.688 107.207 202.044C108.713 213.66 127.317 221.105 141.249 221.491Z" fill="#F7D0DD"/>
<path d="M141.249 225.635C155.613 225.801 178.763 220.497 179.363 202.652C179.963 184.807 159.072 169.711 142.239 169.504C126.243 169.31 103.971 181.686 102.967 199.323C101.921 217.693 126.801 224.931 141.249 225.635C146.632 225.897 146.618 217.61 141.249 217.348C131.863 216.892 109.731 212.155 111.376 199.033C112.98 186.271 130.747 177.597 142.239 177.777C154.135 177.956 171.163 188.605 170.995 201.879C170.828 215.152 150.969 217.458 141.249 217.348C135.866 217.293 135.866 225.58 141.249 225.635Z" fill="#3E302E"/>
<path d="M129.004 199.268C129.939 199.227 128.907 198.978 128.614 199.02C128.335 199.061 128.656 198.702 128.767 199.144C128.739 199.033 128.53 198.785 128.474 198.66C128.209 198.163 128.711 198.426 128.474 198.688L128.53 198.343L128.432 198.716C128.725 198.384 128.586 198.591 128.391 198.771C128.711 198.481 128.628 198.619 128.363 198.771C128.669 198.578 128.893 198.37 129.297 198.329C129.562 198.246 129.827 198.287 130.078 198.426C130.678 198.633 130.803 198.647 130.469 198.481C130.301 198.481 130.469 198.619 130.413 198.426C130.273 197.997 130.469 198.522 130.496 198.605C130.566 198.923 130.566 198.163 130.427 198.495C130.413 198.536 130.329 199.323 130.399 198.84C130.441 198.536 130.106 199.006 130.385 198.826C130.734 198.591 130.259 198.923 130.162 198.992C129.994 199.144 129.283 199.282 130.134 199.102C132.351 198.647 133.634 196.064 133.062 194.006C132.435 191.727 130.134 190.65 127.916 191.105C123.872 191.934 121.487 196.271 122.268 200.138C123.007 203.798 126.536 206.961 130.427 206.478C134.318 205.994 136.8 202.293 136.856 198.66C136.912 194.475 133.327 190.746 129.032 190.953C126.773 191.064 124.848 192.777 124.848 195.097C124.848 197.265 126.759 199.351 129.032 199.241L129.004 199.268Z" fill="#3E302E"/>
<path d="M148.626 199.945C148.194 199.89 147.817 199.627 147.455 199.531C147.873 199.641 147.58 200 147.566 199.669C147.566 199.489 147.469 199.254 147.441 199.075C147.511 199.613 147.343 199.268 147.525 199.006C147.134 199.6 147.678 199.006 147.608 199.006L147.441 199.31L147.678 199.019L147.441 199.254L147.734 199.006C148.041 198.909 148.264 198.757 148.612 198.799C148.822 198.826 148.961 198.95 149.142 199.006C149.365 199.061 148.989 198.688 149.073 198.909C149.128 199.061 149.254 199.337 149.324 199.489C149.519 199.89 149.407 199.061 149.351 199.489C149.351 199.572 149.184 200.276 149.282 199.821C149.393 199.296 149.254 200.249 149.282 199.765C149.463 199.6 149.449 199.586 149.282 199.738C149.087 199.876 149.1 199.876 149.282 199.752C149.672 199.558 148.738 199.931 148.64 199.931C150.899 199.876 152.824 198.066 152.824 195.788C152.824 193.509 150.913 191.589 148.64 191.644C144.568 191.741 141.43 195 141.026 198.923C140.621 202.845 144.066 206.906 148.236 207.044C152.183 207.168 155.237 204.019 155.725 200.29C155.99 198.274 155.46 196.326 154.247 194.696C152.824 192.777 150.983 191.948 148.64 191.644C146.297 191.34 144.456 193.757 144.456 195.788C144.456 198.274 146.395 199.641 148.64 199.931L148.626 199.945Z" fill="#3E302E"/>
<path d="M103.901 129.187C92.4379 139.504 83.8471 152.639 79.2171 167.294C78.0456 170.981 77.1531 174.724 76.5255 178.537C75.8979 182.349 75.117 181.907 72.3138 184.724C66.9586 190.097 62.719 196.533 59.9438 203.55C50.5721 227.168 60.39 253.645 81.6995 267.098C86.2598 269.971 90.4575 262.803 85.9251 259.944C66.1358 247.458 58.7863 221.878 70.208 201.257C71.8676 198.26 73.834 195.456 76.0932 192.873C78.0875 190.608 81.7413 188.412 83.3172 185.94C85.7996 182.031 85.6043 175.07 86.971 170.539C91.1269 156.797 99.1598 144.67 109.842 135.057C113.831 131.466 107.904 125.61 103.929 129.201L103.901 129.187Z" fill="#3E302E"/>
<path fill-rule="evenodd" clip-rule="evenodd" d="M177.359 171.122C181.119 166.576 188.214 166.741 191.552 171.631C194.425 175.829 194.118 181.561 190.883 185.47C182.613 195.442 171.428 180.677 176.672 172.004C176.878 171.662 177.109 171.37 177.359 171.122Z" fill="#3E302E"/>
<path fill-rule="evenodd" clip-rule="evenodd" d="M97.6242 164.982C97.6524 164.96 97.6808 164.939 97.7095 164.918C102.591 161.341 109.396 163.482 111.39 169.075C113.148 173.992 111.042 179.6 106.746 182.473C96.2173 189.531 89.7603 172.321 96.8727 165.567C97.1163 165.336 97.3677 165.141 97.6242 164.982Z" fill="#3E302E"/>
<path d="M288.155 222.071C283.609 222.32 279.09 222.196 274.586 221.422C271.169 220.828 263.318 219.682 260.751 217.127C255.689 212.086 264.433 203.37 260.5 197.086C252.97 185.056 237.531 204.669 234.7 210.911L239.428 209.005C223.014 206.036 207.213 221.132 212.777 237.803C218.342 254.474 241.492 261.159 257.418 263.024C262.76 263.659 262.704 255.358 257.418 254.736C245.439 253.328 230.558 249.529 222.986 239.336C215.413 229.143 224.59 214.696 237.211 216.975C238.884 217.279 241.143 216.809 241.938 215.069C242.524 213.771 250.836 200.304 253.067 202.997C253.723 203.785 251.352 209.144 251.212 210.773C250.975 213.605 251.45 216.409 252.37 219.102C254.364 224.931 260.779 226.436 266.344 228.011C273.428 230.027 280.834 230.745 288.183 230.345C293.538 230.055 293.566 221.768 288.183 222.058L288.155 222.071Z" fill="#3E302E"/>
<path d="M47.6574 94.9611C47.2111 95.0578 52.8034 108.787 47.8108 119.822C44.2825 127.612 36.5425 131.728 30.978 133.924C35.8731 132.819 43.1389 132.018 49.1775 135.734C59.6091 142.156 60.8503 158.661 62.1333 158.385C63.4024 158.109 57.81 142.888 64.4204 132.336C68.3253 126.107 75.2704 123.413 80.0538 122.143C72.8717 122.53 62.8585 121.853 56.2202 115.334C48.4802 107.723 48.0618 94.8782 47.6574 94.9611Z" fill="#F8B62D"/>
<path d="M43.4737 94.9611C43.3063 96.3009 44.0733 97.9997 44.3801 99.2704C45.203 102.723 45.8026 106.232 45.719 109.795C45.4679 119.891 38.8018 126.245 29.8764 129.919C25.0092 131.922 26.6967 139.021 32.1077 137.916C43.9339 135.485 51.4368 140.485 55.3138 151.327C56.6108 154.96 56.8339 160.844 61.0595 162.377C62.3286 162.846 64.2531 162.349 65.1317 161.313C68.2138 157.639 65.4525 150.761 65.3688 146.535C65.1596 135.72 70.9611 129.049 81.1975 126.134C85.6323 124.878 84.921 117.806 80.0818 117.999C70.3754 118.386 60.3343 116.646 55.523 107.24C53.3056 102.903 53.8216 96.7843 51.2973 92.8755C48.4105 88.4005 41.1586 92.544 44.0733 97.0605C43.4039 96.0246 44.1152 98.3036 44.1989 98.8837C44.5057 100.9 45.0217 102.931 45.6353 104.878C46.988 109.201 48.9823 113.441 52.0086 116.867C59.0373 124.85 69.9012 126.701 80.0957 126.286L78.9801 118.151C70.3057 120.624 62.5238 125.361 59.0373 133.966C57.2104 138.496 56.792 143.496 57.071 148.33C57.1825 150.319 57.4475 152.28 57.7264 154.242C57.8101 154.863 57.7683 156.092 58.0751 156.645C58.8839 158.04 56.1924 159.034 59.2047 155.443L63.2769 154.38C66.0522 155.402 65.313 156.893 64.8249 153.8C64.5878 152.239 63.9045 150.595 63.3745 149.117C61.9242 144.988 60.0833 140.996 57.322 137.557C50.4745 129.035 40.1127 127.819 29.8764 129.919L32.1077 137.916C41.0889 134.214 49.4983 128.538 52.6362 118.938C54.1981 114.187 54.3376 109.063 53.7658 104.146C53.5147 101.978 53.1103 99.8229 52.6222 97.6958C52.4409 96.9086 51.9807 94.0219 51.8691 94.9611C52.5246 89.685 44.1431 89.7264 43.5016 94.9611H43.4737Z" fill="#3E302E"/>
</svg>
