<svg width="730" height="703" viewBox="0 0 730 703" fill="none" xmlns="http://www.w3.org/2000/svg">
  <path
    d="M778.049 644.705C764.467 620.365 741.846 579.955 719.499 540.04C712.719 527.929 705.985 515.888 699.526 504.342C686.24 480.591 674.142 458.937 665.514 443.48C605.64 336.671 487.764 125.197 428.872 20.6265C410.725 -8.5204 368.678 -6.21127 353.065 23.9724C335.352 55.664 315.858 90.5131 295.268 127.341C288.74 139.028 282.075 150.928 275.341 162.968C189.559 316.313 89.1678 495.813 17.6524 623.663C14.0002 630.497 7.19787 641.642 3.79672 649.017C-2.161 662.33 -0.99684 678.918 6.51308 691.217C14.9817 705.779 30.8233 713.767 47.0073 712.942C66.4783 712.942 107.771 712.918 161.163 712.942C173.831 712.942 187.185 712.942 201.086 712.942C386.734 712.942 670.33 713.06 739.928 712.942C773.734 713.013 794.94 674.747 778.094 644.681L778.049 644.705ZM378.425 508.89L344.254 447.792C338.251 437.048 345.76 423.617 357.767 423.617H426.11C438.139 423.617 445.649 437.048 439.623 447.792L405.452 508.89C399.448 519.635 384.429 519.635 378.402 508.89H378.425ZM321.176 395.106C318.346 387.661 315.903 380.097 313.895 372.416L426.954 395.106H321.176ZM372.81 555.85C367.993 562.118 362.858 568.079 357.425 573.734L319.921 461.317L372.787 555.85H372.81ZM481.875 429.319C489.522 430.497 497.1 432.123 504.542 434.15L428.986 523.876L481.875 429.319ZM306.933 334.126C305.723 322.769 305.198 311.294 305.243 299.796L454.552 374.984L306.91 334.15L306.933 334.126ZM289.219 446.685L328.755 599.017C319.83 605.779 310.471 612 300.792 617.702L289.196 446.685H289.219ZM540.151 447.085C550.286 451.68 560.17 456.958 569.803 462.755L432.068 558.654L540.151 447.085ZM308.667 251.304C311.407 230.428 315.63 209.857 320.743 190.136L547.57 393.669L308.69 251.304H308.667ZM258.403 638.932C239.526 646.92 220.169 653.423 201.063 658.701L258.403 354.202V638.932ZM608.767 490.04C624.906 502.929 640.062 516.996 654.055 531.416L369.888 632.405L608.767 490.04ZM401.868 75.6922C443.686 150.598 504.405 259.221 562.247 362.614L346.285 139.688C358.977 117.021 371.007 95.5083 382.1 75.6451C386.506 67.7988 397.463 67.7988 401.868 75.6451V75.6922ZM64.5609 643.362C76.4535 622.179 92.7972 593.126 96.4267 586.434C130.849 524.889 177.21 442.019 225.1 356.393L146.006 661.057C117.678 661.057 93.2538 661.057 74.4447 661.057C65.6565 661.057 60.1553 651.232 64.5609 643.385V643.362ZM709.501 661.104C643.555 661.104 515.521 661.104 388.4 661.104L683.57 579.46C699.046 607.122 711.441 629.271 719.385 643.456C723.79 651.302 718.289 661.104 709.523 661.104H709.501Z"
    fill="black" fill-opacity="0.05" />
</svg>