<svg width="135" height="80" viewBox="0 0 135 80" fill="none" xmlns="http://www.w3.org/2000/svg">
<g clip-path="url(#clip0_7497_25255)">
<rect width="135" height="80" fill="white"/>
<rect x="6.5" y="8.5" width="37" height="28" rx="3.5" fill="#DFF4E8" stroke="#7CC270"/>
<path d="M13.3345 31.1385C12.7498 31.1385 12.2479 30.9905 11.8288 30.6946C11.4122 30.3963 11.0914 29.9666 10.8665 29.4055C10.6439 28.8421 10.5327 28.1638 10.5327 27.3707C10.535 26.5777 10.6475 25.9029 10.87 25.3466C11.0949 24.7879 11.4157 24.3617 11.8324 24.0682C12.2514 23.7746 12.7521 23.6278 13.3345 23.6278C13.9169 23.6278 14.4176 23.7746 14.8366 24.0682C15.2557 24.3617 15.5765 24.7879 15.799 25.3466C16.0239 25.9053 16.1364 26.58 16.1364 27.3707C16.1364 28.1662 16.0239 28.8456 15.799 29.4091C15.5765 29.9702 15.2557 30.3987 14.8366 30.6946C14.42 30.9905 13.9193 31.1385 13.3345 31.1385ZM13.3345 30.027C13.7891 30.027 14.1477 29.8033 14.4105 29.3558C14.6757 28.906 14.8082 28.2443 14.8082 27.3707C14.8082 26.7931 14.7479 26.3078 14.6271 25.9148C14.5064 25.5218 14.3359 25.2259 14.1158 25.027C13.8956 24.8258 13.6352 24.7251 13.3345 24.7251C12.8823 24.7251 12.5249 24.95 12.2621 25.3999C11.9993 25.8473 11.8667 26.5043 11.8643 27.3707C11.862 27.9508 11.92 28.4384 12.0384 28.8338C12.1591 29.2292 12.3295 29.5275 12.5497 29.7287C12.7699 29.9276 13.0315 30.027 13.3345 30.027ZM20.2743 23.7273V31H18.9569V25.0092H18.9142L17.2132 26.0959V24.8885L19.0208 23.7273H20.2743Z" fill="#7CC270"/>
<rect x="49.5" y="44.5" width="37" height="28" rx="3.5" fill="#FFE1E1" stroke="#E660A4"/>
<rect x="92.5" y="44.5" width="37" height="28" rx="3.5" fill="#F5F5F5" stroke="#BFC0BF"/>
<path d="M56.3345 66.1385C55.7498 66.1385 55.2479 65.9905 54.8288 65.6946C54.4122 65.3963 54.0914 64.9666 53.8665 64.4055C53.6439 63.8421 53.5327 63.1638 53.5327 62.3707C53.535 61.5777 53.6475 60.9029 53.87 60.3466C54.0949 59.7879 54.4157 59.3617 54.8324 59.0682C55.2514 58.7746 55.7521 58.6278 56.3345 58.6278C56.9169 58.6278 57.4176 58.7746 57.8366 59.0682C58.2557 59.3617 58.5765 59.7879 58.799 60.3466C59.0239 60.9053 59.1364 61.58 59.1364 62.3707C59.1364 63.1662 59.0239 63.8456 58.799 64.4091C58.5765 64.9702 58.2557 65.3987 57.8366 65.6946C57.42 65.9905 56.9193 66.1385 56.3345 66.1385ZM56.3345 65.027C56.7891 65.027 57.1477 64.8033 57.4105 64.3558C57.6757 63.906 57.8082 63.2443 57.8082 62.3707C57.8082 61.7931 57.7479 61.3078 57.6271 60.9148C57.5064 60.5218 57.3359 60.2259 57.1158 60.027C56.8956 59.8258 56.6352 59.7251 56.3345 59.7251C55.8823 59.7251 55.5249 59.95 55.2621 60.3999C54.9993 60.8473 54.8667 61.5043 54.8643 62.3707C54.862 62.9508 54.92 63.4384 55.0384 63.8338C55.1591 64.2292 55.3295 64.5275 55.5497 64.7287C55.7699 64.9276 56.0315 65.027 56.3345 65.027ZM60.1848 64.6506V63.603L63.2708 58.7273H64.1444V60.2188H63.6117L61.5343 63.5107V63.5675H65.8418V64.6506H60.1848ZM63.6543 66V64.331L63.6685 63.8622V58.7273H64.9114V66H63.6543Z" fill="#E660A4"/>
<path d="M99.3345 66.1385C98.7498 66.1385 98.2479 65.9905 97.8288 65.6946C97.4122 65.3963 97.0914 64.9666 96.8665 64.4055C96.6439 63.8421 96.5327 63.1638 96.5327 62.3707C96.535 61.5777 96.6475 60.9029 96.87 60.3466C97.0949 59.7879 97.4157 59.3617 97.8324 59.0682C98.2514 58.7746 98.7521 58.6278 99.3345 58.6278C99.9169 58.6278 100.418 58.7746 100.837 59.0682C101.256 59.3617 101.576 59.7879 101.799 60.3466C102.024 60.9053 102.136 61.58 102.136 62.3707C102.136 63.1662 102.024 63.8456 101.799 64.4091C101.576 64.9702 101.256 65.3987 100.837 65.6946C100.42 65.9905 99.9193 66.1385 99.3345 66.1385ZM99.3345 65.027C99.7891 65.027 100.148 64.8033 100.411 64.3558C100.676 63.906 100.808 63.2443 100.808 62.3707C100.808 61.7931 100.748 61.3078 100.627 60.9148C100.506 60.5218 100.336 60.2259 100.116 60.027C99.8956 59.8258 99.6352 59.7251 99.3345 59.7251C98.8823 59.7251 98.5249 59.95 98.2621 60.3999C97.9993 60.8473 97.8667 61.5043 97.8643 62.3707C97.862 62.9508 97.92 63.4384 98.0384 63.8338C98.1591 64.2292 98.3295 64.5275 98.5497 64.7287C98.7699 64.9276 99.0315 65.027 99.3345 65.027ZM105.845 66.0994C105.371 66.0994 104.947 66.0107 104.573 65.8331C104.199 65.6532 103.902 65.407 103.682 65.0945C103.464 64.782 103.348 64.4245 103.334 64.022H104.612C104.636 64.3203 104.765 64.5642 104.999 64.7536C105.234 64.9406 105.516 65.0341 105.845 65.0341C106.103 65.0341 106.332 64.9749 106.534 64.8565C106.735 64.7382 106.893 64.5736 107.009 64.3629C107.125 64.1522 107.182 63.9119 107.18 63.642C107.182 63.3674 107.124 63.1236 107.006 62.9105C106.887 62.6974 106.725 62.5305 106.519 62.4098C106.313 62.2867 106.077 62.2251 105.809 62.2251C105.591 62.2228 105.377 62.263 105.166 62.3459C104.956 62.4287 104.789 62.5376 104.666 62.6726L103.476 62.4773L103.856 58.7273H108.075V59.8281H104.946L104.737 61.7564H104.779C104.914 61.5978 105.105 61.4664 105.351 61.3622C105.597 61.2557 105.867 61.2024 106.161 61.2024C106.601 61.2024 106.994 61.3066 107.34 61.5149C107.685 61.7209 107.958 62.005 108.156 62.3672C108.355 62.7294 108.455 63.1437 108.455 63.6101C108.455 64.0907 108.343 64.5192 108.121 64.8956C107.901 65.2696 107.594 65.5644 107.201 65.7798C106.811 65.9929 106.358 66.0994 105.845 66.0994Z" fill="#BFC0BF"/>
<rect x="49.5" y="8.5" width="37" height="28" rx="3.5" fill="#F3F0FF" stroke="#6E52DF"/>
<path d="M56.3345 31.1385C55.7498 31.1385 55.2479 30.9905 54.8288 30.6946C54.4122 30.3963 54.0914 29.9666 53.8665 29.4055C53.6439 28.8421 53.5327 28.1638 53.5327 27.3707C53.535 26.5777 53.6475 25.9029 53.87 25.3466C54.0949 24.7879 54.4157 24.3617 54.8324 24.0682C55.2514 23.7746 55.7521 23.6278 56.3345 23.6278C56.9169 23.6278 57.4176 23.7746 57.8366 24.0682C58.2557 24.3617 58.5765 24.7879 58.799 25.3466C59.0239 25.9053 59.1364 26.58 59.1364 27.3707C59.1364 28.1662 59.0239 28.8456 58.799 29.4091C58.5765 29.9702 58.2557 30.3987 57.8366 30.6946C57.42 30.9905 56.9193 31.1385 56.3345 31.1385ZM56.3345 30.027C56.7891 30.027 57.1477 29.8033 57.4105 29.3558C57.6757 28.906 57.8082 28.2443 57.8082 27.3707C57.8082 26.7931 57.7479 26.3078 57.6271 25.9148C57.5064 25.5218 57.3359 25.2259 57.1158 25.027C56.8956 24.8258 56.6352 24.7251 56.3345 24.7251C55.8823 24.7251 55.5249 24.95 55.2621 25.3999C54.9993 25.8473 54.8667 26.5043 54.8643 27.3707C54.862 27.9508 54.92 28.4384 55.0384 28.8338C55.1591 29.2292 55.3295 29.5275 55.5497 29.7287C55.7699 29.9276 56.0315 30.027 56.3345 30.027ZM60.3162 31V30.0483L62.8411 27.5732C63.0826 27.3293 63.2838 27.1127 63.4448 26.9233C63.6058 26.7339 63.7265 26.5504 63.807 26.3729C63.8875 26.1953 63.9277 26.0059 63.9277 25.8047C63.9277 25.575 63.8757 25.3786 63.7715 25.2152C63.6673 25.0495 63.5241 24.9216 63.3418 24.8317C63.1595 24.7417 62.9524 24.6967 62.7203 24.6967C62.4812 24.6967 62.2717 24.7464 62.0918 24.8459C61.9119 24.9429 61.7722 25.0814 61.6728 25.2614C61.5757 25.4413 61.5272 25.6555 61.5272 25.9041H60.2736C60.2736 25.4425 60.379 25.0412 60.5897 24.7003C60.8004 24.3594 61.0904 24.0954 61.4597 23.9084C61.8314 23.7214 62.2575 23.6278 62.7381 23.6278C63.2258 23.6278 63.6543 23.719 64.0236 23.9013C64.3929 24.0836 64.6794 24.3333 64.883 24.6506C65.089 24.9678 65.1919 25.33 65.1919 25.7372C65.1919 26.0095 65.1399 26.277 65.0357 26.5398C64.9315 26.8026 64.748 27.0937 64.4853 27.4134C64.2248 27.733 63.8591 28.12 63.388 28.5746L62.1344 29.8494V29.8991H65.302V31H60.3162Z" fill="#6E52DF"/>
<rect x="6.5" y="44.5" width="37" height="28" rx="3.5" fill="#FFEACA" stroke="#FF8C38"/>
<path d="M13.3345 66.1385C12.7498 66.1385 12.2479 65.9905 11.8288 65.6946C11.4122 65.3963 11.0914 64.9666 10.8665 64.4055C10.6439 63.8421 10.5327 63.1638 10.5327 62.3707C10.535 61.5777 10.6475 60.9029 10.87 60.3466C11.0949 59.7879 11.4157 59.3617 11.8324 59.0682C12.2514 58.7746 12.7521 58.6278 13.3345 58.6278C13.9169 58.6278 14.4176 58.7746 14.8366 59.0682C15.2557 59.3617 15.5765 59.7879 15.799 60.3466C16.0239 60.9053 16.1364 61.58 16.1364 62.3707C16.1364 63.1662 16.0239 63.8456 15.799 64.4091C15.5765 64.9702 15.2557 65.3987 14.8366 65.6946C14.42 65.9905 13.9193 66.1385 13.3345 66.1385ZM13.3345 65.027C13.7891 65.027 14.1477 64.8033 14.4105 64.3558C14.6757 63.906 14.8082 63.2443 14.8082 62.3707C14.8082 61.7931 14.7479 61.3078 14.6271 60.9148C14.5064 60.5218 14.3359 60.2259 14.1158 60.027C13.8956 59.8258 13.6352 59.7251 13.3345 59.7251C12.8823 59.7251 12.5249 59.95 12.2621 60.3999C11.9993 60.8473 11.8667 61.5043 11.8643 62.3707C11.862 62.9508 11.92 63.4384 12.0384 63.8338C12.1591 64.2292 12.3295 64.5275 12.5497 64.7287C12.7699 64.9276 13.0315 65.027 13.3345 65.027ZM19.9263 66.0994C19.415 66.0994 18.9604 66.0118 18.5627 65.8366C18.1673 65.6615 17.8548 65.4176 17.6252 65.1051C17.3955 64.7926 17.2736 64.4316 17.2594 64.022H18.5946C18.6065 64.2185 18.6716 64.3902 18.79 64.5369C18.9083 64.6813 19.0658 64.7938 19.2623 64.8743C19.4587 64.9548 19.6789 64.995 19.9228 64.995C20.1832 64.995 20.414 64.95 20.6152 64.8601C20.8165 64.7678 20.9739 64.6399 21.0875 64.4766C21.2012 64.3132 21.2568 64.125 21.2544 63.9119C21.2568 63.6918 21.2 63.4976 21.084 63.3295C20.968 63.1615 20.7999 63.0301 20.5797 62.9354C20.3619 62.8407 20.0991 62.7933 19.7914 62.7933H19.1486V61.7777H19.7914C20.0447 61.7777 20.266 61.7339 20.4554 61.6463C20.6472 61.5587 20.7975 61.4356 20.9064 61.277C21.0153 61.116 21.0686 60.9302 21.0662 60.7195C21.0686 60.5135 21.0224 60.3348 20.9277 60.1832C20.8354 60.0294 20.704 59.9098 20.5336 59.8246C20.3655 59.7393 20.1678 59.6967 19.9405 59.6967C19.718 59.6967 19.512 59.737 19.3226 59.8175C19.1332 59.898 18.9805 60.0128 18.8645 60.1619C18.7485 60.3087 18.687 60.4839 18.6799 60.6875H17.4121C17.4216 60.2803 17.5388 59.9228 17.7637 59.6151C17.9909 59.3049 18.294 59.0634 18.6728 58.8906C19.0516 58.7154 19.4765 58.6278 19.9476 58.6278C20.4329 58.6278 20.8543 58.719 21.2118 58.9013C21.5717 59.0812 21.8498 59.3239 22.0463 59.6293C22.2428 59.9347 22.3411 60.272 22.3411 60.6413C22.3435 61.0509 22.2227 61.3942 21.9789 61.6712C21.7374 61.9482 21.4202 62.1293 21.0272 62.2145V62.2713C21.5385 62.3423 21.9303 62.5317 22.2026 62.8395C22.4772 63.1449 22.6133 63.5249 22.611 63.9794C22.611 64.3866 22.495 64.7512 22.263 65.0732C22.0333 65.3928 21.7161 65.6437 21.3113 65.826C20.9088 66.0083 20.4471 66.0994 19.9263 66.0994Z" fill="#FF8C38"/>
<path d="M78.9575 32.2139C83.9295 32.5977 88.8546 32.913 93.666 34.2906C95.1402 34.7126 98.2175 35.4761 97.7562 37.6359C97.4452 39.0919 96.3376 40.4716 95.3996 41.5771C93.8059 43.4554 92.0234 45.2793 90.6864 47.3558C89.9336 48.5249 89.6354 49.6117 90.7992 50.6108C91.604 51.3017 92.6247 51.6679 93.6163 51.9968C94.8768 52.4148 96.1623 52.7528 97.4673 52.999C99.0062 53.2894 100.565 53.4598 102.126 53.5679C102.228 53.5749 102.813 53.5859 102.767 53.5859" stroke="#9A6533" stroke-width="3" stroke-linecap="round"/>
<g filter="url(#filter0_dd_7497_25255)">
<path d="M121.276 48.3562L119.608 47.5357L159.992 22.4125L160.825 23.7522L121.276 48.3562Z" fill="#9A6533"/>
<path d="M119.331 47.7085L118.312 46.071L158.974 20.7747L159.993 22.4122L119.331 47.7085Z" fill="#9A6533"/>
<path d="M118.311 46.0718L117.292 44.4343L157.954 19.138L158.973 20.7754L118.311 46.0718Z" fill="#9A6533"/>
<path d="M113.757 46.6338L117.573 42.4017L157.122 17.7977L157.955 19.1374L113.757 46.6338Z" fill="#9A6533"/>
<path d="M110.445 51.998C109.545 52.2999 108.85 51.1836 109.519 50.5094L112.192 47.8136L117.54 42.4222L117.635 42.7593C117.86 43.5526 118.401 44.2185 119.132 44.6005L119.449 44.7661C119.771 44.9346 119.976 45.2648 119.985 45.6284L120.004 46.4162C120.017 46.9657 120.256 47.4856 120.664 47.8537L121.244 48.3766L114.045 50.7909L110.445 51.998Z" fill="white"/>
<g filter="url(#filter1_b_7497_25255)">
<path d="M107.644 52.937C107.444 53.004 107.29 52.7562 107.438 52.6066L110.053 49.9702L111.164 51.7565L107.644 52.937Z" fill="#9A6533"/>
</g>
</g>
</g>
<defs>
<filter id="filter0_dd_7497_25255" x="95.9996" y="14.6782" width="74.0355" height="56.5039" filterUnits="userSpaceOnUse" color-interpolation-filters="sRGB">
<feFlood flood-opacity="0" result="BackgroundImageFix"/>
<feColorMatrix in="SourceAlpha" type="matrix" values="0 0 0 0 0 0 0 0 0 0 0 0 0 0 0 0 0 0 127 0" result="hardAlpha"/>
<feMorphology radius="2" operator="erode" in="SourceAlpha" result="effect1_dropShadow_7497_25255"/>
<feOffset dy="4"/>
<feGaussianBlur stdDeviation="2"/>
<feColorMatrix type="matrix" values="0 0 0 0 0.258824 0 0 0 0 0.254902 0 0 0 0 0.286275 0 0 0 0.1 0"/>
<feBlend mode="normal" in2="BackgroundImageFix" result="effect1_dropShadow_7497_25255"/>
<feColorMatrix in="SourceAlpha" type="matrix" values="0 0 0 0 0 0 0 0 0 0 0 0 0 0 0 0 0 0 127 0" result="hardAlpha"/>
<feMorphology radius="1" operator="dilate" in="SourceAlpha" result="effect2_dropShadow_7497_25255"/>
<feOffset dy="6"/>
<feGaussianBlur stdDeviation="4"/>
<feColorMatrix type="matrix" values="0 0 0 0 0.258824 0 0 0 0 0.254902 0 0 0 0 0.286275 0 0 0 0.05 0"/>
<feBlend mode="normal" in2="effect1_dropShadow_7497_25255" result="effect2_dropShadow_7497_25255"/>
<feBlend mode="normal" in="SourceGraphic" in2="effect2_dropShadow_7497_25255" result="shape"/>
</filter>
<filter id="filter1_b_7497_25255" x="105.476" y="48.0668" width="7.59217" height="6.78492" filterUnits="userSpaceOnUse" color-interpolation-filters="sRGB">
<feFlood flood-opacity="0" result="BackgroundImageFix"/>
<feGaussianBlur in="BackgroundImageFix" stdDeviation="0.951724"/>
<feComposite in2="SourceAlpha" operator="in" result="effect1_backgroundBlur_7497_25255"/>
<feBlend mode="normal" in="SourceGraphic" in2="effect1_backgroundBlur_7497_25255" result="shape"/>
</filter>
<clipPath id="clip0_7497_25255">
<rect width="135" height="80" fill="white"/>
</clipPath>
</defs>
</svg>
