<svg xmlns="http://www.w3.org/2000/svg" viewBox="0 0 24 24"><path d="M3.504 3.793a.868.868 0 0 1 .312-.59.885.885 0 0 1 .642-.2l3.567.316c2.53.238 4.952.525 6.943.85 1.946.317 3.603.69 4.507 1.142.23.116.483.27.677.482.207.223.413.587.329 1.045-.079.413-.357.685-.571.846a3.53 3.53 0 0 1-.815.429c-1.196.469-3.461.917-7.016 1.357-1.69.209-2.918.414-3.768.606.24.052.505.103.79.153 1.164.202 2.628.375 4.184.508 1.185.097 2.365.251 3.535.462.54.1 1.047.216 1.479.344.413.122.829.274 1.138.478.153.1.357.261.493.507a1.078 1.078 0 0 1 .032.99c-.132.284-.36.465-.532.576-.2.122-.412.223-.634.3-.9.329-2.514.632-5.021.916-2.49.283-3.997.64-4.827.998-.347.149-.518.274-.596.348.03.043.086.11.183.198.176.16.433.336.762.522.657.367 1.503.708 2.32.973l3.092.945a.882.882 0 0 1 .525.424.864.864 0 0 1-.37 1.183.887.887 0 0 1-.674.057l-3.113-.95c-.884-.287-1.852-.672-2.646-1.115a5.956 5.956 0 0 1-1.083-.755c-.3-.27-.602-.632-.727-1.086-.14-.512-.019-1.022.321-1.444.306-.381.77-.667 1.305-.898 1.079-.464 2.798-.844 5.328-1.13 1.602-.182 2.76-.364 3.566-.537-.215-.048-.431-.092-.648-.133a35.158 35.158 0 0 0-3.358-.438c-1.585-.135-3.106-.314-4.338-.528a16.608 16.608 0 0 1-1.636-.356c-.44-.123-.879-.28-1.197-.495a1.381 1.381 0 0 1-.504-.569 1.075 1.075 0 0 1 .07-1.013c.152-.248.375-.41.553-.514.208-.117.428-.215.655-.291.946-.333 2.605-.653 5.123-.964 3.16-.392 5.132-.773 6.208-1.117-.748-.244-1.903-.496-3.388-.737-1.934-.317-4.313-.598-6.819-.834l-3.561-.316a.882.882 0 0 1-.597-.309.865.865 0 0 1-.2-.636Z"/></svg>