<?xml version="1.0" encoding="UTF-8"?>
<svg id="Layer_2" xmlns="http://www.w3.org/2000/svg" viewBox="0 0 470 526.48">
  <g id="_6_export">
    <rect id="box_geometric" fill="none" width="470" height="526.48" />
    <path id="logo-black"
      d="m404.14,313.34c-5.95-10.33-15.86-27.48-25.65-44.42-2.97-5.14-5.92-10.25-8.75-15.15-5.82-10.08-11.12-19.27-14.9-25.83-26.23-45.33-77.87-135.08-103.67-179.46-7.95-12.37-26.37-11.39-33.21,1.42-7.76,13.45-16.3,28.24-25.32,43.87-2.86,4.96-5.78,10.01-8.73,15.12-37.58,65.08-81.56,141.26-112.89,195.52-1.6,2.9-4.58,7.63-6.07,10.76-2.61,5.65-2.1,12.69,1.19,17.91,3.71,6.18,10.65,9.57,17.74,9.22,8.53,0,26.62-.01,50.01,0,5.55,0,11.4,0,17.49,0,81.33,0,205.57.05,236.06,0,14.81.03,24.1-16.21,16.72-28.97Zm-175.07-57.64l-14.97-25.93c-2.63-4.56.66-10.26,5.92-10.26h29.94c5.27,0,8.56,5.7,5.92,10.26l-14.97,25.93c-2.63,4.56-9.21,4.56-11.85,0Zm-25.08-48.29c-1.24-3.16-2.31-6.37-3.19-9.63l49.53,9.63h-46.34Zm22.62,68.22c-2.11,2.66-4.36,5.19-6.74,7.59l-16.43-47.71,23.16,40.12Zm47.78-53.7c3.35.5,6.67,1.19,9.93,2.05l-33.1,38.08,23.17-40.13Zm-76.64-40.4c-.53-4.82-.76-9.69-.74-14.57l65.41,31.91-64.68-17.33Zm-7.76,47.77l17.32,64.65c-3.91,2.87-8.01,5.51-12.25,7.93l-5.08-72.58Zm109.93.17c4.44,1.95,8.77,4.19,12.99,6.65l-60.34,40.7,47.35-47.35Zm-101.41-83.09c1.2-8.86,3.05-17.59,5.29-25.96l99.37,86.38-104.65-60.42Zm-22.02,164.51c-8.27,3.39-16.75,6.15-25.12,8.39l25.12-129.23v120.84Zm153.49-63.19c7.07,5.47,13.71,11.44,19.84,17.56l-124.49,42.86,104.65-60.42Zm-90.64-175.85c18.32,31.79,44.92,77.89,70.26,121.77l-94.61-94.61c5.56-9.62,10.83-18.75,15.69-27.18,1.93-3.33,6.73-3.33,8.66,0Zm-147.77,240.92c5.21-8.99,12.37-21.32,13.96-24.16,15.08-26.12,35.39-61.29,56.37-97.63l-34.65,129.3c-12.41,0-23.11,0-31.35,0-3.85,0-6.26-4.17-4.33-7.5Zm282.54,7.53c-28.89,0-84.98,0-140.67,0l129.31-34.65c6.78,11.74,12.21,21.14,15.69,27.16,1.93,3.33-.48,7.49-4.32,7.49Z" />
    <path
      d="m115.94,486.75c-2.9,0-5.39-1.98-6.05-4.81l-4.72-20.29c-.23-1.01-1.12-1.71-2.16-1.71h-20.5c-1.04,0-1.92.7-2.16,1.71l-4.72,20.29c-.66,2.83-3.15,4.81-6.05,4.81h-2.26c-1.92,0-3.71-.87-4.89-2.39-1.19-1.52-1.6-3.46-1.14-5.32l22.17-89.41c.69-2.78,3.17-4.72,6.03-4.72h6.54c2.86,0,5.34,1.94,6.03,4.72l22.17,89.41c.46,1.87.05,3.81-1.14,5.33-1.19,1.52-2.97,2.38-4.89,2.38h-2.26Zm-23.18-82.26s-.08.01-.08.02l-8.17,39.3c-.16.71,0,1.39.41,1.93.42.53,1.05.84,1.73.84h12.21c.68,0,1.31-.31,1.73-.84.42-.53.58-1.22.42-1.88l-8.17-39.32-.09-.04Z" />
    <path
      d="m269.14,486.8c-3.43,0-6.21-2.79-6.21-6.21v-33.53c0-3.31-2.7-6.01-6.01-6.01h-47.88c-1.22,0-2.21.99-2.21,2.21v37.27c0,3.43-2.79,6.21-6.21,6.21h-2.56c-3.43,0-6.21-2.79-6.21-6.21v-39.49h-43.04c-1.22,0-2.21.99-2.21,2.21v37.27c0,3.43-2.79,6.21-6.21,6.21h-2.56c-3.43,0-6.21-2.79-6.21-6.21v-77.61c0-9.93,8.08-18.02,18.02-18.02h28.02c3.43,0,6.21,2.79,6.21,6.21v.95c0,3.43-2.79,6.21-6.21,6.21h-25.04c-3.31,0-6.01,2.7-6.01,6.01v21.15c0,1.22.99,2.21,2.21,2.21h43.04v-24.74c0-9.93,8.08-18.02,18.02-18.02h28.02c3.43,0,6.21,2.79,6.21,6.21v.95c0,3.43-2.79,6.21-6.21,6.21h-25.04c-3.31,0-6.01,2.7-6.01,6.01v21.15c0,1.22.99,2.21,2.21,2.21h50.59c9.93,0,18.02,8.08,18.02,18.02v34.9c0,3.43-2.79,6.21-6.21,6.21h-2.29Z" />
    <path
      d="m332.61,485.75c-2.32,0-4.39-1.56-5.02-3.8l-19.11-67.64-1.96.27-.21,65.97c0,2.87-2.35,5.2-5.21,5.2h-2.31c-2.88,0-5.21-2.34-5.21-5.21v-89.41c0-2.88,2.34-5.21,5.21-5.21h10.02c2.32,0,4.39,1.56,5.02,3.8l19.11,67.64,1.96-.27.21-65.97c0-2.87,2.35-5.2,5.21-5.2h2.31c2.88,0,5.21,2.34,5.21,5.21v89.41c0,2.88-2.34,5.21-5.21,5.21h-10.02Z" />
    <path
      d="m376.06,486.75c-9.93,0-18.02-8.08-18.02-18.02v-65.81c0-9.93,8.08-18.02,18.02-18.02h26.68c3.43,0,6.21,2.79,6.21,6.21v.95c0,3.43-2.79,6.21-6.21,6.21h-23.83c-3.31,0-6.01,2.7-6.01,6.01v19.81c0,1.22.99,2.21,2.21,2.21h26.28c3.43,0,6.21,2.79,6.21,6.21v.95c0,3.43-2.79,6.21-6.21,6.21h-26.28c-1.22,0-2.21.99-2.21,2.21v25.44c0,3.31,2.7,6.01,6.01,6.01h23.83c3.43,0,6.21,2.79,6.21,6.21v.95c0,3.43-2.79,6.21-6.21,6.21h-26.68Z" />
    <path
      d="m263.69,418.27c-1.67,0-3.28-.8-4.3-2.14-1.03-1.35-1.37-3.06-.93-4.71l3.1-11.56c.64-2.37,2.8-4.03,5.27-4.03,1.44,0,2.8.57,3.83,1.59l8.46,8.46c1.39,1.39,1.92,3.35,1.41,5.25-.51,1.9-1.95,3.34-3.84,3.84l-11.56,3.1c-.47.13-.95.19-1.42.19h0Z" />
  </g>
</svg>
