<svg xmlns="http://www.w3.org/2000/svg" viewBox="0 0 24 24"><path fill-rule="evenodd" d="M13.233 9.68h1.5V4.583h-1.5V9.68Z" clip-rule="evenodd"/><path fill-rule="evenodd" d="M13.45 10.43h5.5v-1.5h-5.5v1.5Z" clip-rule="evenodd"/><path fill-rule="evenodd" d="M3.996 21.482H18.58v-11.48l-4.896-4.668H3.996v16.148Zm16.084 1.5H2.496V3.834h11.787l5.797 5.525v13.623Z" clip-rule="evenodd"/><path fill-rule="evenodd" d="M17.12 8.324h3.993v-1.5H17.12v1.5ZM15.395 6.696h1.5V2.477h-1.5v4.219Z" clip-rule="evenodd"/><path fill-rule="evenodd" d="M22.242 20.877H18.95v-1.5h1.79V7.896l-4.895-4.668H6.159v1.797h-1.5V1.728h11.786l5.797 5.525v13.624Z" clip-rule="evenodd"/><path fill-rule="evenodd" d="M6.075 9.527h4.879v-1.5h-4.88v1.5ZM6.075 14.405H16.3v-1.5H6.075v1.5ZM6.075 19.195H16.3v-1.5H6.075v1.5Z" clip-rule="evenodd"/></svg>