<svg xmlns="http://www.w3.org/2000/svg" viewBox="0 0 24 24"><path fill-rule="evenodd" d="M18 8.6h-8A1.4 1.4 0 0 0 8.6 10v8a1.4 1.4 0 0 0 1.4 1.4h8a1.4 1.4 0 0 0 1.4-1.4v-8A1.4 1.4 0 0 0 18 8.6ZM10 7a3 3 0 0 0-3 3v8a3 3 0 0 0 3 3h8a3 3 0 0 0 3-3v-8a3 3 0 0 0-3-3h-8Z" clip-rule="evenodd"/><path fill-rule="evenodd" d="M13.2 17v-6h1.6v6h-1.6Z" clip-rule="evenodd"/><path fill-rule="evenodd" d="M11 13.2h6v1.6h-6v-1.6ZM6 4.6h8A1.4 1.4 0 0 1 15.4 6v1H17V6a3 3 0 0 0-3-3H6a3 3 0 0 0-3 3v8a3 3 0 0 0 3 3h1v-1.6H6A1.4 1.4 0 0 1 4.6 14V6A1.4 1.4 0 0 1 6 4.6Z" clip-rule="evenodd"/></svg>