<svg width="82" height="80" viewBox="0 0 82 80" fill="none" xmlns="http://www.w3.org/2000/svg">
  <path
    d="M0.370017 65.6C-0.219983 64.84 -0.0799758 63.7 0.690024 63.12C1.14002 62.78 1.60002 62.47 2.03002 62.1C2.60002 61.62 3.18002 61.14 3.75002 60.66C6.49002 58.16 9.20002 55.64 11.86 53.06C14.64 50.36 17.4 47.65 20.2 44.99C23.25 42.1 26.29 39.21 29.36 36.34C31.93 33.94 34.48 31.52 37.09 29.17C38.6 27.81 40.1 26.45 41.61 25.08C42.97 23.86 44.37 22.69 45.75 21.49C46.96 20.44 48.22 19.42 49.46 18.4C50.07 17.9 50.71 17.44 51.33 16.95C52.54 16.02 53.77 15.09 55.23 14.57C56.14 14.25 57.16 14.59 57.55 15.52C57.91 16.37 57.51 17.52 56.61 17.84C56.35 17.93 56.1 18.02 55.86 18.13C55.55 18.3 55.25 18.49 54.96 18.68C52.84 20.16 50.87 21.84 48.88 23.49C47.27 24.82 45.71 26.2 44.15 27.58C41.15 30.29 38.17 33.01 35.21 35.75C32.65 38.13 30.09 40.51 27.55 42.92C24.4 45.91 21.26 48.91 18.14 51.93C15.39 54.59 12.64 57.25 9.86002 59.88C8.70002 60.98 7.51002 62.04 6.33002 63.12C5.75002 63.65 5.13002 64.14 4.53002 64.65C3.99002 65.1 3.43002 65.51 2.87002 65.93C2.55002 66.17 2.17002 66.29 1.79002 66.29C1.24002 66.28 0.710017 66.05 0.370017 65.6Z"
    fill="rgba(191, 192, 191, 1)" />
  <path
    d="M5.82002 73.45C5.21002 73.45 4.60001 73.13 4.28001 72.57C3.79001 71.73 4.09 70.66 4.9 70.16C4.96 70.11 5.03001 70.0701 5.09001 70.0201C5.06001 70.05 5.03001 70.07 5.00001 70.1C5.94001 69.26 6.77001 68.29 7.62001 67.36C8.31001 66.61 9.00001 65.86 9.69001 65.11C10.87 63.82 12.07 62.5501 13.26 61.2801C16.11 58.2601 18.99 55.28 21.9 52.32C23.28 50.91 24.72 49.55 26.13 48.17C27.43 46.9 28.75 45.66 30.07 44.41C32.68 41.94 35.32 39.49 37.98 37.07C41.18 34.16 44.39 31.26 47.62 28.37C50.43 25.86 53.3 23.42 56.18 20.99C56.94 20.35 57.75 19.76 58.52 19.14C59.45 18.41 60.43 17.74 61.4 17.07C62.19 16.52 63.27 16.6 63.88 17.39C64.45 18.12 64.35 19.32 63.56 19.87C62.41 20.67 61.26 21.49 60.15 22.36C58.99 23.28 57.84 24.2 56.71 25.16C54.49 27.02 52.33 28.9401 50.15 30.8401C50.2 30.7901 50.26 30.74 50.32 30.69C44.62 35.77 38.94 40.88 33.4 46.13C31.99 47.46 30.56 48.77 29.18 50.13C27.66 51.62 26.14 53.1101 24.62 54.5901C23.24 55.9501 21.92 57.37 20.55 58.75C19.2 60.12 17.89 61.53 16.57 62.93C15.14 64.45 13.71 65.97 12.3 67.5C11.54 68.32 10.79 69.15 10.03 69.97C9.55001 70.49 9.08002 71 8.60002 71.5201C8.03002 72.14 7.43002 72.76 6.71002 73.2C6.42002 73.38 6.12002 73.45 5.82002 73.45Z"
    fill="rgba(191, 192, 191, 1)" />
  <path
    d="M9.48001 78.11C9.48001 77.44 9.86002 76.98 10.3 76.52C10.6 76.21 10.9 75.89 11.19 75.57C13.73 72.67 16.23 69.73 18.75 66.82C19.93 65.46 21.13 64.11 22.32 62.77C23.59 61.35 24.84 59.91 26.14 58.52C28.86 55.59 31.6 52.66 34.36 49.76C37.12 46.87 39.95 44.03 42.76 41.18C45.35 38.56 47.95 35.94 50.59 33.37C53.52 30.51 56.47 27.69 59.57 25.01C60.77 23.98 62 22.99 63.2 21.97C63.93 21.35 65.11 21.56 65.68 22.29C66.29 23.08 66.09 24.15 65.36 24.77C63.84 26.07 62.29 27.33 60.77 28.64C58.02 31.13 55.3 33.66 52.66 36.28C49.9 39.03 47.14 41.77 44.4 44.54C41.68 47.29 38.95 50.04 36.29 52.85C33.6 55.68 30.89 58.49 28.29 61.4C26.04 63.92 23.79 66.44 21.56 68.97C21.51 69.02 21.47 69.08 21.42 69.13C21.46 69.09 21.49 69.05 21.53 69.01C19.96 70.83 18.4 72.64 16.82 74.45C16.15 75.22 15.5 76 14.84 76.77C14.45 77.21 14.07 77.67 13.67 78.09C13.28 78.51 12.87 78.91 12.49 79.34L12.5 79.33C12.18 79.66 11.73 79.87 11.23 79.87C10.28 79.88 9.48001 79.07 9.48001 78.11Z"
    fill="rgba(191, 192, 191, 1)" />
  <path
    d="M72.49 25.55C72.27 25.24 72.17 24.93 72.1 24.59C72.09 24.55 72.08 24.5 72.06 24.46V24.45C72.06 24.44 72.05 24.43 72.05 24.43C71.95 24.29 71.85 24.16 71.78 24C71.75 23.93 71.73 23.86 71.71 23.78C70.1 21.43 68.46 19.11 66.81 16.8C65.16 14.5 63.32 12.35 61.51 10.18C60.51 9.07 59.46 8 58.35 7C57.87 6.58 57.39 6.16 56.9 5.75C56.58 5.48 56.24 5.21999 55.95 4.91999C55.28 4.22999 55.26 3.10999 55.95 2.41999C56.53 1.82999 57.48 1.74 58.16 2.18C58.41 1.97 58.72 1.82001 59.07 1.76001C59.13 1.75001 59.19 1.73998 59.25 1.72998C59.26 1.72998 59.27 1.72997 59.29 1.71997C60.32 1.28997 61.38 0.910028 62.47 0.650028C64.02 0.290028 65.62 0.239989 67.2 0.359989C68.65 0.469989 70.09 0.589974 71.53 0.719974C71.53 0.719974 71.54 0.719974 71.55 0.719974C71.53 0.719974 71.5 0.719974 71.48 0.719974C71.5 0.719974 71.52 0.719974 71.55 0.719974C71.56 0.719974 71.57 0.719974 71.58 0.719974C72.28 0.769974 72.98 0.809988 73.68 0.859989C74.53 0.909989 75.38 0.900018 76.23 0.890018C76.9 0.890018 77.61 0.829986 78.27 0.919986C79.25 1.04999 80.36 1.45003 80.75 2.46003C80.95 2.96003 81.03 3.42003 81.02 3.96003C81.01 4.28003 80.96 4.62001 80.89 4.94001C80.79 5.37001 80.67 5.79998 80.56 6.22998C80.34 7.07998 80.14 7.93003 79.95 8.78003C79.06 12.73 78.18 16.67 77.17 20.6C77.03 21.16 76.86 21.71 76.7 22.26C76.61 22.58 76.52 22.9 76.42 23.22C76.2 23.99 75.96 24.87 75.46 25.51C75.1 25.97 74.54 26.28 73.96 26.28C73.39 26.27 72.82 26 72.49 25.55ZM64.9 3.84998C64.38 3.89998 63.86 3.97 63.35 4.06C62.88 4.17 62.42 4.31003 61.97 4.46003C61.7 4.56003 61.43 4.67002 61.16 4.77002C61.66 5.23002 62.15 5.7 62.62 6.18C63.67 7.25 64.62 8.38002 65.58 9.52002C66.84 11.02 68.04 12.56 69.24 14.11C69.89 14.95 70.47 15.83 71.09 16.7C71.58 17.38 72.04 18.08 72.52 18.77C72.87 19.26 73.21 19.76 73.56 20.25C73.79 19.38 74.02 18.51 74.24 17.64C74.61 16.19 74.97 14.73 75.29 13.26C75.65 11.61 76.02 9.96001 76.39 8.32001C76.69 7.02001 77.03 5.71998 77.34 4.40998C76.85 4.39998 76.36 4.40998 75.88 4.40998C75.02 4.41998 74.16 4.42 73.31 4.37C72.56 4.32 71.81 4.26997 71.05 4.21997C71.07 4.21997 71.09 4.21997 71.1 4.21997C69.64 4.11997 68.17 3.96999 66.71 3.85999C66.3 3.83999 65.89 3.83002 65.48 3.83002C65.28 3.84002 65.09 3.83998 64.9 3.84998Z"
    fill="rgba(191, 192, 191, 1)" />
</svg>