<svg width="78" height="175" viewBox="0 0 78 175" fill="none" xmlns="http://www.w3.org/2000/svg">
  <path fill-rule="evenodd" clip-rule="evenodd"
    d="M6.046 1.35422C3.40085 2.06585 1.70903 3.27427 0.889976 5.0735C-0.02307 7.0607 0.111188 9.18219 1.21221 11.3977C2.71605 14.4322 3.72311 17.8829 6.14 28.5709C9.63105 43.8911 11.9808 52.4039 13.5115 55.0759C16.1164 59.574 22.7091 59.3457 25.1126 54.7134C26.1196 52.7261 25.9987 50.3495 24.4278 44.0925C23.6758 41.1654 23.1253 38.6815 23.2193 38.6143C23.2865 38.5472 24.4277 40.2121 25.757 42.3336C35.5723 57.7479 49.6842 88.7778 56.2367 109.375C58.291 115.793 60.8287 125.837 62.0103 132.067C63.8364 141.586 63.9707 143.439 64.0378 157.095L64.0647 169.904L65.0046 171.274C67.5826 174.993 73.0609 174.993 75.6658 171.301C76.9011 169.542 77.1696 166.896 77.1965 156.799C77.1965 144.836 76.6057 138.324 74.5513 128.146C70.4829 107.777 62.7891 86.3609 49.8185 59.3725C43.1721 45.5158 37.1701 35.1233 30.6177 26.1943L28.0128 22.5824L29.7046 23.3612C33.3165 25.053 37.0358 23.9117 38.7679 20.5281C40.0435 18.0575 39.2245 14.3382 37.0762 12.6732C36.0288 11.8945 22.6419 5.34204 17.2845 3.01916C14.6796 1.87786 10.4098 0.669426 9.10738 0.736562C8.65086 0.736562 7.28129 1.03197 6.046 1.35422ZM12.6656 6.14767C14.6528 6.80559 21.984 10.1892 28.9661 13.6802C34.1759 16.2851 34.6727 16.5805 34.7667 17.4264C34.901 18.4737 34.0819 19.615 33.1688 19.615C32.8735 19.615 30.0135 18.3394 26.7775 16.8088C18.5601 12.8343 12.6925 10.1624 12.2359 10.1624C12.0345 10.1624 12.397 10.7129 13.0147 11.3708C17.1905 15.8017 27.0998 28.8126 31.947 36.2377C42.3799 52.2696 57.1363 84.508 64.2124 106.636C67.6632 117.525 70.5098 129.811 71.8659 139.881C72.6178 145.453 72.7521 167.232 72.027 168.467C71.5034 169.407 70.2009 169.743 69.3281 169.179C68.6702 168.723 68.6434 168.427 68.5762 156.007C68.4822 142.513 68.3211 140.66 66.5487 131.274C62.9368 111.846 55.0148 89.7177 42.0711 62.7964C33.9879 45.9723 27.5697 35.6469 16.3849 21.4008C11.9808 15.8286 11.86 15.6943 12.8267 18.7557C15.4719 27.067 21.1113 49.3291 21.1113 51.4103C21.1113 52.5516 20.9501 52.941 20.2922 53.3706C19.0838 54.1494 17.9828 53.7332 17.1906 52.2294C15.9821 49.8125 13.3101 39.675 9.88618 24.4219C8.08694 16.4731 6.62336 11.6393 5.41492 9.55815C4.663 8.28258 4.63615 7.11442 5.2538 6.59076C6.00572 5.93284 8.77172 5.31519 10.007 5.51659C10.6247 5.58373 11.8063 5.87913 12.6119 6.13425L12.6656 6.14767Z"
    fill="rgba(191, 192, 191, 1)" />
</svg>