<svg width="100" height="91" viewBox="0 0 100 91" fill="none" xmlns="http://www.w3.org/2000/svg">
  <path
    d="M13.06 90.09C12.61 89.98 12.18 89.81 11.75 89.63C11.07 89.35 10.43 88.9801 9.84 88.5501C9.21 88.0901 8.72997 87.4601 8.30997 86.8101C7.86997 86.1501 7.42996 85.4801 6.98996 84.8101C6.59996 84.2601 6.19998 83.72 5.75998 83.21C5.46998 82.91 5.18998 82.61 4.87998 82.32C4.91998 82.52 4.95997 82.7301 4.99997 82.9301C5.15997 83.5701 5.30998 84.22 5.50998 84.85C5.57998 85.04 5.65996 85.2301 5.73996 85.4201C6.30996 85.7201 6.71994 86.32 6.71994 87C6.71994 87.96 5.91998 88.77 4.94999 88.77C3.45999 88.77 2.67994 87.3901 2.21994 86.16C1.83994 85.1301 1.61 84.04 1.4 82.96C1.23 82.11 1.08995 81.26 0.979953 80.41C0.929953 79.98 0.86998 79.54 0.81998 79.11C0.73998 78.44 0.619965 77.79 0.929965 77.15C1.38997 76.2 2.49999 75.7701 3.45999 76.3101C4.21999 76.7401 4.78995 77.4 5.40995 78.01C5.81995 78.42 6.24997 78.8 6.67997 79.19C6.62997 79.14 6.56998 79.0901 6.50998 79.0401C7.82998 80.2001 9.01996 81.47 9.98996 82.94C10.43 83.61 10.87 84.28 11.31 84.94C11.45 85.13 11.59 85.32 11.73 85.51C11.78 85.56 11.82 85.61 11.87 85.65C11.95 85.72 12.03 85.78 12.12 85.85C12.32 85.97 12.53 86.09 12.73 86.2C13.04 86.35 13.35 86.49 13.67 86.61C13.6 86.59 13.53 86.5601 13.45 86.5401C13.59 86.5901 13.74 86.6401 13.88 86.6701C13.9 86.6001 13.92 86.53 13.94 86.46C13.95 86.42 13.95 86.37 13.96 86.33C13.96 86.26 13.96 86.19 13.96 86.12C13.94 85.93 13.91 85.7401 13.88 85.5401C13.85 85.4101 13.81 85.27 13.77 85.15C13.6 84.68 13.41 84.23 13.19 83.77C12.2 81.86 11.03 80.0301 9.94998 78.1701C8.34998 75.4201 7.65999 72.2701 7.01999 69.1801C6.91999 68.7101 6.83998 68.23 6.75998 67.76C6.59998 66.85 6.50998 65.83 7.00998 65C7.47998 64.2 8.21999 63.49 9.13999 63.24C10.15 62.96 11.24 63.2201 12.08 63.8001C12.96 64.4101 13.64 65.2 14.26 66.07C14.81 66.84 15.3 67.66 15.74 68.5C16.2 69.4 16.6699 70.29 17.0999 71.2C18.1699 73.47 19.13 75.8001 20.23 78.0601C20.59 78.7801 20.99 79.47 21.43 80.14C21.7 80.52 21.99 80.89 22.3 81.26C22.71 81.72 23.1399 82.1501 23.5999 82.5601C23.9399 82.8501 24.2999 83.11 24.6599 83.37C25.0299 83.61 25.4 83.83 25.79 84.03C26.13 84.19 26.47 84.34 26.83 84.47C27.35 84.64 27.87 84.78 28.4 84.9C28.89 84.99 29.38 85.06 29.88 85.11C29.95 85.11 30.0299 85.11 30.0999 85.11C30.1499 85.1 30.21 85.09 30.26 85.09C30.27 85.09 30.27 85.08 30.28 85.07C30.29 85.06 30.3 85.0601 30.3 85.0501C30.32 85.0201 30.3399 85 30.3499 84.97C30.3299 85.01 30.32 85.04 30.3 85.07C30.34 84.99 30.3699 84.91 30.4099 84.83C30.4399 84.73 30.46 84.6401 30.49 84.5401C30.48 84.5901 30.47 84.6301 30.46 84.6801C30.44 84.7301 30.4199 84.78 30.4099 84.83C30.4299 84.79 30.45 84.74 30.46 84.69C30.46 84.71 30.45 84.72 30.45 84.73C30.45 84.71 30.4599 84.68 30.4699 84.66C30.4799 84.6401 30.49 84.62 30.49 84.6C30.49 84.62 30.4799 84.63 30.4699 84.65C30.4999 84.51 30.52 84.38 30.53 84.24C30.54 84.01 30.54 83.7801 30.53 83.5501C30.51 83.3101 30.48 83.08 30.43 82.84C30.34 82.44 30.23 82.04 30.11 81.65C29.93 81.15 29.72 80.6601 29.49 80.1801C28.45 78.1601 27.1199 76.29 25.8499 74.4C24.7699 72.79 23.71 71.18 22.76 69.5C22.51 69.06 22.23 68.62 22.01 68.16C21.79 67.7001 21.56 67.24 21.33 66.78C21.15 66.42 20.95 66.07 20.8 65.7C20.59 65.18 20.37 64.66 20.15 64.14C19.42 62.37 18.75 60.57 18.23 58.73C17.77 57.12 17.32 55.5 16.99 53.85C17.01 53.93 17.02 54.01 17.04 54.08C17.01 53.96 16.99 53.83 16.96 53.71C16.92 53.52 16.88 53.33 16.84 53.13C16.82 53.06 16.8 52.9901 16.79 52.91C16.78 52.84 16.76 52.78 16.75 52.71C16.72 52.57 16.6899 52.4401 16.6599 52.3001C16.5699 52.0001 16.53 51.68 16.48 51.37C16.46 51.31 16.45 51.25 16.44 51.2C16.25 50.23 16.09 49.2601 15.92 48.2901C15.49 45.8401 15.23 43.29 15.59 40.83C15.76 39.67 16.11 38.5 16.65 37.45C17.13 36.51 17.9 35.4401 18.92 35.0401C19.9 34.6601 20.89 34.59 21.9 34.9C22.4 35.05 22.87 35.3201 23.34 35.5601C23.95 35.8801 24.5 36.3 25.05 36.71C25.97 37.41 26.88 38.14 27.75 38.9C29.74 40.62 31.51 42.5501 33.06 44.6801C35.03 47.3801 36.58 50.33 38.17 53.26C39.49 55.71 40.75 58.21 42.17 60.61C44.01 63.72 45.85 66.84 47.86 69.84C47.86 69.84 47.8599 69.84 47.8499 69.84C48.7399 71.15 49.71 72.41 50.74 73.62C51.48 74.44 52.27 75.23 53.09 75.97C54.03 76.78 55 77.54 56.03 78.24C55.97 78.2 55.91 78.15 55.84 78.11C56.8 78.75 57.8 79.32 58.82 79.84C60.1 80.47 61.42 81.01 62.77 81.48C63.95 81.87 65.1399 82.23 66.3499 82.49C66.9499 82.6 67.5499 82.7 68.1599 82.76C68.3899 82.77 68.62 82.76 68.84 82.76C69.07 82.74 69.2999 82.7101 69.5399 82.6701C69.7199 82.6301 69.9 82.58 70.07 82.53C70.15 82.5 70.23 82.4601 70.32 82.4301C70.44 82.3601 70.57 82.29 70.7 82.21C70.88 82.08 71.06 81.9401 71.2299 81.8001C71.3199 81.7101 71.41 81.6301 71.49 81.5401C71.61 81.3901 71.73 81.24 71.84 81.09C72 80.84 72.14 80.59 72.28 80.33C72.44 80 72.5899 79.6601 72.7199 79.3101C72.8799 78.8101 73.01 78.3 73.13 77.78C73.25 77.11 73.34 76.44 73.39 75.77C73.43 74.98 73.43 74.19 73.38 73.39C73.3 72.41 73.1699 71.44 72.9699 70.47C72.9899 70.55 73 70.62 73.02 70.7C72.71 69.22 72.3 67.76 71.81 66.32C71.16 64.45 70.38 62.6301 69.62 60.7901C69.39 60.2201 69.0999 59.67 68.8499 59.12C68.5199 58.39 68.1799 57.67 67.8499 56.94C67.0399 55.37 66.25 53.78 65.39 52.23C64.37 50.39 63.35 48.57 62.31 46.74C61.39 45.11 60.49 43.47 59.58 41.83C59.18 41.1 58.79 40.35 58.4 39.61C57.95 38.76 57.48 37.9201 57.05 37.0601C57 36.9501 56.95 36.85 56.9 36.76C56.25 35.47 55.6 34.17 54.95 32.88C54.96 32.9 54.9699 32.9201 54.9699 32.9301C54.9299 32.8601 54.9 32.78 54.86 32.7C54.86 32.72 54.87 32.73 54.88 32.75C54.86 32.71 54.85 32.68 54.83 32.65C54.82 32.63 54.81 32.6 54.79 32.58C54.7999 32.6 54.81 32.61 54.82 32.63C54.41 31.8 54.0499 30.95 53.6599 30.11C53.3399 29.39 52.98 28.68 52.7 27.94C52.24 26.76 51.79 25.5901 51.32 24.4201C50.57 22.5101 50 20.52 49.5 18.53C48.85 15.99 48.37 13.38 48.34 10.75C48.32 8.36001 48.79 5.85 50.18 3.86C51.49 2 53.49 0.720023 55.77 0.510023C58.26 0.280023 60.54 1.44001 62.53 2.81001C64.1 3.88001 65.54 5.15 66.88 6.49C68.12 7.73 69.28 9.11002 70.27 10.57C70.27 10.56 70.26 10.56 70.26 10.55C70.91 11.51 71.56 12.46 72.21 13.42C72.86 14.38 73.47 15.37 74.11 16.34C74.07 16.28 74.02 16.22 73.9799 16.15C74.8999 17.51 75.8399 18.8201 76.9099 20.0601C77.4899 20.7001 78.09 21.3 78.7299 21.87C79.1499 22.23 79.59 22.57 80.0399 22.88C80.4199 23.13 80.8099 23.36 81.2199 23.58C81.4199 23.67 81.61 23.75 81.8 23.82C82.05 23.9 82.2899 23.97 82.5399 24.03C82.6699 24.05 82.81 24.07 82.94 24.08C83.04 24.08 83.14 24.08 83.2299 24.08C83.4299 24.06 83.62 24.03 83.82 23.99C84.06 23.93 84.2999 23.86 84.5399 23.78C84.66 23.74 84.77 23.69 84.88 23.64C85.29 23.43 85.68 23.19 86.07 22.94C86.44 22.67 86.79 22.4 87.14 22.1C87.21 22.03 87.28 21.96 87.36 21.89C87.21 21.56 87.06 21.23 86.9 20.9C86.51 20.15 86.08 19.42 85.61 18.72C85.03 17.89 84.4 17.11 83.74 16.34C83.13 15.68 82.5099 15.04 81.92 14.36C81.43 13.79 81.32 12.92 81.61 12.24C81.94 11.47 82.6799 11.16 83.4699 11.13C83.3899 11.13 83.31 11.14 83.2299 11.15C85.21 10.89 87.19 10.65 89.18 10.47C90.22 10.38 91.2499 10.31 92.2899 10.25C92.7399 10.23 93.19 10.21 93.64 10.21C94.52 10.22 95.46 10.15 96.2 10.71C96.34 10.82 96.46 10.94 96.56 11.08C97.06 10.73 97.61 10.49 98.24 10.58C99.1 10.7 99.83 11.48 99.95 12.33C100.02 12.8 99.92 13.24 99.8 13.69C99.69 14.1 99.5799 14.5 99.4699 14.91C98.9199 16.86 98.42 18.81 97.96 20.78C97.77 21.61 97.57 22.44 97.37 23.27C97.15 24.19 96.95 25.1301 96.69 26.0401C96.32 27.3401 95.98 28.66 95.52 29.94C95.32 30.48 95.11 31.0201 94.87 31.5401C94.69 31.9501 94.42 32.39 94.09 32.7C93.77 33 93.45 33.23 93.02 33.35C92.49 33.49 91.97 33.37 91.51 33.1C90.6 32.56 90.39 31.4801 90.12 30.5401C89.94 29.9201 89.7699 29.3101 89.5999 28.6801C89.2999 27.6001 89 26.5101 88.67 25.4301C88.49 25.5601 88.31 25.7 88.13 25.82C86.77 26.77 85.2699 27.45 83.5999 27.6C81.9999 27.74 80.4199 27.1901 79.0399 26.4301C77.52 25.6001 76.19 24.4101 74.99 23.1801C73.7 21.8701 72.61 20.39 71.58 18.88C70.75 17.67 69.99 16.42 69.17 15.2C69.21 15.26 69.26 15.32 69.3 15.39C68.64 14.43 67.99 13.47 67.34 12.51C66.73 11.68 66.09 10.86 65.42 10.08C64.62 9.19003 63.78 8.36001 62.89 7.56001C62.06 6.85001 61.2 6.18001 60.31 5.56001C59.81 5.23001 59.3 4.93999 58.77 4.65999C58.48 4.51999 58.18 4.39004 57.88 4.28004C57.68 4.22004 57.48 4.16001 57.27 4.12001C57.05 4.08001 56.84 4.05999 56.61 4.03999C56.45 4.03999 56.29 4.02999 56.13 4.03999C56.01 4.04999 55.9 4.07003 55.78 4.08003C55.58 4.13003 55.4 4.18 55.2 4.24C55.02 4.31 54.84 4.38998 54.67 4.46998C54.57 4.51998 54.47 4.58004 54.37 4.65004C54.2 4.77004 54.03 4.90004 53.87 5.03004C53.73 5.16004 53.59 5.30002 53.46 5.44002C53.32 5.61002 53.19 5.78004 53.06 5.96004C52.94 6.16004 52.8299 6.35 52.7199 6.55C52.5999 6.81 52.49 7.07999 52.38 7.34999C52.29 7.63999 52.21 7.92999 52.13 8.22999C52.04 8.70999 51.97 9.19 51.93 9.67C51.89 10.38 51.89 11.09 51.93 11.8C51.93 11.8 51.93 11.8 51.93 11.79V11.8C51.93 11.81 51.93 11.83 51.93 11.84C51.93 11.9 51.94 11.96 51.94 12.02C51.94 11.97 51.94 11.9 51.93 11.85C52.04 13.09 52.22 14.33 52.45 15.55C52.95 17.94 53.6199 20.28 54.4099 22.58C54.3899 22.51 54.36 22.44 54.34 22.36C54.88 23.9 55.51 25.4 56.11 26.91C56.39 27.63 56.75 28.3401 57.08 29.0401C57.4 29.7501 57.7 30.4801 58.05 31.1801C58.04 31.1601 58.03 31.13 58.01 31.11C58.01 31.12 58.02 31.13 58.03 31.15C58.07 31.22 58.1 31.29 58.14 31.36C58.8 32.68 59.47 33.99 60.13 35.32C60.13 35.32 60.13 35.32 60.13 35.33C60.15 35.37 60.17 35.4 60.19 35.44C61.97 38.76 63.7399 42.08 65.5999 45.36C66.6599 47.23 67.71 49.11 68.75 50.99C69.14 51.69 69.5 52.4 69.86 53.11C70.29 53.95 70.75 54.79 71.15 55.65C71.66 56.76 72.17 57.86 72.69 58.97C73.04 59.73 73.3399 60.51 73.6599 61.28C74.1999 62.58 74.72 63.88 75.18 65.22C76.06 67.8 76.7299 70.47 76.9099 73.19C77.0899 75.81 76.82 78.48 75.88 80.95C75.06 83.1 73.51 84.97 71.34 85.83C70.32 86.24 69.14 86.3401 68.05 86.3001C66.66 86.2501 65.25 85.9101 63.9 85.5401C61.36 84.8401 58.89 83.8801 56.55 82.6701C54.21 81.4601 52.0899 79.89 50.1599 78.12C48.1899 76.32 46.52 74.2 45.02 72C44.16 70.75 43.36 69.4601 42.56 68.1701C42.08 67.3901 41.58 66.62 41.11 65.83C40.07 64.06 39.02 62.3 38.03 60.51C37.05 58.76 36.12 57 35.18 55.23C33.83 52.69 32.48 50.16 30.88 47.77C30.92 47.84 30.96 47.9 31 47.96C30.2 46.78 29.3399 45.6401 28.4099 44.5601C27.5599 43.6101 26.66 42.71 25.71 41.86C24.57 40.86 23.38 39.9 22.15 39.02C21.82 38.81 21.49 38.62 21.15 38.44C21.06 38.4 20.96 38.35 20.86 38.32C20.81 38.3 20.76 38.29 20.71 38.27C20.69 38.27 20.66 38.26 20.64 38.25C20.61 38.25 20.58 38.25 20.55 38.25C20.51 38.26 20.46 38.27 20.42 38.27C20.4 38.27 20.38 38.28 20.37 38.28C20.35 38.3 20.33 38.31 20.32 38.32C20.28 38.36 20.24 38.4 20.2 38.44C20.12 38.53 20.05 38.62 19.98 38.72C19.91 38.83 19.85 38.9401 19.79 39.0501C19.68 39.3001 19.5699 39.5501 19.4699 39.8001C19.3299 40.2101 19.22 40.6201 19.13 41.0501C19.05 41.4901 19 41.94 18.96 42.38C18.93 42.98 18.9399 43.5701 18.9699 44.1701C19.1299 46.3301 19.51 48.4401 19.89 50.5601C19.89 50.5601 19.89 50.56 19.89 50.57C19.89 50.58 19.89 50.59 19.89 50.6C19.91 50.67 19.92 50.75 19.94 50.82C19.98 51.01 20.02 51.2 20.06 51.39C20.08 51.47 20.1 51.54 20.11 51.62C20.12 51.67 20.13 51.7401 20.15 51.8001C20.15 51.7901 20.15 51.79 20.15 51.78C20.18 51.92 20.21 52.07 20.24 52.22C20.33 52.52 20.37 52.84 20.43 53.14C20.43 53.16 20.43 53.17 20.44 53.19V53.1801C20.44 53.1901 20.44 53.2 20.44 53.21C20.45 53.25 20.46 53.28 20.46 53.32C20.84 55.17 21.38 56.9801 21.9 58.7901C21.87 58.7201 21.85 58.64 21.82 58.57C22.3 59.93 22.77 61.28 23.32 62.6C23.59 63.24 23.83 63.89 24.13 64.51C24.47 65.2 24.81 65.9 25.15 66.59C25.59 67.36 26.01 68.16 26.49 68.91C27.04 69.7701 27.58 70.64 28.14 71.49C29.25 73.17 30.36 74.83 31.45 76.53C32.57 78.27 33.5299 80.21 33.9099 82.26C34.1199 83.44 34.12 84.62 33.8 85.77C33.5 86.82 32.82 87.7 31.86 88.23C30.88 88.77 29.71 88.6701 28.65 88.5401C27.43 88.3901 26.22 88.05 25.08 87.61C22.8 86.73 20.87 85.09 19.31 83.24C17.62 81.24 16.6 78.76 15.55 76.4C14.89 74.9 14.21 73.42 13.51 71.95C12.89 70.73 12.27 69.49 11.51 68.34C11.3 68.03 11.08 67.7301 10.84 67.4301C10.7 67.2801 10.56 67.14 10.42 67C10.34 66.93 10.26 66.8701 10.19 66.8101C10.25 67.2901 10.35 67.78 10.44 68.26C10.82 70.07 11.21 71.88 11.79 73.64C11.76 73.57 11.74 73.5001 11.71 73.4201C11.97 74.1701 12.26 74.9 12.61 75.61C13.27 76.9 14.05 78.11 14.77 79.36C15.15 80.01 15.54 80.66 15.89 81.32C16.28 82.03 16.64 82.76 16.94 83.52C17.26 84.31 17.51 85.22 17.5 86.08C17.48 87.45 17.04 88.88 15.86 89.69C15.3 90.07 14.71 90.21 14.04 90.25C14.01 90.25 13.97 90.25 13.94 90.25C13.65 90.23 13.33 90.16 13.06 90.09ZM91.7 22.34C91.64 22.43 91.58 22.51 91.51 22.6C91.58 22.79 91.65 22.9801 91.71 23.1701C92.13 24.4001 92.48 25.65 92.82 26.9C93.4 24.95 93.86 22.95 94.32 20.97C94.62 19.68 94.91 18.38 95.25 17.1C95.37 16.66 95.49 16.21 95.61 15.77C95.52 15.75 95.44 15.73 95.36 15.7C94.9 16.59 94.45 17.49 93.99 18.39C93.3 19.75 92.58 21.09 91.7 22.34ZM91.61 13.82C90.23 13.92 88.86 14.05 87.49 14.19C87.22 14.22 86.96 14.25 86.69 14.28C87.13 14.79 87.5599 15.31 87.9699 15.85C88.6699 16.76 89.27 17.73 89.81 18.73C90.1 18.22 90.38 17.7 90.65 17.17C90.61 17.24 90.5799 17.31 90.5399 17.37C91.1499 16.17 91.76 14.98 92.37 13.78C92.12 13.79 91.87 13.81 91.61 13.82Z"
    fill="rgba(191, 192, 191, 1)" />
  <path d="M19.93 50.5601C19.93 50.5801 19.94 50.6 19.94 50.61C19.94 50.59 19.94 50.5801 19.93 50.5601Z"
    fill="rgba(191, 192, 191, 1)" />
  <path d="M56.95 36.75C56.95 36.76 56.95 36.76 56.96 36.77C56.95 36.76 56.95 36.75 56.95 36.75Z"
    fill="rgba(191, 192, 191, 1)" />
  <path d="M60.17 35.29V35.3C60.18 35.3 60.17 35.3 60.17 35.29Z" fill="rgba(191, 192, 191, 1)" />
  <path d="M54.93 32.75C54.93 32.76 54.94 32.77 54.95 32.78C54.94 32.77 54.94 32.75 54.93 32.75Z"
    fill="rgba(191, 192, 191, 1)" />
  <path d="M51.97 11.79C51.97 11.8 51.97 11.82 51.97 11.83C51.98 11.82 51.98 11.8 51.97 11.79Z"
    fill="rgba(191, 192, 191, 1)" />
  <path d="M70.28 10.48C70.3 10.5 70.31 10.52 70.32 10.54C70.31 10.53 70.29 10.5 70.28 10.48Z"
    fill="rgba(191, 192, 191, 1)" />
</svg>