<svg width="78" height="72" viewBox="0 0 78 72" fill="none" xmlns="http://www.w3.org/2000/svg">
  <path
    d="M73.99 26.86C74.43 27.11 74.84 27.22 75.35 27.22C75.36 27.22 75.36 27.22 75.36 27.26C76.3199 27.26 77.12 26.45 77.12 25.49C77.12 24.6499 76.51 23.93 75.71 23.76L72.83 21.24C71.81 20.31 70.82 19.37 69.89 18.35C69.5 17.91 69.15 17.4499 68.81 16.97C68.683 16.7732 68.5601 16.5806 68.4438 16.3842C68.3769 16.2712 68.3121 16.1569 68.25 16.04C68.06 15.6399 67.8899 15.25 67.74 14.84C67.5799 14.37 67.46 13.91 67.35 13.44C67.1799 12.57 67.06 11.68 66.99 10.79V10.75C66.9499 9.92998 66.9399 9.10002 66.99 8.28001C67.05 7.64 67.13 7.00999 67.25 6.37999C67.35 5.97002 67.46 5.55998 67.59 5.15996C67.64 5.02995 67.69 4.90001 67.75 4.77C68.48 4.36998 68.98 3.49998 68.7 2.65996C68.47 1.96996 67.98 1.53001 67.3 1.27C66.77 1.06999 66.2 0.949936 65.65 0.84996C63.68 0.499984 61.69 0.590011 59.7 0.699997C58.54 0.759994 57.36 0.85997 56.21 1.03996C54.87 1.24998 53.53 1.54002 52.28 2.08C51.34 2.48997 50.42 2.96001 49.55 3.50999L49.1336 3.77135C47.6315 4.71349 46.128 5.65642 44.7 6.7C43.85 7.31999 43.02 7.95 42.21 8.60997C41.84 8.91997 41.48 9.22997 41.12 9.54997C41.055 9.60814 40.9894 9.66612 40.9235 9.72429C40.5025 10.096 40.074 10.4744 39.78 10.95C39.04 12.17 40.12 13.8299 41.55 13.6C41.86 13.54 42.17 13.44 42.41 13.24C42.54 13.13 42.65 13.01 42.74 12.88C43.0153 12.5804 43.3169 12.3135 43.6235 12.0423C43.6955 11.9786 43.7678 11.9147 43.84 11.85C43.9802 11.7331 44.1204 11.6142 44.2612 11.4949C44.6624 11.1547 45.068 10.8109 45.49 10.5C45.7946 10.2803 46.0967 10.058 46.3989 9.8358C46.7017 9.61302 47.0046 9.39024 47.31 9.16997C47.5026 9.04088 47.6951 8.91136 47.8878 8.78172C49.5166 7.68614 51.1563 6.58311 52.9 5.67998C53.38 5.45 53.88 5.23997 54.39 5.05998C54.84 4.90996 55.3 4.79997 55.77 4.7C56.99 4.46001 58.22 4.34996 59.45 4.23997C59.991 4.20952 60.5379 4.179 61.0817 4.15739C60.3534 5.20268 59.6287 6.24657 59.01 7.36998C58.25 8.74998 57.55 10.14 57.03 11.64C56.3201 13.71 55.88 15.89 55.74 18.07C55.6 20.26 55.72 22.49 56.15 24.65C56.59 26.83 57.21 28.97 58.17 30.98C58.62 31.91 59.14 32.83 59.75 33.68C59.1636 33.511 58.5771 33.352 57.9906 33.1929L57.98 33.19C56.9897 32.9313 55.972 32.7382 54.9593 32.5461C54.6018 32.4782 54.2449 32.4104 53.89 32.34C50.93 31.65 47.97 30.8801 45.1 29.9C44.4 29.65 43.71 29.36 43.04 29.04C42.5 28.76 41.98 28.46 41.47 28.12C40.98 27.78 40.52 27.41 40.07 27.03C38.97 26.04 37.96 24.93 36.98 23.82C36.5 23.27 36.05 22.69 35.62 22.09C35.45 21.81 35.29 21.54 35.13 21.25C34.94 20.85 34.77 20.46 34.61 20.05C34.2876 19.1011 34.0585 18.1268 33.829 17.1505L33.77 16.9C33.6901 16.54 33.6 16.2 33.43 15.86C33.19 15.39 32.64 15.06 32.13 15C31.36 14.92 30.55 15.32 30.26 16.07C30.092 16.5053 30.0057 16.9814 29.9208 17.4493C29.8945 17.5942 29.8684 17.7382 29.84 17.88C29.6901 18.6 29.55 19.3201 29.43 20.03C29.35 20.5067 29.2711 20.9834 29.1923 21.4601C29.0345 22.4134 28.8767 23.3667 28.71 24.32C27.95 28.69 27.3201 33.17 27.78 37.62C27.9 38.75 28.02 39.88 28.13 41.01C28.17 41.35 28.25 41.7 28.31 42.04C28.43 42.71 28.55 43.37 28.66 44.04C28.81 44.9 29.0001 45.73 29.21 46.58C29.5701 48.08 29.93 49.56 30.44 51.02C31.3 53.49 32.3301 55.93 33.84 58.08L34.08 58.41C33.45 58.25 32.84 58.08 32.22 57.9C31.5629 57.7013 30.9116 57.4793 30.2573 57.2562C30.0552 57.1874 29.8529 57.1184 29.65 57.05L29.4863 56.9886C28.1017 56.4697 26.7277 55.9546 25.4 55.31C24.59 54.89 23.79 54.43 23.02 53.93C22.08 53.29 21.19 52.58 20.32 51.83C19.0712 50.7178 17.8795 49.5294 16.7635 48.2834C15.7057 47.0639 14.7328 45.7875 13.8265 44.4542C13.8417 44.4787 13.855 44.5052 13.87 44.53C13.1976 43.5196 12.574 42.4895 11.97 41.43C11.8483 41.2153 11.7215 41.0005 11.5942 40.7849C11.3721 40.4089 11.1484 40.03 10.9474 39.6435C10.949 39.6484 10.95 39.6537 10.95 39.66C10.93 39.61 10.9 39.5701 10.88 39.52C10.87 39.52 10.87 39.51 10.87 39.51C10.49 38.76 10.12 38.01 9.73998 37.26V37.25C9.72997 37.23 9.71996 37.2124 9.70995 37.1949C9.7 37.1774 9.68999 37.16 9.67998 37.14C9.49999 36.74 9.33001 36.35 9.16997 35.95C9.10998 35.78 9.06005 35.61 9.01 35.43C9.00371 35.4237 9.00139 35.4134 9.00054 35.4017C8.99999 35.3948 8.99999 35.3874 8.99999 35.38C9.00994 35.3252 9.02239 35.2704 9.03484 35.2156C9.04741 35.1604 9.05999 35.1052 9.07 35.05C9.15001 34.61 9.00005 34.08 8.71001 33.73C8.06005 32.93 6.79998 32.79 6.05999 33.56C5.81646 33.8203 5.6364 34.1441 5.46056 34.4604C5.42699 34.5207 5.39361 34.5807 5.35998 34.64C5.23034 34.8743 5.10076 35.1111 4.97112 35.3478C4.84075 35.586 4.71038 35.8243 4.58001 36.06C3.59002 37.89 2.85003 39.84 2.30999 41.86C1.88 43.47 1.55999 45.08 1.30999 46.72C1.26665 47.0166 1.21886 47.3133 1.17107 47.61C1.07555 48.2034 0.979971 48.7967 0.919973 49.39L0.590017 52.66C0.517019 53.3835 0.479239 54.116 0.44158 54.8454C0.422537 55.2149 0.403555 55.5836 0.379995 55.95C0.267569 57.7305 0.286856 59.511 0.306143 61.2915L0.309988 61.65C0.319998 62.58 0.390005 63.52 0.429983 64.45C0.489981 65.63 0.609976 66.82 0.859976 67.97C1.03997 68.81 1.28002 69.74 1.84002 70.42C2.20006 70.86 2.72997 71.11 3.29998 71.1C3.66997 71.1 4.03997 70.99 4.35998 70.74C5.09997 70.17 5.29998 69 4.67998 68.26C4.67303 68.26 4.67089 68.2504 4.66692 68.2445C4.66515 68.2419 4.66302 68.24 4.65996 68.24C4.64995 68.24 4.64001 68.23 4.64001 68.22C4.62005 68.16 4.59002 68.1 4.57 68.04C4.49004 67.77 4.41997 67.5 4.34997 67.23C4.17998 66.33 4.08001 65.42 4.01 64.5L3.99444 64.1897C3.90905 62.4344 3.82287 60.6628 3.86999 58.9C3.90001 57.9501 3.90001 57 3.96001 56.06L4.14001 53.15L4.34997 51.08C4.40001 50.55 4.43004 50.01 4.51 49.49C4.57897 49.0513 4.643 48.6117 4.70702 48.172C4.84734 47.2084 4.98772 46.2444 5.17998 45.29C5.49999 43.8 5.88 42.33 6.35998 40.88C6.53002 40.4 6.71001 39.93 6.90996 39.47L6.97313 39.6025C7.26232 40.2095 7.55449 40.8227 7.89001 41.41C8.16479 41.8996 8.44207 42.3867 8.71935 42.8738C8.99706 43.3617 9.27477 43.8496 9.54998 44.34C10.09 45.29 10.72 46.21 11.35 47.11C12.13 48.21 12.9401 49.29 13.83 50.31C15.51 52.25 17.35 54.08 19.37 55.67C21.39 57.25 23.64 58.59 26.05 59.5C26.2817 59.5885 26.5127 59.6784 26.7436 59.7682C27.3996 60.0234 28.0543 60.2781 28.72 60.5C29.67 60.82 30.6301 61.14 31.59 61.43C31.706 61.4634 31.8221 61.4972 31.9383 61.531C32.7946 61.78 33.6595 62.0315 34.54 62.19L34.6889 62.22C35.0931 62.3014 35.5105 62.3855 35.92 62.43C36.46 62.49 37 62.53 37.54 62.55C38.08 62.58 38.64 62.55 39.19 62.5C39.47 62.52 39.76 62.47 40.04 62.36C40.7 62.1 41.14 61.42 41.14 60.72C41.14 59.86 40.5001 59.11 39.65 58.97C39.5736 58.9254 39.5013 58.8808 39.4304 58.8363C39.3899 58.8108 39.35 58.7854 39.31 58.76C39.04 58.57 38.79 58.37 38.54 58.16C38.22 57.87 37.92 57.55 37.63 57.23C37.27 56.8 36.93 56.35 36.61 55.89C36.16 55.21 35.76 54.5 35.38 53.77C34.82 52.62 34.33 51.43 33.9 50.22C33.49 49.05 33.15 47.87 32.86 46.67C32.67 45.88 32.47 45.09 32.28 44.3C32.17 43.67 32.06 43.05 31.95 42.43C31.84 41.82 31.69 41.21 31.63 40.6C31.565 39.9948 31.5025 39.3871 31.44 38.7795C31.3775 38.1722 31.315 37.5649 31.25 36.96C31.16 35.3 31.14 33.64 31.25 31.98C31.42 29.52 31.82 27.09 32.23 24.65C32.2549 24.4855 32.2823 24.3235 32.3097 24.1615C32.3373 23.9985 32.3649 23.8355 32.39 23.67C32.53 23.91 32.68 24.14 32.84 24.36C33.49 25.25 34.2 26.1 34.95 26.91C35.0741 27.0434 35.1978 27.1772 35.3215 27.311C36.1251 28.1799 36.9288 29.0488 37.83 29.82C38.76 30.62 39.7501 31.34 40.83 31.92C41.8101 32.45 42.84 32.89 43.9 33.27C45.78 33.93 47.72 34.46 49.65 34.98C51.43 35.45 53.21 35.84 55.01 36.19C55.2504 36.2434 55.4918 36.2946 55.7333 36.3458C56.2151 36.4479 56.697 36.55 57.17 36.67C58.02 36.89 58.87 37.14 59.71 37.39C60.7501 37.71 61.8 38.01 62.89 38.1C63.5001 38.15 64.11 38.14 64.72 38.1C65.25 38.07 65.8101 37.99 66.27 37.7C66.8801 37.31 67.22 36.66 67.13 35.93C67.02 35.04 66.35 34.6 65.63 34.2C65.24 33.99 64.86 33.77 64.49 33.53C64.29 33.3801 64.1 33.24 63.91 33.08C63.68 32.87 63.46 32.65 63.25 32.42C63.1316 32.2797 63.0171 32.1356 62.9048 31.9894C62.7609 31.8019 62.6204 31.6109 62.48 31.42C62.08 30.82 61.73 30.21 61.4 29.57C61.0601 28.86 60.77 28.14 60.51 27.4C60.19 26.4 59.92 25.4 59.7 24.38C59.48 23.27 59.33 22.15 59.25 21.02C59.26 21.1 59.26 21.18 59.27 21.26C59.22 20.26 59.22 19.28 59.27 18.28C59.35 17.29 59.5 16.32 59.69 15.35C59.87 14.53 60.0801 13.73 60.34 12.93C60.64 12.1 60.97 11.29 61.36 10.5C61.3359 10.5361 61.3155 10.5757 61.2944 10.6168C61.2803 10.6441 61.266 10.672 61.25 10.7C61.91 9.37004 62.68 8.09996 63.5 6.85997C63.4879 6.88408 63.4726 6.90996 63.456 6.93602C63.5062 6.86101 63.5563 6.786 63.6067 6.71129C63.3888 8.39903 63.3637 10.1239 63.55 11.82C63.74 13.56 64.05 15.33 64.78 16.94C66.2744 20.2162 69.0627 22.6207 71.7472 24.9356L72.1 25.24C72.42 25.53 72.75 25.81 73.07 26.1C73.37 26.36 73.65 26.66 73.99 26.86Z"
    fill="rgba(191, 192, 191, 1)" />
</svg>