<svg width="69" height="68" viewBox="0 0 69 68" fill="none" xmlns="http://www.w3.org/2000/svg">
  <path
    d="M1.16002 67.13C0.480024 66.45 0.480024 65.31 1.16002 64.63C3.78002 62.01 6.37002 59.35 8.98002 56.72C10.32 55.36 11.66 54 13.02 52.66C14.43 51.28 15.81 49.87 17.25 48.53C18.7 47.17 20.12 45.79 21.59 44.46C23.02 43.16 24.46 41.87 25.89 40.57C28.94 37.78 31.96 34.97 34.97 32.15C38.28 29.04 41.62 25.96 44.72 22.64C44.87 22.46 45.02 22.29 45.17 22.11C43.53 22.01 41.9 22.04 40.26 22.09C38.78 22.21 37.3 22.35 35.81 22.49C34.58 22.61 33.35 22.77 32.11 22.92C31.09 23.04 30.09 23.22 29.07 23.39C28.94 23.41 28.81 23.44 28.68 23.46C28.23 23.57 27.79 23.69 27.34 23.72H27.33C27.1 23.73 26.86 23.72 26.62 23.67C25.85 23.51 25.32 22.71 25.32 21.96C25.32 21.05 25.99 20.38 26.85 20.21C27.25 20.13 27.64 20.05 28.04 19.98C28.78 19.82 29.52 19.69 30.27 19.58C31.25 19.41 32.24 19.26 33.23 19.12C34.16 18.99 35.08 18.9 36.01 18.81C36.91 18.72 37.81 18.64 38.71 18.61C39.19 18.59 39.66 18.57 40.14 18.55C40.88 18.49 41.62 18.43 42.37 18.37C43.1 18.31 43.83 18.25 44.57 18.2C45.21 18.16 45.84 18.15 46.48 18.13C47.14 18.11 47.77 18.15 48.4 18.32C49.38 18.59 50.23 19.27 50.86 20.03C51.55 20.87 51.76 22.03 51.95 23.07C52.18 24.31 52.15 25.56 52.2 26.82C52.22 27.29 52.23 27.76 52.25 28.22C52.27 28.83 52.29 29.45 52.31 30.06C52.45 31.83 52.61 33.59 52.81 35.35C53.04 37.36 53.23 39.38 53.51 41.39C53.64 42.34 52.95 43.25 51.99 43.38C51.03 43.51 50.13 42.82 50 41.87C49.63 39.17 49.37 36.44 49.07 33.73C49.01 33.18 48.97 32.62 48.93 32.06C48.88 31.41 48.8 30.75 48.78 30.1C48.76 29.31 48.73 28.53 48.7 27.74C48.67 26.72 48.66 25.71 48.61 24.7C48.57 24.36 48.53 24.02 48.47 23.68C48.36 23.83 48.24 23.97 48.12 24.11C47.91 24.36 47.7 24.6 47.49 24.84C46.86 25.58 46.17 26.27 45.49 26.96C42.86 29.65 40.09 32.2 37.34 34.77C34.35 37.58 31.34 40.37 28.31 43.14C26.89 44.44 25.46 45.72 24.04 47.01C22.57 48.35 21.14 49.73 19.69 51.09C18.24 52.45 16.85 53.87 15.43 55.25C14.05 56.59 12.72 57.97 11.37 59.34C8.91002 61.82 6.48002 64.33 4.01002 66.8C3.96002 66.87 3.89002 66.94 3.82002 67.01C3.77002 67.06 3.71002 67.1 3.66002 67.15C3.30002 67.47 2.90002 67.67 2.41002 67.67C1.94002 67.65 1.49002 67.46 1.16002 67.13Z"
    fill="rgba(191, 192, 191, 1)" />
  <path
    d="M65.82 29.42C65.46 29.06 65.18 28.67 64.89 28.25C62.78 25.19 60.53 22.2301 58.29 19.2801C57.13 17.7501 55.92 16.24 54.8 14.67C54.19 13.81 53.59 12.97 52.98 12.11C52.34 11.2 51.75 10.2501 51.14 9.33005C50.61 8.53005 50.1 7.71006 49.59 6.90006C49.28 6.42006 48.98 5.93004 48.67 5.44004C48.32 4.87004 48 4.29005 47.69 3.70005C47.42 3.15005 47.24 2.64006 47.21 2.02006C47.17 1.15006 47.9 0.380025 48.74 0.270025C49.14 0.220025 49.55 0.290036 49.9 0.500036C50.43 0.820036 50.74 1.37005 50.77 1.95005C50.79 1.99005 50.8 2.02003 50.82 2.06003C51.71 3.77003 52.81 5.39006 53.84 7.02006C54.47 8.01006 55.13 8.98001 55.78 9.97001C56.76 11.36 57.76 12.74 58.79 14.1C59.77 15.4 60.76 16.69 61.74 17.99C63.83 20.78 65.95 23.54 67.92 26.43C67.92 26.42 67.91 26.41 67.91 26.41C67.93 26.44 67.95 26.47 67.97 26.5C67.97 26.5 67.98 26.5101 67.98 26.5201C68.04 26.6101 68.1 26.7001 68.17 26.7801C68.12 26.7301 68.07 26.67 68.02 26.61C68.12 26.72 68.22 26.83 68.32 26.93C68.99 27.62 69.01 28.74 68.32 29.43C67.98 29.77 67.52 29.94 67.05 29.94C66.61 29.94 66.15 29.77 65.82 29.42Z"
    fill="rgba(191, 192, 191, 1)" />
</svg>