<svg width="74" height="81" viewBox="0 0 74 81" fill="none" xmlns="http://www.w3.org/2000/svg">
  <path
    d="M13.89 80.74C13.27 80.48 12.79 79.92 12.41 79.39C12.07 78.91 11.75 78.42 11.43 77.92C10.92 77.12 10.48 76.28 10.04 75.45C9.18 73.86 8.35004 72.25 7.40004 70.7C6.36004 69.03 5.32003 67.37 4.32003 65.68C3.50003 64.3 2.74999 62.86 2.15999 61.37C1.18999 58.93 0.850019 56.22 1.00002 53.61C1.16002 50.96 1.84999 48.33 2.90999 45.9C3.39999 44.78 4.00004 43.72 4.71004 42.72C5.38004 41.77 6.24002 40.97 7.13002 40.23C9.08002 38.62 11.43 37.5 13.88 36.9C15.13 36.6 16.41 36.46 17.69 36.4C19.08 36.33 20.49 36.54 21.84 36.87C23.61 37.3 25.26 38.12 26.89 38.92C28.25 39.59 29.55 40.41 30.75 41.34C31.96 42.28 33.03 43.38 34.11 44.46C34.79 45.15 35.47 45.84 36.15 46.53C37.07 47.46 38.01 48.35 38.97 49.24C40.13 50.21 41.32 51.14 42.54 52.04C42.94 52.31 43.34 52.57 43.75 52.83C44.19 53.12 44.66 53.36 45.11 53.62C46.11 54.12 47.1 54.6 48.15 54.99C48.96 55.26 49.78 55.49 50.61 55.67C51.8 55.9 52.98 56 54.18 56.08C54.81 56.1 55.44 56.1 56.07 56.06C56.75 56.01 57.41 55.92 58.08 55.79C58.68 55.65 59.26 55.49 59.84 55.3C60.43 55.09 61 54.84 61.56 54.57C62.18 54.25 62.78 53.9 63.37 53.52C63.96 53.11 64.52 52.68 65.07 52.22C65.64 51.71 66.19 51.17 66.7 50.6C67.16 50.06 67.6 49.49 68.01 48.91C68.35 48.41 68.65 47.89 68.94 47.36C69.22 46.79 69.46 46.22 69.67 45.63C69.83 45.12 69.97 44.6 70.08 44.08C70.17 43.59 70.23 43.11 70.27 42.62C70.29 42.16 70.29 41.7 70.26 41.24C70.21 40.59 70.11 39.95 69.99 39.3C69.82 38.49 69.6 37.69 69.35 36.9C69.35 36.9 69.35 36.9 69.35 36.89C69.07 36.1 68.78 35.31 68.46 34.53C68.12 33.73 67.75 32.96 67.36 32.19C67.04 31.64 66.74 31.1 66.43 30.55C66.13 30.03 65.78 29.55 65.45 29.05C64.11 27.18 62.7 25.36 61.38 23.49C60.7 22.53 60.07 21.51 59.43 20.52C58.85 19.63 58.27 18.74 57.68 17.85C57.03 16.92 56.38 16 55.68 15.12C55.37 14.73 55.06 14.35 54.74 13.97C54.14 14.52 53.53 15.05 52.92 15.57C51.55 16.72 50.18 17.91 48.49 18.55C47.56 18.9 46.58 18.96 45.61 18.73C44.73 18.52 44.02 17.84 43.59 17.07C43.01 16.02 42.82 14.75 42.66 13.57C42.53 12.63 42.52 11.66 42.52 10.71C42.5 8.85 42.5 7 42.56 5.14C42.58 4.45 42.59 3.75 42.66 3.07C42.75 2.11 42.88 0.929996 43.81 0.389996C44.22 0.149996 44.63 3.77744e-06 45.11 0.0700038C45.39 0.110004 45.65 0.209997 45.9 0.359997C46.13 0.299997 46.36 0.279994 46.61 0.309994C47.73 0.449994 48.83 0.640003 49.93 0.850003C50.57 0.980003 51.23 1.1 51.86 1.28C52.7 1.52 53.54 1.78999 54.39 1.97999C54.8 2.05999 55.21 2.10999 55.62 2.14999C56.69 2.19999 57.77 2.16 58.85 2.13C59.26 2.12 59.67 2.10999 60.08 2.08999C60.91 2.05999 61.72 2.01 62.53 2.21C63.42 2.42 64.06 3.28 64.06 4.19C64.06 4.96 63.55 5.53999 63.03 6.05999C62.39 6.70999 61.73 7.34 61.06 7.96C60.42 8.55 59.76 9.11999 59.13 9.72999C58.52 10.32 57.92 10.92 57.32 11.51C57.87 12.16 58.4 12.81 58.91 13.49C60.12 15.11 61.24 16.79 62.34 18.5C62.97 19.47 63.6 20.44 64.24 21.41C66.45 24.52 68.95 27.45 70.66 30.89C70.89 31.36 71.13 31.84 71.36 32.31C71.61 32.81 71.79 33.34 72.01 33.85C72.17 34.24 72.3 34.64 72.44 35.03C72.71 35.81 72.97 36.58 73.18 37.38C73.82 39.81 74.05 42.37 73.54 44.85C73.04 47.29 71.95 49.5 70.5 51.52C69.1 53.47 67.3 55.14 65.31 56.48C63.17 57.92 60.81 58.87 58.28 59.36C56.42 59.72 54.54 59.65 52.67 59.52C50.57 59.37 48.54 58.9 46.56 58.18C45.32 57.73 44.1 57.13 42.95 56.47C42.09 55.97 41.22 55.47 40.41 54.88C38.79 53.7 37.24 52.48 35.77 51.13C33.59 49.12 31.63 46.87 29.44 44.88C28.87 44.38 28.27 43.91 27.64 43.47C26.9 42.99 26.13 42.56 25.36 42.13C24.25 41.58 23.14 41.05 21.98 40.63C21.43 40.45 20.88 40.29 20.31 40.17C19.86 40.09 19.42 40.03 18.97 39.98C18.45 39.95 17.93 39.95 17.4 39.97C16.61 40.03 15.83 40.13 15.06 40.28C14.47 40.41 13.9 40.57 13.33 40.76C12.8 40.96 12.28 41.19 11.77 41.43C11.28 41.69 10.8 41.97 10.33 42.28C9.85004 42.61 9.40003 42.95 8.95003 43.32C8.66003 43.58 8.39001 43.84 8.12001 44.12C7.86001 44.42 7.61002 44.73 7.38002 45.05C7.07002 45.51 6.79005 45.99 6.53005 46.48C6.13005 47.3 5.78 48.14 5.48 49C5.51 48.93 5.53002 48.86 5.56002 48.78C5.26002 49.68 5.01003 50.59 4.82003 51.51C4.68003 52.26 4.58004 53 4.52004 53.76C4.48004 54.49 4.48005 55.21 4.53005 55.93C4.59005 56.59 4.67 57.23 4.79 57.88C4.92 58.46 5.07002 59.03 5.25002 59.59C5.50002 60.29 5.79 60.96 6.11 61.63C6.09 61.6 6.08003 61.57 6.07003 61.54C6.09003 61.58 6.11001 61.61 6.12001 61.65C6.13001 61.66 6.13003 61.67 6.14003 61.68C6.15003 61.69 6.15004 61.7 6.15004 61.7C6.86004 63.09 7.67001 64.45 8.49001 65.79C9.24001 67.01 10.04 68.21 10.77 69.45C12.18 71.87 13.38 74.41 14.89 76.78C15.08 77.04 15.26 77.31 15.47 77.56C15.49 77.58 15.5 77.6 15.52 77.61C16.22 78.06 16.53 78.99 16.2 79.79C15.91 80.46 15.25 80.87 14.55 80.87C14.34 80.88 14.11 80.84 13.89 80.74ZM46.07 8.25999C46.06 9.61999 46.06 10.97 46.11 12.33C46.18 13.01 46.25 13.67 46.38 14.33C46.43 14.55 46.49 14.78 46.56 14.99C46.6 15.11 46.65 15.23 46.7 15.34C46.74 15.34 46.77 15.34 46.81 15.34C46.87 15.33 46.93 15.32 47 15.31C47.09 15.29 47.18 15.26 47.27 15.23C47.39 15.18 47.51 15.13 47.63 15.08C47.92 14.93 48.19 14.76 48.47 14.59C49.39 13.95 50.24 13.21 51.1 12.5C51.55 12.1 51.99 11.69 52.43 11.29C52.16 11 51.89 10.71 51.61 10.43C50.86 9.67999 50.1 8.94999 49.32 8.22999C48.25 7.23999 47.2 6.23 46.12 5.24C46.08 6.24 46.07 7.24999 46.07 8.25999ZM51.23 5.17999C52.52 6.36999 53.8 7.56 54.98 8.85C55.39 8.45 55.8 8.04999 56.21 7.64999C56.9 6.96999 57.62 6.31999 58.33 5.66999C57.6 5.68999 56.86 5.71 56.12 5.71C54.6 5.71 53.14 5.34 51.69 4.91C51.34 4.8 50.98 4.70999 50.63 4.61999C50.83 4.81999 51.03 4.99999 51.23 5.17999Z"
    fill="rgba(191, 192, 191, 1)" />
</svg>