<svg width="66" height="69" viewBox="0 0 66 69" fill="none" xmlns="http://www.w3.org/2000/svg">
  <path
    d="M3.50003 67.84C1.55003 66.75 0.53003 64.38 0.44003 62.22C0.35003 60.17 0.830052 58.14 1.90005 56.39C2.79005 54.95 3.90003 53.62 5.00003 52.34C6.11003 51.05 7.36001 49.89 8.48001 48.61C9.20001 47.77 9.93002 46.95 10.68 46.14C11.46 45.31 12.3 44.53 13.11 43.73C13.91 42.93 14.7001 42.13 15.5301 41.35C16.4101 40.52 17.34 39.76 18.26 38.98C19.61 37.78 20.8801 36.51 22.1501 35.22C23.4701 33.87 24.86 32.6 26.23 31.29C26.91 30.64 27.57 29.96 28.21 29.28C28.83 28.62 29.41 27.92 30.02 27.26C31.34 25.84 32.74 24.48 34.1 23.09C35.17 22 36.21 20.9 37.3 19.83C37.35 19.78 37.39 19.74 37.44 19.69C36.74 19.81 36.03 19.94 35.32 20.01C34.42 20.1 33.53 20.24 32.64 20.37C31.78 20.49 30.9101 20.51 30.0301 20.56C29.1001 20.64 28.17 20.74 27.24 20.83C26.35 20.92 25.47 20.97 24.58 21.08C23.65 21.19 22.73 21.38 21.8 21.52C20.85 21.66 19.9 21.79 18.94 21.84C18.35 21.88 17.76 21.92 17.17 21.93C15.89 21.95 14.61 21.8 13.37 21.49C12.53 21.28 11.73 20.96 10.94 20.61C10.1 20.23 9.27005 19.78 8.59005 19.15C7.06005 17.74 6.13002 15.63 6.43002 13.54C6.67002 11.84 8.03001 10.78 9.36001 9.90001C10.37 9.23001 11.5 8.82 12.66 8.51C13.87 8.17 15.12 8.11996 16.36 7.90996C17.64 7.69996 18.92 7.47999 20.2 7.24999C21.4 7.03999 22.59 6.86998 23.79 6.67998C25.35 6.34998 26.87 5.87996 28.39 5.40996C29.97 4.91996 31.58 4.62002 33.21 4.34002C36.83 3.58002 40.39 2.52998 44 1.73998C45.96 1.30998 47.91 0.840002 49.87 0.450002C51.07 0.220002 52.29 0.0599951 53.51 0.129995C54.53 0.189995 55.5 0.44999 56.47 0.74999C57.99 1.22999 59.55 1.64 60.91 2.51C61.76 3.06 62.48 3.77999 63.11 4.55999C63.8 5.40999 64.25 6.39999 64.57 7.43999C64.82 8.24999 64.97 9.09999 65.06 9.93999C65.15 10.79 65.1 11.66 65.12 12.52C65.13 13.33 65.16 14.14 65.2101 14.95C65.3201 16.45 65.44 17.95 65.42 19.46C65.4 21.08 65.34 22.7 65.2701 24.32C65.2001 25.87 65.18 27.41 65.11 28.96C65.03 30.51 64.87 32.05 64.73 33.59C64.68 34.41 64.65 35.24 64.61 36.07C64.56 37.09 64.4601 38.09 64.3401 39.1C64.2301 40.03 64.1401 40.97 64.0301 41.9C63.9401 42.76 63.77 43.61 63.64 44.47C63.36 46.39 63.21 48.33 62.8 50.23C62.41 52.05 61.58 53.73 60.74 55.37C60.54 55.76 60.32 56.15 60.04 56.49C59.73 56.86 59.4 57.2 59.07 57.55C57.66 59.02 55.36 59.77 53.48 58.74C52.71 58.31 52.22 57.37 51.95 56.57C51.68 55.77 51.5101 54.92 51.4001 54.08C51.2701 53.14 51.29 52.18 51.33 51.23C51.37 50.33 51.42 49.43 51.48 48.52C51.61 46.66 51.82 44.81 52.01 42.95C52.07 42.28 52.13 41.61 52.17 40.94C52.22 40.08 52.29 39.22 52.35 38.37C52.34 38.45 52.34 38.53 52.33 38.61C52.44 36.9 52.49 35.2 52.62 33.49C52.74 31.9 53.0101 30.32 53.1501 28.72C53.1501 28.22 53.14 27.73 53.11 27.23C53 26.2 52.86 25.17 52.67 24.14C52.66 24.1 52.65 24.05 52.64 24.01C52.07 24.36 51.51 24.75 50.95 25.12C50.39 25.51 49.8601 25.92 49.3401 26.36C48.1801 27.45 47.08 28.6 45.95 29.72C44.79 30.86 43.68 32.06 42.61 33.28C41.15 34.98 39.74 36.71 38.26 38.39C37.01 39.79 35.67 41.1 34.41 42.5C34.46 42.45 34.51 42.39 34.56 42.33C33.34 43.73 32.21 45.2 31 46.6C29.75 48.05 28.45 49.44 27.16 50.85C25.96 52.15 24.71 53.41 23.48 54.69C22.18 56.05 20.87 57.4 19.48 58.67C18.05 59.99 16.68 61.37 15.24 62.69C13.82 63.99 12.28 65.11 10.67 66.14C9.93001 66.62 9.12003 67.01 8.31003 67.37C7.32003 67.81 6.24 68.24 5.16 68.24C4.63 68.27 4.06003 68.15 3.50003 67.84ZM9.78006 52.44C9.08006 53.17 8.37003 53.88 7.69003 54.64C6.85003 55.63 6.05006 56.64 5.28006 57.69C5.03006 58.06 4.80005 58.42 4.59005 58.81C4.49005 59.02 4.41004 59.22 4.33004 59.44C4.26004 59.65 4.21005 59.86 4.15005 60.08C4.07005 60.5 4.02001 60.92 3.98001 61.34C3.97001 61.6 3.97001 61.86 3.98001 62.11C4.00001 62.35 4.04004 62.59 4.08004 62.83C4.12004 62.97 4.15004 63.12 4.20004 63.26C4.25004 63.41 4.32004 63.56 4.39004 63.71C4.49004 63.9 4.59005 64.08 4.71005 64.26C4.76005 64.33 4.81001 64.39 4.86001 64.46C4.91001 64.5 4.95003 64.55 5.00003 64.6C5.03003 64.62 5.05005 64.65 5.09005 64.67C5.11005 64.69 5.14 64.7 5.16 64.71C5.17 64.71 5.18003 64.72 5.19003 64.72C5.20003 64.72 5.21 64.72 5.22 64.73C5.24 64.73 5.25005 64.73 5.27005 64.73C5.29005 64.73 5.32005 64.73 5.34005 64.73C5.41005 64.72 5.47001 64.71 5.54001 64.7C5.61001 64.68 5.69005 64.66 5.77005 64.64C6.42005 64.4 7.06002 64.1 7.68002 63.81C8.36002 63.45 9.00005 63.07 9.65005 62.65C10.1401 62.31 10.6201 61.97 11.0901 61.62C11.5501 61.27 12 60.9 12.44 60.53C13.74 59.33 14.99 58.07 16.3 56.87C17.67 55.6 19.01 54.31 20.31 52.96C22.82 50.34 25.35 47.74 27.76 45.01C29.07 43.49 30.3 41.91 31.61 40.4C32.92 38.89 34.37 37.51 35.7 36.01C35.79 35.9 35.88 35.8 35.98 35.69C35.96 35.72 35.94 35.74 35.91 35.77C38.26 33.09 40.44 30.26 42.97 27.74C43.57 27.14 44.19 26.54 44.79 25.94C45.45 25.28 46.09 24.6 46.77 23.97C47.48 23.31 48.23 22.71 49.04 22.18C49.85 21.64 50.66 21.09 51.5 20.61C51.91 20.37 52.3601 20.18 52.8401 20.11C53.4701 20.02 54.0601 20.2 54.5901 20.52C55.7901 21.26 56.08 22.87 56.3 24.14C56.51 25.34 56.64 26.55 56.72 27.77C56.79 28.97 56.6 30.18 56.45 31.36C56.3 32.5 56.18 33.65 56.08 34.8C55.97 36.73 55.88 38.67 55.75 40.6C55.75 40.52 55.76 40.44 55.77 40.36C55.68 41.79 55.5601 43.21 55.4001 44.63C55.2401 46.08 55.11 47.53 55.01 48.99C54.92 50.38 54.81 51.78 54.88 53.17C54.92 53.59 54.98 53.99 55.06 54.41C55.14 54.75 55.22 55.1 55.33 55.44C55.36 55.51 55.39 55.58 55.42 55.65C55.43 55.65 55.4501 55.65 55.46 55.65C55.5201 55.64 55.5801 55.63 55.6501 55.63C55.7101 55.61 55.77 55.6 55.83 55.58C55.87 55.57 55.9 55.55 55.94 55.53C55.99 55.5 56.05 55.46 56.11 55.43C56.19 55.38 56.2601 55.32 56.3401 55.25C56.5901 55.02 56.83 54.77 57.06 54.51C57.17 54.39 57.27 54.27 57.37 54.14C57.54 53.86 57.6901 53.56 57.8401 53.27C58.2601 52.43 58.65 51.58 58.98 50.7C59.19 50.04 59.37 49.38 59.52 48.7C59.68 47.74 59.7801 46.77 59.9001 45.8C60.0401 44.72 60.2 43.64 60.37 42.57C60.53 41.57 60.62 40.57 60.74 39.57C60.85 38.53 60.98 37.49 61.07 36.45C61.12 35.42 61.15 34.39 61.22 33.36C61.28 32.33 61.42 31.31 61.51 30.27C61.63 28.16 61.68 26.04 61.77 23.93C61.86 21.7 61.97 19.45 61.86 17.22C61.77 16.06 61.66 14.9 61.63 13.73C61.59 12.59 61.61 11.44 61.56 10.3C61.53 10.01 61.49 9.71999 61.44 9.43999C61.34 8.98999 61.23 8.54999 61.1 8.11999C61.02 7.89999 60.93 7.67996 60.83 7.46996C60.75 7.32996 60.66 7.17997 60.57 7.03997C60.41 6.82997 60.25 6.61997 60.08 6.41997C59.91 6.22997 59.73 6.04999 59.54 5.87999C59.39 5.74999 59.23 5.63 59.07 5.51C58.9 5.4 58.73 5.3 58.55 5.2C58.21 5.04 57.86 4.9 57.5 4.76C56.38 4.38 55.2401 3.98998 54.0901 3.73998C53.8401 3.69998 53.6 3.66 53.35 3.64C53.04 3.62 52.74 3.62 52.43 3.64C51.68 3.7 50.93 3.82996 50.19 3.96996C47.17 4.62996 44.14 5.30997 41.14 6.03997C39.55 6.42997 37.96 6.82997 36.37 7.22997C34.87 7.60997 33.35 7.87996 31.83 8.15996C31.1 8.32996 30.4 8.50001 29.68 8.71001C29.04 8.89001 28.41 9.09997 27.77 9.28997C27 9.51997 26.23 9.73999 25.45 9.93999C24.65 10.15 23.81 10.26 22.99 10.38C21.51 10.59 20.03 10.88 18.56 11.13C17.81 11.26 17.06 11.39 16.3 11.51C15.6 11.62 14.91 11.67 14.21 11.78C13.66 11.91 13.11 12.07 12.57 12.24C12.29 12.35 12.02 12.47 11.75 12.6C11.47 12.77 11.19 12.94 10.91 13.12C10.69 13.28 10.48 13.44 10.27 13.62C10.22 13.67 10.16 13.72 10.11 13.78C10.08 13.82 10.05 13.85 10.02 13.89C10.01 13.91 9.99001 13.93 9.98001 13.95C9.97001 13.97 9.96004 13.99 9.95004 14.01C9.94004 14.04 9.93002 14.06 9.93002 14.09C9.92002 14.14 9.92 14.19 9.91 14.24C9.91 14.3 9.91 14.37 9.91 14.44C9.92 14.55 9.93004 14.65 9.95004 14.76C9.99004 14.94 10.0401 15.11 10.0901 15.28C10.1301 15.37 10.17 15.47 10.21 15.56C10.28 15.7 10.36 15.83 10.44 15.96C10.51 16.06 10.59 16.16 10.67 16.26C10.78 16.38 10.89 16.49 11.01 16.6C11.1 16.68 11.2 16.75 11.3 16.82C11.5 16.94 11.6901 17.06 11.9001 17.18C12.3901 17.42 12.9 17.63 13.42 17.82C13.85 17.96 14.29 18.09 14.74 18.19C15.16 18.27 15.58 18.32 16.01 18.37C16.92 18.42 17.82 18.39 18.73 18.33C19.8 18.22 20.86 18.1 21.92 17.94C22.92 17.78 23.92 17.61 24.93 17.49C25.96 17.37 26.99 17.33 28.02 17.21C29.03 17.1 30.04 17.03 31.05 16.98C31.89 16.91 32.72 16.79 33.55 16.67C34.42 16.54 35.29 16.47 36.16 16.35C36.94 16.23 37.71 16.07 38.5 15.95C38.91 15.88 39.34 15.84 39.76 15.82C40.53 15.78 41.25 16.03 41.83 16.52C42.42 16.55 43.01 16.88 43.32 17.4C43.82 18.26 43.5 19.3 42.68 19.82C42.67 19.82 42.66 19.83 42.6501 19.84C42.1401 20.2 41.67 20.6 41.2 21.01C39.82 22.3 38.51 23.67 37.19 25.02C35.84 26.4 34.47 27.75 33.13 29.14C32.51 29.78 31.9301 30.45 31.3401 31.11C30.6601 31.87 29.97 32.6 29.24 33.32C27.93 34.61 26.56 35.84 25.26 37.14C24.19 38.21 23.15 39.3 22.05 40.34C20.91 41.4 19.72 42.4 18.54 43.42C17.42 44.44 16.37 45.52 15.29 46.58C14.11 47.73 12.95 48.87 11.86 50.11C11.91 50.06 11.96 50 12.01 49.94C11.29 50.77 10.5601 51.62 9.78006 52.44Z"
    fill="rgba(191, 192, 191, 1)" />
  <path d="M36 35.67C36 35.68 35.99 35.69 35.98 35.69C35.98 35.69 35.99 35.68 36 35.67Z"
    fill="rgba(191, 192, 191, 1)" />
  <path d="M36.06 35.61C36.04 35.63 36.02 35.65 36 35.68C36.02 35.65 36.04 35.64 36.06 35.61Z"
    fill="rgba(191, 192, 191, 1)" />
</svg>