<svg width="77" height="139" viewBox="0 0 77 139" fill="none" xmlns="http://www.w3.org/2000/svg">
  <path fill-rule="evenodd" clip-rule="evenodd"
    d="M63.9153 0.37541C62.6706 1.85361 63.1403 31.3942 64.7373 54.4353C65.5593 65.9325 67.0389 77.8285 68.8708 87.6362C71.0784 99.4618 71.3837 102.113 70.7496 103.99C70.1155 105.914 68.6594 106.384 61.9191 106.876C51.2566 107.674 49.3543 108.003 32.6561 112.038C25.9157 113.681 18.8936 115.112 18.7057 114.924C18.6352 114.877 19.1754 113.939 19.8799 112.859C21.3126 110.63 21.5944 109.692 21.1951 108.401C20.6784 106.642 18.5882 105.656 16.8973 106.36C16.451 106.548 14.807 107.604 13.257 108.683C10.5797 110.56 9.0531 111.405 4.54388 113.47C-0.435059 115.745 -1.37449 119.734 1.98395 124.404C3.48702 126.515 4.9901 127.829 8.65384 130.246C12.8578 132.991 16.2397 134.61 20.561 135.971C22.4868 136.581 24.9293 137.426 25.9627 137.872C27.137 138.364 27.9355 138.575 28.0764 138.435C28.9219 137.59 24.718 133.249 18.3534 128.51C15.8404 126.633 13.4684 124.826 13.0691 124.521L12.3646 123.934L13.304 123.77C19.8565 122.667 28.1468 120.861 35.8736 118.819C45.1269 116.379 51.2566 115.018 55.8128 114.385C64.2441 113.211 68.0018 112.578 69.4579 112.132C72.558 111.17 74.977 108.824 75.8929 105.867C76.8559 102.77 76.5505 99.1568 74.2959 87.2842C71.5951 73.0888 70.1155 61.1928 68.5185 41.1785C67.5086 28.5551 66.3813 11.6614 66.1465 5.04465C65.9821 0.750832 65.7707 0 64.7608 0C64.4555 0 64.0797 0.164239 63.9153 0.37541Z"
    fill="rgba(191, 192, 191, 1)" />
</svg>