<svg width="91" height="88" viewBox="0 0 91 88" fill="none" xmlns="http://www.w3.org/2000/svg">
  <path
    d="M8.84999 58.71C8.14999 58.01 8.19999 56.91 8.84999 56.21C8.79999 56.27 8.75003 56.32 8.70003 56.38C8.86003 56.17 9.04001 55.99 9.25001 55.82C9.69001 55.47 10.15 55.16 10.6 54.81C11.58 54.06 12.55 53.29 13.52 52.53C14.27 51.93 15.42 52.09 16 52.85C16.6 53.62 16.44 54.74 15.68 55.33C14.97 55.9 14.25 56.46 13.54 57.02C12.86 57.55 12.15 58.05 11.47 58.58C11.43 58.62 11.4 58.67 11.36 58.71C11.04 59.06 10.59 59.23 10.13 59.23C9.66002 59.23 9.18999 59.05 8.84999 58.71Z"
    fill="rgba(191, 192, 191, 1)" />
  <path
    d="M22.09 49.88C21.57 49.88 21.05 49.65 20.71 49.2C20.13 48.45 20.25 47.29 21.03 46.72C22.4 45.71 23.74 44.66 25.08 43.62C25.85 43.03 26.97 43.18 27.56 43.94C28.15 44.71 28 45.83 27.24 46.42C25.9 47.46 24.56 48.51 23.19 49.51C22.87 49.75 22.48 49.87 22.1 49.87C22.09 49.88 22.09 49.88 22.09 49.88Z"
    fill="rgba(191, 192, 191, 1)" />
  <path
    d="M34.57 41.02C33.94 40.99 33.37 40.7 33.04 40.14C32.69 39.55 32.71 38.7 33.17 38.16C33.62 37.63 34.24 37.28 34.81 36.89C35.22 36.61 35.64 36.34 36.06 36.06C37.01 35.43 37.97 34.79 38.93 34.16C39.73 33.62 40.88 34 41.35 34.79C41.86 35.66 41.5201 36.68 40.71 37.21C39.2001 38.21 37.69 39.21 36.19 40.21C36.14 40.24 36.1 40.27 36.05 40.3C36.03 40.31 36.02 40.32 36.01 40.33C36.02 40.32 36.04 40.31 36.05 40.3C35.73 40.71 35.24 40.98 34.7 40.99C34.66 40.99 34.63 41 34.6 41C34.59 41.02 34.58 41.02 34.57 41.02Z"
    fill="rgba(191, 192, 191, 1)" />
  <path
    d="M46.69 29.48C46.69 28.59 47.33 28.04 47.99 27.55C48.53 27.14 49.08 26.74 49.62 26.34C50.6 25.62 51.57 24.89 52.54 24.16C53.31 23.58 54.43 23.71 55.02 24.48C55.6 25.23 55.47 26.38 54.7 26.96C53.86 27.59 53.01 28.23 52.16 28.86C51.37 29.44 50.57 30 49.8 30.61C49.48 30.99 48.99 31.24 48.45 31.24C47.5 31.25 46.69 30.45 46.69 29.48Z"
    fill="rgba(191, 192, 191, 1)" />
  <path
    d="M48.58 19.08C48.23 19.01 47.85 18.87 47.57 18.63C47.45 18.52 47.34 18.41 47.25 18.28C46.05 17.3 44.82 16.37 43.62 15.4C42.87 14.79 42.7 13.69 43.3 12.92C43.88 12.17 45.03 11.99 45.78 12.6C46.51 13.19 47.24 13.77 47.98 14.35C48.33 14.62 48.67 14.89 49.02 15.16C49.43 15.48 49.92 15.82 50.22 16.24C50.63 16.83 50.72 17.58 50.34 18.22C50.04 18.74 49.44 19.1 48.84 19.1C48.75 19.1 48.66 19.09 48.58 19.08Z"
    fill="rgba(191, 192, 191, 1)" />
  <path
    d="M38.17 9.21997C37.46 8.92997 36.89 8.37999 36.27 7.92999C35.07 7.14999 33.77 6.55001 32.51 5.89001C31.65 5.44001 31.4 4.26997 31.87 3.46997C32.37 2.60997 33.44 2.39003 34.29 2.84003C34.96 3.19003 35.64 3.50999 36.31 3.86999C36.65 4.04999 36.99 4.23998 37.34 4.41998C38.11 4.83998 38.79 5.39999 39.49 5.92999C39.51 5.93999 39.53 5.95002 39.55 5.96002C40.42 6.38002 40.88 7.36003 40.49 8.28003C40.21 8.92003 39.53 9.36999 38.83 9.36999C38.61 9.35999 38.38 9.31997 38.17 9.21997Z"
    fill="rgba(191, 192, 191, 1)" />
  <path
    d="M53.11 4.61998C52.23 4.49998 51.36 4.39999 50.49 4.30999C49.71 4.27999 48.93 4.26001 48.14 4.27001C47.43 4.28001 46.72 4.31997 46.01 4.35997C45.13 4.56997 44.19 3.93001 43.96 3.08001C43.84 2.62001 43.9 2.12996 44.14 1.71996C44.38 1.30996 44.75 1.05996 45.2 0.909962C45.52 0.799962 45.92 0.829976 46.26 0.799976C46.64 0.779976 47.02 0.759988 47.4 0.749988C48 0.719988 48.61 0.699959 49.21 0.719959C50.01 0.749959 50.79 0.789974 51.59 0.859974C52.26 0.929974 52.93 1.01997 53.6 1.10997C54.56 1.24997 55.24 2.14996 55.12 3.09996C55 3.96996 54.23 4.62999 53.37 4.62999C53.27 4.63999 53.19 4.62998 53.11 4.61998Z"
    fill="rgba(191, 192, 191, 1)" />
  <path
    d="M64.18 5.70001C64.08 5.69001 64 5.67002 63.87 5.65002C63.02 5.47002 62.48 4.53001 62.59 3.70001C62.7 2.88001 63.47 2.10998 64.34 2.16998C64.36 2.16998 64.38 2.16998 64.4 2.16998C64.46 2.16998 64.52 2.16999 64.58 2.17999C64.56 2.17999 64.55 2.17999 64.54 2.17999C64.56 2.17999 64.58 2.17999 64.59 2.17999C64.61 2.17999 64.62 2.17999 64.63 2.17999C64.96 2.21999 65.29 2.25999 65.62 2.30999C66.41 2.34999 67.19 2.35998 67.99 2.35998C68.88 2.34998 69.77 2.27998 70.66 2.22998C71.62 2.17998 72.43 3.07999 72.43 3.99999C72.43 4.99999 71.63 5.71001 70.66 5.77001C69.53 5.83001 68.4 5.89001 67.27 5.89001C66.25 5.91001 65.21 5.85001 64.18 5.70001Z"
    fill="rgba(191, 192, 191, 1)" />
  <path
    d="M85.54 7.03003C84.39 6.95003 83.24 6.84999 82.09 6.73999C81.11 6.63999 80.13 6.51999 79.14 6.42999C79.13 6.42999 79.12 6.42999 79.11 6.42999C78.15 6.42999 77.34 5.61997 77.34 4.65997C77.34 3.69997 78.14 2.89001 79.11 2.89001C79.6 2.89001 80.1 2.97002 80.59 3.02002C81.18 3.08002 81.76 3.14002 82.34 3.21002C83.56 3.35002 84.79 3.44003 86.02 3.53003C86.98 3.60003 87.66 4.62003 87.53 5.53003C87.47 5.99003 87.23 6.41 86.86 6.69C86.52 6.95 86.14 7.04999 85.74 7.04999C85.67 7.03999 85.61 7.04003 85.54 7.03003Z"
    fill="rgba(191, 192, 191, 1)" />
  <path
    d="M86.49 20.76C86.54 19.92 86.58 19.07 86.59 18.23C86.6 17.63 86.56 17.02 86.52 16.43C86.52 16.41 86.52 16.4 86.52 16.38C86.52 16.31 86.51 16.25 86.5 16.18C86.46 15.61 86.43 15.05 86.39 14.48C86.37 14.39 86.37 14.3 86.37 14.2C86.37 13.24 87.17 12.43 88.14 12.43C88.27 12.43 88.49 12.45 88.62 12.49C89.3 12.73 89.79 13.23 89.9 13.96C89.97 14.35 89.96 14.77 89.98 15.17C89.98 15.11 89.97 15.05 89.96 14.99C89.97 15.05 89.97 15.11 89.98 15.17C89.98 15.19 89.98 15.21 89.98 15.22C89.98 15.2 89.98 15.18 89.98 15.17C90.04 16.06 90.1 16.94 90.12 17.82C90.15 18.79 90.08 19.77 90.03 20.75C89.98 21.71 89.26 22.52 88.26 22.52C87.34 22.53 86.44 21.72 86.49 20.76Z"
    fill="rgba(191, 192, 191, 1)" />
  <path
    d="M86.71 37.1C86.57 35.85 86.45 34.6 86.38 33.33C86.33 32.29 86.42 31.25 86.42 30.21C86.42 29.25 87.22 28.44 88.19 28.44C89.16 28.44 89.96 29.24 89.96 30.21C89.96 30.82 89.92 31.44 89.92 32.05C89.92 32.77 89.94 33.49 89.98 34.21C90.06 35.01 90.14 35.82 90.23 36.62C90.34 37.58 89.69 38.48 88.71 38.61C88.64 38.62 88.56 38.63 88.48 38.63C87.61 38.62 86.81 37.98 86.71 37.1Z"
    fill="rgba(191, 192, 191, 1)" />
  <path
    d="M82.91 48.01C81.96 46.98 81 45.94 80.06 44.9C79.52 44.3 78.97 43.7 78.43 43.09C77.92 42.52 77.31 41.95 77.31 41.12C77.31 40.16 78.11 39.35 79.08 39.35C79.65 39.35 80.17 39.64 80.5 40.07C80.62 40.23 80.75 40.37 80.87 40.52C82.37 42.19 83.89 43.86 85.42 45.51C86.08 46.22 86.12 47.31 85.42 48.01C85.08 48.35 84.62 48.53 84.14 48.53C83.69 48.53 83.24 48.36 82.91 48.01Z"
    fill="rgba(191, 192, 191, 1)" />
  <path
    d="M69.61 38.16C69.4 37.78 69.17 37.42 68.95 37.05C68.8 36.83 68.63 36.62 68.47 36.41C68.14 36.05 67.8 35.72 67.44 35.39C67.03 35.04 66.61 34.71 66.17 34.41C66.02 34.31 65.87 34.22 65.72 34.14C64.86 34.04 64.18 33.25 64.18 32.38C64.18 31.44 64.92 30.71 65.82 30.62C65.78 30.62 65.75 30.63 65.71 30.63C66.09 30.58 66.45 30.63 66.8 30.77C67.81 31.14 68.69 31.84 69.51 32.53C70.31 33.2 71.06 33.96 71.69 34.8C72.05 35.3 72.36 35.84 72.67 36.37C73.16 37.2 72.87 38.3 72.03 38.79C71.76 38.95 71.45 39.03 71.15 39.03C70.54 39.03 69.94 38.72 69.61 38.16Z"
    fill="rgba(191, 192, 191, 1)" />
  <path
    d="M55.57 38.45C54.72 37.96 54.46 36.87 54.93 36.03C55.98 34.15 57.02 32.28 58.02 30.38C58.16 30.06 58.33 29.74 58.58 29.5C58.81 29.27 59.08 29.14 59.38 29.04C60.48 28.66 61.62 29.65 61.62 30.75C61.62 30.76 61.62 30.78 61.62 30.79C61.62 31.21 61.4699 31.6 61.2199 31.9C61.0199 32.33 60.79 32.75 60.56 33.16C60.29 33.66 60.02 34.15 59.76 34.64C59.17 35.7 58.58 36.76 57.99 37.82C57.68 38.38 57.07 38.69 56.45 38.69C56.15 38.69 55.85 38.61 55.57 38.45Z"
    fill="rgba(191, 192, 191, 1)" />
  <path
    d="M47.56 51.66C46.7 51.15 46.48 50.09 46.92 49.24C47.69 47.76 48.45 46.27 49.2 44.79C49.18 44.83 49.15 44.88 49.13 44.92C49.16 44.87 49.18 44.81 49.21 44.76C49.22 44.74 49.23 44.72 49.23 44.71C49.22 44.72 49.22 44.73 49.21 44.74C49.55 44.11 49.98 43.56 50.75 43.47C51.25 43.4 51.69 43.56 52.1 43.83C52.89 44.38 52.98 45.58 52.42 46.31C52.39 46.35 52.37 46.38 52.33 46.41C51.56 47.95 50.7699 49.49 49.9699 51.02C49.6799 51.59 49.06 51.89 48.44 51.89C48.14 51.89 47.83 51.81 47.56 51.66Z"
    fill="rgba(191, 192, 191, 1)" />
  <path d="M49.22 44.74V44.75C49.21 44.74 49.22 44.74 49.22 44.74Z" fill="rgba(191, 192, 191, 1)" />
  <path
    d="M37.8 66.11C37.43 65.82 37.19 65.41 37.13 64.95C37.06 64.46 37.21 64.03 37.48 63.63C37.54 63.54 37.61 63.44 37.67 63.35C37.63 63.41 37.58 63.47 37.54 63.54C38.59 61.99 39.66 60.42 40.56 58.77C40.59 58.54 40.66 58.32 40.79 58.11C40.85 58.02 40.91 57.93 40.97 57.84C41.35 57.27 41.86 56.93 42.56 56.91C43.81 56.88 44.67 58.24 44.19 59.37C43.64 60.67 42.85 61.87 42.09 63.06C41.5 63.98 40.89 64.89 40.27 65.79C39.96 66.25 39.43 66.47 38.89 66.47C38.5 66.47 38.11 66.35 37.8 66.11Z"
    fill="rgba(191, 192, 191, 1)" />
  <path
    d="M28.07 80.97C27.23 80.48 26.95 79.38 27.43 78.55C27.98 77.6 28.52 76.64 29.06 75.69C29.69 74.58 30.35 73.48 30.95 72.34C31.2 71.82 31.5 71.25 31.99 70.91C32.72 70.33 33.87 70.56 34.42 71.27C34.71 71.65 34.8401 72.13 34.7801 72.59C34.7301 72.97 34.55 73.29 34.3 73.56C34.29 73.58 34.27 73.61 34.26 73.63C33.65 74.91 32.89 76.12 32.19 77.35C31.63 78.34 31.06 79.33 30.49 80.32C30.17 80.88 29.56 81.19 28.95 81.19C28.65 81.21 28.34 81.13 28.07 80.97Z"
    fill="rgba(191, 192, 191, 1)" />
  <path
    d="M4.58004 68.01C3.96004 67.26 3.33999 66.52 2.71999 65.78C2.41999 65.42 2.11001 65.06 1.80001 64.7C1.51001 64.36 1.22002 64.03 0.940023 63.68C0.670023 63.36 0.520032 62.98 0.450032 62.57C0.310032 61.8 0.81003 60.98 1.51003 60.7C1.76003 60.6 2.00003 60.55 2.26003 60.55C3.04003 60.55 3.71002 61.07 3.94002 61.78C5.08002 63.14 6.23002 64.49 7.37002 65.85C7.99002 66.59 7.80001 67.76 7.05001 68.33C6.73001 68.58 6.36002 68.69 6.00002 68.69C5.47002 68.7 4.95004 68.46 4.58004 68.01Z"
    fill="rgba(191, 192, 191, 1)" />
  <path
    d="M12.58 76.78C11.81 76.28 11.02 75.81 10.31 75.22C9.73998 74.74 9.21997 74.2 8.79997 73.58C8.48997 73.11 8.21 72.58 8.2 72C8.18 71.04 9.01995 70.23 9.96995 70.23C10.74 70.23 11.38 70.73 11.63 71.4C11.64 71.42 11.65 71.43 11.65 71.45C11.69 71.52 11.73 71.59 11.77 71.66C11.82 71.73 11.88 71.81 11.95 71.89C12.13 72.09 12.31 72.27 12.51 72.45C12.73 72.64 12.96 72.81 13.2 72.97C13.59 73.23 13.99 73.47 14.37 73.72C15.17 74.25 15.51 75.28 15.01 76.14C14.69 76.68 14.06 77.03 13.44 77.03C13.14 77.03 12.84 76.95 12.58 76.78Z"
    fill="rgba(191, 192, 191, 1)" />
  <path
    d="M23.89 87.24C23.17 87.19 22.48 86.67 21.88 86.3C21.29 85.94 20.71 85.55 20.16 85.12C19.83 84.87 19.5 84.62 19.19 84.36C18.59 83.86 17.9601 83.31 17.6501 82.57C17.1801 81.41 18.03 80.09 19.29 80.09C20 80.09 20.6201 80.52 20.9001 81.13C21.0101 81.24 21.11 81.34 21.22 81.44C21.85 81.97 22.52 82.46 23.19 82.93C23.62 83.21 24.06 83.49 24.51 83.74C25.39 83.91 25.99 84.85 25.87 85.72C25.75 86.66 24.94 87.24 24.05 87.24C24 87.25 23.95 87.25 23.89 87.24Z"
    fill="rgba(191, 192, 191, 1)" />
</svg>