<svg width="73" height="89" viewBox="0 0 73 89" fill="none" xmlns="http://www.w3.org/2000/svg">
  <path fill-rule="evenodd" clip-rule="evenodd"
    d="M53.81 20.78C54.1601 20.92 54.4599 20.99 54.8199 20.99C54.8499 20.99 54.88 20.99 54.91 20.9921C54.93 20.9936 54.95 20.996 54.9699 21C55.1599 20.9891 55.341 20.9547 55.5197 20.9111C55.6703 20.8744 55.8191 20.8311 55.9699 20.79C56.54 20.6399 57.1001 20.4499 57.65 20.24L59.7199 19.46C59.9788 19.3653 60.2298 19.2507 60.4802 19.1362C60.6264 19.0694 60.7725 19.0027 60.92 18.94L62.5699 18.22C63.182 17.9547 63.7802 17.6571 64.3803 17.3586C64.6626 17.2182 64.9453 17.0776 65.2299 16.94C65.83 16.66 66.42 16.36 67.01 16.05L67.1026 16.0016C68.1833 15.437 69.2884 14.8597 70.28 14.15C70.77 13.8 71.28 13.41 71.67 12.94C71.9801 12.56 72.17 12.17 72.3299 11.7C72.4699 11.27 72.4599 10.7 72.3399 10.27C72.2099 9.79998 71.94 9.41 71.64 9.04C71.28 8.58999 70.83 8.21997 70.39 7.85998C70.07 7.58996 69.7501 7.32998 69.41 7.08999C68.93 6.75997 68.46 6.42999 67.9799 6.08999C67.3958 5.67684 66.7915 5.30429 66.1884 4.93258C65.9449 4.78247 65.7016 4.63247 65.4599 4.48001C64.7598 4.04299 64.0472 3.62756 63.3349 3.21237C62.3684 2.64898 61.4026 2.08599 60.4699 1.47C60.4502 1.4551 60.4278 1.44021 60.4055 1.42532C60.3828 1.41021 60.3601 1.39511 60.3399 1.38C60.15 1.08999 59.8901 0.859981 59.55 0.739986C58.9001 0.509975 58.3 0.589992 57.7299 0.980006C56.8499 1.57998 56.8601 2.89999 57.56 3.63C58.1914 4.29327 59.0142 4.77774 59.8194 5.2518C60.0218 5.37097 60.2231 5.48947 60.42 5.60998C60.9901 5.94998 61.55 6.28997 62.12 6.61999C63.33 7.31997 64.51 8.05996 65.6899 8.79998C66.3022 9.22671 66.9106 9.65344 67.5034 10.1015C67.0451 9.89907 66.5778 9.71063 66.0899 9.57003C65.4099 9.37005 64.7199 9.21002 64.02 9.05001C62.1998 8.63809 60.3246 8.48315 58.4734 8.33016L58.2299 8.31002C56.5388 8.16378 54.8393 8.10946 53.1467 8.05535L52.67 8.04003C48.77 7.91006 44.88 7.86004 40.9799 7.85003H40.9726C37.055 7.84005 33.1474 7.8301 29.2299 7.91003C27.4965 7.94418 25.7633 8.10226 24.0362 8.25979C23.7406 8.28677 23.4452 8.31372 23.15 8.34002C22.5235 8.39816 21.8928 8.49383 21.2633 8.58932L20.9245 8.64047C20.8097 8.65771 20.6949 8.67471 20.5802 8.69122L20.5089 8.70141C20.4159 8.71466 20.3228 8.72756 20.2299 8.74002C19.597 8.82662 18.9642 8.95764 18.3314 9.08865L18.3299 9.08892C18.0133 9.15448 17.6966 9.22003 17.38 9.28002C15.3199 9.67004 13.26 10.2501 11.3 11.0301C8.95004 11.9701 6.68991 13.2001 4.77999 14.8801C2.94992 16.49 1.25997 18.5601 0.529994 20.9401C0.180019 22.1 -0.0400741 23.42 0.209926 24.6301C0.429897 25.73 0.809902 26.7201 1.43991 27.6501C2.84982 29.7201 4.97995 31.21 7.22995 32.2501C9.59994 33.35 12.1499 34.0601 14.7299 34.4001C16.7899 34.68 18.8899 34.8101 20.9699 34.74C21.0992 34.7363 21.2288 34.733 21.3587 34.73C21.4922 34.7269 21.6257 34.724 21.7595 34.7211C22.5429 34.7043 23.332 34.6873 24.11 34.6201L24.3806 34.5959L24.3842 34.5955C25.4143 34.5036 26.4513 34.4111 27.4799 34.3101C28.1272 34.2538 28.7695 34.1629 29.4104 34.0722L29.4122 34.0718C29.6816 34.0337 29.9508 33.9956 30.2199 33.9601C31.7237 33.7635 33.2275 33.5305 34.7248 33.2985L35.49 33.18L36.4908 33.0293L36.4996 33.028C38.1631 32.7772 39.8265 32.5263 41.49 32.3101C43.37 32.0601 45.25 31.8801 47.14 31.7001L47.4557 31.6843L48.031 31.6549C50.162 31.5452 52.2883 31.4359 54.43 31.55H54.5799C55.8399 31.65 57.0799 31.8101 58.3199 32.0601C59.4599 32.3 60.58 32.5901 61.68 32.9601C62.32 33.1901 62.9599 33.4501 63.5799 33.7501C63.9499 33.9401 64.3 34.15 64.65 34.3701C64.9 34.55 65.15 34.74 65.39 34.9501C65.4369 34.9969 65.4837 35.0483 65.5306 35.0981C65.5537 35.1227 65.5767 35.1469 65.5999 35.17C65.7099 35.29 65.7999 35.41 65.89 35.54C65.9096 35.5746 65.9294 35.6067 65.9492 35.6388L65.9506 35.641C65.9704 35.6732 65.9902 35.7054 66.01 35.74L66.0999 35.9501C66.1088 35.9767 66.1158 36.0034 66.1224 36.0292L66.1286 36.0526L66.1372 36.083C66.1411 36.0958 66.1452 36.1082 66.15 36.1201C66.15 36.1531 66.1568 36.1793 66.1649 36.2101L66.1683 36.2232C66.1689 36.2467 66.1693 36.2702 66.1695 36.2937L66.1699 36.3483L66.17 36.41C66.17 36.47 66.16 36.5301 66.15 36.5901L66.146 36.6102C66.1435 36.6233 66.141 36.6368 66.138 36.6505L66.1335 36.6711C66.1303 36.6846 66.1269 36.6981 66.1231 36.7113C66.1287 36.6956 66.1344 36.6812 66.14 36.67V36.68C66.1099 36.77 66.0699 36.86 66.03 36.9401C66.0172 36.9632 66.0036 36.987 65.9896 37.0113C65.9511 37.0779 65.9091 37.1482 65.8669 37.2187L65.8599 37.23L65.8556 37.2359C65.8128 37.2928 65.7701 37.3498 65.7263 37.4067C65.7019 37.4383 65.6772 37.4699 65.6521 37.5015L65.6204 37.5408L65.5799 37.5901C65.5479 37.6241 65.5156 37.6582 65.4829 37.6921C65.4437 37.7327 65.4041 37.7731 65.3642 37.8132C65.3234 37.8542 65.2822 37.895 65.2408 37.9352L65.2025 37.9722L65.1519 38.0204L65.1099 38.0601C64.8299 38.29 64.5399 38.53 64.24 38.74C63.77 39.05 63.29 39.3301 62.79 39.5901C62.13 39.9101 61.4499 40.1901 60.75 40.4401C59.76 40.7501 58.75 41.01 57.7299 41.22C56.9099 41.37 56.0999 41.49 55.27 41.5701C51.52 41.73 47.77 41.73 44.02 41.73C41.4306 41.73 38.8413 41.7212 36.2519 41.7123L31.9936 41.699C28.2517 41.689 24.5016 41.679 20.77 41.9401H20.79C20.3252 41.975 19.8579 42.0075 19.3906 42.04L18.6665 42.0907C18.4405 42.1067 18.2149 42.1231 17.99 42.1401L18.0074 42.1381C17.643 42.1697 17.2783 42.2111 16.9116 42.2528L16.9013 42.2539L16.8805 42.2563L16.8775 42.2566C16.6556 42.2819 16.4332 42.3071 16.2099 42.3301C15.0899 42.4501 13.99 42.6201 12.88 42.8401C9.48995 43.5301 6.08993 44.79 3.54 47.2101C2.68002 48.0201 1.85995 48.96 1.36996 50.05C0.87997 51.13 0.699916 52.2701 0.87997 53.4501C1.21994 55.7501 3.06991 57.51 4.94992 58.68C7.39987 60.2 10.13 61.17 12.87 62.0201C13.6995 62.2848 14.5446 62.4951 15.3917 62.7057L15.7299 62.79C16.5842 63.0014 17.4539 63.1585 18.3255 63.3159L18.68 63.3801C19.4426 63.5245 20.2116 63.6175 20.982 63.7106L21.3713 63.7579L21.55 63.7801C22.52 63.8901 23.4799 63.9501 24.4599 64.0001C24.5213 64.0037 24.5827 64.0079 24.6441 64.0123C24.7058 64.0167 24.7674 64.0214 24.8291 64.0261L24.9107 64.0325C25.0039 64.0398 25.097 64.0471 25.1902 64.0537C25.2761 64.0598 25.362 64.0654 25.448 64.0698C25.6186 64.0787 25.7893 64.0835 25.9599 64.0801C26.1593 64.0752 26.361 64.0703 26.5642 64.0666C26.7785 64.0627 26.9942 64.0601 27.2099 64.0601C27.4187 64.0555 27.6284 64.0521 27.8386 64.0486C28.5653 64.0365 29.2987 64.0243 30.02 63.97C30.3635 63.9434 30.7081 63.9211 31.0527 63.8989C31.7414 63.8545 32.4301 63.81 33.11 63.73C34.2199 63.6 35.3299 63.4601 36.4399 63.3301C37.3094 63.2252 38.1789 63.1077 39.0484 62.9903C39.9189 62.8727 40.7895 62.7551 41.66 62.6501C43.61 62.4101 45.5499 62.2101 47.5 62.0301L48.1179 61.9943H48.1237C49.4835 61.915 50.8366 61.8361 52.1899 61.8101C52.3862 61.805 52.5819 61.7987 52.7772 61.7924H52.7801C53.3601 61.7737 53.9372 61.7551 54.52 61.7701C54.742 61.7775 54.9647 61.7844 55.1877 61.7908C55.4801 61.7992 55.7729 61.8068 56.0656 61.8139L57.1999 61.8401C58.6198 61.9401 60.03 62.1201 61.43 62.3901C62.26 62.5701 63.0699 62.79 63.87 63.0601C64.2999 63.22 64.7199 63.3901 65.13 63.5801C65.286 63.6603 65.4441 63.7465 65.6014 63.8368C65.7037 63.8956 65.8057 63.9562 65.9068 64.0181C65.9989 64.0745 66.0902 64.1319 66.18 64.1901C66.2703 64.2566 66.3584 64.3254 66.4453 64.3954C66.5376 64.4698 66.6284 64.5455 66.7193 64.6213L66.7299 64.6301L66.7567 64.6565L66.7918 64.6901L66.8322 64.7279C66.9011 64.7923 66.9699 64.8567 67.03 64.93L67.24 65.2001C67.2899 65.28 67.3399 65.35 67.38 65.43C67.41 65.5001 67.4399 65.5601 67.4699 65.6301C67.4799 65.675 67.4924 65.72 67.5048 65.7649C67.5174 65.81 67.53 65.855 67.54 65.9001C67.55 65.9701 67.5599 66.05 67.5699 66.1301V66.29C67.5599 66.37 67.55 66.4401 67.54 66.5101C67.49 66.72 67.4299 66.92 67.37 67.12C67.3299 67.21 67.2999 67.29 67.26 67.3801C67.1906 67.5023 67.1213 67.6246 67.0507 67.7461C66.9481 67.9228 66.8425 68.0982 66.7299 68.2701C66.4699 68.6401 66.1899 68.99 65.89 69.3401C65.7193 69.5192 65.5468 69.6965 65.3711 69.8713C65.1347 70.1062 64.8923 70.3364 64.64 70.5601C64.0599 71.0701 63.44 71.54 62.81 72.0001C62.67 72.0901 62.5324 72.1825 62.395 72.275C62.2575 72.3675 62.12 72.4601 61.9799 72.55L61.931 72.5848L61.9292 72.5861C61.7048 72.7451 61.4724 72.9098 61.24 73.04C60.9876 73.1836 60.7339 73.3257 60.4792 73.4675L60.3119 73.5605L59.6522 73.9268C59.5249 73.9976 59.3974 74.0687 59.27 74.1401L59.0644 74.2375C57.8247 74.8246 56.5977 75.4057 55.29 75.87C54.24 76.22 53.1699 76.51 52.0799 76.74C50.0599 77.1301 48.0199 77.32 45.9699 77.49C43.5299 77.62 41.0999 77.73 38.67 77.8301C34.89 77.98 31.11 78.1601 27.3399 78.4001C23.5499 78.6401 19.7799 78.8 15.99 78.62C15.9499 78.61 15.8999 78.61 15.86 78.61H15.9C15.75 78.6 15.5998 78.5901 15.4399 78.5801H15.4799C15.4643 78.5801 15.4477 78.5791 15.4308 78.5778L15.3997 78.5751C15.3723 78.5726 15.3448 78.5701 15.3199 78.5701C15.2599 78.5601 15.1899 78.5601 15.12 78.5601H15.0999C15.0099 78.55 14.9199 78.54 14.8299 78.54H14.81C13.9699 78.4828 13.1478 78.4073 12.3182 78.331L12.3109 78.3303L12.1999 78.3201C12.8299 77.92 13.4599 77.54 14.0999 77.16C15.0099 76.62 15.9699 76.15 16.92 75.68C17.0287 75.628 17.1396 75.5766 17.2513 75.5248C17.6124 75.3574 17.9815 75.1862 18.31 74.98C19.05 74.51 19.4 73.59 19.05 72.7601C18.7199 71.99 17.7799 71.47 16.9499 71.74C16.0813 72.0383 15.2588 72.4213 14.4286 72.808L14.2701 72.8818L14.0799 72.97C13.2899 73.33 12.51 73.74 11.74 74.17C10.0399 75.13 8.34994 76.1001 6.70993 77.1501L6.29892 77.4139C6.04684 77.576 5.79635 77.738 5.55001 77.9001L5.45895 77.9605C5.05746 78.2264 4.59359 78.5334 4.37997 78.97C4.14999 79.43 4.02999 79.8901 4.17001 80.3901C4.27999 80.8 4.52987 81.14 4.83993 81.41C5.20993 81.73 5.60995 82.03 5.99997 82.3201C8.38998 84.0801 10.9599 85.5701 13.7299 86.6401C14.5255 86.9506 15.3282 87.2412 16.1312 87.532C17.2159 87.9247 18.3012 88.3176 19.37 88.7601C19.5899 88.85 19.8199 88.89 19.9699 88.91C20.6699 88.91 21.3299 88.5001 21.62 87.8301C21.99 86.9501 21.56 85.8801 20.67 85.5101C19.6043 85.0671 18.5211 84.6718 17.4382 84.2767C15.8078 83.6818 14.1782 83.0872 12.61 82.3301C12.2999 82.17 11.9898 82.01 11.6899 81.85C12.6198 81.94 13.5499 82.0101 14.4799 82.0801H14.52C14.55 82.0901 14.5799 82.0901 14.61 82.0901H14.5999C14.6799 82.1001 14.7599 82.11 14.8499 82.11C15.0599 82.13 15.2699 82.1401 15.4699 82.1501H15.54C15.5649 82.1501 15.5898 82.1525 15.6148 82.155C15.6399 82.1575 15.6649 82.16 15.6899 82.16H15.65C15.6999 82.17 15.76 82.17 15.81 82.17H15.89C19.8773 82.4202 23.8646 82.1692 27.8424 81.9187L27.8563 81.9178C28.9616 81.8482 30.0662 81.7787 31.17 81.72C33.5887 81.5917 36.0074 81.4935 38.4238 81.3953L38.456 81.3939L38.4718 81.3931C39.9956 81.3312 41.5185 81.2694 43.04 81.2001C48.37 80.9601 53.92 80.5901 58.8 78.2701C58.9842 78.182 59.1688 78.0947 59.3534 78.0074L59.3556 78.0065C60.0921 77.6581 60.8287 77.3096 61.54 76.91C61.698 76.823 61.859 76.7391 62.0205 76.655C62.3601 76.4781 62.7015 76.3002 63.02 76.0901L63.6655 75.6589C63.8762 75.5184 64.0881 75.378 64.3 75.24C65.9699 74.1301 67.5599 72.84 68.8499 71.29C70.2699 69.57 71.54 67.29 70.93 64.99C70.32 62.6901 68.3599 61.15 66.26 60.22C63.9699 59.21 61.4699 58.7001 58.99 58.4501C56.6699 58.22 54.3299 58.2201 51.99 58.2701C48.0299 58.36 44.0999 58.78 40.17 59.2601C39.4279 59.3544 38.6859 59.4543 37.9438 59.5541C36.9559 59.6871 35.9679 59.8201 34.9799 59.9401L34.8386 59.9574L34.6408 59.9822L34.479 60.003L34.1604 60.0445C33.5235 60.1278 32.8867 60.2111 32.25 60.2601C31.25 60.3301 30.25 60.41 29.25 60.49C28.6978 60.5001 28.1457 60.5076 27.5924 60.5151L26.9347 60.5242C26.743 60.5269 26.5512 60.5298 26.3591 60.5329L25.9399 60.54C25.7951 60.543 25.6495 60.54 25.5036 60.5338C25.4203 60.5303 25.3369 60.5257 25.2534 60.5206C24.9781 60.5037 24.7026 60.4809 24.43 60.47C24.1429 60.4524 23.8557 60.4349 23.5665 60.4193C23.3623 60.4083 23.1569 60.3983 22.9499 60.3901L22.6306 60.351C22.4847 60.3332 22.339 60.3157 22.1937 60.2986C22.075 60.2847 21.9566 60.271 21.8386 60.2577C21.7219 60.2447 21.6057 60.2321 21.49 60.22C21.3198 60.1996 21.1473 60.1827 20.9741 60.1656C20.6383 60.1327 20.2998 60.0994 19.9699 60.04C19.7403 59.9966 19.5107 59.9539 19.2811 59.9115L18.1313 59.7003C17.8442 59.6475 17.5571 59.5942 17.27 59.54L17.2623 59.538C16.8348 59.4287 16.4073 59.3194 15.9799 59.22C15.8496 59.1882 15.7183 59.158 15.587 59.1277L15.4062 59.086L15.3352 59.0693L15.2636 59.0523C15.1753 59.0311 15.087 59.0093 14.9992 58.9863C14.9195 58.9654 14.8401 58.9435 14.7612 58.9202C14.7172 58.9073 14.6735 58.8939 14.63 58.8801C14.2207 58.7503 13.8115 58.623 13.4023 58.4958C12.9915 58.368 12.5808 58.2403 12.17 58.11L12.0063 58.0485C10.7317 57.5696 9.46749 57.0946 8.23995 56.5001C7.64987 56.1901 7.06991 55.8701 6.50997 55.5001C6.1799 55.27 5.84994 55.0201 5.54 54.7601C5.36996 54.6 5.20993 54.4401 5.05001 54.2601C5.02316 54.2288 4.99691 54.1974 4.97116 54.1661C4.93258 54.1192 4.89511 54.0721 4.85873 54.0243C4.81051 53.9609 4.76425 53.8965 4.71994 53.8301C4.65988 53.7501 4.60995 53.66 4.56002 53.5701C4.53976 53.5245 4.5195 53.4764 4.49923 53.4283C4.47946 53.3814 4.45968 53.3345 4.43991 53.29C4.41659 53.2261 4.39682 53.1587 4.37838 53.0919C4.37057 53.0639 4.36312 53.0359 4.35568 53.0084L4.33993 52.9501C4.32443 52.8882 4.31503 52.8264 4.30697 52.7645C4.30246 52.6907 4.30087 52.6165 4.30038 52.54C4.30001 52.4974 4.30001 52.4542 4.30001 52.41L4.30319 52.3787L4.30429 52.3663L4.31198 52.2917L4.31893 52.2328L4.32626 52.1796C4.32821 52.1661 4.33029 52.1527 4.33261 52.1395L4.33993 52.1C4.34994 52.06 4.36251 52.0175 4.37509 51.9749L4.38607 51.9373C4.39462 51.9075 4.40292 51.8781 4.41 51.85C4.42269 51.8034 4.43905 51.7585 4.45663 51.7148C4.46334 51.6981 4.47018 51.6816 4.47726 51.6652L4.49337 51.6273C4.50595 51.598 4.5184 51.569 4.52999 51.54C4.62997 51.36 4.72995 51.18 4.83993 51.0101C4.92685 50.892 5.01376 50.7779 5.10311 50.6652C5.15768 50.5964 5.2131 50.5283 5.26998 50.4601C5.54 50.17 5.81991 49.89 6.10995 49.6201C6.46994 49.3201 6.81991 49.04 7.19992 48.7701C7.64987 48.48 8.09994 48.22 8.56002 47.97C9.18002 47.67 9.81991 47.4001 10.4699 47.1501C11.4699 46.8101 12.4799 46.55 13.51 46.3301C14.49 46.1401 15.49 45.99 16.49 45.8801C16.6084 45.8674 16.7268 45.8538 16.8452 45.8398C16.9506 45.8274 17.0561 45.8146 17.1616 45.8018C17.4976 45.7609 17.8338 45.7201 18.17 45.6901C18.4882 45.6663 18.8054 45.6449 19.122 45.6242L19.5752 45.595C20.0426 45.565 20.51 45.535 20.9799 45.5001H21.06C23.56 45.4 26.0699 45.3 28.5799 45.29C31.7398 45.28 34.9099 45.29 38.0699 45.3H38.0886C42.6823 45.32 47.2762 45.34 51.87 45.2701C52.87 45.2601 53.86 45.22 54.86 45.17C55.76 45.13 56.66 45.04 57.55 44.8801C58.8499 44.65 60.15 44.3701 61.41 43.9601C62.66 43.5601 63.89 43.07 65.03 42.41C66.06 41.82 67.1099 41.1401 67.91 40.2601C68.6999 39.4001 69.4399 38.3701 69.5999 37.1901C69.7598 36.0701 69.5999 34.96 69.03 33.98C67.8599 31.97 65.67 30.72 63.54 29.93C61.07 29.02 58.4799 28.4 55.86 28.16C53.86 27.97 51.8499 27.9401 49.8399 28.05C49.4616 28.0715 49.082 28.0865 48.7025 28.1015C48.0186 28.1286 47.3352 28.1557 46.66 28.22L43.2099 28.55C42.784 28.5892 42.3606 28.6428 41.9382 28.7001L41.7194 28.7301L41.4703 28.7648L41.4677 28.7651C41.1849 28.8046 40.9024 28.8439 40.62 28.8801C39.0564 29.0847 37.4995 29.3229 35.9383 29.5616C35.5925 29.6145 35.2464 29.6674 34.9 29.72L34.6295 29.761C32.8706 30.0273 31.1197 30.2923 29.36 30.5301L29.1412 30.5604L28.8984 30.5944L28.8973 30.5946C28.1839 30.6946 27.4737 30.7942 26.75 30.86C26.2384 30.9051 25.7268 30.9528 25.2152 31.0005C24.7068 31.0478 24.1983 31.0952 23.6899 31.1401C22.8698 31.17 22.0399 31.2 21.2199 31.23C19.9199 31.27 18.6298 31.25 17.3299 31.16H17.36C16.0999 31.05 14.8499 30.9 13.5999 30.66C12.5699 30.44 11.5699 30.17 10.5799 29.8401C10.5457 29.8303 10.5117 29.8182 10.4776 29.806L10.4751 29.8051C10.4533 29.7974 10.4316 29.7896 10.4099 29.7824C10.3966 29.778 10.3833 29.7739 10.37 29.7701L10.4019 29.7766L10.4198 29.7805C10.4287 29.7825 10.4376 29.7847 10.4463 29.787C9.71859 29.5224 9.00961 29.2201 8.31002 28.8801C7.75997 28.6 7.23996 28.29 6.71994 27.9601C6.32992 27.68 5.94992 27.3901 5.58993 27.0801C5.34994 26.85 5.10995 26.6201 4.87997 26.3701C4.6799 26.1201 4.47995 25.8701 4.30001 25.61C4.27816 25.5706 4.25582 25.5312 4.23324 25.4918L4.19747 25.4293L4.14572 25.3392C4.09457 25.2495 4.04476 25.1598 3.99996 25.0701C3.94992 24.9601 3.89987 24.84 3.85995 24.73C3.81991 24.59 3.77987 24.4401 3.73996 24.3C3.70993 24.1 3.68002 23.9 3.66 23.6901V23.3401C3.68002 23.1001 3.70993 22.8701 3.74996 22.6301C3.8099 22.34 3.88986 22.07 3.97995 21.79C4.08993 21.51 4.19992 21.25 4.32992 20.98C4.50985 20.66 4.68991 20.34 4.88998 20.04C5.19992 19.59 5.55001 19.16 5.91 18.74C6.30001 18.3101 6.71994 17.9 7.14999 17.5101C7.60995 17.1201 8.07992 16.75 8.57992 16.41C9.26986 15.96 9.98995 15.55 10.7199 15.17C11.5899 14.74 12.4799 14.36 13.39 14.0301C14.78 13.5401 16.1999 13.16 17.63 12.8301C18.4299 12.67 19.2199 12.52 20.01 12.3701C20.6799 12.2501 21.3399 12.16 22.02 12.0701C22.6999 11.97 23.38 11.8701 24.06 11.8101C24.3217 11.7839 24.5824 11.7588 24.8427 11.7344C25.0913 11.7111 25.3393 11.6885 25.5877 11.6663C25.8745 11.6406 26.1616 11.6154 26.4499 11.5901C27.8299 11.5101 29.2099 11.44 30.5899 11.42C32.0699 11.39 33.56 11.3801 35.04 11.3801C42.63 11.36 50.2199 11.3801 57.8 11.8101C58.0197 11.8293 58.2389 11.8475 58.4575 11.8656L58.4619 11.866C59.1474 11.9228 59.8287 11.9792 60.51 12.0701C61.4 12.1901 62.28 12.32 63.16 12.48C63.8499 12.64 64.5098 12.8 65.1899 12.99L65.1914 12.9906C64.9011 13.142 64.6103 13.2915 64.3199 13.44C64.38 13.4 64.45 13.37 64.52 13.33C63.17 13.99 61.8399 14.66 60.4599 15.26C60.2621 15.348 60.0642 15.4382 59.8659 15.5286C59.3427 15.7671 58.8166 16.007 58.28 16.21C57.8315 16.3809 57.383 16.5518 56.9329 16.7196C56.5401 16.8661 56.1461 17.0102 55.75 17.15C55.46 17.25 55.16 17.34 54.87 17.42C54.06 17.25 53.2 17.68 52.87 18.46C52.49 19.35 52.92 20.4 53.81 20.78ZM66.15 35.99C66.1606 36.0646 66.1656 36.1392 66.1679 36.2137C66.1651 36.191 66.1623 36.1683 66.1599 36.1456C66.1541 36.0937 66.15 36.0419 66.15 35.99ZM4.3038 52.7769L4.30734 52.79L4.30856 52.8011L4.30624 52.7931C4.30343 52.7834 4.30001 52.7717 4.30001 52.7601C4.30001 52.7628 4.30075 52.7662 4.30172 52.7701L4.3038 52.7769ZM4.31491 52.8801C4.3132 52.8645 4.31149 52.8491 4.31063 52.8327C4.31478 52.8498 4.3171 52.867 4.31832 52.8842C4.31942 52.8987 4.31979 52.9133 4.31991 52.9279V52.9501C4.31991 52.9401 4.31955 52.9305 4.31893 52.9211C4.31796 52.9081 4.31662 52.8956 4.31527 52.883L4.31491 52.8801Z"
    fill="rgba(191, 192, 191, 1)" />
</svg>