<svg width="87" height="86" viewBox="0 0 87 86" fill="none" xmlns="http://www.w3.org/2000/svg">
  <path
    d="M2.29 83.28C1.43 81.9 0.970007 80.3 0.640007 78.73C0.300007 77.08 0.149998 75.41 0.349998 73.73C0.529998 72.2 1.15 70.6 2.23 69.47C4.38 67.22 7.86999 66.85 10.56 68.35C11.88 69.09 12.94 70.15 13.83 71.35C14.85 72.73 15.62 74.2599 16.54 75.6899C16.81 76.0799 17.08 76.46 17.38 76.83C17.59 77.06 17.81 77.28 18.04 77.49C18.19 77.61 18.34 77.73 18.5 77.85C18.7 77.97 18.89 78.0799 19.09 78.1899C19.37 78.3199 19.65 78.4401 19.94 78.5501C20.24 78.6401 20.53 78.71 20.83 78.78C21.16 78.83 21.48 78.88 21.81 78.91C22.07 78.92 22.33 78.9301 22.59 78.9201C22.89 78.8901 23.18 78.8501 23.48 78.8001C23.69 78.7501 23.9 78.69 24.11 78.62C24.33 78.53 24.55 78.44 24.76 78.35C24.92 78.26 25.08 78.17 25.24 78.07C25.44 77.93 25.62 77.78 25.8 77.64C25.97 77.48 26.14 77.31 26.3 77.14C26.39 77.04 26.46 76.93 26.54 76.83C26.71 76.57 26.86 76.31 27.01 76.04C27.15 75.74 27.28 75.42 27.4 75.1C27.52 74.71 27.63 74.3201 27.72 73.9201C27.81 73.4201 27.88 72.9301 27.92 72.4301C27.94 72.0001 27.94 71.57 27.92 71.14C27.88 70.67 27.81 70.21 27.72 69.75C27.6 69.19 27.44 68.63 27.27 68.08C26.93 67.14 26.52 66.23 26.08 65.33C26.08 65.34 26.09 65.35 26.1 65.37C25.46 64.14 24.75 62.9601 23.98 61.8101C22.86 60.1901 21.62 58.65 20.53 57.01C19.96 56.15 19.39 55.2901 18.82 54.4301C18.12 53.3801 17.52 52.24 16.94 51.13C16.3 49.89 15.71 48.62 15.19 47.33C14.17 44.83 13.42 42.23 12.94 39.58C12.47 36.99 12.34 34.2901 12.72 31.6801C12.89 30.5301 13.18 29.3899 13.64 28.32C14.13 27.1999 14.83 26.27 15.76 25.5C17.64 23.95 20.32 23.64 22.66 23.84C23.83 23.94 24.97 24.1701 26.08 24.5601C27.28 24.9801 28.37 25.5701 29.41 26.3001C31.52 27.7601 33.16 29.84 34.57 31.95C35.79 33.77 36.87 35.7 37.93 37.62C38.98 39.53 40 41.46 41 43.41C41.8 44.96 42.54 46.53 43.32 48.09C43.9 49.27 44.49 50.45 45.08 51.63C45.07 51.61 45.07 51.6 45.06 51.59C45.57 52.55 46.08 53.51 46.6 54.47C47.02 55.26 47.48 56.01 47.94 56.77C48.38 57.5 48.82 58.25 49.29 58.97C49.87 59.85 50.45 60.74 51.04 61.62C52.38 63.48 53.67 65.36 55.17 67.09C55.81 67.8 56.47 68.5 57.19 69.14C57.65 69.53 58.13 69.9 58.63 70.25C59 70.49 59.37 70.7101 59.75 70.9201C60.25 71.16 60.76 71.38 61.29 71.57C61.87 71.76 62.45 71.9201 63.05 72.0501C63.59 72.1501 64.14 72.24 64.69 72.29C65.01 72.3 65.32 72.29 65.64 72.28C65.89 72.25 66.13 72.2201 66.37 72.1801C66.48 72.1501 66.59 72.12 66.7 72.09C66.81 72.04 66.92 72 67.02 71.95C67.21 71.85 67.39 71.75 67.57 71.63C67.73 71.51 67.89 71.4 68.04 71.27C68.13 71.18 68.22 71.09 68.31 71C68.47 70.82 68.61 70.63 68.75 70.4399C68.98 70.09 69.19 69.74 69.38 69.37C69.57 68.94 69.74 68.51 69.9 68.07C70.13 67.38 70.32 66.68 70.47 65.96C70.61 65.19 70.72 64.42 70.8 63.64C70.84 62.95 70.84 62.28 70.8 61.59C70.74 60.95 70.65 60.31 70.53 59.67C70.37 58.93 70.16 58.21 69.92 57.5C69.6 56.63 69.24 55.79 68.83 54.96C68.39 54.12 67.91 53.31 67.39 52.51C66.47 51.16 65.46 49.87 64.37 48.63C64.42 48.69 64.47 48.7401 64.52 48.8001C62.62 46.6601 60.51 44.73 58.4 42.78C57.94 42.35 57.49 41.9 57.04 41.46C56.65 41.07 56.25 40.6901 55.86 40.3001C55.66 40.1101 55.45 39.93 55.27 39.73C54.66 39.05 54.06 38.3701 53.45 37.6801C53.03 37.2001 52.58 36.74 52.19 36.23C51.17 34.92 50.11 33.63 49.18 32.25C49.22 32.31 49.27 32.3699 49.31 32.4399C48.78 31.6599 48.26 30.88 47.73 30.1C47.74 30.12 47.75 30.13 47.76 30.14C47.62 29.93 47.47 29.71 47.33 29.5V29.51C47.3 29.46 47.27 29.42 47.24 29.37C47.24 29.37 47.24 29.37 47.23 29.37C46.69 28.55 46.23 27.6601 45.74 26.8001C44.88 25.3201 44.1 23.79 43.42 22.21C42.39 19.81 41.64 17.28 41.25 14.69C41.06 13.42 41.04 12.16 41.14 10.89C41.25 9.59002 41.66 8.34001 42.27 7.19001C43.37 5.13001 45.48 3.66999 47.7 3.04999C48.8 2.73999 49.95 2.74998 51.06 2.96998C52.34 3.21998 53.49 3.80999 54.59 4.49C55.61 5.12999 56.55 5.91003 57.44 6.71003C58.03 7.25003 58.61 7.78999 59.17 8.35999C59.91 9.09999 60.63 9.85001 61.33 10.63C62.54 11.95 63.64 13.36 64.72 14.78C65.93 16.37 66.95 18.12 68.26 19.64C68.48 19.88 68.71 20.11 68.96 20.34C69.17 20.51 69.37 20.67 69.59 20.82C69.7 20.8899 69.82 20.96 69.93 21.02C70.06 21.08 70.19 21.1399 70.33 21.1899C70.26 21.1699 70.19 21.14 70.11 21.12C70.23 21.17 70.35 21.21 70.47 21.23C70.55 21.24 70.63 21.25 70.7 21.26C70.74 21.26 70.78 21.26 70.82 21.26C70.86 21.26 70.89 21.25 70.93 21.24C70.97 21.23 71 21.22 71.04 21.21C71.1 21.19 71.16 21.16 71.22 21.14C71.19 21.16 71.15 21.1799 71.12 21.1899C71.21 21.1499 71.3 21.1001 71.38 21.0501C71.44 21.0001 71.5 20.96 71.55 20.92C71.69 20.79 71.82 20.65 71.95 20.51C72.1 20.33 72.25 20.14 72.38 19.95C73.04 18.91 73.59 17.83 74.19 16.75C74.61 16.02 75.01 15.28 75.41 14.54C75.58 14.17 75.75 13.79 75.91 13.42C75.35 12.58 74.79 11.75 74.25 10.9C73.46 9.65003 72.66 8.39998 71.96 7.09998C71.68 6.57998 71.42 6.05001 71.19 5.51001C70.98 5.04001 70.79 4.48999 70.72 3.97999C70.65 3.49999 70.64 2.99998 70.82 2.53998C71.02 2.02998 71.34 1.54 71.82 1.25C72.49 0.860005 73.28 0.900019 74.03 0.890019C74.49 0.890019 74.96 0.88 75.42 0.87C76.44 0.86 77.47 0.869975 78.49 0.969975C79.58 1.07998 80.66 1.33002 81.6 1.89002C81.89 2.06002 82.15 2.28003 82.38 2.53003C82.91 2.24003 83.57 2.19999 84.1 2.54999C84.28 2.66999 84.43 2.80003 84.57 2.96003C84.91 3.37003 85.06 3.88 85 4.37C85 4.38 85 4.38998 85 4.40998C85.2 7.29998 85.79 10.15 86.14 13.03C86.22 13.72 86.28 14.4 86.31 15.1C86.35 15.8 86.41 16.4999 86.4 17.1899C86.38 18.0699 86.37 18.95 86.32 19.83C86.26 20.84 86.19 21.87 85.94 22.86C85.77 23.57 85.54 24.35 84.91 24.79C84.29 25.22 83.61 25.25 82.93 24.92C82.52 24.71 82.28 24.3299 82.06 23.9399C81.85 23.5699 81.65 23.19 81.45 22.82C81.03 22.0499 80.61 21.27 80.18 20.5C79.52 19.31 78.83 18.14 78.13 16.97C77.84 17.51 77.52 18.0399 77.22 18.57C76.71 19.4699 76.24 20.39 75.7 21.28C74.85 22.67 73.71 24.13 72.06 24.6C68.72 25.55 66.01 22.78 64.26 20.29C63.47 19.18 62.71 18.04 61.89 16.95C61.46 16.37 61.04 15.77 60.57 15.22C60.09 14.65 59.62 14.08 59.14 13.51C57.81 12.06 56.46 10.63 54.99 9.29999C54.32 8.71999 53.63 8.16998 52.91 7.65998C52.5 7.38998 52.09 7.14999 51.66 6.91999C51.45 6.81999 51.24 6.73002 51.02 6.64002C50.8 6.57002 50.58 6.51002 50.36 6.45002C50.16 6.41002 49.97 6.38999 49.77 6.35999C49.58 6.34999 49.4 6.34999 49.22 6.35999C49.1 6.36999 48.99 6.38998 48.87 6.40998C48.62 6.46998 48.38 6.52999 48.14 6.60999C47.94 6.68999 47.75 6.76999 47.55 6.85999C47.35 6.96999 47.16 7.09003 46.96 7.21003C46.77 7.34003 46.59 7.48 46.41 7.62C46.26 7.76 46.11 7.90999 45.96 8.04999C45.82 8.21999 45.68 8.39001 45.55 8.57001C45.43 8.75001 45.32 8.95002 45.21 9.14002C45.11 9.35002 45.02 9.56998 44.94 9.78998C44.87 10.04 44.8 10.29 44.74 10.54C44.68 10.89 44.63 11.23 44.61 11.58C44.59 12.05 44.59 12.52 44.61 12.99C44.68 13.81 44.8 14.61 44.95 15.42C45.2 16.6 45.53 17.76 45.92 18.9C46.38 20.18 46.91 21.43 47.51 22.65C48.35 24.31 49.3 25.9 50.23 27.51C50.35 27.69 50.46 27.86 50.58 28.03C50.57 28.01 50.56 28 50.55 27.99C51.07 28.77 51.6 29.55 52.13 30.33C52.09 30.27 52.04 30.21 52 30.14C52.21 30.45 52.42 30.76 52.63 31.07C52.59 31.01 52.55 30.94 52.51 30.88C52.89 31.45 53.36 31.98 53.78 32.52C54.24 33.11 54.7 33.7 55.16 34.29C55.82 35.04 56.49 35.78 57.15 36.52C57.68 37.11 58.22 37.66 58.79 38.22C59.43 38.85 60.06 39.5 60.73 40.11C61.56 40.88 62.4 41.65 63.23 42.42C67.01 45.9 70.48 49.95 72.59 54.67C73.64 57.03 74.22 59.55 74.34 62.12C74.39 63.36 74.25 64.61 74.05 65.83C73.84 67.13 73.48 68.39 73.05 69.64C72.66 70.76 72.08 71.78 71.39 72.75C70.69 73.72 69.73 74.49 68.67 75.04C66.47 76.17 63.9 75.86 61.59 75.32C59.18 74.76 56.99 73.57 55.1 72C54.17 71.23 53.35 70.36 52.55 69.46C51.79 68.61 51.04 67.72 50.38 66.79C49.72 65.85 49.04 64.92 48.38 63.99C47.86 63.26 47.38 62.51 46.89 61.76C46.43 61.07 45.97 60.38 45.55 59.67C45.2 59.1 44.86 58.52 44.51 57.95C44.31 57.61 44.09 57.2899 43.9 56.9399C43.33 55.8699 42.76 54.8 42.19 53.73C41.74 52.88 41.33 52.02 40.9 51.16C39.97 49.28 39.06 47.4 38.12 45.52C37.16 43.66 36.2 41.81 35.19 39.98C34 37.82 32.78 35.65 31.42 33.59C30.84 32.74 30.22 31.94 29.54 31.17C29.15 30.74 28.74 30.3299 28.31 29.9399C27.92 29.6099 27.51 29.29 27.09 28.99C26.73 28.76 26.36 28.54 25.98 28.34C25.6 28.16 25.21 28 24.82 27.86C24.41 27.73 24 27.62 23.59 27.52C23.16 27.44 22.73 27.39 22.3 27.34C21.83 27.31 21.35 27.2999 20.89 27.32C20.55 27.35 20.21 27.39 19.87 27.45C19.57 27.52 19.27 27.5999 18.97 27.6899C18.86 27.7299 18.75 27.78 18.64 27.83C18.44 27.94 18.25 28.05 18.06 28.17C17.95 28.25 17.83 28.3399 17.73 28.4399C17.65 28.5099 17.58 28.58 17.51 28.66C17.44 28.74 17.39 28.82 17.32 28.9C17.2 29.11 17.08 29.31 16.96 29.52C16.83 29.8 16.71 30.09 16.6 30.38C16.51 30.69 16.42 31.0001 16.35 31.3101C16.2 32.0601 16.1 32.8001 16.04 33.5601C16 34.3701 16 35.17 16.04 35.98C16.14 37.29 16.31 38.58 16.57 39.86C16.88 41.31 17.27 42.72 17.74 44.13C18.33 45.83 19.04 47.47 19.84 49.08C20.54 50.45 21.29 51.79 22.14 53.07C22.6 53.77 23.06 54.45 23.52 55.15C24.69 56.76 25.9 58.35 27.01 60.01C28.43 62.13 29.67 64.37 30.53 66.78C30.95 67.95 31.24 69.1801 31.38 70.4201C31.53 71.66 31.44 72.92 31.24 74.15C30.87 76.43 29.91 78.63 28.2 80.22C26.52 81.77 24.27 82.5 22.01 82.47C19.76 82.45 17.44 81.66 15.72 80.1899C13.79 78.5499 12.77 76.2 11.4 74.12C11.09 73.67 10.77 73.2301 10.42 72.8001C10.18 72.5401 9.93999 72.3001 9.67999 72.0601C9.51999 71.9301 9.34999 71.8001 9.17999 71.6801C9.04998 71.6001 8.92 71.52 8.79 71.45C8.61 71.37 8.42999 71.29 8.24999 71.21C8.04999 71.15 7.84999 71.1001 7.64999 71.0501C7.52999 71.0301 7.41 71.01 7.29 71C7.09 70.99 6.9 70.99 6.7 71C6.61 71.01 6.51998 71.0201 6.42998 71.04C6.22998 71.09 6.03999 71.14 5.83999 71.2C5.73999 71.24 5.63998 71.28 5.54998 71.33C5.43998 71.39 5.31998 71.45 5.20998 71.53C5.13998 71.59 5.06 71.65 4.98 71.71C4.9 71.79 4.81999 71.87 4.74999 71.95C4.65999 72.06 4.56998 72.18 4.48998 72.29C4.43998 72.38 4.37998 72.4701 4.32998 72.5601C4.24998 72.7401 4.17 72.91 4.1 73.09C4.03 73.32 3.95999 73.55 3.89999 73.78C3.83999 74.11 3.79998 74.44 3.76998 74.78C3.74998 75.16 3.75998 75.52 3.76998 75.9C3.82998 76.6 3.92999 77.3 4.05999 77.99C4.21999 78.74 4.42998 79.48 4.67998 80.22C4.76998 80.46 4.87 80.7 4.98 80.9399C5.08 81.13 5.18 81.31 5.29 81.49C5.31 81.51 5.31998 81.5301 5.32998 81.5501C6.09998 81.7401 6.67998 82.45 6.67998 83.26C6.67998 84.22 5.88 85.03 4.91 85.03C3.79 85 2.87 84.22 2.29 83.28ZM80.82 10.84C80.49 11.57 80.21 12.33 79.91 13.08C80.26 13.63 80.61 14.17 80.95 14.72C81.61 15.8 82.26 16.89 82.88 17.99C82.88 17.65 82.89 17.32 82.9 16.98C82.91 16.53 82.85 16.07 82.83 15.61C82.81 15.2 82.79 14.79 82.77 14.37C82.68 13.57 82.6 12.76 82.47 11.96C82.32 11 82.16 10.04 82.01 9.08002C81.97 8.87002 81.94 8.65001 81.91 8.44001C81.56 9.25001 81.19 10.04 80.82 10.84ZM74.61 4.43C74.66 4.54 74.71 4.65001 74.77 4.76001C75.59 6.39001 76.56 7.93003 77.56 9.46003C78.21 7.92003 79.01 6.42999 79.6 4.85999C79.6 4.84999 79.6 4.84003 79.61 4.84003C79.55 4.82003 79.5 4.79002 79.44 4.77002C79.31 4.73002 79.17 4.68998 79.03 4.65998C78.64 4.58998 78.24 4.52999 77.83 4.49C77.19 4.46 76.56 4.44001 75.92 4.44001C75.87 4.44001 75.82 4.44001 75.77 4.44001C75.39 4.43001 75 4.43 74.61 4.43Z"
    fill="rgba(191, 192, 191, 1)" />
  <path d="M47.34 29.52C47.34 29.52 47.35 29.53 47.35 29.54C47.35 29.52 47.34 29.52 47.34 29.52Z"
    fill="rgba(191, 192, 191, 1)" />
  <path d="M47.35 29.53C47.35 29.53 47.35 29.54 47.36 29.54C47.36 29.54 47.36 29.54 47.35 29.53Z"
    fill="rgba(191, 192, 191, 1)" />
  <path d="M47.24 29.36C47.24 29.36 47.25 29.37 47.25 29.38C47.24 29.37 47.24 29.36 47.24 29.36Z"
    fill="rgba(191, 192, 191, 1)" />
  <path d="M45.96 18.95C45.96 18.96 45.96 18.96 45.97 18.97C45.97 18.96 45.97 18.96 45.96 18.95Z"
    fill="rgba(191, 192, 191, 1)" />
</svg>