<svg width="71" height="75" viewBox="0 0 71 75" fill="none" xmlns="http://www.w3.org/2000/svg">
  <path fill-rule="evenodd" clip-rule="evenodd"
    d="M29.6501 74.22C24.2701 73.77 18.87 72.43 14.22 69.62C9.73 66.9 6.12998 62.84 3.68998 58.22C2.46997 55.91 1.58004 53.42 1.01004 50.88C0.420043 48.26 0.220043 45.56 0.260043 42.88C0.350043 37.44 1.51004 31.99 3.88004 27.08C6.20004 22.27 9.61008 18.03 13.4201 14.32C14.6701 13.1 15.98 11.94 17.33 10.82C18.13 10.16 18.9401 9.50004 19.7801 8.89004L23.47 6.21999C24.5 5.46999 25.61 4.80005 26.7 4.15005C28.15 3.30005 29.65 2.53003 31.19 1.88003C32.72 1.24003 34.31 0.760032 35.94 0.480032C37.49 0.220032 39.06 0.270013 40.61 0.460013C41.45 0.560013 42.09 1.30001 42.14 2.11001C42.64 1.99001 43.2001 2.10003 43.6601 2.42003C44.5577 3.042 45.4503 3.66897 46.3449 4.29739C46.7159 4.55796 47.0878 4.81922 47.46 5.08004L47.64 5.20003C47.6301 5.19503 47.6225 5.19003 47.615 5.18502C47.6075 5.18002 47.6 5.175 47.59 5.17C48.03 5.46501 48.47 5.76253 48.91 6.06004L48.9116 6.06113C49.3511 6.35826 49.7906 6.6554 50.23 6.95003C50.208 6.93536 50.186 6.91933 50.1635 6.90295L50.1463 6.89048C50.631 7.21008 51.1273 7.51427 51.6246 7.81907C51.8632 7.96528 52.1022 8.11177 52.34 8.26003C52.7892 8.54079 53.2414 8.81863 53.6937 9.09658C54.6912 9.70954 55.6901 10.3233 56.6601 10.97C58.8401 12.43 60.87 14.07 62.64 16.02C64.4 17.95 65.8501 20.14 67.0501 22.46C68.2701 24.83 69.18 27.35 69.82 29.94C70.46 32.54 70.77 35.23 70.89 37.91C71.01 40.63 70.9101 43.36 70.6501 46.07C70.3801 48.8 69.89 51.52 69.09 54.15C68.34 56.61 67.2101 58.97 65.7901 61.11C64.3801 63.23 62.66 65.09 60.73 66.74C56.66 70.22 51.54 72.26 46.35 73.36C42.7 74.13 38.9901 74.46 35.2801 74.46C33.4101 74.47 31.5301 74.38 29.6501 74.22ZM50.0401 6.82003C50.0754 6.8436 50.1109 6.86708 50.1463 6.89048C50.1128 6.86618 50.0779 6.84164 50.0401 6.82003ZM8.31009 59.07C9.00009 60.07 9.74006 61.03 10.5301 61.95C11.2001 62.69 11.9 63.39 12.64 64.06C13.46 64.77 14.31 65.43 15.2 66.04C15.96 66.54 16.7401 67 17.5401 67.42C18.7001 68 19.89 68.49 21.11 68.93C22.4 69.36 23.7101 69.7 25.0401 69.98C27.1301 70.39 29.24 70.66 31.36 70.8C33.81 70.95 36.27 70.98 38.72 70.83C41.02 70.67 43.3001 70.37 45.5601 69.91C47.0749 69.5811 48.5599 69.1828 50.0251 68.695C50.0201 68.6975 50.015 68.7 50.01 68.7C50.0166 68.7 50.022 68.699 50.0268 68.6972C50.0312 68.6955 50.0351 68.6932 50.0386 68.6905C50.0425 68.6875 50.0466 68.6835 50.0501 68.68C50.0601 68.675 50.0701 68.6725 50.08 68.67C50.09 68.6675 50.1 68.665 50.11 68.66H50.12C50.16 68.65 50.19 68.64 50.23 68.62L50.2263 68.6201C51.397 68.2049 52.5479 67.7312 53.6601 67.18C54.6401 66.67 55.5901 66.11 56.5201 65.5C57.3701 64.91 58.18 64.28 58.96 63.61C59.66 62.97 60.34 62.31 60.97 61.6C61.64 60.83 62.26 60.02 62.84 59.17C63.39 58.34 63.88 57.49 64.33 56.6C64.3141 56.6279 64.2997 56.6557 64.2857 56.6829C64.2645 56.7241 64.2441 56.7639 64.22 56.8C64.71 55.79 65.15 54.76 65.51 53.71C65.92 52.45 66.2501 51.16 66.5301 49.87C66.9101 47.93 67.1401 45.98 67.2801 44.01C67.4301 41.65 67.4401 39.28 67.3001 36.92C67.3051 36.96 67.3076 37 67.31 37.04C67.3125 37.08 67.315 37.12 67.32 37.16C67.2 35.36 66.97 33.56 66.62 31.79C66.33 30.43 65.95 29.1 65.51 27.79C65.09 26.63 64.61 25.5 64.08 24.4C63.5 23.26 62.8701 22.17 62.1601 21.11C61.5767 20.2641 60.9459 19.4465 60.2771 18.6664C59.5549 17.8642 58.7954 17.0991 57.99 16.38C56.96 15.5 55.87 14.71 54.75 13.95C53.688 13.242 52.5954 12.5763 51.5031 11.9108C50.3503 11.2084 49.1978 10.5062 48.0817 9.75459C48.0886 9.75789 48.0954 9.76003 48.1 9.76003C47.6751 9.47508 47.2527 9.19013 46.8303 8.90518C46.4077 8.62012 45.9852 8.33506 45.5601 8.05001C45.5815 8.06429 45.6029 8.07984 45.6248 8.09576C44.6119 7.41305 43.6182 6.71093 42.6224 6.00727L42.6212 6.00643C42.2548 5.74753 41.8881 5.48843 41.5201 5.23C41.0901 4.93 40.86 4.43 40.84 3.92C40.62 3.98 40.3901 3.99999 40.1601 3.96999C39.8201 3.91999 39.4901 3.89001 39.1501 3.86001L39.1379 3.85954C38.6221 3.8397 38.116 3.82023 37.61 3.85C37.04 3.9 36.4701 3.98004 35.9101 4.08004C35.2701 4.22004 34.6401 4.39 34.0201 4.6C32.8758 5.00385 31.7686 5.47247 30.6805 6.01466C30.707 6.00274 30.7335 5.99137 30.76 5.98C29.03 6.87 27.37 7.88003 25.74 8.95003C25.4421 9.16533 25.1451 9.38063 24.8485 9.59567L24.8467 9.59698C24.1382 10.1105 23.4314 10.6229 22.72 11.13C21.14 12.27 19.6201 13.49 18.1501 14.77C16.4338 16.2999 14.7753 17.9067 13.2405 19.6282C12.012 21.0371 10.8327 22.4948 9.76004 24.0301C8.84004 25.41 7.99002 26.82 7.24002 28.3C6.65002 29.51 6.13009 30.75 5.68009 32.0301C5.69509 31.9951 5.70758 31.96 5.72007 31.925C5.73255 31.89 5.74504 31.855 5.76004 31.82C5.27004 33.23 4.87009 34.67 4.56009 36.14C4.23009 37.85 4.01004 39.57 3.88004 41.3C3.79068 42.7595 3.79003 44.219 3.86832 45.6785C3.86695 45.6709 3.86448 45.6645 3.86002 45.66C3.86002 45.675 3.86252 45.69 3.86502 45.705C3.86753 45.72 3.87003 45.735 3.87003 45.75C3.87003 45.775 3.87253 45.8 3.87503 45.825C3.87754 45.85 3.88004 45.875 3.88004 45.9V45.81C3.98004 47.13 4.15006 48.44 4.40006 49.75C4.63006 50.82 4.92004 51.87 5.26004 52.91C5.64879 54.0164 6.09714 55.103 6.62491 56.1697C7.12374 57.1564 7.69211 58.1331 8.31009 59.07ZM3.87003 45.71C3.87003 45.699 3.87003 45.6879 3.86832 45.6785L3.87003 45.71ZM45.6248 8.09576L45.75 8.18001C45.7057 8.1547 45.6655 8.12538 45.6267 8.09713L45.6248 8.09576ZM48.0601 9.74001C48.0655 9.74539 48.0737 9.75076 48.0817 9.75459L48.0601 9.74001ZM50.1705 68.6399L50.2263 68.6201C50.2077 68.6212 50.1891 68.6305 50.1705 68.6399ZM50.0386 68.6905C50.0341 68.692 50.0296 68.6935 50.0251 68.695C50.0298 68.6927 50.0339 68.6908 50.0386 68.6905ZM13.2464 19.6215C13.2643 19.6017 13.2822 19.5815 13.3001 19.56L13.2464 19.6215ZM43.82 56.57C43.81 56.57 43.7901 56.57 43.7801 56.56C43.555 56.5173 43.3439 56.4387 43.1546 56.3305C42.9964 56.3546 42.8382 56.37 42.68 56.37C42.4354 56.37 42.2136 56.3089 41.9881 56.2468C41.9555 56.2379 41.9228 56.2288 41.89 56.22C41.56 56.12 41.2699 55.93 40.9799 55.74C40.8096 55.6265 40.6433 55.509 40.4784 55.3925C40.3819 55.3243 40.2859 55.2565 40.1899 55.19C39.9562 55.04 39.7206 54.8923 39.4849 54.7445C38.7626 54.2917 38.0385 53.8378 37.3599 53.31C37.125 53.13 36.895 52.9426 36.665 52.7551C36.435 52.5676 36.2049 52.3801 35.9699 52.2C35.5569 51.8903 35.144 51.5868 34.726 51.2797C34.6177 51.2001 34.509 51.1203 34.4 51.04C33.13 50.22 31.82 49.45 30.51 48.71C29.13 47.93 27.83 47.06 26.52 46.17C25.6111 45.5808 24.6823 45.0215 23.7535 44.4622L23.75 44.46C23.1274 44.0909 22.5206 43.6955 21.9144 43.3005C21.6831 43.1498 21.4519 42.9991 21.2199 42.85C20.5361 42.4069 19.845 41.9754 19.1538 41.5439C18.0358 40.8459 16.9176 40.1478 15.8299 39.4C15.2099 39.06 14.83 38.31 14.92 37.6C14.9526 37.3539 15.0345 37.1298 15.154 36.9339C15.186 36.719 15.2597 36.5121 15.3801 36.33C15.5001 36.15 15.6101 36.01 15.7601 35.87L15.7401 35.895C15.7094 35.9338 15.6832 35.9669 15.6501 36C15.6301 36.02 15.62 36.04 15.61 36.06C15.67 35.98 15.7401 35.9 15.8101 35.83C15.8235 35.8166 15.8372 35.8029 15.8536 35.7896C15.8524 35.7898 15.8512 35.79 15.85 35.79C15.8618 35.7782 15.8735 35.77 15.8832 35.7631C15.8901 35.7583 15.8959 35.7541 15.9001 35.75C15.9001 35.75 15.9101 35.75 15.9101 35.74C16.2001 35.49 16.57 35.35 16.94 35.32C17.5197 34.9897 18.0903 34.6276 18.6579 34.2674C18.9324 34.0933 19.2063 33.9195 19.48 33.75C20.0403 33.4052 20.6044 33.0642 21.17 32.7223L21.1711 32.7216C21.5237 32.5085 21.8769 32.295 22.23 32.08C22.7568 31.76 23.2924 31.4666 23.828 31.1732C24.0957 31.0266 24.3634 30.8799 24.6301 30.73C25.3801 30.31 26.1301 29.9 26.8901 29.49L26.8917 29.4891C28.5812 28.5894 30.2706 27.6897 31.9201 26.7C32.8401 26.15 33.76 25.59 34.69 25.02C35.48 24.53 36.2901 24.04 37.1301 23.64C37.8601 23.29 38.6 22.97 39.35 22.68C39.677 22.5476 40.0161 22.4395 40.3532 22.3321C40.4491 22.3015 40.5448 22.271 40.6401 22.24C40.7801 22.2 40.93 22.16 41.08 22.12C41.62 21.97 42.1301 21.94 42.6701 22.01C43.5001 22.12 44.2601 22.76 44.6701 23.46C45.1127 24.2187 45.2044 25.1324 45.2917 26.0022C45.301 26.0954 45.3103 26.1881 45.32 26.28C45.5105 27.9656 45.5196 29.6784 45.5287 31.3752L45.5301 31.63C45.5322 32.3935 45.5312 33.1571 45.5302 33.9205C45.5263 36.7566 45.5225 39.5914 45.6801 42.42V42.41C45.7366 43.1405 45.8005 43.8711 45.8645 44.6016C45.9817 45.9411 46.0989 47.2805 46.1701 48.62C46.2201 49.62 46.24 50.63 46.19 51.63C46.1799 51.7734 46.1705 51.9167 46.1611 52.0601C46.1331 52.4867 46.105 52.9134 46.0601 53.34C46.0001 53.98 45.9301 54.66 45.7601 55.29C45.5701 56.01 44.85 56.6 44.09 56.6C44 56.6 43.91 56.59 43.82 56.57ZM19.7525 37.7391C19.7947 37.7125 19.8372 37.686 19.8801 37.66C20.3401 37.38 20.7901 37.1 21.2501 36.81C21.8854 36.4129 22.526 36.0262 23.168 35.6387L23.1714 35.6367C23.4175 35.4881 23.6638 35.3394 23.9101 35.19C25.2571 34.3693 26.6438 33.6282 28.0278 32.8886C28.1953 32.7991 28.3627 32.7096 28.5301 32.62C28.7743 32.4885 29.019 32.3572 29.2638 32.2258L29.2658 32.2247C30.7144 31.4473 32.1691 30.6665 33.58 29.82C34.0417 29.5436 34.501 29.2633 34.9604 28.983C36.1629 28.2494 37.3655 27.5156 38.61 26.85C39.44 26.47 40.2701 26.11 41.1301 25.8C41.3101 25.74 41.5001 25.68 41.6801 25.63C41.7801 26.26 41.8401 26.9 41.8901 27.54V27.65C41.9001 27.68 41.9001 27.71 41.9001 27.74C42.0001 29.6397 41.9959 31.5534 41.9917 33.4636C41.9909 33.8457 41.9901 34.2283 41.9901 34.61C41.9901 34.963 41.9894 35.316 41.9888 35.6688L41.9888 35.6748C41.9869 36.7393 41.9851 37.8025 42.0001 38.86C42.0201 40.42 42.09 41.98 42.21 43.53C42.2633 44.194 42.3237 44.8604 42.3843 45.5291C42.4486 46.2398 42.5133 46.954 42.57 47.67C42.65 49.17 42.68 50.66 42.61 52.17C42.5987 52.2947 42.5866 52.4188 42.5739 52.5424C42.2682 52.3266 41.9618 52.1131 41.64 51.92C41.19 51.65 40.74 51.37 40.3 51.08C39.798 50.7242 39.3203 50.3442 38.8411 49.963C38.5661 49.7442 38.2907 49.5251 38.01 49.31C37.12 48.62 36.2 47.99 35.25 47.38C34.4759 46.8901 33.6539 46.429 32.8497 45.9779L32.8 45.95C31.93 45.46 31.0699 44.96 30.2299 44.43C29.9729 44.255 29.7166 44.077 29.4599 43.8987C28.7776 43.4249 28.092 42.9487 27.38 42.52C27.0281 42.3062 26.6728 42.0971 26.3171 41.8878C25.6416 41.4904 24.9651 41.0924 24.31 40.66C22.9262 39.7512 21.5377 38.8709 20.1476 37.9897C20.0159 37.9062 19.8842 37.8227 19.7525 37.7391Z"
    fill="rgba(191, 192, 191, 1)" />
</svg>