<svg width="76" height="80" viewBox="0 0 76 80" fill="none" xmlns="http://www.w3.org/2000/svg">
  <path
    d="M15.4499 78.47C14.6899 78.02 13.94 77.56 13.26 77C12.58 76.45 11.9199 75.89 11.2199 75.38C10.7099 75.04 10.2 74.74 9.65999 74.45C8.79999 74.04 7.95995 73.63 7.11995 73.18C6.23995 72.72 5.43997 72.08 4.63997 71.5C3.72997 70.84 2.77997 70.21 1.88997 69.52C1.08997 68.89 0.379979 68.13 0.149979 67.11C-0.0600211 66.2 0.269974 65.3 0.769974 64.54C1.29997 63.72 1.87992 62.94 2.45992 62.16C2.99992 61.45 3.57993 60.74 4.22993 60.11C5.54993 58.82 6.90991 57.58 8.20992 56.29C8.85991 55.65 9.47995 54.97 10.1199 54.32C10.7799 53.64 11.45 52.98 12.14 52.33C13.54 50.98 14.8799 49.57 16.2199 48.16C17.4699 46.85 18.7999 45.62 20.0699 44.34C21.3699 43.02 22.61 41.65 23.92 40.34C25.2 39.05 26.53 37.84 27.88 36.63C29.35 35.32 30.8299 34.01 32.3199 32.71C33.6099 31.59 34.96 30.55 36.3 29.48C37.69 28.37 39.04 27.22 40.38 26.06C41.06 25.47 42.1299 25.62 42.7299 26.24C42.5599 25.72 42.63 25.13 43.01 24.65C43.58 23.92 44.7699 23.7 45.4899 24.33C46.3699 25.09 47.2799 25.78 48.2399 26.44C49.2399 27.09 50.3499 27.64 51.2299 28.45C51.6699 28.85 52.09 29.27 52.52 29.68C53.08 30.21 53.6599 30.7 54.2299 31.22C55.2999 32.22 56 33.54 56 35.02C55.99 36.45 54.97 37.51 54.02 38.46C53.14 39.34 52.26 40.23 51.43 41.15C50.27 42.52 49.1999 43.95 48.1899 45.43C47.6499 46.21 47.12 47 46.56 47.77C46.04 48.48 45.4899 49.18 44.9599 49.88C42.6499 52.93 40.2299 55.88 37.8199 58.85C36.5399 60.43 35.14 61.91 33.78 63.42C32.37 64.99 30.92 66.54 29.51 68.11C28.4 69.42 27.33 70.75 26.28 72.11C25.14 73.57 24.01 75.03 22.91 76.53C21.94 77.85 20.97 79.41 19.28 79.82C19.07 79.87 18.87 79.89 18.67 79.89C17.46 79.88 16.4499 79.06 15.4499 78.47ZM3.99995 66.05C3.90995 66.19 3.82995 66.32 3.74995 66.46C3.74995 66.46 3.75996 66.47 3.75996 66.48C4.58996 67.19 5.50996 67.78 6.37996 68.41C6.94996 68.82 7.51992 69.23 8.08992 69.64C8.59992 69.96 9.11998 70.25 9.64998 70.53C10.85 71.1 12.03 71.67 13.14 72.42C14.2 73.13 15.14 74.02 16.17 74.78C16.54 75.01 16.9 75.23 17.27 75.45C17.71 75.71 18.1299 75.99 18.5699 76.25C18.6899 76.13 18.8 76.01 18.92 75.89C19.63 75.01 20.2599 74.07 20.9399 73.18C21.5599 72.36 22.1899 71.54 22.8299 70.73C24.0299 69.19 25.2199 67.64 26.4899 66.16C27.7199 64.72 29.03 63.36 30.31 61.96C31.6 60.55 32.87 59.13 34.14 57.7C34.13 57.71 34.1199 57.72 34.1199 57.72C35.3499 56.26 36.54 54.75 37.75 53.27C38.9 51.87 40.04 50.47 41.13 49.03C42.26 47.55 43.4299 46.08 44.4799 44.54C45.5299 43.01 46.5699 41.49 47.7299 40.04C48.3799 39.23 49.07 38.45 49.78 37.69C50.57 36.85 51.4199 36.08 52.2099 35.23C52.2699 35.16 52.33 35.09 52.38 35.02C52.4 35 52.41 34.97 52.42 34.95C52.42 34.94 52.4299 34.93 52.4399 34.91C52.4399 34.9 52.4399 34.89 52.4499 34.89V34.88C52.4499 34.86 52.4499 34.85 52.4499 34.84C52.4499 34.82 52.4499 34.8 52.4399 34.77C52.4299 34.73 52.42 34.68 52.41 34.64C52.39 34.59 52.3699 34.55 52.3499 34.5C52.3099 34.43 52.2699 34.36 52.2299 34.29C52.1799 34.22 52.1299 34.15 52.0699 34.08C51.4799 33.44 50.78 32.87 50.14 32.29C49.69 31.88 49.2699 31.45 48.8299 31.04C48.6799 30.92 48.5299 30.81 48.3699 30.7C47.5099 30.15 46.64 29.63 45.8 29.04C44.94 28.45 44.1199 27.81 43.3399 27.13C43.2799 27.08 43.22 27.02 43.17 26.96C43.37 27.64 43.12 28.38 42.55 28.87C41.07 30.16 39.57 31.42 38.03 32.64C36.3 34.02 34.59 35.43 32.92 36.89C32.98 36.84 33.0299 36.79 33.0899 36.74C31.6599 38.02 30.23 39.29 28.8 40.57C27.37 41.84 26.0599 43.23 24.7399 44.61C23.4399 45.97 22.12 47.31 20.77 48.61C19.44 49.9 18.2 51.27 16.9 52.61C15.92 53.61 14.92 54.59 13.92 55.56C13.03 56.42 12.1899 57.32 11.3199 58.2C10.4199 59.13 9.48999 60.04 8.53999 60.93C7.62999 61.79 6.70996 62.63 5.87996 63.57C5.92996 63.52 5.97998 63.46 6.02998 63.4C5.29998 64.25 4.63995 65.14 3.99995 66.05Z"
    fill="rgba(191, 192, 191, 1)" />
  <path
    d="M67.42 38.11C67.06 38.06 66.72 37.94 66.38 37.8C65.59 37.47 64.92 36.78 64.31 36.19C63.47 35.38 62.75 34.48 61.99 33.6C60.95 32.51 59.8799 31.47 58.9499 30.27C57.9599 29 56.9899 27.72 55.9499 26.48C55.9999 26.53 56.05 26.59 56.1 26.65C55.63 26.13 55.16 25.6 54.67 25.1C54.21 24.63 53.72 24.19 53.23 23.74C52.41 23.09 51.58 22.47 50.73 21.87C49.96 21.35 49.18 20.84 48.39 20.35C47.55 19.83 46.6899 19.36 45.8299 18.89C42.9599 17.3 39.27 16.18 38 12.84C37.61 11.84 37.59 10.72 37.68 9.66999C37.77 8.58999 38.3499 7.66 39.1999 7.02C39.8099 6.56 40.57 6.29999 41.27 6.00999C41.7 5.82999 42.1499 5.68 42.5899 5.53C44.3899 4.91 46.22 4.40999 48.06 3.91999C49.87 3.44999 51.71 3.07999 53.52 2.61999C55.36 2.14999 57.19 1.66 59.05 1.27C60.85 0.890001 62.7 0.739994 64.53 0.559994C65.56 0.449994 66.59 0.349996 67.62 0.249996C68.5 0.159996 69.38 0.0699897 70.26 0.0399897C70.98 0.0199897 71.69 0.00999402 72.41 0.059994C72.37 0.059994 72.34 0.0599995 72.3 0.0499995C72.77 0.0699995 73.25 0.119997 73.66 0.359997C74.03 0.569997 74.27 0.899995 74.43 1.28C74.54 1.52 74.5799 1.78 74.5699 2.05C74.9099 2.49 75.26 2.92999 75.51 3.42999C75.95 4.29999 75.92 5.17999 75.63 6.08999C75.4 6.81999 75.17 7.55999 74.99 8.30999C74.82 9.19999 74.6499 10.1 74.4599 10.99C74.3199 11.76 74.17 12.53 74.02 13.29C73.98 13.47 73.95 13.65 73.91 13.82C73.66 15.11 73.4099 16.41 73.2099 17.71C73.1099 18.37 73.02 19.04 72.87 19.69C72.72 20.35 72.55 21 72.39 21.65C72.26 22.32 72.14 22.99 72.03 23.65C71.89 24.51 71.73 25.37 71.66 26.25C71.59 27.72 71.6799 29.19 71.6999 30.65C71.7199 31.76 71.66 32.85 71.51 33.95C71.42 34.58 71.25 35.17 71.04 35.77C70.82 36.38 70.41 37.06 69.86 37.44C69.41 37.75 68.8999 38.07 68.34 38.12C68.16 38.14 67.97 38.15 67.79 38.15C67.67 38.13 67.55 38.13 67.42 38.11ZM41.3299 11.61C41.3499 11.66 41.37 11.72 41.4 11.77C41.45 11.88 41.5099 11.98 41.5799 12.07C41.5799 12.07 41.5799 12.08 41.5899 12.08C41.5899 12.09 41.6 12.1 41.61 12.11C41.68 12.2 41.74 12.29 41.81 12.38C41.94 12.52 42.0699 12.65 42.1999 12.77C42.4499 12.97 42.6999 13.15 42.9499 13.33C44.2999 14.23 45.81 14.9 47.27 15.63C48.01 16.01 48.76 16.4 49.47 16.83C50.33 17.36 51.18 17.89 52.02 18.44C52.79 18.95 53.57 19.46 54.3 20.03C54.68 20.33 55.0699 20.64 55.4599 20.95C55.8899 21.29 56.2899 21.69 56.6999 22.06C57.3999 22.69 58.02 23.43 58.65 24.13C59.92 25.55 60.9899 27.14 62.2099 28.61C62.3099 28.73 62.41 28.84 62.5 28.96C63.05 29.56 63.62 30.12 64.18 30.71C64.82 31.39 65.39 32.1 66 32.81C66.44 33.27 66.89 33.72 67.36 34.15C67.5 34.27 67.64 34.39 67.78 34.5C67.81 34.44 67.83 34.38 67.85 34.32C67.9 34.18 67.94 34.04 67.97 33.89C68.07 33.38 68.13 32.86 68.18 32.35C68.24 31.23 68.21 30.1 68.18 28.97C68.16 28.27 68.14 27.58 68.14 26.88C68.15 25.94 68.26 25.02 68.41 24.1C68.55 23.2 68.7 22.3 68.88 21.41C69.06 20.51 69.3 19.62 69.51 18.72C69.67 17.8 69.7999 16.88 69.9599 15.95C70.1199 15.02 70.31 14.08 70.5 13.16C70.5 13.17 70.5 13.18 70.49 13.19C70.54 12.96 70.59 12.72 70.63 12.48C70.85 11.38 71.06 10.27 71.29 9.16C71.43 8.45 71.5199 7.73 71.6999 7.03C71.8899 6.31 72.13 5.61 72.34 4.89V4.88C72.14 4.6 71.93 4.32999 71.72 4.05999C71.6 3.89999 71.5099 3.73 71.4499 3.55C71.0299 3.55 70.61 3.56 70.18 3.58C68.44 3.72 66.7 3.89 64.97 4.07C63.26 4.25 61.56 4.44 59.87 4.71C57.06 5.31 54.3 6.11 51.5 6.74C48.79 7.35 46.0999 8.07 43.4599 8.97C42.7999 9.22 42.14 9.48 41.5 9.77C41.45 9.8 41.3899 9.83 41.3399 9.86C41.3199 9.88 41.3 9.89 41.27 9.91C41.26 9.96 41.25 10 41.24 10.05C41.23 10.1 41.22 10.16 41.22 10.21C41.21 10.44 41.21 10.66 41.22 10.89C41.24 11.04 41.26 11.19 41.28 11.34C41.26 11.26 41.25 11.19 41.23 11.11C41.24 11.28 41.2799 11.45 41.3299 11.61Z"
    fill="rgba(191, 192, 191, 1)" />
</svg>