<svg width="88" height="91" viewBox="0 0 88 91" fill="none" xmlns="http://www.w3.org/2000/svg">
  <path
    d="M9.40001 90.2C7.67001 90.12 5.94001 89.65 4.51001 88.65C2.96001 87.58 1.89001 86.03 1.18001 84.29C0.480011 82.55 0.300022 80.63 0.410022 78.77C0.520022 76.75 0.920018 74.75 1.50002 72.81C2.58002 69.26 4.47001 65.79 7.26001 63.29C7.89001 62.72 8.58002 62.23 9.31002 61.81C9.46002 61.72 9.62001 61.63 9.79001 61.56C9.80001 61.53 9.80002 61.51 9.81002 61.49C10.08 60.52 11.04 60.05 11.99 60.25C13.95 60.67 15.88 61.19 17.81 61.75C18.69 62.01 19.57 62.29 20.43 62.62C21.68 63.1 22.84 63.7 23.93 64.5C25.9 65.96 26.9 68.3 27.33 70.65C27.56 71.9 27.67 73.16 27.74 74.42C27.81 75.72 27.75 77.09 27.45 78.36C27.18 79.51 26.76 80.59 26.15 81.6C25.49 82.69 24.63 83.65 23.72 84.53C21.86 86.32 19.67 87.74 17.28 88.73C15.05 89.66 12.58 90.21 10.16 90.21C9.89002 90.22 9.64001 90.21 9.40001 90.2ZM11.27 64.79C10.99 64.94 10.72 65.09 10.46 65.27C10.2 65.47 9.94001 65.66 9.70002 65.87C9.29002 66.23 8.91002 66.62 8.55002 67.02C8.16002 67.49 7.78001 67.97 7.43001 68.47C7.00001 69.11 6.61001 69.77 6.26001 70.45C5.86001 71.26 5.51002 72.08 5.19002 72.93C4.85002 73.92 4.57002 74.92 4.35002 75.94C4.15002 76.92 4.02002 77.9 3.94002 78.89C3.91002 79.39 3.91001 79.89 3.93001 80.39C3.97001 80.84 4.02002 81.28 4.10002 81.72C4.17002 82.05 4.26002 82.38 4.36002 82.7C4.48002 83.03 4.62002 83.35 4.77002 83.67C4.89002 83.9 5.03002 84.13 5.17002 84.35C5.34002 84.59 5.52002 84.83 5.71002 85.05C5.80002 85.15 5.90002 85.25 6.00002 85.34C6.18002 85.49 6.36002 85.63 6.55002 85.77C6.75002 85.89 6.94002 86 7.14002 86.11C7.26002 86.16 7.38001 86.22 7.51001 86.27C7.82001 86.37 8.13002 86.46 8.46002 86.53C8.82002 86.59 9.17001 86.64 9.54001 86.67C10.04 86.69 10.54 86.68 11.03 86.65C11.62 86.6 12.2 86.52 12.78 86.41C13.55 86.25 14.3 86.04 15.04 85.8C15.72 85.56 16.39 85.28 17.05 84.97C17.75 84.61 18.43 84.21 19.08 83.77C19.63 83.38 20.16 82.97 20.68 82.52C21.2 82.06 21.69 81.58 22.15 81.07C22.45 80.71 22.74 80.34 23.01 79.95C23.17 79.7 23.31 79.45 23.45 79.2C23.56 78.96 23.66 78.72 23.75 78.47C23.85 78.16 23.93 77.85 24.01 77.53C24.08 77.1 24.14 76.67 24.17 76.24C24.21 75.55 24.21 74.86 24.17 74.18C24.1 73.16 23.98 72.15 23.8 71.15C23.81 71.2 23.82 71.25 23.84 71.3C23.72 70.73 23.57 70.18 23.39 69.63C23.31 69.41 23.22 69.2 23.12 68.99C23.02 68.8 22.91 68.62 22.8 68.44C22.67 68.26 22.53 68.08 22.39 67.9C22.25 67.75 22.1 67.61 21.95 67.47C21.76 67.33 21.57 67.18 21.38 67.05C21.07 66.85 20.77 66.67 20.45 66.5C19.84 66.21 19.22 65.96 18.58 65.72C17.1 65.22 15.59 64.78 14.07 64.39C13.75 64.81 13.23 65.09 12.67 65.09C12.25 65.09 11.86 64.94 11.55 64.68C11.46 64.71 11.36 64.75 11.27 64.79Z"
    fill="rgba(191, 192, 191, 1)" />
  <path
    d="M28.26 61.98C27.49 61.39 27.35 60.27 27.94 59.5C28.28 59.06 28.67 58.66 29.03 58.23C29.48 57.69 29.94 57.16 30.4 56.63C31.42 55.45 32.45 54.28 33.47 53.11C33.78 52.76 34.15 52.5 34.63 52.44C35.09 52.38 35.58 52.51 35.95 52.8C36.68 53.36 36.91 54.56 36.27 55.28C35.27 56.41 34.28 57.55 33.29 58.69C32.81 59.24 32.34 59.8 31.86 60.36C31.48 60.79 31.08 61.21 30.73 61.66C30.38 62.11 29.85 62.34 29.32 62.34C28.95 62.34 28.58 62.22 28.26 61.98Z"
    fill="rgba(191, 192, 191, 1)" />
  <path
    d="M40.96 45.54C41.03 44.42 41.91 43.54 42.63 42.75C43.04 42.3 43.45 41.85 43.88 41.41C44.81 40.43 45.74 39.46 46.67 38.5C47.34 37.8 48.5 37.83 49.17 38.5C49.86 39.19 49.84 40.31 49.17 41C47.79 42.43 46.42 43.86 45.08 45.32C44.84 45.6 44.61 45.88 44.38 46.18C44.37 46.19 44.37 46.2 44.36 46.21C44.36 46.21 44.36 46.22 44.36 46.23V46.22C44.34 46.26 44.31 46.3 44.29 46.34C44.31 46.31 44.32 46.28 44.33 46.25C44.33 46.25 44.33 46.26 44.32 46.26C44.04 46.88 43.47 47.32 42.72 47.32C41.81 47.31 40.9 46.51 40.96 45.54Z"
    fill="rgba(191, 192, 191, 1)" />
  <path
    d="M54.73 33.66C53.82 33.27 53.45 32.24 53.79 31.34C53.99 30.79 54.4 30.3 54.75 29.84C55.01 29.49 55.29 29.16 55.57 28.83C56.01 28.31 56.45 27.78 56.89 27.26C57.74 26.28 58.59 25.3 59.44 24.33C59.75 23.97 60.12 23.72 60.6 23.65C61.06 23.59 61.55 23.72 61.92 24.01C62.65 24.57 62.88 25.77 62.24 26.49C61.49 27.33 60.76 28.18 60.02 29.04C59.04 30.17 58.02 31.3 57.16 32.53C57.12 32.59 57.09 32.64 57.05 32.7C56.79 33.38 56.09 33.78 55.4 33.78C55.18 33.8 54.94 33.75 54.73 33.66Z"
    fill="rgba(191, 192, 191, 1)" />
  <path
    d="M65.59 18.6701C65 18.0801 64.87 17 65.44 16.34C66.36 15.28 67.4 14.32 68.43 13.37C69.44 12.44 70.45 11.51 71.46 10.58C72.17 9.93003 73.26 9.88003 73.96 10.58C74.62 11.24 74.67 12.43 73.96 13.08C72.1 14.79 70.22 16.47 68.46 18.28C68.41 18.36 68.34 18.43 68.27 18.5C68.16 18.61 68.06 18.7301 67.93 18.8201C67.61 19.0601 67.22 19.18 66.84 19.18C66.38 19.18 65.93 19.0101 65.59 18.6701Z"
    fill="rgba(191, 192, 191, 1)" />
  <path
    d="M82.88 29.68C82.87 28.27 82.82 26.87 82.83 25.47C82.84 24.06 83.01 22.6401 83.13 21.2301C83.4 18.3901 83.84 15.5601 84.04 12.7001C84.03 12.7801 84.03 12.86 84.02 12.94C84.1 11.74 84.12 10.54 84.06 9.33003C84.02 8.78003 83.94 8.24006 83.84 7.70006C83.78 7.45006 83.71 7.20006 83.63 6.95006C83.58 6.83006 83.53 6.72005 83.47 6.60005C83.46 6.59005 83.45 6.57004 83.45 6.56004C83.45 6.57004 83.46 6.58004 83.47 6.59004C83.46 6.58004 83.46 6.57005 83.45 6.57005C83.45 6.58005 83.46 6.59004 83.47 6.59004C83.49 6.63004 83.51 6.66006 83.52 6.70006C83.47 6.62006 83.43 6.55005 83.38 6.47005C83.34 6.42005 83.3 6.37005 83.26 6.32005C83.25 6.31005 83.24 6.30004 83.22 6.28004C83.2 6.26004 83.18 6.25004 83.15 6.24004C83.1 6.21004 83.05 6.18004 83.01 6.15004C82.97 6.13004 82.93 6.11005 82.89 6.10005C82.16 5.86005 81.41 5.67006 80.68 5.45006C80.18 5.30006 79.67 5.18005 79.16 5.07005C78.21 4.95005 77.27 4.85003 76.32 4.77003C73.5 4.60003 70.68 4.45005 67.86 4.41005C64.91 4.37005 61.97 4.39006 59.03 4.39006C58.07 4.39006 57.26 3.59004 57.26 2.62004C57.26 1.65004 58.07 0.850052 59.03 0.850052C62.71 0.850052 66.4 0.800048 70.08 0.940048C72.05 1.01005 74.02 1.10005 75.99 1.22005C77.89 1.33005 79.79 1.50005 81.62 2.04005C82.44 2.28005 83.29 2.48004 84.1 2.78004C84.79 3.03004 85.43 3.43004 85.92 3.99004C86.49 4.64004 86.84 5.38005 87.11 6.19005C87.41 7.08005 87.51 8.07004 87.58 8.99004C87.65 9.97004 87.65 10.9501 87.62 11.9201C87.58 13.0201 87.48 14.12 87.37 15.22C87.07 18.03 86.73 20.83 86.46 23.65C86.41 24.65 86.37 25.6301 86.36 26.6301C86.36 27.6401 86.41 28.65 86.42 29.66C86.42 30.62 85.61 31.43 84.65 31.43C83.68 31.45 82.89 30.64 82.88 29.68Z"
    fill="rgba(191, 192, 191, 1)" />
</svg>