<svg width="64" height="67" viewBox="0 0 64 67" fill="none" xmlns="http://www.w3.org/2000/svg">
  <path
    d="M22.46 65.93C17.35 65.03 12.48 62.68 8.71999 59.11C6.87999 57.36 5.39999 55.22 4.21999 52.98C3.00999 50.66 2.13 48.18 1.54 45.63C0.299997 40.3 0.590041 34.7 1.71004 29.37C2.26004 26.73 3.03003 24.14 4.07003 21.65C5.09003 19.19 6.44001 16.91 7.99001 14.75C9.54001 12.6 11.36 10.63 13.29 8.82C15.24 6.98 17.38 5.34997 19.65 3.91997C21.09 3.01997 22.62 2.25 24.21 1.63C25.79 1.01 27.44 0.619977 29.12 0.359977C30.82 0.0899765 32.56 0.0499619 34.27 0.219962C35.04 0.289962 35.83 0.449981 36.55 0.739981C37.19 0.989981 37.86 1.29997 38.35 1.78997C39.03 2.46997 39.03 3.60997 38.35 4.28997C37.69 4.94997 36.6 4.96997 35.91 4.34997L35.9 4.34002C35.83 4.29002 35.75 4.25 35.67 4.2C35.54 4.14 35.4 4.08002 35.27 4.03002C35.04 3.96002 34.82 3.90002 34.59 3.84002C34.16 3.77002 33.73 3.71998 33.3 3.67998C32.59 3.63998 31.89 3.65999 31.19 3.68999C30.34 3.75999 29.5 3.87002 28.66 4.03002C27.76 4.22002 26.88 4.44998 26.01 4.73998C25.14 5.05998 24.3 5.42001 23.47 5.83001C23.54 5.79001 23.61 5.75996 23.67 5.71996C22.57 6.27996 21.51 6.91002 20.49 7.59002C19.14 8.50002 17.85 9.5 16.62 10.57C15.28 11.77 14.02 13.03 12.82 14.37C12.87 14.32 12.92 14.26 12.97 14.2C11.92 15.41 10.93 16.66 10.03 17.99C10.07 17.93 10.12 17.87 10.16 17.8C9.44999 18.87 8.79003 19.97 8.20003 21.11C8.20003 21.12 8.19001 21.13 8.18001 21.14C7.55001 22.43 6.99003 23.77 6.51003 25.13C5.94003 26.8 5.49002 28.51 5.13002 30.24C4.74002 32.18 4.47004 34.14 4.33004 36.12C4.25004 37.54 4.25003 38.96 4.32003 40.38C4.41003 41.65 4.59003 42.91 4.82003 44.16C5.09003 45.44 5.44 46.71 5.86 47.95C5.86 47.93 5.85005 47.92 5.84005 47.9C6.22005 48.97 6.65999 50 7.15999 51.02C7.59999 51.88 8.09001 52.72 8.62001 53.53C8.60001 53.5 8.58003 53.48 8.57003 53.45C9.06003 54.17 9.59004 54.86 10.15 55.52C10.67 56.1 11.22 56.65 11.79 57.16C12.47 57.75 13.18 58.28 13.92 58.8C14.74 59.34 15.59 59.83 16.46 60.28C17.39 60.74 18.35 61.14 19.33 61.49C20.35 61.83 21.37 62.11 22.42 62.34C23.63 62.57 24.86 62.73 26.09 62.83C26.08 62.83 26.07 62.83 26.07 62.83C26.09 62.83 26.12 62.83 26.14 62.83C26.16 62.83 26.18 62.83 26.19 62.83C26.18 62.83 26.17 62.83 26.15 62.83C27.51 62.91 28.88 62.9 30.24 62.83C31.81 62.71 33.37 62.5 34.92 62.19C36.71 61.81 38.46 61.33 40.19 60.73C41.66 60.2 43.11 59.61 44.51 58.92C45.4 58.46 46.26 57.95 47.1 57.4C47.96 56.81 48.79 56.18 49.58 55.49C49.57 55.5 49.56 55.51 49.54 55.53C50.29 54.85 51 54.12 51.68 53.36C52.5 52.41 53.27 51.43 53.99 50.4C54.85 49.12 55.63 47.81 56.33 46.44C56.87 45.35 57.34 44.24 57.76 43.09C58.19 41.83 58.55 40.55 58.82 39.25C59.14 37.63 59.36 35.98 59.49 34.32C59.49 34.33 59.49 34.34 59.49 34.35C59.49 34.31 59.49 34.28 59.5 34.24C59.5 34.22 59.5 34.2 59.5 34.17C59.5 34.18 59.5 34.19 59.5 34.21C59.6 32.48 59.61 30.76 59.51 29.03C59.52 29.11 59.5201 29.19 59.53 29.27C59.43 27.93 59.26 26.6 59.01 25.28C58.8 24.29 58.53 23.32 58.22 22.35C57.92 21.48 57.57 20.63 57.16 19.8C56.82 19.17 56.46 18.55 56.07 17.94C55.64 17.31 55.17 16.71 54.68 16.12C54.16 15.55 53.6101 15 53.03 14.48C52.46 13.99 51.86 13.53 51.24 13.11C50.45 12.6 49.65 12.14 48.83 11.72H48.82C48.8 11.71 48.79 11.7 48.78 11.7C48.78 11.7 48.79 11.7 48.79 11.71C48.78 11.71 48.77 11.7 48.77 11.7C48.73 11.68 48.68 11.65 48.63 11.63C48.67 11.65 48.71 11.67 48.75 11.69C47.83 11.24 46.89 10.85 45.93 10.5C44.88 10.14 43.81 9.84999 42.72 9.61999C41.67 9.41999 40.61 9.25997 39.54 9.16997C37.33 9.03997 35.1 9.11997 32.89 9.16997C31.93 9.18997 31.12 8.35002 31.12 7.40002C31.12 6.42002 31.93 5.65 32.89 5.63C34.29 5.6 35.69 5.57999 37.09 5.55999C39.58 5.51999 42.07 5.83001 44.5 6.39001C47.06 6.98001 49.53 8.03 51.82 9.32C54.02 10.56 55.96 12.21 57.62 14.12C61.12 18.16 62.68 23.56 63.05 28.81C63.42 34.13 62.77 39.58 60.99 44.6C60.1 47.11 58.83 49.48 57.39 51.71C55.97 53.9 54.3 55.94 52.4 57.74C48.59 61.35 43.67 63.54 38.67 64.95C35.27 65.92 31.73 66.46 28.19 66.46C26.29 66.43 24.37 66.27 22.46 65.93Z"
    fill="rgba(191, 192, 191, 1)" />
  <path d="M59.54 34.19V34.2C59.53 34.2 59.53 34.19 59.54 34.19Z" fill="rgba(191, 192, 191, 1)" />
  <path d="M48.82 11.68C48.83 11.68 48.84 11.69 48.86 11.7C48.84 11.69 48.83 11.69 48.82 11.68Z"
    fill="rgba(191, 192, 191, 1)" />
  <path
    d="M41.86 45.25C41.35 44.4 41 43.47 40.62 42.55C40.24 41.66 39.85 40.78 39.48 39.89C39.24 39.31 38.98 38.74 38.77 38.16C38.27 36.83 37.89 35.47 37.59 34.09C37.33 32.92 37.13 31.75 36.9 30.58C36.69 29.55 36.45 28.54 36.13 27.54C36.02 27.24 35.9 26.94 35.76 26.65C35.65 26.45 35.55 26.27 35.43 26.08C35.4 26.04 35.36 25.99 35.33 25.95C35.31 25.93 35.29 25.92 35.28 25.9C35.23 25.9 35.17 25.91 35.12 25.92C34.53 26.06 33.96 26.23 33.38 26.42C32 26.92 30.63 27.42 29.26 27.94C27.94 28.44 26.6 28.89 25.26 29.35C24.57 29.58 23.86 29.77 23.17 29.98C22.56 30.16 21.95 30.34 21.34 30.5C19.95 30.88 18.56 31.25 17.17 31.62C16.6 31.85 15.92 31.78 15.42 31.39C14.65 30.8 14.52 29.68 15.1 28.91C15.47 28.43 16.04 28.27 16.6 28.12C17.13 27.98 17.66 27.84 18.19 27.7C19.26 27.42 20.32 27.13 21.38 26.83C23.39 26.28 25.36 25.58 27.33 24.9C27.26 24.92 27.19 24.95 27.11 24.97C28.09 24.6 29.07 24.22 30.06 23.86C30.71 23.63 31.36 23.39 32.01 23.16C32.48 22.99 32.96 22.84 33.44 22.7C34.16 22.49 34.89 22.32 35.64 22.38C36.87 22.47 37.82 23.24 38.48 24.25C39.27 25.47 39.71 26.89 40.05 28.3C40.39 29.72 40.6399 31.16 40.91 32.59C41.18 33.82 41.47 35.04 41.87 36.23C42.32 37.48 42.86 38.7 43.39 39.92C43.82 40.9 44.21 41.89 44.64 42.87C44.75 43.07 44.85 43.27 44.96 43.47C45.46 44.29 45.15 45.41 44.33 45.89C44.06 46.05 43.76 46.13 43.45 46.13C42.8 46.13 42.2 45.81 41.86 45.25Z"
    fill="rgba(191, 192, 191, 1)" />
</svg>