<svg width="227" height="142" viewBox="0 0 227 142" fill="none" xmlns="http://www.w3.org/2000/svg">
  <path fill-rule="evenodd" clip-rule="evenodd"
    d="M203.69 1.72407C202.803 2.31486 200.4 4.03352 198.346 5.56421C196.264 7.09489 192.867 9.40435 190.746 10.7471C188.665 12.0898 186.933 13.3922 186.933 13.6204C186.933 14.2784 189.699 17.0712 191.686 18.4408C192.666 19.0987 193.445 19.7163 193.445 19.8103C193.445 19.8775 192.142 21.341 190.571 23.0731C182.26 32.2304 178.017 37.7086 163.516 58.0506C157.675 66.2277 149.927 76.5665 148.652 77.8018C148.625 77.8689 148.397 76.11 148.195 73.8543C147.806 69.5576 147.081 65.9726 146.342 64.4956C145.107 62.119 139.078 58.6951 132.069 56.4125C124.832 54.0628 120.831 53.7137 119.058 55.2981C117.205 56.9227 106.679 70.8063 96.0174 85.7104C92.7277 90.2756 89.8274 94.25 89.5589 94.5051C89.1024 94.9348 89.0755 94.4111 89.2635 89.6176C89.9751 70.6452 89.8543 65.2341 88.6727 62.9246C87.5314 60.736 84.9937 58.4937 81.7309 56.8019C76.1586 53.9016 68.7199 51.4848 65.3363 51.4848C62.7314 51.4848 62.1407 52.0353 40.429 76.5531C17.5088 102.4 4.05481 120.688 0.832291 130.275C-0.0807548 132.947 -0.0538964 134.316 0.899431 135.162C2.79266 136.921 9.82847 139.593 15.6961 140.775C19.4423 141.554 23.9136 141.688 24.0747 141.03C24.1418 140.828 24.3298 139.795 24.5312 138.788C25.2831 134.84 28.6399 128.516 33.9839 120.997C38.2269 115.102 46.7666 104.173 51.6809 98.4392C56.179 93.1892 65.6586 82.4744 65.8331 82.4744C65.9002 82.4744 65.86 87.4962 65.766 93.6189C65.5646 105.945 65.7929 108.187 67.4578 111.02C70.0627 115.451 85.4234 122.232 92.8486 122.232C95.8428 122.232 98.0986 120.997 101.872 117.251C105.255 113.961 107.9 110.47 118.951 95.0556L126.376 84.663L126.967 87.5364C127.746 91.3497 128.041 91.9674 129.84 93.6592C131.922 95.6195 135.345 97.5396 140.112 99.4597C145.752 101.702 148.652 102.427 152.371 102.494C155.298 102.521 155.567 102.467 157.581 101.38C160.575 99.7819 166.711 93.5518 172.928 85.7372C178.769 78.406 180.326 76.3114 188.705 64.5493C199.527 49.3633 201.259 47.1478 201.676 47.6983C202.293 48.4771 207.342 51.6056 210.538 53.2034C214.055 54.9624 216.566 55.8486 217.734 55.674L218.621 55.58L219.695 48.1146C221.158 38.1383 222.461 31.465 224.448 23.7982C227.026 13.889 226.919 14.5469 226.019 12.8417C225.106 11.0827 223.642 9.78031 219.668 7.10832C215.009 3.97981 207.772 0.649902 205.65 0.649902C205.422 0.649902 204.509 1.13328 203.663 1.72407H203.69ZM213.921 5.33595C215.586 6.18185 216.727 7.25602 217.05 8.30333C217.144 8.69271 216.526 11.6332 215.613 14.99C213.142 24.1473 210.86 35.9765 209.678 45.7648C209.316 48.7591 209.195 49.2156 208.671 49.2156C207.557 49.2156 204.401 47.2552 204.079 46.3825C203.824 45.6977 206.617 26.8595 207.342 24.2815C207.543 23.6639 203.367 27.8934 199.165 32.5929C195.378 36.8358 187.953 46.3825 182.864 53.4854C161.448 83.5083 152.908 93.7666 146.906 96.7071C144.597 97.8484 141.401 97.6873 138.528 96.2775C134.258 94.1963 133.667 92.0077 132.204 72.807C131.613 65.2744 131.062 60.9374 130.7 60.9374C130.149 60.9374 120.925 73.1561 110.653 87.4962C98.6222 104.32 95.4937 108.389 92.0698 111.813C86.8869 116.995 84.4432 117.908 79.7168 116.311C75.2187 114.78 73.5269 112.82 72.8018 108.201C72.4124 105.623 72.5736 92.9475 73.1644 79.5876C73.688 67.9195 73.5269 58.722 72.8018 59.1785C71.8216 59.7693 48.6866 85.415 41.342 94.0217C31.3388 105.757 20.6776 120.231 16.6361 127.495C15.1054 130.302 13.5075 134.639 13.5075 136.102C13.5075 137.566 12.9839 137.767 10.4059 137.042C7.76071 136.33 7.14305 135.699 7.43845 133.94C8.15009 129.469 12.7556 121.426 20.6776 110.792C29.6738 98.7615 37.1393 89.8996 54.7423 70.4035C58.6899 65.9994 62.9597 61.2462 64.2219 59.8095C66.6925 57.0033 70.1567 54.0762 71.0026 54.0762C71.9425 54.0762 75.1113 55.4457 76.0915 56.2648C76.642 56.7213 77.4879 57.7686 77.9847 58.5743C78.8038 60.011 78.8709 60.3735 79.0589 65.8114C79.1528 68.94 79.0589 76.7277 78.8306 83.0921C78.0787 103.045 78.2801 113.115 79.4885 114.283C79.9719 114.767 82.8453 112.887 85.6113 110.215C89.1024 106.858 91.8012 103.407 102.664 88.3152C117.273 68.0403 124.671 58.3997 126.39 57.3121C127.558 56.6005 128.578 56.6542 131.371 57.7015C133.613 58.5474 135.09 59.5544 135.775 60.7629C136.715 62.3875 137.346 66.4022 138.017 75.1701C139.065 88.8657 139.87 94.5051 140.716 94.5051C140.945 94.5051 141.925 93.9814 142.905 93.3369C148.222 89.819 158.87 76.8485 173.223 56.5333C183.16 42.4215 190.142 33.6133 198.023 25.1409C200.239 22.724 202.428 20.3474 202.844 19.7969L203.663 18.8167L202.038 19.045C201.152 19.1793 199.957 19.3672 199.393 19.5284C198.252 19.8237 196.13 18.9778 194.277 17.474L193.364 16.7221L197.204 14.2515C199.353 12.882 203.273 10.116 205.972 8.15563C208.873 6.0073 211.155 4.54375 211.612 4.54375C212.001 4.54375 213.048 4.90628 213.894 5.32252L213.921 5.33595Z"
    fill="rgba(191, 192, 191, 1)" />
</svg>