<svg width="77" height="74" viewBox="0 0 77 74" fill="none" xmlns="http://www.w3.org/2000/svg">
  <path
    d="M3.21998 72.2C2.80998 71.77 2.49005 71.33 2.29005 70.76C2.23005 70.59 2.19003 70.42 2.15003 70.26C2.13003 70.26 2.11998 70.25 2.09998 70.25C1.21998 70.03 0.740067 69.16 0.810067 68.3C0.820067 68.22 0.829974 68.14 0.839974 68.05C0.859974 67.54 0.880008 67.02 1.00001 66.53C1.18001 65.88 1.45001 65.28 1.75001 64.67C2.02001 64.13 2.36997 63.63 2.70997 63.13C3.12997 62.52 3.58006 61.94 4.05006 61.38C4.30006 61.09 4.55995 60.8 4.81995 60.53C4.63995 59.99 4.46998 59.45 4.46998 58.88C4.46998 58.4 4.58995 57.94 4.68995 57.48C4.92995 56.35 6.35005 55.87 7.29005 56.42C7.62005 56.61 7.92998 56.78 8.21998 56.99C8.05998 55.81 8.08004 54.63 8.28004 53.45C8.43004 52.56 8.74004 51.69 9.41004 51.05C10.14 50.35 11.27 50.19 12.25 50.29C12.72 50.34 13.21 50.42 13.65 50.61C13.67 50.62 13.69 50.63 13.7 50.63C14.66 49.57 15.73 48.56 16.88 47.71C17.41 47.32 17.9701 46.98 18.5601 46.68C19.2701 46.32 20.01 46.01 20.79 45.88C22.15 45.64 23.5 45.91 24.7 46.58C24.71 46.58 24.72 46.59 24.72 46.59C24.76 46.5 24.79 46.4 24.83 46.31C25.01 45.82 25.2199 45.33 25.4399 44.86C25.2099 44.75 25 44.58 24.82 44.36C24.21 43.57 24.4 42.5 25.14 41.88C25.15 41.88 25.15 41.87 25.16 41.87C25.19 41.84 25.22 41.81 25.25 41.78C25.72 41.23 26.15 40.63 26.57 40.03C26.55 40.07 26.52 40.1 26.5 40.14C26.84 39.64 27.2 39.14 27.51 38.62C27.98 37.86 28.45 37.1 28.98 36.38C29.87 35.15 31.98 35.7 32.14 37.22C32.18 37.6 32.19 37.92 32.15 38.29C32.13 38.47 32.0901 38.65 32.0501 38.83C32.2401 38.87 32.43 38.94 32.61 39.02C32.62 39.01 32.63 39 32.63 38.99C33.09 38.31 33.7101 37.76 34.4301 37.36C35.1401 36.97 35.89 36.82 36.7 36.88C36.71 36.88 36.71 36.88 36.72 36.88C37.04 36.36 37.39 35.86 37.76 35.38C37.57 35.14 37.41 34.89 37.26 34.61C37.06 34.23 36.93 33.84 36.82 33.44C36.7 33 36.62 32.44 36.71 31.99C36.79 31.57 36.89 31.19 37.09 30.81C37.35 30.31 37.68 29.85 38.02 29.4C38.37 28.95 38.81 28.59 39.21 28.19C39.33 28.07 39.45 27.95 39.57 27.83C39.6 27.7 39.63 27.57 39.66 27.44C39.94 26.35 40.47 25.24 41.26 24.43C42.03 23.63 42.94 23.04 43.95 22.59C45.04 22.11 46.28 21.99 47.45 22.1C48.08 22.15 48.69 22.27 49.29 22.44C49.41 22.2 49.55 21.98 49.71 21.76C50.66 20.45 52.27 19.61 53.91 19.83C54.12 19.86 54.32 19.91 54.52 19.98C54.49 19.8 54.4699 19.63 54.4399 19.45C54.32 18.7 54.08 17.89 54.39 17.16C54.55 16.78 54.82 16.49 55.13 16.23C55.48 15.94 55.92 15.87 56.35 15.8C56.39 15.78 56.43 15.76 56.47 15.75C56.65 15.66 56.82 15.55 56.99 15.45C57.16 15.33 57.32 15.2 57.48 15.06C57.98 14.6 58.47 14.12 58.96 13.64C59.02 13.52 59.08 13.41 59.14 13.3C59.68 12.32 60.4 11.42 61.21 10.66C61.3 10.57 61.39 10.5 61.49 10.42C61.44 10.29 61.4 10.15 61.37 10.01C61.32 9.73 61.3 9.46 61.32 9.17C61.34 8.89 61.38 8.62 61.41 8.34C61.47 7.72 61.54 7.11 61.6 6.48C61.6 6.5 61.6 6.51 61.6 6.53C61.6 6.45 61.61 6.37 61.62 6.28C61.61 6.28 61.6 6.28999 61.58 6.28999C61.41 6.35999 61.24 6.43 61.07 6.51C60.05 7.04 59.0701 7.63 58.0501 8.17C57.9501 8.22 57.84 8.28 57.73 8.33C56.93 9.49 55.91 10.51 54.79 11.36C53.85 12.07 52.79 12.62 51.71 13.07C50.63 13.52 49.44 13.77 48.28 13.5C47.58 13.34 46.8601 13.05 46.3001 12.57C45.8701 12.94 45.43 13.28 44.97 13.62C44.14 14.22 43.24 14.65 42.2 14.7C41.26 14.75 40.41 14.49 39.76 13.79C39.13 13.11 38.76 12.13 38.73 11.21C38.73 11.11 38.73 11.01 38.73 10.91C38.48 11.07 38.23 11.23 37.97 11.39C37.4 11.75 36.65 11.92 35.98 11.85C35.28 11.77 34.54 11.42 34.2 10.76C33.98 10.33 33.84 9.89 33.78 9.44C32.95 9.71 32.08 9.9 31.22 9.98C31.2 9.98 31.17 9.98 31.15 9.98C31.08 10.16 30.99 10.33 30.9 10.49C30.45 11.3 29.8599 12.02 29.1899 12.64C29.2399 12.69 29.3 12.74 29.34 12.79C29.72 13.2 29.92 13.72 29.84 14.28C29.77 14.8 29.45 15.32 28.98 15.57C28.73 15.7 28.48 15.84 28.2 15.91C27.77 16.03 27.31 16.05 26.86 16.05C25.97 16.04 25.07 15.8 24.26 15.46C23.71 15.23 23.18 14.88 22.71 14.5C22.64 14.47 22.58 14.44 22.51 14.41C22.09 14.21 21.64 13.93 21.32 13.59C21.07 13.33 20.87 13.06 20.7 12.77C20.27 13.04 19.84 13.31 19.41 13.57C18.49 14.15 17.32 13.66 16.89 12.73C16.63 12.18 16.65 11.62 16.89 11.06C17.12 10.53 17.56 10.18 17.95 9.78C18.63 8.9 19.32 8.03 19.97 7.12C20.06 6.47 20.24 5.82 20.5 5.23C20.64 4.92 20.82 4.63 20.99 4.34C21.35 3.71 22.09 3.38 22.79 3.48C22.86 3.42 22.94 3.37 23.02 3.31C24.43 2.3 26.13 1.72001 27.85 1.57001C29.74 1.40001 31.66 1.63 33.46 2.23C34.59 2.61 35.64 3.15 36.51 3.91C36.73 3.68 36.97 3.47999 37.22 3.28999C37.31 3.22999 37.39 3.17 37.48 3.12C38.07 2.3 38.8 1.57 39.65 1.06C40.77 0.399998 42.29 0.270008 43.5 0.710008C44.2 0.960008 44.8401 1.32 45.4301 1.76C45.9701 2.16 46.44 2.66 46.88 3.16C47.39 2.86 48.05 2.80001 48.58 3.07001C49.13 2.54001 49.6699 1.99999 50.1899 1.42999C50.5599 0.999994 50.98 0.570006 51.53 0.380006C52.17 0.150006 52.85 0.0499991 53.47 0.419999C53.97 0.709999 54.27 1.14001 54.46 1.63001C54.64 1.22001 54.91 0.81 55.26 0.53C56.07 -0.1 57.13 -0.0699966 58 0.440003C58.79 0.900003 59.1301 1.71 59.3101 2.56C59.8301 2.39 60.35 2.21 60.87 2.03C60.8 2.06 60.73 2.08 60.65 2.11C61.55 1.79 62.53 1.59 63.45 1.98C64.08 2.24 64.49 2.71999 64.76 3.28999C65.04 3.51999 65.3 3.78001 65.53 4.07001C65.6 4.16001 65.66 4.24 65.72 4.33C65.73 4.29 65.75 4.26 65.76 4.22C65.98 3.65 66.55 3.23999 67.15 3.14999C67.89 3.04999 68.5201 3.42 68.9201 4.01C69.0401 4.19 69.11 4.37 69.15 4.56C69.6 4.18 70.19 4.08 70.77 4.2C70.91 4.23 71.04 4.27 71.16 4.33C71.46 4.36 71.75 4.37999 72.04 4.42999C72.49 4.48999 72.92 4.61 73.35 4.75C73.95 4.48 74.56 4.35999 75.21 4.67999C76.03 5.07999 76.59 6.11 76.15 7C76.08 7.13 76.02 7.26999 75.95 7.39999C76.23 8.08999 76.3701 8.81001 76.4301 9.57001C76.5201 10.75 76.34 11.89 76.09 13.03C75.98 13.52 75.81 14 75.64 14.48C75.49 14.93 75.31 15.35 75.07 15.77C75.05 15.81 75.02 15.85 75 15.89C75.16 16.05 75.31 16.23 75.46 16.4C76.15 17.23 76.52 18.37 76.58 19.44C76.65 20.58 76.28 21.59 75.77 22.59C75.46 23.2 75.0401 23.74 74.5601 24.24C74.5601 24.54 74.55 24.83 74.53 25.12C74.44 26.2 74.2 27.24 73.85 28.24C74.19 28.94 74.1601 29.72 74.0601 30.48C74.0401 30.62 74.02 30.77 73.99 30.91C74.35 31.05 74.66 31.3 74.86 31.66C75.19 32.23 75.16 32.91 74.85 33.45C75.29 33.94 75.6 34.53 75.6899 35.21C75.95 37.11 75.39 38.96 74.61 40.67C74.99 41.23 75.16 41.93 75.22 42.61C75.33 43.75 75.13 44.86 74.77 45.94C74.36 47.18 73.76 48.32 73.03 49.39C72.81 49.71 72.58 50.02 72.33 50.32C72.27 50.53 72.2 50.74 72.12 50.94C72.2 51.29 72.27 51.63 72.34 51.99C72.39 52.25 72.45 52.51 72.52 52.76C72.89 53.03 73.16 53.43 73.23 53.94C73.36 54.85 72.78 55.62 71.95 55.87C71.94 55.88 71.92 55.89 71.91 55.9C72.72 56.55 73.48 57.27 74.11 58.11C74.72 58.92 75.09 59.91 75.16 60.92C75.24 62.06 74.83 63.14 74.13 64.02C73.49 64.83 72.51 65.38 71.51 65.6C70.48 65.82 69.33 65.51 68.58 64.75C68.51 64.68 68.44 64.59 68.37 64.51C67.99 64.43 67.62 64.29 67.26 64.1C66.85 63.89 66.52 63.5 66.24 63.15C65.88 62.71 65.67 62.17 65.49 61.65C65.37 61.27 65.32 60.85 65.32 60.42C64.74 60.54 64.15 60.62 63.57 60.54C62.42 60.38 61.49 59.42 61.34 58.27C61.21 57.34 61.42 56.36 61.53 55.44C61.6 54.87 61.69 54.3 61.78 53.74C61.51 53.44 61.25 53.14 61.01 52.81C60.23 51.74 60.8201 50.15 62.1701 49.97C62.6501 49.9 63.03 49.99 63.47 50.16C63.83 50.3 64.13 50.58 64.45 50.8C64.48 50.82 64.5201 50.85 64.5501 50.87C64.5801 50.89 64.6 50.9 64.63 50.92C64.64 50.93 64.6601 50.94 64.6701 50.95C64.7301 50.99 64.78 51.02 64.84 51.06C64.88 51.08 64.91 51.11 64.95 51.13C65.05 51 65.15 50.86 65.24 50.73C65.42 50.46 65.58 50.18 65.74 49.9C65.76 49.45 65.84 49.02 65.96 48.59C65.71 48.23 65.53 47.84 65.37 47.39C65.23 46.97 65.25 46.49 65.23 46.04C65.19 45.54 65.14 45.05 65.04 44.56C64.86 43.77 64.61 43 64.34 42.24C64.36 42.31 64.39 42.39 64.41 42.46C64.12 41.67 63.8 40.85 63.66 40.01C63.58 39.55 63.53 39.08 63.58 38.62C63.64 38.14 63.76 37.73 63.96 37.29C64.18 36.79 64.5 36.32 64.78 35.85C65.01 35.47 65.2701 35.14 65.5601 34.82C65.7901 34.56 66.13 34.37 66.4399 34.22C66.5499 34.14 66.66 34.06 66.77 33.97C66.29 33.36 66.03 32.61 65.89 31.84C65.79 31.31 65.8 30.75 65.78 30.22C65.76 29.79 65.75 29.36 65.75 28.93C65.74 28.91 65.73 28.88 65.72 28.86C65.29 27.72 64.82 26.61 64.27 25.52C64.28 25.54 64.2901 25.56 64.3101 25.58C64.0501 25.06 63.8301 24.55 63.6701 23.98C63.5001 23.35 63.62 22.73 63.85 22.14C63.97 21.84 64.15 21.59 64.36 21.37C63.88 20.83 63.75 20.13 63.73 19.43C63.51 19.8 63.26 20.15 63 20.49C62.84 20.71 62.65 20.92 62.47 21.13C62.27 21.37 62.0601 21.61 61.8101 21.81C61.0801 22.38 60.05 22.43 59.21 22.08C58.85 21.93 58.55 21.69 58.32 21.4C58.36 21.69 58.41 21.98 58.4399 22.27C58.5399 22.94 58.64 23.61 58.72 24.29C58.76 24.6 58.8 24.91 58.83 25.22C58.9 25.39 58.96 25.57 59.02 25.75C59.37 26.75 59.73 27.79 59.82 28.86C59.89 29.68 59.5 30.37 58.75 30.73C58.46 30.87 58.17 30.93 57.85 30.91C57.15 30.88 56.5 30.5 56.22 29.83C56 29.3 55.7999 28.78 55.6899 28.22C55.59 27.71 55.52 27.2 55.46 26.68C55.44 26.48 55.41 26.28 55.39 26.08C55.3 25.83 55.19 25.59 55.09 25.35C54.89 24.98 54.69 24.62 54.47 24.27C54.4 24.17 54.33 24.08 54.25 23.98C54.3 24.03 54.35 24.09 54.4 24.15C54.31 24.04 54.21 23.93 54.11 23.84C53.95 23.72 53.8 23.6 53.64 23.48C53.58 23.45 53.53 23.41 53.47 23.38C53.43 23.36 53.39 23.35 53.35 23.33H53.34C53.3 23.34 53.26 23.35 53.22 23.37C53.17 23.39 53.1101 23.41 53.0601 23.43C52.9901 23.47 52.93 23.5 52.86 23.54C52.83 23.56 52.8 23.59 52.77 23.61C52.74 23.64 52.7101 23.66 52.6801 23.7C52.6501 23.74 52.63 23.76 52.6 23.8C52.53 23.91 52.47 24.01 52.41 24.12C52.82 24.47 53.2 24.87 53.53 25.31C54.2 26.18 54.5501 27.25 54.6801 28.33C54.8201 29.5 54.51 30.69 53.99 31.73C53.58 32.55 52.9401 33.34 52.0501 33.67C51.6001 33.84 51.16 33.97 50.66 33.92C50.47 33.9 50.29 33.86 50.12 33.8C50.39 34.21 50.51 34.72 50.33 35.22C50.21 35.56 50.09 35.9 49.87 36.2C49.6 36.56 49.17 36.84 48.75 37.01C48.32 37.18 47.8799 37.34 47.4399 37.49C46.8499 37.69 46.22 37.8 45.6 37.91C45.33 37.96 45.06 38 44.79 38.02C44.6 38.12 44.41 38.21 44.22 38.3C43.38 38.68 42.28 38.63 41.45 38.25C41.09 38.08 40.77 37.88 40.49 37.64C40.36 37.81 40.24 37.98 40.11 38.15C39.86 38.52 39.63 38.9 39.41 39.27C39.91 40.43 39.94 41.78 39.64 43.02C39.43 43.88 39.08 44.73 38.63 45.5C38.46 45.8 38.17 46.12 37.86 46.29C37.53 46.47 37.22 46.58 36.86 46.67C36.15 46.86 35.43 46.59 35 46.05C34.98 46.15 34.9599 46.25 34.9399 46.34C34.7299 47.26 34.46 48.16 34.12 49.04C33.94 49.51 33.71 49.96 33.46 50.4C33.28 50.72 33.12 51.07 32.89 51.36C32.46 51.9 31.82 52.44 31.08 52.4C30.85 52.38 30.65 52.36 30.45 52.31C30.25 52.55 30.03 52.79 29.82 53.02C29.37 53.5 28.85 53.91 28.36 54.33C27.65 54.95 26.74 55.17 25.82 54.99C25.78 54.98 25.7299 54.97 25.6899 54.96C25.7399 56.73 25.08 58.49 24.29 60.06C23.74 61.15 22.9701 62.14 22.1701 63.06C21.3301 64.02 20.38 64.86 19.36 65.61C17.87 66.71 16.17 67.62 14.36 68.08C14.38 68.12 14.39 68.15 14.4 68.18C14.41 68.2 14.4199 68.22 14.4399 68.24C15.2299 68.22 15.9899 68.79 16.1899 69.55C16.4599 70.51 15.87 71.43 14.96 71.73C14.17 71.99 13.3 71.87 12.61 71.41C11.69 70.79 11.1601 69.75 10.8101 68.73C10.7801 68.64 10.75 68.54 10.72 68.45C10.43 69.39 9.97001 70.27 9.38001 71.06C8.67001 72 7.68996 72.67 6.57996 73C6.25996 73.09 5.91997 73.14 5.58997 73.14C4.70997 73.17 3.84998 72.84 3.21998 72.2ZM5.43995 65.45C5.36995 65.56 5.29999 65.68 5.22999 65.79C5.29999 65.83 5.36005 65.87 5.42005 65.91C6.13005 66.46 6.29 67.43 5.87 68.2C5.79 68.36 5.69998 68.51 5.59998 68.66C5.58998 68.75 5.57995 68.84 5.56995 68.94C5.56995 68.99 5.56995 69.04 5.56995 69.1C5.57995 69.21 5.58999 69.33 5.60999 69.45C5.61999 69.5 5.63002 69.55 5.64002 69.59C5.64002 69.59 5.64003 69.6 5.65003 69.6C5.70003 69.59 5.74004 69.58 5.78004 69.56C5.85004 69.54 5.90998 69.51 5.96998 69.48C5.96998 69.48 5.98 69.47 5.99 69.47C5.97 69.48 5.94005 69.49 5.92005 69.51C5.97005 69.48 6.01995 69.45 6.06995 69.42C6.12995 69.38 6.19001 69.33 6.25001 69.28C6.35001 69.19 6.45005 69.09 6.54005 68.99C6.62005 68.9 6.69002 68.8 6.76002 68.7C6.86002 68.54 6.95005 68.38 7.04005 68.22C7.13005 68.02 7.22006 67.82 7.30006 67.61C7.37006 67.4 7.41998 67.18 7.46998 66.96C7.50998 66.73 7.54007 66.49 7.56007 66.25C7.56007 66.21 7.55995 66.16 7.56995 66.12C7.42995 65.96 7.29004 65.79 7.16004 65.62C6.85004 65.19 6.57007 64.73 6.31007 64.26C6.00007 64.65 5.70995 65.05 5.43995 65.45ZM13.6 63.51C13.49 63.74 13.36 63.99 13.21 64.22C13.25 64.38 13.29 64.55 13.33 64.71C13.63 64.64 13.92 64.55 14.22 64.46C14.61 64.32 14.99 64.15 15.37 63.97C15.89 63.7 16.39 63.4 16.87 63.08C17.15 62.88 17.42 62.68 17.7 62.47C17.32 62.59 16.95 62.66 16.53 62.68C15.99 62.71 15.3901 62.49 14.9201 62.25C14.6601 62.11 14.42 61.96 14.21 61.78C14.07 62.37 13.88 62.96 13.6 63.51ZM19.63 52.53C19.43 52.55 19.24 52.58 19.04 52.62C18.9 52.66 18.77 52.69 18.63 52.74C18.45 52.81 18.27 52.88 18.1 52.96C18.01 53.01 17.92 53.06 17.84 53.11C17.69 53.22 17.54 53.33 17.39 53.45C17.36 53.48 17.3301 53.51 17.3001 53.54C17.4201 53.67 17.55 53.81 17.66 53.95C18.41 54.83 19.0701 55.82 19.5501 56.86C20.0401 57.92 20.21 59.16 19.85 60.27C19.83 60.32 19.81 60.38 19.79 60.44C20.11 60.05 20.42 59.65 20.7 59.23C20.93 58.87 21.14 58.5 21.34 58.12C21.52 57.72 21.69 57.31 21.84 56.89C21.94 56.59 22.02 56.3 22.09 56C22.13 55.79 22.1601 55.58 22.1801 55.36C22.1801 55.25 22.1801 55.15 22.1801 55.04C22.1601 54.88 22.14 54.72 22.11 54.56C22.06 54.37 22.01 54.19 21.95 54.01C21.9 53.89 21.85 53.77 21.79 53.65C21.74 53.56 21.7 53.47 21.64 53.39C21.61 53.35 21.5901 53.32 21.5601 53.28C21.5201 53.24 21.4701 53.19 21.4301 53.15C21.4601 53.17 21.48 53.19 21.5 53.21C21.43 53.15 21.36 53.09 21.29 53.03C21.13 52.93 20.98 52.84 20.82 52.76C20.73 52.72 20.64 52.68 20.54 52.64C20.43 52.6 20.31 52.57 20.2 52.54C20.13 52.53 20.06 52.52 19.98 52.51C19.92 52.51 19.8701 52.51 19.8101 52.51C19.7501 52.53 19.69 52.53 19.63 52.53ZM69.21 59.05C69.16 59.17 69.1001 59.28 69.0601 59.41C69.0601 59.42 69.0501 59.43 69.0501 59.45C69.1201 59.37 69.2 59.3 69.27 59.22C69.44 59.06 69.63 58.92 69.82 58.79C69.71 58.71 69.61 58.62 69.5 58.54C69.4 58.71 69.3 58.88 69.21 59.05ZM16.28 58.9C16.3 58.92 16.32 58.94 16.33 58.95C16.36 58.97 16.3901 59 16.4201 59.02C16.4501 59.04 16.47 59.05 16.5 59.06C16.5 59.06 16.5 59.05 16.5 59.04C16.49 58.98 16.48 58.92 16.47 58.86C16.44 58.73 16.4 58.59 16.36 58.46C16.32 58.34 16.27 58.23 16.22 58.11C16.07 57.84 15.92 57.58 15.75 57.32C15.77 57.47 15.7901 57.62 15.8101 57.77C15.8601 57.96 15.92 58.15 15.98 58.34C16.03 58.46 16.08 58.58 16.14 58.69C16.12 58.67 16.1 58.64 16.09 58.61C16.11 58.64 16.13 58.68 16.16 58.71C16.17 58.73 16.1799 58.75 16.1899 58.77C16.1799 58.75 16.1701 58.73 16.1701 58.72C16.1901 58.78 16.23 58.85 16.28 58.9ZM64.9301 56.9C65.0401 56.88 65.15 56.85 65.26 56.82C65.15 56.79 65.05 56.75 64.96 56.7C64.94 56.77 64.9401 56.83 64.9301 56.9ZM21.8001 49.35C22.1201 49.47 22.42 49.62 22.72 49.78C23.06 49.95 23.3901 50.17 23.6801 50.42C23.6801 50.41 23.6801 50.4 23.6801 50.39C23.6701 50.38 23.67 50.37 23.66 50.37C23.46 50.16 23.2601 49.96 23.0501 49.76C23.0101 49.72 22.96 49.69 22.91 49.65C22.87 49.63 22.82 49.6 22.78 49.58C22.7 49.54 22.62 49.51 22.53 49.48C22.41 49.44 22.28 49.41 22.16 49.38C22.08 49.36 22 49.35 21.91 49.34C21.88 49.35 21.8401 49.35 21.8001 49.35ZM69.3001 42.08C69.5501 41.64 69.84 41.24 70.16 40.85C70.41 40.54 70.68 40.26 71 40.05C71.04 39.97 71.09 39.89 71.13 39.8C71.42 39.2 71.67 38.58 71.9 37.96C71.99 37.7 72.06 37.44 72.12 37.18C72.16 36.95 72.19 36.72 72.21 36.48C72.22 36.29 72.22 36.11 72.21 35.92C72.21 35.89 72.2 35.86 72.2 35.83C72.2 35.83 72.2 35.83 72.2 35.82C72.19 35.81 72.1801 35.8 72.1701 35.79C72.1501 35.78 72.14 35.77 72.13 35.76C72.09 35.76 72.06 35.77 72.02 35.78C71.7 36.02 71.38 36.27 71.07 36.53C70.78 36.8 70.51 37.08 70.24 37.38C70.03 37.62 69.83 37.87 69.65 38.13C69.48 38.4 69.3201 38.67 69.1701 38.96C69.01 39.3 68.86 39.65 68.73 40.01C68.62 40.36 68.5299 40.71 68.4399 41.07C68.3899 41.38 68.3401 41.69 68.3101 42C68.3101 42.02 68.3101 42.03 68.3101 42.05C68.4301 42.03 68.56 42.01 68.6899 42.01C68.8899 41.99 69.1001 42.02 69.3001 42.08ZM43.1801 30.48C43.7301 30.15 44.3 29.86 44.88 29.63C45.71 29.31 46.59 29.3 47.45 29.51C47.56 29.53 47.66 29.57 47.76 29.61C47.72 28.75 47.81 27.87 47.91 27.03C47.96 26.62 48.02 26.22 48.11 25.82C48.07 25.81 48.03 25.8 47.99 25.79C47.69 25.73 47.39 25.69 47.08 25.66C46.86 25.65 46.6401 25.65 46.4201 25.66C46.2201 25.68 46.03 25.71 45.84 25.74C45.75 25.76 45.6601 25.79 45.5601 25.82C45.3601 25.9 45.16 25.99 44.96 26.08C44.83 26.15 44.6901 26.23 44.5601 26.31C44.6001 26.62 44.57 26.95 44.45 27.26C44.32 27.61 44.15 27.93 43.95 28.23C43.79 28.66 43.63 29.1 43.48 29.53C43.48 29.52 43.48 29.52 43.48 29.51C43.37 29.83 43.2701 30.15 43.1801 30.48ZM69.36 27.35C69.35 27.58 69.34 27.82 69.32 28.05C69.45 27.9 69.59 27.75 69.73 27.61C69.96 27.38 70.23 27.2 70.52 27.07C70.53 27.04 70.5401 27.02 70.5501 26.99C70.5601 26.95 70.57 26.92 70.58 26.88C70.18 26.92 69.77 26.86 69.4 26.73C69.39 26.94 69.37 27.15 69.36 27.35ZM72.27 19.62C72.53 19.76 72.77 19.93 73 20.14C73.01 20.1 73.02 20.06 73.03 20.02C73.04 19.96 73.0501 19.9 73.0501 19.84C73.0501 19.79 73.0501 19.73 73.0501 19.68C73.0301 19.52 73 19.35 72.96 19.19C72.98 19.26 72.99 19.34 73.01 19.42C72.99 19.32 72.9601 19.22 72.9301 19.12C72.9101 19.07 72.89 19.01 72.87 18.96C72.67 19.18 72.47 19.4 72.27 19.62ZM72.1801 13.03C71.9801 13.29 71.75 13.53 71.51 13.75C71.54 13.76 71.57 13.77 71.6 13.78C71.69 13.69 71.79 13.6 71.9 13.51C72.03 13.4 72.17 13.33 72.32 13.27C72.35 13.18 72.38 13.09 72.41 13.01C72.34 13.02 72.2601 13.03 72.1801 13.03ZM42.52 7.08C42.61 7.37 42.6801 7.67 42.6801 7.97C42.6801 8.4 42.56 8.82001 42.46 9.24001C42.4 9.61001 42.3401 9.98 42.3101 10.36C42.2901 10.62 42.28 10.87 42.29 11.13C42.29 11.14 42.29 11.15 42.29 11.17C42.34 11.15 42.3899 11.13 42.4399 11.11C42.5099 11.07 42.59 11.03 42.66 10.98C43.12 10.66 43.56 10.33 44 9.97C44.24 9.76 44.4599 9.53 44.6899 9.31C44.68 9.27 44.67 9.21999 44.66 9.17999C44.48 8.21999 44.59 7.2 44.78 6.23C44.66 6.08 44.5401 5.92001 44.4201 5.77001C44.2901 5.62001 44.15 5.47001 44.02 5.32001C44.07 5.38001 44.1201 5.43001 44.1701 5.49001C43.9201 5.22001 43.66 4.97 43.39 4.72C43.3 4.65 43.21 4.58 43.12 4.51C42.94 4.4 42.77 4.30001 42.58 4.21001C42.49 4.17001 42.4001 4.13001 42.3101 4.10001C42.2701 4.09001 42.2299 4.08001 42.1899 4.07001C42.16 4.07001 42.13 4.06 42.09 4.05C42.06 4.05 42.02 4.05 41.99 4.05C41.92 4.06 41.84 4.07 41.76 4.08C41.68 4.1 41.6 4.12 41.53 4.14C41.48 4.16 41.44 4.18 41.4 4.2C41.35 4.23 41.3 4.25 41.26 4.28C41.14 4.37 41.0301 4.46 40.9201 4.56C40.9801 4.51 41.04 4.46 41.09 4.41C41 4.5 40.91 4.58999 40.82 4.67999C40.76 4.74999 40.7 4.82 40.65 4.89C40.61 5.06 40.5399 5.22 40.4399 5.37C40.2999 5.59 40.15 5.8 39.99 6C40.26 5.87 40.5401 5.81 40.8101 5.81C41.5701 5.79 42.28 6.27 42.52 7.08ZM51.0501 5.63001C50.8001 5.88001 50.53 6.11001 50.26 6.32001C50.17 7.03001 49.89 7.74 49.61 8.39C49.38 8.95 49.06 9.48 48.7 9.98C48.76 10 48.82 10.03 48.88 10.05C48.95 10.07 49.02 10.09 49.08 10.1C49.15 10.11 49.21 10.12 49.28 10.13C49.32 10.13 49.36 10.13 49.4 10.13C49.45 10.12 49.5001 10.12 49.5501 10.11C49.7301 10.07 49.91 10.02 50.09 9.96001C50.5 9.80001 50.89 9.63 51.28 9.44C51.64 9.25 51.9801 9.05 52.3101 8.84C52.6401 8.61 52.96 8.36001 53.27 8.10001C53.56 7.83001 53.84 7.56001 54.12 7.27001C54.03 7.25001 53.94 7.23001 53.84 7.21001C53.48 7.10001 53.09 6.98 52.79 6.73C52.4 6.41 52.11 6.07001 51.84 5.63001C51.74 5.46001 51.66 5.29 51.59 5.11C51.41 5.29 51.2401 5.46001 51.0501 5.63001ZM25.12 6.19C24.97 6.3 24.8201 6.41999 24.6701 6.53999C24.6001 6.60999 24.52 6.68 24.45 6.76C24.39 6.83 24.33 6.91001 24.27 6.99001C24.16 7.16001 24.06 7.34001 23.96 7.52001C23.91 7.63001 23.86 7.75 23.82 7.86C24.51 7.92 25.19 8.22 25.72 8.64C26.2 9.02 26.5201 9.53 26.8001 10.08C26.9401 9.95 27.0699 9.81999 27.1899 9.67999C27.3499 9.48999 27.5 9.30001 27.64 9.10001C27.67 9.05001 27.7 9.01001 27.73 8.96001C27.02 8.36001 26.4601 7.64 25.9301 6.89C25.7301 6.61 25.55 6.32 25.41 6.01C25.32 6.06 25.21 6.13 25.12 6.19ZM31.54 6.39999C32.08 6.27999 32.61 6.13 33.13 5.97C33.14 5.97 33.1501 5.96001 33.1701 5.96001C32.93 5.85001 32.6899 5.75 32.4399 5.66C31.9999 5.52 31.56 5.38999 31.11 5.28999C31.11 5.28999 31.11 5.28999 31.1 5.28999C31.28 5.62999 31.44 6.00999 31.54 6.39999Z"
    fill="rgba(191, 192, 191, 1)" />
</svg>