<svg width="84" height="94" viewBox="0 0 84 94" fill="none" xmlns="http://www.w3.org/2000/svg">
  <path
    d="M19.88 38.49C20.06 39.14 20.66 39.72 21.35 39.77C21.43 39.78 21.51 39.79 21.6 39.8101C21.96 39.8101 22.29 39.7001 22.57 39.51C24.4987 38.5869 26.3459 37.5142 28.1899 36.4432L28.192 36.4421L28.1934 36.4414C28.5855 36.2138 28.9774 35.9861 29.37 35.76C30.218 35.2695 31.0867 34.8204 31.9532 34.3726L31.957 34.3707L32.48 34.1L32.9594 33.8469L33.3155 33.6585C34.1136 33.2362 34.9091 32.8154 35.71 32.4C36.5285 32.0089 37.3636 31.6592 38.2076 31.3057L38.46 31.2C39.46 30.7799 40.41 30.28 41.35 29.74C41.8326 29.4659 42.2975 29.167 42.7615 28.8685C43.0763 28.6661 43.3907 28.464 43.71 28.27C44.59 27.73 45.49 27.23 46.41 26.77L46.5917 26.6798C47.9567 26.0016 49.3248 25.3219 50.7625 24.8076L50.76 24.8101C50.7667 24.8079 50.7729 24.8057 50.7788 24.8035L50.7625 24.8076C50.7664 24.8037 50.7685 24.8019 50.7709 24.8009C50.7731 24.8001 50.7756 24.8001 50.78 24.8001C51.7 24.4901 52.29 23.59 52.02 22.62C51.77 21.73 50.75 21.0701 49.84 21.38C47.9592 22.0253 46.1974 22.9175 44.4292 23.8129L44.4253 23.8147L43.98 24.04C43.02 24.53 42.11 25.0901 41.2 25.67C40.35 26.2101 39.48 26.73 38.6 27.23C37.9 27.57 37.21 27.88 36.49 28.1801C35.76 28.4801 35.04 28.8001 34.33 29.13C33.6909 29.4266 33.075 29.7581 32.4602 30.0889L32.4545 30.0922C32.2631 30.1952 32.0718 30.2982 31.88 30.4C31.2 30.76 30.51 31.12 29.82 31.48C28.4973 32.1757 27.1996 32.9154 25.9022 33.655L25.8997 33.6565L25.8977 33.6576L25.896 33.6587C24.3609 34.5337 22.826 35.4085 21.25 36.21C21.07 36.2899 20.88 36.38 20.7 36.49C20.02 36.9 19.67 37.71 19.88 38.49Z"
    fill="rgba(191, 192, 191, 1)" />
  <path
    d="M58.46 21C57.57 20.89 56.96 20.11 56.93 19.25C56.8868 18.0751 58.0003 17.5123 58.9489 17.0327C59.0381 16.9876 59.1258 16.9432 59.211 16.8992C59.2686 16.8693 59.3251 16.8397 59.38 16.81C60.15 16.4 60.9 15.97 61.65 15.53C61.7393 15.4788 61.8285 15.4272 61.9176 15.3754C62.0877 15.2764 62.2575 15.1765 62.4274 15.0766C62.8454 14.8308 63.2639 14.5846 63.69 14.35C64.42 13.96 65.17 13.61 65.92 13.26C66.7 12.85 67.48 12.42 68.21 11.93C68.185 11.945 68.1625 11.96 68.14 11.975L68.1295 11.982C68.1104 11.9946 68.0911 12.0073 68.07 12.02C68.08 12.01 68.09 11.9999 68.11 11.99C68.9 11.4399 69.99 11.53 70.59 12.31C71.16 13.05 71.06 14.2399 70.27 14.79C68.9617 15.7106 67.5313 16.3966 66.0971 17.0843L65.96 17.15C65.1449 17.5889 64.3482 18.0524 63.5506 18.5164L63.5482 18.5178L63.5328 18.5268L63.5255 18.531L63.5183 18.5352C63.3091 18.6569 63.0997 18.7787 62.89 18.9C62.4497 19.1523 62.0011 19.3919 61.5507 19.6324C61.0191 19.9163 60.4852 20.2014 59.96 20.51C59.64 20.82 59.21 21.02 58.73 21.02C58.64 21.02 58.55 21.01 58.46 21Z"
    fill="rgba(191, 192, 191, 1)" />
  <path fill-rule="evenodd" clip-rule="evenodd"
    d="M73.6313 80.1635C73.9095 80.6336 73.9722 81.2257 73.75 81.76C73.73 81.8201 73.7 81.8701 73.68 81.9301C73.66 81.9701 73.64 82.0101 73.63 82.0501C73.58 82.2201 73.54 82.39 73.5 82.57C73.4137 83.0573 73.3463 83.5521 73.2793 84.0453L73.279 84.0468C73.2618 84.1732 73.2446 84.2996 73.2271 84.4257C73.2023 84.6045 73.1769 84.7827 73.15 84.96C73.02 85.84 72.85 86.7201 72.68 87.6C72.6282 87.8717 72.5824 88.1481 72.5364 88.426L72.5358 88.4301C72.402 89.2389 72.2661 90.0608 71.9724 90.8143C71.9768 90.9819 71.957 91.1521 71.91 91.32C71.76 91.84 71.5 92.27 71.07 92.61C70.81 92.8099 70.52 92.97 70.22 93.11L69.74 93.32C69.43 93.45 69.12 93.51 68.8 93.51C68.58 93.49 68.39 93.4701 68.19 93.4301C67.55 93.29 67.05 92.74 66.64 92.26C66.5046 92.0995 66.3717 91.9365 66.2387 91.7736C66.1067 91.6116 65.9746 91.4496 65.84 91.29C65.7229 91.1593 65.6035 91.0308 65.4841 90.9022C65.1653 90.559 64.8465 90.2156 64.57 89.83C64.3105 89.474 64.0911 89.0924 63.8722 88.7118C63.7283 88.4617 63.5847 88.2119 63.43 87.97C63.409 87.942 63.3881 87.9137 63.367 87.8853C63.2675 87.7512 63.1656 87.6138 63.05 87.49C62.75 87.1701 62.43 86.8601 62.12 86.54C61.71 86.12 61.35 85.6599 61 85.2C60.4111 84.4203 59.8841 83.5994 59.3562 82.777C59.2477 82.6079 59.1391 82.4389 59.03 82.27C58.54 81.5501 58.05 80.8301 57.49 80.1701C57.2 79.87 56.9 79.5801 56.58 79.3001C56.4344 79.1726 56.2867 79.0465 56.1387 78.9202C55.7178 78.5609 55.2948 78.1996 54.91 77.8001C54.4266 77.3076 53.9753 76.7832 53.5273 76.2626L53.3815 76.0933C53.3841 76.095 53.3871 76.0971 53.39 76.1C52.94 75.59 52.47 75.11 51.97 74.65C51.74 74.4601 51.51 74.28 51.27 74.11C50.7173 73.7653 50.1469 73.4453 49.5756 73.1249C49.1857 72.9061 48.7954 72.6871 48.41 72.46C47.6497 72.0054 46.914 71.5077 46.1788 71.0105C45.976 70.8733 45.7732 70.7362 45.57 70.6C45.57 70.6 45.58 70.61 45.59 70.61L45.5 70.5501C44.9384 70.181 44.364 69.8571 43.787 69.5316C43.6447 69.4514 43.5024 69.3711 43.36 69.29C42.54 68.8201 41.74 68.3101 40.93 67.8101C40.735 67.6901 40.5375 67.575 40.34 67.46C40.1425 67.345 39.945 67.23 39.75 67.11C39.6499 67.0512 39.5479 66.9934 39.4454 66.9354C39.1232 66.7531 38.7962 66.5681 38.5089 66.3356C38.2191 66.5729 37.9193 66.8001 37.62 67.0266L37.6155 67.0299C37.2987 67.2699 36.9827 67.5094 36.68 67.76C35.86 68.49 35.03 69.23 34.28 70.04C33.8235 70.5936 33.4028 71.1731 32.9807 71.7545L32.98 71.7556L32.9792 71.7567C32.6622 72.1935 32.3444 72.6314 32.01 73.0601C31.4258 73.8042 30.8221 74.5339 30.2194 75.2626C29.9555 75.5816 29.6918 75.9003 29.43 76.22C27.71 78.33 26.05 80.48 24.48 82.7C24.3747 82.8715 24.2658 83.043 24.1565 83.215C23.9026 83.6148 23.6467 84.0176 23.43 84.4301C23.04 85.16 22.65 85.9 22.26 86.64C21.79 87.6 21.32 88.5601 20.86 89.52C20.7471 89.749 20.645 89.981 20.5432 90.2122C20.3206 90.7179 20.0995 91.2202 19.77 91.6801C19.54 91.9901 19.16 92.24 18.79 92.34C18.6875 92.3673 18.5897 92.3854 18.4934 92.3941C18.437 92.4653 18.3763 92.5338 18.31 92.6C18.08 93.01 17.78 93.36 17.36 93.61C16.91 93.88 16.34 93.9399 15.82 93.9399C15.74 93.95 15.69 93.95 15.63 93.95C14.02 93.8999 12.49 93.47 11.01 92.87C9.33002 92.1899 7.66003 91.5 6.04002 90.6801C5.18002 90.2401 4.37003 89.74 3.61002 89.15C2.48003 88.28 0.950027 86.77 1.86002 85.23C2.02826 84.9381 2.28217 84.6952 2.57818 84.5242C2.56573 84.38 2.56883 84.2318 2.59003 84.08C2.65547 83.5728 2.96185 83.079 3.24636 82.6204L3.26254 82.5944C3.28953 82.5508 3.31625 82.5077 3.34252 82.4649C3.37241 82.4161 3.4017 82.3678 3.43003 82.32C4.00858 81.3114 4.80718 80.4373 5.59644 79.5735L5.60068 79.5687L5.60358 79.5654C5.82144 79.327 6.03853 79.0895 6.25003 78.85C6.80998 78.2 7.36244 77.5451 7.9149 76.8901C8.46745 76.2351 9.01999 75.5801 9.58003 74.9301C10.88 73.4301 12.22 71.95 13.57 70.49C14.81 69.15 16.11 67.87 17.43 66.6C17.93 66.12 18.421 65.6312 18.9121 65.1425C19.1577 64.898 19.4033 64.6535 19.65 64.41C20.129 63.931 20.5808 63.4179 21.0277 62.91C21.122 62.803 21.216 62.6962 21.31 62.59C21.4012 62.473 21.4929 62.3568 21.5849 62.2409C21.6612 62.1445 21.7377 62.0486 21.8141 61.9526L21.8352 61.9259L21.8363 61.9244C22.196 61.473 22.5543 61.0233 22.89 60.5601C23.2185 60.1013 23.547 59.6427 23.8772 59.184C24.007 59.0037 24.1371 58.8234 24.2676 58.6431C24.3914 58.4721 24.5155 58.301 24.64 58.13C24.944 57.7066 25.2504 57.283 25.5592 56.8607C25.4822 56.8352 25.4058 56.8082 25.33 56.78C24.5 56.4501 23.71 56.0299 22.95 55.57C22.19 55.11 21.43 54.6801 20.66 54.25C19.95 53.85 19.26 53.4299 18.58 52.99C18.5862 52.9962 18.5924 52.9985 18.6009 53.0018L18.6027 53.0026C18.6076 53.0044 18.6132 53.0066 18.62 53.01C18.4989 52.9313 18.3814 52.8525 18.2654 52.7738C18.1899 52.7225 18.1149 52.6713 18.04 52.62C18.0511 52.6273 18.0621 52.635 18.0732 52.643L18.1063 52.667L18.1104 52.6699C17.7033 52.398 17.2944 52.1299 16.8854 51.8617L16.8599 51.8449C16.6513 51.7081 16.4427 51.5713 16.2343 51.434C15.9858 51.2703 15.7375 51.1058 15.49 50.9399L15.5133 50.9559C15.5212 50.9614 15.5292 50.9672 15.5372 50.973C15.1568 50.7134 14.7834 50.4468 14.41 50.1801C14.12 49.9901 13.83 49.8101 13.52 49.64C13.23 49.5 12.93 49.37 12.62 49.26C12.0081 49.0527 11.3939 48.8596 10.7807 48.6669L10.7698 48.6636L10.7575 48.6596C10.1058 48.4547 9.45528 48.2503 8.81003 48.03L8.72003 48L8.70966 47.9972C8.70304 47.9954 8.69622 47.9934 8.68926 47.9912L8.65666 47.9805C8.63905 47.9746 8.6214 47.9688 8.60491 47.964C7.32065 47.5079 6.06696 46.9906 4.95003 46.1899C4.85532 46.1209 4.75996 46.0471 4.66663 45.9691C4.2463 46.1233 3.77056 46.1206 3.34003 45.9399C3.14674 45.8834 2.94637 45.8383 2.74579 45.7931C2.02282 45.6303 1.2971 45.4668 0.89003 44.77C0.430031 43.99 0.590034 43.12 1.14003 42.4399C1.45332 42.0462 1.8307 41.7245 2.20763 41.4032L2.34003 41.29C2.71003 40.9701 3.10003 40.6701 3.50003 40.39C5.19003 39.1901 6.90003 38.03 8.61003 36.87C10.18 35.82 11.76 34.79 13.36 33.78C13.5669 33.6497 13.7738 33.5169 13.9811 33.3839L14.0003 33.3715C14.5182 33.0389 15.0391 32.7045 15.57 32.4L18.72 30.57C19.7122 29.993 20.729 29.4507 21.7463 28.9082C22.1747 28.6797 22.6033 28.4512 23.03 28.22C23.5423 27.9453 24.0555 27.6697 24.5689 27.3937L25.7224 26.7738C26.6191 26.2916 27.5158 25.8096 28.41 25.33C31.68 23.58 34.98 21.87 38.3 20.21C38.23 20.2501 38.16 20.28 38.1 20.32C41.64 18.53 45.16 16.71 48.67 14.86C52.01 13.1 55.39 11.41 58.86 9.93C61.3924 8.8437 63.9534 7.83399 66.5134 6.82471C67.6534 6.37531 68.7931 5.92597 69.93 5.46998C71.57 4.81 73.21 4.08997 74.82 3.35999C75.73 2.95002 76.63 2.52997 77.53 2.09998C77.6231 2.05537 77.7161 2.01038 77.8089 1.96522C77.944 1.89954 78.0789 1.83344 78.2139 1.76728C78.7137 1.52222 79.2148 1.27668 79.73 1.04999L79.8224 1.01038L79.9012 0.976386C80.0536 0.910346 80.2045 0.842841 80.35 0.770026C80.3743 0.75788 80.3983 0.745734 80.422 0.733649C80.5154 0.686103 80.6064 0.639838 80.71 0.599982C81.33 0.339972 82.06 0.42005 82.6 0.830024C83.16 1.26002 83.37 1.93 83.29 2.60999C83.2628 2.86823 83.1895 3.12647 83.117 3.38154C83.0828 3.50184 83.0489 3.62141 83.02 3.74C82.9287 4.08625 82.8403 4.4325 82.752 4.7782C82.6083 5.34107 82.4649 5.90247 82.31 6.46003C82.154 7.03217 81.9768 7.60432 81.8005 8.17365C81.7056 8.48005 81.611 8.78565 81.52 9.09003C81.1915 10.1777 80.8596 11.2623 80.5283 12.3454C80.2747 13.1741 80.0215 14.0021 79.77 14.83C79.7079 15.0346 79.6455 15.2393 79.5831 15.4441L79.5742 15.4732C79.1267 16.941 78.6764 18.4183 78.31 19.91C78.236 20.1947 78.1596 20.4794 78.083 20.7646L78.0826 20.7659L78.082 20.7683C77.8899 21.4835 77.6971 22.2017 77.54 22.9301C77.3694 23.7065 77.206 24.4902 77.0437 25.2688L76.96 25.67C76.89 26.125 76.8175 26.5825 76.745 27.04L76.6496 27.6432C76.6093 27.8993 76.5693 28.155 76.53 28.41C76.4863 28.6913 76.4621 28.9725 76.4379 29.2538L76.4376 29.2567L76.4375 29.2578C76.4231 29.4252 76.4086 29.5927 76.39 29.76C76.3777 29.8867 76.3643 30.0125 76.3507 30.1378L76.3079 30.5247L76.2898 30.6904C76.2795 30.7865 76.2695 30.8829 76.26 30.98C76.17 32.66 76.08 34.3401 76.03 36.02C75.97 37.62 75.9 39.22 75.79 40.82C75.681 42.3966 75.5546 43.9733 75.4282 45.5512L75.4276 45.5585L75.4272 45.5643C75.299 47.1646 75.1707 48.766 75.06 50.37V50.4C75.06 50.4401 75.06 50.48 75.05 50.52C74.84 54.29 74.64 58.0599 74.54 61.82C74.5199 62.499 74.5004 63.1785 74.4809 63.858C74.3941 66.8911 74.3071 69.9273 74.16 72.95L74.07 74.85C74.05 75.21 74.03 75.58 74.01 75.9399V75.96C74.01 76.028 74.0077 76.0961 74.0039 76.1644C74.0011 76.2149 73.9974 76.2654 73.9932 76.3164C73.9872 76.3901 73.9801 76.4647 73.9728 76.5407L73.9727 76.5421L73.97 76.57L73.88 77.59C73.81 78.25 73.75 78.9099 73.68 79.58C73.6763 79.6213 73.6726 79.6627 73.6691 79.7041L73.6588 79.8275L73.6497 79.9399C73.6437 80.0145 73.6376 80.089 73.6313 80.1635ZM6.86515 42.3268L7.17097 42.1129C7.36797 41.9753 7.56468 41.838 7.76003 41.7C7.7429 41.7114 7.72496 41.7229 7.70666 41.7344L7.66499 41.76L7.65831 41.764L7.65632 41.7651L7.65035 41.7688C7.63052 41.7811 7.61082 41.7933 7.59183 41.8057L7.57003 41.82C9.57003 40.48 11.58 39.1499 13.59 37.82C15.54 36.5399 17.53 35.36 19.54 34.1899C21.9756 32.7691 24.4736 31.439 26.9698 30.1097L26.9753 30.1068L26.9772 30.1057L26.9894 30.0991L26.9987 30.0944C27.8134 29.6605 28.6279 29.2267 29.44 28.79C32.84 26.9601 36.25 25.1799 39.7 23.45L39.88 23.36H39.86C40.5357 23.0197 41.2089 22.6792 41.882 22.3388L41.904 22.3278C42.5685 21.9918 43.233 21.6559 43.9 21.32C43.8639 21.3441 43.8241 21.3645 43.7829 21.3857C43.7557 21.3998 43.7279 21.4142 43.7 21.4301C45.2963 20.632 46.8739 19.7965 48.4475 18.963L48.4511 18.9608C48.8676 18.7401 49.2838 18.5196 49.7 18.3C51.5079 17.3461 53.3322 16.4252 55.1506 15.5074L55.7 15.23C56.0268 15.0805 56.3534 14.9306 56.68 14.7807C58.5818 13.9077 60.4827 13.0352 62.42 12.25C63.7263 11.7224 65.0405 11.2108 66.355 10.699L66.363 10.6959L66.3723 10.6923C68.6645 9.79987 70.9574 8.90723 73.21 7.93C74.92 7.20002 76.63 6.45997 78.3 5.65998C78.41 5.60499 78.5175 5.5525 78.625 5.50001C78.7325 5.44752 78.84 5.39503 78.95 5.34003C78.63 6.43006 78.3 7.52003 77.97 8.60999C77.7626 9.28754 77.5529 9.9643 77.3432 10.6409L77.3413 10.6473L77.3397 10.6525C76.7924 12.4188 76.2454 14.1842 75.74 15.96C75.6561 16.2521 75.5694 16.5451 75.4824 16.8388C75.2894 17.4904 75.0955 18.1451 74.93 18.8C74.67 19.85 74.4 20.91 74.13 21.96C73.9642 22.6233 73.8318 23.301 73.6998 23.9767C73.6408 24.2787 73.5818 24.5803 73.52 24.88C73.3748 25.5646 73.2726 26.2587 73.1705 26.9524C73.125 27.262 73.0794 27.5714 73.03 27.88C72.9335 28.5005 72.8798 29.1353 72.8262 29.768C72.8021 30.0529 72.778 30.3374 72.75 30.62C72.6774 31.3539 72.6469 32.0983 72.6166 32.8417C72.6051 33.1215 72.5937 33.4011 72.58 33.6801C72.5122 34.8203 72.4748 35.9642 72.4374 37.1097C72.4141 37.8228 72.3907 38.5364 72.36 39.25C72.2445 40.9266 72.111 42.6006 71.9775 44.2738C71.7527 47.0912 71.5281 49.9066 71.39 52.73L71.3293 53.8685C71.2477 55.389 71.1661 56.9096 71.11 58.4301C71.0645 59.5566 71.032 60.6832 70.9994 61.8081L70.9994 61.8092C70.9748 62.6608 70.9502 63.5114 70.92 64.36L70.8674 65.866C70.7563 69.0596 70.6456 72.2423 70.49 75.4399C70.4787 75.5359 70.4675 75.635 70.4598 75.7355C70.4538 75.8131 70.45 75.8916 70.45 75.97C70.4083 76.4945 70.3559 77.0156 70.3035 77.5374C70.2679 77.8908 70.2323 78.2445 70.2 78.6C70.1912 78.7063 70.1836 78.8132 70.1765 78.9205C70.1712 79.0009 70.1662 79.0814 70.1612 79.1621C70.1352 79.5814 70.109 80.0029 70.04 80.41C70.0325 80.4553 70.0249 80.4949 70.0131 80.533L70.0096 80.544C70.0067 80.5526 70.0035 80.5613 70 80.57V80.59C70 80.5941 69.9983 80.5983 69.9963 80.6032C69.9935 80.61 69.99 80.6183 69.99 80.63C69.7863 81.1011 69.7731 81.6207 69.9683 82.073C69.8818 82.5328 69.8233 83.0001 69.7654 83.4633L69.7639 83.4747L69.7472 83.6078L69.723 83.7985C69.7091 83.9061 69.6949 84.0133 69.68 84.12C69.59 84.8301 69.47 85.53 69.34 86.24C69.2055 86.0086 69.0731 85.7772 68.9409 85.5462L68.9395 85.5436C68.5811 84.917 68.2242 84.2932 67.83 83.6801C67.5238 83.2068 67.1933 82.7528 66.8622 82.298C66.7176 82.0994 66.5729 81.9006 66.43 81.7C66.1948 81.3796 65.9671 81.0543 65.7394 80.729L65.7236 80.7063C65.6154 80.5519 65.5071 80.3975 65.3981 80.2435C65.2833 80.0816 65.1676 79.9202 65.05 79.76C64.3659 78.8478 63.5735 78.0385 62.7803 77.2284C62.4953 76.9373 62.2102 76.6461 61.93 76.35C61.0316 75.41 60.1194 74.4909 59.2048 73.5693L58.65 73.01C58.5145 72.8726 58.3794 72.7335 58.244 72.5941C57.6998 72.0338 57.1506 71.4685 56.55 70.98C55.8 70.37 55.04 69.78 54.21 69.28C53.7242 68.9898 53.229 68.7024 52.7332 68.4148C52.3411 68.1873 51.9486 67.9596 51.56 67.73C50.7959 67.2789 50.0658 66.7855 49.3305 66.2886L49.14 66.16C47.61 65.1401 46.04 64.1801 44.38 63.39C44.2671 63.3363 44.1541 63.2822 44.0409 63.228C43.1014 62.7781 42.1496 62.3225 41.15 62.01C40.24 61.7301 39.22 61.5601 38.48 62.3001C38.2459 62.5289 38.0939 62.8058 38.0194 63.1038C37.5022 62.9668 36.9289 63.0507 36.5 63.41C36.1855 63.6788 35.8545 63.9281 35.5222 64.1784L35.5192 64.1805C35.2715 64.367 35.023 64.554 34.78 64.75C34.2572 65.1754 33.7579 65.64 33.2612 66.1022L33.07 66.28L33.0686 66.2815L33.0677 66.2822C32.4985 66.8115 31.9293 67.3408 31.43 67.95C30.9545 68.5299 30.5243 69.1193 30.0877 69.7174L30.0837 69.7229L30.02 69.8101L29.8938 69.9843C29.4356 70.6174 28.9738 71.2555 28.47 71.86C28.3499 72.0057 28.2298 72.1506 28.1097 72.2952C27.9956 72.4325 27.8816 72.5695 27.7677 72.7062L27.7594 72.7161L27.7545 72.7219L27.7463 72.7318C27.3787 73.1732 27.0125 73.6128 26.65 74.0601C25.42 75.5701 24.23 77.12 23.05 78.6701C21.91 80.1701 20.88 81.73 20 83.4C19.55 84.25 19.1 85.1 18.68 85.97C18.37 86.6 18.06 87.23 17.76 87.86C17.6612 88.0505 17.5774 88.2461 17.4944 88.4396C17.4598 88.5203 17.4253 88.6006 17.39 88.6801C17.29 88.6701 17.19 88.65 17.1 88.63C16.43 88.52 15.78 88.39 15.12 88.26C14.01 88.01 12.91 87.74 11.83 87.38C11.23 87.16 10.65 86.91 10.07 86.64C9.42003 86.3001 8.79003 85.9401 8.18003 85.53C7.64003 85.15 7.13003 84.76 6.63003 84.33L6.62492 84.3256C6.56664 84.277 6.50861 84.2286 6.46003 84.1801C6.47958 84.1475 6.49914 84.116 6.51869 84.0848L6.55003 84.035L6.58176 83.9847C6.60118 83.9537 6.62061 83.9224 6.64003 83.89C6.97003 83.4301 7.33003 82.9901 7.71003 82.5601C8.78678 81.3517 9.83134 80.1217 10.8758 78.8919L10.8765 78.8911L10.8787 78.8886L10.8856 78.8805C11.5839 78.0582 12.2822 77.236 12.99 76.4201C13.2182 76.1665 13.4465 75.912 13.675 75.6571L13.6808 75.6505C14.1713 75.1032 14.6634 74.5543 15.16 74.01C16.44 72.62 17.74 71.2401 19.1 69.9301C19.2686 69.7665 19.4377 69.6029 19.607 69.4392L19.6118 69.4345C19.8268 69.2266 20.0421 69.0184 20.2567 68.8097C20.5532 68.5211 20.8485 68.2315 21.14 67.9399C21.89 67.2 22.61 66.4601 23.31 65.6801C24.64 64.2001 25.79 62.61 26.95 61C27.1191 60.7667 27.287 60.5325 27.4544 60.2979C27.5544 60.1577 27.6542 60.0175 27.754 59.8772L27.755 59.8757C28.5552 58.7514 29.3555 57.6268 30.24 56.57C30.255 56.5499 30.2725 56.5325 30.29 56.5149C30.3075 56.4974 30.325 56.48 30.34 56.46C30.79 56.13 31.09 55.61 31.09 55.02C31.09 54.1497 30.4241 53.4025 29.5843 53.2706C29.0525 52.2427 28.3154 51.3805 27.4 50.65C26.7 50.0801 25.98 49.5499 25.2 49.1C23.65 48.21 22.07 47.38 20.47 46.58C20.475 46.58 20.48 46.5825 20.485 46.585C20.49 46.5874 20.495 46.59 20.5 46.59L20.3023 46.492L20.0454 46.364L20.044 46.3633C19.2503 45.968 18.4628 45.5758 17.64 45.24C16.71 44.87 15.77 44.5701 14.81 44.29C14.5214 44.2098 14.2328 44.1245 13.9435 44.0391C13.3307 43.8579 12.715 43.6759 12.09 43.54C11.56 43.4201 11.04 43.32 10.5 43.25C10.05 43.2 9.60004 43.1499 9.16003 43.08C8.76004 42.99 8.36003 42.88 7.97003 42.75C7.59908 42.6201 7.22813 42.4818 6.86515 42.3268Z"
    fill="rgba(191, 192, 191, 1)" />
  <path
    d="M8.60491 47.964L8.65003 47.98C8.63725 47.98 8.62447 47.976 8.61168 47.9705C8.60446 47.9673 8.59724 47.9636 8.59003 47.96L8.60491 47.964Z"
    fill="rgba(191, 192, 191, 1)" />
  <path d="M18.23 52.75L18.1104 52.6699C18.1481 52.6973 18.1872 52.7255 18.23 52.75Z" fill="rgba(191, 192, 191, 1)" />
  <path d="M53.3815 76.0933L53.37 76.08C53.37 76.087 53.375 76.0891 53.3815 76.0933Z" fill="rgba(191, 192, 191, 1)" />
  <path
    d="M15.5563 50.9869C15.5771 51.0021 15.5984 51.0175 15.6204 51.0324C15.6396 51.0454 15.6594 51.0581 15.68 51.07L15.6142 51.0253L15.5563 50.9869Z"
    fill="rgba(191, 192, 191, 1)" />
</svg>