<svg width="76" height="82" viewBox="0 0 76 82" fill="none" xmlns="http://www.w3.org/2000/svg">
  <path fill-rule="evenodd" clip-rule="evenodd"
    d="M0.880031 27.43C0.410031 26.82 0.360031 25.87 0.880031 25.27C0.940031 25.2 1.01004 25.12 1.08004 25.05C1.07005 25.06 1.06256 25.07 1.05506 25.0799L1.04662 25.091C1.16373 24.96 1.30733 24.8559 1.46005 24.77C1.57962 24.6803 1.68922 24.5807 1.79883 24.481L1.80001 24.48C3.34001 23.07 4.86002 21.65 6.37002 20.23C7.52996 19.134 8.71548 18.0637 9.901 16.9934C10.1975 16.7257 10.4939 16.458 10.79 16.19C11.9158 15.1637 13.0769 14.1785 14.2372 13.1939C14.5916 12.8931 14.9467 12.5918 15.3 12.29C16.2522 11.468 17.2278 10.6741 18.2043 9.87955C18.6534 9.51414 19.1027 9.14857 19.55 8.78001C20.0951 8.33145 20.6305 7.87966 21.1654 7.42831C21.5724 7.08488 21.9796 6.74131 22.39 6.4C22.55 6.25503 22.71 6.11255 22.8699 5.97006C23.0299 5.82758 23.19 5.68493 23.35 5.53996C21.6 5.67996 19.86 5.83 18.12 6.02C17.523 6.07999 16.926 6.14813 16.3289 6.21627C14.836 6.38668 13.343 6.55709 11.85 6.59995C10.4 6.63995 9.58004 4.86998 10.45 3.74998C10.75 3.35998 11.0701 3.09 11.5301 2.9C11.7188 2.82451 11.9154 2.76879 12.1125 2.71294C12.2287 2.68002 12.3451 2.64705 12.46 2.60996C12.6426 2.55317 12.8268 2.49473 13.012 2.43599C13.2832 2.34992 13.5566 2.26318 13.83 2.17997C14.87 1.86997 15.92 1.58999 16.97 1.31999C19.1 0.769985 21.29 0.419965 23.5 0.299965C24.59 0.249965 25.78 0.299951 26.82 0.659951C27.67 0.959951 28.53 1.56998 28.89 2.43998C29.74 2.89998 30.43 3.66998 30.83 4.55998C31.13 5.20998 31.2501 5.84998 31.2801 6.55998C31.3138 7.26781 31.1557 7.99697 31.0034 8.69955L31.003 8.7015C30.9747 8.83202 30.9466 8.96163 30.92 9.09C30.93 9.05 30.9375 9.0125 30.945 8.97498C30.9525 8.93747 30.96 8.89996 30.97 8.85996C30.74 9.98996 30.41 11.06 30.02 12.14C29.9101 12.4449 29.7976 12.7497 29.6852 13.0546C29.5727 13.3594 29.46 13.6651 29.35 13.9699C29.2036 14.3688 29.056 14.7662 28.9084 15.1634L28.908 15.1645C28.6524 15.8523 28.3972 16.5391 28.1501 17.23L28.18 17.14C28.1633 17.1735 28.1536 17.2139 28.145 17.2497L28.14 17.27C28.135 17.285 28.13 17.2975 28.125 17.31C28.12 17.3225 28.115 17.335 28.11 17.35C28.115 17.34 28.1175 17.3325 28.12 17.325C28.1225 17.3175 28.125 17.31 28.13 17.3C27.92 17.92 27.7401 18.55 27.5901 19.19C27.4601 19.88 27.38 20.58 27.33 21.28C27.26 22.24 26.2401 22.92 25.3401 22.79C24.8801 22.73 24.46 22.48 24.18 22.12C23.88 21.73 23.79 21.28 23.83 20.8C23.9 19.85 24.04 18.91 24.24 17.99C24.4712 16.9593 24.8416 15.9657 25.2081 14.9824L25.4621 14.3024C25.9811 12.9135 26.4983 11.5295 27 10.13C26.985 10.165 26.9725 10.2 26.96 10.235C26.9475 10.27 26.935 10.305 26.92 10.34C27.14 9.71 27.33 9.07997 27.47 8.42997V8.43998C27.485 8.37499 27.4975 8.30999 27.51 8.24499C27.5209 8.18858 27.5317 8.13216 27.5442 8.07576L27.5437 8.07685L27.5414 8.08277L27.5499 8.03946C27.6365 7.59703 27.7215 7.16306 27.76 6.71995V6.47996L27.7566 6.45635C27.7479 6.39614 27.74 6.34202 27.74 6.28001C27.74 6.27001 27.74 6.25999 27.73 6.25999C27.6221 6.3799 27.5106 6.49262 27.3998 6.60462C27.3258 6.67941 27.2521 6.75393 27.18 6.82999C26.9505 7.05954 26.711 7.2791 26.4714 7.49866L26.47 7.49998C26.3128 7.64171 26.156 7.78393 25.9993 7.92609C25.4486 8.42587 24.8983 8.92512 24.33 9.4C22.72 10.75 21.11 12.09 19.49 13.42C18.0412 14.6149 16.6147 15.8376 15.1897 17.0592C14.7066 17.4733 14.2236 17.8873 13.74 18.3C12.18 19.69 10.62 21.1 9.1 22.54L6.22 25.24C5.78 25.65 5.33003 26.0599 4.88003 26.4699C4.781 26.5606 4.68254 26.6529 4.58378 26.7455C4.09425 27.2045 3.59739 27.6704 2.99002 27.9699C2.78002 28.0699 2.56004 28.12 2.33004 28.12C1.76004 28.13 1.20003 27.86 0.880031 27.43ZM27.54 8.09L27.5414 8.08277C27.5406 8.08527 27.54 8.08764 27.54 8.09ZM3.10998 53.79C2.62998 53.17 2.61998 52.25 3.10998 51.63C3.37998 51.3 3.65996 50.97 3.96996 50.67C4.19996 50.43 4.49999 50.28 4.80999 50.21C5.03559 50.0122 5.2612 49.8131 5.48722 49.6137C5.91239 49.2386 6.33911 48.8621 6.77001 48.49C8.76769 46.7231 10.7341 44.9198 12.6994 43.1176C13.4592 42.4209 14.2188 41.7243 14.98 41.03L14.9878 41.0229L14.9899 41.021L14.9908 41.0202C18.0572 38.2335 21.1236 35.4467 24.2 32.67C26.91 30.22 29.64 27.78 32.39 25.36C34.1452 23.8142 35.9104 22.2684 37.6757 20.7226L37.6768 20.7216L37.69 20.71C37.7425 20.6575 37.7951 20.6125 37.8544 20.5619L37.88 20.54L37.86 20.56C37.863 20.557 37.867 20.5539 37.8713 20.5506C37.8812 20.543 37.893 20.534 37.9 20.52C37.9078 20.5044 37.9156 20.501 37.9282 20.4954C37.9317 20.4939 37.9356 20.4922 37.94 20.49C37.9905 20.4479 38.0481 20.3987 38.1069 20.3484C39.5812 19.0395 41.0559 17.7398 42.54 16.44C42.565 16.42 42.5875 16.4 42.61 16.38C42.6325 16.36 42.655 16.34 42.68 16.32C43.0891 15.9582 43.4994 15.5987 43.9093 15.2396C44.7116 14.5365 45.5123 13.8348 46.3 13.12C46.49 12.9454 46.6805 12.7714 46.8711 12.5972C47.5429 11.9834 48.2157 11.3687 48.87 10.73C48.81 10.74 48.75 10.75 48.69 10.77C48.1 10.89 47.52 11.03 46.95 11.18C45.28 11.8 43.63 12.5 42 13.23C41.3976 13.4997 40.7977 13.7767 40.1976 14.0538C39.0843 14.5679 37.9706 15.0822 36.84 15.55C36.03 15.89 35.07 15.57 34.63 14.81C34.2 14.08 34.35 13.01 35.08 12.52C36.01 11.88 36.99 11.36 37.99 10.85C39.03 10.32 40.08 9.83001 41.15 9.38001C42.7 8.74001 44.29 8.21003 45.92 7.78003C47.19 7.31003 48.49 6.86998 49.81 6.59998C50.35 6.48998 50.89 6.39 51.44 6.37C51.92 6.35 52.47 6.37001 52.92 6.57001C53.06 6.63001 53.21 6.70003 53.35 6.78003C53.72 6.81003 54.08 6.84999 54.45 6.91999C55.41 7.10999 56.27 7.57997 57 8.21997C57.81 8.92997 58.27 9.86001 58.58 10.88C59.23 12.97 58.81 15.28 58.31 17.36C58.034 18.5044 57.6461 19.6159 57.2584 20.7266C57.1685 20.984 57.0784 21.2423 56.99 21.5C56.5021 22.9112 55.9536 24.3073 55.3576 25.6815C56.5404 25.1325 57.7287 24.5963 58.92 24.07C59.76 23.69 60.6 23.32 61.45 22.97C61.7079 22.8631 61.9658 22.7536 62.2242 22.6438C62.6672 22.4557 63.1116 22.2669 63.56 22.09C63.592 22.0763 63.6245 22.0626 63.6573 22.0488C63.7681 22.0021 63.882 21.954 63.99 21.9C64.9 21.51 65.83 21.19 66.77 20.9C67.2 20.77 67.64 20.73 68.09 20.72C68.56 20.72 68.98 20.91 69.39 21.11C70.09 21.45 70.52 22.13 70.46 22.88C70.68 23.19 70.87 23.52 71.01 23.86C71.1999 24.2759 71.2916 24.7408 71.3814 25.1957L71.41 25.34C71.52 25.9 71.57 26.48 71.61 27.04C71.6932 28.288 71.5969 29.5616 71.5029 30.8056L71.48 31.11C71.3727 32.4901 71.1889 33.8643 71.0054 35.2371C70.9496 35.6545 70.8937 36.0727 70.84 36.49L70.7969 36.8105L70.7966 36.8127C70.671 37.7469 70.5445 38.6874 70.41 39.62C70.1514 41.4472 69.826 43.2818 69.4337 45.0919C69.4695 45.0778 69.505 45.0635 69.5401 45.0494C69.5911 45.0289 69.6413 45.0087 69.69 44.99C70.21 44.79 70.73 44.6 71.27 44.46C71.89 44.31 72.47 44.24 73.1 44.3C73.92 44.38 74.93 45.07 75.11 45.91C75.22 46.41 75.25 46.86 75.14 47.36C75.11 47.48 75.08 47.6 75.04 47.72C75.201 48.0705 75.3173 48.439 75.4311 48.7999L75.45 48.86C75.71 49.71 75.81 50.59 75.85 51.47C75.9 52.48 75.88 53.5 75.81 54.51C75.7711 55.1711 75.7168 55.8322 75.6625 56.4933C75.619 57.0222 75.5756 57.5511 75.54 58.08C75.515 58.425 75.49 58.7725 75.465 59.12C75.44 59.4675 75.415 59.815 75.39 60.16C75.35 61.2 75.3 62.24 75.24 63.28C75.17 64.54 75.1 65.8 74.86 67.05C74.68 68 73.86 68.7 72.86 68.57C71.95 68.45 71.16 67.52 71.35 66.57C71.4955 65.8243 71.5666 65.0704 71.6384 64.3082C71.6456 64.2322 71.6527 64.1562 71.66 64.08C71.73 62.76 71.8 61.43 71.86 60.11C71.92 58.8435 72.0244 57.577 72.1289 56.3106C72.1811 55.677 72.2334 55.0435 72.2801 54.41V54.5194C72.2801 54.4795 72.2801 54.4298 72.29 54.39C72.29 54.3792 72.29 54.3691 72.2902 54.3594C72.2901 54.3596 72.2903 54.3592 72.2902 54.3594C72.2903 54.3575 72.2902 54.3562 72.2903 54.3543C72.2906 54.3457 72.291 54.3373 72.2918 54.3288C72.3208 53.8092 72.34 53.2896 72.34 52.77C72.2401 52.9 72.1425 53.0275 72.045 53.155C71.9475 53.2825 71.85 53.41 71.75 53.54L71.6762 53.6356C71.1616 54.3029 70.654 54.961 70.11 55.61C69.735 56.055 69.3625 56.4975 68.99 56.94C68.6175 57.3825 68.245 57.825 67.87 58.27C67.2431 59.0134 66.5978 59.7445 65.9527 60.4752C65.4351 61.0616 64.9176 61.6478 64.41 62.24C61.73 65.36 59.09 68.53 56.46 71.69C55.27 73.12 54.08 74.55 52.89 75.97L52.8887 75.9716C51.7091 77.3811 50.5296 78.7905 49.2801 80.14C49.1401 80.76 48.67 81.28 48.02 81.49C47.98 81.51 47.93 81.52 47.88 81.53C47.73 81.57 47.58 81.6 47.42 81.6C47.02 81.6 46.63 81.47 46.32 81.23C45.87 80.88 45.66 80.38 45.63 79.83C45.5841 78.894 46.2035 78.2443 46.8004 77.6182C46.8539 77.562 46.9073 77.506 46.96 77.45C49.2026 74.8807 51.3829 72.2569 53.5627 69.6336C53.8517 69.2857 54.1408 68.9378 54.43 68.59C55.0702 67.8198 55.7103 67.0522 56.3505 66.2845C56.9903 65.5171 57.6302 64.7498 58.27 63.98C59.2366 62.8266 60.2164 61.6864 61.1986 60.5434C61.4257 60.2791 61.6528 60.0147 61.88 59.75C62.4573 59.0727 63.0449 58.4058 63.6325 57.7389C64.3376 56.9385 65.0427 56.1382 65.73 55.32C65.8958 55.1231 66.062 54.9262 66.2284 54.7291C67.5578 53.1546 68.8969 51.5686 70.07 49.88C70.34 49.47 70.6001 49.06 70.84 48.62C70.69 48.62 70.54 48.62 70.4 48.63C70.2902 48.64 70.1799 48.65 70.07 48.65C67.9659 49.4734 65.8953 50.372 63.8275 51.2695C63.635 51.353 63.4425 51.4366 63.25 51.52C62.4208 51.8791 61.6044 52.2638 60.7869 52.649C60.3523 52.8538 59.9173 53.0587 59.48 53.26C58.9 53.53 58.32 53.8 57.73 54.06C57.595 54.125 57.4575 54.1875 57.32 54.25C57.1825 54.3125 57.045 54.375 56.91 54.44C56.7871 54.4972 56.6658 54.5584 56.5448 54.6195C56.2424 54.7723 55.9414 54.9243 55.62 55.01C55.18 55.13 54.76 55.17 54.3 55.16C53.59 55.14 52.95 54.75 52.67 54.08C52.38 53.4 52.56 52.67 53.05 52.14C53.0977 52.0889 53.1451 52.0378 53.1925 51.9867C53.4229 51.7383 53.6512 51.4923 53.9 51.26C54.19 50.99 54.52 50.75 54.85 50.52C55.61 49.98 56.42 49.52 57.24 49.06C58.92 48.11 60.7 47.34 62.51 46.7C63.5872 46.318 64.6879 46.0066 65.7998 45.7486C65.7634 45.5089 65.772 45.2581 65.83 45.01C65.91 44.66 65.99 44.31 66.06 43.96C66.42 42.13 66.74 40.3 67 38.46C67.0473 38.1219 67.095 37.7835 67.1427 37.4451C67.4701 35.1234 67.7985 32.7946 67.9853 30.4584C67.9838 30.4756 67.9821 30.4928 67.98 30.51C68.05 29.45 68.12 28.38 68.09 27.31L68.03 26.71C67.876 26.8844 67.7236 27.0588 67.5715 27.233C67.2002 27.658 66.8302 28.0815 66.44 28.5C65.7 29.3 64.96 30.11 64.23 30.91C63.7562 31.4238 63.2558 31.9198 62.7583 32.4128C62.5103 32.6587 62.2629 32.9038 62.02 33.15C61.0049 34.1804 59.9432 35.1641 58.8838 36.1458C58.5552 36.4503 58.2268 36.7546 57.9 37.06C57.0618 37.8432 56.201 38.6077 55.3407 39.3718C54.7953 39.8562 54.2493 40.3412 53.71 40.83C47.98 45.97 42.1 50.95 36.19 55.9C33.69 58 31.18 60.1 28.68 62.19C26.9023 63.6728 25.1514 65.1892 23.3999 66.7061C23.034 67.023 22.668 67.34 22.3018 67.6566L18.21 71.31C17.4162 72.0163 16.6419 72.7421 15.8676 73.468C15.4032 73.9034 14.9386 74.3389 14.47 74.77C14.1984 75.0195 13.9271 75.2698 13.6558 75.5202C12.5788 76.5142 11.5003 77.5095 10.39 78.46C10.2376 78.5905 10.0856 78.7213 9.93365 78.8522L9.93283 78.8529C9.04838 79.6144 8.16555 80.3745 7.21004 81.04C6.60004 81.47 5.88001 81.93 5.12001 81.93C4.95001 81.93 4.79002 81.91 4.63002 81.87C4.09002 81.72 3.68003 81.33 3.45003 80.83C3.04003 79.95 3.53004 78.87 4.40004 78.51C4.54004 78.45 4.67001 78.41 4.81001 78.39C4.84001 78.37 4.87004 78.35 4.90004 78.34C6.11948 77.5017 7.23134 76.5342 8.34495 75.5652L8.34669 75.5637C8.54753 75.3889 8.74843 75.2141 8.95003 75.04C9.77509 74.2822 10.5976 73.5227 11.4197 72.7635C13.4077 70.9279 15.3938 69.0939 17.41 67.29C20.25 64.75 23.11 62.24 26.03 59.8L27.8041 58.3162C33.4537 53.5917 39.1037 48.8668 44.68 44.06C44.99 43.79 45.3 43.525 45.61 43.26C45.92 42.995 46.23 42.73 46.54 42.46C49.48 39.87 52.41 37.26 55.33 34.64C55.8091 34.211 56.2779 33.7666 56.7475 33.3216C56.9346 33.1442 57.1219 32.9667 57.31 32.79C57.4378 32.6709 57.5665 32.5518 57.6955 32.4323C58.1623 32.0004 58.6335 31.5643 59.08 31.11L61.63 28.53C62.1339 28.0262 62.6151 27.494 63.095 26.9634C63.2532 26.7884 63.4113 26.6136 63.57 26.44C63.7011 26.2984 63.8295 26.1568 63.9565 26.0167C64.0716 25.8897 64.186 25.7635 64.3 25.64C63.6967 25.9131 63.0975 26.1982 62.4997 26.4827C62.1561 26.6461 61.8131 26.8094 61.47 26.97C60.7148 27.3228 59.9712 27.6948 59.2271 28.0669C58.7693 28.296 58.3109 28.5253 57.85 28.75C57.4896 28.9256 57.1292 29.1031 56.7685 29.2807L56.7676 29.2811C55.9578 29.6799 55.1461 30.0796 54.33 30.46C53.5716 30.8193 52.8131 31.1686 52.0546 31.5179L52.05 31.52C51.7881 31.6423 51.5242 31.7588 51.2601 31.8754C50.9193 32.0259 50.578 32.1766 50.24 32.34C49.91 32.51 49.59 32.67 49.21 32.74C48.75 32.83 48.39 32.79 47.96 32.63C46.62 32.15 46.53 30.13 47.75 29.47C49.3021 28.6342 50.8741 27.8331 52.46 27.0595C51.7903 26.5945 51.4889 25.6796 51.83 24.91C52.42 23.57 52.95 22.21 53.47 20.85C53.5337 20.6654 53.5979 20.4808 53.662 20.2962L53.6628 20.2938C54.172 18.8287 54.6827 17.3589 55.02 15.85C55.16 15.12 55.28 14.38 55.34 13.64C55.35 13.39 55.35 13.14 55.34 12.89C55.32 12.68 55.29 12.47 55.25 12.26C55.2 12.03 55.14 11.8 55.07 11.58C55.0396 11.4966 55.0035 11.4188 54.966 11.3381C54.9541 11.3125 54.942 11.2865 54.93 11.26C54.91 11.22 54.88 11.17 54.86 11.14L54.77 11.02C54.7567 11.0067 54.7433 10.9922 54.73 10.9778C54.7199 10.9668 54.7097 10.9558 54.6996 10.9453L54.7092 10.9526L54.72 10.96C54.7039 10.9457 54.6878 10.9318 54.6717 10.918C54.6654 10.9123 54.6591 10.907 54.6528 10.9021C54.5847 10.8453 54.5152 10.7926 54.44 10.74C54.34 10.67 54.24 10.61 54.13 10.55C54.112 10.5428 54.0928 10.5343 54.0727 10.5255C54.0369 10.5097 53.9985 10.4928 53.96 10.48C53.95 10.48 53.94 10.48 53.93 10.47C53.7584 10.7196 53.5624 10.951 53.3658 11.1832C53.3104 11.2486 53.255 11.314 53.2 11.38C52.7105 11.9294 52.191 12.4489 51.6716 12.9684L51.67 12.97C50.5266 14.1223 49.3104 15.2017 48.0942 16.2811L47.69 16.64C47.3735 16.9198 47.057 17.2008 46.7406 17.4817C46.1071 18.0441 45.4735 18.6065 44.84 19.16L44.85 19.15C44.825 19.17 44.8 19.1925 44.775 19.215C44.75 19.2375 44.725 19.26 44.7 19.28C43.96 19.935 43.2175 20.5875 42.475 21.24C41.7325 21.8925 40.99 22.545 40.25 23.2L40.2369 23.2131C40.2526 23.1975 40.2625 23.1888 40.28 23.18C40.2307 23.2184 40.1843 23.2598 40.1393 23.3009C40.1593 23.2839 40.1796 23.267 40.2 23.25L40.0576 23.3756L40.03 23.4L40.0315 23.3985C38.4375 24.8035 36.8432 26.2016 35.2425 27.6053L34.61 28.16C34.6038 28.16 34.6015 28.1638 34.5982 28.1691L34.5962 28.1722C34.5946 28.1747 34.5927 28.1774 34.59 28.18C29.66 32.528 24.7887 36.9492 19.9194 41.3684L19.9114 41.3758C19.0943 42.1173 18.2772 42.8589 17.46 43.6C16.6984 44.2925 15.9383 44.986 15.1783 45.6793L15.1768 45.6807C12.4515 48.1668 9.72822 50.6511 6.95225 53.0818C6.89508 53.1332 6.83825 53.1847 6.78154 53.2361C6.30431 53.6688 5.83544 54.0938 5.23998 54.37C5.02998 54.47 4.8 54.51 4.57 54.51C3.99 54.48 3.43998 54.22 3.10998 53.79ZM54.6528 10.9021L54.6717 10.918C54.681 10.9265 54.6903 10.9357 54.6996 10.9453C54.6803 10.9303 54.6653 10.9153 54.6503 10.9003L54.6528 10.9021ZM67.9861 30.4477L68 30.27C67.995 30.31 67.9925 30.35 67.99 30.39C67.9888 30.4092 67.9876 30.4284 67.9861 30.4477Z"
    fill="rgba(191, 192, 191, 1)" />
</svg>