<svg width="87" height="93" viewBox="0 0 87 93" fill="none" xmlns="http://www.w3.org/2000/svg">
  <path
    d="M39.7701 91.99C37.4501 91.35 35.74 89.54 34.66 87.45C33.51 85.24 33.2101 82.72 33.4001 80.25C33.5801 77.93 34.13 75.63 34.99 73.45C35.71 71.63 36.49 69.84 37.17 68.01C37.36 67.51 37.54 67.01 37.73 66.51C38.08 65.44 38.39 64.35 38.62 63.24C38.77 62.45 38.88 61.65 38.95 60.85C39.01 59.94 39.0101 59.03 38.9601 58.11C38.8901 57.23 38.78 56.36 38.62 55.5C38.48 54.86 38.31 54.2201 38.1 53.59C37.84 52.87 37.5501 52.16 37.2101 51.47C36.8101 50.71 36.38 49.97 35.91 49.25C35.48 48.63 35.0201 48.03 34.5301 47.45C33.8901 46.73 33.21 46.06 32.49 45.41C31.78 44.8 31.0501 44.22 30.2801 43.7C29.7201 43.34 29.14 43 28.55 42.7C27.98 42.43 27.4 42.18 26.8 41.97C26.11 41.74 25.4201 41.55 24.7101 41.39C24.0501 41.27 23.38 41.17 22.7 41.11C22.15 41.08 21.59 41.08 21.04 41.11C20.47 41.16 19.9101 41.23 19.3401 41.34C18.7001 41.48 18.06 41.65 17.43 41.86C16.81 42.09 16.2 42.34 15.61 42.63C15.02 42.93 14.46 43.25 13.91 43.62C13.53 43.89 13.18 44.17 12.82 44.46C12.57 44.69 12.33 44.93 12.1 45.17C11.81 45.5 11.56 45.83 11.31 46.19C11.16 46.44 11.02 46.68 10.88 46.94C10.77 47.17 10.6801 47.41 10.5901 47.65C10.5201 47.88 10.4601 48.1 10.4001 48.33C10.3601 48.57 10.33 48.81 10.3 49.05C10.29 49.3 10.29 49.5401 10.29 49.7801C10.32 50.1101 10.37 50.43 10.43 50.75C10.49 51.02 10.5701 51.29 10.6501 51.55C10.7701 51.88 10.9 52.21 11.05 52.52C11.26 52.91 11.48 53.3 11.73 53.68C12.22 54.38 12.75 55.05 13.31 55.7C14.6 57.15 16.03 58.47 17.48 59.75C18.2 60.39 18.91 61.04 19.62 61.7C20.84 62.83 22.08 63.96 23.17 65.22C23.94 66.1 24.67 67.04 25.23 68.08C25.8 69.14 25.95 70.27 26 71.46C26.05 72.62 25.85 73.81 25.61 74.94C25.33 76.25 24.86 77.52 24.29 78.72C23.19 81.02 21.52 82.95 19.56 84.55C17.68 86.08 15.46 87.22 13.06 87.59C11.47 87.84 9.82003 87.57 8.31003 87.08C6.80003 86.59 5.39002 85.82 4.18002 84.8C2.96002 83.77 2.04003 82.41 1.53003 80.9C0.960029 79.22 0.830017 77.45 0.830017 75.69C0.830017 74.08 0.940027 72.48 1.09003 70.88C1.20003 69.7 1.43004 68.54 1.67004 67.37C1.67004 67.37 1.67004 67.36 1.67004 67.35C1.66004 67.38 1.66002 67.4 1.65002 67.43C1.66002 67.39 1.67004 67.35 1.67004 67.31C1.76004 66.43 2.53002 65.72 3.43002 65.72C4.39002 65.72 5.20004 66.52 5.20004 67.49C5.20004 67.87 5.09004 68.25 5.01004 68.62C4.88004 69.27 4.77004 69.92 4.67004 70.58C4.58004 71.2 4.54004 71.84 4.48004 72.46C4.41004 73.98 4.31005 75.5 4.39005 77.01C4.43005 77.57 4.48002 78.12 4.58002 78.67C4.66002 79.04 4.76004 79.4 4.88004 79.76C4.96004 79.98 5.05006 80.19 5.15005 80.41C5.27005 80.62 5.38005 80.82 5.52005 81.02C5.66005 81.22 5.82 81.41 5.97 81.6C6.11 81.75 6.27001 81.9 6.42001 82.04C6.67001 82.24 6.91 82.43 7.16 82.61C7.5 82.82 7.84004 83.02 8.20004 83.2C8.56004 83.37 8.92001 83.52 9.29001 83.66C9.63001 83.77 9.98005 83.86 10.33 83.95C10.69 84.02 11.04 84.07 11.41 84.11C11.65 84.12 11.89 84.12 12.14 84.11C12.44 84.08 12.7401 84.04 13.0301 83.99C13.3301 83.92 13.62 83.85 13.91 83.75C14.33 83.59 14.74 83.41 15.14 83.21C15.6 82.96 16.04 82.69 16.48 82.41C17.03 82.02 17.55 81.61 18.05 81.17C18.44 80.8 18.82 80.4201 19.18 80.0301C19.54 79.6001 19.8901 79.16 20.2101 78.7C20.5201 78.22 20.8 77.74 21.06 77.23C21.31 76.71 21.53 76.18 21.72 75.64C21.92 75.04 22.0801 74.44 22.2101 73.82C22.3101 73.27 22.39 72.72 22.43 72.16C22.45 71.85 22.45 71.54 22.43 71.22C22.41 70.92 22.38 70.62 22.32 70.32C22.31 70.27 22.2901 70.21 22.2701 70.16C22.23 70.05 22.18 69.94 22.13 69.83C22.01 69.61 21.88 69.39 21.74 69.17C21.33 68.58 20.89 68.01 20.42 67.47C18.69 65.56 16.74 63.84 14.81 62.13C13.31 60.8 11.83 59.43 10.5201 57.91C8.88005 56.02 7.42002 53.89 6.93002 51.39C6.68002 50.16 6.66004 48.94 6.88004 47.71C7.11004 46.48 7.63002 45.32 8.30002 44.27C9.66002 42.16 11.71 40.6 13.93 39.48C16.2 38.33 18.65 37.68 21.19 37.54C23.79 37.4 26.45 38.01 28.85 38.97C31.17 39.9 33.23 41.3801 35.08 43.0301C36.97 44.7201 38.55 46.72 39.8 48.92C41.07 51.15 41.87 53.56 42.25 56.1C42.64 58.72 42.55 61.4301 42.01 64.0301C41.64 65.8201 41.07 67.52 40.43 69.23C39.74 71.08 38.96 72.89 38.23 74.72C38.16 74.89 38.1 75.06 38.04 75.24C37.69 76.24 37.4 77.2501 37.18 78.2801C37.04 79.0201 36.93 79.7701 36.87 80.5301C36.83 81.1501 36.83 81.78 36.85 82.4C36.89 82.84 36.94 83.28 37.0201 83.72C37.1001 84.09 37.2 84.46 37.32 84.83C37.44 85.14 37.5701 85.44 37.7101 85.74C37.8701 86.05 38.04 86.35 38.23 86.64C38.39 86.86 38.55 87.08 38.73 87.29C38.86 87.43 38.99 87.57 39.13 87.7C39.31 87.85 39.49 87.99 39.68 88.13C39.76 88.18 39.84 88.23 39.93 88.2801C40.13 88.37 40.3201 88.46 40.5301 88.54C40.7301 88.6 40.93 88.65 41.13 88.7C41.37 88.74 41.61 88.77 41.85 88.79C42.19 88.81 42.53 88.8 42.87 88.79C43.23 88.75 43.58 88.7 43.94 88.64C44.4 88.54 44.85 88.42 45.29 88.27C45.75 88.09 46.2001 87.9 46.6501 87.68C47.1101 87.43 47.55 87.17 47.99 86.89C48.44 86.57 48.87 86.25 49.29 85.9C49.78 85.4501 50.25 84.99 50.69 84.49C51.02 84.1 51.33 83.7001 51.63 83.2801C51.79 83.0301 51.94 82.77 52.08 82.51C52.51 81.65 52.85 80.76 53.17 79.85C53.16 79.87 53.1601 79.89 53.1501 79.9C53.7201 78.19 54.17 76.42 54.54 74.65C54.85 73.05 55.07 71.44 55.19 69.82C55.25 68.58 55.3 67.35 55.31 66.11C55.32 64.79 55.28 63.47 55.25 62.16C55.16 60.9 55.07 59.65 54.92 58.39C54.85 57.81 54.8 57.22 54.69 56.65C54.57 55.96 54.44 55.27 54.31 54.58C53.99 53.32 53.68 52.06 53.26 50.83C53.26 50.83 53.26 50.8301 53.26 50.84C52.89 49.7901 52.46 48.77 51.99 47.77C51.62 47.06 51.28 46.34 50.87 45.65C50.21 44.53 49.5601 43.4201 48.8401 42.34C48.1901 41.41 47.49 40.52 46.73 39.66C45.8 38.64 44.8001 37.7201 43.7801 36.7801C42.9601 36.1001 42.12 35.45 41.24 34.85C40.23 34.18 39.19 33.56 38.11 33.01C37.22 32.58 36.31 32.19 35.37 31.85C34.48 31.55 33.58 31.31 32.67 31.11C31.05 30.8 29.4201 30.69 27.7801 30.58C26.2101 30.48 24.64 30.38 23.07 30.27C23.15 30.28 23.23 30.28 23.31 30.29C21.42 30.17 19.52 30.06 17.63 29.99C15.68 29.91 13.66 29.86 11.81 29.17C10.72 28.77 9.76002 28.19 8.93002 27.38C8.10002 26.56 7.58004 25.45 7.32004 24.33C6.79004 22.01 7.54004 19.48 8.82004 17.54C10.16 15.49 12.2 13.98 14.37 12.91C15.95 12.13 17.62 11.6 19.3 11.08C20.1 10.84 20.9001 10.6 21.7101 10.4C22.6901 10.14 23.67 9.90003 24.67 9.69003C25.09 9.60003 25.51 9.49001 25.94 9.42001C26.55 9.33001 27.15 9.24005 27.75 9.15005C28.11 9.10005 28.46 9.08001 28.82 9.05001C29.35 9.01001 29.88 8.94003 30.41 8.94003C31.34 8.93003 32.26 8.90002 33.18 8.93002C34.23 8.96002 35.27 9.00003 36.31 9.07003C36.94 9.11003 37.57 9.15005 38.2 9.21005C39.62 9.35005 41.02 9.60001 42.41 9.92001C43.91 10.28 45.3701 10.79 46.8401 11.25C47.8701 11.57 48.89 11.87 49.89 12.27C51.14 12.78 52.34 13.4101 53.5 14.0901C55.32 15.1701 57.07 16.41 58.68 17.77C60.26 19.09 61.6801 20.59 62.8401 22.3C65.2901 25.91 66.51 30.16 66.92 34.46C67.09 36.19 67.15 37.94 67.22 39.69C67.28 41.32 67.35 42.95 67.42 44.58C67.48 45.46 67.5401 46.33 67.5901 47.21C67.8201 50.54 68.1301 53.86 68.2101 57.19C68.2501 58.8 68.2701 60.4 68.2801 62C68.3001 63.77 68.3401 65.54 68.4001 67.32C68.3901 67.24 68.39 67.16 68.38 67.08C68.46 68.23 68.58 69.37 68.79 70.51C68.9 71 69.03 71.48 69.18 71.96C69.36 72.44 69.5601 72.91 69.7701 73.37C69.97 73.75 70.2 74.13 70.43 74.5C70.68 74.86 70.95 75.21 71.24 75.55C71.43 75.75 71.62 75.94 71.81 76.13C72.01 76.3 72.21 76.46 72.43 76.61C72.61 76.72 72.8 76.83 72.99 76.93C73.18 77.02 73.37 77.09 73.55 77.16C73.67 77.2 73.8 77.23 73.92 77.26C74.11 77.29 74.3 77.3201 74.49 77.34C74.66 77.34 74.83 77.34 74.99 77.32C74.91 77.32 74.83 77.33 74.75 77.34C74.89 77.33 75.03 77.3101 75.17 77.2801C75.3 77.2501 75.44 77.21 75.56 77.17C75.68 77.13 75.81 77.07 75.93 77.02C76.19 76.89 76.44 76.74 76.69 76.58C76.97 76.38 77.24 76.17 77.51 75.94C77.89 75.6 78.2401 75.25 78.58 74.88C78.9901 74.41 79.37 73.92 79.73 73.41C80.12 72.82 80.46 72.21 80.79 71.58C81.16 70.81 81.48 70.04 81.76 69.24C82.11 68.17 82.36 67.1 82.62 66.01C82.71 65.44 82.8 64.87 82.89 64.3C82.98 63.71 83 63.1 83.04 62.51C83.1 61.06 83.17 59.59 83.13 58.13C83.11 57.35 83.1301 56.5601 83.08 55.7801C83.03 55.0701 82.99 54.37 82.94 53.66C82.94 53.66 82.94 53.67 82.94 53.68C82.85 52.91 82.7501 52.13 82.6501 51.36C82.5601 50.64 82.4 49.93 82.2701 49.21C81.7801 47.02 81.2301 44.85 80.6501 42.68C80.1001 40.63 79.4601 38.6 78.7701 36.59C78.4501 35.7701 78.1301 34.96 77.7701 34.16C77.37 33.28 76.94 32.42 76.51 31.55C76.39 31.33 76.29 31.1 76.18 30.89C76.01 30.56 75.85 30.23 75.68 29.9C75.72 29.97 75.75 30.04 75.79 30.1C75.23 28.98 74.73 27.83 74.17 26.72C74.21 26.79 74.2401 26.86 74.2701 26.93C74.0201 26.43 73.7701 25.94 73.5301 25.45C73.5501 25.49 73.57 25.52 73.58 25.56C72.78 24.1 71.9 22.68 71.1 21.22C70.61 20.3 70.2701 19.3 69.9601 18.31C69.66 17.33 69.44 16.31 69.33 15.3C69.11 13.34 69.7501 11.47 70.6501 9.75002C70.7301 9.60002 70.81 9.46002 70.89 9.31002C69.48 8.39002 68.03 7.51 66.62 6.6C65.86 6.11 65.1001 5.62004 64.3401 5.14004C63.8801 4.85004 63.42 4.56002 62.97 4.25002C62.36 3.82002 62.08 2.97004 62.3 2.27004C62.5 1.62004 63.06 1.05 63.76 0.980005C64.58 0.910005 65.42 0.939997 66.24 0.909997C67.2 0.879997 68.16 0.830044 69.12 0.770044C71 0.660044 72.8901 0.670029 74.7701 0.630029C75.65 0.610029 76.5201 0.570044 77.4001 0.520044C78.0601 0.480044 78.7 0.460012 79.36 0.550012C80.3 0.690012 81.11 1.44001 81.11 2.42001C81.11 2.96001 80.88 3.42004 80.57 3.83004C81.18 4.73004 81.72 5.68005 82.2 6.65005C82.16 6.58005 82.13 6.51003 82.1 6.44003C82.74 7.71003 83.34 8.99005 83.94 10.2801C84.6 11.7001 85.19 13.17 85.69 14.65C85.93 15.35 86.05 16.03 85.98 16.77C85.92 17.42 85.5201 18.06 85.0201 18.46C83.97 19.27 82.6701 18.8801 81.5901 18.3401C80.3601 17.7301 79.22 17.03 78.2 16.1C76.61 14.65 75.29 12.94 73.74 11.47C73.69 11.56 73.65 11.64 73.6 11.73C73.43 12.09 73.27 12.4601 73.13 12.8401C73.05 13.0801 72.98 13.33 72.92 13.58C72.88 13.79 72.86 14 72.83 14.22C72.83 14.38 72.82 14.55 72.83 14.72C72.86 15.11 72.92 15.49 72.99 15.87C73.14 16.56 73.33 17.24 73.54 17.92C73.73 18.46 73.94 18.99 74.18 19.5C75 21.02 75.96 22.46 76.73 24.01C76.69 23.94 76.66 23.87 76.62 23.81C77.39 25.34 78.12 26.89 78.86 28.43C78.99 28.66 79.09 28.9 79.2101 29.12C79.3601 29.42 79.51 29.72 79.66 30.02C80.07 30.83 80.48 31.66 80.86 32.48C81.28 33.4 81.65 34.33 82.0201 35.27C82.3501 36.1 82.62 36.96 82.88 37.81C83.18 38.79 83.47 39.77 83.76 40.77C84.8 44.48 85.8101 48.22 86.2801 52.05C86.5301 54.05 86.6 56.05 86.64 58.07C86.68 59.95 86.61 61.85 86.45 63.73C86.24 66.26 85.69 68.73 84.81 71.12C83.94 73.49 82.64 75.65 80.95 77.52C79.4 79.22 77.31 80.73 74.95 80.88C70.38 81.17 67 76.89 65.72 72.94C65.1 71.04 64.8501 69.0301 64.7801 67.0301C64.7501 66.1101 64.7 65.19 64.69 64.27C64.67 62.45 64.68 60.62 64.64 58.79C64.59 56.95 64.52 55.1201 64.43 53.2801C64.22 50.4001 64 47.51 63.81 44.63C63.81 44.63 63.81 44.64 63.81 44.65C63.72 43.23 63.69 41.81 63.63 40.39C63.58 38.88 63.51 37.37 63.42 35.87C63.31 34.49 63.15 33.12 62.89 31.76C62.69 30.8 62.43 29.86 62.12 28.93C61.82 28.07 61.46 27.23 61.07 26.41C60.71 25.71 60.31 25.03 59.89 24.37C59.48 23.77 59.03 23.19 58.55 22.64C57.99 22.02 57.39 21.43 56.76 20.87C56.76 20.87 56.7701 20.88 56.7801 20.88C55.6801 19.93 54.51 19.06 53.31 18.24C53.37 18.28 53.43 18.33 53.5 18.37C52.37 17.61 51.22 16.89 50 16.27C49.24 15.89 48.46 15.55 47.66 15.25C46.59 14.89 45.51 14.58 44.43 14.24C43.12 13.83 41.81 13.43 40.47 13.14C39.36 12.93 38.24 12.78 37.11 12.68C35.99 12.61 34.88 12.54 33.76 12.5C32.62 12.46 31.49 12.48 30.35 12.49C29.7 12.54 29.0501 12.58 28.4001 12.63C28.0801 12.65 27.75 12.73 27.42 12.77C27.05 12.82 26.68 12.88 26.31 12.93C23.46 13.54 20.63 14.27 17.87 15.23C17.94 15.21 18.0201 15.18 18.0901 15.16C17.2801 15.45 16.48 15.78 15.7 16.17C15.18 16.45 14.67 16.74 14.17 17.07C13.81 17.33 13.46 17.6 13.12 17.89C12.85 18.14 12.6 18.39 12.35 18.66C12.12 18.93 11.9201 19.2 11.7101 19.48C11.5501 19.73 11.4101 19.98 11.2701 20.24C11.17 20.45 11.08 20.67 10.99 20.9C10.89 21.2 10.81 21.5 10.74 21.81C10.7 22.05 10.66 22.28 10.63 22.52C10.62 22.73 10.62 22.93 10.63 23.14C10.64 23.28 10.66 23.43 10.69 23.57C10.72 23.7 10.76 23.83 10.8 23.96C10.84 24.07 10.89 24.1801 10.93 24.2801C10.99 24.3901 11.05 24.49 11.11 24.6C11.07 24.54 11.02 24.48 10.98 24.41C11.08 24.57 11.19 24.72 11.32 24.87C11.37 24.93 11.43 24.99 11.5 25.05C11.64 25.17 11.79 25.28 11.95 25.4C12.06 25.47 12.18 25.54 12.29 25.6C12.52 25.71 12.74 25.8 12.98 25.89C13.3 25.99 13.61 26.08 13.94 26.15C14.58 26.2701 15.24 26.35 15.89 26.4C17.57 26.51 19.25 26.55 20.93 26.63C22.49 26.71 24.05 26.83 25.61 26.94C25.63 26.94 25.66 26.94 25.68 26.94C25.71 26.94 25.73 26.94 25.76 26.95C25.76 26.95 25.76 26.95 25.75 26.95C28.23 27.1 30.73 27.18 33.16 27.65C35.79 28.16 38.27 29.14 40.62 30.41C41.74 31.02 42.8001 31.71 43.8401 32.44C44.6901 33.03 45.5201 33.68 46.2801 34.39C46.7401 34.81 47.2 35.23 47.66 35.66C48.36 36.3 49 37.02 49.63 37.73C50.95 39.23 52.07 40.89 53.08 42.61C53.61 43.51 54.12 44.41 54.6 45.34C55.54 47.1301 56.3001 48.99 56.9001 50.92C57.0501 51.41 57.17 51.9 57.29 52.4C57.43 52.92 57.59 53.44 57.68 53.97C57.77 54.42 57.85 54.88 57.93 55.33C58.01 55.75 58.11 56.17 58.16 56.58C58.39 58.5 58.64 60.43 58.69 62.37C58.74 64.28 58.7901 66.18 58.7101 68.09C58.6401 69.7401 58.55 71.38 58.32 73.02C58.14 74.28 57.89 75.52 57.61 76.76C57.29 78.15 56.93 79.53 56.47 80.88C56.09 82.02 55.67 83.15 55.11 84.21C54.53 85.32 53.77 86.27 52.95 87.2C51.33 89.04 49.23 90.47 46.98 91.42C45.51 92.03 43.9 92.39 42.3 92.39C41.54 92.34 40.64 92.23 39.7701 91.99ZM75.89 8.55001C76.19 8.82001 76.5001 9.09003 76.7801 9.38003C78.1401 10.71 79.32 12.22 80.72 13.51C81.04 13.78 81.3701 14.0401 81.7101 14.2801C81.7801 14.3301 81.84 14.37 81.91 14.41C81.53 13.42 81.13 12.44 80.68 11.47C80.39 10.84 80.12 10.2 79.81 9.58004C79.57 9.09004 79.32 8.61002 79.08 8.12002C78.7701 7.55002 78.46 6.99003 78.12 6.44003C77.36 7.13003 76.62 7.81001 75.89 8.55001ZM75.0301 4.13003C73.7301 4.15003 72.43 4.16003 71.13 4.19003C70.64 4.20003 70.1501 4.22001 69.6501 4.24001C70.1501 4.56001 70.64 4.87002 71.14 5.18002C71.79 5.59002 72.43 5.99 73.07 6.41C73.55 5.87 74.0601 5.36002 74.58 4.87002C74.85 4.61002 75.13 4.37002 75.41 4.12002C75.28 4.12002 75.1601 4.13003 75.0301 4.13003Z"
    fill="rgba(191, 192, 191, 1)" />
</svg>