<svg width="84" height="65" viewBox="0 0 84 65" fill="none" xmlns="http://www.w3.org/2000/svg">
  <path
    d="M22.28 64.72C21.78 64.56 21.41 64.33 21.02 63.97C20.7 63.68 20.46 63.27 20.23 62.91C20.1 62.7 19.96 62.48 19.83 62.27C19.62 61.92 19.4 61.56 19.19 61.2C18.98 60.81 18.75 60.43 18.55 60.04C18.41 59.76 18.26 59.48 18.12 59.2C18.05 59.06 17.96 58.91 17.89 58.77C17.85 58.7 17.82 58.63 17.78 58.56C17.71 58.43 17.65 58.29 17.59 58.16C17.51 58.01 17.44 57.86 17.36 57.71C17.34 57.68 17.33 57.65 17.31 57.62C17.31 57.62 17.3 57.61 17.3 57.6C17.28 57.56 17.26 57.53 17.25 57.49C16.02 55.2 14.69 52.94 13.27 50.75C12.41 49.55 11.45 48.42 10.64 47.19C9.84 45.96 9.02999 44.71 8.30999 43.43C7.55999 42.08 6.87002 40.7 6.09002 39.37C5.36002 38.14 4.56001 36.94 3.77001 35.75C3.01001 34.64 2.24999 33.54 1.49999 32.43C1.49999 32.43 1.49999 32.43 1.49999 32.44C1.29999 32.15 1.08997 31.87 0.97997 31.54C0.86997 31.24 0.789977 30.95 0.799977 30.63C0.819977 30.01 1.12 29.5 1.51 29.04C2.1 28.35 2.84002 27.78 3.53002 27.2C3.94002 26.85 4.37002 26.51 4.78002 26.16C5.64002 25.45 6.53 24.77 7.45 24.12C8.27 23.54 9.18001 23.09 10.02 22.54C10.17 22.43 10.32 22.33 10.48 22.24C11.17 21.79 12.09 21.98 12.64 22.54C12.66 22.54 12.67 22.55 12.69 22.55C12.74 22.56 12.78 22.57 12.83 22.59C13.47 22.63 14.04 23.02 14.32 23.57C14.34 23.59 14.37 23.61 14.39 23.63C14.78 23.98 15.14 24.38 15.5 24.77C16.01 25.32 16.54 25.87 17.03 26.45C17.57 27.09 18.1 27.72 18.64 28.36C19.12 28.93 19.53 29.58 19.98 30.19C20.75 31.25 21.45 32.37 22.16 33.48C22.95 34.72 23.75 35.94 24.56 37.16C25.14 37.99 25.72 38.83 26.29 39.66C26.54 40.03 26.79 40.41 27.02 40.79C27.2 40.59 27.38 40.39 27.56 40.2C28.25 39.48 28.93 38.76 29.63 38.05C30.99 36.66 32.39 35.32 33.85 34.03C36.87 31.37 39.94 28.77 43.02 26.19C44.96 24.56 46.91 22.93 48.88 21.33C50.74 19.81 52.56 18.27 54.37 16.7C54.03 16.32 53.7 15.93 53.39 15.52C52.68 14.59 52.1 13.56 51.55 12.52C50.96 11.41 50.41 10.3 49.73 9.25C49.23 8.54 48.67 7.88 48.11 7.22C47.32 6.34 46.55 5.44001 45.77 4.55001C45.76 4.54001 45.75 4.53 45.74 4.52C45.73 4.51 45.72 4.5 45.72 4.5C45.7 4.49 45.7 4.48 45.68 4.47C45.68 4.47 45.6799 4.47 45.6899 4.47L45.68 4.46C45.67 4.46 45.67 4.45001 45.67 4.44001C45.25 3.99001 44.76 3.52 44.72 2.86C44.68 2.38 44.7699 1.93 45.0699 1.54C45.3499 1.18 45.78 0.920003 46.23 0.860003C46.82 0.800003 47.44 0.920001 48.03 0.990001C48.49 1.04 48.96 1.1 49.42 1.17C50.47 1.33 51.5199 1.51 52.5799 1.7C53.7499 1.9 54.9099 2.09 56.0799 2.25C57.0799 2.38 58.08 2.46 59.09 2.54C60.41 2.59 61.71 2.65 63.03 2.64C63.6 2.64 64.15 2.64 64.72 2.61C65.39 2.57 66.06 2.52 66.73 2.49C69.04 2.24 71.35 1.95 73.68 1.79C74.84 1.71 75.99 1.74001 77.14 1.80001C78.17 1.86001 79.18 2.1 80.21 2.21C80.4 2.21 80.6 2.21 80.79 2.21C80.83 2.21 80.86 2.2 80.9 2.2C80.9 2.2 80.91 2.2 80.92 2.2C81.07 2.14 81.23 2.1 81.4 2.07C82.33 1.9 83.3 2.66 83.39 3.58C83.46 4.23 83.34 4.89 83.27 5.54C83.22 6 83.16 6.45001 83.1 6.91001C82.96 7.92001 82.8299 8.93 82.6899 9.93C82.4399 11.73 82.2 13.53 81.96 15.32C81.69 17.28 81.4 19.25 81.18 21.21C80.95 23.24 80.7599 25.27 80.5799 27.31C80.4999 28.15 80.45 28.99 80.38 29.83C80.38 29.87 80.38 29.9 80.38 29.93C80.38 29.94 80.38 29.95 80.38 29.96C80.29 31.58 80.19 33.21 80.17 34.84C80.15 35.62 80.15 36.39 80.14 37.16C80.12 38.25 80.14 39.7 78.93 40.17C78.58 40.31 78.24 40.4 77.86 40.35C77.38 40.29 76.95 40.1 76.55 39.83C76.01 39.48 75.53 39.04 75.05 38.61C74.46 38.09 73.92 37.49 73.38 36.91C72.72 36.2 72.04 35.49 71.39 34.77C70.71 34.01 70.12 33.19 69.62 32.3C69.37 31.85 69.15 31.39 68.92 30.93C68.78 30.66 68.63 30.39 68.47 30.14C68.41 30.06 68.35 29.98 68.29 29.91C68.23 29.84 68.17 29.79 68.11 29.72C67.97 29.6 67.82 29.5 67.68 29.39C67.57 29.47 67.47 29.56 67.36 29.65C66.65 30.3 65.97 31 65.29 31.68C64.57 32.4 63.83 33.1 63.09 33.79C61.61 35.17 60.03 36.4 58.43 37.64C57.02 38.73 55.63 39.85 54.23 40.97C53.39 41.65 52.5499 42.31 51.6899 42.97C50.9999 43.49 50.29 43.99 49.61 44.51C47.27 46.32 44.9999 48.22 42.6899 50.07C41.6499 50.91 40.6 51.76 39.51 52.53C38.27 53.39 37.01 54.23 35.75 55.06C34.66 55.82 33.59 56.6 32.52 57.39C31.46 58.17 30.46 59.02 29.47 59.88C28.12 61.11 26.81 62.4 25.38 63.54C24.83 63.97 24.24 64.53 23.55 64.69C23.3 64.75 23.03 64.8 22.77 64.8C22.6 64.79 22.44 64.77 22.28 64.72ZM11.16 26.01C10.89 26.18 10.61 26.32 10.34 26.47C10.09 26.61 9.84997 26.77 9.60997 26.92C7.95997 28.08 6.40998 29.39 4.86998 30.69C4.81998 30.74 4.76001 30.79 4.71001 30.83C4.92001 31.15 5.13002 31.46 5.34002 31.78C6.83002 33.94 8.38001 36.09 9.65001 38.4C10.3 39.58 10.88 40.79 11.57 41.95C12.25 43.09 12.95 44.21 13.66 45.32C14.73 46.8 15.92 48.21 16.87 49.78C17.36 50.58 17.83 51.38 18.32 52.19C18.81 53.01 19.32 53.81 19.76 54.65C19.99 55.07 20.22 55.49 20.43 55.92C20.45 55.94 20.46 55.96 20.47 55.99C20.63 56.25 20.74 56.53 20.88 56.79C20.91 56.85 20.94 56.91 20.97 56.97C20.99 57.01 21.01 57.04 21.02 57.08C21.03 57.1 21.04 57.11 21.05 57.13C21.06 57.16 21.08 57.19 21.09 57.22C21.28 57.6 21.47 57.97 21.67 58.34C22.1 59.19 22.6 60.02 23.11 60.82C23.6 60.43 24.07 60.02 24.54 59.61C25.43 58.79 26.32 57.94 27.24 57.15C28.23 56.29 29.24 55.46 30.28 54.66C32.24 53.16 34.29 51.79 36.35 50.43C39.36 48.32 42.18 45.95 45.03 43.63C45.84 42.97 46.65 42.33 47.48 41.7C48.16 41.17 48.87 40.68 49.56 40.16C51.13 38.96 52.6599 37.71 54.1899 36.46C55.1499 35.68 56.15 34.94 57.13 34.18C58.11 33.41 59.07 32.62 60.03 31.82C60.77 31.14 61.51 30.46 62.23 29.75C63.08 28.91 63.91 28.04 64.78 27.23C65.57 26.5 66.53 25.73 67.66 25.69C68.36 25.66 68.97 25.97 69.54 26.35C70.33 26.88 71.02 27.5 71.54 28.31C71.94 28.93 72.2499 29.61 72.5799 30.27C72.7799 30.64 72.99 31 73.22 31.36C73.48 31.72 73.75 32.06 74.04 32.4C74.89 33.35 75.76 34.3 76.66 35.21C76.67 34.46 76.68 33.72 76.71 32.98C76.7999 30.97 76.94 28.97 77.09 26.96C77.38 23.13 77.87 19.32 78.39 15.52C78.64 13.7 78.88 11.88 79.13 10.06C79.33 8.61 79.55 7.17 79.72 5.72C78.84 5.62 77.98 5.44 77.1 5.34C76.22 5.29 75.36 5.28 74.48 5.28C73.69 5.33 72.9 5.38 72.12 5.46C71.13 5.57 70.14 5.68 69.15 5.79C67.13 6 65.1099 6.18 63.0799 6.18C61.0299 6.18 58.9899 6.07001 56.9399 5.91001C55.1499 5.76001 53.37 5.42 51.6 5.11C51.36 5.07 51.13 5.03 50.89 4.99C51.62 5.84 52.34 6.71 52.9599 7.65C53.4399 8.37 53.82 9.14 54.22 9.9C54.74 10.91 55.27 11.9 55.89 12.85C56.21 13.3 56.54 13.73 56.9 14.15C57.06 14.33 57.22 14.52 57.38 14.7C57.43 14.72 57.49 14.74 57.54 14.77C58.08 14.98 58.52 15.3 58.77 15.85C59.09 16.55 58.87 17.33 58.37 17.87C58.1 18.16 57.78 18.42 57.48 18.68C56 19.97 54.52 21.25 53.02 22.51C51.5 23.78 49.96 25.01 48.43 26.26C46.98 27.45 45.55 28.67 44.11 29.88C41.79 31.83 39.48 33.81 37.18 35.79C37.22 35.76 37.25 35.73 37.29 35.7C36.54 36.36 35.8 37.02 35.05 37.68C34.36 38.29 33.72 38.95 33.06 39.59C32.44 40.19 31.85 40.82 31.26 41.44C30.59 42.14 29.93 42.83 29.28 43.55C29.16 43.7 29.03 43.85 28.91 44.01C28.68 44.3 28.49 44.65 28.18 44.87C27.75 45.17 27.3599 45.34 26.8199 45.33C26.2799 45.31 25.78 45.07 25.41 44.69C24.95 44.23 24.63 43.58 24.29 43.02C24.03 42.61 23.77 42.2 23.5 41.8C22.45 40.27 21.4 38.75 20.38 37.21C19.42 35.78 18.51 34.3 17.58 32.86C17.03 32.09 16.47 31.33 15.91 30.56C15.66 30.22 15.36 29.91 15.09 29.6C14.8 29.26 14.52 28.92 14.23 28.58C13.43 27.71 12.65 26.8 11.77 26.01C11.65 25.97 11.52 25.92 11.41 25.86C11.33 25.9 11.24 25.95 11.16 26.01Z"
    fill="rgba(191, 192, 191, 1)" />
</svg>