<svg width="84" height="81" viewBox="0 0 84 81" fill="none" xmlns="http://www.w3.org/2000/svg">
  <path fill-rule="evenodd" clip-rule="evenodd"
    d="M79.4 22.2C79.39 22.6101 79.54 22.9801 79.77 23.32C80.11 23.82 80.65 24.06 81.22 24.06C81.91 24.06 82.61 23.68 82.9 22.99C83.15 22.4001 83.05 21.7401 82.82 21.1501C82.452 20.1889 81.96 19.2672 81.4709 18.351C81.3088 18.0471 81.1469 17.7439 80.99 17.44C80.52 16.4201 80.11 15.39 79.72 14.35C79.73 14.385 79.7425 14.4225 79.755 14.46C79.7675 14.4975 79.78 14.5351 79.79 14.57C79.45 13.6001 79.13 12.6101 78.76 11.6501C78.4 10.71 78.03 9.77005 77.67 8.83004C77.5632 8.54135 77.4572 8.25186 77.3511 7.962C77.0896 7.24777 76.8274 6.53134 76.55 5.82003C76.35 5.33004 76.17 4.82003 75.95 4.33004C75.66 3.67007 75.35 3.03006 75.08 2.37002C75.07 1.52005 74.41 0.760097 73.55 0.65005C73.1317 0.598292 72.7283 0.697108 72.3936 0.902492C71.7513 0.738002 71.095 0.96255 70.53 1.35C69.9136 1.76754 69.3193 2.22457 68.7264 2.68045C68.4248 2.91244 68.1235 3.14407 67.82 3.37002C67.11 3.90005 66.39 4.41 65.66 4.91C65.1782 5.21408 64.6895 5.5065 64.2009 5.79879L64.1987 5.80007C63.258 6.36294 62.3181 6.92538 61.43 7.57003C60.873 7.97152 60.3199 8.38046 59.7664 8.78964C59.1979 9.20993 58.629 9.63046 58.0555 10.0434C57.8941 10.1596 57.7323 10.2752 57.57 10.39L57.5115 10.4282L57.5084 10.4302C57.0979 10.6975 56.678 10.971 56.24 11.19C56.24 11.18 56.25 11.18 56.25 11.18C55.93 11.35 55.64 11.51 55.41 11.81C55.0499 12.27 54.95 12.87 55.1 13.43C55.35 14.36 56.36 14.91 57.28 14.66C57.57 14.58 57.82 14.44 58.02 14.24C58.95 13.73 59.8199 13.12 60.68 12.49C60.8268 12.3828 60.9734 12.2754 61.1201 12.1678L61.5638 11.8417C62.4667 11.1778 63.3706 10.5133 64.2938 9.87765C64.4651 9.77017 64.6371 9.66391 64.8096 9.5585C65.1145 9.3721 65.4207 9.1882 65.7269 9.00436L65.7281 9.00363C66.7127 8.41244 67.6962 7.82186 68.63 7.15005C68.7069 7.1011 68.7789 7.04727 68.8528 6.99191L68.9028 6.95474L68.95 6.92001C68.83 7.26004 68.74 7.62002 68.68 7.99002C68.6699 8.0737 68.661 8.15737 68.6521 8.24105C68.6344 8.40737 68.6166 8.5737 68.59 8.74002C68.38 9.69003 68.1 10.6201 67.78 11.5301C67.81 11.45 67.83 11.38 67.86 11.31C67.41 12.5901 66.98 13.87 66.62 15.18C66.5381 15.4828 66.463 15.7888 66.3878 16.0955C66.279 16.5385 66.17 16.9828 66.04 17.42C65.78 18.3 65.53 19.19 65.29 20.08C65.0746 20.9074 64.8448 21.73 64.6147 22.5536C64.4751 23.0532 64.3354 23.5531 64.1989 24.0548C64.1006 24.4155 64.0039 24.7771 63.91 25.14C63.8225 25.4842 63.7331 25.8275 63.6425 26.1704C63.4771 26.7963 63.3076 27.4206 63.1381 28.0453C62.9228 28.8385 62.7073 29.6322 62.5 30.43C62.3459 31.0141 62.2001 31.6001 62.0543 32.1863C61.7457 33.4268 61.4371 34.6676 61.05 35.89C60.6637 36.9429 60.2503 37.9803 59.8363 39.019C59.5858 39.6475 59.3351 40.2766 59.09 40.91C58.876 41.4611 58.6746 42.0123 58.4723 42.5661C58.3625 42.8665 58.2525 43.1676 58.14 43.47L57.75 44.55C57.649 44.8346 57.5522 45.1107 57.5032 45.3891C56.9472 45.1607 56.3718 44.9799 55.78 44.85C55.24 44.73 54.7 44.62 54.15 44.5301C53.26 44.39 52.4 45.02 52.19 45.88C51.38 46.11 50.64 46.56 50.02 47.16C49.759 47.4119 49.5123 47.6794 49.2802 47.9603C49.106 47.8642 48.9161 47.7965 48.72 47.76C48.621 47.7136 48.5216 47.6673 48.4219 47.6209L48.094 47.4686C47.6551 47.2649 47.213 47.0597 46.78 46.85C46.4104 46.649 46.0533 46.4354 45.6979 46.2228L45.6886 46.2171C45.4991 46.1038 45.3102 45.9907 45.12 45.88C44.6705 45.6068 44.1978 45.3802 43.7222 45.1522L43.53 45.06C43.5 45.04 43.48 45.0301 43.44 45.01C43.41 44.99 43.39 44.98 43.36 44.97C43.2258 44.9033 43.0833 44.8367 42.95 44.77C42.9862 44.7942 43.026 44.8147 43.0672 44.8359L43.0692 44.837C43.0957 44.8506 43.1229 44.8645 43.15 44.88C42.8927 44.7538 42.6331 44.6253 42.3722 44.4954C42.1974 44.4085 42.022 44.3209 41.8465 44.2332L41.5435 44.0815C41.5825 44.0983 41.6215 44.1151 41.6606 44.1336L41.6335 44.1196C41.1539 43.8709 40.6833 43.6269 40.23 43.3401C40.041 43.2189 39.8521 43.0964 39.6628 42.9735L39.6285 42.9514C39.298 42.7369 38.9659 42.5216 38.63 42.31C37.6361 41.6775 36.5768 41.1675 35.5112 40.6545L35.5101 40.654L35.17 40.49C35.0881 40.4464 35.0056 40.4035 34.9228 40.3605L34.9217 40.3598C34.7018 40.2456 34.4803 40.1305 34.27 40C33.98 39.81 33.68 39.62 33.38 39.42C32.9999 39.1376 32.6251 38.8487 32.2522 38.557C32.0658 38.4112 31.8799 38.2648 31.694 38.1181L31.5096 37.9725L31.5085 37.9718C31.1008 37.6498 30.6928 37.3275 30.28 37.01C29.7299 36.5806 29.1476 36.1892 28.5648 35.7973L28.562 35.7951C27.8807 35.3372 27.1984 34.8786 26.5653 34.3577C26.8958 33.7843 27.1813 33.1851 27.41 32.56C27.6 32.06 27.78 31.5 27.82 30.97C27.85 30.44 27.83 29.97 27.71 29.45C27.47 28.39 26.66 27.5301 25.72 27.0301C24.71 26.49 23.59 26.3 22.46 26.21C20.87 26.07 19.26 26.27 17.68 26.49C17.57 26.5 17.46 26.53 17.35 26.57C17.02 26.44 16.66 26.4 16.3 26.47C15.25 26.6699 14.48 27.58 13.93 28.44C13.3 29.4 12.8799 30.46 12.61 31.58C12.0699 33.89 12.28 36.69 13.78 38.62C14.2542 39.2357 14.8836 39.7312 15.5939 40.0392L15.5908 40.0468C15.0666 41.3411 14.5441 42.6314 14.16 43.98C13.9971 44.5569 13.8066 45.1292 13.6165 45.7C13.5266 45.9702 13.4367 46.2401 13.35 46.51C13.05 47.43 12.8 48.36 12.55 49.3C12.09 51.03 11.58 52.74 11.04 54.45C10.46 56.3 9.91998 58.15 9.46997 60.04C9.26013 60.9395 9.07025 61.849 8.88037 62.7584L8.88001 62.76C8.78003 63.24 8.67999 63.7201 8.57001 64.2C8.55444 64.2758 8.53742 64.3512 8.51959 64.4264L8.49951 64.5094C8.48737 64.5592 8.47504 64.6089 8.46271 64.6586L8.45996 64.6695C8.4447 64.7307 8.42951 64.7918 8.41467 64.8529C8.18976 64.8502 7.96491 64.8419 7.73999 64.83C7.53998 64.8101 7.34003 64.7901 7.13001 64.77C6.63001 64.7201 6.14996 64.8601 5.78998 65.15C5.09998 65.2501 4.45001 65.57 3.88001 65.99C2.96002 66.66 2.33002 67.8001 1.92999 68.84C1.53003 69.9 1.21002 71.01 1.08002 72.13C0.930055 73.4 0.849977 74.75 1.22998 75.99C1.52997 76.99 1.98999 77.95 2.72998 78.72C3.46997 79.48 4.38007 80.11 5.40003 80.41C6.07007 80.6 6.73999 80.7 7.40997 80.68C7.87 80.68 8.33002 80.64 8.78998 80.55C13.45 79.66 16.8 74.72 16.01 70.05C15.82 68.92 15.53 67.72 14.81 66.8C14.2 66.02 13.36 65.4 12.39 65.13L12.3238 65.1123C12.2855 65.1023 12.2471 65.0924 12.2086 65.0826C12.1418 65.0658 12.0748 65.0495 12.0074 65.034L12.02 64.98C12.1583 64.3629 12.2898 63.7434 12.4213 63.1236C12.6797 61.9056 12.9385 60.6862 13.25 59.48C13.6837 57.8007 14.211 56.1469 14.7377 54.4951L14.7384 54.4928L14.87 54.08C15.1908 53.0596 15.4672 52.0289 15.7431 50.9999L15.7453 50.9918C15.9418 50.2589 16.1381 49.5269 16.35 48.8C16.4729 48.3948 16.6021 47.9917 16.7336 47.5887C16.8083 47.3602 16.8837 47.1318 16.9592 46.9031C17.043 46.6495 17.127 46.3948 17.21 46.14C17.2672 45.9597 17.3225 45.7794 17.3766 45.5993L17.4215 45.4491L17.4789 45.2552L17.5673 44.9547C17.6915 44.5313 17.8154 44.1093 17.95 43.69C18.31 42.7 18.73 41.7301 19.12 40.76C19.1913 40.5836 19.2329 40.4009 19.2465 40.2184C19.3336 40.1958 19.4205 40.1716 19.5071 40.1459C19.5334 40.1381 19.5596 40.1302 19.5858 40.1222L19.6235 40.1106C19.6657 40.0974 19.7079 40.0839 19.75 40.07C20.92 39.68 22.04 39.07 23.02 38.32C23.4976 37.9579 23.9614 37.5737 24.3956 37.1588C24.965 37.6269 25.5787 38.0402 26.1884 38.451C26.3461 38.5572 26.5036 38.6632 26.66 38.77C27.5699 39.38 28.4301 40.04 29.28 40.72C29.8001 41.15 30.33 41.56 30.87 41.97C31.2975 42.2907 31.7387 42.5775 32.1878 42.8696L32.1906 42.8714L32.3456 42.9723L32.48 43.06C32.931 43.3487 33.431 43.5886 33.921 43.8236L34.08 43.9001C34.4066 44.0599 34.7333 44.2198 35.0599 44.3762C35.2032 44.4449 35.3466 44.513 35.49 44.58C36.2997 45.037 37.0772 45.5325 37.8586 46.0305C37.983 46.1098 38.1075 46.1891 38.2323 46.2683L38.3341 46.333L38.44 46.4001C39.1793 46.867 39.9732 47.2552 40.7603 47.64L40.77 47.6448L40.7796 47.6496C40.9974 47.7561 41.2147 47.8623 41.43 47.97L41.4265 47.9696L41.4088 47.9604L41.4014 47.9564L41.39 47.95C41.399 47.959 41.4159 47.9679 41.4265 47.9696C41.4371 47.9751 41.4479 47.9804 41.4588 47.9856C41.4724 47.9922 41.4862 47.9986 41.5 48.005C41.5375 48.0225 41.575 48.0401 41.61 48.06C41.5964 48.0566 41.5837 48.0519 41.5716 48.0466C41.7756 48.1507 41.9815 48.2546 42.1873 48.3574C42.3924 48.4598 42.5973 48.561 42.8 48.66C43.1927 48.8712 43.5748 49.0966 43.9567 49.3219L43.9594 49.3236C44.4809 49.6314 45.0021 49.939 45.55 50.21C45.7484 50.3092 45.9479 50.4041 46.1478 50.4971L46.3098 50.5721L46.5704 50.6917C46.8344 50.8126 47.0981 50.9335 47.36 51.06C47.3956 51.0773 47.4309 51.0939 47.4659 51.1098C47.1677 51.8903 46.951 52.6996 46.82 53.51C46.44 55.86 46.58 58.46 48.16 60.38C49.1699 61.6 50.73 62.12 52.29 62.11C52.97 62.11 53.66 62.01 54.29 61.82C55.4999 61.46 56.7 60.95 57.77 60.27C58.7 59.69 59.63 59.03 60.39 58.23C61.23 57.34 62.0099 56.33 62.48 55.18C62.91 54.15 63.2 53 63.09 51.88C62.9131 49.9668 61.7863 48.325 60.3381 47.1052C60.7643 46.7945 61.0335 46.2998 61.07 45.7801C61.76 43.8701 62.47 41.96 63.23 40.08C63.3218 39.8506 63.4155 39.6207 63.5094 39.3902L63.5101 39.3883L63.5112 39.3858C63.8465 38.5629 64.1848 37.7326 64.45 36.89C64.78 35.8501 65.07 34.8 65.32 33.74C65.74 31.96 66.2299 30.19 66.72 28.43C66.9266 27.681 67.1183 26.932 67.3097 26.1846L67.3119 26.1762C67.5643 25.1901 67.816 24.2068 68.1 23.23C68.35 22.37 68.58 21.52 68.81 20.66C69.05 19.76 69.32 18.87 69.57 17.98C69.6749 17.6052 69.7674 17.2254 69.8599 16.8456C69.9524 16.4654 70.045 16.0852 70.15 15.71C70.36 14.9301 70.62 14.1701 70.88 13.4001C70.8767 13.4033 70.8746 13.4075 70.8727 13.4126L70.996 13.0511C71.3017 12.1558 71.6061 11.2642 71.85 10.35C71.8638 10.2962 71.8778 10.2423 71.892 10.1884L71.9142 10.1045C72.0065 9.7557 72.0995 9.40444 72.14 9.04C72.16 8.83999 72.18 8.65005 72.21 8.45004C72.23 8.33004 72.2599 8.20999 72.3 8.1C72.45 7.69003 72.63 7.27999 72.77 6.87002C72.8331 6.70309 72.8902 6.53616 72.9402 6.3674C73.1766 6.98342 73.4097 7.60208 73.6419 8.21853C73.7213 8.42935 73.8007 8.63992 73.88 8.85C74.0789 9.37368 74.2795 9.89651 74.4802 10.4192C74.9653 11.6833 75.4501 12.9466 75.91 14.22V14.21C76.32 15.4101 76.75 16.61 77.23 17.79C77.5971 18.6793 78.0508 19.5352 78.5041 20.3905C78.6064 20.5836 78.7087 20.7766 78.81 20.97C78.7988 20.9439 78.7876 20.9178 78.7759 20.8916C78.9937 21.3263 79.2092 21.7549 79.4 22.2ZM16.8672 36.7198C16.8505 36.7106 16.8346 36.701 16.82 36.69L16.8322 36.6961C16.8361 36.6981 16.84 36.7003 16.8439 36.7026L16.8514 36.7072L16.73 36.61L16.59 36.47C16.54 36.4099 16.48 36.34 16.43 36.27L16.4057 36.2297C16.3517 36.1407 16.2933 36.0441 16.25 35.94C16.29 36 16.3199 36.07 16.36 36.14C16.3 36.01 16.25 35.89 16.2 35.76C16.1429 35.5816 16.0959 35.4083 16.0519 35.2328C16.0343 35.1624 16.0172 35.0916 16 35.02C15.96 34.77 15.9299 34.53 15.91 34.29C15.9068 34.204 15.9046 34.119 15.9034 34.0345C15.9022 33.942 15.9022 33.85 15.9033 33.7575C15.9038 33.716 15.9046 33.6744 15.9056 33.6327C15.9067 33.5854 15.9082 33.5378 15.91 33.49C15.9399 33.14 15.99 32.81 16.05 32.47C16.12 32.2 16.19 31.94 16.27 31.68C16.37 31.4 16.49 31.13 16.62 30.86C16.67 30.77 16.73 30.67 16.78 30.58C17.28 30.58 17.73 30.36 18.05 30.01C18.09 30.01 18.1299 30.01 18.17 30C18.9399 29.89 19.72 29.79 20.5 29.73C21.03 29.7 21.55 29.69 22.07 29.72C22.273 29.7369 22.4759 29.757 22.6806 29.7803C22.8391 29.7983 22.9985 29.8182 23.16 29.8401L23.2202 29.8571L23.3324 29.8883C23.392 29.9048 23.4511 29.921 23.5096 29.938L23.5665 29.9547L23.6224 29.9716C23.6539 29.9813 23.6854 29.9914 23.7169 30.0019C23.7346 30.0078 23.7523 30.0138 23.77 30.02L23.8452 30.0509L23.8527 30.054C23.9482 30.0931 24.0471 30.1335 24.14 30.18C24.1561 30.1854 24.1722 30.1936 24.1884 30.2032C24.2022 30.2115 24.2161 30.2207 24.23 30.23H24.22L24.23 30.24C24.235 30.25 24.2425 30.26 24.25 30.27C24.2575 30.28 24.265 30.29 24.27 30.3C24.28 30.33 24.3 30.36 24.31 30.39C24.31 30.41 24.32 30.42 24.32 30.44V30.45C24.32 30.49 24.31 30.54 24.3 30.58C24.24 30.82 24.18 31.05 24.11 31.2801C24 31.57 23.87 31.85 23.73 32.14C23.52 32.52 23.3 32.89 23.06 33.26C22.86 33.54 22.65 33.81 22.43 34.07C22.18 34.34 21.9299 34.5901 21.66 34.8401C21.28 35.18 20.8799 35.48 20.47 35.77C20.3445 35.8507 20.217 35.9294 20.0875 36.006C19.928 36.1004 19.7655 36.1917 19.6 36.2801C19.28 36.43 18.96 36.57 18.64 36.69C18.6051 36.7017 18.5698 36.7129 18.5342 36.7239C18.4807 36.7404 18.4265 36.7562 18.3718 36.7715C18.2839 36.7962 18.1951 36.8196 18.106 36.843L18.1038 36.8436L18.0868 36.8482L18.0855 36.8485L18.08 36.85C18.0607 36.85 18.0413 36.851 18.0217 36.8527C17.9884 36.8557 17.9541 36.8607 17.9172 36.8661L17.89 36.87C17.8559 36.872 17.8218 36.8736 17.7877 36.8748L17.7534 36.8759C17.7209 36.8767 17.6884 36.8773 17.6558 36.8774C17.606 36.8777 17.556 36.877 17.5062 36.8756C17.4641 36.8744 17.4221 36.8725 17.38 36.87C17.3411 36.87 17.3021 36.8658 17.2632 36.8601C17.2511 36.8584 17.239 36.8564 17.2269 36.8545L17.2 36.85C17.14 36.83 17.09 36.82 17.04 36.8C17.01 36.79 16.99 36.78 16.96 36.77C16.9299 36.7519 16.8997 36.7374 16.8716 36.7222L16.8672 36.7198C16.8643 36.7173 16.8619 36.7143 16.8589 36.7122L16.8672 36.7198ZM5.51001 76.5C5.42004 76.4101 5.33002 76.32 5.23999 76.22C5.17529 76.1369 5.11066 76.0537 5.08545 75.9626C5.12067 76.0184 5.1582 76.0742 5.20001 76.13C5.16004 76.07 5.12006 76.01 5.08002 75.94C5.08154 75.9476 5.08337 75.9552 5.08545 75.9626C5.05823 75.9195 5.03235 75.8764 5.0069 75.8332L4.96997 75.77L4.92011 75.6654C4.88452 75.5907 4.84955 75.5168 4.81641 75.4417C4.7818 75.3632 4.74915 75.2833 4.71997 75.2C4.70905 75.1635 4.69812 75.127 4.68762 75.0905C4.68213 75.0713 4.67676 75.052 4.67157 75.0328C4.66663 75.0145 4.66193 74.9963 4.65741 74.9781C4.65106 74.952 4.6452 74.926 4.64002 74.9C4.60004 74.6601 4.56 74.4301 4.53998 74.2C4.52997 73.94 4.52997 73.6701 4.53998 73.4C4.58002 72.8801 4.65003 72.37 4.73999 71.86C4.83002 71.44 4.94 71.0301 5.06 70.63C5.19 70.2801 5.34003 69.9301 5.5 69.58C5.51434 69.5534 5.52869 69.5263 5.54315 69.499L5.5697 69.4491C5.60437 69.384 5.63989 69.3189 5.67731 69.2573C5.68976 69.2392 5.70197 69.2206 5.71344 69.2013C5.77472 69.1161 5.83881 69.0331 5.90997 68.95L6.07001 68.79C6.07416 68.7859 6.08002 68.7818 6.08685 68.7769C6.09314 68.7725 6.10028 68.7674 6.10779 68.7612C6.11182 68.7578 6.11591 68.7541 6.12 68.75C6.13001 68.74 6.14002 68.74 6.15997 68.73C6.51996 68.84 6.91998 68.82 7.31 68.66C7.46002 68.59 7.60999 68.5 7.73999 68.39L7.82886 68.3958C7.86444 68.3982 7.8999 68.4003 7.93512 68.4022C7.98193 68.4048 8.02832 68.4069 8.07398 68.4083C8.1098 68.4094 8.1452 68.41 8.17999 68.41C8.37958 68.41 8.57916 68.4076 8.77875 68.4043C8.8736 68.4028 8.96845 68.4011 9.06329 68.3994C9.57886 68.3902 10.0944 68.3809 10.61 68.4C10.78 68.4201 10.95 68.44 11.11 68.47C11.22 68.49 11.32 68.52 11.43 68.55C11.4586 68.5595 11.4872 68.5691 11.5159 68.5797C11.5472 68.5914 11.5786 68.6043 11.61 68.62L11.6111 68.6206C11.6285 68.6293 11.646 68.638 11.6632 68.647C11.6768 68.6541 11.6901 68.6613 11.7032 68.6688L11.78 68.72C11.7563 68.7011 11.7303 68.6843 11.7032 68.6688L11.69 68.66C11.6793 68.6529 11.6685 68.6444 11.6573 68.6356L11.6373 68.6201L11.6549 68.63L11.6795 68.6438L11.6923 68.6515L11.7001 68.6563C11.7069 68.6607 11.7136 68.6652 11.72 68.67C11.73 68.67 11.74 68.68 11.74 68.68L11.86 68.77L11.93 68.84L12.02 68.96C12.0317 68.9765 12.0429 68.9934 12.0537 69.0107C12.0686 69.0346 12.0826 69.059 12.0963 69.0833C12.1147 69.1164 12.1324 69.1491 12.15 69.18C12.1801 69.25 12.21 69.31 12.23 69.38C12.32 69.6701 12.4 69.9701 12.47 70.27C12.52 70.52 12.5601 70.78 12.58 71.04C12.5871 71.2382 12.5892 71.4314 12.5862 71.6301C12.585 71.7122 12.5829 71.7952 12.58 71.88C12.5601 72.1001 12.53 72.3201 12.49 72.5301C12.43 72.7601 12.37 72.9901 12.3 73.21L12.2042 73.4448C12.1666 73.5362 12.1288 73.6275 12.0902 73.7189L12.0591 73.7923L12.0426 73.8309C12.0155 73.8939 11.988 73.957 11.96 74.02C11.82 74.27 11.6801 74.52 11.52 74.77C11.4633 74.8471 11.4048 74.9241 11.3455 75.0011C11.2584 75.1141 11.1692 75.2271 11.08 75.34C11.0476 75.3765 11.0148 75.4121 10.9818 75.4471C10.9525 75.4779 10.923 75.5083 10.8933 75.5382C10.7905 75.642 10.6852 75.7411 10.58 75.84C10.4 75.9901 10.21 76.14 10.01 76.2801C9.89136 76.3571 9.77277 76.4307 9.65204 76.5008C9.56928 76.5489 9.48547 76.5953 9.40003 76.64C9.22913 76.7255 9.05084 76.7964 8.87787 76.8652L8.87677 76.8656L8.78998 76.9C8.58002 76.9701 8.37 77.0301 8.15997 77.08C7.95001 77.1101 7.75 77.14 7.53998 77.16H7.21002C7.14044 77.1554 7.07086 77.1486 7.00226 77.1406C6.92304 77.1314 6.84509 77.1208 6.77002 77.11C6.64002 77.07 6.51001 77.0401 6.39002 77C6.29004 76.9701 6.19006 76.93 6.09003 76.88C5.97003 76.82 5.84998 76.75 5.72998 76.67C5.70154 76.6522 5.67438 76.6331 5.64801 76.6132C5.62195 76.5937 5.59668 76.5733 5.57178 76.5525L5.54376 76.5289L5.51001 76.5ZM5.67731 69.2573L5.66998 69.2678L5.66046 69.2813L5.63684 69.314C5.62055 69.3363 5.60462 69.3582 5.59003 69.38C5.62781 69.3234 5.66559 69.2682 5.70441 69.2138C5.69525 69.2281 5.68622 69.2426 5.67731 69.2573ZM50.86 58.08L50.95 58.17C50.9738 58.1938 50.9976 58.2113 51.0264 58.2324L51.05 58.25C51.0732 58.2633 51.0966 58.2777 51.1199 58.2921C51.1666 58.3211 51.2133 58.35 51.26 58.37C51.34 58.41 51.41 58.44 51.49 58.47C51.5699 58.49 51.65 58.52 51.73 58.54C51.78 58.55 51.84 58.56 51.9 58.56H52.48C52.7 58.54 52.92 58.51 53.13 58.47C53.1565 58.4633 53.1829 58.4566 53.2091 58.4497L53.2706 58.4334C53.3358 58.4157 53.4005 58.3974 53.4647 58.3782C53.5875 58.3416 53.7087 58.3022 53.83 58.26C54.26 58.1 54.67 57.92 55.09 57.72C55.52 57.5 55.93 57.26 56.34 56.99C56.76 56.7 57.17 56.39 57.56 56.05C57.77 55.85 57.98 55.64 58.18 55.42C58.2405 55.3488 58.2986 55.2763 58.3554 55.2029C58.4147 55.1263 58.4729 55.0488 58.5312 54.971L58.5325 54.9691C58.5746 54.9129 58.6169 54.8565 58.66 54.8C58.8199 54.55 58.98 54.29 59.12 54.02C59.1378 53.9785 59.1556 53.9373 59.1733 53.8964L59.1833 53.8734C59.2517 53.7155 59.3188 53.5607 59.38 53.4001C59.43 53.24 59.47 53.09 59.5 52.93C59.5147 52.8562 59.527 52.7823 59.5381 52.7072C59.5477 52.6431 59.5563 52.5781 59.5648 52.5114C59.5699 52.3937 59.57 52.2748 59.57 52.16C59.57 52.1377 59.5686 52.1154 59.5663 52.0932C59.5642 52.072 59.5613 52.0509 59.558 52.0298L59.5538 52.0027L59.55 51.98C59.54 51.9351 59.5275 51.8927 59.515 51.8502L59.5006 51.8006C59.4932 51.7743 59.4861 51.7476 59.48 51.72C59.41 51.54 59.33 51.36 59.25 51.17L59.2268 51.128C59.2051 51.0891 59.1832 51.0515 59.1606 51.0144C59.1288 50.9621 59.0957 50.911 59.06 50.86C58.98 50.75 58.9 50.65 58.82 50.55C58.6 50.32 58.37 50.1 58.14 49.88C57.9 49.67 57.65 49.48 57.39 49.3C57.13 49.14 56.8699 48.9801 56.6 48.8401C56.4369 48.7676 56.2702 48.6988 56.1021 48.6314C55.9918 48.5872 55.8809 48.5436 55.77 48.5C55.7305 48.4856 55.6896 48.4725 55.6483 48.4602C55.6317 48.4553 55.6151 48.4505 55.5984 48.4458C55.5622 48.4356 55.5261 48.4258 55.4905 48.4163L55.4883 48.4157L55.43 48.4001C55.24 49.18 54.54 49.77 53.71 49.77C53.35 49.77 53.02 49.66 52.75 49.48C52.7098 49.5101 52.6722 49.5402 52.6346 49.5703C52.5973 49.6002 52.5599 49.6301 52.52 49.66C52.447 49.7263 52.3785 49.797 52.3085 49.8692L52.2501 49.9293C52.2336 49.9462 52.2169 49.9631 52.2 49.98C52 50.22 51.81 50.46 51.63 50.72C51.47 50.98 51.3199 51.24 51.17 51.51C50.9899 51.89 50.83 52.27 50.68 52.66C50.6271 52.8273 50.5782 52.9927 50.5322 53.1587C50.4738 53.3697 50.4203 53.5818 50.37 53.8C50.29 54.25 50.23 54.69 50.19 55.1501C50.1842 55.3119 50.1818 55.4704 50.1827 55.6276C50.1833 55.7422 50.1858 55.8561 50.19 55.97C50.22 56.28 50.2599 56.5901 50.31 56.9001C50.34 57.0301 50.3799 57.17 50.42 57.29C50.46 57.41 50.5099 57.52 50.56 57.63C50.6141 57.7293 50.6683 57.8204 50.7225 57.9108C50.7665 57.9701 50.8118 58.0265 50.86 58.08Z"
    fill="rgba(191, 192, 191, 1)" />
  <path
    d="M47.38 51.08C47.3765 51.0765 47.3729 51.0742 47.3698 51.0727C47.3641 51.07 47.36 51.07 47.36 51.07C47.364 51.07 47.3663 51.07 47.3683 51.0706C47.3699 51.0711 47.3713 51.0719 47.373 51.0734C47.3748 51.0749 47.377 51.077 47.38 51.08Z"
    fill="rgba(191, 192, 191, 1)" />
</svg>