<svg width="94" height="73" viewBox="0 0 94 73" fill="none" xmlns="http://www.w3.org/2000/svg">
  <path fill-rule="evenodd" clip-rule="evenodd"
    d="M68.15 70.63C68.88 71.54 69.97 72.1399 71.09 72.37C71.41 72.44 71.73 72.4699 71.94 72.44C72.67 72.44 73.42 72.29 74.1 72.04C76.34 71.2099 78.1 69.3699 79.38 67.41C82.35 62.86 83.35 57.38 84.12 52.09C84.1567 51.8353 84.191 51.5806 84.2239 51.326C84.2804 50.8874 84.3324 50.4488 84.3844 50.0102L84.4199 49.7113C84.4493 49.4642 84.4791 49.2171 84.51 48.97C84.5414 48.7182 84.5745 48.4666 84.6076 48.2149C84.6902 47.5866 84.7729 46.9583 84.83 46.33C84.8867 45.6864 84.9479 45.0427 85.009 44.3991C85.1312 43.1127 85.2534 41.8263 85.34 40.54C85.49 38.47 85.63 36.41 85.77 34.34V34.35C85.7938 34.0361 85.8174 33.7221 85.8409 33.4082L85.9031 32.5761L85.9036 32.5679C86.1548 29.2021 86.406 25.8374 86.78 22.48C87.01 20.3999 87.24 18.33 87.46 16.26C87.56 15.2799 87.65 14.29 87.72 13.3C87.74 12.9599 87.77 12.6299 87.79 12.29C88 12.7599 88.19 13.2399 88.36 13.72C88.61 14.47 88.8099 15.23 88.97 16.01C89.1437 16.8592 89.2802 17.727 89.4153 18.5864L89.43 18.68C89.442 18.758 89.454 18.8351 89.4659 18.9116L89.4951 19.0957L89.55 19.44C89.5668 19.555 89.5821 19.67 89.5973 19.7847C89.6364 20.0791 89.6752 20.3721 89.74 20.66C89.83 21.04 89.95 21.3899 90.08 21.75C90.42 22.6499 91.54 23.05 92.4 22.69C93.32 22.3 93.68 21.2699 93.34 20.37C93.3103 20.2809 93.2806 20.2015 93.2509 20.1224L93.25 20.12C93.23 20.06 93.22 20 93.2 19.94C93.125 19.4649 93.0525 18.99 92.98 18.515C92.9075 18.04 92.835 17.565 92.76 17.09C92.55 15.79 92.3099 14.46 91.91 13.21C91.39 11.6 90.74 10.06 89.8 8.64C89.34 7.96 88.8 7.34996 88.19 6.80998C87.82 6.48997 87.4 6.14994 86.94 5.92997C86.8 5.78996 86.63 5.66996 86.45 5.54997C85.71 5.05998 84.86 5.41996 84.15 5.73997C83.64 5.86998 83.16 6.09996 82.72 6.43998C82.3199 6.66996 81.93 6.92991 81.57 7.22996C80.72 7.93992 80 8.77 79.39 9.69999C78.8 10.5899 78.3099 11.5199 77.85 12.48C77.8032 12.5777 77.7559 12.6751 77.7087 12.7724L77.7071 12.7759C77.6253 12.9444 77.5436 13.1128 77.4645 13.283C77.3752 13.4754 77.2891 13.6701 77.21 13.87C76.88 14.68 77.18 15.64 77.95 16.09C78.71 16.53 79.7 16.33 80.24 15.64C80.2936 15.5717 80.3459 15.5025 80.3972 15.4325C80.4432 15.3698 80.4883 15.3065 80.5327 15.2428C80.7187 14.9761 80.8928 14.7012 81.0665 14.4272C81.1506 14.2943 81.2347 14.1615 81.32 14.03C81.4418 13.8393 81.5637 13.6515 81.6855 13.4634C81.7936 13.2964 81.9019 13.1293 82.01 12.96C82.1268 12.789 82.243 12.6172 82.3593 12.4452C82.9504 11.5711 83.5448 10.6921 84.23 9.89L84.26 9.85997C84.2626 9.92619 84.2657 9.99241 84.2689 10.0585C84.2741 10.1653 84.2792 10.2718 84.2816 10.377C84.2834 10.4622 84.2834 10.5467 84.28 10.63C84.27 11.1499 84.26 11.67 84.25 12.2C84.12 13.99 83.95 15.79 83.75 17.58C83.6929 18.1031 83.6339 18.6272 83.5748 19.1521L83.5728 19.1693L83.5724 19.172C83.4457 20.2959 83.3187 21.423 83.21 22.55L83.2005 22.6529C82.8437 26.4783 82.4878 30.2942 82.24 34.12C82.1 36.11 81.96 38.1 81.83 40.09V40.07C81.73 41.22 81.63 42.36 81.53 43.5C81.5145 43.6705 81.5001 43.8406 81.4862 44.0104C81.4787 44.102 81.4714 44.1936 81.4641 44.2851L81.4628 44.3002L81.4615 44.3161L81.4602 44.333L81.4587 44.3507L81.4573 44.3694C81.4104 44.9558 81.3636 45.5406 81.29 46.13L81.1749 47.0978C80.826 50.0366 80.4767 52.9795 79.9 55.89C79.56 57.55 79.18 59.1999 78.64 60.81C78.29 61.81 77.9 62.7799 77.43 63.73C77.4424 63.7113 77.4539 63.6918 77.465 63.6714C77.472 63.6586 77.4789 63.6454 77.4858 63.6321C77.5031 63.5989 77.5203 63.5644 77.54 63.53C77.2 64.2 76.83 64.85 76.43 65.48C76.1 65.9599 75.75 66.41 75.38 66.86C75.12 67.1399 74.86 67.41 74.58 67.67C74.37 67.8399 74.15 68.0099 73.93 68.17C73.69 68.3199 73.45 68.4599 73.2 68.6C73.11 68.6399 73.02 68.67 72.93 68.71C72.8583 68.7369 72.7847 68.7597 72.7099 68.7803C72.6177 68.8058 72.5239 68.8279 72.43 68.85L72.4256 68.8507L72.3604 68.8614L72.2947 68.872C72.2412 68.8803 72.1878 68.8878 72.1343 68.8937C72.1215 68.8947 72.1087 68.8958 72.0959 68.8971C72.0173 68.8999 71.9386 68.9 71.86 68.9C71.81 68.89 71.76 68.88 71.71 68.88C71.7151 68.88 71.72 68.8803 71.7246 68.8808C71.7331 68.8817 71.7407 68.8832 71.7478 68.8848L71.7618 68.8879L71.7677 68.889L71.7727 68.8896C71.7751 68.8899 71.7776 68.89 71.78 68.89H71.76C71.7398 68.8871 71.7196 68.8834 71.6994 68.8791C71.6713 68.8731 71.6431 68.8659 71.615 68.8583C71.5938 68.8526 71.5725 68.8465 71.5513 68.8404L71.55 68.84L71.31 68.75C71.2908 68.7417 71.2715 68.7327 71.2523 68.7229C71.2015 68.6972 71.1508 68.6662 71.1 68.63C71.0754 68.6054 71.0471 68.5848 71.0173 68.5631L71.0153 68.5616L71.0144 68.5609C70.9966 68.548 70.9783 68.5346 70.96 68.52C70.9374 68.4917 70.9116 68.4667 70.8862 68.4411C70.8667 68.4215 70.8474 68.4017 70.83 68.38C70.8 68.3457 70.7718 68.3095 70.7438 68.2723C70.7067 68.2228 70.67 68.1714 70.63 68.12C70.532 67.9648 70.4474 67.8097 70.3597 67.6491L70.3 67.54C70.2304 67.4008 70.1705 67.2519 70.1136 67.1036C70.0991 67.0658 70.0849 67.0282 70.0707 66.9907L70.0691 66.9865L70.04 66.91C69.86 66.2999 69.71 65.67 69.58 65.05C69.3 63.5199 69.15 61.97 69.04 60.43C68.97 59.3899 68.93 58.3399 68.9 57.3C68.87 56.4603 68.8737 55.6263 68.8774 54.7893C68.8787 54.51 68.88 54.2303 68.88 53.95C68.88 53.8598 68.8798 53.7696 68.8795 53.6792C68.8791 53.5549 68.8784 53.4305 68.8776 53.3059L68.8755 52.9985C68.8731 52.6535 68.8707 52.308 68.8712 51.9631C68.8713 51.8113 68.8721 51.6595 68.8736 51.508C68.8746 51.4136 68.8758 51.3193 68.8774 51.2251L68.88 51.09C68.8949 50.5137 68.9072 49.9372 68.9195 49.3611V49.3536C68.9482 48.0031 68.977 46.6541 69.04 45.31C69.0798 44.5218 69.1133 43.7337 69.1467 42.9462C69.1973 41.7553 69.2478 40.5658 69.32 39.38C69.376 38.4746 69.4342 37.5692 69.4926 36.6638L69.5046 36.4776C69.5673 35.505 69.6299 34.5325 69.69 33.56C69.6931 33.4927 69.6971 33.4253 69.7014 33.3583C69.7044 33.3118 69.7076 33.2655 69.7108 33.2194L69.718 33.1139L69.72 33.083C69.7238 33.0248 69.7272 32.967 69.73 32.91C70.03 28.97 70.33 25.04 70.69 21.11C70.88 18.9999 71.0699 16.89 71.23 14.77C71.3 13.86 71.37 12.94 71.4 12.03L71.46 10.04C71.49 9.15995 71.49 8.22996 71.34 7.34996C71.24 6.75993 71.09 6.17997 70.71 5.68998C70.44 5.33995 70.03 5.02995 69.6 4.90995C68.6899 4.65995 67.71 5.00999 67.14 5.74998C66.8145 6.17497 66.6198 6.70634 66.4376 7.20347C66.4183 7.25608 66.3992 7.30827 66.38 7.35997C66.24 7.73997 66.1 8.14 65.99 8.53001C65.916 8.79142 65.842 9.0504 65.7681 9.30931C65.692 9.57536 65.616 9.84135 65.54 10.11C65.05 11.8099 64.63 13.5299 64.26 15.26C63.42 19.12 62.61 22.99 61.88 26.87C61.389 29.4957 60.9119 32.1227 60.4348 34.7491C59.513 39.8248 58.5914 44.899 57.57 49.96C57.309 51.1305 57.0408 52.2939 56.7715 53.4622L56.62 54.12C56.12 56.36 55.5 58.5699 54.75 60.74C54.7537 60.74 54.756 60.7386 54.7575 60.7369C54.76 60.7339 54.76 60.73 54.76 60.73C54.25 62.1399 53.68 63.5299 53.02 64.87C53.0259 64.8612 53.0309 64.8532 53.0355 64.8457C53.0468 64.8274 53.0558 64.8111 53.07 64.79C52.79 65.3199 52.4999 65.84 52.16 66.34C52.0792 66.4652 51.9968 66.5872 51.912 66.7065C51.787 66.8826 51.6571 67.053 51.52 67.2199C51.4653 67.2807 51.4068 67.3416 51.3469 67.4024C51.3083 67.4416 51.2692 67.4808 51.23 67.52C51.18 67.55 51.14 67.5899 51.09 67.62C51.0861 67.6239 51.0821 67.6279 51.0776 67.6319C51.0706 67.6379 51.0621 67.644 51.05 67.65C51.0302 67.6105 51.0203 67.5807 51.0104 67.5511L51.01 67.55C50.9 67.1899 50.81 66.8399 50.73 66.48C50.5701 65.6506 50.5001 64.8212 50.4302 63.9918L50.43 63.99C50.2992 61.7258 50.4089 59.4683 50.5189 57.2066C50.5435 56.7013 50.5681 56.1958 50.59 55.69L50.6617 54.8841C50.7024 54.4314 50.7436 53.9787 50.7849 53.5261L50.8028 53.3294C50.876 52.5263 50.9493 51.7231 51.02 50.92C51.1116 49.9206 51.238 48.9213 51.3638 47.9264L51.3958 47.6733C51.4242 47.4486 51.4524 47.2241 51.48 47C51.7504 44.7568 52.051 42.5135 52.3516 40.2704L52.3532 40.2586C52.5413 38.8558 52.7293 37.4529 52.91 36.05C52.99 35.4162 53.0745 34.7825 53.1589 34.1488C53.3278 32.8825 53.4967 31.6163 53.63 30.35L54.05 26.42L54.0723 26.2284L54.1055 25.9472L54.1088 25.919C54.181 25.309 54.2529 24.7026 54.3 24.09C54.31 24.08 54.31 24.0599 54.31 24.04V24.05C54.3852 22.9117 54.463 21.7785 54.5407 20.6452C54.618 19.5185 54.6953 18.3917 54.77 17.26C54.83 16.3399 54.84 15.41 54.85 14.49C54.86 13.35 54.85 12.22 54.81 11.08C54.77 9.89 54.73 8.68998 54.59 7.50999C54.48 6.50999 54.35 5.48997 54.11 4.50999C53.84 3.40995 53.39 2.35997 52.66 1.47996C52.37 1.12992 52.03 0.849956 51.62 0.639995C51.2 0.429973 50.77 0.359966 50.3 0.340007C49.76 0.309978 49.18 0.499981 48.69 0.710003C48.23 0.900005 47.84 1.23991 47.49 1.59996C46.68 2.40995 46.09 3.43998 45.58 4.44999C44.4 6.77995 43.63 9.30998 42.99 11.83C42.7945 12.6048 42.6332 13.3894 42.472 14.1736C42.4022 14.5127 42.3325 14.8518 42.26 15.19C42.2026 15.456 42.1415 15.7221 42.0803 15.9884C41.9392 16.6029 41.7977 17.219 41.7 17.84C41.52 18.95 41.34 20.05 41.16 21.15C40.86 23 40.58 24.8399 40.33 26.69C40.191 27.7131 40.0543 28.737 39.9176 29.7612L39.9169 29.7649C39.5621 32.4231 39.2068 35.0846 38.81 37.74C38.7202 38.3421 38.6339 38.9442 38.5477 39.5458L38.5464 39.5545L38.545 39.5604C38.3444 40.9621 38.1442 42.3609 37.9 43.75C37.5621 45.7279 37.2142 47.7058 36.8664 49.6837L36.86 49.72C36.6534 50.6331 36.4556 51.5462 36.2579 52.4594L36.2545 52.4755C36.1567 52.927 36.0589 53.3785 35.96 53.83C35.4821 56.0306 34.8851 58.1816 34.1594 60.3127C34.16 60.308 34.16 60.3039 34.16 60.3C33.65 61.75 33.07 63.17 32.39 64.55C32.16 65.0099 31.91 65.46 31.64 65.89C31.39 66.24 31.13 66.5899 30.86 66.93C30.807 66.9763 30.7584 67.027 30.7084 67.0792C30.6829 67.1059 30.657 67.1329 30.63 67.16C30.63 67.17 30.62 67.17 30.62 67.17C30.57 66.8099 30.52 66.4599 30.49 66.1C30.3915 63.9435 30.4935 61.7709 30.5948 59.6111V59.6067C30.6067 59.3542 30.6185 59.102 30.63 58.85C30.7067 57.3699 30.801 55.878 30.895 54.3925C30.9235 53.9409 30.952 53.4899 30.98 53.04C31.2863 48.5663 31.6357 44.0964 31.9852 39.6278L31.987 39.6053C32.2189 36.6398 32.4508 33.6749 32.67 30.71C32.7764 29.2772 32.8576 27.8393 32.9387 26.4036L32.9393 26.3935C32.9581 26.0609 32.9769 25.7284 32.9959 25.3962C33.0104 25.144 33.025 24.8919 33.04 24.64C33.1254 23.1963 33.1686 21.7466 33.2117 20.3002C33.2241 19.8831 33.2366 19.4663 33.25 19.05C33.29 17.92 33.32 16.79 33.32 15.65C33.31 14.18 33.29 12.73 33.2 11.27L33.1816 11.0008L33.1596 10.6726L33.1592 10.669C33.0857 9.5695 33.0123 8.47117 32.86 7.37999C32.54 5.14 32.17 2.70994 30.57 0.979961C29.86 0.209942 28.77 0.00999036 27.79 0.189983C27.34 0.279949 26.9 0.459942 26.54 0.739971C26.16 1.03996 25.86 1.43998 25.59 1.83C24.87 2.86998 24.41 4.09001 24.01 5.28001C23.59 6.53001 23.23 7.77995 22.92 9.04997C22.6 10.36 22.33 11.68 22.08 13L21.9806 13.5337C21.9521 13.6855 21.9235 13.8373 21.8949 13.9892L21.8715 14.1146L21.8647 14.151C21.5905 15.6081 21.3158 17.0677 21.11 18.54C21.0143 19.2226 20.9133 19.9053 20.8121 20.5884C20.6066 21.9764 20.4008 23.3659 20.24 24.76L19.43 31.57C19.3614 32.146 19.294 32.7223 19.2272 33.2988L18.8842 36.2949C18.6613 38.2541 18.4384 40.2135 18.2 42.17C18.1594 42.4986 18.1194 42.8272 18.0796 43.1557L18.0164 43.6785L18.0131 43.7065L18.0096 43.7351C17.8483 45.0724 17.687 46.4092 17.5 47.74L17.4303 48.2476C17.0541 50.9893 16.6769 53.7374 16.14 56.45C15.78 58.19 15.37 59.92 14.8 61.6C14.8 61.6 14.81 61.5899 14.81 61.58C14.75 61.77 14.68 61.97 14.61 62.16C14.63 62.0899 14.66 62.01 14.68 61.94C14.6 62.18 14.5099 62.42 14.42 62.65C14.42 62.57 14.41 62.48 14.4 62.39C14.24 60.02 14.24 57.64 14.33 55.26C14.355 54.5649 14.3826 53.8674 14.4101 53.1698L14.4777 51.4169L14.49 51.08C14.58 49.95 14.66 48.82 14.74 47.69C14.7571 47.4248 14.7731 47.1598 14.7891 46.8948L14.7892 46.8902L14.7896 46.8857L14.7898 46.8827C14.8386 46.0724 14.8874 45.2633 14.97 44.46L15.69 37.14C15.7802 36.1954 15.8771 35.2508 15.9766 34.3051C16.0866 33.2585 16.1996 32.2106 16.31 31.16C16.48 29.4999 16.62 27.8299 16.76 26.16L16.7932 25.7563C17.0325 22.8426 17.2704 19.945 17.28 17.02C17.28 14.29 17.17 11.5299 16.61 8.84996C16.37 7.67991 16.0599 6.48991 15.41 5.46995C14.89 4.65995 14.29 3.88993 13.41 3.42997C12.4999 2.94993 11.37 2.96 10.41 3.27C9.40997 3.59001 8.66998 4.39994 8.02002 5.19999C7.19 6.21995 6.53998 7.39 5.96997 8.58C5.43994 9.69999 4.97998 10.85 4.58002 12.02C4.02002 13.66 3.58002 15.33 3.21002 17.02C3.15753 17.2574 3.10382 17.4947 3.05011 17.7321C2.88879 18.4447 2.72748 19.1573 2.59997 19.87C1.91998 23.68 1.41003 27.5299 1.15002 31.39C1.12421 31.7309 1.10101 32.0744 1.07776 32.4193L1.05578 32.7442C1.04114 32.9593 1.02606 33.1746 1.01001 33.39V33.35C0.999999 33.41 0.999999 33.47 0.999999 33.53C0.989989 33.55 0.989989 33.57 0.989989 33.59C0.820006 36.21 0.789977 38.83 0.809996 41.45C0.849974 45.37 0.900023 49.29 1.08002 53.21C1.16998 55.25 1.31 57.2799 1.46002 59.32C1.53839 60.4053 1.64947 61.4869 1.76037 62.5672L1.76111 62.5745C1.83392 63.2834 1.90668 63.9917 1.96997 64.7C2.05994 65.66 3.03998 66.33 3.96997 66.21C4.95996 66.08 5.57995 65.1799 5.48999 64.2199C5.44598 63.7719 5.3988 63.324 5.35162 62.876C5.28082 62.204 5.21002 61.532 5.15002 60.86C5.04004 59.67 4.94995 58.49 4.85998 57.3V57.18C4.85516 57.1414 4.85266 57.1051 4.85022 57.0701C4.84765 57.0325 4.84521 56.9963 4.84003 56.96C4.58002 53.01 4.47003 49.04 4.40002 45.08C4.36005 43.15 4.35998 41.22 4.35998 39.29C4.35998 37.4299 4.42999 35.5799 4.52002 33.72C4.52002 33.6891 4.52264 33.6583 4.52521 33.6288C4.52765 33.6009 4.53003 33.5743 4.53003 33.55V33.52L4.58697 32.7529L4.60187 32.5467C4.62628 32.2053 4.64947 31.864 4.66998 31.52C4.79999 29.6 5.02002 27.69 5.26001 25.78C5.5 23.87 5.81 21.98 6.14001 20.09C6.33807 19.2287 6.52618 18.3673 6.71429 17.506L6.71576 17.499L6.71997 17.48C7.05994 15.9499 7.46997 14.44 7.97998 12.96C8.38995 11.83 8.83996 10.74 9.36999 9.66996C9.67999 9.08995 9.98999 8.52995 10.35 7.97996C10.5545 7.69017 10.7809 7.4149 11.0105 7.14177L11.13 6.99998L11.41 6.71995L11.4252 6.70805L11.4434 6.69322L11.4648 6.67509C11.4824 6.66001 11.4999 6.645 11.52 6.62999C11.51 6.63499 11.5025 6.64 11.495 6.645C11.4875 6.65 11.48 6.65495 11.47 6.65995L11.4831 6.65141L11.494 6.64457L11.5104 6.63462C11.5228 6.62724 11.5352 6.61985 11.55 6.60997L11.56 6.59996C11.57 6.59495 11.58 6.59245 11.59 6.58995C11.6 6.5875 11.61 6.585 11.62 6.58C11.66 6.58 11.71 6.56999 11.75 6.56999H11.86C11.8671 6.57713 11.8743 6.58427 11.8814 6.58781C11.8843 6.58921 11.8871 6.59001 11.89 6.59001L12.01 6.71C12.0595 6.77299 12.107 6.83403 12.1534 6.89482C12.2101 6.96904 12.265 7.04301 12.32 7.11998C12.3896 7.23143 12.4545 7.34288 12.5178 7.45439C12.5454 7.50291 12.5727 7.55143 12.6 7.59996C12.6729 7.76207 12.7459 7.9243 12.8082 8.08647C12.8228 8.12431 12.8367 8.16215 12.85 8.19999C13.0099 8.67997 13.12 9.16996 13.23 9.65995C13.44 10.7599 13.59 11.87 13.67 12.99C13.83 15.8 13.78 18.6 13.65 21.41L13.5757 22.3601C13.3515 25.2333 13.1273 28.1057 12.83 30.97C12.44 34.72 12.06 38.48 11.69 42.24C11.33 45.8999 11.06 49.5599 10.92 53.22C10.88 54.3799 10.83 55.54 10.79 56.7C10.74 57.7799 10.7599 58.87 10.79 59.96L10.7957 60.2015C10.8232 61.3768 10.8516 62.5903 11.02 63.76C11.0364 63.8674 11.0521 63.9767 11.0681 64.0873C11.2077 65.0571 11.3608 66.1208 12.07 66.83C12.69 67.44 13.61 67.81 14.48 67.69C15.53 67.55 16.24 66.67 16.79 65.85C17.42 64.91 17.8 63.87 18.17 62.81C19.38 59.25 20.04 55.5199 20.56 51.81C20.6411 51.2251 20.7257 50.6413 20.8102 50.058L20.8108 50.0541L20.8113 50.0505C20.9764 48.9108 21.1413 47.7726 21.28 46.63C21.77 42.61 22.25 38.5899 22.71 34.57C22.7869 33.8921 22.8625 33.2138 22.9382 32.5354L22.9452 32.4733L22.9478 32.4528C23.2529 29.7159 23.5583 26.9766 23.94 24.25L24.51 20.2C24.5504 19.9247 24.5853 19.6466 24.6204 19.3678L24.6211 19.3625C24.6813 18.8838 24.7418 18.4029 24.83 17.93C25.0211 16.8948 25.2122 15.8623 25.4033 14.8313L25.91 12.1C26.34 10.11 26.84 8.14994 27.48 6.21995C27.4734 6.23747 27.4673 6.25444 27.4615 6.2711L27.4482 6.30955L27.4475 6.31175C27.4324 6.35594 27.418 6.39799 27.4 6.43998C27.64 5.75999 27.9 5.09996 28.2 4.44999C28.28 4.29997 28.36 4.14994 28.45 3.99998C28.4717 4.03801 28.4905 4.07896 28.5095 4.11961C28.5255 4.15385 28.5417 4.18797 28.56 4.21995C28.63 4.34996 28.69 4.48997 28.74 4.62999C28.8697 5.00914 28.9595 5.39823 29.0493 5.7874L29.05 5.78996C29.35 7.33995 29.55 8.89 29.66 10.46C29.8199 12.97 29.87 15.49 29.79 18C29.74 19.68 29.68 21.36 29.63 23.04C29.5804 24.6842 29.4705 26.3284 29.3608 27.9691C29.3416 28.257 29.3224 28.5448 29.3035 28.8326C29.2781 29.2186 29.2534 29.6044 29.23 29.99C28.91 34.37 28.5699 38.73 28.23 43.1C27.91 47.1999 27.6 51.2999 27.34 55.41C27.22 57.41 27.12 59.4 27.02 61.4C26.98 62.39 26.99 63.39 26.98 64.38C26.97 65.17 26.97 65.9699 27.05 66.76C27.0565 66.8219 27.0629 66.8847 27.0694 66.948C27.1224 67.4679 27.1796 68.0286 27.34 68.51C27.5 68.99 27.69 69.3999 27.99 69.81C28.56 70.5899 29.58 71.14 30.56 71C31.53 70.85 32.46 70.4 33.16 69.71C34.05 68.83 34.8 67.74 35.37 66.63C35.95 65.51 36.49 64.37 36.94 63.19C37.44 61.8999 37.9 60.59 38.29 59.27L38.3574 59.0448C38.6558 58.0486 38.9568 57.0436 39.18 56.03C39.2144 55.875 39.2487 55.7198 39.2828 55.5644C39.3281 55.3578 39.3732 55.1509 39.4182 54.9439L39.5348 54.4059C39.6523 53.8631 39.77 53.3203 39.89 52.78C39.9401 52.556 39.9915 52.3327 40.0429 52.1097L40.0442 52.104C40.1873 51.4828 40.3298 50.8641 40.44 50.24C40.4921 49.9469 40.5433 49.6545 40.5943 49.3625C40.6364 49.1216 40.6782 48.8808 40.72 48.64C40.8125 48.1075 40.905 47.5749 41 47.04C41.32 45.24 41.62 43.44 41.89 41.63C42.45 37.91 42.96 34.19 43.47 30.46C43.5472 29.8876 43.6265 29.3132 43.7059 28.7378L43.7107 28.7032C43.8046 28.0231 43.8987 27.3415 43.99 26.66C44.0273 26.3915 44.0624 26.1219 44.0975 25.8519C44.1658 25.3274 44.2342 24.8016 44.32 24.28L44.4564 23.4355L44.4606 23.4092C44.7339 21.7168 45.0083 20.0184 45.29 18.32C45.5291 17.1446 45.7781 15.9791 46.0271 14.8137L46.03 14.8C46.4301 12.8899 46.92 11.0099 47.54 9.15995C47.9 8.14994 48.29 7.15995 48.75 6.18998C48.98 5.72996 49.23 5.27995 49.51 4.84996C49.5925 4.74144 49.6749 4.63292 49.7582 4.52525C49.8668 4.38481 49.9768 4.24577 50.09 4.10997C50.12 4.06993 50.15 4.03996 50.19 3.99998C50.28 4.13993 50.36 4.27995 50.44 4.42997L50.4409 4.43199C50.4906 4.5413 50.5403 4.65062 50.58 4.75999C50.6285 4.91618 50.6741 5.07237 50.7151 5.22862C50.7504 5.36241 50.7823 5.4962 50.81 5.62999C51.02 6.81999 51.18 8.01994 51.27 9.22996C51.43 11.86 51.47 14.52 51.32 17.15C51.25 18.24 51.175 19.3275 51.1 20.415C51.025 21.5025 50.95 22.5899 50.88 23.68V23.71L50.8038 24.4558C50.7708 24.7817 50.7382 25.108 50.7054 25.4343L50.7049 25.4389C50.5197 27.2886 50.334 29.143 50.09 30.98C49.9731 31.8753 49.8572 32.7707 49.7414 33.6661C49.5106 35.4507 49.2797 37.2354 49.04 39.02C49.0182 39.1845 48.9963 39.3491 48.9743 39.5138L48.7917 40.8672L48.7895 40.8855L48.7886 40.8918C48.6165 42.1616 48.4442 43.433 48.29 44.7C48.2234 45.2438 48.1537 45.7884 48.0839 46.3335L48.0828 46.3428C47.9016 47.7591 47.7198 49.18 47.59 50.6C47.5546 50.9765 47.5182 51.3531 47.4817 51.7297C47.3225 53.3734 47.1632 55.0184 47.09 56.67C47.03 57.8999 46.97 59.1399 46.92 60.37C46.87 61.41 46.89 62.4599 46.94 63.5C47 64.73 47.08 65.9599 47.33 67.17C47.55 68.2199 47.82 69.29 48.53 70.13C48.85 70.51 49.23 70.81 49.66 71.05C50.08 71.2799 50.54 71.35 51.01 71.36C51.56 71.37 52.17 71.1399 52.65 70.87C53.09 70.63 53.51 70.35 53.86 69.99C54.63 69.2099 55.28 68.28 55.81 67.33C57.12 64.96 58.09 62.3999 58.87 59.81C59.33 58.29 59.74 56.7699 60.09 55.22C60.1889 54.7807 60.2888 54.342 60.3887 53.9034C60.7233 52.435 61.0574 50.9684 61.35 49.49C61.4572 48.9482 61.566 48.4072 61.6749 47.8664L61.6753 47.8645C61.942 46.5393 62.2086 45.2147 62.45 43.88L62.6888 42.5625C62.8848 41.4767 63.0793 40.3903 63.2739 39.3038L63.2766 39.2882C63.7213 36.8047 64.1661 34.3205 64.63 31.84C65.01 29.83 65.38 27.8099 65.76 25.79C66.0082 24.4465 66.2831 23.1138 66.5574 21.784L66.5604 21.7695L66.5633 21.7552C66.6627 21.2732 66.7621 20.7916 66.86 20.31L66.8539 20.3351C67.0302 19.5116 67.2026 18.688 67.3806 17.8644C67.4494 17.5462 67.519 17.2281 67.59 16.91C67.4257 18.9858 67.2391 21.0579 67.0528 23.1263L67.0466 23.195L67.0407 23.2605C66.9996 23.7165 66.9586 24.1723 66.9178 24.6279C66.8438 25.4559 66.7708 26.2832 66.7 27.11C66.4125 30.4917 66.2038 33.8734 65.9951 37.2551L65.9945 37.263C65.9565 37.8786 65.9185 38.4943 65.88 39.11C65.6578 42.5757 65.5621 46.0414 65.4663 49.5072L65.4661 49.5121L65.43 50.81C65.3954 52.1323 65.4039 53.4546 65.4124 54.777L65.4171 55.5479C65.4188 55.8786 65.42 56.2093 65.42 56.54C65.42 58.8899 65.58 61.2699 65.86 63.6C66.02 64.9599 66.23 66.36 66.64 67.67C66.98 68.75 67.44 69.75 68.15 70.63ZM72.106 68.8967C72.0939 68.8979 72.082 68.899 72.07 68.9L72.0779 68.899L72.0959 68.8971L72.106 68.8967ZM72.106 68.8967C72.174 68.894 72.2419 68.889 72.31 68.88C72.27 68.885 72.23 68.8875 72.19 68.89C72.1714 68.8912 72.1529 68.8923 72.1343 68.8937L72.106 68.8967Z"
    fill="rgba(191, 192, 191, 1)" />
</svg>