<svg width="93" height="92" viewBox="0 0 93 92" fill="none" xmlns="http://www.w3.org/2000/svg">
  <path fill-rule="evenodd" clip-rule="evenodd"
    d="M91.7101 8.02351C91.765 8.26826 91.8251 8.51124 91.8839 8.75465C91.9348 8.96571 91.9849 9.17701 92.03 9.39003C92.14 9.93006 92.1701 10.47 92.1801 11.02C92.1836 11.1898 92.1602 11.3548 92.1141 11.5115C92.4948 11.8389 92.74 12.3217 92.74 12.85C92.74 12.99 92.72 13.14 92.6899 13.28C92.6405 14.6379 92.6712 15.9959 92.7019 17.3562C92.721 18.1997 92.74 19.0441 92.74 19.89C92.74 20.1437 92.7411 20.3974 92.7422 20.6507C92.7444 21.1563 92.7467 21.6604 92.74 22.16C92.7332 22.6588 92.6377 23.1577 92.5427 23.6533C92.4987 23.883 92.4548 24.112 92.4201 24.34C92.39 24.51 92.38 24.68 92.37 24.85C92.34 25.34 92.32 25.83 92.28 26.32C92.28 26.35 92.28 26.38 92.27 26.41C92.27 26.46 92.27 26.51 92.26 26.56V26.52C92.1799 27.6 92.0099 28.67 91.7 29.72C91.6699 29.8229 91.6409 29.9267 91.6117 30.0308C91.5048 30.4121 91.3971 30.7965 91.24 31.15C91.1461 31.3594 91.0471 31.5583 90.9316 31.7506C90.8871 31.8246 90.8401 31.8977 90.79 31.97C90.5942 32.2538 90.3316 32.4132 90.058 32.5792L90.04 32.59C89.9564 32.6538 89.8744 32.7175 89.7908 32.7793C89.6644 32.8727 89.5344 32.9617 89.39 33.04C89.1 33.19 88.7899 33.27 88.49 33.27C87.89 33.26 87.2999 32.96 86.97 32.4C86.9661 32.3934 86.962 32.3867 86.9583 32.38C86.837 32.3541 86.717 32.3251 86.6 32.29C86.4796 32.2551 86.3594 32.2156 86.2409 32.1699C86.1908 32.1506 86.1411 32.1303 86.0918 32.1086C85.9569 32.0493 85.8254 31.9807 85.7 31.9C85.6555 31.871 85.6118 31.8409 85.5686 31.81C85.3883 31.6811 85.2174 31.539 85.04 31.41C84.9613 31.3593 84.8822 31.3095 84.803 31.2601C84.7312 31.2153 84.6593 31.1708 84.5874 31.1264C84.2853 30.9398 83.9832 30.7532 83.6899 30.54C83.218 30.1976 82.8234 29.7697 82.4421 29.3353L82.47 29.37C82.4299 29.33 82.39 29.28 82.35 29.23C81.85 29.98 81.35 30.75 80.9399 31.55C80.4399 32.57 80.0499 33.64 79.61 34.68C79.22 35.61 78.84 36.55 78.46 37.49C78.3314 37.8114 78.2063 38.1346 78.0811 38.458C77.7777 39.2412 77.4739 40.0256 77.12 40.79C76.7595 41.5659 76.313 42.2927 75.8671 43.0185C75.744 43.2188 75.6211 43.4189 75.5 43.62C75.02 44.41 74.45 45.16 73.83 45.84C73.33 46.38 72.7301 46.84 72.0501 47.12C71.6801 47.27 71.3001 47.39 70.9201 47.52C70.99 47.49 71.0601 47.47 71.14 47.44C70.34 47.72 69.57 47.85 68.72 47.85H68.7156C68.2371 47.85 67.7586 47.85 67.29 47.83C66.63 47.8001 66.01 47.73 65.4 47.49C64.74 47.24 64.11 46.89 63.52 46.5C63.5 46.49 63.48 46.48 63.47 46.47C63.4299 46.45 63.4 46.4201 63.36 46.39C63.3445 46.3807 63.33 46.3715 63.3159 46.3622L63.3119 46.3596L63.2676 46.3302C63.2523 46.3201 63.2367 46.31 63.22 46.3C63.151 46.4666 63.0853 46.6365 63.0231 46.8078C63.0026 46.8641 62.9826 46.9205 62.9628 46.9769C62.938 47.0479 62.9137 47.119 62.89 47.19C62.8311 47.3623 62.7742 47.5366 62.7212 47.712C62.6574 47.9235 62.5993 48.1367 62.5501 48.35C62.5121 48.5482 62.4778 48.7473 62.4457 48.9466C62.3943 49.2659 62.3489 49.586 62.3035 49.9053C62.2728 50.1207 62.2422 50.3358 62.21 50.55C62.09 51.33 61.9401 52.11 61.76 52.89C61.6835 53.2418 61.6044 53.5936 61.5201 53.9428C61.4817 54.1022 61.4421 54.2611 61.4011 54.4192C61.3745 54.522 61.3473 54.6244 61.3195 54.7264C61.2999 54.7978 61.2802 54.869 61.26 54.94C61.2002 55.1666 61.1221 55.3876 61.0358 55.6056C60.9627 55.7904 60.8837 55.9729 60.8051 56.1546C60.7595 56.2599 60.7141 56.3649 60.6701 56.47C60.3401 57.25 60.01 58.03 59.6 58.77C59.1899 59.51 58.72 60.27 58.21 60.94C57.83 61.44 57.4201 61.88 56.9 62.23C56.53 62.47 56.15 62.66 55.73 62.8C55.14 63 54.51 63.15 53.89 63.23C53.48 63.28 53.0701 63.3 52.66 63.3C51.9401 63.29 51.22 63.22 50.52 63.08C50.313 63.0408 50.1058 63.0079 49.8988 62.975C49.5259 62.9157 49.153 62.8565 48.78 62.76C48.4501 62.6763 48.1244 62.5797 47.7991 62.4832L47.5837 62.4194C47.51 62.3977 47.4363 62.3762 47.3624 62.3549C47.1328 62.2888 46.9025 62.2257 46.6701 62.17C46.0801 62.07 45.48 61.99 44.88 61.94C43.9805 61.9085 43.0933 61.8582 42.2039 61.7795C42.1659 61.7962 42.1279 61.813 42.09 61.83C41.72 62.03 41.36 62.24 41.01 62.47C40.936 62.5238 40.8608 62.5776 40.7857 62.6322L40.7019 62.6936C40.6694 62.7175 40.6371 62.7416 40.6049 62.7659C40.5669 62.7947 40.5291 62.8238 40.4917 62.8534L40.4461 62.89C40.4136 62.9162 40.3816 62.9429 40.35 62.97L40.26 63.06C40.241 63.0835 40.2222 63.1071 40.2036 63.1309L40.1788 63.1629L40.1618 63.1851C40.1211 63.2381 40.0814 63.2916 40.0421 63.3455C40.0088 63.3912 39.9758 63.4373 39.9429 63.4833L39.9088 63.5308L39.9074 63.533L39.8442 63.621C39.823 63.6507 39.8016 63.6804 39.78 63.71C39.4501 64.24 39.1701 64.8 38.89 65.35C38.9301 65.28 38.96 65.21 39 65.15C38.75 65.66 38.52 66.18 38.32 66.71C37.84 68.15 37.45 69.63 37.08 71.1C36.78 72.29 36.3001 73.47 35.78 74.57L35.6138 74.9162L35.457 75.2409C35.3514 75.4591 35.2452 75.6774 35.1386 75.8948C35.0061 76.165 34.8731 76.434 34.74 76.7C34.4993 77.1903 34.2029 77.6329 33.9005 78.0845L33.79 78.25L33.7003 78.3811C33.2297 79.0693 32.7517 79.7683 32.15 80.37C31.6001 80.92 30.9099 81.34 30.21 81.67C29.7398 81.8876 29.1939 81.9689 28.6777 82.0457L28.6646 82.0477L28.6528 82.0495C28.5845 82.0596 28.517 82.0696 28.45 82.08C28.09 82.13 27.74 82.17 27.38 82.24C27.08 82.31 26.77 82.38 26.47 82.43C25.95 82.52 25.41 82.51 24.88 82.45C24.27 82.38 23.6801 82.15 23.1801 81.79C22.9338 81.6115 22.6991 81.4141 22.464 81.2164C22.3923 81.1561 22.3207 81.0959 22.2488 81.0361C22.1731 80.9733 22.0969 80.9111 22.02 80.85C21.9501 80.81 21.89 80.77 21.82 80.74C21.6499 80.69 21.4801 80.65 21.3001 80.61C21.2667 80.61 21.2405 80.6032 21.2095 80.5951L21.1899 80.59C20.84 80.59 20.49 80.59 20.15 80.61C20.1228 80.6145 20.095 80.6185 20.0668 80.6223L20.0192 80.6284L19.9772 80.6334C19.9092 80.6414 19.8396 80.6492 19.77 80.66C19.73 80.68 19.6901 80.7 19.65 80.71C19.2001 80.95 18.76 81.22 18.33 81.5C18.2799 81.54 18.2301 81.57 18.1801 81.61L18.13 81.66C18.12 81.67 18.11 81.68 18.1 81.7C18.08 81.74 18.0601 81.77 18.04 81.8C18.02 81.84 18.01 81.87 18 81.91C17.98 81.96 17.97 82.01 17.96 82.06C17.9399 82.19 17.9201 82.32 17.91 82.45C17.87 83.29 17.8701 84.16 17.9301 85C17.9695 85.5974 18.082 86.1904 18.1943 86.7821C18.2252 86.9448 18.2561 87.1076 18.2855 87.2702C18.312 87.4168 18.3372 87.5634 18.36 87.71C18.4399 88.21 18.5 88.71 18.5 89.21C18.5 89.64 18.5 90.08 18.33 90.48C18.11 91 17.65 91.41 17.1 91.55C17.0191 91.5715 16.9352 91.5873 16.8516 91.5972C16.7803 91.6057 16.7091 91.61 16.64 91.61C16.1701 91.61 15.71 91.4201 15.36 91.09C15.2882 91.0218 15.2241 90.9471 15.1649 90.8687C15.0698 90.7426 14.9874 90.607 14.9064 90.4735L14.88 90.43C14.7376 90.209 14.5903 89.9904 14.4431 89.7719L14.4351 89.76L14.2982 89.5565L14.2384 89.4674L14.168 89.3618C13.9147 89.402 13.6403 89.3509 13.4 89.24C12.7023 88.9092 12.3446 88.3034 12.1399 87.6228L12.135 87.6186C12.1165 87.6028 12.098 87.5866 12.08 87.57C11.8099 87.32 11.5701 87.03 11.29 86.77C10.88 86.4 10.53 85.97 10.22 85.52C10.0933 85.3339 9.96034 85.1525 9.82484 84.9728C9.74134 84.8621 9.65699 84.752 9.57252 84.6419C9.44752 84.479 9.3224 84.3158 9.19996 84.15C8.97596 83.8376 8.79359 83.5042 8.60987 83.1685C8.54713 83.0536 8.48414 82.9385 8.41932 82.8238C8.37782 82.7504 8.33558 82.6773 8.29212 82.6044L8.25514 82.5432C8.24024 82.5187 8.22523 82.4943 8.20997 82.47C8.19044 82.4434 8.17066 82.4171 8.1504 82.3909C8.13087 82.3657 8.11109 82.3406 8.09095 82.3156C8.03382 82.2445 7.97437 82.1741 7.91236 82.1021L7.84998 82.03L7.8169 81.9957L7.8158 81.9946C7.19788 81.3056 6.5868 80.6242 6.05006 79.86C5.49 79.07 4.93995 78.27 4.31995 77.52C4.06983 77.2477 3.81056 76.9815 3.55055 76.7146L3.36878 76.528C3.34266 76.5294 3.31641 76.53 3.29005 76.53C3.26002 76.57 3.22999 76.56 3.20997 76.56C0.750008 76.42 0.600106 73.19 0.540047 71.34C0.490121 69.58 0.720101 67.8 1.17005 66.1C1.56007 64.62 2.31007 63.12 3.52003 62.14C4.07008 61.69 4.66004 61.34 5.31007 61.05C6.06007 60.72 6.89002 60.54 7.68995 60.41C9.35999 60.13 11.1001 60.09 12.79 60.17C14.1101 60.23 15.4 60.45 16.6801 60.74C16.9158 60.7936 17.1503 60.8485 17.3844 60.9032L17.6989 60.9765C17.8201 61.0047 17.9413 61.0327 18.0626 61.0604C18.2579 61.1049 18.4535 61.1483 18.65 61.19C18.7023 61.1995 18.7523 61.2067 18.8023 61.2128C18.8254 61.2156 18.8485 61.2182 18.8718 61.2206C18.9039 61.2239 18.9365 61.2269 18.97 61.23H19.16C19.1631 61.2269 19.167 61.2239 19.1713 61.2206C19.1812 61.213 19.193 61.2039 19.2 61.19C19.204 61.19 19.208 61.1884 19.2114 61.1857C19.2164 61.1818 19.22 61.1759 19.22 61.17C19.23 61.16 19.24 61.15 19.24 61.14C19.26 61.1 19.28 61.07 19.3001 61.04C19.3232 60.9838 19.3475 60.9276 19.3717 60.8713C19.4208 60.7576 19.4699 60.6438 19.51 60.53C19.5586 60.3904 19.5999 60.2507 19.6359 60.1065C19.6592 60.0133 19.6803 59.9182 19.7 59.82C19.9706 58.369 20.0864 56.898 20.2022 55.4288L20.2025 55.4244C20.2278 55.1028 20.2531 54.7813 20.28 54.46C20.4701 52.27 20.8099 50.07 21.58 48C22.13 46.53 23.03 45.21 24.21 44.18C25.4 43.14 27.03 42.86 28.5501 43.02C29.5541 43.1221 30.5217 43.4703 31.4717 43.8121C31.6383 43.8721 31.8043 43.9318 31.97 43.99L32.4142 44.1454C32.8401 44.2941 33.27 44.4443 33.7 44.6C33.6576 44.5818 33.6152 44.5673 33.5706 44.552C33.5415 44.5421 33.5115 44.5318 33.48 44.52C33.7424 44.6068 34.0049 44.6956 34.2676 44.7844C35.3364 45.146 36.4103 45.5092 37.51 45.75C37.77 45.8 38.03 45.84 38.29 45.87C38.4801 45.87 38.6701 45.87 38.86 45.86C38.98 45.85 39.09 45.83 39.2 45.81L39.2025 45.8093C39.3217 45.7795 39.4409 45.7497 39.5501 45.71L39.6317 45.6764C39.6803 45.6566 39.7297 45.6364 39.7788 45.6152C39.8265 45.5946 39.874 45.573 39.9201 45.55C40.04 45.48 40.1701 45.41 40.29 45.34C40.39 45.27 40.48 45.2 40.57 45.13L40.78 44.92C40.8305 44.8579 40.8809 44.7958 40.9308 44.7337C41.0094 44.6358 41.0867 44.5379 41.16 44.44C41.27 44.26 41.38 44.07 41.48 43.89C41.5267 43.7856 41.5723 43.6812 41.617 43.5762C41.6332 43.5383 41.6492 43.5003 41.6652 43.4622C41.7277 43.3132 41.7888 43.1629 41.85 43.01C41.99 42.56 42.12 42.1199 42.22 41.66C42.4472 40.4879 42.5563 39.2944 42.665 38.1032C42.7048 37.6681 42.7446 37.2333 42.79 36.8C42.9201 35.51 43.15 34.26 43.39 32.99C43.65 31.65 44.0701 30.34 44.64 29.11C45.28 27.76 46.2001 26.46 47.64 25.91C49.0501 25.3699 50.4901 25.86 51.8001 26.43C51.8822 26.4655 51.9642 26.5014 52.0462 26.5377C52.1165 26.5688 52.1867 26.6002 52.2568 26.6317L52.5033 26.7429L52.6544 26.8114C53.2445 27.079 53.8358 27.3473 54.45 27.57C54.7496 27.6699 55.0591 27.7498 55.3685 27.8297L55.37 27.83C55.4288 27.8403 55.4869 27.8499 55.5447 27.859C55.709 27.8848 55.8695 27.9067 56.0298 27.9285L56.04 27.93H56.4201C56.4514 27.9277 56.4828 27.9251 56.5142 27.9219C56.5519 27.9182 56.5896 27.9138 56.6273 27.9091C56.6982 27.9003 56.7691 27.8901 56.84 27.88C57.07 27.83 57.3001 27.76 57.52 27.68C57.5546 27.6676 57.5889 27.6547 57.6231 27.6416C57.6567 27.6287 57.6902 27.6154 57.7235 27.6019C57.9016 27.5297 58.0758 27.4498 58.25 27.37C58.51 27.23 58.76 27.08 59 26.92C59.1901 26.79 59.3601 26.65 59.54 26.51C59.7401 26.33 59.9201 26.15 60.09 25.95C60.27 25.74 60.4299 25.53 60.59 25.3C60.82 24.93 61.04 24.56 61.24 24.17C61.6492 23.3045 61.9978 22.4141 62.3464 21.5236C62.6625 20.7165 62.9786 19.9092 63.34 19.12C63.8412 18.0291 64.4402 16.9871 65.1331 16.01C65.0615 15.9553 64.9906 15.8986 64.9201 15.84C64.62 15.59 64.33 15.31 64.04 15.05C64.0021 15.0175 63.9612 14.9849 63.919 14.9524C63.8833 14.9249 63.8467 14.8975 63.8101 14.87C63.29 14.54 62.7599 14.2501 62.21 13.96C61.9132 13.8228 61.6126 13.6933 61.3115 13.5656C60.9327 13.405 60.5532 13.2472 60.1801 13.08C59.61 12.83 59.1399 12.3701 58.97 11.76C58.7899 11.1101 59.0099 10.4201 59.48 9.94001C59.82 9.60005 60.2999 9.39997 60.74 9.21998C61.32 8.99 61.9199 8.8 62.51 8.59999C63.8682 8.1183 65.1826 7.5182 66.4978 6.91774C66.8483 6.75776 67.1987 6.59779 67.5501 6.44001C68.7116 5.91139 69.9263 5.55696 71.1438 5.20173C71.6768 5.04621 72.2102 4.89051 72.74 4.71998C73.4299 4.45002 74.09 4.16004 74.76 3.83003C75.139 3.63295 75.5155 3.43586 75.892 3.24C76.0335 3.16639 76.1749 3.09303 76.3165 3.01985C76.5438 2.90248 76.7715 2.78578 77 2.66999C77.86 2.22999 78.7799 1.81001 79.72 1.59999C81.5325 1.19172 83.3848 1.01149 85.2273 0.832225L85.25 0.830028C85.85 0.78004 86.45 0.740001 87.0501 0.789989C87.0637 0.810619 87.0822 0.826488 87.0989 0.840831L87.1007 0.84254C87.1077 0.848521 87.1144 0.854259 87.12 0.859996L87.1495 0.907848C87.2372 0.878368 87.3278 0.855052 87.4208 0.838451C87.5086 0.822826 87.5984 0.813182 87.6899 0.810008C88.0099 0.79005 88.33 0.900035 88.62 1.06001C88.7524 1.06886 88.885 1.08552 89.0243 1.10304L89.08 1.11C89.4899 1.18 89.8499 1.3 90.2 1.53999C90.57 1.81001 90.78 2.19001 90.91 2.61C90.9269 2.64027 90.9448 2.67054 90.9628 2.70082C90.9982 2.76057 91.0335 2.82032 91.0601 2.88002C91.3779 3.54225 91.4229 4.36048 91.4635 5.10047L91.4729 5.27204L91.48 5.39003C91.4949 5.64839 91.4999 5.90425 91.5049 6.15889V6.16072C91.51 6.41798 91.515 6.67402 91.53 6.93C91.541 7.04335 91.5559 7.15541 91.573 7.26661L91.7063 7.41597L91.71 7.41999L91.7101 8.02351ZM81.3917 25.2037C81.37 25.2116 81.3484 25.2199 81.3269 25.2285L81.3002 25.2393L81.2672 25.2532L81.3192 25.1245L81.3917 25.2037ZM80.1581 21.3169L80.1845 21.2912C80.1987 21.2777 80.2133 21.2643 80.228 21.2511C80.2395 21.2409 80.2512 21.2307 80.2631 21.2206C80.2753 21.2103 80.2876 21.2001 80.3001 21.19C80.65 20.91 81.07 20.81 81.51 20.81C82.21 20.81 82.83 21.2401 83.11 21.84C84.4299 23.2501 85.73 24.6901 87 26.14L87.0601 24.03C87.1 22.8901 87.1099 21.75 87.07 20.6C86.9959 19.8164 86.8684 19.0383 86.7411 18.2615C86.6281 17.5712 86.5151 16.8817 86.4399 16.19C86.2799 14.68 86.26 13.16 86.25 11.65C86.25 10.89 86.2699 10.13 86.24 9.37001C86.21 8.59004 86.1499 7.82002 86.1 7.05C86.0579 6.41181 86.0503 5.77851 86.0426 5.1432L86.0388 4.84114L86.0358 4.636C86.0342 4.53413 86.0324 4.43214 86.03 4.33003H85.9301C84.35 4.45002 82.7599 4.63008 81.2 4.90003C80.7999 4.99006 80.4199 5.10005 80.03 5.21003C79.5599 5.39003 79.09 5.60005 78.64 5.81001C78.2835 5.99134 77.9305 6.17628 77.5791 6.36048C77.349 6.48103 77.1195 6.60127 76.89 6.71998L76.7604 6.78596L76.6165 6.85975L76.4652 6.93757L76.4638 6.9383C75.8748 7.24147 75.2822 7.54646 74.6701 7.78004C73.7384 8.12855 72.7844 8.40516 71.829 8.6822C71.3588 8.81849 70.8883 8.95491 70.4201 9.09999C69.5006 9.44728 68.609 9.85493 67.7169 10.2628C67.2991 10.4539 66.881 10.645 66.46 10.83C65.9799 11.04 65.49 11.2401 65 11.44C65.0618 11.4757 65.1235 11.5119 65.1852 11.5486C65.3831 11.6666 65.5795 11.7904 65.77 11.92C66.2184 12.2161 66.6238 12.591 67.0227 12.9598L67.1411 13.0692L67.24 13.16C67.3099 13.23 67.3899 13.28 67.47 13.34C67.5396 13.3898 67.6093 13.4295 67.679 13.4692L67.6801 13.47C67.9301 13.58 68.1701 13.6801 68.4301 13.78C69.33 14.1201 69.73 15.24 69.37 16.1C69.2741 16.3237 69.14 16.5148 68.979 16.6708C68.9185 16.841 68.8294 17.0032 68.71 17.15C68.406 17.5166 68.134 17.8911 67.8512 18.2808L67.75 18.42C67.4 18.99 67.0801 19.56 66.76 20.15C66.36 21.03 65.98 21.91 65.63 22.81L65.6187 22.8397L65.6183 22.841C64.8721 24.7609 64.1227 26.6885 62.76 28.27C61.91 29.25 60.8501 30.05 59.6801 30.6C58.4301 31.19 57.0701 31.56 55.6701 31.45C54.2401 31.33 52.9 30.81 51.59 30.24C51.4566 30.1795 51.3236 30.1186 51.1908 30.0578L51.1875 30.0563L51.1531 30.0405C50.6615 29.8152 50.1718 29.5907 49.6701 29.39C49.5933 29.3645 49.5165 29.3406 49.4397 29.3187C49.3366 29.2892 49.2333 29.263 49.13 29.24C49.0901 29.24 49.04 29.23 49 29.22H48.99C48.96 29.22 48.9401 29.22 48.9201 29.23C48.8962 29.23 48.8788 29.2363 48.8577 29.2438L48.84 29.25C48.83 29.25 48.8201 29.25 48.8101 29.26L48.8026 29.2673C48.799 29.2705 48.7951 29.2734 48.7904 29.2756C48.7848 29.2783 48.7782 29.28 48.77 29.28L48.65 29.37L48.49 29.53C48.4301 29.6 48.3701 29.68 48.3101 29.76C48.1502 30.02 48 30.28 47.86 30.55C47.6901 30.92 47.54 31.29 47.4 31.67C47.2001 32.27 47.03 32.88 46.88 33.49C46.8599 33.5968 46.8392 33.7034 46.8185 33.8099L46.7778 34.0172C46.6774 34.5286 46.5772 35.0388 46.51 35.56C46.39 36.45 46.28 37.34 46.1899 38.24C46.1458 38.6627 46.1063 39.0879 46.0658 39.5131C46.0534 39.644 46.0408 39.775 46.028 39.9059C46.016 40.0269 46.0039 40.1478 45.9915 40.2686C45.9721 40.4561 45.9518 40.6433 45.9301 40.83C45.6801 42.9 45.0901 44.92 43.91 46.66C42.8301 48.25 40.9301 49.26 39.03 49.39C37.4243 49.4977 35.8857 49.0111 34.3674 48.5308L34.27 48.5C32.9641 48.0841 31.6719 47.6267 30.3764 47.168L30.342 47.1559L30.2406 47.12C30.0238 47.0433 29.807 46.9666 29.59 46.89C29.66 46.92 29.7301 46.94 29.8101 46.97C29.3901 46.83 28.9701 46.7 28.5501 46.6L28.4605 46.585C28.2526 46.5501 28.0499 46.5162 27.84 46.49H27.5501C27.4401 46.5 27.34 46.51 27.24 46.53C27.2097 46.5376 27.1795 46.5452 27.1487 46.5532L27.1066 46.5646C27.0692 46.575 27.0306 46.5864 26.99 46.6L26.78 46.69L26.7344 46.7155C26.7134 46.7272 26.6924 46.7391 26.6716 46.7513C26.6371 46.7715 26.6033 46.7922 26.5706 46.8143C26.5534 46.8258 26.5365 46.8377 26.52 46.85C26.4501 46.9 26.39 46.95 26.32 47C26.23 47.09 26.1301 47.18 26.0501 47.27C25.9769 47.3569 25.908 47.4438 25.8402 47.5316C25.7599 47.6359 25.6814 47.7415 25.6 47.85L25.5093 48.0024C25.4613 48.0828 25.4136 48.1627 25.3668 48.2426C25.2877 48.3776 25.2113 48.5125 25.14 48.65C24.99 48.96 24.86 49.28 24.74 49.6C24.5501 50.18 24.4 50.78 24.26 51.37C23.9529 52.953 23.8167 54.5534 23.6804 56.1547V56.1569C23.5859 57.266 23.4913 58.3754 23.34 59.48C23.25 60.19 23.1 60.91 22.87 61.58C22.6901 62.13 22.46 62.71 22.1 63.18C21.74 63.65 21.33 64 20.83 64.32C20.3099 64.64 19.72 64.71 19.13 64.74C18.4154 64.7802 17.6879 64.5947 16.989 64.4165L16.9876 64.4161C16.8164 64.3725 16.647 64.3293 16.48 64.29C16.0501 64.19 15.62 64.09 15.1899 64C14.4399 63.86 13.6901 63.75 12.9301 63.69C11.8901 63.64 10.86 63.65 9.81995 63.71C9.14002 63.76 8.45008 63.84 7.77003 63.97C7.51099 64.0347 7.25196 64.1061 6.99281 64.1893C6.93189 64.2089 6.87098 64.2291 6.81007 64.25L6.51002 64.37C6.43836 64.4079 6.36854 64.4476 6.29981 64.4883C6.20533 64.5443 6.11268 64.6021 6.02003 64.66C5.92005 64.73 5.81995 64.81 5.72999 64.89L5.69752 64.9219L5.62745 64.989C5.58753 65.0275 5.54737 65.0673 5.51002 65.11L5.50306 65.1195L5.48817 65.1397C5.46925 65.165 5.44947 65.1903 5.42957 65.2156C5.40223 65.2504 5.37489 65.2852 5.34998 65.32C5.29151 65.4157 5.23304 65.5143 5.17457 65.6142C5.12305 65.7022 5.07154 65.7911 5.02003 65.88L5.0193 65.8817C4.92957 66.0811 4.83985 66.2805 4.76002 66.48C4.60999 66.95 4.49 67.4201 4.38001 67.9C4.26002 68.56 4.17005 69.21 4.12 69.88C4.08009 70.59 4.08009 71.31 4.12 72.02C4.13368 72.1747 4.14942 72.3294 4.16724 72.4841C4.92787 72.6235 5.60072 73.2664 5.89002 74.04C6.14002 74.29 6.39002 74.54 6.62 74.8C7.03004 75.25 7.42005 75.73 7.80006 76.21C8.08729 76.5847 8.35548 76.9698 8.6233 77.3544C8.80409 77.614 8.98475 77.8734 9.17103 78.1292C9.37183 78.405 9.57911 78.6766 9.80006 78.94C9.86878 79.0158 9.93775 79.0912 10.0066 79.1665C10.2337 79.4146 10.4594 79.6614 10.6731 79.9169C10.8566 80.1361 11.0311 80.3618 11.1899 80.6C11.2633 80.7087 11.3309 80.8207 11.3955 80.9345C11.427 80.9899 11.4578 81.0457 11.4882 81.1018C11.5272 81.1741 11.5657 81.2467 11.6041 81.3195L11.6085 81.3275C11.6836 81.4692 11.7587 81.6112 11.8392 81.7506C11.9055 81.1223 12.0023 80.4976 12.13 79.88C12.4301 78.44 13 77.05 14.1899 76.14C15.3099 75.28 16.83 75.21 18.1899 75.3C18.96 75.35 19.73 75.42 20.5 75.55C21.29 75.68 22.0501 75.93 22.79 76.26C23.313 76.4871 23.8027 76.7756 24.2919 77.064C24.5137 77.1946 24.7354 77.3253 24.96 77.45C25.2 77.57 25.4399 77.6801 25.6899 77.78C25.7651 77.8069 25.8433 77.8309 25.9212 77.8519C25.9541 77.8608 25.9869 77.8693 26.0195 77.8771L25.9985 77.8731L25.9952 77.8724L25.989 77.8712C25.9564 77.8648 25.9232 77.8583 25.89 77.85C25.9537 77.8659 26.0183 77.8798 26.0834 77.892C26.0623 77.8872 26.041 77.8823 26.0195 77.8771C26.0492 77.8829 26.0781 77.8889 26.1056 77.8961L26.1135 77.8975C26.2429 77.9207 26.3735 77.9374 26.5 77.95H26.85C26.97 77.94 27.08 77.9201 27.1899 77.9C27.35 77.87 27.49 77.82 27.65 77.78C27.8001 77.72 27.9399 77.66 28.09 77.6C28.27 77.5 28.45 77.4 28.62 77.29C28.8001 77.17 28.97 77.03 29.14 76.89C29.39 76.66 29.64 76.41 29.87 76.16C30.22 75.76 30.5399 75.35 30.84 74.92C31.01 74.66 31.16 74.39 31.3101 74.11C31.41 73.88 31.5 73.66 31.59 73.43C31.74 72.95 31.87 72.47 31.98 71.98C32.1565 71.0328 32.2902 70.08 32.4238 69.1275C32.506 68.5415 32.5881 67.9557 32.6804 67.3714C32.7184 67.1306 32.7581 66.8901 32.8001 66.65C32.9301 65.88 33.14 65.14 33.39 64.4C33.64 63.66 33.9 62.92 34.24 62.22C34.86 60.92 35.5099 59.65 36.4399 58.53C37.0099 57.85 37.6699 57.27 38.46 56.86C39.36 56.38 40.4 56.21 41.41 56.25C42.5105 56.2996 43.6012 56.585 44.6625 56.8629L44.6899 56.87C45.1416 56.9888 45.5933 57.1042 46.0449 57.216C46.1956 57.2532 46.3462 57.2902 46.4968 57.3267C46.6545 57.3649 46.8123 57.4027 46.97 57.44C48.02 57.64 49.0601 57.7901 50.13 57.89C50.87 57.93 51.62 57.97 52.36 57.95C52.45 57.94 52.5375 57.9301 52.625 57.9201C52.7125 57.91 52.8001 57.9 52.89 57.89C52.9168 57.8829 52.9432 57.876 52.9695 57.8694L53.0513 57.8486C53.0931 57.838 53.1344 57.8272 53.1754 57.8157C53.2239 57.802 53.2719 57.7872 53.32 57.77C53.35 57.76 53.38 57.75 53.41 57.73C53.4193 57.7254 53.4284 57.7205 53.4373 57.7155L53.4603 57.7019C53.4722 57.6947 53.4838 57.6873 53.4954 57.6799C53.5227 57.6624 53.5501 57.645 53.58 57.63L53.6101 57.6078L53.6356 57.5896L53.6599 57.5721L53.6899 57.55L53.74 57.5L53.7605 57.472L53.7738 57.4544C53.7889 57.4346 53.8045 57.4148 53.8201 57.395C53.8475 57.36 53.875 57.325 53.9 57.29C54.0801 57.02 54.24 56.73 54.39 56.44C54.65 55.9 54.88 55.37 55.08 54.81C55.37 53.96 55.6201 53.11 55.8101 52.23C55.9501 51.49 56.04 50.74 56.11 49.99C56.15 49.27 56.1899 48.54 56.22 47.82C56.26 46.99 56.3201 46.18 56.51 45.37C56.71 44.47 57.0801 43.57 57.54 42.76L57.604 42.6481L57.6637 42.5427C57.9324 42.0679 58.2086 41.5802 58.59 41.19C59.25 40.53 60.0199 40.13 60.95 40.01C62.2356 39.8447 63.4623 40.4806 64.5913 41.0657L64.7351 41.1402L64.89 41.22C65.0027 41.2736 65.1154 41.3273 65.2284 41.3803C65.2838 41.4063 65.3392 41.4321 65.3948 41.4578C65.5137 41.5126 65.6332 41.5665 65.7537 41.6187C65.8909 41.6782 66.0294 41.7357 66.1701 41.79C66.2125 41.8041 66.255 41.8177 66.2975 41.8308C66.3661 41.8519 66.4347 41.8718 66.5033 41.8912C66.6322 41.9277 66.7611 41.9624 66.89 42C67.4401 42.11 67.99 42.18 68.5501 42.23C69 42.25 69.4501 42.27 69.91 42.25C70.0601 42.24 70.21 42.22 70.35 42.2C70.4399 42.18 70.53 42.16 70.61 42.13C70.6799 42.1 70.75 42.07 70.83 42.05C70.9099 42.01 70.99 41.96 71.07 41.91C71.1599 41.85 71.24 41.7901 71.32 41.71L71.53 41.5L71.5717 41.4484L71.6491 41.3506L71.7337 41.2426C71.7693 41.197 71.8051 41.1514 71.8412 41.1058C71.8639 41.0772 71.8868 41.0486 71.91 41.02C72.04 40.81 72.1701 40.59 72.29 40.36C72.9301 39 73.45 37.56 73.95 36.13C74.2999 35.01 74.6101 33.88 74.9201 32.75C75.2201 31.64 75.58 30.5401 75.95 29.45C76.34 28.31 76.75 27.18 77.1701 26.06C77.54 25.05 77.96 24.06 78.33 23.06C78.32 22.13 79.21 21.36 80.1 21.36L80.1159 21.3601C80.1296 21.3455 80.1437 21.3311 80.1581 21.3169Z"
    fill="rgba(191, 192, 191, 1)" />
</svg>