<svg width="73" height="68" viewBox="0 0 73 68" fill="none" xmlns="http://www.w3.org/2000/svg">
  <path fill-rule="evenodd" clip-rule="evenodd"
    d="M0.910046 44.03C0.449963 44.69 0.400036 45.54 0.910046 46.19C1.22999 46.62 1.77992 46.89 2.31996 46.88C2.53993 46.88 2.76991 46.84 2.97999 46.74C3.76075 46.3665 4.36879 45.7627 4.97511 45.1605C5.08314 45.0532 5.19117 44.9459 5.30006 44.84C5.58339 44.5666 5.86671 44.2908 6.15004 44.0149C6.43666 43.7357 6.72328 43.4566 7.01002 43.18C7.20326 42.9909 7.39796 42.8022 7.59352 42.6139C7.79164 42.423 7.99073 42.2325 8.1902 42.0422C8.42128 41.8218 8.65284 41.6017 8.88429 41.3818C9.19386 41.0876 9.50306 40.7938 9.81007 40.5C11.3938 38.9899 13.0285 37.5221 14.6593 36.0578L14.6615 36.0558L15.08 35.68C15.1799 35.59 15.28 35.51 15.38 35.42C21.5425 30.0764 27.7752 24.8226 34.0077 19.5688L34.0121 19.5653L34.0172 19.5609L34.03 19.55C35.3596 18.4279 36.698 17.3237 38.0454 16.212L38.0527 16.2057L38.2901 16.01C39.01 16.92 39.76 17.81 40.6 18.61C41.24 19.22 41.8999 19.8 42.58 20.37C43.0499 20.76 43.52 21.15 44.02 21.49C44.77 22 45.65 22.34 46.51 21.84C47.36 21.34 47.59 20.32 47.2 19.48V19.35L47.2051 19.2937L47.2095 19.2483L47.214 19.2055C47.2189 19.1596 47.2243 19.114 47.23 19.0685C47.2466 18.9364 47.2666 18.8049 47.2901 18.67C47.4201 18.11 47.59 17.55 47.77 17C48.12 16.06 48.5099 15.15 48.95 14.26C49.6477 12.8839 50.4301 11.5547 51.2877 10.2726C51.3158 10.234 51.3449 10.194 51.37 10.15L51.2877 10.2726C51.2745 10.2907 51.2611 10.3091 51.2489 10.3269C51.6862 9.68155 52.143 9.05579 52.6 8.42999C52.7702 8.19443 52.9511 7.9642 53.1321 7.73373L53.1332 7.73227C53.505 7.25876 53.8777 6.78424 54.16 6.26001C54.62 5.41 54.38 4.34 53.53 3.84C53.45 3.79001 53.37 3.75 53.28 3.72C53.3355 3.67014 53.3878 3.62027 53.4387 3.5704C53.4797 3.53027 53.5199 3.49014 53.5601 3.45001C53.87 3.10001 54.09 2.68002 54.08 2.20001C54.0599 1.25 53.48 0.519989 52.57 0.269989C52.4575 0.239349 52.34 0.221741 52.2212 0.211853C52.1603 0.206787 52.0991 0.203735 52.0381 0.202026C51.9851 0.200531 51.9323 0.200012 51.88 0.200012C51.76 0.20401 51.6416 0.204803 51.5234 0.205597C51.3463 0.206818 51.1699 0.208008 50.99 0.220001C50.35 0.26001 49.71 0.309998 49.07 0.399994C46.9099 0.709991 44.77 1.22 42.65 1.73001C40.84 2.17001 39.0299 2.60999 37.21 2.98999C36.9588 3.04379 36.7075 3.09561 36.4573 3.14722L36.4507 3.14859C36.1452 3.21158 35.8411 3.27429 35.5401 3.34C35.4273 3.36481 35.314 3.38913 35.2005 3.41348C34.3073 3.60504 33.3995 3.79977 32.61 4.26999C31.72 4.79999 31.25 5.75 31.39 6.78C31.51 7.70999 32.0401 8.42001 32.63 9.10001C33.0219 9.56311 33.4238 10.011 33.8252 10.4581L33.8296 10.463L33.834 10.4679C33.9931 10.6451 34.152 10.8221 34.3101 11C34.9401 11.72 35.5401 12.47 36.13 13.22C30.4299 17.96 24.77 22.75 19.12 27.54C16.26 29.97 13.4201 32.43 10.64 34.95C9.15004 36.3 7.67994 37.65 6.22999 39.04C5.5193 39.7157 4.81605 40.3989 4.1128 41.082L3.41456 41.7599C3.28602 41.8845 3.15736 42.0091 3.02858 42.1335C2.91005 42.248 2.79139 42.3624 2.6725 42.4767C2.44899 42.6917 2.22487 42.9062 2.00001 43.12C1.82997 43.18 1.66005 43.27 1.52003 43.4C1.30006 43.59 1.07997 43.79 0.910046 44.03ZM42.0659 12.9L42.1864 12.7999L43.1365 12.0077C45.2061 10.2821 47.2724 8.55933 49.37 6.85999C49.3464 6.89243 49.3229 6.92398 49.2996 6.9552L49.2715 6.99274C49.2255 7.05441 49.181 7.11548 49.14 7.17999C48.15 8.53 47.2499 9.95001 46.45 11.42C45.4999 13.18 44.6299 15.01 44.09 16.94C44.0846 16.9454 44.0792 16.9537 44.0755 16.9633L44.0729 16.9709L44.0712 16.9781C44.0703 16.982 44.07 16.986 44.07 16.99L43.9213 16.8603L43.84 16.79C43.22 16.22 42.62 15.62 42.0601 14.99C41.7101 14.59 41.37 14.17 41.0401 13.75C41.2561 13.5691 41.4722 13.3907 41.6882 13.2123C41.8141 13.1083 41.94 13.0044 42.0659 12.9ZM40.88 5.81C42.6699 5.37 44.48 4.93002 46.28 4.51001C46.4401 4.48001 46.6 4.45001 46.77 4.41C46.1795 4.89487 45.589 5.37973 45.0009 5.86459C44.8209 6.01288 44.6412 6.16116 44.4619 6.30945C44.2843 6.4563 44.1071 6.60315 43.9301 6.75C42.23 8.14999 40.5399 9.56 38.85 10.96C38.51 10.53 38.16 10.1 37.8101 9.67001C37.2101 8.94 36.59 8.25 35.96 7.54999C35.7899 7.35999 35.62 7.17001 35.46 6.97C36.1376 6.80405 36.8202 6.67154 37.5009 6.53943L37.5034 6.53897L37.5097 6.53778C37.6621 6.50818 37.8146 6.47858 37.9668 6.44861C38.1148 6.41953 38.2625 6.39011 38.41 6.35999C39.23 6.18997 40.0599 6.01001 40.88 5.81Z"
    fill="rgba(191, 192, 191, 1)" />
  <path
    d="M32.5401 56.24L32.52 56.26C32.5233 56.2534 32.5266 56.249 32.5296 56.2461C32.5309 56.2447 32.5322 56.2436 32.5335 56.2427C32.5374 56.24 32.5401 56.24 32.5401 56.24Z"
    fill="rgba(191, 192, 191, 1)" />
  <path
    d="M32.5401 56.24L32.5508 56.2294C32.5578 56.2226 32.564 56.2163 32.57 56.21C32.57 56.2 32.58 56.19 32.6 56.17C32.6 56.17 32.5971 56.1732 32.5944 56.1776C32.5983 56.1718 32.6041 56.1659 32.61 56.16C32.6035 56.1697 32.5971 56.1783 32.5903 56.1866C32.59 56.1881 32.59 56.1885 32.59 56.19C32.57 56.21 32.5601 56.23 32.5401 56.24Z"
    fill="rgba(191, 192, 191, 1)" />
  <path fill-rule="evenodd" clip-rule="evenodd"
    d="M19.7901 66.61C20.02 67 20.41 67.3 20.85 67.42C20.95 67.4467 21.0499 67.4644 21.1499 67.4822L21.1961 67.4905C21.2307 67.4967 21.2654 67.5031 21.3001 67.51C21.6101 67.51 21.9201 67.42 22.21 67.27C22.2453 67.2516 22.2811 67.2335 22.3174 67.2153L22.3629 67.1925C22.5696 67.0891 22.7841 66.982 22.96 66.83C23.47 66.96 24.0401 66.85 24.51 66.53C24.53 66.52 24.5401 66.51 24.5501 66.5C24.6498 66.4402 24.7503 66.3798 24.85 66.33C25.4201 66.06 26.01 65.84 26.61 65.62C27.36 65.36 28.1201 65.15 28.9 64.98C30.6439 64.6433 32.4102 64.4929 34.1795 64.3423C34.4596 64.3185 34.7399 64.2946 35.02 64.27C36.03 64.18 37.0401 64.1 38.0501 64.01C38.5701 63.98 39.1 63.96 39.62 63.98C39.7901 64 39.9601 64.02 40.12 64.05C40.1901 64.06 40.2501 64.08 40.3101 64.1C40.7802 64.3 41.21 64.35 41.72 64.24C42.3101 64.12 42.7901 63.57 42.95 63.01C43.1 62.48 42.9801 61.91 42.65 61.46C41.3701 59.75 40.1401 57.99 38.9301 56.23C38.7794 55.989 38.6264 55.7505 38.4732 55.5119L38.3865 55.3769C38.3364 55.299 38.2865 55.221 38.2367 55.1428C38.1641 55.0289 38.0918 54.9147 38.02 54.8C37.9629 54.7118 37.9046 54.6235 37.8458 54.5349L37.8411 54.5278L37.8363 54.5206C37.6718 54.2725 37.5054 54.0215 37.36 53.76C37.03 53.17 36.7001 52.57 36.37 51.98C36.97 51.34 37.59 50.69 38.22 50.07C39.65 48.65 41.0801 47.24 42.5601 45.87C42.8397 45.6118 43.119 45.3537 43.3981 45.0957L43.4109 45.0839L43.4321 45.0644C44.5687 44.0137 45.703 42.9655 46.85 41.93L46.865 41.9164C48.22 40.6909 49.575 39.4654 50.91 38.22C51.1426 38.0033 51.3759 37.7874 51.6095 37.5718C51.834 37.3646 52.0588 37.1577 52.2838 36.9508L52.2937 36.9418L52.3036 36.9327C53.318 35.9999 54.333 35.0664 55.32 34.1C56.1513 33.2886 56.9826 32.4796 57.8139 31.6707L58.8191 30.6923C59.3228 30.2021 59.8264 29.7115 60.33 29.22C61.2543 28.3163 62.1458 27.3845 63.0365 26.4535L63.0376 26.4522C63.4475 26.0237 63.8573 25.5954 64.27 25.17C65.4634 23.9408 66.6085 22.6875 67.7559 21.4317L67.7573 21.43L67.7603 21.4267L68.15 21C69.0729 19.9908 69.9649 18.9596 70.8582 17.9268L70.8838 17.8971C71.3275 17.3842 71.7716 16.871 72.22 16.36L72.3101 16.27C72.3533 16.2346 72.3949 16.1992 72.4351 16.1627C72.4971 16.1062 72.5554 16.0468 72.61 15.98C72.77 15.8 72.88 15.55 72.94 15.32C73.1699 14.56 72.8101 13.72 72.13 13.32C71.4401 12.91 70.5701 13.05 69.99 13.6C69.4787 14.083 69.0176 14.6367 68.5606 15.1857L68.5519 15.196C68.4811 15.2811 68.4103 15.3661 68.3395 15.4506C68.2268 15.5851 68.1139 15.7186 68 15.85C67.7644 16.1257 67.5264 16.3989 67.2883 16.6721C67.0514 16.9439 66.8145 17.2157 66.58 17.49C66.3014 17.7974 66.0216 18.1042 65.7412 18.4106C65.5549 18.6141 65.3684 18.8175 65.1818 19.0208L64.5098 19.7517L64.4995 19.763L63.9661 20.3432C63.7547 20.5734 63.5433 20.8036 63.3327 21.0337L63.08 21.31C62.6878 21.7342 62.2764 22.1519 61.8663 22.5685C61.764 22.6724 61.6619 22.7762 61.5601 22.88L58.77 25.76C57.8794 26.6788 56.9589 27.5677 56.0402 28.4548C55.6591 28.8228 55.2783 29.1906 54.9 29.56C52.3101 32.08 49.6901 34.56 47.02 36.99L46.246 37.6861L46.2438 37.6882C45.0031 38.8033 43.7647 39.9164 42.5401 41.05C42.1497 41.4103 41.7571 41.7684 41.3645 42.1265L41.3601 42.1304C40.3161 43.0829 39.272 44.0353 38.27 45.03C38.0502 45.2481 37.83 45.4659 37.6096 45.6837C36.6179 46.6642 35.6256 47.6454 34.66 48.66C34.6406 48.6132 34.6196 48.5664 34.5983 48.5197L34.5795 48.4786C34.5521 48.4191 34.5248 48.3595 34.5 48.3C34.11 47.39 33.7201 46.47 33.38 45.54C33.16 44.87 32.8001 44.29 32.11 44C31.46 43.72 30.7101 43.89 30.16 44.32C29.52 44.82 28.9 45.4 28.34 46C25.9301 48.57 24.1502 51.68 22.8101 54.92C22.7001 55.1896 22.5877 55.458 22.4754 55.726C22.271 56.2134 22.0672 56.6996 21.88 57.19C21.7066 57.6528 21.533 58.1122 21.3594 58.5722C21.2329 58.9074 21.1065 59.2428 20.98 59.58C20.9131 59.7575 20.8483 59.935 20.7844 60.1125L20.734 60.2536L20.6741 60.4226C20.627 60.5558 20.5803 60.6889 20.5336 60.822C20.4368 61.098 20.34 61.374 20.24 61.65C19.9401 62.48 19.69 63.32 19.45 64.16C19.33 64.58 19.28 65.05 19.34 65.48C19.4 65.88 19.5901 66.26 19.7901 66.61ZM28.1747 61.513C28.0398 61.5417 27.9049 61.5708 27.77 61.6C29.37 59.82 30.9601 58.05 32.52 56.25H32.51C32.9601 55.75 33.41 55.24 33.86 54.73C33.893 54.7857 33.9255 54.8418 33.9578 54.8982C34.0297 55.024 34.0999 55.151 34.1696 55.2773L34.1842 55.3035L34.1992 55.331L34.2011 55.3347C34.2409 55.4069 34.2804 55.4788 34.32 55.55C34.4607 55.7994 34.6106 56.0447 34.7651 56.2876C34.9357 56.5557 35.1119 56.8209 35.2877 57.0852C35.4506 57.3302 35.6129 57.5746 35.77 57.82C36.0498 58.2551 36.345 58.6786 36.6388 59.1002C36.733 59.2355 36.8272 59.3706 36.9207 59.5058C37.0045 59.627 37.0878 59.7484 37.1701 59.87C37.1963 59.9094 37.2229 59.9485 37.2498 59.9873C37.2937 60.0508 37.3381 60.1136 37.3826 60.1765L37.3855 60.1808L37.4353 60.2513C37.4909 60.3301 37.5462 60.4093 37.6 60.49C37.5158 60.4956 37.4308 60.502 37.3453 60.5088L37.1445 60.525C36.9922 60.5375 36.8399 60.55 36.69 60.56L35.3572 60.6735C34.863 60.7157 34.3701 60.7578 33.88 60.8L33.708 60.8153C33.5504 60.8292 33.3928 60.8428 33.2352 60.8564L33.0386 60.8733C31.647 60.9926 30.2532 61.112 28.88 61.37C28.6449 61.4145 28.4098 61.463 28.1747 61.513ZM24.6701 59.78C25.3901 57.87 26.1502 55.97 27.0601 54.12C27.6101 53.04 28.2101 52 28.89 50.98C29.3301 50.33 29.8101 49.7 30.3101 49.1C30.4685 48.9218 30.627 48.7533 30.7853 48.585L30.7901 48.58C31.15 49.44 31.5601 50.29 31.97 51.13C31.9827 51.1552 31.9946 51.1804 32.0064 51.2054L32.027 51.2503L32.0551 51.311C32.0726 51.3485 32.0906 51.385 32.11 51.42C31.4032 52.2042 30.6967 52.9884 29.9989 53.7817L30 53.78C29.7299 54.0797 29.4645 54.3842 29.2003 54.6899L28.9328 55.0005L28.9247 55.0099L28.9166 55.0192L28.9089 55.0283C28.7504 55.2124 28.5917 55.3965 28.4324 55.5798C27.1845 56.9827 25.9273 58.3766 24.6701 59.78Z"
    fill="rgba(191, 192, 191, 1)" />
</svg>