<svg width="83" height="74" viewBox="0 0 83 74" fill="none" xmlns="http://www.w3.org/2000/svg">
  <path
    d="M58.5705 10.5917C58.5673 10.5968 58.5636 10.6027 58.56 10.61C58.56 10.6155 58.5569 10.6211 58.5524 10.6267C58.5489 10.6311 58.5444 10.6356 58.54 10.64C58.56 10.61 58.57 10.59 58.58 10.57C58.58 10.5764 58.576 10.5827 58.5705 10.5917Z"
    fill="rgba(191, 192, 191, 1)" />
  <path fill-rule="evenodd" clip-rule="evenodd"
    d="M48.02 32.4399C47.85 32.1499 47.75 31.83 47.75 31.49C47.75 31.04 47.95 30.63 48.14 30.23C48.2916 29.9268 48.4374 29.6179 48.5818 29.312C48.6279 29.2142 48.6739 29.1168 48.72 29.02C49.1299 28.16 49.5499 27.2999 49.97 26.4399C50.7699 24.7999 51.64 23.1799 52.53 21.58C53.0051 20.7347 53.4778 19.8895 53.9504 19.0442C54.2279 18.548 54.5054 18.0518 54.7834 17.5555C54.6823 17.6206 54.5812 17.6856 54.48 17.75C53.56 18.3401 52.62 18.91 51.69 19.46C49.53 20.75 47.4 22.08 45.3 23.45C42.05 25.6699 38.87 27.97 35.73 30.34C32.79 32.5501 29.86 34.8001 27.04 37.16C25.6382 38.3268 24.2497 39.5067 22.8583 40.6891L22.8418 40.703C22.5215 40.9753 22.2009 41.2477 21.88 41.52L21.8567 41.5416C20.6646 42.6442 19.4825 43.7376 18.34 44.89C17.81 45.4301 17.27 45.9501 16.77 46.51C16.11 47.25 15.4599 47.99 14.81 48.73C14.8233 48.7167 14.8366 48.7028 14.8499 48.6882C14.8605 48.6766 14.8711 48.6648 14.8818 48.6526C14.9078 48.6227 14.9339 48.5914 14.96 48.5601C14.6103 49.017 14.2574 49.4739 13.9031 49.9308C13.7163 50.1718 13.529 50.4127 13.3417 50.6537L13.08 50.99C13.12 50.9301 13.17 50.8701 13.2 50.8001C12.5 51.8401 11.79 52.87 11.14 53.9399C11.0553 54.0805 10.9691 54.2201 10.8829 54.3599L10.881 54.3628L10.8717 54.3778C10.6359 54.7597 10.3998 55.1421 10.19 55.54C9.85997 56.16 9.52001 56.79 9.18999 57.4201C8.81407 58.2114 8.46745 59.0225 8.16966 59.8529C8.52208 60.0199 8.88219 60.1599 9.24999 60.3001C9.69994 60.4401 10.15 60.5701 10.61 60.6701C11.6399 60.87 12.6699 60.99 13.72 61.07H13.7233C16.2421 61.1899 18.7611 61.3099 21.28 61.16C22.53 61.0601 23.77 60.9 25.01 60.66C26.66 60.3201 28.2699 59.86 29.87 59.32L31.435 58.7219C31.9592 58.5212 32.4833 58.3207 33.01 58.12C33.3388 57.996 33.6599 57.8411 33.9805 57.6864L34.1008 57.6285C34.1664 57.5971 34.2319 57.5657 34.2975 57.5348C34.3882 57.4921 34.4789 57.4503 34.57 57.41C34.9009 57.2564 35.2319 57.1062 35.5648 56.9555L35.9618 56.7756L36.26 56.64L36.2902 56.6239L37.3559 56.0607C37.8406 55.8051 38.3253 55.5509 38.81 55.3001C39.2652 55.0604 39.7096 54.8065 40.152 54.549L40.5246 54.3312L40.5625 54.309C40.7215 54.2158 40.8805 54.1227 41.04 54.03C42.6799 53.0801 44.2699 52.0701 45.85 51.04C47.3799 49.98 48.8899 48.9 50.37 47.79C51.99 46.5601 53.5799 45.3001 55.17 44.02C57.5227 42.1456 59.8077 40.1791 62.0878 38.2167C62.7151 37.6768 63.3421 37.1372 63.97 36.6C64.4768 36.1648 64.9845 35.7302 65.4928 35.2959C65.9443 34.91 66.3963 34.5243 66.8483 34.1386C68.7986 32.4741 70.7505 30.8082 72.68 29.12L72.71 29.09C73.58 28.2999 74.4299 27.5 75.23 26.64C75.3966 26.4389 75.56 26.2377 75.72 26.0365C75.8385 25.8877 75.9551 25.7388 76.07 25.59C76.66 24.82 77.79 24.6801 78.55 25.27C79.3199 25.86 79.4599 26.99 78.87 27.75C78.24 28.57 77.57 29.36 76.83 30.09C76.16 30.75 75.47 31.38 74.76 31.99C73.787 32.8381 72.8097 33.6731 71.8309 34.5095C71.5751 34.728 71.3192 34.9467 71.0633 35.1657C70.8089 35.3833 70.5544 35.6013 70.3 35.82C69.144 36.8059 67.9895 37.7947 66.8348 38.7837L66.8183 38.798C64.9218 40.4222 63.0248 42.047 61.12 43.66C58.18 46.15 55.1799 48.5701 52.1 50.9C51.4499 51.39 50.8 51.87 50.14 52.33C49.8793 52.5131 49.6205 52.6991 49.3617 52.885C48.787 53.2981 48.213 53.7107 47.62 54.09C47.3116 54.2863 47.0041 54.4826 46.6969 54.6788L46.14 55.0349L46.1072 55.0558C45.6256 55.3639 45.144 55.672 44.66 55.98C44.163 56.298 43.6485 56.5941 43.1369 56.8886C42.8763 57.0386 42.6164 57.1881 42.36 57.34C41.6399 57.76 40.93 58.16 40.2 58.5501C40.048 58.6295 39.8962 58.7105 39.7446 58.7922C39.6127 58.8633 39.4809 58.9348 39.349 59.0064C38.7547 59.3291 38.1592 59.6525 37.55 59.9301C36.5199 60.4 35.48 60.87 34.45 61.34C34.2 61.46 33.9299 61.5501 33.66 61.64L31.68 62.39C27.6999 63.91 23.4299 64.75 19.16 64.75C19.0895 64.7625 19.0174 64.7698 18.9442 64.7741C18.9022 64.7765 18.8599 64.778 18.8174 64.7788C18.7711 64.7797 18.7246 64.7799 18.678 64.78H18.63L18.1878 64.773C15.8631 64.7365 13.5238 64.6997 11.22 64.38C9.98607 64.2087 8.77764 63.9233 7.63408 63.4805C7.64556 63.5678 7.65776 63.6547 7.66997 63.74C7.69542 63.8469 7.72344 63.9513 7.75408 64.0557C7.76805 64.1033 7.78258 64.151 7.79766 64.199C7.81444 64.2522 7.8319 64.3058 7.84996 64.36C7.91997 64.54 7.98998 64.7201 8.08 64.9C8.10735 64.9473 8.13408 64.9945 8.16081 65.0418C8.24156 65.1846 8.32231 65.3273 8.41997 65.47L8.80998 65.98L8.81383 65.984C9.02257 66.2026 9.23131 66.4213 9.45 66.62C9.71001 66.8401 9.96996 67.04 10.25 67.24C10.57 67.4401 10.8899 67.6301 11.23 67.8101C11.7699 68.0701 12.32 68.3001 12.88 68.51C13.88 68.8401 14.9 69.11 15.93 69.33C17.5199 69.65 19.14 69.87 20.76 69.99C21.97 70.0601 23.19 70.0801 24.4 70.02C25.74 69.91 27.06 69.72 28.37 69.46C29.98 69.12 31.57 68.7301 33.15 68.3001L33.5522 68.1926C34.8395 67.8493 36.1312 67.5046 37.39 67.07C37.382 67.0734 37.3739 67.0767 37.3657 67.0798C37.9965 66.8544 38.6315 66.6337 39.2638 66.4139L39.2994 66.4015L39.85 66.21C40.7099 65.86 41.5699 65.5201 42.42 65.1801C42.9634 64.9601 43.4902 64.7025 44.0164 64.4451C44.3035 64.3046 44.5905 64.1642 44.88 64.03C46.09 63.38 47.29 62.7301 48.46 62.03C49.3982 61.4656 50.3249 60.8778 51.2532 60.2889C51.4662 60.1538 51.6795 60.0186 51.8929 59.8836L52.12 59.74C52.89 59.22 53.65 58.71 54.42 58.2C54.4059 58.2094 54.3918 58.2192 54.3776 58.2295C57.9195 55.8125 61.15 53.0087 64.3682 50.2014C67.0179 47.8368 69.6285 45.4327 72.2 42.98C73.45 41.78 74.72 40.5901 76 39.4301C76.63 38.8601 77.26 38.29 77.88 37.71C78.49 37.13 79.06 36.5 79.62 35.87C80.26 35.15 81.47 35.2101 82.12 35.87C82.8299 36.5801 82.76 37.65 82.12 38.37C81.5 39.0701 80.87 39.75 80.19 40.39C79.53 41.01 78.85 41.62 78.18 42.23C77.0412 43.2645 75.9282 44.3248 74.8099 45.3901L74.8064 45.3934L74.7315 45.4649C74.4814 45.703 74.231 45.9415 73.98 46.1801C71.1 48.9301 68.1499 51.6 65.16 54.22C63.4599 55.71 61.75 57.1701 59.96 58.54C58.07 59.9901 56.11 61.3401 54.13 62.6701H54.14C52.13 64.03 50.04 65.2899 47.91 66.4399C47.7586 66.5214 47.6072 66.6055 47.4554 66.6898L47.4462 66.695C47.0794 66.8988 46.7096 67.1043 46.33 67.28C46.112 67.3827 45.894 67.4843 45.676 67.5855L45.3038 67.7579C44.9659 67.9144 44.6279 68.0709 44.29 68.23C43.86 68.4301 43.42 68.6101 42.97 68.79C42.8677 68.8313 42.7654 68.8729 42.6631 68.9148L42.4289 69.011C42.0719 69.1577 41.7143 69.3047 41.3543 69.4415C41.2199 69.4926 41.0851 69.5422 40.95 69.59C41.02 69.5601 41.09 69.54 41.17 69.51C40.9271 69.5949 40.6843 69.6803 40.4413 69.7658L40.39 69.7837L40.3856 69.7852L40.3832 69.7859C38.7847 70.3482 37.1821 70.9119 35.55 71.35L35.0387 71.4862C33.0304 72.0215 31.028 72.5552 29 72.97C27.7099 73.23 26.43 73.4301 25.12 73.54C24.39 73.6001 23.66 73.63 22.93 73.63C22.5172 73.6006 22.1078 73.5816 21.702 73.5626C21.4197 73.5496 21.139 73.5365 20.86 73.52C19.3514 73.4302 17.8627 73.2105 16.374 72.9907L16.37 72.99C15.37 72.85 14.3799 72.6 13.41 72.35C12.1399 72.01 10.9 71.5801 9.71996 71C8.66997 70.48 7.71996 69.8201 6.84996 69.04C5.93993 68.2301 5.26 67.2101 4.73998 66.12C4.02867 64.6333 3.92516 62.9945 4.15044 61.3908C2.46239 59.8975 1.25774 57.8375 0.90996 55.61C0.729967 54.48 0.849962 53.29 1.02001 52.1701C1.21996 50.87 1.53996 49.59 1.90996 48.33C2.67992 45.76 3.78996 43.3001 5.12999 40.99C6.08995 39.35 7.18999 37.78 8.40001 36.3101C8.62413 36.0365 8.84496 35.7577 9.06609 35.4784L9.06737 35.4766C9.51683 34.9088 9.9677 34.3392 10.45 33.8101C11.1728 33.0206 11.9048 32.231 12.6286 31.4501L12.74 31.33C13.1754 30.8556 13.629 30.4055 14.0866 29.9514L14.2818 29.7576C14.3479 29.6919 14.4139 29.6261 14.48 29.5601C17.22 26.8201 20.04 24.1701 23.01 21.6801C25.99 19.1901 29.0199 16.7599 32.23 14.57C32.5713 14.3388 32.9112 14.1022 33.2518 13.8651L33.2562 13.8618C33.8422 13.4541 34.4301 13.0451 35.03 12.66C35.3155 12.4832 35.6 12.3045 35.8841 12.1246C36.1645 11.9471 36.4448 11.7685 36.7251 11.5898L37.3334 11.2027L37.4975 11.0986C37.5915 11.039 37.6857 10.9794 37.78 10.92C39.2051 10.0131 40.6901 9.1919 42.1637 8.37702L42.1681 8.37464L42.52 8.18C42.9697 7.93134 43.4194 7.68409 43.8691 7.43745C44.2701 7.21754 44.6711 6.99818 45.0721 6.77882L45.089 6.76966C45.9326 6.30811 46.7763 5.8465 47.62 5.38001C48.1994 5.06037 48.7788 4.73182 49.3582 4.40321L49.6693 4.22681C49.8209 4.14094 49.9725 4.05518 50.1241 3.96967C49.8219 4.02277 49.5206 4.0799 49.22 4.14002C47.9186 4.41773 46.6173 4.71436 45.321 5.00983L45.3075 5.01295C44.9746 5.08881 44.6421 5.16462 44.31 5.24C43.4786 5.43189 42.6371 5.59846 41.7963 5.76496C41.5874 5.80634 41.3786 5.84766 41.1699 5.88935C41.0365 5.91602 40.9032 5.94288 40.77 5.96998H40.78C39.89 6.14997 38.9999 6.33003 38.11 6.52003C36.3849 6.87598 34.6848 7.3736 32.9945 7.86836L32.51 8.01002C31.93 8.21003 31.35 8.41004 30.76 8.62L30.52 8.71003C30.15 9.00007 29.67 9.15003 29.17 9.09003C28.85 9.05006 28.5799 8.90998 28.32 8.72999C27.4499 8.13001 27.44 6.79005 28.15 6.08003C28.6 5.63001 29.19 5.41004 29.78 5.21003C30.0239 5.12873 30.2678 5.0445 30.5101 4.96052L30.7494 4.87751C30.8736 4.83454 30.9972 4.79188 31.12 4.75001C31.6497 4.56605 32.1902 4.40925 32.7337 4.2516C32.9289 4.19495 33.1244 4.13819 33.32 4.08003C34.68 3.68006 36.07 3.33003 37.46 3.03999H37.43C38.3299 2.85999 39.23 2.66999 40.14 2.49C40.13 2.49 40.12 2.49 40.12 2.50001C42.05 2.10004 43.9599 1.69001 45.88 1.26002C47.86 0.810006 49.84 0.370003 51.86 0.169991C53.11 0.0499959 54.38 0.0700154 55.63 0.239998C56.3146 0.336556 56.9915 0.487008 57.6675 0.637337L57.95 0.70002L58.1909 0.753975L58.1922 0.754342C58.8231 0.895333 59.4584 1.03724 60.07 1.25001C60.6 1.43 61.11 1.64002 61.59 1.95002C62.07 2.26002 62.4599 2.65998 62.8 3.10999C63.42 3.91999 63.6 4.97999 63.66 5.96998C63.6999 6.53999 63.59 7.13001 63.47 7.66999C63.3099 8.38001 63.1 9.07001 62.85 9.76002C62.2238 11.4515 61.3445 13.0469 60.473 14.6279L60.4719 14.6298L60.29 14.96C60.1683 15.1823 60.0466 15.4053 59.9246 15.6285C59.5858 16.2492 59.2456 16.8723 58.9 17.49L58.5048 18.1914C56.6761 21.4365 54.8481 24.6803 53.16 28.01C52.85 28.64 52.54 29.27 52.24 29.9C52.1321 30.1262 52.0193 30.3524 51.9064 30.5791C51.7603 30.8723 51.6138 31.1661 51.4771 31.4617C51.4158 31.5941 51.3565 31.7268 51.3 31.86C51.2099 32.36 50.92 32.8099 50.46 33.09C50.18 33.25 49.88 33.32 49.57 33.32C48.94 33.3099 48.33 33 48.02 32.4399ZM55.38 12.98C56.1729 12.4775 57.0583 11.9628 57.9925 11.7454C58.1292 11.4861 58.2646 11.2262 58.3986 10.9655C58.45 10.8655 58.5011 10.7654 58.5521 10.6653C58.5513 10.6677 58.5508 10.6703 58.5504 10.673C58.5501 10.6752 58.55 10.6776 58.55 10.68C58.5533 10.6699 58.5567 10.661 58.5604 10.6528C58.5678 10.6366 58.5767 10.6233 58.59 10.61L58.62 10.55C59.0099 9.74 59.38 8.93006 59.69 8.09003C59.8199 7.68006 59.93 7.27003 60.03 6.85999C60.0453 6.77222 60.0591 6.68592 60.0714 6.59992C60.0914 6.46064 60.1076 6.32227 60.12 6.18V5.89002C60.1152 5.84235 60.1105 5.79469 60.1046 5.74812C60.0982 5.69697 60.0904 5.6471 60.08 5.59998C60.06 5.52003 60.04 5.44001 60.03 5.37C60.01 5.32002 59.9899 5.27003 59.97 5.22999C59.9661 5.22614 59.9637 5.22236 59.9617 5.21906C59.9585 5.21381 59.9562 5.21003 59.95 5.21003L59.86 5.09003L59.77 5.00001L59.65 4.90998C59.62 4.89002 59.6 4.88001 59.58 4.85999C59.514 4.82862 59.4471 4.79823 59.3794 4.76881C59.2318 4.70448 59.0809 4.64491 58.93 4.59003C58.2203 4.35883 57.4916 4.20387 56.7641 4.04914L56.5723 4.00831L56.436 3.97913C56.3294 4.80976 55.6259 5.4748 54.77 5.53004C54.76 5.53004 54.74 5.52998 54.73 5.53999C54.7282 5.54176 54.7261 5.54322 54.7237 5.5445C54.7219 5.54554 54.7198 5.54646 54.7176 5.54725C54.7139 5.54859 54.7099 5.54975 54.7056 5.55097C54.6976 5.55317 54.6888 5.55561 54.68 5.56001C54.568 5.60358 54.4521 5.65095 54.3373 5.69984C54.2674 5.72956 54.198 5.75977 54.13 5.78999C53.2214 6.26014 52.337 6.7707 51.4538 7.28065C50.9469 7.57325 50.4404 7.86561 49.93 8.15003C49.18 8.56507 48.43 8.97254 47.68 9.38001C46.93 9.78748 46.18 10.195 45.43 10.61C43.92 11.45 42.41 12.29 40.92 13.16C39.9838 13.7029 39.0705 14.2824 38.1584 14.8612L38.1546 14.8638L38.1468 14.8685C37.7184 15.1405 37.2901 15.4124 36.86 15.6801C35.84 16.37 34.8 17.04 33.8 17.77C33.22 18.2001 32.6299 18.62 32.05 19.04C31.8747 19.1688 31.6969 19.2951 31.5188 19.4214C31.3073 19.5714 31.0954 19.7218 30.8869 19.8771C30.8411 19.9113 30.7953 19.9457 30.7497 19.9804C30.6894 20.0264 30.6295 20.0729 30.57 20.12C30.1026 20.4868 29.6334 20.8538 29.1631 21.2214C28.5566 21.6957 27.9483 22.1713 27.34 22.65C26.5875 23.2463 25.855 23.8729 25.1249 24.4976C24.9675 24.6323 24.8102 24.767 24.6528 24.9011C24.5119 25.0211 24.3711 25.1409 24.23 25.26C24.0281 25.4407 23.8257 25.6209 23.6231 25.8009L23.1028 26.2626C22.5245 26.7755 21.9454 27.2892 21.37 27.8101C20.6626 28.4459 19.9757 29.1123 19.2909 29.7766C19.0173 30.0421 18.7441 30.3073 18.47 30.57C16.59 32.37 14.8099 34.2799 13.05 36.1899C12.53 36.82 12.01 37.46 11.5 38.09C10.69 39.07 9.92998 40.09 9.21001 41.14C8.46001 42.28 7.77001 43.47 7.15001 44.6899C6.58 45.85 6.09001 47.0501 5.65001 48.26C5.28002 49.36 4.96996 50.47 4.71996 51.6C4.57994 52.3099 4.47002 53.02 4.40001 53.74C4.37999 54.13 4.37999 54.52 4.40001 54.9C4.40233 54.9321 4.40514 54.9641 4.40837 54.9962C4.41185 55.0313 4.41588 55.0663 4.42021 55.1013L4.42662 55.1515L4.43382 55.205C4.43907 55.2433 4.44451 55.2816 4.45 55.32C4.48046 55.4468 4.51091 55.5685 4.54393 55.6903C4.57604 55.8086 4.61058 55.9269 4.65001 56.0501C4.72997 56.26 4.81993 56.4801 4.91997 56.6801C5.03996 56.9 5.16997 57.11 5.29997 57.32L5.32616 57.3567C5.80187 56.2396 6.36589 55.1672 6.93999 54.09C7.78362 52.5116 8.77532 51.032 9.76586 49.5541L10.07 49.1C10.478 48.4988 10.9269 47.9334 11.3765 47.3672C11.555 47.1423 11.7337 46.9174 11.91 46.6899C12.3255 46.1616 12.7759 45.6581 13.2261 45.1549L13.2281 45.1527C13.4162 44.9424 13.6044 44.7321 13.79 44.52C14.9499 43.2101 16.18 41.9501 17.47 40.76C17.6559 40.5891 17.8412 40.4165 18.0264 40.2432L18.2132 40.0682C18.7034 39.609 19.1951 39.1484 19.7 38.71C19.9687 38.4791 20.2385 38.2483 20.5087 38.0172L20.5187 38.0088C21.0995 37.5117 21.6821 37.0131 22.26 36.51C23.6991 35.2666 25.1766 34.0808 26.6643 32.887L26.76 32.8101C29.71 30.4201 32.72 28.1 35.78 25.85C37.43 24.64 39.09 23.4501 40.76 22.27C42.3577 21.1416 43.9953 20.073 45.633 19.0044L45.64 19C46.601 18.3722 47.5907 17.7813 48.5802 17.1904C49.1352 16.859 49.6902 16.5277 50.24 16.1899C51.4895 15.4199 52.7338 14.6394 53.9766 13.8597C54.4446 13.5662 54.9123 13.2727 55.38 12.98Z"
    fill="rgba(191, 192, 191, 1)" />
</svg>