<svg width="72" height="68" viewBox="0 0 72 68" fill="none" xmlns="http://www.w3.org/2000/svg">
  <path
    d="M21.85 67.2C19.6299 67.15 17.4 66.86 15.22 66.41C12.74 65.9 10.35 65.02 8.29998 63.51C6.32 62.06 4.77996 60.06 3.59997 57.93C2.29998 55.59 1.42999 53.02 0.830012 50.41C0.220027 47.77 -0.0100148 45.05 0.11999 42.34C0.209956 40.47 0.469966 38.62 0.799983 36.78C1.09997 35.07 1.44 33.39 1.96002 31.73C2.73999 29.27 3.85998 26.93 5.14001 24.69C6.46002 22.36 8.03997 20.21 9.82 18.21C11.52 16.3 13.52 14.71 15.75 13.46C18.06 12.17 20.63 11.28 23.27 11.05C25.85 10.82 28.46 11.34 30.88 12.21C33.43 13.13 35.89 14.4 38.07 16.01C40.12 17.53 41.78 19.5 42.99 21.75C44.16 23.93 44.8 26.39 44.56 28.87C44.33 31.26 43.39 33.5 42.21 35.57C41.03 37.66 39.53 39.59 37.72 41.17C35.9499 42.71 33.61 43.57 31.28 43.72C29.09 43.86 26.75 43.38 25.05 41.92C24.3 41.28 23.74 40.46 23.34 39.55C22.88 38.48 22.75 37.28 22.75 36.13C22.75 34.95 22.9499 33.77 23.22 32.62C23.49 31.44 23.92 30.28 24.48 29.21C25.02 28.19 25.66 27.26 26.45 26.42C27.15 25.68 28.1 25.04 29.11 24.86C30.09 24.68 30.99 24.91 31.8 25.49C32.37 25.9 32.8 26.63 32.8 27.35C32.8 28.31 32 29.12 31.03 29.12C30.46 29.12 29.94 28.84 29.62 28.41L29.6191 28.4106C29.6061 28.4192 29.5931 28.4279 29.5802 28.4357C29.5635 28.4457 29.5467 28.4544 29.53 28.46L29.478 28.4981C29.3474 28.5936 29.2237 28.684 29.1 28.79C28.99 28.89 28.8899 28.99 28.79 29.11C28.58 29.36 28.38 29.61 28.19 29.88C27.98 30.21 27.78 30.55 27.59 30.9C27.38 31.34 27.19 31.79 27.02 32.25C26.82 32.84 26.66 33.44 26.53 34.05C26.43 34.58 26.35 35.11 26.31 35.65C26.29 36.02 26.29 36.39 26.31 36.76C26.33 36.99 26.36 37.21 26.4 37.44C26.45 37.67 26.51 37.89 26.58 38.11C26.6 38.1649 26.6225 38.2174 26.645 38.2699L26.6616 38.3089C26.6688 38.3257 26.6758 38.3426 26.6827 38.3595L26.6915 38.3812C26.6979 38.3973 26.704 38.4135 26.71 38.43C26.76 38.53 26.82 38.63 26.88 38.72C26.9208 38.7784 26.9651 38.8367 27.0107 38.8951C27.0433 38.9367 27.0767 38.9783 27.11 39.02C27.19 39.11 27.27 39.19 27.36 39.27C27.3721 39.2803 27.3841 39.2904 27.3962 39.3002L27.4263 39.3245L27.4653 39.3553L27.4665 39.3563C27.501 39.3834 27.5355 39.4105 27.57 39.44C27.6154 39.4672 27.6607 39.4944 27.7064 39.5217C27.7549 39.5506 27.8038 39.5796 27.8533 39.6086C27.9112 39.6424 27.9699 39.6762 28.03 39.71C28.22 39.8 28.41 39.87 28.6 39.94C28.81 40 29.02 40.06 29.22 40.11C29.53 40.16 29.83 40.2 30.14 40.23C30.46 40.24 30.77 40.24 31.09 40.22C31.46 40.19 31.82 40.13 32.18 40.07C32.51 40 32.82 39.91 33.14 39.81C33.43 39.7 33.71 39.58 33.99 39.45C34.3 39.29 34.6 39.11 34.89 38.91C35.16 38.71 35.41 38.51 35.66 38.3C36.06 37.92 36.44 37.53 36.81 37.13C37.31 36.56 37.76 35.95 38.19 35.33C38.74 34.51 39.26 33.66 39.71 32.77C40 32.16 40.27 31.55 40.5 30.92C40.66 30.4 40.81 29.87 40.93 29.34C40.98 29.05 41.02 28.76 41.05 28.47C41.07 28.06 41.07 27.65 41.05 27.24C41.02 26.92 40.98 26.59 40.93 26.26C40.85 25.93 40.77 25.6 40.66 25.28C40.47 24.75 40.25 24.24 40.02 23.73C39.73 23.18 39.42 22.65 39.08 22.13C38.74 21.65 38.38 21.18 38 20.73C37.64 20.34 37.27 19.96 36.88 19.61C36.32 19.14 35.74 18.69 35.13 18.28C34.27 17.73 33.3799 17.22 32.47 16.75C31.5099 16.28 30.53 15.86 29.53 15.5C28.77 15.25 28 15.03 27.23 14.86C26.59 14.74 25.94 14.64 25.3 14.58C24.77 14.55 24.24 14.55 23.71 14.58C23.19 14.63 22.69 14.7 22.18 14.78C21.54 14.92 20.92 15.1 20.3 15.3C19.5 15.59 18.73 15.92 17.97 16.3C17.9949 16.29 18.0199 16.2775 18.0449 16.265C18.0699 16.2525 18.095 16.24 18.12 16.23C17.41 16.6 16.72 17 16.05 17.44C15.4198 17.8792 14.8079 18.3458 14.2229 18.8484C13.5262 19.4785 12.8702 20.1417 12.2399 20.838L12.28 20.79C12.245 20.8298 12.2102 20.8696 12.1753 20.9095L12.2399 20.838L12.2095 20.8737C12.1868 20.8998 12.1642 20.925 12.1416 20.9482C11.2771 21.9416 10.4639 22.9772 9.71698 24.0629C9.7293 24.0428 9.74066 24.0218 9.75 24C8.794 25.414 7.93725 26.8974 7.15002 28.4206L7.14001 28.44C7.14001 28.44 7.13 28.45 7.13 28.46V28.47C6.52001 29.71 5.97003 30.97 5.52001 32.27C5.15002 33.38 4.86999 34.49 4.60998 35.63L4.60028 35.6831C4.23352 37.6953 3.86853 39.698 3.70001 41.74C3.60998 43.02 3.59997 44.29 3.66998 45.56C3.75994 46.74 3.92004 47.91 4.15002 49.08L4.1419 49.0481C4.42535 50.3693 4.78179 51.6637 5.21997 52.94C5.57995 53.93 5.98999 54.89 6.46002 55.83C6.45092 55.8087 6.44091 55.7875 6.43048 55.7662C6.42382 55.7526 6.41699 55.7389 6.41015 55.7253C6.39257 55.6902 6.375 55.6551 6.35998 55.62C6.71997 56.32 7.10998 56.99 7.53997 57.64C7.88995 58.14 8.26 58.61 8.65002 59.07C8.98999 59.44 9.34002 59.79 9.70001 60.12C10.09 60.46 10.5 60.78 10.93 61.07C11.27 61.28 11.61 61.48 11.97 61.67C12.4499 61.9 12.95 62.11 13.45 62.3C14.38 62.61 15.34 62.85 16.31 63.06C17.81 63.34 19.32 63.52 20.83 63.64H20.86C20.88 63.64 20.91 63.64 20.93 63.65H20.96C22.8 63.76 24.66 63.78 26.5 63.68H26.66C27.96 63.58 29.25 63.41 30.53 63.16C31.29 63 32.04 62.8 32.78 62.56C33.23 62.4 33.67 62.22 34.1 62.01C34.48 61.81 34.85 61.6 35.21 61.37C35.77 60.98 36.3 60.54 36.81 60.09C37.6248 59.3665 38.399 58.5909 39.1724 57.8161L39.1808 57.8077L39.1885 57.8001L39.196 57.7926C39.4304 57.5578 39.6646 57.323 39.9 57.09C40.67 56.34 41.42 55.55 42.13 54.75C42.79 53.98 43.42 53.18 43.99 52.34C44.46 51.62 44.89 50.87 45.28 50.1V50.09C45.28 50.09 45.29 50.08 45.29 50.07C45.3 50.045 45.3125 50.02 45.325 49.9949C45.3375 49.9699 45.35 49.945 45.36 49.92C45.3523 49.9354 45.3447 49.9492 45.337 49.9627C45.3246 49.9845 45.3123 50.0053 45.3 50.03C46.0206 48.5216 46.6149 46.95 47.2064 45.3858L47.2179 45.3554L47.2498 45.2711C47.304 45.1278 47.3581 44.9845 47.4124 44.8413L47.4875 44.6438L47.55 44.48C48.07 43.13 48.57 41.78 49.05 40.43C50.21 36.73 51.28 33.01 52.21 29.25C53.12 25.58 54.22 21.97 55.44 18.4C55.6038 17.9156 55.8032 17.4364 56.0019 16.9586C56.0513 16.8398 56.1006 16.7211 56.1494 16.6024C56.1799 16.5283 56.2101 16.4541 56.24 16.38C56.3131 16.1972 56.4048 16.0181 56.497 15.8381L56.4977 15.8367C56.5565 15.7218 56.6155 15.6067 56.67 15.49C56.6881 15.4525 56.7061 15.4148 56.7239 15.3768C56.7482 15.3254 56.7723 15.2737 56.7965 15.2219C56.902 14.9957 57.0085 14.7672 57.13 14.56C57.1852 14.4625 57.2402 14.365 57.2952 14.2675L57.2968 14.2646L57.2983 14.2621L57.2992 14.2604C57.581 13.7608 57.8616 13.2634 58.17 12.78C58.58 12.13 59.01 11.49 59.44 10.86C60.18 9.77997 60.94 8.72998 61.8 7.73999C62.2457 7.23279 62.7203 6.75183 63.1955 6.27023L63.1979 6.26785C63.6088 5.85138 64.0203 5.43439 64.4139 4.99948C64.4411 4.9671 64.4683 4.93542 64.4955 4.906L64.4453 4.96353L64.4239 4.98834C64.4595 4.94903 64.4948 4.90961 64.53 4.86999C64.5225 4.8775 64.515 4.88525 64.5075 4.89319L64.4955 4.906C64.5348 4.86124 64.5744 4.81689 64.614 4.77246L64.6175 4.76843L64.6254 4.75955C64.7078 4.6672 64.7901 4.57486 64.87 4.48001C64.64 4.51001 64.42 4.52997 64.19 4.54999C63.33 4.63998 62.48 4.75 61.63 4.86999C60.99 4.95999 60.36 5.09997 59.72 5.23999L59.2237 5.36688C58.5659 5.53494 57.903 5.70428 57.24 5.88C56.4 6.10998 55.54 6.32999 54.68 6.45999C53.73 6.60998 52.79 6.68997 51.83 6.73999C51.44 6.75998 51.04 6.78 50.65 6.79001C50.5984 6.79214 50.5469 6.79452 50.4955 6.7969C50.069 6.81665 49.6494 6.83603 49.23 6.72C48.83 6.60998 48.48 6.36001 48.24 6.01001C47.69 5.20999 47.76 4.13998 48.56 3.53C49.03 3.16998 49.69 3.08002 50.25 3.26001C50.6172 3.2438 50.9844 3.23053 51.3516 3.21701C51.6644 3.20547 51.9772 3.19379 52.29 3.17999L52.2964 3.17944C52.6442 3.14963 52.9921 3.11981 53.33 3.08999C53.6547 3.06436 53.9865 3.00223 54.3133 2.94104L54.3149 2.94076C54.3701 2.93042 54.4252 2.9201 54.48 2.91C55.5099 2.66998 56.53 2.39999 57.55 2.14001L57.6104 2.12463C58.7314 1.83945 59.8809 1.547 61.04 1.38C61.903 1.25992 62.766 1.15674 63.6291 1.05356C63.8201 1.03073 64.011 1.0079 64.202 0.984892L64.49 0.950011C65.65 0.820006 66.81 0.660002 67.96 0.450011C68.3 0.380003 68.6399 0.319975 68.99 0.339995C69.3899 0.369994 69.75 0.45999 70.07 0.70999C70.42 0.979979 70.71 1.41998 70.74 1.86999C70.78 2.29999 70.76 2.70999 70.52 3.08999C70.4 3.28998 70.2599 3.48001 70.11 3.67001C70.0645 3.72912 70.0185 3.78824 69.9723 3.84732L69.97 3.85998C69.9339 4.79016 69.9914 5.72552 70.0489 6.65857C70.0579 6.80459 70.0668 6.95059 70.0754 7.09646C70.0881 7.31119 70.1 7.52572 70.11 7.73999C70.1239 8.03757 70.1385 8.33435 70.1536 8.6308C70.1656 8.86734 70.1778 9.10367 70.19 9.33999C70.2175 9.8725 70.245 10.405 70.27 10.94C70.33 11.71 70.39 12.48 70.49 13.25C70.543 13.6918 70.6064 14.1267 70.6701 14.5629L70.7087 14.8285C70.74 15.0446 70.7709 15.2615 70.8 15.48C70.91 16.32 71.01 17.16 71.1 18.01C71.1267 18.2387 71.1508 18.4675 71.1749 18.696C71.2318 19.2366 71.2886 19.7758 71.38 20.31C71.3902 20.3354 71.4003 20.3635 71.4092 20.3914C71.4177 20.4185 71.425 20.4454 71.43 20.47C71.72 21.39 71.09 22.4 70.2 22.65C70.04 22.69 69.89 22.71 69.74 22.71C68.97 22.71 68.28 22.18 68.03 21.41C67.8359 20.8121 67.7743 20.1599 67.7143 19.5237C67.6971 19.3408 67.68 19.1586 67.66 18.98L67.6592 18.9736C67.5895 18.3058 67.5197 17.6379 67.43 16.97C67.4006 16.7379 67.3687 16.5059 67.3356 16.2738C67.2957 15.9947 67.254 15.7155 67.2122 15.4363C67.0763 14.5276 66.9404 13.6188 66.87 12.71C66.75 11.16 66.67 9.62002 66.6 8.07001C66.5957 7.98959 66.5915 7.90915 66.5874 7.82873C66.1952 8.24502 65.7909 8.65402 65.3875 9.06216L65.1412 9.31146C65.0103 9.44418 64.8798 9.57696 64.75 9.70999C64.25 10.28 63.77 10.84 63.32 11.45C62.8 12.18 62.28 12.92 61.78 13.66C61.6454 13.8694 61.5083 14.0813 61.3712 14.2932C61.2333 14.5063 61.0954 14.7194 60.96 14.93C60.7839 15.2033 60.6262 15.4913 60.4689 15.7785C60.4235 15.8616 60.3778 15.9451 60.332 16.0276C60.2755 16.1294 60.2184 16.2304 60.16 16.33C60.1218 16.4063 60.0831 16.4829 60.0441 16.5598L59.999 16.6488C59.8176 17.0062 59.634 17.3681 59.48 17.73C59.24 18.32 59 18.91 58.76 19.51C57.56 23.01 56.48 26.56 55.6 30.16C54.67 33.93 53.6 37.66 52.44 41.36C52.1963 42.1164 51.9172 42.8658 51.6385 43.614L51.6359 43.6209C51.5839 43.7607 51.5318 43.9003 51.48 44.04C51.4379 44.1491 51.3959 44.2581 51.3539 44.3672C51.2962 44.5176 51.2386 44.668 51.1811 44.8184C51.0871 45.0642 50.9934 45.3101 50.8997 45.5559L50.6664 46.1673C50.5515 46.4682 50.4362 46.7691 50.32 47.07C50.1003 47.6558 49.8718 48.2328 49.6432 48.8097C49.5284 49.0994 49.4136 49.3892 49.3 49.68C48.37 52.04 47.06 54.22 45.48 56.19C44.683 57.1841 43.7905 58.0974 42.897 59.0117L42.7153 59.1977C42.6268 59.2884 42.5383 59.3791 42.45 59.47C41.871 60.064 41.275 60.6411 40.6833 61.2139L40.6826 61.2148L40.6615 61.2351C40.4738 61.417 40.2863 61.5985 40.1 61.78C39.1899 62.67 38.21 63.52 37.16 64.24C36.1299 64.94 34.99 65.5 33.81 65.89C31.29 66.72 28.66 67.07 26.02 67.21C25.51 67.24 24.99 67.25 24.48 67.25C23.8482 67.25 23.1943 67.2334 22.5347 67.2167L22.5211 67.2163C22.2978 67.2107 22.0739 67.205 21.85 67.2Z"
    fill="rgba(191, 192, 191, 1)" />
  <path d="M7.14001 28.44C7.14984 28.4302 7.15002 28.43 7.15002 28.4206C7.14959 28.4304 7.14001 28.44 7.14001 28.44Z"
    fill="rgba(191, 192, 191, 1)" />
  <path d="M9.664 24.1412C9.68206 24.1158 9.70043 24.09 9.71698 24.0629L9.664 24.1412Z" fill="rgba(191, 192, 191, 1)" />
  <path
    d="M26.61 63.65H26.65C26.6439 63.6438 26.6377 63.6453 26.6291 63.6473C26.6238 63.6486 26.6176 63.65 26.61 63.65Z"
    fill="rgba(191, 192, 191, 1)" />
</svg>