<svg width="74" height="70" viewBox="0 0 74 70" fill="none" xmlns="http://www.w3.org/2000/svg">
  <path fill-rule="evenodd" clip-rule="evenodd"
    d="M69.63 39.56C69.7494 39.7987 69.8588 40.0275 69.9681 40.2562L69.97 40.26C70.27 40.9201 70.9199 41.34 71.5699 41.33C71.7899 41.33 72.02 41.2901 72.25 41.19C73.11 40.83 73.6 39.75 73.1899 38.87C72.7269 37.8717 72.2064 36.91 71.6852 35.947L71.6833 35.9439L71.6801 35.9381C71.4824 35.573 71.2848 35.2077 71.09 34.84C70.4199 33.46 69.78 32.07 69.16 30.67C69.0869 30.5009 69.0143 30.3319 68.942 30.1628C68.8855 30.0308 68.8292 29.8988 68.7732 29.7667C68.7051 29.6064 68.6372 29.4461 68.5696 29.2857C68.4254 28.944 68.2821 28.6024 68.1388 28.2607C67.9136 27.7238 67.6884 27.187 67.46 26.65C67.3762 26.4499 67.2919 26.25 67.2074 26.0503L66.983 25.5206C66.5968 24.6101 66.2109 23.7 65.85 22.78C65.6906 22.3722 65.5291 21.965 65.3674 21.5578L65.3656 21.5528C64.9297 20.4542 64.4935 19.3551 64.1 18.24C64.12 18.28 64.13 18.33 64.15 18.37C63.5 16.5 62.9501 14.62 62.54 12.68C62.28 11.34 62.1 10 62 8.64003C61.96 7.82003 61.9299 7.01003 61.9399 6.19002C61.9449 5.81502 61.96 5.43752 61.975 5.06002C61.9814 4.89852 61.9879 4.73702 61.9935 4.57576C61.9983 4.43966 62.0026 4.30367 62.0057 4.16799C62.0076 4.08858 62.009 4.00924 62.01 3.93001C62.01 3.59005 62.05 3.23006 62 2.90004C61.95 2.60006 61.88 2.34005 61.78 2.06002C61.61 1.60006 61.2201 1.23006 60.8 1.00002C59.8501 0.49001 58.74 0.779988 57.76 1.04C57.21 1.19002 56.65 1.34005 56.1 1.50002C53.79 2.16005 51.47 2.79006 49.15 3.40004C48.1224 3.67171 47.0913 3.93288 46.0608 4.19393L46.0443 4.19814C45.6238 4.30465 45.2034 4.41115 44.7834 4.51833C44.4955 4.59182 44.2076 4.66561 43.92 4.74001C41.9501 5.26003 39.98 5.81002 38.02 6.36C37.3263 6.55318 36.6342 6.75246 35.9418 6.95186L35.9388 6.95278C34.8755 7.25905 33.8114 7.56551 32.74 7.85C32.4573 7.92458 32.1754 8.00203 31.894 8.07943C31.2698 8.25106 30.6473 8.42214 30.02 8.56002C29.4949 8.68007 28.9672 8.79512 28.4396 8.91018C27.9531 9.01619 27.4667 9.12221 26.9822 9.2322C25.9475 9.44484 24.9037 9.65743 23.86 9.87001C23.5349 9.93502 23.21 10.0025 22.885 10.07C22.5767 10.1341 22.2684 10.1981 21.96 10.26C21.46 10.3601 20.95 10.46 20.45 10.53H20.34C20.1 10.53 19.87 10.56 19.63 10.61C18.77 10.8 18.23 11.73 18.34 12.56C18.45 13.3501 19.08 13.9701 19.86 14.08C20.34 14.15 20.84 14.08 21.3199 14C21.7799 13.9101 22.24 13.82 22.6899 13.73C23.24 13.62 23.7799 13.51 24.3199 13.4C24.355 13.395 24.3875 13.3875 24.4199 13.38L24.4592 13.3712C24.4529 13.3739 24.4463 13.3769 24.4399 13.38C24.4535 13.3755 24.467 13.3709 24.4806 13.3674L24.4923 13.3645L24.5138 13.3609C24.5175 13.3605 24.5211 13.3602 24.5248 13.3601L24.53 13.36L24.5328 13.3574L24.67 13.33H24.66C24.6763 13.3267 24.6925 13.3234 24.7087 13.32C26.8324 12.8832 28.9462 12.4365 31.0601 11.97C31.7612 11.815 32.4578 11.6236 33.153 11.4325C33.4889 11.3402 33.8245 11.2479 34.16 11.16C34.7975 10.995 35.4349 10.8131 36.0724 10.6312C36.2849 10.5706 36.4974 10.51 36.71 10.45C40.45 9.37001 44.1799 8.35006 47.95 7.39003C48.4814 7.25283 49.0129 7.11812 49.5442 6.98354C50.3674 6.77492 51.1901 6.56643 52.0111 6.34884C51.3129 6.92897 50.6257 7.5223 49.9388 8.11544L49.9249 8.12734C49.408 8.57369 48.8912 9.01986 48.37 9.46004C48.022 9.75679 47.6741 10.0531 47.3262 10.3491C46.8591 10.7464 46.3921 11.1432 45.925 11.5401L45.8705 11.5866C45.3367 12.0401 44.8029 12.4935 44.2692 12.9478C44.0061 13.1716 43.743 13.3957 43.48 13.62C40.47 16.17 37.47 18.73 34.47 21.29C31.9067 23.4769 29.3213 25.6336 26.7363 27.7899L26.7231 27.8009C23.5441 30.4527 20.3657 33.104 17.23 35.81C14.09 38.51 10.98 41.25 7.89001 44.01C6.54004 45.21 5.19006 46.4101 3.88 47.65C3.65405 47.866 3.427 48.081 3.19995 48.2959C2.74365 48.7276 2.28735 49.1593 1.83997 49.6C1.74683 49.6905 1.65027 49.7808 1.55286 49.872C0.918823 50.4654 0.25 51.0911 0.25 52.01C0.25 52.97 1.06006 53.78 2.02002 53.78C2.67004 53.78 3.26001 53.41 3.56006 52.87C4.13342 52.2746 4.73364 51.7116 5.33313 51.1494C5.54932 50.9467 5.76538 50.744 5.97998 50.54C6.69995 49.86 7.43005 49.19 8.16003 48.53C9.43079 47.3727 10.713 46.2211 11.9937 45.0709L11.9988 45.0663L13.23 43.96C15.9399 41.56 18.6699 39.19 21.4399 36.85C23.5582 35.0629 25.6813 33.2807 27.8046 31.4982L27.8328 31.4744C31.8546 28.0982 35.8773 24.7211 39.87 21.31C41.7386 19.7151 43.6121 18.1249 45.4838 16.5362L46.7051 15.4993C47.1603 15.1129 47.6152 14.7265 48.0699 14.34L52.99 10.14C53.1899 9.96004 53.4 9.77999 53.61 9.59999C53.5619 9.80611 53.509 10.0123 53.4548 10.2184C53.4309 10.3092 53.4067 10.3999 53.3826 10.4907L53.38 10.5L52.48 13.68C52.1235 14.95 51.7229 16.2091 51.3231 17.4654L51.1532 18.0001C51.0717 18.2568 50.9905 18.5134 50.91 18.77C50.1752 21.1489 49.4027 23.511 48.6305 25.8726L48.6261 25.8866C48.2019 27.1837 47.7778 28.4806 47.36 29.78L47.3384 29.8469C46.7456 31.6946 46.1528 33.5423 45.5699 35.39C45.4594 35.7464 45.3479 36.1027 45.2365 36.4591L45.2291 36.4829L45.2214 36.5072C44.7935 37.8752 44.3651 39.2445 43.98 40.62C43.2201 43.3111 42.4941 46.0119 41.7684 48.7122C41.4531 49.8852 41.1379 51.0581 40.8199 52.23C39.84 55.83 38.79 59.4 37.63 62.94L37.5231 63.2345C37.1998 64.126 36.8774 65.0152 36.49 65.88C35.97 65.95 35.47 66.26 35.1899 66.74C34.7 67.57 34.99 68.67 35.8199 69.16C36.24 69.41 36.6901 69.54 37.17 69.55C37.55 69.55 37.9401 69.44 38.3101 69.23C39.01 68.81 39.41 68.04 39.74 67.33C40.1158 66.5303 40.4149 65.7049 40.714 64.8796C40.7889 64.6729 40.8639 64.4663 40.9399 64.26C41.408 62.9667 41.8109 61.63 42.2102 60.3051C42.2802 60.073 42.35 59.8411 42.42 59.61C43.2544 56.8558 44.0083 54.0695 44.761 51.2869L45.02 50.33C45.26 49.455 45.4926 48.58 45.7251 47.705C45.9575 46.83 46.1901 45.955 46.4301 45.08L46.4341 45.0656C46.9928 43.0904 47.5515 41.1152 48.15 39.15C49.28 35.43 50.4701 31.7201 51.67 28.02C52.0096 26.9621 52.3508 25.9049 52.692 24.8476L52.7063 24.8032L52.707 24.8012C53.5764 22.1064 54.446 19.4108 55.29 16.7C55.3566 16.4822 55.4241 16.2644 55.4916 16.0462C55.5543 15.8438 55.6172 15.6411 55.6793 15.4379C55.7043 15.356 55.7294 15.2741 55.7542 15.192C55.8207 14.9721 55.8862 14.7515 55.95 14.53L56.52 12.52C56.62 12.1601 56.74 11.8 56.83 11.43C56.9014 11.1253 56.979 10.8205 57.0568 10.5154L57.0601 10.5022L57.0612 10.4984C57.2218 9.86794 57.3828 9.23623 57.49 8.6C57.5179 8.43819 57.5479 8.27541 57.5779 8.1122L57.5815 8.09316C57.6074 7.95284 57.6333 7.81228 57.6581 7.67183C57.696 7.45711 57.7313 7.24276 57.76 7.03005C57.7777 6.85799 57.7972 6.68593 57.8187 6.51473C57.8461 6.29787 57.8765 6.08242 57.91 5.87001C57.9501 5.69002 57.96 5.52999 57.97 5.35C57.9735 5.13076 57.9307 4.90902 57.8491 4.70131C58.0559 4.64626 58.2629 4.59237 58.47 4.54C58.4668 4.63015 58.4633 4.7203 58.4596 4.81032L58.4537 4.9612C58.441 5.27425 58.4286 5.58657 58.423 5.89632C58.4211 6.00118 58.42 6.10579 58.42 6.21004C58.41 7.16005 58.4401 8.09999 58.51 9.05001C58.65 11.12 58.99 13.1701 59.49 15.19C59.97 17.09 60.5701 18.96 61.28 20.78C61.3942 21.0747 61.509 21.37 61.6241 21.6657C61.7258 21.927 61.8279 22.1885 61.9299 22.45C62.1475 23.0075 62.365 23.565 62.58 24.12C63.0669 25.356 63.5874 26.5751 64.108 27.7942C64.2825 28.2026 64.4569 28.611 64.63 29.02C64.6788 29.1349 64.7273 29.2498 64.7755 29.3646C64.8734 29.5978 64.9705 29.831 65.0675 30.0641C65.1624 30.2921 65.2572 30.52 65.353 30.748C65.4766 31.042 65.6016 31.336 65.73 31.63C65.8667 31.9369 66.0001 32.2449 66.1335 32.5529C66.4001 33.1682 66.6667 33.7836 66.96 34.39C67.4199 35.32 67.86 36.26 68.34 37.17C68.502 37.4715 68.6654 37.7714 68.8287 38.0711C69.0988 38.5668 69.3683 39.0615 69.63 39.56ZM21.8948 10.2749L21.8445 10.2851C21.8071 10.2926 21.7698 10.3001 21.73 10.31L21.7311 10.3098C21.7858 10.3007 21.8402 10.2916 21.8948 10.2749Z"
    fill="rgba(191, 192, 191, 1)" />
</svg>