<svg width="78" height="77" viewBox="0 0 78 77" fill="none" xmlns="http://www.w3.org/2000/svg">
  <path fill-rule="evenodd" clip-rule="evenodd"
    d="M1.69995 73.18C1.66992 73.69 1.68994 74.17 1.73999 74.67C1.76001 75.62 2.55005 76.41 3.53003 76.39C4.5 76.39 5.30005 75.58 5.30005 74.62C5.30005 74.41 5.27002 74.19 5.23999 73.98C5.23999 73.81 5.23999 73.64 5.25 73.46C5.24915 73.4667 5.24841 73.4736 5.24768 73.4803C5.31018 72.7006 5.36951 71.9209 5.42761 71.1411C5.46545 70.6341 5.50281 70.127 5.54004 69.62C5.55713 69.3991 5.57483 69.1785 5.59253 68.958C5.6781 67.8913 5.76343 66.8291 5.78003 65.76C5.79004 65.04 5.77002 64.34 5.73999 63.62C5.71204 62.9869 5.60608 62.3538 5.50293 61.7369L5.47998 61.6C5.37 60.99 5.25 60.39 5.16003 59.78C5.07007 59.18 5.01001 58.58 4.95996 57.97C4.90991 56.61 4.92004 55.25 4.92004 53.89C4.92004 52.33 4.85999 50.78 4.72998 49.21C4.6488 48.2571 4.5614 47.303 4.474 46.348C4.3136 44.5971 4.15295 42.8436 4.03003 41.09V41.07C4.03003 41.02 4.02002 40.98 4.02002 40.93C4.02283 40.9385 4.0249 40.947 4.02637 40.9555C4.02759 40.977 4.02881 40.9985 4.03003 41.02C4.03003 40.9985 4.03003 40.977 4.02637 40.9555C3.98267 40.1863 3.94849 39.417 3.91431 38.6478C3.87219 37.6985 3.83008 36.7492 3.77002 35.8C3.75 35.48 3.72998 35.17 3.70996 34.86C3.52991 31.61 3.51001 28.34 3.69995 25.09C3.78992 24.23 3.90991 23.39 4.06995 22.55C4.30994 21.44 4.57007 20.33 4.91003 19.24C5.28003 18.25 5.69006 17.29 6.15002 16.34C6.32007 16.02 6.5 15.7 6.69995 15.39C6.81995 15.22 6.94995 15.05 7.08997 14.89C7.19995 14.77 7.31006 14.66 7.43005 14.55C7.55005 14.45 7.68005 14.35 7.81006 14.25C8.04004 14.09 8.29004 13.95 8.54004 13.82C9.7522 13.2278 11.0327 12.7555 12.3105 12.2842L12.62 12.17C12.54 12.19 12.47 12.22 12.4 12.24C12.4988 12.2054 12.5979 12.1703 12.6973 12.1351C13.2012 11.9564 13.712 11.7753 14.23 11.65L14.2336 11.6491C14.7825 11.5194 15.3313 11.3897 15.89 11.27C16.8 11.09 17.72 10.91 18.63 10.75C19.45 10.61 20.27 10.52 21.1 10.44C23.4623 10.2844 25.8346 10.2739 28.2028 10.2633C29.1829 10.259 30.1624 10.2546 31.14 10.24C31.9714 10.2295 32.8 10.1912 33.6289 10.153C34.3751 10.1186 35.1215 10.0842 35.87 10.07C37.52 10.04 39.1699 10.1 40.8199 10.2C42.1499 10.29 43.4801 10.38 44.8101 10.46C46.0801 10.53 47.35 10.54 48.62 10.56C49.0453 10.5666 49.4717 10.5743 49.8988 10.582C50.7672 10.5976 51.6385 10.6133 52.51 10.62C52.7085 10.6217 52.9071 10.6231 53.1056 10.6245C54.097 10.6314 55.0885 10.6383 56.08 10.68C56.6699 10.7359 57.2561 10.8111 57.8433 10.8864C58.2015 10.9323 58.5601 10.9783 58.92 11.02C59.9701 11.14 61.0199 11.21 62.0699 11.23C62.6757 11.2426 63.2804 11.2493 63.8844 11.2559C65.1951 11.2703 66.5026 11.2847 67.8101 11.36C68.4331 11.4178 69.0541 11.4994 69.6748 11.581C70.1759 11.6469 70.6769 11.7127 71.1786 11.766C70.5393 12.2977 69.9098 12.8388 69.28 13.38C68.463 14.0966 67.6564 14.8287 66.8489 15.5614C66.5295 15.8511 66.2102 16.141 65.89 16.43C65.35 16.89 64.8 17.33 64.25 17.76L64.1251 17.856C63.6455 18.2243 63.1616 18.596 62.72 19.01C62.02 19.67 62.05 20.84 62.72 21.51C63.0599 21.85 63.51 22.02 63.96 22.03C64.4199 22.03 64.87 21.85 65.23 21.52C65.6797 21.138 66.1434 20.7724 66.6064 20.4073C67.1011 20.0173 67.5948 19.628 68.0699 19.22C68.7699 18.6201 69.452 17.9934 70.1343 17.3668C70.4578 17.0697 70.7812 16.7726 71.1066 16.4784L71.1449 16.4449C72.3335 15.4093 73.5259 14.3704 74.8101 13.46C75.55 13.41 76.17 12.89 76.41 12.16C76.4401 12.05 76.46 11.93 76.48 11.82C76.4861 11.7781 76.4907 11.7359 76.4935 11.6935C77.0364 11.4207 77.4319 10.9472 77.52 10.32C77.59 9.77999 77.41 9.22 77.02 8.82998C76.76 8.57998 76.5 8.38 76.21 8.17999C75.1659 7.45855 74.2029 6.62011 73.2439 5.78414C73.2147 5.75613 73.1827 5.72818 73.1498 5.70016C72.6779 5.27078 72.2147 4.8254 71.76 4.38C71.5801 4.20547 71.4044 4.02731 71.2291 3.84942C70.7516 3.36489 70.2759 2.88232 69.72 2.48001C68.96 1.93002 68.05 1.57 67.14 1.33999C66.92 1.29 66.7 1.25 66.48 1.20001C66.1 0.800014 65.5499 0.580012 64.97 0.659999C64.03 0.790004 63.3199 1.70999 63.46 2.66C63.61 3.6 64.28 4.20999 65.15 4.5C65.3301 4.55999 65.53 4.6 65.72 4.64001C66.0699 4.71002 66.4 4.80999 66.74 4.91C66.95 4.98999 67.16 5.08001 67.36 5.17001C67.4034 5.1972 67.447 5.22146 67.4905 5.24597C67.527 5.26647 67.5635 5.2872 67.6 5.30999C67.75 5.41998 67.89 5.53002 68.03 5.64001C68.3989 5.98989 68.7517 6.35189 69.1038 6.71319C69.3052 6.91983 69.5062 7.12622 69.71 7.32998C69.99 7.59997 70.2799 7.86999 70.5699 8.13C69.2799 7.97 67.9801 7.80999 66.67 7.76998C65.8754 7.74649 65.0792 7.73681 64.2827 7.72711C63.0444 7.71203 61.8053 7.69693 60.5699 7.63C59.8457 7.56655 59.1271 7.47799 58.4082 7.38937C57.7671 7.31036 57.1257 7.23129 56.48 7.17001C55.4299 7.07 54.37 7.06997 53.3199 7.07998H52.0699C49.2599 7.05999 46.4501 7.01998 43.65 6.85998L43.3004 6.83575C40.8186 6.66345 38.3529 6.49224 35.86 6.54C35.0929 6.552 34.3295 6.58551 33.5653 6.61907C33.0543 6.64151 32.543 6.66397 32.03 6.67999C31.0209 6.71203 30.0117 6.71841 28.9976 6.72485C28.7454 6.72644 28.4929 6.72802 28.24 6.73001H28.233C26.2654 6.74002 24.2876 6.75009 22.3199 6.82998C20.4399 6.89999 18.58 7.15002 16.73 7.51L16.3591 7.57891C15.573 7.72457 14.7891 7.86987 14.02 8.05999C13.0701 8.29998 12.13 8.58001 11.2 8.92001C10.2999 9.26 9.40002 9.6 8.51001 9.95999C7.18005 10.5 5.79004 11.13 4.77002 12.18C3.78003 13.21 3.10999 14.41 2.52002 15.7L2.47424 15.8021C2.10901 16.6189 1.73926 17.4456 1.47998 18.3C1.20996 19.17 0.969971 20.04 0.780029 20.93C0.745117 21.0959 0.709229 21.2622 0.67334 21.4288C0.503662 22.2157 0.33252 23.0094 0.25 23.81C0.0600586 25.73 0.0100098 27.67 0.0100098 29.61C0.0100098 31.47 0.0400391 33.34 0.170044 35.2C0.160034 35.12 0.160034 35.04 0.150024 34.96C0.170044 35.28 0.189941 35.61 0.209961 35.94C0.279907 37.13 0.329956 38.32 0.380005 39.52C0.440063 40.85 0.540039 42.18 0.640015 43.5C0.745361 44.8919 0.874634 46.2769 1.00366 47.6611C1.09534 48.6438 1.18701 49.626 1.27002 50.61C1.33008 51.78 1.34998 52.93 1.34998 54.1C1.34998 54.3622 1.34875 54.625 1.34753 54.8881C1.34375 55.6787 1.33997 56.4722 1.37 57.26C1.41003 58.41 1.47998 59.57 1.68994 60.7C1.87988 61.74 2.06006 62.76 2.18005 63.81C2.21008 64.51 2.23999 65.2 2.20996 65.9C2.18127 66.5701 2.14343 67.2403 2.1051 67.9191L2.09998 68.01C2.01001 69.1 1.92993 70.2 1.84998 71.3C1.79993 71.93 1.75 72.55 1.69995 73.18ZM73.2059 5.75112L73.2284 5.77069C73.2335 5.77514 73.2388 5.77969 73.2439 5.78414C73.2494 5.78942 73.2548 5.7947 73.26 5.79998C73.2419 5.78372 73.224 5.76742 73.2059 5.75112ZM73.2059 5.75112L73.09 5.64999C73.11 5.66671 73.1301 5.68344 73.1498 5.70016C73.1685 5.71719 73.1873 5.73416 73.2059 5.75112ZM5.22998 73.7C5.23364 73.654 5.23743 73.608 5.24109 73.562C5.24072 73.568 5.24036 73.574 5.23999 73.58C5.23755 73.62 5.23499 73.66 5.22998 73.7Z"
    fill="rgba(191, 192, 191, 1)" />
</svg>