<svg width="81" height="90" viewBox="0 0 81 90" fill="none" xmlns="http://www.w3.org/2000/svg">
  <path fill-rule="evenodd" clip-rule="evenodd"
    d="M38.43 37.71C38.1792 38.0706 38.0451 38.4802 38.071 38.9052C37.6789 38.6145 37.2494 38.3748 36.77 38.2C36.0506 37.9325 35.3099 37.7286 34.5712 37.5252L34.5699 37.5249C34.0666 37.3863 33.5642 37.248 33.07 37.09L32.9848 37.0624C32.2139 36.8117 31.4509 36.5637 30.66 36.39C29.55 36.1601 28.39 36.14 27.26 36.27C26.34 36.3801 25.42 36.4701 24.49 36.55C24.0612 36.5661 23.6325 36.5789 23.2037 36.5917C22.5625 36.6109 21.9213 36.63 21.28 36.66C20.07 36.72 18.88 36.83 17.68 36.95C17.02 36.9901 16.3701 37.01 15.7 37.01C15.1913 37.01 14.6826 36.9932 14.1738 36.9765L14.1684 36.9763L13.9642 36.9696C13.8628 36.9663 13.7614 36.963 13.66 36.96C12.5369 36.9347 11.4065 37.0236 10.2812 37.112H10.279L10.2667 37.1129L9.96185 37.1369C9.86121 37.1447 9.76059 37.1524 9.66003 37.16C9.43076 37.1677 9.19815 37.1695 8.96411 37.1713C8.28983 37.1764 7.60321 37.1816 6.95004 37.33C5.50003 37.65 4.39005 38.59 3.60004 39.82C2.33005 41.8101 1.74002 44.16 1.46002 46.48C1.42001 46.85 1.49005 47.2 1.64005 47.51C1.63004 47.77 1.62003 48.03 1.62003 48.29C1.61002 49.32 1.60001 50.34 1.58002 51.37C1.57877 51.5009 1.57785 51.6319 1.57709 51.7631C1.57629 51.8955 1.57565 52.028 1.57501 52.1607C1.57126 52.9505 1.5675 53.7431 1.53003 54.53C1.49002 55.6201 1.44003 56.7001 1.39005 57.78C1.30005 58.8801 1.22003 59.9801 1.14005 61.08C1.06204 62.2082 0.973236 63.3364 0.88443 64.4646L0.883881 64.4712C0.82486 65.2208 0.765839 65.9704 0.710022 66.72C0.610229 68.2246 0.569336 69.7292 0.528625 71.2292C0.516296 71.6833 0.503967 72.1369 0.490021 72.59C0.484039 72.7779 0.477631 72.9657 0.471252 73.1535C0.445648 73.9057 0.420044 74.6578 0.420044 75.41C0.420044 76.74 0.460022 78.07 0.720032 79.37C0.940033 80.46 1.33005 81.4701 1.91003 82.42C2.53003 83.42 3.41003 84.35 4.32004 85.1C5.21005 85.83 6.18002 86.4801 7.27002 86.87C8.46002 87.2901 9.65002 87.5401 10.91 87.59C12.18 87.6401 13.44 87.59 14.71 87.5C16.87 87.37 19.05 87.25 21.21 87.37C21.95 87.43 22.68 87.52 23.4 87.63C24.3683 87.7747 25.3316 87.9544 26.2949 88.134L26.2994 88.1349C27.2646 88.315 28.2298 88.495 29.2 88.64C30.0901 88.77 30.9901 88.89 31.89 88.96C32.0279 88.9688 32.1661 88.9785 32.3046 88.9885C32.4135 88.9964 32.5226 89.0045 32.6319 89.0127C33.3314 89.0648 34.0362 89.1174 34.73 89.11C35.45 89.11 36.1801 89.0601 36.89 88.89C38.1 88.6101 39.26 88.08 40.17 87.21C40.95 86.4701 41.56 85.59 42.03 84.62C42.61 83.4101 43.0201 82.11 43.32 80.8C43.58 79.7 43.83 78.58 43.96 77.46C43.9737 77.3396 43.9881 77.2192 44.003 77.0988C44.0306 76.8765 44.0599 76.6542 44.0892 76.4319L44.0906 76.4206C44.1728 75.7971 44.255 75.1735 44.3 74.55C44.335 74.0599 44.3675 73.5673 44.4 73.0747C44.4325 72.5823 44.465 72.0899 44.5 71.6C44.51 71.56 44.51 71.52 44.51 71.48V71.5C44.5201 71.46 44.52 71.4101 44.52 71.37C44.61 70.0401 44.61 68.71 44.6 67.38C44.5981 67.2628 44.597 67.1455 44.5961 67.0283L44.5947 66.8483C44.5917 66.4055 44.5886 65.9628 44.56 65.52C44.5 64.6801 44.44 63.83 44.39 62.98C44.3072 61.7094 44.1395 60.4473 43.973 59.1936L43.93 58.87C43.845 58.21 43.7525 57.55 43.66 56.89C43.5675 56.23 43.475 55.57 43.39 54.91C43.14 53 42.93 51.09 42.74 49.17L42.7076 48.8408L42.7074 48.8388C42.6093 47.8393 42.5111 46.8406 42.34 45.85C42.14 44.68 41.67 43.64 41.01 42.66L41.0088 42.6582C40.7692 42.3088 40.5296 41.9594 40.3 41.6C40.1866 41.4315 40.0761 41.2555 39.9646 41.078C39.8567 40.9061 39.748 40.733 39.635 40.5639C39.7324 40.5803 39.8283 40.5866 39.92 40.58C40.61 40.58 41.26 40.21 41.56 39.57C42.4315 38.7393 43.2941 37.9016 44.1562 37.0645C46.0442 35.2313 47.9297 33.4007 49.9 31.65C50.3949 31.2093 50.8924 30.7712 51.3902 30.3328C52.2703 29.5578 53.1513 28.7821 54.02 27.99C54.7254 27.3496 55.4259 26.7017 56.1263 26.0538C56.8259 25.4067 57.5255 24.7596 58.23 24.12C58.9153 23.5295 59.6112 22.9483 60.3076 22.3667C61.5215 21.3529 62.7372 20.3375 63.9 19.27C66.176 17.1817 68.3522 14.9868 70.5263 12.794C71.0171 12.299 71.5083 11.8035 72 11.31C73.32 9.99001 74.63 8.66005 75.92 7.32003C76.325 6.90352 76.7232 6.4836 77.1187 6.06228C77.1113 6.44234 77.1057 6.82277 77.1 7.20003C77.09 8.29006 77.05 9.38002 76.99 10.47C76.8918 11.4704 76.7823 12.4707 76.6731 13.4688C76.6044 14.0969 76.5357 14.7242 76.47 15.35C76.4241 15.769 76.3691 16.1889 76.3141 16.6093C76.1773 17.6538 76.04 18.7019 76.04 19.75C76.04 20.7201 76.84 21.52 77.81 21.52C78.78 21.52 79.58 20.7201 79.58 19.75C79.58 19.69 79.5825 19.6325 79.585 19.575C79.5875 19.5175 79.59 19.46 79.59 19.4V19.35C79.59 19.31 79.6 19.28 79.6 19.24V19.28C79.6534 18.5468 79.7422 17.8223 79.8311 17.0979C79.8756 16.7356 79.92 16.3734 79.96 16.01C80.0137 15.4939 80.0708 14.9795 80.1277 14.4661C80.2088 13.7361 80.2896 13.0081 80.36 12.28C80.5 10.9101 80.6 9.55001 80.63 8.17C80.64 7.73244 80.6456 7.29372 80.6512 6.85427C80.6623 5.97817 80.6734 5.09908 80.72 4.21999C80.74 4.02999 80.76 3.83999 80.79 3.65999C81.13 2.86001 80.83 1.89003 80.06 1.44002C79.9897 1.39937 79.9173 1.36416 79.8434 1.33425C79.6683 0.951131 79.3607 0.632405 78.94 0.460042C78.1737 0.141438 77.3407 0.3196 76.543 0.490132L76.5395 0.490865C76.4119 0.518147 76.2853 0.545247 76.16 0.570027C75.9936 0.603352 75.8271 0.639973 75.6607 0.676595C75.3271 0.749959 74.9936 0.823323 74.66 0.870015C74.13 0.950032 73.59 1.06002 73.05 1.11001C72.797 1.13387 72.5463 1.15548 72.2967 1.17696C72.0235 1.20046 71.7518 1.2239 71.48 1.25002C69.3 1.35006 67.1 1.42006 64.92 1.33004C64.14 1.27004 63.35 1.19008 62.57 1.09005C61.62 0.970052 60.71 1.65004 60.58 2.61001C60.45 3.56002 61.13 4.48 62.09 4.6C63.36 4.76998 64.66 4.92 65.94 4.92C67.28 4.92 68.63 4.90004 69.97 4.87002C70.61 4.85006 71.25 4.82003 71.89 4.77004C72.0527 4.75576 72.2153 4.74312 72.378 4.73049C72.7853 4.69887 73.1927 4.6672 73.6 4.61001C72.0798 6.20138 70.5359 7.75319 68.9894 9.30758L68.41 9.89003C67.8969 10.4032 67.3883 10.9223 66.8796 11.4416L66.8783 11.4429C66.0787 12.2591 65.2787 13.0758 64.46 13.87C63.14 15.15 61.79 16.4101 60.41 17.64C59.8826 18.088 59.3511 18.5321 58.8194 18.9762L58.813 18.9815L58.8117 18.9826C57.6726 19.9341 56.5328 20.8862 55.43 21.88C54.5715 22.6509 53.7266 23.432 52.8815 24.2135C52.2795 24.77 51.6773 25.3267 51.07 25.88C50.192 26.681 49.2977 27.4697 48.4053 28.2567L48.402 28.2596C47.903 28.6997 47.4045 29.1392 46.91 29.58C45.44 30.89 44.02 32.25 42.61 33.63C42 34.2301 41.39 34.83 40.77 35.42C40.4 35.78 40.03 36.14 39.66 36.49C39.46 36.69 39.25 36.88 39.04 37.08C38.9957 37.1223 38.9504 37.164 38.905 37.2059L38.9041 37.2068C38.735 37.363 38.5638 37.5212 38.43 37.71ZM25.1999 84.3485C24.8727 84.2882 24.5464 84.2281 24.22 84.17C22.6 83.88 20.94 83.77 19.29 83.74H19.11C17.36 83.75 15.6 83.87 13.85 83.99C13.8421 83.994 13.8325 83.9964 13.8226 83.9978C13.8077 84 13.7921 84 13.78 84H13.69C12.73 84.06 11.76 84.0601 10.8 84.01C10.42 83.9801 10.06 83.93 9.69003 83.87C9.62924 83.8559 9.56845 83.8413 9.50775 83.8263C9.42923 83.8068 9.35083 83.7868 9.27277 83.766C9.11334 83.7235 8.95526 83.6782 8.80002 83.63C8.62079 83.562 8.44919 83.494 8.27814 83.4237C8.22733 83.4028 8.17654 83.3817 8.12561 83.3603C8.07065 83.3372 8.01553 83.3138 7.96002 83.29C7.83762 83.2191 7.71939 83.1483 7.59995 83.0775C7.53397 83.0384 7.46762 82.9992 7.40002 82.96C7.06003 82.7301 6.74005 82.4801 6.42004 82.21C6.10004 81.9201 5.80005 81.61 5.51004 81.29C5.32004 81.06 5.14001 80.83 4.96002 80.58C4.93817 80.5423 4.91632 80.505 4.89456 80.4678L4.88998 80.4599C4.80371 80.3126 4.71878 80.1675 4.64005 80.01C4.61044 79.936 4.57947 79.8634 4.54865 79.791C4.49615 79.668 4.44412 79.546 4.40002 79.42C4.33008 79.1802 4.25998 78.9399 4.21002 78.7C4.11002 78.1601 4.05005 77.6201 4.01004 77.08C3.93118 75.5827 3.98911 74.073 4.04654 72.5751V72.5734C4.06195 72.1713 4.07733 71.77 4.09003 71.37L4.09232 71.3034C4.14154 69.8753 4.1911 68.4378 4.26004 67.01C4.37204 65.4328 4.49274 63.8642 4.61404 62.288L4.64005 61.95C4.65717 61.7433 4.67447 61.5366 4.69177 61.3299L4.69196 61.3282C4.79599 60.0855 4.90002 58.8427 4.96002 57.6C5.04001 55.84 5.11005 54.09 5.14005 52.33C5.14886 51.7711 5.15335 51.2112 5.15784 50.6513C5.16864 49.3079 5.17944 47.964 5.25003 46.63C5.26004 46.4701 5.28003 46.3001 5.30002 46.13C5.39001 45.9201 5.44003 45.6801 5.44003 45.44C5.44003 45.25 5.41 45.0701 5.36002 44.9C5.48001 44.4101 5.62003 43.94 5.78003 43.47C5.93002 43.08 6.09003 42.7 6.27002 42.33C6.40002 42.09 6.54004 41.8501 6.69003 41.62C6.7251 41.5674 6.76208 41.5167 6.80014 41.4672C6.84525 41.4084 6.89188 41.3512 6.93863 41.294C7.01459 41.2122 7.09351 41.1342 7.18002 41.06C7.23343 41.0155 7.29483 40.971 7.35706 40.9265C7.36539 40.9222 7.37329 40.9179 7.38101 40.9136L7.40533 40.8999C7.42273 40.8899 7.44012 40.88 7.46002 40.87C7.47031 40.8675 7.48123 40.8643 7.49249 40.8606C7.50012 40.8581 7.5079 40.8553 7.51572 40.8524C7.54126 40.8429 7.56726 40.8314 7.59003 40.82L7.71002 40.79C7.81003 40.77 7.90002 40.76 7.99002 40.75C8.25806 40.7381 8.52768 40.7324 8.79764 40.7268C9.20248 40.7185 9.60806 40.71 10.01 40.68C10.3225 40.656 10.6314 40.6319 10.9388 40.6079L11.55 40.56H11.64C12.29 40.52 12.94 40.4801 13.59 40.5C13.9079 40.5042 14.2258 40.5139 14.5436 40.5235L14.5541 40.5239C14.9827 40.5369 15.4114 40.55 15.84 40.55C17.1924 40.5413 18.5371 40.4168 19.8877 40.2917C20.075 40.2744 20.2625 40.257 20.45 40.24C21.0891 40.2152 21.7281 40.1954 22.366 40.1756L22.3742 40.1754C23.0212 40.1553 23.6669 40.1352 24.31 40.11C25.0851 40.075 25.8567 39.9926 26.6289 39.91L26.6319 39.9096C27.1839 39.8507 27.7361 39.7917 28.29 39.75C28.56 39.7401 28.83 39.7401 29.11 39.75C29.39 39.78 29.66 39.81 29.94 39.86C30.5023 39.9828 31.052 40.1599 31.6028 40.3373C31.9041 40.4344 32.2058 40.5316 32.51 40.62C32.91 40.74 33.32 40.86 33.72 40.98C33.9423 41.0454 34.1665 41.1032 34.3901 41.1608C34.6795 41.2354 34.968 41.3098 35.25 41.4C35.45 41.4801 35.64 41.5501 35.84 41.64C35.8652 41.6552 35.8878 41.6677 35.9105 41.6803L35.9123 41.6814C35.9341 41.6934 35.9559 41.7055 35.98 41.72L36.13 41.84L36.33 42.04C36.4537 42.1946 36.5714 42.3612 36.6877 42.5258C36.7219 42.5742 36.756 42.6223 36.79 42.67C36.8379 42.7402 36.886 42.8103 36.9343 42.8805C37.0123 42.9937 37.0908 43.1069 37.1693 43.2201L37.1747 43.228C37.6547 43.9206 38.1359 44.6148 38.53 45.34C38.61 45.5101 38.68 45.68 38.74 45.86C38.79 46.04 38.84 46.23 38.88 46.42C39.067 47.5042 39.17 48.6109 39.2729 49.7148C39.2902 49.901 39.3075 50.0871 39.3253 50.273C39.343 50.4589 39.3611 50.6447 39.38 50.83C39.53 52.26 39.69 53.68 39.88 55.1C39.9933 55.973 40.1155 56.846 40.2377 57.719C40.2989 58.156 40.36 58.593 40.42 59.03C40.6 60.4101 40.75 61.7901 40.9 63.18V63.16C40.925 63.535 40.9475 63.91 40.97 64.285C40.9926 64.66 41.015 65.035 41.04 65.41C41.0686 65.8384 41.0717 66.2668 41.0747 66.6952L41.0758 66.8453C41.0768 66.9669 41.078 67.0885 41.08 67.21C41.09 68.573 41.0505 69.9359 41.0107 71.3086L41.01 71.33C40.94 72.2501 40.88 73.17 40.82 74.1V74.08C40.7921 74.542 40.7298 75.0038 40.6675 75.4657C40.6544 75.5623 40.6414 75.6589 40.6287 75.7555C40.6153 75.857 40.6023 75.9585 40.59 76.06C40.48 77.0401 40.33 78.01 40.14 78.97C39.94 79.95 39.69 80.9301 39.37 81.88C39.22 82.3001 39.05 82.71 38.86 83.12C38.72 83.39 38.58 83.64 38.42 83.89C38.3 84.0601 38.17 84.2201 38.04 84.38C37.95 84.4801 37.85 84.58 37.75 84.67C37.7071 84.7052 37.6657 84.7388 37.6246 84.7714C37.5605 84.8225 37.4971 84.8712 37.43 84.92C37.31 84.99 37.19 85.06 37.06 85.13C36.9927 85.1675 36.9197 85.1993 36.8454 85.2297L36.8186 85.2405C36.8024 85.2471 36.7862 85.2536 36.77 85.26L36.6904 85.2854C36.5887 85.318 36.4886 85.3501 36.3881 85.3795C36.2995 85.4055 36.2106 85.4295 36.12 85.45C35.85 85.5001 35.58 85.5301 35.3 85.56C34.79 85.58 34.29 85.57 33.77 85.55L33.464 85.5274L33.4605 85.5271C32.3553 85.4456 31.2577 85.3647 30.16 85.2C28.91 85.02 27.67 84.8001 26.42 84.57C26.0194 84.4997 25.6217 84.4264 25.2253 84.3533L25.2238 84.3529L25.1999 84.3485ZM7.3783 40.9113L7.37552 40.9146C7.38287 40.9098 7.39026 40.9049 7.40002 40.9C7.39001 40.9 7.38004 40.91 7.38004 40.91L7.3783 40.9113ZM6.93643 41.2963C6.89026 41.3461 6.84512 41.3974 6.80002 41.45C6.84549 41.4046 6.89096 41.3508 6.93643 41.2963Z"
    fill="rgba(191, 192, 191, 1)" />
</svg>