<svg width="40" height="135" viewBox="0 0 40 135" fill="none" xmlns="http://www.w3.org/2000/svg">
  <path fill-rule="evenodd" clip-rule="evenodd"
    d="M34.8528 0.106204C34.4771 0.200044 33.89 0.551934 33.5612 0.856915C33.2325 1.1619 32.528 1.678 31.9878 2.00644C30.5319 2.94484 28.3714 5.00937 25.6003 8.15303C24.2383 9.72485 22.2187 11.977 21.115 13.1735C18.203 16.3406 17.569 17.3024 17.569 18.5224C17.569 20.4696 19.5651 21.8537 21.3264 21.1499C21.7256 20.9857 23.1815 19.7423 24.5436 18.3816C25.9056 17.0209 26.9389 16.1294 26.845 16.3875C25.3185 20.5399 22.5475 29.5955 20.8567 35.9767C19.6825 40.4341 17.4985 48.5982 16.0191 54.1582C8.71569 81.4188 5.47496 95.4715 2.44559 113.301C-0.208044 128.832 -0.489823 131.999 0.590418 133.852C1.08357 134.697 1.92897 134.955 2.75089 134.533C3.78416 133.969 6.39083 123.999 9.09143 110.251C11.5572 97.8175 15.1502 82.2165 19.4477 65.4191C20.6218 60.774 23.0171 51.3665 24.7549 44.5396C28.7001 29.1028 28.7237 29.009 30.7902 22.7217L32.481 17.5605L32.6219 22.839C32.7628 28.3287 32.8802 29.5251 33.4673 31.8711C34.0544 34.2171 35.7922 37.0793 36.2853 36.5866C36.3793 36.5163 36.2618 35.6717 36.0505 34.7333C35.299 31.5192 35.4869 29.2436 37.6474 15.801C39.3382 5.33778 39.4321 3.57827 38.3519 1.49033C37.7883 0.387702 36.1209 -0.269157 34.8528 0.106204Z"
    fill="rgba(191, 192, 191, 1)" />
</svg>