<svg width="80" height="73" viewBox="0 0 80 73" fill="none" xmlns="http://www.w3.org/2000/svg">
  <path
    d="M75.8422 13.379C75.8117 13.3428 75.7811 13.3064 75.7501 13.27C75.61 13.12 75.48 12.96 75.34 12.81L75.36 12.83C75.34 12.81 75.3201 12.79 75.3101 12.77C75.2901 12.75 75.2701 12.72 75.2501 12.7L75.2601 12.71C75.2601 12.7 75.2501 12.7 75.24 12.69L75.23 12.68C75.1972 12.6443 75.1644 12.6076 75.1315 12.5703C75.1027 12.5376 75.0739 12.5043 75.0451 12.4707C75.0124 12.4326 74.9797 12.394 74.947 12.3553L74.9001 12.3C74.3886 11.7267 73.87 11.1594 73.3517 10.5923C72.3659 9.51367 71.381 8.43591 70.447 7.32007C70.4275 7.50732 70.4065 7.69458 70.3851 7.88184C70.3635 8.07123 70.3414 8.26062 70.3201 8.45001C70.22 9.36002 70.09 10.27 69.96 11.18C69.71 13.01 69.5201 14.85 69.3902 16.7L69.3876 16.739C69.2984 18.0363 69.2084 19.343 69.0401 20.64C68.8702 21.91 68.7302 23.18 68.6402 24.46C68.6168 25.4244 68.6056 26.391 68.5945 27.358V27.359C68.5723 29.2894 68.5501 31.2214 68.4302 33.14L68.4299 33.1481C68.2199 36.5154 68.0099 39.8827 67.6502 43.24C67.5702 44.0078 67.4825 44.7756 67.3947 45.5434C67.2847 46.5056 67.1746 47.4678 67.0801 48.43C66.9001 50.14 66.7601 51.84 66.6302 53.54C66.5801 54.4 66.5301 55.26 66.5001 56.13C66.4852 56.4821 66.4744 56.8343 66.4637 57.1864C66.4456 57.7743 66.4277 58.3622 66.3902 58.95C66.3773 59.1582 66.3647 59.3665 66.3521 59.5747C66.2775 60.8164 66.2028 62.0582 66.0401 63.3C65.8702 64.56 65.6002 65.8 65.2501 67.02C64.9201 68.18 64.4601 69.38 63.7501 70.35C63.1501 71.17 62.4401 71.81 61.5001 72.21C61.0601 72.4 60.6102 72.48 60.1501 72.48C59.4601 72.43 58.7802 72.25 58.1601 71.99C57.4401 71.68 56.7801 71.26 56.1301 70.83C55.2801 70.28 54.48 69.69 53.72 69.01C52.8383 68.2325 52.1003 67.2571 51.3868 66.3142L51.2701 66.16C51.1386 65.987 51.0071 65.8135 50.8755 65.6399C50.4367 65.0605 49.9964 64.4793 49.5501 63.91C49.4044 63.7265 49.258 63.5436 49.1116 63.3608C48.6755 62.8162 48.2393 62.2715 47.82 61.71C47.1801 60.87 46.5701 60.01 45.97 59.15C44.9101 57.62 43.9401 56.01 43.0101 54.41C42.0201 52.71 41.0701 51 40.1801 49.24C39.3401 47.57 38.5201 45.9 37.7 44.22L37.1502 43.0912C36.4721 41.7004 35.7956 40.3133 35.1501 38.92C34.2702 37.03 33.4201 35.13 32.58 33.22C31.8885 31.6598 31.2752 30.064 30.6622 28.4687C30.5483 28.1724 30.4344 27.8761 30.32 27.58C30.1601 27.167 30.0008 26.7539 29.8416 26.341L29.7306 26.0535L29.7266 26.0432C29.2574 24.8261 28.7887 23.6106 28.3101 22.4C28.039 21.7219 27.778 21.0489 27.5162 20.3738L27.5077 20.3523C27.4054 20.0887 27.3032 19.8247 27.2 19.56C27.1373 19.399 27.0749 19.2376 27.0126 19.0761L26.8594 18.6784C26.3274 17.2959 25.7931 15.9073 25.1501 14.58C24.7402 13.76 24.3101 12.96 23.8101 12.2C23.8101 12.21 23.82 12.21 23.82 12.22C23.4101 11.63 22.9601 11.07 22.5001 10.53C21.9567 9.92734 21.3744 9.36371 20.7625 8.82953C20.7675 8.83301 20.7732 8.83652 20.7801 8.84C19.7101 7.89999 18.5901 6.98999 17.4201 6.17999C17.0302 5.92999 16.6301 5.70001 16.21 5.48001C16.09 5.42001 15.96 5.37 15.83 5.32001C15.6 5.23999 15.3702 5.17999 15.1301 5.12C15.0101 5.09998 14.8902 5.07999 14.7701 5.07001C14.7367 5.07001 14.7034 5.06891 14.6701 5.06778C14.6034 5.06555 14.5368 5.06332 14.47 5.07001C14.36 5.07999 14.2402 5.09998 14.1301 5.12C14.0929 5.12927 14.0558 5.13855 14.0187 5.14813C13.9358 5.16953 13.853 5.19238 13.7701 5.22C13.6801 5.25 13.5901 5.28998 13.5001 5.32999C13.3702 5.39996 13.2402 5.47 13.12 5.56C13.0301 5.62 12.9501 5.67999 12.87 5.75C12.7001 5.91 12.5401 6.06998 12.3801 6.23999C12.3316 6.30457 12.2833 6.36749 12.2348 6.43076C12.1633 6.52429 12.0917 6.61859 12.0201 6.72C11.8702 6.94998 11.73 7.17999 11.6 7.42999C11.3801 7.87997 11.1901 8.34 11.0101 8.81C10.7701 9.51999 10.5801 10.25 10.4201 10.99C10.1406 12.4073 9.97088 13.8416 9.8012 15.2764L9.80083 15.2783C9.70965 16.0496 9.61846 16.821 9.51006 17.59C9.24017 19.49 8.87005 21.36 8.49004 23.23C8.45184 23.4283 8.41253 23.6266 8.3731 23.8251L8.37237 23.8281C8.24712 24.4597 8.12139 25.0941 8.03008 25.74L7.97991 26.1123C7.86529 26.9604 7.74993 27.8152 7.68011 28.67C7.60821 29.4771 7.54583 30.2841 7.48345 31.0911C7.38982 32.304 7.2962 33.517 7.1701 34.73C7.04266 36.0113 6.8792 37.2881 6.71587 38.5634L6.71331 38.5831C6.63409 39.2023 6.55486 39.8212 6.48003 40.44C6.25005 42.35 6.10003 44.28 5.95 46.21C5.84991 47.4969 5.7271 48.7816 5.6043 50.0662C5.46954 51.4766 5.33477 52.8869 5.23003 54.3V54.19C5.1701 55.16 5.10015 56.13 5.03008 57.1V57.28C5.00811 57.6937 4.98663 58.1079 4.96514 58.5222L4.95562 58.705C4.88274 60.1128 4.80987 61.522 4.72002 62.92V62.99C4.72002 63.04 4.71001 63.09 4.71001 63.14V63.11C4.67437 63.7171 4.63348 64.3242 4.59258 64.9299C4.5534 65.5115 4.51434 66.092 4.48003 66.67V66.76C4.48003 66.97 4.45013 67.2 4.43011 67.41C4.36016 68.28 3.51018 68.94 2.68011 68.94C1.75018 68.94 0.86016 68.14 0.910087 67.17C0.936576 66.6009 0.980522 66.0361 1.02459 65.4699C1.04717 65.1805 1.06976 64.8908 1.09002 64.6C1.08538 64.6379 1.08294 64.6758 1.0805 64.7137L1.08013 64.7192C1.07757 64.7595 1.075 64.7997 1.07 64.84C1.0899 64.512 1.11224 64.184 1.13457 63.856C1.14849 63.653 1.16241 63.4499 1.17559 63.2469C1.18401 63.1179 1.19219 62.989 1.2 62.86C1.23186 62.2774 1.26214 61.6941 1.29241 61.1103C1.36651 59.68 1.44073 58.2475 1.54009 56.82V56.84C1.59624 55.9515 1.66106 55.0717 1.72649 54.1843L1.73016 54.1192C1.72759 54.1595 1.72503 54.1997 1.72002 54.24C1.79974 52.9991 1.92327 51.7626 2.04705 50.5247L2.04742 50.5227C2.11016 49.8958 2.1729 49.2685 2.23003 48.64C2.31573 47.7134 2.38616 46.7817 2.45672 45.8488C2.52618 44.9292 2.59576 44.0083 2.68011 43.09C2.86016 41.2 3.07012 39.32 3.31011 37.44C3.56011 35.49 3.79021 33.53 3.93011 31.57L3.94573 31.3588C4.01055 30.4779 4.0761 29.5896 4.15008 28.71C4.24017 27.7 4.35015 26.71 4.49004 25.71C4.70354 24.1539 5.02776 22.6137 5.35003 21.0822L5.35076 21.078C5.39068 20.8885 5.43047 20.6992 5.47002 20.51C5.52007 20.2233 5.57232 19.9366 5.62456 19.6499C5.72906 19.0766 5.83355 18.5033 5.9201 17.93C5.95489 17.6716 5.99029 17.4131 6.02569 17.1547C6.13274 16.3731 6.2398 15.5916 6.33001 14.81L6.3659 14.5171C6.76336 11.2584 7.17254 7.90469 8.9201 5.06C10.0801 3.16998 12.0002 1.70996 14.2601 1.57999C16.7101 1.43997 18.9802 2.81 20.8101 4.31C20.9992 4.46545 21.1882 4.62 21.3769 4.77426L21.3805 4.77728C22.2587 5.49515 23.1298 6.20718 23.96 6.98001C24.8801 7.84 25.71 8.81998 26.45 9.82999C27.2601 10.94 27.8901 12.15 28.49 13.38C29.1004 14.6089 29.585 15.8973 30.0677 17.1808C30.178 17.4744 30.2884 17.7677 30.4001 18.06C30.5622 18.4775 30.7243 18.8927 30.8864 19.3078L31.1454 19.9716C31.227 20.1807 31.3085 20.39 31.3901 20.6C31.9738 22.0797 32.5507 23.5729 33.1264 25.063L33.5001 26.03C34.2501 27.97 35.0201 29.91 35.82 31.83C36.4891 33.4498 37.228 35.0386 37.9683 36.6306L38.2701 37.28C39.6402 40.23 41.0701 43.14 42.5001 46.05L42.5879 46.2249C43.4888 48.0172 44.3932 49.8164 45.4101 51.55C46.5202 53.45 47.6701 55.32 48.87 57.17L48.9631 57.3024L48.9649 57.305C49.4523 57.9988 49.9335 58.6838 50.45 59.36C50.7593 59.7666 51.0785 60.1699 51.3981 60.5738L51.4014 60.5781C51.5359 60.7481 51.6706 60.9182 51.8046 61.0888C51.9069 61.2189 52.0088 61.3493 52.11 61.48C52.5075 61.9846 52.8942 62.4976 53.2809 63.0106L53.2875 63.0194L53.2883 63.0204C54.018 63.9886 54.7479 64.9569 55.5501 65.87C55.8001 66.14 56.0701 66.4 56.34 66.65C56.7501 66.99 57.1701 67.31 57.61 67.61L57.7468 67.6988C58.27 68.0389 58.788 68.3756 59.34 68.67C59.35 68.67 59.3602 68.68 59.37 68.68C59.4001 68.69 59.4401 68.71 59.47 68.73L59.4621 68.7271C59.4429 68.7178 59.4239 68.7082 59.4051 68.6985L59.4142 68.7035C59.4313 68.7129 59.4468 68.7212 59.4621 68.7271C59.5651 68.7773 59.6727 68.8216 59.7801 68.86C59.8201 68.88 59.8602 68.89 59.9001 68.9C59.9501 68.91 60.0102 68.92 60.0601 68.92H60.11C60.12 68.915 60.1302 68.9125 60.1402 68.91C60.1502 68.9075 60.1602 68.905 60.1701 68.9C60.1901 68.89 60.2201 68.88 60.2501 68.86C60.2801 68.84 60.3101 68.83 60.34 68.81C60.3801 68.78 60.4101 68.76 60.45 68.73C60.4894 68.6971 60.5289 68.6599 60.5683 68.6184C60.5889 68.5968 60.6096 68.574 60.6301 68.55C60.7201 68.45 60.8001 68.35 60.87 68.24C60.9802 68.07 61.0701 67.9 61.1701 67.73C61.3602 67.34 61.5202 66.95 61.6701 66.54C61.9002 65.82 62.0901 65.09 62.2501 64.34C62.4501 63.27 62.59 62.2 62.7 61.12C62.7165 60.8504 62.7352 60.5797 62.7538 60.3087L62.7546 60.2961C62.7923 59.7469 62.8301 59.1962 62.85 58.65C62.8661 58.2731 62.879 57.8961 62.8918 57.5192C62.9109 56.9561 62.9301 56.3931 62.96 55.83L62.9618 55.7934C63.0613 53.8454 63.1613 51.8878 63.36 49.94C63.4808 48.7511 63.6124 47.5658 63.7438 46.382L63.7468 46.3569L63.7519 46.3092C63.8356 45.5557 63.9194 44.8029 64.0001 44.05C64.2101 42.07 64.3802 40.09 64.5401 38.1L64.5545 37.9103L64.5582 37.8643C64.632 36.8943 64.7054 35.9321 64.7701 34.97V34.84C64.8101 34.25 64.8401 33.66 64.8901 33.07C64.9802 31.25 65.0202 29.43 65.0401 27.61C65.0447 27.1285 65.0514 26.6449 65.0593 26.1611C65.0684 25.5899 65.0793 25.0185 65.0901 24.45C65.1174 23.5578 65.2193 22.6573 65.3204 21.7635L65.3502 21.5C65.4601 20.56 65.58 19.62 65.69 18.68C65.7607 18.0018 65.8064 17.3136 65.852 16.6296C65.8709 16.3453 65.8897 16.0618 65.9102 15.78C66.0401 13.91 66.2701 12.05 66.5201 10.2C66.7001 8.87 66.8801 7.53 66.98 6.20001C66.99 5.97 67.0001 5.73999 66.99 5.5C66.3991 5.84476 65.835 6.22321 65.2703 6.60217C65.1507 6.68246 65.0309 6.76276 64.9109 6.84277L64.91 6.84341L64.9001 6.85001C64.9037 6.8476 64.9073 6.84518 64.9109 6.84277C64.9338 6.82758 64.9567 6.81238 64.9802 6.79718C65.0148 6.77478 65.051 6.75238 65.0901 6.73001C64.1301 7.39001 63.1901 8.06 62.2701 8.76001C62.1065 8.88525 61.9429 9.01172 61.7794 9.13855L61.5673 9.30325C61.3316 9.48633 61.0959 9.66943 60.86 9.85001C60.7595 9.92639 60.6585 10.0042 60.5571 10.0823C60.1138 10.4239 59.6602 10.7733 59.1801 11.05C58.1602 11.63 56.9301 11.09 56.58 9.98999C56.558 9.92941 56.5422 9.87189 56.5306 9.81406C56.521 9.76685 56.5146 9.71945 56.5101 9.67001C56.4701 9.19 56.5601 8.73999 56.86 8.35001C57.0901 8.04999 57.4101 7.82999 57.7701 7.73001C58.1382 7.45786 58.5021 7.18069 58.8647 6.90216C59.019 6.78363 59.173 6.66486 59.3271 6.54608C60.1673 5.89813 61.0064 5.25104 61.8801 4.64999C62.7674 4.04184 63.6647 3.44363 64.5619 2.84549L64.57 2.84C65.2118 2.41214 65.9354 1.98972 66.7043 1.79755C66.7792 0.924164 67.6028 0.220001 68.47 0.220001C69.1299 0.220001 69.67 0.579987 69.98 1.09C70.4223 1.70786 70.9042 2.29614 71.3874 2.88599L71.3896 2.88882C71.5938 3.13815 71.7983 3.38776 72.0001 3.64001C72.6808 4.48163 73.3796 5.31427 74.0709 6.138L74.147 6.22873C74.6158 6.74863 75.0906 7.26395 75.5656 7.77936L75.5689 7.78302C76.2244 8.49432 76.8802 9.20587 77.5201 9.92999L77.5601 9.97C77.5701 9.98001 77.58 9.98999 77.58 10C77.6336 10.0614 77.6874 10.1226 77.7414 10.1837C77.8018 10.2522 77.8625 10.3205 77.9231 10.3888C78.0525 10.5346 78.1821 10.6804 78.3099 10.8278C78.4078 10.9406 78.5047 11.0545 78.6 11.17C79.35 11.67 79.56 12.74 79.11 13.52C78.78 14.09 78.19 14.38 77.58 14.38C77.29 14.39 76.98 14.32 76.7 14.16C76.3428 13.9725 76.0972 13.6813 75.8422 13.379Z"
    fill="rgba(191, 192, 191, 1)" />
  <path d="M75.24 12.7L75.23 12.69C75.23 12.7 75.24 12.71 75.2501 12.71L75.24 12.7Z" fill="rgba(191, 192, 191, 1)" />
</svg>