<svg width="65" height="76" viewBox="0 0 65 76" fill="none" xmlns="http://www.w3.org/2000/svg">
  <path fill-rule="evenodd" clip-rule="evenodd"
    d="M1.21 56.89C0.519993 61.8101 0.729954 67.41 4.22995 71.3001C6.81992 74.1901 10.74 75.3501 14.55 75.38C15.7199 75.38 16.8899 75.27 18.01 75.07C20.67 74.6 23.1899 73.6701 25.61 72.49C27.2699 71.6801 28.9099 70.79 30.46 69.78C31.48 69.13 32.49 68.4701 33.5 67.8101C34.0786 67.434 34.6311 67.016 35.1839 66.5978C35.3954 66.4378 35.6069 66.2777 35.82 66.12C35.9945 65.9911 36.169 65.8637 36.3432 65.7365C36.8176 65.3901 37.2892 65.0458 37.75 64.6801C38.74 63.8901 39.7199 63.11 40.7 62.33C41.2989 61.8508 41.8877 61.3517 42.4767 60.8526L42.48 60.85C43.2399 60.22 44.0199 59.6 44.75 58.94C44.9903 58.7214 45.2309 58.5036 45.4715 58.2858C46.662 57.2075 47.8503 56.1314 48.99 55C49.2132 54.7797 49.4391 54.561 49.6653 54.3422C50.209 53.8159 50.7544 53.288 51.27 52.73C51.52 52.45 51.78 52.1801 52.03 51.91C52.95 52.3101 53.86 52.7301 54.78 53.16L54.9334 53.2367C55.4837 53.5115 56.0393 53.789 56.57 54.1C57.19 54.46 57.79 54.83 58.39 55.23C59.11 55.72 59.8499 56.2001 60.51 56.77C61.18 57.3401 62.2499 57.22 62.8499 56.62C63.4199 56.0501 63.5 55.2101 63.15 54.51C63.14 54.4701 63.1299 54.4401 63.11 54.41C63.0599 54.2201 63.0099 54.03 62.9699 53.84C62.8199 53.01 62.74 52.1799 62.68 51.34C62.48 47.28 62.39 43.2001 62.59 39.14C62.95 38.5601 63.3 37.96 63.64 37.36C63.75 37.15 63.8699 36.9201 63.98 36.71C64.1999 36.32 64.4499 35.8801 64.5 35.4201L64.5089 35.3252C64.5273 35.1369 64.5456 34.9484 64.52 34.76C64.5101 34.6513 64.4831 34.5497 64.4498 34.4507C64.4158 34.3496 64.3753 34.2511 64.34 34.15C64.19 33.76 63.86 33.4199 63.52 33.19C62.68 32.61 61.54 32.52 60.56 32.66C59.3899 32.8301 58.2699 33.2101 57.18 33.6701C55.9816 34.1871 54.8236 34.7918 53.6675 35.3955C53.415 35.5274 53.1626 35.6592 52.9099 35.7901C52.2942 36.1157 51.6834 36.4363 51.0706 36.7589C50.8175 36.8921 50.5642 37.0256 50.31 37.16C49.8257 37.4187 49.3387 37.6747 48.8512 37.9309C47.7179 38.5266 46.5817 39.1238 45.4699 39.76C43.8299 40.7101 42.2099 41.6901 40.64 42.74C40.5837 42.7838 40.5235 42.8236 40.4619 42.8644C40.4249 42.8889 40.3874 42.9137 40.3499 42.94C40.3449 42.94 40.3424 42.9425 40.3399 42.9451C40.3374 42.9475 40.3349 42.95 40.33 42.95C40.2799 42.99 40.2199 43.03 40.1599 43.07C40.1799 43.0499 40.19 43.0401 40.21 43.03C39.86 43.27 39.5099 43.51 39.18 43.76L39.1267 43.7993C38.9119 43.9578 38.6846 44.1254 38.5 44.3101C38.1999 44.6201 37.9699 45.0801 37.9099 45.51C37.7899 46.4301 38.4099 47.3101 39.17 47.76C40.1199 48.3201 41.18 48.66 42.25 48.9301C42.682 49.0371 43.1156 49.1369 43.5489 49.2366C44.2489 49.3976 44.9482 49.5586 45.64 49.75C46.0247 49.8529 46.4094 49.9597 46.795 50.067C47.2714 50.1996 47.7491 50.3329 48.23 50.46C48.2999 50.49 48.38 50.52 48.45 50.5401L47.2199 51.77L47.0124 51.9808C46.3812 52.622 45.7469 53.2662 45.08 53.87C44.7911 54.1332 44.5033 54.3964 44.2158 54.6592C43.6076 55.2153 43.0011 55.77 42.39 56.32C40.6599 57.7999 38.8999 59.2501 37.12 60.6701L36.8086 60.9194C36.1141 61.4758 35.4234 62.0293 34.71 62.5601C33.69 63.3101 32.6599 64.0599 31.65 64.82C31.221 65.0942 30.7946 65.3711 30.3681 65.648C29.9396 65.9262 29.5111 66.2044 29.08 66.48C27.6499 67.41 26.1799 68.26 24.6599 69.03C23.3699 69.6701 22.0799 70.26 20.7199 70.73C19.8499 71.01 18.9699 71.26 18.08 71.46C17.31 71.6 16.5299 71.7101 15.74 71.78C15.0099 71.8201 14.29 71.8201 13.56 71.78C12.9699 71.7301 12.3899 71.65 11.81 71.5501C11.2799 71.4401 10.7699 71.3001 10.25 71.14C9.84995 70.99 9.45994 70.8201 9.07999 70.64C8.76999 70.4701 8.46994 70.29 8.16996 70.1C7.91996 69.9201 7.68992 69.7501 7.46994 69.5601L7.46555 69.556C7.22709 69.3274 6.99863 69.1085 6.78995 68.87C6.67344 68.7289 6.56064 68.5841 6.44931 68.4379C6.37912 68.3456 6.30954 68.2528 6.23996 68.16C5.98996 67.77 5.76993 67.38 5.55997 66.97C5.57871 66.9982 5.59525 67.0286 5.61167 67.0601C5.63028 67.0957 5.64872 67.1329 5.66996 67.1701C5.54075 66.8911 5.42075 66.6123 5.30686 66.3303C5.25333 66.1978 5.20115 66.0645 5.15 65.9301C4.96994 65.3901 4.82999 64.8401 4.71 64.2901C4.59995 63.7101 4.52994 63.1201 4.47995 62.53C4.42991 61.5601 4.42991 60.6 4.47995 59.63V59.58C4.58994 58.22 4.77994 56.8801 5.03995 55.5401C5.28995 54.39 5.59995 53.27 5.97995 52.16C6.33994 51.2001 6.72995 50.26 7.17997 49.34C7.89994 47.95 8.69993 46.6001 9.55997 45.3001C10.8899 43.3401 12.3499 41.48 13.9 39.7C15.4699 37.94 17.1399 36.26 18.88 34.6701C19.2027 34.3764 19.5275 34.0827 19.8531 33.7883C20.5226 33.1829 21.1953 32.5748 21.8593 31.9579C22.2416 31.6267 22.6233 31.2952 23.005 30.9638C25.1961 29.0617 27.3835 27.1629 29.62 25.32C29.9283 25.0692 30.2365 24.8202 30.5448 24.5714C30.9865 24.2151 31.4283 23.8593 31.87 23.5C32.49 23 33.0899 22.48 33.7199 22C34.4399 21.4601 35.1599 20.91 35.87 20.37C36.0788 20.2109 36.2867 20.0491 36.4948 19.887C36.9544 19.5291 37.4151 19.1703 37.89 18.84C38.5296 18.3905 39.1654 17.9336 39.8015 17.4765C40.6374 16.8759 41.4739 16.2748 42.32 15.69C43.93 14.58 45.5299 13.4801 47.14 12.38C48.9099 11.1701 50.68 9.95002 52.44 8.71998C53.13 8.24 53.8099 7.75007 54.49 7.26002C54.8962 6.96553 55.3 6.66645 55.7043 6.36708C56.4945 5.78199 57.2863 5.19569 58.0999 4.64003C58.4499 4.41005 58.8099 4.18 59.18 3.97999C59.2699 3.99 59.37 4.00001 59.46 4.00001C60.42 4.00001 61.23 3.19001 61.23 2.22999C61.23 1.44001 60.7199 0.810069 60.02 0.510021C59.04 0.100047 57.86 0.600047 57.03 1.12001C55.8801 1.83979 54.7849 2.64161 53.6936 3.44056C53.4657 3.60743 53.238 3.77418 53.01 3.94001C51.3999 5.11006 49.7699 6.26002 48.13 7.40998C46.8358 8.32246 45.5221 9.20893 44.208 10.0956C42.6995 11.1135 41.1905 12.1318 39.71 13.19C36.49 15.48 33.2899 17.77 30.2199 20.26C27.0399 22.8301 23.93 25.4601 20.84 28.14C19.5638 29.2444 18.321 30.3755 17.0789 31.5061C16.8026 31.7576 16.5265 32.0089 16.25 32.26C13 35.23 9.99997 38.52 7.44999 42.12C5.90995 44.3001 4.46 46.5901 3.4 49.0401C2.31998 51.5501 1.58994 54.1801 1.21 56.89ZM55.6792 49.6509C55.3155 49.4777 54.9502 49.3038 54.58 49.14C55.184 48.4769 55.7708 47.8052 56.3601 47.1304C56.6684 46.7775 56.9774 46.4237 57.29 46.07C57.2799 46.08 57.27 46.08 57.27 46.09C57.8399 45.4299 58.3999 44.76 58.95 44.07V44.86C58.95 46.22 58.95 47.5701 59.02 48.9301C59.06 49.7601 59.0999 50.5901 59.14 51.41V51.49L58.24 50.95C57.5599 50.5599 56.8299 50.2 56.12 49.86C55.9731 49.7909 55.8263 49.721 55.6792 49.6509ZM42.95 45.44C45.01 44.0599 47.17 42.8301 49.36 41.6701C51.74 40.41 54.12 39.15 56.51 37.9201C56.49 37.9401 56.4699 37.95 56.44 37.96C56.4697 37.9525 56.4939 37.9396 56.5208 37.9253C56.5301 37.9203 56.5397 37.9152 56.55 37.91C56.5559 37.9041 56.562 37.8981 56.568 37.8942C56.5713 37.8921 56.5744 37.8906 56.5777 37.8901C56.5685 37.8915 56.5591 37.9 56.55 37.9C57.5799 37.4 58.61 36.9 59.7 36.51C59.73 36.5 59.75 36.49 59.78 36.48C59.31 36.87 59.17 37.4201 59.12 38.01C58.87 38.38 58.6199 38.75 58.3499 39.1C57.8699 39.72 57.3999 40.34 56.92 40.96C56.2957 41.7706 55.6321 42.5618 54.9716 43.349C54.8267 43.5217 54.6819 43.6942 54.5378 43.8667C54.553 43.8486 54.5681 43.8306 54.5833 43.8131C54.6089 43.7837 54.6344 43.7555 54.6599 43.73C54.6162 43.7791 54.5725 43.8281 54.5289 43.8773C53.6026 44.9201 52.6767 45.9796 51.76 47.03L51.13 47.72C50.2699 47.4 49.41 47.11 48.53 46.86C47.68 46.63 46.8399 46.3801 45.99 46.1801C45.719 46.1157 45.4467 46.0527 45.1739 45.9896C44.4295 45.8176 43.6817 45.6449 42.95 45.44Z"
    fill="rgba(191, 192, 191, 1)" />
  <path d="M40.5999 42.75C40.5899 42.76 40.58 42.76 40.57 42.77C40.58 42.77 40.5899 42.76 40.5999 42.75Z"
    fill="rgba(191, 192, 191, 1)" />
</svg>