<svg width="131" height="126" viewBox="0 0 131 126" fill="none" xmlns="http://www.w3.org/2000/svg">
  <path
    d="M30.6664 7.11321C34.8691 3.9847 38.7496 2.09147 42.818 1.17843L42.8314 1.15159C45.4766 0.560798 49.9344 0.560798 52.217 1.15159C56.1646 2.17205 59.7228 4.80374 62.2605 8.52303C63.9255 10.9936 63.9255 11.5441 62.3276 11.289C61.6429 11.1547 59.2931 10.9936 57.1448 10.8996C52.2573 10.6714 49.2362 11.3293 44.7649 13.5716C39.4881 16.2168 34.5872 20.3254 25.5641 29.7109C18.2597 37.2704 14.0168 44.5479 11.5462 53.638C7.86713 67.1053 8.98159 79.23 15.1044 92.8853C17.6152 98.5247 19.6025 101.693 22.5699 104.849C26.88 109.414 31.3781 111.925 38.7093 113.818C51.1294 117.014 65.765 115.121 79.125 108.568C86.9396 104.728 93.0758 100.297 99.7223 93.6103C104.475 88.8437 107.215 85.487 110.867 80.049C115.956 72.3553 117.325 68.2601 117.554 59.519C117.742 53.356 117.258 48.7639 115.821 42.668C115.462 41.3554 114.863 39.7966 114.143 38.8011C113.424 37.8055 112.102 37.3912 112.102 37.3912C110.961 38.5997 109.793 46.092 109.793 52.161C109.766 56.1623 109.793 56.8227 108.88 56.7531C107.967 56.6834 101.673 38.5613 88.8425 27.3268C87.6434 26.2768 85.6909 23.5479 85.758 23.1182C85.8923 22.2052 88.3701 21.935 90.881 21.4516C95.4462 20.6057 109.707 22.9971 114.863 24.6889C119.133 26.0585 127.745 31.3625 130.215 36.2902C131.397 38.6131 131.008 38.8011 127.678 37.7269C125.274 36.975 119.769 35.9008 118.198 35.9008C117.782 35.9008 118.399 36.7467 120.32 38.8011C124.818 43.5945 129.1 50.745 129.851 56.2232C131.114 65.2865 129.638 72.0599 128.43 77.4039C126.738 84.7351 119.957 94.8993 110.598 104.03C97.8156 116.477 87.8795 121.847 72.1698 124.721C67.5642 125.567 57.2388 125.755 53.0629 125.043C41.6901 123.15 31.5123 117.846 22.4893 109.105C16.4337 103.17 11.9356 97.1014 8.1491 89.6762C-3.65336 66.5951 -1.32921 46.1514 12.9023 25.0383C16.8556 19.1734 27.0545 9.81205 30.6664 7.11321Z"
    fill="rgba(191, 192, 191, 1)" />
</svg>