<svg width="60" height="67" viewBox="0 0 60 67" fill="none" xmlns="http://www.w3.org/2000/svg">
  <path
    d="M0.609988 65.11C0.529971 64.47 0.82001 63.82 1.32001 63.43C1.74964 63.0155 2.15082 62.5612 2.54926 62.11C2.67951 61.9625 2.80945 61.8153 2.94001 61.67C3.14234 61.4506 3.34351 61.2311 3.54431 61.012C3.79419 60.7393 4.04346 60.4673 4.29383 60.1967C4.42884 60.0507 4.56409 59.9051 4.69995 59.76C5.7699 58.61 6.82996 57.44 7.87 56.27C9.11365 54.7928 10.3136 53.2847 11.5142 51.7758C12.6786 50.3122 13.8438 48.8477 15.0501 47.41C17.3247 44.6859 19.6666 42.0038 21.9988 39.333L22.63 38.61C24.6663 36.2793 26.6423 33.8884 28.6184 31.4974C29.0587 30.9647 29.499 30.432 29.9399 29.9C32.3999 26.94 34.8501 23.97 37.29 20.99C38.65 19.33 40.03 17.67 41.42 16.03C42.4869 14.7698 43.5837 13.5395 44.6827 12.3067C44.9602 11.9955 45.2377 11.6842 45.5149 11.3722L45.5486 11.332C45.5613 11.3171 45.574 11.3023 45.5867 11.2879C45.6073 11.2645 45.6279 11.2421 45.6486 11.2214C46.6169 10.1203 47.5596 9.0018 48.5039 7.8812C48.9115 7.39743 49.3195 6.9133 49.73 6.42999C50.3003 5.76129 50.8707 5.10229 51.441 4.44342L51.47 4.41C50.63 4.52002 49.7899 4.63998 48.96 4.76999C48.6976 4.81186 48.4353 4.85529 48.1727 4.89874C47.4945 5.01099 46.8148 5.12347 46.13 5.20999C45.04 5.35001 43.96 5.5 42.88 5.67999C42.0501 5.85999 41.23 6.04001 40.4 6.23001C40.2307 6.26822 40.0607 6.30942 39.8901 6.35077C39.436 6.46085 38.978 6.57187 38.52 6.63C37.5601 6.75 36.66 6.07999 36.53 5.12C36.4 4.17001 37.0801 3.23999 38.04 3.12C38.13 3.11002 38.22 3.09 38.32 3.07999C38.898 2.95758 39.4725 2.82709 40.0464 2.69675C41.1603 2.44379 42.2715 2.19141 43.4 2C43.8879 1.91388 44.379 1.85419 44.8716 1.79431L44.8745 1.79395C45.2393 1.74963 45.6046 1.70523 45.97 1.64999C46.7838 1.5275 47.59 1.39731 48.402 1.26617L48.75 1.20999C49.7626 1.05212 50.778 0.912048 51.7932 0.772003C52.6429 0.654785 53.4926 0.537567 54.34 0.410004C55.09 0.300018 55.91 0.230011 56.5501 0.730011C57.1194 1.17078 57.3093 1.85605 57.2127 2.53033C57.2822 2.63043 57.3419 2.74039 57.39 2.85999C57.6699 3.56 57.7599 4.28 57.85 5.01999C57.8999 5.42999 57.96 5.82999 58 6.23999C58.1 7.24969 58.2 8.26028 58.29 9.26999C58.45 11.11 58.6699 12.93 59 14.73C59.26 15.95 59.4899 17.14 59.46 18.4C59.4509 18.6905 59.4315 18.983 59.4121 19.2758C59.3888 19.628 59.3655 19.9805 59.36 20.33C59.4399 20.49 59.5 20.67 59.52 20.87C59.64 21.79 58.97 22.78 58 22.87C57.9299 22.87 57.87 22.88 57.8101 22.88C57.15 22.87 56.47 22.57 56.14 21.94C55.9 21.49 55.82 21.03 55.83 20.53C55.8341 20.1209 55.8566 19.7151 55.879 19.3107C55.9114 18.7265 55.9436 18.145 55.92 17.56C55.87 17.08 55.7899 16.62 55.7 16.14C55.33 14.36 55.0499 12.58 54.88 10.76C54.8385 10.312 54.7993 9.86313 54.7601 9.41394C54.671 8.39377 54.5818 7.37183 54.4651 6.35309C54.3257 6.51578 54.1863 6.67841 54.0469 6.841L54.0333 6.85666C52.9932 8.07019 51.9541 9.2825 50.9301 10.51C49.2478 12.5189 47.5066 14.4691 45.7745 16.4089L45.72 16.47L45.717 16.4729C45.7145 16.4753 45.7122 16.4775 45.71 16.48C45.7062 16.4838 45.7039 16.4876 45.7018 16.4909C45.6985 16.4962 45.6962 16.5 45.6899 16.5L45.6801 16.51L45.65 16.54C43.1801 19.4 40.77 22.33 38.38 25.25C36.5581 27.4768 34.7194 29.6867 32.8806 31.8966L32.8444 31.9401C32.2427 32.6632 31.641 33.3863 31.04 34.11C28.61 37.04 26.16 39.95 23.65 42.81C21.09 45.73 18.5499 48.68 16.1 51.69C15.8158 52.0404 15.5337 52.3923 15.2528 52.7451C14.8867 53.2047 14.5227 53.6658 14.1588 54.1269C12.7777 55.8766 11.3975 57.6252 9.91004 59.29C9.06275 60.2423 8.19849 61.1777 7.33435 62.1131C7.04602 62.4252 6.75769 62.7373 6.46997 63.05L6.45276 63.0686C5.88855 63.6824 5.32422 64.2963 4.76001 64.92L4.65125 65.0369L4.56861 65.125C4.37293 65.3339 4.17859 65.5413 3.98999 65.76C3.62 66.15 3.19007 66.55 2.63001 66.6C2.60291 66.6045 2.57581 66.607 2.54779 66.6084C2.5271 66.6094 2.50586 66.6097 2.48377 66.6099L2.44001 66.61C1.53998 66.63 0.739993 66.02 0.609988 65.11Z"
    fill="rgba(191, 192, 191, 1)" />
  <path d="M45.64 16.56C45.66 16.54 45.67 16.53 45.6801 16.51C45.67 16.52 45.66 16.54 45.64 16.56Z"
    fill="rgba(191, 192, 191, 1)" />
  <path d="M45.7 16.5C45.7 16.5 45.71 16.49 45.71 16.48C45.7042 16.4865 45.7 16.4935 45.7 16.5Z"
    fill="rgba(191, 192, 191, 1)" />
</svg>