<svg width="92" height="96" viewBox="0 0 92 96" fill="none" xmlns="http://www.w3.org/2000/svg">
  <path fill-rule="evenodd" clip-rule="evenodd"
    d="M79.5 62.6599C79.76 63.0999 80.1 63.5099 80.58 63.7199C80.7999 63.8099 81.0499 63.86 81.34 63.89C81.5199 63.89 81.69 63.87 81.86 63.8199C82.24 63.7099 82.61 63.4799 82.86 63.1599C83.1399 62.7999 83.25 62.3599 83.3001 61.9099C83.4501 60.8199 83.5299 59.7099 83.59 58.61L83.5907 58.5938C83.6404 57.7092 83.6901 56.8246 83.72 55.9399C83.75 54.7351 83.8019 53.5338 83.8538 52.3341C83.888 51.5423 83.9221 50.7511 83.95 49.9599C84.0299 48.88 84.1199 47.7999 84.2 46.73C84.3317 45.0093 84.5172 43.2964 84.7028 41.5844L84.78 40.87C84.97 39.0599 85.21 37.26 85.46 35.4599C85.4977 35.1914 85.5349 34.9232 85.572 34.6551C85.7715 33.216 85.9702 31.783 86.24 30.3499C86.3374 29.8207 86.4341 29.2914 86.5309 28.7622C86.8217 27.1714 87.1124 25.5807 87.4201 23.99C87.6234 23.0066 87.8323 22.0243 88.0412 21.042C88.4589 19.0775 88.8766 17.1132 89.25 15.14C89.62 13.2199 89.98 11.31 90.34 9.4C90.4817 8.63938 90.5855 7.8743 90.6892 7.10898C90.8052 6.25431 90.9212 5.39933 91.09 4.54996C91.1131 4.44944 91.1364 4.35489 91.1642 4.26169C91.1928 4.20353 91.2213 4.13669 91.25 4.06998C91.4299 3.70993 91.59 3.36997 91.63 2.96C91.6799 2.25998 91.41 1.54996 90.77 1.18998C90.31 0.939976 89.86 0.829991 89.34 0.899998C88.98 0.949986 88.62 1.0499 88.27 1.15995C88.093 1.21775 87.9147 1.27427 87.736 1.33091C87.4201 1.43094 87.103 1.53141 86.7901 1.63999C85.9301 1.92997 85.08 2.21994 84.25 2.55997C83.36 2.91996 82.46 3.25998 81.58 3.63999C80.46 4.11997 79.33 4.6099 78.21 5.09995C76.9926 5.62742 75.789 6.20066 74.5868 6.77329C74.0114 7.0474 73.4362 7.32132 72.86 7.59C71.6886 8.13742 70.5336 8.70517 69.3793 9.2725C68.7202 9.59635 68.0614 9.92014 67.4 10.24C64.23 11.7799 61.08 13.3899 57.96 15.04C57.5214 15.2704 57.0828 15.4997 56.6444 15.7287C55.314 16.424 53.9863 17.1179 52.6701 17.84C50.6801 18.94 48.6801 20.04 46.6801 21.13C43.39 22.94 40.09 24.7099 36.74 26.4099C36.7763 26.3857 36.8162 26.3652 36.8576 26.3439C36.8847 26.33 36.9123 26.3158 36.94 26.3C35.4105 27.0297 33.8812 27.7494 32.3518 28.4692L32.35 28.4699C31.6 28.8299 30.85 29.18 30.11 29.56C29.9534 29.6397 29.7968 29.7178 29.6405 29.7957C29.2483 29.9913 28.859 30.1854 28.48 30.4C27.74 30.82 26.99 31.2599 26.49 31.9699C26.12 32.4899 26.01 33.1399 26.26 33.74C26.47 34.24 26.9 34.5999 27.4201 34.76C27.9101 34.9099 28.36 34.8799 28.85 34.7899H28.84C28.9959 34.7597 29.1543 34.7296 29.3128 34.6994C29.4694 34.6696 29.6259 34.6398 29.78 34.61C31.72 34.2099 33.6499 33.7699 35.57 33.3199C36.3231 33.1424 37.0783 32.9706 37.8336 32.7987C38.8233 32.5735 39.8133 32.3481 40.8001 32.11C41.157 32.0232 41.5152 31.9398 41.8732 31.8564C42.5884 31.6898 43.3036 31.5232 44.01 31.33C44.5325 31.1843 45.055 31.0411 45.5774 30.8979C46.0949 30.7561 46.6124 30.6142 47.13 30.4699C47.9738 30.2417 48.8141 29.9885 49.6544 29.7334C49.3441 29.992 49.034 30.2507 48.7238 30.5094C46.7888 32.1225 44.8539 33.7357 42.9101 35.34L41.5471 36.4648C38.9618 38.5981 36.3788 40.7296 33.8101 42.89C32.4561 44.0267 31.1041 45.1676 29.7518 46.3088C25.1914 50.1574 20.6264 54.01 15.96 57.7199C15.1624 58.356 14.3626 58.9887 13.5631 59.6211C11.2958 61.4148 9.0306 63.2069 6.82002 65.07C5.33003 66.32 3.86 67.57 2.50002 68.96C2.21004 69.26 1.92006 69.56 1.64003 69.87C1.60518 69.9085 1.57021 69.947 1.53523 69.9854C1.28914 70.2556 1.0439 70.5248 0.860003 70.84C0.469988 71.51 0.459978 72.18 0.719988 72.89C0.705035 72.8551 0.692583 72.8177 0.680132 72.7803C0.66762 72.7427 0.655108 72.7051 0.640032 72.67L0.652422 72.7093C0.707232 72.8836 0.756975 73.0418 0.849993 73.2C1.08998 73.6 1.50002 73.93 1.96004 74.05C2.98598 74.3333 4.0978 73.8529 5.03438 73.4483L5.09999 73.42C6.2842 72.9044 7.43593 72.311 8.58663 71.7181C8.86434 71.5749 9.14198 71.4319 9.42 71.29C11.24 70.36 13.05 69.45 14.87 68.52C15.2054 68.3578 15.5403 68.1941 15.8753 68.0304C17.0688 67.4472 18.2642 66.8631 19.49 66.34C20.1 66.07 20.72 65.81 21.33 65.55C21.4732 65.4899 21.6143 65.4234 21.7561 65.3585C21.9214 65.2829 22.0879 65.2092 22.26 65.15C23.13 64.84 24 64.52 24.88 64.2C25.72 63.93 26.5601 63.7 27.4201 63.5C27.536 63.4768 27.658 63.4596 27.7766 63.4436L27.88 63.43V63.64C27.88 63.71 27.87 63.77 27.86 63.84C27.7901 64.14 27.71 64.44 27.61 64.73C27.31 65.57 26.96 66.39 26.57 67.19C25.38 69.54 24.03 71.81 22.6601 74.06C20.75 77.21 18.82 80.35 16.87 83.4699C16.7009 83.7373 16.5315 84.0045 16.3621 84.2716C15.4801 85.6626 14.599 87.0522 13.76 88.4699C13.5254 88.8633 13.2907 89.2519 13.0626 89.6457C12.9603 89.8225 12.8592 90.0003 12.76 90.18C12.7298 90.2362 12.699 90.2933 12.6677 90.351C12.2439 91.1344 11.7504 92.0465 11.89 92.95C11.97 93.47 12.15 93.94 12.52 94.33C12.84 94.66 13.2 94.92 13.63 95.06C13.99 95.17 14.36 95.22 14.72 95.19C15.39 95.19 16.07 95.04 16.69 94.79C17.97 94.29 19.15 93.6 20.3101 92.86C21.2001 92.2799 22.09 91.69 22.95 91.07C23.8148 90.4428 24.6886 89.8065 25.563 89.1698L25.7 89.07C26.2432 88.675 26.7615 88.2451 27.2794 87.8155C27.4957 87.6361 27.7121 87.4568 27.9301 87.28C28.5601 86.78 29.1601 86.2799 29.75 85.73C30.19 85.3149 30.6325 84.9024 31.075 84.49C31.5175 84.0775 31.96 83.665 32.4 83.25C32.8278 82.8498 33.2271 82.4258 33.624 82.0043C33.8024 81.8149 33.9802 81.626 34.1601 81.44C35.5901 79.96 37 78.4699 38.4 76.9699C40.5208 74.7052 42.6222 72.4214 44.7237 70.1374C47.8742 66.7134 51.0247 63.2893 54.24 59.93C55.7523 58.3497 57.2936 56.7951 58.8346 55.2407C60.0142 54.0508 61.1936 52.861 62.36 51.6599C63.82 50.1499 65.27 48.65 66.7 47.13C67.8412 45.9249 68.9324 44.6781 70.0267 43.4278L70.34 43.07L70.35 43.06C70.36 43.06 70.36 43.05 70.37 43.04C71.52 41.73 72.61 40.36 73.61 38.93L73.6558 38.8646C74.151 38.1558 74.6535 37.4367 75.09 36.68C75.1745 36.5323 75.2548 36.3827 75.3316 36.2315C75.3666 36.3893 75.4016 36.5468 75.4365 36.7043L75.52 37.0799C75.56 37.2985 75.6016 37.5177 75.6433 37.7373C75.7791 38.4524 75.9159 39.1733 76 39.9C76.0729 40.5401 76.1458 41.1775 76.2186 41.815C76.2858 42.4025 76.3529 42.9901 76.4201 43.5799C76.4693 44.4514 76.5233 45.3228 76.5775 46.1955C76.6333 47.0953 76.6892 47.9964 76.74 48.9C76.7807 49.5925 76.818 50.2851 76.8539 50.9776C76.8798 51.4751 76.9049 51.9725 76.9301 52.4699C77.02 54.1499 77.1399 55.8299 77.48 57.4699C77.86 59.3099 78.56 61.0399 79.5 62.6599ZM74.3693 31.8039C74.3198 30.9768 74.8219 30.189 75.65 29.96C76.56 29.71 77.6 30.26 77.83 31.2C77.9433 31.6703 78.0437 32.1437 78.1442 32.6168C78.221 32.9787 78.2976 33.3402 78.38 33.6999C78.4277 33.9016 78.4763 34.1032 78.525 34.305C78.7007 35.0337 78.8768 35.7638 79.01 36.5C79.0593 36.7794 79.114 37.0588 79.1688 37.3386C79.2808 37.9099 79.3928 38.4826 79.46 39.0599C79.5249 39.6349 79.5924 40.2099 79.6599 40.7849C79.7274 41.36 79.7949 41.935 79.86 42.51C79.94 43.19 79.98 43.87 80.02 44.5599C80.09 45.8499 80.1699 47.1399 80.25 48.4199C80.2698 48.7379 80.2872 49.0559 80.3047 49.3739C80.3223 49.6959 80.3399 50.0179 80.36 50.3399C80.3649 50.2612 80.3674 50.1824 80.3699 50.1049C80.3725 50.0249 80.3749 49.9461 80.38 49.87C80.407 49.1679 80.4705 48.4613 80.5335 47.7594C80.5637 47.4215 80.594 47.0847 80.62 46.75C80.9099 42.99 81.33 39.24 81.85 35.5C81.9058 35.0908 81.9588 34.6809 82.0117 34.271C82.1581 33.1383 82.3045 32.0061 82.51 30.89C82.9199 28.7199 83.32 26.55 83.72 24.38C84.155 22.062 84.6408 19.761 85.1265 17.46C85.2882 16.6935 85.4501 15.927 85.61 15.1599C85.8794 13.6746 86.1647 12.1946 86.4505 10.7122C86.5571 10.1586 86.664 9.60465 86.77 9.04996C86.9201 8.2399 87.03 7.4199 87.15 6.59995C87.22 6.11991 87.2899 5.63999 87.37 5.15C84.22 6.28995 81.1399 7.59995 78.11 9.01999C77.8339 9.14847 77.5571 9.27695 77.2802 9.40561C75.9617 10.0179 74.6356 10.6337 73.33 11.27C72.7987 11.5285 72.2675 11.7878 71.736 12.0472C70.4166 12.691 69.0958 13.3355 67.77 13.9699C66.6002 14.5827 65.419 15.1762 64.2381 15.7697C63.511 16.135 62.7841 16.5003 62.0601 16.87C60.48 17.67 58.9199 18.51 57.36 19.34C55.1798 20.4945 53.0136 21.6814 50.8455 22.8692C49.8213 23.4303 48.7966 23.9917 47.77 24.55C47.278 24.8163 46.7851 25.0837 46.2916 25.3514C45.2107 25.9379 44.1281 26.5263 43.0501 27.11C42.09 27.6299 41.1 28.13 40.13 28.63C40.4 28.5699 40.6601 28.5 40.9301 28.44C42.6812 28.0152 44.4171 27.5453 46.1511 27.076L46.95 26.86C47.5535 26.6977 48.1571 26.5144 48.758 26.3319C49.0829 26.2332 49.407 26.1347 49.73 26.04C50.22 25.8899 50.71 25.7499 51.21 25.5999C51.7999 25.4199 52.4 25.2699 53 25.13C53.5399 25.0099 54.11 24.9399 54.63 25.1599L54.6315 25.1607C54.651 25.1704 54.6703 25.18 54.6801 25.18C54.8451 25.2495 54.9968 25.3442 55.1312 25.4585C55.3407 25.3698 55.5609 25.3048 55.8001 25.27C56.6101 25.14 57.3301 25.63 57.6801 26.33C57.7901 26.55 57.82 26.81 57.82 27.05C57.82 27.89 57.2201 28.6 56.4301 28.78C55.6167 29.36 54.8483 30.0049 54.0825 30.6477C53.7656 30.9137 53.4491 31.1794 53.13 31.44C52.49 31.98 51.84 32.51 51.2 33.05C49.5499 34.43 47.9 35.8 46.24 37.17C44.7849 38.38 43.325 39.5849 41.865 40.79C40.405 41.995 38.9451 43.1999 37.49 44.4099C35.1769 46.3293 32.877 48.2617 30.5773 50.1939C26.8622 53.3155 23.1478 56.4364 19.38 59.5C18.0274 60.596 16.6652 61.677 15.3034 62.7576C13.5344 64.1615 11.7661 65.5648 10.02 67C10.28 66.87 10.54 66.73 10.81 66.6C12.74 65.62 14.6901 64.67 16.65 63.73C17.38 63.38 18.12 63.06 18.86 62.75C19.0503 62.6684 19.2401 62.5858 19.4299 62.5033C20.0777 62.2213 20.7249 61.9397 21.39 61.7L21.8482 61.5332C23.1507 61.0585 24.4382 60.5891 25.7901 60.24C26.77 59.99 27.85 59.73 28.86 59.93C29.7901 60.11 30.7901 60.77 31.11 61.7C31.45 62.64 31.51 63.61 31.3101 64.59C31.0401 65.9 30.51 67.16 29.9301 68.36C29.3401 69.57 28.6801 70.74 28.03 71.91C27.12 73.55 26.14 75.16 25.15 76.76C24.4542 77.8852 23.7606 79.0127 23.0672 80.1402C21.6774 82.3994 20.2876 84.6586 18.88 86.9C18.33 87.77 17.8001 88.63 17.27 89.51C17.1914 89.6362 17.1134 89.7624 17.0358 89.8888C16.7876 90.293 16.5438 90.6986 16.3 91.11C16.32 91.1 16.35 91.09 16.37 91.08C17.49 90.5 18.56 89.81 19.61 89.1C20.98 88.1499 22.3201 87.16 23.6701 86.18C24.1601 85.82 24.62 85.41 25.1 85.03C25.65 84.58 26.21 84.14 26.76 83.69C27.0322 83.4374 27.3054 83.1862 27.5785 82.9351C28.5595 82.0331 29.5392 81.1321 30.47 80.17L31.0707 79.548C32.2525 78.3247 33.4372 77.0983 34.6 75.85C37.34 72.92 40.0601 69.98 42.78 67.03C43.5111 66.239 44.2398 65.4455 44.9684 64.652C46.7915 62.6665 48.6154 60.6803 50.48 58.73C53.39 55.69 56.3501 52.69 59.3101 49.7C61.65 47.34 63.9801 44.94 66.1801 42.45L66.2 42.43C66.215 42.415 66.2276 42.3999 66.2401 42.3837C66.2526 42.3675 66.265 42.3499 66.28 42.33C66.2838 42.3261 66.2861 42.3223 66.2882 42.3191C66.2915 42.3138 66.2938 42.31 66.3001 42.31C66.7874 41.7463 67.2746 41.1916 67.7706 40.6286C67.7438 40.6582 67.7168 40.6877 67.69 40.7199C68.9199 39.24 70.11 37.74 71.22 36.1599L71.1961 36.1953C71.1616 36.2464 71.1243 36.3014 71.1 36.3499C71.47 35.8 71.8201 35.25 72.15 34.67C72.4301 34.08 72.66 33.49 72.88 32.87C73.1017 32.2394 73.7268 31.8586 74.3693 31.8039ZM91.1886 4.18387L91.1908 4.17899L91.19 4.17997L91.1886 4.18387Z"
    fill="rgba(191, 192, 191, 1)" />
</svg>