<svg width="81" height="78" viewBox="0 0 81 78" fill="none" xmlns="http://www.w3.org/2000/svg">
  <path
    d="M10.63 68.11C10.2126 67.4012 10.3698 66.5419 10.91 65.98C10.9198 65.9702 10.9272 65.9603 10.9346 65.9506C10.9421 65.9406 10.95 65.93 10.96 65.92V65.91C11.2996 65.5223 11.636 65.1337 11.9719 64.7458C12.823 63.7629 13.6709 62.7836 14.56 61.83C16.01 60.28 17.48 58.75 18.96 57.24C19.6474 56.5363 20.3437 55.8414 21.0408 55.1458C21.6215 54.5663 22.2028 53.9863 22.78 53.4C23.1232 53.0494 23.4639 52.697 23.8029 52.343L23.5286 52.3496L23.51 52.35C22.28 52.37 21.04 52.39 19.8 52.38C18.51 52.37 17.23 52.27 15.95 52.11C15.4573 52.0491 14.9676 51.9728 14.4775 51.8965C14.0825 51.835 13.6873 51.7735 13.29 51.72C13.1127 51.9236 12.931 52.1229 12.7507 52.3207C12.6565 52.4241 12.5627 52.527 12.47 52.63C12.09 53.05 11.7 53.47 11.31 53.88C10.57 54.67 9.82004 55.44 9.04004 56.19C8.21005 56.99 7.38004 57.78 6.54004 58.57C6.32471 58.7719 6.10645 58.9722 5.88791 59.173L5.88315 59.1774C5.2912 59.721 4.69669 60.2668 4.15002 60.85C3.92001 61.12 3.70004 61.4 3.47003 61.67C3.16003 62.03 2.79004 62.28 2.31003 62.34C2.23004 62.35 2.15005 62.36 2.07004 62.36C1.67004 62.33 1.29004 62.2 0.980041 61.96C0.25003 61.4 0.02005 60.21 0.660034 59.48C0.791199 59.3287 0.919006 59.1762 1.04645 59.0242L1.04837 59.0218L1.0491 59.0209C1.29965 58.7219 1.54892 58.4244 1.82004 58.14C2.11826 57.8261 2.44113 57.5306 2.75961 57.2391C2.84692 57.1592 2.93393 57.0796 3.02002 57C3.81003 56.27 4.60004 55.54 5.38004 54.8C7.13004 53.12 8.81003 51.41 10.43 49.6C10.487 49.5288 10.5462 49.4553 10.6056 49.3817L10.6126 49.3729C10.6759 49.2944 10.7393 49.2159 10.8 49.14C10.81 49.12 10.82 49.11 10.83 49.1C11.04 48.72 11.34 48.44 11.75 48.26C12.17 48.08 12.63 48.09 13.08 48.13C13.6396 48.1801 14.1922 48.2651 14.7436 48.3499L14.7466 48.3505C14.8545 48.3671 14.9622 48.3837 15.07 48.4C15.73 48.5001 16.39 48.59 17.05 48.67C17.65 48.75 18.26 48.79 18.87 48.83H18.8578C20.7352 48.85 22.6026 48.8699 24.47 48.78C24.73 48.6301 25.04 48.54 25.36 48.54C25.9108 48.54 26.4122 48.8033 26.7396 49.211L26.87 49.07C27.4165 48.4769 27.9541 47.866 28.4917 47.2551C28.7203 46.9952 28.949 46.7354 29.1783 46.4769L29.1937 46.4596L29.2123 46.439L29.2354 46.4127C29.6364 45.9554 30.0373 45.4962 30.4383 45.037C30.8689 44.5438 31.2994 44.0507 31.73 43.56L31.71 43.58C32.095 43.145 32.4775 42.71 32.86 42.275C33.2425 41.84 33.625 41.405 34.01 40.97C34.03 40.95 34.05 40.92 34.07 40.9C34.09 40.88 34.11 40.86 34.12 40.84C36.71 37.91 39.42 35.07 42.16 32.28C43.34 31.07 44.57 29.89 45.8 28.74C46.0516 28.5064 46.3029 28.2728 46.5541 28.0392C47.8407 26.8433 49.1248 25.6496 50.43 24.47C53.2 21.95 56.03 19.49 58.89 17.08C59.9603 16.1809 61.0281 15.2781 62.096 14.3751L62.1135 14.3602C64.0331 12.737 65.9533 11.1132 67.89 9.51001C68.9843 8.60224 70.0863 7.70612 71.1888 6.80957C71.549 6.5166 71.9093 6.22358 72.2694 5.93012C72.5798 5.67719 72.8901 5.42389 73.2 5.16999C72.2 5.28998 71.2 5.43 70.21 5.62C70.1845 5.62506 70.1587 5.63044 70.1327 5.63599C70.0059 5.66327 69.8745 5.69507 69.75 5.71997C68.64 6.11994 67.53 6.51996 66.43 6.93C66.2101 7.01184 65.9903 7.09497 65.7703 7.17865C65.6127 7.23865 65.455 7.29895 65.2971 7.35932C64.3029 7.73944 63.3043 8.12122 62.29 8.44001C61.54 8.68 60.68 8.28998 60.29 7.63001C59.84 6.84998 60.06 5.89002 60.74 5.33002C61.26 4.90003 61.88 4.63001 62.5 4.38001C62.7286 4.284 62.9593 4.18799 63.1911 4.09198C63.4663 3.97797 63.7432 3.86396 64.02 3.75C65.07 3.31 66.18 2.98999 67.27 2.68C67.8 2.53998 68.33 2.39997 68.87 2.28998C69.72 1.99994 70.58 1.71997 71.46 1.46997C72.66 1.12995 73.89 0.869999 75.13 0.690006C75.6444 0.612858 76.1661 0.579837 76.6889 0.546756L76.693 0.54639C76.7786 0.541019 76.8643 0.535648 76.95 0.530033C77.56 0.500004 78.24 0.519962 78.84 0.690006C79.69 0.919986 80.37 1.64002 80.49 2.53003C80.55 2.97004 80.45 3.34998 80.25 3.69001C80.22 4.08002 80.13 4.46997 80.04 4.84998C79.9778 5.15509 79.9106 5.45917 79.8417 5.76264C79.7974 5.95752 79.7524 6.15216 79.7074 6.34656C79.5974 6.82178 79.4878 7.2959 79.39 7.77002L79.4001 7.73017C79.4049 7.71131 79.4096 7.69281 79.4141 7.67444C79.1257 9.18018 78.8865 10.6956 78.77 12.23C78.73 13.07 78.73 13.91 78.77 14.75C78.86 15.72 79.02 16.68 79.19 17.64C79.21 17.71 79.22 17.78 79.24 17.85C79.47 18.78 78.95 19.76 78 20.03C77.09 20.28 76.05 19.73 75.82 18.8C75.42 17.16 75.23 15.43 75.18 13.75C75.14 12.26 75.31 10.76 75.52 9.28998C75.6 8.72998 75.7 8.16999 75.81 7.60999C74.55 8.62995 73.29 9.64997 72.03 10.68C70.1852 12.1866 68.3675 13.7257 66.549 15.2654C66.1278 15.6221 65.7066 15.9787 65.2849 16.335C65.0501 16.5335 64.8151 16.7318 64.58 16.93C62.1 19.02 59.63 21.1199 57.17 23.22C54.23 25.82 51.33 28.44 48.47 31.12C45.69 33.71 43.04 36.42 40.44 39.2C39.2163 40.5104 37.9925 41.8302 36.7957 43.1771L36.8091 43.161C36.3894 43.6307 35.9747 44.1028 35.56 44.575C35.1661 45.0234 34.7722 45.4719 34.3741 45.9182C34.3762 45.9155 34.3781 45.9128 34.38 45.91C34.3658 45.9241 34.3529 45.9383 34.3404 45.9525L34.3245 45.9706C34.3072 45.9904 34.2898 46.0102 34.27 46.03C32.98 47.5 31.68 48.98 30.38 50.44C29.8408 51.0512 29.2995 51.6622 28.7517 52.2679C28.7236 52.3927 28.6827 52.5142 28.63 52.63C28.6367 53.0739 28.6706 53.5177 28.7042 53.9586C28.7206 54.1732 28.7369 54.3871 28.75 54.6C28.7706 54.8833 28.7885 55.1693 28.8066 55.4565C28.8235 55.7269 28.8406 55.9985 28.86 56.27C28.94 57.4401 29.02 58.62 29.09 59.79C29.085 59.75 29.0825 59.71 29.08 59.6699C29.0775 59.6299 29.075 59.59 29.07 59.55L29.08 59.6699L29.0942 59.8644C29.2155 61.4396 29.3368 63.0142 29.59 64.58C29.63 64.78 29.68 64.97 29.73 65.17C29.8 65.24 29.87 65.3101 29.94 65.39C30.75 66.4 30.26 68.01 29.01 68.37C28.5442 68.8317 28.0818 69.2985 27.6186 69.7662C26.9681 70.4231 26.3159 71.0817 25.65 71.73C25.4323 71.9407 25.2139 72.1509 24.9956 72.3611C23.9606 73.3573 22.9262 74.353 21.96 75.41C21.8959 75.4868 21.8315 75.5637 21.7668 75.6407C21.5285 75.9246 21.2881 76.2112 21.06 76.51C21.045 76.53 21.0325 76.5499 21.0201 76.5699C21.0075 76.59 20.995 76.61 20.98 76.63C20.64 77.1801 20.05 77.51 19.44 77.51C19.14 77.5001 18.83 77.42 18.56 77.26C17.74 76.78 17.42 75.66 17.93 74.84C18.4372 74.0036 19.1187 73.2622 19.784 72.5382C19.8664 72.4486 19.9485 72.3593 20.03 72.27C20.4962 71.7557 21.0076 71.2736 21.5123 70.7977C21.6355 70.6816 21.7583 70.5658 21.88 70.45C23.35 69.02 24.81 67.59 26.26 66.14C26.2799 66.1202 26.3001 66.1 26.32 66.09C26.32 66.0864 26.32 66.0841 26.3195 66.0822C26.3187 66.0787 26.3164 66.0764 26.31 66.07C26.08 65.14 25.96 64.2 25.85 63.25C25.7272 62.2499 25.6582 61.2343 25.5891 60.2168C25.5795 60.0745 25.5698 59.9323 25.56 59.79C25.49 58.62 25.41 57.4401 25.33 56.27C25.3212 56.1427 25.3122 56.0154 25.303 55.8882C24.2726 56.9369 23.2361 57.9808 22.19 59.02C20.97 60.24 19.75 61.46 18.57 62.72C17.35 64.03 16.14 65.35 14.96 66.69C14.7706 66.91 14.5812 67.1299 14.3941 67.3499C14.2749 67.4899 14.1567 67.63 14.04 67.77C13.997 67.8199 13.9543 67.8704 13.9113 67.921C13.6447 68.2357 13.3732 68.556 13.02 68.78C12.75 68.95 12.45 69.03 12.16 69.03C11.57 68.99 10.95 68.66 10.63 68.11Z"
    fill="rgba(191, 192, 191, 1)" />
  <path d="M36.66 43.33C36.7052 43.2848 36.7504 43.2313 36.7957 43.1771L36.66 43.33Z" fill="rgba(191, 192, 191, 1)" />
  <path d="M79.44 7.53998L79.4141 7.67444C79.4248 7.63037 79.4341 7.58686 79.44 7.53998Z"
    fill="rgba(191, 192, 191, 1)" />
  <path d="M34.345 45.9499C34.3326 45.9624 34.32 45.975 34.31 45.99L34.345 45.9499Z" fill="rgba(191, 192, 191, 1)" />
</svg>