<svg width="81" height="87" viewBox="0 0 81 87" fill="none" xmlns="http://www.w3.org/2000/svg">
  <path fill-rule="evenodd" clip-rule="evenodd"
    d="M77.7208 21.251C77.7311 21.254 77.741 21.257 77.75 21.26C77.9 21.31 78.06 21.33 78.23 21.34C79 21.34 79.74 20.81 79.95 20.04C80.19 19.17 79.73 18.32 78.93 17.94C78.93 17.9326 78.9245 17.9307 78.9176 17.9302C78.9152 17.93 78.9126 17.93 78.91 17.93C78.77 17.82 78.64 17.71 78.51 17.59C78.57 17.64 78.62 17.69 78.68 17.74C78.1996 17.2973 77.7458 16.819 77.3102 16.3303C76.3591 15.2409 75.4862 14.0821 74.6671 12.8868C74.675 12.8979 74.6827 12.9089 74.69 12.92C73.7 11.43 72.81 9.90002 72.01 8.31C71.59 7.48999 71.17 6.66003 70.75 5.83002C70.38 5.12 69.98 4.41998 69.55 3.73999C69.417 3.52716 69.284 3.31879 69.148 3.11188C69.0796 3.00763 69.0104 2.90381 68.94 2.79999C68.8967 2.73334 68.8545 2.66449 68.8123 2.59564C68.7278 2.45782 68.6434 2.32007 68.55 2.20001C68.47 2.10004 68.4 2.02002 68.32 1.94C68.22 1.07001 67.46 0.369995 66.56 0.369995C66.03 0.369995 65.6 0.619995 65.21 0.940002C64.88 1.21002 64.55 1.46002 64.22 1.71002C63.8365 2.01013 63.4252 2.28247 63.0209 2.55017C62.9403 2.60358 62.8599 2.6568 62.78 2.71002C62.306 3.00385 61.8273 3.29156 61.3489 3.5791C60.6061 4.02551 59.8638 4.47168 59.14 4.94C58.8905 5.10278 58.6383 5.2616 58.3864 5.42029C57.9417 5.70038 57.4977 5.98004 57.07 6.28003L56.6213 6.59991C56.1073 6.96643 55.5887 7.33624 55.07 7.70001C54.6214 8.00891 54.1998 8.35028 53.7774 8.69226C53.6255 8.81525 53.4735 8.93829 53.32 9.06C52.77 9.47998 52.25 9.92999 51.73 10.38C50.8175 11.1448 49.9276 11.9399 49.0407 12.7324L48.64 13.09C48.37 13.31 48.11 13.53 47.87 13.78C47.67 13.9901 47.52 14.24 47.38 14.51C46.85 15.54 47.31 16.75 48.44 17.11C48.8 17.22 49.14 17.3 49.51 17.33C49.7607 17.351 50.0114 17.3379 50.2655 17.3246C50.3763 17.3188 50.4877 17.313 50.6 17.31C51.35 17.29 52.12 17.29 52.87 17.33C53.4749 17.3857 54.0799 17.4655 54.6814 17.5627C54.3159 18.2354 53.9475 18.9074 53.56 19.57C53.2103 20.1645 52.8581 20.754 52.5059 21.3434C52.1531 21.934 51.8003 22.5245 51.45 23.12L51.4415 23.1345L51.4389 23.1389C50.6526 24.4725 49.8663 25.8063 49.07 27.14C48.5336 28.0285 47.9549 28.8889 47.3754 29.7507C47.2635 29.917 47.1516 30.0834 47.04 30.25C46.2962 31.2835 45.5337 32.2985 44.6895 33.2678C43.4389 34.6644 42.0734 35.9391 40.7051 37.2163C40.5007 37.4071 40.2963 37.598 40.0922 37.7892C38.5989 39.0917 37.0657 40.3267 35.42 41.44C33.81 42.5099 32.13 43.47 30.41 44.35C29 45.0499 27.56 45.69 26.08 46.21C24.71 46.67 23.33 47.04 21.92 47.34C20.5888 47.6024 19.2482 47.808 17.8981 47.9203C17.8603 47.9211 17.8224 47.9232 17.7845 47.9292C17.773 47.9296 17.7615 47.9299 17.75 47.9299H17.72C16.03 48.04 14.34 48.02 12.65 47.97C12.1493 47.95 11.6487 47.9332 11.148 47.9166C10.1487 47.8832 9.14933 47.8499 8.15 47.7899C7.43 47.7299 6.70999 47.65 5.98999 47.52C5.62 47.44 5.23999 47.34 4.87 47.22C4.57001 47.0999 4.26001 46.97 3.95999 46.83C3.92789 46.8119 3.89569 46.7935 3.86341 46.775L3.78919 46.7323C3.38095 46.4973 2.95356 46.2513 2.48001 46.19C1.92002 46.11 1.4 46.31 0.989993 46.69C0.280002 47.34 0.32999 48.53 0.989993 49.1899C1.19001 49.39 1.42002 49.53 1.67002 49.61C2.61002 50.1199 3.60001 50.59 4.65 50.84C5.76001 51.1 6.87 51.25 8 51.3199C8.97 51.38 9.94001 51.42 10.91 51.45C11.2027 51.4584 11.4958 51.4677 11.789 51.4773L12.307 51.4946C13.2334 51.5256 14.1584 51.5566 15.07 51.5699C15.57 51.5699 16.06 51.5599 16.56 51.5399C21.42 51.3599 26.28 50.2499 30.67 48.1599C32.79 47.15 34.86 46.05 36.81 44.76C37.78 44.12 38.74 43.47 39.65 42.76C40.59 42.03 41.5 41.25 42.4 40.46C43.0067 39.9318 43.588 39.3781 44.1692 38.8245C44.2823 38.7167 44.3954 38.6089 44.5087 38.5013C44.6289 38.3872 44.7492 38.2734 44.87 38.16C46.29 36.83 47.61 35.39 48.79 33.84C50.25 31.92 51.55 29.8799 52.79 27.81C53.2049 27.1144 53.6162 26.4171 54.0277 25.7194C54.5982 24.7521 55.169 23.7844 55.75 22.82C56.5917 21.4228 57.3696 20.0044 58.1493 18.5826C58.1824 18.5223 58.2156 18.4619 58.2487 18.4015C58.7408 18.5399 59.2314 18.6827 59.7214 18.8253C60.1079 18.9377 60.494 19.05 60.88 19.16C61.422 19.3129 61.964 19.4611 62.5073 19.6014C62.4668 20.051 62.398 20.5003 62.31 20.94C62.06 22.09 61.73 23.22 61.36 24.34C61.2761 24.5674 61.1922 24.794 61.1085 25.0201C60.883 25.6293 60.6588 26.2347 60.44 26.84C60.3616 27.048 60.2879 27.2582 60.2141 27.4688L60.2134 27.4705C60.0708 27.8771 59.9277 28.2851 59.75 28.68C59.3698 29.5405 58.9846 30.3984 58.5994 31.2564C58.2146 32.1135 57.8298 32.9705 57.45 33.83C56.5601 35.5101 55.68 37.1901 54.8 38.88C54.2521 39.9203 53.6664 40.9352 53.0779 41.955L53.0757 41.959C52.9238 42.2222 52.7717 42.4857 52.62 42.75C52.4736 43.0057 52.3278 43.2615 52.1822 43.517L52.1705 43.5375L52.1585 43.5585C51.4463 44.8079 50.7369 46.0525 49.98 47.27C49.5218 48.0109 49.0621 48.7517 48.602 49.4931L48.5861 49.5187C47.8467 50.7103 47.1065 51.9033 46.37 53.1C45.5679 54.4081 44.7396 55.7004 43.9117 56.9922L43.9101 56.9946L43.9065 57.0002L43.8984 57.0131C43.5851 57.5018 43.2718 57.9905 42.96 58.48L40.26 62.7101C39.8922 63.2822 39.5232 63.8536 39.1536 64.4249C38.8973 64.821 38.6408 65.217 38.3843 65.613L38.3773 65.6238C36.9238 67.8673 35.47 70.1115 34.06 72.38C33.9178 72.6098 33.7748 72.8391 33.6313 73.0679C33.3895 73.4537 33.1463 73.8385 32.9032 74.2232L32.9023 74.2247C32.2354 75.28 31.5687 76.335 30.93 77.41C30.35 78.39 29.76 79.38 29.17 80.37C29.0415 80.5875 28.913 80.8069 28.784 81.027C28.3911 81.6975 27.9941 82.3751 27.58 83.03L27.5656 83.0511C27.5503 83.0729 27.5337 83.0948 27.5165 83.1166C27.492 83.1478 27.466 83.1789 27.44 83.2101C27.12 83.5701 26.92 83.98 26.92 84.4601C26.92 84.92 27.1101 85.3801 27.44 85.7101C27.77 86.04 28.26 86.22 28.73 86.2101C29.1801 86.2101 29.63 86.04 29.94 85.6901C30.45 85.11 30.85 84.46 31.24 83.8L31.3873 83.5521C33.2978 80.3352 35.2019 77.1291 37.22 73.98L37.2519 73.9302C39.5113 70.4068 41.7707 66.8834 44.03 63.35C44.3852 62.7946 44.7411 62.2391 45.0971 61.6835C46.6258 59.2978 48.1576 56.907 49.65 54.49C50.8953 52.4677 52.1505 50.4453 53.4058 48.4229L53.42 48.4C54.1456 47.2335 54.8256 46.0316 55.5032 44.8337C55.6778 44.525 55.8524 44.2165 56.0275 43.909C56.1281 43.7323 56.2289 43.5559 56.33 43.38C56.441 43.1874 56.5552 42.9948 56.6698 42.8015C56.9063 42.4027 57.1445 42.0009 57.36 41.59C57.6872 40.9698 58.0143 40.3449 58.3415 39.7217C58.4944 39.4305 58.6472 39.1398 58.8 38.85C59.075 38.3199 59.3525 37.7925 59.63 37.265C59.9075 36.7375 60.185 36.21 60.46 35.68C60.6898 35.2419 60.8887 34.7885 61.0862 34.3381C61.1302 34.2377 61.1741 34.1376 61.2183 34.0378C61.252 33.9616 61.2859 33.8857 61.32 33.81C61.5854 33.2192 61.8482 32.6284 62.1111 32.0376C62.276 31.6669 62.4409 31.2963 62.6065 30.9256C62.7041 30.7071 62.8019 30.4886 62.9 30.27C63.148 29.7421 63.3448 29.1885 63.5416 28.6349L63.5903 28.4978C63.6234 28.4051 63.6565 28.3124 63.69 28.22C63.8077 27.9 63.9291 27.581 64.0505 27.2618C64.3314 26.5234 64.6127 25.7841 64.85 25.03C65.28 23.6901 65.69 22.33 65.9 20.94C65.9301 20.7508 65.9607 20.5555 65.9876 20.3569C66.2541 20.4014 66.5215 20.4426 66.79 20.48C67.3044 20.5505 67.8192 20.6094 68.3341 20.6594C68.3287 20.7427 68.3232 20.8258 68.3176 20.9089C68.3012 21.1551 68.2841 21.4005 68.2671 21.6454L68.2666 21.653C68.2402 22.0327 68.214 22.4114 68.19 22.79C68.1 24.15 68 25.51 67.9 26.87C67.864 27.3745 67.8275 27.8789 67.7911 28.3834C67.6455 30.3989 67.5 32.4144 67.38 34.43C67.15 38.33 66.95 42.23 66.85 46.14C66.8 48.15 66.75 50.17 66.76 52.19C66.76 52.545 66.7625 52.9025 66.765 53.26C66.7675 53.6175 66.77 53.975 66.77 54.33C66.77 54.3782 66.7695 54.4263 66.7688 54.4745C66.7679 54.53 66.7667 54.5854 66.7655 54.6407C66.7611 54.8463 66.7567 55.0504 66.77 55.25C66.83 56.25 66.89 57.24 66.95 58.24C66.9651 58.5149 66.9775 58.7907 66.9899 59.0669C67.0185 59.7049 67.0472 60.3448 67.11 60.98C67.23 62.09 67.34 63.2 67.46 64.31C67.4833 64.5345 67.505 64.7599 67.5266 64.9857C67.5793 65.5341 67.6321 66.0845 67.71 66.63C67.89 67.85 68.07 69.08 68.25 70.31C68.453 71.7 68.7231 73.0777 68.9937 74.4575C69.0695 74.8447 69.1455 75.2321 69.22 75.62C69.61 77.64 70.26 79.59 71.05 81.48C71.3269 82.1492 71.6276 82.8066 71.9291 83.4658L71.9312 83.4705C71.9908 83.6009 72.0504 83.7313 72.11 83.8619L72.2 84.06C72.51 84.73 73.15 85.15 73.84 85.17C74.07 85.17 74.3 85.13 74.52 85.03C75.38 84.66 75.87 83.59 75.46 82.71C74.82 81.32 74.19 79.91 73.66 78.46C73.27 77.33 72.97 76.17 72.7 75C72.46 73.73 72.22 72.47 71.97 71.2C71.8058 70.3655 71.6931 69.5169 71.5807 68.6703C71.5288 68.2796 71.4768 67.8884 71.42 67.5C71.1591 65.7192 70.9747 63.9268 70.79 62.1315C70.7643 61.8813 70.7385 61.631 70.7125 61.3807C70.6821 61.0872 70.6514 60.7936 70.62 60.5C70.5349 58.9212 70.4409 57.3513 70.3464 55.7734L70.3459 55.7665L70.33 55.5C70.3 54.9296 70.3037 54.3591 70.3075 53.793V53.7915C70.3087 53.6038 70.31 53.4166 70.31 53.23C70.3 52.15 70.29 51.07 70.29 50C70.2825 49.2873 70.3088 48.5746 70.335 47.8619C70.3438 47.6246 70.3525 47.3873 70.36 47.15C70.365 46.9268 70.3693 46.7036 70.3736 46.4806L70.3737 46.4769L70.3738 46.4729C70.3869 45.7991 70.4 45.1268 70.43 44.46C70.4647 43.6973 70.4919 42.933 70.5192 42.1685C70.5627 40.9483 70.6062 39.7272 70.68 38.51C70.7418 37.5053 70.801 36.5007 70.8602 35.4946L70.9276 34.3541C70.9612 33.7867 70.9952 33.2188 71.03 32.65L71.51 25.9C71.6 24.7401 71.68 23.58 71.76 22.42C71.7757 22.171 71.7894 21.9203 71.8032 21.669L71.8035 21.6617C71.8175 21.4053 71.8315 21.1481 71.8478 20.8911C72.5157 20.9199 73.1839 20.9432 73.8521 20.9666C74.4247 20.9866 74.9974 21.0066 75.57 21.03C76.26 21.08 76.96 21.12 77.65 21.23C77.671 21.237 77.6969 21.244 77.7208 21.251ZM71.2009 17.3253C71.9982 17.3624 72.7991 17.3987 73.6 17.42C73.08 16.77 72.59 16.11 72.12 15.43C70.83 13.59 69.72 11.64 68.71 9.63C68.5949 9.4024 68.4811 9.17352 68.3671 8.94434C68.0255 8.25726 67.6824 7.56738 67.3 6.90002C67.0142 6.39111 66.704 5.90167 66.3933 5.41132C66.2584 5.19824 66.1233 4.98505 65.99 4.77002L65.8947 4.83832C65.7829 4.9187 65.6665 5.00238 65.55 5.08002C64.75 5.63 63.93 6.14001 63.09 6.65002C61.75 7.47003 60.41 8.29999 59.08 9.15997L58.9579 9.24646C58.0395 9.89691 57.1306 10.5405 56.24 11.23C55.24 12.02 54.28 12.82 53.31 13.64C53.25 13.69 53.19 13.74 53.13 13.8C53.88 13.85 54.62 13.96 55.36 14.08C56.716 14.3045 58.0398 14.6823 59.3676 15.0611C59.5183 15.1041 59.6691 15.1472 59.82 15.19L60.2235 15.3051C61.9479 15.7974 63.6674 16.2882 65.43 16.65C66.7954 16.9162 68.1607 17.094 69.5388 17.2212C69.8311 17.0828 70.1642 17.0237 70.51 17.07C70.7599 17.1046 70.9941 17.1942 71.2009 17.3253ZM17.8981 47.9203C17.9188 47.9199 17.9394 47.9199 17.96 47.9199C17.9367 47.9199 17.9135 47.921 17.8902 47.9225L17.8572 47.9248C17.8364 47.9263 17.8156 47.9278 17.7947 47.9288L17.8981 47.9203ZM77.3197 16.3411C77.3398 16.3641 77.3599 16.387 77.38 16.41C77.3599 16.3858 77.3398 16.3634 77.3197 16.3411Z"
    fill="rgba(191, 192, 191, 1)" />
</svg>