<svg width="78" height="93" viewBox="0 0 78 93" fill="none" xmlns="http://www.w3.org/2000/svg">
  <path fill-rule="evenodd" clip-rule="evenodd"
    d="M70.3849 49.2577C71.0433 48.9158 71.4391 48.1661 71.5201 47.4001C71.5701 46.9701 71.5101 46.59 71.3801 46.2C71.4872 44.9885 71.6283 43.7905 71.7698 42.5892C71.8 42.333 71.8302 42.0767 71.86 41.82C72.29 37.99 72.7201 34.1601 73.1701 30.3401C73.6101 26.6201 74.2501 22.94 74.9001 19.26C75.2701 17.18 75.62 15.09 75.94 13C76.21 11.21 76.4301 9.42004 76.6401 7.63004C76.7601 6.59004 76.8901 5.54003 77.0201 4.50003C77.0413 4.3322 77.0672 4.16118 77.0935 3.98831C77.2283 3.1003 77.3705 2.16359 76.9101 1.36002C76.4301 0.510019 75.4101 0.230029 74.5001 0.370029C74.0924 0.431792 73.6924 0.531703 73.2906 0.632064C73.0419 0.694196 72.7925 0.7565 72.5401 0.810031C72.1887 0.879151 71.8341 0.942465 71.4785 1.00594C70.5993 1.16288 69.7144 1.32084 68.86 1.57004C67.39 2.01004 65.9501 2.50004 64.5001 3.01004C64.546 2.99857 64.5886 2.9838 64.6298 2.96951C64.6604 2.9589 64.6902 2.94856 64.72 2.94004C64.0068 3.18665 63.3026 3.45993 62.5983 3.73322C62.246 3.86991 61.8935 4.00669 61.5401 4.14005C57.9601 5.50005 54.4 6.92005 50.86 8.39005C50.0301 8.73501 49.2027 9.08496 48.3753 9.43492C47.5479 9.78487 46.72 10.1351 45.8901 10.48C45.573 10.6116 45.2559 10.7477 44.9381 10.8841C44.3136 11.1521 43.6863 11.4214 43.0501 11.66L43.0473 11.6611C42.1482 12.0007 41.2491 12.3404 40.36 12.68C40.095 12.7645 39.8308 12.8507 39.5667 12.9368C38.9243 13.1463 38.2819 13.3558 37.6301 13.54C37.33 13.6251 37.0295 13.7089 36.729 13.7927C35.6177 14.1024 34.5062 14.4122 33.4201 14.79C32.3101 15.17 31.2101 15.58 30.1601 16.11C29.8905 16.2448 29.6184 16.3821 29.3463 16.5194L29.345 16.5201C29.0725 16.6576 28.8001 16.795 28.5301 16.93C27.7601 17.33 26.9701 17.8 26.3101 18.37H26.3001L26.2901 18.38C26.1301 18.47 25.98 18.57 25.84 18.7C25.38 19.12 25.2201 19.85 25.3801 20.43C25.5301 20.97 25.9201 21.38 26.4201 21.61C26.5779 21.6843 26.7528 21.7327 26.9211 21.7792L26.96 21.79C27.3757 21.9129 27.7928 22.0306 28.2097 22.1482C28.9461 22.3561 29.6822 22.5638 30.4101 22.8C31.0201 23.04 31.62 23.29 32.21 23.56C32.4099 23.65 32.6088 23.7444 32.8076 23.8388C33.2054 24.0277 33.6034 24.2167 34.0101 24.37C35.2701 24.84 36.52 25.27 37.82 25.61C38.18 25.705 38.5425 25.8 38.905 25.895C39.2675 25.99 39.63 26.085 39.99 26.18C40.0401 26.1967 40.0933 26.2103 40.1479 26.2243C40.1914 26.2354 40.2358 26.2467 40.2801 26.26C39.0901 27.11 37.9201 27.98 36.8101 28.93C34.2801 31.1 31.7901 33.33 29.4101 35.67C26.6601 38.37 23.92 41.08 21.34 43.94C21.1138 44.1906 20.8873 44.4411 20.6607 44.6917C18.2737 47.3322 15.8768 49.9836 13.6301 52.76C13.4385 52.9952 13.2461 53.2286 13.054 53.4616C12.5846 54.0311 12.1172 54.5981 11.6701 55.18C11.0001 56.07 10.3301 56.96 9.65008 57.85C9.28442 58.3282 8.9435 58.8162 8.60295 59.3038C8.45921 59.5095 8.31554 59.7152 8.1701 59.92C8.06299 60.0733 7.95543 60.2262 7.84799 60.3789C7.44388 60.9533 7.04139 61.5254 6.6701 62.11C6.50232 62.3707 6.33274 62.6287 6.16351 62.8861C5.76792 63.4879 5.37427 64.0867 5.01007 64.7101C4.48007 65.6201 3.9501 66.52 3.4201 67.42L3.22552 67.7502C2.78888 68.4906 2.35044 69.234 1.95001 70C1.70001 70.12 1.48011 70.29 1.30011 70.5201C0.840107 71.11 0.819999 71.93 1.19 72.54C1.24 72.85 1.37 73.1501 1.57 73.4001C1.65946 73.5126 1.76307 73.6151 1.87724 73.705C1.81479 74.277 1.93034 74.8778 2.03671 75.4309L2.05 75.5C2.13 75.91 2.21001 76.31 2.31001 76.71L2.3118 76.717C2.4012 77.0647 2.49058 77.4123 2.58991 77.75C2.77991 78.36 3.01991 78.86 3.58991 79.2C3.59492 79.205 3.59993 79.2075 3.60493 79.21C3.60994 79.2125 3.61495 79.215 3.61994 79.22C3.74994 79.37 3.9 79.51 4.05 79.65C4.46 80.03 4.86999 80.4 5.28999 80.77C5.73999 81.18 6.20992 81.55 6.71992 81.88C6.99981 82.0599 7.28859 82.231 7.57738 82.402C7.72194 82.4876 7.86651 82.5732 8.00996 82.66C8.16872 82.756 8.32613 82.8574 8.4842 82.9593C8.75421 83.1333 9.02618 83.3087 9.31001 83.46L9.31158 83.4609C9.71105 83.6706 10.1105 83.8803 10.52 84.08C10.789 84.2167 11.0471 84.3661 11.3044 84.5151C11.6496 84.7149 11.9932 84.9139 12.3599 85.08C12.6957 85.2283 13.0334 85.3708 13.3713 85.5135L13.3723 85.5139C13.809 85.6983 14.2461 85.8828 14.68 86.08C14.9036 86.1804 15.1272 86.284 15.3513 86.3878L15.3525 86.3884C15.9097 86.6466 16.4697 86.9062 17.04 87.12C17.1092 87.1452 17.1784 87.1706 17.2477 87.196C17.6186 87.3323 17.9908 87.4689 18.3699 87.57C18.4787 87.6011 18.5859 87.6291 18.6928 87.6571C18.8611 87.7011 19.0287 87.745 19.1999 87.8C19.5899 87.95 19.9699 88.1 20.3499 88.28C21.0325 88.6336 21.6861 89.0353 22.3392 89.4368C23.0161 89.8529 23.6925 90.2686 24.4 90.63L24.4789 90.6704C24.8837 90.8778 25.2975 91.0898 25.7199 91.24C26.1899 91.41 26.67 91.49 27.17 91.56C27.6697 91.63 28.1594 91.7199 28.6491 91.8098C28.9691 91.8699 29.2799 91.95 29.5899 92.04C29.7652 92.1066 29.9355 92.183 30.1056 92.2594C30.4209 92.4008 30.7357 92.5421 31.0799 92.62C31.3399 92.68 31.61 92.73 31.89 92.71C32.07 92.71 32.24 92.69 32.41 92.64C32.93 92.48 33.35 92.15 33.64 91.69C33.9872 91.1205 33.9389 90.4064 33.6024 89.8624C33.615 89.8513 33.6275 89.8404 33.64 89.83C33.9 89.58 34.0799 89.32 34.1899 88.96C34.2899 88.66 34.2899 88.35 34.2099 88.06C34.2199 87.9703 34.2398 87.8807 34.2597 87.7911L34.26 87.79C34.27 87.735 34.2825 87.6825 34.295 87.63C34.3074 87.5775 34.3199 87.525 34.3299 87.47V87.45L34.3626 87.29C34.5418 86.4123 34.7226 85.5267 34.93 84.65C35.1263 83.8089 35.3924 83.0027 35.6631 82.1824C35.682 82.125 35.701 82.0676 35.7199 82.01C36.0049 81.16 36.2649 80.305 36.5249 79.45C36.7849 78.595 37.0449 77.74 37.3299 76.89C37.5999 76.18 37.91 75.49 38.25 74.8C38.25 74.7938 38.2538 74.7876 38.2591 74.7791C38.2623 74.7738 38.2662 74.7676 38.27 74.76C38.28 74.73 38.2999 74.69 38.3199 74.65C38.316 74.6617 38.312 74.6739 38.3075 74.6855C38.2983 74.7037 38.2892 74.7218 38.28 74.74C38.2921 74.7218 38.3005 74.7037 38.3075 74.6855C38.403 74.4965 38.499 74.3075 38.5952 74.1182C39.0442 73.2345 39.495 72.3471 39.9 71.44C40.1131 70.9774 40.3181 70.5107 40.5232 70.0436C40.7703 69.4808 41.0177 68.9174 41.28 68.36C41.622 67.712 42.0072 67.0964 42.3924 66.4808C42.6492 66.0704 42.906 65.66 43.15 65.24C43.3865 64.8388 43.6016 64.4268 43.8164 64.0155C44.1102 63.4529 44.4034 62.8914 44.75 62.36C44.78 62.32 44.81 62.28 44.8499 62.24C45.0158 62.0638 45.1837 61.8902 45.3514 61.7168C45.8311 61.2209 46.3103 60.7256 46.74 60.17C47.26 59.51 47.72 58.8 48.18 58.09C48.53 57.59 48.9099 57.1 49.3199 56.63C49.7299 56.165 50.1499 55.7075 50.5699 55.25C50.9899 54.7925 51.4099 54.335 51.8199 53.87C51.83 53.8599 51.85 53.8399 51.86 53.82C51.87 53.82 51.87 53.81 51.87 53.81C51.87 53.8 51.88 53.8 51.88 53.8H51.87C51.88 53.8 51.89 53.79 51.89 53.79C52.145 53.485 52.385 53.1725 52.6249 52.86C52.8649 52.5475 53.1049 52.235 53.36 51.93C53.56 51.6966 53.7778 51.481 53.9956 51.2654C54.1044 51.1577 54.2133 51.05 54.3199 50.94C54.7299 50.51 55.13 50.07 55.51 49.62C55.726 49.3707 55.9236 49.1092 56.1214 48.8473C56.2808 48.6364 56.4404 48.4252 56.61 48.22C56.635 48.1949 56.6595 48.1698 56.6837 48.1449C56.7257 48.1019 56.7672 48.0594 56.8106 48.0181C57.6438 47.2849 58.4189 46.4848 59.0899 45.59C59.3699 45.22 59.6599 44.86 59.9599 44.5C59.9799 44.475 60.0024 44.45 60.0249 44.425C60.0474 44.4 60.0699 44.375 60.0899 44.35C60.2899 44.11 60.48 43.87 60.67 43.62L60.6705 43.6209C60.7403 43.7706 60.8102 43.9203 60.89 44.06C61.1 44.44 61.37 44.78 61.65 45.12C61.89 45.41 62.1 45.7 62.31 46C62.5174 46.3161 62.7139 46.6431 62.9109 46.9706C63.474 47.907 64.0402 48.8488 64.87 49.56C65.123 49.7768 65.3946 49.9643 65.6656 50.1515C65.9196 50.3267 66.173 50.5017 66.41 50.7C66.444 50.7318 66.478 50.7638 66.5122 50.7959C66.7788 51.0467 67.0508 51.3026 67.37 51.48C68.33 52.03 69.4799 51.81 70.0799 50.85C70.3399 50.42 70.37 49.91 70.38 49.42C70.3818 49.3658 70.3835 49.3117 70.3849 49.2577ZM56.8123 48.0165C56.8165 48.0127 56.8207 48.0089 56.825 48.005C56.8525 47.98 56.88 47.955 56.91 47.93C56.8758 47.958 56.8435 47.9869 56.8123 48.0165ZM56.74 48.08C56.7638 48.0602 56.786 48.0403 56.8079 48.0205C56.7853 48.0404 56.7626 48.0602 56.74 48.08ZM57.4824 41.9915C57.4516 42.0261 57.4208 42.063 57.39 42.1C57.421 42.0639 57.4518 42.0278 57.4824 41.9915ZM43.41 28.4318C43.2411 28.5393 43.072 28.6469 42.9001 28.75C42.4003 29.0999 41.9106 29.4497 41.4208 29.7995C41.0488 30.0613 40.6904 30.352 40.3338 30.6413C40.1727 30.7719 40.0118 30.9025 39.85 31.0301C39.1375 31.586 38.4556 32.1787 37.7756 32.7697C37.5872 32.9335 37.3988 33.0973 37.21 33.26C35.73 34.61 34.2501 35.9701 32.7901 37.3401C31.5301 38.5301 30.31 39.75 29.09 40.98C27.6022 42.4778 26.1445 44.0055 24.6866 45.5332L24.6801 45.54C23.5655 46.7098 22.4934 47.9306 21.4246 49.1476L21.1501 49.4601C20.8551 49.7901 20.5651 50.12 20.2751 50.45C19.9851 50.78 19.6951 51.11 19.4001 51.44C18.9646 51.9508 18.5262 52.4616 18.0864 52.9739L18.0857 52.9747C17.7078 53.415 17.3289 53.8564 16.95 54.3C16.368 54.9779 15.8141 55.6792 15.2595 56.3815C15.0042 56.7048 14.7486 57.0285 14.49 57.35C13.9478 58.0179 13.4362 58.7076 12.9234 59.399C12.6608 59.753 12.3976 60.1079 12.1301 60.4601C11.6215 61.1267 11.146 61.8217 10.6711 62.5158C10.455 62.8316 10.2389 63.1474 10.0201 63.4601C8.41008 65.9801 6.83006 68.5301 5.38006 71.1501C5.48506 71.2051 5.58756 71.2625 5.69006 71.32C5.79256 71.3775 5.89506 71.435 6.00006 71.49C6.65809 71.876 7.26807 72.338 7.87813 72.8001C8.23215 73.0683 8.58652 73.3367 8.95001 73.5901C9.30001 73.8101 9.65008 74.01 10.0201 74.2C10.8435 74.5965 11.7017 74.9174 12.5594 75.238C12.8264 75.3378 13.0942 75.438 13.36 75.54C14.7 76.06 15.98 76.74 17.21 77.48C18.46 78.24 19.72 79 20.98 79.75C21.6875 80.1724 22.3865 80.6059 23.0846 81.0387C23.7087 81.4257 24.3323 81.8124 24.96 82.19C25.712 82.646 26.4895 83.0508 27.267 83.4556C27.4615 83.5568 27.656 83.658 27.85 83.76C27.9686 83.2299 28.0726 82.6948 28.1756 82.1651C28.2203 81.9355 28.2648 81.7068 28.3101 81.48C28.6001 80.08 28.9501 78.68 29.4301 77.33C29.4151 77.3651 29.4026 77.4 29.3901 77.435C29.3776 77.47 29.365 77.505 29.35 77.54C30.6 73.93 32.0101 70.36 33.6801 66.92C33.8282 66.6203 33.9716 66.3183 34.1151 66.0159C34.3882 65.4405 34.662 64.8637 34.97 64.3C35.23 63.82 35.49 63.3375 35.7501 62.855C36.0101 62.3725 36.2701 61.89 36.5301 61.41C36.6307 61.2206 36.7453 61.0383 36.8594 60.8567C36.9381 60.7315 37.0165 60.6066 37.09 60.48C37.3476 60.0579 37.6 59.6359 37.8547 59.2102L37.8552 59.2092C37.9563 59.0402 38.0578 58.8705 38.1601 58.7C38.523 58.1048 38.9229 57.5307 39.3213 56.9585C39.4718 56.7424 39.6221 56.5266 39.7701 56.31C41.6181 53.6188 43.804 51.169 45.9742 48.7368C46.2232 48.4578 46.472 48.179 46.72 47.9001C48.0346 46.4062 49.4187 44.9619 50.7931 43.5278L50.8101 43.51C52.0801 42.18 53.34 40.84 54.58 39.48C54.8435 39.1927 55.1054 38.9031 55.3676 38.6132L55.3686 38.6121C56.4297 37.4388 57.4956 36.2602 58.69 35.2101C59.28 34.6901 59.9401 34.25 60.7501 34.23C61.0611 34.2218 61.3587 34.3007 61.6538 34.379C61.7193 34.3963 61.7847 34.4137 61.85 34.43C62.56 34.61 63.1401 35.11 63.6501 35.62C64.139 36.1089 64.6052 36.6261 65.0701 37.1417C65.2233 37.3116 65.3764 37.4815 65.5301 37.6501C66.1142 38.2813 66.6362 38.9746 67.1546 39.6632L67.2501 39.79C67.467 40.0755 67.6807 40.361 67.893 40.6446L67.8954 40.6478C68.0542 40.8599 68.2121 41.0709 68.3701 41.2801C68.3801 41.1801 68.3925 41.0826 68.405 40.9851C68.4175 40.8875 68.43 40.79 68.44 40.69C68.54 39.805 68.635 38.9225 68.73 38.04C68.8251 37.1575 68.9201 36.275 69.0201 35.39C69.2301 33.48 69.45 31.58 69.7 29.68C69.98 27.55 70.2901 25.42 70.6201 23.29C70.7745 22.2561 70.965 21.2267 71.1552 20.1988C71.2483 19.6959 71.3414 19.1926 71.4301 18.69L71.4688 18.4683C71.7859 16.653 72.1014 14.8461 72.3801 13.0301C72.6401 11.3201 72.87 9.61005 73.07 7.89005C73.1693 7.00647 73.2785 6.12289 73.3877 5.23931L73.3879 5.23767L73.3901 5.22004C73.4088 5.06561 73.4297 4.91119 73.4508 4.75575C73.4747 4.57912 73.4988 4.40081 73.5201 4.22004C73.4401 4.24004 73.3601 4.25753 73.2801 4.27503C73.2001 4.29252 73.1201 4.31002 73.0401 4.33002C72.6708 4.40168 72.3015 4.4703 71.9305 4.53923C71.6285 4.59534 71.3252 4.6517 71.0201 4.71003C70.1101 4.92003 69.1901 5.14005 68.2901 5.45005C68.3251 5.43505 68.3626 5.42254 68.4001 5.41004C68.4376 5.39753 68.4751 5.38503 68.5101 5.37003L65.8701 6.30002C62.1201 7.71002 58.3801 9.17001 54.6601 10.66C53.2929 11.2069 51.9394 11.7813 50.5883 12.3546L50.586 12.3556C50.3073 12.4739 50.0287 12.5921 49.7501 12.7101C49.2439 12.9219 48.7413 13.1372 48.24 13.3519C47.8898 13.502 47.5395 13.652 47.19 13.8C46.8992 13.922 46.6103 14.0459 46.3218 14.1697C45.688 14.4416 45.056 14.7127 44.4101 14.9601C43.9903 15.12 43.5706 15.2774 43.1508 15.4348L43.1494 15.4353C42.7296 15.5927 42.3098 15.7501 41.8901 15.91C41.3575 16.1125 40.8081 16.2813 40.2587 16.4501C40.0756 16.5063 39.8925 16.5625 39.71 16.62C38.9111 16.8762 38.1046 17.1079 37.2979 17.3396C36.2469 17.6416 35.1955 17.9436 34.1601 18.3C33.3701 18.59 32.59 18.91 31.82 19.26C31.7807 19.2797 31.7403 19.3004 31.6993 19.3215C31.6149 19.3648 31.5274 19.4097 31.44 19.45C31.64 19.52 31.8301 19.59 32.0201 19.66C32.6741 19.9249 33.3075 20.2104 33.9487 20.4994C34.082 20.5595 34.2158 20.6198 34.35 20.68C35.13 21.03 35.91 21.34 36.71 21.63C38.74 22.24 40.78 22.81 42.85 23.26C43.34 23.35 43.8201 23.43 44.3101 23.47C44.4505 23.4767 44.5953 23.4744 44.7386 23.4722C44.8096 23.4711 44.8804 23.47 44.95 23.47L45.22 23.44L46.09 22.99C46.68 22.67 47.3501 22.41 48.0201 22.74C48.7201 23.09 49.22 23.8 49.08 24.61C48.94 25.46 48.3201 25.91 47.6301 26.32C47.2401 26.55 46.8101 26.71 46.3801 26.82C46.2598 26.8877 46.1338 26.9497 46.0107 27.0104L45.9271 27.0516C45.931 27.0506 45.9352 27.05 45.94 27.05C45.36 27.32 44.8 27.62 44.24 27.93C43.9559 28.0845 43.6831 28.258 43.41 28.4318Z"
    fill="rgba(191, 192, 191, 1)" />
</svg>