<svg width="73" height="86" viewBox="0 0 73 86" fill="none" xmlns="http://www.w3.org/2000/svg">
  <path fill-rule="evenodd" clip-rule="evenodd"
    d="M48.0799 26.96C48.6899 26.88 49.2399 26.46 49.4799 25.89C49.5099 25.83 49.54 25.7601 49.54 25.6801C49.65 25.2801 49.59 24.89 49.51 24.49C49.47 24.29 49.45 24.09 49.43 23.88C49.43 23.9139 49.4323 23.95 49.4347 23.9874C49.4373 24.0273 49.4399 24.0687 49.4399 24.11C49.3699 23.1 49.1999 22.13 48.9699 21.14C48.8677 20.6942 48.7587 20.2518 48.6499 19.81C48.4927 19.1715 48.3358 18.5342 48.1999 17.89C48.1299 17.41 48.06 16.93 48.01 16.44C47.9853 16.0118 47.9724 15.5836 47.9596 15.1553C47.9412 14.5436 47.9229 13.9318 47.8699 13.32C47.7799 12.19 47.5899 11.08 47.3599 9.96999C47.3699 10.005 47.3774 10.0425 47.385 10.08C47.3925 10.1175 47.4 10.155 47.41 10.19C47.3602 9.91125 47.3005 9.63244 47.2407 9.35367L47.2399 9.34999V9.33003C47.2349 9.30004 47.2274 9.27005 47.2199 9.24005C47.204 9.14823 47.1876 9.05636 47.1712 8.96453C47.1056 8.59635 47.04 8.22818 47 7.86V7.59004C47.01 7.56004 47.01 7.53002 47.01 7.50002C47.1 7.12002 47.1899 6.72002 47.1099 6.32002C46.9699 5.58002 46.5 4.98002 45.79 4.69002C45.4602 4.56394 45.1116 4.49427 44.7716 4.42633L44.7399 4.42C44.506 4.37103 44.269 4.32501 44.0308 4.27873C43.8312 4.23998 43.6305 4.201 43.43 4.15999C43.4313 4.16126 43.4326 4.16237 43.4338 4.16334C43.4275 4.16211 43.4212 4.16107 43.4149 4.16002C43.3999 4.15753 43.3849 4.15504 43.3699 4.15004C43.3438 4.15004 43.322 4.14577 43.2989 4.14003L43.3 4.14003L43.2922 4.13834L43.2799 4.13515L43.26 4.13002L43.2619 4.13176C43.1048 4.09739 42.9485 4.06038 42.7923 4.02337C42.4545 3.94337 42.1166 3.86334 41.77 3.81001C41.22 3.72001 40.6699 3.66 40.1099 3.61C39.0646 3.50924 38.0112 3.47591 36.9575 3.44255C36.3379 3.42295 35.7182 3.40333 35.0999 3.37001C33.7999 3.28001 32.4899 3.17001 31.2099 2.93001C30.968 2.87472 30.7274 2.81705 30.487 2.75947C30.0319 2.65042 29.578 2.54164 29.1199 2.45003L29.1179 2.44963C28.0986 2.24976 27.0793 2.04991 26.06 1.88002C25.1186 1.71988 24.1724 1.59271 23.2249 1.46537C22.22 1.3303 21.2136 1.19504 20.2099 1.02004L20.2044 1.01882C19.8463 0.939225 19.4881 0.85964 19.13 0.789995C18.59 0.679995 18.0899 0.709988 17.5899 0.969988C16.6599 1.44999 16.45 2.58001 16.8 3.49001C17.0625 4.17061 17.533 4.7094 18.0001 5.24427L18.04 5.28999C18.1081 5.3695 18.1734 5.45043 18.2385 5.53117C18.3454 5.66371 18.4518 5.79572 18.5699 5.92C18.5899 6.01 18.61 6.09 18.64 6.17C18.7875 6.60437 19.1701 6.93128 19.5236 7.23329C19.6014 7.29976 19.6778 7.36507 19.75 7.43001L19.7399 7.42C20.3799 8 21.0099 8.59999 21.6099 9.21999C21.8034 9.4201 21.9968 9.62468 22.1873 9.8337L22.0928 9.92318C22.0554 9.95872 22.0178 9.99437 21.98 10.03C21.8711 10.1338 21.7621 10.2348 21.6546 10.3346C21.5548 10.4271 21.4562 10.5185 21.36 10.61C21.2924 10.6776 21.2216 10.7452 21.1499 10.8137C20.967 10.9883 20.778 11.1689 20.62 11.37C20.5919 11.4016 20.565 11.4332 20.5385 11.4644C20.4896 11.522 20.4419 11.5781 20.39 11.63C19.6071 12.5344 18.888 13.4798 18.168 14.4262C17.8213 14.882 17.4743 15.3381 17.12 15.79L16.9133 16.0498C16.4007 16.6936 15.886 17.3402 15.41 18.01C14.9776 18.6266 14.558 19.2496 14.1409 19.8687L14.1398 19.8703C14.0364 20.0238 13.9332 20.1771 13.83 20.3299L13.8283 20.3324C13.2088 21.2216 12.5894 22.1107 11.91 22.9599C11.635 23.3118 11.3551 23.662 11.0749 24.0125C10.6623 24.5288 10.249 25.0458 9.84998 25.5699C8.68998 27.0999 7.56002 28.66 6.52002 30.29C5.48002 31.91 4.43995 33.5399 3.43995 35.1999C3.17995 35.6349 2.91747 36.07 2.65498 36.505C2.39249 36.94 2.13 37.375 1.87 37.81C1.22 38.89 0.540014 40.05 0.260014 41.3C0.0400137 42.27 -0.0200302 43.2299 0.0899698 44.2099C0.18997 45.1499 0.329989 46.09 0.609989 46.99C0.816671 47.6385 1.03861 48.282 1.2613 48.9276C1.35102 49.1877 1.44102 49.4487 1.53003 49.7099C1.83003 50.6499 2.08006 51.59 2.31006 52.55C2.34017 52.7206 2.36966 52.8917 2.39918 53.0629C2.57555 54.0857 2.753 55.1148 3.06995 56.1C3.37941 57.067 3.7308 58.0162 4.0824 58.9658C4.18525 59.2437 4.28818 59.5217 4.39002 59.8C4.61281 60.5187 4.82012 61.2426 5.02677 61.9642C5.10762 62.2465 5.18849 62.5289 5.27002 62.81C5.50002 63.61 5.73 64.4099 6 65.1899C6.44 66.4399 7.00998 67.64 7.72998 68.75C9.11998 70.89 10.99 72.71 12.87 74.43C14.37 75.8 16.17 76.75 18.08 77.38C18.9551 77.6685 19.8488 77.9016 20.7343 78.1325L20.84 78.16C24.62 79.14 28.43 79.97 32.26 80.73C32.2534 80.7278 32.2468 80.726 32.2402 80.7246C32.2318 80.7228 32.2234 80.7214 32.215 80.72C32.2 80.7175 32.185 80.715 32.17 80.7099C32.205 80.715 32.2375 80.7225 32.27 80.73C32.3025 80.7375 32.335 80.745 32.37 80.75C36.65 81.61 40.99 82.22 45.32 82.78C47.0361 83.0039 48.7413 83.3038 50.4468 83.6038C52.3985 83.9471 54.3508 84.2905 56.32 84.52C58.2299 84.75 60.1401 84.95 62.0601 85.12C62.5537 85.1599 63.0448 85.2022 63.5359 85.2446L63.5442 85.2453C64.0353 85.2877 64.5264 85.3301 65.02 85.37C65.3855 85.4045 65.7509 85.4318 66.1152 85.459C66.4882 85.4868 66.8607 85.5146 67.23 85.55C67.42 85.72 67.66 85.85 67.91 85.92C68.55 86.09 69.17 85.8899 69.6 85.4599C69.6053 85.4573 69.6114 85.4542 69.6168 85.4514C69.6312 85.4436 69.6456 85.4344 69.66 85.42L69.6701 85.41C69.7294 85.3605 69.7887 85.3012 69.8384 85.2516L69.84 85.25C70.06 85 70.2201 84.72 70.3101 84.42C70.4301 84 70.38 83.54 70.15 83.1C70.0669 82.9421 69.9668 82.8091 69.8531 82.6967C69.9889 82.1681 70.1176 81.6312 70.16 81.08C70.2089 80.386 70.1526 79.7208 70.094 79.0282L70.0899 78.98C70.0899 79.0213 70.0926 79.0627 70.0952 79.1026C70.0976 79.1395 70.0999 79.1753 70.0999 79.2088C70.0999 79.1729 70.0972 79.1396 70.0946 79.1077C70.0922 79.0777 70.0899 79.0489 70.0899 79.02C70.0699 78.6 70.0799 78.17 70.0999 77.75C70.1199 77.4834 70.1577 77.2168 70.1955 76.9502C70.2144 76.8168 70.2333 76.6834 70.25 76.5501C70.2842 76.2886 70.313 76.0271 70.3418 75.7656C70.3801 75.4171 70.4185 75.0685 70.4699 74.72C70.5699 74.0503 70.67 73.3796 70.7299 72.7C70.76 72.3246 70.7731 71.9492 70.7863 71.5738C70.7906 71.4492 70.795 71.3246 70.8 71.2C70.82 70.92 70.87 70.64 70.92 70.36C71.08 69.63 71.2799 68.91 71.4899 68.1899C71.553 67.975 71.6201 67.7613 71.6873 67.5476C71.8014 67.1846 71.9156 66.8213 72.01 66.45C72.15 65.92 72.2899 65.38 72.1199 64.84C71.9999 64.44 71.77 64.0401 71.42 63.8001C71.41 63.7901 71.3975 63.7826 71.385 63.775C71.3725 63.7675 71.3599 63.76 71.3499 63.75C71.2299 63.61 71.07 63.48 70.9 63.38C70.6 63.2 70.25 63.1 69.91 63.01C69.46 62.89 69.01 62.77 68.55 62.65C68.3978 62.609 68.2455 62.5674 68.0933 62.5259C66.9851 62.2237 65.8741 61.9207 64.7399 61.78C64.1399 61.7 63.5399 61.64 62.9399 61.58C62.2735 61.5094 61.6133 61.4143 60.9496 61.3187C60.7668 61.2923 60.5836 61.2659 60.4 61.24C59.9551 61.1796 59.5112 61.1203 59.0676 61.0609C58.1155 60.9336 57.165 60.8065 56.2099 60.6701C55.769 60.6105 55.3246 60.5615 54.8808 60.5127C54.5798 60.4795 54.279 60.4464 53.9799 60.41C53.5799 60.365 53.1774 60.31 52.7749 60.255C52.3724 60.2 51.9699 60.145 51.5699 60.1C50.3569 59.96 49.144 59.9048 47.931 59.8495C47.584 59.8337 47.237 59.8179 46.89 59.8001C44.271 59.6201 41.672 59.2203 39.073 58.8204L39.0699 58.82C37.7099 58.62 36.3299 58.47 34.9499 58.32C33.6499 58.18 32.3599 57.98 31.0799 57.73C30.9303 57.6981 30.7806 57.6657 30.631 57.6334C30.0306 57.5038 29.4303 57.3741 28.8299 57.27C28.0599 57.14 27.29 57.04 26.52 56.9399C25.8105 56.8501 25.1032 56.7379 24.395 56.6255C23.6059 56.5003 22.8157 56.3749 22.02 56.28C20.48 56.09 18.94 55.88 17.4 55.66C16.8578 55.5795 16.321 55.5042 15.7816 55.4343C15.7941 55.4101 15.8066 55.3858 15.8191 55.3616L15.8199 55.36C15.8099 55.36 15.8101 55.37 15.8101 55.37C15.9901 55.02 16.19 54.67 16.41 54.34C16.5652 54.1099 16.7462 53.897 16.9268 53.6844C17.0838 53.4997 17.2405 53.3152 17.38 53.12C17.74 52.63 18.09 52.1099 18.37 51.5699C18.5367 51.2432 18.6857 50.9075 18.8347 50.5718C18.909 50.4043 18.9835 50.2363 19.0601 50.0699C19.3101 49.5099 19.54 48.95 19.75 48.37L19.8101 48.22C19.8101 48.21 19.82 48.1901 19.83 48.1801C19.88 48.1201 19.93 48.06 19.97 48L20.0601 47.91L20.48 47.58C20.99 47.14 21.3 46.65 21.53 46.03C21.53 46.025 21.5325 46.02 21.535 46.015C21.5375 46.01 21.54 46.005 21.54 46C21.54 45.9964 21.5414 45.9914 21.5431 45.986C21.5437 45.9841 21.5444 45.982 21.545 45.98C21.5466 45.9752 21.5482 45.9704 21.5492 45.9663C21.5497 45.9639 21.55 45.9618 21.55 45.96V45.98C21.55 45.975 21.5526 45.97 21.5551 45.965C21.5562 45.9627 21.5573 45.9605 21.5582 45.9583C21.5593 45.9555 21.5601 45.9527 21.5601 45.95C21.5601 45.945 21.5625 45.94 21.565 45.935C21.5675 45.93 21.5699 45.925 21.5699 45.92C21.5599 45.92 21.5601 45.9301 21.5601 45.9301C21.6251 45.7201 21.6851 45.5101 21.7451 45.3001C21.8051 45.0901 21.8651 44.88 21.9301 44.67C21.949 44.6006 21.9759 44.5352 22.0032 44.4687C22.0192 44.4298 22.0353 44.3906 22.05 44.35C22.065 44.33 22.0775 44.3075 22.09 44.285C22.1025 44.2625 22.115 44.24 22.13 44.22C22.26 44.04 22.4 43.865 22.54 43.69C22.68 43.515 22.82 43.34 22.95 43.16C23.4799 42.44 24.01 41.71 24.52 40.97L24.5252 40.9625C25.6769 39.3173 26.8286 37.672 27.953 36.0176C28.6705 35.006 29.4482 34.0345 30.225 33.0642C30.3835 32.8662 30.542 32.6682 30.7 32.47C31.59 31.35 32.4801 30.24 33.4301 29.17C33.78 28.7801 34.1274 28.3852 34.4748 27.9903C34.8222 27.5954 35.1701 27.2 35.52 26.8101C35.825 26.4794 36.1342 26.1548 36.4424 25.8312C37.0943 25.1469 37.7426 24.4664 38.34 23.74C38.9139 23.0377 39.4023 22.2613 39.8912 21.4839L40.0239 21.2732C40.1628 21.4471 40.3185 21.6093 40.4799 21.76C41.3032 22.5565 42.2466 23.2248 43.1812 23.8867L43.1824 23.8876L43.1836 23.8884C43.2926 23.9657 43.4014 24.0428 43.51 24.12C43.6602 24.2285 43.8112 24.3363 43.9624 24.4441C44.3543 24.7237 44.7476 25.0043 45.13 25.3001C45.4082 25.5141 45.675 25.7367 45.9411 25.9587C46.1721 26.1515 46.403 26.3442 46.64 26.53C47.05 26.86 47.5499 27.03 48.0799 26.96ZM14.347 58.8312C14.3546 58.8774 14.3623 58.9237 14.37 58.97C14.4111 59.1727 14.4529 59.3747 14.4947 59.5763C14.6054 60.1107 14.7157 60.6428 14.8101 61.18C14.8661 61.4755 14.9117 61.7734 14.9575 62.0727C15.0017 62.3609 15.046 62.6505 15.1 62.9399C15.1397 63.1327 15.1811 63.3248 15.2223 63.5164C15.3887 64.2892 15.5539 65.0567 15.61 65.85C15.6267 66.1389 15.6279 66.4278 15.6291 66.7167C15.6301 66.9478 15.6311 67.1789 15.64 67.41L15.67 67.6801C15.68 67.72 15.69 67.7601 15.7 67.8101C15.76 67.9601 15.82 68.11 15.89 68.25C16.05 68.56 16.23 68.86 16.42 69.15C16.6338 69.461 16.8602 69.7551 17.0882 70.0516C17.2122 70.2127 17.3367 70.3745 17.46 70.54C17.7673 70.9434 17.9731 71.3836 18.1838 71.8342L18.21 71.89C18.23 71.92 18.25 71.96 18.27 72C18.35 72.12 18.44 72.24 18.53 72.35C18.72 72.55 18.92 72.74 19.12 72.92C19.29 73.06 19.45 73.1899 19.62 73.3199C19.9567 73.5735 20.1691 73.938 20.2522 74.3307C21.8386 74.7876 23.4444 75.1742 25.0451 75.5595L25.13 75.5799C27.21 76.0899 29.3 76.5199 31.4 76.9499C31.39 76.9499 31.38 76.9499 31.38 76.9399C31.395 76.9449 31.4075 76.9474 31.42 76.9499C31.4254 76.951 31.4308 76.9521 31.4364 76.9534C31.4437 76.9551 31.4515 76.9571 31.46 76.9599C31.48 76.965 31.5025 76.97 31.525 76.975C31.5475 76.98 31.57 76.985 31.59 76.99C31.7096 77.0133 31.8284 77.0367 31.9468 77.06L32.2 77.11L32.2094 77.1118C32.4088 77.1512 32.6082 77.1906 32.8101 77.23H32.8001C32.8118 77.23 32.82 77.2334 32.8269 77.2362C32.8317 77.2383 32.8358 77.24 32.84 77.24C32.8508 77.2427 32.8623 77.2454 32.8742 77.2481L32.899 77.2537C32.8959 77.2526 32.8928 77.2514 32.89 77.25C36.6 77.96 40.34 78.53 44.08 79.04C44.5785 79.1089 45.0771 79.1739 45.5754 79.239L45.5786 79.2394C46.8883 79.4103 48.197 79.581 49.5 79.8199L49.9211 79.8984C51.6621 80.2231 53.4118 80.5494 55.17 80.79C57.58 81.12 60.0001 81.3599 62.4301 81.59C63.233 81.6654 64.0359 81.7315 64.842 81.7979L64.8458 81.7982C65.2131 81.8284 65.581 81.8587 65.95 81.89C66.1062 81.9014 66.2625 81.9135 66.4188 81.9261C66.4306 81.8801 66.4425 81.8339 66.4544 81.7876C66.5059 81.588 66.5578 81.3865 66.5999 81.1899C66.6299 81.0099 66.66 80.82 66.67 80.64C66.68 80.4402 66.67 80.2404 66.66 80.0406C66.6536 79.9698 66.6461 79.8976 66.6386 79.8255C66.6227 79.6732 66.6067 79.5193 66.5999 79.37C66.5299 78.43 66.5699 77.4901 66.6999 76.5501C66.7492 76.1951 66.7888 75.8401 66.8282 75.4863C66.8688 75.1225 66.9092 74.76 66.9599 74.4L66.97 74.3292C67.0866 73.5134 67.2019 72.7064 67.27 71.89C67.28 71.74 67.2825 71.5926 67.285 71.4451C67.2875 71.2975 67.29 71.15 67.3 71C67.38 69.84 67.6799 68.72 68 67.6C68.0736 67.3298 68.1586 67.0559 68.2434 66.7828C68.2967 66.6111 68.3498 66.4398 68.4 66.27C68.3 66.2434 68.199 66.2167 68.0979 66.1901C67.8956 66.1367 67.6933 66.0834 67.5 66.03C67.3985 66.0031 67.2969 65.9761 67.1951 65.949C66.4644 65.7545 65.726 65.558 64.9799 65.4H64.9599C64.2861 65.2755 63.6017 65.21 62.9183 65.1445C62.6685 65.1206 62.4189 65.0967 62.17 65.07C61.343 64.9793 60.5191 64.8598 59.6967 64.7405C59.0673 64.6492 58.4386 64.558 57.81 64.48C57.359 64.4231 56.9094 64.362 56.4602 64.3009C55.7241 64.2008 54.9889 64.1008 54.25 64.02C53.6387 63.9544 53.0292 63.8736 52.42 63.7929C51.544 63.6768 50.6688 63.5608 49.79 63.49C49.2947 63.4601 48.7994 63.4368 48.3044 63.4135C47.3105 63.3668 46.3179 63.3201 45.3299 63.22C43.5699 63.04 41.8199 62.83 40.0699 62.57C39.6843 62.5143 39.2987 62.4531 38.9131 62.3919C38.3987 62.3103 37.8843 62.2286 37.3699 62.16C36.8392 62.086 36.3085 62.031 35.7802 61.9762C35.4524 61.9422 35.1255 61.9083 34.8 61.87C32.94 61.66 31.11 61.35 29.28 60.96C29.16 60.94 29.0499 60.92 28.9399 60.89C28.1009 60.7251 27.2567 60.6116 26.4111 60.4978C26.0776 60.453 25.7438 60.4081 25.41 60.36C24.9729 60.2955 24.5359 60.2259 24.0984 60.1562C23.3146 60.0314 22.5293 59.9063 21.7399 59.8101C20.5099 59.6601 19.28 59.5 18.05 59.33C17.7364 59.2855 17.4227 59.2392 17.1089 59.1929C16.1909 59.0574 15.2715 58.9218 14.347 58.8312ZM12.0699 67.16C12.0899 67.768 12.1496 68.3462 12.3381 68.9242C12.2379 68.8136 12.1385 68.7022 12.04 68.59C11.57 68.0399 11.13 67.47 10.72 66.88C10.45 66.45 10.21 66.0199 9.96997 65.5699C9.71997 65.0399 9.50005 64.4999 9.30005 63.9499C9.04817 63.1888 8.83227 62.4157 8.61622 61.6421C8.43773 61.0029 8.25912 60.3633 8.06006 59.73C7.67039 58.471 7.21078 57.2421 6.75117 56.0131L6.75 56.01C6.72771 55.945 6.70507 55.8799 6.68241 55.8148C6.58316 55.5298 6.48327 55.2429 6.41004 54.9499C6.33004 54.6299 6.25005 54.31 6.17005 53.98C6.11704 53.7029 6.06635 53.4246 6.0156 53.146C5.85573 52.2685 5.69527 51.3877 5.45996 50.53C5.12996 49.32 4.72995 48.15 4.31995 46.97V46.98C4.31995 46.975 4.31748 46.9675 4.31501 46.9599C4.31253 46.9524 4.31006 46.9449 4.31006 46.9399C4.30506 46.9249 4.30006 46.9074 4.29505 46.8899C4.29004 46.8724 4.28503 46.8549 4.28003 46.84C4.28503 46.8549 4.29004 46.8675 4.29505 46.88C4.30006 46.8925 4.30506 46.905 4.31006 46.92C4.14006 46.4 3.97997 45.89 3.83997 45.36C3.73997 44.78 3.64997 44.21 3.58997 43.62C3.57997 43.33 3.57997 43.05 3.58997 42.76C3.59997 42.64 3.61001 42.52 3.63001 42.4C3.68001 42.17 3.74006 41.94 3.81006 41.72C3.91006 41.48 4.01 41.25 4.12 41.01C4.1 41.045 4.0825 41.08 4.06501 41.115C4.04751 41.15 4.03001 41.185 4.01001 41.22C4.51022 40.2279 5.09384 39.2706 5.67393 38.319C5.78967 38.1292 5.90526 37.9396 6.02002 37.75C6.57002 36.84 7.12995 35.93 7.68995 35.03C8.62994 33.51 9.60998 32 10.6 30.5C11.7 28.95 12.86 27.4399 14.04 25.9499C14.1311 25.8361 14.2226 25.7224 14.3142 25.6084C14.8263 24.9715 15.342 24.3301 15.8001 23.66C16.3901 22.82 16.96 21.98 17.53 21.13C18.27 20.09 19.03 19.06 19.83 18.05C20.2149 17.5651 20.5873 17.0702 20.9598 16.5752C21.3322 16.0803 21.705 15.5849 22.09 15.1C22.45 14.64 22.83 14.19 23.22 13.75C23.2329 13.7435 23.2417 13.7329 23.2517 13.7208C23.2571 13.7141 23.263 13.7071 23.27 13.7C23.28 13.69 23.2875 13.68 23.295 13.67C23.3025 13.66 23.3099 13.65 23.32 13.64C23.3133 13.6532 23.3068 13.6621 23.3002 13.6694L23.29 13.68C23.2934 13.6766 23.2968 13.6732 23.3002 13.6694C23.7872 13.1631 24.3036 12.6668 24.83 12.2C24.85 12.19 24.88 12.17 24.9 12.15C24.9985 12.0844 25.0891 12.0106 25.1713 11.9302C25.1842 11.927 25.197 11.9236 25.2099 11.92C25.9699 11.71 26.56 10.97 26.53 10.17C26.5117 9.34917 26.0193 8.81119 25.508 8.25254C25.4587 8.19866 25.4092 8.14458 25.3599 8.09004C25.1925 7.90929 25.0264 7.72712 24.8603 7.54485C24.4014 7.04144 23.9418 6.53722 23.4499 6.06001C23.0499 5.67001 22.6499 5.3 22.2299 4.92C22.4449 4.95 22.6599 4.97751 22.875 5.00502C23.09 5.03253 23.305 5.06004 23.52 5.09004C25.11 5.30004 26.69 5.59004 28.26 5.90004C28.25 5.90004 28.2425 5.89754 28.2349 5.89504C28.2274 5.89253 28.2199 5.89003 28.2099 5.89003C28.2199 5.89003 28.2324 5.89253 28.2449 5.89504C28.2575 5.89754 28.27 5.90004 28.28 5.90004L28.282 5.90038C28.3309 5.90854 28.3797 5.91667 28.4231 5.92481L28.4266 5.92554C28.4329 5.92766 28.4394 5.92965 28.4476 5.92997C28.7549 5.99465 29.0606 6.0669 29.366 6.1391C29.8099 6.244 30.2532 6.34879 30.6999 6.43001C31.5099 6.59001 32.34 6.68003 33.16 6.76003C34.5087 6.89356 35.8573 6.94686 37.209 7.00028C37.8818 7.02687 38.5553 7.05349 39.2299 7.09004C39.9599 7.14004 40.7099 7.21004 41.4399 7.34004C41.7817 7.40841 42.1208 7.4823 42.4585 7.5559C42.7631 7.62225 43.0665 7.68838 43.3699 7.75002C43.3899 7.75002 43.4 7.75003 43.42 7.76003C43.44 7.77003 43.4499 7.77004 43.4599 7.77004V7.81001C43.4799 8.5297 43.6198 9.2294 43.7598 9.92909L43.76 9.90004C43.7899 10.04 43.8174 10.1774 43.8449 10.3148C43.8725 10.4524 43.9 10.59 43.93 10.73C43.93 10.74 43.9325 10.75 43.935 10.76C43.9374 10.77 43.9399 10.78 43.9399 10.79C43.9499 10.8 43.9499 10.81 43.9499 10.82V10.8L43.9561 10.8177C43.9637 10.8388 43.9699 10.8563 43.9699 10.88C44.1499 11.84 44.3 12.8 44.39 13.77C44.4029 14.0706 44.4102 14.3749 44.4175 14.6797C44.4273 15.0846 44.4371 15.4908 44.4599 15.89C44.5099 16.72 44.5899 17.54 44.7199 18.36C44.8599 19.27 45.0899 20.17 45.3199 21.07C44.5399 20.52 43.77 19.96 43.06 19.34L43.0574 19.3374C42.9783 19.2583 42.899 19.179 42.8199 19.09C42.7399 18.79 42.6499 18.5 42.4899 18.22C42.3199 17.92 42.0999 17.67 41.8599 17.42C41.2871 16.8215 40.3632 16.742 39.6824 17.1504C38.9774 16.884 38.1127 17.1274 37.65 17.72C37.34 18.11 37.23 18.56 37.29 19C37.22 19.1 37.16 19.19 37.1 19.29C37.0011 19.4411 36.9029 19.5922 36.8049 19.7431C36.5462 20.1415 36.2884 20.5384 36.02 20.9301C35.75 21.2901 35.4799 21.65 35.1899 22C34.9471 22.2578 34.7028 22.5128 34.4588 22.7676L34.458 22.7685C34.0491 23.1954 33.6406 23.6219 33.24 24.0601C32.8258 24.5102 32.4225 24.9712 32.0191 25.4321C31.7505 25.7391 31.4818 26.0461 31.21 26.35C31.2266 26.33 31.2432 26.3101 31.2598 26.2906L31.36 26.1801C31.3266 26.2134 31.2932 26.2513 31.2598 26.2906C30.6133 27.0038 29.9686 27.7188 29.36 28.47C28.71 29.27 28.0701 30.07 27.4301 30.88L27.1476 31.2337C26.6123 31.9037 26.0802 32.5696 25.5699 33.25C25.1351 33.8298 24.7371 34.4306 24.3377 35.0334C24.1861 35.2622 24.0341 35.4916 23.88 35.72C23.6804 36.0032 23.4807 36.2867 23.281 36.5704C22.3102 37.9492 21.3369 39.3315 20.35 40.7C20.1671 40.9628 19.9712 41.2127 19.7752 41.4625C19.6283 41.6498 19.4814 41.8372 19.34 42.03C19.01 42.48 18.78 42.96 18.59 43.49C18.5028 43.7515 18.4258 44.0197 18.3491 44.2869C18.2938 44.4794 18.2387 44.6715 18.1801 44.86C18.1701 44.87 18.17 44.87 18.17 44.88L18.0866 44.9486C17.7747 45.2047 17.4654 45.4587 17.1899 45.78C16.7541 46.2933 16.5154 46.8722 16.3009 47.4987L16.305 47.4851C16.3094 47.4703 16.3138 47.4555 16.3188 47.4407L16.33 47.41C16.3259 47.4202 16.3222 47.4305 16.3188 47.4407C16.1851 47.8047 16.0165 48.1687 15.8501 48.5278C15.8063 48.6223 15.7627 48.7164 15.72 48.8101C15.64 48.9801 15.565 49.15 15.49 49.32C15.415 49.49 15.34 49.66 15.26 49.83C15.13 50.09 14.9701 50.34 14.8101 50.58C14.6152 50.8614 14.3998 51.1253 14.1845 51.3891C14.0021 51.6126 13.8197 51.836 13.65 52.0699C13.2875 52.5756 12.9705 53.1085 12.6903 53.66C12.6933 53.6536 12.6965 53.647 12.7 53.64C12.5007 54.0385 12.2673 54.4155 12.034 54.7922C11.7171 55.3041 11.4005 55.8155 11.17 56.38C10.92 56.98 10.72 57.61 10.72 58.27C10.72 58.8653 10.8397 59.4407 10.9598 60.0179C10.987 60.1484 11.0142 60.279 11.04 60.41C11.03 60.375 11.0225 60.3375 11.015 60.3C11.0075 60.2625 11 60.2249 10.99 60.1899C11.17 61.0899 11.34 61.99 11.48 62.89C11.5637 63.4275 11.6816 63.9553 11.7996 64.4835C11.8506 64.7119 11.9016 64.9406 11.95 65.17C11.94 65.135 11.9325 65.0975 11.925 65.06C11.9175 65.0225 11.91 64.985 11.9 64.95C11.97 65.2999 12.0201 65.66 12.0601 66.02C12.0715 66.2371 12.0698 66.4541 12.0682 66.6712C12.0669 66.8341 12.0657 66.9971 12.0699 67.16ZM28.4476 5.92997L28.4499 5.93001L28.4266 5.92554L28.4476 5.92997ZM28.025 35.9116C28.0372 35.8939 28.049 35.8766 28.0601 35.86L28.025 35.9116ZM32.9319 77.261L32.9484 77.2648L32.97 77.27C32.957 77.2657 32.9441 77.2632 32.9319 77.261ZM47.2125 9.21018L47.2099 9.19501C47.2074 9.18005 47.2049 9.16501 47.1999 9.15004C47.2032 9.17009 47.2077 9.19013 47.2125 9.21018Z"
    fill="rgba(191, 192, 191, 1)" />
</svg>