<svg width="74" height="79" viewBox="0 0 74 79" fill="none" xmlns="http://www.w3.org/2000/svg">
  <path
    d="M0.950016 74.49C0.820016 74.11 0.709993 73.74 0.769993 73.33C0.829993 72.87 1.04 72.43 1.31 72.05C1.63 71.6 2 71.17 2.34 70.73C2.79 70.15 3.28 69.59 3.75 69.03C4.46 68.19 5.17002 67.34 5.89002 66.5C7.12002 65.05 8.34001 63.59 9.57001 62.12C12.1 59.1 14.62 56.07 17.08 53C19.51 49.96 21.96 46.91 24.38 43.86C26.99 40.57 29.57 37.25 32.15 33.93C34.29 31.17 36.4 28.38 38.61 25.68C39.49 24.61 40.36 23.55 41.24 22.48C41.65 21.98 42.05 21.47 42.48 20.99C43.27 20.12 44.05 19.26 44.83 18.39C45.42 17.74 45.98 17.06 46.59 16.44C47.55 15.47 48.5 14.51 49.47 13.54C49.86 13.14 50.29 12.76 50.7 12.37C51.44 11.67 52.2 11 53.06 10.45C53.88 9.93 55.01 10.28 55.48 11.09C55.98 11.95 55.66 13 54.85 13.51C54.78 13.55 54.71 13.6 54.64 13.64C54.37 13.83 54.12 14.04 53.86 14.26C52.2 15.73 50.67 17.35 49.11 18.92C48.41 19.63 47.77 20.4 47.1 21.14C46.4 21.92 45.69 22.69 44.99 23.47C43.62 25.14 42.25 26.81 40.88 28.47C39.79 29.8 38.75 31.17 37.7 32.52C35.19 35.76 32.68 39 30.16 42.23C27.98 45.04 25.75 47.8 23.53 50.58C20.82 53.97 18.09 57.33 15.35 60.69C13.78 62.61 12.18 64.49 10.59 66.39C9.77 67.37 8.95001 68.34 8.13001 69.31C7.75001 69.76 7.36001 70.22 6.98001 70.67C6.57001 71.16 6.14999 71.65 5.73999 72.14C5.46999 72.46 5.21002 72.79 4.95002 73.12C4.83002 73.27 4.71 73.42 4.59 73.58C4.67 74.52 3.99 75.34 3.06 75.49C2.98 75.5 2.89999 75.52 2.82999 75.53C2.74999 75.55 2.65999 75.55 2.57999 75.55C1.88999 75.58 1.18002 75.13 0.950016 74.49Z"
    fill="rgba(191, 192, 191, 1)" />
  <path
    d="M9.56003 73.48C9.42003 73.23 9.34003 72.94 9.34003 72.63C9.34003 71.91 9.79003 71.28 10.41 71.01C10.62 70.74 10.82 70.46 11.02 70.18C12.35 68.2 13.77 66.29 15.17 64.35C15.49 63.9 15.83 63.48 16.17 63.05C17.01 61.97 17.85 60.89 18.7 59.81C20.97 56.9 23.35 54.07 25.73 51.24C28.13 48.39 30.55 45.55 32.89 42.65C33.78 41.55 34.67 40.45 35.56 39.35C36.02 38.79 36.49 38.23 36.93 37.65C38.29 35.88 39.64 34.11 41 32.34C43.11 29.59 45.15 26.78 47.17 23.95C47.13 24.01 47.09 24.07 47.05 24.14C48.15 22.5 49.21 20.84 50.29 19.19C50.82 18.39 51.85 18.05 52.71 18.55C53.51 19.02 53.87 20.17 53.34 20.97C52.26 22.62 51.2 24.28 50.1 25.92C49.48 26.86 48.79 27.76 48.13 28.67C47.71 29.26 47.28 29.83 46.85 30.41C45.73 31.91 44.63 33.41 43.49 34.89C42.65 35.98 41.81 37.08 40.97 38.18C40.55 38.73 40.13 39.3 39.7 39.84C37.27 42.85 34.86 45.86 32.37 48.82C29.6 52.12 26.84 55.42 24.09 58.73C22.33 60.85 20.66 63.03 18.97 65.21C18.37 65.98 17.79 66.76 17.22 67.56C16.27 68.88 15.29 70.18 14.38 71.52C14.1 71.95 13.81 72.37 13.52 72.79C13.15 73.31 12.73 73.74 12.26 74.15C11.96 74.4 11.59 74.52 11.22 74.52C10.53 74.51 9.84003 74.12 9.56003 73.48Z"
    fill="rgba(191, 192, 191, 1)" />
  <path
    d="M16.11 78.45C15.26 78.09 14.74 77 15.16 76.13C15.38 75.69 15.73 75.33 16.05 74.96C16.36 74.6 16.65 74.22 16.95 73.85C17.47 73.21 17.98 72.56 18.49 71.9C19.65 70.37 20.81 68.84 21.97 67.3C24.45 64 26.96 60.71 29.48 57.42C31.21 55.17 32.89 52.87 34.6 50.61C35.44 49.49 36.21 48.31 37.02 47.17C37.86 45.97 38.7 44.78 39.54 43.59C39.5 43.65 39.45 43.71 39.42 43.78C40.96 41.48 42.52 39.19 44.08 36.9C44.08 36.91 44.07 36.91 44.07 36.92C45.25 35.17 46.5 33.47 47.71 31.74C48.81 30.17 49.96 28.64 51.09 27.1C53.29 24.1 55.54 21.13 57.69 18.09C58.12 17.49 58.54 16.88 58.96 16.27C59.24 15.84 59.51 15.41 59.79 14.98C60.31 14.17 61.36 13.84 62.21 14.35C63.02 14.82 63.36 15.96 62.85 16.77C60.69 20.17 58.26 23.38 55.86 26.61C53.54 29.74 51.24 32.88 49 36.07C48.32 37.03 47.64 38 46.96 38.97C45.43 41.24 43.9 43.49 42.36 45.75C42.4 45.69 42.45 45.63 42.49 45.56C41.29 47.35 40.01 49.1 38.76 50.86C37.86 52.14 36.94 53.4 36.01 54.65C33.4 58.13 30.77 61.58 28.13 65.03C26.61 67.01 25.13 69.03 23.62 71.01C22.65 72.3 21.67 73.58 20.7 74.86C20.3 75.38 19.87 75.89 19.46 76.4C19.06 76.9 18.61 77.38 18.23 77.89C18.26 77.85 18.28 77.81 18.3 77.77C17.95 78.27 17.41 78.58 16.82 78.58C16.57 78.59 16.34 78.55 16.11 78.45Z"
    fill="rgba(191, 192, 191, 1)" />
  <path
    d="M68.04 51.85C67.06 51.71 66.43 50.81 66.53 49.85C66.92 46.02 67.32 42.2 67.83 38.39C68.43 33.94 69.1 29.48 69.41 25C69.54 22.8 69.59 20.58 69.47 18.39C69.4 17.14 69.34 15.9 69.27 14.65C69.15 12.44 69.05 10.23 68.92 8.03001C68.86 7.16001 68.74 6.30001 68.58 5.44001C68.54 5.28001 68.5 5.12001 68.45 4.96001C68.42 4.87001 68.38 4.78001 68.34 4.69001C68.26 4.54001 68.18 4.4 68.09 4.26C68.04 4.2 67.99 4.13001 67.94 4.07001C67.89 4.02001 67.85 3.97 67.8 3.93C67.79 3.92 67.78 3.91001 67.77 3.91001C67.76 3.91001 67.75 3.9 67.75 3.9H67.76C67.72 3.89 67.68 3.88001 67.64 3.86001C67.53 3.84001 67.41 3.82 67.3 3.81C67.07 3.8 66.85 3.79 66.63 3.79C65.96 3.85 65.3 3.99 64.64 4.12C62.63 4.55 60.67 5.14001 58.69 5.69001C57.37 6.06001 56.05 6.51001 54.74 6.92001C53.09 7.49001 51.44 8.05 49.81 8.67C47.91 9.38 46.01 10.1 44.11 10.83C40.27 12.31 36.41 13.79 32.56 15.25C31.11 15.8 29.66 16.36 28.21 16.92C26.46 17.6 24.67 18.23 22.96 18.99C22.65 19.26 22.25 19.42 21.82 19.42C20.86 19.42 20.05 18.62 20.05 17.65C20.05 16.12 21.69 15.68 22.85 15.21C23.77 14.84 24.69 14.48 25.62 14.12C27.33 13.46 29.05 12.79 30.76 12.14C34.44 10.75 38.1 9.35001 41.77 7.94001C43.71 7.19001 45.66 6.45001 47.61 5.72001C49.49 5.01001 51.38 4.36 53.27 3.7C54.09 3.41 54.91 3.16001 55.74 2.91001C56.55 2.66001 57.36 2.39001 58.17 2.16001C59.29 1.85001 60.4 1.52 61.53 1.23C62.8 0.900003 64.08 0.620007 65.38 0.390007C66.52 0.180007 67.81 0.17001 68.92 0.55001C69.84 0.87001 70.56 1.55001 71.09 2.35001C71.39 2.80001 71.63 3.26 71.8 3.76C72.03 4.38 72.14 5.05 72.24 5.7C72.51 7.47 72.55 9.25001 72.65 11.03C72.76 13.15 72.88 15.27 72.99 17.39C73.22 21.68 73.05 25.99 72.5 30.25C72.25 32.17 72.01 34.09 71.75 36C71.47 38.1 71.17 40.19 70.93 42.29C70.62 44.97 70.34 47.65 70.06 50.33C69.97 51.21 69.15 51.86 68.29 51.86C68.19 51.87 68.11 51.86 68.04 51.85Z"
    fill="rgba(191, 192, 191, 1)" />
</svg>