<svg width="78" height="86" viewBox="0 0 78 86" fill="none" xmlns="http://www.w3.org/2000/svg">
  <path
    d="M3.71002 85.64C2.85002 85.21 2.40003 84.37 2.09003 83.49C1.82003 82.73 1.66001 81.96 1.51001 81.17C1.31001 80.22 1.29999 79.23 1.23999 78.27C1.18999 77.37 1.26003 76.45 1.28003 75.55C1.35003 73.7 1.31999 71.85 1.29999 70C1.28999 69.11 1.25 68.21 1.19 67.32C1.14 66.5 1.13003 65.69 1.09003 64.87C1.07003 64.7 1.05003 64.53 1.03003 64.35C0.850029 63.59 0.549971 62.87 0.469971 62.09C0.459971 61.94 0.45998 61.79 0.47998 61.64C0.20998 61.33 0.039978 60.93 0.039978 60.49C0.039978 59.53 0.839998 58.72 1.81 58.72C2.45 58.72 3.07997 58.68 3.71997 58.65C5.02997 58.5 6.33 58.35 7.62 58.1C7.58 58.11 7.55001 58.12 7.51001 58.12C9.03001 57.8 10.53 57.38 12.01 56.87C13.49 56.33 14.91 55.67 16.35 55.03C17.15 54.61 17.96 54.18 18.76 53.76C19.4 53.42 20.01 53.05 20.64 52.67C21.29 52.28 21.95 51.9 22.59 51.48C23.42 50.93 24.24 50.39 25.07 49.85C26.31 48.98 27.55 48.12 28.76 47.21C29.34 46.78 29.93 46.35 30.49 45.89C31.2 45.31 31.9 44.73 32.6 44.14C33.64 43.18 34.68 42.23 35.67 41.23C36.16 40.74 36.66 40.25 37.13 39.74C37.68 39.13 38.24 38.53 38.8 37.92C40.43 36.01 42.01 34.08 43.54 32.09C44.29 31.12 45 30.11 45.72 29.12C46.03 28.69 46.34 28.27 46.66 27.85C45.5 27.67 44.35 27.48 43.22 27.15C42.38 26.9 41.54 26.63 40.7 26.39C39.81 26.12 38.91 25.89 38 25.69C36.84 25.47 35.69 25.32 34.52 25.15C33.91 25.06 33.32 24.96 32.72 24.83C32.13 24.69 31.49 24.42 31.13 23.92C30.74 23.37 30.66 22.7 30.92 22.07C31.21 21.38 31.9 21.01 32.53 20.68C33.26 20.3 34.02 19.98 34.77 19.64C36.01 19.08 37.24 18.5 38.47 17.89C40.18 17.01 41.89 16.13 43.64 15.33C45.39 14.53 47.17 13.82 48.92 13.04C50.65 12.28 52.35 11.43 54.05 10.58C55.67 9.77 57.29 8.97 58.92 8.18C59.14 8.07 59.37 7.96 59.59 7.85C62.59 6.33 65.52 4.64 68.32 2.78C69.04 2.3 69.75 1.82 70.48 1.34C71 0.999997 71.52 0.669997 72.15 0.589997C73.07 0.469997 73.98 1.05 74.35 1.89C74.7 2.69 74.77 3.6 74.81 4.48C74.83 4.91 74.85 5.34 74.87 5.78C74.91 6.67 74.95 7.57 75.01 8.47C75.18 10.87 75.42 13.27 75.54 15.67C75.66 18.09 75.64 20.51 75.79 22.92C76 24.75 76.32 26.57 76.52 28.4C76.72 30.21 76.88 32.01 77.21 33.8C77.4 34.64 77.59 35.48 77.85 36.3C78.12 37.14 77.8 38.12 77.03 38.57C76.01 39.16 74.9 38.75 73.91 38.33C72.74 37.83 71.61 37.21 70.48 36.64C69.79 36.29 69.1 35.91 68.46 35.48C67.75 35 67.12 34.44 66.49 33.87C66.49 33.87 66.49 33.87 66.5 33.87C66.06 33.49 65.61 33.14 65.15 32.8C65.15 33.41 65.13 34.03 65.05 34.64C64.83 36.37 64.33 38.01 63.75 39.65C63.78 39.58 63.8 39.51 63.83 39.43C63.44 40.55 62.94 41.62 62.39 42.66C61.84 43.7 61.14 44.68 60.46 45.64C59.8 46.57 59.09 47.48 58.41 48.39C57.73 49.29 57.09 50.22 56.45 51.16C55.13 53.18 53.81 55.2 52.29 57.07C52.09 57.32 51.89 57.56 51.69 57.81C51.5 58.08 51.26 58.32 51.03 58.56C50.89 58.72 50.75 58.88 50.61 59.03C50.54 59.13 50.45 59.23 50.35 59.32C49.27 60.49 48.14 61.62 47.05 62.79C46.48 63.4 45.92 64.02 45.33 64.61C44.58 65.36 43.83 66.09 43.05 66.81C41.68 68.08 40.13 69.14 38.67 70.31C37.15 71.54 35.67 72.79 34.13 74C32.63 75.18 31.02 76.22 29.37 77.16C28.51 77.65 27.63 78.09 26.75 78.53C25.91 78.94 25.03 79.27 24.16 79.61C22.37 80.32 20.59 81.04 18.77 81.66C17.86 81.97 16.94 82.25 16.02 82.52C15.19 82.76 14.35 82.96 13.53 83.22C13.24 83.31 12.94 83.41 12.65 83.5C10.92 84.12 9.23002 84.89 7.46002 85.38C7.04002 85.5 6.62 85.6 6.19 85.7C5.75 85.79 5.31 85.88 4.87 85.88C4.48 85.9 4.09002 85.83 3.71002 85.64ZM5.40997 82.27C6.05997 82.12 6.70003 81.94 7.34003 81.74C9.14003 81.09 10.89 80.32 12.73 79.79C14.6 79.25 16.46 78.72 18.3 78.1C19.69 77.59 21.06 77.05 22.43 76.49C23.05 76.24 23.68 76 24.31 75.74C24.96 75.46 25.6 75.17 26.23 74.85C27.37 74.23 28.49 73.6 29.59 72.91C29.53 72.95 29.47 73 29.4 73.04C30.36 72.39 31.31 71.73 32.22 71.01C33.21 70.23 34.18 69.42 35.15 68.61C36.05 67.86 36.99 67.14 37.92 66.42C38.83 65.71 39.73 64.99 40.62 64.25C41.62 63.32 42.6 62.37 43.54 61.37C44.54 60.3 45.54 59.25 46.56 58.19C46.98 57.76 47.39 57.32 47.81 56.89C48.02 56.61 48.28 56.35 48.51 56.1C48.5 56.12 48.48 56.13 48.47 56.15C48.61 55.99 48.76 55.82 48.9 55.66C48.92 55.64 48.94 55.62 48.95 55.59C49.45 54.97 49.95 54.36 50.42 53.72C50.9 53.08 51.35 52.43 51.81 51.78C52.83 50.25 53.83 48.71 54.9 47.22C55.97 45.73 57.1 44.3 58.16 42.8C58.7 41.98 59.2 41.16 59.67 40.28C59.96 39.65 60.25 39.02 60.48 38.37C60.6 38.03 60.72 37.68 60.84 37.33C60.81 37.4 60.79 37.47 60.76 37.55C60.97 36.87 61.16 36.2 61.33 35.52C61.44 34.97 61.53 34.42 61.6 33.86C61.64 33.13 61.63 32.42 61.59 31.7C61.56 31.36 61.53 31.01 61.49 30.67C61.41 29.88 61.37 29.06 61.98 28.46C62.58 27.86 63.43 27.74 64.19 28.08C64.54 28.24 64.88 28.45 65.21 28.65C66.01 29.13 66.8 29.62 67.56 30.15C68.28 30.66 68.93 31.27 69.58 31.86C69.53 31.81 69.47 31.76 69.41 31.71C69.72 31.98 70.04 32.23 70.37 32.47C71.3 33.08 72.31 33.58 73.3 34.07C73.29 34.07 73.28 34.06 73.26 34.05C73.3 34.07 73.33 34.08 73.36 34.1C73.4 34.12 73.43 34.14 73.47 34.15C73.44 34.13 73.42 34.12 73.39 34.11C73.5 34.17 73.62 34.22 73.73 34.28C73.6 33.64 73.49 32.99 73.41 32.34C73.2 30.45 73.02 28.57 72.74 26.69C72.46 24.79 72.22 22.9 72.18 20.98C72.13 19.06 72.11 17.15 72.01 15.23C72.02 15.31 72.02 15.39 72.03 15.47C71.91 13.73 71.76 11.99 71.63 10.25C71.51 8.51 71.42 6.77 71.33 5.03C71.1 5.18 70.88 5.34 70.65 5.49C69.86 6.02 69.06 6.53 68.26 7.04C66.72 8 65.15 8.93 63.55 9.79C61.89 10.68 60.18 11.49 58.49 12.33C56.74 13.2 55 14.08 53.24 14.94C51.5 15.8 49.73 16.57 47.94 17.33C46.21 18.06 44.51 18.82 42.83 19.64C41.44 20.35 40.04 21.06 38.63 21.75C38.41 21.86 38.19 21.96 37.97 22.07C38.53 22.17 39.08 22.29 39.64 22.41C40.69 22.64 41.71 22.97 42.74 23.29C43.68 23.59 44.62 23.83 45.58 24.06C46.45 24.21 47.33 24.33 48.2 24.47C48.96 24.59 49.85 24.67 50.47 25.16C50.83 25.44 51.07 25.75 51.21 26.18C51.33 26.56 51.32 26.97 51.19 27.34C50.92 28.14 50.33 28.79 49.84 29.46C49.3 30.18 48.78 30.91 48.26 31.63C47.16 33.15 46.05 34.68 44.86 36.14C43.63 37.66 42.41 39.18 41.1 40.62C40.46 41.32 39.83 42.05 39.15 42.73C38.47 43.42 37.81 44.14 37.09 44.79C36.32 45.5 35.58 46.25 34.77 46.91C33.96 47.58 33.15 48.25 32.34 48.92C32.06 49.15 31.75 49.36 31.46 49.58C30.94 49.96 30.43 50.35 29.92 50.73C29.13 51.32 28.32 51.86 27.52 52.42C26.01 53.48 24.45 54.48 22.87 55.43C22.28 55.79 21.69 56.18 21.08 56.5C20.37 56.87 19.66 57.25 18.96 57.62C18.46 57.88 17.98 58.15 17.46 58.38C16.61 58.76 15.75 59.14 14.9 59.52C14.29 59.79 13.64 60.01 13.01 60.23C12.08 60.55 11.15 60.84 10.2 61.09C8.71001 61.48 7.18997 61.79 5.65997 61.96C5.13997 62.02 4.61003 62.07 4.09003 62.12C4.21003 62.53 4.35 62.93 4.44 63.35C4.61 64.15 4.63997 64.95 4.65997 65.77C4.69997 67.26 4.82998 68.74 4.84998 70.23C4.86998 71.74 4.88999 73.24 4.85999 74.75C4.83999 75.52 4.78998 76.29 4.78998 77.05C4.78998 77.8 4.80999 78.55 4.85999 79.3C4.90999 79.71 4.96001 80.11 5.01001 80.51C5.06001 80.87 5.14998 81.23 5.22998 81.59C5.20998 81.51 5.19999 81.44 5.17999 81.36C5.22999 81.69 5.31997 81.98 5.40997 82.27Z"
    fill="rgba(191, 192, 191, 1)" />
</svg>