<svg width="70" height="119" viewBox="0 0 70 119" fill="none" xmlns="http://www.w3.org/2000/svg">
  <path fill-rule="evenodd" clip-rule="evenodd"
    d="M3.30831 0.175452C2.22988 0.879234 2.0658 3.29554 1.92513 20.8666C1.71413 44.068 1.38591 55.8446 0.51848 70.2486C-0.0676246 79.9139 -0.161424 85.6849 0.260571 87.937C1.40934 94.2241 4.94941 96.4293 14.9132 97.0862C24.8301 97.743 29.7768 97.9073 39.9047 97.9073C45.9767 97.9307 52.4239 97.8369 54.276 97.7196L57.6285 97.5319L55.8936 99.7605C53.8071 102.411 52.7755 104.101 51.3923 107.01C49.7747 110.458 48.5556 115.22 48.7431 117.449C48.8604 119.021 49.4934 118.645 51.7674 115.619C54.2525 112.288 58.8241 107.291 64.4039 101.802C67.7798 98.4937 68.6941 97.4381 69.2334 96.312C70.6166 93.403 70.1008 91.2213 67.6626 89.5557C66.2325 88.5704 60.7934 86.8813 56.9252 86.2245C54.3463 85.7787 50.0794 85.7318 48.5556 86.1072C47.2661 86.4356 46.2346 87.4209 46.0236 88.547C45.6954 90.2126 46.9145 91.8547 49.6575 93.4969L50.689 94.1068L44.3591 93.9661C34.1609 93.7315 27.9716 93.3796 16.695 92.4177C15.1476 92.277 12.9439 91.9955 11.7717 91.7844C5.91064 90.7521 5.23074 89.7199 5.27763 81.861C5.30107 79.3509 5.48864 73.8614 5.6762 69.6621C6.56708 51.0588 6.30919 17.1366 5.20731 3.90549C5.09009 2.61522 5.11352 2.3337 5.39485 2.3337C6.19195 2.3337 6.00441 0.973071 5.11353 0.292749C4.69154 -0.0356822 3.70686 -0.10606 3.30831 0.175452ZM59.715 92.3239C62.3642 93.0511 62.3876 93.0746 62.036 93.4969C61.4968 94.1537 60.1136 93.8957 58.4021 92.7696C57.5112 92.2066 56.9486 91.714 57.1362 91.714C57.3237 91.714 58.4959 91.9955 59.715 92.3239Z"
    fill="rgba(191, 192, 191, 1)" />
</svg>