<svg width="89" height="84" viewBox="0 0 89 84" fill="none" xmlns="http://www.w3.org/2000/svg">
  <path fill-rule="evenodd" clip-rule="evenodd"
    d="M37.41 83.32C34.61 83.09 31.84 82.56 29.14 81.8C26.4501 81.05 23.8301 80.07 21.28 78.93C18.83 77.84 16.48 76.54 14.27 75.01C9.98999 72.06 6.34003 68.16 3.77002 63.64C1.07001 58.88 -0.149962 53.38 0.0300303 47.93C0.210023 42.48 1.49005 37.04 3.53003 32C5.59003 26.89 8.65997 22.23 12.23 18.05C12.9242 17.2358 13.6625 16.4656 14.4009 15.6955C14.524 15.5671 14.6471 15.4387 14.77 15.31C15.33 14.72 15.88 14.16 16.48 13.61C16.6933 13.413 16.9055 13.215 17.1177 13.0171C17.8104 12.3707 18.5028 11.7247 19.23 11.12C21.24 9.41998 23.39 7.88 25.67 6.54998C27.99 5.19 30.46 4.07995 33 3.21997C35.02 2.53997 37.09 1.98004 39.1899 1.65002C39.6012 1.58508 40.0125 1.52307 40.4252 1.46081C40.6538 1.42633 40.8829 1.39178 41.1127 1.35662C41.2349 1.33795 41.3573 1.31909 41.48 1.29998C41.8855 1.23706 42.3009 1.20831 42.7158 1.17968C42.8943 1.16735 43.0726 1.15503 43.25 1.14001C44.45 1.03003 45.66 0.939998 46.86 0.960018C47.1951 0.965023 47.5325 0.967525 47.87 0.969966C48.041 0.971248 48.212 0.97253 48.3828 0.974117C48.549 0.975643 48.7147 0.977535 48.88 0.979976C49.3083 0.98669 49.7412 1.02026 50.1726 1.05371C50.3857 1.07025 50.5984 1.08673 50.8101 1.09997C51.4301 1.13995 52.0701 1.21997 52.6801 1.32C52.845 1.34997 53.0125 1.3775 53.1801 1.40503C53.3477 1.43249 53.5151 1.45996 53.6801 1.48999C53.8014 1.51019 53.9211 1.53692 54.0405 1.56366C54.2162 1.60296 54.3912 1.64209 54.5699 1.65997C55.5299 1.75994 56.21 2.72003 56.09 3.65002C55.98 4.48999 55.3 5.06994 54.5 5.15997C55.21 5.37994 55.92 5.61999 56.61 5.90997C57.61 6.31994 58.5901 6.79003 59.55 7.27002C61.3601 8.16998 63.16 9.08001 64.91 10.09C67.3 11.47 69.64 12.98 71.73 14.79C73.33 16.18 74.8401 17.71 76.17 19.36C76.5026 19.7778 76.8423 20.1957 77.177 20.6073L77.35 20.82C77.4316 20.922 77.5155 21.0229 77.5997 21.1241C77.7633 21.3207 77.9282 21.5188 78.08 21.73C78.4718 22.2861 78.8676 22.8382 79.2623 23.3889L79.5039 23.726C79.653 23.9341 79.8018 24.142 79.95 24.35C80.3745 24.9486 80.7605 25.5715 81.1448 26.1916L81.1517 26.203C81.3171 26.4699 81.4822 26.7363 81.65 27C82.0709 27.6566 82.4493 28.3415 82.827 29.0251C82.8979 29.1535 82.9689 29.2819 83.04 29.41C83.49 30.21 83.9 31.01 84.29 31.84C84.4149 32.1046 84.5421 32.3692 84.6694 32.6338C84.7971 32.8992 84.9249 33.1646 85.05 33.43C85.51 34.39 85.88 35.41 86.25 36.41C87.1899 39.0099 87.87 41.7 88.26 44.43C89.03 49.87 88.24 55.43 85.89 60.4C83.65 65.15 80.08 69.18 76 72.44C71.75 75.85 66.84 78.46 61.6899 80.21C56.5099 81.97 51.11 83.0699 45.65 83.41C44.4601 83.48 43.27 83.52 42.08 83.52C40.5299 83.51 38.9701 83.45 37.41 83.32ZM32.99 79.1C34.9 79.48 36.8201 79.73 38.76 79.87C41.0601 80.01 43.35 79.99 45.65 79.85C45.5701 79.86 45.49 79.86 45.41 79.87C48.05 79.69 50.67 79.33 53.27 78.82C55.75 78.31 58.1799 77.65 60.58 76.84C62.61 76.13 64.58 75.3 66.5 74.34C66.4722 74.3559 66.4443 74.3703 66.4171 74.3843C66.376 74.4055 66.3362 74.426 66.3 74.45C67.9613 73.5996 69.5736 72.6514 71.137 71.6152L71.1176 71.6279C71.0804 71.6519 71.042 71.676 71 71.7C72.48 70.7 73.9 69.63 75.25 68.45C76.4301 67.39 77.5399 66.27 78.59 65.07C79.36 64.16 80.09 63.23 80.77 62.25C81.41 61.28 81.99 60.28 82.52 59.25C82.9501 58.34 83.35 57.42 83.6899 56.47C84.0299 55.47 84.3101 54.4499 84.54 53.42C84.74 52.37 84.88 51.3 84.97 50.23C85.0399 49.1 85.04 47.98 84.98 46.85C84.87 45.47 84.6801 44.09 84.4 42.73C84.05 41.12 83.61 39.55 83.08 38C82.63 36.73 82.13 35.47 81.54 34.25C81.2986 33.7386 81.052 33.2272 80.8076 32.7159C80.7079 32.5073 80.6085 32.2986 80.51 32.09C79.97 31.12 79.41 30.15 78.87 29.18C78.7111 28.8988 78.5298 28.6251 78.3489 28.3521C78.2338 28.1784 78.1189 28.005 78.01 27.83C77.8768 27.6214 77.7417 27.4108 77.6063 27.1999L77.5524 27.1159C77.4008 26.8798 77.2491 26.6436 77.1 26.41L75.27 23.83C75.0111 23.4676 74.7194 23.1215 74.4313 22.7798C74.3298 22.6595 74.2289 22.5397 74.13 22.42C73.74 21.92 73.3401 21.43 72.92 20.94C71.8501 19.74 70.73 18.59 69.53 17.52C68.65 16.76 67.73 16.06 66.79 15.38C66.572 15.2401 66.3544 15.0994 66.1366 14.9586C65.2958 14.415 64.4536 13.8704 63.58 13.37C62.38 12.68 61.1699 12.03 59.96 11.39C59.6781 11.2498 59.3964 11.1085 59.1145 10.967C57.5269 10.1704 55.9344 9.37146 54.27 8.76001C53.29 8.44 52.28 8.17999 51.27 7.92999C50.34 7.70001 49.79 6.65997 50.04 5.75C50.1801 5.22998 50.54 4.84002 50.99 4.63C50.9337 4.6253 50.8754 4.61846 50.8158 4.61145C50.7482 4.60345 50.6791 4.59533 50.61 4.59002C49.59 4.53003 48.5801 4.47998 47.5601 4.46997C46.7001 4.46142 45.8401 4.49646 44.974 4.53173C44.8229 4.5379 44.6715 4.54406 44.52 4.54998C44.09 4.58996 43.67 4.61999 43.24 4.65997C43.0991 4.6734 42.9572 4.68341 42.8148 4.69348C42.5327 4.71344 42.2491 4.73352 41.97 4.78003C41.7111 4.8197 41.4528 4.85821 41.1949 4.89666L41.1865 4.89794L41.1854 4.89813C40.3407 5.02417 39.5004 5.14953 38.66 5.30999C37.11 5.64001 35.59 6.05999 34.09 6.55999C32.52 7.10998 30.99 7.75 29.5 8.47998C28.02 9.23999 26.59 10.08 25.2 11C23.74 12 22.35 13.09 21 14.23C20.06 15.11 19.11 15.98 18.16 16.85C17.9435 17.0484 17.7373 17.2631 17.5357 17.483C17.4125 17.6174 17.2911 17.7537 17.1701 17.8895C17.05 18.0243 16.9304 18.1586 16.81 18.29C16.6544 18.4557 16.4977 18.6214 16.3406 18.7875C16.0333 19.1125 15.7244 19.4391 15.42 19.77C13.95 21.46 12.57 23.22 11.29 25.06C10.14 26.77 9.08002 28.54 8.15003 30.38C8.15003 30.39 8.14002 30.4 8.14002 30.4C8.12 30.44 8.10004 30.47 8.08002 30.51C8.10004 30.48 8.10999 30.46 8.13001 30.42C7.32001 32.0699 6.60999 33.77 6 35.51C5.35999 37.41 4.81995 39.35 4.40997 41.32C4.06 43.07 3.81 44.84 3.65997 46.62V46.6C3.56995 47.99 3.53998 49.38 3.60999 50.77C3.70001 52.02 3.87 53.27 4.10999 54.5C4.34998 55.59 4.64002 56.66 4.98999 57.71C4.96002 57.64 4.94 57.57 4.90997 57.49C5.29999 58.61 5.76001 59.7 6.27002 60.77L6.26929 60.7686C6.24951 60.729 6.2298 60.6896 6.21002 60.66C6.23004 60.6999 6.25006 60.75 6.28003 60.79L6.28565 60.8019L6.28729 60.8056C6.29535 60.8236 6.30475 60.8447 6.32001 60.86C6.31 60.84 6.29999 60.8199 6.28998 60.79C6.85999 61.9 7.48999 62.97 8.19 64.01C8.87 64.98 9.59998 65.91 10.37 66.81C11.2758 67.8229 12.2385 68.7789 13.2488 69.6872C13.9005 70.252 14.5631 70.792 15.243 71.3092C15.4474 71.0351 15.7279 70.8202 16.05 70.7C17.3 69.5 18.54 68.3 19.74 67.06C20.4268 66.2707 21.0847 65.4597 21.7441 64.6466L21.7498 64.6395L21.7568 64.6309C22.1876 64.0996 22.6191 63.5674 23.0601 63.04C24.3101 61.56 25.6 60.11 26.89 58.66C27.7334 57.7214 28.6184 56.8199 29.5042 55.9176L29.514 55.9077C29.9272 55.4866 30.3406 55.0653 30.75 54.64C32.12 53.21 33.5 51.8 34.96 50.46C36 49.51 36.99 48.51 37.98 47.51C38.86 46.6384 39.7537 45.7874 40.6497 44.9343L41.2 44.41L41.5189 44.1031C42.463 43.194 43.4104 42.2819 44.39 41.41C45.1987 40.6888 46.0212 39.9722 46.842 39.257C47.2153 38.9318 47.5884 38.6067 47.9595 38.2817L47.9615 38.28L48.0093 38.2375C49.6272 36.801 51.2056 35.3517 52.6899 33.78C52.1699 33.8201 51.65 33.87 51.14 33.93C50.1 34.05 49.0801 34.18 48.05 34.33C46.14 34.6 44.2201 34.87 42.3 35.12C40.4401 35.37 38.58 35.53 36.71 35.67C35.9794 35.7234 35.2507 35.7848 34.5223 35.8462C33.9398 35.8953 33.3574 35.9445 32.7742 35.9894C32.4498 36.0145 32.1251 36.0382 31.8001 36.06C31.7667 36.06 31.7334 36.0623 31.699 36.0647L31.6792 36.066C31.6475 36.0681 31.6146 36.07 31.58 36.07C30.6799 36.34 29.7 35.69 29.46 34.82C29.1899 33.85 29.7799 32.95 30.7 32.64C30.9108 32.5671 31.1348 32.5533 31.3507 32.54C31.401 32.5369 31.4508 32.5338 31.5 32.53C32.4003 32.4673 33.2972 32.3917 34.1947 32.316C34.4951 32.2907 34.7957 32.2654 35.0963 32.2405C35.4739 32.2092 35.8517 32.1788 36.23 32.15C38.1 32.01 39.96 31.85 41.8199 31.6C43.74 31.34 45.6499 31.08 47.5699 30.81C48.6 30.67 49.63 30.53 50.66 30.41C51.4172 30.3184 52.1743 30.2615 52.9315 30.2046L52.9348 30.2045L53.39 30.17C53.8049 30.1381 54.2262 30.1316 54.6437 30.1252C54.7494 30.1236 54.8549 30.122 54.96 30.12C55.3999 30.1 55.9399 30.09 56.36 30.23C56.4099 30.2475 56.4606 30.2637 56.5112 30.28C56.6631 30.3287 56.8149 30.3775 56.95 30.46C57.1899 30.6 57.37 30.8 57.54 31.01C57.7985 31.3281 57.9252 31.7516 57.9084 32.167C57.9503 32.2493 57.988 32.3347 58.02 32.42C58.27 33.02 58.16 33.6999 57.79 34.19V34.2L57.7871 34.2169C57.7782 34.2961 57.77 34.368 57.77 34.44C57.78 34.36 57.78 34.28 57.79 34.2C57.7101 35.49 57.62 36.79 57.53 38.08V38.13C57.53 38.18 57.52 38.22 57.52 38.27V38.31C57.429 39.6943 57.2633 41.087 57.0984 42.4728L57.05 42.88C56.8301 44.62 56.64 46.35 56.5 48.1C56.4609 48.586 56.4247 49.072 56.3884 49.558C56.3037 50.692 56.219 51.826 56.1 52.96C56.0447 53.4783 55.9464 53.9871 55.848 54.4963C55.8041 54.7238 55.7601 54.9514 55.72 55.18C55.6 55.87 55.49 56.56 55.4399 57.25C55.4399 57.3199 55.4301 57.39 55.4301 57.46C55.39 58.42 54.65 59.23 53.66 59.23C52.7301 59.21 51.86 58.4 51.89 57.44C51.92 56.77 51.98 56.11 52.09 55.45C52.15 55.0549 52.2251 54.6624 52.3002 54.2699C52.3751 53.8774 52.4501 53.485 52.51 53.09C52.7201 51.6533 52.8171 50.2025 52.9139 48.7555C52.9324 48.4802 52.9508 48.205 52.97 47.93C53.09 46.2599 53.27 44.61 53.47 42.95C53.6799 41.25 53.86 39.5599 54.01 37.86C54.0176 37.7324 54.0254 37.6048 54.0336 37.4772C53.7009 37.8047 53.3636 38.127 53.0282 38.4474L52.9 38.57C51.5881 39.8282 50.2053 41.0217 48.8243 42.2137L48.8207 42.217L48.8148 42.2221C48.399 42.5809 47.9834 42.9396 47.5699 43.3C44.8199 45.77 42.17 48.35 39.54 50.95C38.9355 51.5457 38.3152 52.1255 37.6948 52.7053C36.9196 53.4299 36.1443 54.1545 35.4 54.91C34.5815 55.7409 33.771 56.5836 32.9608 57.4257L32.959 57.4274C32.473 57.9326 31.9872 58.4377 31.5 58.94C30.41 60.06 29.3401 61.21 28.3001 62.37C27.28 63.54 26.25 64.72 25.27 65.92C24.9806 66.2731 24.6953 66.632 24.4097 66.9915C23.7084 67.8741 23.0045 68.76 22.23 69.57C21.4509 70.3833 20.6437 71.1639 19.8341 71.9468C19.4591 72.3095 19.0836 72.6727 18.71 73.04C18.665 73.085 18.6196 73.1311 18.5737 73.1777C18.5018 73.2508 18.4287 73.3252 18.3536 73.3987C19.18 73.8914 20.0234 74.3573 20.88 74.8C22.98 75.84 25.15 76.74 27.36 77.51C27.3511 77.5062 27.342 77.5025 27.3331 77.499C29.1908 78.1574 31.0763 78.6941 32.99 79.1Z"
    fill="rgba(191, 192, 191, 1)" />
</svg>