<svg width="64" height="69" viewBox="0 0 64 69" fill="none" xmlns="http://www.w3.org/2000/svg">
  <path fill-rule="evenodd" clip-rule="evenodd"
    d="M2.03003 44.14C2.65002 45.96 3.67004 47.93 5.65002 48.5C5.80005 48.55 5.94995 48.57 6.09998 48.55C6.87 48.55 7.60999 48.02 7.82001 47.25C8.08002 46.31 7.51001 45.33 6.58002 45.07C6.57001 45.07 6.54999 45.06 6.53998 45.06C6.53534 45.0554 6.53033 45.0505 6.52472 45.0469C6.51831 45.0428 6.51056 45.04 6.5 45.04C6.48999 45.02 6.47003 45.01 6.45001 45C6.41003 44.95 6.35999 44.9 6.32001 44.86C6.27002 44.79 6.21997 44.73 6.16998 44.66C6.04999 44.47 5.94 44.27 5.83002 44.07C5.66003 43.72 5.52002 43.36 5.38 42.99C5.17999 42.37 5.02002 41.75 4.88 41.11C4.69 40.11 4.54999 39.11 4.47998 38.09V38.01C4.41998 36.79 4.42999 35.57 4.5 34.35V34.33C4.5 34.2789 4.50726 34.2279 4.5094 34.1768C4.64185 32.4783 4.888 30.7896 5.21997 29.12C5.58997 27.34 6.06 25.58 6.63 23.87C6.63342 23.87 6.63568 23.8689 6.63715 23.8673L6.63824 23.866L6.63928 23.8639C6.64001 23.8618 6.64001 23.86 6.64001 23.86C6.64001 23.86 6.65002 23.85 6.65002 23.84V23.83C7.18005 22.33 7.78998 20.87 8.48999 19.45C9.14996 18.18 9.87 16.94 10.67 15.75C11.39 14.72 12.16 13.72 12.99 12.77C13.65 12.04 14.35 11.35 15.08 10.7C15.85 10.05 16.65 9.44003 17.48 8.87002C17.41 8.91 17.35 8.95 17.29 8.99001C18.268 8.32809 19.2851 7.73452 20.3412 7.19964C20.3708 7.18951 20.4003 7.16988 20.43 7.16003C20.4397 7.15517 20.4488 7.15032 20.4576 7.14547L20.4772 7.13448L20.4849 7.13009L20.51 7.11587C20.5195 7.11059 20.5294 7.10531 20.54 7.10003L20.53 7.10653L20.5208 7.11233C20.5116 7.11794 20.5034 7.12261 20.4957 7.12676C20.4866 7.13168 20.4783 7.13586 20.47 7.14004C21.6899 6.55004 22.94 6.02001 24.23 5.57003C25.7 5.08001 27.18 4.67004 28.7 4.35003C29.91 4.13003 31.12 3.96001 32.35 3.87002H32.47C33.33 3.83001 34.19 3.82 35.05 3.87002C35.98 3.94003 36.9 4.06002 37.81 4.24001C38.55 4.40002 39.28 4.6 40.01 4.84002C40.97 5.18002 41.91 5.57 42.83 6.02001C43.9294 6.58895 44.9915 7.21365 46.0164 7.89422C46.0522 7.92025 46.0894 7.94683 46.13 7.97002L46.0164 7.89422L46.0081 7.88827L45.9874 7.87319C45.9769 7.86562 45.9666 7.85818 45.9562 7.85101C47.7903 9.09823 49.5449 10.4943 51.21 11.95C52 12.65 52.77 13.39 53.49 14.18C53.77 14.51 54.04 14.85 54.29 15.21C54.5099 15.55 54.72 15.89 54.91 16.25L55.21 16.91C55.2054 16.926 55.2009 16.9421 55.1967 16.9582L55.1878 16.9934C55.1652 16.9857 55.1426 16.978 55.12 16.97C54.46 16.75 53.79 16.52 53.13 16.29C52.8184 16.1735 52.5068 16.0556 52.1951 15.9375C51.3561 15.6199 50.5157 15.3017 49.67 15.01C48.94 14.76 48.22 14.53 47.47 14.37L47.3392 14.3426C46.7092 14.2101 46.0552 14.0726 45.41 14.11C44.87 14.14 44.32 14.22 43.87 14.57C43.51 14.84 43.3 15.21 43.16 15.63C42.96 16.21 43.18 16.94 43.61 17.35C43.82 17.55 44.05 17.73 44.33 17.84C44.89 18.06 45.51 17.98 45.99 17.68C46.0345 17.685 46.0814 17.6924 46.1296 17.701C46.1615 17.7067 46.194 17.713 46.2267 17.7195L46.2782 17.7298L46.2793 17.7299C47.1193 17.9099 47.92 18.15 48.73 18.43C48.65 18.4 48.58 18.38 48.51 18.35C49.2533 18.6047 49.9823 18.883 50.7134 19.1622L50.7151 19.1628L50.7191 19.1643L51.0159 19.2776L51.2703 19.3743C51.4166 19.4298 51.5631 19.4851 51.71 19.54C52.2866 19.7528 52.8726 19.9515 53.4551 20.1489C53.5931 20.1957 53.7308 20.2424 53.8682 20.2892C53.9958 20.3327 54.1232 20.3762 54.25 20.42C54.5447 20.5207 54.8549 20.5955 55.1656 20.6704C55.2873 20.6997 55.4091 20.7291 55.53 20.76C56.0001 20.88 56.46 20.97 56.93 21.06C56.9923 21.0708 57.0551 21.0819 57.1181 21.093C57.5816 21.1748 58.0647 21.26 58.54 21.26C58.82 21.26 59.09 21.23 59.36 21.16C60.23 20.92 60.89 20.15 61.17 19.32C61.4932 18.369 61.5947 17.3668 61.6949 16.3764L61.72 16.13C61.7281 16.049 61.7365 15.9676 61.745 15.8861C61.7611 15.7323 61.7778 15.5777 61.7946 15.4226L61.795 15.42L61.7961 15.4101L61.7966 15.4044C61.8253 15.1405 61.8541 14.8753 61.88 14.61C61.97 13.7 62.07 12.8 62.18 11.9C62.38 10.18 62.62 8.47002 62.91 6.76003C63.08 5.81002 62.3301 4.89001 61.4 4.77001C60.42 4.64001 59.5601 5.33001 59.4 6.28002C59.1201 7.93002 58.88 9.59002 58.69 11.25L58.6613 11.494L58.6561 11.5381L58.6532 11.5631L58.6372 11.6999C58.6161 11.8786 58.5952 12.057 58.5743 12.2353C58.5587 12.37 58.543 12.5047 58.5276 12.6394C58.5054 12.8331 58.4834 13.0269 58.4619 13.221L58.4398 13.4211C58.4263 13.5439 58.4131 13.6669 58.4 13.79C58.3658 14.1249 58.3357 14.4618 58.3055 14.7994L58.3054 14.8009L58.2792 15.0923C57.5091 13.4926 56.4627 12.1127 55.2 10.85C53.8428 9.49279 52.3629 8.29662 50.8745 7.09356L50.8732 7.09255L50.8509 7.07452C50.6473 6.90997 50.4436 6.74526 50.24 6.58001C49.5 5.98 48.7 5.44003 47.91 4.91003C46.99 4.30001 46.05 3.72002 45.07 3.20004C43.34 2.28002 41.5 1.48003 39.59 1.01003C37.6201 0.530022 35.59 0.250023 33.56 0.280022C31.55 0.32 29.55 0.550011 27.59 0.970024C22.44 2.08001 17.34 4.20004 13.27 7.60003C9.32001 10.9 6.28998 15.32 4.31 20.06C3.23999 22.59 2.41998 25.23 1.84998 27.92C1.27997 30.64 0.880005 33.42 0.880005 36.2C0.890015 38.88 1.16003 41.59 2.03003 44.14ZM20.38 7.18002L20.3462 7.19711C20.3622 7.1899 20.3711 7.18893 20.38 7.18002Z"
    fill="rgba(191, 192, 191, 1)" />
  <path
    d="M30.23 68.72C25.78 68.72 21.43 67.1 17.75 64.66C15.96 63.48 14.3 62.06 12.89 60.45C12.18 59.64 11.53 58.79 10.96 57.86C10.9244 57.8027 10.8885 57.7443 10.8527 57.6849C10.821 57.9973 10.7917 58.3101 10.7632 58.6228L10.7292 58.9988C10.7129 59.1793 10.6966 59.3597 10.68 59.54C10.59 60.5 10.52 61.45 10.46 62.4C10.6201 62.71 10.69 63.07 10.64 63.44C10.59 63.82 10.42 64.1 10.2 64.37C10.15 64.47 10.08 64.56 10.02 64.65C9.70001 65.1 9.15002 65.34 8.60999 65.34C8.42999 65.35 8.28003 65.33 8.13 65.29C7.39001 65.09 6.81006 64.36 6.83002 63.58C6.86426 62.6559 6.94244 61.7319 7.02063 60.8078L7.021 60.8038L7.06 60.34C7.15002 59.23 7.25 58.13 7.34998 57.03C7.383 56.7126 7.42487 56.3953 7.46674 56.0779L7.46765 56.071C7.48883 55.9107 7.51001 55.7503 7.53003 55.59C7.59003 55.13 7.67004 54.68 7.78003 54.23C7.91003 53.69 8.17004 53.21 8.51001 52.77C8.81 52.37 9.25 52.12 9.70001 51.91C10.25 51.66 10.86 51.67 11.45 51.71C11.9911 51.7455 12.5479 51.9776 13.0576 52.1901C13.1226 52.2172 13.1867 52.244 13.25 52.27C13.6639 52.4369 14.06 52.6529 14.4531 52.8672L14.4542 52.8678L14.457 52.8692C14.6139 52.9548 14.7703 53.0401 14.9272 53.1219L14.9006 53.1092C14.8796 53.0993 14.8593 53.0896 14.84 53.08L16.07 53.71C16.65 53.99 17.2401 54.24 17.84 54.46C18.2 54.58 18.57 54.68 18.94 54.77C19.0832 54.7957 19.2264 54.8187 19.3701 54.8395C19.6177 54.8753 19.8669 54.9047 20.12 54.93C20.46 54.94 20.8 54.93 21.14 54.92C21.75 54.87 22.35 54.78 22.95 54.67C23.9 54.49 24.82 55.26 24.95 56.18C25.08 57.18 24.38 58 23.43 58.18C22.02 58.45 20.59 58.56 19.17 58.39C17.5439 58.202 16.0247 57.6002 14.5632 56.8953C14.8828 57.3262 15.2201 57.7444 15.57 58.15C16.08 58.7 16.61 59.24 17.16 59.75C17.97 60.46 18.82 61.12 19.71 61.72C20.53 62.25 21.37 62.74 22.24 63.18C23.04 63.56 23.86 63.9 24.69 64.2C25.43 64.45 26.17 64.65 26.93 64.82C27.73 64.97 28.52 65.08 29.33 65.14C30.01 65.18 30.69 65.18 31.38 65.14C32.17 65.08 32.95 64.97 33.72 64.82C34.65 64.62 35.56 64.38 36.47 64.0799C37.64 63.67 38.78 63.18 39.9 62.64C41.54 61.8 43.11 60.84 44.64 59.8299C44.62 59.84 44.59 59.86 44.57 59.87C46.59 58.49 48.52 57 50.36 55.39C50.33 55.41 50.3101 55.43 50.28 55.45C51.63 54.26 52.96 53.04 54.15 51.7C54.82 50.92 55.46 50.12 56.05 49.28C56.52 48.57 56.94 47.8299 57.33 47.0799C57.83 46.06 58.28 45.03 58.65 43.96C59 42.91 59.29 41.86 59.52 40.78C59.8331 39.205 60.0504 37.6395 60.1814 36.0463C60.1824 36.0294 60.1837 36.0122 60.185 35.995C60.1875 35.9625 60.19 35.93 60.19 35.9V35.86C60.22 35.32 60.23 34.79 60.2 34.25C60.16 33.82 60.11 33.39 60.04 32.96C59.97 32.65 59.89 32.34 59.79 32.03C59.63 31.6 59.46 31.19 59.26 30.78C59.2491 30.7604 59.2377 30.7407 59.2261 30.721L59.1988 30.6752C59.1817 30.6466 59.1644 30.6177 59.1475 30.5882C59.1388 30.5729 59.1302 30.5575 59.1218 30.5419C59.1143 30.5281 59.1071 30.5142 59.1 30.5C59.0699 30.46 59.03 30.41 59 30.37C58.96 30.32 58.92 30.28 58.87 30.24C58.8616 30.2316 58.8515 30.2232 58.8411 30.2156C58.8266 30.205 58.8116 30.1958 58.8 30.19C58.55 30.08 58.31 29.98 58.06 29.88C57.17 29.52 56.75 28.43 57.12 27.56C57.5 26.66 58.55 26.26 59.44 26.62C59.86 26.79 60.28 26.96 60.67 27.18C61.06 27.41 61.42 27.75 61.71 28.1C62.46 29.02 62.9 30.16 63.26 31.28C63.63 32.4 63.72 33.61 63.76 34.78C63.78 35.41 63.72 36.04 63.67 36.66C63.62 37.41 63.53 38.16 63.43 38.9C63.07 41.53 62.43 44.11 61.44 46.57C60.48 49 59.13 51.23 57.48 53.25C55.79 55.31 53.8 57.1 51.78 58.82C49.7401 60.57 47.57 62.16 45.3 63.61C40.85 66.44 35.86 68.64 30.5 68.72H30.23Z"
    fill="rgba(191, 192, 191, 1)" />
  <path d="M14.9272 53.1219C14.9637 53.1394 15.0018 53.1582 15.04 53.18L14.9777 53.1481L14.9272 53.1219Z"
    fill="rgba(191, 192, 191, 1)" />
</svg>