<svg width="147" height="55" viewBox="0 0 147 55" fill="none" xmlns="http://www.w3.org/2000/svg">
  <path fill-rule="evenodd" clip-rule="evenodd"
    d="M131.754 0.931711C127.39 4.42275 120.448 6.14141 109.008 6.59793C105.974 6.7322 103.208 6.96044 102.912 7.12157C101.932 7.60494 102.254 8.55829 104.309 11.2974C109.102 17.6216 113.6 21.0455 117.279 21.0723L118.447 21.0991L116.756 22.6701C115.816 23.5563 113.694 25.275 112.029 26.5505C99.1526 36.2046 82.2344 43.0792 63.0336 46.3957C58.3073 47.2148 45.2426 47.2148 40.0598 46.3957C28.593 44.5965 20.2682 41.8037 8.57311 35.8689C0.489964 31.7602 -0.517063 31.5723 1.47015 34.5934C4.04817 38.4738 6.94841 40.555 15.4478 44.6368C26.4043 49.8868 33.467 52.1291 44.4504 53.888C48.9754 54.64 63.0605 54.7071 67.5989 54.0223C81.6168 51.9411 96.7089 46.8791 112.096 39.1586C113.694 38.3395 115.064 37.695 115.131 37.695C115.225 37.695 116.111 38.8094 117.118 40.1119C120.502 44.5428 124.772 47.9935 126.504 47.7384C127.027 47.6713 128.397 45.3216 132.627 37.0505C138.467 25.6778 142.106 19.3133 144.885 15.7686C146.389 13.8082 146.577 13.4189 146.282 12.7072C145.047 9.4176 136.99 1.36138 133.862 0.260358C133.11 0.00524382 132.788 0.0992054 131.74 0.94511L131.754 0.931711Z"
    fill="rgba(191, 192, 191, 1)" />
</svg>