<svg width="76" height="72" viewBox="0 0 76 72" fill="none" xmlns="http://www.w3.org/2000/svg">
  <path
    d="M8.28004 5.71C8.32259 5.70091 8.36525 5.692 8.40797 5.68321L8.38734 5.68724C8.35219 5.69395 8.31612 5.70091 8.28004 5.71Z"
    fill="rgba(191, 192, 191, 1)" />
  <path
    d="M47.88 43.28C47.8698 43.3207 47.8623 43.3615 47.8546 43.4009C47.8534 43.4072 47.8522 43.4135 47.851 43.4197C47.8607 43.3731 47.8703 43.3266 47.88 43.28Z"
    fill="rgba(191, 192, 191, 1)" />
  <path fill-rule="evenodd" clip-rule="evenodd"
    d="M6.40999 71.48C5.52998 71.3999 4.73006 71.19 3.95003 70.78C3.29005 70.42 2.80006 69.78 2.46004 69.13C1.99867 68.2414 1.81465 67.2506 1.63362 66.276C1.6028 66.11 1.57204 65.9445 1.53999 65.78C1.43001 65.18 1.33003 64.5699 1.24 63.97C1.02009 62.6201 0.800063 61.2698 0.650039 59.92C0.570022 59.1899 0.479995 58.45 0.430007 57.71C0.407058 57.3839 0.386184 57.0599 0.365493 56.736C0.34114 56.3548 0.317031 55.9739 0.289992 55.59C0.289992 55.5812 0.289992 55.5724 0.289138 55.5628C0.2881 55.5505 0.285659 55.5368 0.280043 55.52V55.53C0.240065 54.8899 0.244521 54.2452 0.248977 53.6022C0.251174 53.2808 0.253371 52.9598 0.250014 52.64C0.250014 51.9811 0.269729 51.3221 0.289321 50.6657C0.300979 50.276 0.312575 49.8873 0.320022 49.5C0.36 47.77 0.460036 46.05 0.570022 44.33C0.700026 42.12 0.86 39.92 1.03999 37.71C1.0854 37.12 1.14796 36.5357 1.2104 35.9528L1.23939 35.6812C1.24971 35.5841 1.25996 35.487 1.27003 35.39C1.30708 35.0597 1.34077 34.7283 1.37446 34.3965L1.37465 34.3951C1.44087 33.7428 1.50722 33.0892 1.59999 32.44C1.67421 31.9175 1.74684 31.3949 1.81947 30.8724C2.00117 29.5649 2.18288 28.2575 2.39003 26.95C2.72005 24.91 3.05 22.88 3.37001 20.84C3.69002 18.79 3.97999 16.74 4.25001 14.69C4.45332 13.1692 4.57069 11.6418 4.68806 10.1131C4.70351 9.91215 4.71895 9.7111 4.73463 9.51005C4.74629 9.36003 4.75807 9.21 4.77003 9.05998C4.774 9.0161 4.77797 8.97221 4.78133 8.92772C4.78413 8.89091 4.78645 8.85368 4.78798 8.81566C4.78926 8.78441 4.78999 8.75255 4.78999 8.71995V8.84001C4.82997 8.17998 4.87996 7.52995 4.96999 6.87999C5.05 6.33995 5.32997 5.79997 5.78999 5.48997C5.92415 5.39848 6.06575 5.32188 6.21248 5.26243C6.30641 5.22441 6.40248 5.1934 6.50001 5.16997C6.31001 4.96995 6.18001 4.71995 6.09999 4.44999C5.86 3.55998 6.39003 2.47001 7.34004 2.27C8.44002 2.03996 9.53999 1.86998 10.66 1.85997C10.9533 1.85997 11.2484 1.85814 11.5437 1.85606L11.685 1.85496C12.0275 1.85246 12.37 1.84996 12.71 1.84996C14.12 1.83995 15.53 1.83 16.93 1.84001C17.755 1.84666 18.5755 1.86217 19.3975 1.87767C19.6535 1.88249 19.9097 1.88731 20.1663 1.89189C20.324 1.8947 20.4819 1.89744 20.64 1.90001C20.8298 1.90288 21.0195 1.90733 21.2095 1.91179H21.2116L21.2165 1.91197C21.695 1.92308 22.175 1.93419 22.66 1.91997C23.42 1.89995 24.18 1.87993 24.95 1.85997C25.7901 1.80998 26.63 1.75999 27.47 1.67998L30.41 1.37999C31.4 1.27995 32.4 1.18992 33.39 1.09996C34.0808 1.03349 34.7805 1.00242 35.4772 0.971418C35.8294 0.955732 36.1809 0.940107 36.53 0.919965C37.5605 0.860029 38.5939 0.817854 39.6271 0.775739C40.4889 0.740583 41.3505 0.705427 42.21 0.659956C43.3745 0.603315 44.539 0.526838 45.701 0.450544L45.7043 0.450361C45.9822 0.432111 46.26 0.413862 46.5376 0.395918C46.9422 0.369733 47.3463 0.34416 47.75 0.31999C49.7 0.210004 51.64 0.199995 53.58 0.259992C54.5184 0.288984 55.4473 0.327375 56.385 0.366132L56.48 0.369978C57.45 0.409956 58.4201 0.409956 59.39 0.419965H61.21C62.4201 0.419965 63.64 0.419965 64.86 0.479963C65.93 0.529951 67 0.609968 68.06 0.759992C69.2 0.919965 70.32 1.20994 71.28 1.84996C72.3001 2.52995 72.8501 3.55998 73.21 4.71C73.38 5.25999 73.46 5.84996 73.53 6.41997C73.59 6.90996 73.64 7.41997 73.65 7.90996C73.6562 8.27916 73.6623 8.64836 73.6708 9.01756C73.6761 9.24833 73.6823 9.47917 73.69 9.71C73.7051 10.3952 73.6862 11.0804 73.6673 11.7613L73.6671 11.7677C73.661 11.9889 73.6549 12.2098 73.65 12.43C73.6234 13.7832 73.5612 15.1366 73.4989 16.4899C73.4678 17.1666 73.4367 17.8433 73.41 18.52C73.25 22.4 73.21 26.26 73.25 30.14C73.32 36.03 73.59 41.91 73.97 47.78V47.76C74.14 49.76 74.33 51.75 74.56 53.74C74.6904 54.8946 74.84 56.0455 74.9898 57.1973C75.0457 57.6272 75.1016 58.0573 75.1566 58.4878C75.1915 58.7616 75.2261 59.0357 75.26 59.31C75.3559 60.1009 75.4262 60.8919 75.4965 61.6829L75.526 62.0147L75.55 62.28C75.62 63.16 75.64 64.03 75.61 64.9C75.59 65.47 75.54 66.04 75.44 66.6C75.34 67.16 75.2 67.74 74.93 68.24C74.71 68.63 74.44 69.03 74.08 69.3C73.69 69.6 73.25 69.79 72.77 69.92C72.1893 70.0737 71.5648 70.0597 70.9588 70.0461C70.8552 70.0437 70.7522 70.0414 70.65 70.04C69.9974 70.0267 69.3447 70.0222 68.692 70.0177C68.3647 70.0155 68.0374 70.0134 67.71 70.01C64.4625 69.9783 61.2338 69.6831 58.004 69.3877C57.1562 69.3102 56.3084 69.2327 55.46 69.16C55.1107 69.1478 54.7617 69.1349 54.4129 69.1219H54.4116C53.0341 69.0709 51.6602 69.02 50.28 69.02C48.28 69.01 46.28 69.01 44.29 69.02C43.1872 69.026 42.088 69.0428 40.9903 69.0595L40.9786 69.0597C40.2486 69.0708 39.5193 69.082 38.79 69.09C37.3233 69.1157 35.8566 69.1855 34.3898 69.2554C34.1466 69.267 33.9033 69.2785 33.66 69.29C32.0166 69.4154 30.375 69.5465 28.7345 69.6775L28.7014 69.68C26.5597 69.8511 24.4199 70.0219 22.28 70.18C20.2901 70.3199 18.3 70.47 16.31 70.62C14.38 70.76 12.46 71.01 10.54 71.26L10.3543 71.283C9.36513 71.406 8.36757 71.53 7.37001 71.53C7.02998 71.52 6.71999 71.5099 6.40999 71.48ZM5.01845 64.5666C5.00301 64.5942 4.98762 64.6219 4.97237 64.6499C4.81392 63.7395 4.66701 62.8285 4.52003 61.91C4.41005 61.2499 4.31001 60.5699 4.24 59.91C4.21712 59.714 4.19289 59.5188 4.16872 59.3239L4.16798 59.3175C4.09737 58.7484 4.02711 58.1819 3.99 57.61C3.99171 57.6235 3.99312 57.6371 3.99434 57.6506C3.99562 57.6653 3.99672 57.68 3.99769 57.6947L4.00099 57.7469C4.00325 57.7812 4.00575 57.8156 4.01002 57.85C3.95003 57.0099 3.89003 56.18 3.84004 55.35L3.83992 54.7944C3.83913 52.7596 3.83839 50.7248 3.93001 48.69C4.03999 46.31 4.18001 43.92 4.32002 41.53C4.43001 40.08 4.52003 38.63 4.68001 37.19C4.72548 36.7702 4.76881 36.3505 4.81209 35.9312C4.93062 34.782 5.0489 33.6356 5.21004 32.5C5.28847 31.9618 5.36543 31.4243 5.44228 30.8874C5.64967 29.439 5.85658 27.9945 6.09004 26.55C6.42836 24.4805 6.75673 22.4111 7.0851 20.3417L7.09004 20.31C7.70003 16.3999 8.13002 12.47 8.39003 8.52L8.38801 8.53105C8.39888 8.36735 8.41438 8.2036 8.43001 8.03996C8.95998 7.34996 8.87001 6.36998 8.27003 5.72996C8.26619 5.72612 8.26234 5.72374 8.25905 5.72172C8.25532 5.7194 8.25233 5.71757 8.25093 5.71452C8.25032 5.71324 8.25001 5.71177 8.25001 5.71C8.27003 5.71 8.28999 5.69999 8.31001 5.69999C8.34499 5.69499 8.37752 5.68748 8.41005 5.67998C8.44252 5.67247 8.47499 5.66496 8.51002 5.65996C8.49135 5.66527 8.47194 5.6699 8.45204 5.67424C8.95827 5.57206 9.47816 5.49486 9.99 5.44999C10.29 5.43998 10.58 5.41997 10.88 5.41997C11.3537 5.41746 11.828 5.41435 12.3027 5.41124H12.3112C13.7481 5.4019 15.189 5.3925 16.63 5.40001C17.926 5.41331 19.2219 5.43559 20.5179 5.45787C21.1619 5.46898 21.806 5.48002 22.45 5.48997C22.6289 5.48997 22.8078 5.48594 22.9862 5.48039C23.1033 5.47679 23.2202 5.47246 23.3367 5.46812C23.529 5.46104 23.7203 5.45396 23.91 5.44999C24.36 5.43998 24.81 5.42998 25.26 5.40001C25.4332 5.38859 25.6066 5.37755 25.7804 5.3665L25.8264 5.36357C26.5506 5.31755 27.2785 5.27134 28 5.19999C29.91 5.00999 31.83 4.81999 33.75 4.64C35.1287 4.55833 36.5094 4.49736 37.8903 4.43632L37.901 4.43577H37.9024C39.5625 4.36241 41.2227 4.28898 42.88 4.17998C44.87 4.04997 46.87 3.92998 48.86 3.80998C49.4647 3.77818 50.0734 3.7747 50.6811 3.77122C51.0281 3.76921 51.3747 3.76726 51.72 3.75999C52.525 3.74229 53.338 3.7794 54.138 3.8159C54.2419 3.82066 54.3466 3.82542 54.45 3.83C56.32 3.91997 58.18 3.97996 60.04 3.96995L60.0499 3.96977C61.0965 3.95982 62.1333 3.94999 63.18 3.96995C63.8607 3.97795 64.5413 4.01164 65.222 4.04527C65.3913 4.05363 65.5607 4.06199 65.73 4.06999C65.9075 4.08995 66.085 4.10893 66.2625 4.12791C66.885 4.1945 67.5075 4.26103 68.13 4.36998C68.1944 4.38542 68.2587 4.40153 68.323 4.41813C68.5087 4.46599 68.6944 4.51799 68.88 4.56999C68.9361 4.59099 68.9921 4.61198 69.0482 4.63646C69.0722 4.64689 69.0961 4.658 69.12 4.66997C69.26 4.74998 69.39 4.82994 69.51 4.91997C69.4903 4.90513 69.4705 4.89274 69.4508 4.88041L69.4499 4.87987C69.4373 4.87205 69.4248 4.86424 69.4122 4.85576C69.4048 4.85075 69.3974 4.84556 69.39 4.84001C69.37 4.81999 69.34 4.80992 69.32 4.78996C69.35 4.81993 69.39 4.85997 69.43 4.89L69.47 4.92998L69.4716 4.93236C69.4846 4.95176 69.4976 4.97136 69.5135 4.99376C69.5191 5.00169 69.5252 5.00999 69.5316 5.01872L69.54 5.03001C69.5549 5.04997 69.5675 5.07243 69.58 5.09489C69.5925 5.11741 69.605 5.13994 69.62 5.15996L69.71 5.36998C69.78 5.59996 69.8501 5.83 69.9 6.06999C69.99 6.60997 70.06 7.14995 70.1 7.68998V7.71C70.1 7.72996 70.1025 7.74742 70.105 7.76494C70.1075 7.78245 70.11 7.79997 70.11 7.81999C70.1 7.79997 70.1 7.78996 70.1 7.77C70.2307 10.056 70.1279 12.3685 70.026 14.6642V14.6654L70.0251 14.6874C70.0025 15.196 69.9799 15.7037 69.96 16.21L69.9599 16.2137C69.7999 20.1025 69.64 23.9912 69.68 27.88C69.73 31.87 69.81 35.85 69.99 39.83C70.08 41.77 70.17 43.71 70.29 45.65C70.42 47.69 70.59 49.73 70.77 51.77C70.8975 53.2402 71.0925 54.7103 71.2876 56.1805C71.3526 56.6703 71.4175 57.1601 71.48 57.65C71.6 58.58 71.72 59.51 71.83 60.44C71.901 61.0359 71.9467 61.6369 71.9923 62.2359C72.011 62.4811 72.0297 62.7259 72.05 62.97C72.08 63.6799 72.08 64.3899 72.05 65.1C72.02 65.4299 71.98 65.74 71.93 66.05C71.9 66.1899 71.86 66.34 71.82 66.48C71.8061 66.48 71.7922 66.4821 71.7772 66.4844C71.76 66.4871 71.7414 66.49 71.72 66.49C70.8322 66.5093 69.9402 66.4913 69.0494 66.4734H69.0477C68.5545 66.4635 68.0617 66.4535 67.57 66.45C66.5592 66.4417 65.5554 66.3991 64.547 66.3562C64.3382 66.3474 64.1292 66.3385 63.92 66.33C62.47 66.22 61.04 66.09 59.6 65.95C58.99 65.89 58.37 65.83 57.76 65.78C57.6027 65.7673 57.4454 65.7532 57.2882 65.7385C57.1986 65.7302 57.1091 65.7217 57.0195 65.7132L57.0164 65.7129C56.5243 65.6664 56.0321 65.6199 55.54 65.6C54.44 65.5599 53.34 65.5199 52.23 65.48C51.6435 65.4533 51.0526 65.4533 50.4603 65.4534C50.1638 65.4534 49.8669 65.4534 49.57 65.45C47.53 65.45 45.5 65.4599 43.46 65.47C41.76 65.47 40.06 65.47 38.37 65.54C38.0512 65.5529 37.7326 65.565 37.4143 65.577L37.0239 65.5915L37.0177 65.5917C35.5025 65.6481 33.9933 65.7043 32.49 65.82C31.8262 65.8714 31.1622 65.9234 30.4981 65.9756C29.8214 66.0287 29.1445 66.0822 28.4674 66.1357L28.466 66.1358C25.6727 66.3565 22.8764 66.5774 20.08 66.78C19.7 66.807 19.3195 66.8329 18.9389 66.8589C17.6265 66.9485 16.3123 67.0382 15.01 67.17C14.06 67.2599 13.11 67.34 12.16 67.46C11.993 67.4819 11.8262 67.504 11.6594 67.5261L11.6574 67.5263C10.457 67.6852 9.26234 67.8434 8.06001 67.94C7.63002 67.97 7.21004 67.97 6.78004 67.95C6.57002 67.93 6.37001 67.8999 6.15999 67.86C6.11391 67.8523 6.06782 67.8387 6.0171 67.8238L5.96999 67.81C5.93996 67.79 5.90999 67.78 5.87001 67.77L5.86513 67.7683C5.998 67.8003 6.13301 67.8145 6.27003 67.81C6.73006 67.81 7.19002 67.6199 7.55 67.29C8.26002 66.6399 8.97999 66.02 9.65999 65.34C10.1669 64.8231 10.6839 64.3062 11.2007 63.7893L11.21 63.78C11.8856 63.102 12.5604 62.4233 13.2353 61.7447C15.2579 59.7108 17.2806 57.6769 19.32 55.66C19.4773 55.5038 19.6345 55.3474 19.7916 55.1908C20.0539 54.9293 20.316 54.6674 20.5782 54.4054L20.5835 54.4001C21.5601 53.4242 22.5377 52.4473 23.53 51.49C24.0941 50.9539 24.6518 50.4114 25.2095 49.8689C26.0458 49.0554 26.8821 48.2419 27.74 47.45L29.1823 46.1224L29.1879 46.117C34.4744 41.2507 39.7603 36.3849 45.13 31.62L45.17 31.58L45.7113 31.1177C45.7489 31.3402 45.7744 31.5689 45.7998 31.7976L45.8 31.8C45.84 32.6399 45.83 33.48 45.78 34.32C45.6201 36.2699 45.3 38.1999 44.92 40.11C44.8728 40.3426 44.8257 40.5742 44.7785 40.8052C44.6757 41.3089 44.5728 41.8094 44.47 42.31C44.4762 42.3038 44.4785 42.2976 44.4818 42.2891C44.4838 42.2838 44.4862 42.2776 44.49 42.27L44.43 42.54C44.4169 42.6054 44.4019 42.6726 44.3867 42.741C44.367 42.8294 44.3469 42.9197 44.33 43.01C44.2038 43.6415 44.0774 44.2674 43.9511 44.8919L43.82 45.54V45.53C43.82 45.5338 43.82 45.5376 43.8198 45.5412C43.8098 45.5709 43.8 45.6002 43.8 45.63C43.8008 45.6275 43.8017 45.6251 43.8024 45.6227C43.7894 45.6862 43.7772 45.7506 43.765 45.815C43.7475 45.9075 43.73 46 43.71 46.09C43.7301 46.01 43.74 45.9399 43.76 45.86C43.6475 46.4151 43.5518 46.9702 43.4562 47.5254C43.4243 47.7102 43.3925 47.8951 43.36 48.08L43.3411 48.1919C43.1447 49.3551 42.9221 50.6734 43.61 51.71C43.97 52.26 44.5501 52.5899 45.15 52.57C45.44 52.57 45.74 52.49 46.02 52.33C46.7901 51.87 47.16 50.76 46.68 49.96C46.68 49.91 46.6825 49.8624 46.685 49.8149C46.6875 49.7674 46.69 49.72 46.69 49.67C46.7814 48.8781 46.9249 48.0862 47.0676 47.2988C47.1124 47.052 47.1571 46.8057 47.2 46.56C47.21 46.55 47.21 46.54 47.21 46.53C47.22 46.44 47.24 46.36 47.26 46.28C47.26 46.3 47.25 46.32 47.25 46.34C47.28 46.23 47.3 46.13 47.32 46.02C47.4978 45.1687 47.6667 44.3088 47.8433 43.4565C47.8393 43.4748 47.835 43.4927 47.83 43.51C47.85 43.42 47.8675 43.3276 47.885 43.2351C47.9025 43.1426 47.92 43.05 47.94 42.96C47.93 43 47.9225 43.0375 47.915 43.0751L47.9857 42.7315L48.01 42.62C48.0003 42.6587 47.993 42.6952 47.9857 42.7315C47.978 42.7702 47.9704 42.8088 47.96 42.85C48.0167 42.5718 48.074 42.2942 48.1312 42.0169C48.407 40.6795 48.6812 39.3501 48.88 38C49.11 36.5099 49.32 35.0199 49.35 33.51C49.38 32.12 49.35 30.72 48.92 29.37C48.7955 28.9745 48.6227 28.6059 48.4017 28.2601C48.5073 27.6413 48.2955 26.9912 47.75 26.57C47.5096 26.3837 47.2198 26.2697 46.9192 26.2283C46.7255 25.9982 46.4894 25.8025 46.23 25.67C45.46 25.2699 44.64 25.06 43.78 24.93C43.1201 24.8299 42.46 24.77 41.8 24.7C41.6978 24.6895 41.5949 24.6817 41.4917 24.6756C41.2011 24.6586 40.9079 24.6547 40.62 24.64C40.35 24.62 40.09 24.6 39.83 24.6H39.12C38.64 24.6 38.16 24.6 37.69 24.62C37.1878 24.6468 36.6901 24.6691 36.1908 24.6929C35.9445 24.7046 35.6978 24.7167 35.45 24.73C34.5329 24.7673 33.6213 24.8379 32.707 24.9087C32.3951 24.9329 32.0829 24.9571 31.77 24.98C31.435 24.995 31.1 25.0125 30.765 25.03C29.76 25.0825 28.755 25.1349 27.75 25.12H27.04C26.53 25.1299 26.03 25.1299 25.53 25.1L25.324 25.0881C24.7028 25.052 24.0823 25.016 23.47 24.98L22.54 24.89C22.18 24.61 21.71 24.47 21.23 24.53C21.06 24.55 20.89 24.5899 20.73 24.63C20.7308 24.63 20.7316 24.6299 20.7324 24.6299C20.6002 24.6588 20.475 24.6974 20.35 24.76C19.71 25.07 19.27 25.66 19.27 26.39C19.27 27.04 19.62 27.5699 20.15 27.92C20.6701 28.2599 21.29 28.32 21.88 28.38C22.38 28.44 22.87 28.48 23.37 28.51C23.966 28.5461 24.5701 28.5821 25.175 28.6183L25.37 28.63C26.13 28.67 26.9 28.67 27.67 28.67H28.57C28.9823 28.6774 29.3946 28.6512 29.8069 28.6249C29.9446 28.6162 30.0823 28.6075 30.22 28.6C30.6171 28.5852 31.0197 28.5652 31.4196 28.5476C31.5636 28.5413 31.7071 28.5353 31.85 28.53C32.5726 28.4965 33.2997 28.4362 34.0253 28.376C34.3842 28.3462 34.7426 28.3164 35.1 28.29C35.3518 28.2778 35.6041 28.2643 35.8569 28.2509C36.6384 28.2093 37.4242 28.1675 38.21 28.16C38.4093 28.16 38.611 28.1547 38.8136 28.1495C39.1703 28.1402 39.5293 28.1308 39.88 28.15C40.1282 28.1646 40.3764 28.1768 40.6234 28.1889C40.884 28.2018 41.1433 28.2145 41.4 28.23C42.0642 28.2932 42.7221 28.369 43.3787 28.4721C43.1747 28.6468 42.9715 28.8225 42.77 29C41.7829 29.8675 40.8057 30.745 39.8284 31.6225L39.82 31.63C37.0741 34.1064 34.348 36.6026 31.6219 39.099L31.61 39.11C28.63 41.8299 25.65 44.5599 22.74 47.36C19.98 50.0199 17.27 52.72 14.57 55.43C13.9351 56.0649 13.3001 56.7024 12.6651 57.3399C12.03 57.9775 11.395 58.615 10.76 59.25C9.79005 60.24 8.81007 61.22 7.83003 62.2C7.45003 62.58 7.07002 62.94 6.68001 63.31C6.31001 63.3399 5.96004 63.48 5.68001 63.75C5.44002 63.94 5.24007 64.17 5.09004 64.44C5.06624 64.4816 5.04231 64.5238 5.01845 64.5666ZM20.7541 24.6253C20.7627 24.6235 20.7714 24.6217 20.78 24.62C20.7697 24.62 20.7619 24.6227 20.7541 24.6253ZM43.8024 45.6227C43.8081 45.5953 43.8138 45.5682 43.8198 45.5412C43.8183 45.5726 43.8106 45.5979 43.8024 45.6227ZM47.915 43.0751L47.89 43.19C47.9 43.15 47.9075 43.1125 47.915 43.0751Z"
    fill="rgba(191, 192, 191, 1)" />
</svg>