<svg width="82" height="85" viewBox="0 0 82 85" fill="none" xmlns="http://www.w3.org/2000/svg">
  <path
    d="M5.69617 79.5704C5.68311 79.5588 5.66968 79.5471 5.65601 79.5355C5.6344 79.517 5.61218 79.4985 5.58997 79.48L5.65015 79.5324C5.66309 79.5436 5.67615 79.5547 5.68933 79.5657L5.69617 79.5704Z"
    fill="rgba(191, 192, 191, 1)" />
  <path fill-rule="evenodd" clip-rule="evenodd"
    d="M43.4399 42.9C43.2853 42.4877 43.1086 42.0865 42.9064 41.6999C43.2434 41.5332 43.5225 41.2613 43.7 40.93C43.8213 40.8258 43.9426 40.7219 44.0638 40.6182C44.8617 39.9355 45.6534 39.2579 46.4 38.52C47.1112 37.8231 47.807 37.116 48.5022 36.4095L48.5114 36.4004C48.7908 36.1166 49.0699 35.8329 49.35 35.55C50.1941 34.6928 51.0438 33.8433 51.8936 32.9939C52.9867 31.9011 54.0797 30.8085 55.16 29.7C56.5101 28.31 57.88 26.92 59.26 25.54C59.9329 24.8622 60.6006 24.1818 61.2671 23.5028C61.9281 22.8293 62.5878 22.1572 63.25 21.49C64.963 19.7645 66.6917 18.0623 68.4211 16.3592L68.431 16.3495C69.3079 15.4862 70.1848 14.6226 71.0603 13.7555C71.2269 13.5905 71.3936 13.4253 71.5601 13.26C73.0402 11.79 74.51 10.31 75.97 8.80999L76.5029 8.25988C77.0109 7.7354 77.5194 7.21026 78.0305 6.68694C78.0238 6.89806 78.0176 7.10924 78.0114 7.32036C78.0044 7.55358 77.9976 7.78679 77.99 8.02001C77.9301 9.73003 77.88 11.42 77.79 13.12C77.7737 13.2841 77.7576 13.4479 77.7416 13.6113C77.6696 14.3445 77.5981 15.0723 77.5 15.8C77.37 16.71 77.23 17.62 77.11 18.53C77.0774 18.7972 77.0405 19.0687 77.005 19.3389C76.9861 19.4833 76.9674 19.6272 76.95 19.77C76.9425 19.8381 76.9344 19.9069 76.9264 19.9762C76.8691 20.4675 76.8085 20.9868 76.9399 21.46C77.0399 21.84 77.27 22.2 77.58 22.46C77.8099 22.75 78.13 22.98 78.5 23.08C78.5547 23.0937 78.6083 23.105 78.6619 23.114C78.7649 23.1313 78.868 23.14 78.98 23.14C79.76 23.14 80.4399 22.61 80.6899 21.84C80.88 21.24 80.83 20.58 80.49 20.06C80.59 19.1923 80.7142 18.3271 80.8385 17.4613C81.0623 15.9025 81.2864 14.3416 81.37 12.76C81.4401 11.3528 81.4851 9.94054 81.5302 8.52703C81.5751 7.11803 81.62 5.70775 81.6899 4.29998C81.71 3.95 81.7501 3.61004 81.8 3.27001C81.8601 3.13 81.9 2.99004 81.92 2.84002C81.9749 2.18242 81.7059 1.55303 81.2129 1.17992C81.0793 1.01031 80.9139 0.863333 80.72 0.749991C80.35 0.529959 79.9401 0.489981 79.51 0.499991C78.4508 0.532461 77.4001 0.628287 76.3469 0.724356C75.7792 0.776114 75.2108 0.827933 74.64 0.869986C73.9501 0.879996 73.28 0.879996 72.6 0.859976C71.4391 0.768912 70.2823 0.657156 69.126 0.545401C67.7423 0.411673 66.3591 0.278006 64.97 0.179983C64.37 0.0100005 63.6801 0.149954 63.23 0.619986L63.2 0.650015C62.71 1.17003 62.53 1.92003 62.8199 2.59002C63.0699 3.17998 63.59 3.54998 64.21 3.65996C64.3105 3.6718 64.4111 3.68017 64.5096 3.68706C64.5675 3.69109 64.6246 3.69469 64.6807 3.69817L64.71 3.7C64.6699 3.695 64.6299 3.6925 64.5898 3.68999C64.5499 3.68749 64.51 3.68499 64.47 3.67998C65.5701 3.76 66.67 3.84002 67.76 3.95C68.9 4.07 70.05 4.21996 71.1899 4.29998H71.1921C72.4314 4.38994 73.6708 4.47997 74.91 4.39001L75.1055 4.37591C75.1787 4.3706 75.2507 4.36529 75.3199 4.35998C75.1899 4.48998 75.0699 4.61999 74.9399 4.74999C71.9929 7.81627 68.9695 10.8063 65.946 13.7963L65.9362 13.8061C63.3821 16.332 60.8279 18.858 58.3199 21.43C57.4573 22.3114 56.583 23.1849 55.7091 24.0581L55.6868 24.0806C55.1702 24.5967 54.6537 25.1127 54.14 25.63C53.5936 26.1806 53.0543 26.7383 52.5146 27.2963C51.7704 28.066 51.0253 28.8364 50.26 29.59C48.9401 30.9 47.62 32.21 46.3199 33.54C45.59 34.29 44.85 35.04 44.1 35.77C43.47 36.38 42.8301 36.97 42.1801 37.56L42.21 37.53C41.86 37.82 41.5001 38.1 41.16 38.4C40.9648 38.5684 40.7712 38.747 40.6086 38.9443C40.1929 38.6294 39.7461 38.3557 39.28 38.13C37.9401 37.47 36.45 37.1301 34.99 36.83C34.6671 36.7642 34.3444 36.6974 34.0212 36.6305C33.6224 36.548 33.2233 36.4654 32.823 36.3845C32.5127 36.3217 32.2018 36.2599 31.89 36.2L31.7227 36.1653C30.9561 36.006 30.173 35.8433 29.39 35.75C28.86 35.6851 28.3298 35.6231 27.7998 35.5656C27.3499 35.5168 26.8999 35.4713 26.45 35.43C25.5027 35.343 24.5461 35.2747 23.5983 35.207L23.5 35.2C22.8586 35.1569 22.2174 35.1103 21.576 35.0638L21.5658 35.0631C21.1926 35.036 20.8195 35.009 20.4463 34.9825C19.5342 34.918 18.6221 34.8573 17.71 34.81C16.7688 34.7599 15.8251 34.7324 14.8801 34.7049C13.9376 34.6774 12.9939 34.6499 12.05 34.6C11.7747 34.5861 11.498 34.5705 11.2206 34.5549C9.70496 34.4694 8.16467 34.3825 6.66003 34.56C6.55347 34.5738 6.44458 34.5861 6.33447 34.5984C5.88672 34.6489 5.41943 34.7015 5.01001 34.87C4.07007 35.27 3.63989 36.21 3.43994 37.16C3.19995 38.33 3.20007 39.53 3.28003 40.72C3.01001 41.02 2.84998 41.41 2.82996 41.82C2.74133 42.4401 2.625 43.0602 2.50916 43.6771L2.50183 43.7166C2.4502 43.9918 2.39868 44.2663 2.34998 44.54C2.19995 45.35 2.07007 46.16 1.93005 46.98C1.69006 48.44 1.47009 49.91 1.30005 51.38C1.07007 53.33 0.880005 55.29 0.77002 57.26C0.670044 59.29 0.600098 61.32 0.560059 63.35C0.52002 65.29 0.51001 67.23 0.51001 69.17C0.51001 71.08 0.609985 72.98 0.73999 74.89L0.733276 74.8355L0.719971 74.65C0.719971 74.7118 0.725952 74.7737 0.733276 74.8355C0.822876 76.0563 0.954468 77.3003 1.23999 78.49C1.55994 79.86 2.1499 81.16 3.20996 82.11C4.27002 83.06 5.68005 83.58 7.05005 83.88C9.8501 84.5 12.72 84.58 15.58 84.62C15.9176 84.6254 16.2552 84.6287 16.5929 84.6305C17.1853 84.6337 17.7777 84.6324 18.3701 84.6312L21.4301 84.63C22.6816 84.6348 23.9309 84.6672 25.1812 84.6996C26.5381 84.7348 27.8964 84.77 29.26 84.77C30.42 84.77 31.58 84.74 32.74 84.66C33.78 84.59 34.8099 84.49 35.85 84.38C38.16 84.13 40.37 83.33 42.14 81.81C43.04 81.03 43.8 80.06 44.28 78.97C44.78 77.86 45.0699 76.64 45.2 75.43C45.33 74.21 45.4301 72.96 45.4301 71.73C45.4401 70.69 45.4401 69.65 45.4 68.6C45.36 67.58 45.3 66.56 45.24 65.54C45.1858 64.6185 45.1218 63.6995 45.0542 62.7804C45.0132 62.2242 44.9709 61.668 44.9286 61.1113L44.84 59.94C44.62 56.68 44.4301 53.42 44.29 50.15C44.2729 49.8058 44.2615 49.4599 44.25 49.1128L44.2463 49.0064C44.2318 48.572 44.2166 48.136 44.1899 47.7L44.1689 47.3534C44.0787 45.8469 43.9879 44.3303 43.4399 42.9ZM23.8817 81.1357L23.8707 81.1353C23.33 81.1197 22.7896 81.1041 22.25 81.09L22.239 81.0898C21.5427 81.0799 20.8566 81.0702 20.21 81.11C19.4951 81.11 18.7765 81.1175 18.0587 81.1234C17.6118 81.1271 17.1652 81.13 16.72 81.13C14.9399 81.14 13.16 81.06 11.39 80.97C10.35 80.88 9.32007 80.76 8.30005 80.56C7.81006 80.45 7.32996 80.32 6.85999 80.17C6.64001 80.08 6.42993 80.0001 6.21997 79.9C6.08997 79.8301 5.95996 79.76 5.83997 79.68C5.79443 79.6497 5.75159 79.6168 5.70984 79.5826C5.72742 79.5984 5.74414 79.6142 5.76001 79.63C5.65002 79.54 5.54993 79.4501 5.44995 79.34C5.40283 79.2861 5.36023 79.2322 5.31897 79.1752C5.30664 79.1581 5.29443 79.1407 5.28235 79.123L5.26001 79.09C5.22229 79.0317 5.18689 78.9722 5.15308 78.912C5.12183 78.8562 5.0918 78.7998 5.0625 78.743C5.05273 78.7213 5.04211 78.6996 5.03125 78.6783C4.98816 78.5825 4.95117 78.4832 4.92004 78.39C4.89758 78.318 4.87561 78.246 4.85425 78.174C4.81128 78.0295 4.77087 77.8849 4.73389 77.7404C4.7074 77.637 4.68262 77.5334 4.66003 77.43C4.48389 76.5118 4.38501 75.5936 4.2998 74.6674C4.29944 74.6493 4.29858 74.6313 4.29736 74.6132C4.29517 74.5798 4.29163 74.5464 4.28772 74.513L4.24048 73.8281L4.20996 73.4C4.03772 70.7311 4.06689 68.053 4.09595 65.3831V65.3805L4.09998 65.02C4.10999 63.67 4.14001 62.32 4.18005 60.98C4.1897 60.6994 4.20032 60.4195 4.21179 60.1402C4.21802 59.9893 4.22449 59.8386 4.23108 59.6879C4.26013 59.0273 4.29285 58.3689 4.32556 57.71C4.34387 57.3403 4.3623 56.9705 4.38 56.6C4.40771 56.2337 4.43542 55.8675 4.46448 55.5012C4.48218 55.2795 4.50037 55.0579 4.51941 54.8362C4.53333 54.6731 4.54785 54.51 4.56287 54.3469C4.81738 54.5671 5.13293 54.7158 5.46997 54.75C5.59998 54.77 5.73999 54.78 5.87 54.78H5.88C6.52002 54.86 7.16003 55.0001 7.80005 55.09L7.92896 55.1072C8.55591 55.1915 9.18237 55.2757 9.80005 55.36C10.3501 55.44 10.91 55.46 11.46 55.5C11.96 55.54 12.45 55.5701 12.9399 55.59C14.23 55.62 15.5001 55.64 16.79 55.62C17.2155 55.617 17.6417 55.6086 18.0684 55.6002C19.066 55.5806 20.0656 55.561 21.0601 55.61C21.6801 55.67 22.29 55.75 22.91 55.86C23.8801 56.07 24.8301 56.32 25.77 56.63C25.8 56.64 25.8401 56.65 25.87 56.67C25.89 56.69 25.91 56.7 25.9399 56.72C25.96 56.74 25.9701 56.75 25.99 56.76C25.99 56.765 25.9924 56.7675 25.995 56.77C25.9976 56.7725 26 56.775 26 56.78L26.01 56.79C26.0128 56.8015 26.0165 56.8122 26.0209 56.8225C26.0276 56.8386 26.0358 56.8539 26.0444 56.87L26.0525 56.885L26.0601 56.9C26.1001 56.97 26.1301 57.05 26.16 57.13C26.2001 57.24 26.2301 57.36 26.26 57.48C26.3301 57.92 26.3801 58.35 26.42 58.78C26.5085 60.6189 26.4249 62.4811 26.3422 64.3254V64.3283L26.3269 64.6669L26.3101 65.05C26.3201 64.97 26.3199 64.89 26.33 64.81C26.3124 65.0637 26.2957 65.3173 26.2791 65.5709C26.2202 66.4669 26.1614 67.3614 26.0601 68.25C25.911 69.6023 25.7419 70.9548 25.5729 72.3071L25.5699 72.33C25.41 73.54 25.3101 74.75 25.27 75.97C25.2657 76.2014 25.2688 76.4347 25.2753 76.6683C25.2839 76.9796 25.2987 77.2914 25.3101 77.6C25.3301 78.13 25.3601 78.6901 25.53 79.21L25.5275 79.2345C25.5182 79.3179 25.5082 79.4081 25.49 79.49C25.37 80.05 25.23 80.62 25.0699 81.17C24.6737 81.1591 24.2777 81.1471 23.8817 81.1357ZM4.28772 74.513L4.29431 74.6072L4.28003 74.45L4.28772 74.513ZM5.03125 78.6783C5.02161 78.6593 5.01172 78.6405 5.0022 78.6222L5.0033 78.6265L5.03125 78.6783ZM5.0625 78.743L5.06995 78.76C5.06274 78.7456 5.05566 78.731 5.04871 78.7164L5.0625 78.743ZM28.8668 80.5264C28.9037 80.3588 28.9381 80.1901 28.97 80.02C29.05 79.63 29.1 79.23 29.0699 78.82C29.0607 78.7038 29.0428 78.5942 29.0172 78.4871C28.9878 78.3635 28.9482 78.2432 28.9 78.12C28.8601 77.85 28.84 77.6 28.8199 77.33C28.83 77.41 28.83 77.49 28.84 77.57C28.8 76.73 28.8101 75.91 28.83 75.07C28.9413 73.8886 29.0833 72.711 29.2251 71.5349C29.3125 70.8096 29.3999 70.0848 29.48 69.36C29.7001 67.4 29.8301 65.43 29.9 63.45C29.9301 62.46 29.9501 61.46 29.97 60.46C29.99 59.3801 29.9801 58.27 29.79 57.2C29.6101 56.2 29.3101 55.11 28.59 54.36C28.1901 53.96 27.7201 53.57 27.1801 53.38C26.6901 53.2 26.1901 53.03 25.6801 52.9C25.1101 52.7501 24.55 52.59 23.97 52.47C22.63 52.2 21.29 52.05 19.92 52.04C19.7139 52.04 19.5077 52.0411 19.3015 52.0431C19.0563 52.0454 18.811 52.0489 18.5658 52.0527L18.12 52.06C17.1179 52.0898 16.1061 52.0998 15.1038 52.1098L15.08 52.11C14.4087 52.11 13.7312 52.0845 13.0522 52.0588C12.8816 52.0524 12.7108 52.046 12.54 52.04C11.4601 51.95 10.3801 51.86 9.30005 51.72C8.72009 51.64 8.15002 51.5601 7.56995 51.46C7.43481 51.437 7.29565 51.41 7.15393 51.3824C6.40039 51.236 5.57471 51.0755 4.89417 51.429C4.95459 50.9557 5.01794 50.4831 5.08435 50.0109C5.13745 49.6338 5.19263 49.2569 5.25 48.88C5.30737 48.4888 5.36584 48.0976 5.42615 47.7068C5.5448 46.9388 5.6709 46.1722 5.81006 45.41C5.93005 44.76 6.04004 44.12 6.16003 43.47C6.17004 43.43 6.17761 43.3899 6.18506 43.3499C6.1925 43.3099 6.19995 43.27 6.20996 43.23C6.71997 42.85 7 42.22 6.93005 41.55C6.87 40.99 6.83008 40.43 6.79004 39.87C6.80005 39.95 6.80005 40.03 6.81006 40.11C6.79004 39.64 6.79993 39.16 6.81995 38.69C6.83069 38.5882 6.84143 38.4864 6.85364 38.3846C6.86426 38.2964 6.8761 38.2082 6.89001 38.12L6.89368 38.1194C7.12244 38.0897 7.35132 38.0599 7.58997 38.04C8.92773 37.9897 10.2708 38.0583 11.6116 38.1269L11.6167 38.1271C11.8876 38.1409 12.1583 38.1548 12.429 38.1677C12.5532 38.1736 12.6774 38.1793 12.8015 38.1846C12.9277 38.1901 13.054 38.1952 13.1801 38.2C13.5621 38.2172 13.9442 38.2325 14.3264 38.2468C14.7848 38.264 15.2432 38.2797 15.7018 38.2955C16.3191 38.3167 16.9368 38.3379 17.5552 38.3626C18.1095 38.3848 18.6643 38.4097 19.22 38.44C19.6322 38.47 20.0442 38.4996 20.4559 38.5292L20.4885 38.5315L20.5079 38.533L20.5149 38.5336C22.2804 38.6606 24.0421 38.7873 25.8101 38.94L25.8383 38.9424L25.8397 38.9426C26.9401 39.0317 28.0499 39.1216 29.14 39.31C30.28 39.51 31.4299 39.72 32.5699 39.95C32.826 40.0037 33.0828 40.0561 33.3396 40.1086L33.3422 40.1092C34.519 40.3497 35.6997 40.5909 36.84 40.96C37.1599 41.0701 37.47 41.2001 37.77 41.34C37.97 41.4501 38.17 41.57 38.36 41.69C38.46 41.76 38.5601 41.84 38.66 41.92C38.8201 42.07 38.98 42.21 39.12 42.37C39.2396 42.5096 39.3495 42.6593 39.4592 42.8089L39.46 42.81C39.5339 42.921 39.6051 43.0348 39.6736 43.1514C39.7346 43.2553 39.7935 43.3615 39.85 43.47C39.97 43.73 40.0801 43.99 40.1801 44.26C40.28 44.57 40.37 44.8901 40.4399 45.21C40.5 45.59 40.5399 45.98 40.58 46.37C40.6799 47.9692 40.7522 49.5683 40.8245 51.1674C40.8895 52.6083 40.9547 54.0491 41.04 55.49C41.2002 58.2562 41.396 61.0223 41.5914 63.7825L41.7 65.32C41.7899 66.8101 41.86 68.29 41.91 69.77C41.9406 70.7934 41.8954 71.811 41.85 72.8316C41.8359 73.1474 41.8219 73.4634 41.8101 73.78C41.7401 74.5801 41.66 75.36 41.51 76.15C41.45 76.43 41.38 76.7 41.29 76.98C41.1901 77.23 41.09 77.48 40.97 77.73C40.9163 77.824 40.8625 77.918 40.8088 78.009C40.7826 78.0535 40.7562 78.0973 40.73 78.14C40.6683 78.2274 40.604 78.3148 40.5385 78.4008C40.4764 78.4822 40.4132 78.5622 40.35 78.64C40.1899 78.8101 40.02 78.98 39.85 79.14C39.7645 79.2099 39.6776 79.2798 39.5898 79.3484C39.4515 79.4567 39.3108 79.5621 39.17 79.66C38.9601 79.79 38.75 79.91 38.54 80.03C38.28 80.15 38.02 80.26 37.75 80.37C37.35 80.5 36.9501 80.61 36.54 80.7C35.6024 80.8688 34.6561 80.9672 33.7092 81.0613C33.7261 81.0605 33.7432 81.06 33.76 81.06L33.6473 81.0674L33.6976 81.0619C33.6641 81.0638 33.6305 81.0669 33.5969 81.0707L33.5636 81.0746L33.2733 81.0924C32.5184 81.1432 31.7693 81.1936 31.02 81.21C30.2448 81.2255 29.4694 81.235 28.6941 81.2338C28.7567 81.0005 28.8143 80.7647 28.8668 80.5264Z"
    fill="rgba(191, 192, 191, 1)" />
</svg>