<svg width="65" height="68" viewBox="0 0 65 68" fill="none" xmlns="http://www.w3.org/2000/svg">
  <path
    d="M0.210022 65.7199C0.210022 65.1099 0.540022 64.66 0.890022 64.19C1.16002 63.83 1.43003 63.46 1.69003 63.1C2.24003 62.37 2.78002 61.63 3.33002 60.9C4.62002 59.18 5.92002 57.46 7.21002 55.74C9.38002 52.87 11.61 50.05 13.9 47.29C16.45 44.21 19.02 41.16 21.69 38.17C24.34 35.2 27.01 32.25 29.74 29.36C32.49 26.46 35.27 23.58 38.05 20.71C40.82 17.85 43.57 14.9899 46.36 12.1599C47.74 10.7699 49.14 9.39995 50.54 8.03995C51.09 7.49995 51.65 6.96997 52.2 6.42997C51.81 6.37997 51.43 6.33997 51.04 6.30997C50.53 6.27997 50.02 6.27 49.52 6.27C48.93 6.46 48.35 6.65995 47.76 6.84995C46.37 7.38995 45 7.93001 43.64 8.53C42.34 9.10001 41.07 9.70999 39.8 10.33C38.94 10.81 38.08 11.29 37.23 11.78C36.87 11.98 36.54 12.2399 36.2 12.4699C35.82 12.7199 35.45 12.98 35.08 13.23C34.53 13.66 33.97 14.09 33.42 14.52C32.84 15.06 32.26 15.59 31.67 16.12C30.83 16.89 30.12 17.78 29.25 18.51C28.58 19.08 27.52 18.96 26.91 18.36C26.3 17.75 26.21 16.72 26.76 16.03C27.49 15.11 28.38 14.3 29.22 13.49C29.54 13.18 29.89 12.89 30.22 12.59C30.54 12.31 30.86 12.02 31.19 11.76C31.2 11.76 31.21 11.75 31.21 11.74C31.34 11.63 31.46 11.53 31.59 11.42C32.36 10.79 33.11 10.12 33.9 9.52C34.8 8.84 35.7 8.15996 36.6 7.47996C37.47 6.82996 38.39 6.22996 39.31 5.66996C40.44 4.96996 41.63 4.37 42.87 3.9C44.8 3.16 46.86 2.82999 48.92 2.75999C50.04 2.39999 51.17 2.05997 52.32 1.73997C52.89 1.57997 53.47 1.42 54.05 1.27C55.18 0.969995 56.37 0.649993 57.55 0.829993C58.42 0.959993 59.13 1.54 59.37 2.4C59.48 2.81 59.46 3.27998 59.34 3.68998C59.23 4.07998 59 4.40996 58.75 4.72996C59.47 5.16996 60.13 5.69996 60.72 6.29996C61.61 7.20996 62.27 8.32 62.83 9.46C63.65 11.14 64.08 13.01 64.38 14.85C64.68 16.71 64.7 18.62 64.52 20.49C64.34 22.47 63.81 24.45 63.2 26.34C62.9 27.3 62.54 28.24 62.19 29.18C61.23 31.77 60.08 34.28 58.83 36.75C58.87 36.68 58.9 36.61 58.94 36.55C58.7 37.05 58.45 37.47 57.99 37.79C57.2 38.34 56.11 38.2599 55.51 37.4699C54.96 36.7699 55.03 35.65 55.72 35.07C55.8 34.9 55.89 34.73 55.97 34.56C56.59 33.29 57.22 32.0199 57.76 30.7199C58.05 30.0199 58.37 29.32 58.63 28.6C58.92 27.8 59.22 27 59.51 26.21C59.98 24.79 60.4 23.3699 60.71 21.9099C60.86 21.1099 60.98 20.32 61.04 19.51C61.09 18.65 61.08 17.8 61.03 16.94C60.96 16.09 60.85 15.2499 60.69 14.4099C60.53 13.6899 60.35 12.97 60.12 12.27C59.93 11.73 59.71 11.21 59.47 10.7C59.3 10.38 59.12 10.06 58.93 9.75999C58.73 9.46999 58.52 9.19996 58.3 8.91996C58.14 8.74996 57.98 8.58997 57.82 8.42997C57.63 8.26997 57.44 8.12996 57.24 7.97996C56.97 7.79996 56.69 7.63997 56.4 7.48997C56.34 7.45997 56.28 7.43 56.21 7.4C56.18 7.43 56.15 7.45997 56.12 7.48997C55.43 8.16997 54.74 8.85001 54.05 9.53001C52.54 11 51.04 12.48 49.54 13.96C46.93 16.52 44.43 19.19 41.89 21.81C39.21 24.57 36.53 27.33 33.88 30.12C31.92 32.19 29.96 34.26 28.04 36.37C26.33 38.24 24.64 40.14 22.95 42.03C20.56 44.81 18.16 47.59 15.86 50.44C14.56 52.05 13.27 53.65 12 55.28C10.71 56.94 9.45002 58.6 8.18002 60.28C7.39002 61.33 6.61002 62.38 5.82002 63.43C5.01002 64.51 4.18002 65.59 3.40002 66.7C3.08002 67.2 2.53003 67.53 1.91003 67.53C1.02003 67.49 0.210022 66.6799 0.210022 65.7199Z"
    fill="rgba(191, 192, 191, 1)" />
</svg>