<svg width="85" height="77" viewBox="0 0 85 77" fill="none" xmlns="http://www.w3.org/2000/svg">
  <path
    d="M0.520016 75.88C0.150016 75.02 0.539943 74.07 1.31994 73.63C1.29994 73.64 1.28 73.65 1.25 73.66C1.51 73.53 1.74998 73.37 1.97998 73.22C2.28998 73 2.62004 72.7901 2.92004 72.5601C3.36004 72.2101 3.79999 71.86 4.23999 71.51C6.58999 69.42 8.84005 67.25 11.3101 65.3C12.5801 64.3 13.87 63.31 15.1 62.26C16.33 61.2 17.56 60.1399 18.79 59.0699C18.76 59.0999 18.7299 59.13 18.6899 59.16C18.7799 59.09 18.8599 59.01 18.9499 58.93C18.8899 58.98 18.84 59.0299 18.78 59.0799C18.98 58.91 19.17 58.7399 19.37 58.5699C19.31 58.6199 19.2599 58.67 19.1999 58.72C19.5099 58.45 19.81 58.18 20.12 57.91C20.06 57.96 20.0099 58.0101 19.9499 58.0601C20.0999 57.93 20.25 57.8 20.4 57.66C20.37 57.69 20.3401 57.71 20.3101 57.73C20.3401 57.7 20.37 57.68 20.4 57.65C20.41 57.64 20.4299 57.63 20.4399 57.61C20.4299 57.62 20.42 57.63 20.4 57.64C20.42 57.62 20.45 57.5999 20.47 57.5799C20.8 57.2899 21.1299 56.9999 21.4499 56.6999C20.7799 55.9399 20.37 55.05 20.3 54.01C20.16 51.72 21.26 49.47 22.54 47.64C23.79 45.86 25.61 44.4 27.58 43.5C29.21 42.75 30.9 42.05 32.73 42.27C33.61 42.37 34.6799 42.84 35.1899 43.59C35.4199 43.93 35.62 44.27 35.71 44.68C35.82 45.17 35.78 45.66 35.63 46.14C35.18 47.57 34.27 48.82 33.34 49.97C32.77 50.68 32.0899 51.33 31.4499 51.97C30.6999 52.71 29.9499 53.4499 29.1999 54.1899C28.9199 54.4699 28.63 54.75 28.35 55.03C28.53 55 28.7 54.9699 28.88 54.9399C29.44 54.8099 29.99 54.65 30.53 54.46H30.52C32.2 53.86 33.83 53.14 35.42 52.35C36.36 51.83 37.26 51.3 38.16 50.71C39.25 49.94 40.27 49.11 41.28 48.23C41.22 48.28 41.17 48.33 41.11 48.38C42.71 46.92 44.3 45.44 45.79 43.86C47.32 42.24 48.81 40.58 50.3 38.92C51.48 37.55 52.6 36.1299 53.72 34.6999C54.02 34.3099 54.32 33.93 54.62 33.54C54.59 33.14 54.61 32.7399 54.64 32.3299C54.74 31.2599 55.1999 30.17 55.6999 29.24C56.1099 28.47 56.59 27.77 57.09 27.05C57.63 26.26 58.25 25.53 58.86 24.8C60.05 23.37 61.3299 22.02 62.5699 20.64C65.1299 17.81 67.83 15.1 70.53 12.4C72.39 10.54 74.1499 8.57997 76.0699 6.78997C76.1499 6.71997 76.22 6.64 76.3 6.57C75.73 6.83 75.16 7.09998 74.58 7.35998C73.35 7.93998 72.12 8.50002 70.87 9.03002C70.86 9.03002 70.85 9.03997 70.85 9.03997C70.67 9.13997 70.48 9.24997 70.29 9.34997C69.78 9.62997 69.27 9.93001 68.75 10.2C67.97 10.6 67.21 11.06 66.34 11.24C65.73 11.36 65.07 11.04 64.7 10.56C64.25 9.98999 64.1999 9.15997 64.5699 8.53997C64.7399 8.24997 64.97 8.01999 65.23 7.80999C65.62 7.50999 66.04 7.29 66.48 7.07C67.13 6.74 67.82 6.47 68.48 6.19C68.76 6.07 69.05 5.95001 69.33 5.83001C69.78 5.57001 70.22 5.30997 70.66 5.03997C72.34 4.01997 73.99 2.96 75.71 2.01C76.69 1.47 77.71 0.789998 78.83 0.629998C79.31 0.559998 79.83 0.619991 80.29 0.809991C80.82 0.589991 81.35 0.400003 81.9 0.260003C82.78 0.040003 83.8 0.0899786 84.4 0.859979C84.78 1.33998 84.89 2.01002 84.7 2.59002C84.4699 3.30002 83.96 3.78999 83.46 4.30999C83.08 4.69999 82.71 5.08998 82.33 5.48998C82.34 5.60998 82.34 5.72997 82.35 5.84997C82.37 6.31997 82.39 6.79 82.38 7.26C82.36 8.32 82.26 9.35997 82.13 10.41C81.95 11.88 81.77 13.3599 81.53 14.8199C81.3 16.2599 80.93 17.68 80.63 19.1C80.65 19.03 80.6701 18.95 80.6801 18.87C80.6301 19.12 80.58 19.37 80.54 19.62C80.44 20.18 80.2701 20.65 79.8101 21.03C79.2201 21.51 78.23 21.53 77.65 21.03C77.65 21.03 77.65 21.03 77.64 21.03C77.05 20.52 76.8001 19.72 77.0601 19.01C77.3001 17.76 77.58 16.51 77.85 15.27C78.08 14.07 78.27 12.86 78.41 11.65C78.51 10.82 78.61 9.98997 78.7 9.15997C78.34 9.49997 77.98 9.84 77.62 10.19C76.95 10.85 76.3 11.53 75.65 12.21C74.33 13.6 72.98 14.9501 71.63 16.3101C70.11 17.8501 68.56 19.3699 67.09 20.9499C65.55 22.5899 64.06 24.26 62.55 25.93C62.33 26.18 62.12 26.43 61.9 26.68C61.97 26.64 62.04 26.59 62.11 26.55C62.83 26.11 63.58 25.7099 64.39 25.4399C65.5 25.0699 66.6599 24.9 67.8199 25C68.7099 25.07 69.6599 25.46 70.1899 26.22C70.4799 26.63 70.75 27.0701 70.89 27.5601C71.06 28.2101 71.09 28.82 71.04 29.49C70.95 30.53 70.35 31.5201 69.71 32.3101C68.98 33.2001 68.06 33.9 67.1 34.54C65.87 35.35 64.47 35.88 63.08 36.36C63.05 36.37 63.02 36.38 62.98 36.39C62.94 36.41 62.89 36.4199 62.85 36.4399C62.8 36.4599 62.76 36.47 62.72 36.49C62.7 36.5 62.68 36.5 62.66 36.51C61.12 37.05 59.37 37.61 57.73 37.21C57.33 37.11 56.94 36.97 56.58 36.77C56.21 37.25 55.84 37.7199 55.47 38.1999C54.32 39.6599 53.12 41.09 51.86 42.47C50.64 43.81 49.4501 45.19 48.18 46.48C46.8601 47.83 45.51 49.15 44.11 50.43C43.37 51.11 42.62 51.75 41.84 52.39C41.08 53.01 40.2601 53.56 39.43 54.1C37.82 55.15 36.1 56 34.34 56.76C33.39 57.16 32.44 57.55 31.46 57.88C30.32 58.26 29.16 58.54 27.96 58.64C26.9 58.73 25.8401 58.64 24.8101 58.43C24.1101 59.07 23.4099 59.6901 22.6999 60.3101C22.7299 60.2801 22.76 60.25 22.8 60.22C22.75 60.27 22.69 60.31 22.64 60.36C22.47 60.51 22.3 60.66 22.13 60.8101C22.19 60.7601 22.24 60.71 22.3 60.66C22.05 60.88 21.8 61.0999 21.55 61.3199C21.55 61.3199 21.54 61.32 21.54 61.3299C21.49 61.3799 21.43 61.42 21.38 61.47C21.4 61.45 21.4199 61.43 21.4499 61.41C21.2999 61.54 21.16 61.66 21.02 61.79C21.07 61.74 21.1299 61.69 21.1899 61.64C19.6899 62.96 18.2 64.29 16.65 65.55C14.96 66.93 13.25 68.28 11.55 69.65C10.14 70.91 8.75996 72.21 7.33996 73.46C6.57996 74.14 5.8 74.77 5 75.4C4.63 75.69 4.21994 75.97 3.81994 76.23C3.47994 76.44 3.16005 76.66 2.80005 76.8299C2.58004 76.9299 2.36 76.97 2.13 76.97C1.48 76.97 0.800016 76.54 0.520016 75.88ZM24.0699 54.3C24.5499 53.84 25.02 53.38 25.49 52.92C27.21 51.21 28.98 49.55 30.61 47.76C30.9 47.4 31.1799 47.04 31.4499 46.67C31.6299 46.39 31.7999 46.1099 31.9499 45.8199C31.9599 45.7999 31.97 45.79 31.97 45.77C31.94 45.77 31.92 45.77 31.89 45.77C31.76 45.78 31.62 45.7999 31.49 45.8199C31.18 45.8899 30.88 45.9799 30.58 46.0799C30.04 46.2799 29.52 46.52 29 46.76C28.55 47 28.1101 47.25 27.68 47.53C27.3701 47.75 27.06 47.99 26.76 48.24C26.48 48.5 26.22 48.77 25.96 49.05C25.7 49.36 25.46 49.67 25.23 50C24.99 50.38 24.76 50.76 24.55 51.16C24.4 51.47 24.27 51.79 24.15 52.11C24.06 52.38 23.98 52.65 23.92 52.93C23.88 53.14 23.85 53.3501 23.83 53.5601C23.83 53.66 23.83 53.76 23.83 53.86C23.83 53.86 23.83 53.86 23.83 53.87C23.83 53.84 23.83 53.82 23.83 53.79C23.84 53.84 23.84 53.8899 23.85 53.9399C23.86 53.9799 23.87 54.0201 23.88 54.0601C23.89 54.09 23.91 54.12 23.92 54.15C23.93 54.16 23.9399 54.1799 23.9499 54.1899C23.9699 54.2199 24 54.25 24.02 54.28C24.05 54.28 24.0599 54.29 24.0699 54.3ZM58.99 33.79C59 33.79 59.01 33.79 59.01 33.79C59.23 33.77 59.45 33.7399 59.66 33.6999C60.25 33.5699 60.83 33.39 61.41 33.21C61.46 33.19 61.5101 33.17 61.5601 33.16C61.6101 33.14 61.66 33.13 61.71 33.11C61.67 33.13 61.63 33.14 61.59 33.15H61.6C61.66 33.13 61.72 33.11 61.78 33.09C61.85 33.06 61.93 33.03 62.01 33.01C62.76 32.75 63.51 32.46 64.24 32.11C64.67 31.89 65.09 31.64 65.5 31.38C65.79 31.17 66.07 30.95 66.35 30.72C66.57 30.52 66.78 30.31 66.98 30.09C67.08 29.97 67.17 29.85 67.26 29.73C67.31 29.65 67.36 29.57 67.4 29.49C67.43 29.43 67.45 29.3701 67.48 29.3101C67.5 29.2501 67.52 29.18 67.54 29.12C67.54 29.14 67.53 29.1699 67.53 29.1899C67.53 29.1999 67.52 29.2 67.52 29.21C67.52 29.2 67.52 29.1999 67.53 29.1899C67.52 29.2399 67.51 29.29 67.5 29.35C67.51 29.29 67.53 29.23 67.54 29.17C67.54 29.16 67.55 29.15 67.55 29.13C67.55 29.14 67.54 29.15 67.54 29.16C67.56 29.08 67.57 28.99 67.58 28.91C67.58 28.87 67.58 28.83 67.58 28.79C67.57 28.75 67.5701 28.71 67.5601 28.67C67.5501 28.64 67.54 28.6099 67.54 28.5699C67.53 28.5499 67.52 28.53 67.51 28.5C67.29 28.49 67.08 28.49 66.86 28.5C66.64 28.52 66.43 28.55 66.22 28.59C65.99 28.65 65.75 28.71 65.52 28.78C65.25 28.89 64.98 29 64.72 29.13C64.02 29.52 63.35 29.96 62.68 30.41C62.7401 30.37 62.8 30.33 62.87 30.29C62.28 30.73 61.71 31.18 61.14 31.64C60.42 32.3 59.7399 32.99 59.0699 33.71C59.0299 33.76 59.01 33.77 58.99 33.79Z"
    fill="rgba(191, 192, 191, 1)" />
</svg>