<svg width="81" height="70" viewBox="0 0 81 70" fill="none" xmlns="http://www.w3.org/2000/svg">
  <path
    d="M9.96999 69C8.03999 68.35 6.22999 67.38 4.53999 66.25C3.68999 65.68 2.87004 65.07 2.09004 64.39C1.67004 64.02 1.25004 63.64 0.900039 63.19C0.310039 62.43 0.459985 61.3 1.21999 60.71C1.98998 60.12 3.11003 60.27 3.70003 61.03C3.71003 61.05 3.72 61.06 3.74 61.07C3.93 61.27 4.13004 61.46 4.34004 61.66C5.01004 62.23 5.72002 62.76 6.44002 63.27C7.20002 63.77 7.97999 64.23 8.78999 64.66C9.52999 65.03 10.28 65.36 11.06 65.64C11.7 65.85 12.35 66.03 13.01 66.18C13.6 66.29 14.18 66.36 14.77 66.41C15.37 66.44 15.97 66.45 16.58 66.42C17.23 66.37 17.87 66.28 18.5 66.16C19.21 66.01 19.9 65.82 20.59 65.6C21.24 65.37 21.87 65.1 22.49 64.8C22.63 64.73 22.77 64.65 22.91 64.57C20.3 62.75 18.27 60.07 17.14 57.07C16.26 54.75 15.94 52.22 16.12 49.75C16.3 47.33 17.25 45.01 18.73 43.1C20.05 41.4 21.99 40 24.22 40.02C26.6 40.04 28.17 42.09 29.37 43.88C30.77 45.99 32.11 48.27 32.65 50.76C33.21 53.34 32.83 55.99 32.04 58.48C31.47 60.28 30.62 61.97 29.5 63.47C30 63.55 30.5 63.61 31.01 63.65C31.55 63.68 32.09 63.68 32.63 63.66C33.26 63.61 33.87 63.53 34.49 63.41C35.16 63.27 35.81 63.08 36.45 62.86C37.04 62.65 37.61 62.4 38.17 62.13C38.7 61.86 39.21 61.56 39.71 61.24C40.05 61 40.38 60.75 40.7 60.48C41.01 60.19 41.3 59.9 41.58 59.59C41.87 59.24 42.15 58.89 42.42 58.52C42.97 57.68 43.44 56.8 43.9 55.91C44.91 53.86 45.79 51.75 46.73 49.66C47.64 47.64 48.52 45.61 49.26 43.52C49.24 43.59 49.21 43.66 49.19 43.74C49.55 42.72 49.86 41.69 50.14 40.65C49.45 40.49 48.77 40.26 48.13 40.01C47.14 39.62 46.21 39.08 45.33 38.49C44.61 38 43.99 37.4 43.38 36.78C42.68 36.06 42 35.32 41.33 34.57C40.73 33.9 40.19 33.19 39.72 32.42C39.1 31.4 38.7 30.25 38.47 29.09C38.24 27.91 38.19 26.74 38.34 25.55C38.5 24.3 38.93 23.09 39.45 21.96C40.34 20.07 41.86 18.1 43.97 17.52C44.96 17.25 45.94 17.25 46.94 17.43C48.1 17.64 49.28 18.06 50.23 18.78C52.22 20.29 53.18 22.68 53.94 24.98C54.79 27.54 54.96 30.2 54.83 32.88C54.78 34.11 54.67 35.33 54.52 36.55C54.62 36.47 54.72 36.39 54.82 36.3C55.19 35.96 55.54 35.6 55.88 35.23C56.74 34.23 57.5 33.16 58.26 32.08C58.9 31.08 59.53 30.09 60.13 29.07C60.74 28.03 61.31 26.96 61.88 25.89C62.6 24.42 63.29 22.94 63.97 21.45C64.69 19.86 65.35 18.24 66.03 16.63C66.67 15.11 67.37 13.61 68.01 12.08C68.67 10.49 69.3 8.89999 69.89 7.27999C69.96 7.07999 70.03 6.87998 70.09 6.67998C69.27 6.78998 68.46 6.88 67.64 6.98C66.51 7.11 65.38 7.24999 64.25 7.37999C63.71 7.43999 63.18 7.49999 62.65 7.55999C62.37 7.58999 62.09 7.61998 61.81 7.64998C61.47 7.68998 61.11 7.77998 60.76 7.76998C59.97 7.72998 59.27 7.25999 59.05 6.46999C58.84 5.71999 59.17 4.84999 59.86 4.46999C60.44 4.15999 61.06 3.91998 61.67 3.64998C62.26 3.39998 62.85 3.14 63.45 2.92C64.88 2.4 66.31 1.93998 67.77 1.51998C68.43 1.32998 69.09 1.16 69.75 0.979999C70.42 0.799999 71.09 0.649996 71.78 0.539996C72.52 0.429996 73.35 0.429987 74.03 0.779987C74.47 1.00999 74.83 1.35999 75.01 1.80999C75.05 1.81999 75.1 1.82999 75.14 1.84999C75.52 1.96999 75.82 2.16999 76.07 2.46999C76.37 2.84999 76.53 3.25998 76.69 3.70998C77.08 4.84998 77.3 6.07999 77.57 7.24999C77.91 8.68999 78.24 10.13 78.56 11.57C78.76 12.49 79 13.4 79.17 14.33C79.33 15.2 79.48 16.06 79.64 16.92C79.94 18.6 80 20.32 80.25 22.01C80.75 22.7 80.69 23.69 80.07 24.3C79.39 24.98 78.25 24.98 77.57 24.3C77.17 23.9 76.9 23.43 76.8 22.86C76.7 22.28 76.65 21.7 76.59 21.11C76.51 20.41 76.44 19.72 76.34 19.03C76.26 18.38 76.18 17.73 76.07 17.08C75.94 16.35 75.81 15.63 75.68 14.9C75.32 13.31 74.98 11.73 74.61 10.15C74.45 9.43998 74.28 8.72 74.11 8.01C74 7.55 73.9 7.08998 73.8 6.61998C73.46 7.66998 73.12 8.71998 72.73 9.73998C72.02 11.6 71.26 13.42 70.46 15.24C69.71 16.94 68.99 18.65 68.26 20.36C67.52 22.08 66.79 23.82 65.97 25.51C65.09 27.3 64.19 29.08 63.18 30.81C62.66 31.7 62.12 32.57 61.56 33.44C61.04 34.24 60.49 35.01 59.94 35.78C59.28 36.71 58.51 37.6 57.7 38.41C56.82 39.3 55.79 40.03 54.61 40.48C54.33 40.59 54.05 40.67 53.76 40.73C53.75 40.77 53.74 40.8 53.74 40.83C53.19 43.15 52.4 45.45 51.45 47.64C50.62 49.56 49.78 51.47 48.93 53.38C48.22 54.98 47.52 56.6 46.7 58.15C46.12 59.24 45.5 60.3 44.74 61.27C43.95 62.28 43.02 63.16 41.98 63.91C39.95 65.36 37.53 66.35 35.09 66.82C32.55 67.31 29.97 67.2 27.47 66.57C27.18 66.5 26.9 66.41 26.61 66.32C25.2 67.38 23.59 68.2 21.94 68.79C20.14 69.44 18.25 69.79 16.33 69.88C16.1 69.89 15.88 69.9 15.65 69.9C13.71 70 11.79 69.62 9.96999 69ZM23.84 43.58C23.74 43.6 23.64 43.63 23.54 43.66C23.45 43.7 23.36 43.73 23.27 43.77C23.09 43.87 22.91 43.98 22.73 44.09C22.63 44.16 22.53 44.24 22.43 44.32C22.21 44.52 22 44.72 21.81 44.94C21.55 45.24 21.31 45.56 21.08 45.89C20.9 46.17 20.74 46.45 20.58 46.74C20.41 47.1 20.26 47.45 20.12 47.83C20 48.22 19.89 48.62 19.8 49.03C19.72 49.49 19.66 49.95 19.62 50.42C19.6 50.94 19.6 51.46 19.64 51.98C19.69 52.63 19.78 53.27 19.91 53.9C20.03 54.44 20.18 54.98 20.35 55.51C20.54 56.04 20.76 56.56 21.01 57.06C21.25 57.51 21.51 57.95 21.78 58.38C22.15 58.91 22.54 59.42 22.96 59.91C23.26 60.24 23.57 60.55 23.9 60.86C24.28 61.18 24.67 61.49 25.07 61.77C25.35 61.95 25.63 62.11 25.91 62.27C25.99 62.19 26.06 62.11 26.14 62.03C26.42 61.71 26.68 61.38 26.93 61.03C27.25 60.55 27.54 60.05 27.8 59.54C28.09 58.93 28.36 58.31 28.59 57.68C28.8 57.03 28.98 56.38 29.13 55.71C29.24 55.12 29.33 54.53 29.38 53.93C29.4 53.52 29.4 53.11 29.38 52.7C29.34 52.32 29.29 51.94 29.22 51.56C29.15 51.23 29.06 50.91 28.96 50.59C28.73 49.95 28.45 49.33 28.15 48.72C27.62 47.72 27.03 46.74 26.41 45.8C26.09 45.33 25.76 44.87 25.4 44.43C25.23 44.24 25.06 44.07 24.88 43.89C24.82 43.84 24.76 43.8 24.7 43.76C24.62 43.71 24.55 43.66 24.47 43.62C24.45 43.61 24.43 43.6 24.41 43.6C24.37 43.59 24.33 43.58 24.29 43.57C24.25 43.56 24.22 43.56 24.18 43.55C24.12 43.55 24.06 43.55 24 43.55C23.95 43.57 23.89 43.57 23.84 43.58ZM45.33 20.87C45.26 20.88 45.19 20.89 45.12 20.9C45.05 20.92 44.98 20.94 44.91 20.96C44.82 20.99 44.73 21.03 44.64 21.07C44.57 21.11 44.5 21.15 44.43 21.19C44.3 21.28 44.17 21.39 44.04 21.49C43.9 21.63 43.76 21.77 43.63 21.92C43.5 22.08 43.38 22.24 43.26 22.4C43.09 22.67 42.93 22.94 42.78 23.21C42.57 23.64 42.38 24.08 42.21 24.53C42.1 24.87 42 25.21 41.92 25.56C41.86 25.89 41.81 26.21 41.78 26.54C41.77 26.86 41.77 27.17 41.79 27.49C41.83 27.81 41.87 28.13 41.93 28.45C42.01 28.79 42.1 29.12 42.2 29.45C42.3 29.72 42.41 29.98 42.53 30.24C42.68 30.51 42.83 30.78 43 31.04C43.24 31.38 43.5 31.72 43.77 32.04C44.72 33.11 45.68 34.19 46.75 35.15C47.02 35.37 47.3 35.58 47.59 35.78C47.93 36 48.28 36.2 48.63 36.39C49.04 36.59 49.46 36.77 49.88 36.93C50.2 37.04 50.52 37.13 50.84 37.22C51.02 36.06 51.15 34.89 51.23 33.72C51.31 32.42 51.35 31.11 51.28 29.8C51.23 29.12 51.13 28.46 51 27.79C50.83 27.05 50.63 26.32 50.39 25.6C50.16 24.94 49.9 24.29 49.6 23.66C49.41 23.28 49.2 22.92 48.97 22.56C48.89 22.44 48.79 22.33 48.7 22.21C48.73 22.24 48.76 22.28 48.79 22.31C48.76 22.27 48.73 22.24 48.7 22.2C48.69 22.2 48.68 22.19 48.68 22.18C48.57 22.07 48.47 21.95 48.35 21.84C48.27 21.78 48.2 21.72 48.12 21.66C47.96 21.55 47.79 21.45 47.62 21.36C47.5 21.3 47.38 21.25 47.25 21.2C46.95 21.1 46.66 21.02 46.36 20.95C46.16 20.91 45.97 20.89 45.76 20.86C45.7 20.86 45.64 20.86 45.58 20.86C45.5 20.86 45.41 20.86 45.33 20.87Z"
    fill="rgba(191, 192, 191, 1)" />
</svg>