<svg width="72" height="90" viewBox="0 0 72 90" fill="none" xmlns="http://www.w3.org/2000/svg">
      <path fill-rule="evenodd" clip-rule="evenodd"
            d="M52.1634 0.734116C55.2566 1.10779 58.1505 2.85161 61.8914 6.60912C66.8696 11.6081 70.1663 17.7862 71.5572 24.7116C71.8479 26.1814 71.9309 27.1114 71.9807 30.0012C72.0513 33.2688 71.9392 34.6182 71.4576 36.2582C71.0756 37.5868 70.5898 38.4047 69.6847 39.2725C68.4765 40.4309 67.8993 40.6136 68.4349 39.6669C68.709 39.1729 69.0785 37.6325 69.3733 35.7973C69.6266 34.1532 69.6349 29.1334 69.3733 27.3606C68.8294 23.5615 67.8827 20.3272 66.1763 16.5447C64.4324 12.6336 62.045 9.52794 58.0841 6.00293C57.3201 5.31786 56.3112 4.51239 55.8586 4.19684C51.6568 1.40673 46.7865 1.46486 42.8588 4.37953C38.686 7.48518 35.4724 13.9954 33.5376 23.246C33.2968 24.4044 32.9231 26.4928 32.9231 26.6838C32.9231 26.7544 33.2469 27.0284 33.6497 27.29C35.4724 28.4691 37.6314 30.4164 38.8895 32.019C42.3066 36.3744 44.1999 41.6225 44.6026 47.8919C44.8434 51.5706 44.0587 54.2818 42.2235 56.117C41.0859 57.2546 40.2887 57.62 39.0182 57.5494C38.2833 57.5079 38.0715 57.458 37.4072 57.1176C36.4689 56.6443 35.2191 55.4942 34.4137 54.3773C32.5785 51.828 31.4907 48.3487 31.1087 43.8064C30.9592 42.0626 31.0381 32.92 31.2083 31.1679C31.2789 30.5326 31.3412 29.6981 31.3412 29.312L31.362 28.6061L30.6063 28.1619C23.5023 23.9186 19.1759 28.0415 18.6112 39.5714C18.5116 41.6267 18.6112 45.3385 18.7815 45.4797C18.823 45.5087 19.2548 45.8409 19.7281 46.2146C21.4927 47.5639 23.0455 49.5112 24.0337 51.6287C24.6482 52.92 24.9098 53.6756 25.2212 55.0541C25.6364 56.8892 25.4828 58.0974 24.6773 59.3472C23.9631 60.4474 22.5224 61.6058 21.8664 61.6058C21.3931 61.6058 20.8284 61.0495 20.1724 59.9534C18.6403 57.3542 17.6438 53.9372 17.0169 49.2081C16.9463 48.6642 16.938 48.6518 16.2405 48.1701C15.846 47.8961 15.0322 47.4352 14.426 47.1404C11.1792 45.5669 8.24791 45.3883 6.35461 46.6464C5.93941 46.9204 5.71936 47.182 5.34568 47.8172C4.03366 50.0427 3.03718 53.0196 2.56385 56.063C2.36041 57.4041 2.39362 61.9089 2.61367 63.1171C3.63091 68.5811 5.93941 74.0534 9.10321 78.5084C9.95022 79.7083 10.6561 80.5844 10.7059 80.5263C10.7349 80.4972 10.6768 80.0529 10.5855 79.5381C10.3447 78.2468 10.3239 75.8097 10.5564 75.3156C10.7682 74.8506 12.238 73.2977 12.6947 73.0486C13.2095 72.7746 13.3299 72.8784 13.4088 73.6216C13.4379 73.9745 13.5583 74.5807 13.6704 74.9627C13.9029 75.7598 13.9237 76.2207 13.7617 76.6774C13.6621 76.939 13.6912 77.1922 13.9237 78.2012C14.2475 79.6004 14.862 81.4355 15.3063 82.3116C15.4682 82.6438 15.8626 83.2998 16.1533 83.7523C16.5768 84.3959 16.7802 84.5993 17.0501 84.6907C17.5359 84.8526 17.9054 85.1764 17.9054 85.438C17.9054 86.0027 16.2239 87.9292 14.9409 88.8343C14.2641 89.3201 13.9444 89.428 13.824 89.2371C13.7534 89.1042 13.1472 88.8343 9.63051 87.3105C6.45425 85.9279 4.48207 85.0311 3.36104 84.4291C2.72579 84.0969 2.67596 84.0471 2.73409 83.8022C2.83373 83.3994 3.3984 82.6936 4.33674 81.7968C5.34567 80.821 5.89789 80.4972 6.30063 80.6384C6.56221 80.7297 6.50407 80.6093 5.67368 79.2558C2.75069 74.5184 0.915518 69.8018 0.188923 65.135C-0.0643478 63.4908 -0.0643397 59.6918 0.197235 58.0808C0.94459 53.385 2.78806 49.1915 5.25848 46.6007C6.3463 45.4631 7.23483 44.7946 8.43475 44.2341C9.84642 43.5781 10.5398 43.4286 12.1549 43.4286C13.6164 43.4286 14.5631 43.6113 15.9249 44.1137C16.7428 44.4251 16.7221 44.4251 16.6515 44.1926C16.5519 43.9019 16.7719 39.2642 16.9421 37.9729C17.5276 33.5387 18.9766 30.2711 21.4678 27.7841C23.2116 26.0485 24.8434 25.1725 26.7782 24.9234C28.1691 24.7531 29.8216 25.0936 31.171 25.8285C31.4824 25.9904 31.7564 26.1191 31.7647 26.1025C31.7855 26.0942 31.9349 25.3469 32.1093 24.4708C33.1764 18.9985 34.8621 14.3193 37.1498 10.4621C39.5704 6.40983 42.099 3.78164 45.1341 2.1956C47.4218 1.00814 49.9711 0.472539 52.1675 0.742416L52.1634 0.734116ZM32.4705 30.4247C32.0387 36.3329 31.9349 39.3431 32.0969 41.8965C32.4083 46.7626 33.2262 49.7188 35.0115 52.43C36.4315 54.5849 38.4867 55.9592 40.3012 55.9592C41.418 55.9592 41.7211 55.8388 41.9121 55.3239C42.456 53.8541 42.6263 52.5712 42.5557 50.3748C42.4934 48.3404 42.2318 46.6754 41.4886 43.7109C40.8243 41.0412 40.3178 39.6088 39.3628 37.6615C37.8307 34.5351 35.9167 32.1062 33.4462 30.1424C33.031 29.8102 32.6615 29.5486 32.62 29.5486C32.5702 29.5486 32.5079 29.9431 32.4705 30.4247ZM19.9108 52.6501C20.434 54.614 21.09 56.1087 21.9162 57.267C22.5224 58.1348 22.5515 57.9106 22.0283 56.3412C21.4636 54.6389 19.9316 51.5747 19.7406 51.7657C19.7115 51.7948 19.7904 52.1892 19.9108 52.6542V52.6501Z"
            fill="rgba(191, 192, 191, 1)" />
</svg>