<svg width="72" height="82" viewBox="0 0 72 82" fill="none" xmlns="http://www.w3.org/2000/svg">
  <path
    d="M37.1 81.1C36.58 81.04 36.0601 80.96 35.5401 80.88C34.6201 80.75 33.7001 80.61 32.7801 80.47C31.1101 80.21 29.4901 79.76 27.9001 79.18C26.1701 78.54 24.44 77.89 22.7 77.27C21.36 76.86 20.0001 76.47 18.6601 76.01C18.7301 76.04 18.81 76.06 18.88 76.09C18.47 75.95 18.0601 75.8 17.6501 75.66C17.5401 75.62 17.44 75.58 17.34 75.54C17.2 75.51 17.0601 75.46 16.9301 75.4C16.5101 75.22 16.0901 75.04 15.6701 74.86C14.3701 74.3 13.1301 73.57 11.9201 72.86C11.3101 72.5 10.7201 72.13 10.1501 71.73C9.51006 71.26 8.85999 70.77 8.19999 70.32C7.96999 70.18 7.74004 70.04 7.50004 69.92C7.05004 69.72 6.60005 69.56 6.14005 69.4C5.56005 69.19 5.02004 68.93 4.50004 68.6C4.12004 68.36 3.78998 68.09 3.43998 67.83C3.34998 67.8 3.26008 67.78 3.17008 67.76C2.79008 67.66 2.44001 67.51 2.10001 67.32C1.87001 67.19 1.67007 67 1.53007 66.79C1.24007 66.65 0.980068 66.42 0.780068 66.11C0.220068 65.22 0.600053 64.21 0.890053 63.3C1.11005 62.6 1.39009 61.92 1.68009 61.26C2.11009 60.28 2.50004 59.27 3.00004 58.32C3.84004 56.69 4.65999 55.04 5.56998 53.44C6.55999 51.71 7.55002 49.98 8.61002 48.28C10.41 45.38 12.22 42.49 14.25 39.74C17.8 34.95 22 30.54 26.86 27.07C27.93 26.3 29 25.54 30.09 24.8C31.13 24.1 32.16 23.41 33.19 22.72C33.76 22.33 34.3301 21.93 34.8901 21.53C34.5601 21.33 34.2301 21.13 33.9001 20.93C33.1201 20.45 32.35 19.94 31.6 19.41C30.75 18.82 29.94 18.2 29.13 17.57C28.76 17.28 28.4101 16.95 28.0501 16.65C27.2901 16 26.53 15.38 25.71 14.81C23.95 13.67 22.04 12.81 20.19 11.84C19.43 11.44 18.7 11.02 17.99 10.54C17.59 10.27 17.1501 9.93999 16.9001 9.51999C16.4701 8.78999 16.5201 7.90999 17.0401 7.23999C17.5601 6.56999 18.4901 6.25 19.3001 6.12C20.0901 5.99 20.89 5.93999 21.69 5.91999C22.5 5.90999 23.3201 5.89999 24.1401 5.88999C25.8701 5.86999 27.5901 5.80999 29.3101 5.74999C31.1901 5.57999 33.0601 5.42 34.9201 5.19C35.7801 5.08 36.6501 5 37.5201 4.86C38.7601 4.66 40 4.46999 41.24 4.27999C44.8 3.71999 48.32 2.91999 51.86 2.24999C53.27 1.97999 54.67 1.69999 56.08 1.48999C56.8 1.37999 57.52 1.27999 58.24 1.16999C58.96 1.05999 59.7001 1.02999 60.4301 0.959994C61.7501 0.829994 63.0801 0.839991 64.4001 0.839991C64.8901 0.839991 65.38 0.839995 65.87 0.859995C66.38 0.879995 66.86 1.02 67.24 1.4C67.66 1.81 67.77 2.32 67.75 2.87C67.75 2.87 67.75 2.87 67.75 2.86C67.68 4.48 67.7 6.11999 67.69 7.74999C67.68 9.62 67.71 11.49 67.75 13.36C67.75 13.35 67.75 13.34 67.75 13.33C67.75 13.34 67.75 13.34 67.75 13.35C67.75 13.33 67.75 13.32 67.75 13.3C67.75 13.3 67.75 13.3 67.75 13.29C67.75 13.29 67.75 13.28 67.75 13.27C67.75 13.23 67.74 13.19 67.74 13.15C67.75 13.26 67.76 13.37 67.76 13.48C67.76 13.47 67.76 13.47 67.76 13.46C67.76 13.5 67.7701 13.55 67.7701 13.59C67.8401 14.68 67.92 15.77 67.99 16.87C67.99 16.85 67.99 16.83 67.99 16.82C67.99 16.86 67.99 16.89 68 16.93C68.07 17.92 68.1901 18.91 68.2901 19.91C68.3701 20.72 68.4601 21.53 68.5501 22.34C68.7701 24.32 69 26.29 69.24 28.27C69.72 32.15 70.44 35.99 71.01 39.85C71.14 40.74 71.28 41.62 71.45 42.5C71.52 42.84 71.61 43.17 71.63 43.51C71.66 43.99 71.5801 44.44 71.2701 44.83C71.0001 45.19 70.56 45.46 70.11 45.51C69.65 45.55 69.27 45.51 68.84 45.3C68.43 45.09 68.08 44.78 67.72 44.48C67.14 44.01 66.56 43.55 65.95 43.12C65.33 42.71 64.68 42.34 64.01 42C61.93 40.98 59.7301 40.19 57.5601 39.39C56.7001 39.11 55.84 38.84 54.96 38.6C54.44 38.46 53.9201 38.31 53.4101 38.16C52.9801 38.03 52.56 37.88 52.12 37.77C52.1 37.78 52.08 37.8 52.07 37.81C51.99 37.89 51.91 37.97 51.83 38.06C51.54 38.4 51.2901 38.76 51.0401 39.12C50.0801 40.58 49.22 42.13 48.38 43.67C47.66 44.97 46.9701 46.29 46.2701 47.61C46.0401 48.07 45.82 48.52 45.59 48.98C45.38 49.4 45.15 49.81 44.97 50.24C44.43 51.51 43.8701 52.78 43.4101 54.08C42.9701 55.38 42.61 56.69 42.33 58.03C42.06 59.42 41.8801 60.83 41.7801 62.24C41.6101 65.19 41.72 68.14 41.84 71.1C41.9 71.92 41.9501 72.73 42.0401 73.55C42.1301 74.46 42.24 75.37 42.34 76.27C42.44 77.17 42.46 78.08 42.21 78.96C41.94 79.91 41.17 80.62 40.26 80.97C39.72 81.17 39.15 81.24 38.58 81.24C38.1 81.21 37.59 81.16 37.1 81.1ZM24.94 74.31C26.56 74.88 28.15 75.51 29.76 76.1C30.6 76.37 31.4301 76.61 32.2901 76.79C33.1801 76.96 34.08 77.1 34.98 77.23C36.02 77.38 37.05 77.54 38.09 77.65C38.32 77.66 38.5401 77.67 38.7701 77.67C38.8101 77.67 38.84 77.66 38.88 77.66C38.88 77.48 38.88 77.3 38.88 77.12C38.81 76.19 38.67 75.26 38.58 74.33C38.48 73.35 38.41 72.36 38.34 71.37C38.27 70.44 38.24 69.51 38.22 68.58C38.2 67.63 38.1601 66.67 38.1701 65.72C38.1901 64.1 38.22 62.49 38.36 60.88C38.59 58.22 39.1801 55.61 40.0401 53.09C40.4901 51.76 41.05 50.49 41.6 49.2C41.98 48.3 42.44 47.44 42.88 46.57C43.76 44.8 44.7101 43.07 45.6601 41.34C46.1101 40.54 46.5701 39.75 47.0301 38.95C47.5501 38.04 48.12 37.16 48.73 36.32C49.4 35.4 50.33 34.49 51.49 34.28C52.28 34.14 52.98 34.33 53.72 34.57C54.17 34.71 54.63 34.84 55.09 34.97C55.97 35.22 56.86 35.45 57.74 35.74C59.63 36.36 61.49 37.07 63.33 37.82C64.76 38.4 66.15 39.07 67.46 39.88C67.38 39.33 67.3 38.77 67.21 38.22C66.9 36.21 66.57 34.2 66.25 32.19C65.96 30.31 65.73 28.43 65.5 26.54C65.29 24.77 65.0701 22.99 64.9001 21.22C64.7701 19.86 64.6 18.5 64.51 17.14V17.15C64.51 17.1 64.51 17.04 64.5 16.98C64.5 17 64.5 17.01 64.5 17.03C64.5 16.98 64.5 16.92 64.49 16.87C64.49 16.84 64.49 16.82 64.48 16.8C64.41 15.78 64.3401 14.77 64.2701 13.76C64.2701 13.76 64.2701 13.76 64.2701 13.77C64.2701 13.73 64.2701 13.7 64.2701 13.67C64.2701 13.68 64.2701 13.69 64.2701 13.71C64.2701 13.67 64.27 13.63 64.26 13.59V13.6C64.26 13.57 64.26 13.54 64.25 13.51C64.2 12.58 64.21 11.63 64.19 10.7C64.17 9.77999 64.18 8.85999 64.19 7.94999C64.19 7.03999 64.2 6.11999 64.21 5.19999C64.21 4.93999 64.21 4.68 64.21 4.41C64.01 4.41 63.82 4.41999 63.62 4.41999C62.71 4.41999 61.8001 4.46 60.8901 4.51C59.0801 4.69 57.27 4.88 55.47 5.22C53.43 5.6 51.4 5.98999 49.38 6.38999C47.35 6.79999 45.3201 7.17999 43.2901 7.55999C41.4801 7.89999 39.66 8.15 37.84 8.44C36.43 8.66 35 8.78999 33.59 8.95999C32.97 9.03999 32.34 9.06999 31.71 9.12999C30.96 9.18999 30.21 9.28999 29.46 9.31999C28.13 9.36999 26.8 9.44999 25.47 9.45999C24.73 9.45999 23.99 9.46 23.25 9.47C24.44 10.08 25.6401 10.67 26.8001 11.35C27.9601 12.03 29.0201 12.85 30.0401 13.73C30.4801 14.11 30.91 14.5 31.36 14.85C31.84 15.23 32.3001 15.62 32.7901 15.97C33.2301 16.28 33.68 16.58 34.12 16.89C34.93 17.43 35.73 17.96 36.57 18.46C37.04 18.74 37.5 19.02 37.97 19.3C38.38 19.55 38.76 19.83 39.08 20.19C39.11 20.22 39.1301 20.24 39.1601 20.28C39.7601 20.81 39.9801 21.71 39.5301 22.49C39.3601 22.78 39.1001 23.02 38.8001 23.17C38.7801 23.19 38.76 23.2 38.74 23.21C37.51 24.05 36.3101 24.94 35.0601 25.78C33.7601 26.65 32.4501 27.53 31.1401 28.4C30.4401 28.9 29.7401 29.4 29.0401 29.91C27.8301 30.77 26.6701 31.7 25.5401 32.68C23.7401 34.26 22.04 35.94 20.45 37.73C20.5 37.67 20.55 37.62 20.6 37.56C18.63 39.81 16.81 42.19 15.13 44.67C15.17 44.61 15.22 44.55 15.26 44.48C14.14 46.14 13.0901 47.82 12.0401 49.52C11.4201 50.52 10.79 51.52 10.2 52.54C9.72999 53.36 9.26008 54.18 8.79008 55C8.55008 55.43 8.2901 55.84 8.0601 56.28C7.4301 57.51 6.79007 58.73 6.16007 59.96C5.53007 61.36 4.87 62.76 4.34 64.2C4.32 64.27 4.29006 64.34 4.27006 64.41C4.70006 64.53 5.13002 64.68 5.48002 64.96C5.69002 65.14 5.91004 65.3 6.13004 65.46C6.36004 65.61 6.59 65.76 6.84 65.89C7.22 66.06 7.61005 66.19 8.01005 66.34C8.74005 66.6 9.43001 66.94 10.09 67.36C10.86 67.84 11.58 68.42 12.32 68.95C13.84 69.93 15.39 70.8 17 71.62C16.93 71.58 16.8601 71.55 16.8001 71.51C17.2801 71.72 17.75 71.96 18.24 72.14C18.26 72.15 18.2801 72.15 18.3001 72.16C18.3701 72.18 18.44 72.2 18.5 72.23C18.96 72.39 19.4301 72.55 19.8901 72.71C19.8801 72.71 19.87 72.7 19.85 72.7C21.56 73.2 23.26 73.71 24.94 74.31Z"
    fill="rgba(191, 192, 191, 1)" />
</svg>