<svg width="76" height="73" viewBox="0 0 76 73" fill="none" xmlns="http://www.w3.org/2000/svg">
  <path
    d="M24.38 72.23C21.81 72.06 19.28 71.6 16.86 70.69C14.5 69.81 12.2201 68.46 10.3401 66.78C8.48005 65.11 6.93002 63.08 5.68002 60.91C4.39002 58.67 3.50002 56.18 2.75002 53.72C1.94002 51.06 1.43 48.28 1.1 45.52C0.77 42.78 0.770032 40.03 1.07003 37.29C1.67003 31.85 3.70005 26.63 6.34005 21.86C8.45005 18.06 11.12 14.57 14.07 11.38C15.5 9.83001 17.02 8.37002 18.63 7.01002C20.25 5.62002 22.05 4.38 23.97 3.43C25.31 2.77 26.71 2.29001 28.14 1.88001C29.58 1.47001 31.02 1.09 32.49 0.840002C33.06 0.740002 33.63 0.68002 34.21 0.64002C34.69 0.61002 35.17 0.580011 35.65 0.630011C36.4 0.720011 37.17 0.870015 37.66 1.51002C38.07 2.03002 38.17 2.81 37.92 3.43C39.57 3.16 41.22 2.91003 42.89 2.77003C44.24 2.66003 45.59 2.60998 46.95 2.65998C48.33 2.71998 49.7 2.87999 51.06 3.10999C53.6 3.54999 56.12 4.31 58.47 5.37C60.77 6.4 62.9 7.82002 64.83 9.45002C66.78 11.09 68.46 13.03 69.94 15.1C71.49 17.26 72.74 19.61 73.72 22.08C74.18 23.26 74.5601 24.47 74.84 25.7C75.1401 27 75.28 28.32 75.33 29.66C75.43 32.29 74.95 34.91 74.07 37.39C73.16 39.94 71.93 42.34 70.49 44.63C69.06 46.89 67.49 49.06 65.79 51.13C62.39 55.28 58.56 59.07 54.33 62.37C50.13 65.65 45.4 68.16 40.36 69.88C37.8 70.76 35.15 71.36 32.48 71.79C30.51 72.11 28.5201 72.29 26.5301 72.29C25.8201 72.3 25.1 72.28 24.38 72.23ZM18.65 67.58C19.42 67.84 20.2 68.05 20.99 68.23C22.17 68.46 23.37 68.61 24.57 68.7C25.92 68.78 27.27 68.79 28.62 68.7C28.54 68.71 28.46 68.71 28.38 68.72C30.32 68.58 32.24 68.29 34.14 67.92C36.04 67.52 37.91 67 39.75 66.37C39.68 66.4 39.6001 66.42 39.5301 66.45C41.3301 65.82 43.08 65.09 44.8 64.24C46.49 63.38 48.14 62.43 49.72 61.38C49.66 61.42 49.6001 61.46 49.5301 61.5C51.6001 60.1 53.54 58.54 55.42 56.89C57.57 54.97 59.58 52.92 61.48 50.77C61.43 50.83 61.38 50.88 61.33 50.94C63.19 48.82 64.93 46.62 66.51 44.28C67.56 42.72 68.55 41.12 69.4 39.44C69.36 39.51 69.33 39.58 69.29 39.64C69.84 38.52 70.33 37.37 70.75 36.19C71.05 35.3 71.31 34.41 71.5 33.5C71.62 32.81 71.71 32.12 71.77 31.43C71.81 30.64 71.81 29.86 71.77 29.07C71.71 28.32 71.62 27.57 71.48 26.83C71.3 25.98 71.06 25.15 70.79 24.33C70.79 24.34 70.8 24.35 70.8 24.36C70.8 24.34 70.7901 24.33 70.7801 24.32C70.7701 24.3 70.76 24.27 70.76 24.25C70.35 23.11 69.88 22 69.35 20.92C68.77 19.79 68.12 18.7 67.41 17.63C66.66 16.56 65.87 15.53 65 14.54C65.05 14.59 65.1 14.65 65.15 14.71C64.42 13.89 63.65 13.12 62.83 12.38C61.99 11.66 61.12 10.99 60.19 10.36C60.25 10.4 60.31 10.45 60.38 10.49C59.53 9.92 58.65 9.4 57.74 8.93C56.77 8.45 55.76 8.04 54.74 7.68C54.81 7.71 54.88 7.73002 54.96 7.76002C53.7 7.33002 52.42 6.98003 51.12 6.71003C49.88 6.47003 48.64 6.31003 47.38 6.21003C46.22 6.14003 45.06 6.15998 43.9 6.21998C42.46 6.31998 41.04 6.47998 39.61 6.71998C38.12 6.97998 36.62 7.22003 35.13 7.46003C34.18 7.61003 33.26 6.88001 33.14 5.94001C33.04 5.21001 33.41 4.54 34 4.18C33.39 4.25 32.77 4.34998 32.16 4.46998C30.52 4.82998 28.8701 5.27001 27.2801 5.82001C26.6701 6.05001 26.07 6.31003 25.49 6.59003C24.62 7.05003 23.78 7.54999 22.95 8.10999C22.08 8.71999 21.25 9.38002 20.44 10.08C18.68 11.63 17.04 13.29 15.49 15.05C15.54 14.99 15.59 14.94 15.64 14.88C14.1 16.65 12.6601 18.5 11.3401 20.43C10.2801 22.02 9.32005 23.68 8.46005 25.39C8.50005 25.32 8.53002 25.25 8.56002 25.18C7.69002 26.91 6.93004 28.7 6.27004 30.52C5.77004 31.97 5.34005 33.43 5.03005 34.92C4.74005 36.36 4.55003 37.81 4.44003 39.27C4.37003 40.58 4.37003 41.88 4.44003 43.19C4.43003 43.11 4.43001 43.03 4.42001 42.95C4.56001 45.05 4.87005 47.14 5.28005 49.21C5.64005 50.94 6.10002 52.65 6.68002 54.32C6.65002 54.25 6.63 54.17 6.6 54.1C7.12 55.57 7.69003 57.03 8.38003 58.42C8.77003 59.17 9.20001 59.88 9.67001 60.59C10.2 61.34 10.76 62.07 11.37 62.77C11.83 63.27 12.3 63.75 12.8 64.2C13.3 64.62 13.8101 65.01 14.3401 65.38C15.0001 65.82 15.69 66.22 16.4 66.59C16.33 66.55 16.26 66.52 16.19 66.49C17 66.92 17.81 67.28 18.65 67.58Z"
    fill="rgba(191, 192, 191, 1)" />
  <path
    d="M17.63 54.07C16.72 53.82 16.11 52.82 16.39 51.89C16.55 51.38 16.91 51.0499 17.25 50.6599C17.55 50.3199 17.85 49.98 18.15 49.65C19.29 48.25 20.43 46.85 21.54 45.42C22.74 43.87 23.92 42.32 25.09 40.76C26.7101 38.59 28.32 36.41 29.98 34.27C29.86 34.15 29.73 34.02 29.61 33.9C27.75 32.01 26.01 30 24.27 27.99C23.89 27.54 23.5 27.1 23.13 26.64C22.5 25.87 22.01 24.73 22.56 23.78C22.94 23.13 23.6201 22.8699 24.2801 22.5999C24.6901 22.4199 25.1 22.25 25.51 22.07C28.07 20.96 30.56 19.67 33.2 18.75C34.52 18.29 35.85 17.96 37.22 17.74C38.18 17.58 39.16 17.53 40.13 17.45C41.33 17.34 42.52 17.15 43.71 17.07C43.7 17.07 43.69 17.07 43.67 17.07C43.73 17.07 43.79 17.06 43.85 17.06H43.86C44.27 17.04 44.64 17.0399 45.04 17.1599C45.47 17.2799 45.81 17.55 46.07 17.9C46.37 18.29 46.49 18.74 46.46 19.18C46.65 19.38 46.79 19.63 46.87 19.9C47.2 21.05 47.39 22.22 47.44 23.42C47.47 24.11 47.5 24.8 47.52 25.49C47.57 26.84 47.61 28.1899 47.66 29.5399C47.78 32.5999 47.92 35.65 48.08 38.71C48.1 38.96 48.11 39.21 48.13 39.46C48.13 39.48 48.13 39.49 48.13 39.51C48.13 39.51 48.13 39.51 48.13 39.52C48.2 40.44 48.29 41.36 48.45 42.27C48.49 42.43 48.53 42.6 48.58 42.76C48.88 43.03 49.12 43.35 49.21 43.76C49.37 44.46 49.1701 45.18 48.59 45.63C48 46.08 47.26 46.09 46.62 45.75C46.39 45.63 46.18 45.47 46.01 45.29C44.41 44.33 42.71 43.5199 41.06 42.6599C37.99 41.0499 35.17 39 32.56 36.71C31.61 37.97 30.65 39.21 29.7 40.48C28.58 41.98 27.48 43.5 26.34 44.98C25.26 46.37 24.22 47.7999 23.1 49.1599C22.41 49.9999 21.7201 50.84 21.0301 51.69C20.8501 51.92 20.65 52.1399 20.46 52.3499C20.12 52.7299 19.8 53.13 19.43 53.49C19.45 53.47 19.47 53.45 19.48 53.43C19.49 53.42 19.49 53.41 19.5 53.39C19.16 53.84 18.64 54.13 18.07 54.13C17.95 54.13 17.79 54.11 17.63 54.07Z"
    fill="rgba(191, 192, 191, 1)" />
</svg>