<svg width="84" height="82" viewBox="0 0 84 82" fill="none" xmlns="http://www.w3.org/2000/svg">
  <path
    d="M1.11994 81.58C0.329941 81.12 -0.0600733 79.96 0.479927 79.16C0.519927 79.1 0.569922 79.04 0.599922 78.98C1.15992 78.14 1.73001 77.32 2.31 76.5C2.88 75.68 3.53997 74.9 4.14997 74.11C5.20997 72.74 6.3499 71.42 7.4499 70.08C9.9399 67.04 12.43 64 14.91 60.95C17.36 57.93 19.8199 54.92 22.3499 51.98C25.1399 48.73 27.9299 45.47 30.7099 42.21C32.4099 40.23 34.16 38.29 35.9 36.33C35.9 36.33 35.91 36.32 35.91 36.31C35.91 36.31 35.92 36.3 35.92 36.29C37.26 34.75 38.6199 33.22 39.9799 31.69C39.9799 31.69 39.9799 31.69 39.9699 31.7C40.6999 30.88 41.4599 30.09 42.1999 29.29C42.8599 28.58 43.51 27.88 44.17 27.18C44.97 26.34 45.7599 25.49 46.5799 24.67C46.9899 24.26 47.4099 23.84 47.8199 23.42C48.2099 23.03 48.6199 22.66 48.9899 22.25C49.1599 22.04 49.33 21.84 49.53 21.66C49.76 21.46 49.99 21.33 50.26 21.2C50.76 20.96 51.3499 21.06 51.8499 21.26C52.6499 21.59 53.1199 22.53 52.8699 23.36C52.5199 24.54 52.11 25.68 51.56 26.77C51.31 27.25 51.0699 27.74 50.8199 28.22C50.3699 29.11 49.89 29.97 49.41 30.84C48.54 32.41 47.6399 33.96 46.7399 35.51C44.8599 38.8 43.0599 42.12 41.2199 45.43C39.7799 48.03 38.37 50.66 36.88 53.25C37.45 52.57 38.0199 51.9 38.5999 51.23C39.9099 49.73 41.21 48.23 42.54 46.74C43.42 45.76 44.3099 44.78 45.1899 43.79C45.1399 43.84 45.09 43.9 45.04 43.96C47.64 40.93 50.2499 37.91 52.8199 34.85C55.3499 31.84 57.81 28.78 60.3 25.74C62.62 22.89 64.9399 20.03 67.1899 17.11C68.2299 15.75 69.2799 14.41 70.3299 13.05C69.7899 12.75 69.2399 12.47 68.6999 12.19C66.9199 11.33 65.0899 10.59 63.2399 9.90997C62.4499 9.61997 61.6599 9.32002 60.8599 9.02002C60.5499 8.90002 60.24 8.78998 59.93 8.66998C59.42 8.46998 58.85 8.30002 58.39 8.02002C57.85 7.70002 57.51 7.12999 57.51 6.48999C57.51 5.83999 57.86 5.31002 58.39 4.96002C58.77 4.71002 59.23 4.56002 59.66 4.40002C60.12 4.22002 60.58 4.06002 61.04 3.90002C61.99 3.56002 62.93 3.23999 63.89 2.92999C64.71 2.65999 65.57 2.45001 66.42 2.26001C66.97 2.15001 67.51 2.02997 68.06 1.90997C68.57 1.79997 69.0999 1.73997 69.6199 1.65997C71.5099 1.36997 73.4199 1.26002 75.3299 1.27002C75.7999 1.27002 76.2699 1.28002 76.7399 1.27002C76.9799 1.27002 77.2099 1.27002 77.4499 1.27002C77.7099 1.27002 77.9699 1.26002 78.2299 1.27002C78.5199 0.67002 79.1199 0.25 79.8199 0.25C80.7799 0.25 81.5999 1.05002 81.5899 2.02002C81.5699 4.35002 81.7299 6.69001 81.88 9.01001C82.09 11.42 82.2599 13.83 82.7199 16.21C82.8999 17.03 83.1099 17.82 83.3699 18.61C83.5799 19.16 83.81 19.68 83.91 20.28C84.02 20.98 83.65 21.7 83.05 22.05C82.35 22.46 81.48 22.32 80.91 21.77C80.16 21.06 79.41 20.35 78.65 19.65C77.65 18.71 76.67 17.75 75.66 16.84C74.91 16.19 74.1399 15.55 73.3399 14.95C73.1799 15.15 73.03 15.35 72.88 15.55C70.67 18.42 68.4699 21.29 66.1899 24.1C61.2999 30.17 56.4 36.24 51.31 42.15C50.1 43.56 48.9 44.98 47.66 46.36C46.45 47.72 45.2099 49.07 43.9999 50.43C44.0099 50.42 44.02 50.4 44.04 50.39C43.4 51.13 42.7599 51.87 42.1199 52.6C41.5099 53.3 40.87 53.99 40.28 54.71C39.08 56.19 37.8 57.63 36.64 59.14C35.48 60.63 34.32 62.11 33.17 63.6C32.5 64.47 31.83 65.34 31.16 66.21C30.45 67.13 29.6799 68.04 28.8299 68.84C28.1299 69.51 27.24 69.97 26.28 69.57C24.96 69.01 25.0499 67.46 25.4899 66.36C25.8299 65.51 26.2399 64.68 26.6899 63.88C27.5899 62.27 28.47 60.64 29.38 59.03C29.85 58.21 30.31 57.38 30.8 56.57C31.33 55.69 31.88 54.82 32.4 53.93C33.42 52.18 34.44 50.43 35.42 48.65C37.21 45.43 38.98 42.19 40.77 38.97C41.82 37.07 42.8899 35.17 43.9699 33.29C44.3299 32.67 44.68 32.06 45.03 31.45C44.19 32.34 43.37 33.24 42.54 34.15C42.56 34.13 42.5699 34.11 42.5899 34.09C41.2699 35.61 39.9299 37.12 38.5899 38.62C38.5699 38.64 38.55 38.66 38.54 38.68C38.53 38.69 38.52 38.7 38.52 38.71C38.52 38.71 38.52 38.71 38.52 38.7C37.06 40.36 35.5999 42.02 34.1199 43.66C34.1699 43.6 34.22 43.55 34.27 43.49C31.64 46.52 29.0599 49.6 26.4499 52.64C24.0999 55.38 21.7699 58.14 19.4999 60.94C17.0099 64.01 14.5099 67.07 11.9999 70.13C10.6299 71.8 9.24995 73.47 7.87995 75.15C6.66995 76.62 5.49998 78.12 4.40998 79.68C4.30998 79.82 4.20993 79.97 4.10993 80.11C3.90993 80.4 3.71997 80.69 3.51997 80.99C3.26997 81.34 2.94996 81.61 2.50996 81.73C2.35996 81.77 2.19999 81.79 2.03999 81.79C1.69999 81.82 1.38994 81.74 1.11994 81.58ZM76.52 10.77C76.18 11.24 75.8399 11.72 75.4799 12.18C76.3599 12.84 77.21 13.56 78.03 14.29C78.33 14.56 78.63 14.83 78.92 15.1C78.65 13.29 78.5099 11.45 78.3699 9.63C78.3299 9.15001 78.3 8.68001 78.27 8.20001C77.72 9.07001 77.12 9.92002 76.52 10.77ZM73.0999 4.89001C72.4199 4.94001 71.7499 5 71.0699 5.06C70.6899 5.09 70.31 5.17999 69.93 5.23999C69.56 5.28999 69.1999 5.35002 68.8299 5.40002C67.9799 5.58002 67.13 5.73997 66.3 5.96997C65.63 6.14997 64.96 6.35 64.3 6.56C65.69 7.08 67.06 7.63 68.43 8.19C69.22 8.51 69.9799 8.90998 70.7399 9.28998C71.3299 9.58998 71.9199 9.90999 72.4999 10.24C73.1899 9.31999 73.86 8.39997 74.52 7.46997C74.61 7.33997 74.7 7.22003 74.79 7.09003C75.18 6.48003 75.55 5.86998 75.9 5.22998C75.96 5.09998 76.0099 4.97003 76.0699 4.84003C75.0799 4.85003 74.0899 4.87001 73.0999 4.89001Z"
    fill="rgba(191, 192, 191, 1)" />
  <path d="M43.99 50.48C43.98 50.49 43.97 50.5 43.96 50.52C43.96 50.5 43.98 50.49 43.99 50.48Z"
    fill="rgba(191, 192, 191, 1)" />
  <path d="M38.49 38.74C38.48 38.75 38.47 38.76 38.46 38.77C38.47 38.76 38.48 38.76 38.49 38.74Z"
    fill="rgba(191, 192, 191, 1)" />
</svg>