<svg width="85" height="88" viewBox="0 0 85 88" fill="none" xmlns="http://www.w3.org/2000/svg">
  <path fill-rule="evenodd" clip-rule="evenodd"
    d="M79.9717 20.3947L79.9757 20.3964C80.279 20.5281 80.5811 20.6593 80.89 20.77L80.9838 20.8022C81.3693 20.9348 81.7917 21.08 82.18 21.08H82.25C82.83 21.05 83.3599 20.83 83.72 20.37C84.04 19.96 84.17 19.41 84.09 18.91C83.9963 18.3387 83.6396 17.8902 83.2825 17.4413L83.21 17.35C83.0389 17.1308 82.8707 16.9144 82.7053 16.6964C82.5613 16.5065 82.4196 16.3154 82.28 16.12C81.8714 15.4833 81.535 14.8195 81.1937 14.1458L81.1926 14.1437L81.16 14.08C80.7608 13.2817 80.3428 12.4977 79.9253 11.7148C79.7361 11.36 79.5471 11.0055 79.36 10.65C79.17 10.23 79.0099 9.79999 78.85 9.34998C78.8564 9.36499 78.8624 9.38 78.8681 9.39502C78.8757 9.4151 78.8829 9.43518 78.8901 9.45526L78.8995 9.48163C78.909 9.50775 78.9188 9.53387 78.93 9.56C78.77 9.07001 78.6199 8.54999 78.41 8.08002C78.21 7.64001 77.99 7.22998 77.76 6.81C77.6949 6.69153 77.6294 6.57361 77.5637 6.45587L77.4791 6.30463C77.4117 6.18408 77.3443 6.06354 77.2773 5.94263L77.2145 5.82892C77.1147 5.64758 77.0161 5.46509 76.92 5.28003C76.54 4.55005 76.12 3.75995 75.49 3.21997C75.56 3.02997 75.6 2.82001 75.6 2.60999C75.6 1.64001 74.79 0.840027 73.83 0.840027H73.5C72.3671 0.840027 71.7334 1.7312 71.136 2.57129C71.1006 2.62109 71.0653 2.67072 71.03 2.71997C70.9234 2.86816 70.8171 3.01672 70.7109 3.16534L70.6788 3.21021C70.0401 4.10382 69.4005 4.99866 68.6791 5.82538C68.6797 5.82361 68.68 5.82178 68.68 5.82001C68.671 5.82898 68.6621 5.83789 68.6603 5.84686L68.64 5.87C68.4323 6.09741 68.2346 6.32489 68.0368 6.55231L68.03 6.56C67.6065 7.0047 67.1755 7.44196 66.7444 7.87921C66.0049 8.62939 65.2656 9.37946 64.5638 10.1674L64.495 10.245L64.4917 10.2487C64.4775 10.2642 64.4633 10.2799 64.4492 10.296L64.4139 10.3353C64.0642 10.7273 63.712 11.1223 63.39 11.54C63.13 11.87 62.87 12.24 62.78 12.67C62.69 13.09 62.6299 13.51 62.74 13.93C62.91 14.56 63.4 14.98 64 15.19C64.1033 15.2254 64.2092 15.253 64.3163 15.2771C64.4029 15.2966 64.4904 15.3138 64.578 15.331C64.7496 15.3647 64.922 15.3987 65.09 15.45C65.72 15.63 66.3425 15.835 66.965 16.04L66.9734 16.0426C67.5931 16.2467 68.2128 16.4509 68.84 16.63C69.2853 16.7603 69.7305 16.8867 70.1754 17.013L70.2662 17.0388C70.4132 17.0806 70.5602 17.1223 70.7071 17.1642C70.3774 18.0411 70.0148 18.903 69.6 19.75C69.605 19.74 69.6125 19.7275 69.62 19.715L69.6156 19.7239L69.6091 19.7368C69.6034 19.7479 69.5974 19.7589 69.59 19.77C69.5826 19.7997 69.5696 19.8239 69.5553 19.8507C69.5504 19.86 69.5452 19.8697 69.54 19.88L69.5451 19.8704L69.5536 19.8556L69.56 19.845C69.566 19.835 69.5721 19.8249 69.5768 19.8161C69.2178 20.504 68.8387 21.1719 68.42 21.82L68.3643 21.8981L68.3619 21.9016C68.2902 22.0021 68.22 22.1005 68.1478 22.1981C68.0904 22.2758 68.0317 22.3529 67.97 22.43C67 22.43 66.2 23.24 66.2 24.2C66.2 24.81 66.34 25.33 66.76 25.81C67.12 26.22 67.64 26.36 68.16 26.36H68.23C68.79 26.35 69.25 26.08 69.68 25.76C70.15 25.41 70.58 24.9 70.92 24.42C71.34 23.83 71.7401 23.24 72.09 22.62C72.862 21.2496 73.5229 19.8148 74.06 18.3369C74.1434 18.3742 74.2267 18.4119 74.31 18.45C74.86 18.71 75.4 18.95 75.97 19.16C76.5873 19.3922 77.2238 19.5538 77.8615 19.7158C78.3497 19.8397 78.8386 19.9639 79.32 20.12C79.5397 20.2071 79.756 20.301 79.9717 20.3947ZM75.0695 14.8834C75.1251 14.9082 75.1806 14.9338 75.2361 14.9598C75.2697 14.9755 75.3033 14.9915 75.337 15.0075C75.3985 15.0369 75.46 15.0666 75.5215 15.0963C75.687 15.1763 75.8527 15.2565 76.02 15.33C76.49 15.54 76.96 15.74 77.45 15.92C77.72 16 77.99 16.07 78.26 16.14C78.02 15.67 77.79 15.1899 77.55 14.72C77.3452 14.3354 77.1355 13.9534 76.9258 13.5714C76.7155 13.1884 76.5052 12.8055 76.3 12.42C75.8785 11.6261 75.6108 10.7938 75.3367 9.94189L75.32 9.89001C75.21 9.60004 75.09 9.33002 74.96 9.04999C74.66 8.5 74.33 7.95996 74.04 7.40997C73.79 6.92999 73.54 6.45001 73.24 5.98999C73.2248 5.96979 73.2122 5.95209 73.1995 5.93439C73.1872 5.91711 73.1748 5.89978 73.16 5.88C73.14 5.87 73.1299 5.86005 73.11 5.84003C72.9 6.14001 72.6799 6.44 72.47 6.72998C71.92 7.45996 71.32 8.15002 70.71 8.84003C70.1933 9.4256 69.6379 9.97491 69.0829 10.5236C68.5103 11.0899 67.9382 11.6556 67.41 12.26C67.394 12.2918 67.3754 12.318 67.3553 12.3416C67.3439 12.355 67.3321 12.3675 67.3201 12.3798L67.3 12.4C67.4998 12.4611 67.6934 12.5252 67.8859 12.589C67.9634 12.6146 68.0408 12.6402 68.1182 12.6655C68.157 12.6782 68.1958 12.6909 68.2347 12.7034L68.35 12.74C69.33 13.06 70.31 13.37 71.31 13.64C71.4396 13.676 71.5692 13.7114 71.6987 13.7468L71.7374 13.5875L71.78 13.41C71.8088 13.2641 71.838 13.1182 71.8674 12.9724L71.9221 12.7008C71.9538 12.5439 71.9855 12.387 72.0168 12.23L72.0569 12.0283C72.1062 11.7789 72.1544 11.5295 72.2 11.28C72.38 10.33 73.2 9.63 74.2 9.76001C75.12 9.88 75.89 10.81 75.71 11.76C75.5165 12.8066 75.3076 13.8455 75.0695 14.8834Z"
    fill="rgba(191, 192, 191, 1)" />
  <path
    d="M8.21997 32.75C7.39996 32.27 7.09003 31.16 7.59003 30.33C8.65002 28.56 9.71002 26.79 11.09 25.25C12.16 24.06 13.4401 23.1 14.9 22.46C15.6 22.15 16.3301 22.01 17.09 21.96C17.71 21.92 18.43 22.1 18.86 22.57C19.35 23.11 19.51 23.82 19.24 24.51C18.97 25.21 18.25 25.71 17.5 25.71C17.25 25.71 17 25.66 16.79 25.56C16.68 25.59 16.58 25.61 16.48 25.65C16.28 25.72 16.09 25.81 15.9 25.9C15.65 26.04 15.42 26.18 15.19 26.33C14.9301 26.51 14.6801 26.71 14.44 26.91C14.09 27.2399 13.76 27.59 13.44 27.94C13.03 28.43 12.65 28.95 12.29 29.48L12.0257 29.9022L12.0217 29.9088C11.5616 30.6436 11.1038 31.3748 10.66 32.12C10.33 32.67 9.73004 32.99 9.12 32.99C8.79004 32.99 8.48999 32.91 8.21997 32.75Z"
    fill="rgba(191, 192, 191, 1)" />
  <path
    d="M37.73 32.68L37.71 32.66C37.7018 32.6545 37.6944 32.6483 37.6873 32.6417C37.6813 32.6363 37.6757 32.6306 37.67 32.6249C37.6575 32.6125 37.645 32.6 37.63 32.59C37.1913 32.1921 36.7891 31.7631 36.3874 31.3346L36.3859 31.3331C36.0007 30.9221 35.616 30.5117 35.2 30.13C34.7501 29.7401 34.29 29.38 33.8 29.05C33.2233 28.6718 32.6376 28.3294 32.026 28.0143C32.0607 28.0303 32.0953 28.0452 32.13 28.06C30.9029 27.443 29.6287 26.92 28.3559 26.3975C27.7721 26.1579 27.1886 25.9184 26.61 25.67C25.73 25.29 25.29 24.24 25.67 23.35C26.05 22.47 27.1 22.03 27.99 22.41C28.2598 22.5256 28.5301 22.6406 28.8008 22.7552L29.7056 23.1374C30.6817 23.5491 31.6598 23.9616 32.63 24.39C34.27 25.11 35.85 26.05 37.23 27.21C37.91 27.78 38.53 28.41 39.13 29.07C39.2729 29.2288 39.413 29.3876 39.5563 29.5419C39.6837 29.6792 39.8135 29.8129 39.95 29.94C39.985 29.965 40.0175 29.9924 40.0499 30.0199L40.071 30.0376L40.092 30.0551C40.1108 30.0706 40.13 30.0857 40.15 30.1C40.85 30.76 40.8201 31.94 40.15 32.6C39.8101 32.95 39.36 33.11 38.92 33.11C38.48 33.1 38.06 32.95 37.73 32.68Z"
    fill="rgba(191, 192, 191, 1)" />
  <path d="M32.026 28.0143C31.9907 27.9979 31.9553 27.9802 31.92 27.96L31.9843 27.9928L32.026 28.0143Z"
    fill="rgba(191, 192, 191, 1)" />
  <path
    d="M43.1914 51.3445C43.2035 51.9061 43.2157 52.4711 43.27 53.03C43.31 53.96 44.1 54.7299 45.05 54.72C46.02 54.72 46.82 53.91 46.82 52.95C46.82 52.8551 46.8109 52.7556 46.8018 52.6578C46.7975 52.6113 46.7932 52.5651 46.79 52.52C46.765 51.994 46.7486 51.4644 46.7322 50.9343C46.7279 50.7924 46.7235 50.6504 46.7189 50.5084C46.712 50.293 46.7048 50.0776 46.6965 49.8625C46.6819 49.4806 46.6641 49.0994 46.64 48.72V48.74C46.5038 46.6128 46.3331 44.4856 46.1628 42.3627L46.1224 41.8589C46.0812 41.3456 46.0403 40.8326 46 40.32C45.93 39.35 44.92 38.68 44.01 38.8C43.01 38.9399 42.42 39.84 42.49 40.8C42.528 41.2945 42.569 41.789 42.6109 42.2835C42.6307 42.5168 42.6507 42.7501 42.6707 42.9833C42.7643 44.0756 42.858 45.1678 42.93 46.26V46.21C42.9312 46.2159 42.9322 46.2219 42.9331 46.228L42.9348 46.2409L42.9357 46.248L42.9369 46.2606C42.9383 46.2775 42.9391 46.2947 42.9395 46.3116C42.94 46.3318 42.94 46.3516 42.94 46.37V46.43L43.09 48.77C43.1002 49.0074 43.1115 49.2436 43.1227 49.4794C43.1448 49.939 43.1667 50.3973 43.18 50.86C43.1844 51.0211 43.1879 51.1826 43.1914 51.3445Z"
    fill="rgba(191, 192, 191, 1)" />
  <path
    d="M81.1583 14.0724C81.1592 14.0748 81.1599 14.0778 81.16 14.08L81.146 14.051L81.1511 14.0594L81.1551 14.066C81.1564 14.0683 81.1575 14.0704 81.1583 14.0724Z"
    fill="rgba(191, 192, 191, 1)" />
  <path
    d="M35.61 75.36C34.95 74.69 34.96 73.67 35.52 72.96C35.5 72.98 35.4899 73 35.47 73.01C35.5471 72.9108 35.6213 72.8054 35.6941 72.699C35.7534 72.6125 35.8117 72.5252 35.87 72.44C35.9631 72.2859 36.0582 72.1339 36.1531 71.9822C36.2597 71.812 36.3659 71.6423 36.4686 71.4708C36.5185 71.3873 36.5676 71.3034 36.6154 71.2188C36.6545 71.1497 36.6927 71.0801 36.73 71.01C37.05 70.41 37.38 69.8 37.71 69.2C38.3 68 38.88 66.8 39.43 65.59C39.83 64.71 40.84 64.26 41.75 64.65C42.62 65.01 43.09 66.09 42.69 66.97C42 68.47 41.3 69.98 40.52 71.43L40.5191 71.4318C40.1194 72.1712 39.7196 72.9106 39.29 73.63C38.9299 74.22 38.58 74.84 38.11 75.35C37.79 75.7 37.34 75.87 36.89 75.87C36.42 75.88 35.95 75.7 35.61 75.36Z"
    fill="rgba(191, 192, 191, 1)" />
  <path
    d="M20.79 85.07C20.97 85.39 21.22 85.64 21.52 85.85C22.02 86.2 22.66 86.35 23.28 86.35C23.42 86.35 23.5701 86.35 23.71 86.33C24.71 86.22 25.66 85.86 26.55 85.43C27.41 85.01 28.25 84.53 29.05 84.01C29.4268 83.7678 29.8035 83.5256 30.1803 83.2819C30.3484 83.173 30.5166 83.064 30.6848 82.9544C30.8398 82.8534 30.9949 82.752 31.15 82.65C31.9501 82.1201 32.29 81.1 31.78 80.23C31.3201 79.44 30.17 79.07 29.36 79.6C27.99 80.5 26.61 81.4 25.15 82.17C24.79 82.34 24.44 82.49 24.06 82.63C23.99 82.65 23.93 82.67 23.87 82.69C23.43 82.2 22.73 81.9301 22.08 82.15C21.27 82.4301 20.49 83.09 20.54 84.03C20.56 84.4 20.6 84.74 20.79 85.07Z"
    fill="rgba(191, 192, 191, 1)" />
  <path
    d="M9.22302 87.0331L9.24005 87.036C9.49475 87.0803 9.74927 87.1246 10.0038 87.1691C10.276 87.2167 10.5482 87.2645 10.8206 87.313C11.1466 87.371 11.473 87.4298 11.8 87.49C11.89 87.4999 11.98 87.51 12.06 87.53C12.9 87.53 13.66 86.8199 13.78 85.99C13.91 84.99 13.21 84.17 12.26 83.99C11.6791 83.8828 11.0963 83.7834 10.5131 83.6841C9.79126 83.5613 9.06909 83.4383 8.34998 83.3C7.78998 83.17 7.22998 83.03 6.67999 82.85C6.32001 82.71 5.96997 82.56 5.62 82.4C5.25 82.21 4.89996 81.99 4.54999 81.76C4.47589 81.7083 4.40192 81.6555 4.32788 81.6022L4.21893 81.5237C3.56757 81.0537 2.89917 80.5713 2.07001 80.52C1.10004 80.46 0.299988 81.3799 0.299988 82.29C0.299988 83.03 0.730042 83.6 1.34003 83.88L1.46002 83.94H1.46997C1.56995 83.99 1.66998 84.05 1.76001 84.11L1.96021 84.2493C2.61237 84.7037 3.26331 85.1571 3.97998 85.52C5.26001 86.17 6.65002 86.58 8.06 86.83C8.4422 86.8973 8.82361 86.9636 9.20453 87.0298L9.22302 87.0331Z"
    fill="rgba(191, 192, 191, 1)" />
  <path d="M37.74 32.7C37.76 32.72 37.77 32.73 37.79 32.74C37.77 32.73 37.75 32.71 37.74 32.7Z"
    fill="rgba(191, 192, 191, 1)" />
  <path d="M37.63 32.6L37.68 32.65C37.66 32.64 37.64 32.62 37.63 32.6Z" fill="rgba(191, 192, 191, 1)" />
  <path
    d="M6.59003 48.79C7.25 50.77 8.35992 52.5601 9.46997 54.32C9.81995 54.8701 10.41 55.1901 11.02 55.2C11.32 55.2 11.62 55.1201 11.9 54.96C12.71 54.4901 13.05 53.36 12.53 52.54C11.85 51.46 11.19 50.37 10.59 49.25C10.37 48.78 10.17 48.29 9.98999 47.8C9.83997 47.37 9.71997 46.93 9.60999 46.48C9.50995 45.95 9.44 45.41 9.40002 44.87C9.33997 43.79 9.34991 42.72 9.40997 41.64C9.41919 41.5106 9.4306 41.381 9.44409 41.2515C9.4483 41.2113 9.4527 41.1711 9.45734 41.1309C9.47003 41.0206 9.48425 40.9103 9.5 40.8C9.5 40.78 9.51001 40.77 9.51001 40.75C9.84998 39.89 9.39996 38.86 8.53998 38.5C7.63995 38.13 6.60992 38.57 6.21997 39.45C5.95502 40.0366 5.91388 40.7394 5.8764 41.3809L5.87 41.49C5.81995 42.36 5.77997 43.25 5.82001 44.13L5.83112 44.3533C5.86652 45.0706 5.90222 45.7944 6.02002 46.51C6.14996 47.29 6.34003 48.04 6.59003 48.79Z"
    fill="rgba(191, 192, 191, 1)" />
  <path
    d="M24.8 57.27C23.86 57.0601 23.32 55.9901 23.56 55.09C23.83 54.1301 24.8 53.64 25.74 53.86C25.82 53.88 25.8801 53.89 25.95 53.91C26.1801 53.95 26.4 53.98 26.63 54C27.3101 54.04 27.98 54.03 28.65 54C30.266 53.8873 31.8762 53.7067 33.4851 53.5262L33.4875 53.5261L33.4965 53.5251L33.514 53.5233C34.0361 53.4647 34.5581 53.4061 35.08 53.35C36.04 53.24 36.9401 53.89 37.07 54.87C37.2 55.8 36.52 56.76 35.56 56.86C34.29 57 33.01 57.14 31.74 57.27L31.3461 57.3109C30.1124 57.4394 28.858 57.57 27.62 57.57C26.66 57.5601 25.73 57.48 24.8 57.27Z"
    fill="rgba(191, 192, 191, 1)" />
  <path
    d="M52.16 42.95C52.33 43.16 52.56 43.3199 52.81 43.43C53.04 43.53 53.27 43.56 53.5 43.56C53.73 43.56 53.95 43.52 54.19 43.47C54.4754 43.4055 54.7439 43.2394 54.9875 43.0886L55.05 43.05C55.28 42.91 55.5001 42.75 55.71 42.57C56.17 42.19 56.6201 41.8099 57.07 41.41L60.28 38.47C61.98 36.9199 63.65 35.35 65.32 33.78C66.02 33.12 65.98 31.95 65.32 31.28C64.6201 30.58 63.52 30.62 62.82 31.28L62.8165 31.2833L62.8151 31.2848C60.0491 33.8833 57.2831 36.4819 54.4503 39.0041C54.0329 39.3633 53.6058 39.7304 53.16 40.06C52.82 40.12 52.5 40.28 52.24 40.54C51.59 41.1899 51.56 42.26 52.16 42.95Z"
    fill="rgba(191, 192, 191, 1)" />
</svg>