<svg width="62" height="149" viewBox="0 0 62 149" fill="none" xmlns="http://www.w3.org/2000/svg">
  <path fill-rule="evenodd" clip-rule="evenodd"
    d="M52.547 0.81677C51.1103 1.30014 50.3987 1.89093 37.5489 12.9145C23.5712 24.9452 18.1198 29.9669 16.9516 31.981C15.1927 34.9752 16.0386 38.7617 18.912 40.7489C20.0533 41.5276 20.5367 41.6619 22.5642 41.6619C24.7125 41.6619 25.0348 41.5679 27.4517 40.1581C28.8884 39.3122 30.0968 38.6542 30.1505 38.7214C30.2176 38.7482 29.5597 40.3192 28.7138 42.1721C24.2157 52.1753 16.6562 72.2622 12.3193 85.6489C7.29751 101.265 2.20862 121.177 0.718207 131.019C0.100559 135.289 0.0602772 140.606 0.718207 142.714C1.63125 145.842 4.43753 148.058 7.43178 148.058C12.7087 148.031 16.6831 141.25 14.0782 136.779C13.2994 135.436 13.2592 135.275 13.6217 132.993C14.3065 128.199 17.3007 115.39 19.7848 106.327C24.6454 88.764 29.9491 73.4438 38.2337 53.1018L39.1198 50.9131L39.8986 52.2156C40.7177 53.5851 42.7317 54.9547 44.4638 55.3172C46.0617 55.6395 48.8008 54.7264 49.969 53.4643C51.4997 51.8665 51.6608 51.3428 52.3859 46.6165C54.8968 29.4701 55.8769 25.1063 59.5828 14.0827C61.4358 8.51048 61.7043 7.16776 61.2075 5.38196C60.2676 1.86407 55.9575 -0.418525 52.5336 0.78991L52.547 0.81677ZM56.132 5.79822C56.5886 6.22789 56.9511 6.7381 56.9511 6.93951C56.9511 7.14091 55.9709 10.2292 54.8028 13.8545C53.6346 17.4395 52.265 22.0987 51.7011 24.1933C50.788 27.8455 48.116 43.0315 47.6327 47.3415C47.3775 49.8121 46.3974 51.1548 45.1218 50.7923C43.8194 50.4029 43.5239 49.6779 43.7522 47.3684C44.0073 44.8978 46.7868 28.1006 47.0822 27.2547C47.4447 26.1805 46.6928 27.2278 44.5041 30.7457C38.4082 40.5877 34.2995 49.6241 26.4849 70.6778C18.0392 93.3024 8.72079 127.783 8.72079 136.323C8.72079 137.921 8.81477 138.216 9.4727 138.471C10.9094 139.129 10.2246 142.15 8.3314 143.332C7.44521 143.855 6.02193 143.197 5.364 141.895C4.84034 140.915 4.77321 140.203 4.93433 136.511C5.13574 131.69 5.41771 129.958 7.70032 119.727C12.3595 98.8075 20.1876 74.773 30.2177 50.47C33.9638 41.4068 38.6902 32.3167 42.96 25.9925C43.8462 24.6498 44.4907 23.5756 44.3967 23.5756C44.3027 23.5756 43.3897 24.1933 42.3692 24.9183C38.1665 28.0469 23.5309 37.2712 22.779 37.2712C21.3826 37.2712 20.7515 36.6805 20.7515 35.378C20.7515 34.2636 21.0066 33.9145 23.974 31.0411C27.0757 28.0066 51.5803 6.75154 53.3124 5.58338C54.4537 4.80461 55.1653 4.87174 56.1186 5.81164L56.132 5.79822Z"
    fill="rgba(191, 192, 191, 1)" />
  <path fill-rule="evenodd" clip-rule="evenodd"
    d="M47.3372 15.6404C43.0003 19.3597 41.6038 20.7561 44.7324 18.2452C46.0079 17.2382 47.834 15.8284 48.8679 15.1839C49.8749 14.4991 50.788 13.6532 50.8954 13.2906C50.9894 12.9684 51.0297 12.6327 50.9894 12.6059C50.9491 12.579 49.3244 13.9486 47.3372 15.6404Z"
    fill="rgba(191, 192, 191, 1)" />
</svg>