<svg width="129" height="211" viewBox="0 0 129 211" fill="none" xmlns="http://www.w3.org/2000/svg">
  <path fill-rule="evenodd" clip-rule="evenodd"
    d="M118.525 1.51167C113.825 3.72714 91.1063 17.3556 84.0705 22.1491C74.846 28.4464 68.5621 33.7501 67.1926 36.3952C66.1184 38.5167 66.3467 41.484 67.7162 43.1758C69.6363 45.5927 73.0334 46.5058 76.0545 45.4182L77.2898 44.9885L76.605 45.9284C76.2425 46.452 73.933 49.4463 71.4893 52.6419C50.3952 80.1137 44.9303 88.7607 31.8523 115.131C17.8746 143.328 7.96541 167.604 3.49417 184.724C0.459637 196.258 -0.574253 203.307 0.298511 205.939C1.01015 208.06 3.91041 210.141 6.09904 210.141C9.9392 210.141 13.7257 206.167 13.296 202.515C13.1349 200.944 14.209 195.251 15.874 188.953C18.7474 177.93 26.4949 157.078 32.7251 143.651C43.3459 120.677 50.2609 107.075 58.1427 93.7824C62.8019 85.9276 67.1657 79.7646 78.5116 64.9411C82.7546 59.436 83.238 58.8452 82.1638 60.6982C79.7201 64.9411 79.2367 66.1093 79.2367 68.0025C79.2367 70.1508 79.8946 71.3861 81.9356 73.051C82.9829 73.897 83.5065 74.0581 85.3595 74.1655C87.3199 74.2595 87.7092 74.1655 89.0117 73.3196C90.3141 72.4737 91.16 71.2384 96.8934 61.6515C108.79 41.8063 115.866 31.6957 124.473 22.243C126.138 20.4438 127.762 18.3358 128.152 17.5436C129.038 15.6504 129.038 12.9784 128.179 11.4746C127.588 10.4944 127.561 10.2661 127.95 9.12482C128.501 7.59414 128.541 6.9362 128.085 5.33838C127.373 2.76039 124.473 0.585203 121.76 0.544922C120.982 0.544922 119.679 0.934303 118.498 1.48481L118.525 1.51167ZM122.794 5.39209C122.996 5.52636 123.318 5.9426 123.546 6.33198C124.07 7.33901 123.681 8.0238 121.009 10.8032C119.84 12.0385 119.156 12.9247 119.505 12.7904C122.633 11.6491 124.983 12.9247 124.164 15.3013C123.963 15.7846 122.727 17.4227 121.358 18.9131C117.383 23.1829 115.785 25.1433 111.475 30.8767C105.836 38.369 102.023 44.1694 93.8723 57.7711C87.293 68.7544 86.7693 69.5063 85.8563 69.6003C84.6881 69.7346 83.8019 68.9827 83.8019 67.8682C83.8019 66.9283 94.9465 48.1439 100.653 39.5103C106.319 30.9438 113.892 20.8601 116.363 18.6849C117.571 17.5704 117.115 17.5167 114.537 18.4298C112.845 19.0206 109.877 21.433 105.634 25.667C94.396 36.9457 87.0916 45.7807 66.8166 72.7959C56.9342 85.9948 50.6235 96.5619 40.2577 117.253C23.0844 151.613 13.2691 176.963 9.36184 196.943C8.90531 199.252 8.58306 201.83 8.60992 202.582C8.63677 203.79 8.51593 204.153 7.76401 204.797C5.87078 206.422 4.43407 205.348 4.56834 202.381C4.76975 197.171 8.63677 182.012 12.6515 170.733C18.1969 155.09 24.8433 139.77 35.2359 118.716C47.8843 93.1245 54.6919 81.9801 69.1395 63.303C71.7444 59.8791 75.2623 55.3139 76.9272 53.0985C84.5807 42.8939 91.9254 34.1931 98.5987 27.3453C100.747 25.1567 102.278 23.3709 102.023 23.3709C101.365 23.3709 94.3691 27.2782 90.6095 29.7622C88.8774 30.9035 84.9433 33.6695 81.8147 35.9521C78.6862 38.2347 75.7188 40.3562 75.1683 40.6784C72.4291 42.3702 69.9586 40.2487 71.7444 37.711C72.5634 36.5697 81.1702 29.6951 86.2457 26.1369C89.965 23.5321 100.264 17.2348 112.187 10.293C120.982 5.17726 121.868 4.74759 122.781 5.36523L122.794 5.39209Z"
    fill="rgba(191, 192, 191, 1)" />
</svg>