<svg width="147" height="108" viewBox="0 0 147 108" fill="none" xmlns="http://www.w3.org/2000/svg">
  <path fill-rule="evenodd" clip-rule="evenodd"
    d="M69.3449 1.31903C56.3743 3.69562 44.3436 10.248 34.1121 20.5869C27.036 27.6898 22.3767 34.6316 15.5289 48.2601C7.37862 64.4531 2.85368 78.9677 1.34984 93.3347C0.86646 98.0879 0.86646 98.6115 1.34984 99.8871C2.03462 101.686 4.63945 104.587 6.89521 106.077C9.17783 107.608 9.47323 107.581 9.20469 105.983C8.72131 103.056 10.44 93.2407 12.9912 84.4997C23.3569 49.106 38.7713 27.3675 61.1275 16.7333C81.2682 7.11952 102.362 9.5901 114.581 22.9903C117.092 25.7294 119.213 30.2275 120.838 36.1891C122.825 43.4532 124.128 50.7978 123.671 51.9928C123.416 52.6507 123.644 52.7715 115.454 47.5887C105.934 41.5197 102.617 40.0561 102.027 41.5599C101.207 43.7486 109.035 53.7114 117.897 61.7408C123.013 66.4 124.933 67.9978 131.526 73.1135C137.071 77.4505 138.307 78.2293 139.381 78.2293C140.267 78.2293 140.321 77.8667 140.522 71.7037C140.724 66.4537 140.818 65.8092 144.47 46.9308L146.041 38.9819L145.329 37.6392C144.161 35.4506 140.119 30.6706 137.904 28.8445C135.984 27.2735 132.036 24.8701 131.808 25.1655C131.378 25.622 130.21 28.388 129.364 31.0331C128.773 32.7921 128.25 34.2288 128.196 34.2288C128.142 34.2288 126.827 32.5638 125.323 30.5498C121.764 25.7966 120.596 24.427 116.031 19.7947C106.216 9.85864 96.2394 3.85675 85.4843 1.43988C81.765 0.620824 73.4939 0.526837 69.3449 1.30561V1.31903Z"
    fill="rgba(191, 192, 191, 1)" />
</svg>