<svg width="84" height="88" viewBox="0 0 84 88" fill="none" xmlns="http://www.w3.org/2000/svg">
  <path
    d="M14.3 86.97C13.44 86.47 12.71 85.8301 11.99 85.1601C10.75 84.0001 9.64996 82.7001 8.70996 81.2901C7.82996 79.9801 6.96997 78.65 6.09997 77.34C5.54997 76.57 4.95996 75.82 4.45996 75.02C4.20996 74.63 3.94995 74.23 3.69995 73.83C3.43995 73.42 3.23 72.9701 3 72.5401C2.54 71.7001 2.20999 70.7901 1.86999 69.9101C1.52999 69.0101 1.26997 68.03 1.09997 67.08C0.929972 66.14 0.769938 65.19 0.689938 64.24C0.609938 63.23 0.550016 62.22 0.520016 61.2C0.490016 60.23 0.519962 59.2701 0.589962 58.3101C0.659962 57.3601 0.869982 56.42 1.10998 55.5C1.54998 53.82 2.51997 52.31 3.59997 50.98C4.30997 50.1 5.11999 49.34 5.98999 48.62C6.85999 47.9 7.84999 47.3701 8.86999 46.9101C9.38999 46.6801 9.90995 46.44 10.4499 46.25C11.4899 45.89 12.57 45.74 13.66 45.75C13.73 45.75 13.8 45.75 13.87 45.75C13.94 45.67 13.9999 45.58 14.0699 45.5C14.5599 44.89 15.07 44.31 15.61 43.73C15.96 43.35 16.29 42.95 16.66 42.6C17.05 42.23 17.4299 41.87 17.8199 41.5C18.2099 41.13 18.6501 40.81 19.0601 40.47C19.7601 39.9 20.53 39.4 21.27 38.88C22.18 38.26 23.1199 37.65 24.0699 37.09C25.0099 36.53 26.0099 36.0901 27.0699 35.8001C28.2199 35.5001 29.43 35.45 30.61 35.52C31.68 35.58 32.74 35.75 33.78 36.02C34.46 36.2 35.12 36.46 35.78 36.71C36.19 36.87 36.6 37.06 36.99 37.26C37.69 37.61 38.37 37.96 39.02 38.39C40.82 39.59 42.32 41.1601 43.71 42.8001C44.29 43.4901 44.8 44.29 45.26 45.07C45.79 45.95 46.3 46.84 46.8 47.73C47.63 49.23 48.34 50.8001 48.92 52.4201C49.53 54.1201 50.04 55.85 50.6 57.57C50.73 57.92 50.86 58.27 51 58.62C51.12 58.94 51.28 59.2501 51.43 59.5601C51.7901 60.2101 52.1699 60.83 52.5699 61.46C52.9399 61.96 53.31 62.46 53.72 62.94C53.96 63.2 54.21 63.45 54.47 63.69C54.69 63.88 54.92 64.05 55.15 64.23C55.37 64.37 55.5899 64.5 55.8199 64.62C56.0199 64.71 56.21 64.79 56.41 64.86C56.62 64.92 56.8401 64.98 57.0601 65.0301C57.3601 65.0801 57.6499 65.12 57.9499 65.15C58.3399 65.17 58.73 65.16 59.12 65.14C59.54 65.1 59.96 65.03 60.38 64.95C60.86 64.84 61.33 64.7001 61.8 64.5501C62.23 64.3901 62.6599 64.2 63.0699 64C63.5399 63.75 63.9901 63.48 64.43 63.19C64.9501 62.81 65.4599 62.42 65.9399 62C66.4299 61.55 66.92 61.1 67.36 60.6C68.78 58.92 69.98 57.07 71.22 55.24C71.18 55.3 71.13 55.3601 71.09 55.4301C71.45 54.8701 71.79 54.31 72.13 53.73C70.35 53.56 68.6001 52.8501 67.1801 51.8001C66.3301 51.1701 65.6 50.2601 65.15 49.3001C64.92 48.8001 64.73 48.27 64.63 47.73C64.51 47.06 64.5 46.41 64.55 45.74C64.62 44.75 65.02 43.7701 65.51 42.9201C66.02 42.0601 66.8 41.26 67.65 40.74C68.5 40.22 69.4401 39.9 70.4301 39.85C71.5301 39.79 72.5899 40.0601 73.5699 40.5301C74.4799 40.9601 75.31 41.61 75.96 42.38C76.72 43.29 77.2 44.34 77.48 45.49C77.65 46.19 77.73 46.91 77.72 47.62L77.73 47.61C77.92 47.3 78.1 47 78.26 46.69C78.48 46.24 78.67 45.7801 78.85 45.3101C79.05 44.7001 79.22 44.08 79.36 43.45C79.46 42.87 79.54 42.29 79.59 41.7C79.62 41.11 79.63 40.53 79.6 39.95C79.56 39.45 79.49 38.95 79.4 38.46C79.29 38 79.17 37.56 79.03 37.12C78.9 36.77 78.76 36.43 78.6 36.09C78.34 35.58 78.04 35.11 77.75 34.62C77.23 33.88 76.68 33.17 76.09 32.47C75.5 31.88 74.91 31.28 74.29 30.73C73.63 30.17 72.95 29.6601 72.24 29.1701C70.12 27.8001 67.8699 26.5 66.3199 24.46C64.9399 22.64 64.39 20.2 64.52 17.95C64.62 16.29 65.2 14.7 66.09 13.3C67.11 11.69 68.4 10.31 69.74 8.96004C71.04 7.64004 72.47 6.46 73.8 5.17C74.1301 4.84 74.46 4.51001 74.79 4.18001C73.78 4.37001 72.77 4.58005 71.77 4.78005C70.44 5.03005 69.11 5.28003 67.77 5.51003C66.57 5.72003 65.34 5.92002 64.11 6.00002C63.29 6.06002 62.38 6.00002 61.73 5.44002C61.2 4.98002 60.88 4.27003 61.11 3.57003C61.32 2.91003 61.74 2.53002 62.35 2.25002C62.78 2.05002 63.2499 1.94003 63.6999 1.82003C64.5999 1.56003 65.5201 1.36001 66.4301 1.18001C68.3101 0.820014 70.2 0.570005 72.11 0.420005C73.03 0.350005 73.95 0.279993 74.87 0.219993C75.54 0.179993 76.21 0.130017 76.88 0.120017C77.93 0.100017 79.13 0.190039 80 0.830039C80.01 0.840039 80.02 0.839997 80.03 0.849997C80.66 1.14 81.2201 1.56004 81.6801 2.14004C83.1801 4.03004 83.38 6.56003 83.5 8.88003C83.56 9.99003 83.57 11.11 83.59 12.23C83.61 13.92 83.56 15.64 83.27 17.31C83.26 18.08 82.73 18.76 81.97 19C81.96 19 81.9499 19 81.9399 19.01C80.7799 19.37 79.49 18.28 79.71 17.06C79.86 16.24 79.93 15.41 79.99 14.57C80.07 12.51 80.04 10.45 79.92 8.40005C79.87 7.71005 79.7901 7.02005 79.6801 6.34005C79.5901 5.94005 79.49 5.54005 79.36 5.15005C79.32 5.06005 79.29 4.97004 79.25 4.89004C79.23 4.84004 79.2001 4.80002 79.1801 4.75002C78.8401 5.09002 78.51 5.43005 78.17 5.78005C76.92 7.08005 75.63 8.33005 74.28 9.53005C72.96 10.7101 71.73 11.97 70.53 13.27C70.11 13.76 69.71 14.2601 69.34 14.7801C69.1 15.1601 68.86 15.55 68.65 15.95C68.53 16.21 68.4199 16.47 68.3199 16.74C68.2599 16.94 68.2 17.13 68.16 17.33C68.11 17.6 68.07 17.86 68.05 18.14C68.04 18.43 68.03 18.72 68.04 19.01C68.07 19.38 68.1199 19.75 68.1899 20.12C68.2599 20.42 68.3499 20.72 68.4399 21.02C68.5199 21.22 68.5999 21.42 68.6899 21.62C68.7899 21.81 68.9 21.9901 69.01 22.1701C69.15 22.3701 69.2899 22.55 69.4399 22.74C69.6499 22.97 69.87 23.19 70.1 23.4C70.76 23.96 71.4601 24.47 72.1801 24.96C73.1801 25.59 74.19 26.2301 75.15 26.9301C76.42 27.8401 77.51 28.9401 78.61 30.0401C78.91 30.3401 79.2 30.7001 79.46 31.0401C79.78 31.4601 80.1 31.8701 80.4 32.3101C81.27 33.5601 81.97 34.88 82.47 36.33C83.28 38.68 83.3 41.3 82.9 43.73C82.51 46.11 81.59 48.46 80.11 50.38C79.47 51.22 78.65 51.9 77.77 52.47C77.35 52.74 76.8999 52.96 76.4399 53.14C75.7199 54.82 74.75 56.39 73.72 57.9C73.08 58.85 72.42 59.79 71.78 60.74C70.47 62.66 68.85 64.36 66.99 65.76C63.88 68.11 59.76 69.35 55.9 68.45C53.02 67.78 50.91 65.47 49.36 63.09C48.95 62.45 48.5299 61.8 48.1999 61.11C47.8699 60.39 47.57 59.68 47.29 58.95C46.99 58.16 46.77 57.3401 46.53 56.5401C46.32 55.8601 46.1 55.19 45.88 54.51C45.39 53.15 44.86 51.8301 44.23 50.5301C43.39 48.9601 42.5201 47.4301 41.5601 45.9301C41.1601 45.3901 40.76 44.87 40.33 44.35C39.7 43.68 39.07 43.0401 38.39 42.4201C37.96 42.0701 37.5299 41.72 37.0699 41.4C36.5299 41.05 35.96 40.75 35.39 40.46C34.77 40.18 34.15 39.93 33.52 39.69C33.06 39.54 32.6 39.4201 32.13 39.3101C31.58 39.2101 31.03 39.14 30.47 39.09C30.01 39.07 29.55 39.06 29.09 39.09C28.78 39.12 28.48 39.16 28.18 39.21C27.89 39.28 27.61 39.36 27.33 39.45C27.05 39.56 26.78 39.6801 26.52 39.8001C25.38 40.4001 24.32 41.12 23.25 41.83C22.72 42.19 22.2099 42.56 21.6899 42.94C21.1999 43.3 20.74 43.69 20.27 44.07C19.87 44.44 19.45 44.8 19.08 45.19C18.8 45.49 18.53 45.79 18.25 46.08C18.6 46.15 18.9601 46.23 19.3101 46.33C20.3501 46.63 21.42 47.01 22.35 47.57C23.12 48.03 23.72 48.8 24.13 49.59C24.6 50.49 24.84 51.5201 24.87 52.5301C24.9 53.5101 24.59 54.46 24.13 55.32C23.59 56.32 22.9 57.19 22.05 57.94C21.32 58.58 20.53 59.11 19.62 59.46C18.78 59.78 17.89 59.9 16.99 59.94C16.44 59.96 15.89 59.9801 15.34 59.9301C14.8 59.8901 14.23 59.81 13.72 59.59C13.15 59.34 12.6599 59.03 12.1999 58.6C11.4499 57.92 11.0401 56.91 10.8101 55.95C10.5101 54.71 10.58 53.4 10.78 52.14C10.92 51.31 11.13 50.4701 11.43 49.6801C10.7801 49.9401 10.14 50.2301 9.51001 50.5301C9.35001 50.6201 9.19003 50.7101 9.03003 50.8101C8.58003 51.1301 8.13996 51.4601 7.70996 51.8101C7.34996 52.1501 7.01004 52.49 6.67004 52.85C6.28004 53.31 5.91994 53.78 5.56994 54.27C5.35994 54.59 5.16999 54.91 4.98999 55.25C4.88999 55.46 4.79996 55.67 4.70996 55.88C4.56996 56.29 4.45996 56.69 4.33996 57.11C4.19996 57.86 4.11004 58.59 4.05005 59.34C4.03005 60.55 4.06999 61.75 4.11999 62.95C4.15999 63.51 4.20003 64.06 4.28003 64.62C4.36003 65.28 4.46996 65.92 4.58996 66.58C4.75996 67.29 4.95004 67.9801 5.17004 68.6701C5.47004 69.4301 5.77999 70.16 6.11999 70.9C6.31999 71.28 6.52999 71.6601 6.73999 72.0401C6.92999 72.4001 7.17002 72.73 7.40002 73.08C8.22002 74.23 9.03006 75.3801 9.81005 76.5501C10.5201 77.6001 11.2 78.67 11.91 79.73C12.3 80.25 12.7 80.77 13.12 81.26C13.7 81.9 14.2999 82.51 14.9399 83.08C15.1899 83.3 15.45 83.51 15.72 83.71C15.81 83.77 15.9 83.82 15.99 83.87C16.03 83.89 16.06 83.9001 16.1 83.9201C16.11 83.9201 16.12 83.9301 16.14 83.9301C16.17 83.9301 16.21 83.9301 16.24 83.9301C16.21 83.9301 16.19 83.9301 16.16 83.9301C16.16 83.9301 16.16 83.9301 16.17 83.9301C16.61 83.9201 17.01 84.0101 17.37 84.2901C17.74 84.5701 17.98 84.99 18.04 85.45C18.16 86.36 17.49 87.37 16.53 87.44C16.41 87.45 16.3 87.45 16.18 87.45C15.51 87.45 14.87 87.31 14.3 86.97ZM17.15 56.38C17.38 56.36 17.61 56.3301 17.84 56.2901C18.02 56.2501 18.19 56.2 18.37 56.14C18.45 56.11 18.54 56.0701 18.62 56.0401C18.81 55.9401 18.99 55.83 19.17 55.72C19.37 55.57 19.56 55.42 19.75 55.25C19.95 55.07 20.1399 54.8801 20.3199 54.6801C20.4299 54.5401 20.54 54.41 20.64 54.26C20.77 54.06 20.9 53.85 21.02 53.64C21.12 53.43 21.21 53.22 21.29 53.01C21.31 52.95 21.32 52.9 21.33 52.84C21.33 52.82 21.34 52.79 21.34 52.76C21.34 52.72 21.34 52.68 21.34 52.64C21.32 52.43 21.29 52.22 21.26 52.01C21.22 51.83 21.17 51.66 21.11 51.48C21.08 51.4 21.04 51.32 21.01 51.24C20.96 51.15 20.91 51.06 20.85 50.97C20.81 50.91 20.76 50.8601 20.72 50.8001C20.67 50.7501 20.6199 50.7 20.5699 50.65C20.5399 50.63 20.51 50.6 20.48 50.58C20.44 50.56 20.4 50.53 20.37 50.51C19.93 50.31 19.49 50.13 19.04 49.96C18.58 49.81 18.11 49.6801 17.63 49.5601C17.09 49.4701 16.54 49.4 15.99 49.35C15.86 49.34 15.73 49.34 15.61 49.33C15.56 49.4 15.51 49.4801 15.46 49.5501C15.3 49.8001 15.15 50.0401 15.01 50.2901C14.9 50.5401 14.7999 50.8001 14.6999 51.0601C14.5499 51.5101 14.4299 51.9501 14.3199 52.4101C14.2499 52.7901 14.19 53.1701 14.16 53.5601C14.15 53.8401 14.15 54.11 14.15 54.39C14.17 54.65 14.21 54.9101 14.25 55.1701C14.28 55.2801 14.31 55.38 14.34 55.49C14.38 55.58 14.41 55.68 14.46 55.77C14.49 55.82 14.52 55.8701 14.55 55.9201C14.59 55.9601 14.62 56.0001 14.65 56.0501C14.67 56.0701 14.69 56.09 14.72 56.12C14.75 56.14 14.7899 56.17 14.8199 56.19C14.8499 56.21 14.87 56.22 14.9 56.24C14.95 56.26 15.0001 56.2901 15.0601 56.3101C15.1201 56.3301 15.18 56.35 15.25 56.36C15.36 56.38 15.48 56.3901 15.59 56.4101C16.12 56.4201 16.63 56.4 17.15 56.38ZM73.26 50.23C73.43 50.21 73.59 50.2001 73.75 50.1701C73.84 49.8701 73.92 49.57 73.99 49.26C74.06 48.86 74.12 48.4601 74.15 48.0501C74.16 47.7601 74.16 47.47 74.15 47.19C74.12 46.92 74.09 46.65 74.04 46.39C73.98 46.17 73.92 45.95 73.85 45.73C73.8 45.6 73.7499 45.48 73.6899 45.35C73.6099 45.2 73.52 45.05 73.42 44.9C73.36 44.82 73.3 44.7501 73.24 44.6701C73.11 44.5301 72.97 44.4 72.83 44.27C72.73 44.19 72.64 44.1101 72.53 44.0401C72.37 43.9301 72.21 43.84 72.03 43.74C71.87 43.67 71.7201 43.6101 71.5601 43.5401C71.4601 43.5101 71.36 43.48 71.26 43.45C71.11 43.42 70.9601 43.4 70.8 43.39C70.73 43.39 70.66 43.39 70.58 43.39C70.49 43.4 70.39 43.4101 70.3 43.4301C70.2001 43.4501 70.11 43.48 70.01 43.51C69.91 43.55 69.81 43.59 69.71 43.64C69.64 43.68 69.57 43.72 69.5 43.76C69.37 43.85 69.24 43.9501 69.12 44.0501C69.03 44.1401 68.94 44.22 68.86 44.32C68.77 44.43 68.68 44.5401 68.6 44.6601C68.52 44.7801 68.45 44.9001 68.39 45.0301C68.32 45.1801 68.2599 45.33 68.2 45.49C68.17 45.58 68.15 45.68 68.12 45.77C68.08 45.97 68.06 46.16 68.04 46.36C68.04 46.48 68.04 46.59 68.04 46.71C68.05 46.84 68.07 46.96 68.09 47.09C68.12 47.21 68.1499 47.33 68.1899 47.45C68.2399 47.57 68.29 47.7 68.34 47.82C68.4 47.93 68.46 48.04 68.53 48.15C68.65 48.31 68.77 48.47 68.9 48.63C68.98 48.72 69.07 48.81 69.17 48.89C69.28 48.98 69.39 49.07 69.5 49.15C69.71 49.29 69.93 49.4201 70.15 49.5401C70.42 49.6701 70.7 49.79 70.98 49.9C71.24 49.98 71.5 50.05 71.77 50.11C72.03 50.15 72.29 50.19 72.55 50.22C72.8 50.23 73.03 50.23 73.26 50.23Z"
    fill="rgba(191, 192, 191, 1)" />
</svg>