<svg width="80" height="75" viewBox="0 0 80 75" fill="none" xmlns="http://www.w3.org/2000/svg">
  <path
    d="M2.06999 74.16C1.19999 74.16 0.429986 73.49 0.319986 72.63C0.269986 72.22 0.319964 71.81 0.359964 71.4C0.379964 71.19 0.379962 70.97 0.419962 70.76C0.489962 70.35 0.559974 69.95 0.619974 69.55C0.809974 68.25 0.959986 66.94 1.06999 65.62C1.23999 62.96 1.21995 60.29 1.46995 57.63C1.59995 56.25 1.75998 54.89 1.93998 53.52C2.10998 52.16 2.24001 50.8 2.34001 49.43C2.45001 46.57 2.40998 43.72 2.49998 40.86C2.58998 38.08 2.92997 35.32 3.11997 32.54C3.30997 28.7 3.28001 24.87 3.34001 21.03C3.37001 19.12 3.34001 17.21 3.28001 15.3C3.25001 14.39 3.2 13.47 3.21 12.56C3.23 11.52 3.27 10.49 3.33 9.45001C3.4 8.25001 3.53 7.04998 3.65 5.84998C3.77 4.68998 3.85996 3.52999 3.97996 2.37C4.05996 1.5 4.88996 0.840027 5.72996 0.840027C6.68996 0.840027 7.49998 1.63999 7.49998 2.60999C7.49998 2.64999 7.49998 2.67997 7.49998 2.71997C7.49998 2.83997 7.48 2.96002 7.46 3.08002C7.25 5.22002 7.04996 7.38003 6.85996 9.53003C6.80996 10.45 6.76998 11.36 6.74998 12.28C6.73998 13.17 6.76997 14.07 6.79997 14.97C6.86997 16.97 6.88998 18.96 6.87998 20.96C6.85998 22.8 6.80997 24.64 6.79997 26.49C6.78997 28.51 6.75 30.52 6.65 32.54C6.54 34.77 6.29997 36.99 6.11997 39.2C6.02997 40.74 5.98 42.28 5.96 43.83C5.94 45.55 5.93998 47.27 5.87998 48.99C5.81998 50.69 5.63996 52.37 5.41996 54.04C5.20996 55.7 5.01998 57.35 4.87998 59.01C4.72998 61.41 4.75998 63.82 4.55998 66.21C4.50998 66.83 4.43997 67.46 4.36997 68.08C4.62997 67.88 4.89 67.68 5.15 67.47C6.38 66.51 7.64996 65.59 8.85996 64.61C10.14 63.57 11.4 62.5 12.69 61.48C14.07 60.38 15.45 59.28 16.82 58.16C18.32 56.82 19.82 55.46 21.32 54.11C22.81 52.75 24.37 51.46 25.89 50.14C27.47 48.72 29.03 47.28 30.65 45.91C32.31 44.49 33.98 43.08 35.63 41.65C37.06 40.33 38.47 38.99 39.88 37.66C41.28 36.34 42.71 35.05 44.08 33.7C45.45 32.35 46.77 30.95 48.14 29.6C48.77 28.98 49.41 28.38 50.06 27.79C50.77 27.13 51.46 26.46 52.15 25.79C52.83 25.12 53.47 24.41 54.15 23.73C54.79 23.09 55.45 22.45 56.12 21.84C57.52 20.56 58.98 19.33 60.33 18C61.39 16.95 62.39 15.84 63.4 14.73C62.89 14.31 62.37 13.89 61.85 13.48C60.11 12.12 58.2999 10.85 56.4699 9.59998C55.8299 9.19998 55.2 8.80997 54.56 8.40997C54.03 8.08997 53.49 7.75002 53.07 7.27002C52.55 6.68002 52.28 5.84001 52.6 5.07001C52.91 4.34001 53.51 3.86002 54.3 3.71002C54.84 3.61002 55.39 3.57999 55.94 3.54999C56.67 3.50999 57.4 3.48 58.13 3.44C59.75 3.29 61.3599 3.04999 62.9699 2.79999C64.9699 2.48999 66.94 2 68.95 1.81C70.91 1.62 72.95 1.73001 74.87 2.14001C75.27 2.23001 75.68 2.29997 76.08 2.40997C76.7 2.57997 77.39 2.70998 77.87 3.16998C78.59 3.22998 79.2 3.74002 79.44 4.46002C79.73 5.34002 79.46 6.25001 79.39 7.14001C79.28 8.84001 79.2199 10.53 79.2199 12.23C79.2199 14.09 79.21 15.96 79.19 17.83C79.17 19.67 79.1 21.52 78.98 23.36C78.91 24.4 78.84 25.44 78.76 26.48C78.72 27 78.7 27.59 78.4699 28.07C78.2 28.62 77.7899 28.96 77.2199 29.16C76.5999 29.37 75.93 29.16 75.42 28.8C74.92 28.45 74.58 27.82 74.25 27.32C73.59 26.31 72.98 25.27 72.33 24.25C71.81 23.49 71.29 22.73 70.77 21.97C70.23 21.19 69.65 20.45 69.05 19.72C68.74 19.4 68.44 19.06 68.12 18.76C67.74 18.42 67.36 18.08 66.98 17.73C67.03 17.78 67.09 17.83 67.15 17.88C66.81 17.59 66.47 17.3 66.13 17C65.43 17.76 64.74 18.53 64.04 19.29C62.77 20.68 61.33 21.91 59.92 23.17C58.57 24.38 57.2199 25.62 55.9699 26.93C55.2599 27.68 54.55 28.41 53.82 29.13C53.19 29.74 52.53 30.33 51.89 30.93C50.5 32.26 49.13 33.62 47.78 35C46.44 36.38 45.06 37.7 43.65 39C41.8 40.71 39.98 42.46 38.13 44.18C37.23 45.02 36.27 45.8 35.33 46.59C34.38 47.39 33.44 48.19 32.49 49C31.07 50.26 29.67 51.56 28.23 52.8C26.73 54.1 25.23 55.4 23.73 56.7C22.29 58.02 20.84 59.32 19.38 60.62C18.63 61.29 17.82 61.91 17.04 62.54C16.3 63.14 15.55 63.73 14.81 64.32C13.44 65.41 12.13 66.57 10.74 67.64C9.93997 68.26 9.12998 68.89 8.30998 69.51C7.58998 70.06 6.85996 70.6 6.16996 71.18C5.94996 71.36 5.74 71.55 5.52 71.73C5.16 72.06 4.81 72.38 4.46 72.72C4.17 72.99 3.88995 73.27 3.59995 73.54C3.15995 73.95 2.65999 74.15 2.06999 74.16ZM71.92 11.24C71.25 11.94 70.57 12.62 69.87 13.28C69.45 13.67 69.02 14.06 68.6 14.45C68.97 14.77 69.34 15.09 69.7 15.41C70.43 16.07 71.17 16.72 71.8 17.48C72.45 18.25 73.05 19.04 73.63 19.87C74.25 20.77 74.88 21.67 75.4699 22.58C75.6199 19.52 75.67 16.47 75.68 13.4C75.68 11.73 75.67 10.07 75.77 8.40002C75.79 8.09002 75.81 7.77001 75.82 7.45001C74.47 8.67001 73.18 9.93999 71.92 11.24ZM69.67 5.28003C68.26 5.39003 66.89 5.69 65.51 5.94C64.44 6.13 63.37 6.31997 62.29 6.46997C61.2 6.62997 60.1 6.79002 59 6.90002C58.96 6.90002 58.91 6.90997 58.87 6.90997C59.48 7.31997 60.07 7.73997 60.66 8.15997C62.2099 9.26997 63.77 10.38 65.23 11.6C65.45 11.79 65.67 11.97 65.89 12.15C66.65 11.44 67.42 10.75 68.16 10.02C69.46 8.72002 70.71 7.37999 72.05 6.10999C72.31 5.85999 72.58 5.62 72.84 5.38C72.5 5.34 72.17 5.30002 71.83 5.27002C71.49 5.25002 71.15 5.23999 70.81 5.23999C70.43 5.24999 70.05 5.26003 69.67 5.28003Z"
    fill="rgba(191, 192, 191, 1)" />
</svg>