<svg width="67" height="68" viewBox="0 0 67 68" fill="none" xmlns="http://www.w3.org/2000/svg">
  <path
    d="M62.11 16.96C62.21 17.61 62.49 18.15 62.86 18.68C63.1799 19.13 63.72 19.36 64.25 19.35C64.64 19.35 65.0299 19.23 65.34 18.99C66.1299 18.3899 66.21 17.3 65.66 16.51C65.64 16.5 65.63 16.48 65.62 16.46V16.45C65.62 16.42 65.61 16.3899 65.6 16.36C65.6 16.33 65.59 16.3 65.59 16.27C65.59 16.0293 65.5993 15.7978 65.6089 15.5579L65.61 15.53C65.6478 15.1091 65.6871 14.6887 65.7269 14.2686C65.7474 14.0517 65.7682 13.8348 65.7889 13.618C65.9081 12.3692 66.0272 11.1218 66.12 9.86999C66.1899 8.97998 66.2399 8.08001 66.2 7.19L66.1989 7.15838V7.15728C66.1591 6.12603 66.1156 4.99975 65.71 4.03003C65.5299 3.58001 65.2899 3.16998 64.95 2.83001C64.6099 2.5 64.21 2.26001 63.78 2.05999C63.35 1.85998 62.82 1.84997 62.35 1.86999C61.85 1.88 61.38 1.91003 60.89 1.96002C60.1 2 59.32 2.01995 58.53 1.97998C57.74 1.90997 56.9699 1.80993 56.1899 1.65997C55.2199 1.44995 54.2799 1.17999 53.33 0.90002C53.1635 0.851436 53.0018 0.798092 52.8384 0.746578C52.7962 0.733272 52.7539 0.72015 52.7114 0.70721C52.681 0.697994 52.6506 0.6889 52.62 0.679989L52.4399 0.530025C52.0499 0.230037 51.6 0.13995 51.12 0.179989C50.77 0.209957 50.4 0.409969 50.13 0.619991C49.6599 0.969967 49.4401 1.51001 49.4301 2.08001C49.4201 2.69 49.77 3.30999 50.3101 3.60998C50.731 3.84466 51.2106 3.98114 51.6805 4.1148L51.6827 4.11535C51.7429 4.1325 51.803 4.14959 51.8628 4.16687C51.9121 4.18109 51.9612 4.19543 52.01 4.21002C52.5599 4.36999 53.12 4.53997 53.6801 4.70001C55.0501 5.10998 56.51 5.37994 57.9301 5.47998C58.1397 5.49585 58.3485 5.50793 58.5569 5.5166C56.0165 7.40881 53.6526 9.54046 51.3031 11.6593L51.28 11.68C48.8608 13.8638 46.5208 16.1398 44.1848 18.4119L43.3826 19.1918C43.1085 19.4581 42.8344 19.7242 42.5601 19.99C41.653 20.8627 40.7742 21.7591 39.8945 22.6564C39.4941 23.0648 39.0935 23.4734 38.6899 23.88C38.4077 24.1673 38.1248 24.4546 37.8417 24.742C36.9917 25.6052 36.1403 26.4698 35.3001 27.34C33.5693 29.1381 31.8441 30.9398 30.1223 32.7439C29.9504 32.5514 29.7785 32.3592 29.6061 32.1671C29.4807 32.0274 29.3552 31.8878 29.2296 31.7483L27.8001 30.09C27.582 29.8381 27.3637 29.5861 27.1451 29.3342L25.9973 28.0109C25.3757 27.2939 24.7553 26.5769 24.14 25.86L21.47 22.77L21.3685 22.6506L21.1685 22.4139C20.8108 21.9903 20.4525 21.566 20.07 21.16L17.5601 18.5C17.397 18.3275 17.2368 18.1531 17.0769 17.9788C16.7268 17.5973 16.3776 17.2169 16 16.86C15.09 16 14.1801 15.13 13.27 14.27C13.1305 14.1362 12.9906 14.0025 12.8507 13.8688L12.8485 13.8668C11.8171 12.8807 10.7828 11.8918 9.83204 10.8264C9.29639 10.2096 8.79908 9.56439 8.33997 8.90002C8.09998 8.53003 7.88001 8.16003 7.67005 7.77002C7.53004 7.47998 7.41004 7.19 7.30006 6.90002C7.29408 6.88189 7.28834 6.86413 7.28297 6.84668C7.27882 6.833 7.27491 6.81945 7.27113 6.80596C7.25562 6.75122 7.24281 6.69769 7.22999 6.64001C7.14503 6.11364 6.82313 5.67376 6.38929 5.41284C6.87367 5.45782 7.35816 5.48931 7.83997 5.51001C8.83997 5.53997 9.84998 5.55999 10.85 5.58001C12.1907 5.59973 13.5217 5.63891 14.8622 5.67834L14.9201 5.67999C16.63 5.82 18.33 5.97998 20.03 6.17999C20.99 6.29998 21.9 5.63 22.03 4.66998C22.15 3.71997 21.47 2.78997 20.51 2.66998C18.57 2.42999 16.61 2.19 14.66 2.13C14.1372 2.11297 13.6148 2.10046 13.0927 2.09002C12.6709 2.0816 12.2494 2.07446 11.8281 2.06732H11.8263C10.316 2.04174 8.80799 2.01617 7.30006 1.92999C6.63001 1.88 5.95008 1.80999 5.29005 1.69L5.28822 1.68963C5.20606 1.67065 5.12391 1.65167 5.04432 1.63012L5.01685 1.62255C4.98048 1.61242 4.94483 1.60162 4.91004 1.59002C4.72999 1.52002 4.54993 1.44 4.37 1.35998C4.35572 1.35522 4.34364 1.35046 4.3318 1.3446C4.31873 1.33819 4.30579 1.3305 4.29005 1.32C3.72999 1.02002 3.05994 0.989986 2.50001 1.32C2.02003 1.60998 1.75001 2.07 1.64002 2.60998C1.55433 3.05267 1.54517 3.50555 1.5359 3.9577C1.53223 4.13879 1.52857 4.31982 1.52003 4.5C1.51051 4.85144 1.49195 5.20288 1.47291 5.56292L1.46998 5.61999C1.4618 5.77722 1.45399 5.93402 1.44654 6.09045C1.43604 6.30828 1.42603 6.52545 1.41615 6.74224C1.39832 7.13238 1.3805 7.52117 1.35999 7.90997L1.34473 8.1878L1.3318 8.41656C1.3202 8.62127 1.30824 8.8258 1.29627 9.03021C1.24232 9.95324 1.18861 10.8741 1.16004 11.8C1.14881 12.1903 1.13441 12.5823 1.12 12.9749L1.11964 12.9842V12.989L1.11927 12.9943C1.08253 13.9935 1.04566 14.9968 1.06007 15.99C1.06776 16.2902 1.068 16.5933 1.06825 16.8972C1.06873 17.3827 1.06922 17.8702 1.09998 18.35L1.21998 20.24V20.74C1.21998 21.7 2.03004 22.51 3.02003 22.5C3.99 22.5 4.79005 21.69 4.79005 20.73C4.79005 20.4 4.77003 20.06 4.75001 19.73C4.66004 18.34 4.63001 16.96 4.60999 15.57C4.60279 15.1343 4.62122 14.6985 4.63966 14.2628L4.64796 14.0655C4.65235 13.957 4.6565 13.8485 4.66004 13.74C4.6637 13.6191 4.66676 13.4982 4.66944 13.3774C4.67164 13.2778 4.67359 13.1783 4.67555 13.0787C4.68446 12.6392 4.69337 12.1996 4.71998 11.76C4.75318 11.1531 4.78407 10.5462 4.81385 9.93823C5.07398 10.3949 5.36756 10.8365 5.67005 11.26C6.67005 12.65 7.81007 13.9 9.03004 15.1C10.1848 16.2352 11.349 17.3415 12.5227 18.4568L12.5432 18.4764L12.6 18.53C14.0046 19.8632 15.3212 21.2783 16.6394 22.6953C16.9823 23.0638 17.3253 23.4326 17.6701 23.8L17.66 23.79C19.0378 25.3771 20.4092 26.9707 21.7808 28.5646C23.7291 30.8289 25.678 33.0936 27.6466 35.3414C25.8698 37.2081 24.0952 39.0764 22.3206 40.9449C21.0208 42.3134 19.721 43.6819 18.4201 45.05C15.75 47.86 13.0701 50.66 10.39 53.46C9.01002 54.9 7.62 56.33 6.22999 57.75C5.5503 58.4458 4.87049 59.1416 4.18006 59.8282L4.19984 59.5446C4.21034 59.3943 4.22083 59.2441 4.23072 59.0939C4.23743 58.9926 4.2439 58.8913 4.25001 58.79V58.73C4.25001 58.7167 4.2505 58.7035 4.25123 58.6902C4.25233 58.6713 4.25404 58.6523 4.25562 58.6333C4.25782 58.6055 4.26002 58.5778 4.26002 58.55V58.5C4.27003 58.48 4.27003 58.45 4.27003 58.43V58.42C4.3462 57.3531 4.47462 56.2805 4.6023 55.2153L4.60853 55.1625C4.64625 54.8476 4.68385 54.5333 4.71998 54.22L4.93006 52.33L5.05006 51.19C5.12013 50.58 5.19007 49.91 5.09998 49.3C4.95997 48.34 4.06007 47.65 3.09998 47.78C2.19996 47.9 1.51002 48.74 1.57996 49.65V49.659C1.57996 49.863 1.57996 50.0617 1.57191 50.259C1.57032 50.2997 1.56837 50.3404 1.56593 50.381C1.56422 50.4106 1.56226 50.4403 1.56007 50.47C1.46253 51.705 1.30909 52.9335 1.15565 54.1616L1.15492 54.166L1.15455 54.1696C0.977669 55.5839 0.800789 56.9976 0.709969 58.42L0.60328 59.8976C0.593636 59.9842 0.586556 60.0707 0.580574 60.1574C0.57679 60.2116 0.573372 60.2658 0.569954 60.32C0.579964 60.24 0.579964 60.16 0.589974 60.08C0.479989 61.53 0.480111 63.01 0.550057 64.46L0.556771 64.562C0.583626 64.9738 0.609139 65.3627 0.719979 65.76C0.810067 66.07 0.970101 66.31 1.18006 66.55C1.68006 67.13 2.35999 67.39 3.10999 67.45C3.95301 67.524 4.81239 67.5049 5.66798 67.4859H5.67091C5.97132 67.4792 6.27137 67.4726 6.56995 67.47C7.90003 67.46 9.23011 67.48 10.5601 67.5C11.6901 67.52 12.8101 67.54 13.98 67.57H14.59C15.5601 67.56 16.36 66.77 16.36 65.8C16.36 64.84 15.5501 64.03 14.59 64.03C12.89 64.04 11.2001 64.02 9.50001 63.99C8.68006 63.97 7.86012 63.96 7.04005 63.96C6.65247 63.96 6.26331 63.9664 5.87391 63.9728C5.55689 63.978 5.23951 63.9832 4.92274 63.985C5.24097 63.6921 5.55286 63.3909 5.86158 63.0878C6.18006 62.775 6.49513 62.4602 6.81007 62.15C8.97681 60.0287 11.069 57.8385 13.1604 55.649C13.8296 54.9485 14.4987 54.248 15.1701 53.55C16.0466 52.6346 16.9207 51.7178 17.7936 50.8007C18.3975 50.1663 19.0007 49.5317 19.6039 48.8973L19.639 48.8603C20.619 47.8295 21.5988 46.7989 22.58 45.77L29.9756 37.9799C30.39 38.4453 30.8055 38.9097 31.2225 39.3729C31.941 40.2094 32.6631 41.0413 33.3848 41.8726L33.4305 41.9252L33.4349 41.931C34.7454 43.4402 36.0547 44.9481 37.34 46.48C37.4982 46.6708 37.6567 46.8614 37.8154 47.0517C38.0277 47.3063 38.2404 47.5605 38.4529 47.8146L38.4595 47.8227C39.3014 48.8292 40.1427 49.835 40.96 50.86C41.1958 51.1582 41.4325 51.456 41.6694 51.7537C41.8512 51.9821 42.0332 52.2104 42.2152 52.4387C43.0527 53.4895 43.8903 54.5403 44.71 55.6C45.38 56.46 46.0399 57.33 46.72 58.19C47.0957 58.6612 47.4857 59.1252 47.8751 59.5886L47.881 59.5959C48.1425 59.9069 48.4037 60.2176 48.66 60.53C48.8229 60.7255 48.9946 60.912 49.1687 61.0962C49.2346 61.1659 49.3009 61.2353 49.3672 61.3046L49.4828 61.4257L49.5103 61.4547L49.5747 61.5226L49.61 61.56L49.6126 61.5627C49.8872 61.857 50.1619 62.1512 50.4556 62.4266C49.927 62.3875 49.3986 62.3538 48.87 62.32C48.5543 62.2968 48.2369 62.277 47.919 62.2571C47.1388 62.2084 46.3544 62.1595 45.58 62.06C45.27 61.8 44.88 61.64 44.45 61.64H44.27C44.0701 61.61 43.8701 61.61 43.66 61.64C42.9901 61.74 42.33 62.24 42.1899 62.92L42.184 62.9372C42.1764 62.9585 42.1701 62.9761 42.1701 63C41.9501 63.99 42.4501 64.85 43.4 65.18C44.6674 65.6051 46.044 65.6828 47.3908 65.7588C47.723 65.7776 48.0535 65.7963 48.38 65.82L48.4309 65.8235C49.4542 65.8923 50.4871 65.9618 51.51 66.07C52.0906 66.1311 52.6687 66.1974 53.2468 66.2676C53.8037 66.3352 54.3606 66.4064 54.9201 66.48C55.0659 66.499 55.2128 66.519 55.36 66.5391C55.6773 66.5824 55.996 66.6258 56.3101 66.66L56.4365 66.6747C56.7448 66.711 57.0558 66.7476 57.39 66.73C57.6101 66.73 57.8201 66.71 58.03 66.66C58.91 66.42 59.3801 65.58 59.3101 64.71C59.3001 64.62 59.28 64.52 59.26 64.42C59.2526 64.0006 59.2787 63.5812 59.3048 63.1619C59.3136 63.0212 59.3224 62.8806 59.33 62.74C59.3449 62.4367 59.3623 62.1359 59.3798 61.8351C59.3975 61.5309 59.415 61.2267 59.4301 60.92C59.46 60.2784 59.473 59.6313 59.4861 58.9869C59.4905 58.7675 59.4949 58.5485 59.5 58.33C59.5269 57.0716 59.5447 55.8132 59.5625 54.5547C59.5713 53.9332 59.5801 53.3116 59.59 52.69C59.64 49.27 59.8301 45.85 60.0601 42.44C60.0501 42.52 60.0501 42.6 60.04 42.68C60.0462 42.577 60.0521 42.4741 60.0603 42.3733C60.0657 42.3077 60.072 42.2431 60.08 42.18C60.11 41.7 60.02 41.25 59.72 40.86C59.4401 40.5 59.0201 40.25 58.5601 40.19C57.6502 40.07 56.6301 40.75 56.5601 41.71C56.29 45.4 56.0901 49.11 56.04 52.81C56.0101 54.83 55.9801 56.84 55.9301 58.86C55.9202 59.1416 55.9125 59.4232 55.9047 59.7048C55.889 60.2732 55.8734 60.8416 55.84 61.41L55.8246 61.6819C55.8003 62.1139 55.7758 62.5471 55.7514 62.9868C55.6987 62.5233 55.4662 62.079 55.08 61.77C54.9493 61.6621 54.8187 61.5542 54.6881 61.4444C54.5888 61.3609 54.4894 61.2764 54.39 61.19C53.8422 60.702 53.3142 60.2039 52.7863 59.7059L52.78 59.7C52.4802 59.4135 52.1981 59.1092 51.916 58.8049C51.7748 58.6525 51.6336 58.5001 51.49 58.35L51.2125 58.0154C50.9323 57.6774 50.6506 57.3377 50.3693 56.9972C50.1088 56.6819 49.8485 56.366 49.59 56.05C49.02 55.37 48.49 54.64 47.95 53.94C46.74 52.38 45.52 50.85 44.29 49.31C42.01 46.45 39.64 43.66 37.25 40.89L36.6648 40.2152C35.2643 38.6 33.8624 36.9835 32.4509 35.3755L32.799 35.01C34.8311 32.8751 36.8632 30.7402 38.9301 28.64C40.5901 26.97 42.25 25.3 43.91 23.62C45.1701 22.34 46.46 21.11 47.75 19.86C49.13 18.52 50.52 17.2 51.9201 15.89C53.27 14.6301 54.64 13.39 56.01 12.16C57.0501 11.28 58.09 10.41 59.14 9.54998C60.01 8.84002 60.9099 8.13 61.83 7.48999C62.1161 7.29925 62.3882 7.09924 62.6465 6.87732C62.6768 7.64929 62.6647 8.41461 62.63 9.17999C62.52 10.5 62.41 11.81 62.27 13.13C62.2023 13.7392 62.1533 14.3484 62.1051 14.9485L62.1 15.01C62.0399 15.67 62.01 16.31 62.11 16.96Z"
    fill="rgba(191, 192, 191, 1)" />
</svg>