<svg width="81" height="85" viewBox="0 0 81 85" fill="none" xmlns="http://www.w3.org/2000/svg">
  <path
    d="M2.46002 77.05C1.54002 76.93 0.770009 76 0.950009 75.06C1.04001 74.57 1.24997 74.15 1.59997 73.79C2.35997 73.02 3.24999 72.37 4.11999 71.74C4.90999 71.16 5.7 70.57 6.5 70C8.2 68.79 9.89998 67.6 11.61 66.41C14.56 64.37 17.52 62.34 20.45 60.26C20.26 59.99 20.06 59.72 19.88 59.46C19.43 58.82 18.97 58.17 18.56 57.5C18.09 56.71 17.61 55.93 17.15 55.15C16.82 54.6 16.5 54.04 16.19 53.49C15.98 53.1 15.76 52.72 15.54 52.33C15.35 52 15.19 51.67 15.09 51.33C14.79 50.6 14.96 49.76 15.63 49.24C15.98 48.96 16.42 48.84 16.86 48.88C18.56 48.74 20.25 48.41 21.96 48.33C22.89 48.29 23.8 48.24 24.73 48.25C25.79 48.26 26.85 48.29 27.91 48.34C28.8 48.38 29.69 48.43 30.58 48.48C31.96 48.56 33.39 48.66 34.72 49.05C35.58 49.3 36.32 49.97 36.32 50.92C36.32 51.4 36.14 51.82 35.89 52.21C36.04 52.77 35.99 53.38 35.89 53.94C35.73 54.87 35.37 55.79 35.09 56.69C34.75 57.82 34.48 58.97 34.2 60.12C33.93 61.64 33.65 63.17 33.4 64.69C33.28 65.45 33.14 66.2 33 66.96C32.93 67.29 32.87 67.62 32.8 67.96C32.75 68.19 32.71 68.43 32.67 68.67C32.6 69.14 32.43 69.55 32.13 69.91C31.55 70.62 30.38 70.88 29.65 70.23C29.4 70.02 29.19 69.79 28.97 69.55C28.01 68.5 27 67.51 25.98 66.52C24.83 65.41 23.73 64.25 22.68 63.05C20.05 64.93 17.38 66.76 14.71 68.59C13.23 69.6 11.77 70.62 10.31 71.65C9.56999 72.18 8.82997 72.7 8.09997 73.24C6.84997 74.15 5.57001 75.05 4.39001 76.05C4.44001 76 4.49999 75.95 4.55999 75.9C4.44999 75.99 4.34999 76.09 4.23999 76.19C3.92999 76.73 3.37997 77.09 2.71997 77.09C2.61997 77.07 2.54002 77.06 2.46002 77.05ZM28.96 58.48C27.83 59.32 26.68 60.14 25.54 60.96C25.6 61.03 25.66 61.1 25.73 61.18C26.75 62.32 27.85 63.41 28.95 64.47C29.2 64.71 29.45 64.96 29.7 65.2C29.72 65.1 29.73 65 29.75 64.9C29.96 63.63 30.17 62.37 30.4 61.11C30.51 60.49 30.59 59.85 30.74 59.23C30.91 58.56 31.08 57.89 31.24 57.22C31.29 57.02 31.34 56.82 31.39 56.62C30.6 57.27 29.78 57.87 28.96 58.48ZM23.34 58.19C24.08 57.65 24.81 57.12 25.55 56.58C27.03 55.51 28.5 54.42 29.93 53.28C30.38 52.88 30.82 52.48 31.26 52.07C31.03 52.05 30.79 52.03 30.56 52.02C29.08 51.93 27.61 51.86 26.13 51.81C24.78 51.76 23.43 51.81 22.09 51.86C21.22 51.95 20.35 52.04 19.48 52.14C20.35 53.68 21.25 55.19 22.23 56.65C22.19 56.59 22.14 56.53 22.1 56.46C22.5 57.04 22.91 57.62 23.34 58.19Z"
    fill="rgba(191, 192, 191, 1)" />
  <path
    d="M45.06 36.49C45.04 36.49 45.02 36.48 45 36.47C44.41 36.33 43.92 35.81 43.77 35.24C43.66 34.83 43.7 34.4 43.87 34.03C43.69 33.76 43.52 33.5 43.35 33.24C42.38 31.81 41.43 30.36 40.3 29.05C39.92 28.63 39.53 28.23 39.12 27.85C38.23 27.1 37.25 26.5 36.32 25.81C35.68 25.33 34.98 24.86 34.41 24.3C33.8 23.71 33.69 22.62 34.26 21.97C34.48 21.72 34.7 21.51 35.01 21.37C35.33 21.24 35.66 21.21 36 21.19C35.92 21.19 35.84 21.2 35.76 21.21C36.94 21.09 38.13 21.08 39.31 21.09C40.43 21.1 41.53 21.21 42.65 21.3C43.66 21.39 44.67 21.51 45.68 21.63C45.82 21.65 45.96 21.66 46.09 21.68C46.64 18.2 47.16 14.73 47.56 11.23C47.72 9.78999 47.85 8.35003 47.98 6.90003C48.07 5.51003 48.2 4.11999 48.14 2.72999C48.14 2.70999 48.13 2.7 48.13 2.68C48.04 2.31 48.06 1.91002 48.21 1.57002C48.6 0.640016 49.62 0.300003 50.53 0.620003C51.24 0.880003 51.55 1.59004 51.65 2.28004C51.74 2.85004 51.7 3.47 51.69 4.05C51.69 4.3 51.67 4.55 51.65 4.8C51.59 5.78 51.54 6.77001 51.45 7.75001C51.26 9.82001 51.05 11.88 50.81 13.95C50.5 16.61 50.07 19.26 49.65 21.91C50.04 21.92 50.42 21.92 50.81 21.91C51.89 21.87 52.98 21.81 54.06 21.82C55.06 21.83 56.27 21.93 57.02 22.68C57.69 23.34 57.91 24.33 57.57 25.22C57.19 26.2 56.4 26.84 55.61 27.49C55.23 27.79 54.86 28.09 54.49 28.39C53.85 28.96 53.22 29.53 52.62 30.15C51.92 30.87 51.23 31.6 50.55 32.33C49.97 32.96 49.36 33.57 48.73 34.15C48.71 34.61 48.61 35.06 48.33 35.43C47.95 35.92 47.42 36.11 46.83 36.14C46.91 36.14 46.99 36.13 47.07 36.12C46.93 36.14 46.78 36.15 46.65 36.15C46.33 36.4 45.93 36.54 45.52 36.54C45.36 36.54 45.21 36.52 45.06 36.49ZM42.41 26.11C43.49 27.22 44.38 28.49 45.25 29.76C45.26 29.49 45.27 29.23 45.28 28.96C45.34 27.84 45.41 26.74 45.52 25.63C45.54 25.48 45.55 25.33 45.57 25.17C44.78 25.09 43.98 25 43.19 24.91C42.41 24.82 41.63 24.76 40.85 24.7C41.39 25.13 41.91 25.6 42.41 26.11ZM49.1 25.53C49.01 26.17 48.96 26.81 48.9 27.45C48.87 27.96 48.85 28.47 48.83 28.97C49.51 28.24 50.18 27.49 50.92 26.83C51.38 26.41 51.83 25.97 52.32 25.58C52.41 25.51 52.49 25.44 52.58 25.37C51.89 25.39 51.2 25.43 50.52 25.45C50.05 25.47 49.58 25.45 49.11 25.43C49.11 25.46 49.1 25.5 49.1 25.53Z"
    fill="rgba(191, 192, 191, 1)" />
  <path
    d="M76.19 81.46C75.8 80.62 75.44 79.76 75.06 78.91C74.72 78.26 74.41 77.59 74.02 76.97C73.56 76.22 73.09 75.47 72.63 74.73C71.08 72.48 69.56 70.22 68.02 67.96C67.69 67.48 67.38 66.97 67.03 66.5C66.5 65.81 65.98 65.12 65.45 64.44C64.73 63.5 63.95 62.62 63.18 61.72C62.75 62.11 62.32 62.51 61.89 62.89C60.44 64.15 59.01 65.43 57.45 66.54C56.97 66.88 56.49 67.23 55.99 67.56C55.17 68.1 54.01 68.74 53.05 68.13C52.67 67.89 52.36 67.63 52.18 67.21C52.02 66.83 51.95 66.43 51.91 66.02C51.86 65.45 51.82 64.88 51.79 64.31C51.66 62.35 51.65 60.38 51.59 58.42C51.55 57.06 51.5 55.69 51.48 54.33C51.46 53.21 51.43 52.09 51.48 50.97C51.51 50.3 51.54 49.59 51.74 48.93C51.31 48.7 50.92 48.39 50.56 48.08C49.83 47.45 49.62 46.39 50.24 45.6C50.8 44.87 51.99 44.65 52.72 45.28C52.9 45.44 53.08 45.58 53.27 45.73C53.32 45.77 53.38 45.8 53.44 45.83C53.47 45.84 53.5 45.85 53.53 45.87C53.58 45.89 53.64 45.9 53.69 45.92C54.06 45.98 54.42 46.03 54.79 46.06C54.71 46.05 54.63 46.05 54.55 46.04C56.78 46.18 59.03 46.46 61.2 47.06C62.27 47.36 63.34 47.65 64.41 47.94C65.37 48.21 66.33 48.46 67.29 48.72C68.04 48.92 68.81 49.08 69.58 49.24C69.94 49.3 70.29 49.36 70.66 49.41C71.14 49.48 71.55 49.55 71.95 49.84C72.66 50.36 72.8 51.32 72.43 52.07C72.21 52.55 71.98 52.99 71.67 53.42C71.18 54.11 70.61 54.74 70.06 55.37C69.45 56.07 68.81 56.73 68.12 57.35C67.42 57.99 66.71 58.59 65.99 59.2C65.92 59.25 65.86 59.31 65.79 59.37C66.42 60.09 67.03 60.83 67.66 61.57C68.28 62.3 68.83 63.09 69.41 63.85C69.93 64.53 70.41 65.25 70.89 65.96C71.92 67.48 72.94 69 73.98 70.51C74.55 71.35 75.16 72.17 75.7 73.03C76.21 73.86 76.75 74.67 77.22 75.53C77.57 76.19 77.97 76.84 78.27 77.53C78.68 78.45 79.08 79.39 79.5 80.31C79.57 80.43 79.63 80.56 79.7 80.69C80.28 80.98 80.68 81.58 80.68 82.26C80.68 83.22 79.87 84.03 78.91 84.03C77.49 84.01 76.73 82.63 76.19 81.46ZM55.06 54.83C55.09 55.92 55.12 57.02 55.15 58.11C55.2 59.98 55.24 61.84 55.33 63.71C55.44 63.63 55.55 63.55 55.66 63.48C56.18 63.11 56.68 62.68 57.18 62.28C58.03 61.61 58.83 60.87 59.65 60.16C60.05 59.79 60.45 59.43 60.86 59.07C60.7 58.91 60.56 58.73 60.41 58.55C60.14 58.25 59.87 57.94 59.6 57.64C59.52 57.55 59.44 57.46 59.36 57.37C59.36 57.37 59.37 57.38 59.38 57.38C57.99 55.78 56.93 53.92 55.54 52.31C55.38 52.14 55.21 51.97 55.04 51.81C55 52.82 55.03 53.83 55.06 54.83ZM62.28 55.36C62.46 55.54 62.62 55.74 62.78 55.93C63.01 56.2 63.25 56.46 63.48 56.72C64.07 56.2 64.66 55.69 65.26 55.18C65.6 54.87 65.94 54.56 66.27 54.25C66.57 53.97 66.85 53.65 67.14 53.34C67.12 53.36 67.1 53.39 67.08 53.41C67.36 53.09 67.64 52.78 67.91 52.46C67.86 52.45 67.82 52.44 67.77 52.43C66.87 52.23 65.99 52 65.1 51.76C62.98 51.18 60.87 50.54 58.72 50.09C58.54 50.05 58.37 50.02 58.19 49.99C58.53 50.37 58.85 50.77 59.15 51.18C59.65 51.86 60.11 52.59 60.63 53.26C61.12 53.89 61.61 54.52 62.11 55.15C62.11 55.15 62.1 55.14 62.09 55.13C62.1 55.14 62.11 55.16 62.12 55.17C62.13 55.18 62.14 55.19 62.14 55.19C62.15 55.21 62.17 55.22 62.18 55.23C62.17 55.22 62.16 55.21 62.15 55.2C62.2 55.27 62.24 55.31 62.28 55.36Z"
    fill="rgba(191, 192, 191, 1)" />
  <path d="M62.12 55.19L62.13 55.2C62.13 55.19 62.13 55.19 62.12 55.19Z" fill="rgba(191, 192, 191, 1)" />
  <path d="M62.11 55.17L62.12 55.18C62.12 55.17 62.12 55.17 62.11 55.17Z" fill="rgba(191, 192, 191, 1)" />
</svg>