<svg width="80" height="62" viewBox="0 0 80 62" fill="none" xmlns="http://www.w3.org/2000/svg">
  <path
    d="M6.64001 61.02C5.60001 60.76 4.59001 60.36 3.58001 60C2.57001 59.64 1.39001 59.32 0.660013 58.5C0.200013 57.99 0.0300024 57.35 0.180002 56.68C0.210002 56.55 0.260017 56.43 0.320017 56.32C0.570017 55.52 1.41001 54.98 2.25001 55.09C2.93001 55.18 3.45001 55.65 3.67001 56.25C4.47001 56.58 5.30001 56.85 6.11001 57.13C6.10001 57.13 6.09001 57.13 6.09001 57.13C6.12001 57.14 6.14001 57.15 6.17001 57.15C6.19001 57.16 6.20001 57.16 6.22001 57.17C6.24001 57.17 6.26001 57.18 6.27001 57.19H6.26C6.27 57.19 6.28001 57.19 6.30001 57.2C6.30001 57.2 6.31001 57.2 6.31001 57.21C7.04001 57.45 7.77001 57.66 8.52001 57.83C9.31001 57.98 10.09 58.1 10.89 58.17C11.26 58.19 11.62 58.18 11.99 58.17C12.93 58.09 13.87 57.95 14.79 57.78C16.34 57.46 17.9 57.15 19.43 56.73C20.26 56.5 21.12 56.31 21.95 56.03C22.77 55.76 23.6 55.48 24.41 55.2C25.3 54.84 26.2 54.48 27.09 54.11C27.54 53.93 27.98 53.69 28.43 53.48C28.84 53.29 29.26 53.09 29.68 52.9C30.97 52.22 32.23 51.54 33.49 50.8C34.78 50.04 36.03 49.24 37.28 48.43C38.08 47.85 38.88 47.26 39.68 46.68C40.09 46.38 40.47 46.04 40.86 45.72C41.25 45.4 41.64 45.09 42.03 44.77C43.05 43.86 44.05 42.97 45.02 42.01C46.06 41 47.04 39.96 48.03 38.9C49.16 37.6 50.27 36.28 51.36 34.95C52.38 33.7 53.29 32.36 54.2 31.03C54.79 30.1 55.38 29.17 55.92 28.21C56.48 27.23 56.99 26.24 57.5 25.24C57.92 24.31 58.34 23.38 58.71 22.44C59.07 21.52 59.4 20.6 59.73 19.66C60.46 17.33 61.22 14.99 61.71 12.6C61.69 12.68 61.67 12.75 61.66 12.83C61.72 12.45 61.77 12.07 61.81 11.69C61.84 11.04 61.85 10.39 61.83 9.72998C61.82 8.76998 62.65 7.96002 63.6 7.96002C64.58 7.96002 65.36 8.75998 65.37 9.72998C65.39 11.32 65.32 12.89 64.93 14.44C64.45 16.31 63.91 18.15 63.32 19.99C62.76 21.76 62.13 23.52 61.37 25.22C60.93 26.21 60.46 27.17 59.98 28.13C59.53 29.01 59.03 29.86 58.55 30.72C58.37 31.03 58.17 31.33 57.98 31.64C57.68 32.11 57.4 32.59 57.08 33.05C56.58 33.78 56.1 34.52 55.57 35.23C54.39 36.78 53.2 38.32 51.92 39.8C49.33 42.77 46.59 45.61 43.53 48.1C42.02 49.33 40.49 50.56 38.85 51.62C38.04 52.14 37.24 52.69 36.41 53.18C35.58 53.67 34.75 54.2 33.9 54.65C32.97 55.14 32.06 55.68 31.11 56.13C30.22 56.55 29.33 56.96 28.44 57.38C28.03 57.58 27.58 57.73 27.16 57.9C26.68 58.1 26.2 58.29 25.71 58.49C25.28 58.67 24.83 58.79 24.39 58.94C23.87 59.12 23.34 59.29 22.82 59.47C22.07 59.72 21.29 59.89 20.53 60.1C19.86 60.28 19.18 60.43 18.5 60.6C16.46 61.08 14.39 61.54 12.31 61.7C11.99 61.73 11.67 61.74 11.35 61.74C9.78002 61.71 8.18001 61.42 6.64001 61.02Z"
    fill="rgba(191, 192, 191, 1)" />
  <path d="M6.27002 57.21H6.28001C6.28001 57.21 6.28001 57.21 6.29001 57.21C6.28001 57.21 6.28002 57.21 6.27002 57.21Z"
    fill="rgba(191, 192, 191, 1)" />
  <path d="M6.25002 57.2H6.26001C6.26001 57.2 6.26002 57.2 6.25002 57.2Z" fill="rgba(191, 192, 191, 1)" />
  <path d="M6.15001 57.16C6.13001 57.15 6.11002 57.15 6.10002 57.14C6.12002 57.15 6.13001 57.16 6.15001 57.16Z"
    fill="rgba(191, 192, 191, 1)" />
  <path
    d="M76.39 32.94C76.39 32.89 76.39 32.85 76.38 32.81C76.18 30.2 75.7 27.64 75.26 25.06C75.04 23.74 74.87 22.42 74.67 21.09C74.46 19.68 74.22 18.28 73.97 16.87C73.79 16.12 73.61 15.37 73.43 14.63C73.34 14.27 73.21 13.93 73.09 13.58C72.98 13.22 72.86 12.87 72.75 12.51C72.5 11.85 72.25 11.2 71.99 10.54C71.76 9.93995 71.47 9.36 71.2 8.77C70.78 8.01 70.38 7.25001 69.9 6.53001C69.66 6.19001 69.41 5.86997 69.14 5.54996C69 5.40997 68.85 5.25997 68.7 5.11997C68.61 5.04997 68.52 4.97995 68.43 4.90995C68.34 4.84995 68.24 4.78997 68.14 4.73997C68.04 4.68997 67.94 4.64996 67.83 4.60996C67.61 4.53996 67.39 4.47997 67.17 4.42997C66.8 4.36997 66.44 4.31996 66.07 4.28996C65.65 4.26996 65.23 4.26996 64.8 4.28996C64.82 4.28996 64.84 4.29001 64.85 4.28001C64.39 4.32001 63.93 4.38 63.47 4.46C63.06 4.55 62.65 4.66996 62.25 4.79996C61.66 5.01996 61.09 5.27996 60.53 5.54996C60.18 5.74996 59.82 5.93999 59.47 6.13999C59.09 6.34999 58.74 6.60995 58.39 6.84995H58.4C57.99 7.15995 57.57 7.47996 57.16 7.79996C56.68 8.22996 56.2 8.64 55.75 9.09C55.15 9.69 54.57 10.29 53.98 10.91C53.03 11.91 52.1 12.92 51.18 13.94C49.88 15.43 48.63 16.95 47.39 18.49C46.1 20.1 44.75 21.67 43.55 23.35C43.44 23.54 43.32 23.7199 43.21 23.91C43.2 23.93 43.19 23.94 43.19 23.96C42.97 24.8 42.12 25.38 41.24 25.26C40.28 25.13 39.6 24.22 39.73 23.26C39.8 22.75 40.06 22.28 40.32 21.85C40.59 21.41 40.88 20.97 41.19 20.56C41.77 19.81 42.37 19.07 42.96 18.33C44.17 16.84 45.35 15.34 46.57 13.86C47.79 12.39 49.07 10.97 50.37 9.56998C51.05 8.84998 51.73 8.12995 52.41 7.40995C53.09 6.68995 53.81 6.02998 54.55 5.37998C55.27 4.73998 56.04 4.15998 56.85 3.62998C57.67 3.07998 58.51 2.57995 59.41 2.15995C60.11 1.83995 60.8 1.54997 61.53 1.30997C62.69 0.919975 63.92 0.769948 65.15 0.719948C66.37 0.669948 67.66 0.819989 68.83 1.19999C69.96 1.55999 70.9 2.24996 71.71 3.10996C72.8 4.26996 73.55 5.66997 74.3 7.05997C74.54 7.49997 74.72 7.96996 74.93 8.41996C75.1 8.78996 75.26 9.15996 75.41 9.53996C75.78 10.51 76.14 11.47 76.46 12.46C76.59 12.87 76.75 13.28 76.85 13.69C76.99 14.26 77.12 14.83 77.26 15.41C77.62 16.92 77.85 18.46 78.09 20C78.32 21.51 78.54 23.03 78.77 24.54C78.99 26.01 79.27 27.47 79.51 28.93C79.62 29.62 79.7 30.32 79.77 31.01C79.84 31.64 79.93 32.28 79.93 32.91C79.94 33.8699 79.12 34.68 78.16 34.68C77.19 34.72 76.4 33.91 76.39 32.94Z"
    fill="rgba(191, 192, 191, 1)" />
  <path d="M58.44 6.84998L58.43 6.85999C58.43 6.84999 58.43 6.84998 58.44 6.84998Z" fill="rgba(191, 192, 191, 1)" />
</svg>