<svg width="78" height="84" viewBox="0 0 78 84" fill="none" xmlns="http://www.w3.org/2000/svg">
  <path
    d="M43.1501 41.05C42.18 40.92 41.53 40.01 41.64 39.05C41.7 38.55 42.01 38.16 42.32 37.8C42.58 37.49 42.85 37.18 43.12 36.88C43.72 36.21 44.3201 35.55 44.9301 34.88C46.0701 33.62 47.21 32.34 48.34 31.07C48.34 31.07 48.33 31.08 48.32 31.09C48.34 31.07 48.35 31.06 48.36 31.04C48.38 31.02 48.3901 31 48.4101 30.98C51.0101 28.01 53.55 24.98 56.12 21.99C58.23 19.53 60.37 17.1 62.49 14.66C61.79 14.16 61.1101 13.63 60.4301 13.13C59.7801 12.65 59.14 12.16 58.5 11.66C57.01 10.5 55.53 9.30997 54.02 8.16997C53.2 7.54997 52.3 6.95996 51.64 6.15996L51.6501 6.16997C51.4901 5.97997 51.3801 5.76 51.2901 5.51C50.9401 4.5 51.76 3.42999 52.75 3.27999C52.83 3.26999 52.91 3.26 53 3.26C53.69 3.2 54.3801 3.08999 55.0601 2.99999C56.0201 2.86999 56.99 2.72998 57.95 2.57998C59.93 2.25998 61.9 1.87999 63.86 1.52999C66.93 0.979989 70.0401 0.619988 73.1601 0.809988C73.7201 0.839988 74.27 0.909981 74.82 0.989981C75.28 1.05998 75.7 1.22999 76.12 1.43999C76.48 1.61999 76.82 2.03999 76.98 2.40999C77.18 2.87999 77.16 3.43001 76.96 3.89001C76.73 4.45001 76.2401 4.83999 75.8101 5.24999C75.7801 5.27999 75.76 5.30001 75.72 5.33001C75.94 5.70001 76.13 6.08999 76.24 6.49999C76.45 7.24999 76.5101 8.00002 76.5501 8.78002C76.5901 9.39002 76.6 10.01 76.62 10.62C76.66 11.67 76.7 12.71 76.76 13.76C76.83 15.05 76.89 16.34 76.95 17.64C76.97 18.14 76.99 18.63 77 19.12C77.02 20.05 77.1001 21 76.9301 21.92C76.7701 22.76 76.0801 23.49 75.1801 23.45C74.8001 23.43 74.44 23.4 74.1 23.2C73.83 23.04 73.62 22.82 73.39 22.61C73.1 22.34 72.8 22.07 72.5 21.81C71.07 20.64 69.59 19.55 68.07 18.51C67.19 17.9 66.3001 17.29 65.4201 16.68C64.9701 17.2 64.52 17.71 64.07 18.23C61.55 21.11 59.0301 23.99 56.5501 26.91C54.6901 29.1 52.8401 31.31 50.9301 33.46C49.0901 35.53 47.23 37.59 45.37 39.65C45.2 39.85 45.02 40.05 44.86 40.26C44.54 40.75 43.97 41.07 43.36 41.07C43.31 41.07 43.2301 41.06 43.1501 41.05ZM71.44 9.68999C70.21 11.12 68.98 12.57 67.75 14C69.66 15.32 71.5801 16.62 73.4301 18.02C73.4301 17.95 73.4201 17.88 73.4201 17.8C73.3701 16.74 73.33 15.68 73.2701 14.61C73.16 12.48 73.12 10.34 72.99 8.21001C72.99 8.15001 72.98 8.09997 72.97 8.03997C72.46 8.58997 71.95 9.12999 71.44 9.68999ZM69.73 4.34997C66.6 4.57997 63.5001 5.22001 60.4201 5.77001C59.4001 5.95001 58.38 6.12002 57.36 6.28002C57.93 6.72002 58.4901 7.15998 59.0601 7.60998C59.9901 8.32998 60.91 9.06001 61.84 9.77001C62.58 10.35 63.35 10.88 64.11 11.44C64.36 11.62 64.61 11.8 64.86 11.98C66.15 10.49 67.42 8.97998 68.7 7.48998C69.53 6.51998 70.4101 5.6 71.3101 4.7C71.4401 4.57 71.56 4.44 71.7 4.32C71.03 4.3 70.38 4.30997 69.73 4.34997C69.78 4.34997 69.84 4.34002 69.88 4.34002C69.83 4.34002 69.78 4.33997 69.73 4.34997Z"
    fill="rgba(191, 192, 191, 1)" />
  <path
    d="M13.33 83.54C12.07 83.24 10.85 82.8 9.59 82.51C9.53 82.5 9.46994 82.48 9.40994 82.47C9.45994 82.49 9.51999 82.5 9.57999 82.51C9.00999 82.39 8.43996 82.31 7.85996 82.26C7.24996 82.24 6.64995 82.24 6.03995 82.28C6.02995 82.28 6.01999 82.28 6.01999 82.28C5.96999 82.28 5.90996 82.29 5.85996 82.29C5.90996 82.29 5.96999 82.29 6.01999 82.28C5.56999 82.32 5.12996 82.35 4.67996 82.38C4.42996 82.4 4.19995 82.34 3.97995 82.25C3.88995 82.33 3.80999 82.4 3.70999 82.46C3.10999 82.86 2.37996 82.96 1.73996 82.58C1.11996 82.22 0.789975 81.52 0.879975 80.81C0.909975 80.55 0.949951 80.29 0.979951 80.03C0.979951 79.94 0.979951 79.85 0.979951 79.76C0.899951 79.09 0.78999 78.42 0.76999 77.76C0.74999 77.01 0.809985 76.27 0.889985 75.52C1.06998 73.98 1.48996 72.48 1.92996 71C2.44996 69.26 3.09999 67.59 3.76999 65.9C4.53999 63.94 5.46995 62.03 6.41995 60.15C6.77995 59.45 7.68995 59.14 8.41995 59.34C9.19995 59.55 9.69994 60.26 9.71994 61.05C9.71994 61.32 9.69996 61.58 9.67996 61.85C9.66996 62.23 9.66997 62.6 9.68997 62.97C9.72997 63.34 9.77995 63.7 9.84995 64.06C9.95995 64.57 10.1 65.07 10.26 65.57C10.53 66.3 10.83 67.02 11.17 67.73C11.47 68.32 11.79 68.89 12.13 69.45C14.17 67.53 16.24 65.65 18.27 63.74C20.68 61.47 23.11 59.24 25.5 56.95C27.75 54.79 29.8799 52.48 31.9799 50.16C32.57 49.48 33.18 48.8 33.75 48.09C34.35 47.34 35.4599 47.18 36.2299 47.77C36.9799 48.36 37.15 49.5 36.55 50.25C35.42 51.67 34.1899 53.02 32.9499 54.34C31.5499 55.84 30.1399 57.31 28.6899 58.77C27.3599 60.11 25.9699 61.39 24.5899 62.67C23.2299 63.93 21.88 65.2 20.52 66.47C18.4 68.46 16.25 70.42 14.14 72.42C14.55 72.96 14.98 73.49 15.43 74.01C16 74.64 16.5999 75.24 17.2299 75.81C18.33 76.76 19.5299 77.57 20.7099 78.43C21.1599 78.77 21.7199 79.09 22.0699 79.54C22.6399 80.29 22.6599 81.22 22.0799 81.96C21.7899 82.34 21.3799 82.53 20.9699 82.73C20.5099 82.96 19.9699 83.11 19.4799 83.24C18.67 83.47 17.86 83.68 17.02 83.79C16.65 83.84 16.29 83.86 15.93 83.86C15.05 83.87 14.18 83.74 13.33 83.54ZM7.79996 78.61C7.75996 78.65 7.71996 78.68 7.67996 78.72C8.05996 78.73 8.42997 78.75 8.80997 78.79C10.77 78.98 12.62 79.72 14.52 80.19C14.83 80.25 15.1499 80.29 15.4699 80.33C15.6799 80.34 15.8899 80.34 16.0999 80.34C16.4399 80.31 16.7599 80.27 17.0999 80.21C16.2399 79.6 15.43 78.95 14.64 78.25C13.61 77.34 12.71 76.31 11.84 75.25C11.75 75.14 11.66 75.02 11.57 74.91C10.31 76.14 9.05996 77.38 7.79996 78.61ZM5.88999 70.24C5.37998 71.73 4.93 73.25 4.59 74.79C4.46 75.47 4.36997 76.15 4.30997 76.83C4.30997 76.9 4.30996 76.96 4.29996 77.03C4.69996 76.65 5.09997 76.27 5.49997 75.89C6.83997 74.59 8.15996 73.28 9.48996 71.97C8.80996 70.9 8.19995 69.78 7.66995 68.65C7.43995 68.17 7.23997 67.68 7.05997 67.19C6.64997 68.2 6.24999 69.22 5.88999 70.24Z"
    fill="rgba(191, 192, 191, 1)" />
</svg>