<svg width="91" height="89" viewBox="0 0 91 89" fill="none" xmlns="http://www.w3.org/2000/svg">
  <path fill-rule="evenodd" clip-rule="evenodd"
    d="M30.1369 19.1298L30.2336 19.1485C30.3528 19.1718 30.4719 19.1951 30.5909 19.2182C30.8977 19.2775 31.2038 19.3355 31.51 19.39C31.6101 19.409 31.7113 19.4292 31.8132 19.4497C32.2508 19.5376 32.702 19.6282 33.14 19.62C33.25 19.62 33.35 19.62 33.4599 19.6C34 19.5401 34.48 19.2001 34.75 18.74C35.04 18.24 35.0599 17.6801 34.86 17.15C34.6994 16.7274 34.3673 16.4048 34.0449 16.0917L34.0405 16.0873C33.983 16.0314 33.9258 15.9759 33.87 15.9201C33.8464 15.8965 33.8229 15.8727 33.7995 15.8488C33.7208 15.768 33.643 15.6851 33.5653 15.6009C33.5111 15.5421 33.457 15.4828 33.4026 15.4231L33.3766 15.3946L33.3703 15.3876C33.3106 15.322 33.2507 15.256 33.1899 15.19C32.7122 14.6068 32.248 14.0081 31.7832 13.4088L31.7809 13.4058C30.7481 12.0741 29.7124 10.7387 28.52 9.56002C27.56 8.60006 26.5099 7.73006 25.36 7.00002C24.6899 6.58004 23.9899 6.21005 23.2899 5.85C22.7787 5.58492 22.2596 5.33981 21.74 5.09444C21.5591 5.00906 21.3782 4.92361 21.1975 4.8373L21.199 4.76479L21.2016 4.65566C21.2029 4.60836 21.2043 4.56106 21.2059 4.51382C21.2073 4.4689 21.209 4.42397 21.2108 4.37905L21.2143 4.29867L21.216 4.26058L21.22 4.18002C21.2247 4.14187 21.2273 4.10604 21.2297 4.07125V4.07015C21.2323 4.03249 21.2348 3.9963 21.24 3.96005C21.2417 3.93929 21.2431 3.9186 21.2442 3.89791C21.246 3.86391 21.2469 3.82998 21.2471 3.79623C21.6562 3.05203 21.4684 2.07443 20.78 1.54C20.71 1.50002 20.6499 1.4501 20.5799 1.40005C20.39 1.24007 20.1999 1.09005 19.97 0.990014C19.3899 0.750023 18.7599 0.849999 18.23 1.16C17.9268 1.33749 17.6674 1.58047 17.4114 1.8204C17.3211 1.90499 17.2312 1.98922 17.14 2.07003L17.0857 2.11825C16.9255 2.26046 16.7727 2.3962 16.62 2.54C15.97 3.09005 15.31 3.63009 14.63 4.15005C14.4695 4.27267 14.3091 4.39474 14.1485 4.51644C13.8826 4.71792 13.6164 4.91836 13.3495 5.11819C13.0542 5.33926 12.7579 5.55965 12.46 5.78005C11.05 6.8301 9.70994 7.96005 8.36998 9.1C8.08818 9.33773 7.80595 9.57498 7.5236 9.81228C6.52342 10.653 5.52256 11.4943 4.53996 12.36C3.87993 12.94 3.23991 13.5401 2.59996 14.15C2.32994 14.4201 2.04997 14.6801 1.78001 14.94C1.73539 14.9826 1.69059 15.0248 1.64592 15.0668C1.24992 15.4395 0.864728 15.8019 0.729963 16.35C0.579938 16.96 0.739972 17.62 1.18998 18.07C1.55998 18.44 2.14995 18.68 2.67997 18.57C2.9951 18.5082 3.30644 18.435 3.61632 18.362L3.61924 18.3612L3.62053 18.3609C3.81071 18.3162 4.00035 18.2716 4.18998 18.23C4.83995 18.12 5.48997 18.0501 6.14 18C7.96995 17.9 9.81993 17.9601 11.66 18.02C13.16 18.0701 14.67 18.1201 16.18 18.1601C16.6421 18.1729 17.1044 18.185 17.5669 18.1967L17.5498 18.7619L17.5496 18.7692C17.5083 20.1231 17.467 21.4789 17.46 22.83C17.44 24.9199 17.44 27.01 17.44 29.1C17.44 31 17.3999 32.9 17.35 34.7901C17.29 36.62 17.18 38.4501 17.07 40.2801C17.0589 40.3986 17.0487 40.5171 17.0387 40.6356C17.0307 40.7313 17.0229 40.8269 17.0152 40.9225C17.0073 41.0192 16.9994 41.1159 16.9913 41.2125C16.9814 41.3317 16.9711 41.4508 16.96 41.57C16.797 43.3406 16.6134 45.1093 16.4298 46.8787C16.2079 49.0164 15.986 51.1553 15.8 53.3001C15.4986 56.6835 15.3307 60.0668 15.1623 63.463L15.08 65.11C14.97 66.61 14.84 68.1 14.7 69.59C14.6904 69.6926 14.6805 69.7956 14.6703 69.8986L14.6562 70.0406L14.636 70.2416C14.5058 71.5359 14.3731 72.8563 14.57 74.14C14.5878 74.2614 14.6143 74.3819 14.6491 74.4998C14.6266 74.5744 14.6078 74.6499 14.5932 74.7266C14.5876 74.7565 14.5825 74.7866 14.5782 74.8169C14.5751 74.8379 14.5724 74.8589 14.57 74.88C14.529 75.2639 14.6138 75.6741 14.807 76.0192C14.6882 76.45 14.7309 76.9252 14.99 77.35C15.23 77.74 15.6 78.0501 16.05 78.1701C16.0875 78.1804 16.1246 78.1896 16.1611 78.1973C16.1843 78.2022 16.2073 78.2066 16.2301 78.2104C16.259 78.2151 16.2875 78.2189 16.3155 78.2217C16.3977 78.23 16.4762 78.2299 16.55 78.22C16.8 78.22 17.05 78.1801 17.3 78.14C17.5886 78.0937 17.8772 78.0499 18.1673 78.0075C18.4399 77.9676 18.7138 77.9289 18.99 77.89C19.77 77.7801 20.56 77.6901 21.35 77.61C23.25 77.4101 25.15 77.22 27.05 77.07C27.68 77.0197 28.3113 76.975 28.9429 76.9303C30.1957 76.8418 31.4501 76.7531 32.7 76.62C32.9759 76.5924 33.2511 76.5663 33.5257 76.5403H33.5312C34.2499 76.4721 34.9649 76.4042 35.68 76.3101C36.82 76.1601 37.9501 76.01 39.09 75.85C39.7966 75.7531 40.5046 75.6503 41.2136 75.5473L41.2297 75.5443C42.3417 75.3823 43.4559 75.22 44.57 75.08C45.44 74.97 46.3 74.8401 47.17 74.77C48.21 74.6801 49.26 74.5901 50.31 74.5C51.8498 74.4114 53.3857 74.3507 54.9201 74.2902L54.93 74.2898C55.8136 74.255 56.6968 74.2202 57.58 74.1801C57.927 74.1659 58.274 74.1533 58.621 74.1408C59.494 74.109 60.367 74.0773 61.24 74.02C62.51 73.9401 63.79 73.8501 65.06 73.76C65.0375 73.7628 65.0149 73.7656 64.9924 73.7682L64.82 73.7801C64.8775 73.7801 64.9349 73.7748 64.9924 73.7682C66.7347 73.6475 68.477 73.4788 70.2194 73.3101C71.8296 73.1541 73.4398 72.9981 75.05 72.88C74.97 72.89 74.89 72.89 74.81 72.9C75.08 72.89 75.34 72.87 75.6 72.85C75.5773 72.8528 75.5547 72.8556 75.532 72.8582C75.4747 72.862 75.4173 72.866 75.36 72.87L75.3783 72.8698L75.3931 72.8694L75.4156 72.8686L75.435 72.8673C75.4674 72.8651 75.4997 72.8618 75.532 72.8582C75.5877 72.8545 75.6434 72.8507 75.699 72.8472C75.8901 73.8054 76.077 74.7614 76.22 75.73C76.2488 75.9204 76.2802 76.1117 76.3116 76.3036C76.3892 76.7766 76.4673 77.2533 76.51 77.73C76.5485 78.1155 76.584 78.501 76.6199 78.8866C76.6492 79.2011 76.6786 79.5155 76.71 79.83C76.78 81.1699 76.85 82.4999 76.94 83.83C76.98 84.45 77.05 85.0601 77.12 85.6801C77.1301 85.7641 77.1395 85.8487 77.149 85.9336C77.2242 86.607 77.3015 87.2995 77.71 87.85C78.04 88.2799 78.6 88.5401 79.14 88.5401C79.44 88.5401 79.74 88.46 79.99 88.2901C80.3099 88.08 80.55 87.8899 80.76 87.57C80.99 87.2299 81.1499 86.85 81.3 86.47C81.4599 86.06 81.6299 85.6599 81.8 85.26C82.05 84.68 82.34 84.11 82.62 83.5401C83.4599 81.99 84.3 80.45 85.14 78.9101L85.4577 78.3297C86.2608 76.8617 87.0652 75.3913 87.94 73.96C88.2599 73.4899 88.5799 73.01 88.92 72.5501C88.97 72.5401 89.0199 72.5199 89.06 72.5C89.8824 72.1572 90.3981 71.1052 90.0345 70.2543C90.2983 70.0816 90.5086 69.8544 90.6546 69.5971C90.8346 69.3205 90.94 68.9928 90.94 68.64C90.94 67.93 90.5 67.2999 89.88 67.02C89.86 66.98 89.84 66.95 89.81 66.9101C89.6531 66.661 89.4985 66.4097 89.3434 66.1575C89.0439 65.6706 88.7428 65.1809 88.42 64.7C87.3999 63.19 86.2699 61.7499 84.98 60.46C83.9797 59.4597 82.8948 58.5442 81.8063 57.6256C81.6542 57.4972 81.502 57.3688 81.35 57.24L80.6 56.58C79.8799 55.94 79.16 55.2999 78.41 54.69C77.9899 54.3499 77.54 54.0199 77.08 53.74C76.28 53.2499 75.35 52.86 74.42 53.25C73.4399 53.6699 72.96 54.68 72.9 55.7C72.8603 56.4329 72.9679 57.1463 73.0769 57.8692L73.08 57.89C73.183 58.5403 73.2818 59.1947 73.3819 59.8506C73.4372 60.2134 73.493 60.5767 73.55 60.94L73.6656 61.6919C73.8956 63.1887 74.1244 64.6793 74.39 66.1701C74.583 67.2316 74.7846 68.2931 74.9933 69.3532C74.9839 69.3538 74.9744 69.3545 74.965 69.3551L74.87 69.36C73.5055 69.4463 72.1411 69.5756 70.7815 69.7045L70.7476 69.7078L69.66 69.8101C67.98 69.9701 66.29 70.12 64.61 70.26H64.65C64.0551 70.3043 63.4626 70.3462 62.8702 70.3867C62.5932 70.4058 62.3164 70.4245 62.0393 70.443C61.8688 70.4545 61.6981 70.4658 61.5273 70.4771L61.04 70.51C59.7699 70.5952 58.4879 70.6385 57.2124 70.6814C57.0118 70.6883 56.8114 70.695 56.6112 70.7019L56.4792 70.7066C56.3527 70.711 56.2262 70.7154 56.1 70.72C54.6498 70.773 53.194 70.8429 51.741 70.9129L51.6998 70.9147L51.6597 70.9165L51.6207 70.9184L50.33 70.98C49.7638 71.0067 49.1976 71.06 48.6313 71.1132C48.3475 71.1399 48.0638 71.1666 47.78 71.19L47.4271 71.219L47.2377 71.2349C47.0483 71.2508 46.8584 71.2672 46.6682 71.2847C46.303 71.3183 45.9364 71.3555 45.57 71.4C43.57 71.6601 41.58 71.9201 39.58 72.21C37.84 72.47 36.1 72.7301 34.35 72.9101C32.4253 73.1065 30.4909 73.2641 28.5658 73.4209L28.5576 73.422L28.46 73.4301L27.4862 73.5086C24.6983 73.7326 21.9036 73.9573 19.1304 74.3158C20.7801 72.5371 22.4855 70.814 24.28 69.1801C24.7063 68.7919 25.1334 68.4043 25.5608 68.0171C25.9544 67.6604 26.3482 67.3041 26.7421 66.9478L26.8009 66.8947C28.7687 65.1145 30.7364 63.3344 32.67 61.52C34.9238 59.4085 37.172 57.2858 39.4188 55.1645L39.7027 54.8964C40.3619 54.2739 41.0209 53.6518 41.68 53.0301C44.1421 50.7061 46.6192 48.3971 49.0967 46.0877L49.1075 46.0778C52.3619 43.0441 55.617 40.0097 58.84 36.94L59.135 36.6594L59.1471 36.6481C60.5672 35.2984 61.9886 33.9473 63.3894 32.576C63.7054 32.7337 64.0213 32.8899 64.3367 33.0458L64.8276 33.289L64.7894 33.2725C64.7718 33.2649 64.7541 33.2572 64.7366 33.2492C65.6853 33.7333 66.6066 34.2639 67.5 34.85C68.36 35.45 69.16 36.1101 69.95 36.7901L69.9439 36.7898C69.9579 36.8002 69.9697 36.8106 69.9806 36.8209L69.9869 36.8272L70 36.84C70.41 37.21 70.8 37.5901 71.23 37.9301C71.3447 38.02 71.4576 38.1129 71.57 38.2063L71.6495 38.2722C71.8727 38.458 72.0956 38.6436 72.33 38.8101C73.18 39.4002 74.0199 39.96 74.92 40.45C75.6499 40.86 76.4499 41.2301 77.24 41.51C77.5199 41.61 77.8 41.6901 78.12 41.6701C78.19 41.6701 78.26 41.6601 78.33 41.65C78.73 41.6001 79.11 41.4 79.4 41.11C80.16 40.36 80.03 39.15 79.85 38.2C79.6 36.93 79.12 35.6901 78.63 34.5L78.4137 33.9685C78.292 33.6699 78.1703 33.372 78.0486 33.074C77.8524 32.5935 77.6562 32.1131 77.46 31.63C76.7745 29.9359 76.1562 28.2227 75.5392 26.5091C75.5286 26.4667 75.5143 26.4258 75.5 26.39C75.3063 25.8172 75.116 25.2426 74.9255 24.6676C74.6539 23.8477 74.3821 23.0271 74.1 22.21C74.0713 22.124 74.0424 22.0381 74.0132 21.9522C73.9737 21.8363 73.9337 21.7205 73.8932 21.6048C74.1452 21.3152 74.3895 21.0186 74.62 20.71C75.0444 20.1466 75.0886 19.4013 74.7803 18.8068C75.0473 18.2279 74.9677 17.5269 74.58 16.97C74.18 16.39 73.4399 16.25 72.79 16.24C72.3299 16.23 71.89 16.2501 71.44 16.2801C71.48 16.275 71.52 16.2725 71.56 16.27C71.6 16.2676 71.64 16.265 71.68 16.26L71.6725 16.2604C70.855 16.3103 70.0375 16.3603 69.22 16.45C68.3699 16.5401 67.54 16.6701 66.69 16.8101C66.0889 16.9063 65.4878 17.073 64.8919 17.2384L64.7414 17.2802C64.6441 17.3072 64.5469 17.3339 64.45 17.36C63.69 17.5801 62.92 17.7801 62.15 17.97L61.43 18.12C60.42 18.3101 59.41 18.4901 58.4 18.6701C57.43 18.8501 56.4599 19.0701 55.5 19.2801C54.6706 19.4445 53.8412 19.5834 53.0119 19.7223L52.9458 19.7333L52.5832 19.7942C52.3955 19.8258 52.2077 19.8577 52.02 19.89C51.44 19.9801 50.86 20.11 50.29 20.25C50.208 20.271 50.1252 20.2913 50.0422 20.3115L50.031 20.3144C49.6822 20.3994 49.3283 20.486 49 20.63C48.33 20.9301 47.9599 21.5401 47.92 22.26C47.8899 22.86 48.2099 23.4101 48.68 23.75C48.94 23.9401 49.26 24.07 49.56 24.2C49.92 24.39 50.29 24.5801 50.63 24.8001L52.01 25.7C54.04 27.11 56.08 28.51 58.2 29.7801C58.2563 29.8151 58.3127 29.8504 58.369 29.8856L58.4148 29.9142L58.4593 29.942C58.5228 29.9817 58.5863 30.0215 58.65 30.0611C58.823 30.1686 58.9969 30.2752 59.173 30.378C59.304 30.4545 59.4362 30.5288 59.57 30.6C59.7377 30.6886 59.9053 30.7766 60.073 30.8644C56.4529 34.4192 52.7478 37.8931 49.03 41.35C44.1879 45.8596 39.3751 50.3841 34.5602 54.9104L34.5415 54.928L34.4661 54.9983L32.06 57.26C29.25 59.9 26.41 62.5 23.55 65.09C23.2985 65.3183 23.0461 65.5462 22.7934 65.7744C21.6292 66.8258 20.4592 67.8826 19.35 69L19.0873 69.2624C18.7867 69.5624 18.4869 69.8617 18.19 70.1642C18.2043 70.0143 18.2187 69.8646 18.2332 69.715L18.2674 69.3643C18.2993 69.0375 18.3312 68.7108 18.3618 68.3844C18.379 68.202 18.3957 68.0198 18.4118 67.8375C18.425 67.6884 18.4377 67.5392 18.45 67.39C18.56 65.98 18.6499 64.5701 18.72 63.1601C18.7663 62.333 18.8038 61.5015 18.8413 60.6715L18.8415 60.6686C18.8606 60.2451 18.8797 59.822 18.9 59.4C18.9286 58.6124 18.9829 57.8301 19.0371 57.0491L19.0375 57.044L19.0382 57.0344C19.0593 56.7295 19.0804 56.4247 19.1 56.12V56.0501C19.2699 54.0901 19.45 52.1399 19.65 50.19C19.7283 49.4114 19.8085 48.6333 19.8888 47.8552L19.8893 47.8505C20.2088 44.7526 20.5282 41.6559 20.72 38.5401C20.9599 34.5901 20.99 30.64 20.99 26.6801C20.99 23.878 21.04 21.0813 21.1109 18.2862C21.8392 18.3059 22.5674 18.3274 23.2952 18.3523C23.8071 18.3698 24.3186 18.3888 24.8299 18.4101C25.53 18.4601 26.23 18.49 26.9199 18.59L27.153 18.6248L27.3857 18.6592C28.0301 18.7542 28.6733 18.8491 29.3099 18.97C29.5635 19.018 29.816 19.0672 30.0677 19.1162L30.1369 19.1298ZM75.5 26.39C75.4944 26.3844 75.4919 26.3756 75.4891 26.3655C75.4868 26.3576 75.4844 26.3488 75.48 26.34C75.4854 26.3509 75.4879 26.3587 75.4906 26.3668C75.4929 26.3738 75.4954 26.3809 75.5 26.39ZM79.2907 72.6352C79.459 73.5037 79.6128 74.3747 79.74 75.25C79.7689 75.4495 79.8009 75.65 79.8331 75.8513C79.901 76.2755 79.9693 76.7028 80.01 77.13C80.0449 77.4791 80.0773 77.8308 80.1097 78.1825C80.1423 78.5358 80.1749 78.8892 80.21 79.24C80.25 79.6299 80.28 80.0301 80.3 80.4201C80.8403 79.4115 81.391 78.408 81.9408 77.406C82.1542 77.0172 82.3675 76.6286 82.58 76.24C82.7142 75.9932 82.8475 75.7454 82.9809 75.4972C83.5493 74.4406 84.1208 73.3782 84.7726 72.3694C84.1237 72.4368 83.4662 72.4612 82.8152 72.4854L82.7773 72.4868C82.5807 72.4942 82.3849 72.5015 82.19 72.51L82.1634 72.5111C81.2049 72.5506 80.2464 72.59 79.2907 72.6352ZM86.4947 68.2619C86.4898 68.2645 86.4849 68.2674 86.48 68.27C86.4028 68.3036 86.3268 68.3383 86.2507 68.3729C86.1858 68.4025 86.121 68.432 86.0553 68.461C86.0262 68.4738 85.997 68.4865 85.9675 68.4989C85.9424 68.5095 85.917 68.52 85.8916 68.5303C85.8581 68.5438 85.8243 68.5572 85.79 68.57C85.66 68.61 85.53 68.6502 85.39 68.6801C84.86 68.7801 84.33 68.8501 83.79 68.89C83.1987 68.9243 82.6075 68.9505 82.0162 68.9735C81.8309 68.9807 81.6455 68.9877 81.4601 68.9945C81.2959 69.0006 81.1318 69.0065 80.9676 69.0124C80.1636 69.0413 79.3596 69.0702 78.5556 69.1121C78.4968 68.838 78.4382 68.5641 78.38 68.2901C78 66.21 77.6499 64.12 77.31 62.0301C77.234 61.549 77.158 61.0679 77.0834 60.5868C77.0106 60.1178 76.9391 59.6489 76.87 59.1801C76.8204 58.8614 76.7659 58.5377 76.7098 58.2055C76.6867 58.0685 76.6633 57.9302 76.64 57.7901C76.74 57.86 76.84 57.94 76.93 58.02C77.68 58.68 78.41 59.36 79.16 60C79.9924 60.7016 80.816 61.4031 81.6311 62.121L81.63 62.12C82.26 62.72 82.87 63.34 83.46 63.99C84.17 64.83 84.84 65.7 85.46 66.61C85.7361 67.0302 86.0014 67.4612 86.2667 67.8922C86.3426 68.0155 86.4186 68.1388 86.4947 68.2619ZM68.33 31.23C67.5679 30.7777 66.7876 30.3617 66.0012 29.9608C66.2083 29.7479 66.4145 29.5344 66.62 29.32C67.7685 28.1383 68.8961 26.9429 70.026 25.745L70.031 25.7395L70.71 25.02C70.8501 24.8736 70.9897 24.7267 71.1291 24.5795C71.2074 24.8148 71.2856 25.0502 71.3637 25.2857L71.3653 25.2904L71.3657 25.2915C71.9106 26.9336 72.4561 28.5778 73.07 30.19C73.506 31.3286 73.9603 32.4595 74.4142 33.5891C74.8453 34.6619 75.2759 35.7337 75.69 36.8101L75.6528 36.7874L75.6191 36.7666L75.5884 36.7481C75.4906 36.6892 75.3885 36.6319 75.27 36.58C75.2396 36.5601 75.2092 36.5402 75.1788 36.5205L75.1326 36.4905C74.8888 36.3322 74.6473 36.1753 74.42 35.99L73.34 35.12L73.3312 35.1123C71.7541 33.7149 70.1665 32.3081 68.33 31.23ZM69.45 20.0301C69.5804 20.2968 69.6932 20.5775 69.8009 20.8598C68.4773 22.2871 67.1315 23.6963 65.78 25.1C64.7544 26.1695 63.7183 27.229 62.6734 28.2804C61.7547 27.7937 60.8502 27.2814 59.96 26.75L59.7307 26.6142C59.6065 26.5407 59.482 26.4671 59.3578 26.3928C59.1721 26.282 58.9868 26.1702 58.8031 26.0564C58.5996 25.9304 58.398 25.802 58.2 25.6701C57.52 25.2201 56.8399 24.7602 56.16 24.3101L56.1526 24.305C55.5851 23.9066 55.0176 23.5083 54.45 23.12C54.71 23.0801 54.97 23.0301 55.23 22.98C56.42 22.74 57.61 22.49 58.8 22.24C58.9447 22.2134 59.0894 22.187 59.2341 22.1609C59.4576 22.1206 59.681 22.0807 59.9043 22.0408C60.6714 21.9038 61.4367 21.7671 62.1978 21.6124C62.1929 21.614 62.1876 21.616 62.1827 21.6175C63.289 21.3905 64.3828 21.1011 65.4776 20.8113L65.4818 20.8102C66.0735 20.6536 66.6655 20.4968 67.26 20.35C67.99 20.22 68.72 20.1201 69.45 20.0301ZM21.2096 14.7251C21.3945 14.7302 21.5795 14.7356 21.7644 14.7414C21.9495 14.7472 22.1347 14.7534 22.3199 14.76C22.6215 14.7721 22.924 14.7815 23.2269 14.7908C23.9283 14.8125 24.6315 14.8342 25.3299 14.89C26.39 14.9801 27.4399 15.08 28.49 15.23C28.5001 15.2323 28.5101 15.2344 28.52 15.2364C28.5419 15.2409 28.5634 15.2448 28.5848 15.2483C28.6094 15.2523 28.6337 15.2559 28.6583 15.2591L28.7049 15.2648L28.7487 15.2686C28.1491 14.4991 27.5495 13.7296 26.9099 13C26.3899 12.4301 25.85 11.87 25.27 11.35C24.78 10.93 24.28 10.5401 23.75 10.17C23.06 9.72006 22.3399 9.34005 21.61 8.96005L21.2865 8.80489C21.2898 9.01675 21.2912 9.22848 21.29 9.44003C21.2811 11.1994 21.2566 12.9588 21.2096 14.7251ZM17.6777 6.40621L17.6676 6.37753L17.6577 6.34768C17.6515 6.32851 17.6456 6.30929 17.64 6.29L17.547 6.36465L17.4685 6.42788C17.4059 6.47836 17.3442 6.52798 17.2833 6.57662C17.1638 6.67208 17.0469 6.76363 16.9299 6.85C16.5414 7.1451 16.1487 7.43465 15.7566 7.72378C15.0989 8.2087 14.4427 8.69259 13.81 9.20004C12.005 10.6542 10.244 12.1451 8.47685 13.6412L8.47026 13.6467L7.58 14.4H7.90001C8.84996 14.4101 9.78996 14.4201 10.73 14.44C11.3484 14.4595 11.9678 14.4799 12.5879 14.5005C13.8832 14.5433 15.1816 14.5862 16.48 14.62C16.8763 14.6302 17.2723 14.6391 17.668 14.6474C17.704 13.3256 17.7337 12.0047 17.74 10.68C17.74 9.45004 17.74 8.23 17.7 7.00002C17.6924 6.80227 17.6848 6.60452 17.6777 6.40621ZM81.8 62.27C81.7702 62.2451 81.7428 62.2202 81.7156 62.1955L81.7143 62.1944C81.7429 62.2196 81.7714 62.2448 81.8 62.27Z"
    fill="rgba(191, 192, 191, 1)" />
  <path d="M69.93 36.7801C69.9359 36.7859 69.9383 36.7884 69.9414 36.7893L69.9363 36.7843L69.93 36.7801Z"
    fill="rgba(191, 192, 191, 1)" />
</svg>