<svg width="82" height="90" viewBox="0 0 82 90" fill="none" xmlns="http://www.w3.org/2000/svg">
  <path
    d="M24.48 89.92C23.17 89.87 21.8601 89.71 20.5501 89.58C19.6001 89.48 18.65 89.28 17.71 89.12C15.61 88.76 13.55 88.15 11.58 87.36C9.25996 86.43 7.08005 85.16 5.29005 83.4C3.51005 81.64 2.20007 79.39 1.31007 77.06C0.860066 75.9 0.559949 74.68 0.439949 73.45C0.319949 72.18 0.430032 70.9 0.650032 69.65C1.10003 67.15 2.14002 64.86 3.51002 62.72C4.66002 60.92 6.00998 59.26 7.34998 57.6C7.84998 56.98 8.42998 56.4 8.96998 55.81C9.36998 55.37 9.76006 54.95 10.1801 54.54C11.3501 53.4 12.54 52.28 13.74 51.18C15.81 49.29 17.87 47.37 19.98 45.51C19.97 45.51 19.97 45.52 19.96 45.53C19.97 45.52 19.98 45.51 19.99 45.5C20.01 45.49 20.02 45.48 20.03 45.46C20.02 45.47 20.02 45.47 20.01 45.48C20.05 45.44 20.08 45.41 20.12 45.39C20.17 45.35 20.21 45.31 20.26 45.27C20.26 45.27 20.27 45.26 20.28 45.25C20.49 45.02 20.75 44.83 20.98 44.63C21.03 44.58 21.08 44.54 21.13 44.49C21.17 44.45 21.21 44.41 21.26 44.38C21.3 44.34 21.34 44.31 21.38 44.27C21.56 44.11 21.7501 43.95 21.9301 43.79C21.8701 43.84 21.82 43.89 21.76 43.94C21.91 43.81 22.06 43.68 22.21 43.55C22.25 43.51 22.3 43.47 22.34 43.43C23.32 42.57 24.31 41.72 25.29 40.86C25.23 40.91 25.18 40.96 25.12 41.01C26.85 39.48 28.56 37.95 30.26 36.4C31.75 35.05 33.22 33.69 34.73 32.36C34.88 32.23 35.0201 32.09 35.1801 31.97C35.3501 31.82 35.52 31.65 35.7 31.51C35.72 31.49 35.74 31.47 35.76 31.46C35.79 31.43 35.83 31.4 35.86 31.37C35.83 31.39 35.81 31.41 35.78 31.43C35.92 31.31 36.07 31.18 36.21 31.05C36.66 30.65 37.12 30.24 37.6 29.87C37.83 29.69 38.0601 29.51 38.3001 29.34C37.0701 28.93 35.84 28.54 34.61 28.15C33.71 27.87 32.8 27.59 31.88 27.36C30.07 26.9 28.1 26.51 26.7 25.17C24.95 23.48 24.39 20.89 24.58 18.54C24.66 17.5 25.03 16.5 25.54 15.61C26.13 14.58 27.05 13.78 28.01 13.12C30.65 11.3 33.87 10.6 36.89 9.65002C37.28 9.53002 37.6701 9.40003 38.0601 9.28003C41.6201 8.03003 45.15 6.68002 48.7 5.40002C50.61 4.71002 52.54 4.05 54.47 3.38C57.38 2.35 60.31 1.33998 63.37 0.859984C65.11 0.589984 66.9201 0.540006 68.6801 0.570006C70.0101 0.590006 71.3101 0.770018 72.5501 1.27002C73.7601 1.75002 74.6701 2.71999 75.4201 3.73999C76.1701 4.77999 76.78 5.94001 77.22 7.14001C77.58 8.14001 77.8 9.17998 78.01 10.23C78.23 11.34 78.4501 12.44 78.6701 13.55C78.6701 13.55 78.6701 13.55 78.6701 13.54C79.05 15.42 79.42 17.3 79.75 19.19C80.08 21.07 80.3599 22.96 80.6899 24.83C80.84 25.69 80.97 26.54 81.04 27.41C81.08 27.86 81.13 28.3 81.14 28.75C81.14 29.33 81.15 29.91 81.16 30.48C81.17 31.34 81.1001 32.21 81.0501 33.08C80.9801 34.14 80.92 35.21 80.86 36.28C80.79 37.5 80.86 38.73 80.91 39.95C80.95 40.57 81 41.19 81.03 41.81C81.14 43.51 81.24 45.28 80.48 46.86C79.86 48.15 78.59 49.06 77.16 49.12C76.01 49.17 74.96 48.73 73.91 48.3C73.3 48.05 72.71 47.76 72.12 47.49C71.12 47.04 70.14 46.56 69.21 45.99C67.35 44.85 65.96 43.14 64.36 41.69C63.98 41.37 63.6 41.07 63.2 40.77C62.93 40.59 62.66 40.43 62.38 40.28C62.26 40.22 62.13 40.17 62.01 40.12C61.82 40.06 61.6299 40.01 61.4399 39.96C61.3299 39.94 61.22 39.93 61.11 39.92C60.99 39.92 60.88 39.92 60.76 39.92C60.67 39.93 60.58 39.94 60.48 39.96C60.4 39.98 60.31 40 60.23 40.03C60.14 40.06 60.06 40.1 59.98 40.14C59.89 40.19 59.79 40.25 59.7 40.3C59.61 40.36 59.53 40.42 59.45 40.49C59.28 40.65 59.12 40.81 58.97 40.98C58.78 41.2 58.6099 41.44 58.4399 41.68C58.1199 42.18 57.8201 42.69 57.5501 43.22C57.2401 43.86 56.96 44.52 56.72 45.2C56.31 46.42 56.02 47.67 55.75 48.93C55.4 50.78 55.11 52.66 54.63 54.48C54.12 56.43 53.55 58.36 52.96 60.28C51.84 63.98 50.5301 67.63 49.3101 71.3C48.9901 72.24 48.64 73.16 48.29 74.09C47.95 74.98 47.54 75.84 47.15 76.71C46.74 77.6 46.2601 78.46 45.8101 79.33C44.7701 81.31 43.5 83.19 41.99 84.84C41.18 85.73 40.26 86.49 39.25 87.14C38.14 87.86 36.91 88.33 35.65 88.69C33.97 89.17 32.24 89.41 30.51 89.64C28.92 89.85 27.32 89.96 25.72 89.96C25.28 89.94 24.88 89.94 24.48 89.92ZM20.74 86.04C21.23 86.12 21.74 86.14 22.24 86.19C22.72 86.24 23.2099 86.29 23.6899 86.34C25.0199 86.41 26.3501 86.43 27.6801 86.35C29.5201 86.22 31.3799 85.98 33.1899 85.62C33.9499 85.46 34.6999 85.26 35.4399 85.02C35.7799 84.9 36.12 84.76 36.45 84.61C36.84 84.41 37.21 84.2 37.58 83.96C37.88 83.75 38.17 83.53 38.45 83.3C38.93 82.87 39.3701 82.41 39.8101 81.92C40.2701 81.37 40.7 80.79 41.11 80.19C42.09 78.73 42.89 77.19 43.7 75.64C43.88 75.25 44.06 74.85 44.24 74.46C44.41 74.09 44.61 73.72 44.75 73.34C45.06 72.48 45.39 71.64 45.71 70.79C46.23 69.24 46.74 67.69 47.27 66.15C47.78 64.64 48.3201 63.13 48.8001 61.61C49.3001 60.02 49.81 58.43 50.27 56.84C50.54 55.93 50.79 55.02 51.03 54.09C51.23 53.34 51.3901 52.58 51.5601 51.82C51.8301 50.39 52.08 48.96 52.39 47.53C52.56 46.74 52.75 45.97 52.97 45.19C53.44 43.48 54.17 41.84 55.07 40.31C55.49 39.6 56.0001 38.93 56.5601 38.32C57.1501 37.68 57.87 37.21 58.65 36.84C60.29 36.07 62.26 36.34 63.84 37.07C66.2 38.15 67.8199 40.24 69.6899 41.95C70.0299 42.25 70.39 42.52 70.75 42.79C71.2 43.08 71.65 43.33 72.12 43.58C73.46 44.25 74.83 44.9 76.24 45.42C76.42 45.48 76.6 45.53 76.78 45.57C76.81 45.57 76.84 45.58 76.87 45.58C76.89 45.58 76.91 45.58 76.9201 45.58C76.94 45.58 76.97 45.57 76.99 45.57C77 45.57 77 45.57 77.01 45.56C77.03 45.55 77.0501 45.54 77.0601 45.52C77.0701 45.51 77.08 45.51 77.09 45.5C77.11 45.48 77.12 45.47 77.14 45.45C77.16 45.43 77.1799 45.4 77.1899 45.38C77.2199 45.34 77.24 45.3 77.26 45.26C77.29 45.2 77.31 45.14 77.34 45.08C77.37 44.98 77.4001 44.88 77.4201 44.77C77.4601 44.56 77.48 44.35 77.5 44.14C77.52 43.43 77.49 42.73 77.45 42.01C77.45 42.01 77.45 42.01 77.45 42C77.45 41.97 77.45 41.94 77.4399 41.91C77.4399 41.87 77.4401 41.84 77.4301 41.8C77.4301 41.82 77.4301 41.85 77.4301 41.87C77.3501 40.74 77.29 39.6 77.23 38.47C77.18 37.37 77.2401 36.27 77.3001 35.17C77.3601 34.17 77.44 33.17 77.48 32.16C77.53 30.97 77.53 29.79 77.53 28.6C77.49 28.11 77.45 27.62 77.41 27.13C77.36 26.6 77.25 26.07 77.16 25.55C76.99 24.46 76.78 23.39 76.6 22.3C76.24 20.16 75.9 18.01 75.48 15.88C75.5 15.95 75.51 16.03 75.53 16.11C75.15 14.27 74.7901 12.44 74.4201 10.61C74.26 9.87998 74.09 9.14999 73.86 8.42999C73.72 8.02999 73.55 7.64001 73.36 7.26001C73.1 6.78001 72.82 6.30998 72.52 5.85998C72.36 5.64998 72.2 5.42998 72.03 5.22998C72.08 5.27998 72.1301 5.34002 72.1801 5.40002C72.0601 5.25002 71.92 5.10998 71.78 4.97998C71.84 5.02998 71.89 5.08 71.95 5.13C71.8 4.99 71.64 4.86 71.48 4.75C71.54 4.79 71.6001 4.83999 71.6701 4.86999C71.5201 4.75999 71.3599 4.66001 71.1899 4.57001C71.1199 4.53001 71.04 4.49997 70.97 4.46997C70.71 4.38997 70.45 4.32001 70.1899 4.26001C69.84 4.21001 69.48 4.17001 69.13 4.14001C68.01 4.08001 66.9 4.13999 65.77 4.17999C65.85 4.16999 65.93 4.16997 66.01 4.15997C64.84 4.23997 63.68 4.36997 62.53 4.59997C62.58 4.58997 62.64 4.57 62.7 4.56C60.29 5.06 57.9901 5.88999 55.6701 6.67999C55.7401 6.65999 55.81 6.62998 55.89 6.60998C52.19 7.92998 48.47 9.21003 44.79 10.59C43.01 11.25 41.2201 11.9 39.4301 12.53C37.2901 13.28 35.1 13.83 32.96 14.57C33.03 14.55 33.1001 14.52 33.1801 14.5C32.5101 14.75 31.84 15.01 31.2 15.32C30.78 15.53 30.38 15.77 29.98 16.02C29.74 16.19 29.5 16.37 29.27 16.56C29.11 16.71 28.97 16.86 28.82 17.02C28.75 17.1 28.69 17.19 28.62 17.27C28.53 17.41 28.45 17.55 28.37 17.7C28.32 17.81 28.27 17.93 28.23 18.05C28.18 18.21 28.14 18.37 28.1 18.53C28.07 18.74 28.04 18.95 28.02 19.17C28.02 19.33 28.02 19.48 28.02 19.64C28.05 19.98 28.09 20.31 28.15 20.64C28.21 20.89 28.28 21.14 28.36 21.39C28.43 21.58 28.51 21.77 28.59 21.95C28.64 22.04 28.69 22.12 28.74 22.2C28.81 22.31 28.9 22.42 28.99 22.52C29.02 22.56 29.06 22.59 29.09 22.63C29.06 22.6 29.04 22.57 29.01 22.54C28.99 22.52 28.9699 22.49 28.9399 22.46C28.9999 22.52 29.06 22.57 29.11 22.63C29.19 22.7 29.27 22.76 29.36 22.82C29.47 22.89 29.5701 22.95 29.6801 23.01C29.9201 23.12 30.16 23.22 30.41 23.31C31.45 23.65 32.53 23.87 33.59 24.17C34.4 24.4 35.2 24.64 36 24.9C37.76 25.47 39.54 26.01 41.28 26.65C42.19 26.98 42.58 28.11 42.22 28.97C42.15 29.13 42.06 29.28 41.96 29.41C41.99 29.48 42.02 29.57 42.04 29.65C42.28 30.51 41.8 31.49 40.95 31.78C40.88 31.82 40.8 31.86 40.73 31.91C39.94 32.46 39.22 33.08 38.48 33.7C38.35 33.82 38.21 33.93 38.08 34.05C37.91 34.2 37.75 34.36 37.57 34.5C37.55 34.52 37.53 34.54 37.51 34.55C37.45 34.6 37.4 34.65 37.34 34.7C37.25 34.78 37.16 34.86 37.07 34.93C37.08 34.92 37.09 34.91 37.11 34.9C34.97 36.79 32.87 38.73 30.75 40.66C28.82 42.41 26.84 44.11 24.87 45.83C24.77 45.92 24.67 46.01 24.57 46.1C24.39 46.28 24.2 46.43 24.01 46.58C23.81 46.76 23.62 46.96 23.4 47.12C23.27 47.24 23.13 47.36 22.99 47.48C23.03 47.44 23.07 47.41 23.1 47.38C22.97 47.5 22.84 47.61 22.71 47.72C22.66 47.77 22.6101 47.81 22.5601 47.85C22.5201 47.89 22.4701 47.93 22.4301 47.96C22.4301 47.96 22.42 47.97 22.41 47.98C22.41 47.99 22.4 47.99 22.39 48C22.39 48.01 22.38 48.01 22.37 48.02C22.35 48.04 22.33 48.05 22.32 48.06C22.33 48.05 22.34 48.05 22.34 48.04C20.28 49.91 18.21 51.78 16.15 53.66C14.98 54.73 13.84 55.81 12.7 56.91C11.76 57.82 10.91 58.8 10.03 59.77C9.43004 60.52 8.82999 61.26 8.22999 62C7.68999 62.66 7.21998 63.4 6.71998 64.1C6.17998 64.92 5.68 65.75 5.24 66.62C5.28 66.55 5.30998 66.48 5.34998 66.42C5.05998 67 4.80996 67.59 4.57996 68.19C4.39996 68.74 4.25 69.28 4.12 69.84C4 70.42 3.91999 70.99 3.85999 71.57C3.83999 72.05 3.82999 72.53 3.85999 73.02C3.88999 73.36 3.94001 73.69 4.00001 74.02C4.12001 74.53 4.26006 75.03 4.43006 75.53C4.67006 76.17 4.94001 76.8 5.25001 77.42C5.55001 77.99 5.88 78.56 6.24 79.1C6.55 79.55 6.88 79.97 7.24 80.38C7.58 80.75 7.93006 81.1 8.30006 81.43C8.70006 81.77 9.12006 82.08 9.55006 82.38C10.1101 82.75 10.69 83.08 11.28 83.38C12.19 83.81 13.1201 84.2 14.0601 84.53C15.3301 84.96 16.6201 85.29 17.9301 85.57C17.8501 85.55 17.78 85.53 17.7 85.52C18.78 85.7 19.76 85.87 20.74 86.04Z"
    fill="rgba(191, 192, 191, 1)" />
  <path d="M22.49 47.99C22.49 47.99 22.48 48 22.47 48C22.48 48 22.49 48 22.49 47.99Z" fill="rgba(191, 192, 191, 1)" />
  <path d="M20.23 45.28C20.2 45.3 20.18 45.33 20.15 45.35C20.17 45.33 20.2 45.31 20.23 45.28Z"
    fill="rgba(191, 192, 191, 1)" />
  <path d="M34.74 32.35C34.73 32.35 34.73 32.36 34.72 32.36C34.73 32.36 34.73 32.36 34.74 32.35Z"
    fill="rgba(191, 192, 191, 1)" />
  <path
    d="M13.87 78.93C12.92 78.28 12.0701 77.43 11.4301 76.47C10.9201 75.7 10.49 74.83 10.22 73.94C9.86002 72.75 10.0101 71.47 10.3001 70.28C10.7801 68.28 11.9401 66.5 13.1701 64.88C13.8601 63.97 14.62 63.11 15.37 62.26C16.01 61.54 17.22 61.61 17.87 62.26C18.2 62.59 18.3901 63.05 18.3901 63.51C18.3901 64 18.19 64.4 17.87 64.76C17.85 64.79 17.8201 64.81 17.8001 64.84C17.8201 64.82 17.83 64.8 17.84 64.79C16.94 65.82 16.0501 66.86 15.2701 67.98C14.9401 68.48 14.64 68.99 14.36 69.52C14.36 69.52 14.36 69.52 14.36 69.53C14.19 69.89 14.0401 70.24 13.9001 70.61C13.8001 70.93 13.7101 71.24 13.6401 71.56C13.6001 71.77 13.5801 71.98 13.5601 72.19C13.5601 72.31 13.5601 72.43 13.5601 72.55C13.5701 72.65 13.58 72.75 13.6 72.85C13.62 72.93 13.6401 73.01 13.6601 73.09C13.7601 73.34 13.87 73.59 13.99 73.84C14.11 74.07 14.23 74.29 14.37 74.5C14.49 74.67 14.6201 74.84 14.7501 75C14.9601 75.23 15.1801 75.44 15.4101 75.65C15.5601 75.77 15.71 75.9 15.87 76.01C16.72 76.14 17.3801 76.89 17.3801 77.76C17.3801 78.72 16.58 79.53 15.61 79.53C14.98 79.54 14.4 79.29 13.87 78.93Z"
    fill="rgba(191, 192, 191, 1)" />
  <path d="M17.8101 64.84C17.8001 64.86 17.78 64.87 17.77 64.89C17.78 64.87 17.8001 64.85 17.8101 64.84Z"
    fill="rgba(191, 192, 191, 1)" />
  <path
    d="M22.2199 56.48C21.8099 55.77 21.95 54.92 22.5 54.34C23.4 53.37 24.29 52.39 25.18 51.41C25.93 50.55 26.68 49.68 27.43 48.82C27.79 48.41 28.15 47.99 28.53 47.59C28.94 47.16 29.42 46.8 29.87 46.41C30.6 45.77 31.79 46 32.35 46.73C32.97 47.52 32.76 48.58 32.03 49.21C31.78 49.42 31.53 49.64 31.28 49.85C30.89 50.23 30.53 50.64 30.17 51.05C30.17 51.04 30.18 51.04 30.18 51.03C29.35 51.99 28.5399 52.95 27.6999 53.89C26.9499 54.73 26.19 55.55 25.43 56.38C25.32 56.57 25.16 56.75 24.98 56.9C24.8 57.06 24.4299 57.25 24.2199 57.29C24.0699 57.32 23.92 57.34 23.77 57.34C23.14 57.34 22.5499 57.06 22.2199 56.48Z"
    fill="rgba(191, 192, 191, 1)" />
  <path
    d="M35.96 17.86C35.96 17.52 36.07 17.2 36.22 16.9C36.54 16.29 37.18 16.07 37.8 15.88C38.7701 15.58 39.74 15.26 40.71 14.93C40.64 14.96 40.56 14.98 40.49 15.01C42.72 14.23 44.97 13.49 47.1 12.46C47.97 12.04 49.06 12.55 49.42 13.4C49.81 14.32 49.35 15.3 48.48 15.72C46.84 16.51 45.13 17.12 43.42 17.73C41.88 18.28 40.32 18.77 38.78 19.28C38.48 19.5 38.12 19.63 37.73 19.63C36.77 19.63 35.96 18.83 35.96 17.86Z"
    fill="rgba(191, 192, 191, 1)" />
  <path
    d="M55.2 13.4C55.23 13.4 55.2601 13.4 55.2901 13.4C54.8601 13.41 54.45 13.31 54.09 13.04C53.73 12.75 53.4801 12.33 53.4201 11.88C53.3001 10.96 53.94 10.06 54.85 9.9C55.68 9.68 56.49 9.39996 57.32 9.16996C58.23 8.91996 59.16 8.71997 60.07 8.48997C61.01 8.25997 61.9901 8.77996 62.2501 9.72996C62.5001 10.64 61.9501 11.6699 61.0101 11.9099C60.1001 12.1399 59.1701 12.34 58.2601 12.59C57.8201 12.71 57.38 12.8299 56.95 12.9699C56.76 13.0299 56.5701 13.09 56.3801 13.15C56.3201 13.17 56.25 13.1899 56.19 13.2199C55.94 13.3499 55.6701 13.42 55.3701 13.42C55.3101 13.4 55.25 13.4 55.2 13.4Z"
    fill="rgba(191, 192, 191, 1)" />
</svg>