<svg width="66" height="75" viewBox="0 0 66 75" fill="none" xmlns="http://www.w3.org/2000/svg">
  <path
    d="M62.38 73.9C62.19 73.78 61.99 73.67 61.84 73.51C61.66 73.33 61.5 73.14 61.33 72.94C60.96 72.52 60.67 71.99 60.38 71.51C60.22 71.23 60.06 70.95 59.9 70.66C59.39 69.72 58.87 68.79 58.36 67.86C57.44 66.2 56.45 64.59 55.47 62.97C54.5 61.35 53.57 59.71 52.64 58.07C51.64 56.29 50.76 54.46 49.85 52.64C48.75 50.44 47.68 48.22 46.62 46C45.6 43.86 44.62 41.7 43.57 39.57C43.57 39.58 43.58 39.59 43.58 39.6C42.7 37.92 41.84 36.21 40.79 34.63C40.83 34.69 40.87 34.75 40.91 34.82C40.78 34.63 40.64 34.45 40.5 34.27C40.43 34.2 40.35 34.12 40.27 34.05C40.29 34.07 40.32 34.09 40.34 34.11C40.3 34.08 40.25 34.04 40.21 34.01C40.19 34 40.17 33.99 40.14 33.97C40.12 33.96 40.1 33.95 40.09 33.95C40.06 33.95 40.04 33.94 40.01 33.93C39.98 33.93 39.95 33.92 39.92 33.92C39.85 33.92 39.79 33.92 39.72 33.92C39 33.99 38.28 34.15 37.56 34.28C36.96 34.39 36.36 34.5 35.76 34.59C34.48 34.79 33.21 34.97 31.92 35.11C29.42 35.39 26.88 35.45 24.37 35.57C23.23 35.65 22.08 35.76 20.94 35.81C19.83 35.86 18.71 35.94 17.6 35.87C17.03 35.83 16.46 35.8 15.89 35.71C15.3 35.62 14.71 35.52 14.12 35.41C13.61 35.32 13.1 35.2 12.58 35.12C11.97 35.03 11.37 34.96 10.75 34.9C9.69 34.84 8.61999 34.79 7.54999 34.84C6.92999 34.87 6.3 34.91 5.68 34.95C4.42 35.03 3.16001 34.94 1.94001 34.6C1.71001 34.54 1.51002 34.43 1.33002 34.29C0.81002 34.03 0.429979 33.54 0.349979 32.94C0.219979 32 0.899988 31.05 1.85999 30.94C2.08999 30.92 2.31003 30.88 2.53003 30.83C3.12003 30.69 3.71999 30.56 4.29999 30.38C5.06999 30.15 5.83998 29.92 6.59998 29.68C9.10998 28.8 11.62 27.91 14.06 26.84C15.37 26.27 16.72 25.74 18.01 25.11C19.44 24.41 20.86 23.72 22.28 23.02C25.61 21.28 28.95 19.54 32.24 17.71C35.6 15.85 38.95 14 42.3 12.12C45.82 10.13 49.34 8.14 52.82 6.06C54.41 5.11 55.98 4.13 57.55 3.14C58.43 2.57 59.32 2.02 60.21 1.46C60.88 1.04 61.55 0.579997 62.31 0.339997C62.72 0.209997 63.29 0.250001 63.69 0.430001C63.89 0.520001 64.09 0.599999 64.26 0.739999C64.49 0.919999 64.64 1.14 64.79 1.38C65.24 2.1 65.15 3.16 65.03 3.95C64.89 4.94 64.65 5.92 64.43 6.9C64.23 7.77 64.04 8.63 63.84 9.5C63.63 10.51 63.39 11.53 63.24 12.55C63.06 13.75 62.84 14.95 62.71 16.16C62.57 17.41 62.4 18.66 62.3 19.92C62.19 21.28 62.07 22.63 61.96 23.99C61.97 23.91 61.97 23.83 61.98 23.75C61.91 25.41 61.79 27.08 61.79 28.75C61.79 29.91 61.79 31.06 61.79 32.21C61.79 33.01 61.84 33.82 61.86 34.62C61.98 38.19 62.18 41.76 62.38 45.32C62.67 49.14 63.03 52.95 63.5 56.75C63.98 60.61 64.45 64.46 64.86 68.32C64.93 68.94 64.99 69.55 65.05 70.17C65.12 70.97 65.25 71.8 65.19 72.6C65.13 73.35 64.42 74.05 63.68 74.11C63.56 74.12 63.44 74.13 63.32 74.13C62.96 74.13 62.66 74.08 62.38 73.9ZM40 30.37C41.2 30.38 42.26 30.99 43.06 31.84C43.96 32.79 44.57 34.03 45.2 35.17C45.67 36.01 46.11 36.86 46.56 37.71C47.47 39.42 48.26 41.2 49.08 42.96C50.75 46.56 52.53 50.12 54.3 53.67C55.64 56.32 57.13 58.9 58.66 61.44C59.42 62.7 60.17 63.96 60.92 65.23C60.75 63.75 60.57 62.26 60.39 60.78C60.17 58.91 59.93 57.05 59.71 55.17C59.5 53.35 59.28 51.52 59.14 49.69C58.98 47.63 58.82 45.57 58.7 43.51C58.58 41.41 58.48 39.31 58.38 37.21C58.34 36.41 58.32 35.6 58.29 34.8C58.26 33.94 58.21 33.08 58.21 32.21C58.21 30.98 58.21 29.74 58.21 28.51C58.21 27.68 58.26 26.85 58.3 26.01C58.34 25.16 58.35 24.31 58.42 23.47C58.51 22.44 58.59 21.41 58.67 20.38C58.8 18.73 59 17.09 59.18 15.44C59.28 14.55 59.45 13.66 59.58 12.77C59.69 12.04 59.83 11.33 59.97 10.61C60.14 9.78 60.29 8.95 60.48 8.12C60.72 7.07 60.97 6.03 61.2 4.98C60.16 5.63 59.13 6.31 58.09 6.96C56.29 8.08 54.48 9.17 52.66 10.26C49.54 12.12 46.36 13.89 43.18 15.66C39.79 17.55 36.41 19.46 32.99 21.31C29.48 23.21 25.98 25.13 22.4 26.88C21.38 27.38 20.37 27.87 19.35 28.37C18.74 28.67 18.12 28.92 17.5 29.19C16.62 29.57 15.73 29.96 14.85 30.34C13.99 30.72 13.1 31.03 12.23 31.37C12.16 31.4 12.08 31.43 12 31.46C12.93 31.58 13.85 31.75 14.78 31.93C15.4 32.04 16.01 32.14 16.63 32.23C17.09 32.3 17.55 32.32 18.02 32.34C17.98 32.34 17.95 32.34 17.91 32.33C18.89 32.33 19.87 32.3 20.85 32.26C22.3 32.15 23.74 32.05 25.19 31.97C26.62 31.9 28.04 31.84 29.46 31.76C31.34 31.6 33.21 31.38 35.07 31.09C35.92 30.96 36.77 30.8 37.61 30.65C38.38 30.5 39.15 30.36 39.93 30.36C39.96 30.36 39.98 30.36 40 30.37Z"
    fill="rgba(191, 192, 191, 1)" />
</svg>