<svg width="65" height="89" viewBox="0 0 65 89" fill="none" xmlns="http://www.w3.org/2000/svg">
  <path
    d="M61.01 80.37C60.13 79.53 59.3 78.65 58.52 77.71C57.72 76.73 57.03 75.66 56.29 74.62C54.83 72.58 53.34 70.57 51.72 68.66C49.2 65.91 46.6 63.21 43.85 60.68C42.42 59.36 40.99 58.04 39.65 56.63C38.32 55.22 37.03 53.77 35.7 52.35C33.12 49.59 30.49 46.87 27.85 44.16C25.09 41.33 22.27 38.56 19.5 35.75C18.1 34.33 16.71 32.91 15.3 31.5C13.96 30.15 12.56 28.86 11.18 27.56C10.47 26.89 9.77002 26.19 9.08002 25.5C8.40002 24.82 7.78003 24.1 7.15003 23.39C5.94003 22.04 4.88003 20.55 3.78003 19.11C3.36003 18.56 2.94001 18.01 2.50001 17.47C2.14001 17.02 1.75002 16.59 1.39002 16.13C0.87002 15.45 0.119993 14.61 0.299993 13.68C0.469993 12.77 1.16 12.09 2.12 12.09C2.96 12.09 3.67998 12.7 3.84998 13.5C4.23998 14.02 4.67002 14.52 5.08002 15.03C5.65002 15.73 6.18999 16.44 6.72999 17.15C7.20999 17.79 7.69 18.43 8.18 19.06C8.65 19.69 9.17999 20.29 9.66999 20.9C10.87 22.24 12.09 23.56 13.4 24.79C14.8 26.11 16.23 27.41 17.59 28.77C20.45 31.64 23.26 34.54 26.13 37.39C28.75 40 31.34 42.65 33.9 45.32C35.23 46.71 36.58 48.09 37.89 49.49C39.21 50.91 40.5 52.36 41.83 53.76C43.23 55.24 44.71 56.64 46.21 58.03C47.57 59.29 48.89 60.58 50.19 61.91C51.53 63.28 52.87 64.66 54.16 66.07C55.41 67.44 56.52 68.93 57.62 70.42C58.36 71.43 59.1 72.44 59.82 73.47C60.48 74.43 61.17 75.36 61.93 76.24C62.45 76.8 62.98 77.35 63.54 77.88C64.24 78.55 64.21 79.71 63.54 80.38C63.2 80.72 62.75 80.89 62.3 80.89C61.82 80.87 61.36 80.7 61.01 80.37Z"
    fill="rgba(191, 192, 191, 1)" />
  <path
    d="M21.25 23.59C20.8 23.59 20.25 23.5 19.84 23.3C19.48 23.12 19.13 22.93 18.86 22.63C18.22 22.43 17.69 21.83 17.61 21.17C17.51 20.29 17.82 19.42 18.16 18.62C18.46 17.89 18.87 17.21 19.29 16.53C19.82 15.67 20.36 14.82 20.91 13.97C21.37 13.27 21.84 12.58 22.34 11.9C22.63 11.51 22.91 11.11 23.2 10.72C23.52 10.28 23.82 9.83997 24.23 9.47997C24.82 8.95997 25.79 9.01997 26.39 9.47997C27 9.94997 27.28 10.86 26.94 11.57C26.51 12.47 25.95 13.31 25.43 14.16C25.1 14.7 24.77 15.25 24.44 15.79C24.71 15.63 24.99 15.46 25.26 15.29C26.19 14.66 27.12 14.03 28 13.34C28.99 12.56 29.96 11.77 30.93 10.95C30.88 11 30.82 11.05 30.76 11.1C31.33 10.6 31.9 10.1 32.47 9.59997C32.41 9.64997 32.36 9.69999 32.3 9.74999C33.97 8.27999 35.56 6.72001 37.19 5.21001C38.03 4.43001 38.87 3.66001 39.72 2.89001C40.54 2.14001 41.36 1.36996 42.22 0.659965C42.76 0.209965 43.6 0.180021 44.2 0.530021C44.83 0.900021 45.13 1.58998 45.06 2.29998C45.02 2.69998 44.81 3.04001 44.55 3.33001C44.45 3.44001 44.34 3.52998 44.22 3.60998C42.34 5.28998 40.49 6.97999 38.64 8.68999C36.81 10.39 35 12.09 33.12 13.74C33.13 13.73 33.15 13.72 33.16 13.7C31.03 15.56 28.76 17.27 26.36 18.77C26.18 18.88 26 18.99 25.82 19.1C26.84 18.81 27.85 18.51 28.86 18.21C30.73 17.66 32.59 17.1 34.47 16.61C35.4 16.36 36.39 16.91 36.65 17.84C36.9 18.76 36.35 19.77 35.42 20.02C33.52 20.52 31.64 21.08 29.76 21.64C28.92 21.89 28.08 22.14 27.24 22.37C25.84 22.75 24.45 23.16 23.02 23.41C22.47 23.51 21.9 23.57 21.33 23.57C21.29 23.59 21.27 23.59 21.25 23.59Z"
    fill="rgba(191, 192, 191, 1)" />
  <path
    d="M13.83 88.24C13.29 87.82 12.98 87.03 13.21 86.36C13.39 85.81 13.74 85.42 14.18 85.06C14.29 84.97 14.41 84.9 14.53 84.85C15.78 83.63 16.97 82.34 18.24 81.14C19.8 79.68 21.36 78.23 22.96 76.81C25.78 74.29 28.72 71.91 31.6 69.46C30.51 69.57 29.42 69.71 28.34 69.89C27.83 70.02 27.34 70.16 26.84 70.3C25.35 70.74 23.88 71.22 22.41 71.71C21.66 71.96 20.8 71.55 20.41 70.9C19.97 70.15 20.16 69.13 20.86 68.6C21.43 68.17 22.11 67.98 22.77 67.74C23.58 67.45 24.39 67.18 25.21 66.94C26 66.72 26.79 66.55 27.6 66.42C28.16 66.28 28.72 66.13 29.29 65.99C30.1 65.79 30.93 65.65 31.76 65.49H31.75C32.82 65.27 33.91 65.11 35.01 65.07C35.5 65.05 36.1 65.18 36.55 65.37C37.07 65.6 37.56 65.89 37.91 66.35C39.44 68.38 39.25 71.12 39.09 73.51C38.99 74.89 38.76 76.26 38.54 77.62C38.4 78.46 38.24 79.28 38.14 80.12C38.15 81 37.52 81.81 36.61 81.93C35.67 82.06 34.73 81.38 34.62 80.41C34.55 79.82 34.69 79.21 34.79 78.62C34.86 78.17 34.94 77.72 35.01 77.27C35.25 75.79 35.49 74.31 35.6 72.81C35.6 72.82 35.6 72.83 35.6 72.83C35.6 72.81 35.6 72.79 35.6 72.77C35.6 72.74 35.6 72.71 35.61 72.68C35.61 72.7 35.61 72.72 35.6 72.74C35.64 72.04 35.67 71.34 35.64 70.63V70.62C35.28 70.95 34.92 71.27 34.55 71.59C33.75 72.28 32.94 72.96 32.12 73.63C30.69 74.82 29.27 76.02 27.86 77.23C27.3 77.71 26.75 78.18 26.2 78.65C24.47 80.19 22.76 81.74 21.08 83.33C20.28 84.08 19.5 84.87 18.72 85.64C18.4 85.96 18.07 86.29 17.75 86.61C17.15 87.22 16.57 87.88 15.84 88.33C15.57 88.49 15.26 88.57 14.96 88.57C14.53 88.61 14.14 88.49 13.83 88.24Z"
    fill="rgba(191, 192, 191, 1)" />
</svg>