<svg width="75" height="69" viewBox="0 0 75 69" fill="none" xmlns="http://www.w3.org/2000/svg">
  <path fill-rule="evenodd" clip-rule="evenodd"
    d="M34.02 9.85001C34.27 10.46 34.81 10.92 35.45 11.1C35.66 11.15 35.87 11.18 36.11 11.15C36.64 11.15 37.17 10.98 37.6 10.65C37.99 10.34 38.3 9.91 38.56 9.47C38.5674 9.47494 38.5742 9.4805 38.5807 9.48636C38.5873 9.49234 38.5937 9.49869 38.6 9.50503C38.6069 9.5119 38.6138 9.51877 38.621 9.52521C38.627 9.53049 38.6332 9.53549 38.64 9.54001C39.01 9.83002 39.6 10.04 40.07 10.02C40.37 9.99997 40.65 9.98999 40.92 9.86999C41.2 9.75 41.43 9.61999 41.66 9.42999C41.77 9.34 41.87 9.25 41.96 9.14999C42.09 9.75 42.57 10.34 43.14 10.59C43.78 10.87 44.45 10.87 45.11 10.68C45.76 10.5 46.31 10 46.7 9.45999C46.8121 9.3128 46.9194 9.16067 47.0252 9.01059L47.0274 9.00748C47.0717 8.94446 47.1159 8.8818 47.16 8.82001C47.57 9.47 48.39 9.94 49.18 9.79001C49.62 9.70001 50.04 9.59 50.41 9.32001C50.69 9.11001 50.93 8.87997 51.14 8.60998C51.22 8.82999 51.33 9.03 51.48 9.22C52.04 9.94998 53.14 10.13 53.96 9.78C54.44 9.57999 54.8001 9.20999 55.09 8.79001C55.14 8.70999 55.19 8.63998 55.24 8.56C55.6 8.97998 56.09 9.28998 56.64 9.36999C57.15 9.44 57.75 9.26001 58.16 8.92001C58.166 8.95416 58.1724 8.98791 58.1795 9.02136C58.1894 9.06879 58.2004 9.11557 58.2131 9.16193C58.2244 9.20312 58.2369 9.24399 58.251 9.2847C58.2656 9.32657 58.2817 9.36829 58.3 9.41C58.42 9.67999 58.59 9.92999 58.76 10.16C58.973 10.4539 59.2893 10.6625 59.6379 10.7696C59.5424 11.1349 59.4967 11.5025 59.5601 11.89C59.5766 11.9948 59.5931 12.0988 59.6093 12.2025C59.6287 12.3273 59.6475 12.4516 59.6649 12.5762C59.6856 12.7234 59.7043 12.8709 59.72 13.02C59.72 13.0262 59.7202 13.0323 59.7206 13.0381C59.7213 13.0465 59.7222 13.0545 59.7232 13.0625L59.725 13.075C59.7275 13.0925 59.73 13.11 59.73 13.13C59.6 13 59.46 12.88 59.3301 12.76C58.8701 12.32 58.24 12.13 57.61 12.3C57.02 12.47 56.54 12.95 56.38 13.54L56.3637 13.5955C56.2684 13.9181 56.1706 14.2495 56.1801 14.59C56.1893 14.9261 56.2249 15.2362 56.2622 15.5607L56.27 15.63C56.3101 15.91 56.34 16.19 56.37 16.48L56.3749 16.5349C56.3844 16.6391 56.3941 16.7454 56.4049 16.8526C56.4152 16.9545 56.4266 17.0572 56.4401 17.16C56.4338 17.1506 56.4285 17.1421 56.4236 17.134L56.415 17.12C56.4075 17.1075 56.4 17.095 56.39 17.08C56.02 16.47 55.33 16.12 54.62 16.22C53.9301 16.31 53.35 16.83 53.16 17.5C53.05 17.9 53.0001 18.27 53.02 18.69C53.0289 18.9641 53.0845 19.2381 53.1389 19.5052L53.16 19.61C53.19 19.79 53.22 19.97 53.25 20.16C53.09 19.93 52.89 19.72 52.64 19.54C52.0601 19.13 51.41 19.11 50.74 19.29C49.85 19.53 49.3801 20.36 49.4501 21.24L49.4578 21.3216C49.4852 21.6159 49.5134 21.9179 49.5501 22.22L49.5282 22.1689C49.3862 21.8372 49.2482 21.5147 49.02 21.22C48.6401 20.73 48.1401 20.46 47.53 20.38C46.4001 20.23 45.38 21.23 45.54 22.37C45.583 22.6641 45.628 22.9586 45.6735 23.2536L45.705 23.4578C45.8503 24.3993 45.9963 25.3447 46.0901 26.29C45.9001 26 45.7 25.71 45.49 25.42C45.08 24.85 44.29 24.61 43.62 24.8C42.98 24.97 42.3901 25.57 42.3401 26.26C42.3361 26.32 42.3312 26.38 42.3264 26.44C42.3073 26.6797 42.2881 26.9203 42.3201 27.16C42.36 27.4894 42.4298 27.8088 42.4996 28.1282L42.5 28.13C42.6 28.66 42.69 29.18 42.74 29.72C42.77 30.14 42.78 30.55 42.77 30.98C42.7601 31.06 42.75 31.15 42.74 31.24C42.4511 30.8713 42.172 30.4927 41.893 30.114L41.89 30.11C41.59 29.63 41.29 29.15 40.86 28.78C40.48 28.46 40.0701 28.28 39.5701 28.17C38.9401 28.03 38.31 28.16 37.85 28.62C37.45 29.02 37.31 29.55 37.35 30.11C37.3986 30.7696 37.4853 31.4234 37.572 32.0776C37.6458 32.6335 37.7195 33.1896 37.77 33.75C37.6401 33.45 37.5101 33.14 37.39 32.83C37.04 31.93 35.9401 31.52 35.0701 31.89C34.15 32.28 33.8001 33.3 34.13 34.21C34.1332 34.2132 34.1365 34.2164 34.1394 34.2199C34.1413 34.2224 34.1431 34.2249 34.1447 34.2278C34.148 34.2337 34.15 34.2408 34.15 34.25C34.23 34.54 34.3 34.82 34.36 35.11C34.47 35.7 34.56 36.28 34.6 36.87C34.5977 36.8519 34.596 36.8338 34.5945 36.8157C34.5928 36.7938 34.5914 36.7719 34.5901 36.75C34.5876 36.71 34.5851 36.67 34.5801 36.63C34.59 36.88 34.6 37.13 34.6 37.38C34.38 37.03 34.16 36.68 33.9201 36.34C33.7237 36.0637 33.5169 35.7927 33.311 35.5231L33.3079 35.519L33.3052 35.5156L33.1945 35.3706C33.1563 35.3204 33.1181 35.2702 33.0801 35.22C32.59 34.58 31.73 34.38 30.99 34.67C30.32 34.94 29.79 35.33 29.5601 36.04C29.47 36.35 29.4401 36.64 29.4501 36.94C29.2001 36.77 28.9201 36.67 28.63 36.58C27.51 36.24 26.41 37.16 26.39 38.29C26.3801 38.91 26.41 39.53 26.4501 40.15C26.08 39.78 25.56 39.58 24.99 39.66C24.31 39.75 23.7101 40.26 23.53 40.94C23.3801 41.52 23.3901 42.06 23.4601 42.65C23.4877 42.8366 23.5058 43.0137 23.5242 43.1945C23.5305 43.2552 23.5367 43.3163 23.5433 43.3784L23.5501 43.44C23.57 43.66 23.59 43.87 23.61 44.09C23.5 43.84 23.3901 43.6 23.28 43.35C22.9501 42.62 22.21 42.17 21.41 42.28C20.72 42.38 20.15 42.89 19.9501 43.57C19.79 44.13 19.7501 44.68 19.8301 45.26C19.91 45.81 19.97 46.37 20.02 46.92C19.9301 46.7 19.82 46.49 19.6801 46.3C19.39 45.92 19.09 45.69 18.65 45.5C18.0701 45.25 17.38 45.35 16.88 45.73C16.3601 46.13 16.16 46.73 16.2101 47.37C16.2601 47.96 16.31 48.56 16.35 49.15C16.39 49.88 16.41 50.6 16.3701 51.33C16.3651 51.355 16.3625 51.3826 16.36 51.4102C16.3585 51.4271 16.3569 51.4439 16.3548 51.4601C16.3535 51.4704 16.3519 51.4803 16.35 51.49C16.27 51.29 16.2 51.09 16.1301 50.89L16.0987 50.7931C15.8798 50.1166 15.664 49.4497 15.3301 48.82C14.9201 48.04 13.89 47.75 13.1101 48.08C12.38 48.39 11.95 49.16 12.0501 49.95C12.1698 50.948 12.2597 51.946 12.3495 52.944L12.35 52.95C12.37 53.31 12.3801 53.68 12.3901 54.04C12.2501 53.83 12.1 53.63 11.9401 53.43C11.08 52.32 9.18006 52.64 8.83008 54.04C8.74006 54.37 8.65003 54.72 8.64008 55.07C8.64008 55.41 8.66004 55.75 8.68006 56.09L8.68549 56.1456C8.68964 56.1881 8.69343 56.2307 8.69611 56.2733C8.69855 56.3122 8.70008 56.3511 8.70008 56.39C8.57008 56.05 8.44001 55.7 8.30006 55.36C8.02003 54.64 7.19001 54.16 6.43006 54.29C5.69001 54.42 5.08002 54.73 4.74006 55.44C4.45002 56.06 4.49006 56.69 4.56007 57.35C4.57001 57.93 4.55006 58.52 4.52009 59.1C4.45252 58.9745 4.38264 58.849 4.31153 58.7235C4.23591 58.5901 4.159 58.4568 4.0821 58.3234L4.08009 58.32C3.50007 57.32 2.12 57.17 1.30006 57.96C1.11005 58.15 0.94004 58.35 0.800025 58.58C0.630012 58.86 0.580055 59.15 0.540046 59.47C0.482917 59.9269 0.592231 60.3705 0.699561 60.8062C0.723792 60.9045 0.747932 61.0024 0.770026 61.1C1.00001 62.36 1.23005 63.61 1.49006 64.86C1.38001 65.24 1.40003 65.65 1.55006 66.04C1.60004 66.15 1.63001 66.25 1.67005 66.36L1.66572 66.3512C1.66279 66.3451 1.6601 66.3392 1.6576 66.3334C1.64924 66.3056 1.64118 66.2778 1.63007 66.25C1.6377 66.2807 1.64539 66.3055 1.6576 66.3334C1.66053 66.343 1.66346 66.3526 1.66657 66.3622C1.6706 66.3748 1.67499 66.3874 1.68006 66.4C1.68006 66.42 1.69007 66.43 1.69007 66.44V66.42C1.70557 66.4614 1.7204 66.5035 1.73493 66.5459C1.74842 66.5852 1.7616 66.6248 1.77479 66.6645C1.79121 66.7137 1.80781 66.7637 1.82477 66.8124C1.83625 66.8452 1.84797 66.8778 1.86005 66.91C2.12 67.67 2.76002 68.21 3.55006 68.21H3.75007C4.63001 68.09 5.26008 67.34 5.2801 66.46C5.29005 66.16 5.25007 65.86 5.20008 65.56C5.58002 65.53 5.97004 65.4 6.29005 65.21C6.88001 64.87 7.32001 64.26 7.50007 63.61C7.51484 63.5568 7.52875 63.5045 7.54176 63.4525C7.55262 63.4092 7.56287 63.3662 7.57252 63.3231C7.59046 63.2429 7.60633 63.1625 7.62006 63.08C7.89014 63.4466 8.3371 63.6643 8.73652 63.8588L8.7801 63.88C9.50007 64.23 10.39 63.92 10.8701 63.33C10.9188 63.2686 10.9691 63.2073 11.0197 63.1456C11.2499 62.8651 11.4871 62.576 11.6101 62.24C11.76 61.85 11.89 61.45 11.9501 61.03C12.0101 60.63 12.06 60.23 12.1 59.83C12.2191 59.8829 12.3337 59.9271 12.447 59.9712C12.505 59.9937 12.5625 60.0163 12.6201 60.04C13.33 60.31 14.2501 60.15 14.7101 59.49L14.7825 59.3854C15.0463 59.0044 15.2976 58.6416 15.4901 58.22C15.73 57.72 15.79 57.1 15.8401 56.56C15.8401 56.5479 15.841 56.5348 15.8423 56.5211C15.8435 56.508 15.845 56.4944 15.8464 56.4805C15.8484 56.4608 15.85 56.4404 15.85 56.42L16.1501 56.51C16.7701 56.67 17.34 56.52 17.89 56.24C18.21 56.07 18.47 55.75 18.6901 55.47C18.89 55.23 19.03 54.95 19.1701 54.67C19.37 54.26 19.5 53.84 19.6 53.4C19.78 53.51 19.97 53.6 20.1801 53.66C20.46 53.73 20.77 53.77 21.0601 53.73C21.3601 53.69 21.6201 53.56 21.88 53.42C22.5001 53.1 22.8701 52.36 23.13 51.75C23.3001 51.37 23.39 50.94 23.4501 50.51C23.85 50.72 24.3001 50.83 24.78 50.77C25.47 50.68 26.0701 50.4 26.51 49.83C26.85 49.39 27.03 48.8 27.14 48.23C27.1973 48.2538 27.2545 48.2731 27.3117 48.2911C27.3344 48.2983 27.3571 48.3052 27.3799 48.3122C27.4199 48.3244 27.46 48.3367 27.5 48.35C28.26 48.58 29.1101 48.21 29.5 47.54C29.78 47.06 30.02 46.59 30.1 46.04L30.16 45.56L30.1622 45.5623C30.1637 45.5641 30.1649 45.5658 30.166 45.5676C30.1676 45.5702 30.169 45.5728 30.1703 45.5755L30.1718 45.5785C30.1728 45.5804 30.1739 45.5823 30.1752 45.5842C30.1765 45.5861 30.1781 45.588 30.1801 45.59C30.48 46.03 31.0601 46.28 31.5801 46.28C32.0601 46.28 32.4901 46.08 32.8301 45.76C33.1901 45.42 33.4201 45.06 33.5501 44.58C33.633 44.2563 33.6472 43.9052 33.661 43.5607C33.6638 43.4901 33.6666 43.4197 33.6701 43.35C33.71 42.72 33.6901 42.1 33.64 41.48L33.91 41.6C34.22 41.71 34.4901 41.79 34.8101 41.83C35.14 41.86 35.43 41.81 35.74 41.72C36.28 41.57 36.74 41.19 37.1 40.78C37.52 40.31 37.7501 39.75 37.9 39.15C38.9 39.29 40.03 38.81 40.53 37.94C40.9201 37.27 41.16 36.45 41.23 35.68C41.26 35.4 41.28 35.12 41.29 34.84C42.26 35.53 43.6701 35.76 44.65 34.99C45.6801 34.2 46.13 32.88 46.25 31.63C46.255 31.5707 46.2599 31.509 46.2648 31.4472L46.2658 31.437C46.2705 31.3772 46.2753 31.3174 46.28 31.26H46.3001C46.71 31.3 47.1 31.3 47.51 31.19C47.8701 31.09 48.2501 30.89 48.51 30.63C48.9901 30.16 49.3101 29.55 49.4601 28.89C49.47 28.88 49.47 28.87 49.47 28.86C49.5169 28.8925 49.5651 28.9223 49.6141 28.9501C49.6394 28.9643 49.6647 28.978 49.6903 28.9912C49.7529 29.0235 49.8165 29.0528 49.88 29.08C50.51 29.35 51.24 29.44 51.86 29.08C52.37 28.78 52.7501 28.28 52.9601 27.73C53.1101 27.33 53.2001 26.93 53.27 26.53C53.4322 26.6291 53.6106 26.7038 53.7833 26.7762L53.8401 26.8C54.5501 27.09 55.47 26.9 55.9301 26.25L55.9699 26.1953C56.3077 25.7327 56.6546 25.2576 56.77 24.69C56.8101 24.49 56.85 24.28 56.88 24.08C57.46 24.27 58.09 24.2 58.65 23.97C59.2601 23.72 59.72 23.08 59.88 22.46C60.13 21.52 60.2 20.57 60.1801 19.61C60.69 19.84 61.28 19.89 61.8201 19.74C62.3701 19.59 62.8201 19.16 63.0701 18.65C63.3101 18.18 63.45 17.63 63.5 17.08C63.6801 17.11 63.8601 17.12 64.0501 17.1C64.62 17.05 65.16 16.8 65.53 16.35C65.5397 16.3385 65.5492 16.327 65.5586 16.3155C65.5933 16.3652 65.6306 16.4134 65.67 16.46C65.66 16.465 65.65 16.4726 65.64 16.4801C65.63 16.4875 65.6199 16.495 65.61 16.5C64.64 17.24 64.73 18.82 65.8 19.43C65.96 19.53 66.1199 19.61 66.29 19.69C66.14 19.76 65.99 19.82 65.84 19.88C64.9 20.28 64.43 21.51 65 22.4L65.0132 22.4206C65.1683 22.6632 65.3165 22.895 65.55 23.07C65.76 23.2401 66.02 23.35 66.27 23.43C66.12 23.6 65.99 23.79 65.87 23.98C65.58 24.4301 65.56 25 65.75 25.49L65.6519 25.5352C65.4466 25.6298 65.2458 25.7224 65.03 25.8C64.66 25.93 64.3 26.1 64.02 26.38C63.81 26.58 63.69 26.82 63.57 27.08C63.3 27.65 63.42 28.36 63.8 28.85C63.92 29.01 64.0599 29.14 64.22 29.24C64.01 29.7 63.96 30.2 64.17 30.69C64.28 30.9601 64.4799 31.22 64.72 31.41C64.7033 31.4267 64.6866 31.4365 64.6641 31.445C64.6599 31.4467 64.6548 31.4485 64.65 31.45C64.31 31.63 63.96 31.8 63.62 31.97C62.79 32.39 62.49 33.6201 62.99 34.39C63.17 34.67 63.3699 34.92 63.67 35.09C63.88 35.22 64.13 35.29 64.38 35.33L64.35 35.54C64.28 36.2101 64.56 36.8 65.03 37.17C64.92 37.23 64.82 37.3 64.73 37.37C64.26 37.73 63.94 38.28 63.94 38.88C63.94 39.33 64.07 39.77 64.34 40.12C64.2 40.34 64.1099 40.59 64.04 40.86C63.88 41.45 64.07 42.0901 64.46 42.54C64.04 42.79 63.62 43.05 63.2 43.31C62.47 43.77 62.09 44.71 62.46 45.53C62.67 46.01 62.97 46.39 63.46 46.6C63.97 46.82 64.47 46.8101 65.01 46.76H65.07C64.78 47.1801 64.68 47.71 64.82 48.22C64.88 48.44 64.98 48.64 65.11 48.81C64.96 48.91 64.8076 49.0075 64.6551 49.1049C64.5026 49.2025 64.35 49.3 64.2 49.4C63.43 49.9 63 50.9901 63.56 51.82C63.72 52.06 63.8699 52.29 64.1 52.47C64.35 52.66 64.63 52.76 64.94 52.82C65.29 52.88 65.62 52.86 65.94 52.81C66.16 53.26 66.57 53.59 67.06 53.74C67.27 53.81 67.4899 53.85 67.73 53.83C68.2803 53.83 68.8231 53.6378 69.3524 53.4504L69.3546 53.4496C69.4401 53.4193 69.5252 53.3892 69.61 53.36C70.29 53.13 70.8 52.57 70.89 51.9C70.9448 51.8552 70.9972 51.8103 71.0495 51.7654L71.0982 51.7238C71.1348 51.6925 71.1718 51.6613 71.21 51.63C71.74 51.16 72.03 50.48 71.83 49.76C71.73 49.42 71.55 49.13 71.3 48.92C71.35 48.86 71.4 48.79 71.44 48.72C71.64 48.4 71.8099 48.04 71.79 47.65C71.78 47.37 71.7399 47.12 71.67 46.85C71.61 46.66 71.52 46.47 71.4 46.3C71.6178 46.0159 71.7639 45.696 71.9146 45.3656L71.94 45.31C72.17 44.81 72.11 44.19 71.84 43.73C71.6 43.3101 71.23 43.07 70.78 42.91C70.719 42.8857 70.658 42.8687 70.5993 42.8524C70.5617 42.8419 70.5251 42.8318 70.49 42.82C70.65 42.63 70.79 42.42 70.88 42.21C71.02 41.88 71.06 41.55 71.09 41.2C71.13 40.72 71.04 40.2701 70.74 39.88L70.73 39.87C71.09 39.32 71.11 38.54 70.77 38C70.72 37.93 70.66 37.85 70.61 37.77C70.85 37.56 71.07 37.35 71.28 37.1C71.49 36.86 71.6199 36.51 71.73 36.21C72.07 35.31 71.7 34.35 70.87 33.93C71.04 33.56 71.08 33.13 70.97 32.73C70.89 32.45 70.76 32.22 70.57 32.02C70.6 31.99 70.63 31.9601 70.66 31.92C70.9199 31.6201 71.03 31.16 71.12 30.78C71.25 30.19 71.1199 29.56 70.73 29.12C71.11 28.78 71.34 28.34 71.34 27.8C71.34 27.43 71.21 27.04 70.98 26.73L71.19 26.46C71.6 25.94 71.64 25.29 71.42 24.74L71.75 24.56C72.14 24.34 72.54 24.09 72.83 23.72C73.43 22.94 73.4 21.87 72.8 21.09L72.77 21.06C73.15 20.88 73.52 20.6801 73.89 20.48C74.65 20.07 74.97 19.05 74.63 18.26C74.44 17.8401 74.18 17.45 73.78 17.22C73.58 17.11 73.37 17.03 73.15 16.99C73.68 16.49 73.89 15.7 73.59 15C73.45 14.69 73.29 14.4 73.05 14.16C72.9 14.01 72.73 13.9001 72.55 13.82C72.59 13.5901 72.57 13.36 72.52 13.13C73.05 12.7401 73.4399 12.23 73.54 11.51C73.64 10.79 73.38 9.94003 72.79 9.49002C72.6177 9.36078 72.4309 9.25186 72.2358 9.16165C72.3308 9.06525 72.4193 8.9599 72.51 8.85001C72.7 8.63 72.8301 8.32001 72.9 8.04001C72.9301 7.91501 72.9625 7.78751 72.9951 7.66L73.0388 7.48773C73.0564 7.418 73.0736 7.34863 73.0901 7.28C73.4601 7.28998 73.84 7.17999 74.1701 6.92001C74.9 6.36002 75.12 5.16998 74.49 4.44C74.46 4.39999 74.4301 4.36999 74.4 4.32999C74.3901 4.31998 74.39 4.31 74.39 4.31C74.3776 4.29446 74.3661 4.27795 74.355 4.26108C74.3483 4.25088 74.3417 4.24054 74.3352 4.23019C74.3176 4.20261 74.3001 4.17505 74.28 4.14999C74.3001 4.19 74.33 4.22 74.35 4.26001C74.21 4.06 74.08 3.84998 73.9401 3.64999C73.82 3.45999 73.7 3.27997 73.5501 3.10998C73.34 2.86996 73.1201 2.70999 72.8301 2.54999C72.1099 2.14993 71.1686 2.27942 70.6242 2.88922C70.4342 2.77097 70.229 2.67538 70.0123 2.62244L70.01 2.61999C69.4307 2.00409 68.4833 1.98315 67.8072 2.38486C67.6988 2.27322 67.5745 2.17368 67.43 2.09C67 1.84 66.47 1.69998 65.98 1.76999C65.61 1.81998 65.25 1.94 64.95 2.14999C64.4 1.45999 63.46 1.28 62.67 1.70999C62.37 1.86999 62.09 2.05997 61.88 2.32999C61.6802 2.58978 61.5403 2.87952 61.4004 3.16928C61.3868 3.19632 61.3723 3.22406 61.3577 3.25107C61.3453 3.27405 61.3326 3.29703 61.32 3.32001C61.2925 3.36999 61.265 3.41998 61.24 3.47L61.06 2.89999C60.74 1.85998 59.68 1.36999 58.67 1.73999C58.07 1.95999 57.53 2.38998 57.3 3C57.2579 3.11584 57.2158 3.22894 57.1721 3.34073C57.1329 3.44119 57.0926 3.54062 57.05 3.64001C56.53 3.03 55.76 2.81 54.98 3.10001C54.61 3.23999 54.25 3.41 53.97 3.70001C53.83 3.45001 53.64 3.22 53.43 3.04001C53.18 2.82001 52.89 2.67999 52.59 2.54001C51.88 2.19 50.97 2.48999 50.5 3.09C50.3 3.34 50.1 3.59998 49.92 3.85998C49.9 3.80997 49.87 3.75 49.85 3.70001C49.58 3.14001 49.12 2.80997 48.56 2.57999C47.73 2.23999 46.83 2.57001 46.35 3.32001C45.99 3.86999 45.67 4.42999 45.35 5V4.85998C45.3599 4.10821 45.2817 3.36624 45.2026 2.61472L45.2 2.59C45.14 1.97998 44.69 1.42999 44.14 1.20001C43.54 0.950012 42.89 1.04999 42.37 1.42999C42.07 1.64999 41.77 1.89999 41.58 2.22C41.4 2.54001 41.26 2.85998 41.14 3.20999C41.1361 3.22183 41.1321 3.23367 41.1275 3.24551C41.1206 3.26367 41.1121 3.28183 41.1 3.29999L41.0993 3.2934C41.0795 3.10559 41.0597 2.91782 41.03 2.73001C40.91 1.94 40.3 1.31998 39.51 1.20999C38.82 1.11999 38.08 1.45001 37.74 2.07001C37.48 2.51001 37.27 2.97 37.12 3.45999C37.01 2.97 36.74 2.54001 36.44 2.13C35.73 1.17001 34.07 1.23001 33.51 2.32001C33.47 2.39001 33.44 2.44998 33.4 2.51999C33.391 2.47037 33.3815 2.42123 33.3717 2.37241C33.3597 2.31299 33.3474 2.254 33.335 2.19501C33.3125 2.08749 33.29 1.97998 33.27 1.86999C33.07 0.889984 31.98 0.429992 31.09 0.630004C30.64 0.73999 30.2 0.959991 29.91 1.34C29.64 1.69998 29.51 2.09 29.39 2.5C29.28 2.79001 29.18 3.06998 29.08 3.35998C28.69 2.98999 28.09 2.75 27.55 2.75C27.27 2.75 26.98 2.78998 26.72 2.89999C26.45 3.00998 26.25 3.19 26.04 3.39001C25.59 3.80002 25.37 4.53 25.24 5.09C25.14 5.51999 25.05 5.94 25.05 6.38C25.05 7.35001 25.86 8.14999 26.82 8.14999H26.89L26.8906 8.15311C26.9704 8.65207 27.0502 9.15103 27.16 9.64001C27.45 10.91 29.24 11.38 30.12 10.42C30.1496 10.3867 30.1793 10.354 30.2086 10.3216L30.2121 10.3179C30.3401 10.1769 30.4631 10.0415 30.56 9.88C30.64 9.73001 30.72 9.57001 30.79 9.41C30.7957 9.38995 30.8023 9.37155 30.8092 9.35385C30.8264 9.30972 30.8457 9.26996 30.86 9.22L30.92 9.31C31.17 9.69 31.64 9.92999 32.08 9.98999C32.56 10.05 33.01 9.89999 33.4 9.63C33.5501 9.51999 33.7 9.40997 33.84 9.29999C33.89 9.48999 33.95 9.67001 34.02 9.85001ZM62.5104 9.54617C62.4539 9.47961 62.4011 9.40964 62.3523 9.33722C62.3285 9.3771 62.3043 9.41656 62.2795 9.45566C62.3239 9.48035 62.3674 9.50693 62.4098 9.5354C62.4404 9.55597 62.4705 9.57751 62.5 9.60001C62.5031 9.58185 62.5065 9.56393 62.5104 9.54617Z"
    fill="rgba(191, 192, 191, 1)" />
</svg>