<svg width="76" height="82" viewBox="0 0 76 82" fill="none" xmlns="http://www.w3.org/2000/svg">
  <path fill-rule="evenodd" clip-rule="evenodd"
    d="M14.26 61.57C14.1584 61.5686 14.0596 61.5592 13.9638 61.5425C14.1389 61.8426 14.3169 62.142 14.5 62.44C14.6179 62.631 14.7364 62.8221 14.855 63.0134C15.2394 63.6332 15.6255 64.2557 16 64.89C16.53 65.76 17.05 66.64 17.56 67.51C18.05 68.34 18.5601 69.14 19.08 69.94C20.2001 71.43 21.3101 72.92 22.4 74.43C22.97 75.22 23.55 76 24.18 76.75C24.49 77.11 24.8 77.47 25.11 77.84C25.3691 78.172 25.6086 78.5303 25.8444 78.8829C25.8997 78.9657 25.9549 79.0482 26.01 79.13C26.54 79.94 26.18 81.08 25.38 81.56C25.1 81.72 24.8101 81.8 24.51 81.8C23.9 81.78 23.3101 81.45 22.95 80.9C22.9279 80.8724 22.9089 80.8417 22.8895 80.8113C22.8738 80.7867 22.8579 80.7623 22.84 80.74C22.36 80.04 21.8201 79.41 21.26 78.76C20.65 78.05 20.1 77.28 19.55 76.52C18.47 75.02 17.36 73.54 16.25 72.06C15.9301 71.64 15.66 71.17 15.37 70.72C15.15 70.3899 14.95 70.05 14.75 69.71L13.19 67.07C12.8004 66.4129 12.399 65.7676 11.9994 65.125L11.9804 65.0944C11.8633 64.9061 11.7465 64.7181 11.63 64.53C11.208 63.838 10.8003 63.1317 10.3948 62.4292L10.17 62.04L10.0672 61.8636C9.82324 61.4445 9.58319 61.0322 9.32 60.62C8.87005 59.96 8.37005 59.33 7.89001 58.7C7.43237 58.0932 6.98468 57.4763 6.53698 56.8595L6.53003 56.85L6.28527 56.5113C5.55816 55.5046 4.83337 54.5011 4.05999 53.53C3.81378 53.2555 3.56591 52.9827 3.31775 52.7095C2.95132 52.3061 2.58358 51.9012 2.22003 51.49C1.36001 50.52 0.420041 49.35 0.350033 48.01C0.300046 47.05 1.19003 46.24 2.12002 46.24C3.00003 46.24 3.67001 46.87 3.84002 47.67L3.85003 47.68V47.66C3.85003 47.68 3.86001 47.7 3.87002 47.71C3.87622 47.7254 3.88241 47.74 3.88861 47.7541C3.9024 47.7857 3.91623 47.8154 3.93002 47.85C3.99002 47.97 4.06006 48.09 4.14001 48.2C4.47003 48.66 4.84002 49.1 5.21002 49.53C5.26953 49.5942 5.32916 49.6582 5.38879 49.7222L5.56665 49.9125C6.08874 50.4706 6.6076 51.0254 7.08001 51.62C7.69006 52.38 8.26007 53.16 8.83001 53.96C9.38006 54.75 9.94006 55.53 10.52 56.3C10.6107 56.4189 10.7005 56.5367 10.7899 56.6543L10.9604 56.8787C11.0995 57.0616 11.2385 57.2446 11.38 57.43C11.8158 58.0014 12.2209 58.5832 12.5991 59.1896C12.7368 58.8202 12.9955 58.5053 13.32 58.3C13.8322 57.7969 14.3026 57.252 14.7695 56.7112L14.9 56.56C15.3426 56.0311 15.7781 55.4966 16.2134 54.9623L16.2165 54.9587C16.9409 54.0696 17.6649 53.1812 18.42 52.32C19.361 51.2506 20.3122 50.1965 21.2628 49.1431C21.6455 48.7189 22.0281 48.2948 22.41 47.87C24.93 45.06 27.5 42.28 30.14 39.59C31.64 38.05 33.16 36.54 34.69 35.04C35.91 33.84 37.1399 32.65 38.42 31.51C41.49 28.77 44.62 26.1 47.75 23.43C48.8602 22.4857 49.9594 21.529 51.0588 20.5721L51.0619 20.5695C52.7443 19.1053 54.4271 17.6407 56.15 16.22C57.0173 15.5049 57.8863 14.793 58.7551 14.0814L58.7643 14.0739C60.9174 12.3103 63.0688 10.5479 65.19 8.73998C66.08 7.98998 66.96 7.22997 67.83 6.46001C68.56 5.79997 69.28 5.13994 69.99 4.46996L69.8241 4.48021C69.3893 4.50676 68.9536 4.53337 68.51 4.55998C67.49 4.60997 66.48 4.61998 65.46 4.61998C64.9854 4.61998 64.5107 4.60045 64.036 4.58092C63.7507 4.5692 63.4653 4.55748 63.18 4.54997C62.23 4.52995 61.29 4.52995 60.35 4.54997C60.3655 4.54802 60.381 4.54649 60.3965 4.54515C59.4647 4.61913 58.5475 4.70824 57.6231 4.79808L57.5 4.80998C57 4.85997 56.5 4.91002 56.02 4.71001C55.5 4.48998 55.08 3.98998 54.93 3.43999C54.79 2.91997 54.91 2.40001 55.17 1.95C55.4351 1.49547 55.8885 1.16661 56.3094 0.861314L56.38 0.809984C57.16 0.249986 58.24 0.349962 58.85 1.10997C59.15 1.07994 59.45 1.05992 59.75 1.03996C60.85 0.959947 61.94 0.969957 63.04 0.989976C63.3929 0.997484 63.7459 1.0092 64.0989 1.02092C64.6859 1.04045 65.2729 1.05998 65.86 1.05998C66.98 1.05998 68.08 1.01994 69.19 0.969957C69.6132 0.939439 70.0381 0.908922 70.4626 0.879198C71.0111 0.840806 71.5587 0.803819 72.1 0.770006C72.47 0.749986 72.84 0.720018 73.21 0.710008C73.89 0.679979 74.58 0.650011 75.15 1.09001C76.07 1.79997 76.01 3.02001 75.39 3.90001C75.3715 3.92571 75.3528 3.95122 75.3338 3.97661C75.4297 4.9644 75.5157 5.9522 75.55 6.93999C75.58 7.74999 75.64 8.55998 75.64 9.37999C75.64 9.57103 75.6395 9.76158 75.6388 9.95189C75.6362 10.6482 75.63 11.341 75.63 12.04C75.63 12.79 75.56 13.55 75.52 14.31C75.48 15.08 75.41 15.85 75.34 16.61C75.295 17.11 75.2476 17.61 75.2 18.11C75.1525 18.61 75.105 19.11 75.06 19.61C75.42 20.1 75.52 20.7599 75.27 21.35C75.08 21.81 74.88 22.23 74.6 22.64C74.29 23.09 73.73 23.33 73.19 23.33C73.12 23.33 73.04 23.32 72.96 23.31C72.32 23.22 71.84 22.81 71.57 22.24C71.3149 21.7132 71.3781 21.0647 71.4363 20.467C71.4489 20.3384 71.4611 20.2121 71.47 20.09C71.4808 19.9268 71.4932 19.7636 71.5065 19.6004C71.5419 19.1636 71.5836 18.7267 71.62 18.29C71.6776 17.6675 71.7379 17.0478 71.798 16.4294C71.8528 15.8656 71.9076 15.3028 71.96 14.74C71.9689 14.5502 71.9779 14.3606 71.9869 14.1711C72.0393 13.073 72.0914 11.9801 72.1 10.88C72.1 9.71172 72.0714 8.55058 72.0322 7.39061C71.294 8.08141 70.5385 8.75359 69.78 9.41997C68.26 10.7499 66.72 12.04 65.17 13.33C64.0291 14.282 62.884 15.2253 61.7395 16.1683C59.8542 17.7214 57.9705 19.2732 56.11 20.86C55.3472 21.5075 54.5935 22.164 53.8389 22.8214L53.8244 22.834C53.2087 23.3703 52.5924 23.9072 51.97 24.44C50.56 25.64 49.15 26.84 47.74 28.05C46.7646 28.8965 45.7818 29.7392 44.8007 30.5804C44.1824 31.1106 43.5647 31.6403 42.95 32.17C40.16 34.6399 37.42 37.18 34.81 39.84L34.4902 40.1656C31.8955 42.808 29.2882 45.4632 26.81 48.22C26.5157 48.5464 26.2212 48.8729 25.9267 49.1994L25.9228 49.2038C24.2068 51.1062 22.4888 53.0108 20.8 54.93L20.4542 55.3505C19.6915 56.2782 18.9333 57.2003 18.16 58.13C17.71 58.67 17.25 59.1999 16.79 59.72C16.705 59.8166 16.6185 59.9187 16.5298 60.0231L16.5286 60.0248C15.9298 60.7314 15.2363 61.55 14.27 61.55C14.2733 61.5566 14.2745 61.561 14.2741 61.5639C14.2737 61.5674 14.2714 61.5688 14.2682 61.5695C14.2659 61.57 14.2629 61.57 14.26 61.57ZM60.59 4.53002C60.55 4.53502 60.51 4.53752 60.47 4.54003L60.59 4.53002Z"
    fill="rgba(191, 192, 191, 1)" />
</svg>