<svg width="83" height="73" viewBox="0 0 83 73" fill="none" xmlns="http://www.w3.org/2000/svg">
  <path fill-rule="evenodd" clip-rule="evenodd"
    d="M57.02 13.18C56.78 14.12 57.3101 15.1 58.25 15.36C58.4 15.4 58.5599 15.42 58.73 15.43C59.51 15.43 60.26 14.91 60.46 14.13C60.4882 13.9966 60.526 13.8583 60.5634 13.722L60.5641 13.7196C60.5797 13.6626 60.5952 13.6058 60.61 13.55C60.71 13.32 60.8201 13.09 60.9301 12.87C60.89 12.93 60.86 13 60.82 13.07C61.48 11.78 62.0501 10.46 62.5501 9.10001C62.78 8.46003 62.99 7.8 63.08 7.12L63.0913 7.04017C63.1682 6.50413 63.2485 5.943 63.22 5.4C63.2 4.81001 63.16 4.15003 62.9 3.60001C62.67 3.12003 62.41 2.68003 62.0601 2.29002C61.63 1.80003 61.1499 1.4 60.58 1.09C60.14 0.860024 59.66 0.730019 59.1801 0.630013C57.3855 0.261391 55.5627 0.184517 53.73 0.107186L53.5601 0.100014L53.5171 0.0980001C53.2548 0.0854879 52.994 0.0730672 52.7335 0.0621724C52.3832 0.047524 52.0332 0.0356221 51.6801 0.0300069C50.9401 0.0199971 50.2 0.0399862 49.47 0.109993C49.01 0.150002 48.59 0.360024 48.24 0.630013C47.75 1.01002 47.4601 1.66001 47.5601 2.27C47.5601 2.31001 47.57 2.35001 47.58 2.39002V2.42002C47.6799 3.29002 48.4399 3.99 49.34 3.99C49.76 3.99 50.1499 3.84 50.45 3.59C52.3099 3.52 54.1801 3.63001 56.02 3.75001C56.0613 3.75001 56.1 3.75266 56.1373 3.75526C56.1635 3.75706 56.1887 3.7588 56.214 3.75959C56.9817 3.82136 57.7408 3.92817 58.5 4.07999C58.6 4.10001 58.7001 4.13001 58.8001 4.16001C58.8401 4.17002 58.88 4.19001 58.92 4.21C58.9301 4.215 58.9426 4.22248 58.9551 4.22999C58.9675 4.2375 58.98 4.245 58.99 4.25001C59.02 4.27506 59.0501 4.29762 59.0801 4.32014L59.1196 4.34992C59.1365 4.3628 59.1532 4.37602 59.17 4.39002C59.2566 4.46085 59.3308 4.53788 59.4023 4.61625L59.4052 4.61933L59.4063 4.6208L59.4172 4.63291L59.4203 4.63944L59.4426 4.67005L59.45 4.67991L59.4738 4.71244L59.491 4.73536L59.51 4.76002C59.5145 4.76676 59.519 4.77403 59.5236 4.78156L59.54 4.81001L59.5422 4.81385L59.5536 4.83363C59.5591 4.8429 59.5645 4.85181 59.57 4.85999C59.58 4.88999 59.59 4.92002 59.61 4.95002C59.6147 4.97865 59.6218 5.00727 59.6289 5.0359L59.63 5.04002C59.63 5.11002 59.64 5.18 59.65 5.24C59.66 5.44001 59.66 5.63001 59.65 5.82999C59.61 6.16999 59.5701 6.50001 59.52 6.82999C59.4301 7.16001 59.34 7.49 59.23 7.81001C58.79 8.97001 58.3101 10.1 57.77 11.22C57.6 11.56 57.4301 11.9 57.29 12.26C57.16 12.56 57.1 12.87 57.02 13.18ZM59.46 4.68V4.69001L59.4533 4.67793C59.4496 4.67194 59.4458 4.66642 59.4418 4.6612L59.46 4.68ZM59.65 5.15C59.65 5.13841 59.6492 5.12766 59.6477 5.11729L59.65 5.13001V5.15Z"
    fill="rgba(191, 192, 191, 1)" />
  <path
    d="M21.46 72.23C20.9401 72.1201 20.5001 71.69 20.3001 71.21C20.04 70.6 20.17 69.97 20.53 69.44C20.661 69.2475 20.8113 69.0682 20.9705 68.8961C21.125 68.7291 21.2878 68.5687 21.4498 68.4093C21.5259 68.3344 21.6017 68.2598 21.6764 68.1849C21.7045 68.1567 21.7323 68.1284 21.76 68.1C21.8955 67.9612 22.031 67.8235 22.1661 67.6861C22.4397 67.4081 22.7125 67.131 22.98 66.85C23.53 66.29 24.0701 65.72 24.62 65.16C25.76 63.97 26.87 62.76 27.98 61.54L28.2667 61.1999L28.2678 61.1984C28.9735 60.3618 29.6824 59.5214 30.36 58.65C31.15 57.62 31.91 56.58 32.66 55.52C33.04 54.91 33.42 54.29 33.8001 53.6701C34.0675 53.2296 34.3038 52.7582 34.5386 52.29L34.5415 52.2844C34.6043 52.1592 34.6669 52.0342 34.73 51.91C35.03 51.24 35.3201 50.57 35.62 49.9C35.8323 49.4119 36.0145 48.9038 36.1951 48.4004C36.2338 48.2924 36.2723 48.1847 36.3112 48.0774L36.359 47.9456L36.42 47.78C36.5385 47.4346 36.6589 47.0892 36.7795 46.7437L36.7814 46.739L36.8001 46.685C36.9275 46.32 37.0551 45.955 37.1801 45.59C37.1602 45.66 37.13 45.73 37.11 45.81C37.53 44.6 37.92 43.35 38.2 42.09C38.29 41.61 38.3701 41.13 38.42 40.63C38.4401 40.19 38.4401 39.75 38.42 39.31C38.4121 39.2182 38.4032 39.1266 38.3934 39.0353C38.3867 38.9725 38.3796 38.9098 38.3722 38.8472C38.3535 38.6909 38.3325 38.5353 38.3097 38.3803C37.7282 38.3022 37.1502 38.2029 36.5734 38.1038C36.2687 38.0514 35.9644 37.9991 35.66 37.9501C34.9834 37.8407 34.3162 37.6706 33.6486 37.5005C33.3394 37.4217 33.0302 37.3428 32.72 37.27C32.1724 37.1388 31.6289 36.9891 31.0858 36.8395C30.4288 36.6586 29.7723 36.4778 29.11 36.33C28.62 36.24 28.13 36.17 27.63 36.13C27.27 36.11 26.92 36.11 26.5601 36.13C26.2201 36.17 25.89 36.21 25.5601 36.27C25.2001 36.36 24.85 36.4501 24.5 36.57C24.0501 36.75 23.6101 36.93 23.17 37.1401C22.137 37.6736 21.1611 38.3003 20.182 38.9291L19.8734 39.1271L19.65 39.27C18.67 39.96 17.72 40.69 16.82 41.48C15.8833 42.3171 15.0062 43.2137 14.1591 44.1303C12.8069 45.6683 11.4667 47.2268 10.22 48.86L9.83545 49.3579C8.57386 50.9904 7.3075 52.6294 6.14039 54.3375C6.15149 54.319 6.1615 54.2999 6.17005 54.28C5.88001 54.72 5.58008 55.16 5.28003 55.6C5.62 56.5 5.16993 57.46 4.31995 57.86C4.2511 57.8924 4.18262 57.9255 4.11426 57.9586C3.67615 58.1705 3.24305 58.38 2.75 58.38H2.68995C1.5 58.35 0.729985 57.2701 0.979985 56.1401C1.13916 55.4138 1.52588 54.8261 1.94349 54.2095L1.94996 54.2001L3.19996 52.35C3.17994 52.38 3.17005 52.4 3.15003 52.43C4.16138 50.941 5.2605 49.5045 6.35706 48.0714L6.57996 47.78C7.66993 46.35 8.78003 44.93 9.95997 43.57C10.95 42.43 11.9401 41.29 13 40.21C14.53 38.66 16.25 37.25 18.08 36.07L18.3691 35.886C19.5592 35.1282 20.7333 34.3807 22.01 33.77C23.13 33.23 24.3001 32.88 25.53 32.68C26.9 32.45 28.34 32.58 29.6899 32.84C30.8109 33.0608 31.91 33.3681 33.0121 33.6762C33.2079 33.7309 33.4038 33.7857 33.6 33.84C34.2097 34.011 34.8304 34.1489 35.4498 34.2864C35.58 34.3153 35.7101 34.3442 35.84 34.3734L35.9929 34.4079L36.09 34.43C36.5957 34.5134 37.1014 34.5967 37.6072 34.6784C37.3478 33.2966 37.1379 31.9114 37.08 30.5C37.04 29.52 37.01 28.54 36.99 27.56C36.9501 25.78 36.97 23.9901 37.4399 22.26C38.07 19.9301 39.6201 17.97 41.4 16.4C42.2158 15.6834 43.1072 15.0539 43.9943 14.4274C44.2708 14.2322 44.5468 14.0372 44.82 13.84C46.36 12.74 47.87 11.6101 49.36 10.4501C50.7277 9.3798 52.0822 8.2877 53.4351 7.19688L53.4391 7.19358L54.2614 6.53077C54.6807 6.19306 55.1001 5.85593 55.52 5.52003C56.27 4.91001 57.42 5.09003 58 5.84003C58.6001 6.61002 58.4301 7.72004 57.6801 8.32005C57.1921 8.71168 56.7047 9.10377 56.2174 9.49583L56.2119 9.50013L56.2097 9.50214C54.472 10.8999 52.7351 12.2972 50.98 13.6701C50.0797 14.3747 49.1609 15.0487 48.238 15.7257L47.8159 16.0355L47.47 16.29C47.1116 16.5522 46.751 16.8093 46.391 17.066L46.3848 17.0705C45.4009 17.772 44.421 18.4706 43.5 19.26L43.51 19.25C43.1901 19.55 42.88 19.86 42.58 20.18C42.4753 20.3022 42.3726 20.4262 42.2717 20.5529C42.2047 20.6372 42.1386 20.7226 42.0731 20.8095C42.0114 20.8916 41.9503 20.9751 41.89 21.06C41.67 21.4 41.4601 21.76 41.27 22.12C41.14 22.4 41.0201 22.69 40.92 22.98C40.8501 23.23 40.78 23.48 40.71 23.74C40.63 24.19 40.5801 24.64 40.54 25.09C40.4703 26.8751 40.5396 28.6502 40.6093 30.4351L40.61 30.4501C40.66 31.06 40.7101 31.66 40.79 32.27C40.8701 32.91 40.99 33.55 41.09 34.18C41.1525 34.4853 41.215 34.7905 41.277 35.0963L41.2941 35.1807C41.3994 35.1934 41.5048 35.2065 41.61 35.22C42.5 35.33 43.41 35.46 44.29 35.63C44.5618 35.6797 44.8331 35.7311 45.1044 35.7829L45.4779 35.8546L45.4801 35.855L45.4812 35.8552C46.7213 36.0934 47.9598 36.3312 49.21 36.46C49.6899 36.49 50.17 36.48 50.66 36.46C51.02 36.42 51.38 36.38 51.74 36.32C52.35 36.19 52.9501 36.02 53.5501 35.82C54.3701 35.52 55.1599 35.18 55.9399 34.79C55.9299 34.79 55.92 34.8 55.91 34.8C56.8301 34.32 57.72 33.8 58.58 33.22C59.47 32.6 60.3101 31.9201 61.13 31.2001C63.2 29.3546 65.0508 27.2804 66.887 25.2101L66.958 25.1299C67.2208 24.8312 67.4846 24.5326 67.7487 24.2339L68.5459 23.3325C68.7911 23.055 69.036 22.7775 69.28 22.5V22.51C69.3001 22.49 69.32 22.46 69.34 22.44C69.34 22.44 69.35 22.43 69.35 22.4201C70.8051 20.7726 72.3113 19.1699 73.8181 17.5668C74.6886 16.6407 75.5591 15.7144 76.4201 14.7792C75.7244 14.8749 75.0317 14.9992 74.35 15.14C74.2899 15.15 74.23 15.16 74.1701 15.18L73.7524 15.2668C72.6814 15.4902 71.6085 15.7138 70.52 15.82C69.58 15.91 68.62 15.96 67.8001 15.42C66.97 14.87 66.6899 13.89 67.1701 13C67.29 12.77 67.4699 12.54 67.6899 12.39C68.0899 12.12 68.5299 11.97 69.01 12.04C69.2899 12.08 69.5499 12.18 69.78 12.34C70.9124 12.2308 72.0348 12.013 73.1473 11.7847L73.1432 11.7863C73.1383 11.7883 73.1342 11.79 73.13 11.79C73.1416 11.79 73.1535 11.7866 73.1632 11.7837C73.1701 11.7817 73.1759 11.78 73.1801 11.78L73.1859 11.7799L73.192 11.7795C73.1991 11.7785 73.2075 11.7762 73.22 11.77C73.2499 11.77 73.28 11.76 73.3101 11.75C73.3201 11.75 73.34 11.74 73.35 11.74C74.46 11.51 75.58 11.3 76.71 11.18C77.7699 11.07 78.82 11.28 79.8001 11.7C81.8001 12.57 82.46 14.92 82.54 16.93C82.5639 17.4065 82.5182 17.8894 82.4734 18.3634L82.4647 18.455L82.4547 18.5631C82.4496 18.6189 82.4446 18.6745 82.4399 18.73C82.3899 19.35 82.3099 19.97 82.21 20.59C82.1 21.23 82 21.88 81.89 22.52C81.72 23.52 81.5599 24.54 81.48 25.56C81.47 25.84 81.46 26.12 81.47 26.4C81.4899 26.71 81.5299 27.01 81.59 27.32C81.6399 27.52 81.6899 27.72 81.76 27.91C81.7935 27.9971 81.8359 28.0841 81.8784 28.1712C81.8993 28.2141 81.9202 28.2571 81.9399 28.3C82.3699 29.16 81.85 30.26 81 30.62C80.7699 30.71 80.5499 30.76 80.32 30.76C79.6299 30.77 79 30.34 78.6801 29.69C78.04 28.4 77.8799 26.91 77.95 25.48C77.9817 24.8514 78.0642 24.2353 78.1471 23.6168L78.1816 23.3577L78.21 23.14C78.2229 23.0346 78.2372 22.9291 78.2526 22.8237C78.2661 22.7302 78.2806 22.6367 78.2958 22.5432C78.3082 22.4656 78.3212 22.3881 78.3344 22.3105C78.365 22.1305 78.3972 21.9505 78.4295 21.7705C78.4498 21.657 78.4701 21.5435 78.49 21.43C78.5599 21 78.6299 20.56 78.7 20.13C78.8279 19.3529 78.8977 18.5661 78.9667 17.7886L78.97 17.75C78.9721 17.715 78.9739 17.6798 78.9755 17.6446C78.9783 17.5847 78.9805 17.5245 78.9822 17.464C78.9844 17.3879 78.9857 17.3114 78.9862 17.2347C78.3624 17.9179 77.7246 18.5901 77.0873 19.2617L77.0866 19.2624L77.0851 19.264L77.0829 19.2665C76.6838 19.687 76.285 20.1074 75.89 20.53C74.5701 21.95 73.25 23.38 71.9399 24.82L71.9274 24.833L71.9226 24.838C71.9091 24.8527 71.8971 24.8689 71.89 24.8901C71.89 24.8901 71.89 24.9 71.88 24.9L71.87 24.91C71.6094 25.2054 71.35 25.5007 71.0911 25.7956C70.6046 26.3495 70.1194 26.9019 69.63 27.4501L69.6 27.48C69.6 27.49 69.59 27.49 69.59 27.49L69.5501 27.53C67.7001 29.63 65.8199 31.73 63.74 33.6C61.84 35.31 59.78 36.81 57.49 37.96C56.4 38.51 55.28 38.98 54.12 39.35C52.8001 39.77 51.45 39.98 50.07 40.03C48.5261 40.0785 46.9757 39.7677 45.4506 39.4619C45.0889 39.3894 44.7285 39.3171 44.37 39.25C43.5551 39.0952 42.7333 38.9735 41.9104 38.8526L41.92 38.97C42.0201 40.23 41.91 41.47 41.66 42.71C41.2953 44.5597 40.6569 46.3518 40.0259 48.123L40.0252 48.1247C39.9127 48.4404 39.8004 48.7555 39.6899 49.07C39.7051 49.0348 39.7177 48.9996 39.7302 48.9644C39.7427 48.9296 39.7551 48.8948 39.77 48.86C39.13 50.71 38.38 52.54 37.46 54.27L37.4177 54.3511L37.3704 54.4437C37.3351 54.5132 37.3001 54.583 37.265 54.6529L37.2643 54.6548C37.214 54.755 37.1636 54.8554 37.1121 54.9554C37.0204 55.1332 36.9249 55.3095 36.82 55.48L36.4102 56.1452C36.3306 56.2742 36.251 56.403 36.1713 56.5313C36.0675 56.6983 35.9637 56.8647 35.86 57.03C35.4872 57.634 35.07 58.2157 34.6537 58.7959L34.6522 58.7982C34.5107 58.9954 34.3694 59.1924 34.23 59.3901C34.0919 59.5889 33.9478 59.7786 33.8008 59.9659C33.6816 60.1177 33.5608 60.2679 33.4399 60.4201C33.3573 60.5273 33.2758 60.6354 33.1941 60.7436L33.1868 60.7531L33.1736 60.7705C33.0883 60.8835 33.0029 60.9966 32.9166 61.1086C32.8226 61.2307 32.7275 61.3516 32.63 61.47C32.3724 61.773 32.1206 62.0818 31.8685 62.3909C31.4552 62.8978 31.0411 63.4055 30.6 63.8901C29.22 65.41 27.8201 66.91 26.39 68.4C25.9699 68.8373 25.546 69.2673 25.1224 69.697L25.1169 69.7026L25.1155 69.7042C24.5535 70.2744 23.9918 70.8441 23.4399 71.43C23.13 71.96 22.5501 72.32 21.91 72.32C21.7992 72.3062 21.7172 72.2875 21.6138 72.264L21.528 72.2447L21.46 72.23Z"
    fill="rgba(191, 192, 191, 1)" />
  <path
    d="M69.5649 27.53L69.5664 27.5285L69.5686 27.5256C69.5693 27.5241 69.57 27.5223 69.57 27.52C69.5599 27.53 69.5601 27.53 69.5601 27.54C69.5601 27.5387 69.5602 27.5375 69.5606 27.5365L69.561 27.535L69.5623 27.533L69.5649 27.53Z"
    fill="rgba(191, 192, 191, 1)" />
  <path
    d="M74.29 15.18C74.25 15.18 74.2101 15.19 74.1701 15.2C74.1633 15.2 74.1566 15.2 74.1499 15.203C74.1481 15.2038 74.1462 15.2048 74.1444 15.2062L74.14 15.21L74.29 15.18Z"
    fill="rgba(191, 192, 191, 1)" />
</svg>