<svg width="69" height="76" viewBox="0 0 69 76" fill="none" xmlns="http://www.w3.org/2000/svg">
  <path fill-rule="evenodd" clip-rule="evenodd"
    d="M3.51869 57.301C3.49651 57.2658 3.47434 57.2306 3.45218 57.1954C3.33539 57.0098 3.2186 56.8242 3.10003 56.64C2.73002 56.12 2.35003 55.63 1.93003 55.15C1.62002 54.8101 1.30002 54.48 0.960028 54.17C0.250029 53.52 0.300024 52.33 0.960028 51.67C0.97859 51.6514 0.998 51.6329 1.018 51.6144C1.04224 51.5922 1.06735 51.5701 1.09286 51.5487C1.14832 51.502 1.20566 51.4581 1.26003 51.42C1.14003 51.31 1.04002 51.19 0.960028 51.04C0.47827 50.2141 0.760146 49.2432 1.48253 48.6976L1.47003 48.71C2.74133 47.7686 3.96732 46.7625 5.18967 45.7593C5.48648 45.5157 5.78306 45.2723 6.08003 45.03C7.51003 43.8701 8.94003 42.72 10.4 41.6C13.5 39.22 16.65 36.92 19.82 34.62L19.8398 34.6055L19.8559 34.5938C22.7939 32.4525 25.7319 30.3112 28.66 28.15C30.09 27.09 31.52 26.04 32.96 24.99C33.63 24.51 34.3 24.02 34.96 23.53C35.0466 23.4637 35.134 23.3981 35.2217 23.333C35.286 23.2852 35.3505 23.2376 35.415 23.19C35.4927 23.1327 35.5704 23.0754 35.6477 23.0178C35.7222 22.9622 35.7964 22.9064 35.87 22.85L35.8687 22.8492C35.8291 22.8295 35.7896 22.8098 35.75 22.78C34.95 22.3601 34.18 21.88 33.45 21.35C32.6505 20.7736 31.9028 20.1281 31.1587 19.4857L30.99 19.34C29.74 18.27 28.47 17.25 27.15 16.26C25.85 15.28 24.58 14.26 23.34 13.21C23.3053 13.1806 23.2701 13.1512 23.2345 13.1218C23.1788 13.0756 23.1222 13.0295 23.0652 12.983C22.5408 12.5554 21.9853 12.1022 21.79 11.44C21.59 10.74 21.84 9.97004 22.41 9.53004C22.7972 9.23286 23.2655 9.15467 23.7345 9.0763L23.737 9.07593C23.788 9.06739 23.8391 9.05884 23.89 9.04999C24.8461 8.84589 25.8008 8.63575 26.7554 8.4256C29.4951 7.82258 32.2338 7.21979 35 6.76002L35.0096 6.75855C37.0964 6.41907 39.1832 6.0796 41.27 5.78004L46.82 4.96998C47.2572 4.90351 47.6945 4.83741 48.1316 4.77137L48.1564 4.76771C50.6705 4.38807 53.1825 4.00873 55.68 3.54999C56.7 3.32001 57.71 3.06 58.7 2.75001C59.59 2.43 60.45 2.05006 61.29 1.64002C61.2954 1.63734 61.3 1.63465 61.3043 1.63215C61.3161 1.62537 61.3254 1.62 61.34 1.62L61.3417 1.61927C61.3543 1.61292 61.3668 1.60663 61.3766 1.60029C61.382 1.59687 61.3866 1.59345 61.39 1.59003L61.45 1.56H61.44C61.5175 1.52015 61.595 1.48005 61.6728 1.43983L61.6742 1.43909C62.2784 1.12653 62.8927 0.809027 63.53 0.570014C64.24 0.299994 64.99 0.300055 65.61 0.780036C66.41 1.39002 66.52 2.51002 66.53 3.43C66.5395 4.51319 66.3004 5.61414 66.0721 6.66596L66.03 6.85999C65.9129 7.4004 65.7796 7.93281 65.6447 8.47163L65.6 8.65003C65.3997 9.46015 65.1994 10.2778 64.9792 11.0899C65.2548 11.0884 65.5231 11.0784 65.8 11.06C66.22 11.02 66.64 10.98 67.06 10.95C67.67 10.92 68.26 11.1699 68.64 11.66C69 12.13 69.08 12.71 68.95 13.28C68.9387 13.3326 68.9232 13.3824 68.9051 13.4304C68.8893 13.4722 68.8715 13.5126 68.8528 13.5524C68.8357 13.5886 68.8179 13.6243 68.8 13.66C68.7808 14.0917 68.7432 14.5051 68.7049 14.9266L68.7 14.98C68.59 16.04 68.33 17.09 68.06 18.11C67.8614 18.8508 67.6195 19.5744 67.3777 20.2977C67.1692 20.9217 66.9606 21.5455 66.78 22.18C66.4486 23.3732 66.1789 24.587 65.9085 25.8043C65.8525 26.0561 65.7966 26.3081 65.74 26.56C65.6043 27.3002 65.5295 28.0443 65.4545 28.7897L65.4544 28.7912C65.4079 29.2537 65.3613 29.7169 65.3 30.18C65.13 31.48 64.85 32.75 64.54 34.03C64.24 35.26 63.93 36.48 63.61 37.7C63.485 38.178 63.3546 38.6533 63.2242 39.1283L63.2239 39.1296C62.9998 39.9462 62.7759 40.7621 62.58 41.59C62.39 42.57 62.26 43.55 62.18 44.55C62.1752 44.6589 62.1697 44.7683 62.164 44.8782C62.5337 45.3126 62.6794 45.9244 62.54 46.52L62.2654 47.7223C61.7853 49.8218 61.3051 51.9224 60.86 54.03C60.68 54.95 60.54 55.87 60.43 56.8L60.4228 56.8567L60.411 56.9519L60.3931 57.1001C60.3295 57.6318 60.2633 58.1842 60.07 58.68C59.72 59.6 58.8 60.1801 57.82 59.9C57.2196 59.7354 56.6755 59.2144 56.224 58.7821L56.18 58.74C55.82 58.4 55.5 58.04 55.18 57.67C54.9129 57.3657 54.6898 57.0175 54.4699 56.6741C54.3985 56.5627 54.3275 56.4518 54.2554 56.3431C53.8335 55.7288 53.4101 55.1152 52.97 54.51C52.5124 53.8909 52.0226 53.304 51.5294 52.7131L51.36 52.51C50.83 51.88 50.32 51.23 49.82 50.57C49.724 50.4414 49.6288 50.3122 49.5341 50.1828L49.352 49.9337C48.9561 49.3913 48.5611 48.8502 48.13 48.34C47.6657 48.6982 47.2277 49.0916 46.7928 49.4823L46.7905 49.4845C46.5706 49.682 46.3514 49.8788 46.13 50.07C45.9895 50.1944 45.8495 50.3193 45.7097 50.4445C45.5471 50.5903 45.3848 50.7365 45.2226 50.8826L45.2175 50.8874C44.9158 51.1591 44.6142 51.4309 44.31 51.7C43.6363 52.31 42.9293 52.8621 42.2195 53.4164L42.01 53.58C41.3893 54.0611 40.7926 54.5602 40.1967 55.0587C40.0246 55.2026 39.8526 55.3466 39.68 55.49C38.9834 56.0659 38.2868 56.6504 37.6062 57.2515L37.62 57.24C36.7322 58.0239 35.8555 58.8168 34.9795 59.6091C34.0005 60.4945 33.0222 61.3792 32.03 62.25C31.12 63.05 30.19 63.83 29.26 64.6C28.9222 64.8767 28.5818 65.1495 28.2416 65.4222C27.6352 65.9083 27.0294 66.3939 26.44 66.9C25.44 67.8001 24.44 68.7 23.36 69.52C22.6876 70.0306 21.9879 70.5102 21.2877 70.9902L21.2861 70.9913L21.2833 70.9933C20.8604 71.2831 20.4374 71.573 20.02 71.87C19.0847 72.5292 18.1732 73.2201 17.2573 73.9144L17.2549 73.9163L16.92 74.17C16.8402 74.2306 16.7615 74.2922 16.6831 74.3536L16.6822 74.3543L16.6803 74.3558C16.514 74.486 16.3493 74.6149 16.18 74.73C15.82 74.99 15.39 75.14 14.96 75.14C14.8 75.14 14.64 75.12 14.48 75.08C13.7749 74.8837 13.3885 74.305 13.0078 73.7349C12.962 73.6663 12.9162 73.5977 12.87 73.53C12.91 73.59 12.95 73.65 12.99 73.72C12.71 73.31 12.42 72.9 12.1 72.52L11.96 72.38C11.69 72.16 11.4 71.95 11.11 71.75C10.605 71.425 10.0925 71.115 9.58002 70.805C9.06752 70.495 8.55502 70.185 8.05002 69.86C6.84002 69.09 5.75001 68.18 4.68001 67.23L4.69002 67.24C4.20977 66.8212 3.76072 66.3743 3.31324 65.929L3.31237 65.9281C2.95881 65.5762 2.60622 65.2253 2.24001 64.89C1.66717 64.6406 1.26507 64.0753 1.18355 63.4228C1.16728 63.2441 1.17864 63.0651 1.21257 62.8912C1.21171 62.8908 1.21086 62.8904 1.21001 62.89C0.420004 62.52 -0.0499893 61.66 0.190009 60.79C0.370009 60.15 0.850005 59.67 1.32001 59.23C1.58001 58.99 1.83 58.75 2.09 58.52C2.55768 58.1052 3.03105 57.6959 3.51869 57.301ZM7.80003 61.8C8.22003 62.11 8.64003 62.41 9.07003 62.71C9.83002 63.25 10.79 63.88 11.77 63.92H11.88C12.45 63.89 12.95 63.76 13.44 63.46C13.78 63.2401 14.06 62.93 14.33 62.63C14.5783 62.342 14.8167 62.054 15.055 61.7661L15.06 61.76C15.26 61.54 15.46 61.33 15.68 61.13C16.0165 60.8478 16.3619 60.5773 16.7064 60.3075C16.9965 60.0803 17.2868 59.853 17.57 59.62C18.1734 59.1187 18.7551 58.5956 19.3336 58.0754L19.64 57.8C20.2 57.32 20.76 56.86 21.35 56.41C21.5108 56.2868 21.6723 56.1649 21.8338 56.0432L21.8471 56.0331C22.2837 55.7039 22.7197 55.3751 23.14 55.02C24.0397 54.2605 24.9013 53.4628 25.765 52.6632L25.768 52.6604L25.7692 52.6593C25.9235 52.5164 26.0779 52.3735 26.2326 52.2307C26.3847 52.0903 26.5371 51.95 26.69 51.81C27.21 51.36 27.73 50.9301 28.29 50.52C28.5273 50.3463 28.7646 50.1762 29.0011 50.0065L29.0044 50.0042L29.0066 50.0027C29.3264 49.7733 29.6449 49.5449 29.96 49.31C31.16 48.42 32.32 47.5 33.47 46.55C34.9215 45.3361 36.3033 44.0482 37.6844 42.7609C38.3966 42.097 39.1087 41.4333 39.83 40.78C41.15 39.6901 42.51 38.6701 43.92 37.71L44.7522 37.14C45.3078 36.76 45.8634 36.38 46.41 36C46.7991 35.7271 47.1646 35.4272 47.5319 35.1257C47.7971 34.9081 48.0633 34.6896 48.34 34.48L48.52 34.51C48.4918 34.5006 48.4636 34.4934 48.4364 34.4874C48.4058 34.4806 48.3765 34.4753 48.35 34.47C48.47 34.49 48.58 34.51 48.69 34.55C48.7249 34.5649 48.7623 34.5799 48.7997 34.5949L48.801 34.5954L48.8537 34.6166C48.8729 34.6244 48.8918 34.6322 48.91 34.64C48.9315 34.6543 48.9529 34.6673 48.9743 34.6799L48.9979 34.6937L49 34.695L49.0386 34.7177C49.0558 34.728 49.0729 34.7386 49.09 34.75C49.1056 34.7617 49.1227 34.7749 49.1407 34.789C49.169 34.8112 49.1995 34.8356 49.23 34.86L49.36 34.99C49.7675 35.473 50.1351 36.0014 50.5016 36.5282C50.5542 36.6038 50.6067 36.6794 50.6594 36.7548C50.726 36.8502 50.7928 36.9454 50.86 37.04C51.31 37.66 51.76 38.27 52.21 38.89C52.4167 39.1756 52.6205 39.4654 52.8247 39.7557L52.8255 39.7568C53.1645 40.2388 53.5045 40.7222 53.86 41.19C54.16 41.59 54.47 41.98 54.83 42.32C55.09 42.56 55.38 42.73 55.7 42.89C56.36 43.22 57.31 43.01 57.82 42.51C58.35 41.98 58.46 41.32 58.56 40.61L58.71 39.59C58.7781 39.0727 58.8462 38.5554 58.9143 38.0411C58.9462 37.7999 58.9781 37.5595 59.01 37.32C59.22 35.78 59.48 34.26 59.78 32.73C60.15 31.06 60.53 29.39 60.91 27.71C61.2163 26.3673 61.4978 25.0122 61.779 23.6592C61.8559 23.2893 61.9327 22.9194 62.01 22.55C62.5884 19.8119 63.3276 17.1113 64.0706 14.4129C64.322 14.5512 64.6086 14.63 64.91 14.63H65.18C65.1677 14.7191 65.1554 14.8073 65.1429 14.895L65.1238 15.0259C65.1011 15.1798 65.077 15.3334 65.05 15.49C64.78 16.76 64.43 17.9899 64.02 19.22C63.58 20.5399 63.18 21.85 62.88 23.21C62.8473 23.3545 62.8142 23.4989 62.7809 23.6432C62.7502 23.7756 62.7195 23.908 62.6887 24.0404C62.4351 25.1312 62.1816 26.2214 62.03 27.33C61.9603 27.812 61.9186 28.2981 61.8771 28.7831C61.8532 29.0627 61.8293 29.342 61.8 29.62C61.74 30.26 61.62 30.89 61.5 31.51C60.98 33.85 60.36 36.17 59.73 38.48C59.36 39.79 59.04 41.09 58.84 42.44C58.7036 43.4133 58.6499 44.3948 58.5961 45.3771L58.58 45.67C58.46 45.9 58.4 46.16 58.4 46.43C58.4 46.7951 58.5082 47.1458 58.7 47.4514C58.3785 48.8687 58.0619 50.2894 57.75 51.71C57.55 52.59 57.35 53.48 57.2 54.37C57.1766 54.3348 57.1531 54.2999 57.1297 54.2653C57.0862 54.2011 57.0427 54.1376 56.9993 54.0747C56.927 53.9701 56.8548 53.8669 56.7825 53.7637L56.78 53.76C56.6235 53.5415 56.4695 53.3211 56.3157 53.1009C55.9485 52.5754 55.5816 52.0503 55.18 51.55C54.92 51.23 54.6525 50.9125 54.385 50.595C54.1175 50.2775 53.85 49.96 53.59 49.64C53.02 48.93 52.47 48.2 51.93 47.47C51.842 47.3527 51.7549 47.2337 51.6676 47.1144C51.4573 46.827 51.2462 46.5386 51.02 46.27C50.51 45.65 49.89 44.9 49.06 44.7C48.37 44.54 47.66 44.56 47.02 44.87C46.42 45.16 45.92 45.58 45.42 46.01C44.15 47.11 42.9 48.23 41.65 49.35C41.1624 49.7703 40.6591 50.1624 40.1559 50.5544C39.7613 50.8618 39.3668 51.1691 38.98 51.49C38.7276 51.698 38.4745 51.9052 38.2213 52.1126L38.2096 52.1221L38.2064 52.1246C37.5513 52.6608 36.8955 53.1977 36.25 53.75C35.21 54.639 34.197 55.5617 33.1836 56.4847C32.507 57.101 31.8304 57.7173 31.1452 58.324L31.1305 58.337L31.0871 58.375L31.066 58.3941L30.8192 58.609L30.8168 58.611L30.815 58.6124C29.5079 59.7546 28.2052 60.8928 26.86 61.98C26.5741 62.2142 26.2835 62.4438 25.9925 62.6736L25.9913 62.6745C25.5499 63.0232 25.1077 63.3726 24.68 63.74C23.95 64.36 23.24 64.99 22.53 65.63C21.82 66.21 21.11 66.78 20.36 67.31C20.2154 67.4133 20.07 67.5153 19.924 67.6165C19.7167 67.7604 19.5084 67.9027 19.3 68.0451C19.1101 68.1748 18.9201 68.3046 18.7309 68.4355C18.5665 68.5492 18.4027 68.6638 18.24 68.78C17.45 69.34 16.67 69.91 15.89 70.49C15.75 70.5858 15.6154 70.6924 15.4823 70.7979L15.4124 70.8532L15.34 70.91C15.3008 70.854 15.2585 70.7979 15.2165 70.7437L15.1598 70.6709L15.12 70.62C14.53 69.88 13.82 69.31 13.03 68.79C12.4343 68.4019 11.8266 68.0348 11.2184 67.6674C10.7138 67.3625 10.2088 67.0574 9.71001 66.74L9.57699 66.6461L9.57189 66.6426C9.03676 66.2647 8.49719 65.8836 8.00001 65.46C7.67001 65.16 7.34001 64.87 7.00001 64.58H7.01002L6.97002 64.54C6.76517 64.3352 6.55534 64.1353 6.3455 63.9355L6.34459 63.9348C6.13473 63.7349 5.92487 63.535 5.72002 63.33C5.67246 63.2832 5.62491 63.2355 5.57727 63.1871C5.53728 63.1466 5.49724 63.1055 5.45707 63.0642L5.35798 62.962C4.89907 62.4883 4.41971 61.9936 3.84279 61.7003C4.18024 61.3744 4.53012 61.0672 4.88 60.76C5.14852 60.5362 5.42113 60.3124 5.6952 60.0913C6.35173 60.7131 7.07825 61.2707 7.80003 61.8ZM58.2 6.58002C59.16 6.31 60.11 6.01002 61.04 5.63001C61.65 5.38001 62.24 5.08997 62.81 4.78998C62.7785 4.98713 62.7469 5.17805 62.7105 5.37256C62.6979 5.42304 62.6867 5.47657 62.68 5.53004L62.6962 5.44782L62.7105 5.37256C62.7135 5.3606 62.7166 5.34876 62.7197 5.33716L62.73 5.29999C62.2952 7.37653 61.7422 9.42945 61.1899 11.4797L61.1895 11.4816C61.1196 11.7411 61.0497 12.0006 60.98 12.26C60.8124 12.8818 60.6438 13.5016 60.4755 14.1207L60.457 14.1886L60.4495 14.2161C60.0742 15.5957 59.7002 16.9706 59.34 18.35C58.9541 19.8265 58.6386 21.3171 58.3226 22.8099L58.14 23.67C57.73 25.64 57.29 27.61 56.84 29.57C56.42 31.38 56.02 33.2 55.74 35.03C55.62 35.79 55.52 36.55 55.42 37.32C55.21 37.02 55.01 36.73 54.8 36.44C54.21 35.64 53.62 34.83 53.05 34.02C52.9749 33.9144 52.9002 33.8064 52.8249 33.6975L52.8229 33.6945C52.5279 33.2678 52.2238 32.8278 51.85 32.47C51.1 31.75 50.24 31.23 49.21 31.02C48.19 30.82 47.16 30.94 46.3 31.56C46.0932 31.7138 45.8976 31.8788 45.7029 32.0432C45.5304 32.1887 45.3585 32.3337 45.18 32.47C44.1364 33.278 43.0429 34.0225 41.9483 34.7678L41.946 34.7692C41.4158 35.1303 40.8852 35.4914 40.36 35.86C38.89 36.89 37.51 38.04 36.21 39.27C34.83 40.57 33.44 41.85 32.03 43.11L31.6789 43.4023C30.9078 44.0444 30.1402 44.6835 29.35 45.3C28.6107 45.8846 27.8491 46.4396 27.0844 46.997L27.0819 46.9988L26.71 47.27C25.8 47.9201 24.92 48.6 24.09 49.36C23.835 49.5955 23.582 49.8309 23.3295 50.066L23.3253 50.0699C23.178 50.207 23.0309 50.344 22.8835 50.4808C22.7626 50.593 22.6416 50.7051 22.5202 50.817C22.2688 51.0488 22.016 51.28 21.76 51.51C20.8322 52.2929 19.8857 53.029 18.9295 53.7726L18.83 53.85C17.9475 54.5281 17.1168 55.2753 16.2897 56.0192L16.2888 56.0201L16.2866 56.0222L16.1 56.19C15.6137 56.606 15.1151 57.0055 14.6173 57.4044C14.3372 57.6289 14.0573 57.8532 13.78 58.08C13.33 58.45 12.91 58.84 12.52 59.27C12.3036 59.5097 12.0991 59.7553 11.8974 59.9976L11.7894 60.1271L11.72 60.21C11.55 60.1101 11.38 60.01 11.21 59.9C10.22 59.2 9.24003 58.49 8.32003 57.7C8.07003 57.47 7.82002 57.22 7.59003 56.97C7.4094 56.7501 7.24727 56.524 7.08427 56.2966L7.08294 56.2948C7.03882 56.2333 6.99465 56.1716 6.95003 56.11C6.45003 55.3 5.95003 54.5 5.38003 53.75C4.82002 53.02 4.20003 52.32 3.52003 51.7C4.11002 51.58 4.60003 51.16 4.82003 50.61C4.99 50.475 5.15747 50.3375 5.32494 50.2C5.49247 50.0625 5.66 49.925 5.83003 49.79C6.1884 49.4994 6.54648 49.2085 6.9045 48.9177L6.96158 48.8713L6.96367 48.8697L6.96499 48.8686C9.54397 46.7735 12.1214 44.6797 14.79 42.7C17.96 40.36 21.14 38.04 24.33 35.72C26.7436 33.9661 29.1403 32.1953 31.537 30.4244L31.5397 30.4224L33.94 28.65C34.4985 28.2377 35.0612 27.8297 35.6239 27.4216C36.5625 26.7409 37.501 26.0602 38.42 25.36C38.4634 25.3262 38.5072 25.2925 38.5514 25.2587C38.6049 25.218 38.6588 25.1771 38.713 25.1362C39.1316 24.8198 39.5647 24.4924 39.88 24.08C40.44 23.37 40.51 22.35 40.06 21.57C39.62 20.81 38.85 20.4 38.1 20.01C37.4 19.64 36.71 19.27 36.04 18.84C35.0395 18.1487 34.1185 17.3646 33.196 16.5794L33.1931 16.5768C32.9824 16.3976 32.7718 16.2183 32.56 16.04C31.66 15.27 30.74 14.53 29.79 13.82C29.5442 13.6328 29.2984 13.4481 29.0534 13.2639L29.0507 13.2619L29.0469 13.2592C28.4568 12.8156 27.8709 12.3753 27.3 11.91C27.58 11.84 27.86 11.78 28.14 11.72C29.38 11.45 30.63 11.19 31.87 10.93C35.02 10.34 38.16 9.80006 41.32 9.34003C45.11 8.79005 48.91 8.22004 52.7 7.64002C54.54 7.36005 56.4 7.07001 58.2 6.58002Z"
    fill="rgba(191, 192, 191, 1)" />
  <path
    d="M1.19581 63.5244C1.1907 63.4905 1.18664 63.4567 1.18355 63.4228C1.17683 63.3691 1.17229 63.3148 1.17001 63.26C1.17001 63.3063 1.17336 63.3526 1.17812 63.3989C1.18159 63.4326 1.1858 63.4663 1.19002 63.5L1.19581 63.5244Z"
    fill="rgba(191, 192, 191, 1)" />
  <path
    d="M1.19581 63.5244C1.20576 63.5902 1.21962 63.656 1.2376 63.7213C1.22793 63.6857 1.22059 63.6477 1.21303 63.6085C1.2077 63.5808 1.20226 63.5527 1.19581 63.5244Z"
    fill="rgba(191, 192, 191, 1)" />
  <path d="M1.48253 48.6976C1.4949 48.6883 1.5074 48.6791 1.52003 48.67C1.50463 48.6777 1.4952 48.6854 1.48253 48.6976Z"
    fill="rgba(191, 192, 191, 1)" />
</svg>