<svg width="73" height="77" viewBox="0 0 73 77" fill="none" xmlns="http://www.w3.org/2000/svg">
  <path fill-rule="evenodd" clip-rule="evenodd"
    d="M62.2756 45.3549C62.3047 45.2158 62.3338 45.0774 62.36 44.94C62.4499 44.47 62.54 44 62.64 43.53C62.6901 43.2731 62.7412 43.0162 62.7924 42.759L62.7947 42.7474C62.9061 42.1875 63.0177 41.6261 63.12 41.06C63.51 38.96 63.8899 36.86 64.24 34.75C64.57 32.78 64.87 30.8 65.17 28.82C65.4387 27.0315 65.7418 25.2603 66.0475 23.4743L66.12 23.05C66.31 21.94 66.53 20.83 66.75 19.72C67.11 17.87 67.48 16.03 67.86 14.19C68.18 12.63 68.4 11.06 68.52 9.46999C68.55 9.02 68.5599 8.58 68.54 8.12C68.4999 7.73 68.45 7.33 68.37 6.94999C68.31 6.69999 68.25 6.46 68.17 6.22L67.96 5.70999C67.9505 5.69336 67.9415 5.6773 67.9327 5.66153C67.9206 5.63983 67.9089 5.61868 67.8964 5.59739C67.8798 5.56906 67.8617 5.54047 67.84 5.51C67.8 5.46 67.7599 5.4 67.72 5.34999L67.54 5.16999C67.4399 5.08 67.3299 4.99999 67.22 4.91999C67.09 4.83999 66.95 4.76 66.82 4.69C66.8047 4.68347 66.7891 4.67647 66.773 4.66931C66.7152 4.64354 66.6526 4.61565 66.59 4.59999C66.5332 4.58106 66.4764 4.56612 66.4196 4.55264C66.3866 4.54481 66.3536 4.53747 66.3205 4.53013C65.8505 4.45013 65.3799 4.4 64.91 4.35999C64.1056 4.3302 63.3012 4.36945 62.487 4.40917L62.47 4.41C60.84 4.53 59.23 4.76 57.63 5.08C55.51 5.53 53.43 6.13 51.36 6.8C50.9275 6.9568 50.4938 7.11295 50.0596 7.26928C48.7768 7.73109 47.49 8.19438 46.22 8.67999C45.7691 8.8542 45.3195 9.02905 44.8704 9.20373C43.5665 9.71089 42.2666 10.2165 40.95 10.7C40.448 10.8878 39.9462 11.0759 39.4443 11.264L39.3932 11.2831L39.392 11.2836C36.1428 12.5016 32.895 13.7191 29.61 14.84C29.27 14.96 28.94 15.07 28.59 15.16C28.14 15.28 27.72 15.27 27.27 15.22C26.43 15.15 25.71 14.31 25.74 13.47C25.74 13.3 25.77 13.13 25.8 12.97C25.8 12.963 25.8 12.9561 25.8004 12.9495C25.8004 12.9432 25.801 12.9382 25.8024 12.9335C25.8036 12.9296 25.805 12.9262 25.8063 12.9231C25.8083 12.9182 25.81 12.9141 25.81 12.91C25.82 12.88 25.82 12.85 25.83 12.82C25.83 12.81 25.83 12.8 25.84 12.79C26.03 12.02 26.73 11.43 27.56 11.43C27.8 11.43 28.03 11.48 28.24 11.57C28.2621 11.5626 28.2842 11.5549 28.3063 11.547L28.3599 11.5278C28.4399 11.4989 28.52 11.47 28.6 11.45C32.3099 10.13 36 8.78 39.68 7.4C40.4341 7.1183 41.1844 6.82346 41.935 6.52849C42.9163 6.1429 43.8986 5.75691 44.89 5.4C45.4264 5.20428 45.9622 5.00564 46.4983 4.8069C48.1806 4.18327 49.8664 3.55833 51.58 3.01999C54.45 2.11999 57.38 1.41999 60.38 1.05999C61.9 0.869996 63.4499 0.759996 64.98 0.829995C66.21 0.879999 67.5 1.02999 68.59 1.63999C69.63 2.21999 70.48 2.97999 71.06 4.01999C71.68 5.13999 71.9499 6.5 72.05 7.76C72.158 9.08257 71.9987 10.4213 71.8419 11.7399C71.8245 11.8867 71.807 12.0338 71.79 12.18C71.6446 13.4028 71.3823 14.6109 71.1218 15.8107C71.0776 16.014 71.0334 16.2171 70.99 16.42C70.7941 17.3949 70.6027 18.372 70.4116 19.3482L70.4097 19.3573L70.4084 19.3634C70.2006 20.4249 69.993 21.4851 69.78 22.54C69.659 23.1452 69.5651 23.7548 69.471 24.366C69.4252 24.6635 69.3791 24.9622 69.33 25.26C69.2994 25.4439 69.2683 25.6278 69.2371 25.8117L69.1681 26.2179C69.0591 26.8586 68.9501 27.4993 68.85 28.14C68.6857 29.1786 68.5268 30.2171 68.368 31.2555L68.3676 31.2574C67.9562 33.9477 67.545 36.6364 67.04 39.32C66.9726 39.6674 66.9061 40.0147 66.8398 40.3621C66.783 40.6598 66.7265 40.9576 66.67 41.2553C66.5475 41.9002 66.425 42.5451 66.3 43.19C66.2349 43.513 66.166 43.836 66.0971 44.1594C65.9121 45.0275 65.7266 45.8984 65.61 46.78V46.86C65.6299 47.82 64.79 48.63 63.84 48.63C62.87 48.64 62.1 47.83 62.08 46.87C62.0644 46.3621 62.1711 45.8533 62.2756 45.3549ZM0.669977 66.45C0.549982 67.4 1.22997 68.31 2.19 68.44C2.27001 68.45 2.34002 68.45 2.40002 68.47C3.11999 68.47 3.78997 68.02 4.05999 67.36C4.0675 67.3525 4.0736 67.3449 4.07885 67.3374C4.08178 67.3332 4.08447 67.3289 4.08697 67.3246C4.09179 67.3164 4.09588 67.3082 4.09997 67.3C4.52007 66.7188 4.96966 66.1523 5.4212 65.5834C5.6145 65.3398 5.80816 65.0958 5.99999 64.85C6.32806 64.4345 6.64544 64.0136 6.96386 63.5914L6.96789 63.586L6.96972 63.5835C7.08618 63.4292 7.20275 63.2746 7.32 63.12C8.55724 61.4936 9.77459 59.8573 10.9919 58.2209L11 58.21C11.3663 57.7144 11.7482 57.2291 12.1306 56.743L12.1324 56.7406C12.2234 56.625 12.3144 56.5094 12.4052 56.3936C12.4636 56.3192 12.5218 56.2446 12.58 56.17C12.7776 55.9184 12.9727 55.6643 13.168 55.4099C13.516 54.9564 13.8648 54.502 14.23 54.06C14.6281 53.5796 15.0241 53.0959 15.4204 52.6118L15.4252 52.6061C16.2317 51.621 17.0397 50.6343 17.87 49.67C18.5416 48.8881 19.2157 48.1063 19.8898 47.3244L20.6774 46.4108C21.0488 45.9799 21.4197 45.549 21.79 45.118C21.8259 45.0789 21.8617 45.036 21.8976 44.993C22.1266 44.7336 22.3555 44.4741 22.5843 44.2145C23.9746 42.6381 25.3649 41.0617 26.79 39.52C27.2182 39.0569 27.6434 38.5897 28.0687 38.1224C28.9842 37.1166 29.9011 36.1094 30.85 35.14C31.1086 34.8756 31.3665 34.6098 31.6244 34.3433C31.7663 34.1967 31.9082 34.0498 32.0502 33.9028L32.0654 33.887C33.0165 32.9022 33.971 31.9139 34.96 30.96C35.9261 30.0206 36.8967 29.0856 37.8672 28.1506L37.8734 28.1446C39.8141 26.2749 41.7548 24.4052 43.66 22.5C44.34 21.82 44.34 20.68 43.66 20C42.98 19.32 41.84 19.32 41.16 20C39.4499 21.71 37.71 23.39 35.96 25.07C35.8479 25.1776 35.7356 25.2853 35.6233 25.393L35.2775 25.7244C34.001 26.9473 32.7189 28.1756 31.48 29.44C31.1537 29.7736 30.8262 30.1061 30.4988 30.4384L30.4806 30.4568L30.4792 30.4582C29.4782 31.4742 28.4772 32.4902 27.51 33.54C27.2826 33.7826 27.0547 34.0253 26.8265 34.2681L26.7665 34.332C25.67 35.4989 24.5701 36.6695 23.51 37.86C22.949 38.4922 22.3863 39.1228 21.824 39.7531L21.8207 39.7567L21.8185 39.7592C20.9595 40.7221 20.1011 41.6842 19.25 42.65C18.3168 43.7032 17.4013 44.7742 16.4858 45.8452C16.0279 46.3808 15.5701 46.9165 15.11 47.45C14.2247 48.4781 13.3649 49.5316 12.5051 50.5852L12.5044 50.586C12.1602 51.0079 11.8159 51.4298 11.47 51.85C11.0893 52.3082 10.7235 52.7864 10.3586 53.2634L10.3522 53.2718C10.2017 53.4686 10.0512 53.6651 9.90002 53.86C9.78991 54.0001 9.67932 54.1403 9.5686 54.2806L9.5371 54.3206L9.53601 54.3219C9.10467 54.8688 8.6712 55.4183 8.24999 55.98L8.22729 56.0104L8.22418 56.0146C7.03277 57.6131 5.84136 59.2115 4.64001 60.8C4.48943 60.9973 4.33941 61.1947 4.18957 61.3919L4.17822 61.4069C3.755 61.964 3.33288 62.5197 2.90002 63.07C2.78723 63.2133 2.67443 63.3575 2.5614 63.502C2.30364 63.8316 2.04406 64.1634 1.78002 64.49L1.70757 64.58C1.27184 65.1203 0.764642 65.7493 0.669977 66.45ZM21.79 45.118C21.7767 45.1326 21.7634 45.1467 21.75 45.16L21.8948 44.9961L21.79 45.118ZM15.12 73.72C14.73 74.5 14.85 75.45 15.57 76.01C15.88 76.26 16.26 76.38 16.64 76.39C17.1 76.39 17.5601 76.21 17.9 75.87C18.43 75.35 18.92 74.78 19.39 74.21C19.64 73.91 19.75 73.55 19.76 73.19L20.54 72.14C20.6595 71.9789 20.7779 71.8172 20.8959 71.6554C20.9553 71.5739 21.0145 71.4924 21.0738 71.4109L21.092 71.3858C21.391 70.9743 21.6898 70.5633 22 70.16C22.5478 69.4379 23.0956 68.7183 23.6434 67.9987C23.9586 67.5847 24.2737 67.1708 24.5888 66.7563C24.8259 66.4445 25.0629 66.1325 25.3 65.82C27.01 63.56 28.73 61.31 30.5 59.1C33.18 55.73 35.87 52.36 38.6 49.02C40.5187 46.6592 42.5139 44.361 44.5102 42.0616C44.907 41.6046 45.3038 41.1476 45.7 40.69C45.709 40.6765 45.7201 40.665 45.7314 40.6537L45.7426 40.6424L45.7483 40.6364C45.7537 40.6307 45.7588 40.625 45.7637 40.6188C47.1727 39.0425 48.5915 37.4663 50.02 35.89C50.219 35.6711 50.4192 35.4522 50.6193 35.2333C51.0225 34.7922 51.4257 34.3511 51.82 33.91C51.9865 33.7261 52.1556 33.5429 52.3252 33.3593C53.0315 32.5943 53.7455 31.8209 54.31 30.95C54.83 30.13 54.47 28.99 53.67 28.52C52.81 28.02 51.77 28.35 51.25 29.16C51.2455 29.1645 51.2414 29.169 51.2378 29.1735C51.2359 29.176 51.2341 29.1784 51.2324 29.1809C51.2232 29.1936 51.2168 29.2064 51.2104 29.2192C50.9617 29.5802 50.6739 29.9034 50.3843 30.2285L50.3835 30.2292L50.32 30.3C49.535 31.175 48.7425 32.045 47.95 32.915C47.1575 33.785 46.365 34.655 45.58 35.53C42.8 38.64 40.07 41.78 37.38 44.96C35.03 47.75 32.74 50.6 30.47 53.46C27.9896 56.5702 25.5562 59.7085 23.1151 62.8568L23.1109 62.8622L22.88 63.16C22.1542 64.0957 21.4393 65.0422 20.7243 65.9887C20.2472 66.6202 19.7702 67.2517 19.29 67.88C18.9603 68.3174 18.6346 68.7589 18.3079 69.2018C18.1193 69.4576 17.9304 69.7138 17.74 69.97C17.43 70.39 17.12 70.81 16.82 71.22C16.7388 71.3283 16.6568 71.4366 16.5746 71.5452C16.05 72.2385 15.5177 72.9419 15.12 73.72Z"
    fill="rgba(191, 192, 191, 1)" />
</svg>