<svg width="66" height="62" viewBox="0 0 66 62" fill="none" xmlns="http://www.w3.org/2000/svg">
  <path fill-rule="evenodd" clip-rule="evenodd"
    d="M61.0858 43.0323C61.4009 43.2984 61.7166 43.565 62.04 43.82C62.35 44.07 62.72 44.19 63.12 44.18C63.66 44.18 64.2 43.94 64.54 43.5C65.13 42.73 64.97 41.62 64.22 41.02C63.67 40.58 63.13 40.13 62.6 39.67C62.4312 39.5172 62.2752 39.3515 62.1218 39.1884C62.0845 39.1487 62.0472 39.1092 62.01 39.07C61.82 38.84 61.63 38.61 61.46 38.36C61.16 37.89 60.9 37.42 60.65 36.93C60.23 36.06 59.88 35.16 59.56 34.25C59.24 33.27 58.96 32.28 58.74 31.27C58.43 29.71 58.26 28.12 58.13 26.54V26.53C58.13 26.5168 58.13 26.4993 58.1271 26.4831C58.0411 25.0587 58.0907 23.6344 58.15 22.21C58.29 20.69 58.43 19.19 58.72 17.71C58.94 16.66 59.22 15.63 59.56 14.62C60.12 13.04 60.84 11.54 61.57 10.03C62.13 8.95 62.69 7.86999 63.26 6.8C63.3337 6.66118 63.4073 6.52193 63.481 6.38251C63.9165 5.5578 64.3553 4.72696 64.86 3.94C64.9146 3.89908 64.9691 3.85815 65.0205 3.81723C65.0445 3.79816 65.0677 3.77907 65.09 3.75999C65.73 3.2 66.0601 2.50999 65.84 1.64999C65.6801 1.06 65.19 0.580001 64.6 0.419997C64.05 0.259993 63.51 0.399993 63.05 0.72C62.84 0.859999 62.66 1.03 62.49 1.21001C62.33 1.29001 62.17 1.38 62.01 1.46001C60.1906 2.27188 58.3138 2.9498 56.4451 3.62482L56.32 3.67C55.05 4.09 53.78 4.46001 52.48 4.74C51.44 4.94 50.39 5.06999 49.33 5.14999C47.1115 5.2805 44.8863 5.20477 42.6599 5.129C42.1566 5.11188 41.6533 5.09476 41.15 5.08C39.15 5.00999 37.15 4.93001 35.15 4.85C33.71 4.75 32.29 4.61 30.88 4.33999C30.24 4.2 29.62 4.03 29 3.83C28.55 3.66 28.11 3.47999 27.67 3.27C27.4 3.11999 27.14 2.97 26.88 2.8C26.7 2.67 26.52 2.53 26.34 2.38C26.3138 2.35374 26.2864 2.32748 26.2587 2.30086C26.202 2.2464 26.1438 2.19046 26.09 2.13C25.98 2 25.8801 1.86999 25.78 1.72999C25.7525 1.68867 25.7297 1.64734 25.705 1.60275C25.6939 1.58259 25.6824 1.56178 25.67 1.53999C25.61 1.39999 25.55 1.25 25.5 1.11C25.09 -0.0500042 23.44 -0.309999 22.62 0.550002C22.34 0.839995 22.15 1.2 22.1 1.6C22.05 1.98001 22.13 2.34999 22.3 2.67C23.3 5.22 26.01 6.65999 28.5 7.39999C30.83 8.08999 33.28 8.32999 35.7 8.42999C37.78 8.50999 39.85 8.59 41.93 8.64999C42.3625 8.66315 42.7958 8.67819 43.2296 8.69325C46.0945 8.79277 48.9786 8.89294 51.81 8.45C52.5217 8.33797 53.2259 8.19879 53.9235 8.03604C53.4261 8.43854 52.9309 8.84282 52.44 9.25C50.97 10.47 49.51 11.7 48.06 12.95C46.45 14.36 44.87 15.78 43.29 17.22C40.64 19.63 38.05 22.12 35.5 24.63C33.5396 26.5529 31.5873 28.4851 29.6348 30.4175C25.8607 34.1529 22.0857 37.889 18.25 41.56C17.2824 42.4875 16.3148 43.4062 15.3472 44.3249C14.8648 44.7829 14.3824 45.2409 13.9 45.7C13.553 46.0309 13.2038 46.3618 12.8539 46.6933L12.8516 46.6956C11.9019 47.5955 10.9476 48.4998 10.02 49.42L10.0039 49.4358L9.99622 49.4434C8.68427 50.7354 7.38226 52.0179 6.09003 53.32C5.43005 53.99 4.76996 54.66 4.10999 55.32C3.83057 55.5965 3.55292 55.8755 3.27496 56.1549C2.60779 56.8254 1.93884 57.4977 1.23999 58.14C1.20996 58.17 1.18005 58.19 1.15002 58.22C0.51001 58.49 0.0499878 59.12 0.0499878 59.85V59.89C0.0700073 60.87 0.840027 61.63 1.82001 61.66C1.83002 61.66 1.84998 61.66 1.84998 61.67C2.45996 61.67 2.94 61.34 3.38 60.96L3.37 60.97C3.39001 60.95 3.41998 60.93 3.44 60.91L3.44379 60.9066C3.44586 60.905 3.44794 60.9036 3.45001 60.9022C3.45667 60.8978 3.46332 60.8933 3.46997 60.88C3.47693 60.8661 3.48877 60.857 3.49866 60.8494C3.50287 60.8462 3.50708 60.8429 3.51001 60.84L3.48999 60.86C4.44836 60.0173 5.35211 59.0995 6.25208 58.1855L6.25281 58.1848L6.35187 58.0843C6.50787 57.9258 6.66382 57.7676 6.82001 57.61C7.21173 57.2182 7.59753 56.8245 7.98267 56.4315L7.98468 56.4294C8.46405 55.9402 8.94238 55.452 9.42999 54.97C11.4 53.03 13.37 51.1 15.37 49.19C16.4222 48.1808 17.4807 47.1792 18.5392 46.1775L18.5432 46.1736C20.1893 44.6158 21.8358 43.0577 23.46 41.47C26.15 38.84 28.84 36.21 31.5 33.56L32.276 32.7892L32.2822 32.783C34.8903 30.1924 37.4945 27.6055 40.14 25.06C41.65 23.61 43.17 22.17 44.7 20.73C45.4924 19.9938 46.2924 19.2693 47.093 18.5444C47.5757 18.1073 48.0585 17.6701 48.54 17.23C50.83 15.24 53.1299 13.26 55.47 11.35C56.3008 10.6715 57.1317 9.99771 57.9692 9.33208C57.5438 10.2033 57.1411 11.0843 56.78 11.98C55.96 14.02 55.35 16.14 55.03 18.32C55.007 18.4667 54.9815 18.6142 54.9559 18.7623C54.8925 19.1291 54.8285 19.4996 54.8 19.87C54.775 20.14 54.7524 20.4075 54.7299 20.675C54.7075 20.9425 54.6849 21.21 54.66 21.48C54.58 22.46 54.53 23.46 54.53 24.44C54.53 25.83 54.61 27.21 54.77 28.59C54.92 29.9 55.08 31.2 55.38 32.49C55.69 33.84 56.1 35.17 56.6 36.47C57.03 37.58 57.5 38.68 58.12 39.7C58.76 40.77 59.55 41.74 60.51 42.55C60.7028 42.7088 60.8942 42.8704 61.0858 43.0323ZM58.1271 26.4831C58.1257 26.4748 58.1234 26.4668 58.12 26.46C58.12 26.48 58.12 26.51 58.13 26.53C58.129 26.5144 58.1281 26.4987 58.1271 26.4831Z"
    fill="rgba(191, 192, 191, 1)" />
</svg>