<svg width="83" height="84" viewBox="0 0 83 84" fill="none" xmlns="http://www.w3.org/2000/svg">
  <path fill-rule="evenodd" clip-rule="evenodd"
    d="M68.47 68.45C68 69.1 67.79 69.9201 68.24 70.65C68.59 71.2101 69.17 71.51 69.78 71.47C70.16 71.47 70.53 71.36 70.87 71.12C71.1789 70.9039 71.446 70.6101 71.7082 70.3217C71.7856 70.2366 71.8625 70.152 71.94 70.07L72.66 69.2901C73.31 68.5801 73.96 67.8601 74.61 67.14C75.0309 66.6724 75.4429 66.1958 75.8549 65.7193C76.0595 65.4824 76.2642 65.2457 76.47 65.01C76.87 64.5401 77.28 64.06 77.67 63.58C78.08 63.07 78.48 62.5501 78.85 62.01C79.13 61.6001 79.38 61.1801 79.64 60.76C80.01 60.15 79.94 59.3301 79.51 58.78C79.12 58.27 78.5 58.0501 77.87 58.11C77.4 58.15 77.02 58.2901 76.61 58.52C76.6 58.525 76.5925 58.53 76.585 58.5351C76.5775 58.5401 76.57 58.5451 76.56 58.5501C76.93 57.9801 77.24 57.38 77.38 56.7C77.51 56.09 77.37 55.4701 76.97 55.03C77.3 54.6201 77.63 54.2201 77.96 53.8101C78.0195 53.7379 78.0794 53.6658 78.1396 53.5935C78.5543 53.0945 78.9756 52.5878 79.29 52.02L79.3427 51.9215C79.4864 51.6542 79.6309 51.385 79.72 51.1C79.83 50.72 79.89 50.35 79.95 49.96C80.06 49.26 79.69 48.5399 79.09 48.19C78.53 47.87 77.85 47.87 77.3 48.19C76.63 48.57 75.97 48.9501 75.35 49.4C75.38 49.3601 75.4 49.3301 75.43 49.2901C75.7438 48.8821 76.0556 48.4761 76.3672 48.0713C76.7507 47.5731 77.1338 47.0766 77.52 46.58C77.81 46.21 78.09 45.85 78.36 45.48L78.4991 45.2926C78.884 44.7748 79.2709 44.2543 79.61 43.71C79.93 43.2 80.18 42.6801 80.41 42.13C80.72 41.4 80.49 40.53 79.86 40.0401C79.29 39.6101 78.49 39.5501 77.88 39.9201C77.88 39.9301 77.87 39.9301 77.87 39.9301C78.12 39.5901 78.36 39.25 78.59 38.9101C78.92 38.4101 79.24 37.9101 79.49 37.36C79.7 36.9 79.9 36.4201 80.11 35.96C80.33 35.46 80.27 34.84 80 34.37C79.76 33.96 79.39 33.7101 78.94 33.5601L78.9189 33.5535C78.5072 33.426 78.1326 33.3101 77.7 33.3101C77.4 33.3101 77.06 33.39 76.78 33.51C76.4 33.6701 76.04 33.87 75.72 34.12C75.7 34.135 75.6825 34.15 75.665 34.1651C75.6475 34.18 75.63 34.195 75.61 34.21C76.25 33.43 76.89 32.6402 77.48 31.8101C77.9753 31.1084 78.423 30.3794 78.8735 29.6456C78.9687 29.4906 79.0641 29.3353 79.16 29.1801C79.64 28.4101 79.37 27.4501 78.71 26.89C78.4 26.62 78.09 26.4101 77.69 26.3001C77.5 26.2501 77.31 26.23 77.11 26.24C77.48 25.7901 77.85 25.3401 78.2 24.88L78.3009 24.7467C78.6384 24.3008 78.9781 23.8519 79.26 23.37C79.4893 22.9881 79.6992 22.6011 79.9099 22.2128C80.0025 22.042 80.0953 21.871 80.19 21.7C80.69 20.81 80.35 19.56 79.35 19.18L79.2557 19.1442C78.9214 19.0169 78.6058 18.8966 78.24 18.86C77.85 18.82 77.44 18.89 77.08 19.04C77.05 19.06 77.02 19.0701 76.98 19.09C76.995 19.0701 77.0099 19.0527 77.0249 19.0352C77.0399 19.0177 77.055 19.0001 77.07 18.98C77.2184 18.8034 77.3669 18.627 77.5154 18.4506C78.4181 17.3787 79.3199 16.3078 80.17 15.2C80.4067 14.8934 80.6289 14.5781 80.8507 14.2634C81.0412 13.9932 81.2313 13.7234 81.43 13.46C81.4756 13.3997 81.5216 13.3393 81.5678 13.2788C81.8961 12.8482 82.2296 12.411 82.44 11.92C82.66 11.42 82.82 10.8601 82.75 10.31C82.68 9.80007 82.44 9.39003 82.14 8.98C82.14 8.96004 82.13 8.95003 82.12 8.94002C81.64 8.22005 80.75 7.82009 79.91 8.20003C79.1 8.56008 78.3 8.90004 77.55 9.36C76.78 9.84005 76.04 10.3601 75.3 10.87C75.1028 10.9982 74.9056 11.1362 74.7084 11.2742L74.7 11.28C74.83 11.1401 74.94 11 75.06 10.86C75.2475 10.6395 75.438 10.4199 75.629 10.1998C76.5377 9.15255 77.4554 8.09481 78.1 6.88002C78.51 6.11007 78.37 5.14009 77.65 4.59005C77.35 4.36007 77 4.24001 76.64 4.23C76.77 3.97005 76.88 3.71004 76.99 3.43001C77.28 2.69002 77.08 1.8301 76.44 1.34005C75.87 0.910053 75.08 0.860004 74.46 1.21999C73.19 1.94228 71.9642 2.74013 70.7375 3.53859C70.4186 3.74611 70.0997 3.95369 69.78 4.15999C68.36 5.08004 66.98 6.06002 65.6 7.04C65.17 7.34999 64.74 7.66005 64.31 7.98C64.32 7.95498 64.3275 7.92745 64.3351 7.89992C64.3425 7.87246 64.35 7.84499 64.36 7.82003C64.48 7.40004 64.48 6.88002 64.3 6.46999C64.12 6.06002 63.87 5.77004 63.57 5.45003C63.05 4.88008 62.08 4.76003 61.43 5.17L61.238 5.28951C60.5324 5.72872 59.8302 6.16573 59.17 6.67C58.53 7.16005 57.91 7.66005 57.3 8.17C57.27 7.92 57.2 7.69002 57.1 7.44002C56.9999 7.18978 56.8232 6.97426 56.6512 6.76461C56.6171 6.72292 56.5831 6.68148 56.55 6.64003C56.08 6.04006 55.18 5.74007 54.46 6.09005C54.2966 6.17177 54.1309 6.25124 53.9649 6.33095C53.5212 6.54384 53.0748 6.75808 52.66 7.02004C52.17 7.34005 51.69 7.66005 51.22 8.00002C50.73 8.35006 50.24 8.71004 49.76 9.08004C49.75 9.09005 49.74 9.09755 49.7299 9.10506C49.72 9.11257 49.71 9.12008 49.7 9.13002C49.95 8.70003 50.17 8.26003 50.33 7.76003C50.56 7.05007 50.4 6.34005 50.14 5.65999C50.14 5.64003 50.13 5.62001 50.12 5.59999C49.95 5.08004 49.62 4.65004 49.1 4.44002C48.67 4.26003 48.14 4.24007 47.72 4.44002C47.5523 4.51827 47.3832 4.5945 47.2138 4.67086C46.6253 4.93612 46.0335 5.2029 45.49 5.56002C44.8 6.01003 44.13 6.50008 43.48 7.01003C42.95 7.42006 42.43 7.84005 41.91 8.26003C41.0025 8.99508 40.0894 9.73568 39.1791 10.4735L38.27 11.21C38.1202 11.3399 37.9698 11.4702 37.82 11.59C37.88 11.4601 37.93 11.34 37.98 11.21C38.135 10.8225 38.2404 10.4201 38.3451 10.0203C38.389 9.85268 38.4327 9.6855 38.48 9.52004C38.77 8.54006 38.07 7.38002 37.02 7.29C36.9092 7.2817 36.796 7.26876 36.6816 7.2557C36.3832 7.22164 36.0764 7.1866 35.78 7.23C35.45 7.28005 35.17 7.36 34.86 7.48C34.3056 7.69271 33.8492 8.08419 33.3989 8.47048C33.2563 8.59279 33.1143 8.71462 32.97 8.83004C32.4 9.29006 31.83 9.76003 31.26 10.23L30.9 10.53V10.42C30.9 9.22005 29.58 8.25002 28.44 8.79L28.2193 8.89595C27.4867 9.24697 26.7744 9.58834 26.12 10.07C25.44 10.57 24.79 11.11 24.15 11.66C23.9505 11.8296 23.751 12.0017 23.5514 12.1738C23.351 12.3467 23.1505 12.5196 22.95 12.69C22.6881 12.9137 22.424 13.1352 22.1599 13.3566C21.4558 13.947 20.7518 14.5373 20.09 15.17C18.95 16.25 17.81 17.33 16.67 18.42C15.72 19.33 14.81 20.2901 13.95 21.28C13.42 21.89 12.89 22.51 12.44 23.19C12.09 23.73 11.75 24.2901 11.64 24.9301C11.47 25.8902 12.22 26.8101 13.15 26.9301C14 27.0501 14.74 26.5401 15.04 25.7901C15.04 25.8018 15.0366 25.81 15.0337 25.8168C15.0317 25.8217 15.03 25.8258 15.03 25.83C15.06 25.76 15.09 25.6901 15.11 25.62C15.2 25.4501 15.3 25.28 15.41 25.12C15.8 24.5801 16.21 24.08 16.64 23.58C18.03 22.01 19.55 20.5601 21.07 19.12C20.8807 19.3393 20.7013 19.5586 20.5219 19.7779L20.52 19.78C19.73 20.7401 20.29 22.25 21.45 22.57C22.92 22.98 23.95 21.8001 24.81 20.8001C25.205 20.3783 25.6358 19.9835 26.0635 19.5915C26.2746 19.398 26.4851 19.2051 26.69 19.01C26.788 18.9162 26.8859 18.8219 26.9841 18.7274C27.3668 18.359 27.7521 17.9882 28.15 17.63C29.39 16.53 30.62 15.4301 31.85 14.33C31.9146 14.2798 31.9793 14.2244 32.0439 14.1712C32.0693 14.1503 32.0946 14.1297 32.12 14.11C31.928 14.3946 31.741 14.6791 31.5519 14.9636C31.4751 15.0791 31.398 15.1945 31.32 15.31C31.0226 15.7561 30.7529 16.2298 30.4862 16.6982C30.3941 16.8599 30.3024 17.021 30.21 17.18C29.69 18.07 30.07 19.3201 31.05 19.71C31.48 19.8801 31.88 20.03 32.35 20.03C32.81 20.03 33.28 19.8601 33.68 19.65C34.365 19.2916 34.9232 18.7619 35.4808 18.2326C35.6232 18.0974 35.7656 17.9623 35.91 17.83C36.4478 17.3789 36.9829 16.9251 37.5178 16.4716C38.465 15.6685 39.4114 14.8661 40.37 14.08C40.9019 13.6495 41.4363 13.2164 41.9707 12.7833C42.4913 12.3613 43.0119 11.9395 43.53 11.52C43.21 11.9301 42.89 12.33 42.57 12.73C42.1875 13.2122 41.7982 13.6945 41.4133 14.1767C41.3353 14.2745 41.2575 14.3723 41.18 14.47C40.8459 14.8877 40.5359 15.3248 40.2267 15.7609C40.0917 15.9514 39.9568 16.1416 39.82 16.33C39.45 16.8501 39.34 17.5 39.59 18.1C39.8 18.59 40.23 18.9901 40.75 19.12C41.15 19.2201 41.57 19.3001 41.98 19.25C42.36 19.2 42.76 19.05 43.09 18.85C43.7345 18.4749 44.2771 17.9795 44.8248 17.4795L44.89 17.42C45.3557 17.0286 45.8349 16.6509 46.3126 16.2745C46.5427 16.0932 46.7724 15.9121 47 15.73C47.1969 15.5731 47.3927 15.4152 47.5886 15.2572C47.9794 14.9419 48.3703 14.6265 48.77 14.32C49.3592 13.8806 49.9384 13.4312 50.5177 12.9818L50.52 12.98C50.25 13.38 50.01 13.78 49.77 14.21C49.4305 14.8266 49.4662 15.5947 49.8842 16.1579C49.4444 16.2764 49.0422 16.4233 48.64 16.68C48.2 16.97 47.78 17.32 47.41 17.7C47.1648 17.954 46.9273 18.2137 46.6898 18.4733C46.385 18.8065 46.0804 19.1396 45.76 19.46C45.1089 20.1309 44.4578 20.7919 43.8067 21.4529L43.78 21.48L43.3101 21.9538C42.3673 22.9038 41.4276 23.8508 40.51 24.82C40.1634 25.1869 39.8164 25.5539 39.4693 25.9209C37.0829 28.4448 34.691 30.9746 32.36 33.5501C30.77 35.3201 29.18 37.08 27.59 38.84C26.7562 39.7565 25.9461 40.7014 25.1369 41.6455C24.7718 42.0714 24.4069 42.4972 24.04 42.9201C21.3 46.0801 18.59 49.27 15.89 52.47C14.9899 53.5388 14.122 54.6272 13.2553 55.7141C13.0436 55.9796 12.832 56.245 12.62 56.51C12.3257 56.8767 12.0336 57.2434 11.7417 57.6101C11.4286 58.0034 11.1157 58.3967 10.8 58.7901C9.99002 59.8001 9.21002 60.85 8.52002 61.94L8.48726 61.9922C8.17761 62.4855 7.86148 62.989 7.62001 63.53C7.46001 63.9 7.30002 64.2799 7.30002 64.69C7.30002 65.6399 8.07001 66.4299 9.01001 66.46C8.56984 67.0252 8.13467 67.5903 7.69951 68.1555C7.26468 68.7204 6.82983 69.2852 6.39002 69.85L4.62001 72.13C4.37146 72.4514 4.1174 72.7673 3.86334 73.0833C3.52454 73.5045 3.18575 73.9257 2.86002 74.36C2.51001 74.83 2.16002 75.3001 1.85002 75.8001C1.56067 76.2612 1.33673 76.7468 1.11168 77.2348L1.04001 77.39C0.669998 78.1901 1.04001 79.1799 1.78001 79.61C2.46001 80.01 3.35001 79.8899 3.92001 79.33C4.09158 79.1631 4.26425 78.9973 4.437 78.8316C4.99924 78.2919 5.56218 77.7515 6.09001 77.1701C6.40001 76.8201 6.72 76.47 7.04001 76.12C11.4726 71.2134 15.8553 66.263 20.2373 61.3133C21.4013 59.9986 22.5652 58.6839 23.73 57.37C28.48 52 33.29 46.68 38.18 41.44C38.777 40.7969 39.3723 40.1522 39.9677 39.5076C41.9554 37.3554 43.9431 35.203 45.99 33.11C46.85 32.24 47.7 31.37 48.56 30.49C48.07 31.12 47.58 31.74 47.08 32.36C45.5061 34.3407 43.9055 36.3036 42.305 38.2665C41.5055 39.247 40.7061 40.2273 39.91 41.21C39.3045 41.9561 38.6987 42.7023 38.0927 43.4486C34.1751 48.2733 30.2525 53.1041 26.39 57.98C23.92 61.09 21.45 64.2 19 67.32C18.7948 67.5894 18.5855 67.8546 18.3773 68.1183C18.2609 68.2659 18.1448 68.413 18.03 68.5601C17.5831 69.1126 17.14 69.6726 16.6984 70.2309C16.4286 70.572 16.1593 70.9125 15.89 71.25C15.18 72.13 14.48 73.01 13.78 73.89C13.1052 74.7372 12.451 75.6049 11.7953 76.4747C11.5375 76.8165 11.2796 77.1587 11.02 77.5C10.44 78.27 10.57 79.39 11.34 79.98C12.11 80.58 13.21 80.41 13.82 79.66C14.06 79.36 14.3 79.0701 14.53 78.77C15.6492 77.3461 16.7658 75.9221 17.8825 74.4982C19.0008 73.0722 20.1192 71.646 21.24 70.22C21.295 70.155 21.3475 70.09 21.4 70.0249C21.4525 69.96 21.505 69.895 21.56 69.83C22.97 68.14 24.38 66.45 25.79 64.75C26.1014 64.3764 26.4117 63.9994 26.7223 63.6221C27.3594 62.8484 27.9979 62.0729 28.65 61.32C28.65 61.33 28.64 61.33 28.64 61.33C30.7269 58.9713 32.8007 56.5908 34.8758 54.2088C35.93 52.9987 36.9845 51.7882 38.0413 50.58C38.0466 50.5795 38.0488 50.5758 38.0518 50.5709C38.0539 50.5676 38.0562 50.5639 38.06 50.5601C39.08 49.4601 40.11 48.35 41.13 47.24C42.0558 46.2392 42.9815 45.2409 43.9073 44.2426C44.8315 43.2459 45.7558 42.2492 46.68 41.25C47.43 40.44 48.19 39.65 48.97 38.86C49.7897 38.0353 50.6119 37.2132 51.4341 36.391C52.2569 35.5683 53.0797 34.7454 53.9 33.9201L52.82 35.21C51.8995 36.294 50.9768 37.3756 50.054 38.4573C48.2101 40.6189 46.3662 42.7805 44.54 44.96C43.135 46.6299 41.7325 48.3025 40.33 49.975C38.9275 51.6475 37.525 53.3201 36.12 54.99C34.4374 56.986 32.7966 59.0191 31.1565 61.0513C30.3889 62.0023 29.6215 62.9533 28.85 63.9L28.8419 63.9099C27.9846 64.9667 27.1274 66.0235 26.29 67.1C25.86 67.6499 25.4275 68.2 24.995 68.75C24.5625 69.3001 24.13 69.8501 23.7 70.4C23.5585 70.5798 23.4177 70.7608 23.2765 70.942C22.829 71.517 22.379 72.0951 21.9 72.65C21.8422 72.715 21.7838 72.7802 21.7251 72.8456C21.1234 73.5165 20.4907 74.2218 20.19 75.0601C20.02 75.53 19.91 75.95 19.91 76.45C19.91 76.81 20.02 77.14 20.14 77.47L20.2 77.65C20.57 78.8301 21.98 79.35 22.99 78.58C23.307 78.3382 23.6291 78.1032 23.9507 77.8687C24.4002 77.5409 24.8486 77.2139 25.28 76.87C25.93 76.35 26.55 75.7999 27.15 75.23C28.3552 74.0779 29.4897 72.8709 30.6301 71.6576C30.7766 71.5017 30.9232 71.3458 31.07 71.19C31.7324 70.4945 32.3742 69.7853 33.0181 69.0737C33.1519 68.9259 33.2858 68.778 33.42 68.63C33.5 68.5449 33.58 68.4575 33.66 68.37C33.74 68.2825 33.82 68.1951 33.9 68.11L33.2225 68.9744C32.181 70.3032 31.1439 71.6266 30.1 72.95C29.8887 73.213 29.6796 73.4782 29.4706 73.7445C29.2345 74.0454 28.9987 74.3478 28.76 74.65C28.4807 75.0067 28.1957 75.36 27.9104 75.7138C27.3479 76.4111 26.7841 77.1101 26.26 77.84C25.91 78.32 25.56 78.7999 25.27 79.32C25.01 79.7999 24.79 80.3001 24.56 80.8001C24.19 81.6001 24.56 82.59 25.3 83.02C25.57 83.1801 25.89 83.26 26.18 83.23C26.64 83.23 27.1 83.06 27.42 82.71C27.6793 82.4299 27.9413 82.152 28.2033 81.8739C28.9519 81.0795 29.7011 80.2844 30.39 79.44C30.6997 79.0603 31.0094 78.6781 31.3191 78.296C31.6294 77.9132 31.9397 77.5304 32.25 77.15C33.28 75.9 34.3 74.64 35.32 73.38C35.9478 72.5985 36.5743 71.8157 37.2008 71.0327C38.9393 68.86 40.6784 66.6865 42.45 64.5401C43.4053 63.3782 44.3647 62.2206 45.3229 61.0645C45.8493 60.4293 46.3753 59.7947 46.9 59.1601C47.3323 58.6377 47.7672 58.1179 48.2018 57.5985C48.9731 56.6767 49.7437 55.7556 50.4981 54.8224C52.6653 52.3667 54.8001 49.8787 56.9349 47.3905C57.3698 46.8836 57.8048 46.3766 58.24 45.87C59.7459 44.1701 61.2698 42.4943 62.7932 40.8191C63.2323 40.3362 63.6714 39.8534 64.11 39.37C65.0412 38.3433 65.9725 37.3102 66.9037 36.2758C67.4537 36.841 68.391 37.0241 69.09 36.59C69.115 36.575 69.1424 36.5601 69.1699 36.5451C69.1974 36.53 69.225 36.515 69.25 36.5C69.19 36.5701 69.1325 36.6426 69.075 36.7151C69.0175 36.7876 68.96 36.8601 68.9 36.9301C68.7193 37.1522 68.5377 37.3727 68.3562 37.593C67.9252 38.1162 67.4952 38.6382 67.08 39.1801C66.574 39.8424 66.1103 40.5387 65.6501 41.2299L65.53 41.4101C65.03 42.1601 65.34 43.15 65.98 43.7C66.3 43.98 66.61 44.21 67.03 44.32C67.38 44.4199 67.83 44.4201 68.18 44.3001C68.62 44.1601 69.04 43.9701 69.42 43.6801C69.7094 43.4568 69.985 43.2132 70.2582 42.9715M68.3802 25.6649C68.3062 25.3852 68.3024 25.0803 68.39 24.77C68.55 24.2201 68.7 23.72 68.99 23.22C69.2671 22.7526 69.6416 22.3374 70.0096 21.9295C70.0667 21.8662 70.1236 21.8031 70.18 21.74C71.27 20.4501 72.36 19.1601 73.44 17.86C73.7146 17.5335 73.9892 17.2069 74.2632 16.8804C74.7278 16.327 75.1909 15.7735 75.65 15.22C75.8 15.04 75.95 14.86 76.11 14.67C75.45 15.13 74.79 15.6001 74.13 16.07L74.1239 16.0742C73.4559 16.5429 72.788 17.0115 72.13 17.5L71.8815 17.6831C71.2839 18.1235 70.6836 18.5661 70.06 18.97C69.3734 19.425 68.6594 19.8116 67.9463 20.1977C67.7974 20.2782 67.6486 20.3588 67.5 20.44C66.46 21 65.26 20.49 64.9 19.38L64.8759 19.3029C64.7945 19.0432 64.7191 18.8023 64.71 18.52C64.69 18.1401 64.76 17.7901 64.91 17.43L64.97 17.31C64.74 17.34 64.51 17.32 64.29 17.26C63.67 17.09 63.26 16.6201 63.06 16.03C62.88 15.5001 62.96 14.99 63.17 14.49C63.4117 13.935 63.8859 13.5322 64.3413 13.1454C64.3946 13.1001 64.4476 13.0551 64.5 13.01C64.8561 12.6615 65.195 12.2958 65.5297 11.9345C65.6367 11.819 65.7434 11.7039 65.85 11.59C66.0645 11.3621 66.2836 11.1387 66.5011 10.9107C66.608 10.7986 66.7145 10.6854 66.82 10.57L65.53 11.53C64.7161 12.1492 63.907 12.7732 63.096 13.3985C62.7412 13.6721 62.3861 13.9461 62.03 14.22C61.4971 14.6264 60.9731 15.0416 60.449 15.4568C60.3395 15.5436 60.2299 15.6305 60.1203 15.7172C60.3432 15.7455 60.563 15.8185 60.77 15.94C61.43 16.33 61.84 17.19 61.59 17.94C61.4951 18.2149 61.4076 18.4922 61.3201 18.7696C61.2326 19.0472 61.145 19.3248 61.05 19.6C60.8705 20.1101 60.584 20.5934 60.3084 21.0582L60.26 21.14C59.6 22.25 58.8 23.27 58 24.28C57.29 25.1701 56.59 26.07 55.88 26.96C56.79 26.1 57.7 25.24 58.64 24.4101C59.3 23.8301 59.96 23.27 60.65 22.74C61.1303 22.372 61.6261 22.0196 62.1205 21.6681C62.4188 21.4561 62.7165 21.2445 63.01 21.03C64.04 20.28 65.42 20.7799 65.8 21.96C65.82 22.02 65.84 22.0801 65.86 22.15C66.04 22.64 66.16 23.12 66.09 23.65C66 24.28 65.73 24.87 65.43 25.4301C64.9386 26.3668 64.1877 27.1681 63.4535 27.9514C63.2316 28.1883 63.0112 28.4234 62.8 28.6601C61.8861 29.7329 60.9941 30.8277 60.1008 31.924C59.6453 32.4832 59.1894 33.0427 58.73 33.6C58.3961 34.004 58.0632 34.4092 57.7304 34.8144C57.0666 35.6226 56.4027 36.4308 55.73 37.23C54.3361 38.8688 52.9447 40.5075 51.5533 42.1463C50.1597 43.7875 48.7661 45.4287 47.37 47.07C45.5308 49.2256 43.7177 51.3986 41.902 53.5746C40.9633 54.6995 40.024 55.8253 39.08 56.95C38.57 57.56 38.07 58.1601 37.57 58.77C38.1205 58.1496 38.6709 57.5315 39.2214 56.9135C39.771 56.2965 40.3205 55.6796 40.87 55.0601C41.6397 54.1955 42.4069 53.3283 43.1741 52.4611C43.9419 51.5932 44.7097 50.7254 45.48 49.86C45.4768 49.8665 45.4735 49.8718 45.4703 49.8766C46.1239 49.1228 46.7985 48.3902 47.4732 47.6574C47.9276 47.1637 48.382 46.6701 48.83 46.1701L53.99 40.5C54.6749 39.7528 55.3841 39.0238 56.0939 38.2941C56.2961 38.0863 56.4983 37.8784 56.7 37.6701C57.5637 36.7764 58.4274 35.8853 59.291 34.9942C60.1573 34.1004 61.0237 33.2064 61.89 32.3101C62.4095 31.7755 62.946 31.258 63.4782 30.7446C63.6528 30.5762 63.827 30.4081 64 30.24C64.68 29.58 65.35 28.9201 66.02 28.26C66.2776 28.0088 66.5394 27.7617 66.7919 27.511C66.9315 27.3723 67.0683 27.2324 67.2 27.09C67.3128 26.9517 67.4247 26.8093 67.5373 26.6662C67.8061 26.3242 68.0791 25.9768 68.3802 25.6649ZM54.9558 19.0199C54.1718 19.0352 53.3779 18.5015 53.18 17.71C53.06 17.2601 52.98 16.78 53.11 16.32L53.17 16.14C52.9183 16.3079 52.6323 16.4366 52.3497 16.5638C52.2282 16.6185 52.1073 16.6729 51.99 16.73C51.9895 16.7302 51.9889 16.7305 51.9883 16.7308C52.4013 17.2713 52.4974 18.1138 52.11 18.69C51.91 18.9872 51.7116 19.2868 51.513 19.5868C51.0165 20.3367 50.5186 21.0886 49.99 21.8101C49.13 22.9801 48.21 24.11 47.29 25.23C46.47 26.23 45.64 27.23 44.81 28.22L39.8 34.19C39.3432 34.7393 38.8834 35.2886 38.4223 35.8395C38.0355 36.3015 37.6478 36.7647 37.26 37.23C38.1157 36.3092 38.9714 35.391 39.8271 34.4727C40.6814 33.5559 41.5357 32.6392 42.39 31.72C43.2091 30.8373 44.0581 29.9845 44.9053 29.1336C45.258 28.7794 45.6103 28.4256 45.96 28.07C47.55 26.45 49.14 24.82 50.73 23.19C51.75 22.1399 52.78 21.1 53.83 20.08C54.1984 19.7214 54.5741 19.3676 54.9558 19.0199ZM70.2609 42.9691C70.2606 42.9694 70.2603 42.9697 70.26 42.97C70.5857 42.6908 70.9283 42.4319 71.2702 42.1737C71.5161 41.9879 71.7615 41.8025 72 41.61C72.1 41.53 72.2 41.45 72.31 41.36C71.91 41.85 71.51 42.33 71.12 42.82C70.7931 43.2258 70.4661 43.6317 70.141 44.0358C69.8893 44.3485 69.6387 44.6603 69.39 44.97C69.2267 45.1684 69.0669 45.37 68.9044 45.5691C68.7883 45.7114 68.6709 45.8524 68.55 45.99C68.19 46.4201 67.85 46.84 67.58 47.33C67.3944 47.6641 67.3121 48.0327 67.2293 48.4039L67.21 48.49C67.05 49.1901 67.24 49.9101 67.83 50.36C68.41 50.8101 69.17 50.8301 69.8 50.49C69.92 50.4201 70.03 50.3601 70.15 50.3001C70.05 50.4201 69.95 50.5501 69.85 50.6701L68.62 52.23C68.2 52.77 67.77 53.3101 67.41 53.89C67.1746 54.2667 66.9637 54.662 66.7534 55.0563C66.6957 55.1644 66.6381 55.2725 66.58 55.38C66.02 56.4201 66.53 57.62 67.64 57.98C68.12 58.14 68.6 58.28 69.11 58.21C69.38 58.18 69.63 58.1 69.88 58C68.63 59.4601 67.36 60.9301 66.11 62.4C65.6 63 65.64 63.9501 66.11 64.5601C66.57 65.1502 67.27 65.33 67.98 65.19C68.15 65.1599 68.31 65.1001 68.46 65.03C68.58 65.5601 68.92 65.98 69.31 66.37C69.55 66.6 69.84 66.76 70.14 66.83C69.8 67.2 69.47 67.5701 69.12 67.9301C68.86 68.0401 68.64 68.22 68.47 68.45M50.497 54.8235C50.448 54.879 50.399 54.9346 50.35 54.99C50.399 54.9409 50.448 54.8823 50.497 54.8235Z"
    fill="rgba(191, 192, 191, 1)" />
</svg>