<svg width="183" height="112" viewBox="0 0 183 112" fill="none" xmlns="http://www.w3.org/2000/svg">
  <path fill-rule="evenodd" clip-rule="evenodd"
    d="M163.122 6.03197C147.412 14.0211 142.256 17.3375 135.422 24.0913L131.515 27.9315L132.266 29.3682C133.112 30.966 136.281 34.3228 138.295 35.7863C139.571 36.6993 141.128 37.0619 141.128 36.4442C141.128 36.2428 142.753 34.4168 144.74 32.3759C148.419 28.5357 151.91 25.5683 156.61 22.3324C159.577 20.278 166.908 15.78 167.07 15.9411C167.096 16.0083 166.747 17.4718 166.224 19.1636C165.7 20.8957 165.109 23.2052 164.881 24.3196C164.68 25.3938 164.398 26.3068 164.29 26.3068C164.156 26.3068 163.74 25.8771 163.377 25.3669C162.531 24.2524 159.819 22.3996 159.013 22.3996C157.644 22.3996 136.55 46.622 121.592 65.3527C116.866 71.2472 115.496 72.8181 115.295 72.3616C115.16 72.0394 114.811 71.019 114.475 70.1462C113.495 67.4071 110.434 63.2044 107.01 59.8745C102.512 55.5107 100.27 54.6245 96.7382 55.7658C91.421 57.5247 86.5739 62.6404 75.9127 77.7996C73.6972 80.9281 71.2535 84.3788 70.4076 85.453C68.5546 87.9236 64.8353 91.8041 64.3385 91.8041C64.1371 91.8041 63.5597 89.3872 62.9018 85.8424C60.2969 71.5023 57.6921 64.7216 52.6703 59.3373C51.435 58.0349 49.4075 56.276 48.1722 55.4301C46.0507 54.0337 45.7553 53.9263 44.2918 54.0605C39.4983 54.517 32.4222 61.714 17.2361 81.5323C9.28718 91.898 4.29229 97.9536 2.76159 99.1352C2.07681 99.6588 1.48601 99.8468 1.00263 99.726C-0.165528 99.4306 0.116445 100.773 1.71428 103.016C3.47323 105.486 9.13949 110.964 10.2271 111.233C11.4624 111.555 12.9259 110.481 15.3831 107.447C17.4643 104.842 20.7003 99.9811 30.8646 84.1372C36.41 75.5036 39.9279 70.8444 43.3519 67.4876C46.4133 64.5202 49.7029 62.2108 50.1594 62.6673C50.6831 63.2178 52.4018 70.7235 53.9056 79.0886C56.5508 93.8852 56.4836 93.5899 59.2899 97.0138C63.7208 102.358 66.5943 104.345 69.9108 104.345C71.6697 104.345 72.0994 104.211 73.8181 103.069C78.343 100.075 81.5118 96.2886 88.7088 85.4396C94.0528 77.3565 96.8188 73.7715 99.7862 71.0995C101.679 69.3674 104.58 67.2594 104.768 67.4473C104.794 67.4742 105.224 70.5087 105.681 74.1609C106.365 79.4109 106.688 81.0758 107.252 81.9889C109.83 86.2587 114.744 91.3073 117.819 92.8111C119.739 93.7913 119.873 93.7912 120.853 93.2944C123.042 92.1531 126.264 88.5949 130.467 82.6736C139.168 70.455 154.811 47.6021 160.49 38.9014C161.726 37.0082 162.773 35.4775 162.773 35.5177C162.8 35.5446 162.612 37.3707 162.343 39.5862C161.793 44.3796 161.887 44.7019 164.626 47.6424C166.653 49.7908 169.943 52.3016 170.332 51.9391C170.426 51.8048 170.816 49.4014 171.151 46.5548C172.454 35.2493 175.448 24.8836 180.577 13.9271C181.464 12.0742 182.175 10.0869 182.175 9.56329C182.175 7.11956 176.173 0.822216 173.891 0.862497C173.501 0.862497 168.681 3.17199 163.095 6.01853L163.122 6.03197Z"
    fill="rgba(191, 192, 191, 1)" />
</svg>