<svg width="69" height="74" viewBox="0 0 69 74" fill="none" xmlns="http://www.w3.org/2000/svg">
  <path
    d="M2.27 72.83C1.82 71.53 1.47998 70.19 1.12998 68.86C0.969982 68.27 0.839938 67.67 0.709938 67.07C0.589938 66.55 0.490002 66.02 0.400002 65.5C0.310002 64.94 0.230002 64.27 0.400002 63.72C0.680002 62.8 1.62993 62.22 2.57993 62.49C3.42993 62.72 4.00996 63.6 3.85996 64.47C3.85996 64.5 3.85996 64.53 3.85996 64.56C3.90996 65.05 3.99994 65.54 4.08994 66.02C4.49994 67.79 4.90995 69.57 5.46995 71.29C5.48995 71.35 5.51001 71.41 5.53001 71.47C5.69001 71.93 5.73001 72.39 5.53001 72.85C5.35001 73.27 5.00994 73.62 4.58994 73.8C4.37994 73.89 4.15002 73.93 3.92002 73.93C3.23002 73.91 2.51 73.52 2.27 72.83Z"
    fill="rgba(191, 192, 191, 1)" />
  <path
    d="M6.25 67.19C5.95 66.17 5.72004 65.11 5.54004 64.06C5.36004 63 5.17997 61.93 5.08997 60.85C5.08997 60.84 5.08997 60.83 5.08997 60.83C5.02997 59.96 4.94995 59.08 4.94995 58.21C4.94995 57.25 5.74997 56.44 6.71997 56.44C7.68997 56.44 8.48999 57.24 8.48999 58.21C8.48999 58.44 8.49 58.68 8.5 58.91C8.5 58.87 8.49999 58.82 8.48999 58.78C8.48999 58.83 8.49 58.88 8.5 58.94C8.5 58.96 8.5 58.98 8.5 59C8.54 59.57 8.56999 60.14 8.62 60.71C8.62 60.63 8.60998 60.55 8.59998 60.47C8.67998 61.1 8.74996 61.74 8.82996 62.37C8.88996 62.87 8.99996 63.37 9.07996 63.87C9.24996 64.67 9.42002 65.47 9.65002 66.26C9.92002 67.19 9.33004 68.19 8.42004 68.44C8.26004 68.48 8.10995 68.5 7.94995 68.5C7.17995 68.49 6.48 67.97 6.25 67.19Z"
    fill="rgba(191, 192, 191, 1)" />
  <path d="M5.08997 60.87C5.08997 60.89 5.08997 60.91 5.08997 60.93C5.09997 60.91 5.08997 60.89 5.08997 60.87Z"
    fill="rgba(191, 192, 191, 1)" />
  <path
    d="M9.93002 62.39C9.57002 60.2 9.20003 58.01 8.81003 55.83C8.59003 54.76 8.38003 53.69 8.06003 52.65C8.05003 52.63 8.04 52.6 8.03 52.58C7.5 51.88 7.57991 50.9 8.18991 50.26C8.79991 49.62 9.86002 49.58 10.55 50.11C10.89 50.38 11.12 50.75 11.28 51.15C11.49 51.69 11.66 52.24 11.78 52.8C11.99 53.79 12.22 54.77 12.4 55.77C12.78 57.81 13.1099 59.86 13.4499 61.92C13.5999 62.87 12.87 63.79 11.93 63.92C11.85 63.93 11.7699 63.94 11.6899 63.94C10.8199 63.92 10.08 63.26 9.93002 62.39Z"
    fill="rgba(191, 192, 191, 1)" />
  <path
    d="M15.13 55.81C14.75 54.02 14.25 52.27 13.78 50.51C13.55 49.65 13.38 48.76 13.25 47.87C13.1 46.88 13 45.87 12.87 44.88C12.87 44.88 12.87 44.89 12.88 44.9C12.75 44.02 13.25 43.13 14.15 42.89C15.06 42.64 16.0999 43.19 16.3299 44.13C16.4899 44.77 16.5099 45.47 16.5799 46.13C16.6399 46.73 16.76 47.33 16.85 47.92C16.97 48.47 17.09 49.01 17.21 49.54C17.33 50.1 17.51 50.65 17.66 51.2C17.99 52.41 18.3099 53.63 18.5699 54.87C18.7699 55.81 18.31 56.78 17.34 57.05C17.2 57.09 17.04 57.11 16.89 57.11C16.08 57.11 15.29 56.6 15.13 55.81Z"
    fill="rgba(191, 192, 191, 1)" />
  <path
    d="M20.3001 49.9C19.7801 48.29 19.3301 46.66 18.9101 45.03C18.6801 44.12 18.44 43.2 18.21 42.29C18.12 41.92 18.0201 41.55 17.9201 41.18C17.8001 40.75 17.65 40.32 17.58 39.89C17.4 38.94 18.17 38.02 19.09 37.89C20.05 37.76 20.87 38.42 21.07 39.32C21.06 39.27 21.0501 39.22 21.0401 39.17C21.4701 40.8 21.92 42.44 22.33 44.07C22.75 45.7 23.2 47.34 23.72 48.94C24.02 49.86 23.38 50.87 22.48 51.12C22.32 51.16 22.1701 51.18 22.0201 51.18C21.2301 51.2 20.5501 50.67 20.3001 49.9Z"
    fill="rgba(191, 192, 191, 1)" />
  <path
    d="M24.6801 46.77C24.2601 45.09 23.8601 43.39 23.5401 41.69C23.2301 40.05 22.9801 38.4 22.6601 36.76C22.6601 36.76 22.6601 36.76 22.6601 36.75C22.3701 35.83 22.9901 34.82 23.9001 34.57C24.8501 34.31 25.79 34.89 26.08 35.8C26.22 36.26 26.28 36.76 26.36 37.23C26.44 37.69 26.52 38.16 26.6 38.62C26.77 39.64 26.96 40.66 27.14 41.67C27.44 43.06 27.75 44.44 28.1 45.81C28.33 46.75 27.81 47.73 26.87 47.99C26.72 48.03 26.5701 48.05 26.4201 48.05C25.6201 48.07 24.8701 47.55 24.6801 46.77Z"
    fill="rgba(191, 192, 191, 1)" />
  <path
    d="M29.38 40.06C29.02 38.8 28.68 37.53 28.36 36.26C27.95 34.65 27.6 32.99 27.6 31.33C27.6 30.37 28.4 29.56 29.37 29.56C30.34 29.56 31.14 30.36 31.14 31.33C31.14 31.54 31.14 31.76 31.15 31.98C31.2 32.57 31.3 33.16 31.41 33.74C31.82 35.55 32.28 37.34 32.79 39.13C33.06 40.06 32.47 41.05 31.55 41.31C31.4 41.35 31.24 41.37 31.09 41.37C30.32 41.35 29.6 40.83 29.38 40.06Z"
    fill="rgba(191, 192, 191, 1)" />
  <path
    d="M34.5201 35.77C34.3101 34.67 34.09 33.58 33.88 32.48C33.56 31.01 33.23 29.56 32.76 28.13C32.68 27.94 32.6001 27.74 32.5501 27.54C32.3301 26.6 32.8301 25.63 33.7801 25.36C34.6901 25.11 35.74 25.66 35.96 26.6C35.96 26.61 35.96 26.62 35.96 26.62C36.99 29.41 37.4701 32.39 38.0201 35.29C38.2001 36.24 37.43 37.16 36.51 37.29C36.43 37.3 36.3501 37.31 36.2701 37.31C35.3901 37.3 34.6801 36.64 34.5201 35.77Z"
    fill="rgba(191, 192, 191, 1)" />
  <path
    d="M39.4899 30.75C39.1399 28.71 38.7699 26.68 38.3799 24.65C38.2899 24.23 38.1899 23.81 38.0699 23.4C37.4699 22.78 37.39 21.78 37.93 21.08C37.98 21.01 38.0399 20.95 38.0999 20.89C38.6299 20.39 39.36 20.23 40.04 20.51C40.56 20.72 41.0099 21.14 41.2199 21.67C41.5199 22.44 41.7099 23.23 41.8699 24.04C41.9899 24.67 42.1199 25.3 42.2299 25.93C42.4899 27.37 42.7499 28.81 42.9999 30.25C43.1599 31.2 42.4099 32.12 41.4799 32.25C41.3999 32.26 41.3199 32.27 41.2399 32.27C40.3599 32.28 39.6299 31.62 39.4899 30.75Z"
    fill="rgba(191, 192, 191, 1)" />
  <path
    d="M43.92 27.86C43.67 26.15 43.4899 24.42 43.3199 22.7C43.1599 21.15 43.04 19.58 42.76 18.05C42.75 18.01 42.7399 17.96 42.7199 17.93C42.7199 17.94 42.73 17.95 42.74 17.95C42.6 17.5 42.64 17.01 42.9 16.56C43.38 15.75 44.5099 15.41 45.3199 15.92C45.9599 16.33 46.19 16.97 46.29 17.69C46.36 18.2 46.43 18.71 46.51 19.22C46.63 20.05 46.7 20.89 46.78 21.73C46.97 23.62 47.16 25.5 47.43 27.37C47.57 28.32 46.87 29.23 45.92 29.36C45.84 29.37 45.76 29.38 45.68 29.38C44.81 29.39 44.05 28.74 43.92 27.86Z"
    fill="rgba(191, 192, 191, 1)" />
  <path
    d="M51.9101 43.83C51.2301 43.63 50.7701 43.16 50.5501 42.49C50.4301 42.11 50.3601 41.72 50.2801 41.33C49.9901 39.85 49.94 38.35 49.87 36.84C49.84 36.1 49.8901 35.36 49.9101 34.62C49.9301 33.88 49.9201 33.14 49.8801 32.4C49.8101 31.58 49.7 30.77 49.58 29.95C49.45 29.07 49.3801 28.18 49.3001 27.3C49.2301 26.44 49.1301 25.59 49.0601 24.74C48.9901 23.87 48.99 23 48.95 22.13C48.9 21.64 48.8401 21.16 48.7701 20.67C48.4901 19.43 48.14 18.2 48 16.93C47.84 15.55 47.8201 14.16 47.7601 12.78C47.6901 11.96 47.59 11.15 47.47 10.33C47.35 9.48001 47.14 8.63 46.97 7.79C46.83 7.08 46.69 6.36 46.61 5.65C46.56 5.19 46.5 4.73001 46.44 4.27001C46.43 4.19001 46.4201 4.11 46.4101 4.04C46.3401 3.88 46.2901 3.70001 46.2701 3.52001C46.2401 3.18001 46.1901 2.84001 46.1701 2.49001C46.1201 1.66001 46.4801 0.780014 47.3001 0.460014C47.7701 0.280014 48.3 0.300007 48.74 0.500007C48.99 0.360007 49.28 0.280011 49.58 0.270011C50.24 0.250011 50.79 0.470014 51.35 0.820014C51.99 1.23001 52.58 1.71001 53.12 2.25001C53.8 2.92001 54.43 3.62001 54.99 4.39001C55.53 5.14001 56 5.93001 56.49 6.71001C56.58 6.84001 56.6801 6.97001 56.7801 7.10001C56.9001 7.23001 57.0201 7.35001 57.1501 7.47001C57.7601 7.99001 58.42 8.47 58.96 9.06C59.55 9.71 60.07 10.42 60.6301 11.1C60.8301 11.32 61.04 11.53 61.25 11.74C61.66 12.08 62.07 12.42 62.49 12.75C63 13.16 63.4901 13.58 64.0201 13.96C64.7701 14.43 65.58 14.81 66.34 15.28C66.78 15.55 67.19 15.88 67.57 16.24C68.13 16.78 68.2801 17.62 68.0101 18.33C67.7101 19.12 67.1 19.79 66.62 20.48C65.38 22.35 64.2701 24.31 63.0601 26.21C61.8601 28.1 60.61 29.95 59.59 31.94C59.16 32.84 58.72 33.73 58.25 34.61C57.78 35.47 57.2501 36.3 56.8101 37.17C56.7101 37.36 56.6101 37.56 56.5201 37.75C56.4901 37.8 56.47 37.86 56.44 37.91C56.44 37.91 56.44 37.91 56.44 37.92C55.85 39.15 55.3801 40.43 54.7701 41.65C54.5001 42.19 54.26 42.79 53.83 43.22C53.44 43.62 52.91 43.9 52.36 43.9C52.22 43.9 52.0601 43.88 51.9101 43.83ZM50.1601 5.42C50.3601 6.59 50.59 7.76 50.82 8.92C51.05 10.08 51.2001 11.24 51.3001 12.41C51.3901 13.55 51.4 14.7 51.46 15.84C51.53 16.41 51.6 16.97 51.7 17.54C51.95 18.63 52.2301 19.72 52.4001 20.83C52.5801 21.97 52.55 23.14 52.59 24.29C52.69 25.43 52.8201 26.58 52.9101 27.72C53.0101 28.95 53.25 30.17 53.36 31.4C53.43 32.1 53.47 32.8 53.48 33.51C53.5 34.11 53.46 34.71 53.44 35.31C53.43 35.57 53.4301 35.83 53.4301 36.08C53.4001 36.13 53.38 36.18 53.36 36.23C53.38 36.18 53.4101 36.13 53.4301 36.08C54.1601 34.62 55.0101 33.24 55.7601 31.78C56.4501 30.37 57.14 28.96 57.97 27.64C58.72 26.44 59.5101 25.26 60.2601 24.06C61.0801 22.76 61.8501 21.44 62.6701 20.13C63.0501 19.52 63.43 18.92 63.83 18.33C63.9 18.23 63.9701 18.13 64.0401 18.03C63.4901 17.72 62.9401 17.43 62.4001 17.11C61.5101 16.58 60.74 15.86 59.94 15.21C59.28 14.68 58.65 14.14 58.08 13.51C57.55 12.92 57.08 12.28 56.58 11.65C56.38 11.44 56.18 11.25 55.97 11.06C55.26 10.46 54.54 9.88 53.94 9.17C53.41 8.53 53.03 7.76001 52.58 7.07001C52.25 6.59001 51.9101 6.12 51.5401 5.67C51.1501 5.25 50.75 4.83001 50.33 4.44001C50.23 4.36001 50.1301 4.27001 50.0301 4.19001C50.0501 4.61001 50.0901 5.02 50.1601 5.42Z"
    fill="rgba(191, 192, 191, 1)" />
</svg>