<svg width="80" height="76" viewBox="0 0 80 76" fill="none" xmlns="http://www.w3.org/2000/svg">
  <path fill-rule="evenodd" clip-rule="evenodd"
    d="M36.74 75.08C35.9817 74.9591 35.2299 74.812 34.4794 74.6651C34.2996 74.63 34.1197 74.5948 33.9399 74.56C33.7241 74.5183 33.5083 74.478 33.2925 74.4386C33.1161 74.4064 32.9397 74.3748 32.7633 74.3436C32.5563 74.307 32.3492 74.271 32.1422 74.2352L31.7661 74.1702L31.7632 74.1697C31.0388 74.0448 30.3143 73.9199 29.59 73.78C28.6799 73.6101 27.77 73.39 26.89 73.06C26 72.73 25.1499 72.31 24.33 71.82C23.959 71.6003 23.5945 71.3715 23.2303 71.143C22.5836 70.737 21.9382 70.3319 21.26 69.98C20.8407 69.7785 20.4095 69.5977 19.9778 69.4168C19.6167 69.2654 19.2552 69.114 18.9 68.95L16.83 67.99C15.96 67.58 15.5 66.59 15.89 65.67C16.0062 65.3923 16.1986 65.1531 16.4352 64.9704C16.5935 64.5379 16.9186 64.1701 17.35 63.96L17.3584 63.9489C17.4155 63.8726 17.4723 63.7968 17.52 63.73C17.8199 63.28 18.13 62.85 18.59 62.52C19.0099 62.22 19.4499 61.95 19.9 61.68C19.9484 61.6437 19.9951 61.6074 20.0409 61.5711C20.1086 61.5174 20.1743 61.4637 20.24 61.41C20.86 60.86 21.47 60.29 22.1 59.74C22.2799 59.58 22.4499 59.4 22.62 59.22C23.11 58.64 23.6199 58.08 24.1999 57.57C24.7103 57.1235 25.2843 56.7596 25.856 56.3972L25.9985 56.3068C26.0961 56.2448 26.1934 56.1827 26.29 56.12C26.84 55.74 27.38 55.33 27.9 54.91C28.6011 54.2633 29.251 53.562 29.9005 52.8609C30.3257 52.4019 30.7507 51.9431 31.1899 51.5C31.6945 50.9858 32.2129 50.4854 32.7308 49.9856C33.2906 49.4454 33.8498 48.9058 34.39 48.35C34.6899 47.97 34.98 47.6 35.26 47.21C35.3579 47.0611 35.4546 46.9105 35.5515 46.7595C35.9294 46.1708 36.3104 45.5774 36.78 45.06C37.3 44.48 37.8699 43.95 38.4399 43.43C39.259 42.6751 40.1171 41.9591 40.9722 41.2454L40.9744 41.2434L40.9788 41.2395C41.1771 41.0739 41.3755 40.9083 41.5731 40.7425C41.5681 40.7474 41.5635 40.7532 41.5601 40.76L41.59 40.73L41.6 40.72L42.37 40.04C42.3899 40.0201 42.4098 40.0026 42.4297 39.9852C42.4498 39.9676 42.4698 39.9501 42.49 39.93C42.6 39.82 42.71 39.72 42.8199 39.61C43.1899 39.25 43.55 38.9 43.89 38.52C43.9755 38.4132 44.0609 38.3064 44.1448 38.1981C44.218 38.1036 44.29 38.0079 44.36 37.91L44.4319 37.7958C44.9119 37.0339 45.4397 36.1957 46.43 36.11C46.8697 36.0718 47.2546 36.1615 47.6633 36.2568L47.72 36.27C48.34 36.3101 48.85 36.56 49.36 36.93C50.0299 37.4 50.6599 37.9401 51.24 38.52C51.6699 38.95 52.09 39.38 52.51 39.82C52.5 39.66 52.49 39.5001 52.49 39.33C52.4567 38.913 52.4188 38.497 52.381 38.0811C52.3054 37.2503 52.2299 36.4196 52.1899 35.58C52.141 34.5523 52.2052 33.5113 52.2686 32.4841L52.27 32.4623C52.2838 32.2374 52.2975 32.0133 52.3101 31.79C52.3496 31.0491 52.3892 30.3115 52.4305 29.5734C52.4624 29.0064 52.4952 28.4392 52.53 27.87C52.5895 26.9332 52.682 26.002 52.7749 25.0681L52.7753 25.0663C52.8072 24.7446 52.8392 24.4226 52.87 24.1C52.87 24.0652 52.87 24.0256 52.8734 23.9878C52.8749 23.9713 52.8769 23.9552 52.88 23.94L52.97 22.64C52.9755 22.4796 52.9779 22.316 52.9774 22.1528C52.9769 22.0211 52.9745 21.8895 52.97 21.76C51.7699 21.84 50.5599 21.95 49.38 22.14C48.6461 22.2549 47.9122 22.3746 47.1783 22.4945C46.9186 22.5369 46.6587 22.5793 46.3989 22.6215C45.9226 22.6989 45.4463 22.7755 44.97 22.85C44.3697 22.947 43.7695 23.0311 43.1694 23.1153C42.4696 23.2134 41.7698 23.3116 41.0699 23.43C39.6399 23.67 38.21 23.94 36.78 24.22C36.0701 24.38 35.36 24.55 34.66 24.72C34.6859 24.7365 34.7124 24.7529 34.7393 24.7696L34.7532 24.7783C34.8356 24.8295 34.9204 24.8822 35 24.94C35.4199 25.1976 35.8556 25.4269 36.2911 25.6561L36.2933 25.6574C36.6349 25.8372 36.9763 26.0169 37.3101 26.21C38 26.6101 38.66 27.0101 39.27 27.53C40.04 28.1701 40.7001 29.08 40.41 30.13C40.2532 30.6887 39.8176 31.1033 39.4049 31.4962L39.38 31.52C39.04 31.85 38.6999 32.1701 38.36 32.5C38.1295 32.7271 37.9012 32.9565 37.673 33.1859C37.4674 33.3925 37.2618 33.5991 37.0546 33.804C36.8031 34.0527 36.5492 34.299 36.29 34.54C36.1085 34.7105 35.9263 34.8794 35.7443 35.0481C35.2645 35.493 34.7867 35.936 34.33 36.4C34.1699 36.5651 34.0105 36.7307 33.8511 36.8964C33.373 37.3932 32.895 37.89 32.4 38.37C31.1147 39.6368 29.7781 40.8438 28.4376 42.0541L28.11 42.35C27.3191 43.0706 26.5453 43.8085 25.7726 44.5454L25.7696 44.5483L25.7664 44.5512C25.2223 45.0701 24.6787 45.5884 24.13 46.1L23.9806 46.2391C23.792 46.4151 23.6034 46.5917 23.4148 46.7686C22.2351 47.8749 21.0494 48.9867 19.76 49.96C18.15 51.1701 16.49 52.3 14.8101 53.41C14.43 53.66 14.0601 53.91 13.68 54.16C13.3112 54.425 12.9467 54.7001 12.5818 54.9755L12.5796 54.9774C11.8573 55.5225 11.1334 56.0687 10.37 56.54C10.0499 56.93 9.55004 57.19 9.01 57.19H8.95996C8.77355 57.2191 8.58666 57.2123 8.40624 57.1756C8.32995 57.311 8.23437 57.4373 8.11999 57.55C7.47998 58.19 6.45007 58.23 5.76 57.67C4.55004 56.63 3.94006 55.07 3.39001 53.6C3.01 52.59 2.67993 51.57 2.35998 50.55C2.34423 50.5013 2.32934 50.4526 2.31506 50.4039C2.30175 50.3585 2.28906 50.3132 2.27685 50.2678C2.26257 50.2149 2.2489 50.1619 2.23571 50.109L2.22631 50.0709C2.21618 50.0298 2.20629 49.9887 2.19653 49.9475L2.18066 49.8794L2.14575 49.7283C2.13061 49.6622 2.11547 49.5961 2.09997 49.53C1.96997 48.98 1.80993 48.42 1.70996 47.86C1.67333 47.6453 1.63549 47.4307 1.59765 47.2159L1.59655 47.2091L1.5885 47.1632C1.55432 46.9686 1.52014 46.7739 1.48681 46.579C1.42309 46.2051 1.36267 45.8305 1.31164 45.4542C1.30065 45.3729 1.29003 45.2915 1.28002 45.21C1.16003 44.1701 1.05004 43.14 0.989985 42.1C0.975459 41.8674 0.963252 41.6348 0.951167 41.4033L0.941645 41.223C0.937373 41.1426 0.9331 41.0624 0.928584 40.9824L0.923457 40.8929C0.919184 40.8184 0.91479 40.7441 0.910029 40.67C0.820063 39.25 0.920039 37.79 1.06005 36.38C1.55004 31.14 3.33007 26.03 6.02001 21.52C6.84008 20.14 7.79003 18.84 8.73998 17.55C9.80004 16.11 10.92 14.72 12.13 13.4C12.99 12.47 13.8999 11.58 14.83 10.72C15.8199 9.81001 16.8401 8.91999 17.92 8.10999C20.01 6.53999 22.3199 5.3 24.71 4.22999C26.2899 3.52003 27.9199 2.96003 29.5699 2.44001C30.96 2.00001 32.34 1.57002 33.76 1.22999C36.4401 0.599985 39.18 0.270028 41.92 0.229989C44.66 0.180002 47.38 0.590036 50.02 1.31001C51.8144 1.80207 53.5718 2.44306 55.3187 3.08027L55.51 3.15003C56.75 3.61006 57.99 4.06001 59.22 4.55C64.12 6.52003 68.5599 9.70002 71.8299 13.86C75.13 18.07 77.3501 23.11 78.53 28.31C79.74 33.66 79.8201 39.22 78.8 44.61C77.91 49.3 76.1699 53.86 73.59 57.88C72.27 59.94 70.73 61.84 68.98 63.55C68.4206 64.0953 67.8412 64.6102 67.2595 65.1271L67.2507 65.1351L66.9703 65.3845C66.8268 65.5124 66.6832 65.6408 66.54 65.77C64.49 67.6101 62.3201 69.34 59.89 70.64C58.87 71.19 57.8099 71.67 56.73 72.1C55.71 72.5 54.66 72.88 53.6 73.14C53.3282 73.208 53.0564 73.2791 52.7843 73.3502L52.7817 73.351C52.2136 73.4995 51.644 73.6484 51.0699 73.77C50.9499 73.8001 50.84 73.8201 50.72 73.84C50.71 73.84 50.6999 73.8425 50.6899 73.845C50.6799 73.8475 50.67 73.85 50.66 73.85C50.635 73.86 50.61 73.865 50.585 73.87C50.5601 73.875 50.535 73.88 50.51 73.89C50.2761 73.9626 50.0228 74.0026 49.7761 74.0416L49.7574 74.0446L49.6813 74.0567L49.6 74.07L49.5167 74.0902C49.4277 74.1118 49.3373 74.1339 49.2461 74.1546C49.0648 74.1958 48.8806 74.2319 48.6999 74.25C48.63 74.27 48.5601 74.28 48.49 74.29C46.51 74.7 44.51 75.05 42.5 75.22C41.8101 75.28 41.1101 75.31 40.42 75.31C39.18 75.37 37.96 75.28 36.74 75.08ZM7.47595 54.1824C7.43945 54.1157 7.40405 54.0482 7.36999 53.98C7.00195 53.1901 6.69836 52.384 6.39416 51.5763L6.29003 51.3C6.22473 51.091 6.15405 50.882 6.08325 50.6727C5.93737 50.2409 5.79101 49.8077 5.68994 49.37C5.5299 48.67 5.35998 47.98 5.19995 47.28C5.06994 46.59 4.92993 45.9 4.83996 45.21C4.76916 44.5552 4.69055 43.9004 4.61108 43.2387L4.57995 42.98C4.47998 41.24 4.39001 39.51 4.48999 37.77C4.58996 36.4201 4.77001 35.07 5.03002 33.74C5.34008 32.22 5.74999 30.7301 6.24999 29.26C6.72998 27.94 7.28002 26.65 7.91003 25.39C8.60998 24.06 9.39001 22.77 10.23 21.51C10.5583 21.0311 10.9102 20.5615 11.2598 20.095C11.4211 19.8796 11.582 19.6648 11.74 19.45C12.4499 18.4901 13.1899 17.56 13.97 16.66C15.2828 15.1818 16.6904 13.8075 18.1649 12.5006C19.0513 11.7254 19.9763 10.9987 20.9399 10.33C22.0599 9.57002 23.23 8.89002 24.4399 8.28004C26.0299 7.51008 27.6699 6.83003 29.34 6.24C29.7733 6.10627 30.2096 5.96674 30.6472 5.82765C30.8125 5.77516 30.9779 5.72267 31.1434 5.6706C31.3589 5.60285 31.5745 5.53571 31.79 5.46998C33.03 5.07997 34.28 4.75001 35.5601 4.47999C37.0601 4.19001 38.5599 3.97999 40.08 3.87C41.34 3.78999 42.59 3.77003 43.84 3.84004C44.96 3.92005 46.0701 4.07008 47.18 4.28004C48.68 4.61006 50.17 5.03999 51.63 5.53999C51.6045 5.5304 51.58 5.52192 51.5561 5.51368L51.5441 5.50947L51.5416 5.50874L51.5391 5.50782L51.4972 5.49342L51.4653 5.48194C51.4536 5.47761 51.442 5.47315 51.4304 5.46845L51.41 5.46003C52.3802 5.80451 53.3455 6.15882 54.3092 6.5127C54.7163 6.66218 55.1232 6.81153 55.53 6.96003C57.0601 7.53004 58.5901 8.11005 60.05 8.83003C61.1101 9.38001 62.14 9.98005 63.14 10.64C64.0801 11.29 64.98 11.98 65.84 12.72C66.6 13.39 67.3301 14.09 68.01 14.84C68.8101 15.7501 69.53 16.71 70.21 17.7C70.9299 18.77 71.5801 19.88 72.17 21.02C72.91 22.53 73.5499 24.08 74.1 25.67C74.088 25.6381 74.0776 25.6079 74.0676 25.5786C74.0611 25.5596 74.0548 25.541 74.0482 25.5226C74.0394 25.4981 74.0304 25.4741 74.02 25.45C74.51 26.89 74.91 28.35 75.22 29.83C75.5499 31.51 75.78 33.19 75.9 34.89C75.8953 34.8518 75.8928 34.8137 75.8904 34.7755L75.8896 34.7645C75.8872 34.7264 75.8848 34.6882 75.88 34.65C75.99 36.28 75.99 37.92 75.9 39.55V39.64C75.77 41.23 75.55 42.8 75.24 44.37C74.92 45.91 74.51 47.41 74.01 48.89C73.5 50.34 72.92 51.75 72.24 53.13C72.2462 53.13 72.2485 53.1262 72.2518 53.1209L72.2526 53.12L72.2556 53.1154C72.2568 53.1137 72.2582 53.1118 72.26 53.11C72.25 53.14 72.24 53.16 72.22 53.19L72.1899 53.25C71.5799 54.43 70.9 55.58 70.16 56.69C70.1764 56.6574 70.1986 56.6248 70.2218 56.5906L70.2229 56.5889C70.2421 56.5607 70.2621 56.5313 70.28 56.5C69.55 57.56 68.7799 58.59 67.9399 59.56C66.7964 60.8408 65.5189 61.9793 64.2378 63.121L64.2349 63.1236L64.05 63.29L64.0067 63.3271C62.7112 64.4345 61.4144 65.5308 60.01 66.5L60.0467 66.4755L60.0665 66.4625L60.1024 66.4392C60.1333 66.4195 60.1654 66.3998 60.1999 66.38C59.37 66.93 58.51 67.42 57.63 67.87C56.64 68.36 55.62 68.79 54.58 69.17C53.1915 69.6455 51.785 69.9945 50.369 70.3457L50.15 70.4C50.0801 70.41 50.02 70.43 49.9499 70.44C49.7777 70.463 49.6022 70.4992 49.4271 70.539C49.2974 70.5686 49.1678 70.6002 49.04 70.63C48.9841 70.6416 48.9279 70.6524 48.8713 70.6629L48.814 70.6735L48.7391 70.6871C48.5457 70.7221 48.3507 70.7574 48.16 70.81L48.1586 70.8102C48.0991 70.8201 48.0395 70.8301 47.98 70.85C47.9753 70.85 47.9705 70.8502 47.9655 70.8507C47.9526 70.8518 47.9384 70.8542 47.9235 70.8574L47.8987 70.863L47.8722 70.8695L47.87 70.87C47.84 70.88 47.8101 70.88 47.78 70.89C45.78 71.29 43.77 71.64 41.74 71.79C40.83 71.84 39.93 71.84 39.02 71.79C37.7517 71.6936 36.5109 71.454 35.2689 71.2144L35.2565 71.212C34.8281 71.1293 34.3998 71.0467 33.97 70.97C33.4308 70.8709 32.8933 70.778 32.3561 70.6853C31.5381 70.5441 30.7208 70.403 29.9 70.24C29.3101 70.11 28.73 69.96 28.15 69.76C27.9541 69.6816 27.7582 69.6002 27.5623 69.5156C27.5098 69.4929 27.4573 69.47 27.4048 69.4468L27.3209 69.4097C27.2473 69.3769 27.1736 69.3437 27.1 69.31C26.3196 68.9157 25.5815 68.4508 24.8444 67.9865C24.703 67.8975 24.5616 67.8085 24.42 67.72C23.5 67.14 22.54 66.66 21.54 66.23C21.1691 66.071 20.7992 65.9099 20.4304 65.7465C20.4943 65.6519 20.5568 65.5566 20.6193 65.4613L20.62 65.46C20.6289 65.4482 20.6368 65.4372 20.6444 65.4266L20.6603 65.4046L20.6758 65.383C20.6832 65.3726 20.6912 65.3617 20.6999 65.35C20.7146 65.3389 20.728 65.3293 20.7411 65.32L20.7764 65.2947L20.7919 65.2835L20.8101 65.27C20.9796 65.1571 21.1508 65.0488 21.3214 64.9409C21.7548 64.6668 22.1853 64.3944 22.58 64.05C22.848 63.8195 23.1047 63.5803 23.3607 63.3417L23.3622 63.3402L23.4977 63.2141C23.6733 63.0506 23.8497 62.8883 24.03 62.73C24.0666 62.6988 24.1033 62.668 24.1399 62.6374L24.2417 62.5526C24.2897 62.5126 24.3375 62.4728 24.385 62.4329C24.4645 62.366 24.5431 62.2988 24.62 62.23C24.9324 61.9514 25.2091 61.6299 25.4863 61.3079L25.5196 61.2692C25.541 61.2463 25.5625 61.2219 25.5839 61.1968C25.8445 60.9114 26.1122 60.6278 26.38 60.36C26.65 60.14 26.9199 59.94 27.21 59.74C28.4399 58.95 29.6299 58.1301 30.71 57.15C31.295 56.6118 31.8287 56.0186 32.3612 55.4269L32.3627 55.4254L32.3667 55.4208C32.7425 55.0034 33.1178 54.5864 33.51 54.19C34.4499 53.24 35.42 52.31 36.38 51.38C37.4209 50.3787 38.1965 49.1908 38.9795 47.9913L39 47.96C39.12 47.78 39.25 47.6101 39.39 47.44C39.8525 46.9322 40.356 46.4655 40.8634 45.9952L41.02 45.85C41.88 45.1 42.74 44.3601 43.61 43.63L43.85 43.42C43.908 43.3773 43.9651 43.333 44.0215 43.2874C44.0726 43.2459 44.1232 43.2034 44.1731 43.1603C44.3907 42.9724 44.5977 42.7722 44.8 42.59C44.8101 42.59 44.8199 42.58 44.8199 42.58C44.8699 42.53 44.9199 42.49 44.97 42.44C45.4299 42.02 45.9 41.58 46.3101 41.12C46.6901 40.69 47.0299 40.25 47.35 39.79C47.4976 39.8996 47.6433 40.0128 47.7873 40.1288C47.8423 40.173 47.897 40.2177 47.9513 40.2626C47.9879 40.2929 48.0244 40.3234 48.0608 40.354C48.1011 40.3879 48.1412 40.422 48.1813 40.4562C48.2445 40.5104 48.3074 40.565 48.37 40.62C49.08 41.3 49.76 42.01 50.42 42.73L50.4274 42.7382L50.6355 42.9681C50.944 43.3087 51.2537 43.6494 51.5699 43.99C51.6058 44.0287 51.6417 44.0678 51.6776 44.1072C51.7169 44.1503 51.7562 44.1937 51.7957 44.2373C52.3444 44.8433 52.9213 45.4803 53.73 45.7C54.33 45.8601 54.9999 45.69 55.4499 45.24C55.9199 44.76 56.0699 44.11 56.12 43.47C56.1608 42.8736 56.1415 42.2773 56.1222 41.6809V41.6772C56.1179 41.5448 56.1136 41.4124 56.11 41.28C56.0599 39.6101 55.92 37.95 55.77 36.29C55.74 35.56 55.73 34.83 55.74 34.1C55.748 33.5534 55.7819 33.0133 55.8157 32.4744C55.824 32.3429 55.8321 32.2115 55.84 32.08L55.844 32.0031C55.9126 30.6584 55.9817 29.3044 56.0699 27.96C56.1102 27.502 56.1559 27.0452 56.2015 26.5889C56.2804 25.7999 56.3592 25.0119 56.41 24.22V24.27C56.4401 23.8101 56.47 23.34 56.5 22.88V22.81C56.54 22.03 56.52 21.24 56.41 20.47C56.33 19.95 56.13 19.38 55.72 19.01C55.36 18.69 54.9299 18.45 54.47 18.33C53.6091 18.1084 52.6903 18.1992 51.806 18.2866C51.6528 18.3017 51.5006 18.3167 51.35 18.33C49.6666 18.4882 48.0007 18.7587 46.3361 19.0291L45.96 19.09C45.1327 19.2215 44.3055 19.3422 43.4791 19.4628C42.3574 19.6265 41.2371 19.79 40.12 19.98C38.1899 20.3 36.25 20.64 34.35 21.12C33.6136 21.3062 32.879 21.5068 32.1446 21.7073C31.1439 21.9805 30.1437 22.2535 29.14 22.49C29.0448 22.5073 28.9487 22.523 28.8525 22.5386C28.6154 22.5772 28.3777 22.616 28.15 22.68C27.24 22.95 26.65 23.92 26.92 24.86C27.18 25.77 27.99 26.12 28.83 26.32C29.0729 26.377 29.3185 26.4304 29.5649 26.484C30.1403 26.609 30.72 26.735 31.28 26.91L31.2862 26.9125C31.4541 26.9817 31.6219 27.0509 31.78 27.12C31.9711 27.2213 32.1589 27.3278 32.345 27.4374C32.5784 27.5748 32.8091 27.7169 33.04 27.859C33.2684 27.9996 33.4969 28.1403 33.7284 28.2767C33.8872 28.3703 34.0474 28.4619 34.21 28.55C34.3047 28.6009 34.3995 28.6516 34.4946 28.7023L34.5902 28.7533C35.1356 29.044 35.6827 29.3355 36.21 29.66C35.7999 30.06 35.39 30.45 34.98 30.86C34.3789 31.4611 33.7655 32.0458 33.1528 32.63C32.4098 33.3383 31.6678 34.0457 30.9499 34.78C30.7811 34.9514 30.6129 35.1227 30.4449 35.2938C29.9462 35.802 29.4486 36.3088 28.9399 36.81C28.6291 37.116 28.3115 37.4107 27.9904 37.7015C27.7819 37.8901 27.5718 38.0773 27.3616 38.265L27.3502 38.2748C27.2103 38.3995 27.0702 38.5244 26.93 38.65C25.5653 39.8621 24.2394 41.1154 22.9128 42.3693L22.9084 42.3735C21.5439 43.6632 20.1787 44.9535 18.77 46.2C17.4882 47.2601 16.1599 48.2367 14.7853 49.1833C13.7866 49.8553 12.7784 50.5176 11.78 51.18C11.2183 51.5506 10.68 51.9583 10.1418 52.3659L10.1382 52.3684L10.1331 52.3723C9.74487 52.6662 9.35681 52.9601 8.95996 53.24L8.81933 53.3276L8.81603 53.3298C8.62927 53.4462 8.44409 53.5617 8.25659 53.6722C8.12268 53.7512 7.98767 53.8276 7.84997 53.9C7.70898 53.9752 7.58398 54.0711 7.47595 54.1824Z"
    fill="rgba(191, 192, 191, 1)" />
  <path d="M17.522 63.7208C17.5187 63.7261 17.5162 63.73 17.51 63.73L17.522 63.7208Z" fill="rgba(191, 192, 191, 1)" />
  <path d="M17.5601 63.66C17.5571 63.666 17.5541 63.6711 17.5511 63.6758C17.5538 63.6694 17.5561 63.6639 17.5601 63.66Z"
    fill="rgba(191, 192, 191, 1)" />
  <path d="M17.5511 63.6758C17.5441 63.6869 17.5371 63.696 17.53 63.71C17.5422 63.6978 17.547 63.6857 17.5511 63.6758Z"
    fill="rgba(191, 192, 191, 1)" />
</svg>