<svg width="79" height="87" viewBox="0 0 79 87" fill="none" xmlns="http://www.w3.org/2000/svg">
  <path d="M50.27 24.39V24.42C50.2767 24.4133 50.2745 24.4067 50.2722 24.4C50.2711 24.3967 50.27 24.3934 50.27 24.39Z"
    fill="rgba(191, 192, 191, 1)" />
  <path fill-rule="evenodd" clip-rule="evenodd"
    d="M41.67 71.5401C41.84 71.8 42.01 72.05 42.26 72.25C42.58 72.5 42.99 72.62 43.36 72.64C44.26 72.64 44.98 71.94 45.21 71.1001C45.258 70.9158 45.3004 70.7288 45.3429 70.541L45.3444 70.5348L45.3449 70.5326C45.3871 70.3462 45.4296 70.1591 45.4775 69.9733C45.5116 69.8413 45.5485 69.71 45.59 69.58C45.6749 69.3058 45.764 69.0358 45.8547 68.7645L46 68.33C48.18 62.74 50.74 57.28 53.43 51.9201C53.86 51.06 54.29 50.21 54.72 49.35V49.36L54.7247 49.3552L54.7268 49.3528C54.728 49.3514 54.7287 49.3502 54.7292 49.3489C54.7296 49.3479 54.7297 49.3468 54.7299 49.3455L54.73 49.34C54.73 49.3333 54.7344 49.3222 54.7404 49.3096C54.74 49.313 54.74 49.3165 54.74 49.32C56.13 46.65 57.56 44 59.01 41.37C60.41 38.84 61.72 36.2601 63.01 33.6701C62.9991 33.6956 62.9881 33.7211 62.9767 33.7467L62.91 33.88C62.9354 33.8356 62.9568 33.7911 62.9767 33.7467C64.0653 31.5715 65.1728 29.406 66.29 27.25C66.8606 26.1535 67.4221 25.0528 67.9834 23.9523L67.9841 23.9508C69.1836 21.5995 70.3828 19.2489 71.67 16.94C72.259 15.877 72.894 14.8369 73.5282 13.7979C73.8306 13.3025 74.1329 12.8073 74.43 12.31C74.94 11.46 75.42 10.61 75.9 9.75001C76.29 9.03004 76.68 8.32005 77.13 7.64003C77.1784 7.57475 77.2264 7.50947 77.2743 7.44429L77.2765 7.44127L77.2789 7.43806L77.2813 7.43468C77.4586 7.19365 77.6352 6.95375 77.83 6.72001L77.89 6.66002C77.8876 6.66002 77.8851 6.66063 77.8827 6.66166L77.8816 6.66218C77.8801 6.66292 77.8785 6.66383 77.877 6.6649L77.8723 6.6685C77.8699 6.67042 77.8676 6.67259 77.8653 6.67485L77.86 6.68001C78.51 6.04002 78.66 5.04002 78.08 4.29002C78.0742 4.28123 78.0683 4.27244 78.0622 4.26365L78.0527 4.2502L78.0453 4.24049C78.035 4.227 78.0235 4.21351 78.01 4.20003C78.17 4.05003 78.29 3.87004 78.37 3.66002C78.4 3.61003 78.44 3.55003 78.47 3.50001C79.17 2.35002 78.26 0.840009 76.94 0.840009C76.2858 0.830824 75.7759 1.10182 75.2538 1.44957C75.2728 1.4358 75.2914 1.42244 75.31 1.41002C73.4736 2.60249 71.5991 3.73802 69.7269 4.87208L69.7216 4.87529L69.7207 4.87587L69.7198 4.87651L69.7167 4.87843L69.7094 4.88292L69.7084 4.88347L69.6899 4.89473L69.6716 4.90581L69.6535 4.9167C69.1953 5.19426 68.7373 5.47175 68.28 5.75001C65.82 7.25001 63.35 8.75001 60.88 10.24C57.4396 12.3103 53.9867 14.3555 50.5338 16.4007C47.0817 18.4455 43.6296 20.4902 40.19 22.56C37.07 24.44 33.94 26.32 30.8 28.19C29.97 28.68 29.14 29.1701 28.32 29.6701C28.0507 29.8329 27.7795 29.993 27.5085 30.1532L27.5072 30.1539C26.863 30.5345 26.2191 30.9149 25.6 31.33C25.3879 31.4714 25.1759 31.6121 24.9639 31.7525C24.7551 31.8908 24.5463 32.0287 24.3375 32.1667L23.9471 32.4247C23.6581 32.6158 23.3691 32.8073 23.08 33C22.5602 33.3486 22.0485 33.7174 21.5372 34.0858C21.2418 34.2986 20.9466 34.5113 20.65 34.72C19.822 35.3145 19.0139 35.9344 18.2059 36.5541L18.1967 36.561C17.4854 37.1065 16.7742 37.652 16.05 38.18C15.3297 38.7089 14.601 39.2253 13.8726 39.7415L13.8702 39.7431C13.0017 40.3587 12.1335 40.974 11.28 41.61C9.99689 42.5612 8.7378 43.5768 7.48847 44.5845L7.06 44.93C6.33002 45.52 5.61005 46.12 4.90003 46.7301C4.58002 46.99 4.27002 47.26 3.95002 47.53L3.86994 47.5966C3.41864 47.971 2.99115 48.3257 2.84003 48.93C2.69007 49.54 2.84003 50.19 3.29999 50.65C3.70002 51.06 4.22998 51.19 4.78998 51.15C5.44678 51.1052 6.09796 50.8432 6.73108 50.5885C6.94605 50.502 7.15967 50.4161 7.37 50.34C7.98999 50.12 8.59998 49.9 9.21997 49.68L9.508 49.5886C11.2721 49.0285 13.0382 48.4678 14.84 48.06C16.83 47.61 18.81 47.16 20.79 46.7C22.0364 46.4134 23.274 46.0913 24.5115 45.7691L24.5178 45.7674C25.1348 45.6068 25.7518 45.4462 26.37 45.2901C29.9987 44.3604 33.6575 43.5506 37.3162 42.7408L37.32 42.74L37.7023 42.6624C37.2869 43.0883 36.8701 43.5142 36.45 43.94C36.092 44.3063 35.7332 44.671 35.3747 45.0354L35.3707 45.0395C34.4088 46.0172 33.4488 46.993 32.51 47.99C30.8037 49.7933 29.2769 51.7387 27.749 53.6857L27.7473 53.6879C26.9127 54.7513 26.0779 55.8149 25.213 56.8564L24.9093 57.2016L24.9075 57.2037C24.2087 57.9989 23.5048 58.7999 22.74 59.5401C21.8892 60.3719 21.0146 61.1799 20.1387 61.9892L19.501 62.579C19.3034 62.7622 19.1061 62.9456 18.9092 63.1298C18.806 63.2264 18.7029 63.3231 18.6 63.4201C17.15 64.78 15.73 66.1701 14.35 67.6001C13.08 68.93 11.84 70.31 10.73 71.77C10.3251 72.3024 9.9372 72.8445 9.54956 73.3859L9.54718 73.3895C8.90186 74.2912 8.25794 75.191 7.53998 76.0401C7.1568 76.4424 6.75519 76.8356 6.34412 77.2196C6.12464 77.4073 5.90241 77.5933 5.67981 77.7796L5.67176 77.7863C4.82526 78.4947 3.97382 79.2072 3.25 80.03C2.99427 80.3265 2.75202 80.633 2.50952 80.9399L2.50861 80.9411C2.33423 81.1618 2.15973 81.3827 1.97998 81.6001C1.62 82.03 1.26001 82.46 0.890018 82.8801L0.799991 82.97C0.0600009 83.5701 -0.070004 84.68 0.510013 85.43C0.85004 85.88 1.38001 86.11 1.94001 86.11C2.31 86.11 2.69001 86 3.01001 85.75C3.31458 85.5131 3.56195 85.2189 3.80652 84.9281L3.81055 84.9233C3.8537 84.872 3.89673 84.8208 3.94001 84.77L4.59998 83.99C4.68299 83.8904 4.76496 83.7901 4.84638 83.6894C4.9101 83.6106 4.97351 83.5314 5.03675 83.4522L5.2027 83.2437L5.20563 83.2399C5.34003 83.0709 5.47461 82.9017 5.61145 82.7335C5.71601 82.6049 5.8219 82.4769 5.93 82.3501C6.1294 82.1347 6.3415 81.9321 6.55616 81.727C6.61066 81.6749 6.66529 81.6227 6.71997 81.5701C6.94941 81.3699 7.18055 81.1709 7.41181 80.9719C8.76343 79.8087 10.1212 78.6402 11.18 77.18C11.4766 76.7739 11.767 76.3658 12.0568 75.9584C12.2209 75.7276 12.3848 75.4971 12.5496 75.2674C12.6392 75.1426 12.7291 75.0179 12.8193 74.8936L12.8762 74.8153L12.9331 74.7373C12.9885 74.6614 13.0441 74.5856 13.1 74.5101C13.68 73.72 14.31 72.96 14.94 72.2001C16.24 70.74 17.57 69.31 18.98 67.9501C20.37 66.6001 21.8 65.28 23.23 63.96C24.65 62.65 26 61.29 27.29 59.84C28.62 58.34 29.85 56.78 31.07 55.19C32.16 53.78 33.29 52.41 34.47 51.06L34.4647 51.063C35.8035 49.6361 37.1619 48.248 38.53 46.86C38.9401 46.4468 39.3452 46.0267 39.7506 45.6061C40.6305 44.6934 41.5121 43.7789 42.45 42.93C42.4634 42.9166 42.4769 42.9035 42.4904 42.8908C42.4979 42.8837 42.5055 42.8767 42.5131 42.8698L42.5272 42.8572L42.5366 42.8491C42.5789 42.8126 42.6227 42.7796 42.67 42.75C42.68 42.75 42.69 42.74 42.69 42.74C42.8312 42.6719 42.9605 42.5878 43.0762 42.4909C42.9362 43.8801 42.6935 45.2649 42.4512 46.6484C42.3372 47.2992 42.2232 47.9496 42.12 48.6C41.89 50.07 41.73 51.55 41.58 53.03C41.4683 54.1445 41.3496 55.259 41.2308 56.3738L41.2296 56.3863L41.2274 56.4105C40.9435 59.0744 40.6595 61.7397 40.47 64.41L40.4605 64.5491C40.3832 65.6742 40.3048 66.816 40.42 67.93C40.56 69.2 40.97 70.46 41.67 71.5401ZM25.36 56.69C25.311 56.739 25.262 56.7976 25.213 56.8564L25.36 56.69ZM46.38 40.27C46.19 39.81 45.95 39.41 45.58 39.06C45.4736 38.957 45.3611 38.8667 45.2438 38.788C45.1876 38.4271 45.1325 38.0661 45.0773 37.7052L45.077 37.7027C44.8917 36.4889 44.7064 35.2757 44.48 34.07C44.27 32.93 44.04 31.7901 43.79 30.66C43.6909 30.2187 43.5857 29.7814 43.4808 29.3454L43.4796 29.3401C43.3521 28.8098 43.225 28.2814 43.11 27.75C43.08 27.5701 43.05 27.39 43.03 27.21C43.03 27.19 43.0275 27.17 43.025 27.15C43.0234 27.137 43.0217 27.124 43.0208 27.111C43.0203 27.104 43.02 27.097 43.02 27.09C42.9393 26.4518 42.525 25.9051 41.9507 25.6591C43.526 24.7144 45.1027 23.7715 46.6806 22.8302C46.6778 23.4035 46.7066 23.9775 46.74 24.5401C46.82 25.88 47 27.22 47.24 28.5401C47.2587 28.6428 47.2776 28.7456 47.2966 28.8483L47.421 29.5199L47.4222 29.5268C47.5544 30.2387 47.6869 30.952 47.81 31.6701C48.01 32.8301 48.19 33.97 48.33 35.13C48.4311 35.9643 48.4966 36.7985 48.5626 37.6387L48.5629 37.6413C48.5752 37.7973 48.5875 37.9536 48.6 38.11C48.6086 38.2614 48.6169 38.413 48.6252 38.5649C48.6652 39.2959 48.7055 40.0314 48.78 40.7601C48.88 41.6797 49 42.5893 49.12 43.4989V43.5C49.23 44.35 49.41 45.2001 49.61 46.0401C49.67 46.2901 49.74 46.535 49.81 46.78C49.8301 46.8506 49.8503 46.9211 49.8702 46.9917C49.8911 47.0658 49.9117 47.14 49.9318 47.2144C49.9591 47.3157 49.9854 47.4174 50.01 47.52L50.04 47.7901C50.0458 47.9192 50.0552 48.0449 50.066 48.1712C50.0721 48.2427 50.0786 48.3145 50.0853 48.3872L50.09 48.44C50.1309 48.8894 50.3724 49.2787 50.7069 49.5482L50.6538 49.6542C50.5441 49.8726 50.4343 50.0916 50.3244 50.3111C48.7065 53.5375 47.1683 56.7938 45.69 60.08C45.14 61.3 44.6 62.54 44.07 63.77C44.1967 62.2237 44.3588 60.6863 44.521 59.1489C44.6022 58.3797 44.6833 57.6104 44.76 56.84L44.8702 55.737C45.1195 53.2293 45.3675 50.7359 45.76 48.25C45.91 47.28 46.08 46.32 46.25 45.36C46.35 44.82 46.44 44.28 46.51 43.74C46.5239 43.6156 46.5392 43.49 46.5548 43.3636C46.6176 42.8504 46.6821 42.3233 46.65 41.81L46.6431 41.719C46.606 41.2284 46.5684 40.7315 46.38 40.27ZM53.0027 45.0573C53.7271 43.695 54.4708 42.343 55.2146 40.9909C56.0927 39.3945 56.9712 37.7974 57.8175 36.1842C57.6362 36.1492 57.463 36.0831 57.3 35.99C56.89 35.75 56.64 35.38 56.48 34.93C56.2399 34.23 56 33.52 55.81 32.8C55.6 32.01 55.42 31.21 55.25 30.41C54.9899 29.2433 54.7629 28.0655 54.5363 26.889L54.5352 26.8832C54.4572 26.4785 54.3792 26.074 54.3 25.6701C54.205 25.2451 54.11 24.8226 54.015 24.4C53.92 23.9775 53.825 23.555 53.73 23.13C53.6235 22.6576 53.4904 22.1939 53.3574 21.7303L53.3566 21.7279C53.29 21.4956 53.2233 21.2634 53.16 21.03C53.07 20.78 52.96 20.52 52.89 20.25C52.7815 19.9078 52.7078 19.5725 52.7562 19.2151L51.6527 19.8704C51.1938 20.1431 50.7349 20.4158 50.2762 20.6886C50.3565 20.9323 50.3803 21.195 50.33 21.46C50.33 21.4838 50.3237 21.5013 50.3162 21.5224L50.31 21.5401C50.2999 21.6074 50.2909 21.6759 50.2827 21.7447C50.2756 21.8045 50.269 21.8645 50.2628 21.9244C50.2548 22.0003 50.2474 22.0758 50.24 22.15C50.2 22.88 50.22 23.61 50.26 24.33V24.4201C50.3877 26.1347 50.6983 27.8245 51.01 29.5196L51.1 30.0101C51.3 31.0801 51.48 32.1501 51.65 33.2301C51.7177 33.6261 51.7573 34.0222 51.796 34.4093L51.7961 34.4114L51.8 34.4501C51.8093 34.5371 51.8196 34.6245 51.8304 34.7121C51.8413 34.8 51.8526 34.8882 51.864 34.9765C51.8798 35.0983 51.8955 35.2204 51.9099 35.3423C51.9138 35.3754 51.9177 35.4085 51.9213 35.4416C51.9269 35.4914 51.9321 35.5412 51.937 35.591C51.9403 35.6246 51.9434 35.6581 51.9464 35.6916C51.9516 35.7512 51.9562 35.8107 51.96 35.87C52.0206 36.6515 52.0722 37.4284 52.1238 38.207L52.1255 38.231C52.15 38.6001 52.1744 38.9696 52.2 39.34V39.33C52.34 41.04 52.53 42.75 52.86 44.44C52.9061 44.6459 52.9536 44.8519 53.0027 45.0573ZM59.5266 32.8065C60.8076 30.2643 62.0998 27.7273 63.4069 25.1954C62.866 25.0079 62.4375 24.5574 62.24 23.9801C61.7661 22.588 61.4481 21.1471 61.1321 19.7153L61.1319 19.7142L61.12 19.66C60.96 18.93 60.81 18.2001 60.64 17.4801L60.638 17.4715C60.5286 17.0044 60.4193 16.5372 60.3 16.0701C60.2657 15.9302 60.2251 15.791 60.1845 15.6518L60.1841 15.6507C60.1131 15.407 60.0421 15.1632 60.0045 14.9153C59.1437 15.4292 58.2822 15.9409 57.42 16.45C56.7095 16.8708 55.9991 17.2916 55.2889 17.7127C55.9524 18.0108 56.3795 18.7303 56.35 19.44L56.3691 19.4975L56.3971 19.5809C56.442 19.7139 56.4882 19.847 56.54 19.98C56.5599 20.03 56.57 20.08 56.58 20.14C56.6 20.22 56.63 20.31 56.65 20.39C56.748 20.7574 56.8526 21.1181 56.9585 21.4831L57.03 21.7301C57.1423 22.1299 57.2299 22.5347 57.317 22.9375C57.3541 23.1089 57.3912 23.2799 57.43 23.45C57.57 24.0701 57.71 24.68 57.84 25.31C57.9777 25.9935 58.1154 26.6795 58.2531 27.3655L58.2619 27.4094C58.4012 28.1037 58.5406 28.7981 58.68 29.49C58.84 30.23 59 30.96 59.2 31.69C59.2584 31.9042 59.3192 32.1176 59.382 32.3302C59.429 32.4895 59.4772 32.6482 59.5266 32.8065ZM66.0441 11.2717C65.0156 11.8978 63.9854 12.5225 62.9536 13.145C63.437 13.5291 63.7148 14.118 63.62 14.7601C63.9361 15.8998 64.183 17.0586 64.4299 18.217L64.4301 18.2181L64.4304 18.2199C64.675 19.368 64.9196 20.5157 65.2314 21.644L65.347 21.4166C66.3357 19.473 67.3234 17.5313 68.3818 15.6255C67.6408 15.5722 66.9412 15.0739 66.76 14.33C66.65 13.88 66.55 13.44 66.44 13C66.4019 12.8477 66.3604 12.6945 66.3187 12.5407C66.2181 12.1695 66.1166 11.7948 66.06 11.4201C66.0524 11.3706 66.0471 11.3211 66.0441 11.2717ZM68.6956 9.65343C68.8909 9.76576 69.0667 9.91578 69.21 10.1C69.27 10.19 69.33 10.27 69.39 10.36C69.57 10.62 69.71 10.88 69.75 11.2001C69.77 11.36 69.77 11.52 69.75 11.6701C69.8121 11.9227 69.8761 12.1754 69.9403 12.4289C69.9707 12.5489 70.0011 12.669 70.0314 12.7894C70.1832 12.5375 70.3353 12.2858 70.4874 12.0341C71.194 10.8649 71.901 9.69514 72.57 8.50001C72.6811 8.30073 72.79 8.10039 72.899 7.90001L72.9059 7.88719C73.0314 7.65635 73.1568 7.42552 73.2855 7.19627C73.3846 7.01967 73.4857 6.84401 73.59 6.67003C73.27 6.87004 72.94 7.07002 72.61 7.27C71.3037 8.06447 69.9974 8.85896 68.6956 9.65343ZM41.558 38.0629L41.613 38.4163C41.4445 38.4356 41.2767 38.4567 41.11 38.4801C40.18 38.61 39.2501 38.75 38.34 38.94C37.793 39.0502 37.2462 39.163 36.6996 39.278C37.0001 38.8554 37.1229 38.3065 36.97 37.78C36.8507 37.3623 36.7512 36.9346 36.6517 36.507L36.65 36.5C36.59 36.12 36.54 35.74 36.5 35.35C36.42 33.81 36.4901 32.25 36.58 30.71C36.6 30.5 36.63 30.29 36.63 30.09C36.63 29.7079 36.5043 29.3521 36.2932 29.0613C36.4871 28.9452 36.6808 28.829 36.8745 28.7127C37.0697 28.5953 37.2649 28.4778 37.46 28.36C38.1413 27.949 38.8229 27.5384 39.5048 27.1282C39.5005 27.1816 39.4988 27.2356 39.5 27.2901C39.5229 28.145 39.7498 29.0116 39.9715 29.8587C40.0402 30.1213 40.1085 30.3821 40.17 30.6401C40.35 31.4001 40.51 32.1701 40.68 32.94C40.92 34.2301 41.15 35.5201 41.36 36.82C41.4074 37.109 41.4536 37.3985 41.4993 37.6883L41.558 38.0629ZM33.0244 31.0061C32.9937 31.5698 32.9774 32.1336 32.9612 32.6973L32.961 32.7045L32.95 33.08L32.9459 33.2773C32.9266 34.1915 32.9074 35.1058 33.01 36.02C33.1101 36.94 33.31 37.84 33.56 38.72C33.6965 39.1769 34.002 39.5493 34.3908 39.7766C31.7936 40.3508 29.2024 40.966 26.62 41.59C25.2994 41.9041 23.9789 42.2437 22.6583 42.5832C22.1289 42.7194 21.5995 42.8555 21.07 42.99C19.5642 43.3772 18.0508 43.72 16.5366 44.0631L16.5313 44.0643C16.2875 44.1195 16.0438 44.1747 15.8 44.2301C14.79 44.46 13.78 44.69 12.78 44.94C13.8001 44.17 14.82 43.41 15.86 42.68C17.44 41.55 19.01 40.42 20.55 39.25C22.03 38.12 23.53 37.03 25.05 35.95L25.0515 35.949L25.5894 35.5868C25.5404 36.2122 25.5968 36.8426 25.71 37.4801L25.7122 37.4926L25.7128 37.4956C25.8218 38.1304 25.9309 38.7652 26.03 39.4C26.16 40.27 26.92 40.93 27.77 40.93C27.85 40.93 27.93 40.9201 28.01 40.91C28.96 40.78 29.67 39.8701 29.53 38.9201C29.4976 38.7069 29.4614 38.4936 29.4238 38.2803L29.4053 38.1759L29.3836 38.0547L29.358 37.9125L29.3579 37.9113C29.2526 37.3265 29.1471 36.7403 29.09 36.15V35.93C29.1 35.85 29.11 35.78 29.12 35.71C29.1382 35.6373 29.1564 35.5728 29.1746 35.5091C29.1666 35.5341 29.1561 35.559 29.1477 35.584C29.275 35.1627 29.2932 34.7413 29.11 34.32C29.0051 34.061 28.8317 33.8323 28.6157 33.6529C29.3345 33.2126 30.0547 32.7738 30.78 32.34C31.3203 32.0178 31.8606 31.6967 32.4008 31.3761L33.0244 31.0061ZM29.14 35.6091C29.1306 35.6394 29.1205 35.6698 29.11 35.7001V35.71C29.12 35.68 29.13 35.6491 29.14 35.6091Z"
    fill="rgba(191, 192, 191, 1)" />
</svg>