<svg width="84" height="62" viewBox="0 0 84 62" fill="none" xmlns="http://www.w3.org/2000/svg">
  <path d="M25.244 27.8098C25.2775 27.834 25.3123 27.8585 25.35 27.88C25.3147 27.8576 25.2793 27.834 25.244 27.8098Z"
    fill="rgba(191, 192, 191, 1)" />
  <path
    d="M7.24442 30.524C7.22714 30.5124 7.20938 30.5011 7.19092 30.4905C7.19067 30.4904 7.19116 30.4907 7.19092 30.4905C7.20844 30.5015 7.22687 30.5131 7.24442 30.524Z"
    fill="rgba(191, 192, 191, 1)" />
  <path fill-rule="evenodd" clip-rule="evenodd"
    d="M39.6264 55.5597C39.9838 56.0178 40.3462 56.4822 40.8 56.84C41.3 57.25 42 57.4901 42.69 57.39C42.8 57.39 42.9001 57.39 43.01 57.37C45.0011 57.1264 44.9454 55.0335 44.9004 53.3447C44.8918 53.0233 44.8836 52.7166 44.89 52.44C44.92 52.19 44.95 51.95 44.99 51.7C45.05 51.4601 45.12 51.22 45.19 50.97C45.42 50.35 45.7 49.75 45.99 49.14C46.2443 48.6233 46.4447 48.0864 46.6465 47.5458C46.6908 47.4273 46.7351 47.3087 46.78 47.19C46.9175 46.8119 47.078 46.4403 47.2389 46.0678C47.3588 45.7902 47.479 45.5119 47.59 45.23C47.8005 44.7038 47.9783 44.1644 48.1551 43.6277C48.1967 43.5016 48.2382 43.3756 48.28 43.25C48.2782 43.2519 48.2767 43.2541 48.2754 43.2565C48.3058 43.1706 48.3362 43.0849 48.3666 42.9994C48.6318 42.2531 48.8937 41.516 49.07 40.74C49.19 40.2068 49.2922 39.6737 49.3943 39.1405C49.4455 38.8737 49.4966 38.6068 49.55 38.34C49.6808 37.7545 49.8504 37.1806 50.0202 36.6063C50.123 36.2586 50.2258 35.9107 50.32 35.56C50.3807 35.3325 50.4356 35.1006 50.4908 34.8677C50.5811 34.4865 50.6721 34.1025 50.79 33.73C50.89 33.45 51.03 33.18 51.15 32.91C51.2334 32.7265 51.279 32.5347 51.291 32.3428C51.4874 32.3922 51.6839 32.4511 51.89 32.51C52.0601 32.57 52.23 32.64 52.4 32.72C52.48 32.7701 52.56 32.81 52.63 32.86C52.68 32.9 52.7401 32.95 52.79 32.99C52.8263 33.0223 52.8593 33.0545 52.8911 33.0874C52.9381 33.1361 52.9823 33.1863 53.03 33.24V33.25C53 33.22 52.98 33.19 52.95 33.16C53 33.22 53.05 33.29 53.1 33.36L53.49 34.05C53.7152 34.5028 53.9372 34.9568 54.1591 35.4106C54.8241 36.7706 55.4877 38.1278 56.23 39.44C56.6474 40.1784 57.076 40.9072 57.5043 41.6353C58.1432 42.7216 58.7813 43.8065 59.38 44.92C59.89 45.98 60.39 47.03 60.82 48.12C61.0299 48.6424 61.2297 49.1688 61.4294 49.6947C61.677 50.3467 61.9243 50.998 62.19 51.64C62.67 52.79 63.2 53.92 63.93 54.93C64.4 55.59 64.93 56.2 65.47 56.82C65.5537 56.9146 65.6375 57.0092 65.7212 57.104C66.258 57.7112 66.7978 58.3218 67.36 58.91C67.63 59.2 67.9 59.4901 68.19 59.75C68.53 60.05 68.88 60.39 69.28 60.61C69.7 60.84 70.13 61.0301 70.61 61.04C70.6199 61.04 70.6297 61.04 70.6396 61.0407C70.6597 61.0422 70.6799 61.0466 70.7 61.06C71.0901 61.06 71.52 60.9901 71.84 60.78C72.46 60.38 72.89 59.8101 73.28 59.2C73.87 58.29 74.3 57.31 74.51 56.25C74.6502 55.5272 74.7577 54.788 74.8646 54.0526C74.9027 53.7909 74.9407 53.5298 74.98 53.27C75.0951 52.4559 75.218 51.6495 75.3417 50.8371L75.39 50.52C75.67 48.68 75.97 46.85 76.33 45.02C76.34 44.99 76.35 44.95 76.36 44.91C76.81 42.9901 77.29 41.09 77.81 39.19L77.8135 39.1776C78.3423 37.2817 78.8712 35.3859 79.39 33.49C80.2035 30.4888 80.78 27.4315 81.3559 24.3771C81.5092 23.5642 81.6624 22.7514 81.82 21.94C82.19 20.03 82.51 18.1201 82.8 16.19C83.08 14.32 83.23 12.44 83.37 10.56C83.46 9.45004 83.51 8.32004 83.46 7.21002C83.41 6.09003 83.3 4.94003 82.89 3.88004C82.5201 2.91003 81.91 1.91007 80.97 1.39005C80.1 0.920045 79.17 0.770051 78.19 0.890046C76.64 1.09006 75.1 1.56003 73.62 2.09003C73.4441 2.15286 73.2677 2.2157 73.0911 2.27863C72.4244 2.51614 71.7541 2.75498 71.09 3.00003C67.49 4.33005 63.91 5.69003 60.35 7.12003L60.3466 7.1214C59.6844 7.38702 59.0222 7.65265 58.3598 7.91797C58.3519 6.9415 58.4169 5.94888 58.4811 4.9697L58.5 4.68002V4.71002C58.5 4.69501 58.5025 4.68002 58.505 4.66504C58.5075 4.65002 58.51 4.63501 58.51 4.62003V4.58002C58.54 4.16 58.57 3.73004 58.6 3.31003C58.6093 3.08722 58.6272 2.87299 58.6457 2.65143L58.65 2.60004C58.68 2.18002 58.67 1.80005 58.58 1.39005C58.48 0.880036 58.07 0.53003 57.66 0.260041C57.25 -0.00994803 56.75 3.12142e-05 56.29 0.0700385C55.8654 0.134125 55.4472 0.3266 55.0406 0.513703C54.9397 0.560151 54.8394 0.606263 54.74 0.650025C53.08 1.39002 51.42 2.10004 49.76 2.81003C46.1501 4.36002 42.54 5.86005 38.85 7.20004C37.1214 7.83743 35.4393 8.56809 33.7499 9.30194L33.57 9.38004C32.2397 9.96011 30.8974 10.5163 29.557 11.0717C29.1644 11.2343 28.772 11.3969 28.38 11.56C26.62 12.29 24.87 13.05 23.16 13.88C21.8754 14.5104 20.6353 15.2299 19.3991 15.9471C19.086 16.1287 18.7732 16.3102 18.46 16.49C17.65 16.96 16.85 17.43 16.03 17.87C15.7944 17.995 15.5587 18.1183 15.3235 18.2414C14.7303 18.5518 14.14 18.8607 13.56 19.19C13.0931 19.456 12.6331 19.736 12.174 20.0154C11.8563 20.2088 11.539 20.4019 11.22 20.59C10.44 21.04 9.65002 21.47 8.85004 21.88C8.43442 22.0829 8.01105 22.2757 7.58694 22.4689C6.7355 22.8568 5.88104 23.2461 5.08002 23.72C3.87003 24.44 2.72003 25.26 1.80002 26.34C1.49002 26.71 1.17001 27.1 0.930023 27.52C0.730011 27.87 0.590027 28.23 0.590027 28.64C0.590027 29.33 0.990021 29.91 1.44003 30.41C2.44003 31.52 3.67001 32.43 4.90002 33.27C8.06003 35.42 11.76 36.65 15.49 37.38C17.2157 37.7177 18.9502 37.9409 20.6934 38.1654L21.04 38.21C21.4239 38.2594 21.8083 38.3068 22.1928 38.3542C23.5212 38.5179 24.8517 38.6819 26.17 38.93C26.5201 39.01 26.88 39.0901 27.22 39.2C27.3278 39.2396 27.433 39.2829 27.5374 39.326C27.7238 39.4029 27.9078 39.4788 28.1 39.53C28.3807 39.6075 28.6707 39.6474 28.952 39.6862L28.98 39.69C29.1643 39.9895 29.3221 40.2989 29.48 40.6087C29.5964 40.8369 29.7128 41.0652 29.84 41.29C30.12 41.79 30.41 42.28 30.71 42.76C31.1092 43.406 31.5453 44.0309 31.98 44.6538C32.1442 44.8892 32.3083 45.1242 32.47 45.36C32.74 45.78 33.01 46.21 33.28 46.65C33.4653 46.9536 33.6412 47.2617 33.817 47.5697C34.0872 48.043 34.3571 48.5157 34.66 48.97C35.0488 49.5532 35.4686 50.1155 35.8897 50.6796C36.0536 50.899 36.2176 51.1187 36.38 51.34C37.39 52.7 38.42 54.04 39.47 55.36C39.5222 55.4262 39.5742 55.4929 39.6264 55.5597ZM54.8935 9.30121C54.8923 9.29416 54.8912 9.28708 54.89 9.28003C54.8024 8.69296 54.8223 8.09055 54.842 7.49298C54.8448 7.40854 54.8476 7.32419 54.85 7.24002C54.87 6.66003 54.89 6.09003 54.92 5.51004C54.94 5.14005 54.96 4.77002 54.99 4.40002C54.8 4.48001 54.62 4.56006 54.43 4.64005C53.51 5.04004 52.58 5.44003 51.66 5.84003L51.6587 5.84067C49.9291 6.59045 48.1996 7.34021 46.45 8.05002C44.6501 8.79001 42.84 9.49005 41.02 10.17C40.724 10.281 40.4266 10.3879 40.1294 10.4948C39.6234 10.6767 39.1177 10.8584 38.62 11.06C37.77 11.41 36.92 11.7701 36.08 12.14C34.7152 12.7356 33.3404 13.3073 31.9662 13.8787C29.4638 14.9192 26.9636 15.9588 24.53 17.14C23.13 17.8701 21.77 18.65 20.41 19.44C19.01 20.25 17.59 21.02 16.16 21.78C15.4042 22.1817 14.6735 22.6253 13.9443 23.068C13.2939 23.4629 12.6448 23.857 11.98 24.22C11.0045 24.7473 10.0072 25.2182 9.00827 25.6898C8.4917 25.9337 7.9747 26.1778 7.46002 26.43C6.9903 26.6899 6.54059 26.9697 6.09085 27.2496C5.77084 27.4796 5.45004 27.72 5.13004 27.97C4.95004 28.13 4.78003 28.31 4.62003 28.49L4.60004 28.51C4.61533 28.5223 4.6297 28.5355 4.64371 28.549C4.67545 28.5797 4.70532 28.6123 4.74002 28.64C5.52173 29.3008 6.34677 29.9095 7.19092 30.4905C7.25363 30.5337 7.31714 30.5772 7.38004 30.62C7.33615 30.5908 7.29224 30.5561 7.24442 30.524C7.81693 30.8803 8.39871 31.1998 8.99002 31.51C9.94003 31.9601 10.89 32.38 11.87 32.74C13.26 33.18 14.68 33.54 16.11 33.85C18.0697 34.2282 20.0515 34.4734 22.0365 34.719C22.361 34.7591 22.6855 34.7993 23.01 34.84C24.1501 34.98 25.29 35.13 26.42 35.32L26.4689 35.3293C27.0331 35.4362 27.6057 35.5448 28.15 35.71C28.4116 35.7972 28.6579 35.8996 28.9089 36.0039L29.02 36.05C29.1321 36.0687 29.2464 36.0852 29.3615 36.1018C29.7391 36.1563 30.1251 36.2121 30.47 36.35C31.5221 36.7768 32.0422 37.7651 32.5388 38.7088L32.55 38.73C33.08 39.75 33.65 40.71 34.28 41.66C34.3786 41.8025 34.4777 41.9449 34.5769 42.0875C35.1115 42.8559 35.6492 43.6287 36.13 44.43C36.3267 44.7578 36.5186 45.0891 36.7106 45.4206C37.0752 46.0502 37.4405 46.6809 37.84 47.29C38.69 48.47 39.56 49.63 40.45 50.78C40.76 51.18 41.07 51.58 41.38 51.99C41.38 51.96 41.38 51.94 41.39 51.92C41.51 50.7701 41.86 49.69 42.33 48.63C42.4329 48.3957 42.5456 48.1678 42.6588 47.9391C42.7436 47.7676 42.8286 47.5957 42.91 47.42C43.12 46.95 43.29 46.47 43.46 45.98C43.625 45.535 43.81 45.0975 43.995 44.66C44.1801 44.2225 44.3651 43.785 44.53 43.34C44.79 42.54 45.06 41.76 45.34 40.96C45.3219 41.0022 45.3075 41.0444 45.2923 41.0888C45.2823 41.1181 45.2719 41.1483 45.26 41.18C45.47 40.54 45.64 39.88 45.78 39.22C45.831 38.9651 45.8785 38.7091 45.9261 38.4527C46.0185 37.9546 46.1112 37.4551 46.23 36.96C46.3362 36.5301 46.4649 36.1058 46.5937 35.6812C46.7076 35.3058 46.8215 34.9301 46.92 34.55C46.9818 34.3223 47.0361 34.0916 47.0904 33.8609C47.1768 33.4937 47.2634 33.1262 47.38 32.77C47.4162 32.659 47.455 32.5506 47.496 32.4437C46.889 32.4981 46.2808 32.5401 45.67 32.55C44.6888 32.573 43.6957 32.4843 42.7134 32.3967C42.4144 32.37 42.1164 32.3434 41.82 32.32C40.92 32.25 40.02 32.17 39.12 32.08C38.18 31.99 37.2401 31.8 36.32 31.6C35.7957 31.4865 35.2698 31.3788 34.7438 31.2711C33.4641 31.0092 32.1845 30.7473 30.93 30.4C30.03 30.15 29.14 29.88 28.3 29.47C28.0979 29.3714 27.894 29.2756 27.6901 29.1798C27.0465 28.8775 26.4023 28.5749 25.81 28.18C25.6999 28.11 25.5923 28.0374 25.4847 27.9648C25.3773 27.8924 25.2699 27.82 25.16 27.75C25.1877 27.7685 25.2153 27.7891 25.244 27.8098C25.1693 27.7586 25.0947 27.7044 25.02 27.65C24.6 27.38 24.17 27.1 23.82 26.75C23.43 26.36 23.14 25.92 22.99 25.38C22.84 24.83 22.9 24.2801 23.06 23.76C22.85 23.4701 22.72 23.1201 22.72 22.73C22.72 21.7701 23.53 20.96 24.49 20.96C24.5797 20.96 24.6603 20.96 24.74 20.95C24.9164 20.9324 25.0851 20.907 25.2596 20.8806L25.33 20.87C25.87 20.74 26.41 20.58 26.94 20.41C28.6168 19.8224 30.2628 19.1365 31.9022 18.4535C32.3551 18.2647 32.8076 18.0762 33.26 17.89C34.87 17.2201 36.47 16.56 38.09 15.91C41.9 14.3701 45.72 12.8701 49.56 11.39C51.3419 10.7039 53.119 10.0057 54.8935 9.30121ZM48.2694 43.2734C48.2663 43.2823 48.2632 43.2912 48.26 43.3C48.2646 43.2908 48.2671 43.2816 48.2694 43.2734ZM56.06 31.44C55.54 30.64 54.84 30.03 54 29.58C52.8 28.94 51.4 28.69 49.99 28.69C49.59 28.69 49.2 28.7101 48.81 28.75C48.6514 28.7668 48.4924 28.784 48.3332 28.8011C47.6394 28.876 46.9414 28.9512 46.25 29C46.2899 28.9951 46.3299 28.9926 46.3698 28.9901C46.4099 28.9875 46.45 28.985 46.49 28.98C45.81 29.0301 45.13 29.02 44.45 28.99C44.29 28.9785 44.1299 28.967 43.9697 28.9555C41.7787 28.7983 39.582 28.6407 37.42 28.24C37.0611 28.165 36.702 28.0913 36.3429 28.0177C34.4508 27.6294 32.5607 27.2416 30.72 26.67C29.9124 26.3672 29.1554 25.9969 28.387 25.6212L28.18 25.52C27.93 25.38 27.69 25.24 27.45 25.08V25.09C27.35 25.03 27.25 24.9601 27.15 24.89L26.88 24.71C26.93 24.74 26.97 24.77 27.02 24.8C26.83 24.67 26.65 24.54 26.47 24.41C26.48 24.35 26.49 24.29 26.49 24.23C27.17 24.0601 27.84 23.83 28.5 23.59C29.3393 23.2835 30.1732 22.9504 31.0057 22.6178C31.3139 22.4947 31.622 22.3716 31.93 22.25C32.8793 21.8703 33.8253 21.474 34.7699 21.0783C35.4671 20.7863 36.1636 20.4945 36.86 20.21C38.4686 19.5439 40.0706 18.8975 41.6766 18.2495C42.0475 18.0998 42.4186 17.9501 42.79 17.8C45.0556 16.8847 47.3381 16.0031 49.6183 15.1224C50.8505 14.6464 52.0821 14.1707 53.31 13.69C55.6179 12.7883 57.9178 11.8668 60.2173 10.9453C61.5645 10.4055 62.9116 9.86569 64.26 9.33002C67.75 7.93002 71.28 6.64005 74.82 5.38004C74.9443 5.34134 75.0683 5.30252 75.1921 5.26376C76.1244 4.97183 77.0467 4.68308 78 4.48004C78.26 4.44006 78.51 4.40006 78.76 4.38004H78.94C78.97 4.39005 79 4.40002 79.03 4.40002C79.0342 4.40002 79.0383 4.40173 79.0432 4.40375C79.05 4.40662 79.0583 4.41003 79.07 4.41003H79.09C79.0976 4.41385 79.1038 4.41763 79.1091 4.4209C79.1176 4.42618 79.1238 4.43002 79.13 4.43002L79.24 4.54004C79.27 4.58005 79.29 4.61005 79.32 4.65002C79.36 4.71002 79.4 4.77002 79.43 4.83002C79.47 4.92001 79.5 5.00003 79.54 5.09003C79.61 5.31003 79.67 5.53003 79.72 5.75003C79.79 6.16003 79.84 6.57004 79.88 6.99002C79.92 8.04004 79.89 9.10004 79.83 10.15C79.78 10.9 79.75 11.65 79.66 12.4C79.5688 13.166 79.486 13.9402 79.4038 14.7076L79.38 14.93C79.2324 16.2846 78.9868 17.6317 78.7413 18.9778C78.7041 19.1819 78.6669 19.386 78.63 19.59C78.08 22.65 77.48 25.7 76.87 28.75L76.8269 28.9337C76.4912 30.3633 76.1536 31.8009 75.77 33.22C75.4532 34.394 75.1249 35.5641 74.797 36.7327C74.5969 37.4455 74.397 38.1578 74.2 38.87C73.7101 40.67 73.22 42.49 72.85 44.33C72.48 46.22 72.16 48.12 71.87 50.03C71.74 50.95 71.6 51.87 71.46 52.78C71.4055 53.1182 71.3562 53.4563 71.307 53.7945C71.2208 54.3863 71.1346 54.9782 71.02 55.57C70.97 55.76 70.92 55.95 70.86 56.14C70.79 56.32 70.71 56.51 70.63 56.69C70.6 56.7451 70.5699 56.7977 70.5399 56.8503C70.5099 56.9027 70.48 56.9551 70.45 57.01C69.856 56.4407 69.3028 55.817 68.7511 55.1949C68.6341 55.063 68.5172 54.9312 68.4 54.8C67.78 54.09 67.17 53.38 66.63 52.61C66.39 52.24 66.1801 51.86 65.98 51.47C65.4591 50.3673 65.0251 49.2188 64.5914 48.0709C64.3841 47.5221 64.1768 46.9734 63.96 46.43C63.41 45.06 62.7701 43.73 62.07 42.43C61.6693 41.6857 61.2357 40.9643 60.8012 40.2415C60.4769 39.7019 60.1521 39.1614 59.84 38.61C59.14 37.39 58.48 36.16 57.84 34.9C57.54 34.29 57.25 33.6801 56.95 33.07L56.9036 32.9771C56.6399 32.4492 56.3812 31.9312 56.06 31.44Z"
    fill="rgba(191, 192, 191, 1)" />
</svg>