<svg width="149" height="122" viewBox="0 0 149 122" fill="none" xmlns="http://www.w3.org/2000/svg">
  <path fill-rule="evenodd" clip-rule="evenodd"
    d="M137.863 0.579489C137.792 0.790681 137.722 1.35386 137.722 1.84664C137.722 2.33943 137.558 4.1463 137.346 5.88277C136.877 9.8485 137.041 15.8792 137.722 19.3287C137.98 20.6193 138.191 21.7222 138.191 21.7926C138.168 21.9804 137.182 20.7601 134.86 17.733C131.763 13.65 130.355 12.0778 127.54 9.59038C119.399 2.38636 111.869 -0.523407 104.408 0.696818C100.584 1.30693 94.9773 3.77085 91.4113 6.37556C83.6695 12.0778 77.734 22.9659 76.4672 33.8072C76.1856 36.1537 76.3029 43.0762 76.6548 46.2675L76.7956 47.6286L75.4115 46.995C68.2795 43.7332 64.6432 42.3722 59.482 41.0346C53.9688 39.6032 48.7372 39.087 43.529 39.439C25.3239 40.6592 10.0982 57.4842 3.55276 83.6252C2.49705 87.896 0.854832 96.0386 0.362167 99.5585C-0.623162 106.434 0.479469 115.609 2.73165 119.246C3.5293 120.514 4.46771 121.523 4.86653 121.523C5.33574 121.523 5.2419 121.077 4.32695 119.246C2.96625 116.477 2.49705 113.755 2.49705 108.499C2.47359 103.454 2.56743 102.891 4.37387 95.0061C7.16564 82.8743 9.32398 76.4916 13.3591 68.5601C16.5497 62.2713 19.5292 58.0709 23.7989 53.8235C29.0775 48.5672 34.661 45.4932 40.8545 44.4137C44.1155 43.8505 50.7078 44.0852 54.5788 44.883C60.655 46.1737 64.9717 47.7459 73.1827 51.7116C78.3674 54.2225 79.4701 54.5041 80.8073 53.6124C82.4495 52.5564 82.6372 51.1954 81.9803 45.6809C81.7692 43.9444 81.5815 40.5419 81.5815 37.9841C81.558 34.0653 81.6284 33.0797 82.0742 31.0382C83.4114 24.8432 86.0624 19.4226 90.0272 14.7294C93.7808 10.2709 99.9509 6.77447 105.37 6.04703C109.499 5.48385 114.168 6.98567 119.024 10.4821C121.769 12.4298 126.766 17.4514 129.088 20.6193L131.083 23.3179L130.215 23.4822C129.745 23.5526 127.235 23.7638 124.678 23.9046C119.306 24.2096 118.555 24.3739 117.429 25.336C115.575 26.9786 115.904 29.9822 118.086 31.0147C119.212 31.5544 123.012 32.0472 127.282 32.2349C129.229 32.3053 133.945 32.5869 137.769 32.8685C145.511 33.4317 145.98 33.3848 147.458 32.0941C149.288 30.475 149.194 28.4569 147.059 23.5291C146.214 21.5814 145.112 18.7421 144.643 17.1933C142.602 10.5994 139.974 2.59755 139.458 1.44773C138.895 0.180568 138.168 -0.218351 137.863 0.579489Z"
    fill="rgba(191, 192, 191, 1)" />
</svg>