<svg width="81" height="85" viewBox="0 0 81 85" fill="none" xmlns="http://www.w3.org/2000/svg">
  <path fill-rule="evenodd" clip-rule="evenodd"
    d="M13.1899 61.61C9.97983 61.42 6.85995 60.41 4.09994 58.77C2.9299 58.07 1.72995 57.08 1.18002 55.8C0.910002 55.18 0.749968 54.51 0.849943 53.82C0.88986 53.5 1.01987 53.15 1.22995 52.91C1.53988 52.55 1.91 52.3 2.38998 52.24C2.85995 52.17 3.33993 52.3 3.70993 52.59C4.20993 52.97 4.46994 53.65 4.38998 54.28C4.39596 54.3038 4.40549 54.3241 4.41427 54.3429L4.41501 54.3444C4.42074 54.3567 4.42612 54.3683 4.43002 54.38C4.46005 54.44 4.49997 54.5 4.54001 54.56C4.57992 54.62 4.61996 54.67 4.66 54.72C4.74997 54.82 4.84994 54.92 4.94992 55.01C5.05929 55.1051 5.17087 55.1957 5.28366 55.2828C5.40817 55.3789 5.53415 55.4708 5.66 55.56C6.11996 55.86 6.60995 56.12 7.08993 56.37C7.76987 56.7 8.46005 56.99 9.18002 57.24C9.84994 57.46 10.5299 57.65 11.2199 57.8C11.9199 57.93 12.6198 58.01 13.3299 58.07C14.3199 58.12 15.29 58.1 16.28 58.03C16.1999 58.04 16.12 58.04 16.04 58.05C18.3299 57.88 20.61 57.55 22.86 57.12C24.0899 56.86 25.3199 56.57 26.51 56.18C27.4299 55.85 28.3299 55.47 29.2099 55.04C29.1399 55.08 29.0699 55.11 29.01 55.15C30.0764 54.6118 31.0826 53.9946 32.0694 53.3271C32.0575 53.3353 32.0454 53.3439 32.0332 53.3527C33.8424 52.1201 35.5953 50.794 37.31 49.43C37.4522 49.3178 37.5948 49.2061 37.7374 49.0943L37.7422 49.0907C38.3099 48.6456 38.8777 48.2005 39.42 47.73C39.8205 47.3795 40.2231 47.0291 40.6258 46.6786C41.0566 46.3038 41.4875 45.929 41.9165 45.5542C42.0764 45.4007 42.2373 45.2481 42.3984 45.0959L42.6699 44.84C42.8204 44.6982 42.9709 44.5565 43.1209 44.4143C43.2276 44.3132 43.334 44.2118 43.4399 44.11C43.6041 43.9528 43.7732 43.7992 43.9425 43.6454C44.2578 43.3592 44.5737 43.0723 44.86 42.76C45.3315 42.2483 45.8031 41.7417 46.2746 41.235L46.3109 41.1962C46.7672 40.7058 47.2236 40.2153 47.68 39.72C47.9516 39.3871 48.2249 39.0551 48.4986 38.7237C48.6805 38.5035 48.8625 38.2835 49.0444 38.0638L49.0686 38.0346C49.5423 37.4622 50.015 36.8911 50.4799 36.32C51.1049 35.5673 51.7074 34.7919 52.3086 34.0183C52.6018 33.6408 52.8947 33.2638 53.1899 32.89C53.804 32.1084 54.3889 31.3025 54.9718 30.4994C55.2242 30.1516 55.4762 29.8044 55.7299 29.46C56.2539 28.7571 56.7574 28.0379 57.2614 27.318C57.5462 26.9113 57.8311 26.5044 58.12 26.1C58.4233 25.6489 58.7265 25.1994 59.0304 24.7507C59.4658 24.1079 59.9024 23.4671 60.342 22.8263C60.3669 22.7833 60.3955 22.7441 60.4231 22.7062L60.4266 22.7013C61.9903 20.3718 63.4632 17.9762 64.9325 15.5864L64.9409 15.5729C65.1456 15.2398 65.3503 14.9069 65.5551 14.5743C65.7265 14.2959 65.8982 14.0178 66.0699 13.74C66.6152 12.8535 67.1744 11.9736 67.734 11.093C69.0113 9.08303 70.2905 7.07003 71.41 4.96999C71.4708 4.83416 71.5316 4.69704 71.5914 4.55913C71.0394 4.6798 70.4885 4.80526 69.9399 4.93999C69.7196 4.99303 69.5009 5.04772 69.2833 5.10543C68.9675 5.1892 68.6538 5.27935 68.3399 5.38L66.5699 5.95C64.9799 6.6 63.4099 7.24999 61.8399 7.92998L61.8337 7.93264C60.6457 8.45174 59.4579 8.97082 58.25 9.45C57.2099 9.86001 56.15 10.2 55.05 10.4C54.2101 10.56 53.2099 10.54 52.5899 9.85998C51.9299 9.14998 51.8899 8.06997 52.5899 7.35998C52.9599 6.97997 53.4199 6.80999 53.9399 6.77999C54.1699 6.76998 54.3899 6.81002 54.5799 6.89001C54.6299 6.88 54.6799 6.86999 54.7199 6.86999C55.25 6.73998 55.76 6.58999 56.27 6.40999C57.6288 5.91036 58.9539 5.32906 60.2798 4.74752C61.13 4.37462 61.9803 4.00161 62.8399 3.64998C63.1002 3.54363 63.3604 3.43334 63.6212 3.32287C64.292 3.03869 64.9658 2.75323 65.65 2.52999C65.8761 2.45623 66.1015 2.38076 66.3269 2.30535C67.0486 2.06386 67.7684 1.8229 68.5 1.64001C69.4299 1.40999 70.37 1.18999 71.31 0.989981C71.4687 0.956686 71.6295 0.920126 71.7912 0.883322C72.2497 0.778982 72.7173 0.672659 73.1749 0.632925C73.9692 0.235068 74.9143 0.516348 75.4232 1.22979C75.6511 1.40063 75.8603 1.60082 76.06 1.82C76.7898 2.63976 77.1997 3.63939 77.6096 4.63909C78.0896 5.84908 78.44 7.12002 78.68 8.39001C79.05 10.27 79.1699 12.18 79.2199 14.09C79.2299 14.4938 79.2356 14.8987 79.2412 15.304C79.2523 16.1131 79.2634 16.9238 79.31 17.73C79.3501 18.12 79.4099 18.51 79.4799 18.9C79.52 19.07 79.5599 19.25 79.61 19.42C79.88 20.17 80.2299 20.9 80.5799 21.61C81.0099 22.48 80.49 23.57 79.64 23.93C79.41 24.03 79.1799 24.07 78.9599 24.07C78.2699 24.09 77.6399 23.66 77.3199 23.01C76.9399 22.25 76.57 21.46 76.29 20.66C75.7971 19.2465 75.7625 17.7724 75.7279 16.294C75.7253 16.1827 75.7227 16.0713 75.7199 15.96C75.709 15.6023 75.7003 15.2446 75.6916 14.887C75.6685 13.9347 75.6454 12.9823 75.5799 12.03C75.5099 11.01 75.37 9.99999 75.18 8.98998C75.0102 8.18825 74.796 7.40435 74.5456 6.62145C74.1816 7.38091 73.7446 8.10338 73.3104 8.82134L73.2031 8.99877L73.13 9.11999C72.64 9.95 72.11 10.76 71.5899 11.58C70.5899 13.18 69.5899 14.78 68.5999 16.38C68.4258 16.6645 68.2518 16.9493 68.0779 17.2342C67.2734 18.5513 66.4686 19.8692 65.63 21.16L63.41 24.61C62.884 25.4275 62.3276 26.2349 61.7732 27.0394C61.5477 27.3665 61.3226 27.6933 61.0999 28.02C60.0799 29.52 59.0099 31 57.9399 32.45C57.4377 33.1248 56.9417 33.7996 56.4422 34.4791L56.03 35.04C55.5843 35.632 55.1192 36.2093 54.655 36.7857C54.4526 37.0369 54.2505 37.288 54.05 37.54C53.2019 38.6128 52.3275 39.6699 51.4535 40.7265C51.1217 41.1274 50.79 41.5283 50.4599 41.93C50.0127 42.4681 49.5263 42.977 49.0418 43.4838C48.8331 43.7022 48.6247 43.9202 48.42 44.14L48.405 44.1561C47.8702 44.7306 47.3447 45.295 46.78 45.83L46.5992 46.0015L46.381 46.208C46.3375 46.2916 46.2872 46.3726 46.2299 46.45C45.86 46.94 45.49 47.42 45.11 47.9C45.0261 48.0052 44.9411 48.109 44.8557 48.2119C44.7712 48.3137 44.6861 48.4146 44.6012 48.5156C44.3309 48.8365 44.0611 49.157 43.81 49.5C43.6001 49.83 43.41 50.16 43.2299 50.51C42.9399 51.11 42.6899 51.72 42.4599 52.35C42.1174 53.3471 41.827 54.3558 41.5359 55.3673C41.4445 55.6847 41.3531 56.0023 41.26 56.32C40.94 57.43 40.6699 58.56 40.4399 59.69C40.1799 61.01 40 62.33 39.9 63.68C39.83 64.79 39.8099 65.89 39.8499 67L39.8663 67.3863C39.8908 67.9672 39.9154 68.547 39.9399 69.12C40.0299 70.23 40.16 71.33 40.37 72.43C40.5599 73.32 40.7899 74.19 41.0799 75.05C41.5399 76.29 42.07 77.52 42.65 78.71C42.65 78.7131 42.651 78.7161 42.6526 78.7195C42.6541 78.7229 42.6565 78.7266 42.6591 78.7309C42.6624 78.7362 42.6662 78.7424 42.67 78.75C42.67 78.76 42.68 78.77 42.68 78.77C42.68 78.77 42.6799 78.78 42.6899 78.79V78.8C42.6999 78.81 42.6999 78.82 42.7099 78.83C42.8294 79.0597 42.9531 79.2874 43.081 79.512C43.16 79.6505 43.2406 79.7878 43.3226 79.9238C43.3971 80.0471 43.4729 80.1692 43.55 80.29C43.67 80.45 43.79 80.61 43.92 80.77C44.02 80.89 44.13 80.99 44.24 81.1C44.9499 81.76 44.9 82.94 44.24 83.6C43.9 83.94 43.4499 84.11 43.01 84.11C42.5899 84.12 42.13 83.94 41.77 83.61C40.42 82.36 39.62 80.59 38.89 78.94C38.68 78.48 38.4799 78.01 38.27 77.55C37.7099 76.26 37.3099 74.9 37 73.53C36.5999 71.71 36.4499 69.87 36.37 68.02C36.3499 67.46 36.32 66.9 36.3 66.34C36.2529 65.2674 36.3298 64.1771 36.4057 63.1025L36.42 62.9C36.64 59.94 37.3799 57.05 38.1899 54.2C38.3045 53.7965 38.4209 53.3929 38.5416 52.9906C38.3191 53.1664 38.0954 53.3401 37.87 53.51C36.9099 54.21 35.9499 54.92 34.99 55.62C33.15 56.97 31.1799 58.12 29.0799 59C26.6699 60.01 24.0899 60.55 21.52 60.96C19.2299 61.32 16.9 61.65 14.56 61.65C14.3344 61.65 14.1064 61.6475 13.8772 61.6412C13.6489 61.6349 13.4194 61.6249 13.1899 61.61ZM54.17 10.31C54.0899 10.32 54.01 10.33 53.93 10.33C54.2984 10.3017 54.6489 10.1841 54.931 10.0026C54.8786 10.0376 54.8271 10.0725 54.7831 10.1075C54.7201 10.1364 54.6642 10.1724 54.5999 10.2C54.5299 10.22 54.4699 10.24 54.4 10.27C54.3199 10.28 54.25 10.29 54.17 10.31Z"
    fill="rgba(191, 192, 191, 1)" />
</svg>