<svg width="512" height="512" viewBox="0 0 512 512" fill="none" xmlns="http://www.w3.org/2000/svg">
<g filter="url(#filter0_d_167_2)">
<mask id="path-1-outside-1_167_2" maskUnits="userSpaceOnUse" x="72" y="77" width="368" height="358" fill="black">
<rect fill="white" x="72" y="77" width="368" height="358"/>
<path fill-rule="evenodd" clip-rule="evenodd" d="M370.879 93H423.675V418.96H359.401V194.461H281.813V149.469H289.159C342.874 149.469 368.583 126.973 370.879 93ZM179.472 157.96H216.313V223.057H280.786V260.066H216.313V325.163H179.472V260.066H115V223.057H179.472V157.96ZM149.111 310.96H126.889V350.282H88V372.638H126.889V411.96H149.111V372.638H188V350.282H149.111V310.96Z"/>
</mask>
<path fill-rule="evenodd" clip-rule="evenodd" d="M370.879 93H423.675V418.96H359.401V194.461H281.813V149.469H289.159C342.874 149.469 368.583 126.973 370.879 93ZM179.472 157.96H216.313V223.057H280.786V260.066H216.313V325.163H179.472V260.066H115V223.057H179.472V157.96ZM149.111 310.96H126.889V350.282H88V372.638H126.889V411.96H149.111V372.638H188V350.282H149.111V310.96Z" fill="#E82553"/>
<path d="M423.675 93H439.675V77H423.675V93ZM370.879 93V77H355.923L354.915 91.9214L370.879 93ZM423.675 418.96V434.96H439.675V418.96H423.675ZM359.401 418.96H343.401V434.96H359.401V418.96ZM359.401 194.461H375.401V178.461H359.401V194.461ZM281.813 194.461H265.813V210.461H281.813V194.461ZM281.813 149.469V133.469H265.813V149.469H281.813ZM216.313 157.96H232.313V141.96H216.313V157.96ZM179.472 157.96V141.96H163.472V157.96H179.472ZM216.313 223.057H200.313V239.057H216.313V223.057ZM280.786 223.057H296.786V207.057H280.786V223.057ZM280.786 260.066V276.066H296.786V260.066H280.786ZM216.313 260.066V244.066H200.313V260.066H216.313ZM216.313 325.163V341.163H232.313V325.163H216.313ZM179.472 325.163H163.472V341.163H179.472V325.163ZM179.472 260.066H195.472V244.066H179.472V260.066ZM115 260.066H99V276.066H115V260.066ZM115 223.057V207.057H99V223.057H115ZM179.472 223.057V239.057H195.472V223.057H179.472ZM126.889 310.96V294.96H110.889V310.96H126.889ZM149.111 310.96H165.111V294.96H149.111V310.96ZM126.889 350.282V366.282H142.889V350.282H126.889ZM88 350.282V334.282H72V350.282H88ZM88 372.638H72V388.638H88V372.638ZM126.889 372.638H142.889V356.638H126.889V372.638ZM126.889 411.96H110.889V427.96H126.889V411.96ZM149.111 411.96V427.96H165.111V411.96H149.111ZM149.111 372.638V356.638H133.111V372.638H149.111ZM188 372.638V388.638H204V372.638H188ZM188 350.282H204V334.282H188V350.282ZM149.111 350.282H133.111V366.282H149.111V350.282ZM423.675 77H370.879V109H423.675V77ZM439.675 418.96V93H407.675V418.96H439.675ZM359.401 434.96H423.675V402.96H359.401V434.96ZM343.401 194.461V418.96H375.401V194.461H343.401ZM281.813 210.461H359.401V178.461H281.813V210.461ZM265.813 149.469V194.461H297.813V149.469H265.813ZM289.159 133.469H281.813V165.469H289.159V133.469ZM354.915 91.9214C354.046 104.777 349.02 114.324 339.825 121.083C330.111 128.222 314.046 133.469 289.159 133.469V165.469C317.987 165.469 341.633 159.468 358.777 146.867C376.439 133.884 385.415 115.197 386.842 94.0786L354.915 91.9214ZM216.313 141.96H179.472V173.96H216.313V141.96ZM232.313 223.057V157.96H200.313V223.057H232.313ZM280.786 207.057H216.313V239.057H280.786V207.057ZM296.786 260.066V223.057H264.786V260.066H296.786ZM216.313 276.066H280.786V244.066H216.313V276.066ZM232.313 325.163V260.066H200.313V325.163H232.313ZM179.472 341.163H216.313V309.163H179.472V341.163ZM163.472 260.066V325.163H195.472V260.066H163.472ZM115 276.066H179.472V244.066H115V276.066ZM99 223.057V260.066H131V223.057H99ZM179.472 207.057H115V239.057H179.472V207.057ZM163.472 157.96V223.057H195.472V157.96H163.472ZM126.889 326.96H149.111V294.96H126.889V326.96ZM142.889 350.282V310.96H110.889V350.282H142.889ZM88 366.282H126.889V334.282H88V366.282ZM104 372.638V350.282H72V372.638H104ZM126.889 356.638H88V388.638H126.889V356.638ZM142.889 411.96V372.638H110.889V411.96H142.889ZM149.111 395.96H126.889V427.96H149.111V395.96ZM133.111 372.638V411.96H165.111V372.638H133.111ZM188 356.638H149.111V388.638H188V356.638ZM172 350.282V372.638H204V350.282H172ZM149.111 366.282H188V334.282H149.111V366.282ZM133.111 310.96V350.282H165.111V310.96H133.111Z" fill="white" mask="url(#path-1-outside-1_167_2)"/>
</g>
<defs>
<filter id="filter0_d_167_2" x="63.1" y="68.1" width="385.475" height="375.76" filterUnits="userSpaceOnUse" color-interpolation-filters="sRGB">
<feFlood flood-opacity="0" result="BackgroundImageFix"/>
<feColorMatrix in="SourceAlpha" type="matrix" values="0 0 0 0 0 0 0 0 0 0 0 0 0 0 0 0 0 0 127 0" result="hardAlpha"/>
<feOffset/>
<feGaussianBlur stdDeviation="4.45"/>
<feComposite in2="hardAlpha" operator="out"/>
<feColorMatrix type="matrix" values="0 0 0 0 0 0 0 0 0 0 0 0 0 0 0 0 0 0 0.26 0"/>
<feBlend mode="normal" in2="BackgroundImageFix" result="effect1_dropShadow_167_2"/>
<feBlend mode="normal" in="SourceGraphic" in2="effect1_dropShadow_167_2" result="shape"/>
</filter>
</defs>
</svg>
