<svg width="512" height="512" viewBox="0 0 512 512" fill="none" xmlns="http://www.w3.org/2000/svg">
<g filter="url(#filter0_d_149_582)">
<path d="M264.341 300.814L271.56 298.488L269.153 291.296C268.133 288.248 267.053 284.256 267.053 280.933C267.053 277.252 269.324 272.85 275.217 267.005C279.919 262.342 285.885 257.735 292.551 252.589C294.128 251.371 295.743 250.123 297.391 248.838C305.71 242.345 314.633 235.018 321.456 226.555C328.356 217.997 333.5 207.799 333.5 195.626C333.5 172.79 320.964 152.443 303.761 138.06C286.55 123.669 263.834 114.5 241.787 114.5C220.304 114.5 199.601 119.765 181.82 131.702L175.016 136.269L180.167 142.643L213.923 184.411L218.564 190.154L224.379 185.603C238.154 174.821 255.748 168.437 270.924 168.437C276.817 168.437 279.979 169.803 281.526 171.056C282.867 172.143 283.678 173.678 283.678 176.157C283.678 176.843 283.406 178.12 282.057 180.188C280.713 182.247 278.61 184.616 275.712 187.343C271.356 191.441 265.976 195.661 260.005 200.345C257.889 202.006 255.699 203.724 253.454 205.515C245.155 212.138 236.343 219.596 229.6 227.865C222.856 236.137 217.586 245.942 217.586 257.217C217.586 275.999 227.314 290.769 245.635 303.697L248.695 305.857L252.26 304.708L264.341 300.814ZM260.065 310.152L254.778 305.191L249.641 310.308L214.463 345.351L208.967 350.827L214.625 356.135L251.224 390.47L256.512 395.431L261.648 390.313L296.826 355.27L302.322 349.795L296.664 344.487L260.065 310.152Z" fill="#FFD955" stroke="white" stroke-width="15"/>
<path d="M364.198 278.806L371.607 280.396L373.12 272.972C373.275 272.211 373.481 271.338 373.753 270.477C374.033 269.592 374.33 268.895 374.607 268.417C374.931 267.855 376.102 266.668 380.342 265.548C383.67 264.668 387.545 264.143 392.145 263.519C393.26 263.368 394.418 263.211 395.62 263.042C401.416 262.226 408.066 261.138 414.077 258.811C420.201 256.44 426.234 252.566 430.11 245.852C437.07 233.797 436.548 219.472 432.054 207.166C427.556 194.849 418.734 183.491 407.399 176.947C396.623 170.725 384.581 167.303 371.976 168.165L363.811 168.724L365.078 176.809L369.684 206.206L370.828 213.511L378.149 212.471C387.097 211.199 396.529 212.917 403.075 216.697C405.197 217.922 405.808 218.854 405.945 219.115C405.938 219.135 405.928 219.158 405.916 219.184C405.819 219.256 405.63 219.381 405.307 219.545C404.429 219.991 403.053 220.472 401.026 220.951C397.96 221.676 394.427 222.182 390.326 222.77C388.824 222.985 387.245 223.211 385.585 223.463C379.749 224.349 373.15 225.531 367.265 227.772C361.376 230.015 355.329 233.643 351.665 239.989C345.747 250.241 346.599 261.231 352.089 273.139L352.196 273.37L327.769 279.884L320.284 281.88L322.521 289.297L330.551 315.912L332.648 322.864L339.663 320.993L366.243 313.905L373.728 311.909L371.491 304.492L363.71 278.702L364.198 278.806ZM405.972 219.032C405.973 219.029 405.973 219.027 405.973 219.027C405.973 219.027 405.973 219.029 405.972 219.032Z" fill="#FFD955" stroke="white" stroke-width="15"/>
<path d="M142.4 347.314L149.611 344.986L147.21 337.799C146.964 337.063 146.705 336.204 146.511 335.323C146.311 334.417 146.22 333.664 146.22 333.112C146.22 332.463 146.641 330.85 149.752 327.759C152.194 325.334 155.288 322.941 158.959 320.101C159.849 319.413 160.774 318.698 161.731 317.95C166.342 314.346 171.557 310.079 175.599 305.058C179.718 299.943 183.005 293.571 183.005 285.818C183.005 271.898 175.39 259.754 165.345 251.343C155.292 242.925 141.972 237.5 128.884 237.5C116.44 237.5 104.301 240.558 93.8155 247.607L87.024 252.172L92.1635 258.541L110.851 281.697L115.495 287.451L121.314 282.89C128.428 277.314 137.455 274.086 145.014 274.086C147.465 274.086 148.459 274.589 148.709 274.746C148.712 274.767 148.715 274.791 148.718 274.82C148.67 274.931 148.569 275.134 148.371 275.437C147.833 276.262 146.882 277.367 145.367 278.795C143.073 280.956 140.267 283.161 137.01 285.72C135.816 286.658 134.562 287.643 133.251 288.692C128.639 292.377 123.515 296.7 119.539 301.583C115.561 306.47 112.138 312.636 112.138 319.963C112.138 331.801 118.371 340.893 129.08 348.46L129.288 348.607L111.391 366.461L105.906 371.932L111.552 377.237L131.814 396.272L137.106 401.244L142.246 396.116L161.721 376.688L167.205 371.217L161.559 365.912L141.926 347.467L142.4 347.314ZM148.691 274.66C148.69 274.657 148.689 274.656 148.689 274.656C148.689 274.656 148.69 274.657 148.691 274.66Z" fill="#FFD955" stroke="white" stroke-width="15"/>
</g>
<defs>
<filter id="filter0_d_149_582" x="71.048" y="102" width="376.845" height="314.681" filterUnits="userSpaceOnUse" color-interpolation-filters="sRGB">
<feFlood flood-opacity="0" result="BackgroundImageFix"/>
<feColorMatrix in="SourceAlpha" type="matrix" values="0 0 0 0 0 0 0 0 0 0 0 0 0 0 0 0 0 0 127 0" result="hardAlpha"/>
<feOffset/>
<feGaussianBlur stdDeviation="2.5"/>
<feComposite in2="hardAlpha" operator="out"/>
<feColorMatrix type="matrix" values="0 0 0 0 0 0 0 0 0 0 0 0 0 0 0 0 0 0 0.25 0"/>
<feBlend mode="normal" in2="BackgroundImageFix" result="effect1_dropShadow_149_582"/>
<feBlend mode="normal" in="SourceGraphic" in2="effect1_dropShadow_149_582" result="shape"/>
</filter>
</defs>
</svg>
