<svg width="512" height="512" viewBox="0 0 512 512" fill="none" xmlns="http://www.w3.org/2000/svg">
<g filter="url(#filter0_d_169_350)">
<path d="M240.718 146.839L234.126 143.262L230.549 149.855L81.0407 425.444C77.8654 431.298 80.0362 438.617 85.8893 441.792L126.515 463.831C132.368 467.007 139.687 464.836 142.862 458.983L292.371 183.393L295.947 176.801L289.355 173.224L240.718 146.839Z" fill="url(#paint0_linear_169_350)" stroke="white" stroke-width="15"/>
<path d="M281.735 187.407L288.327 190.983L291.904 184.391L332.796 109.013C336.128 102.872 333.85 95.1942 327.71 91.8631L288.124 70.3877C281.984 67.0566 274.306 69.3339 270.975 75.4742L230.082 150.852L226.506 157.444L233.098 161.021L281.735 187.407Z" fill="url(#paint1_linear_169_350)" stroke="white" stroke-width="15"/>
</g>
<g filter="url(#filter1_d_169_350)">
<path d="M237.142 153.431L285.779 179.817L136.27 455.406C135.07 457.619 132.304 458.439 130.091 457.239L89.4657 435.2C87.2534 433.999 86.4329 431.233 87.6331 429.021L237.142 153.431Z" fill="url(#paint2_linear_169_350)"/>
<path d="M277.567 79.0506C278.923 76.5511 282.048 75.6241 284.548 76.9801L324.133 98.4554C326.633 99.8114 327.56 102.937 326.204 105.436L285.311 180.814L236.674 154.428L277.567 79.0506Z" fill="url(#paint3_linear_169_350)"/>
</g>
<g filter="url(#filter2_d_169_350)">
<path d="M361.386 265.116C361.78 263.127 360.62 261.159 358.689 260.541C356.757 259.923 354.67 260.852 353.836 262.701C348.418 274.722 341.889 282.308 333.951 286.408C326.012 290.509 316.047 291.442 303.108 288.903C301.118 288.513 299.152 289.677 298.538 291.61C297.924 293.542 298.858 295.628 300.708 296.457C312.539 301.76 320.312 308.347 324.545 316.363C328.762 324.349 329.775 334.337 326.925 347.08C326.473 349.098 327.639 351.126 329.61 351.752C331.581 352.378 333.703 351.394 334.499 349.485C339.44 337.633 346.102 329.888 354.238 325.686C362.375 321.483 372.546 320.533 385.071 323.364C387.088 323.82 389.119 322.658 389.75 320.689C390.38 318.719 389.401 316.595 387.494 315.795C375.452 310.743 367.893 304.137 363.822 296.076C359.736 287.984 358.863 277.833 361.386 265.116Z" fill="url(#paint4_linear_169_350)"/>
<path d="M368.742 266.576C369.879 260.847 366.537 255.177 360.974 253.397C355.411 251.618 349.399 254.295 346.999 259.619C342.004 270.7 336.446 276.678 330.509 279.745L333.951 286.408L330.509 279.745C324.571 282.812 316.479 283.884 304.552 281.543C298.821 280.419 293.159 283.773 291.39 289.339C289.622 294.905 292.311 300.912 297.64 303.301C308.523 308.179 314.714 313.808 317.913 319.866C321.067 325.837 322.19 333.887 319.605 345.443C318.305 351.255 321.663 357.098 327.34 358.9C333.017 360.703 339.13 357.869 341.422 352.371C345.891 341.65 351.533 335.524 357.68 332.349C363.827 329.174 372.088 328.119 383.418 330.679C389.227 331.992 395.077 328.648 396.893 322.975C398.708 317.302 395.887 311.183 390.395 308.879C379.476 304.298 373.561 298.722 370.517 292.695C367.429 286.58 366.422 278.273 368.742 266.576Z" stroke="white" stroke-width="15"/>
</g>
<g filter="url(#filter3_d_169_350)">
<mask id="path-7-outside-1_169_350" maskUnits="userSpaceOnUse" x="51.7461" y="59.6968" width="139.912" height="139.912" fill="black">
<rect fill="white" x="51.7461" y="59.6968" width="139.912" height="139.912"/>
<path d="M112.078 94.2129C111.329 92.72 109.579 92.0266 108.011 92.6012C106.443 93.1758 105.555 94.8356 105.948 96.459C108.502 107.016 108.092 115.25 105.002 121.93C101.913 128.61 95.9048 134.255 86.2069 139.145C84.7156 139.897 84.0257 141.649 84.6035 143.216C85.1814 144.783 86.843 145.667 88.4656 145.271C98.8401 142.738 107.225 143.092 114.03 146.164C120.81 149.225 126.518 155.208 131.108 164.936C131.834 166.477 133.618 167.206 135.216 166.617C136.814 166.027 137.697 164.314 137.249 162.671C134.47 152.466 134.887 144.061 138.053 137.214C141.219 130.368 147.354 124.608 156.93 120.116C158.472 119.393 159.205 117.611 158.62 116.011C158.034 114.412 156.323 113.525 154.678 113.969C144.294 116.772 136.038 116.298 129.315 113.114C122.567 109.918 116.867 103.758 112.078 94.2129Z"/>
</mask>
<path d="M112.078 94.2129C111.329 92.72 109.579 92.0266 108.011 92.6012C106.443 93.1758 105.555 94.8356 105.948 96.459C108.502 107.016 108.092 115.25 105.002 121.93C101.913 128.61 95.9048 134.255 86.2069 139.145C84.7156 139.897 84.0257 141.649 84.6035 143.216C85.1814 144.783 86.843 145.667 88.4656 145.271C98.8401 142.738 107.225 143.092 114.03 146.164C120.81 149.225 126.518 155.208 131.108 164.936C131.834 166.477 133.618 167.206 135.216 166.617C136.814 166.027 137.697 164.314 137.249 162.671C134.47 152.466 134.887 144.061 138.053 137.214C141.219 130.368 147.354 124.608 156.93 120.116C158.472 119.393 159.205 117.611 158.62 116.011C158.034 114.412 156.323 113.525 154.678 113.969C144.294 116.772 136.038 116.298 129.315 113.114C122.567 109.918 116.867 103.758 112.078 94.2129Z" fill="url(#paint5_linear_169_350)"/>
<path d="M108.011 92.6012L102.851 78.5168L102.851 78.5168L108.011 92.6012ZM112.078 94.2129L125.486 87.4864L125.486 87.4864L112.078 94.2129ZM105.948 96.459L120.527 92.9315L120.527 92.9315L105.948 96.459ZM105.002 121.93L91.3878 115.633L91.3878 115.633L105.002 121.93ZM86.2069 139.145L92.9608 152.539L92.9609 152.539L86.2069 139.145ZM84.6035 143.216L70.5297 148.405L70.5297 148.405L84.6035 143.216ZM88.4656 145.271L92.0229 159.843L92.0229 159.843L88.4656 145.271ZM114.03 146.164L120.202 132.493L114.03 146.164ZM131.108 164.936L117.542 171.336L117.542 171.336L131.108 164.936ZM135.216 166.617L140.407 180.69L140.407 180.69L135.216 166.617ZM137.249 162.671L151.722 158.73L151.722 158.73L137.249 162.671ZM138.053 137.214L124.438 130.918L124.438 130.918L138.053 137.214ZM156.93 120.116L163.299 133.697L163.299 133.697L156.93 120.116ZM158.62 116.011L172.704 110.852L172.704 110.852L158.62 116.011ZM154.678 113.969L150.769 99.4875L150.769 99.4875L154.678 113.969ZM129.315 113.114L122.895 126.671L129.315 113.114ZM113.172 106.686C107.58 108.734 101.341 106.262 98.6711 100.939L125.486 87.4864C121.317 79.178 111.579 75.3189 102.851 78.5168L113.172 106.686ZM120.527 92.9315C121.928 98.7194 118.763 104.637 113.172 106.686L102.851 78.5168C94.1226 81.7147 89.1826 90.9518 91.3686 99.9866L120.527 92.9315ZM118.617 128.226C123.597 117.457 123.566 105.493 120.527 92.9315L91.3686 99.9866C93.4377 108.538 92.5863 113.042 91.3878 115.633L118.617 128.226ZM92.9609 152.539C104.5 146.72 113.637 138.994 118.617 128.226L91.3878 115.633C90.1892 118.225 87.3092 121.79 79.453 125.752L92.9609 152.539ZM98.6773 138.027C100.737 143.614 98.2779 149.858 92.9608 152.539L79.453 125.752C71.1532 129.937 67.314 139.683 70.5297 148.405L98.6773 138.027ZM84.9083 130.699C90.6933 129.287 96.6173 132.439 98.6773 138.027L70.5297 148.405C73.7454 157.126 82.9927 162.048 92.0229 159.843L84.9083 130.699ZM120.202 132.493C109.36 127.598 97.3013 127.674 84.9083 130.699L92.0229 159.843C100.379 157.803 105.09 158.586 107.859 159.836L120.202 132.493ZM144.674 158.536C139.046 146.607 131.135 137.428 120.202 132.493L107.859 159.836C110.486 161.022 113.991 163.81 117.542 171.336L144.674 158.536ZM130.026 152.544C135.723 150.442 142.082 153.044 144.674 158.536L117.542 171.336C121.586 179.91 131.513 183.971 140.407 180.69L130.026 152.544ZM122.776 166.612C121.181 160.753 124.328 154.645 130.025 152.544L140.407 180.69C149.301 177.41 154.213 167.876 151.722 158.73L122.776 166.612ZM124.438 130.918C119.392 141.83 119.353 154.042 122.776 166.612L151.722 158.73C149.587 150.889 150.381 146.292 151.668 143.511L124.438 130.918ZM150.56 106.536C138.765 112.068 129.485 120.006 124.438 130.918L151.668 143.511C152.954 140.729 155.943 137.147 163.299 133.697L150.56 106.536ZM144.535 121.17C142.446 115.468 145.062 109.115 150.56 106.536L163.299 133.697C171.882 129.671 175.965 119.754 172.704 110.852L144.535 121.17ZM158.587 128.451C152.724 130.034 146.623 126.873 144.535 121.17L172.704 110.852C169.444 101.951 159.922 97.0172 150.769 99.4875L158.587 128.451ZM122.895 126.671C133.735 131.805 145.853 131.888 158.587 128.451L150.769 99.4875C142.735 101.656 138.34 100.791 135.735 99.5574L122.895 126.671ZM98.6711 100.939C104.392 112.342 112.144 121.579 122.895 126.671L135.735 99.5574C132.99 98.2571 129.343 95.1744 125.486 87.4864L98.6711 100.939Z" fill="white" mask="url(#path-7-outside-1_169_350)"/>
</g>
<g filter="url(#filter4_d_169_350)">
<path d="M451.02 74.3738C452.354 72.2566 451.887 69.4758 449.935 67.9103C447.983 66.3449 445.167 66.493 443.39 68.2546C431.835 79.7094 420.96 85.5637 410.002 86.7792C399.043 87.9947 387.15 84.6661 373.365 76.022C371.245 74.6927 368.466 75.1653 366.904 77.1205C365.343 79.0756 365.496 81.8912 367.262 83.6646C378.548 95.0031 384.592 106.027 385.926 117.133C387.256 128.197 384.008 140.152 375.092 153.574C373.68 155.699 374.127 158.551 376.121 160.144C378.115 161.736 380.995 161.54 382.756 159.693C393.686 148.222 404.784 142.243 416.016 140.997C427.247 139.751 439.386 143.152 452.565 151.949C454.687 153.366 457.54 152.926 459.137 150.935C460.734 148.945 460.544 146.064 458.701 144.299C447.061 133.158 441.271 122.206 440.144 111.119C439.012 99.9908 442.493 87.91 451.02 74.3738Z" fill="url(#paint6_linear_169_350)"/>
<path d="M457.366 78.3712C460.732 73.0282 459.553 66.0103 454.627 62.0595C449.701 58.1087 442.595 58.4825 438.11 62.9282C427.287 73.657 417.895 78.3577 409.175 79.3249C400.455 80.2921 390.261 77.7641 377.35 69.668C372 66.3131 364.984 67.5058 361.044 72.4401C357.103 77.3745 357.491 84.48 361.946 88.9556C372.499 99.5578 377.41 109.121 378.48 118.028C379.538 126.83 377.087 137.016 368.845 149.424C365.281 154.788 366.409 161.986 371.441 166.005C376.474 170.023 383.743 169.529 388.185 164.867C398.27 154.283 407.837 149.45 416.843 148.451C425.849 147.452 436.241 150.071 448.401 158.187C453.757 161.763 460.958 160.652 464.987 155.628C469.017 150.605 468.539 143.335 463.887 138.881C453.126 128.581 448.502 119.18 447.605 110.36C446.698 101.435 449.393 91.0284 457.366 78.3712Z" stroke="white" stroke-width="15"/>
</g>
<defs>
<filter id="filter0_d_169_350" x="56.6316" y="48.4812" width="300.646" height="442.334" filterUnits="userSpaceOnUse" color-interpolation-filters="sRGB">
<feFlood flood-opacity="0" result="BackgroundImageFix"/>
<feColorMatrix in="SourceAlpha" type="matrix" values="0 0 0 0 0 0 0 0 0 0 0 0 0 0 0 0 0 0 127 0" result="hardAlpha"/>
<feOffset dy="2.57438"/>
<feGaussianBlur stdDeviation="7.72314"/>
<feComposite in2="hardAlpha" operator="out"/>
<feColorMatrix type="matrix" values="0 0 0 0 0 0 0 0 0 0 0 0 0 0 0 0 0 0 0.25 0"/>
<feBlend mode="normal" in2="BackgroundImageFix" result="effect1_dropShadow_169_350"/>
<feBlend mode="normal" in="SourceGraphic" in2="effect1_dropShadow_169_350" result="shape"/>
</filter>
<filter id="filter1_d_169_350" x="71.6345" y="63.4842" width="270.64" height="412.328" filterUnits="userSpaceOnUse" color-interpolation-filters="sRGB">
<feFlood flood-opacity="0" result="BackgroundImageFix"/>
<feColorMatrix in="SourceAlpha" type="matrix" values="0 0 0 0 0 0 0 0 0 0 0 0 0 0 0 0 0 0 127 0" result="hardAlpha"/>
<feOffset dy="2.57438"/>
<feGaussianBlur stdDeviation="7.72314"/>
<feComposite in2="hardAlpha" operator="out"/>
<feColorMatrix type="matrix" values="0 0 0 0 0 0 0 0 0 0 0 0 0 0 0 0 0 0 0.25 0"/>
<feBlend mode="normal" in2="BackgroundImageFix" result="effect1_dropShadow_169_350"/>
<feBlend mode="normal" in="SourceGraphic" in2="effect1_dropShadow_169_350" result="shape"/>
</filter>
<filter id="filter2_d_169_350" x="274.948" y="236.948" width="138.395" height="138.395" filterUnits="userSpaceOnUse" color-interpolation-filters="sRGB">
<feFlood flood-opacity="0" result="BackgroundImageFix"/>
<feColorMatrix in="SourceAlpha" type="matrix" values="0 0 0 0 0 0 0 0 0 0 0 0 0 0 0 0 0 0 127 0" result="hardAlpha"/>
<feOffset/>
<feGaussianBlur stdDeviation="4.2"/>
<feComposite in2="hardAlpha" operator="out"/>
<feColorMatrix type="matrix" values="0 0 0 0 0 0 0 0 0 0 0 0 0 0 0 0 0 0 0.25 0"/>
<feBlend mode="normal" in2="BackgroundImageFix" result="effect1_dropShadow_169_350"/>
<feBlend mode="normal" in="SourceGraphic" in2="effect1_dropShadow_169_350" result="shape"/>
</filter>
<filter id="filter3_d_169_350" x="60.9976" y="68.9976" width="121.226" height="121.226" filterUnits="userSpaceOnUse" color-interpolation-filters="sRGB">
<feFlood flood-opacity="0" result="BackgroundImageFix"/>
<feColorMatrix in="SourceAlpha" type="matrix" values="0 0 0 0 0 0 0 0 0 0 0 0 0 0 0 0 0 0 127 0" result="hardAlpha"/>
<feOffset/>
<feGaussianBlur stdDeviation="4.2"/>
<feComposite in2="hardAlpha" operator="out"/>
<feColorMatrix type="matrix" values="0 0 0 0 0 0 0 0 0 0 0 0 0 0 0 0 0 0 0.25 0"/>
<feBlend mode="normal" in2="BackgroundImageFix" result="effect1_dropShadow_169_350"/>
<feBlend mode="normal" in="SourceGraphic" in2="effect1_dropShadow_169_350" result="shape"/>
</filter>
<filter id="filter4_d_169_350" x="342.428" y="43.4279" width="141.192" height="141.192" filterUnits="userSpaceOnUse" color-interpolation-filters="sRGB">
<feFlood flood-opacity="0" result="BackgroundImageFix"/>
<feColorMatrix in="SourceAlpha" type="matrix" values="0 0 0 0 0 0 0 0 0 0 0 0 0 0 0 0 0 0 127 0" result="hardAlpha"/>
<feOffset/>
<feGaussianBlur stdDeviation="4.2"/>
<feComposite in2="hardAlpha" operator="out"/>
<feColorMatrix type="matrix" values="0 0 0 0 0 0 0 0 0 0 0 0 0 0 0 0 0 0 0.25 0"/>
<feBlend mode="normal" in2="BackgroundImageFix" result="effect1_dropShadow_169_350"/>
<feBlend mode="normal" in="SourceGraphic" in2="effect1_dropShadow_169_350" result="shape"/>
</filter>
<linearGradient id="paint0_linear_169_350" x1="176.858" y1="264.552" x2="227.811" y2="292.194" gradientUnits="userSpaceOnUse">
<stop stop-color="#181310"/>
<stop offset="0.575" stop-color="#3C4851"/>
<stop offset="1" stop-color="#181310"/>
</linearGradient>
<linearGradient id="paint1_linear_169_350" x1="254.893" y1="120.846" x2="303.53" y2="147.232" gradientUnits="userSpaceOnUse">
<stop stop-color="#F0F1F4"/>
<stop offset="0.16" stop-color="white"/>
<stop offset="0.795" stop-color="white"/>
<stop offset="1" stop-color="#F0F1F4"/>
</linearGradient>
<linearGradient id="paint2_linear_169_350" x1="176.858" y1="264.552" x2="227.811" y2="292.194" gradientUnits="userSpaceOnUse">
<stop stop-color="#181310"/>
<stop offset="0.575" stop-color="#3C4851"/>
<stop offset="1" stop-color="#181310"/>
</linearGradient>
<linearGradient id="paint3_linear_169_350" x1="254.893" y1="120.846" x2="303.53" y2="147.232" gradientUnits="userSpaceOnUse">
<stop stop-color="#F0F1F4"/>
<stop offset="0.16" stop-color="white"/>
<stop offset="0.795" stop-color="white"/>
<stop offset="1" stop-color="#F0F1F4"/>
</linearGradient>
<linearGradient id="paint4_linear_169_350" x1="332.28" y1="260.677" x2="353.28" y2="347.177" gradientUnits="userSpaceOnUse">
<stop stop-color="#A91EEB"/>
<stop offset="1" stop-color="#421E8F"/>
</linearGradient>
<linearGradient id="paint5_linear_169_350" x1="85" y1="110" x2="155.5" y2="147.5" gradientUnits="userSpaceOnUse">
<stop stop-color="#EBBE1E"/>
<stop offset="1" stop-color="#FF7338"/>
</linearGradient>
<linearGradient id="paint6_linear_169_350" x1="413" y1="62.5" x2="413" y2="163" gradientUnits="userSpaceOnUse">
<stop stop-color="#48B3FF"/>
<stop offset="1" stop-color="#2599EA"/>
</linearGradient>
</defs>
</svg>
