<svg width="512" height="512" viewBox="0 0 512 512" fill="none" xmlns="http://www.w3.org/2000/svg">
<g filter="url(#filter0_d_147_433)">
<path d="M365.885 273.138C253.167 262.853 197 228.972 98.6344 160C84.6962 184.201 75 227.52 75 228.972C191.96 320.329 328 345 365.885 343V361.755L447 290L365.885 243.492C366.289 253.374 366.85 273.226 365.885 273.138Z" fill="#FDA7F0"/>
<path d="M103.514 153.04L95.9062 147.706L91.2687 155.758C83.7808 168.759 77.6467 186.431 73.4417 200.598C71.3132 207.769 69.629 214.216 68.4725 218.981C67.8947 221.362 67.443 223.347 67.1308 224.811C66.9759 225.537 66.8475 226.172 66.7537 226.68C66.7076 226.929 66.6607 227.197 66.6221 227.455C66.6217 227.458 66.621 227.462 66.6201 227.468C66.6027 227.58 66.5 228.239 66.5 228.972V233.118L69.7677 235.67C129.19 282.085 193.377 311.506 247.469 329.079C294.461 344.346 334.41 350.852 357.385 351.547V361.755V380.623L371.517 368.122L452.632 296.366L461.504 288.518L451.228 282.626L370.113 236.118L356.763 228.464L357.392 243.839C357.592 248.733 357.83 256.077 357.899 262.15C357.905 262.722 357.91 263.278 357.914 263.815C306.717 258.431 267.733 247.812 230.395 230.838C190.767 212.824 152.714 187.538 103.514 153.04ZM357.758 271.135C357.752 271.178 357.752 271.167 357.761 271.111C357.76 271.12 357.759 271.128 357.758 271.135Z" stroke="white" stroke-width="17"/>
</g>
<defs>
<filter id="filter0_d_147_433" x="52" y="129.411" width="430.008" height="276.079" filterUnits="userSpaceOnUse" color-interpolation-filters="sRGB">
<feFlood flood-opacity="0" result="BackgroundImageFix"/>
<feColorMatrix in="SourceAlpha" type="matrix" values="0 0 0 0 0 0 0 0 0 0 0 0 0 0 0 0 0 0 127 0" result="hardAlpha"/>
<feOffset/>
<feGaussianBlur stdDeviation="3"/>
<feComposite in2="hardAlpha" operator="out"/>
<feColorMatrix type="matrix" values="0 0 0 0 0 0 0 0 0 0 0 0 0 0 0 0 0 0 0.25 0"/>
<feBlend mode="normal" in2="BackgroundImageFix" result="effect1_dropShadow_147_433"/>
<feBlend mode="normal" in="SourceGraphic" in2="effect1_dropShadow_147_433" result="shape"/>
</filter>
</defs>
</svg>
