<svg width="512" height="512" viewBox="0 0 512 512" fill="none" xmlns="http://www.w3.org/2000/svg">
<g filter="url(#filter0_d_147_7)">
<path d="M256 96L275.7 201.874L358.846 133.433L305.883 227.2L413.569 228.216L312.725 266.002L394.564 336L293.025 300.124L310.723 406.351L256 313.6L201.277 406.351L218.975 300.124L117.436 336L199.275 266.002L98.4307 228.216L206.117 227.2L153.154 133.433L236.3 201.874L256 96Z" fill="#ED2A59"/>
<path fill-rule="evenodd" clip-rule="evenodd" d="M256 66C270.452 66 282.85 76.3038 285.494 90.512L295.892 146.396L339.78 110.271C350.938 101.086 367.059 101.162 378.13 110.452C389.201 119.741 392.075 135.604 384.967 148.187L357.011 197.681L413.852 198.218C428.304 198.354 440.604 208.774 443.113 223.007C445.623 237.239 437.629 251.238 424.095 256.309L370.866 276.254L414.064 313.202C425.046 322.595 427.771 338.484 420.545 351C413.319 363.516 398.196 369.101 384.57 364.286L330.973 345.35L340.315 401.42C342.69 415.676 334.564 429.599 320.984 434.542C307.403 439.484 292.229 434.042 284.885 421.595L256 372.638L227.115 421.595C219.771 434.042 204.597 439.484 191.016 434.542C177.436 429.599 169.31 415.676 171.685 401.42L181.027 345.35L127.43 364.286C113.804 369.101 98.6812 363.516 91.4551 351C84.2291 338.484 86.9535 322.595 97.9363 313.202L141.134 276.254L87.9046 256.309C74.3713 251.238 66.3769 237.239 68.8865 223.007C71.3961 208.774 83.6962 198.354 98.1476 198.218L154.989 197.681L127.033 148.187C119.925 135.604 122.799 119.741 133.87 110.452C144.941 101.162 161.062 101.086 172.22 110.271L216.108 146.396L226.506 90.512C229.15 76.3038 241.548 66 256 66ZM236.3 201.874L153.154 133.433L206.117 227.2L98.4307 228.216L199.275 266.002L117.436 336L218.975 300.124L201.277 406.351L256 313.6L310.723 406.351L293.025 300.124L394.564 336L312.725 266.002L413.569 228.216L305.883 227.2L358.846 133.433L275.7 201.874L256 96L236.3 201.874Z" fill="white"/>
</g>
<defs>
<filter id="filter0_d_147_7" x="62.428" y="60" width="387.144" height="382.355" filterUnits="userSpaceOnUse" color-interpolation-filters="sRGB">
<feFlood flood-opacity="0" result="BackgroundImageFix"/>
<feColorMatrix in="SourceAlpha" type="matrix" values="0 0 0 0 0 0 0 0 0 0 0 0 0 0 0 0 0 0 127 0" result="hardAlpha"/>
<feOffset/>
<feGaussianBlur stdDeviation="3"/>
<feComposite in2="hardAlpha" operator="out"/>
<feColorMatrix type="matrix" values="0 0 0 0 0 0 0 0 0 0 0 0 0 0 0 0 0 0 0.25 0"/>
<feBlend mode="normal" in2="BackgroundImageFix" result="effect1_dropShadow_147_7"/>
<feBlend mode="normal" in="SourceGraphic" in2="effect1_dropShadow_147_7" result="shape"/>
</filter>
</defs>
</svg>
