<svg width="512" height="512" viewBox="0 0 512 512" fill="none" xmlns="http://www.w3.org/2000/svg">
<g filter="url(#filter0_d_147_2)">
<path d="M452.244 183.689L62.3983 240.75C60.7589 240.99 59.6245 242.514 59.8644 244.153L61.0954 252.564C61.3354 254.203 60.2009 255.727 58.5615 255.967L28.3831 260.384C26.7437 260.624 25.6092 262.147 25.8492 263.787L28.6009 282.586C28.8408 284.226 30.3643 285.36 32.0037 285.12L73.5609 279.038C75.2003 278.798 76.3348 277.274 76.0948 275.635L74.9362 267.719C74.6963 266.08 75.8307 264.556 77.4701 264.316L124.964 257.365C126.603 257.125 128.127 258.259 128.367 259.898L129.526 267.814C129.765 269.453 131.289 270.588 132.928 270.348L140.844 269.189C142.483 268.949 144.007 270.084 144.247 271.723L145.55 280.628C145.79 282.268 147.314 283.402 148.953 283.162L155.385 282.221C157.024 281.981 158.548 283.115 158.787 284.755L159.946 292.67C160.186 294.31 161.71 295.444 163.349 295.204L168.791 294.408C170.43 294.168 171.954 295.302 172.194 296.942L173.497 305.847C173.737 307.486 175.261 308.621 176.9 308.381L265.456 295.419C267.096 295.179 268.23 293.655 267.99 292.016L266.687 283.111C266.447 281.472 267.581 279.948 269.221 279.708L271.694 279.346C273.334 279.106 274.468 277.583 274.228 275.943L273.07 268.027C272.83 266.388 273.964 264.865 275.604 264.625L280.056 263.973C281.696 263.733 282.83 262.209 282.59 260.57L281.287 251.665C281.047 250.026 282.181 248.502 283.821 248.262L315.483 243.628C317.123 243.388 318.646 244.522 318.886 246.162L320.769 259.025C321.009 260.664 322.532 261.798 324.172 261.558L329.614 260.762C331.253 260.522 332.777 261.656 333.017 263.296L333.741 268.243C333.981 269.882 335.504 271.017 337.144 270.777L430.152 257.163C431.792 256.923 432.926 255.4 432.686 253.761L431.745 247.329C431.505 245.69 432.64 244.166 434.279 243.926L444.668 242.406C446.308 242.166 447.442 240.642 447.202 239.003L446.116 231.582C445.876 229.942 447.01 228.419 448.65 228.179L458.544 226.731C460.184 226.491 461.318 224.967 461.078 223.328L455.647 186.223C455.407 184.584 453.884 183.449 452.244 183.689Z" fill="white"/>
<path d="M65.7125 244.946L448.632 188.898L450.805 203.74L67.8849 259.788L65.7125 244.946Z" fill="black"/>
<path d="M31.275 265.146L67.8849 259.788L70.0573 274.63L33.4474 279.988L31.275 265.146Z" fill="black"/>
<path d="M134.179 250.084L450.805 203.74L452.977 218.582L136.351 264.926L134.179 250.084Z" fill="black"/>
<path d="M324.348 237.409L437.146 220.899L439.318 235.741L326.52 252.251L324.348 237.409Z" fill="black"/>
<path d="M339.383 250.369L424.476 237.914L426.649 252.755L341.556 265.21L339.383 250.369Z" fill="black"/>
<path d="M162.27 276.292L267.153 260.941L269.325 275.783L164.443 291.134L162.27 276.292Z" fill="black"/>
<path d="M176.316 289.396L261.409 276.941L263.582 291.783L178.489 304.238L176.316 289.396Z" fill="black"/>
<path d="M149.214 263.044L274.875 244.651L277.047 259.493L151.386 277.885L149.214 263.044Z" fill="black"/>
<path d="M155.947 246.898L170.788 244.726L172.961 259.568L158.119 261.74L155.947 246.898Z" fill="white"/>
<path d="M330.091 221.409L344.933 219.237L347.105 234.078L332.263 236.251L330.091 221.409Z" fill="white"/>
<path d="M172.961 259.568L187.803 257.395L189.975 272.237L175.133 274.41L172.961 259.568Z" fill="white"/>
<path d="M347.105 234.078L361.947 231.906L364.12 246.748L349.278 248.92L347.105 234.078Z" fill="white"/>
<path d="M189.975 272.237L204.817 270.065L206.989 284.907L192.147 287.079L189.975 272.237Z" fill="white"/>
<path d="M185.63 242.553L200.472 240.381L202.645 255.223L187.803 257.395L185.63 242.553Z" fill="white"/>
<path d="M359.775 217.064L374.617 214.892L376.789 229.734L361.947 231.906L359.775 217.064Z" fill="white"/>
<path d="M202.645 255.223L217.486 253.051L219.659 267.892L204.817 270.065L202.645 255.223Z" fill="white"/>
<path d="M376.789 229.734L391.631 227.561L393.803 242.403L378.961 244.576L376.789 229.734Z" fill="white"/>
<path d="M219.659 267.892L234.501 265.72L236.673 280.562L221.831 282.734L219.659 267.892Z" fill="white"/>
</g>
<defs>
<filter id="filter0_d_147_2" x="19.8172" y="177.657" width="447.293" height="136.755" filterUnits="userSpaceOnUse" color-interpolation-filters="sRGB">
<feFlood flood-opacity="0" result="BackgroundImageFix"/>
<feColorMatrix in="SourceAlpha" type="matrix" values="0 0 0 0 0 0 0 0 0 0 0 0 0 0 0 0 0 0 127 0" result="hardAlpha"/>
<feOffset/>
<feGaussianBlur stdDeviation="3"/>
<feComposite in2="hardAlpha" operator="out"/>
<feColorMatrix type="matrix" values="0 0 0 0 0 0 0 0 0 0 0 0 0 0 0 0 0 0 0.25 0"/>
<feBlend mode="normal" in2="BackgroundImageFix" result="effect1_dropShadow_147_2"/>
<feBlend mode="normal" in="SourceGraphic" in2="effect1_dropShadow_147_2" result="shape"/>
</filter>
</defs>
</svg>
