<svg width="512" height="512" viewBox="0 0 512 512" fill="none" xmlns="http://www.w3.org/2000/svg">
<g filter="url(#filter0_d_147_450)">
<path d="M398.023 99V88H387.023H270.558H259.558V99V102.558H256H245V113.558V197.186H241.442H230.442V208.186V211.744H219.605H208.605V222.744V226.302H197.767H186.767V237.302V240.86H183.209H172.209V251.86V255.419H165.093V251.86V240.86H154.093H150.535V237.302V226.302H139.535H135.977V208.186V197.186H124.977H110.419H99.4186V208.186V295.535V306.535H110.419H113.977V310.093V321.093H124.977H128.535V324.651V335.651H139.535H143.093V339.209V350.209H154.093H157.651V353.767V364.767H168.651H172.209V412V423H183.209H212.326H223.326V412V397.442V393.884V386.442V382.884V379.326H226.884H230.442H237.884H241.442H245V412V423H256H285.116H296.116V412V397.442V386.442H285.116H281.558V350.209H285.116H296.116V339.209V335.651H299.674H310.674V324.651V313.814H314.233H325.233V302.814V277.419H328.791H343.349H354.349V266.419V237.302V226.302H343.349H325.233V219.186H372.465H383.465V208.186V193.628V190.07H401.581H412.581V179.07V113.558V102.558H401.581H398.023V99Z" fill="#535353" stroke="white" stroke-width="22"/>
<path d="M285 145V121H309V145H285Z" fill="white"/>
</g>
<defs>
<filter id="filter0_d_147_450" x="82.2186" y="70.8" width="347.563" height="369.4" filterUnits="userSpaceOnUse" color-interpolation-filters="sRGB">
<feFlood flood-opacity="0" result="BackgroundImageFix"/>
<feColorMatrix in="SourceAlpha" type="matrix" values="0 0 0 0 0 0 0 0 0 0 0 0 0 0 0 0 0 0 127 0" result="hardAlpha"/>
<feOffset/>
<feGaussianBlur stdDeviation="3.1"/>
<feComposite in2="hardAlpha" operator="out"/>
<feColorMatrix type="matrix" values="0 0 0 0 0 0 0 0 0 0 0 0 0 0 0 0 0 0 0.25 0"/>
<feBlend mode="normal" in2="BackgroundImageFix" result="effect1_dropShadow_147_450"/>
<feBlend mode="normal" in="SourceGraphic" in2="effect1_dropShadow_147_450" result="shape"/>
</filter>
</defs>
</svg>
