<svg width="512" height="512" viewBox="0 0 512 512" fill="none" xmlns="http://www.w3.org/2000/svg">
<rect x="25" y="175" width="463" height="163" rx="20" fill="url(#paint0_linear_147_23)"/>
<rect x="38.5" y="188.5" width="436" height="136" rx="8.5" stroke="#2C2C2C" stroke-width="3"/>
<path d="M83.864 233.048H93.464V270.68H116.312V279H83.864V233.048ZM140.909 244.056C151.213 244.056 158.317 250.84 158.317 261.976C158.317 273.112 151.213 279.896 140.909 279.896C130.605 279.896 123.501 273.112 123.501 261.976C123.501 250.712 130.797 244.056 140.909 244.056ZM132.717 261.976C132.717 268.696 135.469 272.344 140.909 272.344C146.477 272.344 149.101 268.44 149.101 261.976C149.101 255.512 146.413 251.608 140.845 251.608C135.661 251.608 132.717 255.32 132.717 261.976ZM197.186 257.112H188.098C187.586 254.04 185.858 251.608 182.338 251.608C177.474 251.608 175.042 255.384 175.042 261.976C175.042 270.36 178.178 272.536 181.954 272.536C185.346 272.536 187.714 269.912 188.034 266.584H197.122C196.098 274.008 191.042 279.896 181.57 279.896C171.074 279.896 165.826 273.048 165.826 262.936C165.826 250.712 171.65 244.056 182.146 244.056C190.274 244.056 196.674 248.792 197.186 257.112ZM234.156 253.656V272.664C234.156 275.992 234.861 277.144 236.14 277.656V279H226.476C226.028 277.656 225.708 276.44 225.644 274.968C222.38 278.488 218.988 279.896 214.636 279.896C208.428 279.896 204.268 276.056 204.268 269.976C204.268 265.56 205.868 260.312 214.956 258.968L221.356 258.008C224.684 257.496 225.389 256.856 225.389 255.128C225.389 252.76 223.917 251.224 219.5 251.224C216.172 251.224 214.316 252.696 213.996 255.96H205.356C206.06 248.792 209.452 244.056 220.332 244.056C229.101 244.056 234.156 247.768 234.156 253.656ZM217.388 273.496C221.356 273.496 225.389 270.808 225.389 266.648V262.424C223.852 263.384 222.444 263.832 218.988 264.344C215.404 264.856 213.228 266.136 213.228 269.4C213.228 271.896 214.892 273.496 217.388 273.496ZM245.591 233.048H254.551V279H245.591V233.048ZM288.064 233.048H320.768V241.176H297.664V251.544H317.888V259.672H297.664V279H288.064V233.048ZM329.941 232.6H338.901V240.92H329.941V232.6ZM329.941 244.952H338.901V279H329.941V244.952ZM368.682 244.056C369.13 244.056 369.706 244.12 370.41 244.184V253.272C369.898 253.208 369.066 253.144 367.978 253.144C363.114 253.144 359.594 255.128 359.594 261.08V279H350.634V244.952H359.21V250.84H359.338C361.962 245.656 364.778 244.056 368.682 244.056ZM390.571 244.056C400.811 244.056 405.483 248.408 405.867 255.32H397.099C396.587 251.928 394.603 250.84 391.019 250.84C387.627 250.84 385.579 251.672 385.579 254.168C385.579 256.472 389.931 257.24 394.219 258.072C404.075 259.928 406.891 263.32 406.891 268.12C406.891 276.44 400.107 279.896 391.787 279.896C381.739 279.896 375.595 275.352 375.595 268.12H384.811C384.811 270.872 386.475 273.112 392.171 273.112C395.755 273.112 397.931 271.64 397.931 269.592C397.931 267.352 394.923 266.584 388.715 265.432C380.779 264.024 376.811 261.016 376.811 255.448C376.811 248.728 381.803 244.056 390.571 244.056ZM417.686 235.736H426.646V244.952H432.214V251.352H426.646V270.36C426.646 272.152 427.414 272.6 430.294 272.6C430.678 272.6 431.318 272.536 432.214 272.472V279.256C430.422 279.32 428.758 279.384 427.414 279.384C418.838 279.384 417.686 276.504 417.686 271.96V251.352H413.078V244.952H417.686V235.736Z" fill="#2C2C2C"/>
<defs>
<linearGradient id="paint0_linear_147_23" x1="25" y1="256.5" x2="488" y2="256.5" gradientUnits="userSpaceOnUse">
<stop offset="0.0170935" stop-color="#EEEAF8"/>
<stop offset="0.330988" stop-color="#EAECF8"/>
<stop offset="0.38898" stop-color="#F9F6EB"/>
<stop offset="0.438094" stop-color="#F9EBF5"/>
<stop offset="0.468738" stop-color="#EBF2F9"/>
<stop offset="0.509596" stop-color="#EBF9F9"/>
<stop offset="0.582889" stop-color="#F9F8EB"/>
<stop offset="0.727975" stop-color="#F9EBF8"/>
<stop offset="0.772692" stop-color="#EEEBF9"/>
<stop offset="0.818153" stop-color="#EBF9F7"/>
<stop offset="0.870787" stop-color="#EBF9EC"/>
<stop offset="1" stop-color="#F6F8EA"/>
</linearGradient>
</defs>
</svg>
