<svg width="512" height="512" viewBox="0 0 512 512" fill="none" xmlns="http://www.w3.org/2000/svg">
<g filter="url(#filter0_d_169_355)">
<mask id="path-1-outside-1_169_355" maskUnits="userSpaceOnUse" x="34.0933" y="60.0541" width="444" height="403" fill="black">
<rect fill="white" x="34.0933" y="60.0541" width="444" height="403"/>
<path fill-rule="evenodd" clip-rule="evenodd" d="M272.276 96.6743L255.921 83.0541L239.566 96.6743L220.591 87.0348L207.677 103.953L187.032 98.7775L178.207 118.145L156.928 117.693L152.634 138.539L131.788 142.833L132.24 164.112L112.872 172.938L118.047 193.582L101.129 206.496L110.769 225.472L97.1487 241.826L110.769 258.181L101.129 277.156L118.047 290.07L112.872 310.715L120.263 314.083L69.0933 365.252L120.926 376.167L131.841 428L183.255 376.586L187.032 384.875L207.677 379.7L220.591 396.618L239.566 386.978L255.921 400.598L272.276 386.978L291.251 396.618L304.165 379.7L324.81 384.875L328.909 375.88L381.029 428L391.944 376.167L443.777 365.252L392.286 313.761L398.97 310.715L393.794 290.07L410.712 277.156L401.073 258.181L414.693 241.826L401.073 225.472L410.712 206.496L393.794 193.582L398.97 172.938L379.602 164.112L380.054 142.833L359.208 138.539L354.914 117.693L333.635 118.145L324.81 98.7775L304.165 103.953L291.251 87.0348L272.276 96.6743Z"/>
</mask>
<path fill-rule="evenodd" clip-rule="evenodd" d="M272.276 96.6743L255.921 83.0541L239.566 96.6743L220.591 87.0348L207.677 103.953L187.032 98.7775L178.207 118.145L156.928 117.693L152.634 138.539L131.788 142.833L132.24 164.112L112.872 172.938L118.047 193.582L101.129 206.496L110.769 225.472L97.1487 241.826L110.769 258.181L101.129 277.156L118.047 290.07L112.872 310.715L120.263 314.083L69.0933 365.252L120.926 376.167L131.841 428L183.255 376.586L187.032 384.875L207.677 379.7L220.591 396.618L239.566 386.978L255.921 400.598L272.276 386.978L291.251 396.618L304.165 379.7L324.81 384.875L328.909 375.88L381.029 428L391.944 376.167L443.777 365.252L392.286 313.761L398.97 310.715L393.794 290.07L410.712 277.156L401.073 258.181L414.693 241.826L401.073 225.472L410.712 206.496L393.794 193.582L398.97 172.938L379.602 164.112L380.054 142.833L359.208 138.539L354.914 117.693L333.635 118.145L324.81 98.7775L304.165 103.953L291.251 87.0348L272.276 96.6743Z" fill="url(#paint0_linear_169_355)" shape-rendering="crispEdges"/>
<path d="M255.921 83.0541L266.8 69.9909L255.921 60.9308L245.042 69.9909L255.921 83.0541ZM272.276 96.6743L261.397 109.737L269.997 116.9L279.975 111.831L272.276 96.6743ZM239.566 96.6743L231.867 111.831L241.845 116.9L250.445 109.737L239.566 96.6743ZM220.591 87.0348L228.29 71.8784L215.668 65.4662L207.078 76.72L220.591 87.0348ZM207.677 103.953L203.543 120.443L214.399 123.164L221.19 114.268L207.677 103.953ZM187.032 98.7775L191.166 82.2877L177.433 78.8451L171.563 91.7282L187.032 98.7775ZM178.207 118.145L177.846 135.141L189.035 135.379L193.676 125.194L178.207 118.145ZM156.928 117.693L157.289 100.697L143.134 100.396L140.278 114.263L156.928 117.693ZM152.634 138.539L156.064 155.189L167.026 152.931L169.284 141.969L152.634 138.539ZM131.788 142.833L128.358 126.183L114.491 129.04L114.792 143.194L131.788 142.833ZM132.24 164.112L139.289 179.582L149.473 174.941L149.236 163.751L132.24 164.112ZM112.872 172.938L105.823 157.468L92.9398 163.339L96.3824 177.071L112.872 172.938ZM118.047 193.582L128.362 207.095L137.259 200.305L134.537 189.448L118.047 193.582ZM101.129 206.496L90.8146 192.983L79.5609 201.573L85.973 214.196L101.129 206.496ZM110.769 225.472L123.832 236.351L130.994 227.75L125.925 217.772L110.769 225.472ZM97.1487 241.826L84.0856 230.947L75.0255 241.826L84.0856 252.705L97.1487 241.826ZM110.769 258.181L125.925 265.88L130.994 255.902L123.832 247.302L110.769 258.181ZM101.129 277.156L85.973 269.457L79.5609 282.079L90.8146 290.669L101.129 277.156ZM118.047 290.07L134.537 294.204L137.259 283.348L128.362 276.557L118.047 290.07ZM112.872 310.715L96.3824 306.581L92.9398 320.314L105.823 326.184L112.872 310.715ZM120.263 314.083L132.283 326.103L149.612 308.775L127.312 298.613L120.263 314.083ZM69.0933 365.252L57.0725 353.231L34.8831 375.42L65.5902 381.887L69.0933 365.252ZM120.926 376.167L137.561 372.664L135.277 361.816L124.429 359.532L120.926 376.167ZM131.841 428L115.206 431.503L121.673 462.21L143.862 440.021L131.841 428ZM183.255 376.586L198.725 369.537L188.563 347.237L171.234 364.565L183.255 376.586ZM187.032 384.875L171.563 391.924L177.433 404.807L191.166 401.365L187.032 384.875ZM207.677 379.7L221.19 369.385L214.399 360.488L203.543 363.21L207.677 379.7ZM220.591 396.618L207.078 406.932L215.668 418.186L228.29 411.774L220.591 396.618ZM239.566 386.978L250.445 373.915L241.845 366.753L231.867 371.822L239.566 386.978ZM255.921 400.598L245.042 413.661L255.921 422.722L266.8 413.661L255.921 400.598ZM272.276 386.978L279.975 371.822L269.997 366.753L261.397 373.915L272.276 386.978ZM291.251 396.618L283.552 411.774L296.174 418.186L304.764 406.932L291.251 396.618ZM304.165 379.7L308.299 363.21L297.443 360.488L290.652 369.385L304.165 379.7ZM324.81 384.875L320.676 401.365L334.408 404.807L340.279 391.924L324.81 384.875ZM328.909 375.88L340.929 363.859L323.601 346.53L313.439 368.83L328.909 375.88ZM381.029 428L369.008 440.021L391.197 462.21L397.664 431.503L381.029 428ZM391.944 376.167L388.441 359.532L377.593 361.816L375.309 372.664L391.944 376.167ZM443.777 365.252L447.28 381.887L477.987 375.42L455.798 353.231L443.777 365.252ZM392.286 313.761L385.236 298.291L362.936 308.453L380.265 325.781L392.286 313.761ZM398.97 310.715L406.019 326.184L418.902 320.314L415.459 306.581L398.97 310.715ZM393.794 290.07L383.479 276.557L374.583 283.348L377.305 294.204L393.794 290.07ZM410.712 277.156L421.027 290.669L432.281 282.079L425.869 269.457L410.712 277.156ZM401.073 258.181L388.01 247.302L380.847 255.902L385.916 265.88L401.073 258.181ZM414.693 241.826L427.756 252.705L436.816 241.826L427.756 230.947L414.693 241.826ZM401.073 225.472L385.916 217.772L380.847 227.75L388.01 236.351L401.073 225.472ZM410.712 206.496L425.869 214.196L432.281 201.573L421.027 192.983L410.712 206.496ZM393.794 193.582L377.305 189.448L374.583 200.305L383.479 207.095L393.794 193.582ZM398.97 172.938L415.459 177.071L418.902 163.339L406.019 157.468L398.97 172.938ZM379.602 164.112L362.606 163.751L362.368 174.941L372.553 179.582L379.602 164.112ZM380.054 142.833L397.05 143.194L397.351 129.04L383.484 126.183L380.054 142.833ZM359.208 138.539L342.558 141.969L344.816 152.931L355.778 155.189L359.208 138.539ZM354.914 117.693L371.564 114.263L368.707 100.396L354.553 100.697L354.914 117.693ZM333.635 118.145L318.165 125.194L322.806 135.379L333.996 135.141L333.635 118.145ZM324.81 98.7775L340.279 91.7282L334.408 78.8451L320.676 82.2877L324.81 98.7775ZM304.165 103.953L290.652 114.268L297.443 123.164L308.299 120.443L304.165 103.953ZM291.251 87.0348L304.764 76.72L296.174 65.4662L283.552 71.8784L291.251 87.0348ZM245.042 96.1172L261.397 109.737L283.155 83.6111L266.8 69.9909L245.042 96.1172ZM250.445 109.737L266.8 96.1172L245.042 69.9909L228.687 83.6111L250.445 109.737ZM212.891 102.191L231.867 111.831L247.266 81.5178L228.29 71.8784L212.891 102.191ZM221.19 114.268L234.104 97.3497L207.078 76.72L194.164 93.638L221.19 114.268ZM182.898 115.267L203.543 120.443L211.811 87.4631L191.166 82.2877L182.898 115.267ZM193.676 125.194L202.502 105.827L171.563 91.7282L162.737 111.096L193.676 125.194ZM156.567 134.689L177.846 135.141L178.568 101.149L157.289 100.697L156.567 134.689ZM169.284 141.969L173.578 121.123L140.278 114.263L135.983 135.109L169.284 141.969ZM135.218 159.484L156.064 155.189L149.203 121.889L128.358 126.183L135.218 159.484ZM149.236 163.751L148.784 142.473L114.792 143.194L115.243 164.473L149.236 163.751ZM119.921 188.407L139.289 179.582L125.19 148.643L105.823 157.468L119.921 188.407ZM134.537 189.448L129.362 168.804L96.3824 177.071L101.558 197.716L134.537 189.448ZM111.444 220.009L128.362 207.095L107.733 180.069L90.8146 192.983L111.444 220.009ZM125.925 217.772L116.286 198.797L85.973 214.196L95.6125 233.171L125.925 217.772ZM110.212 252.705L123.832 236.351L97.7058 214.592L84.0856 230.947L110.212 252.705ZM123.832 247.302L110.212 230.947L84.0856 252.705L97.7058 269.06L123.832 247.302ZM116.286 284.856L125.925 265.88L95.6125 250.481L85.973 269.457L116.286 284.856ZM128.362 276.557L111.444 263.643L90.8146 290.669L107.733 303.583L128.362 276.557ZM129.362 314.849L134.537 294.204L101.558 285.936L96.3824 306.581L129.362 314.849ZM127.312 298.613L119.921 295.245L105.823 326.184L113.213 329.552L127.312 298.613ZM81.1141 377.273L132.283 326.103L108.242 302.062L57.0725 353.231L81.1141 377.273ZM124.429 359.532L72.5965 348.617L65.5902 381.887L117.423 392.802L124.429 359.532ZM148.476 424.497L137.561 372.664L104.291 379.67L115.206 431.503L148.476 424.497ZM171.234 364.565L119.821 415.979L143.862 440.021L195.276 388.607L171.234 364.565ZM202.502 377.826L198.725 369.537L167.786 383.635L171.563 391.924L202.502 377.826ZM203.543 363.21L182.898 368.385L191.166 401.365L211.811 396.189L203.543 363.21ZM234.104 386.303L221.19 369.385L194.164 390.014L207.078 406.932L234.104 386.303ZM231.867 371.822L212.891 381.461L228.29 411.774L247.266 402.135L231.867 371.822ZM266.8 387.535L250.445 373.915L228.687 400.041L245.042 413.661L266.8 387.535ZM261.397 373.915L245.042 387.535L266.8 413.661L283.155 400.041L261.397 373.915ZM298.95 381.461L279.975 371.822L264.576 402.135L283.552 411.774L298.95 381.461ZM290.652 369.385L277.738 386.303L304.764 406.932L317.678 390.014L290.652 369.385ZM328.943 368.385L308.299 363.21L300.031 396.189L320.676 401.365L328.943 368.385ZM313.439 368.83L309.34 377.826L340.279 391.924L344.378 382.929L313.439 368.83ZM393.05 415.979L340.929 363.859L316.888 387.901L369.008 440.021L393.05 415.979ZM375.309 372.664L364.394 424.497L397.664 431.503L408.579 379.67L375.309 372.664ZM440.274 348.617L388.441 359.532L395.447 392.802L447.28 381.887L440.274 348.617ZM380.265 325.781L431.756 377.273L455.798 353.231L404.306 301.74L380.265 325.781ZM391.92 295.245L385.236 298.291L399.335 329.23L406.019 326.184L391.92 295.245ZM377.305 294.204L382.48 314.849L415.459 306.581L410.284 285.936L377.305 294.204ZM400.397 263.643L383.479 276.557L404.109 303.583L421.027 290.669L400.397 263.643ZM385.916 265.88L395.556 284.856L425.869 269.457L416.229 250.481L385.916 265.88ZM401.63 230.947L388.01 247.302L414.136 269.06L427.756 252.705L401.63 230.947ZM388.01 236.351L401.63 252.705L427.756 230.947L414.136 214.592L388.01 236.351ZM395.556 198.797L385.916 217.772L416.229 233.171L425.869 214.196L395.556 198.797ZM383.479 207.095L400.397 220.009L421.027 192.983L404.109 180.069L383.479 207.095ZM382.48 168.804L377.305 189.448L410.284 197.716L415.459 177.071L382.48 168.804ZM372.553 179.582L391.92 188.407L406.019 157.468L386.651 148.643L372.553 179.582ZM363.058 142.473L362.606 163.751L396.598 164.473L397.05 143.194L363.058 142.473ZM355.778 155.189L376.624 159.484L383.484 126.183L362.638 121.889L355.778 155.189ZM338.263 121.123L342.558 141.969L375.859 135.109L371.564 114.263L338.263 121.123ZM333.996 135.141L355.275 134.689L354.553 100.697L333.274 101.149L333.996 135.141ZM309.34 105.827L318.165 125.194L349.105 111.096L340.279 91.7282L309.34 105.827ZM308.299 120.443L328.943 115.267L320.676 82.2877L300.031 87.4631L308.299 120.443ZM277.738 97.3497L290.652 114.268L317.678 93.638L304.764 76.72L277.738 97.3497ZM279.975 111.831L298.95 102.191L283.552 71.8784L264.576 81.5178L279.975 111.831Z" fill="white" mask="url(#path-1-outside-1_169_355)"/>
</g>
<path d="M172.983 261.363L235.731 324.111L131.841 428L120.926 376.167L69.0934 365.252L172.983 261.363Z" fill="#314E85"/>
<path d="M339.887 261.363L277.139 324.111L381.029 428L391.944 376.167L443.777 365.252L339.887 261.363Z" fill="#314E85"/>
<g filter="url(#filter1_d_169_355)">
<path d="M255.921 83.0541L272.276 96.6743L291.251 87.0348L304.165 103.953L324.81 98.7775L333.635 118.145L354.914 117.693L359.208 138.539L380.054 142.833L379.602 164.112L398.97 172.938L393.794 193.582L410.712 206.496L401.073 225.472L414.693 241.826L401.073 258.181L410.712 277.156L393.794 290.07L398.97 310.715L379.602 319.54L380.054 340.819L359.208 345.114L354.914 365.959L333.635 365.508L324.81 384.875L304.165 379.7L291.251 396.618L272.276 386.978L255.921 400.598L239.566 386.978L220.591 396.618L207.677 379.7L187.032 384.875L178.207 365.508L156.928 365.959L152.634 345.114L131.788 340.819L132.24 319.54L112.872 310.715L118.047 290.07L101.129 277.156L110.769 258.181L97.1487 241.826L110.769 225.472L101.129 206.496L118.047 193.582L112.872 172.938L132.24 164.112L131.788 142.833L152.634 138.539L156.928 117.693L178.207 118.145L187.032 98.7775L207.677 103.953L220.591 87.0348L239.566 96.6743L255.921 83.0541Z" fill="#314E85"/>
</g>
<circle cx="256.252" cy="241.196" r="134.272" fill="#FFD56A" stroke="#FFD56A" stroke-width="6"/>
<circle cx="256.252" cy="241.196" r="132.154" fill="url(#paint1_linear_169_355)" stroke="#B38B24" stroke-width="2"/>
<defs>
<filter id="filter0_d_169_355" x="24.8831" y="50.9308" width="463.104" height="421.279" filterUnits="userSpaceOnUse" color-interpolation-filters="sRGB">
<feFlood flood-opacity="0" result="BackgroundImageFix"/>
<feColorMatrix in="SourceAlpha" type="matrix" values="0 0 0 0 0 0 0 0 0 0 0 0 0 0 0 0 0 0 127 0" result="hardAlpha"/>
<feOffset/>
<feGaussianBlur stdDeviation="5"/>
<feComposite in2="hardAlpha" operator="out"/>
<feColorMatrix type="matrix" values="0 0 0 0 0 0 0 0 0 0 0 0 0 0 0 0 0 0 0.25 0"/>
<feBlend mode="normal" in2="BackgroundImageFix" result="effect1_dropShadow_169_355"/>
<feBlend mode="normal" in="SourceGraphic" in2="effect1_dropShadow_169_355" result="shape"/>
</filter>
<filter id="filter1_d_169_355" x="93.1487" y="83.0541" width="325.544" height="325.544" filterUnits="userSpaceOnUse" color-interpolation-filters="sRGB">
<feFlood flood-opacity="0" result="BackgroundImageFix"/>
<feColorMatrix in="SourceAlpha" type="matrix" values="0 0 0 0 0 0 0 0 0 0 0 0 0 0 0 0 0 0 127 0" result="hardAlpha"/>
<feOffset dy="4"/>
<feGaussianBlur stdDeviation="2"/>
<feComposite in2="hardAlpha" operator="out"/>
<feColorMatrix type="matrix" values="0 0 0 0 0 0 0 0 0 0 0 0 0 0 0 0 0 0 0.25 0"/>
<feBlend mode="normal" in2="BackgroundImageFix" result="effect1_dropShadow_169_355"/>
<feBlend mode="normal" in="SourceGraphic" in2="effect1_dropShadow_169_355" result="shape"/>
</filter>
<linearGradient id="paint0_linear_169_355" x1="168.596" y1="141.302" x2="354.823" y2="329.183" gradientUnits="userSpaceOnUse">
<stop stop-color="#EFC863"/>
<stop offset="0.520833" stop-color="#FFD772" stop-opacity="0.5"/>
<stop offset="1" stop-color="#EFC863"/>
</linearGradient>
<linearGradient id="paint1_linear_169_355" x1="168.596" y1="141.302" x2="354.823" y2="329.183" gradientUnits="userSpaceOnUse">
<stop stop-color="#EFC863"/>
<stop offset="0.520833" stop-color="#FFD772" stop-opacity="0.5"/>
<stop offset="1" stop-color="#EFC863"/>
</linearGradient>
</defs>
</svg>
