<svg width="512" height="512" viewBox="0 0 512 512" fill="none" xmlns="http://www.w3.org/2000/svg">
<g filter="url(#filter0_d_147_502)">
<mask id="path-1-outside-1_147_502" maskUnits="userSpaceOnUse" x="62.4252" y="39.6795" width="359.205" height="422.161" fill="black">
<rect fill="white" x="62.4252" y="39.6795" width="359.205" height="422.161"/>
<path fill-rule="evenodd" clip-rule="evenodd" d="M278.699 80.2519L370.963 133.521C373.081 134.743 372.925 137.85 370.695 138.854L324.195 159.797C323.622 160.055 323.144 160.487 322.829 161.032L303.476 194.552C302.971 195.428 302.94 196.5 303.396 197.403L331.245 252.61C331.7 253.514 331.67 254.585 331.164 255.461L319.397 275.843C318.569 277.277 316.734 277.769 315.299 276.941L182.325 200.168C180.89 199.34 180.399 197.505 181.227 196.07L192.994 175.689C193.5 174.813 194.413 174.251 195.423 174.194L257.158 170.708C258.168 170.651 259.081 170.089 259.587 169.213L278.94 135.693C279.254 135.148 279.39 134.518 279.327 133.892L274.214 83.1507C273.969 80.7177 276.581 79.0292 278.699 80.2519ZM234.995 230.577L157.764 392.383C157.233 393.495 158.793 394.396 159.491 393.38L261.004 245.593L234.995 230.577Z"/>
</mask>
<path fill-rule="evenodd" clip-rule="evenodd" d="M278.699 80.2519L370.963 133.521C373.081 134.743 372.925 137.85 370.695 138.854L324.195 159.797C323.622 160.055 323.144 160.487 322.829 161.032L303.476 194.552C302.971 195.428 302.94 196.5 303.396 197.403L331.245 252.61C331.7 253.514 331.67 254.585 331.164 255.461L319.397 275.843C318.569 277.277 316.734 277.769 315.299 276.941L182.325 200.168C180.89 199.34 180.399 197.505 181.227 196.07L192.994 175.689C193.5 174.813 194.413 174.251 195.423 174.194L257.158 170.708C258.168 170.651 259.081 170.089 259.587 169.213L278.94 135.693C279.254 135.148 279.39 134.518 279.327 133.892L274.214 83.1507C273.969 80.7177 276.581 79.0292 278.699 80.2519ZM234.995 230.577L157.764 392.383C157.233 393.495 158.793 394.396 159.491 393.38L261.004 245.593L234.995 230.577Z" fill="#F0F2F4"/>
<path d="M370.695 138.854L362.482 120.618L362.482 120.618L370.695 138.854ZM324.195 159.797L315.982 141.561L315.982 141.561L324.195 159.797ZM322.829 161.032L305.509 151.032L322.829 161.032ZM303.476 194.552L320.797 204.552L303.476 194.552ZM303.396 197.403L285.539 206.411L285.539 206.411L303.396 197.403ZM331.245 252.61L313.388 261.618L313.388 261.618L331.245 252.61ZM331.164 255.461L348.485 265.461L331.164 255.461ZM319.397 275.843L302.077 265.843L319.397 275.843ZM195.423 174.194L196.55 194.162L196.551 194.162L195.423 174.194ZM257.158 170.708L258.286 190.676L258.286 190.676L257.158 170.708ZM279.327 133.892L299.226 131.887L299.226 131.887L279.327 133.892ZM274.214 83.1507L254.314 85.1558L254.314 85.1558L274.214 83.1507ZM157.764 392.383L139.715 383.768L157.764 392.383ZM234.995 230.577L244.995 213.257L226.263 202.442L216.946 221.962L234.995 230.577ZM159.491 393.38L143.006 382.056L143.006 382.056L159.491 393.38ZM261.004 245.593L277.489 256.917L289.736 239.088L271.004 228.273L261.004 245.593ZM380.963 116.2L288.699 62.9314L268.699 97.5724L360.963 150.841L380.963 116.2ZM378.908 157.09C396.002 149.391 397.199 125.574 380.963 116.2L360.963 150.841C348.963 143.913 349.847 126.309 362.482 120.618L378.908 157.09ZM332.408 178.033L378.908 157.09L362.482 120.618L315.982 141.561L332.408 178.033ZM340.15 171.032C338.367 174.12 335.659 176.569 332.408 178.033L315.982 141.561C311.584 143.542 307.92 146.855 305.509 151.032L340.15 171.032ZM320.797 204.552L340.15 171.032L305.509 151.032L286.156 184.552L320.797 204.552ZM321.253 188.396C323.834 193.514 323.663 199.588 320.797 204.552L286.156 184.552C282.278 191.268 282.046 199.487 285.539 206.411L321.253 188.396ZM349.101 243.603L321.253 188.396L285.539 206.411L313.388 261.618L349.101 243.603ZM348.485 265.461C352.362 258.745 352.594 250.527 349.101 243.603L313.388 261.618C310.806 256.5 310.978 250.426 313.844 245.461L348.485 265.461ZM336.718 285.843L348.485 265.461L313.844 245.461L302.077 265.843L336.718 285.843ZM305.299 294.261C316.3 300.612 330.367 296.843 336.718 285.843L302.077 265.843C306.771 257.712 317.168 254.926 325.299 259.62L305.299 294.261ZM172.325 217.489L305.299 294.261L325.299 259.62L192.325 182.848L172.325 217.489ZM163.907 186.07C157.555 197.071 161.324 211.137 172.325 217.489L192.325 182.848C200.456 187.542 203.242 197.939 198.548 206.07L163.907 186.07ZM175.674 165.689L163.907 186.07L198.548 206.07L210.315 185.689L175.674 165.689ZM194.296 154.225C186.553 154.663 179.551 158.973 175.674 165.689L210.315 185.689C207.449 190.653 202.274 193.839 196.55 194.162L194.296 154.225ZM256.031 150.74L194.296 154.225L196.551 194.162L258.286 190.676L256.031 150.74ZM242.267 159.213C245.133 154.248 250.308 151.063 256.031 150.74L258.286 190.676C266.029 190.239 273.03 185.929 276.908 179.213L242.267 159.213ZM261.619 125.693L242.267 159.213L276.908 179.213L296.26 145.693L261.619 125.693ZM259.427 135.897C259.07 132.35 259.837 128.78 261.619 125.693L296.26 145.693C298.672 141.516 299.709 136.686 299.226 131.887L259.427 135.897ZM254.314 85.1558L259.427 135.897L299.226 131.887L294.113 81.1456L254.314 85.1558ZM288.699 62.9314C272.463 53.5577 252.435 66.503 254.314 85.1558L294.113 81.1456C295.502 94.9325 280.699 104.501 268.699 97.5724L288.699 62.9314ZM175.814 400.998L253.045 239.192L216.946 221.962L139.715 383.768L175.814 400.998ZM143.006 382.056C156.27 362.745 185.903 379.861 175.814 400.998L139.715 383.768C128.564 407.13 161.317 426.046 175.977 404.703L143.006 382.056ZM244.518 234.269L143.006 382.056L175.977 404.703L277.489 256.917L244.518 234.269ZM224.995 247.898L251.004 262.914L271.004 228.273L244.995 213.257L224.995 247.898Z" fill="white" mask="url(#path-1-outside-1_147_502)"/>
<path d="M370.963 133.521L278.699 80.2519C276.581 79.0292 273.969 80.7177 274.214 83.1507L279.327 133.892C279.39 134.518 279.254 135.148 278.94 135.693L259.587 169.213C259.081 170.089 258.168 170.651 257.158 170.708L195.423 174.194C194.413 174.251 193.5 174.813 192.994 175.689L181.227 196.07C180.399 197.505 180.89 199.34 182.325 200.168L315.299 276.941C316.734 277.769 318.569 277.277 319.397 275.843L331.164 255.461C331.67 254.585 331.7 253.514 331.245 252.61L303.396 197.403C302.94 196.5 302.971 195.428 303.476 194.552L322.829 161.032C323.144 160.487 323.622 160.055 324.195 159.797L370.695 138.854C372.925 137.85 373.081 134.743 370.963 133.521Z" fill="#E14B44"/>
<path d="M157.764 392.383L234.995 230.577L261.004 245.593L159.491 393.38C158.793 394.396 157.233 393.495 157.764 392.383Z" fill="#F0F2F4"/>
</g>
<defs>
<filter id="filter0_d_147_502" x="131.443" y="53.8034" width="267.021" height="366.21" filterUnits="userSpaceOnUse" color-interpolation-filters="sRGB">
<feFlood flood-opacity="0" result="BackgroundImageFix"/>
<feColorMatrix in="SourceAlpha" type="matrix" values="0 0 0 0 0 0 0 0 0 0 0 0 0 0 0 0 0 0 127 0" result="hardAlpha"/>
<feOffset/>
<feGaussianBlur stdDeviation="3"/>
<feComposite in2="hardAlpha" operator="out"/>
<feColorMatrix type="matrix" values="0 0 0 0 0 0 0 0 0 0 0 0 0 0 0 0 0 0 0.25 0"/>
<feBlend mode="normal" in2="BackgroundImageFix" result="effect1_dropShadow_147_502"/>
<feBlend mode="normal" in="SourceGraphic" in2="effect1_dropShadow_147_502" result="shape"/>
</filter>
</defs>
</svg>
