<svg width="512" height="512" viewBox="0 0 512 512" fill="none" xmlns="http://www.w3.org/2000/svg">
<g filter="url(#filter0_d_147_16)">
<path d="M252.584 98.7508C253.471 94.5076 259.529 94.5076 260.416 98.7508L284.993 216.447C285.28 217.823 286.269 218.947 287.597 219.408L382.115 252.221C385.699 253.466 385.699 258.534 382.115 259.779L287.597 292.592C286.269 293.053 285.28 294.177 284.993 295.553L260.416 413.249C259.529 417.492 253.471 417.492 252.584 413.249L228.007 295.553C227.72 294.177 226.731 293.053 225.403 292.592L130.885 259.779C127.301 258.534 127.301 253.466 130.885 252.221L225.403 219.408C226.731 218.947 227.72 217.823 228.007 216.447L252.584 98.7508Z" fill="#1BCB4C"/>
<path fill-rule="evenodd" clip-rule="evenodd" d="M228.007 216.447C227.72 217.823 226.731 218.947 225.403 219.408L130.885 252.221C127.301 253.466 127.301 258.534 130.885 259.779L225.403 292.592C226.731 293.053 227.72 294.177 228.007 295.553L252.584 413.249C253.471 417.492 259.529 417.492 260.416 413.249L284.993 295.553C285.28 294.177 286.269 293.053 287.597 292.592L382.115 259.779C385.699 258.534 385.699 253.466 382.115 252.221L287.597 219.408C286.269 218.947 285.28 217.823 284.993 216.447L260.416 98.7508C259.529 94.5076 253.471 94.5076 252.584 98.7508L228.007 216.447ZM311.349 195.897L289.782 92.6184C282.251 56.5516 230.749 56.5519 223.218 92.6184L201.651 195.897L121.046 223.881C90.5801 234.457 90.5802 277.543 121.046 288.12L201.651 316.103L223.218 419.382C230.749 455.448 282.251 455.448 289.782 419.382L311.349 316.103L391.954 288.12C422.42 277.543 422.42 234.457 391.954 223.881L311.349 195.897Z" fill="white"/>
</g>
<defs>
<filter id="filter0_d_147_16" x="92.1966" y="59.5684" width="328.607" height="392.863" filterUnits="userSpaceOnUse" color-interpolation-filters="sRGB">
<feFlood flood-opacity="0" result="BackgroundImageFix"/>
<feColorMatrix in="SourceAlpha" type="matrix" values="0 0 0 0 0 0 0 0 0 0 0 0 0 0 0 0 0 0 127 0" result="hardAlpha"/>
<feOffset/>
<feGaussianBlur stdDeviation="3"/>
<feComposite in2="hardAlpha" operator="out"/>
<feColorMatrix type="matrix" values="0 0 0 0 0 0 0 0 0 0 0 0 0 0 0 0 0 0 0.25 0"/>
<feBlend mode="normal" in2="BackgroundImageFix" result="effect1_dropShadow_147_16"/>
<feBlend mode="normal" in="SourceGraphic" in2="effect1_dropShadow_147_16" result="shape"/>
</filter>
</defs>
</svg>
