<svg xmlns="http://www.w3.org/2000/svg" viewBox="0 0 24 24"><path d="M12.287 3c-2.746 0-4.99.898-6.757 2.717C3.837 7.415 3 9.526 3 12.073c0 2.717.836 4.876 2.53 6.525C7.178 20.2 9.422 21 12.287 21c1.886 0 3.581-.388 5.11-1.14 1.575-.776 2.768-1.892 3.604-3.348h-1.671c-.669.97-1.552 1.723-2.65 2.28-1.241.607-2.721.922-4.392.922-2.34 0-4.178-.655-5.515-1.916-1.432-1.334-2.125-3.227-2.125-5.677 0-2.232.693-4.1 2.101-5.555 1.432-1.48 3.247-2.208 5.443-2.208 2.053 0 3.724.607 4.966 1.844 1.145 1.14 1.718 2.572 1.718 4.294 0 1.504-.43 2.814-1.289 3.93-.74.946-1.48 1.431-2.22 1.431-.454 0-.668-.218-.668-.606 0-.291.095-.777.286-1.48l1.695-6.332h-1.552l-.358 1.359c-.382-1.213-1.146-1.82-2.292-1.82-1.432 0-2.65.631-3.7 1.941-1.098 1.31-1.623 2.887-1.623 4.682 0 1.043.31 1.916.93 2.596.622.679 1.433 1.043 2.436 1.043 1.194 0 2.196-.558 3.008-1.65.095 1.068.644 1.601 1.647 1.601 1.241 0 2.387-.679 3.438-2.013 1.05-1.407 1.6-2.96 1.6-4.706 0-2.087-.67-3.809-2.006-5.192C16.75 3.752 14.769 3 12.287 3Zm.453 5.507c.477 0 .86.194 1.17.582.262.315.406.703.406 1.14 0 .146-.096.534-.24 1.165l-.524 1.989c-.191.63-.573 1.213-1.146 1.698-.573.485-1.17.728-1.767.728s-1.05-.194-1.36-.583c-.31-.388-.454-.897-.454-1.552 0-1.431.406-2.644 1.217-3.663.764-1.02 1.671-1.504 2.698-1.504Z"/></svg>