<svg width="360" height="360" viewBox="0 0 360 360" fill="none" xmlns="http://www.w3.org/2000/svg">
<path d="M60.3154 263.059C53.7866 250.209 50.9679 239.103 49.6161 231.57C43.72 198.98 53.7722 170.708 60.977 150.425C63.9682 142.006 66.9163 135.259 68.9583 130.828C65.435 126.74 58.259 117.264 56.3032 103.37C54.8939 93.3933 56.749 85.2316 58.2446 80.4861C65.8521 78.8852 78.349 77.2129 93.3051 79.7143C104.105 81.5153 112.676 84.9171 118.615 87.8045C130.566 85.6032 144.544 83.8308 160.205 83.3591C183.185 82.6445 203.117 84.9028 218.907 87.8045C227.795 84.0166 243.829 78.5994 264.178 79.4427C275.021 79.8858 284.124 81.9869 290.97 84.1453C291.372 89.7627 291.3 97.7671 289.028 107.029C286.785 116.134 283.204 123.238 280.27 128.084C282.686 134.488 286.209 143.978 290.222 155.571C299.469 182.214 304.085 195.536 307.148 211.673C309.161 222.308 311.232 237.831 310.686 257.27C296.88 262.659 277.135 269.42 252.745 274.637C192.633 287.501 145.306 282.169 131.846 280.411C113.812 278.067 88.9333 273.35 60.3298 263.059H60.3154Z" fill="#FCEAF0"/>
<path d="M219.971 175.224C234.467 168.849 253.594 175.067 261.316 188.746C266.278 197.522 266.752 209.786 259.432 219.349C251.652 229.526 237.933 232.842 226.73 230.026C210.494 225.953 200.399 209.172 203.807 194.435C203.994 193.635 207.172 180.842 219.971 175.21V175.224Z" fill="#F7D0DD"/>
<path d="M84.432 175.224C98.9279 168.849 118.054 175.067 125.777 188.746C130.738 197.522 131.213 209.786 123.893 219.349C116.113 229.526 102.394 232.842 91.191 230.026C74.9551 225.953 64.8597 209.172 68.268 194.435C68.4549 193.635 71.6331 180.842 84.432 175.21V175.224Z" fill="#F7D0DD"/>
<path d="M166.302 231.498C178.641 231.598 198.515 226.924 201.693 214.675C205.058 201.668 188.319 185.016 170.674 182.929C149.606 180.442 127.546 198.766 129.645 212.345C131.472 224.152 151.447 231.37 166.302 231.498Z" fill="#F7D0DD"/>
<path d="M166.302 235.787C178.828 235.701 195.581 232.642 203.146 221.536C211.444 209.358 202.297 195.05 192.144 187.403C178.555 177.154 161.283 175.953 146.14 183.629C135.427 189.061 122.038 201.482 125.777 214.875C130.12 230.441 152.453 235.401 166.288 235.787C171.839 235.944 171.839 227.368 166.288 227.21C156.825 226.953 133.845 223.251 133.816 210.272C133.801 196.265 154.884 187.131 166.432 186.988C177.979 186.845 198.688 197.337 197.796 211.616C196.976 224.495 176.038 227.139 166.288 227.21C160.737 227.253 160.722 235.829 166.288 235.787H166.302Z" fill="#3E302E"/>
<path d="M152.799 208.915C153.374 208.886 153.101 209.029 152.942 208.872C152.971 208.9 152.166 208.329 152.597 208.714C152.942 209.029 152.511 208.543 152.439 208.414C152.209 207.985 152.396 208.9 152.41 208.386C152.41 208 152.281 207.528 152.353 208.143C152.065 208.143 152.439 208.814 152.353 208.143L152.151 208.457L152.367 208.143C153.072 207.728 152.108 208.143 152.64 208C153.288 207.814 153.575 207.828 154.194 208.028C153.705 207.528 154.582 208.143 154.194 208.028C153.848 207.657 154.194 207.628 154.122 207.914C154.078 208.128 154.107 208.4 154.064 208.629C154.165 207.971 153.978 208.586 154.007 208.629C154.007 208.629 154.28 208.043 153.906 208.657C153.791 208.843 152.971 208.972 153.92 208.786C156.207 208.329 157.515 205.627 156.94 203.512C156.279 201.139 153.92 200.067 151.634 200.51C147.435 201.339 144.904 205.77 145.723 209.801C146.543 213.832 150.785 217.205 154.984 216.204C158.551 215.347 161.096 211.616 160.967 208.014C160.823 203.755 157.127 200.124 152.77 200.353C150.44 200.481 148.456 202.239 148.456 204.641C148.456 206.871 150.426 209.057 152.77 208.929L152.799 208.915Z" fill="#3E302E"/>
<path d="M173.723 209.601C173.119 209.529 172.96 209.472 172.558 209.043C172.946 209.458 172.63 209.329 172.615 208.857C172.586 208.3 172.414 209.315 172.644 208.772C172.932 208.085 172.313 209.315 172.673 208.714C172.989 208.171 172.241 209.115 172.687 208.686C172.773 208.6 173.363 208.2 172.975 208.414C172.586 208.629 173.377 208.271 173.507 208.271C173.679 208.271 173.924 208.429 174.068 208.414C174.327 208.386 174.197 208.786 173.967 208.314C174.226 208.829 174.341 209.015 174.24 209.629C174.355 208.986 174.154 209.529 174.183 209.586C174.413 209.215 174.442 209.143 174.269 209.386C174.125 209.558 174.14 209.558 174.298 209.386C174.643 209.343 174.168 209.458 173.981 209.529C173.521 209.701 174.816 209.558 173.723 209.586C176.052 209.529 178.037 207.657 178.037 205.298C178.037 202.94 176.067 200.953 173.723 201.01C169.638 201.096 166.245 204.283 165.784 208.3C165.267 212.788 169.006 216.762 173.507 216.847C177.706 216.933 180.927 213.303 181.201 209.329C181.33 207.371 180.64 205.47 179.417 203.955C177.936 202.096 176.024 201.282 173.708 201.01C171.393 200.739 169.394 203.168 169.394 205.298C169.394 207.842 171.379 209.315 173.708 209.586L173.723 209.601Z" fill="#3E302E"/>
<path d="M59.7259 262.673C46.9413 216.933 54.7789 169.435 77.7307 128.298C80.4199 123.467 72.9706 119.136 70.2814 123.967C46.2367 167.077 38.0108 217.048 51.4138 264.96C52.895 270.277 61.2215 268.019 59.7402 262.673H59.7259Z" fill="#3E302E"/>
<path d="M270.391 127.255C294.55 166.405 306.918 211.359 306.357 257.27C306.285 262.787 314.914 262.787 314.986 257.27C315.575 209.929 302.762 163.304 277.84 122.924C274.935 118.221 267.471 122.524 270.391 127.255Z" fill="#3E302E"/>
<path d="M71.9208 129.671C61.6673 116.692 58.259 100.211 63.0334 84.3597L60.0135 87.3613C69.1597 85.5318 78.5216 85.0029 87.8116 85.932C93.5639 86.518 99.2587 87.7044 104.781 89.4053C109.009 90.7061 113.338 93.5076 117.58 94.4653C120.931 95.2229 124.857 93.865 128.25 93.3504C132.982 92.6214 137.727 92.0354 142.487 91.5637C153.633 90.4774 164.85 90.0628 176.052 90.3344C187.025 90.606 197.997 91.4922 208.855 93.0931C212.508 93.6363 216.995 95.2514 220.705 94.6797C223.782 94.208 226.975 92.5356 229.995 91.7066C249.768 86.2321 270.577 86.1178 290.466 91.0205L287.302 86.8897C288.151 100.926 285.059 114.419 278.286 126.769C275.625 131.614 283.074 135.945 285.735 131.1C293.213 117.478 296.866 102.413 295.931 86.8897C295.816 85.0315 294.68 83.2305 292.767 82.7588C273.281 77.9561 252.947 77.5845 233.331 82.0298C229.233 82.9589 225.278 84.5312 221.194 85.446C216.851 86.418 212.191 84.96 207.762 84.3597C196.789 82.8588 185.731 81.9583 174.643 81.7439C163.138 81.5295 151.605 82.0155 140.158 83.2448C132.277 84.0738 123.16 87.4042 115.854 84.3597C97.4467 76.6554 77.2129 75.1832 57.7269 79.0853C56.2601 79.3855 55.124 80.7148 54.7069 82.087C48.969 101.14 53.6284 120.308 65.8089 135.745C69.2316 140.091 75.3003 133.973 71.9064 129.685L71.9208 129.671Z" fill="#3E302E"/>
<path d="M106.406 185.43C106.003 198.766 106.003 212.488 104.033 225.695C102.063 238.903 100.395 252.153 100.15 265.775C99.9491 276.809 117.206 276.824 117.407 265.775C117.666 252.382 119.478 239.674 121.204 226.481C122.93 213.288 123.26 199.081 123.677 185.43C124.008 174.395 106.751 174.395 106.42 185.43H106.406Z" fill="#1E96EB"/>
<path d="M208.05 182.3C208.625 195.964 210.437 209.386 211.976 222.937C213.572 237.002 214.55 251.138 216.232 265.203C217.527 276.023 234.798 276.166 233.489 265.203C231.807 251.138 230.829 237.016 229.233 222.937C227.694 209.372 225.867 195.95 225.307 182.3C224.846 171.308 207.589 171.251 208.05 182.3Z" fill="#1E96EB"/>
<path d="M199.493 174.881C209.272 179.827 219.756 181.456 230.599 179.998C236.078 179.269 233.748 170.993 228.298 171.722C219.9 172.852 211.372 171.279 203.836 167.477C198.904 164.976 194.532 172.38 199.479 174.881H199.493Z" fill="#3E302E"/>
<path d="M126.755 169.007C119.219 172.809 110.692 174.381 102.293 173.252C96.8573 172.523 94.5132 180.785 99.9923 181.528C110.85 182.986 121.319 181.356 131.098 176.411C136.045 173.909 131.688 166.505 126.741 169.007H126.755Z" fill="#3E302E"/>
</svg>
