<svg width="360" height="360" viewBox="0 0 360 360" fill="none" xmlns="http://www.w3.org/2000/svg">
<path d="M92.0578 269.076C85.4381 265.651 62.7956 253.73 59.561 229.454C57.1538 211.371 66.3763 192.869 82.6999 181.082C81.6167 177.792 78.9086 168.1 82.6247 156.612C86.07 145.993 93.0357 139.905 95.834 137.706C92.795 132.037 88.417 122.106 87.3337 109.033C86.431 98.1142 88.1461 89.1548 89.7409 83.3812C95.7438 82.9176 102.92 82.8727 110.924 83.8449C124.871 85.5201 136.109 89.6334 143.947 93.298C156.735 90.7851 172.352 88.736 190.18 88.5714C210.069 88.392 227.341 90.5757 241.137 93.298C248.148 90.0522 259.537 85.8193 274.16 84.7872C290.363 83.6505 303.347 86.9411 310.96 89.5138C311.351 95.4219 311.261 103.663 309.079 113.146C306.431 124.604 301.798 133.264 298.262 138.768C306.898 152.753 318.211 174.8 324.395 203.818C329.721 228.751 329.42 250.245 328.021 265.412C284.225 269.585 252.345 272.681 143.752 276.331C119.71 277.138 106.681 276.645 92.0427 269.076H92.0578Z" fill="#FCEAF0"/>
<path d="M208.534 183.087C222.782 176.775 241.603 182.937 249.201 196.489C254.075 205.194 254.557 217.354 247.35 226.837C239.692 236.918 226.197 240.209 215.199 237.427C199.237 233.388 189.307 216.756 192.647 202.143C192.828 201.35 195.957 188.666 208.534 183.087Z" fill="#F7D0DD"/>
<path d="M108.652 235.378C101.325 240.388 89.244 243.23 81.5561 237.786C68.9034 228.841 72.2133 200.378 86.4006 191.014C90.6282 188.217 97.1727 186.258 104.078 186.901C106.245 187.11 112.654 187.709 116.776 191.448C126.345 200.108 123.787 225.027 108.652 235.378Z" fill="#F7D0DD"/>
<path d="M90.2973 135.568C83.8732 118.681 82.9705 100.478 87.514 83.0224C87.8751 81.6165 89.169 80.1656 90.6735 79.8814C108.983 76.4412 127.774 78.7746 144.459 87.1357C148.476 89.1549 150.747 87.9434 155.441 87.2404C160.421 86.4925 165.431 85.8494 170.441 85.3558C182.597 84.1592 194.829 83.8002 207.045 84.2789C217.26 84.6827 227.702 87.2254 237.842 87.2554C241.438 87.2554 243.529 85.9092 247.019 84.4883C252.39 82.2895 257.927 80.5844 263.629 79.5075C281.141 76.2169 299.225 78.4006 315.639 85.2062C317.7 86.0588 318.693 87.3302 318.948 89.5289C321.22 109.228 315.217 128.164 302.911 143.6C299.3 148.117 292.951 141.73 296.532 137.258C307.379 123.647 311.907 106.745 309.921 89.5438L313.231 93.8665C296.637 86.9861 278.342 84.8323 260.785 89.3344C253.233 91.2639 245.319 97.4413 237.601 96.2597C227.461 94.7041 217.291 93.6721 207.03 93.2682C195.716 92.8195 184.373 93.1037 173.089 94.0909C167.583 94.5695 162.091 95.2276 156.645 96.0802C153.155 96.6186 148.746 98.3238 145.211 97.6507C142.398 97.1122 139.133 94.4498 136.485 93.2981C132.333 91.4883 127.985 90.1122 123.576 89.0802C113.557 86.7468 103.146 86.6421 93.0505 88.5417L96.2099 85.4007C92.0576 101.405 93.1258 117.753 98.9932 133.174C101.054 138.574 92.3284 140.922 90.2823 135.568H90.2973Z" fill="#3E302E"/>
<path d="M107.524 131.604C92.5089 142.642 84.49 161.474 87.0477 179.901C87.3486 182.1 86.7768 183.655 84.9715 184.972C58.8386 203.967 56.7173 242.557 83.3466 262.181C87.9654 265.577 83.467 273.369 78.788 269.929C66.5566 260.925 57.6802 247.493 55.4234 232.401C52.1587 210.489 62.8255 189.997 80.4129 177.224L78.3367 182.294C75.1773 159.514 84.3546 137.542 102.965 123.871C107.644 120.431 112.142 128.223 107.524 131.619V131.604Z" fill="#3E302E"/>
<path d="M294.275 128.672C323.793 167.157 337.288 216.053 331.722 264.126C331.06 269.794 322.033 269.869 322.695 264.126C328.096 217.384 315.172 170.597 286.467 133.189C282.946 128.597 290.785 124.125 294.26 128.657L294.275 128.672Z" fill="#3E302E"/>
<path d="M217.652 168.863C210.852 169.371 205.375 172.632 200.907 177.628L197.717 169.969C206.428 169.296 215.154 171.615 222.346 176.536C227.1 179.796 222.586 187.574 217.787 184.284C211.769 180.17 204.999 178.375 197.717 178.944C193.55 179.273 192.136 173.948 194.528 171.286C200.636 164.465 208.505 160.576 217.667 159.888C223.459 159.454 223.429 168.429 217.667 168.863H217.652Z" fill="#3E302E"/>
<path fill-rule="evenodd" clip-rule="evenodd" d="M112.366 182.401C112.367 182.4 112.367 182.399 112.368 182.399V182.429C112.734 182.142 113.017 181.792 113.225 181.401C116.009 177.722 116.074 172.622 114.234 168.444C111.827 162.984 105.929 161.354 101.085 165.033C96.4809 168.533 94.7808 175.189 97.5641 180.365C100.303 185.467 106.108 186.025 110.65 183.537C111.238 183.326 111.816 182.962 112.353 182.414C112.357 182.409 112.362 182.405 112.366 182.401Z" fill="#3E302E"/>
<path d="M156.239 221.811C168.906 222.215 187.953 217.444 191.338 205.119C193.279 198.089 189.292 191.508 187.953 189.279C179.302 174.95 156.57 167.711 139.388 175.863C130.512 180.066 119.048 190.326 120.537 201.335C122.403 215.081 143.27 221.393 156.239 221.811Z" fill="#F7D0DD"/>
<path d="M156.239 217.324C166.364 217.459 187.893 214.512 187.336 200.542C186.78 186.542 169.945 177.852 157.698 177.029C145.452 176.207 123.321 185.196 125.066 200.527C126.495 213.017 146.219 216.831 156.239 217.324C162.016 217.608 162.061 226.583 156.239 226.299C141.299 225.566 117.844 219.284 116.024 201.335C113.918 180.664 139.945 166.903 157.698 168.04C175.451 169.177 195.882 181.322 196.363 200.527C196.86 220.256 171.87 226.493 156.239 226.284C150.432 226.209 150.416 217.235 156.239 217.309V217.324Z" fill="#3E302E"/>
<path d="M143.405 189.563C147.979 189.354 151.8 193.348 151.74 197.805C151.695 201.694 148.927 205.643 144.895 206.151C140.863 206.66 136.966 203.309 136.199 199.39C135.387 195.247 137.869 190.625 142.202 189.728C144.579 189.234 147.076 190.416 147.753 192.869C148.37 195.098 147.001 197.895 144.594 198.388C143.872 198.538 144.699 198.194 145.03 197.865C144.609 198.284 145.075 198.194 145.015 197.85C145.166 198.568 144.714 197.79 145.015 197.79C145.136 197.79 144.729 197.162 145.105 197.85C145 197.67 144.91 197.506 144.805 197.326C145.151 197.925 144.805 197.431 144.805 197.416L145.136 197.611C144.654 197.296 144.158 197.207 143.661 197.341C143.3 197.401 143.089 197.551 142.789 197.7C142.578 197.88 142.563 197.88 142.743 197.7C142.909 197.521 142.909 197.521 142.743 197.7C142.578 197.895 142.578 197.895 142.713 197.67C142.834 197.446 142.834 197.431 142.728 197.67C142.638 197.895 142.623 197.88 142.698 197.64C142.759 197.386 142.774 197.386 142.713 197.64C142.683 197.91 142.668 197.91 142.683 197.64C142.683 197.371 142.683 197.371 142.683 197.64C142.743 197.805 142.894 198.134 142.939 198.299C142.984 198.523 142.638 198.149 142.804 198.194C143.074 198.284 144.519 198.508 143.375 198.568C140.938 198.687 138.862 196.429 138.862 194.081C138.862 191.553 140.938 189.713 143.375 189.593L143.405 189.563Z" fill="#3E302E"/>
<path d="M163.972 190.281C166.229 190.581 168.109 191.299 169.599 193.093C170.968 194.739 171.75 196.788 171.6 198.927C171.329 203.1 167.959 206.944 163.551 206.734C159.142 206.525 155.487 202.636 155.833 198.254C156.179 193.871 159.564 190.371 163.957 190.266C166.319 190.207 168.576 192.375 168.47 194.754C168.365 197.132 166.484 199.181 163.957 199.241C164.303 199.241 164.559 199.076 164.859 198.942C164.213 199.241 164.905 199.017 164.859 198.882C164.995 199.361 164.228 198.882 164.829 198.882C164.528 198.882 164.739 199.54 164.814 198.882C164.859 198.388 164.709 198.448 164.814 198.837C164.754 198.613 164.664 198.299 164.619 198.074C164.559 197.715 164.228 197.91 164.679 198.134C164.408 197.999 164.273 197.835 163.942 197.79C163.671 197.76 163.4 197.82 163.144 197.925C163.024 197.984 162.422 198.493 162.738 198.179C163.189 197.715 162.302 198.747 162.678 198.224C163.054 197.7 162.407 198.852 162.618 198.269C162.828 197.685 162.512 199.002 162.588 198.373C162.633 197.955 162.618 198.598 162.663 198.747C162.723 198.912 163.144 199.211 162.783 198.927C162.588 198.732 162.588 198.717 162.753 198.882C163.054 199.196 163.46 199.316 163.957 199.256C161.625 198.957 159.323 197.416 159.443 194.769C159.549 192.6 161.444 189.952 163.957 190.281H163.972Z" fill="#3E302E"/>
<path d="M72.2728 223.382C77.3128 212.852 86.6106 207.019 94.148 208.544C104.589 210.668 107.463 226.089 108.064 229.305C112.608 253.641 89.7399 274.596 86.1893 277.752C81.2245 276.675 51.7216 269.899 43.101 246.775C41.8221 243.365 36.8574 230.053 43.8532 222.844C49.4649 217.055 61.26 216.786 72.2728 223.367V223.382Z" fill="#E60012"/>
<path d="M68.3761 221.108C76.9667 204.611 98.8418 195.831 108.696 216.247C116.835 233.119 112.668 251.891 102.076 266.683C98.6613 271.455 94.4187 277.632 89.3937 280.923C85.2263 283.66 78.6818 280.564 74.394 279.023C58.0854 273.145 43.5672 262.615 37.9555 245.698C35.0669 236.993 33.9686 225.985 41.3255 219.119C50.5028 210.564 64.8105 214.153 74.5595 219.508C79.6446 222.305 75.1011 230.053 70.0009 227.256C59.5749 221.512 42.6194 220.465 44.9814 236.784C46.0496 244.218 49.5701 251.367 54.7304 256.797C63.2308 265.741 75.4772 270.842 87.4078 273.444L83.0147 274.596C93.7115 265.008 103.746 251.547 104.138 236.709C104.303 230.367 102.708 222.589 98.9923 217.309C91.4247 206.57 80.2464 217.863 76.1843 225.656C73.5064 230.786 65.7282 226.254 68.3911 221.123L68.3761 221.108Z" fill="#3E302E"/>
<path d="M154.237 249.168C145.541 252.519 129.639 252.683 127.698 240.777C126.78 235.153 129.022 228.886 134.543 226.583C140.065 224.279 147.121 225.73 152.432 227.989C157.742 230.247 153.169 237.98 147.873 235.737C145.451 234.705 141.539 233.912 138.906 234.585C136.589 235.168 135.461 238.848 137.191 240.718C140.275 244.038 148.595 241.779 151.845 240.523C157.261 238.444 159.608 247.104 154.252 249.183L154.237 249.168Z" fill="#3E302E"/>
</svg>
