<svg width="360" height="360" viewBox="0 0 360 360" fill="none" xmlns="http://www.w3.org/2000/svg">
<path d="M65.9947 262.755C59.7817 250.42 57.1047 239.764 55.8019 232.535C50.1902 201.253 59.7531 174.131 66.6246 154.654C69.4735 146.579 72.2793 140.096 74.2263 135.836C70.8764 131.92 64.0478 122.813 62.1724 109.488C60.8268 99.9215 62.5876 92.0904 64.0335 87.5293C71.2772 85.9803 83.1736 84.3883 97.4178 86.7835C107.696 88.519 115.856 91.7748 121.511 94.5573C132.892 92.4489 146.206 90.7421 161.108 90.2832C182.983 89.609 201.965 91.7605 216.997 94.5573C225.458 90.9286 240.718 85.7222 260.102 86.5253C270.423 86.9556 279.099 88.9636 285.612 91.0433C285.999 96.4362 285.927 104.11 283.751 113.002C281.618 121.737 278.211 128.564 275.405 133.211C277.71 139.364 281.06 148.472 284.882 159.587C293.686 185.161 298.081 197.94 300.987 213.43C302.906 223.628 304.881 238.545 304.351 257.19C291.21 262.354 272.399 268.851 249.179 273.856C191.944 286.191 146.893 281.085 134.08 279.407C116.901 277.155 93.2232 272.623 65.9804 262.741L65.9947 262.755Z" fill="#FCEAF0"/>
<path d="M217.999 178.463C231.8 172.353 250.009 178.319 257.353 191.443C262.077 199.876 262.535 211.637 255.564 220.817C248.148 230.584 235.092 233.768 224.427 231.058C208.98 227.142 199.36 211.049 202.595 196.907C202.767 196.147 205.802 183.855 217.985 178.463H217.999Z" fill="#F7D0DD"/>
<path d="M88.9428 178.463C102.743 172.353 120.953 178.319 128.297 191.443C133.021 199.876 133.479 211.637 126.507 220.817C119.092 230.584 106.036 233.768 95.3705 231.058C79.9238 227.142 70.3037 211.049 73.539 196.907C73.7108 196.147 76.7458 183.855 88.9284 178.463H88.9428Z" fill="#F7D0DD"/>
<path d="M62.7595 261.952C55.6876 218.006 63.3751 173.385 82.7443 133.512C85.1493 128.55 77.7481 124.189 75.3287 129.166C54.8572 171.306 47.0122 217.819 54.485 264.247C55.3583 269.697 63.6471 267.388 62.7738 261.952H62.7595Z" fill="#3E302E"/>
<path d="M265.842 132.508C293.171 168.021 305.411 212.685 300.057 257.19C299.398 262.683 307.988 262.626 308.646 257.19C314.158 211.394 301.359 164.694 273.258 128.163C269.936 123.831 262.464 128.119 265.842 132.508Z" fill="#3E302E"/>
<path d="M77.1754 134.617C67.4694 122.21 64.2483 106.448 68.7721 91.3159L65.7658 94.3279C74.0546 92.6497 82.5152 92.1334 90.9472 92.8649C96.8309 93.3812 102.643 94.543 108.283 96.2928C112.263 97.5263 116 99.7638 119.936 100.926C123 101.829 125.935 100.854 129.056 100.352C133.694 99.5917 138.347 98.9893 143.013 98.5016C153.578 97.4115 164.215 96.9669 174.837 97.1677C185.46 97.3685 195.881 98.1717 206.289 99.6777C209.839 100.194 214.005 101.628 217.584 101.514C220.433 101.413 223.568 99.6634 226.317 98.8602C245.485 93.2808 265.685 93.0513 285.04 97.8418L281.89 93.6968C282.692 107.136 279.771 120.059 273.329 131.877C270.681 136.739 278.097 141.085 280.745 136.223C287.874 123.128 291.367 108.628 290.48 93.6968C290.365 91.8322 289.234 90.025 287.33 89.5517C267.732 84.7038 247.218 84.5604 227.619 89.5804C224.427 90.3979 221.034 92.1621 217.799 92.578C214.019 93.0657 209.052 91.4306 205.273 90.9286C194.736 89.5087 184.128 88.6911 173.506 88.5477C162.884 88.4043 151.603 88.935 140.723 90.1541C136.056 90.6704 131.403 91.3159 126.765 92.0617C123.1 92.6641 121.798 92.2625 118.419 90.8712C101.011 83.6281 81.8853 82.2943 63.4753 86.009C62.0151 86.3102 60.8841 87.6441 60.469 89.021C55.0004 107.337 59.4669 125.839 71.0913 140.698C74.4984 145.058 80.5396 138.92 77.1611 134.617H77.1754Z" fill="#3E302E"/>
<path d="M166.906 232.463C178.66 232.564 197.571 228.074 200.591 216.328C203.798 203.849 187.85 187.857 171.058 185.864C151.002 183.468 130 201.067 132.005 214.09C133.751 225.421 152.762 232.348 166.906 232.478V232.463Z" fill="#F7D0DD"/>
<path d="M166.906 236.766C181.122 236.666 204.972 231.416 205.301 213.273C205.645 194.785 183.312 181.159 166.906 181.331C151.245 181.503 128.512 193.465 127.61 211.322C126.679 229.982 152.748 236.364 166.906 236.766C172.432 236.924 172.432 228.318 166.906 228.16C157.859 227.902 136.299 224.417 136.185 212.025C136.07 198.844 156.184 190.066 166.906 189.937C178.359 189.808 197.37 199.618 196.712 213.273C196.125 225.593 176.054 228.103 166.906 228.16C161.38 228.203 161.366 236.809 166.906 236.766Z" fill="#3E302E"/>
<path d="M154.051 210.978C154.595 210.949 154.38 211.092 154.137 210.935C154.094 210.906 153.364 210.39 153.722 210.748C154.065 211.078 153.607 210.49 153.535 210.404C153.335 210.103 153.435 210.705 153.507 210.318C153.564 210.031 153.564 209.314 153.464 210.002C153.392 210.433 153.335 210.332 153.493 209.959C153.321 210.375 153.278 210.189 153.55 209.916L153.922 209.673C153.578 209.873 153.564 209.888 153.879 209.73C154.566 209.529 154.895 209.543 155.54 209.773C156.041 209.959 154.91 209.271 155.583 209.83C155.239 209.543 155.554 209.371 155.54 209.759C155.54 210.045 155.54 210.261 155.482 210.547C155.597 209.916 155.583 210.547 155.411 210.576C155.64 210.218 155.668 210.16 155.497 210.404C155.439 210.519 155.368 210.59 155.268 210.648C155.11 210.834 154.351 210.978 155.225 210.806C157.501 210.347 158.804 207.636 158.231 205.513C157.572 203.132 155.225 202.057 152.949 202.501C148.811 203.319 146.435 207.679 147.179 211.652C147.924 215.625 152.175 218.909 156.227 217.934C159.706 217.088 162.182 213.43 162.068 209.888C161.924 205.714 158.331 202.128 154.079 202.343C151.846 202.458 149.67 204.237 149.785 206.646C149.885 208.869 151.674 211.078 154.079 210.949L154.051 210.978Z" fill="#3E302E"/>
<path d="M173.964 211.637C173.32 211.566 173.105 211.48 172.69 211.006C173.062 211.437 172.876 211.15 172.718 210.763C172.489 210.175 172.733 211.265 172.747 210.633C172.761 209.916 172.575 211.15 172.79 210.533C172.962 210.045 172.446 210.791 172.833 210.476C172.919 210.404 173.549 209.974 173.162 210.175C172.776 210.375 173.649 210.017 173.764 210.017C174.007 210.017 174.164 210.131 174.393 210.175C174.723 210.232 174.565 210.519 174.336 210.103C174.637 210.648 174.766 210.892 174.637 211.551C174.737 211.021 174.794 211.365 174.565 211.551C175.438 210.834 174.064 211.738 174.651 211.394C175.066 211.15 174.35 211.537 174.293 211.566C173.964 211.752 174.923 211.609 173.964 211.637C176.211 211.58 178.359 209.701 178.259 207.335C178.158 204.968 176.369 202.974 173.964 203.032C169.927 203.118 166.749 206.245 166.219 210.189C165.632 214.606 169.426 218.522 173.764 218.608C178.101 218.694 180.95 215.108 181.279 211.193C181.437 209.285 180.707 207.392 179.547 205.915C178.101 204.079 176.226 203.29 173.964 203.017C171.702 202.745 169.569 205.183 169.669 207.32C169.784 209.873 171.559 211.336 173.964 211.623V211.637Z" fill="#3E302E"/>
<path fill-rule="evenodd" clip-rule="evenodd" d="M78.3537 171.047C78.3027 169.3 79.2152 167.569 81.3984 166.988C103.058 161.208 125.376 160.204 147.494 163.79C148.954 164.034 150.1 165.482 150.5 166.802C153.764 177.688 152.719 189.966 144.302 198.27C136.743 205.728 125.29 208.367 114.954 207.392C95.9861 205.585 81.5702 190.898 78.4064 172.281C78.3336 171.849 78.3188 171.437 78.3537 171.047Z" fill="black"/>
<path fill-rule="evenodd" clip-rule="evenodd" d="M181.178 166.251C181.649 165.362 182.489 164.64 183.756 164.306C205.802 158.497 228.807 158.713 250.739 164.966C252.113 165.368 253.459 166.529 253.745 167.978C255.893 178.836 254.475 190.41 245.9 198.184C238.599 204.796 228.278 207.636 218.586 207.449C196.282 207.033 180.549 190.726 180.606 168.451C180.609 167.581 180.821 166.848 181.178 166.251Z" fill="black"/>
<path d="M250.41 187.384C267.016 185.304 282.649 180.169 296.95 171.349C306.356 165.554 297.723 150.666 288.275 156.49C276.722 163.618 263.91 168.48 250.41 170.173C239.587 171.535 239.444 188.761 250.41 187.384Z" fill="black"/>
<path d="M57.0761 179.553C68.3855 182.005 79.6949 184.458 91.0043 186.911C101.784 189.248 106.394 172.654 95.571 170.316C84.7484 167.978 72.9522 165.411 61.6428 162.958C50.3334 160.505 46.2534 177.215 57.0761 179.553Z" fill="black"/>
<path d="M173.678 254.637C183.24 253.16 191.715 247.423 197.971 240.223C201.579 236.063 195.538 229.953 191.901 234.141C186.49 240.366 179.647 245.071 171.401 246.333C165.961 247.179 168.266 255.469 173.692 254.637H173.678Z" fill="#3E302E"/>
<path d="M217.713 177.832C225.429 177.071 232.988 177.588 240.475 179.624C245.815 181.073 248.091 172.783 242.765 171.32C234.591 169.097 226.145 168.394 217.713 169.226C212.259 169.757 212.201 178.377 217.713 177.832Z" fill="white"/>
<path d="M112.664 177.889C121.368 175.824 130 176.44 138.504 179.094C143.801 180.743 146.063 172.439 140.795 170.789C130.845 167.691 120.552 167.189 110.388 169.584C105.005 170.861 107.281 179.151 112.678 177.889H112.664Z" fill="white"/>
<path d="M78.1917 257.233C76.9606 257.821 77.7336 257.477 79.4801 258.338C82.8873 260.016 86.0797 262.311 89.2435 264.376C90.2456 265.036 94.8982 267.302 95.2274 268.263C95.5137 269.08 92.7794 272.781 92.4931 273.283C92.0207 274.1 90.5319 277.772 89.5154 278.188C88.3845 278.661 81.3412 274.717 80.1387 274.215C77.3471 273.025 74.1404 270.873 71.1913 270.156C69.6452 269.783 69.7454 269.253 70.7046 270.443C71.4347 271.347 70.089 271.863 70.8621 271.433C71.5922 271.017 72.5513 267.99 72.9378 267.259C74.2549 264.72 75.6149 262.196 77.0178 259.715C77.0894 259.585 79.294 256.588 78.206 257.248C82.9302 254.379 78.6212 246.935 73.8684 249.818C69.1156 252.701 66.5817 260.604 64.2482 265.394C63.0743 267.833 61.6571 270.386 62.5446 273.139C63.4322 275.893 65.9231 277.141 68.2709 278.317C71.3059 279.837 74.4983 281.1 77.6191 282.434C81.3698 284.026 85.8506 286.693 90.0881 286.493C96.3584 286.191 98.9925 279.565 101.541 274.774C104.232 269.683 105.019 265.394 100.181 261.364C95.3419 257.334 88.4275 252.93 82.3719 250.191C79.4372 248.857 76.846 248.384 73.8684 249.818C68.8722 252.199 73.2385 259.614 78.206 257.248L78.1917 257.233Z" fill="#F39800"/>
<path d="M123.616 278.374C124.489 277.901 129.843 279.292 131.589 279.651C133.679 280.081 141.195 280.583 142.612 282.304C141.968 281.516 142.655 282.089 142.369 283.409C141.968 285.288 141.725 287.21 141.31 289.089C140.394 293.248 140.737 292.387 136.442 292.101C132.878 291.871 129.313 291.556 125.749 291.197C124.89 291.111 122.084 290.236 121.239 290.566C120.824 290.724 121.067 290.408 121.311 290.695C122.599 292.129 121.568 289.82 121.54 288.773C121.468 285.761 122.198 279.708 124.474 277.7C128.64 274.043 122.542 267.976 118.405 271.619C114.038 275.463 113.151 283.28 112.95 288.773C112.836 292.172 113.695 295.987 116.715 297.938C118.949 299.372 122.112 299.415 124.646 299.688C130.401 300.305 138.26 302.284 143.786 300.147C147.823 298.583 148.725 295.242 149.584 291.369C150.572 286.894 152.648 280.282 149.026 276.395C145.404 272.508 138.461 272.279 133.866 271.332C129.27 270.386 123.673 268.593 119.264 270.931C114.382 273.527 118.72 280.956 123.601 278.36L123.616 278.374Z" fill="#F39800"/>
<path d="M219.545 276.739C220.647 274.631 225.386 273.67 227.39 272.867C230.096 271.791 235.793 268.449 238.814 268.75C240.546 268.923 241.62 272.293 242.737 274.774C243.323 276.08 244.454 277.844 244.641 279.321C244.855 280.311 244.941 280.21 244.884 279.006C244.054 279.995 243.08 280.77 241.949 281.315C237.74 284.083 231.57 288.156 226.574 289.461C225.672 289.691 225.944 289.461 226.588 289.662C227.104 289.82 225.715 288.902 225.486 288.472C223.697 285.259 219.173 279.508 219.989 275.678C221.134 270.271 212.86 267.962 211.7 273.383C210.34 279.794 214.162 286.779 217.498 292.072C219.431 295.127 222.451 298.182 226.302 298.211C229.208 298.225 232.114 296.375 234.605 295.084C240.06 292.258 248.248 289.433 251.798 284.183C254.203 280.626 253.187 277.543 251.655 273.885C249.78 269.41 247.661 262.354 242.608 260.446C237.196 258.409 229.924 262.612 225.1 264.534C220.776 266.24 214.477 267.876 212.13 272.351C209.553 277.241 216.968 281.602 219.545 276.696V276.739Z" fill="#F39800"/>
<path d="M169.612 281.3C171.373 279.034 176.211 279.651 178.788 279.493C182.267 279.278 185.817 278.891 189.296 278.991C191.873 279.063 192.231 278.862 193.548 280.899C195.123 283.337 196.483 289.418 194.836 291.971C193.19 294.525 188.48 293.133 185.903 293.277C182.611 293.463 179.404 294.381 176.14 294.539C172.661 294.711 169.97 294.826 169.182 291.541C168.553 288.888 169.168 282.907 170.285 280.44C172.575 275.434 165.174 271.06 162.869 276.094C159.176 284.169 157.945 299.329 168.51 302.27C175.252 304.149 181.508 301.839 188.265 301.811C193.075 301.796 197.814 302.729 201.092 298.397C206.418 291.369 204.571 274.559 195.409 271.203C190.728 269.482 184.872 270.515 180.048 270.802C174.737 271.131 167.221 270.472 163.542 275.205C160.192 279.522 166.219 285.661 169.612 281.286V281.3Z" fill="#F39800"/>
<path d="M90.6036 278.045C100.739 282.692 111.247 286.105 122.227 288.056C127.638 289.017 129.957 280.727 124.517 279.751C114.282 277.944 104.404 274.932 94.9412 270.601C89.945 268.32 85.5787 275.735 90.6036 278.03V278.045Z" fill="#F39800"/>
<path d="M136.385 290.351C148.482 292.559 160.607 293.047 172.819 291.613C178.244 290.982 178.302 282.362 172.819 283.007C161.395 284.355 149.999 284.112 138.661 282.046C133.25 281.057 130.945 289.347 136.371 290.351H136.385Z" fill="#F39800"/>
<path d="M264.053 254.68C264.511 252.529 268.433 251.281 270.266 250.291C273.458 248.585 276.694 246.548 280.072 245.257C282.563 244.31 282.162 244.296 284.181 245.702C286.199 247.107 291.396 253.748 289.936 256.487C289.249 257.778 283.852 259.055 282.42 259.801C279.786 261.178 277.538 263.214 274.89 264.548C270.352 266.857 269.178 267.029 267.088 262.612C265.885 260.073 264.253 256.387 264.196 253.533C264.082 247.996 255.492 247.982 255.607 253.533C255.778 262.124 260.975 275.664 271.182 274.588C277.825 273.885 282.32 269.31 288.118 266.599C292.398 264.591 296.965 263.644 298.139 258.409C300.086 249.818 291.253 235.074 281.518 235.949C276.064 236.451 270.595 240.337 265.914 242.862C261.705 245.114 256.823 247.265 255.75 252.385C254.619 257.793 262.893 260.102 264.039 254.68H264.053Z" fill="#F39800"/>
<path d="M243.352 278.174C251.813 274.359 260.059 270.113 268.104 265.48C272.9 262.727 268.577 255.283 263.767 258.051C255.721 262.683 247.475 266.929 239.015 270.744C233.976 273.01 238.342 280.426 243.352 278.174Z" fill="#F39800"/>
<path d="M188.91 291.183C203.311 289.504 217.613 287.167 231.785 284.069C237.182 282.892 234.906 274.588 229.495 275.764C216.066 278.69 202.552 280.985 188.895 282.577C183.47 283.208 183.412 291.814 188.895 291.183H188.91Z" fill="#F39800"/>
<path d="M283.179 256.473C291.897 249.933 299.785 242.546 306.742 234.141C310.25 229.91 304.208 223.786 300.672 228.06C294.202 235.862 286.944 242.962 278.841 249.044C274.475 252.328 278.741 259.801 283.179 256.473Z" fill="#F39800"/>
<path d="M81.0692 262.899C72.852 258.825 66.1093 252.4 60.5548 245.142C57.2336 240.811 49.7751 245.085 53.1393 249.488C59.5813 257.907 67.1544 265.581 76.7316 270.328C81.6705 272.781 86.0225 265.351 81.0692 262.899Z" fill="#F39800"/>
</svg>
