<svg width="360" height="360" viewBox="0 0 360 360" fill="none" xmlns="http://www.w3.org/2000/svg">
<path d="M114.271 290.249C105.547 286.292 72.5713 271.356 71.0379 242.421C69.6831 217.176 93.2499 199.414 96.1678 197.272C95.617 190.785 95.4979 179.926 99.4728 167.608C102.242 159.024 106.083 152.538 109.194 148.135C106.857 139.358 104.207 130.224 101.155 120.807C98.788 113.473 96.3316 106.436 93.8454 99.6826C99.3388 97.6296 107.11 95.4726 116.578 95.1007C130.081 94.5651 140.904 97.9123 147.41 100.516C158.635 96.7222 172.466 93.0775 188.499 90.9799C206.394 88.6294 222.19 88.8526 234.933 89.9386C241.156 89.0608 252.545 86.5616 263.696 78.2308C269.487 73.9018 273.581 69.2158 276.365 65.4074C278.211 66.7463 295.168 79.4656 294.855 100.412C294.691 111.896 289.406 120.227 286.905 123.693C291.833 129.376 296.76 135.059 301.688 140.741C305.842 145.517 309.98 150.307 314.134 155.082V255.855C310.397 259.232 304.8 263.903 297.475 268.663C277.824 281.427 256.371 287.884 198.608 292.332C153.142 295.828 130.081 297.419 114.271 290.249Z" fill="#FCEAF0"/>
<path d="M207.868 181.324C220.641 173.41 239.236 177.382 248.064 189.982C253.736 198.075 255.656 210.095 249.955 220.345C243.895 231.234 231.494 236.054 220.701 234.552C205.069 232.365 193.636 216.983 195.05 202.077C195.124 201.273 196.568 188.301 207.838 181.324H207.868Z" fill="#F7D0DD"/>
<path d="M103.001 189.372C112.693 190.548 118.514 204.665 119.273 206.54C120.866 210.422 124.93 220.271 119.898 229.018C115.834 236.069 108.286 238.197 105.457 239C95.1405 241.901 80.8337 239.61 75.906 231.309C67.4797 217.087 88.0392 187.557 103.001 189.387V189.372Z" fill="#F7D0DD"/>
<path d="M112.067 145.07C110.028 127.457 103.254 111.524 91.895 97.8825L90.9869 104.889C106.351 97.5999 123.992 96.4098 140.1 101.974C142.78 102.896 145.802 105.023 148.69 104.815C151.772 104.592 155.375 102.524 158.337 101.587C167.166 98.8198 176.262 96.8263 185.447 95.7552C194.633 94.6841 204.503 94.4758 214.001 95.175C217.872 95.4577 221.743 95.8891 225.569 96.4842C228.517 96.9453 232.164 98.3586 235.141 97.7933C238.298 97.1834 242.005 94.342 244.788 92.7799C249.076 90.37 253.289 87.8112 257.413 85.1037C265.125 80.0458 272.479 74.482 279.536 68.5463H273.223C289.391 81.3995 293.962 103.61 283.064 121.432C280.057 126.341 287.783 130.834 290.776 125.939C303.579 104.979 298.8 77.5465 279.536 62.2387C277.511 60.6321 275.248 60.5428 273.223 62.2387C265.318 68.8736 256.996 74.9432 248.227 80.3879C244.297 82.8128 240.188 85.6393 235.93 87.4542C232.521 88.9121 230.765 88.3022 226.983 87.722C209.327 85.0442 191.432 85.312 173.88 88.5402C165.796 90.0278 158.263 92.9287 150.343 94.8626C146.398 95.8296 151.013 96.0676 147.217 95.1899C145.936 94.8924 144.686 94.1486 143.435 93.7023C139.475 92.2741 135.396 91.203 131.242 90.5187C115.879 87.9749 100.485 90.5187 86.4909 97.1685C83.6772 98.5074 83.9154 102.167 85.5828 104.175C95.2893 115.823 101.393 130.001 103.15 145.056C103.805 150.694 112.737 150.753 112.082 145.056L112.067 145.07Z" fill="#3E302E"/>
<path d="M114.3 133.705C95.8252 147.748 87.0416 170.702 91.7609 193.493L93.8154 188.45C79.0769 198.105 68.224 214.305 66.5268 231.963C64.0704 257.536 80.4465 280.847 103.284 291.082C108.479 293.418 113.035 285.727 107.795 283.376C87.7711 274.406 72.9284 254.65 75.4592 231.963C77.0671 217.563 86.2824 204.04 98.3263 196.156C100.083 195.01 100.798 193.151 100.381 191.113C96.5547 172.607 103.701 152.881 118.811 141.396C123.322 137.96 118.886 130.209 114.3 133.69V133.705Z" fill="#3E302E"/>
<path fill-rule="evenodd" clip-rule="evenodd" d="M190.764 167.111C187.973 173.028 190.317 180.051 195.511 183.972C201.511 188.509 208.508 185.966 212.483 180.104C216.22 174.6 215.758 166.835 210.592 162.357C204.848 157.397 197.109 159.844 192.409 164.816C191.982 165.149 191.594 165.589 191.268 166.15C191.038 166.447 190.872 166.771 190.764 167.111Z" fill="#3E302E"/>
<path fill-rule="evenodd" clip-rule="evenodd" d="M110.141 168.248C115.351 164.58 122.593 165.259 126.047 171.238C129.307 176.876 127.952 184.537 123.188 188.896C118.008 193.642 111.1 192.556 107.72 186.427C105.046 181.561 104.774 175.685 107.594 171.018C107.813 170.46 108.178 169.915 108.718 169.408C108.74 169.388 108.762 169.367 108.783 169.347C109.207 168.843 109.666 168.483 110.141 168.248Z" fill="#3E302E"/>
<path d="M161.657 223.171C173.21 222.115 191.328 215.599 193.055 203.222C194.886 190.071 177.527 175.21 160.794 174.823C140.83 174.362 122.057 194.534 125.407 207.73C128.325 219.214 147.738 224.451 161.657 223.171Z" fill="#F7D0DD"/>
<path d="M161.658 227.634C176.277 226.028 198.772 218.262 197.581 199.905C196.375 181.131 172.972 168.679 156.09 170.628C139.207 172.577 120.226 187.156 120.553 204.903C120.911 223.826 147.202 228.646 161.658 227.619C167.359 227.218 167.404 218.292 161.658 218.694C152.398 219.348 131.511 217.905 129.605 205.721C127.699 193.538 144.507 181.904 154.854 179.822C167.077 177.367 186.579 185.519 188.574 199.414C190.42 212.282 171.245 217.637 161.658 218.694C156 219.318 155.941 228.244 161.658 227.619V227.634Z" fill="#3E302E"/>
<path d="M147.455 202.463C147.038 202.538 146.472 202.27 146.145 202.3C146.725 202.225 146.413 202.746 146.13 202.24C146.07 202.151 145.773 201.437 145.907 201.868C146.1 202.493 145.832 201.11 145.862 201.764C145.892 202.3 146.026 201.006 145.817 201.839C145.907 201.482 146.115 201.348 145.832 201.749C146.041 201.467 146.294 201.333 145.907 201.63C146.472 201.199 146.755 201.08 147.5 201.08C148.259 201.139 148.437 201.125 148.036 201.035C147.797 200.961 147.812 200.976 148.08 201.08C148.348 201.199 148.363 201.199 148.14 201.08C147.931 200.946 147.931 200.946 148.14 201.08C148.348 201.244 148.363 201.229 148.17 201.05C147.961 200.812 147.991 200.872 148.289 201.184C148.289 201.571 148.467 201.616 148.289 201.184C148.289 201.497 148.393 201.764 148.348 201.288C148.378 201.556 148.318 202.106 148.378 201.497C148.155 201.973 148.125 202.062 148.289 201.779C148.423 201.571 148.408 201.586 148.259 201.809C147.991 202.092 147.812 202.3 147.41 202.434C149.703 201.675 151.192 199.354 150.537 196.944C149.926 194.713 147.336 193.062 145.043 193.82C141.038 195.144 138.552 199.384 139.684 203.549C140.741 207.447 144.85 210.69 148.988 209.693C152.651 208.816 155.047 204.844 154.75 201.184C154.571 199.101 153.782 197.182 152.234 195.739C150.209 193.85 147.708 193.374 145.043 193.82C142.661 194.222 141.336 197.153 141.917 199.31C142.617 201.824 145.028 202.835 147.41 202.434L147.455 202.463Z" fill="#3E302E"/>
<path d="M165.871 200.946C165.603 200.946 165.394 200.753 165.141 200.708C164.858 200.44 164.828 200.411 165.052 200.634C165.23 200.827 165.245 200.827 165.096 200.663C165.052 200.693 164.709 199.934 164.903 200.411C165.141 200.961 164.784 199.652 164.843 200.262C164.888 200.723 165.082 199.548 164.784 200.292C164.918 199.964 165.037 199.801 165.245 199.518C164.933 199.934 165.037 199.622 165.35 199.473C165.662 199.325 165.975 199.191 166.347 199.22C166.555 199.235 166.868 199.473 167.017 199.488C167.196 199.652 167.196 199.637 167.017 199.458C166.838 199.28 166.823 199.265 167.002 199.458C167.136 199.86 167.27 199.979 167.344 200.47C167.27 199.92 167.404 200.262 167.285 200.604C167.493 200.053 167.389 200.485 167.196 200.663C167.598 200.262 167.3 200.574 167.091 200.693C167.821 200.262 166.838 200.723 166.719 200.812C166.347 201.08 166.808 200.812 167.106 200.768C169.429 200.44 170.903 197.361 170.233 195.278C169.414 192.734 167.225 191.812 164.739 192.154C161.077 192.675 158.501 196.617 158.427 200.098C158.352 204.412 162.059 208.161 166.392 208.102C170.724 208.042 173.701 204.323 173.82 200.232C173.954 195.843 170.292 192.02 165.915 191.99C163.578 191.976 161.345 194.058 161.449 196.453C161.553 198.849 163.414 200.887 165.915 200.916L165.871 200.946Z" fill="#3E302E"/>
<path d="M276.797 122.384C291.714 133.259 303.043 147.912 310.293 164.841C312.541 170.107 320.238 165.57 318.005 160.334C310.13 141.917 297.46 126.445 281.308 114.678C276.663 111.286 272.196 119.037 276.797 122.384Z" fill="#3E302E"/>
<path d="M309.668 68.6951V294.816C309.668 300.558 318.6 300.573 318.6 294.816V68.6951C318.6 62.9528 309.668 62.9379 309.668 68.6951Z" fill="#3E302E"/>
<path d="M42.3648 137.022C45.4316 131.83 50.2253 126.207 56.6566 125.523C63.088 124.839 65.604 131.697 65.2169 137.156C64.8 142.943 59.9616 145.799 57.4159 150.53C54.8702 155.261 55.1232 160.899 56.8651 165.882C58.7558 171.268 67.3904 168.947 65.4849 163.502C62.0012 153.565 72.214 149.295 73.8218 140.146C74.983 133.556 73.2263 125.642 68.4326 120.762C57.1479 109.293 40.7718 122.146 34.6531 132.515C31.7203 137.469 39.4468 141.976 42.3648 137.022Z" fill="#3E302E"/>
<path d="M63.0135 171.699C60.2147 173.083 59.3363 176.727 59.9318 179.554C60.6613 183.035 64.0854 185.266 67.5393 184.805C71.4547 184.285 73.2858 180.149 72.3926 176.579C71.4993 173.008 67.7775 170.241 64.0705 171.238C61.8225 171.848 60.2147 174.436 60.9442 176.727C61.6736 179.018 64.0258 180.506 66.4376 179.851C65.7379 180.06 65.0977 180 64.5171 179.673C64.2045 179.509 64.1449 179.494 64.3534 179.613C64.8 179.881 63.6983 178.944 64.2194 179.524L63.8174 179.018C63.9812 179.331 63.9812 179.286 63.8174 178.914C63.475 178.066 63.8025 179.063 63.8174 179.078C63.743 178.989 63.743 177.977 63.7132 178.602C63.8472 177.843 63.877 177.635 63.8025 177.977C63.743 178.2 63.7876 178.126 63.9216 177.754C64.2194 177.233 64.5618 176.683 65.1275 176.4L66.7056 175.998C66.3483 175.998 66.3781 175.998 66.8098 176.028C66.9884 176.073 68.0603 176.519 67.5393 176.192C67.9263 176.43 68.239 176.757 68.4772 177.144C68.0454 176.445 68.8196 177.962 68.6112 177.501C68.2836 176.817 68.7749 177.665 68.6558 177.917C68.7005 177.828 68.7451 176.906 68.626 177.843C68.507 178.855 68.626 177.843 68.7005 177.813C68.7154 177.813 68.2092 178.884 68.507 178.349C68.3134 178.721 68.0454 179.003 67.703 179.227C67.3308 179.479 67.2713 179.539 67.5244 179.405C69.6235 178.364 70.3679 175.225 69.1322 173.306C67.7477 171.164 65.2615 170.598 63.0284 171.699H63.0135Z" fill="#3E302E"/>
<path d="M157.772 238.286C160.987 237.096 165.216 239.104 167.404 241.722C172.615 247.941 169.756 261.567 162.58 263.724C156.7 265.51 148.363 259.455 148.125 254.099C148.065 252.85 149.346 250.618 151.906 246.185C155.956 239.193 156.923 238.583 157.757 238.271L157.772 238.286Z" fill="#E490B1"/>
<path d="M158.963 242.585C168.193 240.354 167.806 261.88 158.472 259.247C156.536 258.696 154.214 257.194 153.246 255.394C152.278 253.594 152.963 253.43 154.11 251.377C155.435 248.982 156.804 246.587 158.293 244.311C159.052 243.15 160.779 241.856 158.963 242.6C164.218 240.458 161.911 231.815 156.581 233.987C153.916 235.073 152.457 236.977 150.879 239.327C148.378 243.031 144.76 247.896 143.867 252.404C142.11 261.181 153.053 268.827 160.868 268.47C180.832 267.577 178.123 228.75 156.581 233.972C150.998 235.325 153.365 243.939 158.963 242.585Z" fill="#3E302E"/>
<path d="M298.115 268.693C300.036 269.199 306.809 270.954 312.869 267.548C326.684 259.782 321.816 233.659 321.086 229.717C319.598 221.714 317.99 213.07 311.469 210.199C302.879 206.391 291.297 215.094 285.788 222.294C284.568 223.885 275.754 235.846 280.28 250.187C280.876 252.061 285.297 265.346 298.115 268.693Z" fill="#FCEAF0"/>
<path d="M296.924 273.007C316.233 277.842 326.52 263.07 326.967 245.62C327.28 233.049 325.627 209.113 310.903 205.32C294.259 201.035 278.166 220.583 275.248 235.087C272.032 251.094 281.099 268.113 296.924 273.022C302.433 274.733 304.785 266.119 299.306 264.409C288.23 260.972 281.843 248.64 283.868 237.453C284.717 232.782 286.816 228.214 289.748 224.481C293.53 219.646 301.763 212.222 308.536 213.918C316.888 216.016 317.737 234.299 318.005 241.767C318.422 253.846 314.878 268.306 299.306 264.409C293.723 263.01 291.356 271.624 296.924 273.022V273.007Z" fill="#3E302E"/>
</svg>
